<?xml version="1.0" encoding="utf-8" standalone="no"?>
<!DOCTYPE svg PUBLIC "-//W3C//DTD SVG 1.1//EN"
  "http://www.w3.org/Graphics/SVG/1.1/DTD/svg11.dtd">
<!-- Created with matplotlib (https://matplotlib.org/) -->
<svg height="576pt" version="1.1" viewBox="0 0 1152 576" width="1152pt" xmlns="http://www.w3.org/2000/svg" xmlns:xlink="http://www.w3.org/1999/xlink">
 <metadata>
  <rdf:RDF xmlns:cc="http://creativecommons.org/ns#" xmlns:dc="http://purl.org/dc/elements/1.1/" xmlns:rdf="http://www.w3.org/1999/02/22-rdf-syntax-ns#">
   <cc:Work>
    <dc:type rdf:resource="http://purl.org/dc/dcmitype/StillImage"/>
    <dc:date>2021-09-12T21:39:23.008853</dc:date>
    <dc:format>image/svg+xml</dc:format>
    <dc:creator>
     <cc:Agent>
      <dc:title>Matplotlib v3.3.4, https://matplotlib.org/</dc:title>
     </cc:Agent>
    </dc:creator>
   </cc:Work>
  </rdf:RDF>
 </metadata>
 <defs>
  <style type="text/css">*{stroke-linecap:butt;stroke-linejoin:round;}</style>
 </defs>
 <g id="figure_1">
  <g id="patch_1">
   <path d="M 0 576 
L 1152 576 
L 1152 0 
L 0 0 
z
" style="fill:#ffffff;"/>
  </g>
  <g id="axes_1">
   <g id="patch_2">
    <path d="M 144 504 
L 1036.8 504 
L 1036.8 69.12 
L 144 69.12 
z
" style="fill:#ffffff;"/>
   </g>
   <g id="matplotlib.axis_1">
    <g id="xtick_1">
     <g id="line2d_1">
      <defs>
       <path d="M 0 0 
L 0 3.5 
" id="m9f50d5e1c3" style="stroke:#000000;stroke-width:0.8;"/>
      </defs>
      <g>
       <use style="stroke:#000000;stroke-width:0.8;" x="144" xlink:href="#m9f50d5e1c3" y="504"/>
      </g>
     </g>
     <g id="text_1">
      <!-- 84 -->
      <g transform="translate(128.73 529.23625)scale(0.24 -0.24)">
       <defs>
        <path d="M 31.78125 34.625 
Q 24.75 34.625 20.71875 30.859375 
Q 16.703125 27.09375 16.703125 20.515625 
Q 16.703125 13.921875 20.71875 10.15625 
Q 24.75 6.390625 31.78125 6.390625 
Q 38.8125 6.390625 42.859375 10.171875 
Q 46.921875 13.96875 46.921875 20.515625 
Q 46.921875 27.09375 42.890625 30.859375 
Q 38.875 34.625 31.78125 34.625 
z
M 21.921875 38.8125 
Q 15.578125 40.375 12.03125 44.71875 
Q 8.5 49.078125 8.5 55.328125 
Q 8.5 64.0625 14.71875 69.140625 
Q 20.953125 74.21875 31.78125 74.21875 
Q 42.671875 74.21875 48.875 69.140625 
Q 55.078125 64.0625 55.078125 55.328125 
Q 55.078125 49.078125 51.53125 44.71875 
Q 48 40.375 41.703125 38.8125 
Q 48.828125 37.15625 52.796875 32.3125 
Q 56.78125 27.484375 56.78125 20.515625 
Q 56.78125 9.90625 50.3125 4.234375 
Q 43.84375 -1.421875 31.78125 -1.421875 
Q 19.734375 -1.421875 13.25 4.234375 
Q 6.78125 9.90625 6.78125 20.515625 
Q 6.78125 27.484375 10.78125 32.3125 
Q 14.796875 37.15625 21.921875 38.8125 
z
M 18.3125 54.390625 
Q 18.3125 48.734375 21.84375 45.5625 
Q 25.390625 42.390625 31.78125 42.390625 
Q 38.140625 42.390625 41.71875 45.5625 
Q 45.3125 48.734375 45.3125 54.390625 
Q 45.3125 60.0625 41.71875 63.234375 
Q 38.140625 66.40625 31.78125 66.40625 
Q 25.390625 66.40625 21.84375 63.234375 
Q 18.3125 60.0625 18.3125 54.390625 
z
" id="DejaVuSans-56"/>
        <path d="M 37.796875 64.3125 
L 12.890625 25.390625 
L 37.796875 25.390625 
z
M 35.203125 72.90625 
L 47.609375 72.90625 
L 47.609375 25.390625 
L 58.015625 25.390625 
L 58.015625 17.1875 
L 47.609375 17.1875 
L 47.609375 0 
L 37.796875 0 
L 37.796875 17.1875 
L 4.890625 17.1875 
L 4.890625 26.703125 
z
" id="DejaVuSans-52"/>
       </defs>
       <use xlink:href="#DejaVuSans-56"/>
       <use x="63.623047" xlink:href="#DejaVuSans-52"/>
      </g>
     </g>
    </g>
    <g id="xtick_2">
     <g id="line2d_2">
      <g>
       <use style="stroke:#000000;stroke-width:0.8;" x="255.6" xlink:href="#m9f50d5e1c3" y="504"/>
      </g>
     </g>
     <g id="text_2">
      <!-- 86 -->
      <g transform="translate(240.33 529.23625)scale(0.24 -0.24)">
       <defs>
        <path d="M 33.015625 40.375 
Q 26.375 40.375 22.484375 35.828125 
Q 18.609375 31.296875 18.609375 23.390625 
Q 18.609375 15.53125 22.484375 10.953125 
Q 26.375 6.390625 33.015625 6.390625 
Q 39.65625 6.390625 43.53125 10.953125 
Q 47.40625 15.53125 47.40625 23.390625 
Q 47.40625 31.296875 43.53125 35.828125 
Q 39.65625 40.375 33.015625 40.375 
z
M 52.59375 71.296875 
L 52.59375 62.3125 
Q 48.875 64.0625 45.09375 64.984375 
Q 41.3125 65.921875 37.59375 65.921875 
Q 27.828125 65.921875 22.671875 59.328125 
Q 17.53125 52.734375 16.796875 39.40625 
Q 19.671875 43.65625 24.015625 45.921875 
Q 28.375 48.1875 33.59375 48.1875 
Q 44.578125 48.1875 50.953125 41.515625 
Q 57.328125 34.859375 57.328125 23.390625 
Q 57.328125 12.15625 50.6875 5.359375 
Q 44.046875 -1.421875 33.015625 -1.421875 
Q 20.359375 -1.421875 13.671875 8.265625 
Q 6.984375 17.96875 6.984375 36.375 
Q 6.984375 53.65625 15.1875 63.9375 
Q 23.390625 74.21875 37.203125 74.21875 
Q 40.921875 74.21875 44.703125 73.484375 
Q 48.484375 72.75 52.59375 71.296875 
z
" id="DejaVuSans-54"/>
       </defs>
       <use xlink:href="#DejaVuSans-56"/>
       <use x="63.623047" xlink:href="#DejaVuSans-54"/>
      </g>
     </g>
    </g>
    <g id="xtick_3">
     <g id="line2d_3">
      <g>
       <use style="stroke:#000000;stroke-width:0.8;" x="367.2" xlink:href="#m9f50d5e1c3" y="504"/>
      </g>
     </g>
     <g id="text_3">
      <!-- 88 -->
      <g transform="translate(351.93 529.23625)scale(0.24 -0.24)">
       <use xlink:href="#DejaVuSans-56"/>
       <use x="63.623047" xlink:href="#DejaVuSans-56"/>
      </g>
     </g>
    </g>
    <g id="xtick_4">
     <g id="line2d_4">
      <g>
       <use style="stroke:#000000;stroke-width:0.8;" x="478.8" xlink:href="#m9f50d5e1c3" y="504"/>
      </g>
     </g>
     <g id="text_4">
      <!-- 90 -->
      <g transform="translate(463.53 529.23625)scale(0.24 -0.24)">
       <defs>
        <path d="M 10.984375 1.515625 
L 10.984375 10.5 
Q 14.703125 8.734375 18.5 7.8125 
Q 22.3125 6.890625 25.984375 6.890625 
Q 35.75 6.890625 40.890625 13.453125 
Q 46.046875 20.015625 46.78125 33.40625 
Q 43.953125 29.203125 39.59375 26.953125 
Q 35.25 24.703125 29.984375 24.703125 
Q 19.046875 24.703125 12.671875 31.3125 
Q 6.296875 37.9375 6.296875 49.421875 
Q 6.296875 60.640625 12.9375 67.421875 
Q 19.578125 74.21875 30.609375 74.21875 
Q 43.265625 74.21875 49.921875 64.515625 
Q 56.59375 54.828125 56.59375 36.375 
Q 56.59375 19.140625 48.40625 8.859375 
Q 40.234375 -1.421875 26.421875 -1.421875 
Q 22.703125 -1.421875 18.890625 -0.6875 
Q 15.09375 0.046875 10.984375 1.515625 
z
M 30.609375 32.421875 
Q 37.25 32.421875 41.125 36.953125 
Q 45.015625 41.5 45.015625 49.421875 
Q 45.015625 57.28125 41.125 61.84375 
Q 37.25 66.40625 30.609375 66.40625 
Q 23.96875 66.40625 20.09375 61.84375 
Q 16.21875 57.28125 16.21875 49.421875 
Q 16.21875 41.5 20.09375 36.953125 
Q 23.96875 32.421875 30.609375 32.421875 
z
" id="DejaVuSans-57"/>
        <path d="M 31.78125 66.40625 
Q 24.171875 66.40625 20.328125 58.90625 
Q 16.5 51.421875 16.5 36.375 
Q 16.5 21.390625 20.328125 13.890625 
Q 24.171875 6.390625 31.78125 6.390625 
Q 39.453125 6.390625 43.28125 13.890625 
Q 47.125 21.390625 47.125 36.375 
Q 47.125 51.421875 43.28125 58.90625 
Q 39.453125 66.40625 31.78125 66.40625 
z
M 31.78125 74.21875 
Q 44.046875 74.21875 50.515625 64.515625 
Q 56.984375 54.828125 56.984375 36.375 
Q 56.984375 17.96875 50.515625 8.265625 
Q 44.046875 -1.421875 31.78125 -1.421875 
Q 19.53125 -1.421875 13.0625 8.265625 
Q 6.59375 17.96875 6.59375 36.375 
Q 6.59375 54.828125 13.0625 64.515625 
Q 19.53125 74.21875 31.78125 74.21875 
z
" id="DejaVuSans-48"/>
       </defs>
       <use xlink:href="#DejaVuSans-57"/>
       <use x="63.623047" xlink:href="#DejaVuSans-48"/>
      </g>
     </g>
    </g>
    <g id="xtick_5">
     <g id="line2d_5">
      <g>
       <use style="stroke:#000000;stroke-width:0.8;" x="590.4" xlink:href="#m9f50d5e1c3" y="504"/>
      </g>
     </g>
     <g id="text_5">
      <!-- 92 -->
      <g transform="translate(575.13 529.23625)scale(0.24 -0.24)">
       <defs>
        <path d="M 19.1875 8.296875 
L 53.609375 8.296875 
L 53.609375 0 
L 7.328125 0 
L 7.328125 8.296875 
Q 12.9375 14.109375 22.625 23.890625 
Q 32.328125 33.6875 34.8125 36.53125 
Q 39.546875 41.84375 41.421875 45.53125 
Q 43.3125 49.21875 43.3125 52.78125 
Q 43.3125 58.59375 39.234375 62.25 
Q 35.15625 65.921875 28.609375 65.921875 
Q 23.96875 65.921875 18.8125 64.3125 
Q 13.671875 62.703125 7.8125 59.421875 
L 7.8125 69.390625 
Q 13.765625 71.78125 18.9375 73 
Q 24.125 74.21875 28.421875 74.21875 
Q 39.75 74.21875 46.484375 68.546875 
Q 53.21875 62.890625 53.21875 53.421875 
Q 53.21875 48.921875 51.53125 44.890625 
Q 49.859375 40.875 45.40625 35.40625 
Q 44.1875 33.984375 37.640625 27.21875 
Q 31.109375 20.453125 19.1875 8.296875 
z
" id="DejaVuSans-50"/>
       </defs>
       <use xlink:href="#DejaVuSans-57"/>
       <use x="63.623047" xlink:href="#DejaVuSans-50"/>
      </g>
     </g>
    </g>
    <g id="xtick_6">
     <g id="line2d_6">
      <g>
       <use style="stroke:#000000;stroke-width:0.8;" x="702" xlink:href="#m9f50d5e1c3" y="504"/>
      </g>
     </g>
     <g id="text_6">
      <!-- 94 -->
      <g transform="translate(686.73 529.23625)scale(0.24 -0.24)">
       <use xlink:href="#DejaVuSans-57"/>
       <use x="63.623047" xlink:href="#DejaVuSans-52"/>
      </g>
     </g>
    </g>
    <g id="xtick_7">
     <g id="line2d_7">
      <g>
       <use style="stroke:#000000;stroke-width:0.8;" x="813.6" xlink:href="#m9f50d5e1c3" y="504"/>
      </g>
     </g>
     <g id="text_7">
      <!-- 96 -->
      <g transform="translate(798.33 529.23625)scale(0.24 -0.24)">
       <use xlink:href="#DejaVuSans-57"/>
       <use x="63.623047" xlink:href="#DejaVuSans-54"/>
      </g>
     </g>
    </g>
    <g id="xtick_8">
     <g id="line2d_8">
      <g>
       <use style="stroke:#000000;stroke-width:0.8;" x="925.2" xlink:href="#m9f50d5e1c3" y="504"/>
      </g>
     </g>
     <g id="text_8">
      <!-- 98 -->
      <g transform="translate(909.93 529.23625)scale(0.24 -0.24)">
       <use xlink:href="#DejaVuSans-57"/>
       <use x="63.623047" xlink:href="#DejaVuSans-56"/>
      </g>
     </g>
    </g>
    <g id="xtick_9">
     <g id="line2d_9">
      <g>
       <use style="stroke:#000000;stroke-width:0.8;" x="1036.8" xlink:href="#m9f50d5e1c3" y="504"/>
      </g>
     </g>
     <g id="text_9">
      <!-- 100 -->
      <g transform="translate(1013.895 529.23625)scale(0.24 -0.24)">
       <defs>
        <path d="M 12.40625 8.296875 
L 28.515625 8.296875 
L 28.515625 63.921875 
L 10.984375 60.40625 
L 10.984375 69.390625 
L 28.421875 72.90625 
L 38.28125 72.90625 
L 38.28125 8.296875 
L 54.390625 8.296875 
L 54.390625 0 
L 12.40625 0 
z
" id="DejaVuSans-49"/>
       </defs>
       <use xlink:href="#DejaVuSans-49"/>
       <use x="63.623047" xlink:href="#DejaVuSans-48"/>
       <use x="127.246094" xlink:href="#DejaVuSans-48"/>
      </g>
     </g>
    </g>
    <g id="text_10">
     <!-- Accuracy /% -->
     <g transform="translate(504.013437 559.503125)scale(0.28 -0.28)">
      <defs>
       <path d="M 34.1875 63.1875 
L 20.796875 26.90625 
L 47.609375 26.90625 
z
M 28.609375 72.90625 
L 39.796875 72.90625 
L 67.578125 0 
L 57.328125 0 
L 50.6875 18.703125 
L 17.828125 18.703125 
L 11.1875 0 
L 0.78125 0 
z
" id="DejaVuSans-65"/>
       <path d="M 48.78125 52.59375 
L 48.78125 44.1875 
Q 44.96875 46.296875 41.140625 47.34375 
Q 37.3125 48.390625 33.40625 48.390625 
Q 24.65625 48.390625 19.8125 42.84375 
Q 14.984375 37.3125 14.984375 27.296875 
Q 14.984375 17.28125 19.8125 11.734375 
Q 24.65625 6.203125 33.40625 6.203125 
Q 37.3125 6.203125 41.140625 7.25 
Q 44.96875 8.296875 48.78125 10.40625 
L 48.78125 2.09375 
Q 45.015625 0.34375 40.984375 -0.53125 
Q 36.96875 -1.421875 32.421875 -1.421875 
Q 20.0625 -1.421875 12.78125 6.34375 
Q 5.515625 14.109375 5.515625 27.296875 
Q 5.515625 40.671875 12.859375 48.328125 
Q 20.21875 56 33.015625 56 
Q 37.15625 56 41.109375 55.140625 
Q 45.0625 54.296875 48.78125 52.59375 
z
" id="DejaVuSans-99"/>
       <path d="M 8.5 21.578125 
L 8.5 54.6875 
L 17.484375 54.6875 
L 17.484375 21.921875 
Q 17.484375 14.15625 20.5 10.265625 
Q 23.53125 6.390625 29.59375 6.390625 
Q 36.859375 6.390625 41.078125 11.03125 
Q 45.3125 15.671875 45.3125 23.6875 
L 45.3125 54.6875 
L 54.296875 54.6875 
L 54.296875 0 
L 45.3125 0 
L 45.3125 8.40625 
Q 42.046875 3.421875 37.71875 1 
Q 33.40625 -1.421875 27.6875 -1.421875 
Q 18.265625 -1.421875 13.375 4.4375 
Q 8.5 10.296875 8.5 21.578125 
z
M 31.109375 56 
z
" id="DejaVuSans-117"/>
       <path d="M 41.109375 46.296875 
Q 39.59375 47.171875 37.8125 47.578125 
Q 36.03125 48 33.890625 48 
Q 26.265625 48 22.1875 43.046875 
Q 18.109375 38.09375 18.109375 28.8125 
L 18.109375 0 
L 9.078125 0 
L 9.078125 54.6875 
L 18.109375 54.6875 
L 18.109375 46.1875 
Q 20.953125 51.171875 25.484375 53.578125 
Q 30.03125 56 36.53125 56 
Q 37.453125 56 38.578125 55.875 
Q 39.703125 55.765625 41.0625 55.515625 
z
" id="DejaVuSans-114"/>
       <path d="M 34.28125 27.484375 
Q 23.390625 27.484375 19.1875 25 
Q 14.984375 22.515625 14.984375 16.5 
Q 14.984375 11.71875 18.140625 8.90625 
Q 21.296875 6.109375 26.703125 6.109375 
Q 34.1875 6.109375 38.703125 11.40625 
Q 43.21875 16.703125 43.21875 25.484375 
L 43.21875 27.484375 
z
M 52.203125 31.203125 
L 52.203125 0 
L 43.21875 0 
L 43.21875 8.296875 
Q 40.140625 3.328125 35.546875 0.953125 
Q 30.953125 -1.421875 24.3125 -1.421875 
Q 15.921875 -1.421875 10.953125 3.296875 
Q 6 8.015625 6 15.921875 
Q 6 25.140625 12.171875 29.828125 
Q 18.359375 34.515625 30.609375 34.515625 
L 43.21875 34.515625 
L 43.21875 35.40625 
Q 43.21875 41.609375 39.140625 45 
Q 35.0625 48.390625 27.6875 48.390625 
Q 23 48.390625 18.546875 47.265625 
Q 14.109375 46.140625 10.015625 43.890625 
L 10.015625 52.203125 
Q 14.9375 54.109375 19.578125 55.046875 
Q 24.21875 56 28.609375 56 
Q 40.484375 56 46.34375 49.84375 
Q 52.203125 43.703125 52.203125 31.203125 
z
" id="DejaVuSans-97"/>
       <path d="M 32.171875 -5.078125 
Q 28.375 -14.84375 24.75 -17.8125 
Q 21.140625 -20.796875 15.09375 -20.796875 
L 7.90625 -20.796875 
L 7.90625 -13.28125 
L 13.1875 -13.28125 
Q 16.890625 -13.28125 18.9375 -11.515625 
Q 21 -9.765625 23.484375 -3.21875 
L 25.09375 0.875 
L 2.984375 54.6875 
L 12.5 54.6875 
L 29.59375 11.921875 
L 46.6875 54.6875 
L 56.203125 54.6875 
z
" id="DejaVuSans-121"/>
       <path id="DejaVuSans-32"/>
       <path d="M 25.390625 72.90625 
L 33.6875 72.90625 
L 8.296875 -9.28125 
L 0 -9.28125 
z
" id="DejaVuSans-47"/>
       <path d="M 72.703125 32.078125 
Q 68.453125 32.078125 66.03125 28.46875 
Q 63.625 24.859375 63.625 18.40625 
Q 63.625 12.0625 66.03125 8.421875 
Q 68.453125 4.78125 72.703125 4.78125 
Q 76.859375 4.78125 79.265625 8.421875 
Q 81.6875 12.0625 81.6875 18.40625 
Q 81.6875 24.8125 79.265625 28.4375 
Q 76.859375 32.078125 72.703125 32.078125 
z
M 72.703125 38.28125 
Q 80.421875 38.28125 84.953125 32.90625 
Q 89.5 27.546875 89.5 18.40625 
Q 89.5 9.28125 84.9375 3.921875 
Q 80.375 -1.421875 72.703125 -1.421875 
Q 64.890625 -1.421875 60.34375 3.921875 
Q 55.8125 9.28125 55.8125 18.40625 
Q 55.8125 27.59375 60.375 32.9375 
Q 64.9375 38.28125 72.703125 38.28125 
z
M 22.3125 68.015625 
Q 18.109375 68.015625 15.6875 64.375 
Q 13.28125 60.75 13.28125 54.390625 
Q 13.28125 47.953125 15.671875 44.328125 
Q 18.0625 40.71875 22.3125 40.71875 
Q 26.5625 40.71875 28.96875 44.328125 
Q 31.390625 47.953125 31.390625 54.390625 
Q 31.390625 60.6875 28.953125 64.34375 
Q 26.515625 68.015625 22.3125 68.015625 
z
M 66.40625 74.21875 
L 74.21875 74.21875 
L 28.609375 -1.421875 
L 20.796875 -1.421875 
z
M 22.3125 74.21875 
Q 30.03125 74.21875 34.609375 68.875 
Q 39.203125 63.53125 39.203125 54.390625 
Q 39.203125 45.171875 34.640625 39.84375 
Q 30.078125 34.515625 22.3125 34.515625 
Q 14.546875 34.515625 10.03125 39.859375 
Q 5.515625 45.21875 5.515625 54.390625 
Q 5.515625 63.484375 10.046875 68.84375 
Q 14.59375 74.21875 22.3125 74.21875 
z
" id="DejaVuSans-37"/>
      </defs>
      <use xlink:href="#DejaVuSans-65"/>
      <use x="66.658203" xlink:href="#DejaVuSans-99"/>
      <use x="121.638672" xlink:href="#DejaVuSans-99"/>
      <use x="176.619141" xlink:href="#DejaVuSans-117"/>
      <use x="239.998047" xlink:href="#DejaVuSans-114"/>
      <use x="281.111328" xlink:href="#DejaVuSans-97"/>
      <use x="342.390625" xlink:href="#DejaVuSans-99"/>
      <use x="397.371094" xlink:href="#DejaVuSans-121"/>
      <use x="456.550781" xlink:href="#DejaVuSans-32"/>
      <use x="488.337891" xlink:href="#DejaVuSans-47"/>
      <use x="522.029297" xlink:href="#DejaVuSans-37"/>
     </g>
    </g>
   </g>
   <g id="matplotlib.axis_2">
    <g id="ytick_1">
     <g id="line2d_10">
      <defs>
       <path d="M 0 0 
L -3.5 0 
" id="ma153e3e4c4" style="stroke:#000000;stroke-width:0.8;"/>
      </defs>
      <g>
       <use style="stroke:#000000;stroke-width:0.8;" x="144" xlink:href="#ma153e3e4c4" y="359.04"/>
      </g>
     </g>
     <g id="text_11">
      <!-- $\mathdefault{10^{4}}$ -->
      <g transform="translate(94.76 368.158125)scale(0.24 -0.24)">
       <use transform="translate(0 0.684375)" xlink:href="#DejaVuSans-49"/>
       <use transform="translate(63.623047 0.684375)" xlink:href="#DejaVuSans-48"/>
       <use transform="translate(128.203125 38.965625)scale(0.7)" xlink:href="#DejaVuSans-52"/>
      </g>
     </g>
    </g>
    <g id="ytick_2">
     <g id="line2d_11">
      <g>
       <use style="stroke:#000000;stroke-width:0.8;" x="144" xlink:href="#ma153e3e4c4" y="151.649126"/>
      </g>
     </g>
     <g id="text_12">
      <!-- $\mathdefault{10^{5}}$ -->
      <g transform="translate(94.76 160.767251)scale(0.24 -0.24)">
       <defs>
        <path d="M 10.796875 72.90625 
L 49.515625 72.90625 
L 49.515625 64.59375 
L 19.828125 64.59375 
L 19.828125 46.734375 
Q 21.96875 47.46875 24.109375 47.828125 
Q 26.265625 48.1875 28.421875 48.1875 
Q 40.625 48.1875 47.75 41.5 
Q 54.890625 34.8125 54.890625 23.390625 
Q 54.890625 11.625 47.5625 5.09375 
Q 40.234375 -1.421875 26.90625 -1.421875 
Q 22.3125 -1.421875 17.546875 -0.640625 
Q 12.796875 0.140625 7.71875 1.703125 
L 7.71875 11.625 
Q 12.109375 9.234375 16.796875 8.0625 
Q 21.484375 6.890625 26.703125 6.890625 
Q 35.15625 6.890625 40.078125 11.328125 
Q 45.015625 15.765625 45.015625 23.390625 
Q 45.015625 31 40.078125 35.4375 
Q 35.15625 39.890625 26.703125 39.890625 
Q 22.75 39.890625 18.8125 39.015625 
Q 14.890625 38.140625 10.796875 36.28125 
z
" id="DejaVuSans-53"/>
       </defs>
       <use transform="translate(0 0.684375)" xlink:href="#DejaVuSans-49"/>
       <use transform="translate(63.623047 0.684375)" xlink:href="#DejaVuSans-48"/>
       <use transform="translate(128.203125 38.965625)scale(0.7)" xlink:href="#DejaVuSans-53"/>
      </g>
     </g>
    </g>
    <g id="ytick_3">
     <g id="line2d_12">
      <defs>
       <path d="M 0 0 
L -2 0 
" id="m231e0b0c48" style="stroke:#000000;stroke-width:0.6;"/>
      </defs>
      <g>
       <use style="stroke:#000000;stroke-width:0.6;" x="144" xlink:href="#m231e0b0c48" y="504"/>
      </g>
     </g>
    </g>
    <g id="ytick_4">
     <g id="line2d_13">
      <g>
       <use style="stroke:#000000;stroke-width:0.6;" x="144" xlink:href="#m231e0b0c48" y="467.48028"/>
      </g>
     </g>
    </g>
    <g id="ytick_5">
     <g id="line2d_14">
      <g>
       <use style="stroke:#000000;stroke-width:0.6;" x="144" xlink:href="#m231e0b0c48" y="441.569126"/>
      </g>
     </g>
    </g>
    <g id="ytick_6">
     <g id="line2d_15">
      <g>
       <use style="stroke:#000000;stroke-width:0.6;" x="144" xlink:href="#m231e0b0c48" y="421.470874"/>
      </g>
     </g>
    </g>
    <g id="ytick_7">
     <g id="line2d_16">
      <g>
       <use style="stroke:#000000;stroke-width:0.6;" x="144" xlink:href="#m231e0b0c48" y="405.049406"/>
      </g>
     </g>
    </g>
    <g id="ytick_8">
     <g id="line2d_17">
      <g>
       <use style="stroke:#000000;stroke-width:0.6;" x="144" xlink:href="#m231e0b0c48" y="391.165253"/>
      </g>
     </g>
    </g>
    <g id="ytick_9">
     <g id="line2d_18">
      <g>
       <use style="stroke:#000000;stroke-width:0.6;" x="144" xlink:href="#m231e0b0c48" y="379.138252"/>
      </g>
     </g>
    </g>
    <g id="ytick_10">
     <g id="line2d_19">
      <g>
       <use style="stroke:#000000;stroke-width:0.6;" x="144" xlink:href="#m231e0b0c48" y="368.529686"/>
      </g>
     </g>
    </g>
    <g id="ytick_11">
     <g id="line2d_20">
      <g>
       <use style="stroke:#000000;stroke-width:0.6;" x="144" xlink:href="#m231e0b0c48" y="296.609126"/>
      </g>
     </g>
    </g>
    <g id="ytick_12">
     <g id="line2d_21">
      <g>
       <use style="stroke:#000000;stroke-width:0.6;" x="144" xlink:href="#m231e0b0c48" y="260.089406"/>
      </g>
     </g>
    </g>
    <g id="ytick_13">
     <g id="line2d_22">
      <g>
       <use style="stroke:#000000;stroke-width:0.6;" x="144" xlink:href="#m231e0b0c48" y="234.178252"/>
      </g>
     </g>
    </g>
    <g id="ytick_14">
     <g id="line2d_23">
      <g>
       <use style="stroke:#000000;stroke-width:0.6;" x="144" xlink:href="#m231e0b0c48" y="214.08"/>
      </g>
     </g>
    </g>
    <g id="ytick_15">
     <g id="line2d_24">
      <g>
       <use style="stroke:#000000;stroke-width:0.6;" x="144" xlink:href="#m231e0b0c48" y="197.658532"/>
      </g>
     </g>
    </g>
    <g id="ytick_16">
     <g id="line2d_25">
      <g>
       <use style="stroke:#000000;stroke-width:0.6;" x="144" xlink:href="#m231e0b0c48" y="183.774379"/>
      </g>
     </g>
    </g>
    <g id="ytick_17">
     <g id="line2d_26">
      <g>
       <use style="stroke:#000000;stroke-width:0.6;" x="144" xlink:href="#m231e0b0c48" y="171.747378"/>
      </g>
     </g>
    </g>
    <g id="ytick_18">
     <g id="line2d_27">
      <g>
       <use style="stroke:#000000;stroke-width:0.6;" x="144" xlink:href="#m231e0b0c48" y="161.138812"/>
      </g>
     </g>
    </g>
    <g id="ytick_19">
     <g id="line2d_28">
      <g>
       <use style="stroke:#000000;stroke-width:0.6;" x="144" xlink:href="#m231e0b0c48" y="89.218252"/>
      </g>
     </g>
    </g>
    <g id="text_13">
     <!-- Energy /A.U. -->
     <g transform="translate(84.936875 373.22)rotate(-90)scale(0.28 -0.28)">
      <defs>
       <path d="M 9.8125 72.90625 
L 55.90625 72.90625 
L 55.90625 64.59375 
L 19.671875 64.59375 
L 19.671875 43.015625 
L 54.390625 43.015625 
L 54.390625 34.71875 
L 19.671875 34.71875 
L 19.671875 8.296875 
L 56.78125 8.296875 
L 56.78125 0 
L 9.8125 0 
z
" id="DejaVuSans-69"/>
       <path d="M 54.890625 33.015625 
L 54.890625 0 
L 45.90625 0 
L 45.90625 32.71875 
Q 45.90625 40.484375 42.875 44.328125 
Q 39.84375 48.1875 33.796875 48.1875 
Q 26.515625 48.1875 22.3125 43.546875 
Q 18.109375 38.921875 18.109375 30.90625 
L 18.109375 0 
L 9.078125 0 
L 9.078125 54.6875 
L 18.109375 54.6875 
L 18.109375 46.1875 
Q 21.34375 51.125 25.703125 53.5625 
Q 30.078125 56 35.796875 56 
Q 45.21875 56 50.046875 50.171875 
Q 54.890625 44.34375 54.890625 33.015625 
z
" id="DejaVuSans-110"/>
       <path d="M 56.203125 29.59375 
L 56.203125 25.203125 
L 14.890625 25.203125 
Q 15.484375 15.921875 20.484375 11.0625 
Q 25.484375 6.203125 34.421875 6.203125 
Q 39.59375 6.203125 44.453125 7.46875 
Q 49.3125 8.734375 54.109375 11.28125 
L 54.109375 2.78125 
Q 49.265625 0.734375 44.1875 -0.34375 
Q 39.109375 -1.421875 33.890625 -1.421875 
Q 20.796875 -1.421875 13.15625 6.1875 
Q 5.515625 13.8125 5.515625 26.8125 
Q 5.515625 40.234375 12.765625 48.109375 
Q 20.015625 56 32.328125 56 
Q 43.359375 56 49.78125 48.890625 
Q 56.203125 41.796875 56.203125 29.59375 
z
M 47.21875 32.234375 
Q 47.125 39.59375 43.09375 43.984375 
Q 39.0625 48.390625 32.421875 48.390625 
Q 24.90625 48.390625 20.390625 44.140625 
Q 15.875 39.890625 15.1875 32.171875 
z
" id="DejaVuSans-101"/>
       <path d="M 45.40625 27.984375 
Q 45.40625 37.75 41.375 43.109375 
Q 37.359375 48.484375 30.078125 48.484375 
Q 22.859375 48.484375 18.828125 43.109375 
Q 14.796875 37.75 14.796875 27.984375 
Q 14.796875 18.265625 18.828125 12.890625 
Q 22.859375 7.515625 30.078125 7.515625 
Q 37.359375 7.515625 41.375 12.890625 
Q 45.40625 18.265625 45.40625 27.984375 
z
M 54.390625 6.78125 
Q 54.390625 -7.171875 48.1875 -13.984375 
Q 42 -20.796875 29.203125 -20.796875 
Q 24.46875 -20.796875 20.265625 -20.09375 
Q 16.0625 -19.390625 12.109375 -17.921875 
L 12.109375 -9.1875 
Q 16.0625 -11.328125 19.921875 -12.34375 
Q 23.78125 -13.375 27.78125 -13.375 
Q 36.625 -13.375 41.015625 -8.765625 
Q 45.40625 -4.15625 45.40625 5.171875 
L 45.40625 9.625 
Q 42.625 4.78125 38.28125 2.390625 
Q 33.9375 0 27.875 0 
Q 17.828125 0 11.671875 7.65625 
Q 5.515625 15.328125 5.515625 27.984375 
Q 5.515625 40.671875 11.671875 48.328125 
Q 17.828125 56 27.875 56 
Q 33.9375 56 38.28125 53.609375 
Q 42.625 51.21875 45.40625 46.390625 
L 45.40625 54.6875 
L 54.390625 54.6875 
z
" id="DejaVuSans-103"/>
       <path d="M 10.6875 12.40625 
L 21 12.40625 
L 21 0 
L 10.6875 0 
z
" id="DejaVuSans-46"/>
       <path d="M 8.6875 72.90625 
L 18.609375 72.90625 
L 18.609375 28.609375 
Q 18.609375 16.890625 22.84375 11.734375 
Q 27.09375 6.59375 36.625 6.59375 
Q 46.09375 6.59375 50.34375 11.734375 
Q 54.59375 16.890625 54.59375 28.609375 
L 54.59375 72.90625 
L 64.5 72.90625 
L 64.5 27.390625 
Q 64.5 13.140625 57.4375 5.859375 
Q 50.390625 -1.421875 36.625 -1.421875 
Q 22.796875 -1.421875 15.734375 5.859375 
Q 8.6875 13.140625 8.6875 27.390625 
z
" id="DejaVuSans-85"/>
      </defs>
      <use xlink:href="#DejaVuSans-69"/>
      <use x="63.183594" xlink:href="#DejaVuSans-110"/>
      <use x="126.5625" xlink:href="#DejaVuSans-101"/>
      <use x="188.085938" xlink:href="#DejaVuSans-114"/>
      <use x="227.449219" xlink:href="#DejaVuSans-103"/>
      <use x="290.925781" xlink:href="#DejaVuSans-121"/>
      <use x="350.105469" xlink:href="#DejaVuSans-32"/>
      <use x="381.892578" xlink:href="#DejaVuSans-47"/>
      <use x="415.583984" xlink:href="#DejaVuSans-65"/>
      <use x="482.242188" xlink:href="#DejaVuSans-46"/>
      <use x="514.029297" xlink:href="#DejaVuSans-85"/>
      <use x="587.222656" xlink:href="#DejaVuSans-46"/>
     </g>
    </g>
   </g>
   <g id="line2d_29">
    <path clip-path="url(#p803a117a05)" d="M 70.902 477.411352 
L 334.836 422.736194 
L 414.63 392.898086 
L 467.64 371.904924 
L 492.75 355.486874 
L 521.766 342.597921 
L 521.208 331.75612 
L 565.29 321.903689 
L 553.572 313.081458 
L 580.914 305.50885 
L 599.886 298.694781 
L 597.654 286.887071 
L 618.858 281.568748 
L 632.25 276.718179 
L 640.062 272.264926 
L 661.824 268.030107 
L 650.664 260.188537 
L 666.846 256.601849 
L 677.448 253.39088 
L 682.47 250.169008 
L 699.21 247.288231 
L 697.536 244.323632 
L 693.63 241.644034 
L 691.398 239.03025 
L 713.718 236.555951 
L 715.95 234.206512 
L 724.878 231.996197 
L 728.784 229.720696 
L 720.414 227.417123 
L 734.364 225.345379 
L 736.596 223.360607 
L 737.154 221.479846 
L 748.872 219.650657 
L 749.43 217.783943 
L 765.612 216.091451 
L 763.38 214.447857 
L 773.982 212.798993 
L 775.098 211.190778 
L 767.286 209.653763 
L 775.656 208.062885 
L 770.634 206.660453 
L 782.352 205.273208 
L 791.28 203.906913 
L 789.048 202.398989 
L 785.142 201.114654 
L 778.446 199.783718 
L 789.606 198.517454 
L 795.186 197.21159 
L 794.628 196.022093 
L 804.672 193.822155 
L 807.462 192.778841 
L 802.44 191.621586 
L 810.81 190.563151 
L 815.274 189.443084 
L 816.948 188.441993 
L 809.694 187.342277 
L 829.782 186.308502 
L 820.854 185.388673 
L 815.832 184.456905 
L 824.76 183.481523 
L 834.804 181.665839 
L 826.434 180.79872 
L 830.34 179.892192 
L 829.224 179.017862 
L 830.898 178.155224 
L 834.804 177.294182 
L 837.036 176.432204 
L 840.942 175.622122 
L 835.362 174.763014 
L 842.058 174.008915 
L 843.174 173.213451 
L 850.986 172.453026 
L 835.362 171.704351 
L 847.638 170.995532 
L 847.08 170.236942 
L 850.986 169.549247 
L 852.102 168.839313 
L 852.102 166.732597 
L 856.008 166.049128 
L 854.892 164.699614 
L 862.704 164.047299 
L 861.588 163.41095 
L 863.82 162.77704 
L 863.262 162.11379 
L 856.566 161.481839 
L 856.566 160.900311 
L 867.726 160.288509 
L 865.494 159.712604 
L 869.958 159.118677 
L 875.538 158.545845 
L 869.4 158.002812 
L 875.538 157.426424 
L 871.632 156.852369 
L 876.096 156.312507 
L 871.632 155.761662 
L 874.422 155.220573 
L 872.19 154.652212 
L 872.19 154.098259 
L 880.56 153.529551 
L 882.792 153.026373 
L 879.444 152.500224 
L 874.98 151.981928 
L 878.886 151.492193 
L 872.19 151.013953 
L 880.002 150.511061 
L 884.466 149.990633 
L 878.886 149.484021 
L 881.118 149.002514 
L 877.212 148.499236 
L 876.654 148.025794 
L 885.582 147.577494 
L 887.256 147.078834 
L 884.466 146.662057 
L 878.886 146.209054 
L 883.35 145.759367 
L 885.582 145.312483 
L 883.908 144.907966 
L 876.096 144.482998 
L 891.162 143.562561 
L 891.162 143.165466 
L 882.792 142.711598 
L 888.93 142.305496 
L 888.93 141.863295 
L 890.604 141.432097 
L 895.626 141.053358 
L 893.394 140.63516 
L 885.024 140.229967 
L 895.068 139.833184 
L 879.444 139.422827 
L 886.698 139.03272 
L 889.488 138.61975 
L 893.952 138.211229 
L 893.394 137.844074 
L 893.952 137.453951 
L 896.742 137.086478 
L 890.604 136.726006 
L 891.162 136.378831 
L 889.488 136.021093 
L 888.372 135.64057 
L 883.35 135.237096 
L 892.836 134.873107 
L 893.952 134.530202 
L 895.626 134.175853 
L 896.742 133.825518 
L 902.88 133.466923 
L 896.184 133.109227 
L 897.858 132.754104 
L 903.438 132.440101 
L 897.858 132.121517 
L 899.532 131.782397 
L 897.858 131.444242 
L 893.394 131.076216 
L 900.09 130.761994 
L 899.532 130.430816 
L 895.068 130.108448 
L 901.206 129.807111 
L 899.532 129.478761 
L 898.974 129.173942 
L 902.322 128.848491 
L 895.626 128.515474 
L 906.228 128.209233 
L 897.3 127.901587 
L 893.394 127.600602 
L 900.648 127.309991 
L 900.648 126.999282 
L 896.184 126.697059 
L 900.09 126.400134 
L 900.09 126.107577 
L 901.764 125.825247 
L 901.764 125.514996 
L 903.438 125.20174 
L 904.554 124.877155 
L 907.902 124.590022 
L 898.974 124.288199 
L 902.88 124.005095 
L 904.554 123.72334 
L 907.902 123.437589 
L 907.902 123.167149 
L 903.996 122.908103 
L 906.228 122.640551 
L 903.996 122.345877 
L 905.112 122.06163 
L 911.808 121.787439 
L 911.25 121.510824 
L 904.554 121.224859 
L 904.554 120.956615 
L 911.808 120.684642 
L 906.228 120.41029 
L 908.46 120.13733 
L 907.344 119.86974 
L 903.438 119.604047 
L 907.344 119.367847 
L 902.88 119.113799 
L 906.228 118.876126 
L 913.482 118.605189 
L 907.344 118.146231 
L 912.366 117.904089 
L 909.018 117.679285 
L 909.576 117.442025 
L 911.808 117.215458 
L 905.112 116.959936 
L 904.554 116.705376 
L 907.902 116.465543 
L 906.228 116.214007 
L 915.714 115.970011 
L 906.786 115.728322 
L 908.46 115.471711 
L 906.228 115.250166 
L 911.808 115.030465 
L 903.996 114.819649 
L 907.902 114.596544 
L 906.786 114.359838 
L 909.018 114.11643 
L 907.344 113.873231 
L 906.786 113.651677 
L 911.808 113.442529 
L 914.04 113.213168 
L 906.786 112.994025 
L 911.808 112.747013 
L 907.902 112.547377 
L 910.134 112.331791 
L 914.04 112.103996 
L 914.598 111.898539 
L 908.46 111.692542 
L 912.366 111.49035 
L 911.808 111.25214 
L 913.482 111.051137 
L 910.134 110.836083 
L 909.576 110.620008 
L 912.366 110.423923 
L 911.25 110.199939 
L 912.366 109.796112 
L 916.83 109.601053 
L 915.156 109.408056 
L 914.598 109.217354 
L 918.504 109.007297 
L 916.83 108.79169 
L 914.04 108.610176 
L 913.482 108.419869 
L 914.04 108.20219 
L 909.576 107.988253 
L 911.25 107.788833 
L 915.156 107.588288 
L 912.924 107.397036 
L 917.946 107.028453 
L 912.366 106.843703 
L 913.482 106.629896 
L 920.178 106.436714 
L 912.924 106.258684 
L 917.388 106.076524 
L 915.156 105.886153 
L 915.714 105.697147 
L 911.25 105.523799 
L 916.272 105.344865 
L 914.04 105.173025 
L 907.902 105.007986 
L 920.178 104.825187 
L 911.25 104.309386 
L 912.366 104.12302 
L 915.156 103.94297 
L 916.272 103.753791 
L 920.736 103.56528 
L 915.156 103.387507 
L 917.388 103.23126 
L 915.714 103.051748 
L 910.134 102.891708 
L 917.388 102.724935 
L 907.902 102.556225 
L 907.902 102.378529 
L 919.62 102.201635 
L 915.714 101.851696 
L 910.134 101.682188 
L 914.04 101.497554 
L 910.134 101.338105 
L 914.04 101.186324 
L 921.294 101.047324 
L 916.272 100.891278 
L 916.272 100.750167 
L 915.714 100.594775 
L 916.83 100.258468 
L 919.062 99.898334 
L 919.62 99.738067 
L 916.272 99.571768 
L 920.178 99.263875 
L 914.04 99.118515 
L 923.526 98.966854 
L 925.2 98.801682 
L 917.946 98.651533 
L 917.946 98.484096 
L 922.968 98.194183 
L 921.294 98.026592 
L 908.46 97.879233 
L 915.714 97.748618 
L 913.482 97.587424 
L 918.504 97.477581 
L 914.04 97.200043 
L 922.41 96.91438 
L 917.946 96.595519 
L 917.388 96.452112 
L 922.968 96.287903 
L 915.156 96.130301 
L 915.714 95.993577 
L 918.504 95.850196 
L 918.504 95.714485 
L 919.062 95.587014 
L 923.526 95.466545 
L 920.736 95.324445 
L 911.808 95.183227 
L 922.968 95.032159 
L 920.736 94.89457 
L 922.41 94.759749 
L 921.294 94.620487 
L 914.598 94.341943 
L 915.156 94.209757 
L 914.598 94.07412 
L 920.736 93.674351 
L 921.294 93.54895 
L 920.178 93.415058 
L 920.178 93.278368 
L 916.272 93.148092 
L 926.874 92.894375 
L 924.084 92.76373 
L 915.714 92.629552 
L 921.294 92.374153 
L 922.41 92.262359 
L 921.852 92.128904 
L 918.504 92.006332 
L 919.062 91.888628 
L 919.062 91.764203 
L 921.852 91.636317 
L 919.062 91.496095 
L 922.968 91.38763 
L 921.852 91.254621 
L 921.852 91.254621 
" style="fill:none;stroke:#1f1f1f;stroke-linecap:square;stroke-width:5;"/>
   </g>
   <g id="line2d_30">
    <path clip-path="url(#p803a117a05)" d="M -1 515.913147 
L 166.878 497.820099 
L 267.318 460.644371 
L 357.156 435.97658 
L 409.05 417.690473 
L 445.32 403.55282 
L 474.894 391.779061 
L 497.214 381.281221 
L 504.468 371.912207 
L 521.208 363.763651 
L 535.158 356.584164 
L 534.042 350.006322 
L 534.6 343.974174 
L 567.522 338.269103 
L 569.196 333.10134 
L 582.03 328.284061 
L 589.842 323.759577 
L 589.842 319.546642 
L 584.262 315.323992 
L 599.328 311.466545 
L 603.234 307.916112 
L 603.234 304.39895 
L 611.046 301.219076 
L 620.532 297.986382 
L 613.278 295.02323 
L 609.93 292.150224 
L 631.692 289.349697 
L 631.692 286.700245 
L 633.366 284.238427 
L 640.062 281.673622 
L 640.62 279.119218 
L 654.57 276.814481 
L 653.454 274.582405 
L 652.896 272.454333 
L 655.686 270.372243 
L 665.73 268.266717 
L 665.73 266.325965 
L 662.382 264.446338 
L 675.216 262.586897 
L 678.006 260.750688 
L 676.89 258.983112 
L 679.68 257.169704 
L 679.122 255.543811 
L 687.492 253.934901 
L 693.072 252.318101 
L 697.536 250.644845 
L 703.116 249.141464 
L 693.63 247.622967 
L 690.282 246.158035 
L 707.022 244.65298 
L 704.232 243.275175 
L 712.602 241.934995 
L 705.906 240.688603 
L 714.276 239.470587 
L 721.53 238.141621 
L 725.994 236.906049 
L 724.32 235.634908 
L 724.32 234.460567 
L 717.066 233.208131 
L 729.342 232.012957 
L 725.436 230.922107 
L 719.856 229.823146 
L 735.48 228.702642 
L 737.154 227.612164 
L 743.292 226.553751 
L 739.944 225.558663 
L 743.85 224.512637 
L 728.226 223.481507 
L 743.85 222.456427 
L 755.568 221.479222 
L 746.082 220.472383 
L 753.336 219.545702 
L 758.358 218.538246 
L 766.17 217.636442 
L 757.242 216.715738 
L 758.358 215.829981 
L 756.684 214.965731 
L 763.938 214.131793 
L 766.17 213.259197 
L 763.938 212.459476 
L 771.75 211.62664 
L 776.772 210.756303 
L 776.772 209.991067 
L 771.75 209.188097 
L 779.004 208.391803 
L 777.33 207.630453 
L 779.562 206.843151 
L 781.236 206.075312 
L 777.888 205.343814 
L 784.584 204.615944 
L 789.606 203.859167 
L 784.026 203.130095 
L 790.722 202.443136 
L 790.164 201.731281 
L 797.976 200.38828 
L 797.976 199.717953 
L 798.534 199.070121 
L 797.976 198.403409 
L 802.44 197.731509 
L 810.252 197.100202 
L 805.23 196.456882 
L 801.324 195.825822 
L 809.136 194.556195 
L 813.6 193.918464 
L 819.738 193.339104 
L 814.158 192.753324 
L 819.738 192.154929 
L 810.81 191.56733 
L 820.296 191.01503 
L 809.136 190.430113 
L 819.18 189.840063 
L 814.158 189.278813 
L 816.39 188.734378 
L 822.528 188.171784 
L 818.064 187.647393 
L 820.296 187.108747 
L 826.434 186.034783 
L 825.876 185.522834 
L 830.34 185.006958 
L 832.014 184.485158 
L 829.782 184.011115 
L 833.13 183.515996 
L 833.13 182.995151 
L 833.688 182.470639 
L 840.384 182.014515 
L 833.688 181.515174 
L 831.456 181.031404 
L 829.782 180.525747 
L 830.898 180.042948 
L 831.456 179.607158 
L 838.71 179.135246 
L 834.804 178.672911 
L 840.942 178.217223 
L 839.268 177.748769 
L 835.362 177.290378 
L 842.058 176.830972 
L 840.384 176.383985 
L 840.384 175.951716 
L 839.268 175.51781 
L 843.174 175.099066 
L 845.406 174.670025 
L 837.036 174.269416 
L 844.848 173.429914 
L 843.174 172.984156 
L 848.754 172.181957 
L 853.776 171.772415 
L 854.334 171.360765 
L 852.102 170.936954 
L 852.66 170.529722 
L 849.87 170.128788 
L 857.124 169.767896 
L 850.428 169.381971 
L 849.312 169.001138 
L 856.008 168.624487 
L 854.892 168.199891 
L 854.892 167.829581 
L 851.544 167.451737 
L 855.45 167.086736 
L 857.124 166.735655 
L 854.892 166.375702 
L 862.146 166.016392 
L 856.566 165.634007 
L 859.914 164.928828 
L 856.566 164.5797 
L 862.704 164.242426 
L 858.24 163.556874 
L 862.704 163.216446 
L 864.936 162.876759 
L 859.914 162.533064 
L 865.494 162.216516 
L 864.378 161.860516 
L 871.632 161.512067 
L 864.378 161.151042 
L 869.4 160.821955 
L 862.704 160.475938 
L 866.052 160.155596 
L 862.146 159.827263 
L 865.494 159.498865 
L 864.378 159.182836 
L 866.052 158.891641 
L 864.936 158.590375 
L 868.284 158.262936 
L 867.168 157.944644 
L 873.306 157.641663 
L 871.074 157.335804 
L 859.356 157.013039 
L 870.516 156.709617 
L 869.4 156.392781 
L 871.632 156.087095 
L 865.494 155.472369 
L 868.284 155.170199 
L 873.306 154.903508 
L 876.654 154.612285 
L 872.748 154.342271 
L 872.19 154.041613 
L 876.096 153.781892 
L 871.074 153.51168 
L 873.306 153.234627 
L 879.444 152.968512 
L 874.422 152.702657 
L 875.538 152.429836 
L 873.864 152.142444 
L 871.074 151.856768 
L 877.77 151.579131 
L 874.422 151.314294 
L 876.654 151.045543 
L 876.654 150.766983 
L 877.77 150.471865 
L 880.002 150.208843 
L 878.886 149.949156 
L 882.234 149.703204 
L 877.212 149.448962 
L 889.488 148.913976 
L 875.538 148.641409 
L 878.886 148.375805 
L 878.328 148.139782 
L 881.676 147.871316 
L 880.002 147.625539 
L 876.096 147.354221 
L 878.886 147.118589 
L 887.256 146.874514 
L 875.538 146.619754 
L 876.096 146.386073 
L 880.002 146.147484 
L 876.654 145.901461 
L 883.908 145.650124 
L 882.234 145.416459 
L 877.212 145.165155 
L 885.024 144.918362 
L 878.886 144.696181 
L 880.56 144.441668 
L 880.002 144.20689 
L 885.024 143.969303 
L 884.466 143.748885 
L 879.444 143.514918 
L 883.908 143.058907 
L 890.046 142.826406 
L 887.256 142.615566 
L 887.256 141.900094 
L 888.372 141.680511 
L 886.14 141.451845 
L 885.582 141.236642 
L 886.14 141.023947 
L 885.582 140.805232 
L 888.372 140.353976 
L 886.698 140.130351 
L 887.256 139.923144 
L 885.024 139.714485 
L 887.256 139.499112 
L 888.93 139.067965 
L 886.698 138.857326 
L 893.952 138.655019 
L 885.582 138.250446 
L 887.814 138.034811 
L 886.14 137.827497 
L 894.51 137.647423 
L 887.814 137.437265 
L 892.836 137.015345 
L 892.836 136.809722 
L 886.698 136.603591 
L 886.698 136.41688 
L 891.162 136.211047 
L 888.372 136.015599 
L 888.372 135.823278 
L 888.93 135.622278 
L 888.93 135.423107 
L 893.394 135.221821 
L 891.72 135.022707 
L 887.814 134.807734 
L 890.604 134.618452 
L 890.046 134.424596 
L 888.93 134.24735 
L 886.14 134.062494 
L 893.394 133.697859 
L 888.93 133.530254 
L 894.51 133.169016 
L 889.488 132.963555 
L 893.394 132.750862 
L 892.836 132.561307 
L 892.836 132.376581 
L 897.858 132.18755 
L 892.836 131.819893 
L 897.858 131.649512 
L 894.51 131.469013 
L 893.952 131.288757 
L 891.162 131.109115 
L 895.626 130.752102 
L 891.162 130.576598 
L 892.836 130.391164 
L 890.046 130.219248 
L 897.3 130.060088 
L 895.068 129.875979 
L 900.09 129.742042 
L 901.764 129.57852 
L 897.858 129.414262 
L 898.416 129.246551 
L 900.09 129.063818 
L 898.416 128.882154 
L 900.09 128.711279 
L 896.742 128.545451 
L 894.51 128.184528 
L 895.626 128.019884 
L 897.858 127.847047 
L 893.394 127.683797 
L 897.858 127.534485 
L 897.3 127.385464 
L 895.626 127.220194 
L 891.72 127.054697 
L 895.626 126.883558 
L 891.72 126.717636 
L 897.858 126.553948 
L 896.742 126.384773 
L 902.322 126.216676 
L 902.322 126.054462 
L 892.836 125.894793 
L 899.532 125.567244 
L 900.09 125.423932 
L 898.974 125.253584 
L 900.09 125.100273 
L 897.858 124.939833 
L 897.858 124.778173 
L 895.626 124.629055 
L 899.532 124.480067 
L 898.974 124.321864 
L 899.532 124.170566 
L 895.068 124.019056 
L 901.764 123.714618 
L 901.206 123.575422 
L 903.438 123.274794 
L 898.416 122.974647 
L 901.206 122.82029 
L 900.09 122.660685 
L 900.09 122.520804 
L 898.974 122.368086 
L 898.974 122.368086 
" style="fill:none;stroke:#ff1500;stroke-linecap:square;stroke-width:5;"/>
   </g>
   <g id="patch_3">
    <path d="M 144 504 
L 144 69.12 
" style="fill:none;stroke:#000000;stroke-linecap:square;stroke-linejoin:miter;stroke-width:0.8;"/>
   </g>
   <g id="patch_4">
    <path d="M 1036.8 504 
L 1036.8 69.12 
" style="fill:none;stroke:#000000;stroke-linecap:square;stroke-linejoin:miter;stroke-width:0.8;"/>
   </g>
   <g id="patch_5">
    <path d="M 144 504 
L 1036.8 504 
" style="fill:none;stroke:#000000;stroke-linecap:square;stroke-linejoin:miter;stroke-width:0.8;"/>
   </g>
   <g id="patch_6">
    <path d="M 144 69.12 
L 1036.8 69.12 
" style="fill:none;stroke:#000000;stroke-linecap:square;stroke-linejoin:miter;stroke-width:0.8;"/>
   </g>
   <g id="text_14">
    <!-- Ungated: Energy vs. Accuracy with 150 Units @ 0.5 -->
    <g transform="translate(125.834063 61.633125)scale(0.36 -0.36)">
     <defs>
      <path d="M 18.3125 70.21875 
L 18.3125 54.6875 
L 36.8125 54.6875 
L 36.8125 47.703125 
L 18.3125 47.703125 
L 18.3125 18.015625 
Q 18.3125 11.328125 20.140625 9.421875 
Q 21.96875 7.515625 27.59375 7.515625 
L 36.8125 7.515625 
L 36.8125 0 
L 27.59375 0 
Q 17.1875 0 13.234375 3.875 
Q 9.28125 7.765625 9.28125 18.015625 
L 9.28125 47.703125 
L 2.6875 47.703125 
L 2.6875 54.6875 
L 9.28125 54.6875 
L 9.28125 70.21875 
z
" id="DejaVuSans-116"/>
      <path d="M 45.40625 46.390625 
L 45.40625 75.984375 
L 54.390625 75.984375 
L 54.390625 0 
L 45.40625 0 
L 45.40625 8.203125 
Q 42.578125 3.328125 38.25 0.953125 
Q 33.9375 -1.421875 27.875 -1.421875 
Q 17.96875 -1.421875 11.734375 6.484375 
Q 5.515625 14.40625 5.515625 27.296875 
Q 5.515625 40.1875 11.734375 48.09375 
Q 17.96875 56 27.875 56 
Q 33.9375 56 38.25 53.625 
Q 42.578125 51.265625 45.40625 46.390625 
z
M 14.796875 27.296875 
Q 14.796875 17.390625 18.875 11.75 
Q 22.953125 6.109375 30.078125 6.109375 
Q 37.203125 6.109375 41.296875 11.75 
Q 45.40625 17.390625 45.40625 27.296875 
Q 45.40625 37.203125 41.296875 42.84375 
Q 37.203125 48.484375 30.078125 48.484375 
Q 22.953125 48.484375 18.875 42.84375 
Q 14.796875 37.203125 14.796875 27.296875 
z
" id="DejaVuSans-100"/>
      <path d="M 11.71875 12.40625 
L 22.015625 12.40625 
L 22.015625 0 
L 11.71875 0 
z
M 11.71875 51.703125 
L 22.015625 51.703125 
L 22.015625 39.3125 
L 11.71875 39.3125 
z
" id="DejaVuSans-58"/>
      <path d="M 2.984375 54.6875 
L 12.5 54.6875 
L 29.59375 8.796875 
L 46.6875 54.6875 
L 56.203125 54.6875 
L 35.6875 0 
L 23.484375 0 
z
" id="DejaVuSans-118"/>
      <path d="M 44.28125 53.078125 
L 44.28125 44.578125 
Q 40.484375 46.53125 36.375 47.5 
Q 32.28125 48.484375 27.875 48.484375 
Q 21.1875 48.484375 17.84375 46.4375 
Q 14.5 44.390625 14.5 40.28125 
Q 14.5 37.15625 16.890625 35.375 
Q 19.28125 33.59375 26.515625 31.984375 
L 29.59375 31.296875 
Q 39.15625 29.25 43.1875 25.515625 
Q 47.21875 21.78125 47.21875 15.09375 
Q 47.21875 7.46875 41.1875 3.015625 
Q 35.15625 -1.421875 24.609375 -1.421875 
Q 20.21875 -1.421875 15.453125 -0.5625 
Q 10.6875 0.296875 5.421875 2 
L 5.421875 11.28125 
Q 10.40625 8.6875 15.234375 7.390625 
Q 20.0625 6.109375 24.8125 6.109375 
Q 31.15625 6.109375 34.5625 8.28125 
Q 37.984375 10.453125 37.984375 14.40625 
Q 37.984375 18.0625 35.515625 20.015625 
Q 33.0625 21.96875 24.703125 23.78125 
L 21.578125 24.515625 
Q 13.234375 26.265625 9.515625 29.90625 
Q 5.8125 33.546875 5.8125 39.890625 
Q 5.8125 47.609375 11.28125 51.796875 
Q 16.75 56 26.8125 56 
Q 31.78125 56 36.171875 55.265625 
Q 40.578125 54.546875 44.28125 53.078125 
z
" id="DejaVuSans-115"/>
      <path d="M 4.203125 54.6875 
L 13.1875 54.6875 
L 24.421875 12.015625 
L 35.59375 54.6875 
L 46.1875 54.6875 
L 57.421875 12.015625 
L 68.609375 54.6875 
L 77.59375 54.6875 
L 63.28125 0 
L 52.6875 0 
L 40.921875 44.828125 
L 29.109375 0 
L 18.5 0 
z
" id="DejaVuSans-119"/>
      <path d="M 9.421875 54.6875 
L 18.40625 54.6875 
L 18.40625 0 
L 9.421875 0 
z
M 9.421875 75.984375 
L 18.40625 75.984375 
L 18.40625 64.59375 
L 9.421875 64.59375 
z
" id="DejaVuSans-105"/>
      <path d="M 54.890625 33.015625 
L 54.890625 0 
L 45.90625 0 
L 45.90625 32.71875 
Q 45.90625 40.484375 42.875 44.328125 
Q 39.84375 48.1875 33.796875 48.1875 
Q 26.515625 48.1875 22.3125 43.546875 
Q 18.109375 38.921875 18.109375 30.90625 
L 18.109375 0 
L 9.078125 0 
L 9.078125 75.984375 
L 18.109375 75.984375 
L 18.109375 46.1875 
Q 21.34375 51.125 25.703125 53.5625 
Q 30.078125 56 35.796875 56 
Q 45.21875 56 50.046875 50.171875 
Q 54.890625 44.34375 54.890625 33.015625 
z
" id="DejaVuSans-104"/>
      <path d="M 37.203125 26.21875 
Q 37.203125 19.234375 40.671875 15.25 
Q 44.140625 11.28125 50.203125 11.28125 
Q 56.203125 11.28125 59.640625 15.28125 
Q 63.09375 19.28125 63.09375 26.21875 
Q 63.09375 33.0625 59.578125 37.078125 
Q 56.0625 41.109375 50.09375 41.109375 
Q 44.1875 41.109375 40.6875 37.109375 
Q 37.203125 33.109375 37.203125 26.21875 
z
M 63.8125 11.625 
Q 60.890625 7.859375 57.109375 6.078125 
Q 53.328125 4.296875 48.296875 4.296875 
Q 39.890625 4.296875 34.640625 10.375 
Q 29.390625 16.453125 29.390625 26.21875 
Q 29.390625 35.984375 34.65625 42.078125 
Q 39.9375 48.1875 48.296875 48.1875 
Q 53.328125 48.1875 57.125 46.359375 
Q 60.9375 44.53125 63.8125 40.828125 
L 63.8125 47.21875 
L 70.796875 47.21875 
L 70.796875 11.28125 
Q 77.9375 12.359375 81.953125 17.796875 
Q 85.984375 23.25 85.984375 31.890625 
Q 85.984375 37.109375 84.4375 41.703125 
Q 82.90625 46.296875 79.78125 50.203125 
Q 74.703125 56.59375 67.40625 59.984375 
Q 60.109375 63.375 51.515625 63.375 
Q 45.515625 63.375 39.984375 61.78125 
Q 34.46875 60.203125 29.78125 57.078125 
Q 22.125 52.09375 17.796875 44.015625 
Q 13.484375 35.9375 13.484375 26.515625 
Q 13.484375 18.75 16.28125 11.953125 
Q 19.09375 5.171875 24.421875 0 
Q 29.546875 -5.078125 36.28125 -7.734375 
Q 43.015625 -10.40625 50.6875 -10.40625 
Q 56.984375 -10.40625 63.0625 -8.28125 
Q 69.140625 -6.15625 74.21875 -2.203125 
L 78.609375 -7.625 
Q 72.515625 -12.359375 65.3125 -14.875 
Q 58.109375 -17.390625 50.6875 -17.390625 
Q 41.65625 -17.390625 33.640625 -14.1875 
Q 25.640625 -10.984375 19.390625 -4.890625 
Q 13.140625 1.21875 9.859375 9.25 
Q 6.59375 17.28125 6.59375 26.515625 
Q 6.59375 35.40625 9.90625 43.453125 
Q 13.234375 51.515625 19.390625 57.625 
Q 25.6875 63.8125 33.9375 67.109375 
Q 42.1875 70.40625 51.421875 70.40625 
Q 61.765625 70.40625 70.625 66.15625 
Q 79.5 61.921875 85.5 54.109375 
Q 89.15625 49.3125 91.078125 43.703125 
Q 93.015625 38.09375 93.015625 32.078125 
Q 93.015625 19.234375 85.25 11.8125 
Q 77.484375 4.390625 63.8125 4.109375 
z
" id="DejaVuSans-64"/>
     </defs>
     <use xlink:href="#DejaVuSans-85"/>
     <use x="73.193359" xlink:href="#DejaVuSans-110"/>
     <use x="136.572266" xlink:href="#DejaVuSans-103"/>
     <use x="200.048828" xlink:href="#DejaVuSans-97"/>
     <use x="261.328125" xlink:href="#DejaVuSans-116"/>
     <use x="300.537109" xlink:href="#DejaVuSans-101"/>
     <use x="362.060547" xlink:href="#DejaVuSans-100"/>
     <use x="425.537109" xlink:href="#DejaVuSans-58"/>
     <use x="459.228516" xlink:href="#DejaVuSans-32"/>
     <use x="491.015625" xlink:href="#DejaVuSans-69"/>
     <use x="554.199219" xlink:href="#DejaVuSans-110"/>
     <use x="617.578125" xlink:href="#DejaVuSans-101"/>
     <use x="679.101562" xlink:href="#DejaVuSans-114"/>
     <use x="718.464844" xlink:href="#DejaVuSans-103"/>
     <use x="781.941406" xlink:href="#DejaVuSans-121"/>
     <use x="841.121094" xlink:href="#DejaVuSans-32"/>
     <use x="872.908203" xlink:href="#DejaVuSans-118"/>
     <use x="932.087891" xlink:href="#DejaVuSans-115"/>
     <use x="984.1875" xlink:href="#DejaVuSans-46"/>
     <use x="1015.974609" xlink:href="#DejaVuSans-32"/>
     <use x="1047.761719" xlink:href="#DejaVuSans-65"/>
     <use x="1114.419922" xlink:href="#DejaVuSans-99"/>
     <use x="1169.400391" xlink:href="#DejaVuSans-99"/>
     <use x="1224.380859" xlink:href="#DejaVuSans-117"/>
     <use x="1287.759766" xlink:href="#DejaVuSans-114"/>
     <use x="1328.873047" xlink:href="#DejaVuSans-97"/>
     <use x="1390.152344" xlink:href="#DejaVuSans-99"/>
     <use x="1445.132812" xlink:href="#DejaVuSans-121"/>
     <use x="1504.3125" xlink:href="#DejaVuSans-32"/>
     <use x="1536.099609" xlink:href="#DejaVuSans-119"/>
     <use x="1617.886719" xlink:href="#DejaVuSans-105"/>
     <use x="1645.669922" xlink:href="#DejaVuSans-116"/>
     <use x="1684.878906" xlink:href="#DejaVuSans-104"/>
     <use x="1748.257812" xlink:href="#DejaVuSans-32"/>
     <use x="1780.044922" xlink:href="#DejaVuSans-49"/>
     <use x="1843.667969" xlink:href="#DejaVuSans-53"/>
     <use x="1907.291016" xlink:href="#DejaVuSans-48"/>
     <use x="1970.914062" xlink:href="#DejaVuSans-32"/>
     <use x="2002.701172" xlink:href="#DejaVuSans-85"/>
     <use x="2075.894531" xlink:href="#DejaVuSans-110"/>
     <use x="2139.273438" xlink:href="#DejaVuSans-105"/>
     <use x="2167.056641" xlink:href="#DejaVuSans-116"/>
     <use x="2206.265625" xlink:href="#DejaVuSans-115"/>
     <use x="2258.365234" xlink:href="#DejaVuSans-32"/>
     <use x="2290.152344" xlink:href="#DejaVuSans-64"/>
     <use x="2390.152344" xlink:href="#DejaVuSans-32"/>
     <use x="2421.939453" xlink:href="#DejaVuSans-48"/>
     <use x="2485.5625" xlink:href="#DejaVuSans-46"/>
     <use x="2517.349609" xlink:href="#DejaVuSans-53"/>
    </g>
   </g>
   <g id="legend_1">
    <g id="patch_7">
     <path d="M 807.989687 493 
L 1021.4 493 
Q 1025.8 493 1025.8 488.6 
L 1025.8 426.21625 
Q 1025.8 421.81625 1021.4 421.81625 
L 807.989687 421.81625 
Q 803.589687 421.81625 803.589687 426.21625 
L 803.589687 488.6 
Q 803.589687 493 807.989687 493 
z
" style="fill:#ffffff;opacity:0.8;stroke:#cccccc;stroke-linejoin:miter;"/>
    </g>
    <g id="line2d_31">
     <path d="M 812.389687 439.632812 
L 856.389687 439.632812 
" style="fill:none;stroke:#1f1f1f;stroke-linecap:square;stroke-width:5;"/>
    </g>
    <g id="line2d_32"/>
    <g id="text_15">
     <!-- Ungated: 1.0 -->
     <g transform="translate(873.989687 447.332812)scale(0.22 -0.22)">
      <use xlink:href="#DejaVuSans-85"/>
      <use x="73.193359" xlink:href="#DejaVuSans-110"/>
      <use x="136.572266" xlink:href="#DejaVuSans-103"/>
      <use x="200.048828" xlink:href="#DejaVuSans-97"/>
      <use x="261.328125" xlink:href="#DejaVuSans-116"/>
      <use x="300.537109" xlink:href="#DejaVuSans-101"/>
      <use x="362.060547" xlink:href="#DejaVuSans-100"/>
      <use x="425.537109" xlink:href="#DejaVuSans-58"/>
      <use x="459.228516" xlink:href="#DejaVuSans-32"/>
      <use x="491.015625" xlink:href="#DejaVuSans-49"/>
      <use x="554.638672" xlink:href="#DejaVuSans-46"/>
      <use x="586.425781" xlink:href="#DejaVuSans-48"/>
     </g>
    </g>
    <g id="line2d_33">
     <path d="M 812.389687 471.924688 
L 856.389687 471.924688 
" style="fill:none;stroke:#ff1500;stroke-linecap:square;stroke-width:5;"/>
    </g>
    <g id="line2d_34"/>
    <g id="text_16">
     <!-- Ungated: 0.5 -->
     <g transform="translate(873.989687 479.624687)scale(0.22 -0.22)">
      <use xlink:href="#DejaVuSans-85"/>
      <use x="73.193359" xlink:href="#DejaVuSans-110"/>
      <use x="136.572266" xlink:href="#DejaVuSans-103"/>
      <use x="200.048828" xlink:href="#DejaVuSans-97"/>
      <use x="261.328125" xlink:href="#DejaVuSans-116"/>
      <use x="300.537109" xlink:href="#DejaVuSans-101"/>
      <use x="362.060547" xlink:href="#DejaVuSans-100"/>
      <use x="425.537109" xlink:href="#DejaVuSans-58"/>
      <use x="459.228516" xlink:href="#DejaVuSans-32"/>
      <use x="491.015625" xlink:href="#DejaVuSans-48"/>
      <use x="554.638672" xlink:href="#DejaVuSans-46"/>
      <use x="586.425781" xlink:href="#DejaVuSans-53"/>
     </g>
    </g>
   </g>
  </g>
 </g>
 <defs>
  <clipPath id="p803a117a05">
   <rect height="434.88" width="892.8" x="144" y="69.12"/>
  </clipPath>
 </defs>
</svg>
