<?xml version="1.0" encoding="utf-8" standalone="no"?>
<!DOCTYPE svg PUBLIC "-//W3C//DTD SVG 1.1//EN"
  "http://www.w3.org/Graphics/SVG/1.1/DTD/svg11.dtd">
<!-- Created with matplotlib (https://matplotlib.org/) -->
<svg height="576pt" version="1.1" viewBox="0 0 1152 576" width="1152pt" xmlns="http://www.w3.org/2000/svg" xmlns:xlink="http://www.w3.org/1999/xlink">
 <metadata>
  <rdf:RDF xmlns:cc="http://creativecommons.org/ns#" xmlns:dc="http://purl.org/dc/elements/1.1/" xmlns:rdf="http://www.w3.org/1999/02/22-rdf-syntax-ns#">
   <cc:Work>
    <dc:type rdf:resource="http://purl.org/dc/dcmitype/StillImage"/>
    <dc:date>2021-09-12T15:15:50.823500</dc:date>
    <dc:format>image/svg+xml</dc:format>
    <dc:creator>
     <cc:Agent>
      <dc:title>Matplotlib v3.3.4, https://matplotlib.org/</dc:title>
     </cc:Agent>
    </dc:creator>
   </cc:Work>
  </rdf:RDF>
 </metadata>
 <defs>
  <style type="text/css">*{stroke-linecap:butt;stroke-linejoin:round;}</style>
 </defs>
 <g id="figure_1">
  <g id="patch_1">
   <path d="M 0 576 
L 1152 576 
L 1152 0 
L 0 0 
z
" style="fill:#ffffff;"/>
  </g>
  <g id="axes_1">
   <g id="patch_2">
    <path d="M 144 504 
L 1036.8 504 
L 1036.8 69.12 
L 144 69.12 
z
" style="fill:#ffffff;"/>
   </g>
   <g id="matplotlib.axis_1">
    <g id="xtick_1">
     <g id="line2d_1">
      <defs>
       <path d="M 0 0 
L 0 3.5 
" id="m4c1bd61696" style="stroke:#000000;stroke-width:0.8;"/>
      </defs>
      <g>
       <use style="stroke:#000000;stroke-width:0.8;" x="144" xlink:href="#m4c1bd61696" y="504"/>
      </g>
     </g>
     <g id="text_1">
      <!-- 84 -->
      <g transform="translate(128.73 529.23625)scale(0.24 -0.24)">
       <defs>
        <path d="M 31.78125 34.625 
Q 24.75 34.625 20.71875 30.859375 
Q 16.703125 27.09375 16.703125 20.515625 
Q 16.703125 13.921875 20.71875 10.15625 
Q 24.75 6.390625 31.78125 6.390625 
Q 38.8125 6.390625 42.859375 10.171875 
Q 46.921875 13.96875 46.921875 20.515625 
Q 46.921875 27.09375 42.890625 30.859375 
Q 38.875 34.625 31.78125 34.625 
z
M 21.921875 38.8125 
Q 15.578125 40.375 12.03125 44.71875 
Q 8.5 49.078125 8.5 55.328125 
Q 8.5 64.0625 14.71875 69.140625 
Q 20.953125 74.21875 31.78125 74.21875 
Q 42.671875 74.21875 48.875 69.140625 
Q 55.078125 64.0625 55.078125 55.328125 
Q 55.078125 49.078125 51.53125 44.71875 
Q 48 40.375 41.703125 38.8125 
Q 48.828125 37.15625 52.796875 32.3125 
Q 56.78125 27.484375 56.78125 20.515625 
Q 56.78125 9.90625 50.3125 4.234375 
Q 43.84375 -1.421875 31.78125 -1.421875 
Q 19.734375 -1.421875 13.25 4.234375 
Q 6.78125 9.90625 6.78125 20.515625 
Q 6.78125 27.484375 10.78125 32.3125 
Q 14.796875 37.15625 21.921875 38.8125 
z
M 18.3125 54.390625 
Q 18.3125 48.734375 21.84375 45.5625 
Q 25.390625 42.390625 31.78125 42.390625 
Q 38.140625 42.390625 41.71875 45.5625 
Q 45.3125 48.734375 45.3125 54.390625 
Q 45.3125 60.0625 41.71875 63.234375 
Q 38.140625 66.40625 31.78125 66.40625 
Q 25.390625 66.40625 21.84375 63.234375 
Q 18.3125 60.0625 18.3125 54.390625 
z
" id="DejaVuSans-56"/>
        <path d="M 37.796875 64.3125 
L 12.890625 25.390625 
L 37.796875 25.390625 
z
M 35.203125 72.90625 
L 47.609375 72.90625 
L 47.609375 25.390625 
L 58.015625 25.390625 
L 58.015625 17.1875 
L 47.609375 17.1875 
L 47.609375 0 
L 37.796875 0 
L 37.796875 17.1875 
L 4.890625 17.1875 
L 4.890625 26.703125 
z
" id="DejaVuSans-52"/>
       </defs>
       <use xlink:href="#DejaVuSans-56"/>
       <use x="63.623047" xlink:href="#DejaVuSans-52"/>
      </g>
     </g>
    </g>
    <g id="xtick_2">
     <g id="line2d_2">
      <g>
       <use style="stroke:#000000;stroke-width:0.8;" x="255.6" xlink:href="#m4c1bd61696" y="504"/>
      </g>
     </g>
     <g id="text_2">
      <!-- 86 -->
      <g transform="translate(240.33 529.23625)scale(0.24 -0.24)">
       <defs>
        <path d="M 33.015625 40.375 
Q 26.375 40.375 22.484375 35.828125 
Q 18.609375 31.296875 18.609375 23.390625 
Q 18.609375 15.53125 22.484375 10.953125 
Q 26.375 6.390625 33.015625 6.390625 
Q 39.65625 6.390625 43.53125 10.953125 
Q 47.40625 15.53125 47.40625 23.390625 
Q 47.40625 31.296875 43.53125 35.828125 
Q 39.65625 40.375 33.015625 40.375 
z
M 52.59375 71.296875 
L 52.59375 62.3125 
Q 48.875 64.0625 45.09375 64.984375 
Q 41.3125 65.921875 37.59375 65.921875 
Q 27.828125 65.921875 22.671875 59.328125 
Q 17.53125 52.734375 16.796875 39.40625 
Q 19.671875 43.65625 24.015625 45.921875 
Q 28.375 48.1875 33.59375 48.1875 
Q 44.578125 48.1875 50.953125 41.515625 
Q 57.328125 34.859375 57.328125 23.390625 
Q 57.328125 12.15625 50.6875 5.359375 
Q 44.046875 -1.421875 33.015625 -1.421875 
Q 20.359375 -1.421875 13.671875 8.265625 
Q 6.984375 17.96875 6.984375 36.375 
Q 6.984375 53.65625 15.1875 63.9375 
Q 23.390625 74.21875 37.203125 74.21875 
Q 40.921875 74.21875 44.703125 73.484375 
Q 48.484375 72.75 52.59375 71.296875 
z
" id="DejaVuSans-54"/>
       </defs>
       <use xlink:href="#DejaVuSans-56"/>
       <use x="63.623047" xlink:href="#DejaVuSans-54"/>
      </g>
     </g>
    </g>
    <g id="xtick_3">
     <g id="line2d_3">
      <g>
       <use style="stroke:#000000;stroke-width:0.8;" x="367.2" xlink:href="#m4c1bd61696" y="504"/>
      </g>
     </g>
     <g id="text_3">
      <!-- 88 -->
      <g transform="translate(351.93 529.23625)scale(0.24 -0.24)">
       <use xlink:href="#DejaVuSans-56"/>
       <use x="63.623047" xlink:href="#DejaVuSans-56"/>
      </g>
     </g>
    </g>
    <g id="xtick_4">
     <g id="line2d_4">
      <g>
       <use style="stroke:#000000;stroke-width:0.8;" x="478.8" xlink:href="#m4c1bd61696" y="504"/>
      </g>
     </g>
     <g id="text_4">
      <!-- 90 -->
      <g transform="translate(463.53 529.23625)scale(0.24 -0.24)">
       <defs>
        <path d="M 10.984375 1.515625 
L 10.984375 10.5 
Q 14.703125 8.734375 18.5 7.8125 
Q 22.3125 6.890625 25.984375 6.890625 
Q 35.75 6.890625 40.890625 13.453125 
Q 46.046875 20.015625 46.78125 33.40625 
Q 43.953125 29.203125 39.59375 26.953125 
Q 35.25 24.703125 29.984375 24.703125 
Q 19.046875 24.703125 12.671875 31.3125 
Q 6.296875 37.9375 6.296875 49.421875 
Q 6.296875 60.640625 12.9375 67.421875 
Q 19.578125 74.21875 30.609375 74.21875 
Q 43.265625 74.21875 49.921875 64.515625 
Q 56.59375 54.828125 56.59375 36.375 
Q 56.59375 19.140625 48.40625 8.859375 
Q 40.234375 -1.421875 26.421875 -1.421875 
Q 22.703125 -1.421875 18.890625 -0.6875 
Q 15.09375 0.046875 10.984375 1.515625 
z
M 30.609375 32.421875 
Q 37.25 32.421875 41.125 36.953125 
Q 45.015625 41.5 45.015625 49.421875 
Q 45.015625 57.28125 41.125 61.84375 
Q 37.25 66.40625 30.609375 66.40625 
Q 23.96875 66.40625 20.09375 61.84375 
Q 16.21875 57.28125 16.21875 49.421875 
Q 16.21875 41.5 20.09375 36.953125 
Q 23.96875 32.421875 30.609375 32.421875 
z
" id="DejaVuSans-57"/>
        <path d="M 31.78125 66.40625 
Q 24.171875 66.40625 20.328125 58.90625 
Q 16.5 51.421875 16.5 36.375 
Q 16.5 21.390625 20.328125 13.890625 
Q 24.171875 6.390625 31.78125 6.390625 
Q 39.453125 6.390625 43.28125 13.890625 
Q 47.125 21.390625 47.125 36.375 
Q 47.125 51.421875 43.28125 58.90625 
Q 39.453125 66.40625 31.78125 66.40625 
z
M 31.78125 74.21875 
Q 44.046875 74.21875 50.515625 64.515625 
Q 56.984375 54.828125 56.984375 36.375 
Q 56.984375 17.96875 50.515625 8.265625 
Q 44.046875 -1.421875 31.78125 -1.421875 
Q 19.53125 -1.421875 13.0625 8.265625 
Q 6.59375 17.96875 6.59375 36.375 
Q 6.59375 54.828125 13.0625 64.515625 
Q 19.53125 74.21875 31.78125 74.21875 
z
" id="DejaVuSans-48"/>
       </defs>
       <use xlink:href="#DejaVuSans-57"/>
       <use x="63.623047" xlink:href="#DejaVuSans-48"/>
      </g>
     </g>
    </g>
    <g id="xtick_5">
     <g id="line2d_5">
      <g>
       <use style="stroke:#000000;stroke-width:0.8;" x="590.4" xlink:href="#m4c1bd61696" y="504"/>
      </g>
     </g>
     <g id="text_5">
      <!-- 92 -->
      <g transform="translate(575.13 529.23625)scale(0.24 -0.24)">
       <defs>
        <path d="M 19.1875 8.296875 
L 53.609375 8.296875 
L 53.609375 0 
L 7.328125 0 
L 7.328125 8.296875 
Q 12.9375 14.109375 22.625 23.890625 
Q 32.328125 33.6875 34.8125 36.53125 
Q 39.546875 41.84375 41.421875 45.53125 
Q 43.3125 49.21875 43.3125 52.78125 
Q 43.3125 58.59375 39.234375 62.25 
Q 35.15625 65.921875 28.609375 65.921875 
Q 23.96875 65.921875 18.8125 64.3125 
Q 13.671875 62.703125 7.8125 59.421875 
L 7.8125 69.390625 
Q 13.765625 71.78125 18.9375 73 
Q 24.125 74.21875 28.421875 74.21875 
Q 39.75 74.21875 46.484375 68.546875 
Q 53.21875 62.890625 53.21875 53.421875 
Q 53.21875 48.921875 51.53125 44.890625 
Q 49.859375 40.875 45.40625 35.40625 
Q 44.1875 33.984375 37.640625 27.21875 
Q 31.109375 20.453125 19.1875 8.296875 
z
" id="DejaVuSans-50"/>
       </defs>
       <use xlink:href="#DejaVuSans-57"/>
       <use x="63.623047" xlink:href="#DejaVuSans-50"/>
      </g>
     </g>
    </g>
    <g id="xtick_6">
     <g id="line2d_6">
      <g>
       <use style="stroke:#000000;stroke-width:0.8;" x="702" xlink:href="#m4c1bd61696" y="504"/>
      </g>
     </g>
     <g id="text_6">
      <!-- 94 -->
      <g transform="translate(686.73 529.23625)scale(0.24 -0.24)">
       <use xlink:href="#DejaVuSans-57"/>
       <use x="63.623047" xlink:href="#DejaVuSans-52"/>
      </g>
     </g>
    </g>
    <g id="xtick_7">
     <g id="line2d_7">
      <g>
       <use style="stroke:#000000;stroke-width:0.8;" x="813.6" xlink:href="#m4c1bd61696" y="504"/>
      </g>
     </g>
     <g id="text_7">
      <!-- 96 -->
      <g transform="translate(798.33 529.23625)scale(0.24 -0.24)">
       <use xlink:href="#DejaVuSans-57"/>
       <use x="63.623047" xlink:href="#DejaVuSans-54"/>
      </g>
     </g>
    </g>
    <g id="xtick_8">
     <g id="line2d_8">
      <g>
       <use style="stroke:#000000;stroke-width:0.8;" x="925.2" xlink:href="#m4c1bd61696" y="504"/>
      </g>
     </g>
     <g id="text_8">
      <!-- 98 -->
      <g transform="translate(909.93 529.23625)scale(0.24 -0.24)">
       <use xlink:href="#DejaVuSans-57"/>
       <use x="63.623047" xlink:href="#DejaVuSans-56"/>
      </g>
     </g>
    </g>
    <g id="xtick_9">
     <g id="line2d_9">
      <g>
       <use style="stroke:#000000;stroke-width:0.8;" x="1036.8" xlink:href="#m4c1bd61696" y="504"/>
      </g>
     </g>
     <g id="text_9">
      <!-- 100 -->
      <g transform="translate(1013.895 529.23625)scale(0.24 -0.24)">
       <defs>
        <path d="M 12.40625 8.296875 
L 28.515625 8.296875 
L 28.515625 63.921875 
L 10.984375 60.40625 
L 10.984375 69.390625 
L 28.421875 72.90625 
L 38.28125 72.90625 
L 38.28125 8.296875 
L 54.390625 8.296875 
L 54.390625 0 
L 12.40625 0 
z
" id="DejaVuSans-49"/>
       </defs>
       <use xlink:href="#DejaVuSans-49"/>
       <use x="63.623047" xlink:href="#DejaVuSans-48"/>
       <use x="127.246094" xlink:href="#DejaVuSans-48"/>
      </g>
     </g>
    </g>
    <g id="text_10">
     <!-- Accuracy /% -->
     <g transform="translate(504.013437 559.503125)scale(0.28 -0.28)">
      <defs>
       <path d="M 34.1875 63.1875 
L 20.796875 26.90625 
L 47.609375 26.90625 
z
M 28.609375 72.90625 
L 39.796875 72.90625 
L 67.578125 0 
L 57.328125 0 
L 50.6875 18.703125 
L 17.828125 18.703125 
L 11.1875 0 
L 0.78125 0 
z
" id="DejaVuSans-65"/>
       <path d="M 48.78125 52.59375 
L 48.78125 44.1875 
Q 44.96875 46.296875 41.140625 47.34375 
Q 37.3125 48.390625 33.40625 48.390625 
Q 24.65625 48.390625 19.8125 42.84375 
Q 14.984375 37.3125 14.984375 27.296875 
Q 14.984375 17.28125 19.8125 11.734375 
Q 24.65625 6.203125 33.40625 6.203125 
Q 37.3125 6.203125 41.140625 7.25 
Q 44.96875 8.296875 48.78125 10.40625 
L 48.78125 2.09375 
Q 45.015625 0.34375 40.984375 -0.53125 
Q 36.96875 -1.421875 32.421875 -1.421875 
Q 20.0625 -1.421875 12.78125 6.34375 
Q 5.515625 14.109375 5.515625 27.296875 
Q 5.515625 40.671875 12.859375 48.328125 
Q 20.21875 56 33.015625 56 
Q 37.15625 56 41.109375 55.140625 
Q 45.0625 54.296875 48.78125 52.59375 
z
" id="DejaVuSans-99"/>
       <path d="M 8.5 21.578125 
L 8.5 54.6875 
L 17.484375 54.6875 
L 17.484375 21.921875 
Q 17.484375 14.15625 20.5 10.265625 
Q 23.53125 6.390625 29.59375 6.390625 
Q 36.859375 6.390625 41.078125 11.03125 
Q 45.3125 15.671875 45.3125 23.6875 
L 45.3125 54.6875 
L 54.296875 54.6875 
L 54.296875 0 
L 45.3125 0 
L 45.3125 8.40625 
Q 42.046875 3.421875 37.71875 1 
Q 33.40625 -1.421875 27.6875 -1.421875 
Q 18.265625 -1.421875 13.375 4.4375 
Q 8.5 10.296875 8.5 21.578125 
z
M 31.109375 56 
z
" id="DejaVuSans-117"/>
       <path d="M 41.109375 46.296875 
Q 39.59375 47.171875 37.8125 47.578125 
Q 36.03125 48 33.890625 48 
Q 26.265625 48 22.1875 43.046875 
Q 18.109375 38.09375 18.109375 28.8125 
L 18.109375 0 
L 9.078125 0 
L 9.078125 54.6875 
L 18.109375 54.6875 
L 18.109375 46.1875 
Q 20.953125 51.171875 25.484375 53.578125 
Q 30.03125 56 36.53125 56 
Q 37.453125 56 38.578125 55.875 
Q 39.703125 55.765625 41.0625 55.515625 
z
" id="DejaVuSans-114"/>
       <path d="M 34.28125 27.484375 
Q 23.390625 27.484375 19.1875 25 
Q 14.984375 22.515625 14.984375 16.5 
Q 14.984375 11.71875 18.140625 8.90625 
Q 21.296875 6.109375 26.703125 6.109375 
Q 34.1875 6.109375 38.703125 11.40625 
Q 43.21875 16.703125 43.21875 25.484375 
L 43.21875 27.484375 
z
M 52.203125 31.203125 
L 52.203125 0 
L 43.21875 0 
L 43.21875 8.296875 
Q 40.140625 3.328125 35.546875 0.953125 
Q 30.953125 -1.421875 24.3125 -1.421875 
Q 15.921875 -1.421875 10.953125 3.296875 
Q 6 8.015625 6 15.921875 
Q 6 25.140625 12.171875 29.828125 
Q 18.359375 34.515625 30.609375 34.515625 
L 43.21875 34.515625 
L 43.21875 35.40625 
Q 43.21875 41.609375 39.140625 45 
Q 35.0625 48.390625 27.6875 48.390625 
Q 23 48.390625 18.546875 47.265625 
Q 14.109375 46.140625 10.015625 43.890625 
L 10.015625 52.203125 
Q 14.9375 54.109375 19.578125 55.046875 
Q 24.21875 56 28.609375 56 
Q 40.484375 56 46.34375 49.84375 
Q 52.203125 43.703125 52.203125 31.203125 
z
" id="DejaVuSans-97"/>
       <path d="M 32.171875 -5.078125 
Q 28.375 -14.84375 24.75 -17.8125 
Q 21.140625 -20.796875 15.09375 -20.796875 
L 7.90625 -20.796875 
L 7.90625 -13.28125 
L 13.1875 -13.28125 
Q 16.890625 -13.28125 18.9375 -11.515625 
Q 21 -9.765625 23.484375 -3.21875 
L 25.09375 0.875 
L 2.984375 54.6875 
L 12.5 54.6875 
L 29.59375 11.921875 
L 46.6875 54.6875 
L 56.203125 54.6875 
z
" id="DejaVuSans-121"/>
       <path id="DejaVuSans-32"/>
       <path d="M 25.390625 72.90625 
L 33.6875 72.90625 
L 8.296875 -9.28125 
L 0 -9.28125 
z
" id="DejaVuSans-47"/>
       <path d="M 72.703125 32.078125 
Q 68.453125 32.078125 66.03125 28.46875 
Q 63.625 24.859375 63.625 18.40625 
Q 63.625 12.0625 66.03125 8.421875 
Q 68.453125 4.78125 72.703125 4.78125 
Q 76.859375 4.78125 79.265625 8.421875 
Q 81.6875 12.0625 81.6875 18.40625 
Q 81.6875 24.8125 79.265625 28.4375 
Q 76.859375 32.078125 72.703125 32.078125 
z
M 72.703125 38.28125 
Q 80.421875 38.28125 84.953125 32.90625 
Q 89.5 27.546875 89.5 18.40625 
Q 89.5 9.28125 84.9375 3.921875 
Q 80.375 -1.421875 72.703125 -1.421875 
Q 64.890625 -1.421875 60.34375 3.921875 
Q 55.8125 9.28125 55.8125 18.40625 
Q 55.8125 27.59375 60.375 32.9375 
Q 64.9375 38.28125 72.703125 38.28125 
z
M 22.3125 68.015625 
Q 18.109375 68.015625 15.6875 64.375 
Q 13.28125 60.75 13.28125 54.390625 
Q 13.28125 47.953125 15.671875 44.328125 
Q 18.0625 40.71875 22.3125 40.71875 
Q 26.5625 40.71875 28.96875 44.328125 
Q 31.390625 47.953125 31.390625 54.390625 
Q 31.390625 60.6875 28.953125 64.34375 
Q 26.515625 68.015625 22.3125 68.015625 
z
M 66.40625 74.21875 
L 74.21875 74.21875 
L 28.609375 -1.421875 
L 20.796875 -1.421875 
z
M 22.3125 74.21875 
Q 30.03125 74.21875 34.609375 68.875 
Q 39.203125 63.53125 39.203125 54.390625 
Q 39.203125 45.171875 34.640625 39.84375 
Q 30.078125 34.515625 22.3125 34.515625 
Q 14.546875 34.515625 10.03125 39.859375 
Q 5.515625 45.21875 5.515625 54.390625 
Q 5.515625 63.484375 10.046875 68.84375 
Q 14.59375 74.21875 22.3125 74.21875 
z
" id="DejaVuSans-37"/>
      </defs>
      <use xlink:href="#DejaVuSans-65"/>
      <use x="66.658203" xlink:href="#DejaVuSans-99"/>
      <use x="121.638672" xlink:href="#DejaVuSans-99"/>
      <use x="176.619141" xlink:href="#DejaVuSans-117"/>
      <use x="239.998047" xlink:href="#DejaVuSans-114"/>
      <use x="281.111328" xlink:href="#DejaVuSans-97"/>
      <use x="342.390625" xlink:href="#DejaVuSans-99"/>
      <use x="397.371094" xlink:href="#DejaVuSans-121"/>
      <use x="456.550781" xlink:href="#DejaVuSans-32"/>
      <use x="488.337891" xlink:href="#DejaVuSans-47"/>
      <use x="522.029297" xlink:href="#DejaVuSans-37"/>
     </g>
    </g>
   </g>
   <g id="matplotlib.axis_2">
    <g id="ytick_1">
     <g id="line2d_10">
      <defs>
       <path d="M 0 0 
L -3.5 0 
" id="m37ae0c9a6a" style="stroke:#000000;stroke-width:0.8;"/>
      </defs>
      <g>
       <use style="stroke:#000000;stroke-width:0.8;" x="144" xlink:href="#m37ae0c9a6a" y="444.362283"/>
      </g>
     </g>
     <g id="text_11">
      <!-- $\mathdefault{10^{1}}$ -->
      <g transform="translate(94.76 453.480408)scale(0.24 -0.24)">
       <use transform="translate(0 0.684375)" xlink:href="#DejaVuSans-49"/>
       <use transform="translate(63.623047 0.684375)" xlink:href="#DejaVuSans-48"/>
       <use transform="translate(128.203125 38.965625)scale(0.7)" xlink:href="#DejaVuSans-49"/>
      </g>
     </g>
    </g>
    <g id="ytick_2">
     <g id="line2d_11">
      <g>
       <use style="stroke:#000000;stroke-width:0.8;" x="144" xlink:href="#m37ae0c9a6a" y="359.04"/>
      </g>
     </g>
     <g id="text_12">
      <!-- $\mathdefault{10^{2}}$ -->
      <g transform="translate(94.76 368.158125)scale(0.24 -0.24)">
       <use transform="translate(0 0.765625)" xlink:href="#DejaVuSans-49"/>
       <use transform="translate(63.623047 0.765625)" xlink:href="#DejaVuSans-48"/>
       <use transform="translate(128.203125 39.046875)scale(0.7)" xlink:href="#DejaVuSans-50"/>
      </g>
     </g>
    </g>
    <g id="ytick_3">
     <g id="line2d_12">
      <g>
       <use style="stroke:#000000;stroke-width:0.8;" x="144" xlink:href="#m37ae0c9a6a" y="273.717717"/>
      </g>
     </g>
     <g id="text_13">
      <!-- $\mathdefault{10^{3}}$ -->
      <g transform="translate(94.76 282.835842)scale(0.24 -0.24)">
       <defs>
        <path d="M 40.578125 39.3125 
Q 47.65625 37.796875 51.625 33 
Q 55.609375 28.21875 55.609375 21.1875 
Q 55.609375 10.40625 48.1875 4.484375 
Q 40.765625 -1.421875 27.09375 -1.421875 
Q 22.515625 -1.421875 17.65625 -0.515625 
Q 12.796875 0.390625 7.625 2.203125 
L 7.625 11.71875 
Q 11.71875 9.328125 16.59375 8.109375 
Q 21.484375 6.890625 26.8125 6.890625 
Q 36.078125 6.890625 40.9375 10.546875 
Q 45.796875 14.203125 45.796875 21.1875 
Q 45.796875 27.640625 41.28125 31.265625 
Q 36.765625 34.90625 28.71875 34.90625 
L 20.21875 34.90625 
L 20.21875 43.015625 
L 29.109375 43.015625 
Q 36.375 43.015625 40.234375 45.921875 
Q 44.09375 48.828125 44.09375 54.296875 
Q 44.09375 59.90625 40.109375 62.90625 
Q 36.140625 65.921875 28.71875 65.921875 
Q 24.65625 65.921875 20.015625 65.03125 
Q 15.375 64.15625 9.8125 62.3125 
L 9.8125 71.09375 
Q 15.4375 72.65625 20.34375 73.4375 
Q 25.25 74.21875 29.59375 74.21875 
Q 40.828125 74.21875 47.359375 69.109375 
Q 53.90625 64.015625 53.90625 55.328125 
Q 53.90625 49.265625 50.4375 45.09375 
Q 46.96875 40.921875 40.578125 39.3125 
z
" id="DejaVuSans-51"/>
       </defs>
       <use transform="translate(0 0.765625)" xlink:href="#DejaVuSans-49"/>
       <use transform="translate(63.623047 0.765625)" xlink:href="#DejaVuSans-48"/>
       <use transform="translate(128.203125 39.046875)scale(0.7)" xlink:href="#DejaVuSans-51"/>
      </g>
     </g>
    </g>
    <g id="ytick_4">
     <g id="line2d_13">
      <g>
       <use style="stroke:#000000;stroke-width:0.8;" x="144" xlink:href="#m37ae0c9a6a" y="188.395433"/>
      </g>
     </g>
     <g id="text_14">
      <!-- $\mathdefault{10^{4}}$ -->
      <g transform="translate(94.76 197.513558)scale(0.24 -0.24)">
       <use transform="translate(0 0.684375)" xlink:href="#DejaVuSans-49"/>
       <use transform="translate(63.623047 0.684375)" xlink:href="#DejaVuSans-48"/>
       <use transform="translate(128.203125 38.965625)scale(0.7)" xlink:href="#DejaVuSans-52"/>
      </g>
     </g>
    </g>
    <g id="ytick_5">
     <g id="line2d_14">
      <g>
       <use style="stroke:#000000;stroke-width:0.8;" x="144" xlink:href="#m37ae0c9a6a" y="103.07315"/>
      </g>
     </g>
     <g id="text_15">
      <!-- $\mathdefault{10^{5}}$ -->
      <g transform="translate(94.76 112.191275)scale(0.24 -0.24)">
       <defs>
        <path d="M 10.796875 72.90625 
L 49.515625 72.90625 
L 49.515625 64.59375 
L 19.828125 64.59375 
L 19.828125 46.734375 
Q 21.96875 47.46875 24.109375 47.828125 
Q 26.265625 48.1875 28.421875 48.1875 
Q 40.625 48.1875 47.75 41.5 
Q 54.890625 34.8125 54.890625 23.390625 
Q 54.890625 11.625 47.5625 5.09375 
Q 40.234375 -1.421875 26.90625 -1.421875 
Q 22.3125 -1.421875 17.546875 -0.640625 
Q 12.796875 0.140625 7.71875 1.703125 
L 7.71875 11.625 
Q 12.109375 9.234375 16.796875 8.0625 
Q 21.484375 6.890625 26.703125 6.890625 
Q 35.15625 6.890625 40.078125 11.328125 
Q 45.015625 15.765625 45.015625 23.390625 
Q 45.015625 31 40.078125 35.4375 
Q 35.15625 39.890625 26.703125 39.890625 
Q 22.75 39.890625 18.8125 39.015625 
Q 14.890625 38.140625 10.796875 36.28125 
z
" id="DejaVuSans-53"/>
       </defs>
       <use transform="translate(0 0.684375)" xlink:href="#DejaVuSans-49"/>
       <use transform="translate(63.623047 0.684375)" xlink:href="#DejaVuSans-48"/>
       <use transform="translate(128.203125 38.965625)scale(0.7)" xlink:href="#DejaVuSans-53"/>
      </g>
     </g>
    </g>
    <g id="ytick_6">
     <g id="line2d_15">
      <defs>
       <path d="M 0 0 
L -2 0 
" id="m4b4e88fafb" style="stroke:#000000;stroke-width:0.6;"/>
      </defs>
      <g>
       <use style="stroke:#000000;stroke-width:0.6;" x="144" xlink:href="#m4b4e88fafb" y="504"/>
      </g>
     </g>
    </g>
    <g id="ytick_7">
     <g id="line2d_16">
      <g>
       <use style="stroke:#000000;stroke-width:0.6;" x="144" xlink:href="#m4b4e88fafb" y="488.975492"/>
      </g>
     </g>
    </g>
    <g id="ytick_8">
     <g id="line2d_17">
      <g>
       <use style="stroke:#000000;stroke-width:0.6;" x="144" xlink:href="#m4b4e88fafb" y="478.315433"/>
      </g>
     </g>
    </g>
    <g id="ytick_9">
     <g id="line2d_18">
      <g>
       <use style="stroke:#000000;stroke-width:0.6;" x="144" xlink:href="#m4b4e88fafb" y="470.04685"/>
      </g>
     </g>
    </g>
    <g id="ytick_10">
     <g id="line2d_19">
      <g>
       <use style="stroke:#000000;stroke-width:0.6;" x="144" xlink:href="#m4b4e88fafb" y="463.290925"/>
      </g>
     </g>
    </g>
    <g id="ytick_11">
     <g id="line2d_20">
      <g>
       <use style="stroke:#000000;stroke-width:0.6;" x="144" xlink:href="#m4b4e88fafb" y="457.578872"/>
      </g>
     </g>
    </g>
    <g id="ytick_12">
     <g id="line2d_21">
      <g>
       <use style="stroke:#000000;stroke-width:0.6;" x="144" xlink:href="#m4b4e88fafb" y="452.630867"/>
      </g>
     </g>
    </g>
    <g id="ytick_13">
     <g id="line2d_22">
      <g>
       <use style="stroke:#000000;stroke-width:0.6;" x="144" xlink:href="#m4b4e88fafb" y="448.266417"/>
      </g>
     </g>
    </g>
    <g id="ytick_14">
     <g id="line2d_23">
      <g>
       <use style="stroke:#000000;stroke-width:0.6;" x="144" xlink:href="#m4b4e88fafb" y="418.677717"/>
      </g>
     </g>
    </g>
    <g id="ytick_15">
     <g id="line2d_24">
      <g>
       <use style="stroke:#000000;stroke-width:0.6;" x="144" xlink:href="#m4b4e88fafb" y="403.653208"/>
      </g>
     </g>
    </g>
    <g id="ytick_16">
     <g id="line2d_25">
      <g>
       <use style="stroke:#000000;stroke-width:0.6;" x="144" xlink:href="#m4b4e88fafb" y="392.99315"/>
      </g>
     </g>
    </g>
    <g id="ytick_17">
     <g id="line2d_26">
      <g>
       <use style="stroke:#000000;stroke-width:0.6;" x="144" xlink:href="#m4b4e88fafb" y="384.724567"/>
      </g>
     </g>
    </g>
    <g id="ytick_18">
     <g id="line2d_27">
      <g>
       <use style="stroke:#000000;stroke-width:0.6;" x="144" xlink:href="#m4b4e88fafb" y="377.968642"/>
      </g>
     </g>
    </g>
    <g id="ytick_19">
     <g id="line2d_28">
      <g>
       <use style="stroke:#000000;stroke-width:0.6;" x="144" xlink:href="#m4b4e88fafb" y="372.256589"/>
      </g>
     </g>
    </g>
    <g id="ytick_20">
     <g id="line2d_29">
      <g>
       <use style="stroke:#000000;stroke-width:0.6;" x="144" xlink:href="#m4b4e88fafb" y="367.308584"/>
      </g>
     </g>
    </g>
    <g id="ytick_21">
     <g id="line2d_30">
      <g>
       <use style="stroke:#000000;stroke-width:0.6;" x="144" xlink:href="#m4b4e88fafb" y="362.944134"/>
      </g>
     </g>
    </g>
    <g id="ytick_22">
     <g id="line2d_31">
      <g>
       <use style="stroke:#000000;stroke-width:0.6;" x="144" xlink:href="#m4b4e88fafb" y="333.355433"/>
      </g>
     </g>
    </g>
    <g id="ytick_23">
     <g id="line2d_32">
      <g>
       <use style="stroke:#000000;stroke-width:0.6;" x="144" xlink:href="#m4b4e88fafb" y="318.330925"/>
      </g>
     </g>
    </g>
    <g id="ytick_24">
     <g id="line2d_33">
      <g>
       <use style="stroke:#000000;stroke-width:0.6;" x="144" xlink:href="#m4b4e88fafb" y="307.670867"/>
      </g>
     </g>
    </g>
    <g id="ytick_25">
     <g id="line2d_34">
      <g>
       <use style="stroke:#000000;stroke-width:0.6;" x="144" xlink:href="#m4b4e88fafb" y="299.402283"/>
      </g>
     </g>
    </g>
    <g id="ytick_26">
     <g id="line2d_35">
      <g>
       <use style="stroke:#000000;stroke-width:0.6;" x="144" xlink:href="#m4b4e88fafb" y="292.646359"/>
      </g>
     </g>
    </g>
    <g id="ytick_27">
     <g id="line2d_36">
      <g>
       <use style="stroke:#000000;stroke-width:0.6;" x="144" xlink:href="#m4b4e88fafb" y="286.934306"/>
      </g>
     </g>
    </g>
    <g id="ytick_28">
     <g id="line2d_37">
      <g>
       <use style="stroke:#000000;stroke-width:0.6;" x="144" xlink:href="#m4b4e88fafb" y="281.9863"/>
      </g>
     </g>
    </g>
    <g id="ytick_29">
     <g id="line2d_38">
      <g>
       <use style="stroke:#000000;stroke-width:0.6;" x="144" xlink:href="#m4b4e88fafb" y="277.62185"/>
      </g>
     </g>
    </g>
    <g id="ytick_30">
     <g id="line2d_39">
      <g>
       <use style="stroke:#000000;stroke-width:0.6;" x="144" xlink:href="#m4b4e88fafb" y="248.03315"/>
      </g>
     </g>
    </g>
    <g id="ytick_31">
     <g id="line2d_40">
      <g>
       <use style="stroke:#000000;stroke-width:0.6;" x="144" xlink:href="#m4b4e88fafb" y="233.008642"/>
      </g>
     </g>
    </g>
    <g id="ytick_32">
     <g id="line2d_41">
      <g>
       <use style="stroke:#000000;stroke-width:0.6;" x="144" xlink:href="#m4b4e88fafb" y="222.348584"/>
      </g>
     </g>
    </g>
    <g id="ytick_33">
     <g id="line2d_42">
      <g>
       <use style="stroke:#000000;stroke-width:0.6;" x="144" xlink:href="#m4b4e88fafb" y="214.08"/>
      </g>
     </g>
    </g>
    <g id="ytick_34">
     <g id="line2d_43">
      <g>
       <use style="stroke:#000000;stroke-width:0.6;" x="144" xlink:href="#m4b4e88fafb" y="207.324075"/>
      </g>
     </g>
    </g>
    <g id="ytick_35">
     <g id="line2d_44">
      <g>
       <use style="stroke:#000000;stroke-width:0.6;" x="144" xlink:href="#m4b4e88fafb" y="201.612022"/>
      </g>
     </g>
    </g>
    <g id="ytick_36">
     <g id="line2d_45">
      <g>
       <use style="stroke:#000000;stroke-width:0.6;" x="144" xlink:href="#m4b4e88fafb" y="196.664017"/>
      </g>
     </g>
    </g>
    <g id="ytick_37">
     <g id="line2d_46">
      <g>
       <use style="stroke:#000000;stroke-width:0.6;" x="144" xlink:href="#m4b4e88fafb" y="192.299567"/>
      </g>
     </g>
    </g>
    <g id="ytick_38">
     <g id="line2d_47">
      <g>
       <use style="stroke:#000000;stroke-width:0.6;" x="144" xlink:href="#m4b4e88fafb" y="162.710867"/>
      </g>
     </g>
    </g>
    <g id="ytick_39">
     <g id="line2d_48">
      <g>
       <use style="stroke:#000000;stroke-width:0.6;" x="144" xlink:href="#m4b4e88fafb" y="147.686359"/>
      </g>
     </g>
    </g>
    <g id="ytick_40">
     <g id="line2d_49">
      <g>
       <use style="stroke:#000000;stroke-width:0.6;" x="144" xlink:href="#m4b4e88fafb" y="137.0263"/>
      </g>
     </g>
    </g>
    <g id="ytick_41">
     <g id="line2d_50">
      <g>
       <use style="stroke:#000000;stroke-width:0.6;" x="144" xlink:href="#m4b4e88fafb" y="128.757717"/>
      </g>
     </g>
    </g>
    <g id="ytick_42">
     <g id="line2d_51">
      <g>
       <use style="stroke:#000000;stroke-width:0.6;" x="144" xlink:href="#m4b4e88fafb" y="122.001792"/>
      </g>
     </g>
    </g>
    <g id="ytick_43">
     <g id="line2d_52">
      <g>
       <use style="stroke:#000000;stroke-width:0.6;" x="144" xlink:href="#m4b4e88fafb" y="116.289739"/>
      </g>
     </g>
    </g>
    <g id="ytick_44">
     <g id="line2d_53">
      <g>
       <use style="stroke:#000000;stroke-width:0.6;" x="144" xlink:href="#m4b4e88fafb" y="111.341734"/>
      </g>
     </g>
    </g>
    <g id="ytick_45">
     <g id="line2d_54">
      <g>
       <use style="stroke:#000000;stroke-width:0.6;" x="144" xlink:href="#m4b4e88fafb" y="106.977284"/>
      </g>
     </g>
    </g>
    <g id="ytick_46">
     <g id="line2d_55">
      <g>
       <use style="stroke:#000000;stroke-width:0.6;" x="144" xlink:href="#m4b4e88fafb" y="77.388584"/>
      </g>
     </g>
    </g>
    <g id="text_16">
     <!-- Energy /A.U. -->
     <g transform="translate(84.936875 373.22)rotate(-90)scale(0.28 -0.28)">
      <defs>
       <path d="M 9.8125 72.90625 
L 55.90625 72.90625 
L 55.90625 64.59375 
L 19.671875 64.59375 
L 19.671875 43.015625 
L 54.390625 43.015625 
L 54.390625 34.71875 
L 19.671875 34.71875 
L 19.671875 8.296875 
L 56.78125 8.296875 
L 56.78125 0 
L 9.8125 0 
z
" id="DejaVuSans-69"/>
       <path d="M 54.890625 33.015625 
L 54.890625 0 
L 45.90625 0 
L 45.90625 32.71875 
Q 45.90625 40.484375 42.875 44.328125 
Q 39.84375 48.1875 33.796875 48.1875 
Q 26.515625 48.1875 22.3125 43.546875 
Q 18.109375 38.921875 18.109375 30.90625 
L 18.109375 0 
L 9.078125 0 
L 9.078125 54.6875 
L 18.109375 54.6875 
L 18.109375 46.1875 
Q 21.34375 51.125 25.703125 53.5625 
Q 30.078125 56 35.796875 56 
Q 45.21875 56 50.046875 50.171875 
Q 54.890625 44.34375 54.890625 33.015625 
z
" id="DejaVuSans-110"/>
       <path d="M 56.203125 29.59375 
L 56.203125 25.203125 
L 14.890625 25.203125 
Q 15.484375 15.921875 20.484375 11.0625 
Q 25.484375 6.203125 34.421875 6.203125 
Q 39.59375 6.203125 44.453125 7.46875 
Q 49.3125 8.734375 54.109375 11.28125 
L 54.109375 2.78125 
Q 49.265625 0.734375 44.1875 -0.34375 
Q 39.109375 -1.421875 33.890625 -1.421875 
Q 20.796875 -1.421875 13.15625 6.1875 
Q 5.515625 13.8125 5.515625 26.8125 
Q 5.515625 40.234375 12.765625 48.109375 
Q 20.015625 56 32.328125 56 
Q 43.359375 56 49.78125 48.890625 
Q 56.203125 41.796875 56.203125 29.59375 
z
M 47.21875 32.234375 
Q 47.125 39.59375 43.09375 43.984375 
Q 39.0625 48.390625 32.421875 48.390625 
Q 24.90625 48.390625 20.390625 44.140625 
Q 15.875 39.890625 15.1875 32.171875 
z
" id="DejaVuSans-101"/>
       <path d="M 45.40625 27.984375 
Q 45.40625 37.75 41.375 43.109375 
Q 37.359375 48.484375 30.078125 48.484375 
Q 22.859375 48.484375 18.828125 43.109375 
Q 14.796875 37.75 14.796875 27.984375 
Q 14.796875 18.265625 18.828125 12.890625 
Q 22.859375 7.515625 30.078125 7.515625 
Q 37.359375 7.515625 41.375 12.890625 
Q 45.40625 18.265625 45.40625 27.984375 
z
M 54.390625 6.78125 
Q 54.390625 -7.171875 48.1875 -13.984375 
Q 42 -20.796875 29.203125 -20.796875 
Q 24.46875 -20.796875 20.265625 -20.09375 
Q 16.0625 -19.390625 12.109375 -17.921875 
L 12.109375 -9.1875 
Q 16.0625 -11.328125 19.921875 -12.34375 
Q 23.78125 -13.375 27.78125 -13.375 
Q 36.625 -13.375 41.015625 -8.765625 
Q 45.40625 -4.15625 45.40625 5.171875 
L 45.40625 9.625 
Q 42.625 4.78125 38.28125 2.390625 
Q 33.9375 0 27.875 0 
Q 17.828125 0 11.671875 7.65625 
Q 5.515625 15.328125 5.515625 27.984375 
Q 5.515625 40.671875 11.671875 48.328125 
Q 17.828125 56 27.875 56 
Q 33.9375 56 38.28125 53.609375 
Q 42.625 51.21875 45.40625 46.390625 
L 45.40625 54.6875 
L 54.390625 54.6875 
z
" id="DejaVuSans-103"/>
       <path d="M 10.6875 12.40625 
L 21 12.40625 
L 21 0 
L 10.6875 0 
z
" id="DejaVuSans-46"/>
       <path d="M 8.6875 72.90625 
L 18.609375 72.90625 
L 18.609375 28.609375 
Q 18.609375 16.890625 22.84375 11.734375 
Q 27.09375 6.59375 36.625 6.59375 
Q 46.09375 6.59375 50.34375 11.734375 
Q 54.59375 16.890625 54.59375 28.609375 
L 54.59375 72.90625 
L 64.5 72.90625 
L 64.5 27.390625 
Q 64.5 13.140625 57.4375 5.859375 
Q 50.390625 -1.421875 36.625 -1.421875 
Q 22.796875 -1.421875 15.734375 5.859375 
Q 8.6875 13.140625 8.6875 27.390625 
z
" id="DejaVuSans-85"/>
      </defs>
      <use xlink:href="#DejaVuSans-69"/>
      <use x="63.183594" xlink:href="#DejaVuSans-110"/>
      <use x="126.5625" xlink:href="#DejaVuSans-101"/>
      <use x="188.085938" xlink:href="#DejaVuSans-114"/>
      <use x="227.449219" xlink:href="#DejaVuSans-103"/>
      <use x="290.925781" xlink:href="#DejaVuSans-121"/>
      <use x="350.105469" xlink:href="#DejaVuSans-32"/>
      <use x="381.892578" xlink:href="#DejaVuSans-47"/>
      <use x="415.583984" xlink:href="#DejaVuSans-65"/>
      <use x="482.242188" xlink:href="#DejaVuSans-46"/>
      <use x="514.029297" xlink:href="#DejaVuSans-85"/>
      <use x="587.222656" xlink:href="#DejaVuSans-46"/>
     </g>
    </g>
   </g>
   <g id="line2d_56">
    <path clip-path="url(#peaacd9a48b)" d="M 142.326 243.275479 
L 359.946 220.596566 
L 419.652 208.674153 
L 451.458 200.267268 
L 491.076 193.772112 
L 510.606 188.376978 
L 538.506 183.8475 
L 553.572 179.953849 
L 578.124 176.462955 
L 582.03 173.349936 
L 586.494 170.548221 
L 609.93 168.057185 
L 617.184 165.796357 
L 627.228 163.779353 
L 632.25 161.855869 
L 650.106 160.052345 
L 647.316 158.239472 
L 667.962 156.631022 
L 656.802 155.140089 
L 671.868 153.716435 
L 665.73 152.35895 
L 704.232 151.049461 
L 674.658 149.763315 
L 700.326 148.621741 
L 701.442 147.483878 
L 724.878 146.415161 
L 707.022 145.43363 
L 708.696 144.478297 
L 744.408 141.737951 
L 737.712 140.880059 
L 741.618 140.065449 
L 754.452 139.268834 
L 743.85 138.500573 
L 743.85 137.740835 
L 758.916 137.042179 
L 768.96 136.380588 
L 758.358 135.683552 
L 766.728 135.005528 
L 764.496 134.404516 
L 760.032 133.768878 
L 779.004 133.129671 
L 790.722 132.533335 
L 775.098 131.947948 
L 784.584 131.37343 
L 796.302 130.824233 
L 791.28 130.271412 
L 795.744 129.723747 
L 790.722 129.240365 
L 796.86 128.710501 
L 811.926 128.22221 
L 801.882 127.742059 
L 810.252 127.283052 
L 814.716 126.841988 
L 814.716 126.384629 
L 818.064 125.919725 
L 813.6 125.494569 
L 813.6 125.062007 
L 832.014 124.636438 
L 827.55 124.254138 
L 814.716 123.850555 
L 819.738 123.477355 
L 826.434 123.094783 
L 827.55 122.702731 
L 813.042 122.317721 
L 824.76 121.943872 
L 835.362 121.210983 
L 833.13 120.844047 
L 837.036 120.47559 
L 842.616 120.137044 
L 837.036 119.825423 
L 833.688 119.504668 
L 838.71 119.182336 
L 849.312 118.847744 
L 837.036 118.521456 
L 848.196 117.891218 
L 851.544 117.593444 
L 844.29 117.289924 
L 850.428 116.996094 
L 850.428 116.690804 
L 849.312 116.38678 
L 852.66 116.11485 
L 857.682 115.520887 
L 856.566 115.257962 
L 850.428 114.736225 
L 853.776 114.450926 
L 854.892 114.194636 
L 859.914 113.932824 
L 854.334 113.698712 
L 859.914 113.459418 
L 856.566 113.201249 
L 859.914 112.957353 
L 866.052 112.712928 
L 859.914 112.240215 
L 867.726 111.766305 
L 864.378 111.546733 
L 864.936 111.32337 
L 864.936 110.87851 
L 871.074 110.661657 
L 873.306 110.432266 
L 871.074 110.213402 
L 872.19 109.994822 
L 871.632 109.778308 
L 868.842 109.580552 
L 874.422 109.170896 
L 866.052 108.97286 
L 884.466 108.165551 
L 873.864 107.973465 
L 881.118 107.777699 
L 877.212 107.595038 
L 876.654 107.405761 
L 879.444 107.033924 
L 878.886 106.83244 
L 884.466 106.657705 
L 878.328 106.123389 
L 883.908 105.956315 
L 885.582 105.633544 
L 885.582 105.46788 
L 882.792 105.308242 
L 885.024 105.143001 
L 883.908 104.97337 
L 893.952 104.646597 
L 892.278 104.486854 
L 882.234 104.316025 
L 882.234 104.15033 
L 886.14 103.99125 
L 899.532 103.818325 
L 892.836 103.655723 
L 881.118 103.505167 
L 890.046 103.341558 
L 887.814 103.203413 
L 889.488 103.05515 
L 888.93 102.89883 
L 890.046 102.604296 
L 896.742 102.461654 
L 889.488 102.319977 
L 888.93 102.160357 
L 890.604 102.022039 
L 885.024 101.875529 
L 887.814 101.735462 
L 895.626 101.59795 
L 893.952 101.459211 
L 901.764 101.19647 
L 896.742 101.062534 
L 883.908 100.929137 
L 895.626 100.798063 
L 891.162 100.638089 
L 898.974 100.507778 
L 888.93 100.363611 
L 897.3 100.114704 
L 889.488 99.985085 
L 894.51 99.85354 
L 894.51 99.72548 
L 896.742 99.598895 
L 893.394 99.472552 
L 899.532 99.348473 
L 895.626 99.231971 
L 900.09 99.092576 
L 895.068 98.954116 
L 901.206 98.836047 
L 897.858 98.71743 
L 898.974 98.597988 
L 892.836 98.357359 
L 901.764 98.240588 
L 901.206 98.129422 
L 890.046 98.020908 
L 907.344 97.790842 
L 901.206 97.673545 
L 907.344 97.543496 
L 894.51 97.43111 
L 908.46 97.329497 
L 901.764 97.105115 
L 903.996 96.993811 
L 901.206 96.888097 
L 902.322 96.769792 
L 898.974 96.653159 
L 887.814 96.54015 
L 901.206 96.334569 
L 901.764 96.228447 
L 903.438 96.111254 
L 907.902 96.008669 
L 902.322 95.806532 
L 901.764 95.704893 
L 902.88 95.50059 
L 896.184 95.400638 
L 900.09 95.290969 
L 898.974 95.095765 
L 909.018 94.889154 
L 903.438 94.790728 
L 909.576 94.602739 
L 907.344 94.500388 
L 909.018 94.30618 
L 902.322 94.209017 
L 903.438 94.115883 
L 905.112 94.020645 
L 912.366 93.83629 
L 910.134 93.744006 
L 910.692 93.651568 
L 903.996 93.479629 
L 904.554 93.30556 
L 902.88 93.212125 
L 903.996 93.123146 
L 910.692 93.035535 
L 907.344 92.939703 
L 916.272 92.845272 
L 911.25 92.754836 
L 913.482 92.664788 
L 919.062 92.583765 
L 907.344 92.438093 
L 912.366 92.260579 
L 910.134 92.177108 
L 914.04 92.079188 
L 909.576 91.901289 
L 912.924 91.730571 
L 905.112 91.643718 
L 917.388 91.405356 
L 906.786 91.333627 
L 914.598 91.246375 
L 905.67 91.156472 
L 907.902 91.074165 
L 907.344 91.000773 
L 905.67 90.914881 
L 911.25 90.755228 
L 919.062 90.673621 
L 916.272 90.598135 
L 910.692 90.365599 
L 918.504 90.291797 
L 904.554 90.214084 
L 914.598 90.064055 
L 916.83 89.991556 
L 915.714 89.917941 
L 914.04 89.760219 
L 912.366 89.68541 
L 914.598 89.611575 
L 914.04 89.542825 
L 915.156 89.470854 
L 913.482 89.330247 
L 908.46 89.258086 
L 917.388 89.190927 
L 912.366 89.120043 
L 910.134 89.042746 
L 918.504 88.972806 
L 911.25 88.894788 
L 913.482 88.826773 
L 917.946 88.760548 
L 911.808 88.689799 
L 914.04 88.618269 
L 915.156 88.55897 
L 920.736 88.492671 
L 913.482 88.354738 
L 921.294 88.067295 
L 920.178 88.005866 
L 921.852 87.944938 
L 916.83 87.875267 
L 917.946 87.808106 
L 916.83 87.672127 
L 914.04 87.607437 
L 922.968 87.347578 
L 915.156 87.28299 
L 917.946 87.223112 
L 920.178 87.028675 
L 908.46 86.780418 
L 916.272 86.717381 
L 915.714 86.657257 
L 915.714 86.6011 
L 916.83 86.47633 
L 918.504 86.42059 
L 910.692 86.362025 
L 917.388 86.303743 
L 918.504 86.241633 
L 910.134 86.185417 
L 916.272 86.125052 
L 911.25 86.068624 
L 918.504 86.007075 
L 917.388 85.945383 
L 919.062 85.880944 
L 916.272 85.820417 
L 922.41 85.665563 
L 916.272 85.611197 
L 921.852 85.553854 
L 916.272 85.433805 
L 917.388 85.373172 
L 916.272 85.311635 
L 920.736 85.197426 
L 919.62 85.135598 
L 917.946 85.029656 
L 919.62 84.976921 
L 919.062 84.920023 
L 918.504 84.867375 
L 920.178 84.809969 
L 917.388 84.751187 
L 919.62 84.695924 
L 916.83 84.529891 
L 916.83 84.529891 
" style="fill:none;stroke:#1f1f1f;stroke-linecap:square;stroke-width:5;"/>
   </g>
   <g id="line2d_57">
    <path clip-path="url(#peaacd9a48b)" d="M 142.326 508.920089 
L 359.946 477.313789 
L 419.652 458.474469 
L 451.458 444.720279 
L 491.076 434.066573 
L 510.606 425.303698 
L 538.506 417.773755 
L 553.572 411.25565 
L 578.124 405.487905 
L 582.03 400.308052 
L 586.494 395.588362 
L 609.93 391.261023 
L 617.184 387.241367 
L 627.228 383.558548 
L 632.25 380.171753 
L 650.106 377.017714 
L 647.316 374.078861 
L 667.962 371.311326 
L 656.802 368.705534 
L 671.868 366.203302 
L 665.73 363.842337 
L 704.232 361.616546 
L 674.658 359.460516 
L 700.326 357.407182 
L 701.442 355.418844 
L 724.878 353.541752 
L 707.022 351.732927 
L 708.696 349.984061 
L 721.53 348.324895 
L 734.922 346.713323 
L 744.408 345.15645 
L 737.712 343.670314 
L 741.618 342.238865 
L 754.452 340.842571 
L 743.85 339.488001 
L 743.85 338.183227 
L 758.916 336.922086 
L 768.96 335.696276 
L 758.358 334.512152 
L 766.728 333.363 
L 764.496 332.236006 
L 760.032 331.143385 
L 779.004 330.075922 
L 790.722 329.043755 
L 775.098 328.047864 
L 784.584 327.065044 
L 796.302 326.111799 
L 791.28 325.178066 
L 795.744 324.27645 
L 790.722 323.386927 
L 796.86 322.522709 
L 811.926 321.67456 
L 801.882 320.855003 
L 810.252 320.055632 
L 814.716 319.273609 
L 814.716 318.505368 
L 818.064 317.751478 
L 813.6 317.014212 
L 813.6 316.28993 
L 832.014 315.57539 
L 827.55 314.873047 
L 814.716 314.18372 
L 819.738 313.498239 
L 826.434 312.829198 
L 827.55 312.177792 
L 813.042 311.539977 
L 824.76 310.911926 
L 835.362 309.671596 
L 833.13 309.070205 
L 837.036 308.478791 
L 842.616 307.897067 
L 837.036 307.32328 
L 833.688 306.754839 
L 838.71 306.197402 
L 849.312 305.648483 
L 837.036 305.107436 
L 848.196 304.053254 
L 851.544 303.538071 
L 844.29 303.02962 
L 850.428 302.527077 
L 850.428 302.034252 
L 849.312 301.546147 
L 852.66 301.063565 
L 854.892 300.585947 
L 857.682 300.112651 
L 856.566 299.646134 
L 850.428 298.736882 
L 853.776 298.289777 
L 854.892 297.84913 
L 859.914 297.413168 
L 854.334 296.979679 
L 859.914 296.550131 
L 856.566 296.127092 
L 859.914 295.708296 
L 866.052 295.29378 
L 859.914 294.479666 
L 867.726 293.681761 
L 864.378 293.290434 
L 864.936 292.902198 
L 864.936 292.128145 
L 871.074 291.742168 
L 873.306 291.36267 
L 871.074 290.988774 
L 872.19 290.619892 
L 871.632 290.253813 
L 868.842 289.890591 
L 871.074 289.529983 
L 874.422 289.170984 
L 866.052 288.815006 
L 884.466 287.420701 
L 873.864 287.079428 
L 881.118 286.739754 
L 877.212 286.40148 
L 876.654 286.06964 
L 877.77 285.738197 
L 879.444 285.412933 
L 878.886 285.089435 
L 884.466 284.766395 
L 880.56 284.126625 
L 878.328 283.811259 
L 883.908 283.497054 
L 885.024 283.187772 
L 885.582 282.879792 
L 885.582 282.572033 
L 882.792 282.268202 
L 885.024 281.967946 
L 883.908 281.670255 
L 891.162 281.375495 
L 893.952 281.08327 
L 892.278 280.791473 
L 882.234 280.501319 
L 882.234 280.21266 
L 886.14 279.924072 
L 899.532 279.638674 
L 892.836 279.355661 
L 881.118 279.074455 
L 890.046 278.794381 
L 887.814 278.515732 
L 889.488 278.236736 
L 888.93 277.959244 
L 890.046 277.411428 
L 896.742 277.140628 
L 889.488 276.870115 
L 888.93 276.601762 
L 890.604 276.334666 
L 885.024 276.069059 
L 887.814 275.805036 
L 895.626 275.541298 
L 893.952 275.279781 
L 901.764 274.760094 
L 896.742 274.501391 
L 883.908 274.243263 
L 895.626 273.988253 
L 891.162 273.734076 
L 898.974 273.481925 
L 888.93 273.229542 
L 897.3 272.73019 
L 889.488 272.482737 
L 894.51 272.238114 
L 894.51 271.993626 
L 896.742 271.751439 
L 893.394 271.509118 
L 899.532 271.26811 
L 895.626 271.028887 
L 900.09 270.790541 
L 895.068 270.553569 
L 901.206 270.316636 
L 897.858 270.081105 
L 898.974 269.84724 
L 892.836 269.382102 
L 901.764 269.150587 
L 901.206 268.920054 
L 890.046 268.689266 
L 902.88 268.462158 
L 907.344 268.235111 
L 901.206 268.008549 
L 907.344 267.782617 
L 894.51 267.557365 
L 908.46 267.332971 
L 903.438 267.110423 
L 901.764 266.888165 
L 903.996 266.66729 
L 901.206 266.447584 
L 902.322 266.228661 
L 898.974 266.011033 
L 887.814 265.793012 
L 901.206 265.576228 
L 901.206 265.360352 
L 901.764 265.144438 
L 903.438 264.930363 
L 907.902 264.718189 
L 902.88 264.507498 
L 901.764 264.087118 
L 902.88 263.87732 
L 902.88 263.669013 
L 896.184 263.461785 
L 900.09 263.254682 
L 898.974 263.048909 
L 898.974 262.843379 
L 907.344 262.63913 
L 909.018 262.43526 
L 903.438 262.232223 
L 909.576 261.829123 
L 907.344 261.628878 
L 909.018 261.228423 
L 902.322 261.030543 
L 905.112 260.636699 
L 911.25 260.441481 
L 912.366 260.246244 
L 910.134 260.051888 
L 910.692 259.858709 
L 908.46 259.666204 
L 903.996 259.474687 
L 905.67 259.283747 
L 902.88 258.903217 
L 903.996 258.71394 
L 910.692 258.526065 
L 907.344 258.338402 
L 916.272 258.150488 
L 911.25 257.963413 
L 913.482 257.777409 
L 919.062 257.591635 
L 907.344 257.221724 
L 911.808 257.038068 
L 912.366 256.855272 
L 910.134 256.673064 
L 914.04 256.492573 
L 909.576 256.31185 
L 909.576 256.131627 
L 912.924 255.950677 
L 912.924 255.771022 
L 905.112 255.591706 
L 917.388 255.056775 
L 906.786 254.879773 
L 914.598 254.703882 
L 905.67 254.527545 
L 907.902 254.351975 
L 907.344 254.17704 
L 905.67 254.003001 
L 911.25 253.655573 
L 919.062 253.48247 
L 911.808 252.966098 
L 910.692 252.795226 
L 918.504 252.624676 
L 904.554 252.454925 
L 913.482 252.28555 
L 914.598 252.116498 
L 916.83 251.948528 
L 912.366 251.28219 
L 914.598 251.11657 
L 914.04 250.951604 
L 915.156 250.78783 
L 914.598 250.624069 
L 913.482 250.461016 
L 908.46 250.298756 
L 917.388 250.136814 
L 910.134 249.813948 
L 918.504 249.652838 
L 911.25 249.492743 
L 913.482 249.332365 
L 917.946 249.172566 
L 911.808 249.013321 
L 915.156 248.697148 
L 920.736 248.540523 
L 913.482 248.228278 
L 917.946 247.918403 
L 919.062 247.763631 
L 921.294 247.6094 
L 920.178 247.456148 
L 921.852 247.302547 
L 916.83 247.14902 
L 917.946 246.996489 
L 916.83 246.69271 
L 914.04 246.541878 
L 916.83 246.391347 
L 916.83 246.24109 
L 919.062 246.090952 
L 922.968 245.941245 
L 915.156 245.792524 
L 919.62 245.496074 
L 920.178 245.348982 
L 920.178 245.201513 
L 915.156 245.054436 
L 916.83 244.907604 
L 914.04 244.761791 
L 908.46 244.616254 
L 916.272 244.470579 
L 915.714 244.325361 
L 915.714 244.181057 
L 916.83 243.893093 
L 918.504 243.750199 
L 910.692 243.60818 
L 917.388 243.466522 
L 918.504 243.324913 
L 910.134 243.183305 
L 916.272 243.04242 
L 911.25 242.901968 
L 918.504 242.761848 
L 917.388 242.621999 
L 919.062 242.4826 
L 916.272 242.343209 
L 921.852 242.203842 
L 918.504 242.065296 
L 922.41 241.927379 
L 916.272 241.789547 
L 921.852 241.652487 
L 916.272 241.515513 
L 916.272 241.378944 
L 917.388 241.24253 
L 916.272 241.106605 
L 920.736 240.8354 
L 917.946 240.43162 
L 919.62 240.29709 
L 918.504 240.029439 
L 920.178 239.896274 
L 917.388 239.763045 
L 919.62 239.630244 
L 918.504 239.497409 
L 919.062 239.365599 
L 916.83 239.234115 
L 916.83 239.234115 
" style="fill:none;stroke:#9e9e9e;stroke-linecap:square;stroke-width:5;"/>
   </g>
   <g id="line2d_58">
    <path clip-path="url(#peaacd9a48b)" d="M -1 259.981624 
L 172.458 246.434944 
L 263.412 235.750976 
L 334.836 227.934386 
L 387.846 221.691969 
L 411.282 216.550292 
L 442.53 212.194039 
L 468.756 208.327641 
L 479.358 204.933037 
L 497.772 201.837904 
L 507.258 199.092602 
L 508.374 196.601174 
L 525.672 194.343852 
L 531.252 192.20311 
L 539.064 190.215039 
L 539.064 188.194088 
L 558.036 186.396728 
L 558.594 184.720935 
L 555.804 183.120665 
L 561.384 181.597535 
L 583.146 180.124864 
L 560.826 178.696036 
L 582.03 177.401336 
L 583.704 176.103346 
L 588.726 174.87081 
L 589.842 173.721411 
L 599.328 172.630959 
L 595.422 171.512265 
L 611.046 170.448043 
L 616.068 169.477317 
L 614.394 168.467641 
L 619.416 167.520955 
L 621.09 166.59567 
L 614.952 165.706225 
L 620.532 164.821114 
L 633.366 163.985722 
L 627.786 163.198334 
L 628.344 162.384853 
L 637.272 161.596028 
L 636.156 160.886095 
L 638.388 160.138376 
L 638.946 159.385561 
L 654.012 158.674323 
L 641.736 157.990688 
L 651.222 157.318014 
L 657.918 156.665876 
L 654.012 156.022788 
L 667.962 155.382427 
L 666.288 154.786101 
L 666.846 154.157591 
L 657.36 153.576787 
L 671.868 153.009251 
L 666.846 152.449355 
L 680.796 151.906387 
L 677.448 151.368535 
L 680.238 150.819497 
L 680.796 150.30284 
L 686.376 149.797466 
L 686.376 149.300861 
L 684.702 148.833655 
L 675.216 148.348526 
L 698.094 147.43743 
L 686.934 146.97512 
L 689.166 146.507103 
L 693.63 146.052174 
L 705.348 145.62664 
L 707.58 145.18123 
L 706.464 144.750759 
L 700.326 144.322449 
L 709.812 143.913045 
L 717.624 143.142226 
L 712.602 142.756697 
L 722.646 142.357409 
L 719.856 141.981832 
L 723.762 141.612493 
L 729.342 141.238424 
L 728.226 140.882288 
L 725.436 140.520833 
L 718.182 140.156712 
L 732.69 139.790403 
L 735.48 139.110879 
L 739.386 138.737043 
L 735.48 138.397589 
L 747.198 137.754991 
L 742.176 137.440175 
L 746.64 137.110687 
L 747.198 136.79611 
L 743.292 136.492454 
L 747.756 136.206808 
L 747.198 135.923545 
L 745.524 135.614545 
L 741.06 135.318316 
L 752.778 134.755946 
L 753.894 134.460456 
L 752.778 134.18356 
L 759.474 133.900436 
L 750.546 133.632242 
L 753.336 133.358926 
L 744.966 133.101235 
L 758.916 132.82379 
L 760.032 132.5611 
L 770.076 132.293019 
L 770.076 132.03281 
L 765.612 131.775158 
L 768.96 131.514249 
L 758.916 131.276492 
L 763.38 131.032054 
L 762.822 130.778538 
L 762.822 130.540477 
L 761.706 130.301649 
L 770.634 130.065677 
L 770.634 129.816484 
L 780.12 129.580649 
L 773.982 129.353377 
L 779.004 129.122449 
L 772.866 128.900203 
L 772.866 128.444507 
L 774.54 128.223037 
L 774.54 127.992022 
L 777.888 127.783426 
L 785.7 127.585128 
L 784.584 127.360994 
L 780.678 127.145911 
L 788.49 126.938848 
L 786.258 126.731352 
L 787.374 126.336525 
L 792.396 126.141204 
L 792.396 125.933895 
L 799.092 125.739194 
L 793.512 125.528168 
L 795.186 125.337712 
L 797.976 125.153077 
L 793.512 124.745645 
L 800.766 124.555497 
L 802.44 124.36077 
L 794.628 124.167539 
L 798.534 123.979661 
L 794.07 123.791605 
L 808.578 123.258817 
L 802.998 122.903655 
L 806.904 122.730522 
L 805.23 122.556979 
L 805.23 122.372596 
L 807.462 122.205784 
L 799.65 122.025429 
L 811.368 121.695453 
L 811.368 121.52823 
L 810.252 121.366353 
L 819.738 121.200592 
L 810.81 120.888665 
L 813.6 120.550469 
L 810.81 120.393273 
L 819.738 120.063907 
L 819.738 119.915062 
L 816.948 119.768977 
L 818.064 119.610349 
L 822.528 119.455855 
L 818.064 119.154786 
L 819.738 118.852965 
L 825.318 118.692794 
L 820.854 118.538751 
L 825.876 118.394091 
L 826.434 118.246241 
L 830.34 118.103246 
L 827.55 117.954744 
L 820.854 117.818793 
L 831.456 117.678065 
L 824.76 117.537199 
L 830.898 117.398436 
L 829.782 117.263892 
L 826.992 117.116022 
L 837.594 116.976183 
L 828.108 116.69607 
L 828.666 116.570565 
L 835.362 116.436334 
L 825.318 116.293307 
L 834.246 116.155287 
L 834.804 116.021425 
L 834.246 115.893085 
L 832.014 115.622164 
L 823.644 115.500195 
L 838.71 115.242461 
L 838.152 115.109209 
L 832.572 114.981059 
L 832.014 114.855334 
L 833.688 114.740378 
L 840.942 114.614205 
L 840.384 114.493571 
L 839.268 114.36696 
L 839.826 114.251055 
L 831.456 114.118791 
L 834.246 113.996503 
L 833.688 113.877118 
L 841.5 113.625136 
L 833.688 113.507363 
L 843.732 113.388998 
L 840.942 113.153063 
L 840.384 113.031186 
L 839.268 112.914204 
L 842.058 112.688448 
L 839.268 112.575513 
L 847.08 112.354356 
L 847.08 112.237661 
L 843.732 112.12409 
L 844.848 112.013036 
L 844.29 111.904841 
L 849.87 111.688637 
L 848.196 111.572238 
L 838.71 111.462985 
L 849.312 111.356395 
L 843.174 111.249057 
L 848.196 111.137132 
L 845.964 111.028633 
L 850.986 110.922606 
L 847.08 110.822774 
L 850.986 110.727364 
L 848.754 110.630203 
L 852.66 110.52288 
L 852.102 110.308481 
L 846.522 110.19789 
L 851.544 110.084126 
L 844.848 109.982277 
L 849.312 109.783104 
L 849.87 109.678046 
L 856.008 109.575812 
L 854.892 109.477235 
L 858.798 109.382707 
L 848.196 109.185511 
L 852.66 108.978088 
L 846.522 108.887005 
L 853.776 108.685816 
L 852.66 108.590879 
L 857.682 108.399945 
L 851.544 108.213164 
L 859.356 108.115846 
L 844.848 107.936811 
L 861.588 107.750343 
L 860.472 107.658105 
L 861.588 107.566897 
L 857.682 107.378935 
L 854.892 107.19688 
L 858.798 107.112278 
L 855.45 107.020953 
L 867.726 106.664265 
L 852.66 106.488758 
L 861.588 106.308956 
L 858.24 106.226939 
L 859.914 106.142541 
L 858.24 106.051488 
L 852.66 105.960025 
L 862.704 105.887036 
L 857.682 105.71589 
L 864.378 105.631264 
L 857.124 105.543909 
L 872.748 105.370841 
L 861.588 105.209097 
L 866.052 105.134075 
L 862.146 105.048963 
L 868.284 104.886981 
L 862.146 104.803568 
L 863.82 104.721105 
L 863.262 104.640968 
L 854.334 104.561262 
L 854.892 104.478361 
L 870.516 104.394403 
L 864.936 104.316219 
L 858.798 104.23819 
L 867.726 104.153944 
L 864.378 104.076027 
L 864.936 103.994678 
L 868.842 103.844433 
L 863.262 103.688096 
L 873.864 103.610453 
L 871.074 103.535359 
L 866.052 103.465264 
L 868.284 103.383969 
L 860.472 103.233814 
L 866.052 103.16086 
L 863.262 103.091657 
L 867.168 102.942423 
L 865.494 102.865255 
L 869.4 102.718816 
L 859.914 102.64332 
L 866.052 102.563236 
L 865.494 102.490677 
L 866.61 102.42904 
L 871.074 102.359293 
L 869.4 102.288074 
L 869.958 102.217465 
L 861.588 102.070116 
L 871.632 101.921738 
L 864.378 101.773325 
L 871.074 101.703724 
L 870.516 101.628131 
L 875.538 101.420042 
L 866.61 101.350376 
L 871.074 101.287324 
L 869.958 101.21306 
L 879.444 100.936357 
L 869.958 100.869515 
L 869.958 100.869515 
" style="fill:none;stroke:#ff15ff;stroke-linecap:square;stroke-width:5;"/>
   </g>
   <g id="line2d_59">
    <path clip-path="url(#peaacd9a48b)" d="M -1 464.936406 
L 172.458 446.597133 
L 263.412 431.117599 
L 334.836 419.493331 
L 387.846 410.174277 
L 411.282 402.352037 
L 442.53 395.666203 
L 468.756 389.834243 
L 479.358 384.653101 
L 497.772 379.957771 
L 507.258 375.682658 
L 508.374 371.749364 
L 525.672 368.127053 
L 531.252 364.791185 
L 539.064 361.693908 
L 539.064 358.775834 
L 558.036 356.025294 
L 558.594 353.439502 
L 555.804 350.968624 
L 561.384 348.633296 
L 583.146 346.417389 
L 560.826 344.277469 
L 582.03 342.240626 
L 583.704 340.277425 
L 588.726 338.410996 
L 589.842 336.60677 
L 599.328 334.861818 
L 595.422 333.200766 
L 611.046 331.597292 
L 616.068 330.043195 
L 614.394 328.550631 
L 619.416 327.107597 
L 621.09 325.709838 
L 614.952 324.349708 
L 620.532 323.033121 
L 633.366 321.753924 
L 627.786 320.514868 
L 628.344 319.311695 
L 637.272 318.1382 
L 636.156 316.991166 
L 638.388 315.877417 
L 638.946 314.786135 
L 654.012 313.723732 
L 641.736 312.695213 
L 651.222 311.684082 
L 657.918 310.698414 
L 654.012 309.736956 
L 667.962 308.799917 
L 666.288 307.880526 
L 666.846 306.980889 
L 657.36 306.09708 
L 671.868 305.237732 
L 666.846 304.398767 
L 680.796 303.579014 
L 677.448 302.771485 
L 680.238 301.983685 
L 680.796 301.21107 
L 686.376 300.453049 
L 686.376 299.706567 
L 684.702 298.972877 
L 675.216 298.254894 
L 698.094 296.85276 
L 686.934 296.173426 
L 689.166 295.50323 
L 693.63 294.847834 
L 705.348 294.199089 
L 707.58 293.561988 
L 706.464 292.934324 
L 700.326 292.318684 
L 709.812 291.712172 
L 717.624 290.522675 
L 712.602 289.940612 
L 722.646 289.368212 
L 719.856 288.805254 
L 723.762 288.252417 
L 729.342 287.705777 
L 728.226 287.165863 
L 725.436 286.633041 
L 718.182 286.107768 
L 732.69 285.589563 
L 734.364 285.078309 
L 735.48 284.573535 
L 739.386 284.0761 
L 735.48 283.583588 
L 747.198 282.620235 
L 742.176 282.146932 
L 746.64 281.679373 
L 747.198 281.215838 
L 743.292 280.757861 
L 747.756 280.303285 
L 747.198 279.854237 
L 745.524 279.411221 
L 741.06 278.97063 
L 752.778 278.105461 
L 753.894 277.680111 
L 752.778 277.25868 
L 759.474 276.841632 
L 750.546 276.430513 
L 753.336 276.02369 
L 744.966 275.619488 
L 758.916 275.215804 
L 760.032 274.81568 
L 770.076 274.422617 
L 770.076 274.034796 
L 765.612 273.650814 
L 768.96 273.270514 
L 758.916 272.894518 
L 763.38 272.518611 
L 762.822 272.145331 
L 762.822 271.776723 
L 761.706 271.412632 
L 770.634 271.052986 
L 770.634 270.695677 
L 780.12 270.338402 
L 773.982 269.984589 
L 779.004 269.63439 
L 772.866 269.283524 
L 772.866 268.594628 
L 774.54 268.25831 
L 774.54 267.922259 
L 777.888 267.59141 
L 785.7 267.261875 
L 784.584 266.93543 
L 780.678 266.612319 
L 788.49 266.290103 
L 786.258 265.973312 
L 787.374 265.341472 
L 792.396 265.028551 
L 792.396 264.719086 
L 799.092 264.412713 
L 793.512 264.108654 
L 795.186 263.807211 
L 797.976 263.50568 
L 793.512 262.914138 
L 800.766 262.620008 
L 802.44 262.327928 
L 794.628 262.040181 
L 798.534 261.753576 
L 794.07 261.468504 
L 808.578 260.622597 
L 804.672 260.344564 
L 802.998 260.068216 
L 806.904 259.795289 
L 805.23 259.523547 
L 805.23 259.253609 
L 807.462 258.984617 
L 799.65 258.718463 
L 808.02 258.452811 
L 811.368 258.188192 
L 811.368 257.926962 
L 810.252 257.666931 
L 819.738 257.408813 
L 810.81 256.894721 
L 811.926 256.640363 
L 813.6 256.388291 
L 810.81 256.138174 
L 817.506 255.887984 
L 819.738 255.640614 
L 819.738 255.393674 
L 816.948 255.148771 
L 818.064 254.907604 
L 822.528 254.666021 
L 819.18 254.426284 
L 818.064 254.185664 
L 819.18 253.948138 
L 819.738 253.712003 
L 825.318 253.476649 
L 820.854 253.242554 
L 825.876 253.010345 
L 826.434 252.779677 
L 830.34 252.550983 
L 827.55 252.322554 
L 820.854 252.09606 
L 831.456 251.870402 
L 824.76 251.644936 
L 830.898 251.419523 
L 829.782 251.195654 
L 826.992 250.973029 
L 837.594 250.75203 
L 830.898 250.532591 
L 828.108 250.314656 
L 828.666 250.098304 
L 835.362 249.884402 
L 825.318 249.670748 
L 834.246 249.458422 
L 834.804 249.246834 
L 834.246 249.035009 
L 832.572 248.825868 
L 832.014 248.617964 
L 823.644 248.409942 
L 838.71 247.995003 
L 838.152 247.789411 
L 832.572 247.585321 
L 832.014 247.382074 
L 833.688 247.179045 
L 840.942 246.978352 
L 840.384 246.777853 
L 839.268 246.57797 
L 839.826 246.378896 
L 831.456 246.179363 
L 834.246 245.980582 
L 833.688 245.783369 
L 840.942 245.587443 
L 841.5 245.392858 
L 833.688 245.199961 
L 843.732 245.008029 
L 840.942 244.62645 
L 840.384 244.436912 
L 839.268 244.247661 
L 842.058 243.872985 
L 839.268 243.685845 
L 847.08 243.311876 
L 847.08 243.126995 
L 843.732 242.943037 
L 844.848 242.759422 
L 844.29 242.577157 
L 849.87 242.215479 
L 848.196 242.036132 
L 838.71 241.858195 
L 849.312 241.681581 
L 843.174 241.504164 
L 848.196 241.326686 
L 845.964 241.150982 
L 850.986 240.975966 
L 847.08 240.800596 
L 850.986 240.625508 
L 848.754 240.45073 
L 852.66 240.277137 
L 852.102 240.104232 
L 852.102 239.931876 
L 846.522 239.760584 
L 851.544 239.591283 
L 844.848 239.42263 
L 849.312 239.254075 
L 849.312 239.085538 
L 849.87 238.918397 
L 856.008 238.752149 
L 854.892 238.586402 
L 858.798 238.421883 
L 848.196 238.258351 
L 848.196 238.0949 
L 852.66 237.770052 
L 846.522 237.609046 
L 852.66 237.448211 
L 853.776 237.288079 
L 852.66 237.128109 
L 857.682 236.969006 
L 857.682 236.809759 
L 851.544 236.494079 
L 859.356 236.336915 
L 854.892 236.180543 
L 844.848 236.024814 
L 861.588 235.714332 
L 860.472 235.559893 
L 861.588 235.406841 
L 857.682 235.25336 
L 857.682 235.099706 
L 854.892 234.794541 
L 858.798 234.642586 
L 855.45 234.491838 
L 862.704 234.189848 
L 862.146 234.041331 
L 867.726 233.892723 
L 852.66 233.59641 
L 861.588 233.302169 
L 858.24 233.155687 
L 859.914 233.009543 
L 858.24 232.863732 
L 852.66 232.718017 
L 862.704 232.573111 
L 857.682 232.285073 
L 864.378 232.141269 
L 857.124 231.998637 
L 872.748 231.71428 
L 863.262 231.573368 
L 861.588 231.432439 
L 866.052 231.292027 
L 862.146 231.151216 
L 868.284 230.871927 
L 862.146 230.733442 
L 863.82 230.59576 
L 863.262 230.458594 
L 854.334 230.321764 
L 854.892 230.184867 
L 870.516 230.048246 
L 858.798 229.776215 
L 867.726 229.641357 
L 864.378 229.506395 
L 864.936 229.37218 
L 868.842 229.104853 
L 867.168 228.972065 
L 863.262 228.839607 
L 873.864 228.707769 
L 866.052 228.444363 
L 868.284 228.312986 
L 860.472 228.051937 
L 866.052 227.922112 
L 863.262 227.792375 
L 867.168 227.662649 
L 867.168 227.533724 
L 865.494 227.405499 
L 869.4 227.149871 
L 859.914 227.022492 
L 866.052 226.895823 
L 865.494 226.76964 
L 866.61 226.64337 
L 871.074 226.517773 
L 869.4 226.392874 
L 869.958 226.267914 
L 861.588 226.018731 
L 871.632 225.770992 
L 864.378 225.523955 
L 871.074 225.400948 
L 870.516 225.278198 
L 873.306 225.156512 
L 872.19 225.034549 
L 875.538 224.912853 
L 866.61 224.791721 
L 871.074 224.670043 
L 869.958 224.549161 
L 872.19 224.428305 
L 872.19 224.307958 
L 874.422 224.187848 
L 879.444 224.068694 
L 869.958 223.949546 
L 869.958 223.949546 
" style="fill:none;stroke:#ffa0f0;stroke-linecap:square;stroke-width:5;"/>
   </g>
   <g id="patch_3">
    <path d="M 144 504 
L 144 69.12 
" style="fill:none;stroke:#000000;stroke-linecap:square;stroke-linejoin:miter;stroke-width:0.8;"/>
   </g>
   <g id="patch_4">
    <path d="M 1036.8 504 
L 1036.8 69.12 
" style="fill:none;stroke:#000000;stroke-linecap:square;stroke-linejoin:miter;stroke-width:0.8;"/>
   </g>
   <g id="patch_5">
    <path d="M 144 504 
L 1036.8 504 
" style="fill:none;stroke:#000000;stroke-linecap:square;stroke-linejoin:miter;stroke-width:0.8;"/>
   </g>
   <g id="patch_6">
    <path d="M 144 69.12 
L 1036.8 69.12 
" style="fill:none;stroke:#000000;stroke-linecap:square;stroke-linejoin:miter;stroke-width:0.8;"/>
   </g>
   <g id="text_17">
    <!-- Ungated: Energy vs. Accuracy with 100 Units @ 0.4 -->
    <g transform="translate(125.834063 61.633125)scale(0.36 -0.36)">
     <defs>
      <path d="M 18.3125 70.21875 
L 18.3125 54.6875 
L 36.8125 54.6875 
L 36.8125 47.703125 
L 18.3125 47.703125 
L 18.3125 18.015625 
Q 18.3125 11.328125 20.140625 9.421875 
Q 21.96875 7.515625 27.59375 7.515625 
L 36.8125 7.515625 
L 36.8125 0 
L 27.59375 0 
Q 17.1875 0 13.234375 3.875 
Q 9.28125 7.765625 9.28125 18.015625 
L 9.28125 47.703125 
L 2.6875 47.703125 
L 2.6875 54.6875 
L 9.28125 54.6875 
L 9.28125 70.21875 
z
" id="DejaVuSans-116"/>
      <path d="M 45.40625 46.390625 
L 45.40625 75.984375 
L 54.390625 75.984375 
L 54.390625 0 
L 45.40625 0 
L 45.40625 8.203125 
Q 42.578125 3.328125 38.25 0.953125 
Q 33.9375 -1.421875 27.875 -1.421875 
Q 17.96875 -1.421875 11.734375 6.484375 
Q 5.515625 14.40625 5.515625 27.296875 
Q 5.515625 40.1875 11.734375 48.09375 
Q 17.96875 56 27.875 56 
Q 33.9375 56 38.25 53.625 
Q 42.578125 51.265625 45.40625 46.390625 
z
M 14.796875 27.296875 
Q 14.796875 17.390625 18.875 11.75 
Q 22.953125 6.109375 30.078125 6.109375 
Q 37.203125 6.109375 41.296875 11.75 
Q 45.40625 17.390625 45.40625 27.296875 
Q 45.40625 37.203125 41.296875 42.84375 
Q 37.203125 48.484375 30.078125 48.484375 
Q 22.953125 48.484375 18.875 42.84375 
Q 14.796875 37.203125 14.796875 27.296875 
z
" id="DejaVuSans-100"/>
      <path d="M 11.71875 12.40625 
L 22.015625 12.40625 
L 22.015625 0 
L 11.71875 0 
z
M 11.71875 51.703125 
L 22.015625 51.703125 
L 22.015625 39.3125 
L 11.71875 39.3125 
z
" id="DejaVuSans-58"/>
      <path d="M 2.984375 54.6875 
L 12.5 54.6875 
L 29.59375 8.796875 
L 46.6875 54.6875 
L 56.203125 54.6875 
L 35.6875 0 
L 23.484375 0 
z
" id="DejaVuSans-118"/>
      <path d="M 44.28125 53.078125 
L 44.28125 44.578125 
Q 40.484375 46.53125 36.375 47.5 
Q 32.28125 48.484375 27.875 48.484375 
Q 21.1875 48.484375 17.84375 46.4375 
Q 14.5 44.390625 14.5 40.28125 
Q 14.5 37.15625 16.890625 35.375 
Q 19.28125 33.59375 26.515625 31.984375 
L 29.59375 31.296875 
Q 39.15625 29.25 43.1875 25.515625 
Q 47.21875 21.78125 47.21875 15.09375 
Q 47.21875 7.46875 41.1875 3.015625 
Q 35.15625 -1.421875 24.609375 -1.421875 
Q 20.21875 -1.421875 15.453125 -0.5625 
Q 10.6875 0.296875 5.421875 2 
L 5.421875 11.28125 
Q 10.40625 8.6875 15.234375 7.390625 
Q 20.0625 6.109375 24.8125 6.109375 
Q 31.15625 6.109375 34.5625 8.28125 
Q 37.984375 10.453125 37.984375 14.40625 
Q 37.984375 18.0625 35.515625 20.015625 
Q 33.0625 21.96875 24.703125 23.78125 
L 21.578125 24.515625 
Q 13.234375 26.265625 9.515625 29.90625 
Q 5.8125 33.546875 5.8125 39.890625 
Q 5.8125 47.609375 11.28125 51.796875 
Q 16.75 56 26.8125 56 
Q 31.78125 56 36.171875 55.265625 
Q 40.578125 54.546875 44.28125 53.078125 
z
" id="DejaVuSans-115"/>
      <path d="M 4.203125 54.6875 
L 13.1875 54.6875 
L 24.421875 12.015625 
L 35.59375 54.6875 
L 46.1875 54.6875 
L 57.421875 12.015625 
L 68.609375 54.6875 
L 77.59375 54.6875 
L 63.28125 0 
L 52.6875 0 
L 40.921875 44.828125 
L 29.109375 0 
L 18.5 0 
z
" id="DejaVuSans-119"/>
      <path d="M 9.421875 54.6875 
L 18.40625 54.6875 
L 18.40625 0 
L 9.421875 0 
z
M 9.421875 75.984375 
L 18.40625 75.984375 
L 18.40625 64.59375 
L 9.421875 64.59375 
z
" id="DejaVuSans-105"/>
      <path d="M 54.890625 33.015625 
L 54.890625 0 
L 45.90625 0 
L 45.90625 32.71875 
Q 45.90625 40.484375 42.875 44.328125 
Q 39.84375 48.1875 33.796875 48.1875 
Q 26.515625 48.1875 22.3125 43.546875 
Q 18.109375 38.921875 18.109375 30.90625 
L 18.109375 0 
L 9.078125 0 
L 9.078125 75.984375 
L 18.109375 75.984375 
L 18.109375 46.1875 
Q 21.34375 51.125 25.703125 53.5625 
Q 30.078125 56 35.796875 56 
Q 45.21875 56 50.046875 50.171875 
Q 54.890625 44.34375 54.890625 33.015625 
z
" id="DejaVuSans-104"/>
      <path d="M 37.203125 26.21875 
Q 37.203125 19.234375 40.671875 15.25 
Q 44.140625 11.28125 50.203125 11.28125 
Q 56.203125 11.28125 59.640625 15.28125 
Q 63.09375 19.28125 63.09375 26.21875 
Q 63.09375 33.0625 59.578125 37.078125 
Q 56.0625 41.109375 50.09375 41.109375 
Q 44.1875 41.109375 40.6875 37.109375 
Q 37.203125 33.109375 37.203125 26.21875 
z
M 63.8125 11.625 
Q 60.890625 7.859375 57.109375 6.078125 
Q 53.328125 4.296875 48.296875 4.296875 
Q 39.890625 4.296875 34.640625 10.375 
Q 29.390625 16.453125 29.390625 26.21875 
Q 29.390625 35.984375 34.65625 42.078125 
Q 39.9375 48.1875 48.296875 48.1875 
Q 53.328125 48.1875 57.125 46.359375 
Q 60.9375 44.53125 63.8125 40.828125 
L 63.8125 47.21875 
L 70.796875 47.21875 
L 70.796875 11.28125 
Q 77.9375 12.359375 81.953125 17.796875 
Q 85.984375 23.25 85.984375 31.890625 
Q 85.984375 37.109375 84.4375 41.703125 
Q 82.90625 46.296875 79.78125 50.203125 
Q 74.703125 56.59375 67.40625 59.984375 
Q 60.109375 63.375 51.515625 63.375 
Q 45.515625 63.375 39.984375 61.78125 
Q 34.46875 60.203125 29.78125 57.078125 
Q 22.125 52.09375 17.796875 44.015625 
Q 13.484375 35.9375 13.484375 26.515625 
Q 13.484375 18.75 16.28125 11.953125 
Q 19.09375 5.171875 24.421875 0 
Q 29.546875 -5.078125 36.28125 -7.734375 
Q 43.015625 -10.40625 50.6875 -10.40625 
Q 56.984375 -10.40625 63.0625 -8.28125 
Q 69.140625 -6.15625 74.21875 -2.203125 
L 78.609375 -7.625 
Q 72.515625 -12.359375 65.3125 -14.875 
Q 58.109375 -17.390625 50.6875 -17.390625 
Q 41.65625 -17.390625 33.640625 -14.1875 
Q 25.640625 -10.984375 19.390625 -4.890625 
Q 13.140625 1.21875 9.859375 9.25 
Q 6.59375 17.28125 6.59375 26.515625 
Q 6.59375 35.40625 9.90625 43.453125 
Q 13.234375 51.515625 19.390625 57.625 
Q 25.6875 63.8125 33.9375 67.109375 
Q 42.1875 70.40625 51.421875 70.40625 
Q 61.765625 70.40625 70.625 66.15625 
Q 79.5 61.921875 85.5 54.109375 
Q 89.15625 49.3125 91.078125 43.703125 
Q 93.015625 38.09375 93.015625 32.078125 
Q 93.015625 19.234375 85.25 11.8125 
Q 77.484375 4.390625 63.8125 4.109375 
z
" id="DejaVuSans-64"/>
     </defs>
     <use xlink:href="#DejaVuSans-85"/>
     <use x="73.193359" xlink:href="#DejaVuSans-110"/>
     <use x="136.572266" xlink:href="#DejaVuSans-103"/>
     <use x="200.048828" xlink:href="#DejaVuSans-97"/>
     <use x="261.328125" xlink:href="#DejaVuSans-116"/>
     <use x="300.537109" xlink:href="#DejaVuSans-101"/>
     <use x="362.060547" xlink:href="#DejaVuSans-100"/>
     <use x="425.537109" xlink:href="#DejaVuSans-58"/>
     <use x="459.228516" xlink:href="#DejaVuSans-32"/>
     <use x="491.015625" xlink:href="#DejaVuSans-69"/>
     <use x="554.199219" xlink:href="#DejaVuSans-110"/>
     <use x="617.578125" xlink:href="#DejaVuSans-101"/>
     <use x="679.101562" xlink:href="#DejaVuSans-114"/>
     <use x="718.464844" xlink:href="#DejaVuSans-103"/>
     <use x="781.941406" xlink:href="#DejaVuSans-121"/>
     <use x="841.121094" xlink:href="#DejaVuSans-32"/>
     <use x="872.908203" xlink:href="#DejaVuSans-118"/>
     <use x="932.087891" xlink:href="#DejaVuSans-115"/>
     <use x="984.1875" xlink:href="#DejaVuSans-46"/>
     <use x="1015.974609" xlink:href="#DejaVuSans-32"/>
     <use x="1047.761719" xlink:href="#DejaVuSans-65"/>
     <use x="1114.419922" xlink:href="#DejaVuSans-99"/>
     <use x="1169.400391" xlink:href="#DejaVuSans-99"/>
     <use x="1224.380859" xlink:href="#DejaVuSans-117"/>
     <use x="1287.759766" xlink:href="#DejaVuSans-114"/>
     <use x="1328.873047" xlink:href="#DejaVuSans-97"/>
     <use x="1390.152344" xlink:href="#DejaVuSans-99"/>
     <use x="1445.132812" xlink:href="#DejaVuSans-121"/>
     <use x="1504.3125" xlink:href="#DejaVuSans-32"/>
     <use x="1536.099609" xlink:href="#DejaVuSans-119"/>
     <use x="1617.886719" xlink:href="#DejaVuSans-105"/>
     <use x="1645.669922" xlink:href="#DejaVuSans-116"/>
     <use x="1684.878906" xlink:href="#DejaVuSans-104"/>
     <use x="1748.257812" xlink:href="#DejaVuSans-32"/>
     <use x="1780.044922" xlink:href="#DejaVuSans-49"/>
     <use x="1843.667969" xlink:href="#DejaVuSans-48"/>
     <use x="1907.291016" xlink:href="#DejaVuSans-48"/>
     <use x="1970.914062" xlink:href="#DejaVuSans-32"/>
     <use x="2002.701172" xlink:href="#DejaVuSans-85"/>
     <use x="2075.894531" xlink:href="#DejaVuSans-110"/>
     <use x="2139.273438" xlink:href="#DejaVuSans-105"/>
     <use x="2167.056641" xlink:href="#DejaVuSans-116"/>
     <use x="2206.265625" xlink:href="#DejaVuSans-115"/>
     <use x="2258.365234" xlink:href="#DejaVuSans-32"/>
     <use x="2290.152344" xlink:href="#DejaVuSans-64"/>
     <use x="2390.152344" xlink:href="#DejaVuSans-32"/>
     <use x="2421.939453" xlink:href="#DejaVuSans-48"/>
     <use x="2485.5625" xlink:href="#DejaVuSans-46"/>
     <use x="2517.349609" xlink:href="#DejaVuSans-52"/>
    </g>
   </g>
   <g id="legend_1">
    <g id="patch_7">
     <path d="M 799.660625 493 
L 1021.4 493 
Q 1025.8 493 1025.8 488.6 
L 1025.8 361.6325 
Q 1025.8 357.2325 1021.4 357.2325 
L 799.660625 357.2325 
Q 795.260625 357.2325 795.260625 361.6325 
L 795.260625 488.6 
Q 795.260625 493 799.660625 493 
z
" style="fill:#ffffff;opacity:0.8;stroke:#cccccc;stroke-linejoin:miter;"/>
    </g>
    <g id="line2d_60">
     <path d="M 804.060625 375.049062 
L 848.060625 375.049062 
" style="fill:none;stroke:#1f1f1f;stroke-linecap:square;stroke-width:5;"/>
    </g>
    <g id="line2d_61"/>
    <g id="text_18">
     <!-- Ungated: 1.0 -->
     <g transform="translate(865.660625 382.749062)scale(0.22 -0.22)">
      <use xlink:href="#DejaVuSans-85"/>
      <use x="73.193359" xlink:href="#DejaVuSans-110"/>
      <use x="136.572266" xlink:href="#DejaVuSans-103"/>
      <use x="200.048828" xlink:href="#DejaVuSans-97"/>
      <use x="261.328125" xlink:href="#DejaVuSans-116"/>
      <use x="300.537109" xlink:href="#DejaVuSans-101"/>
      <use x="362.060547" xlink:href="#DejaVuSans-100"/>
      <use x="425.537109" xlink:href="#DejaVuSans-58"/>
      <use x="459.228516" xlink:href="#DejaVuSans-32"/>
      <use x="491.015625" xlink:href="#DejaVuSans-49"/>
      <use x="554.638672" xlink:href="#DejaVuSans-46"/>
      <use x="586.425781" xlink:href="#DejaVuSans-48"/>
     </g>
    </g>
    <g id="line2d_62">
     <path d="M 804.060625 407.340937 
L 848.060625 407.340937 
" style="fill:none;stroke:#9e9e9e;stroke-linecap:square;stroke-width:5;"/>
    </g>
    <g id="line2d_63"/>
    <g id="text_19">
     <!-- Minimum: 1.0 -->
     <g transform="translate(865.660625 415.040937)scale(0.22 -0.22)">
      <defs>
       <path d="M 9.8125 72.90625 
L 24.515625 72.90625 
L 43.109375 23.296875 
L 61.8125 72.90625 
L 76.515625 72.90625 
L 76.515625 0 
L 66.890625 0 
L 66.890625 64.015625 
L 48.09375 14.015625 
L 38.1875 14.015625 
L 19.390625 64.015625 
L 19.390625 0 
L 9.8125 0 
z
" id="DejaVuSans-77"/>
       <path d="M 52 44.1875 
Q 55.375 50.25 60.0625 53.125 
Q 64.75 56 71.09375 56 
Q 79.640625 56 84.28125 50.015625 
Q 88.921875 44.046875 88.921875 33.015625 
L 88.921875 0 
L 79.890625 0 
L 79.890625 32.71875 
Q 79.890625 40.578125 77.09375 44.375 
Q 74.3125 48.1875 68.609375 48.1875 
Q 61.625 48.1875 57.5625 43.546875 
Q 53.515625 38.921875 53.515625 30.90625 
L 53.515625 0 
L 44.484375 0 
L 44.484375 32.71875 
Q 44.484375 40.625 41.703125 44.40625 
Q 38.921875 48.1875 33.109375 48.1875 
Q 26.21875 48.1875 22.15625 43.53125 
Q 18.109375 38.875 18.109375 30.90625 
L 18.109375 0 
L 9.078125 0 
L 9.078125 54.6875 
L 18.109375 54.6875 
L 18.109375 46.1875 
Q 21.1875 51.21875 25.484375 53.609375 
Q 29.78125 56 35.6875 56 
Q 41.65625 56 45.828125 52.96875 
Q 50 49.953125 52 44.1875 
z
" id="DejaVuSans-109"/>
      </defs>
      <use xlink:href="#DejaVuSans-77"/>
      <use x="86.279297" xlink:href="#DejaVuSans-105"/>
      <use x="114.0625" xlink:href="#DejaVuSans-110"/>
      <use x="177.441406" xlink:href="#DejaVuSans-105"/>
      <use x="205.224609" xlink:href="#DejaVuSans-109"/>
      <use x="302.636719" xlink:href="#DejaVuSans-117"/>
      <use x="366.015625" xlink:href="#DejaVuSans-109"/>
      <use x="463.427734" xlink:href="#DejaVuSans-58"/>
      <use x="497.119141" xlink:href="#DejaVuSans-32"/>
      <use x="528.90625" xlink:href="#DejaVuSans-49"/>
      <use x="592.529297" xlink:href="#DejaVuSans-46"/>
      <use x="624.316406" xlink:href="#DejaVuSans-48"/>
     </g>
    </g>
    <g id="line2d_64">
     <path d="M 804.060625 439.632812 
L 848.060625 439.632812 
" style="fill:none;stroke:#ff15ff;stroke-linecap:square;stroke-width:5;"/>
    </g>
    <g id="line2d_65"/>
    <g id="text_20">
     <!-- Ungated: 0.4 -->
     <g transform="translate(865.660625 447.332812)scale(0.22 -0.22)">
      <use xlink:href="#DejaVuSans-85"/>
      <use x="73.193359" xlink:href="#DejaVuSans-110"/>
      <use x="136.572266" xlink:href="#DejaVuSans-103"/>
      <use x="200.048828" xlink:href="#DejaVuSans-97"/>
      <use x="261.328125" xlink:href="#DejaVuSans-116"/>
      <use x="300.537109" xlink:href="#DejaVuSans-101"/>
      <use x="362.060547" xlink:href="#DejaVuSans-100"/>
      <use x="425.537109" xlink:href="#DejaVuSans-58"/>
      <use x="459.228516" xlink:href="#DejaVuSans-32"/>
      <use x="491.015625" xlink:href="#DejaVuSans-48"/>
      <use x="554.638672" xlink:href="#DejaVuSans-46"/>
      <use x="586.425781" xlink:href="#DejaVuSans-52"/>
     </g>
    </g>
    <g id="line2d_66">
     <path d="M 804.060625 471.924688 
L 848.060625 471.924688 
" style="fill:none;stroke:#ffa0f0;stroke-linecap:square;stroke-width:5;"/>
    </g>
    <g id="line2d_67"/>
    <g id="text_21">
     <!-- Minimum: 0.4 -->
     <g transform="translate(865.660625 479.624687)scale(0.22 -0.22)">
      <use xlink:href="#DejaVuSans-77"/>
      <use x="86.279297" xlink:href="#DejaVuSans-105"/>
      <use x="114.0625" xlink:href="#DejaVuSans-110"/>
      <use x="177.441406" xlink:href="#DejaVuSans-105"/>
      <use x="205.224609" xlink:href="#DejaVuSans-109"/>
      <use x="302.636719" xlink:href="#DejaVuSans-117"/>
      <use x="366.015625" xlink:href="#DejaVuSans-109"/>
      <use x="463.427734" xlink:href="#DejaVuSans-58"/>
      <use x="497.119141" xlink:href="#DejaVuSans-32"/>
      <use x="528.90625" xlink:href="#DejaVuSans-48"/>
      <use x="592.529297" xlink:href="#DejaVuSans-46"/>
      <use x="624.316406" xlink:href="#DejaVuSans-52"/>
     </g>
    </g>
   </g>
  </g>
 </g>
 <defs>
  <clipPath id="peaacd9a48b">
   <rect height="434.88" width="892.8" x="144" y="69.12"/>
  </clipPath>
 </defs>
</svg>
