<?xml version="1.0" encoding="utf-8" standalone="no"?>
<!DOCTYPE svg PUBLIC "-//W3C//DTD SVG 1.1//EN"
  "http://www.w3.org/Graphics/SVG/1.1/DTD/svg11.dtd">
<!-- Created with matplotlib (https://matplotlib.org/) -->
<svg height="576pt" version="1.1" viewBox="0 0 1152 576" width="1152pt" xmlns="http://www.w3.org/2000/svg" xmlns:xlink="http://www.w3.org/1999/xlink">
 <metadata>
  <rdf:RDF xmlns:cc="http://creativecommons.org/ns#" xmlns:dc="http://purl.org/dc/elements/1.1/" xmlns:rdf="http://www.w3.org/1999/02/22-rdf-syntax-ns#">
   <cc:Work>
    <dc:type rdf:resource="http://purl.org/dc/dcmitype/StillImage"/>
    <dc:date>2021-09-12T21:32:02.585267</dc:date>
    <dc:format>image/svg+xml</dc:format>
    <dc:creator>
     <cc:Agent>
      <dc:title>Matplotlib v3.3.4, https://matplotlib.org/</dc:title>
     </cc:Agent>
    </dc:creator>
   </cc:Work>
  </rdf:RDF>
 </metadata>
 <defs>
  <style type="text/css">*{stroke-linecap:butt;stroke-linejoin:round;}</style>
 </defs>
 <g id="figure_1">
  <g id="patch_1">
   <path d="M 0 576 
L 1152 576 
L 1152 0 
L 0 0 
z
" style="fill:#ffffff;"/>
  </g>
  <g id="axes_1">
   <g id="patch_2">
    <path d="M 144 504 
L 1036.8 504 
L 1036.8 69.12 
L 144 69.12 
z
" style="fill:#ffffff;"/>
   </g>
   <g id="matplotlib.axis_1">
    <g id="xtick_1">
     <g id="line2d_1">
      <defs>
       <path d="M 0 0 
L 0 3.5 
" id="m8699e6b2f8" style="stroke:#000000;stroke-width:0.8;"/>
      </defs>
      <g>
       <use style="stroke:#000000;stroke-width:0.8;" x="144" xlink:href="#m8699e6b2f8" y="504"/>
      </g>
     </g>
     <g id="text_1">
      <!-- 84 -->
      <g transform="translate(128.73 529.23625)scale(0.24 -0.24)">
       <defs>
        <path d="M 31.78125 34.625 
Q 24.75 34.625 20.71875 30.859375 
Q 16.703125 27.09375 16.703125 20.515625 
Q 16.703125 13.921875 20.71875 10.15625 
Q 24.75 6.390625 31.78125 6.390625 
Q 38.8125 6.390625 42.859375 10.171875 
Q 46.921875 13.96875 46.921875 20.515625 
Q 46.921875 27.09375 42.890625 30.859375 
Q 38.875 34.625 31.78125 34.625 
z
M 21.921875 38.8125 
Q 15.578125 40.375 12.03125 44.71875 
Q 8.5 49.078125 8.5 55.328125 
Q 8.5 64.0625 14.71875 69.140625 
Q 20.953125 74.21875 31.78125 74.21875 
Q 42.671875 74.21875 48.875 69.140625 
Q 55.078125 64.0625 55.078125 55.328125 
Q 55.078125 49.078125 51.53125 44.71875 
Q 48 40.375 41.703125 38.8125 
Q 48.828125 37.15625 52.796875 32.3125 
Q 56.78125 27.484375 56.78125 20.515625 
Q 56.78125 9.90625 50.3125 4.234375 
Q 43.84375 -1.421875 31.78125 -1.421875 
Q 19.734375 -1.421875 13.25 4.234375 
Q 6.78125 9.90625 6.78125 20.515625 
Q 6.78125 27.484375 10.78125 32.3125 
Q 14.796875 37.15625 21.921875 38.8125 
z
M 18.3125 54.390625 
Q 18.3125 48.734375 21.84375 45.5625 
Q 25.390625 42.390625 31.78125 42.390625 
Q 38.140625 42.390625 41.71875 45.5625 
Q 45.3125 48.734375 45.3125 54.390625 
Q 45.3125 60.0625 41.71875 63.234375 
Q 38.140625 66.40625 31.78125 66.40625 
Q 25.390625 66.40625 21.84375 63.234375 
Q 18.3125 60.0625 18.3125 54.390625 
z
" id="DejaVuSans-56"/>
        <path d="M 37.796875 64.3125 
L 12.890625 25.390625 
L 37.796875 25.390625 
z
M 35.203125 72.90625 
L 47.609375 72.90625 
L 47.609375 25.390625 
L 58.015625 25.390625 
L 58.015625 17.1875 
L 47.609375 17.1875 
L 47.609375 0 
L 37.796875 0 
L 37.796875 17.1875 
L 4.890625 17.1875 
L 4.890625 26.703125 
z
" id="DejaVuSans-52"/>
       </defs>
       <use xlink:href="#DejaVuSans-56"/>
       <use x="63.623047" xlink:href="#DejaVuSans-52"/>
      </g>
     </g>
    </g>
    <g id="xtick_2">
     <g id="line2d_2">
      <g>
       <use style="stroke:#000000;stroke-width:0.8;" x="255.6" xlink:href="#m8699e6b2f8" y="504"/>
      </g>
     </g>
     <g id="text_2">
      <!-- 86 -->
      <g transform="translate(240.33 529.23625)scale(0.24 -0.24)">
       <defs>
        <path d="M 33.015625 40.375 
Q 26.375 40.375 22.484375 35.828125 
Q 18.609375 31.296875 18.609375 23.390625 
Q 18.609375 15.53125 22.484375 10.953125 
Q 26.375 6.390625 33.015625 6.390625 
Q 39.65625 6.390625 43.53125 10.953125 
Q 47.40625 15.53125 47.40625 23.390625 
Q 47.40625 31.296875 43.53125 35.828125 
Q 39.65625 40.375 33.015625 40.375 
z
M 52.59375 71.296875 
L 52.59375 62.3125 
Q 48.875 64.0625 45.09375 64.984375 
Q 41.3125 65.921875 37.59375 65.921875 
Q 27.828125 65.921875 22.671875 59.328125 
Q 17.53125 52.734375 16.796875 39.40625 
Q 19.671875 43.65625 24.015625 45.921875 
Q 28.375 48.1875 33.59375 48.1875 
Q 44.578125 48.1875 50.953125 41.515625 
Q 57.328125 34.859375 57.328125 23.390625 
Q 57.328125 12.15625 50.6875 5.359375 
Q 44.046875 -1.421875 33.015625 -1.421875 
Q 20.359375 -1.421875 13.671875 8.265625 
Q 6.984375 17.96875 6.984375 36.375 
Q 6.984375 53.65625 15.1875 63.9375 
Q 23.390625 74.21875 37.203125 74.21875 
Q 40.921875 74.21875 44.703125 73.484375 
Q 48.484375 72.75 52.59375 71.296875 
z
" id="DejaVuSans-54"/>
       </defs>
       <use xlink:href="#DejaVuSans-56"/>
       <use x="63.623047" xlink:href="#DejaVuSans-54"/>
      </g>
     </g>
    </g>
    <g id="xtick_3">
     <g id="line2d_3">
      <g>
       <use style="stroke:#000000;stroke-width:0.8;" x="367.2" xlink:href="#m8699e6b2f8" y="504"/>
      </g>
     </g>
     <g id="text_3">
      <!-- 88 -->
      <g transform="translate(351.93 529.23625)scale(0.24 -0.24)">
       <use xlink:href="#DejaVuSans-56"/>
       <use x="63.623047" xlink:href="#DejaVuSans-56"/>
      </g>
     </g>
    </g>
    <g id="xtick_4">
     <g id="line2d_4">
      <g>
       <use style="stroke:#000000;stroke-width:0.8;" x="478.8" xlink:href="#m8699e6b2f8" y="504"/>
      </g>
     </g>
     <g id="text_4">
      <!-- 90 -->
      <g transform="translate(463.53 529.23625)scale(0.24 -0.24)">
       <defs>
        <path d="M 10.984375 1.515625 
L 10.984375 10.5 
Q 14.703125 8.734375 18.5 7.8125 
Q 22.3125 6.890625 25.984375 6.890625 
Q 35.75 6.890625 40.890625 13.453125 
Q 46.046875 20.015625 46.78125 33.40625 
Q 43.953125 29.203125 39.59375 26.953125 
Q 35.25 24.703125 29.984375 24.703125 
Q 19.046875 24.703125 12.671875 31.3125 
Q 6.296875 37.9375 6.296875 49.421875 
Q 6.296875 60.640625 12.9375 67.421875 
Q 19.578125 74.21875 30.609375 74.21875 
Q 43.265625 74.21875 49.921875 64.515625 
Q 56.59375 54.828125 56.59375 36.375 
Q 56.59375 19.140625 48.40625 8.859375 
Q 40.234375 -1.421875 26.421875 -1.421875 
Q 22.703125 -1.421875 18.890625 -0.6875 
Q 15.09375 0.046875 10.984375 1.515625 
z
M 30.609375 32.421875 
Q 37.25 32.421875 41.125 36.953125 
Q 45.015625 41.5 45.015625 49.421875 
Q 45.015625 57.28125 41.125 61.84375 
Q 37.25 66.40625 30.609375 66.40625 
Q 23.96875 66.40625 20.09375 61.84375 
Q 16.21875 57.28125 16.21875 49.421875 
Q 16.21875 41.5 20.09375 36.953125 
Q 23.96875 32.421875 30.609375 32.421875 
z
" id="DejaVuSans-57"/>
        <path d="M 31.78125 66.40625 
Q 24.171875 66.40625 20.328125 58.90625 
Q 16.5 51.421875 16.5 36.375 
Q 16.5 21.390625 20.328125 13.890625 
Q 24.171875 6.390625 31.78125 6.390625 
Q 39.453125 6.390625 43.28125 13.890625 
Q 47.125 21.390625 47.125 36.375 
Q 47.125 51.421875 43.28125 58.90625 
Q 39.453125 66.40625 31.78125 66.40625 
z
M 31.78125 74.21875 
Q 44.046875 74.21875 50.515625 64.515625 
Q 56.984375 54.828125 56.984375 36.375 
Q 56.984375 17.96875 50.515625 8.265625 
Q 44.046875 -1.421875 31.78125 -1.421875 
Q 19.53125 -1.421875 13.0625 8.265625 
Q 6.59375 17.96875 6.59375 36.375 
Q 6.59375 54.828125 13.0625 64.515625 
Q 19.53125 74.21875 31.78125 74.21875 
z
" id="DejaVuSans-48"/>
       </defs>
       <use xlink:href="#DejaVuSans-57"/>
       <use x="63.623047" xlink:href="#DejaVuSans-48"/>
      </g>
     </g>
    </g>
    <g id="xtick_5">
     <g id="line2d_5">
      <g>
       <use style="stroke:#000000;stroke-width:0.8;" x="590.4" xlink:href="#m8699e6b2f8" y="504"/>
      </g>
     </g>
     <g id="text_5">
      <!-- 92 -->
      <g transform="translate(575.13 529.23625)scale(0.24 -0.24)">
       <defs>
        <path d="M 19.1875 8.296875 
L 53.609375 8.296875 
L 53.609375 0 
L 7.328125 0 
L 7.328125 8.296875 
Q 12.9375 14.109375 22.625 23.890625 
Q 32.328125 33.6875 34.8125 36.53125 
Q 39.546875 41.84375 41.421875 45.53125 
Q 43.3125 49.21875 43.3125 52.78125 
Q 43.3125 58.59375 39.234375 62.25 
Q 35.15625 65.921875 28.609375 65.921875 
Q 23.96875 65.921875 18.8125 64.3125 
Q 13.671875 62.703125 7.8125 59.421875 
L 7.8125 69.390625 
Q 13.765625 71.78125 18.9375 73 
Q 24.125 74.21875 28.421875 74.21875 
Q 39.75 74.21875 46.484375 68.546875 
Q 53.21875 62.890625 53.21875 53.421875 
Q 53.21875 48.921875 51.53125 44.890625 
Q 49.859375 40.875 45.40625 35.40625 
Q 44.1875 33.984375 37.640625 27.21875 
Q 31.109375 20.453125 19.1875 8.296875 
z
" id="DejaVuSans-50"/>
       </defs>
       <use xlink:href="#DejaVuSans-57"/>
       <use x="63.623047" xlink:href="#DejaVuSans-50"/>
      </g>
     </g>
    </g>
    <g id="xtick_6">
     <g id="line2d_6">
      <g>
       <use style="stroke:#000000;stroke-width:0.8;" x="702" xlink:href="#m8699e6b2f8" y="504"/>
      </g>
     </g>
     <g id="text_6">
      <!-- 94 -->
      <g transform="translate(686.73 529.23625)scale(0.24 -0.24)">
       <use xlink:href="#DejaVuSans-57"/>
       <use x="63.623047" xlink:href="#DejaVuSans-52"/>
      </g>
     </g>
    </g>
    <g id="xtick_7">
     <g id="line2d_7">
      <g>
       <use style="stroke:#000000;stroke-width:0.8;" x="813.6" xlink:href="#m8699e6b2f8" y="504"/>
      </g>
     </g>
     <g id="text_7">
      <!-- 96 -->
      <g transform="translate(798.33 529.23625)scale(0.24 -0.24)">
       <use xlink:href="#DejaVuSans-57"/>
       <use x="63.623047" xlink:href="#DejaVuSans-54"/>
      </g>
     </g>
    </g>
    <g id="xtick_8">
     <g id="line2d_8">
      <g>
       <use style="stroke:#000000;stroke-width:0.8;" x="925.2" xlink:href="#m8699e6b2f8" y="504"/>
      </g>
     </g>
     <g id="text_8">
      <!-- 98 -->
      <g transform="translate(909.93 529.23625)scale(0.24 -0.24)">
       <use xlink:href="#DejaVuSans-57"/>
       <use x="63.623047" xlink:href="#DejaVuSans-56"/>
      </g>
     </g>
    </g>
    <g id="xtick_9">
     <g id="line2d_9">
      <g>
       <use style="stroke:#000000;stroke-width:0.8;" x="1036.8" xlink:href="#m8699e6b2f8" y="504"/>
      </g>
     </g>
     <g id="text_9">
      <!-- 100 -->
      <g transform="translate(1013.895 529.23625)scale(0.24 -0.24)">
       <defs>
        <path d="M 12.40625 8.296875 
L 28.515625 8.296875 
L 28.515625 63.921875 
L 10.984375 60.40625 
L 10.984375 69.390625 
L 28.421875 72.90625 
L 38.28125 72.90625 
L 38.28125 8.296875 
L 54.390625 8.296875 
L 54.390625 0 
L 12.40625 0 
z
" id="DejaVuSans-49"/>
       </defs>
       <use xlink:href="#DejaVuSans-49"/>
       <use x="63.623047" xlink:href="#DejaVuSans-48"/>
       <use x="127.246094" xlink:href="#DejaVuSans-48"/>
      </g>
     </g>
    </g>
    <g id="text_10">
     <!-- Accuracy /% -->
     <g transform="translate(504.013437 559.503125)scale(0.28 -0.28)">
      <defs>
       <path d="M 34.1875 63.1875 
L 20.796875 26.90625 
L 47.609375 26.90625 
z
M 28.609375 72.90625 
L 39.796875 72.90625 
L 67.578125 0 
L 57.328125 0 
L 50.6875 18.703125 
L 17.828125 18.703125 
L 11.1875 0 
L 0.78125 0 
z
" id="DejaVuSans-65"/>
       <path d="M 48.78125 52.59375 
L 48.78125 44.1875 
Q 44.96875 46.296875 41.140625 47.34375 
Q 37.3125 48.390625 33.40625 48.390625 
Q 24.65625 48.390625 19.8125 42.84375 
Q 14.984375 37.3125 14.984375 27.296875 
Q 14.984375 17.28125 19.8125 11.734375 
Q 24.65625 6.203125 33.40625 6.203125 
Q 37.3125 6.203125 41.140625 7.25 
Q 44.96875 8.296875 48.78125 10.40625 
L 48.78125 2.09375 
Q 45.015625 0.34375 40.984375 -0.53125 
Q 36.96875 -1.421875 32.421875 -1.421875 
Q 20.0625 -1.421875 12.78125 6.34375 
Q 5.515625 14.109375 5.515625 27.296875 
Q 5.515625 40.671875 12.859375 48.328125 
Q 20.21875 56 33.015625 56 
Q 37.15625 56 41.109375 55.140625 
Q 45.0625 54.296875 48.78125 52.59375 
z
" id="DejaVuSans-99"/>
       <path d="M 8.5 21.578125 
L 8.5 54.6875 
L 17.484375 54.6875 
L 17.484375 21.921875 
Q 17.484375 14.15625 20.5 10.265625 
Q 23.53125 6.390625 29.59375 6.390625 
Q 36.859375 6.390625 41.078125 11.03125 
Q 45.3125 15.671875 45.3125 23.6875 
L 45.3125 54.6875 
L 54.296875 54.6875 
L 54.296875 0 
L 45.3125 0 
L 45.3125 8.40625 
Q 42.046875 3.421875 37.71875 1 
Q 33.40625 -1.421875 27.6875 -1.421875 
Q 18.265625 -1.421875 13.375 4.4375 
Q 8.5 10.296875 8.5 21.578125 
z
M 31.109375 56 
z
" id="DejaVuSans-117"/>
       <path d="M 41.109375 46.296875 
Q 39.59375 47.171875 37.8125 47.578125 
Q 36.03125 48 33.890625 48 
Q 26.265625 48 22.1875 43.046875 
Q 18.109375 38.09375 18.109375 28.8125 
L 18.109375 0 
L 9.078125 0 
L 9.078125 54.6875 
L 18.109375 54.6875 
L 18.109375 46.1875 
Q 20.953125 51.171875 25.484375 53.578125 
Q 30.03125 56 36.53125 56 
Q 37.453125 56 38.578125 55.875 
Q 39.703125 55.765625 41.0625 55.515625 
z
" id="DejaVuSans-114"/>
       <path d="M 34.28125 27.484375 
Q 23.390625 27.484375 19.1875 25 
Q 14.984375 22.515625 14.984375 16.5 
Q 14.984375 11.71875 18.140625 8.90625 
Q 21.296875 6.109375 26.703125 6.109375 
Q 34.1875 6.109375 38.703125 11.40625 
Q 43.21875 16.703125 43.21875 25.484375 
L 43.21875 27.484375 
z
M 52.203125 31.203125 
L 52.203125 0 
L 43.21875 0 
L 43.21875 8.296875 
Q 40.140625 3.328125 35.546875 0.953125 
Q 30.953125 -1.421875 24.3125 -1.421875 
Q 15.921875 -1.421875 10.953125 3.296875 
Q 6 8.015625 6 15.921875 
Q 6 25.140625 12.171875 29.828125 
Q 18.359375 34.515625 30.609375 34.515625 
L 43.21875 34.515625 
L 43.21875 35.40625 
Q 43.21875 41.609375 39.140625 45 
Q 35.0625 48.390625 27.6875 48.390625 
Q 23 48.390625 18.546875 47.265625 
Q 14.109375 46.140625 10.015625 43.890625 
L 10.015625 52.203125 
Q 14.9375 54.109375 19.578125 55.046875 
Q 24.21875 56 28.609375 56 
Q 40.484375 56 46.34375 49.84375 
Q 52.203125 43.703125 52.203125 31.203125 
z
" id="DejaVuSans-97"/>
       <path d="M 32.171875 -5.078125 
Q 28.375 -14.84375 24.75 -17.8125 
Q 21.140625 -20.796875 15.09375 -20.796875 
L 7.90625 -20.796875 
L 7.90625 -13.28125 
L 13.1875 -13.28125 
Q 16.890625 -13.28125 18.9375 -11.515625 
Q 21 -9.765625 23.484375 -3.21875 
L 25.09375 0.875 
L 2.984375 54.6875 
L 12.5 54.6875 
L 29.59375 11.921875 
L 46.6875 54.6875 
L 56.203125 54.6875 
z
" id="DejaVuSans-121"/>
       <path id="DejaVuSans-32"/>
       <path d="M 25.390625 72.90625 
L 33.6875 72.90625 
L 8.296875 -9.28125 
L 0 -9.28125 
z
" id="DejaVuSans-47"/>
       <path d="M 72.703125 32.078125 
Q 68.453125 32.078125 66.03125 28.46875 
Q 63.625 24.859375 63.625 18.40625 
Q 63.625 12.0625 66.03125 8.421875 
Q 68.453125 4.78125 72.703125 4.78125 
Q 76.859375 4.78125 79.265625 8.421875 
Q 81.6875 12.0625 81.6875 18.40625 
Q 81.6875 24.8125 79.265625 28.4375 
Q 76.859375 32.078125 72.703125 32.078125 
z
M 72.703125 38.28125 
Q 80.421875 38.28125 84.953125 32.90625 
Q 89.5 27.546875 89.5 18.40625 
Q 89.5 9.28125 84.9375 3.921875 
Q 80.375 -1.421875 72.703125 -1.421875 
Q 64.890625 -1.421875 60.34375 3.921875 
Q 55.8125 9.28125 55.8125 18.40625 
Q 55.8125 27.59375 60.375 32.9375 
Q 64.9375 38.28125 72.703125 38.28125 
z
M 22.3125 68.015625 
Q 18.109375 68.015625 15.6875 64.375 
Q 13.28125 60.75 13.28125 54.390625 
Q 13.28125 47.953125 15.671875 44.328125 
Q 18.0625 40.71875 22.3125 40.71875 
Q 26.5625 40.71875 28.96875 44.328125 
Q 31.390625 47.953125 31.390625 54.390625 
Q 31.390625 60.6875 28.953125 64.34375 
Q 26.515625 68.015625 22.3125 68.015625 
z
M 66.40625 74.21875 
L 74.21875 74.21875 
L 28.609375 -1.421875 
L 20.796875 -1.421875 
z
M 22.3125 74.21875 
Q 30.03125 74.21875 34.609375 68.875 
Q 39.203125 63.53125 39.203125 54.390625 
Q 39.203125 45.171875 34.640625 39.84375 
Q 30.078125 34.515625 22.3125 34.515625 
Q 14.546875 34.515625 10.03125 39.859375 
Q 5.515625 45.21875 5.515625 54.390625 
Q 5.515625 63.484375 10.046875 68.84375 
Q 14.59375 74.21875 22.3125 74.21875 
z
" id="DejaVuSans-37"/>
      </defs>
      <use xlink:href="#DejaVuSans-65"/>
      <use x="66.658203" xlink:href="#DejaVuSans-99"/>
      <use x="121.638672" xlink:href="#DejaVuSans-99"/>
      <use x="176.619141" xlink:href="#DejaVuSans-117"/>
      <use x="239.998047" xlink:href="#DejaVuSans-114"/>
      <use x="281.111328" xlink:href="#DejaVuSans-97"/>
      <use x="342.390625" xlink:href="#DejaVuSans-99"/>
      <use x="397.371094" xlink:href="#DejaVuSans-121"/>
      <use x="456.550781" xlink:href="#DejaVuSans-32"/>
      <use x="488.337891" xlink:href="#DejaVuSans-47"/>
      <use x="522.029297" xlink:href="#DejaVuSans-37"/>
     </g>
    </g>
   </g>
   <g id="matplotlib.axis_2">
    <g id="ytick_1">
     <g id="line2d_10">
      <defs>
       <path d="M 0 0 
L -3.5 0 
" id="m0f43626c7a" style="stroke:#000000;stroke-width:0.8;"/>
      </defs>
      <g>
       <use style="stroke:#000000;stroke-width:0.8;" x="144" xlink:href="#m0f43626c7a" y="359.04"/>
      </g>
     </g>
     <g id="text_11">
      <!-- $\mathdefault{10^{4}}$ -->
      <g transform="translate(94.76 368.158125)scale(0.24 -0.24)">
       <use transform="translate(0 0.684375)" xlink:href="#DejaVuSans-49"/>
       <use transform="translate(63.623047 0.684375)" xlink:href="#DejaVuSans-48"/>
       <use transform="translate(128.203125 38.965625)scale(0.7)" xlink:href="#DejaVuSans-52"/>
      </g>
     </g>
    </g>
    <g id="ytick_2">
     <g id="line2d_11">
      <g>
       <use style="stroke:#000000;stroke-width:0.8;" x="144" xlink:href="#m0f43626c7a" y="151.649126"/>
      </g>
     </g>
     <g id="text_12">
      <!-- $\mathdefault{10^{5}}$ -->
      <g transform="translate(94.76 160.767251)scale(0.24 -0.24)">
       <defs>
        <path d="M 10.796875 72.90625 
L 49.515625 72.90625 
L 49.515625 64.59375 
L 19.828125 64.59375 
L 19.828125 46.734375 
Q 21.96875 47.46875 24.109375 47.828125 
Q 26.265625 48.1875 28.421875 48.1875 
Q 40.625 48.1875 47.75 41.5 
Q 54.890625 34.8125 54.890625 23.390625 
Q 54.890625 11.625 47.5625 5.09375 
Q 40.234375 -1.421875 26.90625 -1.421875 
Q 22.3125 -1.421875 17.546875 -0.640625 
Q 12.796875 0.140625 7.71875 1.703125 
L 7.71875 11.625 
Q 12.109375 9.234375 16.796875 8.0625 
Q 21.484375 6.890625 26.703125 6.890625 
Q 35.15625 6.890625 40.078125 11.328125 
Q 45.015625 15.765625 45.015625 23.390625 
Q 45.015625 31 40.078125 35.4375 
Q 35.15625 39.890625 26.703125 39.890625 
Q 22.75 39.890625 18.8125 39.015625 
Q 14.890625 38.140625 10.796875 36.28125 
z
" id="DejaVuSans-53"/>
       </defs>
       <use transform="translate(0 0.684375)" xlink:href="#DejaVuSans-49"/>
       <use transform="translate(63.623047 0.684375)" xlink:href="#DejaVuSans-48"/>
       <use transform="translate(128.203125 38.965625)scale(0.7)" xlink:href="#DejaVuSans-53"/>
      </g>
     </g>
    </g>
    <g id="ytick_3">
     <g id="line2d_12">
      <defs>
       <path d="M 0 0 
L -2 0 
" id="mc7b07d468d" style="stroke:#000000;stroke-width:0.6;"/>
      </defs>
      <g>
       <use style="stroke:#000000;stroke-width:0.6;" x="144" xlink:href="#mc7b07d468d" y="504"/>
      </g>
     </g>
    </g>
    <g id="ytick_4">
     <g id="line2d_13">
      <g>
       <use style="stroke:#000000;stroke-width:0.6;" x="144" xlink:href="#mc7b07d468d" y="467.48028"/>
      </g>
     </g>
    </g>
    <g id="ytick_5">
     <g id="line2d_14">
      <g>
       <use style="stroke:#000000;stroke-width:0.6;" x="144" xlink:href="#mc7b07d468d" y="441.569126"/>
      </g>
     </g>
    </g>
    <g id="ytick_6">
     <g id="line2d_15">
      <g>
       <use style="stroke:#000000;stroke-width:0.6;" x="144" xlink:href="#mc7b07d468d" y="421.470874"/>
      </g>
     </g>
    </g>
    <g id="ytick_7">
     <g id="line2d_16">
      <g>
       <use style="stroke:#000000;stroke-width:0.6;" x="144" xlink:href="#mc7b07d468d" y="405.049406"/>
      </g>
     </g>
    </g>
    <g id="ytick_8">
     <g id="line2d_17">
      <g>
       <use style="stroke:#000000;stroke-width:0.6;" x="144" xlink:href="#mc7b07d468d" y="391.165253"/>
      </g>
     </g>
    </g>
    <g id="ytick_9">
     <g id="line2d_18">
      <g>
       <use style="stroke:#000000;stroke-width:0.6;" x="144" xlink:href="#mc7b07d468d" y="379.138252"/>
      </g>
     </g>
    </g>
    <g id="ytick_10">
     <g id="line2d_19">
      <g>
       <use style="stroke:#000000;stroke-width:0.6;" x="144" xlink:href="#mc7b07d468d" y="368.529686"/>
      </g>
     </g>
    </g>
    <g id="ytick_11">
     <g id="line2d_20">
      <g>
       <use style="stroke:#000000;stroke-width:0.6;" x="144" xlink:href="#mc7b07d468d" y="296.609126"/>
      </g>
     </g>
    </g>
    <g id="ytick_12">
     <g id="line2d_21">
      <g>
       <use style="stroke:#000000;stroke-width:0.6;" x="144" xlink:href="#mc7b07d468d" y="260.089406"/>
      </g>
     </g>
    </g>
    <g id="ytick_13">
     <g id="line2d_22">
      <g>
       <use style="stroke:#000000;stroke-width:0.6;" x="144" xlink:href="#mc7b07d468d" y="234.178252"/>
      </g>
     </g>
    </g>
    <g id="ytick_14">
     <g id="line2d_23">
      <g>
       <use style="stroke:#000000;stroke-width:0.6;" x="144" xlink:href="#mc7b07d468d" y="214.08"/>
      </g>
     </g>
    </g>
    <g id="ytick_15">
     <g id="line2d_24">
      <g>
       <use style="stroke:#000000;stroke-width:0.6;" x="144" xlink:href="#mc7b07d468d" y="197.658532"/>
      </g>
     </g>
    </g>
    <g id="ytick_16">
     <g id="line2d_25">
      <g>
       <use style="stroke:#000000;stroke-width:0.6;" x="144" xlink:href="#mc7b07d468d" y="183.774379"/>
      </g>
     </g>
    </g>
    <g id="ytick_17">
     <g id="line2d_26">
      <g>
       <use style="stroke:#000000;stroke-width:0.6;" x="144" xlink:href="#mc7b07d468d" y="171.747378"/>
      </g>
     </g>
    </g>
    <g id="ytick_18">
     <g id="line2d_27">
      <g>
       <use style="stroke:#000000;stroke-width:0.6;" x="144" xlink:href="#mc7b07d468d" y="161.138812"/>
      </g>
     </g>
    </g>
    <g id="ytick_19">
     <g id="line2d_28">
      <g>
       <use style="stroke:#000000;stroke-width:0.6;" x="144" xlink:href="#mc7b07d468d" y="89.218252"/>
      </g>
     </g>
    </g>
    <g id="text_13">
     <!-- Energy /A.U. -->
     <g transform="translate(84.936875 373.22)rotate(-90)scale(0.28 -0.28)">
      <defs>
       <path d="M 9.8125 72.90625 
L 55.90625 72.90625 
L 55.90625 64.59375 
L 19.671875 64.59375 
L 19.671875 43.015625 
L 54.390625 43.015625 
L 54.390625 34.71875 
L 19.671875 34.71875 
L 19.671875 8.296875 
L 56.78125 8.296875 
L 56.78125 0 
L 9.8125 0 
z
" id="DejaVuSans-69"/>
       <path d="M 54.890625 33.015625 
L 54.890625 0 
L 45.90625 0 
L 45.90625 32.71875 
Q 45.90625 40.484375 42.875 44.328125 
Q 39.84375 48.1875 33.796875 48.1875 
Q 26.515625 48.1875 22.3125 43.546875 
Q 18.109375 38.921875 18.109375 30.90625 
L 18.109375 0 
L 9.078125 0 
L 9.078125 54.6875 
L 18.109375 54.6875 
L 18.109375 46.1875 
Q 21.34375 51.125 25.703125 53.5625 
Q 30.078125 56 35.796875 56 
Q 45.21875 56 50.046875 50.171875 
Q 54.890625 44.34375 54.890625 33.015625 
z
" id="DejaVuSans-110"/>
       <path d="M 56.203125 29.59375 
L 56.203125 25.203125 
L 14.890625 25.203125 
Q 15.484375 15.921875 20.484375 11.0625 
Q 25.484375 6.203125 34.421875 6.203125 
Q 39.59375 6.203125 44.453125 7.46875 
Q 49.3125 8.734375 54.109375 11.28125 
L 54.109375 2.78125 
Q 49.265625 0.734375 44.1875 -0.34375 
Q 39.109375 -1.421875 33.890625 -1.421875 
Q 20.796875 -1.421875 13.15625 6.1875 
Q 5.515625 13.8125 5.515625 26.8125 
Q 5.515625 40.234375 12.765625 48.109375 
Q 20.015625 56 32.328125 56 
Q 43.359375 56 49.78125 48.890625 
Q 56.203125 41.796875 56.203125 29.59375 
z
M 47.21875 32.234375 
Q 47.125 39.59375 43.09375 43.984375 
Q 39.0625 48.390625 32.421875 48.390625 
Q 24.90625 48.390625 20.390625 44.140625 
Q 15.875 39.890625 15.1875 32.171875 
z
" id="DejaVuSans-101"/>
       <path d="M 45.40625 27.984375 
Q 45.40625 37.75 41.375 43.109375 
Q 37.359375 48.484375 30.078125 48.484375 
Q 22.859375 48.484375 18.828125 43.109375 
Q 14.796875 37.75 14.796875 27.984375 
Q 14.796875 18.265625 18.828125 12.890625 
Q 22.859375 7.515625 30.078125 7.515625 
Q 37.359375 7.515625 41.375 12.890625 
Q 45.40625 18.265625 45.40625 27.984375 
z
M 54.390625 6.78125 
Q 54.390625 -7.171875 48.1875 -13.984375 
Q 42 -20.796875 29.203125 -20.796875 
Q 24.46875 -20.796875 20.265625 -20.09375 
Q 16.0625 -19.390625 12.109375 -17.921875 
L 12.109375 -9.1875 
Q 16.0625 -11.328125 19.921875 -12.34375 
Q 23.78125 -13.375 27.78125 -13.375 
Q 36.625 -13.375 41.015625 -8.765625 
Q 45.40625 -4.15625 45.40625 5.171875 
L 45.40625 9.625 
Q 42.625 4.78125 38.28125 2.390625 
Q 33.9375 0 27.875 0 
Q 17.828125 0 11.671875 7.65625 
Q 5.515625 15.328125 5.515625 27.984375 
Q 5.515625 40.671875 11.671875 48.328125 
Q 17.828125 56 27.875 56 
Q 33.9375 56 38.28125 53.609375 
Q 42.625 51.21875 45.40625 46.390625 
L 45.40625 54.6875 
L 54.390625 54.6875 
z
" id="DejaVuSans-103"/>
       <path d="M 10.6875 12.40625 
L 21 12.40625 
L 21 0 
L 10.6875 0 
z
" id="DejaVuSans-46"/>
       <path d="M 8.6875 72.90625 
L 18.609375 72.90625 
L 18.609375 28.609375 
Q 18.609375 16.890625 22.84375 11.734375 
Q 27.09375 6.59375 36.625 6.59375 
Q 46.09375 6.59375 50.34375 11.734375 
Q 54.59375 16.890625 54.59375 28.609375 
L 54.59375 72.90625 
L 64.5 72.90625 
L 64.5 27.390625 
Q 64.5 13.140625 57.4375 5.859375 
Q 50.390625 -1.421875 36.625 -1.421875 
Q 22.796875 -1.421875 15.734375 5.859375 
Q 8.6875 13.140625 8.6875 27.390625 
z
" id="DejaVuSans-85"/>
      </defs>
      <use xlink:href="#DejaVuSans-69"/>
      <use x="63.183594" xlink:href="#DejaVuSans-110"/>
      <use x="126.5625" xlink:href="#DejaVuSans-101"/>
      <use x="188.085938" xlink:href="#DejaVuSans-114"/>
      <use x="227.449219" xlink:href="#DejaVuSans-103"/>
      <use x="290.925781" xlink:href="#DejaVuSans-121"/>
      <use x="350.105469" xlink:href="#DejaVuSans-32"/>
      <use x="381.892578" xlink:href="#DejaVuSans-47"/>
      <use x="415.583984" xlink:href="#DejaVuSans-65"/>
      <use x="482.242188" xlink:href="#DejaVuSans-46"/>
      <use x="514.029297" xlink:href="#DejaVuSans-85"/>
      <use x="587.222656" xlink:href="#DejaVuSans-46"/>
     </g>
    </g>
   </g>
   <g id="line2d_29">
    <path clip-path="url(#pc7cd018d71)" d="M 152.928 448.991352 
L 375.012 395.148631 
L 418.536 365.972808 
L 470.43 345.036452 
L 522.324 329.137084 
L 527.904 316.330189 
L 559.152 304.821785 
L 576.45 295.418387 
L 599.328 287.102135 
L 599.886 279.71039 
L 624.438 272.801689 
L 603.234 266.614177 
L 607.14 261.278368 
L 635.598 256.026425 
L 642.294 251.374646 
L 663.498 246.879858 
L 660.15 242.872426 
L 672.426 238.996407 
L 683.586 235.25064 
L 693.072 231.771906 
L 713.718 225.430412 
L 712.602 222.217224 
L 718.74 219.322911 
L 722.646 216.55602 
L 739.386 213.986469 
L 737.154 211.648845 
L 721.53 209.300314 
L 734.922 206.984067 
L 742.734 204.86953 
L 746.64 202.794073 
L 749.43 200.662253 
L 743.292 198.677416 
L 757.242 196.746015 
L 764.496 194.908369 
L 770.076 193.038662 
L 773.424 191.29999 
L 776.214 189.668536 
L 776.772 188.04004 
L 776.772 186.469079 
L 787.374 184.870033 
L 785.7 183.411485 
L 786.258 181.998318 
L 784.584 180.535106 
L 799.65 179.072003 
L 796.86 177.69534 
L 806.346 176.399411 
L 811.368 175.09642 
L 810.81 173.829911 
L 805.23 172.619418 
L 806.346 171.362454 
L 811.926 170.164607 
L 819.738 169.056241 
L 813.042 167.937649 
L 822.528 165.747982 
L 823.086 164.642421 
L 824.76 163.649433 
L 829.782 162.631252 
L 829.782 161.578751 
L 833.688 160.511923 
L 833.688 159.526915 
L 830.898 158.564862 
L 841.5 157.667056 
L 842.058 156.757623 
L 840.942 155.906339 
L 840.942 154.99722 
L 843.732 154.178068 
L 838.71 153.287492 
L 837.594 152.396309 
L 843.732 151.565926 
L 847.08 150.78856 
L 851.544 150.004485 
L 848.754 149.219007 
L 854.892 148.423524 
L 855.45 147.648009 
L 844.848 146.879268 
L 861.588 144.661013 
L 856.008 143.899054 
L 864.378 143.179456 
L 858.24 142.49629 
L 861.03 141.81595 
L 855.45 141.160627 
L 863.82 140.454733 
L 865.494 139.826946 
L 864.378 139.157351 
L 867.168 138.549243 
L 871.074 137.917457 
L 872.19 137.255452 
L 869.4 136.617507 
L 875.538 136.018726 
L 866.052 135.433576 
L 873.306 134.819414 
L 872.748 134.205957 
L 876.096 133.661521 
L 875.538 133.116036 
L 877.212 132.509199 
L 880.56 131.95263 
L 885.582 131.388262 
L 876.654 130.311067 
L 875.538 129.737073 
L 878.886 129.190869 
L 883.908 128.642929 
L 885.024 128.138435 
L 878.328 127.583567 
L 880.56 127.080665 
L 885.582 126.567779 
L 882.234 126.055606 
L 889.488 125.537447 
L 893.952 125.070166 
L 887.256 124.564691 
L 887.256 124.093683 
L 893.394 123.628973 
L 885.024 122.652344 
L 890.604 122.186992 
L 890.604 121.750404 
L 895.068 121.297681 
L 892.836 120.844172 
L 888.93 120.421455 
L 890.046 119.992193 
L 893.952 119.547965 
L 891.72 119.102638 
L 892.836 118.725798 
L 898.974 118.286279 
L 894.51 117.84778 
L 887.814 117.404287 
L 897.858 116.978812 
L 894.51 116.546626 
L 900.648 115.758082 
L 905.67 115.382574 
L 900.648 114.995837 
L 899.532 114.583233 
L 897.858 114.20043 
L 898.974 113.788284 
L 892.836 113.395833 
L 904.554 112.985187 
L 903.438 112.584368 
L 907.902 112.23049 
L 896.742 111.84278 
L 901.764 111.452341 
L 902.322 111.079111 
L 906.228 110.743665 
L 900.648 110.364497 
L 905.67 110.027281 
L 909.018 109.655467 
L 907.344 109.344216 
L 911.25 108.994262 
L 907.344 108.629408 
L 892.278 107.906579 
L 906.786 107.224925 
L 897.858 106.914019 
L 904.554 106.577093 
L 907.902 105.929375 
L 906.228 105.576102 
L 908.46 105.229956 
L 912.924 104.932775 
L 909.576 104.603773 
L 905.112 104.276767 
L 904.554 103.969393 
L 909.576 103.642051 
L 909.576 103.349299 
L 906.228 103.057343 
L 910.692 102.764236 
L 907.902 102.450977 
L 911.25 102.131354 
L 916.83 101.837164 
L 910.692 101.226708 
L 912.366 100.950227 
L 919.062 100.636303 
L 909.576 100.34588 
L 915.156 100.045132 
L 910.692 99.761338 
L 910.692 99.479965 
L 912.366 99.229365 
L 911.25 98.942095 
L 912.366 98.666675 
L 914.598 98.388164 
L 914.04 98.107721 
L 916.83 97.812505 
L 913.482 97.531339 
L 918.504 97.265459 
L 919.062 96.973461 
L 915.156 96.725105 
L 917.388 96.216567 
L 915.156 95.930746 
L 922.41 95.678696 
L 918.504 95.435211 
L 915.156 94.914707 
L 918.504 94.661795 
L 916.83 94.403058 
L 916.272 94.153346 
L 917.946 93.907182 
L 914.04 93.655455 
L 915.156 93.431199 
L 917.388 93.217254 
L 915.156 92.989543 
L 916.272 92.748859 
L 922.41 92.488582 
L 914.598 92.244341 
L 914.598 91.998177 
L 917.388 91.751245 
L 914.598 91.505089 
L 914.598 91.262091 
L 916.272 91.045108 
L 916.83 90.789546 
L 920.178 90.571346 
L 917.946 90.344711 
L 912.366 90.106709 
L 923.526 89.432515 
L 918.504 89.225555 
L 921.852 88.564494 
L 915.156 88.334139 
L 916.272 88.122024 
L 919.062 87.931722 
L 917.388 87.688685 
L 920.178 87.484351 
L 921.294 87.281846 
L 920.178 87.071503 
L 917.946 86.870664 
L 921.294 86.666141 
L 920.736 86.458553 
L 921.294 86.255581 
L 918.504 86.036217 
L 924.642 85.829956 
L 917.946 85.629795 
L 916.83 85.422453 
L 921.852 85.03093 
L 914.598 84.856322 
L 923.526 84.656768 
L 919.062 84.455858 
L 919.062 84.247746 
L 924.084 83.857274 
L 911.808 83.472553 
L 920.178 83.272993 
L 920.178 83.09351 
L 922.41 82.922405 
L 918.504 82.737139 
L 921.294 82.366741 
L 927.432 82.184724 
L 917.388 81.993771 
L 923.526 81.821654 
L 920.178 81.613422 
L 925.758 81.265642 
L 923.526 81.076322 
L 923.526 80.890247 
L 922.968 80.711366 
L 920.736 80.372387 
L 922.968 80.184852 
L 921.852 80.009698 
L 923.526 79.838759 
L 923.526 79.670378 
L 928.548 79.492191 
L 920.178 79.337301 
L 921.852 79.186805 
L 920.178 79.000626 
L 921.852 78.846222 
L 925.2 78.704914 
L 921.294 78.392621 
L 925.2 78.217561 
L 924.084 78.050824 
L 926.316 77.886962 
L 921.852 77.563657 
L 923.526 77.384483 
L 923.526 77.206879 
L 924.642 77.040276 
L 923.526 76.880015 
L 926.874 76.727138 
L 920.178 76.428367 
L 924.642 76.266624 
L 922.968 76.10873 
L 929.664 75.807359 
L 924.084 75.647432 
L 926.874 75.478298 
L 926.874 75.331934 
L 927.432 75.179221 
L 926.874 75.055165 
L 924.642 74.916428 
L 927.432 74.751825 
L 921.294 74.459798 
L 925.2 73.980415 
L 927.99 73.83954 
L 922.41 73.686718 
L 925.2 73.542894 
L 924.642 73.425767 
L 926.316 73.29362 
L 925.758 73.144769 
L 926.316 72.999666 
L 925.758 72.861816 
L 924.642 72.726633 
L 920.178 72.598449 
L 926.316 72.477568 
L 924.084 72.188926 
L 928.548 72.034498 
L 926.316 71.905982 
L 926.874 71.765302 
L 922.968 71.646371 
L 928.548 71.509433 
L 929.106 71.366534 
L 925.2 71.245687 
L 926.316 71.119432 
L 924.084 70.982917 
L 925.2 70.852993 
L 927.432 70.72584 
L 925.2 70.589356 
L 928.548 70.459748 
L 925.2 70.320748 
L 927.99 70.067143 
L 927.99 69.944621 
L 926.316 69.824268 
L 926.874 69.702068 
L 926.874 69.569626 
L 927.99 69.444026 
L 923.526 69.311582 
L 927.432 69.190754 
L 925.758 69.065727 
L 928.548 68.946324 
L 925.758 68.818883 
L 926.316 68.697575 
L 928.548 68.479464 
L 927.99 68.355344 
L 921.852 68.007342 
L 924.084 67.893305 
L 921.294 67.767313 
L 930.222 67.646013 
L 928.548 67.40492 
L 928.548 67.40492 
" style="fill:none;stroke:#1f1f1f;stroke-linecap:square;stroke-width:5;"/>
   </g>
   <g id="line2d_30">
    <path clip-path="url(#pc7cd018d71)" d="M -1 553.628638 
L 88.2 534.126634 
L 302.472 508.845038 
L 320.328 490.563845 
L 367.758 476.908637 
L 380.034 465.127714 
L 401.796 454.220181 
L 421.884 444.373971 
L 397.89 435.221569 
L 464.85 426.764077 
L 478.242 419.126546 
L 446.436 412.341988 
L 477.126 406.28209 
L 501.12 400.320732 
L 499.446 395.289497 
L 526.23 389.882518 
L 536.274 385.316945 
L 518.418 381.008004 
L 558.036 377.076054 
L 526.788 373.189822 
L 547.992 369.558343 
L 564.732 365.90059 
L 560.268 362.512808 
L 585.378 359.441172 
L 573.102 356.397869 
L 554.688 353.524216 
L 590.958 350.681808 
L 568.08 347.420417 
L 622.764 344.468773 
L 611.604 341.935053 
L 612.72 339.438401 
L 611.046 337.169873 
L 633.924 335.058189 
L 627.786 332.922203 
L 612.162 330.84911 
L 616.626 328.934876 
L 656.802 326.979758 
L 655.128 325.157309 
L 652.896 323.348538 
L 655.128 319.660005 
L 631.692 317.927474 
L 657.36 316.267401 
L 662.382 314.594908 
L 668.52 313.026914 
L 659.034 311.558641 
L 669.078 310.135236 
L 672.984 308.686186 
L 684.702 307.254433 
L 683.028 305.858917 
L 679.68 304.47486 
L 683.586 303.202318 
L 676.332 301.796104 
L 699.21 300.544144 
L 690.84 299.281829 
L 709.254 298.145023 
L 700.326 297.047587 
L 699.21 295.891846 
L 669.078 294.751674 
L 675.216 293.575511 
L 676.89 292.505125 
L 700.326 291.412926 
L 707.58 290.466926 
L 709.812 289.303374 
L 705.348 288.312679 
L 714.276 287.379911 
L 708.138 286.445593 
L 708.138 285.42615 
L 711.486 284.447707 
L 735.48 283.332751 
L 727.11 282.317172 
L 725.994 281.431798 
L 708.696 280.547247 
L 736.596 279.653106 
L 720.414 278.824215 
L 725.994 277.994531 
L 724.878 277.155719 
L 717.066 276.397247 
L 734.922 275.641914 
L 727.668 274.804358 
L 710.928 274.059241 
L 738.27 273.227584 
L 732.132 272.47947 
L 732.132 271.738687 
L 707.58 271.057407 
L 737.712 270.374875 
L 751.104 269.634593 
L 758.916 268.948629 
L 748.314 268.28279 
L 742.734 267.509755 
L 762.822 266.776771 
L 753.336 266.119236 
L 735.48 265.420132 
L 750.546 264.859385 
L 755.568 264.165721 
L 734.364 263.502359 
L 763.38 262.867456 
L 756.126 262.289432 
L 767.286 261.675011 
L 757.242 261.044466 
L 767.286 260.471629 
L 756.684 259.836812 
L 763.938 259.269636 
L 766.17 258.583548 
L 751.104 257.996991 
L 760.032 257.466087 
L 758.358 256.940061 
L 768.402 256.35963 
L 762.264 255.830915 
L 762.822 255.299165 
L 770.076 254.718019 
L 772.308 253.713761 
L 781.236 253.196252 
L 769.518 252.660102 
L 779.004 252.12466 
L 772.308 251.627506 
L 779.004 251.129765 
L 772.308 250.680202 
L 770.076 250.163195 
L 791.28 249.584313 
L 783.468 249.109191 
L 778.446 248.593829 
L 770.634 248.161761 
L 782.352 247.716581 
L 785.7 247.248618 
L 800.766 246.74851 
L 790.164 246.302873 
L 787.374 245.885191 
L 790.722 245.416739 
L 774.54 244.982575 
L 799.092 244.56067 
L 784.026 244.189437 
L 793.512 243.742279 
L 782.352 243.323617 
L 783.468 242.934719 
L 776.772 242.517979 
L 789.048 242.093964 
L 784.584 241.643325 
L 802.998 240.822163 
L 792.396 240.448407 
L 797.976 240.007076 
L 806.346 239.616522 
L 789.048 239.248584 
L 792.954 238.847149 
L 805.23 238.422727 
L 809.136 238.054974 
L 793.512 237.660075 
L 795.186 237.305607 
L 794.628 236.959605 
L 801.324 236.55577 
L 804.672 236.219259 
L 804.114 235.887259 
L 801.882 235.554226 
L 806.904 235.208692 
L 802.44 234.889896 
L 810.81 234.564124 
L 808.02 234.263653 
L 796.302 233.933958 
L 801.882 233.595587 
L 813.042 233.20276 
L 812.484 232.868485 
L 806.346 232.582301 
L 816.948 232.207937 
L 815.274 231.863554 
L 801.324 231.204539 
L 805.788 230.912036 
L 800.766 230.558692 
L 806.346 230.244391 
L 823.086 229.966323 
L 809.136 229.689067 
L 809.694 229.432134 
L 813.042 228.809053 
L 809.136 228.518961 
L 824.202 228.213927 
L 809.694 227.890706 
L 804.672 227.577979 
L 816.39 227.299489 
L 819.738 226.997256 
L 819.18 226.692562 
L 814.716 226.393451 
L 819.738 226.139242 
L 821.97 225.835736 
L 820.296 225.556466 
L 824.202 225.241651 
L 823.086 224.97773 
L 819.738 224.665579 
L 828.666 224.37197 
L 821.97 224.105455 
L 824.76 223.545909 
L 815.274 222.988218 
L 815.274 222.720751 
L 814.158 222.490081 
L 827.55 222.012334 
L 824.202 221.761826 
L 815.274 221.452852 
L 816.948 221.213012 
L 827.55 220.749277 
L 820.854 220.491625 
L 818.064 220.233765 
L 824.76 220.005095 
L 818.064 219.763406 
L 820.854 219.511988 
L 828.666 219.308015 
L 821.97 219.059494 
L 823.644 218.827689 
L 821.412 218.537007 
L 825.318 218.284107 
L 834.246 218.034119 
L 818.064 217.576513 
L 818.064 217.370095 
L 814.158 217.147921 
L 823.086 216.679513 
L 830.34 216.448513 
L 823.644 216.228122 
L 838.71 215.996103 
L 836.478 215.729754 
L 820.296 215.517759 
L 830.898 215.280578 
L 831.456 215.062305 
L 828.108 214.865028 
L 839.826 214.614833 
L 831.456 214.384737 
L 832.572 214.185567 
L 826.434 213.992076 
L 837.036 213.562222 
L 836.478 213.404979 
L 837.036 213.166014 
L 825.876 212.928997 
L 834.246 212.754419 
L 837.594 212.517645 
L 829.782 212.33119 
L 834.246 212.146302 
L 826.434 211.994207 
L 830.898 211.786018 
L 829.224 211.457686 
L 833.13 211.262192 
L 829.782 211.06057 
L 838.152 210.842743 
L 826.992 210.620369 
L 830.898 210.385772 
L 840.384 210.217967 
L 842.616 210.038442 
L 839.826 209.83187 
L 834.246 209.673423 
L 835.92 209.490923 
L 840.942 209.282726 
L 826.434 209.121597 
L 844.29 208.936256 
L 838.71 208.769721 
L 840.942 208.579831 
L 836.478 208.373783 
L 843.174 208.184342 
L 842.058 208.015507 
L 842.616 207.837343 
L 841.5 207.667825 
L 841.5 207.492428 
L 833.688 207.321026 
L 845.406 206.930076 
L 832.572 206.744725 
L 847.638 206.429825 
L 838.71 206.243839 
L 845.964 206.053921 
L 832.014 205.892769 
L 847.08 205.74568 
L 839.268 205.571074 
L 845.406 205.37043 
L 838.71 205.211494 
L 838.152 205.054018 
L 852.66 204.714649 
L 838.71 204.384229 
L 852.66 204.193518 
L 844.848 204.024937 
L 843.174 203.716278 
L 848.196 203.564633 
L 843.174 203.414499 
L 844.29 203.268429 
L 847.08 203.129203 
L 845.406 202.960539 
L 850.986 202.823201 
L 842.616 202.632206 
L 826.992 202.463114 
L 849.312 202.284104 
L 849.87 202.125215 
L 852.66 201.983199 
L 846.522 201.733154 
L 837.036 201.587726 
L 852.66 201.272142 
L 843.732 201.130228 
L 855.45 200.996198 
L 842.616 200.856001 
L 841.5 200.700744 
L 842.616 200.500873 
L 850.986 200.35748 
L 847.08 200.23821 
L 849.87 200.130045 
L 849.87 199.989793 
L 856.566 199.845686 
L 854.892 199.694149 
L 840.942 199.553763 
L 849.87 199.413281 
L 838.71 199.257456 
L 848.754 198.925808 
L 848.196 198.779787 
L 840.942 198.639584 
L 849.312 198.521262 
L 845.406 198.367537 
L 857.124 198.105674 
L 852.102 197.973032 
L 863.82 197.848151 
L 859.356 197.741951 
L 859.914 197.615888 
L 854.892 197.463221 
L 857.124 197.323105 
L 844.29 197.196457 
L 852.102 197.048383 
L 847.638 196.9177 
L 848.754 196.801291 
L 843.174 196.687332 
L 857.682 196.557086 
L 844.29 196.345039 
L 865.494 196.075837 
L 852.102 195.948157 
L 858.24 195.822241 
L 847.08 195.699653 
L 851.544 195.556261 
L 847.638 195.42237 
L 851.544 195.301165 
L 850.428 195.206839 
L 855.45 195.090792 
L 844.848 194.958416 
L 856.566 194.842112 
L 842.058 194.690792 
L 857.682 194.579978 
L 852.66 194.453942 
L 863.262 194.344825 
L 854.892 194.209255 
L 854.892 194.209255 
" style="fill:none;stroke:#4161ff;stroke-linecap:square;stroke-width:5;"/>
   </g>
   <g id="patch_3">
    <path d="M 144 504 
L 144 69.12 
" style="fill:none;stroke:#000000;stroke-linecap:square;stroke-linejoin:miter;stroke-width:0.8;"/>
   </g>
   <g id="patch_4">
    <path d="M 1036.8 504 
L 1036.8 69.12 
" style="fill:none;stroke:#000000;stroke-linecap:square;stroke-linejoin:miter;stroke-width:0.8;"/>
   </g>
   <g id="patch_5">
    <path d="M 144 504 
L 1036.8 504 
" style="fill:none;stroke:#000000;stroke-linecap:square;stroke-linejoin:miter;stroke-width:0.8;"/>
   </g>
   <g id="patch_6">
    <path d="M 144 69.12 
L 1036.8 69.12 
" style="fill:none;stroke:#000000;stroke-linecap:square;stroke-linejoin:miter;stroke-width:0.8;"/>
   </g>
   <g id="text_14">
    <!-- Gated: Energy vs. Accuracy with 300 Units @ 0.8 -->
    <g transform="translate(147.895312 61.633125)scale(0.36 -0.36)">
     <defs>
      <path d="M 59.515625 10.40625 
L 59.515625 29.984375 
L 43.40625 29.984375 
L 43.40625 38.09375 
L 69.28125 38.09375 
L 69.28125 6.78125 
Q 63.578125 2.734375 56.6875 0.65625 
Q 49.8125 -1.421875 42 -1.421875 
Q 24.90625 -1.421875 15.25 8.5625 
Q 5.609375 18.5625 5.609375 36.375 
Q 5.609375 54.25 15.25 64.234375 
Q 24.90625 74.21875 42 74.21875 
Q 49.125 74.21875 55.546875 72.453125 
Q 61.96875 70.703125 67.390625 67.28125 
L 67.390625 56.78125 
Q 61.921875 61.421875 55.765625 63.765625 
Q 49.609375 66.109375 42.828125 66.109375 
Q 29.4375 66.109375 22.71875 58.640625 
Q 16.015625 51.171875 16.015625 36.375 
Q 16.015625 21.625 22.71875 14.15625 
Q 29.4375 6.6875 42.828125 6.6875 
Q 48.046875 6.6875 52.140625 7.59375 
Q 56.25 8.5 59.515625 10.40625 
z
" id="DejaVuSans-71"/>
      <path d="M 18.3125 70.21875 
L 18.3125 54.6875 
L 36.8125 54.6875 
L 36.8125 47.703125 
L 18.3125 47.703125 
L 18.3125 18.015625 
Q 18.3125 11.328125 20.140625 9.421875 
Q 21.96875 7.515625 27.59375 7.515625 
L 36.8125 7.515625 
L 36.8125 0 
L 27.59375 0 
Q 17.1875 0 13.234375 3.875 
Q 9.28125 7.765625 9.28125 18.015625 
L 9.28125 47.703125 
L 2.6875 47.703125 
L 2.6875 54.6875 
L 9.28125 54.6875 
L 9.28125 70.21875 
z
" id="DejaVuSans-116"/>
      <path d="M 45.40625 46.390625 
L 45.40625 75.984375 
L 54.390625 75.984375 
L 54.390625 0 
L 45.40625 0 
L 45.40625 8.203125 
Q 42.578125 3.328125 38.25 0.953125 
Q 33.9375 -1.421875 27.875 -1.421875 
Q 17.96875 -1.421875 11.734375 6.484375 
Q 5.515625 14.40625 5.515625 27.296875 
Q 5.515625 40.1875 11.734375 48.09375 
Q 17.96875 56 27.875 56 
Q 33.9375 56 38.25 53.625 
Q 42.578125 51.265625 45.40625 46.390625 
z
M 14.796875 27.296875 
Q 14.796875 17.390625 18.875 11.75 
Q 22.953125 6.109375 30.078125 6.109375 
Q 37.203125 6.109375 41.296875 11.75 
Q 45.40625 17.390625 45.40625 27.296875 
Q 45.40625 37.203125 41.296875 42.84375 
Q 37.203125 48.484375 30.078125 48.484375 
Q 22.953125 48.484375 18.875 42.84375 
Q 14.796875 37.203125 14.796875 27.296875 
z
" id="DejaVuSans-100"/>
      <path d="M 11.71875 12.40625 
L 22.015625 12.40625 
L 22.015625 0 
L 11.71875 0 
z
M 11.71875 51.703125 
L 22.015625 51.703125 
L 22.015625 39.3125 
L 11.71875 39.3125 
z
" id="DejaVuSans-58"/>
      <path d="M 2.984375 54.6875 
L 12.5 54.6875 
L 29.59375 8.796875 
L 46.6875 54.6875 
L 56.203125 54.6875 
L 35.6875 0 
L 23.484375 0 
z
" id="DejaVuSans-118"/>
      <path d="M 44.28125 53.078125 
L 44.28125 44.578125 
Q 40.484375 46.53125 36.375 47.5 
Q 32.28125 48.484375 27.875 48.484375 
Q 21.1875 48.484375 17.84375 46.4375 
Q 14.5 44.390625 14.5 40.28125 
Q 14.5 37.15625 16.890625 35.375 
Q 19.28125 33.59375 26.515625 31.984375 
L 29.59375 31.296875 
Q 39.15625 29.25 43.1875 25.515625 
Q 47.21875 21.78125 47.21875 15.09375 
Q 47.21875 7.46875 41.1875 3.015625 
Q 35.15625 -1.421875 24.609375 -1.421875 
Q 20.21875 -1.421875 15.453125 -0.5625 
Q 10.6875 0.296875 5.421875 2 
L 5.421875 11.28125 
Q 10.40625 8.6875 15.234375 7.390625 
Q 20.0625 6.109375 24.8125 6.109375 
Q 31.15625 6.109375 34.5625 8.28125 
Q 37.984375 10.453125 37.984375 14.40625 
Q 37.984375 18.0625 35.515625 20.015625 
Q 33.0625 21.96875 24.703125 23.78125 
L 21.578125 24.515625 
Q 13.234375 26.265625 9.515625 29.90625 
Q 5.8125 33.546875 5.8125 39.890625 
Q 5.8125 47.609375 11.28125 51.796875 
Q 16.75 56 26.8125 56 
Q 31.78125 56 36.171875 55.265625 
Q 40.578125 54.546875 44.28125 53.078125 
z
" id="DejaVuSans-115"/>
      <path d="M 4.203125 54.6875 
L 13.1875 54.6875 
L 24.421875 12.015625 
L 35.59375 54.6875 
L 46.1875 54.6875 
L 57.421875 12.015625 
L 68.609375 54.6875 
L 77.59375 54.6875 
L 63.28125 0 
L 52.6875 0 
L 40.921875 44.828125 
L 29.109375 0 
L 18.5 0 
z
" id="DejaVuSans-119"/>
      <path d="M 9.421875 54.6875 
L 18.40625 54.6875 
L 18.40625 0 
L 9.421875 0 
z
M 9.421875 75.984375 
L 18.40625 75.984375 
L 18.40625 64.59375 
L 9.421875 64.59375 
z
" id="DejaVuSans-105"/>
      <path d="M 54.890625 33.015625 
L 54.890625 0 
L 45.90625 0 
L 45.90625 32.71875 
Q 45.90625 40.484375 42.875 44.328125 
Q 39.84375 48.1875 33.796875 48.1875 
Q 26.515625 48.1875 22.3125 43.546875 
Q 18.109375 38.921875 18.109375 30.90625 
L 18.109375 0 
L 9.078125 0 
L 9.078125 75.984375 
L 18.109375 75.984375 
L 18.109375 46.1875 
Q 21.34375 51.125 25.703125 53.5625 
Q 30.078125 56 35.796875 56 
Q 45.21875 56 50.046875 50.171875 
Q 54.890625 44.34375 54.890625 33.015625 
z
" id="DejaVuSans-104"/>
      <path d="M 40.578125 39.3125 
Q 47.65625 37.796875 51.625 33 
Q 55.609375 28.21875 55.609375 21.1875 
Q 55.609375 10.40625 48.1875 4.484375 
Q 40.765625 -1.421875 27.09375 -1.421875 
Q 22.515625 -1.421875 17.65625 -0.515625 
Q 12.796875 0.390625 7.625 2.203125 
L 7.625 11.71875 
Q 11.71875 9.328125 16.59375 8.109375 
Q 21.484375 6.890625 26.8125 6.890625 
Q 36.078125 6.890625 40.9375 10.546875 
Q 45.796875 14.203125 45.796875 21.1875 
Q 45.796875 27.640625 41.28125 31.265625 
Q 36.765625 34.90625 28.71875 34.90625 
L 20.21875 34.90625 
L 20.21875 43.015625 
L 29.109375 43.015625 
Q 36.375 43.015625 40.234375 45.921875 
Q 44.09375 48.828125 44.09375 54.296875 
Q 44.09375 59.90625 40.109375 62.90625 
Q 36.140625 65.921875 28.71875 65.921875 
Q 24.65625 65.921875 20.015625 65.03125 
Q 15.375 64.15625 9.8125 62.3125 
L 9.8125 71.09375 
Q 15.4375 72.65625 20.34375 73.4375 
Q 25.25 74.21875 29.59375 74.21875 
Q 40.828125 74.21875 47.359375 69.109375 
Q 53.90625 64.015625 53.90625 55.328125 
Q 53.90625 49.265625 50.4375 45.09375 
Q 46.96875 40.921875 40.578125 39.3125 
z
" id="DejaVuSans-51"/>
      <path d="M 37.203125 26.21875 
Q 37.203125 19.234375 40.671875 15.25 
Q 44.140625 11.28125 50.203125 11.28125 
Q 56.203125 11.28125 59.640625 15.28125 
Q 63.09375 19.28125 63.09375 26.21875 
Q 63.09375 33.0625 59.578125 37.078125 
Q 56.0625 41.109375 50.09375 41.109375 
Q 44.1875 41.109375 40.6875 37.109375 
Q 37.203125 33.109375 37.203125 26.21875 
z
M 63.8125 11.625 
Q 60.890625 7.859375 57.109375 6.078125 
Q 53.328125 4.296875 48.296875 4.296875 
Q 39.890625 4.296875 34.640625 10.375 
Q 29.390625 16.453125 29.390625 26.21875 
Q 29.390625 35.984375 34.65625 42.078125 
Q 39.9375 48.1875 48.296875 48.1875 
Q 53.328125 48.1875 57.125 46.359375 
Q 60.9375 44.53125 63.8125 40.828125 
L 63.8125 47.21875 
L 70.796875 47.21875 
L 70.796875 11.28125 
Q 77.9375 12.359375 81.953125 17.796875 
Q 85.984375 23.25 85.984375 31.890625 
Q 85.984375 37.109375 84.4375 41.703125 
Q 82.90625 46.296875 79.78125 50.203125 
Q 74.703125 56.59375 67.40625 59.984375 
Q 60.109375 63.375 51.515625 63.375 
Q 45.515625 63.375 39.984375 61.78125 
Q 34.46875 60.203125 29.78125 57.078125 
Q 22.125 52.09375 17.796875 44.015625 
Q 13.484375 35.9375 13.484375 26.515625 
Q 13.484375 18.75 16.28125 11.953125 
Q 19.09375 5.171875 24.421875 0 
Q 29.546875 -5.078125 36.28125 -7.734375 
Q 43.015625 -10.40625 50.6875 -10.40625 
Q 56.984375 -10.40625 63.0625 -8.28125 
Q 69.140625 -6.15625 74.21875 -2.203125 
L 78.609375 -7.625 
Q 72.515625 -12.359375 65.3125 -14.875 
Q 58.109375 -17.390625 50.6875 -17.390625 
Q 41.65625 -17.390625 33.640625 -14.1875 
Q 25.640625 -10.984375 19.390625 -4.890625 
Q 13.140625 1.21875 9.859375 9.25 
Q 6.59375 17.28125 6.59375 26.515625 
Q 6.59375 35.40625 9.90625 43.453125 
Q 13.234375 51.515625 19.390625 57.625 
Q 25.6875 63.8125 33.9375 67.109375 
Q 42.1875 70.40625 51.421875 70.40625 
Q 61.765625 70.40625 70.625 66.15625 
Q 79.5 61.921875 85.5 54.109375 
Q 89.15625 49.3125 91.078125 43.703125 
Q 93.015625 38.09375 93.015625 32.078125 
Q 93.015625 19.234375 85.25 11.8125 
Q 77.484375 4.390625 63.8125 4.109375 
z
" id="DejaVuSans-64"/>
     </defs>
     <use xlink:href="#DejaVuSans-71"/>
     <use x="77.490234" xlink:href="#DejaVuSans-97"/>
     <use x="138.769531" xlink:href="#DejaVuSans-116"/>
     <use x="177.978516" xlink:href="#DejaVuSans-101"/>
     <use x="239.501953" xlink:href="#DejaVuSans-100"/>
     <use x="302.978516" xlink:href="#DejaVuSans-58"/>
     <use x="336.669922" xlink:href="#DejaVuSans-32"/>
     <use x="368.457031" xlink:href="#DejaVuSans-69"/>
     <use x="431.640625" xlink:href="#DejaVuSans-110"/>
     <use x="495.019531" xlink:href="#DejaVuSans-101"/>
     <use x="556.542969" xlink:href="#DejaVuSans-114"/>
     <use x="595.90625" xlink:href="#DejaVuSans-103"/>
     <use x="659.382812" xlink:href="#DejaVuSans-121"/>
     <use x="718.5625" xlink:href="#DejaVuSans-32"/>
     <use x="750.349609" xlink:href="#DejaVuSans-118"/>
     <use x="809.529297" xlink:href="#DejaVuSans-115"/>
     <use x="861.628906" xlink:href="#DejaVuSans-46"/>
     <use x="893.416016" xlink:href="#DejaVuSans-32"/>
     <use x="925.203125" xlink:href="#DejaVuSans-65"/>
     <use x="991.861328" xlink:href="#DejaVuSans-99"/>
     <use x="1046.841797" xlink:href="#DejaVuSans-99"/>
     <use x="1101.822266" xlink:href="#DejaVuSans-117"/>
     <use x="1165.201172" xlink:href="#DejaVuSans-114"/>
     <use x="1206.314453" xlink:href="#DejaVuSans-97"/>
     <use x="1267.59375" xlink:href="#DejaVuSans-99"/>
     <use x="1322.574219" xlink:href="#DejaVuSans-121"/>
     <use x="1381.753906" xlink:href="#DejaVuSans-32"/>
     <use x="1413.541016" xlink:href="#DejaVuSans-119"/>
     <use x="1495.328125" xlink:href="#DejaVuSans-105"/>
     <use x="1523.111328" xlink:href="#DejaVuSans-116"/>
     <use x="1562.320312" xlink:href="#DejaVuSans-104"/>
     <use x="1625.699219" xlink:href="#DejaVuSans-32"/>
     <use x="1657.486328" xlink:href="#DejaVuSans-51"/>
     <use x="1721.109375" xlink:href="#DejaVuSans-48"/>
     <use x="1784.732422" xlink:href="#DejaVuSans-48"/>
     <use x="1848.355469" xlink:href="#DejaVuSans-32"/>
     <use x="1880.142578" xlink:href="#DejaVuSans-85"/>
     <use x="1953.335938" xlink:href="#DejaVuSans-110"/>
     <use x="2016.714844" xlink:href="#DejaVuSans-105"/>
     <use x="2044.498047" xlink:href="#DejaVuSans-116"/>
     <use x="2083.707031" xlink:href="#DejaVuSans-115"/>
     <use x="2135.806641" xlink:href="#DejaVuSans-32"/>
     <use x="2167.59375" xlink:href="#DejaVuSans-64"/>
     <use x="2267.59375" xlink:href="#DejaVuSans-32"/>
     <use x="2299.380859" xlink:href="#DejaVuSans-48"/>
     <use x="2363.003906" xlink:href="#DejaVuSans-46"/>
     <use x="2394.791016" xlink:href="#DejaVuSans-56"/>
    </g>
   </g>
   <g id="legend_1">
    <g id="patch_7">
     <path d="M 807.989687 493 
L 1021.4 493 
Q 1025.8 493 1025.8 488.6 
L 1025.8 426.21625 
Q 1025.8 421.81625 1021.4 421.81625 
L 807.989687 421.81625 
Q 803.589687 421.81625 803.589687 426.21625 
L 803.589687 488.6 
Q 803.589687 493 807.989687 493 
z
" style="fill:#ffffff;opacity:0.8;stroke:#cccccc;stroke-linejoin:miter;"/>
    </g>
    <g id="line2d_31">
     <path d="M 812.389687 439.632812 
L 856.389687 439.632812 
" style="fill:none;stroke:#1f1f1f;stroke-linecap:square;stroke-width:5;"/>
    </g>
    <g id="line2d_32"/>
    <g id="text_15">
     <!-- Ungated: 1.0 -->
     <g transform="translate(873.989687 447.332812)scale(0.22 -0.22)">
      <use xlink:href="#DejaVuSans-85"/>
      <use x="73.193359" xlink:href="#DejaVuSans-110"/>
      <use x="136.572266" xlink:href="#DejaVuSans-103"/>
      <use x="200.048828" xlink:href="#DejaVuSans-97"/>
      <use x="261.328125" xlink:href="#DejaVuSans-116"/>
      <use x="300.537109" xlink:href="#DejaVuSans-101"/>
      <use x="362.060547" xlink:href="#DejaVuSans-100"/>
      <use x="425.537109" xlink:href="#DejaVuSans-58"/>
      <use x="459.228516" xlink:href="#DejaVuSans-32"/>
      <use x="491.015625" xlink:href="#DejaVuSans-49"/>
      <use x="554.638672" xlink:href="#DejaVuSans-46"/>
      <use x="586.425781" xlink:href="#DejaVuSans-48"/>
     </g>
    </g>
    <g id="line2d_33">
     <path d="M 812.389687 471.924688 
L 856.389687 471.924688 
" style="fill:none;stroke:#4161ff;stroke-linecap:square;stroke-width:5;"/>
    </g>
    <g id="line2d_34"/>
    <g id="text_16">
     <!-- Gated: 0.8 -->
     <g transform="translate(873.989687 479.624687)scale(0.22 -0.22)">
      <use xlink:href="#DejaVuSans-71"/>
      <use x="77.490234" xlink:href="#DejaVuSans-97"/>
      <use x="138.769531" xlink:href="#DejaVuSans-116"/>
      <use x="177.978516" xlink:href="#DejaVuSans-101"/>
      <use x="239.501953" xlink:href="#DejaVuSans-100"/>
      <use x="302.978516" xlink:href="#DejaVuSans-58"/>
      <use x="336.669922" xlink:href="#DejaVuSans-32"/>
      <use x="368.457031" xlink:href="#DejaVuSans-48"/>
      <use x="432.080078" xlink:href="#DejaVuSans-46"/>
      <use x="463.867188" xlink:href="#DejaVuSans-56"/>
     </g>
    </g>
   </g>
  </g>
 </g>
 <defs>
  <clipPath id="pc7cd018d71">
   <rect height="434.88" width="892.8" x="144" y="69.12"/>
  </clipPath>
 </defs>
</svg>
