<?xml version="1.0" encoding="utf-8" standalone="no"?>
<!DOCTYPE svg PUBLIC "-//W3C//DTD SVG 1.1//EN"
  "http://www.w3.org/Graphics/SVG/1.1/DTD/svg11.dtd">
<!-- Created with matplotlib (https://matplotlib.org/) -->
<svg height="576pt" version="1.1" viewBox="0 0 1152 576" width="1152pt" xmlns="http://www.w3.org/2000/svg" xmlns:xlink="http://www.w3.org/1999/xlink">
 <metadata>
  <rdf:RDF xmlns:cc="http://creativecommons.org/ns#" xmlns:dc="http://purl.org/dc/elements/1.1/" xmlns:rdf="http://www.w3.org/1999/02/22-rdf-syntax-ns#">
   <cc:Work>
    <dc:type rdf:resource="http://purl.org/dc/dcmitype/StillImage"/>
    <dc:date>2021-09-12T15:14:36.676641</dc:date>
    <dc:format>image/svg+xml</dc:format>
    <dc:creator>
     <cc:Agent>
      <dc:title>Matplotlib v3.3.4, https://matplotlib.org/</dc:title>
     </cc:Agent>
    </dc:creator>
   </cc:Work>
  </rdf:RDF>
 </metadata>
 <defs>
  <style type="text/css">*{stroke-linecap:butt;stroke-linejoin:round;}</style>
 </defs>
 <g id="figure_1">
  <g id="patch_1">
   <path d="M 0 576 
L 1152 576 
L 1152 0 
L 0 0 
z
" style="fill:#ffffff;"/>
  </g>
  <g id="axes_1">
   <g id="patch_2">
    <path d="M 144 504 
L 1036.8 504 
L 1036.8 69.12 
L 144 69.12 
z
" style="fill:#ffffff;"/>
   </g>
   <g id="matplotlib.axis_1">
    <g id="xtick_1">
     <g id="line2d_1">
      <defs>
       <path d="M 0 0 
L 0 3.5 
" id="m2a1332d260" style="stroke:#000000;stroke-width:0.8;"/>
      </defs>
      <g>
       <use style="stroke:#000000;stroke-width:0.8;" x="144" xlink:href="#m2a1332d260" y="504"/>
      </g>
     </g>
     <g id="text_1">
      <!-- 84 -->
      <g transform="translate(128.73 529.23625)scale(0.24 -0.24)">
       <defs>
        <path d="M 31.78125 34.625 
Q 24.75 34.625 20.71875 30.859375 
Q 16.703125 27.09375 16.703125 20.515625 
Q 16.703125 13.921875 20.71875 10.15625 
Q 24.75 6.390625 31.78125 6.390625 
Q 38.8125 6.390625 42.859375 10.171875 
Q 46.921875 13.96875 46.921875 20.515625 
Q 46.921875 27.09375 42.890625 30.859375 
Q 38.875 34.625 31.78125 34.625 
z
M 21.921875 38.8125 
Q 15.578125 40.375 12.03125 44.71875 
Q 8.5 49.078125 8.5 55.328125 
Q 8.5 64.0625 14.71875 69.140625 
Q 20.953125 74.21875 31.78125 74.21875 
Q 42.671875 74.21875 48.875 69.140625 
Q 55.078125 64.0625 55.078125 55.328125 
Q 55.078125 49.078125 51.53125 44.71875 
Q 48 40.375 41.703125 38.8125 
Q 48.828125 37.15625 52.796875 32.3125 
Q 56.78125 27.484375 56.78125 20.515625 
Q 56.78125 9.90625 50.3125 4.234375 
Q 43.84375 -1.421875 31.78125 -1.421875 
Q 19.734375 -1.421875 13.25 4.234375 
Q 6.78125 9.90625 6.78125 20.515625 
Q 6.78125 27.484375 10.78125 32.3125 
Q 14.796875 37.15625 21.921875 38.8125 
z
M 18.3125 54.390625 
Q 18.3125 48.734375 21.84375 45.5625 
Q 25.390625 42.390625 31.78125 42.390625 
Q 38.140625 42.390625 41.71875 45.5625 
Q 45.3125 48.734375 45.3125 54.390625 
Q 45.3125 60.0625 41.71875 63.234375 
Q 38.140625 66.40625 31.78125 66.40625 
Q 25.390625 66.40625 21.84375 63.234375 
Q 18.3125 60.0625 18.3125 54.390625 
z
" id="DejaVuSans-56"/>
        <path d="M 37.796875 64.3125 
L 12.890625 25.390625 
L 37.796875 25.390625 
z
M 35.203125 72.90625 
L 47.609375 72.90625 
L 47.609375 25.390625 
L 58.015625 25.390625 
L 58.015625 17.1875 
L 47.609375 17.1875 
L 47.609375 0 
L 37.796875 0 
L 37.796875 17.1875 
L 4.890625 17.1875 
L 4.890625 26.703125 
z
" id="DejaVuSans-52"/>
       </defs>
       <use xlink:href="#DejaVuSans-56"/>
       <use x="63.623047" xlink:href="#DejaVuSans-52"/>
      </g>
     </g>
    </g>
    <g id="xtick_2">
     <g id="line2d_2">
      <g>
       <use style="stroke:#000000;stroke-width:0.8;" x="255.6" xlink:href="#m2a1332d260" y="504"/>
      </g>
     </g>
     <g id="text_2">
      <!-- 86 -->
      <g transform="translate(240.33 529.23625)scale(0.24 -0.24)">
       <defs>
        <path d="M 33.015625 40.375 
Q 26.375 40.375 22.484375 35.828125 
Q 18.609375 31.296875 18.609375 23.390625 
Q 18.609375 15.53125 22.484375 10.953125 
Q 26.375 6.390625 33.015625 6.390625 
Q 39.65625 6.390625 43.53125 10.953125 
Q 47.40625 15.53125 47.40625 23.390625 
Q 47.40625 31.296875 43.53125 35.828125 
Q 39.65625 40.375 33.015625 40.375 
z
M 52.59375 71.296875 
L 52.59375 62.3125 
Q 48.875 64.0625 45.09375 64.984375 
Q 41.3125 65.921875 37.59375 65.921875 
Q 27.828125 65.921875 22.671875 59.328125 
Q 17.53125 52.734375 16.796875 39.40625 
Q 19.671875 43.65625 24.015625 45.921875 
Q 28.375 48.1875 33.59375 48.1875 
Q 44.578125 48.1875 50.953125 41.515625 
Q 57.328125 34.859375 57.328125 23.390625 
Q 57.328125 12.15625 50.6875 5.359375 
Q 44.046875 -1.421875 33.015625 -1.421875 
Q 20.359375 -1.421875 13.671875 8.265625 
Q 6.984375 17.96875 6.984375 36.375 
Q 6.984375 53.65625 15.1875 63.9375 
Q 23.390625 74.21875 37.203125 74.21875 
Q 40.921875 74.21875 44.703125 73.484375 
Q 48.484375 72.75 52.59375 71.296875 
z
" id="DejaVuSans-54"/>
       </defs>
       <use xlink:href="#DejaVuSans-56"/>
       <use x="63.623047" xlink:href="#DejaVuSans-54"/>
      </g>
     </g>
    </g>
    <g id="xtick_3">
     <g id="line2d_3">
      <g>
       <use style="stroke:#000000;stroke-width:0.8;" x="367.2" xlink:href="#m2a1332d260" y="504"/>
      </g>
     </g>
     <g id="text_3">
      <!-- 88 -->
      <g transform="translate(351.93 529.23625)scale(0.24 -0.24)">
       <use xlink:href="#DejaVuSans-56"/>
       <use x="63.623047" xlink:href="#DejaVuSans-56"/>
      </g>
     </g>
    </g>
    <g id="xtick_4">
     <g id="line2d_4">
      <g>
       <use style="stroke:#000000;stroke-width:0.8;" x="478.8" xlink:href="#m2a1332d260" y="504"/>
      </g>
     </g>
     <g id="text_4">
      <!-- 90 -->
      <g transform="translate(463.53 529.23625)scale(0.24 -0.24)">
       <defs>
        <path d="M 10.984375 1.515625 
L 10.984375 10.5 
Q 14.703125 8.734375 18.5 7.8125 
Q 22.3125 6.890625 25.984375 6.890625 
Q 35.75 6.890625 40.890625 13.453125 
Q 46.046875 20.015625 46.78125 33.40625 
Q 43.953125 29.203125 39.59375 26.953125 
Q 35.25 24.703125 29.984375 24.703125 
Q 19.046875 24.703125 12.671875 31.3125 
Q 6.296875 37.9375 6.296875 49.421875 
Q 6.296875 60.640625 12.9375 67.421875 
Q 19.578125 74.21875 30.609375 74.21875 
Q 43.265625 74.21875 49.921875 64.515625 
Q 56.59375 54.828125 56.59375 36.375 
Q 56.59375 19.140625 48.40625 8.859375 
Q 40.234375 -1.421875 26.421875 -1.421875 
Q 22.703125 -1.421875 18.890625 -0.6875 
Q 15.09375 0.046875 10.984375 1.515625 
z
M 30.609375 32.421875 
Q 37.25 32.421875 41.125 36.953125 
Q 45.015625 41.5 45.015625 49.421875 
Q 45.015625 57.28125 41.125 61.84375 
Q 37.25 66.40625 30.609375 66.40625 
Q 23.96875 66.40625 20.09375 61.84375 
Q 16.21875 57.28125 16.21875 49.421875 
Q 16.21875 41.5 20.09375 36.953125 
Q 23.96875 32.421875 30.609375 32.421875 
z
" id="DejaVuSans-57"/>
        <path d="M 31.78125 66.40625 
Q 24.171875 66.40625 20.328125 58.90625 
Q 16.5 51.421875 16.5 36.375 
Q 16.5 21.390625 20.328125 13.890625 
Q 24.171875 6.390625 31.78125 6.390625 
Q 39.453125 6.390625 43.28125 13.890625 
Q 47.125 21.390625 47.125 36.375 
Q 47.125 51.421875 43.28125 58.90625 
Q 39.453125 66.40625 31.78125 66.40625 
z
M 31.78125 74.21875 
Q 44.046875 74.21875 50.515625 64.515625 
Q 56.984375 54.828125 56.984375 36.375 
Q 56.984375 17.96875 50.515625 8.265625 
Q 44.046875 -1.421875 31.78125 -1.421875 
Q 19.53125 -1.421875 13.0625 8.265625 
Q 6.59375 17.96875 6.59375 36.375 
Q 6.59375 54.828125 13.0625 64.515625 
Q 19.53125 74.21875 31.78125 74.21875 
z
" id="DejaVuSans-48"/>
       </defs>
       <use xlink:href="#DejaVuSans-57"/>
       <use x="63.623047" xlink:href="#DejaVuSans-48"/>
      </g>
     </g>
    </g>
    <g id="xtick_5">
     <g id="line2d_5">
      <g>
       <use style="stroke:#000000;stroke-width:0.8;" x="590.4" xlink:href="#m2a1332d260" y="504"/>
      </g>
     </g>
     <g id="text_5">
      <!-- 92 -->
      <g transform="translate(575.13 529.23625)scale(0.24 -0.24)">
       <defs>
        <path d="M 19.1875 8.296875 
L 53.609375 8.296875 
L 53.609375 0 
L 7.328125 0 
L 7.328125 8.296875 
Q 12.9375 14.109375 22.625 23.890625 
Q 32.328125 33.6875 34.8125 36.53125 
Q 39.546875 41.84375 41.421875 45.53125 
Q 43.3125 49.21875 43.3125 52.78125 
Q 43.3125 58.59375 39.234375 62.25 
Q 35.15625 65.921875 28.609375 65.921875 
Q 23.96875 65.921875 18.8125 64.3125 
Q 13.671875 62.703125 7.8125 59.421875 
L 7.8125 69.390625 
Q 13.765625 71.78125 18.9375 73 
Q 24.125 74.21875 28.421875 74.21875 
Q 39.75 74.21875 46.484375 68.546875 
Q 53.21875 62.890625 53.21875 53.421875 
Q 53.21875 48.921875 51.53125 44.890625 
Q 49.859375 40.875 45.40625 35.40625 
Q 44.1875 33.984375 37.640625 27.21875 
Q 31.109375 20.453125 19.1875 8.296875 
z
" id="DejaVuSans-50"/>
       </defs>
       <use xlink:href="#DejaVuSans-57"/>
       <use x="63.623047" xlink:href="#DejaVuSans-50"/>
      </g>
     </g>
    </g>
    <g id="xtick_6">
     <g id="line2d_6">
      <g>
       <use style="stroke:#000000;stroke-width:0.8;" x="702" xlink:href="#m2a1332d260" y="504"/>
      </g>
     </g>
     <g id="text_6">
      <!-- 94 -->
      <g transform="translate(686.73 529.23625)scale(0.24 -0.24)">
       <use xlink:href="#DejaVuSans-57"/>
       <use x="63.623047" xlink:href="#DejaVuSans-52"/>
      </g>
     </g>
    </g>
    <g id="xtick_7">
     <g id="line2d_7">
      <g>
       <use style="stroke:#000000;stroke-width:0.8;" x="813.6" xlink:href="#m2a1332d260" y="504"/>
      </g>
     </g>
     <g id="text_7">
      <!-- 96 -->
      <g transform="translate(798.33 529.23625)scale(0.24 -0.24)">
       <use xlink:href="#DejaVuSans-57"/>
       <use x="63.623047" xlink:href="#DejaVuSans-54"/>
      </g>
     </g>
    </g>
    <g id="xtick_8">
     <g id="line2d_8">
      <g>
       <use style="stroke:#000000;stroke-width:0.8;" x="925.2" xlink:href="#m2a1332d260" y="504"/>
      </g>
     </g>
     <g id="text_8">
      <!-- 98 -->
      <g transform="translate(909.93 529.23625)scale(0.24 -0.24)">
       <use xlink:href="#DejaVuSans-57"/>
       <use x="63.623047" xlink:href="#DejaVuSans-56"/>
      </g>
     </g>
    </g>
    <g id="xtick_9">
     <g id="line2d_9">
      <g>
       <use style="stroke:#000000;stroke-width:0.8;" x="1036.8" xlink:href="#m2a1332d260" y="504"/>
      </g>
     </g>
     <g id="text_9">
      <!-- 100 -->
      <g transform="translate(1013.895 529.23625)scale(0.24 -0.24)">
       <defs>
        <path d="M 12.40625 8.296875 
L 28.515625 8.296875 
L 28.515625 63.921875 
L 10.984375 60.40625 
L 10.984375 69.390625 
L 28.421875 72.90625 
L 38.28125 72.90625 
L 38.28125 8.296875 
L 54.390625 8.296875 
L 54.390625 0 
L 12.40625 0 
z
" id="DejaVuSans-49"/>
       </defs>
       <use xlink:href="#DejaVuSans-49"/>
       <use x="63.623047" xlink:href="#DejaVuSans-48"/>
       <use x="127.246094" xlink:href="#DejaVuSans-48"/>
      </g>
     </g>
    </g>
    <g id="text_10">
     <!-- Accuracy /% -->
     <g transform="translate(504.013437 559.503125)scale(0.28 -0.28)">
      <defs>
       <path d="M 34.1875 63.1875 
L 20.796875 26.90625 
L 47.609375 26.90625 
z
M 28.609375 72.90625 
L 39.796875 72.90625 
L 67.578125 0 
L 57.328125 0 
L 50.6875 18.703125 
L 17.828125 18.703125 
L 11.1875 0 
L 0.78125 0 
z
" id="DejaVuSans-65"/>
       <path d="M 48.78125 52.59375 
L 48.78125 44.1875 
Q 44.96875 46.296875 41.140625 47.34375 
Q 37.3125 48.390625 33.40625 48.390625 
Q 24.65625 48.390625 19.8125 42.84375 
Q 14.984375 37.3125 14.984375 27.296875 
Q 14.984375 17.28125 19.8125 11.734375 
Q 24.65625 6.203125 33.40625 6.203125 
Q 37.3125 6.203125 41.140625 7.25 
Q 44.96875 8.296875 48.78125 10.40625 
L 48.78125 2.09375 
Q 45.015625 0.34375 40.984375 -0.53125 
Q 36.96875 -1.421875 32.421875 -1.421875 
Q 20.0625 -1.421875 12.78125 6.34375 
Q 5.515625 14.109375 5.515625 27.296875 
Q 5.515625 40.671875 12.859375 48.328125 
Q 20.21875 56 33.015625 56 
Q 37.15625 56 41.109375 55.140625 
Q 45.0625 54.296875 48.78125 52.59375 
z
" id="DejaVuSans-99"/>
       <path d="M 8.5 21.578125 
L 8.5 54.6875 
L 17.484375 54.6875 
L 17.484375 21.921875 
Q 17.484375 14.15625 20.5 10.265625 
Q 23.53125 6.390625 29.59375 6.390625 
Q 36.859375 6.390625 41.078125 11.03125 
Q 45.3125 15.671875 45.3125 23.6875 
L 45.3125 54.6875 
L 54.296875 54.6875 
L 54.296875 0 
L 45.3125 0 
L 45.3125 8.40625 
Q 42.046875 3.421875 37.71875 1 
Q 33.40625 -1.421875 27.6875 -1.421875 
Q 18.265625 -1.421875 13.375 4.4375 
Q 8.5 10.296875 8.5 21.578125 
z
M 31.109375 56 
z
" id="DejaVuSans-117"/>
       <path d="M 41.109375 46.296875 
Q 39.59375 47.171875 37.8125 47.578125 
Q 36.03125 48 33.890625 48 
Q 26.265625 48 22.1875 43.046875 
Q 18.109375 38.09375 18.109375 28.8125 
L 18.109375 0 
L 9.078125 0 
L 9.078125 54.6875 
L 18.109375 54.6875 
L 18.109375 46.1875 
Q 20.953125 51.171875 25.484375 53.578125 
Q 30.03125 56 36.53125 56 
Q 37.453125 56 38.578125 55.875 
Q 39.703125 55.765625 41.0625 55.515625 
z
" id="DejaVuSans-114"/>
       <path d="M 34.28125 27.484375 
Q 23.390625 27.484375 19.1875 25 
Q 14.984375 22.515625 14.984375 16.5 
Q 14.984375 11.71875 18.140625 8.90625 
Q 21.296875 6.109375 26.703125 6.109375 
Q 34.1875 6.109375 38.703125 11.40625 
Q 43.21875 16.703125 43.21875 25.484375 
L 43.21875 27.484375 
z
M 52.203125 31.203125 
L 52.203125 0 
L 43.21875 0 
L 43.21875 8.296875 
Q 40.140625 3.328125 35.546875 0.953125 
Q 30.953125 -1.421875 24.3125 -1.421875 
Q 15.921875 -1.421875 10.953125 3.296875 
Q 6 8.015625 6 15.921875 
Q 6 25.140625 12.171875 29.828125 
Q 18.359375 34.515625 30.609375 34.515625 
L 43.21875 34.515625 
L 43.21875 35.40625 
Q 43.21875 41.609375 39.140625 45 
Q 35.0625 48.390625 27.6875 48.390625 
Q 23 48.390625 18.546875 47.265625 
Q 14.109375 46.140625 10.015625 43.890625 
L 10.015625 52.203125 
Q 14.9375 54.109375 19.578125 55.046875 
Q 24.21875 56 28.609375 56 
Q 40.484375 56 46.34375 49.84375 
Q 52.203125 43.703125 52.203125 31.203125 
z
" id="DejaVuSans-97"/>
       <path d="M 32.171875 -5.078125 
Q 28.375 -14.84375 24.75 -17.8125 
Q 21.140625 -20.796875 15.09375 -20.796875 
L 7.90625 -20.796875 
L 7.90625 -13.28125 
L 13.1875 -13.28125 
Q 16.890625 -13.28125 18.9375 -11.515625 
Q 21 -9.765625 23.484375 -3.21875 
L 25.09375 0.875 
L 2.984375 54.6875 
L 12.5 54.6875 
L 29.59375 11.921875 
L 46.6875 54.6875 
L 56.203125 54.6875 
z
" id="DejaVuSans-121"/>
       <path id="DejaVuSans-32"/>
       <path d="M 25.390625 72.90625 
L 33.6875 72.90625 
L 8.296875 -9.28125 
L 0 -9.28125 
z
" id="DejaVuSans-47"/>
       <path d="M 72.703125 32.078125 
Q 68.453125 32.078125 66.03125 28.46875 
Q 63.625 24.859375 63.625 18.40625 
Q 63.625 12.0625 66.03125 8.421875 
Q 68.453125 4.78125 72.703125 4.78125 
Q 76.859375 4.78125 79.265625 8.421875 
Q 81.6875 12.0625 81.6875 18.40625 
Q 81.6875 24.8125 79.265625 28.4375 
Q 76.859375 32.078125 72.703125 32.078125 
z
M 72.703125 38.28125 
Q 80.421875 38.28125 84.953125 32.90625 
Q 89.5 27.546875 89.5 18.40625 
Q 89.5 9.28125 84.9375 3.921875 
Q 80.375 -1.421875 72.703125 -1.421875 
Q 64.890625 -1.421875 60.34375 3.921875 
Q 55.8125 9.28125 55.8125 18.40625 
Q 55.8125 27.59375 60.375 32.9375 
Q 64.9375 38.28125 72.703125 38.28125 
z
M 22.3125 68.015625 
Q 18.109375 68.015625 15.6875 64.375 
Q 13.28125 60.75 13.28125 54.390625 
Q 13.28125 47.953125 15.671875 44.328125 
Q 18.0625 40.71875 22.3125 40.71875 
Q 26.5625 40.71875 28.96875 44.328125 
Q 31.390625 47.953125 31.390625 54.390625 
Q 31.390625 60.6875 28.953125 64.34375 
Q 26.515625 68.015625 22.3125 68.015625 
z
M 66.40625 74.21875 
L 74.21875 74.21875 
L 28.609375 -1.421875 
L 20.796875 -1.421875 
z
M 22.3125 74.21875 
Q 30.03125 74.21875 34.609375 68.875 
Q 39.203125 63.53125 39.203125 54.390625 
Q 39.203125 45.171875 34.640625 39.84375 
Q 30.078125 34.515625 22.3125 34.515625 
Q 14.546875 34.515625 10.03125 39.859375 
Q 5.515625 45.21875 5.515625 54.390625 
Q 5.515625 63.484375 10.046875 68.84375 
Q 14.59375 74.21875 22.3125 74.21875 
z
" id="DejaVuSans-37"/>
      </defs>
      <use xlink:href="#DejaVuSans-65"/>
      <use x="66.658203" xlink:href="#DejaVuSans-99"/>
      <use x="121.638672" xlink:href="#DejaVuSans-99"/>
      <use x="176.619141" xlink:href="#DejaVuSans-117"/>
      <use x="239.998047" xlink:href="#DejaVuSans-114"/>
      <use x="281.111328" xlink:href="#DejaVuSans-97"/>
      <use x="342.390625" xlink:href="#DejaVuSans-99"/>
      <use x="397.371094" xlink:href="#DejaVuSans-121"/>
      <use x="456.550781" xlink:href="#DejaVuSans-32"/>
      <use x="488.337891" xlink:href="#DejaVuSans-47"/>
      <use x="522.029297" xlink:href="#DejaVuSans-37"/>
     </g>
    </g>
   </g>
   <g id="matplotlib.axis_2">
    <g id="ytick_1">
     <g id="line2d_10">
      <defs>
       <path d="M 0 0 
L -3.5 0 
" id="m03c58d461c" style="stroke:#000000;stroke-width:0.8;"/>
      </defs>
      <g>
       <use style="stroke:#000000;stroke-width:0.8;" x="144" xlink:href="#m03c58d461c" y="444.362283"/>
      </g>
     </g>
     <g id="text_11">
      <!-- $\mathdefault{10^{1}}$ -->
      <g transform="translate(94.76 453.480408)scale(0.24 -0.24)">
       <use transform="translate(0 0.684375)" xlink:href="#DejaVuSans-49"/>
       <use transform="translate(63.623047 0.684375)" xlink:href="#DejaVuSans-48"/>
       <use transform="translate(128.203125 38.965625)scale(0.7)" xlink:href="#DejaVuSans-49"/>
      </g>
     </g>
    </g>
    <g id="ytick_2">
     <g id="line2d_11">
      <g>
       <use style="stroke:#000000;stroke-width:0.8;" x="144" xlink:href="#m03c58d461c" y="359.04"/>
      </g>
     </g>
     <g id="text_12">
      <!-- $\mathdefault{10^{2}}$ -->
      <g transform="translate(94.76 368.158125)scale(0.24 -0.24)">
       <use transform="translate(0 0.765625)" xlink:href="#DejaVuSans-49"/>
       <use transform="translate(63.623047 0.765625)" xlink:href="#DejaVuSans-48"/>
       <use transform="translate(128.203125 39.046875)scale(0.7)" xlink:href="#DejaVuSans-50"/>
      </g>
     </g>
    </g>
    <g id="ytick_3">
     <g id="line2d_12">
      <g>
       <use style="stroke:#000000;stroke-width:0.8;" x="144" xlink:href="#m03c58d461c" y="273.717717"/>
      </g>
     </g>
     <g id="text_13">
      <!-- $\mathdefault{10^{3}}$ -->
      <g transform="translate(94.76 282.835842)scale(0.24 -0.24)">
       <defs>
        <path d="M 40.578125 39.3125 
Q 47.65625 37.796875 51.625 33 
Q 55.609375 28.21875 55.609375 21.1875 
Q 55.609375 10.40625 48.1875 4.484375 
Q 40.765625 -1.421875 27.09375 -1.421875 
Q 22.515625 -1.421875 17.65625 -0.515625 
Q 12.796875 0.390625 7.625 2.203125 
L 7.625 11.71875 
Q 11.71875 9.328125 16.59375 8.109375 
Q 21.484375 6.890625 26.8125 6.890625 
Q 36.078125 6.890625 40.9375 10.546875 
Q 45.796875 14.203125 45.796875 21.1875 
Q 45.796875 27.640625 41.28125 31.265625 
Q 36.765625 34.90625 28.71875 34.90625 
L 20.21875 34.90625 
L 20.21875 43.015625 
L 29.109375 43.015625 
Q 36.375 43.015625 40.234375 45.921875 
Q 44.09375 48.828125 44.09375 54.296875 
Q 44.09375 59.90625 40.109375 62.90625 
Q 36.140625 65.921875 28.71875 65.921875 
Q 24.65625 65.921875 20.015625 65.03125 
Q 15.375 64.15625 9.8125 62.3125 
L 9.8125 71.09375 
Q 15.4375 72.65625 20.34375 73.4375 
Q 25.25 74.21875 29.59375 74.21875 
Q 40.828125 74.21875 47.359375 69.109375 
Q 53.90625 64.015625 53.90625 55.328125 
Q 53.90625 49.265625 50.4375 45.09375 
Q 46.96875 40.921875 40.578125 39.3125 
z
" id="DejaVuSans-51"/>
       </defs>
       <use transform="translate(0 0.765625)" xlink:href="#DejaVuSans-49"/>
       <use transform="translate(63.623047 0.765625)" xlink:href="#DejaVuSans-48"/>
       <use transform="translate(128.203125 39.046875)scale(0.7)" xlink:href="#DejaVuSans-51"/>
      </g>
     </g>
    </g>
    <g id="ytick_4">
     <g id="line2d_13">
      <g>
       <use style="stroke:#000000;stroke-width:0.8;" x="144" xlink:href="#m03c58d461c" y="188.395433"/>
      </g>
     </g>
     <g id="text_14">
      <!-- $\mathdefault{10^{4}}$ -->
      <g transform="translate(94.76 197.513558)scale(0.24 -0.24)">
       <use transform="translate(0 0.684375)" xlink:href="#DejaVuSans-49"/>
       <use transform="translate(63.623047 0.684375)" xlink:href="#DejaVuSans-48"/>
       <use transform="translate(128.203125 38.965625)scale(0.7)" xlink:href="#DejaVuSans-52"/>
      </g>
     </g>
    </g>
    <g id="ytick_5">
     <g id="line2d_14">
      <g>
       <use style="stroke:#000000;stroke-width:0.8;" x="144" xlink:href="#m03c58d461c" y="103.07315"/>
      </g>
     </g>
     <g id="text_15">
      <!-- $\mathdefault{10^{5}}$ -->
      <g transform="translate(94.76 112.191275)scale(0.24 -0.24)">
       <defs>
        <path d="M 10.796875 72.90625 
L 49.515625 72.90625 
L 49.515625 64.59375 
L 19.828125 64.59375 
L 19.828125 46.734375 
Q 21.96875 47.46875 24.109375 47.828125 
Q 26.265625 48.1875 28.421875 48.1875 
Q 40.625 48.1875 47.75 41.5 
Q 54.890625 34.8125 54.890625 23.390625 
Q 54.890625 11.625 47.5625 5.09375 
Q 40.234375 -1.421875 26.90625 -1.421875 
Q 22.3125 -1.421875 17.546875 -0.640625 
Q 12.796875 0.140625 7.71875 1.703125 
L 7.71875 11.625 
Q 12.109375 9.234375 16.796875 8.0625 
Q 21.484375 6.890625 26.703125 6.890625 
Q 35.15625 6.890625 40.078125 11.328125 
Q 45.015625 15.765625 45.015625 23.390625 
Q 45.015625 31 40.078125 35.4375 
Q 35.15625 39.890625 26.703125 39.890625 
Q 22.75 39.890625 18.8125 39.015625 
Q 14.890625 38.140625 10.796875 36.28125 
z
" id="DejaVuSans-53"/>
       </defs>
       <use transform="translate(0 0.684375)" xlink:href="#DejaVuSans-49"/>
       <use transform="translate(63.623047 0.684375)" xlink:href="#DejaVuSans-48"/>
       <use transform="translate(128.203125 38.965625)scale(0.7)" xlink:href="#DejaVuSans-53"/>
      </g>
     </g>
    </g>
    <g id="ytick_6">
     <g id="line2d_15">
      <defs>
       <path d="M 0 0 
L -2 0 
" id="m63d19dc8e9" style="stroke:#000000;stroke-width:0.6;"/>
      </defs>
      <g>
       <use style="stroke:#000000;stroke-width:0.6;" x="144" xlink:href="#m63d19dc8e9" y="504"/>
      </g>
     </g>
    </g>
    <g id="ytick_7">
     <g id="line2d_16">
      <g>
       <use style="stroke:#000000;stroke-width:0.6;" x="144" xlink:href="#m63d19dc8e9" y="488.975492"/>
      </g>
     </g>
    </g>
    <g id="ytick_8">
     <g id="line2d_17">
      <g>
       <use style="stroke:#000000;stroke-width:0.6;" x="144" xlink:href="#m63d19dc8e9" y="478.315433"/>
      </g>
     </g>
    </g>
    <g id="ytick_9">
     <g id="line2d_18">
      <g>
       <use style="stroke:#000000;stroke-width:0.6;" x="144" xlink:href="#m63d19dc8e9" y="470.04685"/>
      </g>
     </g>
    </g>
    <g id="ytick_10">
     <g id="line2d_19">
      <g>
       <use style="stroke:#000000;stroke-width:0.6;" x="144" xlink:href="#m63d19dc8e9" y="463.290925"/>
      </g>
     </g>
    </g>
    <g id="ytick_11">
     <g id="line2d_20">
      <g>
       <use style="stroke:#000000;stroke-width:0.6;" x="144" xlink:href="#m63d19dc8e9" y="457.578872"/>
      </g>
     </g>
    </g>
    <g id="ytick_12">
     <g id="line2d_21">
      <g>
       <use style="stroke:#000000;stroke-width:0.6;" x="144" xlink:href="#m63d19dc8e9" y="452.630867"/>
      </g>
     </g>
    </g>
    <g id="ytick_13">
     <g id="line2d_22">
      <g>
       <use style="stroke:#000000;stroke-width:0.6;" x="144" xlink:href="#m63d19dc8e9" y="448.266417"/>
      </g>
     </g>
    </g>
    <g id="ytick_14">
     <g id="line2d_23">
      <g>
       <use style="stroke:#000000;stroke-width:0.6;" x="144" xlink:href="#m63d19dc8e9" y="418.677717"/>
      </g>
     </g>
    </g>
    <g id="ytick_15">
     <g id="line2d_24">
      <g>
       <use style="stroke:#000000;stroke-width:0.6;" x="144" xlink:href="#m63d19dc8e9" y="403.653208"/>
      </g>
     </g>
    </g>
    <g id="ytick_16">
     <g id="line2d_25">
      <g>
       <use style="stroke:#000000;stroke-width:0.6;" x="144" xlink:href="#m63d19dc8e9" y="392.99315"/>
      </g>
     </g>
    </g>
    <g id="ytick_17">
     <g id="line2d_26">
      <g>
       <use style="stroke:#000000;stroke-width:0.6;" x="144" xlink:href="#m63d19dc8e9" y="384.724567"/>
      </g>
     </g>
    </g>
    <g id="ytick_18">
     <g id="line2d_27">
      <g>
       <use style="stroke:#000000;stroke-width:0.6;" x="144" xlink:href="#m63d19dc8e9" y="377.968642"/>
      </g>
     </g>
    </g>
    <g id="ytick_19">
     <g id="line2d_28">
      <g>
       <use style="stroke:#000000;stroke-width:0.6;" x="144" xlink:href="#m63d19dc8e9" y="372.256589"/>
      </g>
     </g>
    </g>
    <g id="ytick_20">
     <g id="line2d_29">
      <g>
       <use style="stroke:#000000;stroke-width:0.6;" x="144" xlink:href="#m63d19dc8e9" y="367.308584"/>
      </g>
     </g>
    </g>
    <g id="ytick_21">
     <g id="line2d_30">
      <g>
       <use style="stroke:#000000;stroke-width:0.6;" x="144" xlink:href="#m63d19dc8e9" y="362.944134"/>
      </g>
     </g>
    </g>
    <g id="ytick_22">
     <g id="line2d_31">
      <g>
       <use style="stroke:#000000;stroke-width:0.6;" x="144" xlink:href="#m63d19dc8e9" y="333.355433"/>
      </g>
     </g>
    </g>
    <g id="ytick_23">
     <g id="line2d_32">
      <g>
       <use style="stroke:#000000;stroke-width:0.6;" x="144" xlink:href="#m63d19dc8e9" y="318.330925"/>
      </g>
     </g>
    </g>
    <g id="ytick_24">
     <g id="line2d_33">
      <g>
       <use style="stroke:#000000;stroke-width:0.6;" x="144" xlink:href="#m63d19dc8e9" y="307.670867"/>
      </g>
     </g>
    </g>
    <g id="ytick_25">
     <g id="line2d_34">
      <g>
       <use style="stroke:#000000;stroke-width:0.6;" x="144" xlink:href="#m63d19dc8e9" y="299.402283"/>
      </g>
     </g>
    </g>
    <g id="ytick_26">
     <g id="line2d_35">
      <g>
       <use style="stroke:#000000;stroke-width:0.6;" x="144" xlink:href="#m63d19dc8e9" y="292.646359"/>
      </g>
     </g>
    </g>
    <g id="ytick_27">
     <g id="line2d_36">
      <g>
       <use style="stroke:#000000;stroke-width:0.6;" x="144" xlink:href="#m63d19dc8e9" y="286.934306"/>
      </g>
     </g>
    </g>
    <g id="ytick_28">
     <g id="line2d_37">
      <g>
       <use style="stroke:#000000;stroke-width:0.6;" x="144" xlink:href="#m63d19dc8e9" y="281.9863"/>
      </g>
     </g>
    </g>
    <g id="ytick_29">
     <g id="line2d_38">
      <g>
       <use style="stroke:#000000;stroke-width:0.6;" x="144" xlink:href="#m63d19dc8e9" y="277.62185"/>
      </g>
     </g>
    </g>
    <g id="ytick_30">
     <g id="line2d_39">
      <g>
       <use style="stroke:#000000;stroke-width:0.6;" x="144" xlink:href="#m63d19dc8e9" y="248.03315"/>
      </g>
     </g>
    </g>
    <g id="ytick_31">
     <g id="line2d_40">
      <g>
       <use style="stroke:#000000;stroke-width:0.6;" x="144" xlink:href="#m63d19dc8e9" y="233.008642"/>
      </g>
     </g>
    </g>
    <g id="ytick_32">
     <g id="line2d_41">
      <g>
       <use style="stroke:#000000;stroke-width:0.6;" x="144" xlink:href="#m63d19dc8e9" y="222.348584"/>
      </g>
     </g>
    </g>
    <g id="ytick_33">
     <g id="line2d_42">
      <g>
       <use style="stroke:#000000;stroke-width:0.6;" x="144" xlink:href="#m63d19dc8e9" y="214.08"/>
      </g>
     </g>
    </g>
    <g id="ytick_34">
     <g id="line2d_43">
      <g>
       <use style="stroke:#000000;stroke-width:0.6;" x="144" xlink:href="#m63d19dc8e9" y="207.324075"/>
      </g>
     </g>
    </g>
    <g id="ytick_35">
     <g id="line2d_44">
      <g>
       <use style="stroke:#000000;stroke-width:0.6;" x="144" xlink:href="#m63d19dc8e9" y="201.612022"/>
      </g>
     </g>
    </g>
    <g id="ytick_36">
     <g id="line2d_45">
      <g>
       <use style="stroke:#000000;stroke-width:0.6;" x="144" xlink:href="#m63d19dc8e9" y="196.664017"/>
      </g>
     </g>
    </g>
    <g id="ytick_37">
     <g id="line2d_46">
      <g>
       <use style="stroke:#000000;stroke-width:0.6;" x="144" xlink:href="#m63d19dc8e9" y="192.299567"/>
      </g>
     </g>
    </g>
    <g id="ytick_38">
     <g id="line2d_47">
      <g>
       <use style="stroke:#000000;stroke-width:0.6;" x="144" xlink:href="#m63d19dc8e9" y="162.710867"/>
      </g>
     </g>
    </g>
    <g id="ytick_39">
     <g id="line2d_48">
      <g>
       <use style="stroke:#000000;stroke-width:0.6;" x="144" xlink:href="#m63d19dc8e9" y="147.686359"/>
      </g>
     </g>
    </g>
    <g id="ytick_40">
     <g id="line2d_49">
      <g>
       <use style="stroke:#000000;stroke-width:0.6;" x="144" xlink:href="#m63d19dc8e9" y="137.0263"/>
      </g>
     </g>
    </g>
    <g id="ytick_41">
     <g id="line2d_50">
      <g>
       <use style="stroke:#000000;stroke-width:0.6;" x="144" xlink:href="#m63d19dc8e9" y="128.757717"/>
      </g>
     </g>
    </g>
    <g id="ytick_42">
     <g id="line2d_51">
      <g>
       <use style="stroke:#000000;stroke-width:0.6;" x="144" xlink:href="#m63d19dc8e9" y="122.001792"/>
      </g>
     </g>
    </g>
    <g id="ytick_43">
     <g id="line2d_52">
      <g>
       <use style="stroke:#000000;stroke-width:0.6;" x="144" xlink:href="#m63d19dc8e9" y="116.289739"/>
      </g>
     </g>
    </g>
    <g id="ytick_44">
     <g id="line2d_53">
      <g>
       <use style="stroke:#000000;stroke-width:0.6;" x="144" xlink:href="#m63d19dc8e9" y="111.341734"/>
      </g>
     </g>
    </g>
    <g id="ytick_45">
     <g id="line2d_54">
      <g>
       <use style="stroke:#000000;stroke-width:0.6;" x="144" xlink:href="#m63d19dc8e9" y="106.977284"/>
      </g>
     </g>
    </g>
    <g id="ytick_46">
     <g id="line2d_55">
      <g>
       <use style="stroke:#000000;stroke-width:0.6;" x="144" xlink:href="#m63d19dc8e9" y="77.388584"/>
      </g>
     </g>
    </g>
    <g id="text_16">
     <!-- Energy /A.U. -->
     <g transform="translate(84.936875 373.22)rotate(-90)scale(0.28 -0.28)">
      <defs>
       <path d="M 9.8125 72.90625 
L 55.90625 72.90625 
L 55.90625 64.59375 
L 19.671875 64.59375 
L 19.671875 43.015625 
L 54.390625 43.015625 
L 54.390625 34.71875 
L 19.671875 34.71875 
L 19.671875 8.296875 
L 56.78125 8.296875 
L 56.78125 0 
L 9.8125 0 
z
" id="DejaVuSans-69"/>
       <path d="M 54.890625 33.015625 
L 54.890625 0 
L 45.90625 0 
L 45.90625 32.71875 
Q 45.90625 40.484375 42.875 44.328125 
Q 39.84375 48.1875 33.796875 48.1875 
Q 26.515625 48.1875 22.3125 43.546875 
Q 18.109375 38.921875 18.109375 30.90625 
L 18.109375 0 
L 9.078125 0 
L 9.078125 54.6875 
L 18.109375 54.6875 
L 18.109375 46.1875 
Q 21.34375 51.125 25.703125 53.5625 
Q 30.078125 56 35.796875 56 
Q 45.21875 56 50.046875 50.171875 
Q 54.890625 44.34375 54.890625 33.015625 
z
" id="DejaVuSans-110"/>
       <path d="M 56.203125 29.59375 
L 56.203125 25.203125 
L 14.890625 25.203125 
Q 15.484375 15.921875 20.484375 11.0625 
Q 25.484375 6.203125 34.421875 6.203125 
Q 39.59375 6.203125 44.453125 7.46875 
Q 49.3125 8.734375 54.109375 11.28125 
L 54.109375 2.78125 
Q 49.265625 0.734375 44.1875 -0.34375 
Q 39.109375 -1.421875 33.890625 -1.421875 
Q 20.796875 -1.421875 13.15625 6.1875 
Q 5.515625 13.8125 5.515625 26.8125 
Q 5.515625 40.234375 12.765625 48.109375 
Q 20.015625 56 32.328125 56 
Q 43.359375 56 49.78125 48.890625 
Q 56.203125 41.796875 56.203125 29.59375 
z
M 47.21875 32.234375 
Q 47.125 39.59375 43.09375 43.984375 
Q 39.0625 48.390625 32.421875 48.390625 
Q 24.90625 48.390625 20.390625 44.140625 
Q 15.875 39.890625 15.1875 32.171875 
z
" id="DejaVuSans-101"/>
       <path d="M 45.40625 27.984375 
Q 45.40625 37.75 41.375 43.109375 
Q 37.359375 48.484375 30.078125 48.484375 
Q 22.859375 48.484375 18.828125 43.109375 
Q 14.796875 37.75 14.796875 27.984375 
Q 14.796875 18.265625 18.828125 12.890625 
Q 22.859375 7.515625 30.078125 7.515625 
Q 37.359375 7.515625 41.375 12.890625 
Q 45.40625 18.265625 45.40625 27.984375 
z
M 54.390625 6.78125 
Q 54.390625 -7.171875 48.1875 -13.984375 
Q 42 -20.796875 29.203125 -20.796875 
Q 24.46875 -20.796875 20.265625 -20.09375 
Q 16.0625 -19.390625 12.109375 -17.921875 
L 12.109375 -9.1875 
Q 16.0625 -11.328125 19.921875 -12.34375 
Q 23.78125 -13.375 27.78125 -13.375 
Q 36.625 -13.375 41.015625 -8.765625 
Q 45.40625 -4.15625 45.40625 5.171875 
L 45.40625 9.625 
Q 42.625 4.78125 38.28125 2.390625 
Q 33.9375 0 27.875 0 
Q 17.828125 0 11.671875 7.65625 
Q 5.515625 15.328125 5.515625 27.984375 
Q 5.515625 40.671875 11.671875 48.328125 
Q 17.828125 56 27.875 56 
Q 33.9375 56 38.28125 53.609375 
Q 42.625 51.21875 45.40625 46.390625 
L 45.40625 54.6875 
L 54.390625 54.6875 
z
" id="DejaVuSans-103"/>
       <path d="M 10.6875 12.40625 
L 21 12.40625 
L 21 0 
L 10.6875 0 
z
" id="DejaVuSans-46"/>
       <path d="M 8.6875 72.90625 
L 18.609375 72.90625 
L 18.609375 28.609375 
Q 18.609375 16.890625 22.84375 11.734375 
Q 27.09375 6.59375 36.625 6.59375 
Q 46.09375 6.59375 50.34375 11.734375 
Q 54.59375 16.890625 54.59375 28.609375 
L 54.59375 72.90625 
L 64.5 72.90625 
L 64.5 27.390625 
Q 64.5 13.140625 57.4375 5.859375 
Q 50.390625 -1.421875 36.625 -1.421875 
Q 22.796875 -1.421875 15.734375 5.859375 
Q 8.6875 13.140625 8.6875 27.390625 
z
" id="DejaVuSans-85"/>
      </defs>
      <use xlink:href="#DejaVuSans-69"/>
      <use x="63.183594" xlink:href="#DejaVuSans-110"/>
      <use x="126.5625" xlink:href="#DejaVuSans-101"/>
      <use x="188.085938" xlink:href="#DejaVuSans-114"/>
      <use x="227.449219" xlink:href="#DejaVuSans-103"/>
      <use x="290.925781" xlink:href="#DejaVuSans-121"/>
      <use x="350.105469" xlink:href="#DejaVuSans-32"/>
      <use x="381.892578" xlink:href="#DejaVuSans-47"/>
      <use x="415.583984" xlink:href="#DejaVuSans-65"/>
      <use x="482.242188" xlink:href="#DejaVuSans-46"/>
      <use x="514.029297" xlink:href="#DejaVuSans-85"/>
      <use x="587.222656" xlink:href="#DejaVuSans-46"/>
     </g>
    </g>
   </g>
   <g id="line2d_56">
    <path clip-path="url(#p964380aa1b)" d="M 191.43 228.919168 
L 340.416 206.349331 
L 456.48 193.798668 
L 496.656 185.188392 
L 508.932 178.516736 
L 525.114 173.178575 
L 559.71 168.590097 
L 577.566 164.695953 
L 588.726 161.194421 
L 593.19 158.106542 
L 613.278 155.160659 
L 616.626 152.664132 
L 632.25 150.305336 
L 635.04 148.20211 
L 642.294 146.242767 
L 660.708 144.48045 
L 644.526 142.764969 
L 665.73 141.152691 
L 662.94 139.581068 
L 682.47 138.203039 
L 687.492 136.836142 
L 690.84 135.471724 
L 700.326 134.254044 
L 703.674 133.106385 
L 715.392 132.028794 
L 718.182 130.978461 
L 723.204 129.918403 
L 718.74 128.94275 
L 729.9 128.00211 
L 734.922 127.099078 
L 724.878 126.170794 
L 734.364 125.332105 
L 752.778 124.564165 
L 745.524 123.759497 
L 754.452 122.994778 
L 768.96 122.241757 
L 761.706 121.52965 
L 772.308 120.885609 
L 772.866 120.189801 
L 777.888 119.515216 
L 773.982 118.908642 
L 783.468 118.290351 
L 780.678 117.72391 
L 777.33 117.168791 
L 790.722 116.577698 
L 791.28 116.022066 
L 800.766 115.460301 
L 805.788 114.929342 
L 799.092 114.421078 
L 806.346 113.90985 
L 800.208 113.432284 
L 806.346 112.961218 
L 802.998 112.496267 
L 812.484 112.040602 
L 817.506 111.580779 
L 810.252 111.104312 
L 820.296 110.680414 
L 823.086 110.276847 
L 822.528 109.83325 
L 832.014 109.416153 
L 825.318 109.028609 
L 836.478 108.264228 
L 833.13 107.877396 
L 832.572 107.505599 
L 840.384 107.141595 
L 835.92 106.777199 
L 844.29 106.414105 
L 839.268 106.060777 
L 842.058 105.730288 
L 838.71 105.38693 
L 847.638 104.711769 
L 848.196 104.391294 
L 853.776 104.069168 
L 845.964 103.47011 
L 848.196 103.161721 
L 855.45 102.875984 
L 846.522 102.591331 
L 857.682 102.284167 
L 854.334 102.005021 
L 858.798 101.711327 
L 858.24 101.42001 
L 855.45 101.158787 
L 864.936 100.616323 
L 860.472 100.328977 
L 857.124 99.823182 
L 862.704 99.560311 
L 862.146 99.312084 
L 863.262 99.056368 
L 872.19 98.806511 
L 867.726 98.566535 
L 872.748 98.315209 
L 871.632 98.080502 
L 877.212 97.855442 
L 863.82 97.620157 
L 878.328 97.393686 
L 869.4 97.173411 
L 871.632 96.950719 
L 869.4 96.724763 
L 878.328 96.483888 
L 879.444 96.276739 
L 882.234 96.066788 
L 871.074 95.625268 
L 876.654 95.423899 
L 875.538 95.211706 
L 882.792 94.997482 
L 880.002 94.799225 
L 872.19 94.600317 
L 883.35 94.398747 
L 878.328 94.204418 
L 883.908 93.997922 
L 883.908 93.812936 
L 882.234 93.612927 
L 887.256 93.434799 
L 880.002 93.253214 
L 887.814 93.061291 
L 890.046 92.870797 
L 886.698 92.695981 
L 888.372 92.50505 
L 885.582 92.321669 
L 890.604 92.1435 
L 887.814 91.968874 
L 898.416 91.630785 
L 891.72 91.461651 
L 897.3 91.293754 
L 898.416 90.970381 
L 888.372 90.807821 
L 898.974 90.641928 
L 894.51 90.484876 
L 895.626 90.324454 
L 892.278 90.162252 
L 895.626 90.001133 
L 891.162 89.845511 
L 891.72 89.692275 
L 898.416 89.538226 
L 899.532 89.380773 
L 898.974 89.227592 
L 899.532 89.086755 
L 902.322 88.924578 
L 898.974 88.651767 
L 890.604 88.365543 
L 902.88 88.219449 
L 903.438 88.061704 
L 904.554 87.898854 
L 907.902 87.761725 
L 907.344 87.632205 
L 903.996 87.49973 
L 904.554 87.366106 
L 902.322 87.230733 
L 902.322 87.091366 
L 898.974 86.953828 
L 904.554 86.822088 
L 895.626 86.677423 
L 909.576 86.534402 
L 896.742 86.282558 
L 903.996 86.03285 
L 903.438 85.910808 
L 907.344 85.664269 
L 904.554 85.550266 
L 904.554 85.431834 
L 911.808 85.175372 
L 905.112 85.043247 
L 905.67 84.919011 
L 909.018 84.798783 
L 907.902 84.696014 
L 910.692 84.459659 
L 910.134 84.342828 
L 910.692 84.229009 
L 902.322 84.108986 
L 913.482 83.886082 
L 907.344 83.768423 
L 912.366 83.565516 
L 907.902 83.435436 
L 913.482 83.330785 
L 909.576 83.217455 
L 916.272 83.110619 
L 909.018 82.807448 
L 912.924 82.698942 
L 912.366 82.594643 
L 904.554 82.377105 
L 911.808 82.165668 
L 912.366 82.055112 
L 913.482 81.956495 
L 910.134 81.85828 
L 916.83 81.769293 
L 910.134 81.477999 
L 917.388 81.370839 
L 912.924 81.266226 
L 914.598 81.16576 
L 907.344 81.068258 
L 914.04 80.877682 
L 918.504 80.780392 
L 914.598 80.595259 
L 915.714 80.501287 
L 915.156 80.40924 
L 915.714 80.315175 
L 912.924 80.228095 
L 917.388 79.968157 
L 916.83 79.886041 
L 920.736 79.785299 
L 917.388 79.697106 
L 924.642 79.521942 
L 914.598 79.27283 
L 915.714 79.190102 
L 920.736 79.024304 
L 919.62 78.932465 
L 912.924 78.672278 
L 920.178 78.428954 
L 915.156 78.271585 
L 916.83 78.194542 
L 923.526 78.043315 
L 914.598 77.564246 
L 920.178 77.482454 
L 913.482 77.410298 
L 916.272 77.330797 
L 919.62 77.253257 
L 914.598 77.030296 
L 922.968 76.954966 
L 920.178 76.879659 
L 923.526 76.80799 
L 918.504 76.730499 
L 924.642 76.659703 
L 914.598 76.517003 
L 922.968 76.305335 
L 918.504 76.166838 
L 921.852 76.095754 
L 918.504 76.016491 
L 921.852 75.940599 
L 920.178 75.876755 
L 918.504 75.815569 
L 919.062 75.751315 
L 921.852 75.691004 
L 917.946 75.614985 
L 919.62 75.546556 
L 920.736 75.473694 
L 917.388 75.399108 
L 922.41 75.337766 
L 916.272 75.268165 
L 920.736 75.202019 
L 919.62 75.137863 
L 920.178 75.070976 
L 923.526 74.942739 
L 922.968 74.825585 
L 929.664 74.76669 
L 920.736 74.698814 
L 925.758 74.627454 
L 920.736 74.496295 
L 924.642 74.429013 
L 921.294 74.369351 
L 925.758 74.309599 
L 924.084 74.245577 
L 920.178 74.186655 
L 924.642 74.127898 
L 917.388 74.059874 
L 927.432 73.999267 
L 919.062 73.943255 
L 926.874 73.821933 
L 920.736 73.763741 
L 921.294 73.70444 
L 923.526 73.649112 
L 922.41 73.589939 
L 921.294 73.530496 
L 926.874 73.311767 
L 920.736 73.08382 
L 925.758 73.029565 
L 924.084 72.97029 
L 919.62 72.910024 
L 924.084 72.861819 
L 924.084 72.808009 
L 921.852 72.754987 
L 924.084 72.704493 
L 920.736 72.594421 
L 922.968 72.542214 
L 922.41 72.490561 
L 923.526 72.439612 
L 920.736 72.382111 
L 927.99 72.324822 
L 922.968 72.266099 
L 927.432 72.177708 
L 926.874 72.026638 
L 926.316 71.975028 
L 924.084 71.869173 
L 926.316 71.812585 
L 924.642 71.761053 
L 925.2 71.703527 
L 928.548 71.604857 
L 927.432 71.559604 
L 923.526 71.512685 
L 925.2 71.464368 
L 925.2 71.415241 
L 926.874 71.364529 
L 921.294 71.310978 
L 930.78 71.257823 
L 925.758 71.212649 
L 927.432 71.114354 
L 927.432 71.114354 
" style="fill:none;stroke:#1f1f1f;stroke-linecap:square;stroke-width:5;"/>
   </g>
   <g id="line2d_57">
    <path clip-path="url(#p964380aa1b)" d="M 191.43 494.618281 
L 340.416 462.788723 
L 456.48 443.771023 
L 496.656 430.116565 
L 508.932 419.587561 
L 525.114 410.921148 
L 559.71 403.592825 
L 577.566 397.130083 
L 588.726 391.430101 
L 593.19 386.313793 
L 613.278 381.677523 
L 616.626 377.4898 
L 632.25 373.612285 
L 635.04 370.048131 
L 642.294 366.727554 
L 660.708 363.6543 
L 644.526 360.772332 
L 665.73 358.099916 
L 662.94 355.566739 
L 682.47 353.16119 
L 687.492 350.897646 
L 690.84 348.766348 
L 700.326 346.727283 
L 703.674 344.776122 
L 715.392 342.90792 
L 718.182 341.131943 
L 723.204 339.436599 
L 718.74 337.801128 
L 729.9 336.228843 
L 734.922 334.721325 
L 724.878 333.244719 
L 734.364 331.829528 
L 752.778 330.465011 
L 745.524 329.15133 
L 754.452 327.883072 
L 768.96 326.641545 
L 761.706 325.442192 
L 772.308 324.270406 
L 772.866 323.127457 
L 777.888 322.023479 
L 773.982 320.948 
L 783.468 319.90406 
L 780.678 318.883659 
L 777.33 317.89169 
L 790.722 316.909562 
L 791.28 315.963993 
L 800.766 315.039778 
L 805.788 314.137341 
L 799.092 313.26099 
L 806.346 312.40146 
L 800.208 311.56232 
L 806.346 310.7337 
L 802.998 309.91947 
L 812.484 309.120309 
L 817.506 308.335011 
L 810.252 307.564606 
L 820.296 306.801063 
L 823.086 306.055144 
L 822.528 305.325936 
L 832.014 304.606546 
L 825.318 303.900273 
L 836.478 302.521424 
L 833.13 301.847981 
L 832.572 301.181334 
L 840.384 300.528195 
L 835.92 299.88518 
L 844.29 299.251772 
L 839.268 298.62488 
L 842.058 298.004924 
L 838.71 297.396232 
L 843.732 296.796313 
L 847.638 296.201816 
L 848.196 295.613828 
L 853.776 295.033441 
L 848.754 294.463452 
L 845.964 293.897053 
L 848.196 293.339293 
L 855.45 292.790295 
L 846.522 292.250004 
L 857.682 291.71604 
L 854.334 291.188796 
L 858.798 290.6675 
L 858.24 290.149932 
L 855.45 289.638715 
L 864.936 288.637199 
L 860.472 288.144192 
L 857.124 287.170644 
L 862.704 286.687996 
L 862.146 286.21054 
L 863.262 285.739325 
L 872.19 285.27032 
L 867.726 284.807066 
L 872.748 284.350109 
L 871.632 283.898185 
L 877.212 283.449413 
L 863.82 283.004159 
L 878.328 282.560971 
L 869.4 282.123136 
L 871.632 281.688909 
L 869.4 281.257513 
L 878.328 280.830805 
L 879.444 280.409198 
L 882.234 279.991675 
L 877.77 279.576373 
L 871.074 279.165925 
L 876.654 278.759671 
L 875.538 278.356342 
L 882.792 277.958 
L 880.002 277.559904 
L 872.19 277.164454 
L 883.35 276.770312 
L 878.328 276.38039 
L 883.908 275.993388 
L 883.908 275.609863 
L 882.234 275.230411 
L 887.256 274.854505 
L 880.002 274.482534 
L 887.814 274.110738 
L 890.046 273.742325 
L 886.698 273.375801 
L 888.372 273.013182 
L 885.582 272.651633 
L 890.604 272.292625 
L 887.814 271.9349 
L 898.416 271.228345 
L 891.72 270.879665 
L 897.3 270.533279 
L 898.416 269.84962 
L 888.372 269.512607 
L 898.974 269.176952 
L 894.51 268.843168 
L 895.626 268.510249 
L 892.278 268.182582 
L 895.626 267.856841 
L 891.162 267.531612 
L 891.72 267.210067 
L 898.416 266.891063 
L 899.532 266.571957 
L 898.974 266.255422 
L 899.532 265.939565 
L 902.322 265.626945 
L 901.206 265.315415 
L 898.974 265.006866 
L 890.604 264.392674 
L 902.88 264.086869 
L 903.438 263.783447 
L 904.554 263.482156 
L 907.902 263.183505 
L 907.344 262.887186 
L 903.996 262.59222 
L 904.554 262.298716 
L 902.322 262.007163 
L 902.322 261.714937 
L 898.974 261.424065 
L 904.554 261.134484 
L 895.626 260.848761 
L 909.576 260.564195 
L 896.742 259.999117 
L 902.322 259.720621 
L 903.996 259.44311 
L 903.438 259.167336 
L 907.344 258.618228 
L 904.554 258.345144 
L 904.554 258.075237 
L 911.808 257.537702 
L 905.112 257.271667 
L 905.67 257.005934 
L 909.018 256.741915 
L 907.902 256.480673 
L 910.134 256.219943 
L 910.692 255.959631 
L 910.134 255.700276 
L 910.692 255.442393 
L 902.322 255.187165 
L 910.134 254.933055 
L 913.482 254.680363 
L 907.344 254.428779 
L 909.018 254.178783 
L 912.366 253.930026 
L 907.902 253.682243 
L 913.482 253.43518 
L 909.576 253.188074 
L 916.272 252.942417 
L 909.018 252.45578 
L 909.018 252.213762 
L 912.924 251.972944 
L 912.366 251.733972 
L 904.554 251.257022 
L 910.134 251.020294 
L 911.808 250.784908 
L 912.366 250.550504 
L 913.482 250.316489 
L 910.134 250.083333 
L 916.83 249.851655 
L 913.482 249.391244 
L 910.134 249.162912 
L 917.388 248.936815 
L 912.924 248.710764 
L 914.598 248.484441 
L 907.344 248.260519 
L 913.482 248.037367 
L 914.04 247.814679 
L 918.504 247.593577 
L 914.598 247.153383 
L 915.714 246.934884 
L 915.156 246.716824 
L 915.714 246.499428 
L 912.924 246.282862 
L 917.388 245.855406 
L 917.388 245.642787 
L 916.83 245.430695 
L 920.736 245.21974 
L 917.388 245.008729 
L 924.642 244.591523 
L 921.294 244.383991 
L 920.178 244.177127 
L 914.598 243.970889 
L 917.388 243.560062 
L 920.736 243.35596 
L 919.62 243.152951 
L 914.598 242.751095 
L 912.924 242.55113 
L 917.388 242.35243 
L 917.946 242.154615 
L 920.178 241.957316 
L 915.156 241.564482 
L 916.83 241.369202 
L 923.526 240.982326 
L 920.178 240.59812 
L 916.83 240.407414 
L 916.272 240.216946 
L 916.83 240.027498 
L 914.598 239.839003 
L 920.178 239.651291 
L 913.482 239.463804 
L 919.62 239.091767 
L 916.272 238.906863 
L 916.272 238.722437 
L 914.598 238.539199 
L 922.968 238.356324 
L 920.178 238.174113 
L 923.526 237.992888 
L 918.504 237.811783 
L 924.642 237.631363 
L 914.598 237.274578 
L 920.178 237.096548 
L 920.178 236.918712 
L 922.968 236.742429 
L 919.62 236.566098 
L 918.504 236.390306 
L 921.852 236.214604 
L 918.504 236.040179 
L 921.852 235.865922 
L 918.504 235.520025 
L 919.062 235.347822 
L 921.852 235.176314 
L 917.946 235.005483 
L 920.736 234.666135 
L 917.388 234.497866 
L 922.41 234.330112 
L 916.272 234.16276 
L 920.736 233.995379 
L 919.62 233.828622 
L 920.178 233.662716 
L 922.968 233.496972 
L 923.526 233.331701 
L 922.968 233.167031 
L 922.968 233.003133 
L 929.664 232.839838 
L 920.736 232.677494 
L 925.758 232.515443 
L 920.736 232.192947 
L 924.642 232.031968 
L 921.294 231.87126 
L 925.758 231.711671 
L 924.084 231.552363 
L 920.178 231.393691 
L 924.642 231.235982 
L 917.388 231.078807 
L 927.432 230.921491 
L 919.062 230.764833 
L 921.294 230.608428 
L 926.874 230.45277 
L 920.736 230.297009 
L 921.294 230.142055 
L 923.526 229.987481 
L 921.294 229.679964 
L 923.526 229.52718 
L 921.852 229.374969 
L 923.526 229.222879 
L 926.874 229.071195 
L 922.968 228.76918 
L 920.736 228.468453 
L 925.758 228.31859 
L 924.084 228.168704 
L 919.62 228.019501 
L 924.084 227.871168 
L 924.084 227.723523 
L 921.852 227.576053 
L 924.084 227.428848 
L 922.968 227.282335 
L 920.736 227.135916 
L 922.968 226.990387 
L 922.41 226.84551 
L 923.526 226.700949 
L 920.736 226.556712 
L 927.99 226.412664 
L 922.968 226.268942 
L 924.084 226.125869 
L 927.432 225.982779 
L 924.642 225.840302 
L 926.874 225.697901 
L 926.874 225.556119 
L 926.316 225.415 
L 924.084 225.274411 
L 924.084 225.134519 
L 926.316 224.994555 
L 924.642 224.855045 
L 925.2 224.71569 
L 928.548 224.576687 
L 928.548 224.438823 
L 927.432 224.301179 
L 923.526 224.163691 
L 925.2 224.027137 
L 925.2 223.890404 
L 926.874 223.753767 
L 921.294 223.617286 
L 930.78 223.481621 
L 925.758 223.346474 
L 926.316 223.211443 
L 927.432 223.07676 
L 927.432 223.07676 
" style="fill:none;stroke:#9e9e9e;stroke-linecap:square;stroke-width:5;"/>
   </g>
   <g id="line2d_58">
    <path clip-path="url(#p964380aa1b)" d="M -1 249.838053 
L 223.794 237.172617 
L 335.394 225.906667 
L 372.78 217.821047 
L 417.978 211.605607 
L 444.762 206.363991 
L 469.314 202.003386 
L 484.938 198.131574 
L 487.17 194.722278 
L 506.142 191.550632 
L 519.534 188.820857 
L 523.44 186.209506 
L 530.136 183.911627 
L 539.622 181.73835 
L 559.152 179.754374 
L 556.362 177.810643 
L 561.384 176.037303 
L 577.566 174.293326 
L 577.008 172.77116 
L 580.356 171.25978 
L 590.4 169.739965 
L 582.588 168.35093 
L 595.422 167.054006 
L 598.212 165.82546 
L 607.14 164.625823 
L 625.554 163.43673 
L 617.742 162.319034 
L 619.416 161.234688 
L 624.438 160.201045 
L 615.51 159.149648 
L 628.344 158.17777 
L 635.598 157.269653 
L 625.554 156.347877 
L 636.156 155.465345 
L 643.968 154.608649 
L 641.178 153.784233 
L 659.034 153.022643 
L 661.824 152.201028 
L 655.686 151.413553 
L 662.382 150.678301 
L 660.708 149.963634 
L 659.592 149.294984 
L 661.266 148.641994 
L 666.846 147.961511 
L 675.774 147.309571 
L 678.564 146.665195 
L 673.542 146.03963 
L 681.354 145.448843 
L 674.1 144.859532 
L 689.724 144.293059 
L 690.84 143.732528 
L 690.84 143.181206 
L 688.05 142.643311 
L 691.398 142.104686 
L 699.768 141.555679 
L 694.188 141.049236 
L 695.862 140.567753 
L 704.232 140.050344 
L 707.58 139.564656 
L 713.718 139.100273 
L 713.718 138.65675 
L 717.624 138.202452 
L 710.37 137.760134 
L 728.784 136.880036 
L 724.32 136.453753 
L 734.922 136.019554 
L 712.602 135.6026 
L 732.132 135.216713 
L 731.574 134.824396 
L 746.64 134.426656 
L 748.314 134.029883 
L 739.944 133.650225 
L 741.06 133.275729 
L 743.85 132.899726 
L 739.386 132.558377 
L 758.916 131.855795 
L 748.872 131.510122 
L 746.64 131.166075 
L 752.778 130.841643 
L 761.706 129.848447 
L 766.17 129.202839 
L 761.706 128.877439 
L 753.894 128.593381 
L 766.728 128.287713 
L 766.728 127.991189 
L 773.424 127.408906 
L 775.098 127.120517 
L 783.468 126.835811 
L 784.026 126.548074 
L 776.214 126.26888 
L 783.468 126.001685 
L 781.794 125.73198 
L 787.374 125.465598 
L 785.7 125.210082 
L 788.49 124.95418 
L 784.026 124.696155 
L 790.164 124.413986 
L 784.584 124.17006 
L 799.65 123.672677 
L 792.954 123.418275 
L 790.722 123.179978 
L 792.396 122.933214 
L 792.396 122.684386 
L 794.07 122.457353 
L 793.512 122.226308 
L 802.998 121.993731 
L 800.766 121.770234 
L 807.462 121.537087 
L 799.65 121.324176 
L 805.23 121.089772 
L 800.208 120.8797 
L 805.788 120.665412 
L 799.092 120.434816 
L 805.788 120.214623 
L 804.114 120.00605 
L 806.904 119.781462 
L 812.484 119.57251 
L 811.926 119.369413 
L 815.274 119.176991 
L 813.042 118.974097 
L 813.042 118.782779 
L 822.528 118.581579 
L 815.274 118.388254 
L 812.484 118.195969 
L 821.412 118.007887 
L 816.948 117.819996 
L 820.296 117.443024 
L 820.854 117.251683 
L 816.948 117.066765 
L 825.876 116.701694 
L 822.528 116.52073 
L 826.992 116.335491 
L 826.992 116.157662 
L 830.898 115.972701 
L 828.108 115.804683 
L 829.224 115.621738 
L 826.434 115.470318 
L 830.898 115.28755 
L 827.55 114.956137 
L 835.362 114.787954 
L 828.666 114.604713 
L 835.362 114.42253 
L 839.268 113.785152 
L 829.782 113.627192 
L 831.456 113.46536 
L 836.478 113.309434 
L 833.688 113.151658 
L 838.152 112.986636 
L 839.268 112.82436 
L 841.5 112.676138 
L 832.572 112.529558 
L 841.5 112.237897 
L 843.174 112.088729 
L 838.71 111.941684 
L 840.384 111.792817 
L 844.848 111.653471 
L 840.384 111.366671 
L 844.29 110.92175 
L 843.174 110.649064 
L 847.638 110.511162 
L 845.964 110.37262 
L 853.776 110.095207 
L 853.776 109.955945 
L 855.45 109.825248 
L 855.45 109.691569 
L 853.218 109.556674 
L 845.406 109.433142 
L 849.312 109.313888 
L 845.406 109.166042 
L 858.24 108.778356 
L 852.66 108.534969 
L 853.776 108.406716 
L 862.704 108.282196 
L 855.45 108.157327 
L 860.472 108.026786 
L 853.776 107.904019 
L 858.798 107.771735 
L 857.682 107.528311 
L 854.334 107.415228 
L 859.356 107.179211 
L 859.914 107.056772 
L 866.61 106.939544 
L 859.914 106.824789 
L 864.936 106.462779 
L 857.124 106.354 
L 867.168 106.243699 
L 859.356 105.90471 
L 863.82 105.798309 
L 863.82 105.68547 
L 862.704 105.572926 
L 866.61 105.458948 
L 865.494 105.350914 
L 868.284 105.136137 
L 866.61 105.028544 
L 867.726 104.925661 
L 867.168 104.811367 
L 874.422 104.706095 
L 869.4 104.287839 
L 862.704 104.19164 
L 874.98 104.089123 
L 873.306 103.987604 
L 863.262 103.889229 
L 876.096 103.674261 
L 869.4 103.470189 
L 876.096 103.367053 
L 873.306 103.274468 
L 874.422 103.175448 
L 867.168 102.981431 
L 876.654 102.881445 
L 874.422 102.691821 
L 880.56 102.588472 
L 871.632 102.484227 
L 872.748 102.393148 
L 871.632 102.295403 
L 876.654 102.200597 
L 872.748 102.112067 
L 876.654 101.924829 
L 882.234 101.641559 
L 873.306 101.465672 
L 880.56 101.280901 
L 875.538 101.192083 
L 885.024 101.003084 
L 883.35 100.816604 
L 885.024 100.727721 
L 876.654 100.474465 
L 884.466 100.300862 
L 880.002 100.208649 
L 881.118 100.121268 
L 881.676 100.040799 
L 881.118 99.960756 
L 882.234 99.880139 
L 880.56 99.799667 
L 883.908 99.710546 
L 881.118 99.624933 
L 885.582 99.535184 
L 883.35 99.444329 
L 877.77 99.365971 
L 885.582 99.200175 
L 882.792 99.120426 
L 882.792 99.037406 
L 892.836 98.801333 
L 882.234 98.724119 
L 888.93 98.645532 
L 883.35 98.562975 
L 891.162 98.478187 
L 885.024 98.395329 
L 885.582 98.31296 
L 891.162 98.230181 
L 887.814 98.154703 
L 888.93 98.079186 
L 890.604 98.001154 
L 881.118 97.849608 
L 883.908 97.76698 
L 889.488 97.535635 
L 885.024 97.38678 
L 887.256 97.312744 
L 882.234 97.165636 
L 890.046 96.935741 
L 888.93 96.866561 
L 892.836 96.797882 
L 890.604 96.726487 
L 893.394 96.586138 
L 886.14 96.509874 
L 889.488 96.439697 
L 890.046 96.366632 
L 889.488 96.291646 
L 891.162 96.224761 
L 888.372 96.083297 
L 891.72 95.868454 
L 887.814 95.797775 
L 893.394 95.664699 
L 889.488 95.593071 
L 891.162 95.523207 
L 892.278 95.450623 
L 887.814 95.26173 
L 896.742 95.191301 
L 895.068 95.124693 
L 893.952 94.987486 
L 887.256 94.921088 
L 890.604 94.848812 
L 894.51 94.711255 
L 890.046 94.580879 
L 895.068 94.517306 
L 890.604 94.385809 
L 893.952 94.260446 
L 890.046 94.122547 
L 897.858 94.062099 
L 893.394 93.996241 
L 892.278 93.93173 
L 892.278 93.93173 
" style="fill:none;stroke:#9041ff;stroke-linecap:square;stroke-width:5;"/>
   </g>
   <g id="line2d_59">
    <path clip-path="url(#p964380aa1b)" d="M -1 452.041986 
L 223.794 435.491311 
L 335.394 419.48241 
L 372.78 407.499923 
L 417.978 397.933019 
L 444.762 390.01087 
L 469.314 383.190209 
L 484.938 377.254166 
L 487.17 371.961945 
L 506.142 367.2149 
L 519.534 362.935065 
L 523.44 358.99533 
L 530.136 355.389512 
L 539.622 352.02784 
L 559.152 348.905258 
L 556.362 345.983419 
L 561.384 343.274511 
L 577.566 340.717573 
L 577.008 338.284253 
L 580.356 335.976111 
L 590.4 333.788894 
L 582.588 331.698638 
L 595.422 329.698253 
L 598.212 327.784285 
L 607.14 325.963152 
L 625.554 324.213178 
L 617.742 322.530919 
L 619.416 320.907772 
L 624.438 319.347267 
L 615.51 317.836365 
L 628.344 316.38646 
L 635.598 314.988683 
L 625.554 313.638809 
L 636.156 312.334178 
L 643.968 311.058162 
L 641.178 309.827956 
L 659.034 308.632662 
L 661.824 307.463592 
L 655.686 306.33162 
L 662.382 305.234309 
L 660.708 304.172786 
L 659.592 303.133852 
L 661.266 302.123166 
L 666.846 301.132544 
L 675.774 300.178433 
L 678.564 299.244008 
L 673.542 298.333961 
L 681.354 297.448817 
L 674.1 296.580446 
L 689.724 295.734725 
L 690.84 294.901907 
L 690.84 294.08836 
L 688.05 293.292114 
L 691.398 292.50947 
L 699.768 291.744868 
L 694.188 290.988763 
L 695.862 290.25134 
L 704.232 289.530609 
L 707.58 288.825657 
L 713.718 288.136116 
L 713.718 287.45705 
L 717.624 286.790286 
L 710.37 286.134102 
L 728.784 284.857299 
L 724.32 284.238352 
L 734.922 283.630259 
L 712.602 283.032568 
L 732.132 282.443898 
L 731.574 281.866663 
L 746.64 281.297367 
L 748.314 280.736826 
L 739.944 280.183368 
L 741.06 279.639071 
L 743.85 279.101843 
L 739.386 278.57151 
L 750.546 278.050196 
L 758.916 277.536808 
L 748.872 277.031653 
L 746.64 276.534583 
L 752.778 276.044695 
L 759.474 275.080381 
L 766.17 273.684675 
L 761.706 273.229985 
L 753.894 272.781242 
L 766.728 272.338546 
L 766.728 271.898618 
L 773.424 271.032355 
L 775.098 270.604689 
L 783.468 270.18565 
L 784.026 269.770285 
L 776.214 269.362159 
L 783.468 268.957485 
L 781.794 268.555321 
L 787.374 268.158609 
L 785.7 267.765447 
L 788.49 267.376599 
L 784.026 266.989621 
L 790.164 266.606841 
L 784.584 266.231059 
L 799.65 265.486157 
L 792.954 265.120573 
L 790.722 264.758843 
L 792.396 264.399646 
L 792.396 264.044308 
L 794.07 263.688311 
L 793.512 263.334624 
L 802.998 262.983634 
L 800.766 262.637141 
L 807.462 262.293783 
L 799.65 261.952723 
L 805.23 261.614927 
L 800.208 261.280514 
L 805.788 260.951075 
L 799.092 260.623614 
L 805.788 260.297491 
L 804.114 259.973898 
L 806.904 259.653034 
L 812.484 259.334713 
L 811.926 259.018936 
L 815.274 258.704741 
L 813.042 258.392321 
L 813.042 258.084178 
L 822.528 257.778211 
L 815.274 257.475234 
L 812.484 257.174255 
L 821.412 256.875574 
L 816.948 256.579898 
L 819.18 256.285938 
L 820.296 255.992575 
L 820.854 255.700498 
L 816.948 255.412103 
L 822.528 255.126094 
L 825.876 254.840785 
L 822.528 254.558645 
L 826.992 254.279346 
L 826.992 253.999815 
L 830.898 253.721381 
L 828.108 253.446472 
L 829.224 253.173254 
L 826.434 252.900463 
L 830.898 252.631194 
L 828.666 252.362989 
L 827.55 252.097631 
L 835.362 251.831802 
L 828.666 251.568845 
L 835.362 251.307105 
L 836.478 251.048008 
L 837.036 250.789663 
L 839.268 250.532849 
L 839.268 250.27712 
L 829.782 250.024241 
L 831.456 249.770505 
L 836.478 249.518074 
L 833.688 249.266746 
L 838.152 249.018709 
L 839.268 248.772182 
L 841.5 248.526803 
L 832.572 248.282428 
L 839.268 248.039203 
L 843.174 247.557466 
L 838.71 247.317501 
L 840.384 247.078693 
L 844.848 246.840028 
L 841.5 246.603623 
L 840.384 246.367495 
L 841.5 246.134448 
L 844.29 245.671767 
L 843.174 245.213489 
L 847.638 244.986381 
L 845.964 244.760091 
L 853.776 244.309927 
L 853.776 244.086976 
L 855.45 243.865602 
L 855.45 243.644824 
L 853.218 243.425095 
L 845.406 243.20684 
L 849.312 242.988928 
L 845.406 242.771787 
L 850.986 242.555208 
L 853.218 242.339116 
L 858.24 242.123495 
L 852.66 241.69515 
L 853.776 241.482076 
L 862.704 241.26967 
L 855.45 241.05919 
L 860.472 240.848659 
L 853.776 240.639486 
L 858.798 240.430378 
L 857.682 240.015965 
L 854.334 239.810658 
L 859.356 239.401553 
L 859.914 239.198428 
L 866.61 238.99551 
L 859.914 238.793775 
L 863.262 238.394385 
L 864.936 238.195076 
L 857.124 237.997598 
L 867.168 237.800339 
L 863.82 237.603567 
L 863.262 237.40809 
L 859.356 237.213549 
L 863.82 237.018808 
L 863.82 236.824709 
L 862.704 236.632346 
L 866.61 236.440386 
L 865.494 236.248481 
L 867.726 236.057747 
L 868.284 235.867696 
L 866.61 235.677385 
L 867.726 235.488187 
L 867.168 235.300268 
L 874.422 235.111869 
L 872.748 234.925206 
L 872.19 234.738882 
L 869.4 234.553665 
L 869.4 234.368969 
L 862.704 234.184518 
L 874.98 234.000259 
L 873.306 233.816945 
L 863.262 233.633432 
L 876.096 233.270886 
L 869.4 232.910697 
L 876.096 232.731723 
L 873.306 232.553274 
L 874.422 232.375196 
L 867.168 232.019923 
L 876.654 231.843194 
L 874.422 231.667037 
L 874.422 231.491732 
L 880.56 231.317525 
L 871.632 231.144375 
L 872.748 230.971724 
L 871.632 230.798882 
L 876.654 230.626691 
L 872.748 230.454706 
L 876.654 230.282803 
L 876.654 230.111583 
L 879.444 229.941139 
L 879.444 229.771312 
L 882.234 229.601694 
L 873.306 229.264375 
L 880.56 228.929565 
L 875.538 228.762989 
L 885.024 228.431196 
L 883.35 228.267003 
L 883.35 228.103329 
L 885.024 227.939518 
L 876.654 227.450434 
L 884.466 227.288418 
L 884.466 227.126742 
L 880.002 226.966039 
L 881.676 226.645258 
L 881.118 226.48531 
L 882.234 226.325922 
L 880.56 226.16715 
L 883.908 226.009249 
L 881.118 225.852249 
L 885.582 225.695345 
L 883.35 225.53899 
L 877.77 225.383184 
L 880.56 225.227652 
L 885.582 225.072414 
L 882.792 224.917444 
L 882.792 224.76297 
L 887.256 224.608401 
L 885.582 224.454547 
L 892.836 224.300862 
L 882.234 224.147661 
L 888.93 223.995135 
L 883.35 223.843417 
L 891.162 223.692042 
L 885.024 223.541616 
L 885.582 223.391575 
L 891.162 223.241121 
L 887.814 223.091053 
L 890.604 222.792399 
L 881.118 222.496406 
L 886.698 222.202483 
L 886.698 222.056098 
L 889.488 221.909597 
L 885.024 221.61735 
L 887.256 221.472064 
L 885.582 221.327927 
L 882.234 221.183178 
L 887.256 221.039408 
L 887.256 220.895801 
L 890.046 220.752931 
L 888.93 220.610276 
L 892.836 220.46758 
L 890.604 220.32553 
L 893.394 220.04157 
L 886.14 219.900089 
L 889.488 219.759206 
L 890.046 219.61868 
L 889.488 219.478458 
L 891.162 219.339098 
L 888.372 219.061435 
L 890.604 218.922615 
L 890.046 218.784636 
L 891.72 218.646643 
L 887.814 218.509583 
L 893.394 218.236376 
L 889.488 218.10063 
L 892.278 217.8289 
L 887.814 217.423894 
L 896.742 217.2892 
L 893.952 217.02068 
L 893.952 216.887044 
L 887.256 216.753957 
L 894.51 216.35659 
L 890.046 216.094157 
L 895.068 215.963337 
L 891.162 215.83314 
L 890.604 215.703252 
L 893.952 215.443337 
L 890.046 215.184498 
L 897.858 215.056154 
L 892.278 214.799692 
L 892.278 214.799692 
" style="fill:none;stroke:#c49fff;stroke-linecap:square;stroke-width:5;"/>
   </g>
   <g id="patch_3">
    <path d="M 144 504 
L 144 69.12 
" style="fill:none;stroke:#000000;stroke-linecap:square;stroke-linejoin:miter;stroke-width:0.8;"/>
   </g>
   <g id="patch_4">
    <path d="M 1036.8 504 
L 1036.8 69.12 
" style="fill:none;stroke:#000000;stroke-linecap:square;stroke-linejoin:miter;stroke-width:0.8;"/>
   </g>
   <g id="patch_5">
    <path d="M 144 504 
L 1036.8 504 
" style="fill:none;stroke:#000000;stroke-linecap:square;stroke-linejoin:miter;stroke-width:0.8;"/>
   </g>
   <g id="patch_6">
    <path d="M 144 69.12 
L 1036.8 69.12 
" style="fill:none;stroke:#000000;stroke-linecap:square;stroke-linejoin:miter;stroke-width:0.8;"/>
   </g>
   <g id="text_17">
    <!-- Ungated: Energy vs. Accuracy with 250 Units @ 0.35 -->
    <g transform="translate(114.381562 61.633125)scale(0.36 -0.36)">
     <defs>
      <path d="M 18.3125 70.21875 
L 18.3125 54.6875 
L 36.8125 54.6875 
L 36.8125 47.703125 
L 18.3125 47.703125 
L 18.3125 18.015625 
Q 18.3125 11.328125 20.140625 9.421875 
Q 21.96875 7.515625 27.59375 7.515625 
L 36.8125 7.515625 
L 36.8125 0 
L 27.59375 0 
Q 17.1875 0 13.234375 3.875 
Q 9.28125 7.765625 9.28125 18.015625 
L 9.28125 47.703125 
L 2.6875 47.703125 
L 2.6875 54.6875 
L 9.28125 54.6875 
L 9.28125 70.21875 
z
" id="DejaVuSans-116"/>
      <path d="M 45.40625 46.390625 
L 45.40625 75.984375 
L 54.390625 75.984375 
L 54.390625 0 
L 45.40625 0 
L 45.40625 8.203125 
Q 42.578125 3.328125 38.25 0.953125 
Q 33.9375 -1.421875 27.875 -1.421875 
Q 17.96875 -1.421875 11.734375 6.484375 
Q 5.515625 14.40625 5.515625 27.296875 
Q 5.515625 40.1875 11.734375 48.09375 
Q 17.96875 56 27.875 56 
Q 33.9375 56 38.25 53.625 
Q 42.578125 51.265625 45.40625 46.390625 
z
M 14.796875 27.296875 
Q 14.796875 17.390625 18.875 11.75 
Q 22.953125 6.109375 30.078125 6.109375 
Q 37.203125 6.109375 41.296875 11.75 
Q 45.40625 17.390625 45.40625 27.296875 
Q 45.40625 37.203125 41.296875 42.84375 
Q 37.203125 48.484375 30.078125 48.484375 
Q 22.953125 48.484375 18.875 42.84375 
Q 14.796875 37.203125 14.796875 27.296875 
z
" id="DejaVuSans-100"/>
      <path d="M 11.71875 12.40625 
L 22.015625 12.40625 
L 22.015625 0 
L 11.71875 0 
z
M 11.71875 51.703125 
L 22.015625 51.703125 
L 22.015625 39.3125 
L 11.71875 39.3125 
z
" id="DejaVuSans-58"/>
      <path d="M 2.984375 54.6875 
L 12.5 54.6875 
L 29.59375 8.796875 
L 46.6875 54.6875 
L 56.203125 54.6875 
L 35.6875 0 
L 23.484375 0 
z
" id="DejaVuSans-118"/>
      <path d="M 44.28125 53.078125 
L 44.28125 44.578125 
Q 40.484375 46.53125 36.375 47.5 
Q 32.28125 48.484375 27.875 48.484375 
Q 21.1875 48.484375 17.84375 46.4375 
Q 14.5 44.390625 14.5 40.28125 
Q 14.5 37.15625 16.890625 35.375 
Q 19.28125 33.59375 26.515625 31.984375 
L 29.59375 31.296875 
Q 39.15625 29.25 43.1875 25.515625 
Q 47.21875 21.78125 47.21875 15.09375 
Q 47.21875 7.46875 41.1875 3.015625 
Q 35.15625 -1.421875 24.609375 -1.421875 
Q 20.21875 -1.421875 15.453125 -0.5625 
Q 10.6875 0.296875 5.421875 2 
L 5.421875 11.28125 
Q 10.40625 8.6875 15.234375 7.390625 
Q 20.0625 6.109375 24.8125 6.109375 
Q 31.15625 6.109375 34.5625 8.28125 
Q 37.984375 10.453125 37.984375 14.40625 
Q 37.984375 18.0625 35.515625 20.015625 
Q 33.0625 21.96875 24.703125 23.78125 
L 21.578125 24.515625 
Q 13.234375 26.265625 9.515625 29.90625 
Q 5.8125 33.546875 5.8125 39.890625 
Q 5.8125 47.609375 11.28125 51.796875 
Q 16.75 56 26.8125 56 
Q 31.78125 56 36.171875 55.265625 
Q 40.578125 54.546875 44.28125 53.078125 
z
" id="DejaVuSans-115"/>
      <path d="M 4.203125 54.6875 
L 13.1875 54.6875 
L 24.421875 12.015625 
L 35.59375 54.6875 
L 46.1875 54.6875 
L 57.421875 12.015625 
L 68.609375 54.6875 
L 77.59375 54.6875 
L 63.28125 0 
L 52.6875 0 
L 40.921875 44.828125 
L 29.109375 0 
L 18.5 0 
z
" id="DejaVuSans-119"/>
      <path d="M 9.421875 54.6875 
L 18.40625 54.6875 
L 18.40625 0 
L 9.421875 0 
z
M 9.421875 75.984375 
L 18.40625 75.984375 
L 18.40625 64.59375 
L 9.421875 64.59375 
z
" id="DejaVuSans-105"/>
      <path d="M 54.890625 33.015625 
L 54.890625 0 
L 45.90625 0 
L 45.90625 32.71875 
Q 45.90625 40.484375 42.875 44.328125 
Q 39.84375 48.1875 33.796875 48.1875 
Q 26.515625 48.1875 22.3125 43.546875 
Q 18.109375 38.921875 18.109375 30.90625 
L 18.109375 0 
L 9.078125 0 
L 9.078125 75.984375 
L 18.109375 75.984375 
L 18.109375 46.1875 
Q 21.34375 51.125 25.703125 53.5625 
Q 30.078125 56 35.796875 56 
Q 45.21875 56 50.046875 50.171875 
Q 54.890625 44.34375 54.890625 33.015625 
z
" id="DejaVuSans-104"/>
      <path d="M 37.203125 26.21875 
Q 37.203125 19.234375 40.671875 15.25 
Q 44.140625 11.28125 50.203125 11.28125 
Q 56.203125 11.28125 59.640625 15.28125 
Q 63.09375 19.28125 63.09375 26.21875 
Q 63.09375 33.0625 59.578125 37.078125 
Q 56.0625 41.109375 50.09375 41.109375 
Q 44.1875 41.109375 40.6875 37.109375 
Q 37.203125 33.109375 37.203125 26.21875 
z
M 63.8125 11.625 
Q 60.890625 7.859375 57.109375 6.078125 
Q 53.328125 4.296875 48.296875 4.296875 
Q 39.890625 4.296875 34.640625 10.375 
Q 29.390625 16.453125 29.390625 26.21875 
Q 29.390625 35.984375 34.65625 42.078125 
Q 39.9375 48.1875 48.296875 48.1875 
Q 53.328125 48.1875 57.125 46.359375 
Q 60.9375 44.53125 63.8125 40.828125 
L 63.8125 47.21875 
L 70.796875 47.21875 
L 70.796875 11.28125 
Q 77.9375 12.359375 81.953125 17.796875 
Q 85.984375 23.25 85.984375 31.890625 
Q 85.984375 37.109375 84.4375 41.703125 
Q 82.90625 46.296875 79.78125 50.203125 
Q 74.703125 56.59375 67.40625 59.984375 
Q 60.109375 63.375 51.515625 63.375 
Q 45.515625 63.375 39.984375 61.78125 
Q 34.46875 60.203125 29.78125 57.078125 
Q 22.125 52.09375 17.796875 44.015625 
Q 13.484375 35.9375 13.484375 26.515625 
Q 13.484375 18.75 16.28125 11.953125 
Q 19.09375 5.171875 24.421875 0 
Q 29.546875 -5.078125 36.28125 -7.734375 
Q 43.015625 -10.40625 50.6875 -10.40625 
Q 56.984375 -10.40625 63.0625 -8.28125 
Q 69.140625 -6.15625 74.21875 -2.203125 
L 78.609375 -7.625 
Q 72.515625 -12.359375 65.3125 -14.875 
Q 58.109375 -17.390625 50.6875 -17.390625 
Q 41.65625 -17.390625 33.640625 -14.1875 
Q 25.640625 -10.984375 19.390625 -4.890625 
Q 13.140625 1.21875 9.859375 9.25 
Q 6.59375 17.28125 6.59375 26.515625 
Q 6.59375 35.40625 9.90625 43.453125 
Q 13.234375 51.515625 19.390625 57.625 
Q 25.6875 63.8125 33.9375 67.109375 
Q 42.1875 70.40625 51.421875 70.40625 
Q 61.765625 70.40625 70.625 66.15625 
Q 79.5 61.921875 85.5 54.109375 
Q 89.15625 49.3125 91.078125 43.703125 
Q 93.015625 38.09375 93.015625 32.078125 
Q 93.015625 19.234375 85.25 11.8125 
Q 77.484375 4.390625 63.8125 4.109375 
z
" id="DejaVuSans-64"/>
     </defs>
     <use xlink:href="#DejaVuSans-85"/>
     <use x="73.193359" xlink:href="#DejaVuSans-110"/>
     <use x="136.572266" xlink:href="#DejaVuSans-103"/>
     <use x="200.048828" xlink:href="#DejaVuSans-97"/>
     <use x="261.328125" xlink:href="#DejaVuSans-116"/>
     <use x="300.537109" xlink:href="#DejaVuSans-101"/>
     <use x="362.060547" xlink:href="#DejaVuSans-100"/>
     <use x="425.537109" xlink:href="#DejaVuSans-58"/>
     <use x="459.228516" xlink:href="#DejaVuSans-32"/>
     <use x="491.015625" xlink:href="#DejaVuSans-69"/>
     <use x="554.199219" xlink:href="#DejaVuSans-110"/>
     <use x="617.578125" xlink:href="#DejaVuSans-101"/>
     <use x="679.101562" xlink:href="#DejaVuSans-114"/>
     <use x="718.464844" xlink:href="#DejaVuSans-103"/>
     <use x="781.941406" xlink:href="#DejaVuSans-121"/>
     <use x="841.121094" xlink:href="#DejaVuSans-32"/>
     <use x="872.908203" xlink:href="#DejaVuSans-118"/>
     <use x="932.087891" xlink:href="#DejaVuSans-115"/>
     <use x="984.1875" xlink:href="#DejaVuSans-46"/>
     <use x="1015.974609" xlink:href="#DejaVuSans-32"/>
     <use x="1047.761719" xlink:href="#DejaVuSans-65"/>
     <use x="1114.419922" xlink:href="#DejaVuSans-99"/>
     <use x="1169.400391" xlink:href="#DejaVuSans-99"/>
     <use x="1224.380859" xlink:href="#DejaVuSans-117"/>
     <use x="1287.759766" xlink:href="#DejaVuSans-114"/>
     <use x="1328.873047" xlink:href="#DejaVuSans-97"/>
     <use x="1390.152344" xlink:href="#DejaVuSans-99"/>
     <use x="1445.132812" xlink:href="#DejaVuSans-121"/>
     <use x="1504.3125" xlink:href="#DejaVuSans-32"/>
     <use x="1536.099609" xlink:href="#DejaVuSans-119"/>
     <use x="1617.886719" xlink:href="#DejaVuSans-105"/>
     <use x="1645.669922" xlink:href="#DejaVuSans-116"/>
     <use x="1684.878906" xlink:href="#DejaVuSans-104"/>
     <use x="1748.257812" xlink:href="#DejaVuSans-32"/>
     <use x="1780.044922" xlink:href="#DejaVuSans-50"/>
     <use x="1843.667969" xlink:href="#DejaVuSans-53"/>
     <use x="1907.291016" xlink:href="#DejaVuSans-48"/>
     <use x="1970.914062" xlink:href="#DejaVuSans-32"/>
     <use x="2002.701172" xlink:href="#DejaVuSans-85"/>
     <use x="2075.894531" xlink:href="#DejaVuSans-110"/>
     <use x="2139.273438" xlink:href="#DejaVuSans-105"/>
     <use x="2167.056641" xlink:href="#DejaVuSans-116"/>
     <use x="2206.265625" xlink:href="#DejaVuSans-115"/>
     <use x="2258.365234" xlink:href="#DejaVuSans-32"/>
     <use x="2290.152344" xlink:href="#DejaVuSans-64"/>
     <use x="2390.152344" xlink:href="#DejaVuSans-32"/>
     <use x="2421.939453" xlink:href="#DejaVuSans-48"/>
     <use x="2485.5625" xlink:href="#DejaVuSans-46"/>
     <use x="2517.349609" xlink:href="#DejaVuSans-51"/>
     <use x="2580.972656" xlink:href="#DejaVuSans-53"/>
    </g>
   </g>
   <g id="legend_1">
    <g id="patch_7">
     <path d="M 785.663125 493 
L 1021.4 493 
Q 1025.8 493 1025.8 488.6 
L 1025.8 361.6325 
Q 1025.8 357.2325 1021.4 357.2325 
L 785.663125 357.2325 
Q 781.263125 357.2325 781.263125 361.6325 
L 781.263125 488.6 
Q 781.263125 493 785.663125 493 
z
" style="fill:#ffffff;opacity:0.8;stroke:#cccccc;stroke-linejoin:miter;"/>
    </g>
    <g id="line2d_60">
     <path d="M 790.063125 375.049062 
L 834.063125 375.049062 
" style="fill:none;stroke:#1f1f1f;stroke-linecap:square;stroke-width:5;"/>
    </g>
    <g id="line2d_61"/>
    <g id="text_18">
     <!-- Ungated: 1.0 -->
     <g transform="translate(851.663125 382.749062)scale(0.22 -0.22)">
      <use xlink:href="#DejaVuSans-85"/>
      <use x="73.193359" xlink:href="#DejaVuSans-110"/>
      <use x="136.572266" xlink:href="#DejaVuSans-103"/>
      <use x="200.048828" xlink:href="#DejaVuSans-97"/>
      <use x="261.328125" xlink:href="#DejaVuSans-116"/>
      <use x="300.537109" xlink:href="#DejaVuSans-101"/>
      <use x="362.060547" xlink:href="#DejaVuSans-100"/>
      <use x="425.537109" xlink:href="#DejaVuSans-58"/>
      <use x="459.228516" xlink:href="#DejaVuSans-32"/>
      <use x="491.015625" xlink:href="#DejaVuSans-49"/>
      <use x="554.638672" xlink:href="#DejaVuSans-46"/>
      <use x="586.425781" xlink:href="#DejaVuSans-48"/>
     </g>
    </g>
    <g id="line2d_62">
     <path d="M 790.063125 407.340937 
L 834.063125 407.340937 
" style="fill:none;stroke:#9e9e9e;stroke-linecap:square;stroke-width:5;"/>
    </g>
    <g id="line2d_63"/>
    <g id="text_19">
     <!-- Minimum: 1.0 -->
     <g transform="translate(851.663125 415.040937)scale(0.22 -0.22)">
      <defs>
       <path d="M 9.8125 72.90625 
L 24.515625 72.90625 
L 43.109375 23.296875 
L 61.8125 72.90625 
L 76.515625 72.90625 
L 76.515625 0 
L 66.890625 0 
L 66.890625 64.015625 
L 48.09375 14.015625 
L 38.1875 14.015625 
L 19.390625 64.015625 
L 19.390625 0 
L 9.8125 0 
z
" id="DejaVuSans-77"/>
       <path d="M 52 44.1875 
Q 55.375 50.25 60.0625 53.125 
Q 64.75 56 71.09375 56 
Q 79.640625 56 84.28125 50.015625 
Q 88.921875 44.046875 88.921875 33.015625 
L 88.921875 0 
L 79.890625 0 
L 79.890625 32.71875 
Q 79.890625 40.578125 77.09375 44.375 
Q 74.3125 48.1875 68.609375 48.1875 
Q 61.625 48.1875 57.5625 43.546875 
Q 53.515625 38.921875 53.515625 30.90625 
L 53.515625 0 
L 44.484375 0 
L 44.484375 32.71875 
Q 44.484375 40.625 41.703125 44.40625 
Q 38.921875 48.1875 33.109375 48.1875 
Q 26.21875 48.1875 22.15625 43.53125 
Q 18.109375 38.875 18.109375 30.90625 
L 18.109375 0 
L 9.078125 0 
L 9.078125 54.6875 
L 18.109375 54.6875 
L 18.109375 46.1875 
Q 21.1875 51.21875 25.484375 53.609375 
Q 29.78125 56 35.6875 56 
Q 41.65625 56 45.828125 52.96875 
Q 50 49.953125 52 44.1875 
z
" id="DejaVuSans-109"/>
      </defs>
      <use xlink:href="#DejaVuSans-77"/>
      <use x="86.279297" xlink:href="#DejaVuSans-105"/>
      <use x="114.0625" xlink:href="#DejaVuSans-110"/>
      <use x="177.441406" xlink:href="#DejaVuSans-105"/>
      <use x="205.224609" xlink:href="#DejaVuSans-109"/>
      <use x="302.636719" xlink:href="#DejaVuSans-117"/>
      <use x="366.015625" xlink:href="#DejaVuSans-109"/>
      <use x="463.427734" xlink:href="#DejaVuSans-58"/>
      <use x="497.119141" xlink:href="#DejaVuSans-32"/>
      <use x="528.90625" xlink:href="#DejaVuSans-49"/>
      <use x="592.529297" xlink:href="#DejaVuSans-46"/>
      <use x="624.316406" xlink:href="#DejaVuSans-48"/>
     </g>
    </g>
    <g id="line2d_64">
     <path d="M 790.063125 439.632812 
L 834.063125 439.632812 
" style="fill:none;stroke:#9041ff;stroke-linecap:square;stroke-width:5;"/>
    </g>
    <g id="line2d_65"/>
    <g id="text_20">
     <!-- Ungated: 0.35 -->
     <g transform="translate(851.663125 447.332812)scale(0.22 -0.22)">
      <use xlink:href="#DejaVuSans-85"/>
      <use x="73.193359" xlink:href="#DejaVuSans-110"/>
      <use x="136.572266" xlink:href="#DejaVuSans-103"/>
      <use x="200.048828" xlink:href="#DejaVuSans-97"/>
      <use x="261.328125" xlink:href="#DejaVuSans-116"/>
      <use x="300.537109" xlink:href="#DejaVuSans-101"/>
      <use x="362.060547" xlink:href="#DejaVuSans-100"/>
      <use x="425.537109" xlink:href="#DejaVuSans-58"/>
      <use x="459.228516" xlink:href="#DejaVuSans-32"/>
      <use x="491.015625" xlink:href="#DejaVuSans-48"/>
      <use x="554.638672" xlink:href="#DejaVuSans-46"/>
      <use x="586.425781" xlink:href="#DejaVuSans-51"/>
      <use x="650.048828" xlink:href="#DejaVuSans-53"/>
     </g>
    </g>
    <g id="line2d_66">
     <path d="M 790.063125 471.924688 
L 834.063125 471.924688 
" style="fill:none;stroke:#c49fff;stroke-linecap:square;stroke-width:5;"/>
    </g>
    <g id="line2d_67"/>
    <g id="text_21">
     <!-- Minimum: 0.35 -->
     <g transform="translate(851.663125 479.624687)scale(0.22 -0.22)">
      <use xlink:href="#DejaVuSans-77"/>
      <use x="86.279297" xlink:href="#DejaVuSans-105"/>
      <use x="114.0625" xlink:href="#DejaVuSans-110"/>
      <use x="177.441406" xlink:href="#DejaVuSans-105"/>
      <use x="205.224609" xlink:href="#DejaVuSans-109"/>
      <use x="302.636719" xlink:href="#DejaVuSans-117"/>
      <use x="366.015625" xlink:href="#DejaVuSans-109"/>
      <use x="463.427734" xlink:href="#DejaVuSans-58"/>
      <use x="497.119141" xlink:href="#DejaVuSans-32"/>
      <use x="528.90625" xlink:href="#DejaVuSans-48"/>
      <use x="592.529297" xlink:href="#DejaVuSans-46"/>
      <use x="624.316406" xlink:href="#DejaVuSans-51"/>
      <use x="687.939453" xlink:href="#DejaVuSans-53"/>
     </g>
    </g>
   </g>
  </g>
 </g>
 <defs>
  <clipPath id="p964380aa1b">
   <rect height="434.88" width="892.8" x="144" y="69.12"/>
  </clipPath>
 </defs>
</svg>
