<?xml version="1.0" encoding="utf-8" standalone="no"?>
<!DOCTYPE svg PUBLIC "-//W3C//DTD SVG 1.1//EN"
  "http://www.w3.org/Graphics/SVG/1.1/DTD/svg11.dtd">
<!-- Created with matplotlib (https://matplotlib.org/) -->
<svg height="537.7275pt" version="1.1" viewBox="0 0 1113.231875 537.7275" width="1113.231875pt" xmlns="http://www.w3.org/2000/svg" xmlns:xlink="http://www.w3.org/1999/xlink">
 <metadata>
  <rdf:RDF xmlns:cc="http://creativecommons.org/ns#" xmlns:dc="http://purl.org/dc/elements/1.1/" xmlns:rdf="http://www.w3.org/1999/02/22-rdf-syntax-ns#">
   <cc:Work>
    <dc:type rdf:resource="http://purl.org/dc/dcmitype/StillImage"/>
    <dc:date>2021-09-14T03:30:31.039737</dc:date>
    <dc:format>image/svg+xml</dc:format>
    <dc:creator>
     <cc:Agent>
      <dc:title>Matplotlib v3.3.4, https://matplotlib.org/</dc:title>
     </cc:Agent>
    </dc:creator>
   </cc:Work>
  </rdf:RDF>
 </metadata>
 <defs>
  <style type="text/css">*{stroke-linecap:butt;stroke-linejoin:round;}</style>
 </defs>
 <g id="figure_1">
  <g id="patch_1">
   <path d="M 0 537.7275 
L 1113.231875 537.7275 
L 1113.231875 0 
L 0 0 
z
" style="fill:#ffffff;"/>
  </g>
  <g id="axes_1">
   <g id="patch_2">
    <path d="M 101.69875 469.20125 
L 1022.123125 469.20125 
L 1022.123125 42.04125 
L 101.69875 42.04125 
z
" style="fill:#ffffff;"/>
   </g>
   <g id="matplotlib.axis_1">
    <g id="xtick_1">
     <g id="line2d_1">
      <defs>
       <path d="M 0 0 
L 0 3.5 
" id="m756dced05d" style="stroke:#000000;stroke-width:0.8;"/>
      </defs>
      <g>
       <use style="stroke:#000000;stroke-width:0.8;" x="101.69875" xlink:href="#m756dced05d" y="469.20125"/>
      </g>
     </g>
     <g id="text_1">
      <!-- 0.00 -->
      <g transform="translate(74.98 494.4375)scale(0.24 -0.24)">
       <defs>
        <path d="M 31.78125 66.40625 
Q 24.171875 66.40625 20.328125 58.90625 
Q 16.5 51.421875 16.5 36.375 
Q 16.5 21.390625 20.328125 13.890625 
Q 24.171875 6.390625 31.78125 6.390625 
Q 39.453125 6.390625 43.28125 13.890625 
Q 47.125 21.390625 47.125 36.375 
Q 47.125 51.421875 43.28125 58.90625 
Q 39.453125 66.40625 31.78125 66.40625 
z
M 31.78125 74.21875 
Q 44.046875 74.21875 50.515625 64.515625 
Q 56.984375 54.828125 56.984375 36.375 
Q 56.984375 17.96875 50.515625 8.265625 
Q 44.046875 -1.421875 31.78125 -1.421875 
Q 19.53125 -1.421875 13.0625 8.265625 
Q 6.59375 17.96875 6.59375 36.375 
Q 6.59375 54.828125 13.0625 64.515625 
Q 19.53125 74.21875 31.78125 74.21875 
z
" id="DejaVuSans-48"/>
        <path d="M 10.6875 12.40625 
L 21 12.40625 
L 21 0 
L 10.6875 0 
z
" id="DejaVuSans-46"/>
       </defs>
       <use xlink:href="#DejaVuSans-48"/>
       <use x="63.623047" xlink:href="#DejaVuSans-46"/>
       <use x="95.410156" xlink:href="#DejaVuSans-48"/>
       <use x="159.033203" xlink:href="#DejaVuSans-48"/>
      </g>
     </g>
    </g>
    <g id="xtick_2">
     <g id="line2d_2">
      <g>
       <use style="stroke:#000000;stroke-width:0.8;" x="228.829189" xlink:href="#m756dced05d" y="469.20125"/>
      </g>
     </g>
     <g id="text_2">
      <!-- 0.25 -->
      <g transform="translate(202.110439 494.4375)scale(0.24 -0.24)">
       <defs>
        <path d="M 19.1875 8.296875 
L 53.609375 8.296875 
L 53.609375 0 
L 7.328125 0 
L 7.328125 8.296875 
Q 12.9375 14.109375 22.625 23.890625 
Q 32.328125 33.6875 34.8125 36.53125 
Q 39.546875 41.84375 41.421875 45.53125 
Q 43.3125 49.21875 43.3125 52.78125 
Q 43.3125 58.59375 39.234375 62.25 
Q 35.15625 65.921875 28.609375 65.921875 
Q 23.96875 65.921875 18.8125 64.3125 
Q 13.671875 62.703125 7.8125 59.421875 
L 7.8125 69.390625 
Q 13.765625 71.78125 18.9375 73 
Q 24.125 74.21875 28.421875 74.21875 
Q 39.75 74.21875 46.484375 68.546875 
Q 53.21875 62.890625 53.21875 53.421875 
Q 53.21875 48.921875 51.53125 44.890625 
Q 49.859375 40.875 45.40625 35.40625 
Q 44.1875 33.984375 37.640625 27.21875 
Q 31.109375 20.453125 19.1875 8.296875 
z
" id="DejaVuSans-50"/>
        <path d="M 10.796875 72.90625 
L 49.515625 72.90625 
L 49.515625 64.59375 
L 19.828125 64.59375 
L 19.828125 46.734375 
Q 21.96875 47.46875 24.109375 47.828125 
Q 26.265625 48.1875 28.421875 48.1875 
Q 40.625 48.1875 47.75 41.5 
Q 54.890625 34.8125 54.890625 23.390625 
Q 54.890625 11.625 47.5625 5.09375 
Q 40.234375 -1.421875 26.90625 -1.421875 
Q 22.3125 -1.421875 17.546875 -0.640625 
Q 12.796875 0.140625 7.71875 1.703125 
L 7.71875 11.625 
Q 12.109375 9.234375 16.796875 8.0625 
Q 21.484375 6.890625 26.703125 6.890625 
Q 35.15625 6.890625 40.078125 11.328125 
Q 45.015625 15.765625 45.015625 23.390625 
Q 45.015625 31 40.078125 35.4375 
Q 35.15625 39.890625 26.703125 39.890625 
Q 22.75 39.890625 18.8125 39.015625 
Q 14.890625 38.140625 10.796875 36.28125 
z
" id="DejaVuSans-53"/>
       </defs>
       <use xlink:href="#DejaVuSans-48"/>
       <use x="63.623047" xlink:href="#DejaVuSans-46"/>
       <use x="95.410156" xlink:href="#DejaVuSans-50"/>
       <use x="159.033203" xlink:href="#DejaVuSans-53"/>
      </g>
     </g>
    </g>
    <g id="xtick_3">
     <g id="line2d_3">
      <g>
       <use style="stroke:#000000;stroke-width:0.8;" x="355.959627" xlink:href="#m756dced05d" y="469.20125"/>
      </g>
     </g>
     <g id="text_3">
      <!-- 0.50 -->
      <g transform="translate(329.240877 494.4375)scale(0.24 -0.24)">
       <use xlink:href="#DejaVuSans-48"/>
       <use x="63.623047" xlink:href="#DejaVuSans-46"/>
       <use x="95.410156" xlink:href="#DejaVuSans-53"/>
       <use x="159.033203" xlink:href="#DejaVuSans-48"/>
      </g>
     </g>
    </g>
    <g id="xtick_4">
     <g id="line2d_4">
      <g>
       <use style="stroke:#000000;stroke-width:0.8;" x="483.090066" xlink:href="#m756dced05d" y="469.20125"/>
      </g>
     </g>
     <g id="text_4">
      <!-- 0.75 -->
      <g transform="translate(456.371316 494.4375)scale(0.24 -0.24)">
       <defs>
        <path d="M 8.203125 72.90625 
L 55.078125 72.90625 
L 55.078125 68.703125 
L 28.609375 0 
L 18.3125 0 
L 43.21875 64.59375 
L 8.203125 64.59375 
z
" id="DejaVuSans-55"/>
       </defs>
       <use xlink:href="#DejaVuSans-48"/>
       <use x="63.623047" xlink:href="#DejaVuSans-46"/>
       <use x="95.410156" xlink:href="#DejaVuSans-55"/>
       <use x="159.033203" xlink:href="#DejaVuSans-53"/>
      </g>
     </g>
    </g>
    <g id="xtick_5">
     <g id="line2d_5">
      <g>
       <use style="stroke:#000000;stroke-width:0.8;" x="610.220504" xlink:href="#m756dced05d" y="469.20125"/>
      </g>
     </g>
     <g id="text_5">
      <!-- 1.00 -->
      <g transform="translate(583.501754 494.4375)scale(0.24 -0.24)">
       <defs>
        <path d="M 12.40625 8.296875 
L 28.515625 8.296875 
L 28.515625 63.921875 
L 10.984375 60.40625 
L 10.984375 69.390625 
L 28.421875 72.90625 
L 38.28125 72.90625 
L 38.28125 8.296875 
L 54.390625 8.296875 
L 54.390625 0 
L 12.40625 0 
z
" id="DejaVuSans-49"/>
       </defs>
       <use xlink:href="#DejaVuSans-49"/>
       <use x="63.623047" xlink:href="#DejaVuSans-46"/>
       <use x="95.410156" xlink:href="#DejaVuSans-48"/>
       <use x="159.033203" xlink:href="#DejaVuSans-48"/>
      </g>
     </g>
    </g>
    <g id="xtick_6">
     <g id="line2d_6">
      <g>
       <use style="stroke:#000000;stroke-width:0.8;" x="737.350943" xlink:href="#m756dced05d" y="469.20125"/>
      </g>
     </g>
     <g id="text_6">
      <!-- 1.25 -->
      <g transform="translate(710.632193 494.4375)scale(0.24 -0.24)">
       <use xlink:href="#DejaVuSans-49"/>
       <use x="63.623047" xlink:href="#DejaVuSans-46"/>
       <use x="95.410156" xlink:href="#DejaVuSans-50"/>
       <use x="159.033203" xlink:href="#DejaVuSans-53"/>
      </g>
     </g>
    </g>
    <g id="xtick_7">
     <g id="line2d_7">
      <g>
       <use style="stroke:#000000;stroke-width:0.8;" x="864.481381" xlink:href="#m756dced05d" y="469.20125"/>
      </g>
     </g>
     <g id="text_7">
      <!-- 1.50 -->
      <g transform="translate(837.762631 494.4375)scale(0.24 -0.24)">
       <use xlink:href="#DejaVuSans-49"/>
       <use x="63.623047" xlink:href="#DejaVuSans-46"/>
       <use x="95.410156" xlink:href="#DejaVuSans-53"/>
       <use x="159.033203" xlink:href="#DejaVuSans-48"/>
      </g>
     </g>
    </g>
    <g id="xtick_8">
     <g id="line2d_8">
      <g>
       <use style="stroke:#000000;stroke-width:0.8;" x="991.61182" xlink:href="#m756dced05d" y="469.20125"/>
      </g>
     </g>
     <g id="text_8">
      <!-- 1.75 -->
      <g transform="translate(964.89307 494.4375)scale(0.24 -0.24)">
       <use xlink:href="#DejaVuSans-49"/>
       <use x="63.623047" xlink:href="#DejaVuSans-46"/>
       <use x="95.410156" xlink:href="#DejaVuSans-55"/>
       <use x="159.033203" xlink:href="#DejaVuSans-53"/>
      </g>
     </g>
    </g>
    <g id="text_9">
     <!-- Samples (Epochs) -->
     <g transform="translate(436.584688 524.704375)scale(0.28 -0.28)">
      <defs>
       <path d="M 53.515625 70.515625 
L 53.515625 60.890625 
Q 47.90625 63.578125 42.921875 64.890625 
Q 37.9375 66.21875 33.296875 66.21875 
Q 25.25 66.21875 20.875 63.09375 
Q 16.5 59.96875 16.5 54.203125 
Q 16.5 49.359375 19.40625 46.890625 
Q 22.3125 44.4375 30.421875 42.921875 
L 36.375 41.703125 
Q 47.40625 39.59375 52.65625 34.296875 
Q 57.90625 29 57.90625 20.125 
Q 57.90625 9.515625 50.796875 4.046875 
Q 43.703125 -1.421875 29.984375 -1.421875 
Q 24.8125 -1.421875 18.96875 -0.25 
Q 13.140625 0.921875 6.890625 3.21875 
L 6.890625 13.375 
Q 12.890625 10.015625 18.65625 8.296875 
Q 24.421875 6.59375 29.984375 6.59375 
Q 38.421875 6.59375 43.015625 9.90625 
Q 47.609375 13.234375 47.609375 19.390625 
Q 47.609375 24.75 44.3125 27.78125 
Q 41.015625 30.8125 33.5 32.328125 
L 27.484375 33.5 
Q 16.453125 35.6875 11.515625 40.375 
Q 6.59375 45.0625 6.59375 53.421875 
Q 6.59375 63.09375 13.40625 68.65625 
Q 20.21875 74.21875 32.171875 74.21875 
Q 37.3125 74.21875 42.625 73.28125 
Q 47.953125 72.359375 53.515625 70.515625 
z
" id="DejaVuSans-83"/>
       <path d="M 34.28125 27.484375 
Q 23.390625 27.484375 19.1875 25 
Q 14.984375 22.515625 14.984375 16.5 
Q 14.984375 11.71875 18.140625 8.90625 
Q 21.296875 6.109375 26.703125 6.109375 
Q 34.1875 6.109375 38.703125 11.40625 
Q 43.21875 16.703125 43.21875 25.484375 
L 43.21875 27.484375 
z
M 52.203125 31.203125 
L 52.203125 0 
L 43.21875 0 
L 43.21875 8.296875 
Q 40.140625 3.328125 35.546875 0.953125 
Q 30.953125 -1.421875 24.3125 -1.421875 
Q 15.921875 -1.421875 10.953125 3.296875 
Q 6 8.015625 6 15.921875 
Q 6 25.140625 12.171875 29.828125 
Q 18.359375 34.515625 30.609375 34.515625 
L 43.21875 34.515625 
L 43.21875 35.40625 
Q 43.21875 41.609375 39.140625 45 
Q 35.0625 48.390625 27.6875 48.390625 
Q 23 48.390625 18.546875 47.265625 
Q 14.109375 46.140625 10.015625 43.890625 
L 10.015625 52.203125 
Q 14.9375 54.109375 19.578125 55.046875 
Q 24.21875 56 28.609375 56 
Q 40.484375 56 46.34375 49.84375 
Q 52.203125 43.703125 52.203125 31.203125 
z
" id="DejaVuSans-97"/>
       <path d="M 52 44.1875 
Q 55.375 50.25 60.0625 53.125 
Q 64.75 56 71.09375 56 
Q 79.640625 56 84.28125 50.015625 
Q 88.921875 44.046875 88.921875 33.015625 
L 88.921875 0 
L 79.890625 0 
L 79.890625 32.71875 
Q 79.890625 40.578125 77.09375 44.375 
Q 74.3125 48.1875 68.609375 48.1875 
Q 61.625 48.1875 57.5625 43.546875 
Q 53.515625 38.921875 53.515625 30.90625 
L 53.515625 0 
L 44.484375 0 
L 44.484375 32.71875 
Q 44.484375 40.625 41.703125 44.40625 
Q 38.921875 48.1875 33.109375 48.1875 
Q 26.21875 48.1875 22.15625 43.53125 
Q 18.109375 38.875 18.109375 30.90625 
L 18.109375 0 
L 9.078125 0 
L 9.078125 54.6875 
L 18.109375 54.6875 
L 18.109375 46.1875 
Q 21.1875 51.21875 25.484375 53.609375 
Q 29.78125 56 35.6875 56 
Q 41.65625 56 45.828125 52.96875 
Q 50 49.953125 52 44.1875 
z
" id="DejaVuSans-109"/>
       <path d="M 18.109375 8.203125 
L 18.109375 -20.796875 
L 9.078125 -20.796875 
L 9.078125 54.6875 
L 18.109375 54.6875 
L 18.109375 46.390625 
Q 20.953125 51.265625 25.265625 53.625 
Q 29.59375 56 35.59375 56 
Q 45.5625 56 51.78125 48.09375 
Q 58.015625 40.1875 58.015625 27.296875 
Q 58.015625 14.40625 51.78125 6.484375 
Q 45.5625 -1.421875 35.59375 -1.421875 
Q 29.59375 -1.421875 25.265625 0.953125 
Q 20.953125 3.328125 18.109375 8.203125 
z
M 48.6875 27.296875 
Q 48.6875 37.203125 44.609375 42.84375 
Q 40.53125 48.484375 33.40625 48.484375 
Q 26.265625 48.484375 22.1875 42.84375 
Q 18.109375 37.203125 18.109375 27.296875 
Q 18.109375 17.390625 22.1875 11.75 
Q 26.265625 6.109375 33.40625 6.109375 
Q 40.53125 6.109375 44.609375 11.75 
Q 48.6875 17.390625 48.6875 27.296875 
z
" id="DejaVuSans-112"/>
       <path d="M 9.421875 75.984375 
L 18.40625 75.984375 
L 18.40625 0 
L 9.421875 0 
z
" id="DejaVuSans-108"/>
       <path d="M 56.203125 29.59375 
L 56.203125 25.203125 
L 14.890625 25.203125 
Q 15.484375 15.921875 20.484375 11.0625 
Q 25.484375 6.203125 34.421875 6.203125 
Q 39.59375 6.203125 44.453125 7.46875 
Q 49.3125 8.734375 54.109375 11.28125 
L 54.109375 2.78125 
Q 49.265625 0.734375 44.1875 -0.34375 
Q 39.109375 -1.421875 33.890625 -1.421875 
Q 20.796875 -1.421875 13.15625 6.1875 
Q 5.515625 13.8125 5.515625 26.8125 
Q 5.515625 40.234375 12.765625 48.109375 
Q 20.015625 56 32.328125 56 
Q 43.359375 56 49.78125 48.890625 
Q 56.203125 41.796875 56.203125 29.59375 
z
M 47.21875 32.234375 
Q 47.125 39.59375 43.09375 43.984375 
Q 39.0625 48.390625 32.421875 48.390625 
Q 24.90625 48.390625 20.390625 44.140625 
Q 15.875 39.890625 15.1875 32.171875 
z
" id="DejaVuSans-101"/>
       <path d="M 44.28125 53.078125 
L 44.28125 44.578125 
Q 40.484375 46.53125 36.375 47.5 
Q 32.28125 48.484375 27.875 48.484375 
Q 21.1875 48.484375 17.84375 46.4375 
Q 14.5 44.390625 14.5 40.28125 
Q 14.5 37.15625 16.890625 35.375 
Q 19.28125 33.59375 26.515625 31.984375 
L 29.59375 31.296875 
Q 39.15625 29.25 43.1875 25.515625 
Q 47.21875 21.78125 47.21875 15.09375 
Q 47.21875 7.46875 41.1875 3.015625 
Q 35.15625 -1.421875 24.609375 -1.421875 
Q 20.21875 -1.421875 15.453125 -0.5625 
Q 10.6875 0.296875 5.421875 2 
L 5.421875 11.28125 
Q 10.40625 8.6875 15.234375 7.390625 
Q 20.0625 6.109375 24.8125 6.109375 
Q 31.15625 6.109375 34.5625 8.28125 
Q 37.984375 10.453125 37.984375 14.40625 
Q 37.984375 18.0625 35.515625 20.015625 
Q 33.0625 21.96875 24.703125 23.78125 
L 21.578125 24.515625 
Q 13.234375 26.265625 9.515625 29.90625 
Q 5.8125 33.546875 5.8125 39.890625 
Q 5.8125 47.609375 11.28125 51.796875 
Q 16.75 56 26.8125 56 
Q 31.78125 56 36.171875 55.265625 
Q 40.578125 54.546875 44.28125 53.078125 
z
" id="DejaVuSans-115"/>
       <path id="DejaVuSans-32"/>
       <path d="M 31 75.875 
Q 24.46875 64.65625 21.28125 53.65625 
Q 18.109375 42.671875 18.109375 31.390625 
Q 18.109375 20.125 21.3125 9.0625 
Q 24.515625 -2 31 -13.1875 
L 23.1875 -13.1875 
Q 15.875 -1.703125 12.234375 9.375 
Q 8.59375 20.453125 8.59375 31.390625 
Q 8.59375 42.28125 12.203125 53.3125 
Q 15.828125 64.359375 23.1875 75.875 
z
" id="DejaVuSans-40"/>
       <path d="M 9.8125 72.90625 
L 55.90625 72.90625 
L 55.90625 64.59375 
L 19.671875 64.59375 
L 19.671875 43.015625 
L 54.390625 43.015625 
L 54.390625 34.71875 
L 19.671875 34.71875 
L 19.671875 8.296875 
L 56.78125 8.296875 
L 56.78125 0 
L 9.8125 0 
z
" id="DejaVuSans-69"/>
       <path d="M 30.609375 48.390625 
Q 23.390625 48.390625 19.1875 42.75 
Q 14.984375 37.109375 14.984375 27.296875 
Q 14.984375 17.484375 19.15625 11.84375 
Q 23.34375 6.203125 30.609375 6.203125 
Q 37.796875 6.203125 41.984375 11.859375 
Q 46.1875 17.53125 46.1875 27.296875 
Q 46.1875 37.015625 41.984375 42.703125 
Q 37.796875 48.390625 30.609375 48.390625 
z
M 30.609375 56 
Q 42.328125 56 49.015625 48.375 
Q 55.71875 40.765625 55.71875 27.296875 
Q 55.71875 13.875 49.015625 6.21875 
Q 42.328125 -1.421875 30.609375 -1.421875 
Q 18.84375 -1.421875 12.171875 6.21875 
Q 5.515625 13.875 5.515625 27.296875 
Q 5.515625 40.765625 12.171875 48.375 
Q 18.84375 56 30.609375 56 
z
" id="DejaVuSans-111"/>
       <path d="M 48.78125 52.59375 
L 48.78125 44.1875 
Q 44.96875 46.296875 41.140625 47.34375 
Q 37.3125 48.390625 33.40625 48.390625 
Q 24.65625 48.390625 19.8125 42.84375 
Q 14.984375 37.3125 14.984375 27.296875 
Q 14.984375 17.28125 19.8125 11.734375 
Q 24.65625 6.203125 33.40625 6.203125 
Q 37.3125 6.203125 41.140625 7.25 
Q 44.96875 8.296875 48.78125 10.40625 
L 48.78125 2.09375 
Q 45.015625 0.34375 40.984375 -0.53125 
Q 36.96875 -1.421875 32.421875 -1.421875 
Q 20.0625 -1.421875 12.78125 6.34375 
Q 5.515625 14.109375 5.515625 27.296875 
Q 5.515625 40.671875 12.859375 48.328125 
Q 20.21875 56 33.015625 56 
Q 37.15625 56 41.109375 55.140625 
Q 45.0625 54.296875 48.78125 52.59375 
z
" id="DejaVuSans-99"/>
       <path d="M 54.890625 33.015625 
L 54.890625 0 
L 45.90625 0 
L 45.90625 32.71875 
Q 45.90625 40.484375 42.875 44.328125 
Q 39.84375 48.1875 33.796875 48.1875 
Q 26.515625 48.1875 22.3125 43.546875 
Q 18.109375 38.921875 18.109375 30.90625 
L 18.109375 0 
L 9.078125 0 
L 9.078125 75.984375 
L 18.109375 75.984375 
L 18.109375 46.1875 
Q 21.34375 51.125 25.703125 53.5625 
Q 30.078125 56 35.796875 56 
Q 45.21875 56 50.046875 50.171875 
Q 54.890625 44.34375 54.890625 33.015625 
z
" id="DejaVuSans-104"/>
       <path d="M 8.015625 75.875 
L 15.828125 75.875 
Q 23.140625 64.359375 26.78125 53.3125 
Q 30.421875 42.28125 30.421875 31.390625 
Q 30.421875 20.453125 26.78125 9.375 
Q 23.140625 -1.703125 15.828125 -13.1875 
L 8.015625 -13.1875 
Q 14.5 -2 17.703125 9.0625 
Q 20.90625 20.125 20.90625 31.390625 
Q 20.90625 42.671875 17.703125 53.65625 
Q 14.5 64.65625 8.015625 75.875 
z
" id="DejaVuSans-41"/>
      </defs>
      <use xlink:href="#DejaVuSans-83"/>
      <use x="63.476562" xlink:href="#DejaVuSans-97"/>
      <use x="124.755859" xlink:href="#DejaVuSans-109"/>
      <use x="222.167969" xlink:href="#DejaVuSans-112"/>
      <use x="285.644531" xlink:href="#DejaVuSans-108"/>
      <use x="313.427734" xlink:href="#DejaVuSans-101"/>
      <use x="374.951172" xlink:href="#DejaVuSans-115"/>
      <use x="427.050781" xlink:href="#DejaVuSans-32"/>
      <use x="458.837891" xlink:href="#DejaVuSans-40"/>
      <use x="497.851562" xlink:href="#DejaVuSans-69"/>
      <use x="561.035156" xlink:href="#DejaVuSans-112"/>
      <use x="624.511719" xlink:href="#DejaVuSans-111"/>
      <use x="685.693359" xlink:href="#DejaVuSans-99"/>
      <use x="740.673828" xlink:href="#DejaVuSans-104"/>
      <use x="804.052734" xlink:href="#DejaVuSans-115"/>
      <use x="856.152344" xlink:href="#DejaVuSans-41"/>
     </g>
    </g>
    <g id="text_10">
     <!-- 1e6 -->
     <g transform="translate(984.366875 517.625625)scale(0.2 -0.2)">
      <defs>
       <path d="M 33.015625 40.375 
Q 26.375 40.375 22.484375 35.828125 
Q 18.609375 31.296875 18.609375 23.390625 
Q 18.609375 15.53125 22.484375 10.953125 
Q 26.375 6.390625 33.015625 6.390625 
Q 39.65625 6.390625 43.53125 10.953125 
Q 47.40625 15.53125 47.40625 23.390625 
Q 47.40625 31.296875 43.53125 35.828125 
Q 39.65625 40.375 33.015625 40.375 
z
M 52.59375 71.296875 
L 52.59375 62.3125 
Q 48.875 64.0625 45.09375 64.984375 
Q 41.3125 65.921875 37.59375 65.921875 
Q 27.828125 65.921875 22.671875 59.328125 
Q 17.53125 52.734375 16.796875 39.40625 
Q 19.671875 43.65625 24.015625 45.921875 
Q 28.375 48.1875 33.59375 48.1875 
Q 44.578125 48.1875 50.953125 41.515625 
Q 57.328125 34.859375 57.328125 23.390625 
Q 57.328125 12.15625 50.6875 5.359375 
Q 44.046875 -1.421875 33.015625 -1.421875 
Q 20.359375 -1.421875 13.671875 8.265625 
Q 6.984375 17.96875 6.984375 36.375 
Q 6.984375 53.65625 15.1875 63.9375 
Q 23.390625 74.21875 37.203125 74.21875 
Q 40.921875 74.21875 44.703125 73.484375 
Q 48.484375 72.75 52.59375 71.296875 
z
" id="DejaVuSans-54"/>
      </defs>
      <use xlink:href="#DejaVuSans-49"/>
      <use x="63.623047" xlink:href="#DejaVuSans-101"/>
      <use x="125.146484" xlink:href="#DejaVuSans-54"/>
     </g>
    </g>
   </g>
   <g id="matplotlib.axis_2">
    <g id="ytick_1">
     <g id="line2d_9">
      <defs>
       <path d="M 0 0 
L -3.5 0 
" id="me8c921a0b2" style="stroke:#000000;stroke-width:0.8;"/>
      </defs>
      <g>
       <use style="stroke:#000000;stroke-width:0.8;" x="101.69875" xlink:href="#me8c921a0b2" y="388.937107"/>
      </g>
     </g>
     <g id="text_11">
      <!-- $\mathdefault{10^{-1}}$ -->
      <g transform="translate(38.29875 398.055232)scale(0.24 -0.24)">
       <defs>
        <path d="M 10.59375 35.5 
L 73.1875 35.5 
L 73.1875 27.203125 
L 10.59375 27.203125 
z
" id="DejaVuSans-8722"/>
       </defs>
       <use transform="translate(0 0.684375)" xlink:href="#DejaVuSans-49"/>
       <use transform="translate(63.623047 0.684375)" xlink:href="#DejaVuSans-48"/>
       <use transform="translate(128.203125 38.965625)scale(0.7)" xlink:href="#DejaVuSans-8722"/>
       <use transform="translate(186.855469 38.965625)scale(0.7)" xlink:href="#DejaVuSans-49"/>
      </g>
     </g>
    </g>
    <g id="ytick_2">
     <g id="line2d_10">
      <g>
       <use style="stroke:#000000;stroke-width:0.8;" x="101.69875" xlink:href="#me8c921a0b2" y="122.305393"/>
      </g>
     </g>
     <g id="text_12">
      <!-- $\mathdefault{10^{0}}$ -->
      <g transform="translate(52.45875 131.423518)scale(0.24 -0.24)">
       <use transform="translate(0 0.765625)" xlink:href="#DejaVuSans-49"/>
       <use transform="translate(63.623047 0.765625)" xlink:href="#DejaVuSans-48"/>
       <use transform="translate(128.203125 39.046875)scale(0.7)" xlink:href="#DejaVuSans-48"/>
      </g>
     </g>
    </g>
    <g id="ytick_3">
     <g id="line2d_11">
      <defs>
       <path d="M 0 0 
L -2 0 
" id="mfa9d5837cc" style="stroke:#000000;stroke-width:0.6;"/>
      </defs>
      <g>
       <use style="stroke:#000000;stroke-width:0.6;" x="101.69875" xlink:href="#mfa9d5837cc" y="469.20125"/>
      </g>
     </g>
    </g>
    <g id="ytick_4">
     <g id="line2d_12">
      <g>
       <use style="stroke:#000000;stroke-width:0.6;" x="101.69875" xlink:href="#mfa9d5837cc" y="448.089019"/>
      </g>
     </g>
    </g>
    <g id="ytick_5">
     <g id="line2d_13">
      <g>
       <use style="stroke:#000000;stroke-width:0.6;" x="101.69875" xlink:href="#mfa9d5837cc" y="430.238882"/>
      </g>
     </g>
    </g>
    <g id="ytick_6">
     <g id="line2d_14">
      <g>
       <use style="stroke:#000000;stroke-width:0.6;" x="101.69875" xlink:href="#mfa9d5837cc" y="414.776389"/>
      </g>
     </g>
    </g>
    <g id="ytick_7">
     <g id="line2d_15">
      <g>
       <use style="stroke:#000000;stroke-width:0.6;" x="101.69875" xlink:href="#mfa9d5837cc" y="401.137505"/>
      </g>
     </g>
    </g>
    <g id="ytick_8">
     <g id="line2d_16">
      <g>
       <use style="stroke:#000000;stroke-width:0.6;" x="101.69875" xlink:href="#mfa9d5837cc" y="308.672963"/>
      </g>
     </g>
    </g>
    <g id="ytick_9">
     <g id="line2d_17">
      <g>
       <use style="stroke:#000000;stroke-width:0.6;" x="101.69875" xlink:href="#mfa9d5837cc" y="261.721449"/>
      </g>
     </g>
    </g>
    <g id="ytick_10">
     <g id="line2d_18">
      <g>
       <use style="stroke:#000000;stroke-width:0.6;" x="101.69875" xlink:href="#mfa9d5837cc" y="228.40882"/>
      </g>
     </g>
    </g>
    <g id="ytick_11">
     <g id="line2d_19">
      <g>
       <use style="stroke:#000000;stroke-width:0.6;" x="101.69875" xlink:href="#mfa9d5837cc" y="202.569537"/>
      </g>
     </g>
    </g>
    <g id="ytick_12">
     <g id="line2d_20">
      <g>
       <use style="stroke:#000000;stroke-width:0.6;" x="101.69875" xlink:href="#mfa9d5837cc" y="181.457306"/>
      </g>
     </g>
    </g>
    <g id="ytick_13">
     <g id="line2d_21">
      <g>
       <use style="stroke:#000000;stroke-width:0.6;" x="101.69875" xlink:href="#mfa9d5837cc" y="163.607168"/>
      </g>
     </g>
    </g>
    <g id="ytick_14">
     <g id="line2d_22">
      <g>
       <use style="stroke:#000000;stroke-width:0.6;" x="101.69875" xlink:href="#mfa9d5837cc" y="148.144676"/>
      </g>
     </g>
    </g>
    <g id="ytick_15">
     <g id="line2d_23">
      <g>
       <use style="stroke:#000000;stroke-width:0.6;" x="101.69875" xlink:href="#mfa9d5837cc" y="134.505792"/>
      </g>
     </g>
    </g>
    <g id="ytick_16">
     <g id="line2d_24">
      <g>
       <use style="stroke:#000000;stroke-width:0.6;" x="101.69875" xlink:href="#mfa9d5837cc" y="42.04125"/>
      </g>
     </g>
    </g>
    <g id="text_13">
     <!-- Cross Entropy Loss -->
     <g transform="translate(28.475625 387.984687)rotate(-90)scale(0.28 -0.28)">
      <defs>
       <path d="M 64.40625 67.28125 
L 64.40625 56.890625 
Q 59.421875 61.53125 53.78125 63.8125 
Q 48.140625 66.109375 41.796875 66.109375 
Q 29.296875 66.109375 22.65625 58.46875 
Q 16.015625 50.828125 16.015625 36.375 
Q 16.015625 21.96875 22.65625 14.328125 
Q 29.296875 6.6875 41.796875 6.6875 
Q 48.140625 6.6875 53.78125 8.984375 
Q 59.421875 11.28125 64.40625 15.921875 
L 64.40625 5.609375 
Q 59.234375 2.09375 53.4375 0.328125 
Q 47.65625 -1.421875 41.21875 -1.421875 
Q 24.65625 -1.421875 15.125 8.703125 
Q 5.609375 18.84375 5.609375 36.375 
Q 5.609375 53.953125 15.125 64.078125 
Q 24.65625 74.21875 41.21875 74.21875 
Q 47.75 74.21875 53.53125 72.484375 
Q 59.328125 70.75 64.40625 67.28125 
z
" id="DejaVuSans-67"/>
       <path d="M 41.109375 46.296875 
Q 39.59375 47.171875 37.8125 47.578125 
Q 36.03125 48 33.890625 48 
Q 26.265625 48 22.1875 43.046875 
Q 18.109375 38.09375 18.109375 28.8125 
L 18.109375 0 
L 9.078125 0 
L 9.078125 54.6875 
L 18.109375 54.6875 
L 18.109375 46.1875 
Q 20.953125 51.171875 25.484375 53.578125 
Q 30.03125 56 36.53125 56 
Q 37.453125 56 38.578125 55.875 
Q 39.703125 55.765625 41.0625 55.515625 
z
" id="DejaVuSans-114"/>
       <path d="M 54.890625 33.015625 
L 54.890625 0 
L 45.90625 0 
L 45.90625 32.71875 
Q 45.90625 40.484375 42.875 44.328125 
Q 39.84375 48.1875 33.796875 48.1875 
Q 26.515625 48.1875 22.3125 43.546875 
Q 18.109375 38.921875 18.109375 30.90625 
L 18.109375 0 
L 9.078125 0 
L 9.078125 54.6875 
L 18.109375 54.6875 
L 18.109375 46.1875 
Q 21.34375 51.125 25.703125 53.5625 
Q 30.078125 56 35.796875 56 
Q 45.21875 56 50.046875 50.171875 
Q 54.890625 44.34375 54.890625 33.015625 
z
" id="DejaVuSans-110"/>
       <path d="M 18.3125 70.21875 
L 18.3125 54.6875 
L 36.8125 54.6875 
L 36.8125 47.703125 
L 18.3125 47.703125 
L 18.3125 18.015625 
Q 18.3125 11.328125 20.140625 9.421875 
Q 21.96875 7.515625 27.59375 7.515625 
L 36.8125 7.515625 
L 36.8125 0 
L 27.59375 0 
Q 17.1875 0 13.234375 3.875 
Q 9.28125 7.765625 9.28125 18.015625 
L 9.28125 47.703125 
L 2.6875 47.703125 
L 2.6875 54.6875 
L 9.28125 54.6875 
L 9.28125 70.21875 
z
" id="DejaVuSans-116"/>
       <path d="M 32.171875 -5.078125 
Q 28.375 -14.84375 24.75 -17.8125 
Q 21.140625 -20.796875 15.09375 -20.796875 
L 7.90625 -20.796875 
L 7.90625 -13.28125 
L 13.1875 -13.28125 
Q 16.890625 -13.28125 18.9375 -11.515625 
Q 21 -9.765625 23.484375 -3.21875 
L 25.09375 0.875 
L 2.984375 54.6875 
L 12.5 54.6875 
L 29.59375 11.921875 
L 46.6875 54.6875 
L 56.203125 54.6875 
z
" id="DejaVuSans-121"/>
       <path d="M 9.8125 72.90625 
L 19.671875 72.90625 
L 19.671875 8.296875 
L 55.171875 8.296875 
L 55.171875 0 
L 9.8125 0 
z
" id="DejaVuSans-76"/>
      </defs>
      <use xlink:href="#DejaVuSans-67"/>
      <use x="69.824219" xlink:href="#DejaVuSans-114"/>
      <use x="108.6875" xlink:href="#DejaVuSans-111"/>
      <use x="169.869141" xlink:href="#DejaVuSans-115"/>
      <use x="221.96875" xlink:href="#DejaVuSans-115"/>
      <use x="274.068359" xlink:href="#DejaVuSans-32"/>
      <use x="305.855469" xlink:href="#DejaVuSans-69"/>
      <use x="369.039062" xlink:href="#DejaVuSans-110"/>
      <use x="432.417969" xlink:href="#DejaVuSans-116"/>
      <use x="471.626953" xlink:href="#DejaVuSans-114"/>
      <use x="510.490234" xlink:href="#DejaVuSans-111"/>
      <use x="571.671875" xlink:href="#DejaVuSans-112"/>
      <use x="635.148438" xlink:href="#DejaVuSans-121"/>
      <use x="694.328125" xlink:href="#DejaVuSans-32"/>
      <use x="726.115234" xlink:href="#DejaVuSans-76"/>
      <use x="780.078125" xlink:href="#DejaVuSans-111"/>
      <use x="841.259766" xlink:href="#DejaVuSans-115"/>
      <use x="893.359375" xlink:href="#DejaVuSans-115"/>
     </g>
    </g>
   </g>
   <g id="line2d_25">
    <path clip-path="url(#p2fcf776af4)" d="M 104.241359 157.670344 
L 106.783968 206.009698 
L 109.326576 225.386652 
L 111.869185 235.905083 
L 114.411794 244.044165 
L 119.497011 255.634551 
L 122.03962 258.518798 
L 124.582229 265.107279 
L 127.124838 266.455389 
L 129.667446 266.919983 
L 132.210055 273.526634 
L 134.752664 276.288827 
L 137.295273 279.865381 
L 139.837882 280.964025 
L 142.38049 285.351949 
L 144.923099 284.619513 
L 147.465708 290.064708 
L 150.008317 291.285777 
L 152.550925 291.783424 
L 155.093534 292.74116 
L 157.636143 299.697596 
L 160.178752 298.260924 
L 162.72136 304.387539 
L 165.263969 304.085124 
L 167.806578 308.918898 
L 170.349187 308.970275 
L 172.891796 308.150829 
L 175.434404 312.964562 
L 180.519622 318.695124 
L 183.062231 318.676304 
L 185.604839 318.93163 
L 188.147448 322.686424 
L 190.690057 320.82058 
L 193.232666 322.827974 
L 195.775275 327.198631 
L 198.317883 327.431819 
L 200.860492 327.828524 
L 203.403101 331.543199 
L 205.94571 330.96394 
L 208.488318 328.043367 
L 211.030927 336.727427 
L 213.573536 336.950466 
L 216.116145 338.205338 
L 218.658753 335.552142 
L 221.201362 341.084707 
L 223.743971 341.087889 
L 226.28658 342.070512 
L 231.371797 343.728345 
L 233.914406 346.008069 
L 236.457015 346.902825 
L 238.999624 349.316109 
L 241.542232 348.514208 
L 244.084841 353.013019 
L 246.62745 352.170131 
L 249.170059 353.025692 
L 251.712667 354.02233 
L 254.255276 357.486009 
L 256.797885 356.96141 
L 259.340494 353.564615 
L 264.425711 359.37037 
L 266.96832 358.467713 
L 269.510929 349.862899 
L 272.053538 360.845661 
L 274.596146 362.596933 
L 277.138755 362.135285 
L 279.681364 365.541041 
L 282.223973 361.40109 
L 284.766581 366.003854 
L 287.30919 368.504609 
L 289.851799 365.242395 
L 292.394408 363.984657 
L 294.937017 369.847204 
L 297.479625 368.25781 
L 302.564843 373.13117 
L 305.107452 374.877071 
L 307.65006 372.614755 
L 310.192669 375.299182 
L 312.735278 374.570153 
L 315.277887 374.882751 
L 317.820496 374.008416 
L 320.363104 377.979845 
L 322.905713 379.468105 
L 325.448322 378.710305 
L 327.990931 378.311646 
L 330.533539 375.633299 
L 333.076148 377.556692 
L 335.618757 377.533873 
L 338.161366 379.490673 
L 340.703974 379.535238 
L 343.246583 382.674242 
L 345.789192 381.163257 
L 348.331801 382.477103 
L 350.87441 383.569241 
L 353.417018 382.817414 
L 355.959627 383.569567 
L 358.502236 384.880327 
L 361.044845 385.771179 
L 363.587453 383.631648 
L 366.130062 382.564944 
L 368.672671 386.328533 
L 371.21528 384.803517 
L 373.757888 389.258896 
L 376.300497 390.95797 
L 378.843106 388.790164 
L 383.928324 391.223134 
L 386.470932 389.830683 
L 389.013541 389.071502 
L 391.55615 390.688779 
L 394.098759 392.058411 
L 396.641367 393.6034 
L 399.183976 396.232676 
L 401.726585 394.082169 
L 404.269194 394.574951 
L 406.811802 391.604118 
L 409.354411 392.151006 
L 411.89702 394.943181 
L 414.439629 391.964492 
L 416.982238 396.807168 
L 419.524846 395.647664 
L 422.067455 393.901244 
L 424.610064 396.863525 
L 427.152673 395.253601 
L 429.695281 398.311644 
L 432.23789 397.464345 
L 434.780499 400.965187 
L 439.865717 399.762889 
L 444.950934 398.754912 
L 447.493543 401.735183 
L 450.036152 401.178957 
L 452.57876 401.372391 
L 455.121369 403.76238 
L 457.663978 396.299783 
L 460.206587 402.510315 
L 462.749195 401.323866 
L 465.291804 405.669841 
L 467.834413 404.271899 
L 470.377022 402.122059 
L 472.919631 400.923158 
L 475.462239 404.715596 
L 478.004848 404.832927 
L 480.547457 407.086467 
L 483.090066 405.602402 
L 485.632674 407.061999 
L 488.175283 404.733514 
L 490.717892 405.711718 
L 493.260501 408.284472 
L 495.803109 407.561775 
L 498.345718 406.528528 
L 500.888327 405.063949 
L 503.430936 406.954383 
L 505.973545 410.872911 
L 508.516153 407.368609 
L 511.058762 409.549613 
L 513.601371 412.565534 
L 516.14398 411.191813 
L 518.686588 400.721451 
L 521.229197 410.586919 
L 523.771806 410.320254 
L 526.314415 410.25447 
L 528.857023 411.848661 
L 531.399632 412.260262 
L 533.942241 411.682675 
L 536.48485 407.301011 
L 539.027459 407.836867 
L 541.570067 411.64202 
L 544.112676 409.468805 
L 546.655285 412.047525 
L 549.197894 413.92091 
L 551.740502 413.082938 
L 554.283111 413.007512 
L 556.82572 414.229775 
L 559.368329 413.902369 
L 561.910938 414.393713 
L 564.453546 413.878732 
L 566.996155 410.942627 
L 569.538764 410.581924 
L 572.081373 414.773077 
L 574.623981 415.33284 
L 577.16659 413.397051 
L 579.709199 413.091049 
L 582.251808 416.374662 
L 584.794416 417.985335 
L 587.337025 417.205478 
L 589.879634 413.096898 
L 592.422243 419.64972 
L 594.964852 417.710662 
L 597.50746 418.13783 
L 600.050069 416.892735 
L 602.592678 417.248773 
L 605.135287 414.980338 
L 607.677895 416.6207 
L 610.220504 416.637287 
L 612.763113 415.921221 
L 615.305722 417.142485 
L 617.84833 417.088456 
L 620.390939 418.914916 
L 622.933548 418.155388 
L 625.476157 419.564058 
L 628.018766 418.870249 
L 630.561374 420.984046 
L 633.103983 418.907483 
L 635.646592 419.527928 
L 638.189201 418.414556 
L 640.731809 413.79061 
L 643.274418 416.58065 
L 645.817027 417.682342 
L 648.359636 422.05243 
L 650.902244 420.506241 
L 653.444853 418.668576 
L 655.987462 420.725945 
L 658.530071 420.033671 
L 661.07268 422.486633 
L 663.615288 421.556213 
L 666.157897 423.154503 
L 668.700506 422.170652 
L 671.243115 422.126208 
L 673.785723 421.204581 
L 678.870941 423.757973 
L 681.41355 422.417439 
L 683.956158 422.813244 
L 686.498767 423.983904 
L 689.041376 421.860288 
L 691.583985 423.310754 
L 694.126594 423.973538 
L 696.669202 424.058459 
L 699.211811 424.566179 
L 701.75442 422.63919 
L 704.297029 420.011736 
L 706.839637 422.383306 
L 709.382246 424.126562 
L 711.924855 426.065474 
L 714.467464 425.015796 
L 717.010073 425.317729 
L 719.552681 425.088555 
L 722.09529 424.697108 
L 724.637899 425.491124 
L 727.180508 423.866716 
L 729.723116 421.302644 
L 732.265725 427.067231 
L 734.808334 425.269373 
L 737.350943 424.005683 
L 739.893551 422.211178 
L 742.43616 424.121815 
L 744.978769 426.600909 
L 747.521378 427.319606 
L 750.063987 424.578506 
L 752.606595 425.61478 
L 755.149204 424.491774 
L 757.691813 421.264636 
L 760.234422 421.19699 
L 762.77703 420.523301 
L 765.319639 421.490271 
L 767.862248 424.294666 
L 770.404857 427.805508 
L 772.947465 425.572665 
L 775.490074 428.242569 
L 778.032683 427.264396 
L 780.575292 427.605456 
L 783.117901 426.115444 
L 785.660509 425.028474 
L 788.203118 421.297274 
L 790.745727 428.004166 
L 793.288336 429.101274 
L 795.830944 428.549494 
L 798.373553 427.675787 
L 800.916162 426.963382 
L 803.458771 424.257544 
L 806.001379 427.03761 
L 808.543988 427.601192 
L 811.086597 429.15046 
L 813.629206 427.627745 
L 816.171815 429.055124 
L 818.714423 428.282994 
L 821.257032 426.22961 
L 823.799641 427.830288 
L 826.34225 424.92487 
L 828.884858 424.297807 
L 831.427467 429.377038 
L 833.970076 427.139493 
L 836.512685 427.307027 
L 839.055294 426.631902 
L 841.597902 430.023297 
L 844.140511 429.669979 
L 846.68312 430.954692 
L 849.225729 430.638602 
L 851.768337 426.575233 
L 854.310946 429.768498 
L 856.853555 427.058223 
L 859.396164 429.800221 
L 864.481381 429.906715 
L 867.02399 427.722572 
L 869.566599 430.23135 
L 872.109208 427.367513 
L 874.651816 427.60606 
L 877.194425 428.645813 
L 879.737034 432.635478 
L 882.279643 431.123676 
L 884.822251 430.908478 
L 887.36486 430.424417 
L 889.907469 430.107731 
L 892.450078 431.063275 
L 894.992686 429.117839 
L 897.535295 431.971108 
L 900.077904 431.050845 
L 902.620513 427.44229 
L 905.163122 431.195137 
L 907.70573 430.948588 
L 910.248339 430.28017 
L 912.790948 430.220589 
L 915.333557 424.978505 
L 917.876165 432.449653 
L 920.418774 431.069433 
L 922.961383 428.802872 
L 925.503992 431.995982 
L 930.589209 430.689816 
L 933.131818 428.300847 
L 935.674427 429.034049 
L 938.217036 430.966474 
L 940.759644 427.992538 
L 943.302253 432.006062 
L 945.844862 429.124013 
L 948.387471 431.846564 
L 950.930079 431.116945 
L 953.472688 432.308351 
L 956.015297 430.290983 
L 958.557906 432.862225 
L 961.100515 432.865547 
L 963.643123 431.144724 
L 966.185732 432.090566 
L 968.728341 432.373394 
L 971.27095 430.259163 
L 973.813558 431.560618 
L 976.356167 431.067196 
L 978.898776 431.166033 
L 981.441385 430.510886 
L 983.983993 433.727379 
L 986.526602 430.965781 
L 989.069211 432.356897 
L 991.61182 431.429797 
L 994.154429 433.626251 
L 996.697037 433.890698 
L 999.239646 430.771011 
L 1001.782255 432.642727 
L 1004.324864 430.338807 
L 1006.867472 432.365422 
L 1009.410081 430.404489 
L 1011.95269 431.309145 
L 1014.495299 431.2513 
L 1014.495299 431.2513 
" style="fill:none;stroke:#9e9e9e;stroke-linecap:square;stroke-width:3;"/>
   </g>
   <g id="line2d_26">
    <path clip-path="url(#p2fcf776af4)" d="M 104.241359 60.103725 
L 106.783968 73.215237 
L 109.326576 82.956301 
L 111.869185 90.788903 
L 114.411794 98.015676 
L 116.954403 103.273894 
L 119.497011 108.798075 
L 122.03962 112.563656 
L 124.582229 116.613156 
L 127.124838 119.776519 
L 129.667446 122.286902 
L 132.210055 123.629263 
L 134.752664 127.361812 
L 137.295273 128.431152 
L 139.837882 129.630801 
L 142.38049 132.002746 
L 144.923099 132.162938 
L 147.465708 133.11715 
L 150.008317 133.899087 
L 152.550925 135.966863 
L 155.093534 136.98942 
L 157.636143 139.633745 
L 160.178752 137.485822 
L 165.263969 140.546263 
L 167.806578 141.408949 
L 170.349187 142.936657 
L 172.891796 143.078528 
L 175.434404 143.473991 
L 177.977013 141.828872 
L 183.062231 145.183642 
L 185.604839 145.4397 
L 188.147448 146.09624 
L 190.690057 146.450701 
L 193.232666 147.123984 
L 195.775275 148.40288 
L 198.317883 148.71838 
L 200.860492 147.868792 
L 203.403101 147.8555 
L 205.94571 149.889549 
L 208.488318 149.353136 
L 211.030927 150.880378 
L 213.573536 151.524415 
L 216.116145 149.612749 
L 218.658753 153.250375 
L 221.201362 153.018075 
L 223.743971 154.069996 
L 226.28658 150.763693 
L 231.371797 154.312488 
L 233.914406 152.133859 
L 236.457015 155.052421 
L 238.999624 155.038411 
L 244.084841 155.566256 
L 246.62745 157.177164 
L 249.170059 155.781071 
L 251.712667 158.218549 
L 254.255276 157.999162 
L 256.797885 156.84813 
L 259.340494 157.102863 
L 261.883103 159.455319 
L 264.425711 158.18778 
L 266.96832 157.121107 
L 269.510929 158.289808 
L 272.053538 157.038406 
L 274.596146 157.202523 
L 277.138755 158.954251 
L 279.681364 158.746799 
L 282.223973 158.825548 
L 284.766581 158.734292 
L 287.30919 159.041682 
L 289.851799 161.487336 
L 292.394408 158.19646 
L 294.937017 159.355191 
L 300.022234 159.446679 
L 302.564843 162.256805 
L 305.107452 158.891312 
L 310.192669 163.507998 
L 312.735278 163.456725 
L 315.277887 162.570105 
L 317.820496 163.799737 
L 320.363104 160.559289 
L 322.905713 162.037754 
L 325.448322 160.472623 
L 327.990931 162.076138 
L 330.533539 161.957723 
L 333.076148 164.134278 
L 335.618757 165.428012 
L 338.161366 163.131693 
L 340.703974 164.264477 
L 343.246583 164.603156 
L 345.789192 164.649074 
L 348.331801 165.051634 
L 350.87441 163.831094 
L 353.417018 165.743453 
L 355.959627 161.879095 
L 358.502236 165.786431 
L 363.587453 166.389037 
L 366.130062 165.308867 
L 368.672671 164.957896 
L 371.21528 165.117727 
L 373.757888 165.138335 
L 376.300497 166.320517 
L 378.843106 165.969398 
L 381.385715 167.729686 
L 383.928324 165.44745 
L 386.470932 167.5 
L 389.013541 168.689785 
L 391.55615 168.5272 
L 394.098759 169.530419 
L 396.641367 168.515906 
L 399.183976 168.44118 
L 401.726585 168.861328 
L 404.269194 167.397321 
L 406.811802 168.544871 
L 409.354411 166.874531 
L 411.89702 168.314114 
L 414.439629 168.299104 
L 416.982238 168.863268 
L 419.524846 170.944477 
L 422.067455 169.234068 
L 424.610064 169.080458 
L 427.152673 170.595697 
L 429.695281 170.683968 
L 432.23789 171.003634 
L 434.780499 171.796455 
L 437.323108 170.144673 
L 439.865717 171.314782 
L 442.408325 171.252743 
L 444.950934 170.142117 
L 447.493543 171.85039 
L 450.036152 171.06115 
L 452.57876 171.620201 
L 455.121369 171.237848 
L 457.663978 172.038808 
L 460.206587 174.649409 
L 462.749195 172.859396 
L 465.291804 173.136823 
L 467.834413 175.617598 
L 470.377022 171.236075 
L 472.919631 173.544924 
L 475.462239 174.027887 
L 478.004848 175.983342 
L 480.547457 175.832845 
L 483.090066 174.155553 
L 485.632674 175.119351 
L 488.175283 176.66232 
L 490.717892 172.952524 
L 493.260501 174.603304 
L 495.803109 175.529119 
L 498.345718 175.929329 
L 500.888327 176.840738 
L 503.430936 177.451354 
L 505.973545 175.165076 
L 508.516153 176.189266 
L 511.058762 176.362527 
L 513.601371 177.16495 
L 516.14398 176.409298 
L 518.686588 176.024983 
L 521.229197 177.96831 
L 523.771806 177.391467 
L 526.314415 178.484803 
L 528.857023 176.792945 
L 531.399632 177.441322 
L 533.942241 177.942996 
L 536.48485 176.22635 
L 539.027459 174.896924 
L 541.570067 177.955057 
L 544.112676 177.182494 
L 546.655285 176.119832 
L 549.197894 177.273474 
L 551.740502 178.226927 
L 554.283111 175.47638 
L 556.82572 178.321535 
L 559.368329 180.031664 
L 561.910938 176.458643 
L 564.453546 181.557996 
L 566.996155 179.104483 
L 569.538764 178.15647 
L 572.081373 180.135078 
L 574.623981 176.832805 
L 577.16659 179.129516 
L 579.709199 179.960815 
L 582.251808 177.632654 
L 584.794416 178.359323 
L 587.337025 179.349162 
L 589.879634 179.620652 
L 592.422243 182.619715 
L 594.964852 181.704518 
L 597.50746 181.120678 
L 600.050069 179.82065 
L 602.592678 178.730298 
L 605.135287 181.638794 
L 607.677895 181.303748 
L 610.220504 181.317115 
L 612.763113 182.29592 
L 615.305722 182.62354 
L 617.84833 183.482948 
L 620.390939 180.381128 
L 622.933548 181.823679 
L 625.476157 181.702206 
L 628.018766 181.985279 
L 635.646592 183.173219 
L 638.189201 181.495795 
L 640.731809 181.053248 
L 643.274418 179.995846 
L 645.817027 183.57244 
L 650.902244 186.794188 
L 653.444853 186.181571 
L 655.987462 186.063769 
L 658.530071 184.053437 
L 661.07268 184.391246 
L 663.615288 185.418339 
L 666.157897 183.688818 
L 668.700506 186.343791 
L 671.243115 185.655975 
L 673.785723 184.786676 
L 676.328332 186.575547 
L 678.870941 187.080044 
L 681.41355 187.310737 
L 683.956158 187.020315 
L 686.498767 186.370452 
L 689.041376 187.20766 
L 691.583985 186.382116 
L 696.669202 186.274939 
L 699.211811 188.213012 
L 701.75442 188.116663 
L 704.297029 188.857655 
L 706.839637 186.080954 
L 709.382246 187.379872 
L 711.924855 187.966246 
L 714.467464 187.67835 
L 717.010073 189.13877 
L 719.552681 188.389399 
L 722.09529 191.324942 
L 724.637899 190.014455 
L 727.180508 188.127392 
L 729.723116 189.115302 
L 732.265725 188.159302 
L 734.808334 187.338883 
L 737.350943 190.175694 
L 739.893551 189.062569 
L 742.43616 190.492251 
L 744.978769 189.514435 
L 747.521378 188.408684 
L 750.063987 190.167659 
L 752.606595 189.915481 
L 755.149204 189.097803 
L 757.691813 188.702773 
L 760.234422 191.152196 
L 762.77703 190.021148 
L 765.319639 187.555122 
L 767.862248 190.403413 
L 775.490074 191.091468 
L 778.032683 190.70505 
L 780.575292 190.528878 
L 783.117901 190.87191 
L 785.660509 189.57385 
L 788.203118 193.646045 
L 790.745727 192.446431 
L 793.288336 190.23671 
L 795.830944 191.68118 
L 798.373553 194.020745 
L 800.916162 192.112433 
L 803.458771 192.442886 
L 806.001379 193.484435 
L 808.543988 190.260179 
L 811.086597 192.786673 
L 813.629206 192.586884 
L 816.171815 192.830595 
L 818.714423 192.155211 
L 821.257032 192.330119 
L 823.799641 194.24391 
L 826.34225 191.032317 
L 828.884858 192.771737 
L 833.970076 193.514467 
L 836.512685 193.598463 
L 839.055294 191.90486 
L 841.597902 194.566463 
L 844.140511 194.670965 
L 846.68312 194.248386 
L 849.225729 193.403691 
L 851.768337 194.239389 
L 854.310946 194.918031 
L 856.853555 193.79316 
L 859.396164 195.207345 
L 861.938772 195.037977 
L 864.481381 194.316456 
L 867.02399 193.967204 
L 869.566599 193.952995 
L 872.109208 194.231553 
L 874.651816 193.459973 
L 877.194425 194.186371 
L 879.737034 192.738615 
L 882.279643 195.286405 
L 884.822251 194.089611 
L 887.36486 196.183257 
L 889.907469 194.410392 
L 892.450078 196.12541 
L 894.992686 196.666746 
L 897.535295 195.868042 
L 900.077904 194.796752 
L 902.620513 194.870462 
L 905.163122 196.203756 
L 910.248339 196.999784 
L 912.790948 197.636893 
L 915.333557 197.662344 
L 917.876165 193.565959 
L 920.418774 196.534368 
L 922.961383 197.36121 
L 925.503992 197.722278 
L 928.0466 198.366247 
L 930.589209 196.516126 
L 933.131818 197.414805 
L 935.674427 196.201026 
L 938.217036 197.789065 
L 940.759644 196.45638 
L 943.302253 196.289614 
L 945.844862 199.118362 
L 948.387471 197.142072 
L 950.930079 196.860162 
L 953.472688 198.136288 
L 956.015297 198.946069 
L 958.557906 198.512248 
L 961.100515 197.407639 
L 963.643123 199.061695 
L 966.185732 199.442373 
L 968.728341 200.203223 
L 971.27095 199.189501 
L 973.813558 199.503977 
L 976.356167 197.775778 
L 978.898776 199.344363 
L 981.441385 202.225637 
L 983.983993 199.967189 
L 986.526602 200.430781 
L 989.069211 198.694564 
L 991.61182 199.609949 
L 994.154429 201.588703 
L 996.697037 200.423361 
L 999.239646 198.607364 
L 1001.782255 199.651657 
L 1004.324864 198.352687 
L 1006.867472 200.831764 
L 1009.410081 200.704234 
L 1011.95269 202.253155 
L 1014.495299 202.26056 
L 1014.495299 202.26056 
" style="fill:none;stroke:#ffa0f0;stroke-linecap:square;stroke-width:3;"/>
   </g>
   <g id="patch_3">
    <path d="M 101.69875 469.20125 
L 101.69875 42.04125 
" style="fill:none;stroke:#000000;stroke-linecap:square;stroke-linejoin:miter;stroke-width:0.8;"/>
   </g>
   <g id="patch_4">
    <path d="M 1022.123125 469.20125 
L 1022.123125 42.04125 
" style="fill:none;stroke:#000000;stroke-linecap:square;stroke-linejoin:miter;stroke-width:0.8;"/>
   </g>
   <g id="patch_5">
    <path d="M 101.69875 469.20125 
L 1022.123125 469.20125 
" style="fill:none;stroke:#000000;stroke-linecap:square;stroke-linejoin:miter;stroke-width:0.8;"/>
   </g>
   <g id="patch_6">
    <path d="M 101.69875 42.04125 
L 1022.123125 42.04125 
" style="fill:none;stroke:#000000;stroke-linecap:square;stroke-linejoin:miter;stroke-width:0.8;"/>
   </g>
  </g>
  <g id="axes_2">
   <g id="matplotlib.axis_3">
    <g id="ytick_17">
     <g id="line2d_27">
      <defs>
       <path d="M 0 0 
L 3.5 0 
" id="mb88a6052d5" style="stroke:#000000;stroke-width:0.8;"/>
      </defs>
      <g>
       <use style="stroke:#000000;stroke-width:0.8;" x="1022.123125" xlink:href="#mb88a6052d5" y="469.20125"/>
      </g>
     </g>
     <g id="text_14">
      <!-- 84 -->
      <g transform="translate(1029.123125 478.319375)scale(0.24 -0.24)">
       <defs>
        <path d="M 31.78125 34.625 
Q 24.75 34.625 20.71875 30.859375 
Q 16.703125 27.09375 16.703125 20.515625 
Q 16.703125 13.921875 20.71875 10.15625 
Q 24.75 6.390625 31.78125 6.390625 
Q 38.8125 6.390625 42.859375 10.171875 
Q 46.921875 13.96875 46.921875 20.515625 
Q 46.921875 27.09375 42.890625 30.859375 
Q 38.875 34.625 31.78125 34.625 
z
M 21.921875 38.8125 
Q 15.578125 40.375 12.03125 44.71875 
Q 8.5 49.078125 8.5 55.328125 
Q 8.5 64.0625 14.71875 69.140625 
Q 20.953125 74.21875 31.78125 74.21875 
Q 42.671875 74.21875 48.875 69.140625 
Q 55.078125 64.0625 55.078125 55.328125 
Q 55.078125 49.078125 51.53125 44.71875 
Q 48 40.375 41.703125 38.8125 
Q 48.828125 37.15625 52.796875 32.3125 
Q 56.78125 27.484375 56.78125 20.515625 
Q 56.78125 9.90625 50.3125 4.234375 
Q 43.84375 -1.421875 31.78125 -1.421875 
Q 19.734375 -1.421875 13.25 4.234375 
Q 6.78125 9.90625 6.78125 20.515625 
Q 6.78125 27.484375 10.78125 32.3125 
Q 14.796875 37.15625 21.921875 38.8125 
z
M 18.3125 54.390625 
Q 18.3125 48.734375 21.84375 45.5625 
Q 25.390625 42.390625 31.78125 42.390625 
Q 38.140625 42.390625 41.71875 45.5625 
Q 45.3125 48.734375 45.3125 54.390625 
Q 45.3125 60.0625 41.71875 63.234375 
Q 38.140625 66.40625 31.78125 66.40625 
Q 25.390625 66.40625 21.84375 63.234375 
Q 18.3125 60.0625 18.3125 54.390625 
z
" id="DejaVuSans-56"/>
        <path d="M 37.796875 64.3125 
L 12.890625 25.390625 
L 37.796875 25.390625 
z
M 35.203125 72.90625 
L 47.609375 72.90625 
L 47.609375 25.390625 
L 58.015625 25.390625 
L 58.015625 17.1875 
L 47.609375 17.1875 
L 47.609375 0 
L 37.796875 0 
L 37.796875 17.1875 
L 4.890625 17.1875 
L 4.890625 26.703125 
z
" id="DejaVuSans-52"/>
       </defs>
       <use xlink:href="#DejaVuSans-56"/>
       <use x="63.623047" xlink:href="#DejaVuSans-52"/>
      </g>
     </g>
    </g>
    <g id="ytick_18">
     <g id="line2d_28">
      <g>
       <use style="stroke:#000000;stroke-width:0.8;" x="1022.123125" xlink:href="#mb88a6052d5" y="415.80625"/>
      </g>
     </g>
     <g id="text_15">
      <!-- 86 -->
      <g transform="translate(1029.123125 424.924375)scale(0.24 -0.24)">
       <use xlink:href="#DejaVuSans-56"/>
       <use x="63.623047" xlink:href="#DejaVuSans-54"/>
      </g>
     </g>
    </g>
    <g id="ytick_19">
     <g id="line2d_29">
      <g>
       <use style="stroke:#000000;stroke-width:0.8;" x="1022.123125" xlink:href="#mb88a6052d5" y="362.41125"/>
      </g>
     </g>
     <g id="text_16">
      <!-- 88 -->
      <g transform="translate(1029.123125 371.529375)scale(0.24 -0.24)">
       <use xlink:href="#DejaVuSans-56"/>
       <use x="63.623047" xlink:href="#DejaVuSans-56"/>
      </g>
     </g>
    </g>
    <g id="ytick_20">
     <g id="line2d_30">
      <g>
       <use style="stroke:#000000;stroke-width:0.8;" x="1022.123125" xlink:href="#mb88a6052d5" y="309.01625"/>
      </g>
     </g>
     <g id="text_17">
      <!-- 90 -->
      <g transform="translate(1029.123125 318.134375)scale(0.24 -0.24)">
       <defs>
        <path d="M 10.984375 1.515625 
L 10.984375 10.5 
Q 14.703125 8.734375 18.5 7.8125 
Q 22.3125 6.890625 25.984375 6.890625 
Q 35.75 6.890625 40.890625 13.453125 
Q 46.046875 20.015625 46.78125 33.40625 
Q 43.953125 29.203125 39.59375 26.953125 
Q 35.25 24.703125 29.984375 24.703125 
Q 19.046875 24.703125 12.671875 31.3125 
Q 6.296875 37.9375 6.296875 49.421875 
Q 6.296875 60.640625 12.9375 67.421875 
Q 19.578125 74.21875 30.609375 74.21875 
Q 43.265625 74.21875 49.921875 64.515625 
Q 56.59375 54.828125 56.59375 36.375 
Q 56.59375 19.140625 48.40625 8.859375 
Q 40.234375 -1.421875 26.421875 -1.421875 
Q 22.703125 -1.421875 18.890625 -0.6875 
Q 15.09375 0.046875 10.984375 1.515625 
z
M 30.609375 32.421875 
Q 37.25 32.421875 41.125 36.953125 
Q 45.015625 41.5 45.015625 49.421875 
Q 45.015625 57.28125 41.125 61.84375 
Q 37.25 66.40625 30.609375 66.40625 
Q 23.96875 66.40625 20.09375 61.84375 
Q 16.21875 57.28125 16.21875 49.421875 
Q 16.21875 41.5 20.09375 36.953125 
Q 23.96875 32.421875 30.609375 32.421875 
z
" id="DejaVuSans-57"/>
       </defs>
       <use xlink:href="#DejaVuSans-57"/>
       <use x="63.623047" xlink:href="#DejaVuSans-48"/>
      </g>
     </g>
    </g>
    <g id="ytick_21">
     <g id="line2d_31">
      <g>
       <use style="stroke:#000000;stroke-width:0.8;" x="1022.123125" xlink:href="#mb88a6052d5" y="255.62125"/>
      </g>
     </g>
     <g id="text_18">
      <!-- 92 -->
      <g transform="translate(1029.123125 264.739375)scale(0.24 -0.24)">
       <use xlink:href="#DejaVuSans-57"/>
       <use x="63.623047" xlink:href="#DejaVuSans-50"/>
      </g>
     </g>
    </g>
    <g id="ytick_22">
     <g id="line2d_32">
      <g>
       <use style="stroke:#000000;stroke-width:0.8;" x="1022.123125" xlink:href="#mb88a6052d5" y="202.22625"/>
      </g>
     </g>
     <g id="text_19">
      <!-- 94 -->
      <g transform="translate(1029.123125 211.344375)scale(0.24 -0.24)">
       <use xlink:href="#DejaVuSans-57"/>
       <use x="63.623047" xlink:href="#DejaVuSans-52"/>
      </g>
     </g>
    </g>
    <g id="ytick_23">
     <g id="line2d_33">
      <g>
       <use style="stroke:#000000;stroke-width:0.8;" x="1022.123125" xlink:href="#mb88a6052d5" y="148.83125"/>
      </g>
     </g>
     <g id="text_20">
      <!-- 96 -->
      <g transform="translate(1029.123125 157.949375)scale(0.24 -0.24)">
       <use xlink:href="#DejaVuSans-57"/>
       <use x="63.623047" xlink:href="#DejaVuSans-54"/>
      </g>
     </g>
    </g>
    <g id="ytick_24">
     <g id="line2d_34">
      <g>
       <use style="stroke:#000000;stroke-width:0.8;" x="1022.123125" xlink:href="#mb88a6052d5" y="95.43625"/>
      </g>
     </g>
     <g id="text_21">
      <!-- 98 -->
      <g transform="translate(1029.123125 104.554375)scale(0.24 -0.24)">
       <use xlink:href="#DejaVuSans-57"/>
       <use x="63.623047" xlink:href="#DejaVuSans-56"/>
      </g>
     </g>
    </g>
    <g id="ytick_25">
     <g id="line2d_35">
      <g>
       <use style="stroke:#000000;stroke-width:0.8;" x="1022.123125" xlink:href="#mb88a6052d5" y="42.04125"/>
      </g>
     </g>
     <g id="text_22">
      <!-- 100 -->
      <g transform="translate(1029.123125 51.159375)scale(0.24 -0.24)">
       <use xlink:href="#DejaVuSans-49"/>
       <use x="63.623047" xlink:href="#DejaVuSans-48"/>
       <use x="127.246094" xlink:href="#DejaVuSans-48"/>
      </g>
     </g>
    </g>
    <g id="text_23">
     <!-- Accuracy /% -->
     <g transform="translate(1100.20875 342.007812)rotate(-90)scale(0.28 -0.28)">
      <defs>
       <path d="M 34.1875 63.1875 
L 20.796875 26.90625 
L 47.609375 26.90625 
z
M 28.609375 72.90625 
L 39.796875 72.90625 
L 67.578125 0 
L 57.328125 0 
L 50.6875 18.703125 
L 17.828125 18.703125 
L 11.1875 0 
L 0.78125 0 
z
" id="DejaVuSans-65"/>
       <path d="M 8.5 21.578125 
L 8.5 54.6875 
L 17.484375 54.6875 
L 17.484375 21.921875 
Q 17.484375 14.15625 20.5 10.265625 
Q 23.53125 6.390625 29.59375 6.390625 
Q 36.859375 6.390625 41.078125 11.03125 
Q 45.3125 15.671875 45.3125 23.6875 
L 45.3125 54.6875 
L 54.296875 54.6875 
L 54.296875 0 
L 45.3125 0 
L 45.3125 8.40625 
Q 42.046875 3.421875 37.71875 1 
Q 33.40625 -1.421875 27.6875 -1.421875 
Q 18.265625 -1.421875 13.375 4.4375 
Q 8.5 10.296875 8.5 21.578125 
z
M 31.109375 56 
z
" id="DejaVuSans-117"/>
       <path d="M 25.390625 72.90625 
L 33.6875 72.90625 
L 8.296875 -9.28125 
L 0 -9.28125 
z
" id="DejaVuSans-47"/>
       <path d="M 72.703125 32.078125 
Q 68.453125 32.078125 66.03125 28.46875 
Q 63.625 24.859375 63.625 18.40625 
Q 63.625 12.0625 66.03125 8.421875 
Q 68.453125 4.78125 72.703125 4.78125 
Q 76.859375 4.78125 79.265625 8.421875 
Q 81.6875 12.0625 81.6875 18.40625 
Q 81.6875 24.8125 79.265625 28.4375 
Q 76.859375 32.078125 72.703125 32.078125 
z
M 72.703125 38.28125 
Q 80.421875 38.28125 84.953125 32.90625 
Q 89.5 27.546875 89.5 18.40625 
Q 89.5 9.28125 84.9375 3.921875 
Q 80.375 -1.421875 72.703125 -1.421875 
Q 64.890625 -1.421875 60.34375 3.921875 
Q 55.8125 9.28125 55.8125 18.40625 
Q 55.8125 27.59375 60.375 32.9375 
Q 64.9375 38.28125 72.703125 38.28125 
z
M 22.3125 68.015625 
Q 18.109375 68.015625 15.6875 64.375 
Q 13.28125 60.75 13.28125 54.390625 
Q 13.28125 47.953125 15.671875 44.328125 
Q 18.0625 40.71875 22.3125 40.71875 
Q 26.5625 40.71875 28.96875 44.328125 
Q 31.390625 47.953125 31.390625 54.390625 
Q 31.390625 60.6875 28.953125 64.34375 
Q 26.515625 68.015625 22.3125 68.015625 
z
M 66.40625 74.21875 
L 74.21875 74.21875 
L 28.609375 -1.421875 
L 20.796875 -1.421875 
z
M 22.3125 74.21875 
Q 30.03125 74.21875 34.609375 68.875 
Q 39.203125 63.53125 39.203125 54.390625 
Q 39.203125 45.171875 34.640625 39.84375 
Q 30.078125 34.515625 22.3125 34.515625 
Q 14.546875 34.515625 10.03125 39.859375 
Q 5.515625 45.21875 5.515625 54.390625 
Q 5.515625 63.484375 10.046875 68.84375 
Q 14.59375 74.21875 22.3125 74.21875 
z
" id="DejaVuSans-37"/>
      </defs>
      <use xlink:href="#DejaVuSans-65"/>
      <use x="66.658203" xlink:href="#DejaVuSans-99"/>
      <use x="121.638672" xlink:href="#DejaVuSans-99"/>
      <use x="176.619141" xlink:href="#DejaVuSans-117"/>
      <use x="239.998047" xlink:href="#DejaVuSans-114"/>
      <use x="281.111328" xlink:href="#DejaVuSans-97"/>
      <use x="342.390625" xlink:href="#DejaVuSans-99"/>
      <use x="397.371094" xlink:href="#DejaVuSans-121"/>
      <use x="456.550781" xlink:href="#DejaVuSans-32"/>
      <use x="488.337891" xlink:href="#DejaVuSans-47"/>
      <use x="522.029297" xlink:href="#DejaVuSans-37"/>
     </g>
    </g>
   </g>
   <g id="line2d_36">
    <path clip-path="url(#p2fcf776af4)" d="M 104.241359 470.002175 
L 106.783968 365.881925 
L 109.326576 337.3156 
L 111.869185 322.098025 
L 114.411794 303.1428 
L 116.954403 293.798675 
L 119.497011 280.449925 
L 122.03962 273.2416 
L 124.582229 261.4947 
L 127.124838 259.625875 
L 129.667446 257.490075 
L 132.210055 246.277125 
L 134.752664 242.80645 
L 137.295273 238.0009 
L 139.837882 235.598125 
L 142.38049 227.054925 
L 144.923099 228.3898 
L 147.465708 218.511725 
L 150.008317 223.851225 
L 152.550925 216.6429 
L 155.093534 219.579625 
L 157.636143 201.15835 
L 160.178752 215.308025 
L 162.72136 203.027175 
L 165.263969 202.493225 
L 167.806578 191.280275 
L 170.349187 199.823475 
L 172.891796 199.02255 
L 177.977013 186.474725 
L 180.519622 181.93615 
L 183.062231 185.13985 
L 185.604839 183.271025 
L 188.147448 177.1306 
L 190.690057 182.203125 
L 193.232666 182.203125 
L 195.775275 174.9948 
L 198.317883 170.18925 
L 200.860492 175.261775 
L 203.403101 171.25715 
L 205.94571 172.32505 
L 208.488318 174.46085 
L 211.030927 165.3837 
L 213.573536 159.777225 
L 216.116145 167.252525 
L 218.658753 162.71395 
L 221.201362 157.107475 
L 223.743971 159.51025 
L 226.28658 157.37445 
L 228.829189 159.777225 
L 231.371797 156.8405 
L 233.914406 149.632175 
L 236.457015 154.437725 
L 238.999624 150.4331 
L 241.542232 148.2973 
L 244.084841 148.2973 
L 246.62745 146.69545 
L 249.170059 148.83125 
L 251.712667 148.83125 
L 254.255276 140.021075 
L 256.797885 142.156875 
L 259.340494 148.2973 
L 261.883103 145.894525 
L 264.425711 142.690825 
L 266.96832 142.156875 
L 269.510929 149.098225 
L 272.053538 143.49175 
L 274.596146 140.822 
L 277.138755 138.419225 
L 279.681364 139.487125 
L 282.223973 137.6183 
L 284.766581 134.94855 
L 287.30919 137.6183 
L 289.851799 139.22015 
L 292.394408 136.817375 
L 294.937017 131.74485 
L 297.479625 137.6183 
L 300.022234 134.681575 
L 302.564843 132.2788 
L 305.107452 130.67695 
L 307.65006 134.147625 
L 310.192669 131.2109 
L 312.735278 131.2109 
L 315.277887 131.74485 
L 317.820496 130.143 
L 320.363104 129.0751 
L 322.905713 127.740225 
L 325.448322 128.274175 
L 327.990931 129.876025 
L 330.533539 131.2109 
L 333.076148 129.60905 
L 335.618757 129.0751 
L 338.161366 126.672325 
L 340.703974 129.342075 
L 343.246583 126.672325 
L 345.789192 128.274175 
L 348.331801 126.672325 
L 350.87441 123.7356 
L 353.417018 125.070475 
L 355.959627 126.672325 
L 358.502236 124.536525 
L 361.044845 122.934675 
L 363.587453 124.536525 
L 366.130062 124.26955 
L 371.21528 124.26955 
L 373.757888 121.332825 
L 376.300497 120.264925 
L 378.843106 121.332825 
L 381.385715 120.798875 
L 383.928324 121.06585 
L 386.470932 122.400725 
L 389.013541 121.332825 
L 391.55615 119.730975 
L 394.098759 123.7356 
L 401.726585 117.3282 
L 404.269194 114.925425 
L 406.811802 119.99795 
L 409.354411 116.527275 
L 411.89702 118.3961 
L 414.439629 118.663075 
L 416.982238 118.129125 
L 419.524846 117.3282 
L 422.067455 117.595175 
L 424.610064 114.925425 
L 427.152673 115.72635 
L 432.23789 117.86215 
L 434.780499 115.1924 
L 437.323108 114.65845 
L 439.865717 114.391475 
L 442.408325 114.391475 
L 444.950934 115.72635 
L 447.493543 114.65845 
L 450.036152 115.1924 
L 452.57876 111.721725 
L 455.121369 110.38685 
L 457.663978 111.187775 
L 460.206587 115.993325 
L 462.749195 115.993325 
L 465.291804 114.1245 
L 467.834413 107.7171 
L 470.377022 110.9208 
L 472.919631 116.527275 
L 475.462239 112.255675 
L 478.004848 113.323575 
L 480.547457 112.52265 
L 483.090066 112.789625 
L 488.175283 112.255675 
L 490.717892 109.051975 
L 493.260501 112.52265 
L 495.803109 112.789625 
L 498.345718 111.9887 
L 500.888327 114.65845 
L 503.430936 113.323575 
L 505.973545 109.585925 
L 508.516153 110.38685 
L 511.058762 108.785 
L 513.601371 106.6492 
L 516.14398 109.051975 
L 518.686588 115.1924 
L 521.229197 109.585925 
L 523.771806 111.721725 
L 526.314415 107.984075 
L 528.857023 112.789625 
L 531.399632 110.9208 
L 533.942241 108.785 
L 536.48485 112.52265 
L 539.027459 110.119875 
L 541.570067 110.119875 
L 544.112676 109.051975 
L 546.655285 110.653825 
L 549.197894 107.7171 
L 551.740502 109.585925 
L 554.283111 107.450125 
L 556.82572 109.8529 
L 559.368329 106.916175 
L 561.910938 108.518025 
L 564.453546 107.984075 
L 566.996155 109.8529 
L 569.538764 110.9208 
L 572.081373 106.6492 
L 574.623981 106.916175 
L 577.16659 112.255675 
L 579.709199 106.11525 
L 582.251808 103.97945 
L 584.794416 106.916175 
L 587.337025 103.97945 
L 589.879634 110.119875 
L 592.422243 103.4455 
L 594.964852 105.848275 
L 597.50746 106.6492 
L 600.050069 105.5813 
L 602.592678 106.916175 
L 605.135287 106.382225 
L 607.677895 107.984075 
L 610.220504 113.323575 
L 612.763113 106.916175 
L 615.305722 106.916175 
L 617.84833 106.6492 
L 620.390939 105.848275 
L 622.933548 103.712475 
L 625.476157 106.11525 
L 630.561374 106.6492 
L 633.103983 106.11525 
L 635.646592 106.11525 
L 638.189201 109.31895 
L 640.731809 107.450125 
L 643.274418 107.984075 
L 645.817027 107.984075 
L 648.359636 103.97945 
L 650.902244 103.178525 
L 653.444853 105.848275 
L 655.987462 104.5134 
L 658.530071 102.91155 
L 661.07268 103.97945 
L 663.615288 103.4455 
L 666.157897 103.178525 
L 668.700506 106.382225 
L 671.243115 105.848275 
L 673.785723 105.04735 
L 676.328332 102.110625 
L 678.870941 101.576675 
L 681.41355 102.644575 
L 683.956158 102.3776 
L 686.498767 103.4455 
L 689.041376 105.5813 
L 691.583985 104.780375 
L 694.126594 105.314325 
L 696.669202 106.11525 
L 699.211811 105.5813 
L 701.75442 102.3776 
L 704.297029 103.97945 
L 706.839637 99.70785 
L 709.382246 102.110625 
L 711.924855 101.042725 
L 714.467464 98.372975 
L 717.010073 102.110625 
L 719.552681 103.97945 
L 722.09529 101.84365 
L 724.637899 101.576675 
L 727.180508 102.644575 
L 729.723116 100.77575 
L 732.265725 102.91155 
L 734.808334 102.91155 
L 737.350943 101.3097 
L 739.893551 101.3097 
L 742.43616 105.04735 
L 744.978769 102.91155 
L 747.521378 99.974825 
L 750.063987 99.1739 
L 752.606595 104.246425 
L 755.149204 100.508775 
L 757.691813 104.780375 
L 760.234422 103.712475 
L 762.77703 103.97945 
L 765.319639 104.780375 
L 770.404857 102.110625 
L 772.947465 98.372975 
L 775.490074 99.70785 
L 780.575292 101.84365 
L 783.117901 102.3776 
L 785.660509 98.63995 
L 788.203118 105.314325 
L 790.745727 101.042725 
L 793.288336 100.508775 
L 795.830944 99.440875 
L 798.373553 99.974825 
L 800.916162 100.2418 
L 803.458771 100.77575 
L 806.001379 101.576675 
L 808.543988 100.508775 
L 811.086597 100.77575 
L 813.629206 100.2418 
L 816.171815 100.508775 
L 818.714423 101.042725 
L 821.257032 103.4455 
L 823.799641 99.1739 
L 826.34225 101.576675 
L 828.884858 102.644575 
L 831.427467 98.63995 
L 833.970076 102.110625 
L 836.512685 101.042725 
L 839.055294 98.906925 
L 841.597902 101.84365 
L 844.140511 100.77575 
L 846.68312 100.2418 
L 849.225729 97.57205 
L 851.768337 99.70785 
L 854.310946 101.042725 
L 856.853555 99.70785 
L 859.396164 98.906925 
L 861.938772 98.372975 
L 864.481381 97.305075 
L 867.02399 97.839025 
L 869.566599 97.0381 
L 872.109208 99.440875 
L 874.651816 98.906925 
L 879.737034 99.440875 
L 882.279643 100.77575 
L 884.822251 99.440875 
L 887.36486 99.440875 
L 889.907469 98.372975 
L 892.450078 96.50415 
L 894.992686 100.2418 
L 897.535295 98.906925 
L 900.077904 98.106 
L 902.620513 97.839025 
L 905.163122 97.839025 
L 907.70573 100.2418 
L 910.248339 99.440875 
L 912.790948 100.77575 
L 915.333557 103.4455 
L 917.876165 99.70785 
L 920.418774 99.974825 
L 922.961383 99.974825 
L 928.0466 99.440875 
L 930.589209 98.63995 
L 933.131818 102.3776 
L 935.674427 99.1739 
L 938.217036 98.63995 
L 940.759644 102.644575 
L 943.302253 99.70785 
L 945.844862 102.110625 
L 948.387471 98.63995 
L 950.930079 99.1739 
L 953.472688 98.372975 
L 956.015297 99.70785 
L 958.557906 97.0381 
L 961.100515 98.63995 
L 963.643123 96.771125 
L 966.185732 99.70785 
L 968.728341 97.0381 
L 971.27095 99.70785 
L 973.813558 99.70785 
L 976.356167 99.1739 
L 978.898776 99.70785 
L 981.441385 98.372975 
L 983.983993 97.57205 
L 989.069211 98.63995 
L 991.61182 98.906925 
L 994.154429 98.106 
L 999.239646 98.63995 
L 1001.782255 97.839025 
L 1004.324864 99.1739 
L 1006.867472 98.106 
L 1009.410081 98.63995 
L 1011.95269 98.372975 
L 1014.495299 99.440875 
L 1014.495299 99.440875 
" style="fill:none;stroke:#1f1f1f;stroke-linecap:square;stroke-width:3;"/>
   </g>
   <g id="line2d_37">
    <path clip-path="url(#p2fcf776af4)" d="M 105.607135 538.7275 
L 106.783968 476.943525 
L 109.326576 417.675075 
L 111.869185 387.239925 
L 114.411794 371.221425 
L 116.954403 363.47915 
L 119.497011 347.9946 
L 122.03962 330.641225 
L 124.582229 318.0934 
L 127.124838 316.224575 
L 129.667446 312.7539 
L 132.210055 309.5502 
L 134.752664 295.13355 
L 137.295273 282.585725 
L 139.837882 297.002375 
L 142.38049 287.925225 
L 144.923099 276.4453 
L 147.465708 273.508575 
L 150.008317 271.63975 
L 152.550925 264.965375 
L 155.093534 283.653625 
L 157.636143 265.499325 
L 160.178752 276.178325 
L 162.72136 260.159825 
L 165.263969 258.024025 
L 167.806578 255.62125 
L 170.349187 254.820325 
L 172.891796 252.684525 
L 175.434404 255.354275 
L 177.977013 243.87435 
L 180.519622 242.2725 
L 183.062231 236.933 
L 185.604839 235.8651 
L 188.147448 246.277125 
L 190.690057 249.480825 
L 193.232666 242.539475 
L 195.775275 233.996275 
L 198.317883 239.60275 
L 200.860492 230.5256 
L 203.403101 223.0503 
L 205.94571 225.72005 
L 208.488318 230.258625 
L 211.030927 226.78795 
L 213.573536 217.17685 
L 216.116145 229.4577 
L 218.658753 224.919125 
L 221.201362 221.9824 
L 223.743971 214.5071 
L 226.28658 231.326525 
L 228.829189 212.3713 
L 231.371797 211.83735 
L 233.914406 236.39905 
L 236.457015 208.900625 
L 238.999624 204.896 
L 241.542232 204.629025 
L 244.084841 208.63365 
L 246.62745 206.764825 
L 249.170059 208.63365 
L 251.712667 215.841975 
L 254.255276 202.493225 
L 256.797885 211.036425 
L 259.340494 207.832725 
L 261.883103 202.22625 
L 264.425711 203.027175 
L 266.96832 195.017925 
L 269.510929 197.95465 
L 272.053538 205.42995 
L 274.596146 201.15835 
L 277.138755 193.950025 
L 279.681364 192.0812 
L 282.223973 200.357425 
L 284.766581 193.416075 
L 287.30919 202.7602 
L 289.851799 196.3528 
L 292.394408 196.619775 
L 294.937017 190.746325 
L 297.479625 196.085825 
L 300.022234 198.755575 
L 302.564843 189.9454 
L 305.107452 195.551875 
L 307.65006 191.280275 
L 310.192669 185.940775 
L 312.735278 184.338925 
L 315.277887 182.4701 
L 317.820496 182.4701 
L 320.363104 191.814225 
L 322.905713 185.6738 
L 325.448322 194.75095 
L 327.990931 179.533375 
L 330.533539 176.863625 
L 333.076148 176.59665 
L 335.618757 171.524125 
L 338.161366 189.9454 
L 340.703974 176.863625 
L 343.246583 179.80035 
L 345.789192 177.397575 
L 348.331801 171.25715 
L 350.87441 175.52875 
L 353.417018 173.9269 
L 355.959627 181.93615 
L 358.502236 176.863625 
L 361.044845 174.9948 
L 363.587453 169.388325 
L 366.130062 170.456225 
L 368.672671 176.329675 
L 371.21528 172.058075 
L 373.757888 178.73245 
L 376.300497 171.7911 
L 378.843106 173.125975 
L 381.385715 168.5874 
L 383.928324 173.9269 
L 386.470932 164.048825 
L 389.013541 168.5874 
L 391.55615 174.9948 
L 394.098759 162.71395 
L 396.641367 164.84975 
L 399.183976 164.84975 
L 401.726585 167.252525 
L 404.269194 165.650675 
L 406.811802 164.3158 
L 409.354411 159.243275 
L 411.89702 159.51025 
L 414.439629 173.125975 
L 416.982238 158.44235 
L 419.524846 166.98555 
L 422.067455 163.514875 
L 424.610064 162.980925 
L 427.152673 159.777225 
L 429.695281 164.048825 
L 432.23789 159.777225 
L 434.780499 159.777225 
L 437.323108 161.379075 
L 439.865717 162.18 
L 442.408325 164.048825 
L 444.950934 163.514875 
L 447.493543 162.71395 
L 450.036152 160.0442 
L 452.57876 155.23865 
L 455.121369 158.44235 
L 457.663978 158.9763 
L 460.206587 159.777225 
L 462.749195 158.44235 
L 465.291804 155.505625 
L 467.834413 157.107475 
L 470.377022 162.71395 
L 472.919631 153.6368 
L 475.462239 155.505625 
L 478.004848 160.57815 
L 480.547457 156.039575 
L 483.090066 156.039575 
L 485.632674 159.51025 
L 488.175283 155.23865 
L 490.717892 156.8405 
L 493.260501 153.10285 
L 495.803109 153.369825 
L 498.345718 154.7047 
L 500.888327 150.4331 
L 503.430936 151.234025 
L 505.973545 157.107475 
L 508.516153 157.37445 
L 511.058762 154.971675 
L 513.601371 159.51025 
L 516.14398 156.039575 
L 518.686588 149.632175 
L 521.229197 148.83125 
L 523.771806 152.03495 
L 526.314415 152.301925 
L 528.857023 157.107475 
L 531.399632 149.3652 
L 533.942241 145.62755 
L 536.48485 150.96705 
L 539.027459 156.8405 
L 541.570067 155.23865 
L 544.112676 159.777225 
L 546.655285 150.700075 
L 549.197894 147.496375 
L 551.740502 153.369825 
L 554.283111 164.048825 
L 556.82572 151.767975 
L 559.368329 144.0257 
L 561.910938 153.369825 
L 564.453546 142.9578 
L 566.996155 151.501 
L 569.538764 146.1615 
L 572.081373 146.962425 
L 574.623981 155.7726 
L 577.16659 149.89915 
L 579.709199 146.1615 
L 582.251808 154.437725 
L 584.794416 147.76335 
L 587.337025 147.76335 
L 589.879634 152.03495 
L 592.422243 153.369825 
L 594.964852 144.826625 
L 597.50746 145.0936 
L 600.050069 147.2294 
L 602.592678 153.10285 
L 605.135287 144.55965 
L 607.677895 145.894525 
L 610.220504 152.301925 
L 612.763113 149.098225 
L 615.305722 148.564275 
L 617.84833 144.55965 
L 620.390939 147.76335 
L 622.933548 142.42385 
L 625.476157 142.690825 
L 628.018766 154.17075 
L 630.561374 145.360575 
L 633.103983 152.03495 
L 635.646592 144.55965 
L 638.189201 150.96705 
L 640.731809 147.2294 
L 643.274418 150.4331 
L 645.817027 147.496375 
L 648.359636 143.49175 
L 650.902244 145.62755 
L 653.444853 151.501 
L 655.987462 144.0257 
L 658.530071 149.3652 
L 661.07268 143.224775 
L 663.615288 143.49175 
L 666.157897 144.292675 
L 668.700506 142.156875 
L 671.243115 145.894525 
L 673.785723 145.360575 
L 676.328332 145.360575 
L 678.870941 141.8899 
L 681.41355 145.360575 
L 683.956158 144.55965 
L 686.498767 153.369825 
L 689.041376 145.360575 
L 691.583985 148.83125 
L 694.126594 145.360575 
L 696.669202 141.622925 
L 699.211811 138.419225 
L 701.75442 142.690825 
L 704.297029 140.555025 
L 706.839637 142.42385 
L 709.382246 146.962425 
L 711.924855 141.35595 
L 714.467464 146.1615 
L 717.010073 143.758725 
L 719.552681 152.301925 
L 722.09529 144.0257 
L 727.180508 139.7541 
L 729.723116 139.22015 
L 732.265725 142.42385 
L 734.808334 142.156875 
L 737.350943 137.351325 
L 739.893551 142.690825 
L 742.43616 146.69545 
L 744.978769 140.555025 
L 747.521378 149.098225 
L 750.063987 140.021075 
L 752.606595 140.28805 
L 755.149204 142.9578 
L 757.691813 144.55965 
L 760.234422 144.0257 
L 762.77703 142.156875 
L 765.319639 148.030325 
L 767.862248 142.156875 
L 770.404857 145.894525 
L 772.947465 137.6183 
L 775.490074 140.555025 
L 778.032683 138.15225 
L 780.575292 136.817375 
L 783.117901 140.021075 
L 785.660509 140.822 
L 788.203118 137.6183 
L 790.745727 136.5504 
L 793.288336 138.15225 
L 795.830944 141.622925 
L 798.373553 135.749475 
L 800.916162 143.49175 
L 803.458771 142.42385 
L 806.001379 135.749475 
L 808.543988 143.224775 
L 811.086597 137.6183 
L 813.629206 140.28805 
L 816.171815 136.283425 
L 818.714423 135.215525 
L 821.257032 141.622925 
L 823.799641 140.021075 
L 826.34225 150.166125 
L 828.884858 140.555025 
L 831.427467 142.690825 
L 833.970076 140.021075 
L 836.512685 138.419225 
L 839.055294 142.42385 
L 841.597902 137.885275 
L 844.140511 139.22015 
L 846.68312 141.088975 
L 849.225729 143.49175 
L 851.768337 140.021075 
L 854.310946 136.817375 
L 856.853555 135.749475 
L 859.396164 134.147625 
L 861.938772 138.953175 
L 864.481381 139.22015 
L 867.02399 142.156875 
L 869.566599 136.5504 
L 872.109208 138.953175 
L 874.651816 137.351325 
L 877.194425 140.021075 
L 879.737034 144.0257 
L 882.279643 144.55965 
L 884.822251 144.292675 
L 887.36486 145.0936 
L 892.450078 135.4825 
L 894.992686 132.81275 
L 897.535295 138.419225 
L 900.077904 141.8899 
L 902.620513 140.28805 
L 905.163122 137.6183 
L 907.70573 142.9578 
L 910.248339 139.22015 
L 912.790948 130.943925 
L 915.333557 138.6862 
L 917.876165 141.35595 
L 920.418774 138.419225 
L 922.961383 136.817375 
L 925.503992 138.15225 
L 928.0466 137.6183 
L 930.589209 139.487125 
L 933.131818 139.22015 
L 935.674427 139.7541 
L 938.217036 134.681575 
L 940.759644 138.419225 
L 943.302253 139.22015 
L 945.844862 138.419225 
L 948.387471 136.01645 
L 950.930079 137.08435 
L 953.472688 136.283425 
L 956.015297 136.5504 
L 958.557906 133.3467 
L 961.100515 134.4146 
L 963.643123 136.01645 
L 966.185732 137.351325 
L 968.728341 135.749475 
L 971.27095 139.487125 
L 973.813558 133.3467 
L 976.356167 142.156875 
L 978.898776 137.885275 
L 981.441385 133.88065 
L 983.983993 137.08435 
L 986.526602 136.5504 
L 989.069211 135.4825 
L 991.61182 135.215525 
L 994.154429 133.88065 
L 996.697037 142.156875 
L 999.239646 137.885275 
L 1001.782255 140.021075 
L 1004.324864 143.758725 
L 1006.867472 135.215525 
L 1009.410081 134.94855 
L 1011.95269 133.88065 
L 1014.495299 136.01645 
L 1014.495299 136.01645 
" style="fill:none;stroke:#ff15ff;stroke-linecap:square;stroke-width:3;"/>
   </g>
   <g id="patch_7">
    <path d="M 101.69875 469.20125 
L 101.69875 42.04125 
" style="fill:none;stroke:#000000;stroke-linecap:square;stroke-linejoin:miter;stroke-width:0.8;"/>
   </g>
   <g id="patch_8">
    <path d="M 1022.123125 469.20125 
L 1022.123125 42.04125 
" style="fill:none;stroke:#000000;stroke-linecap:square;stroke-linejoin:miter;stroke-width:0.8;"/>
   </g>
   <g id="patch_9">
    <path d="M 101.69875 469.20125 
L 1022.123125 469.20125 
" style="fill:none;stroke:#000000;stroke-linecap:square;stroke-linejoin:miter;stroke-width:0.8;"/>
   </g>
   <g id="patch_10">
    <path d="M 101.69875 42.04125 
L 1022.123125 42.04125 
" style="fill:none;stroke:#000000;stroke-linecap:square;stroke-linejoin:miter;stroke-width:0.8;"/>
   </g>
   <g id="text_24">
    <!-- Gated 100 Units: Testing Accuracy &amp; Error Curves -->
    <g transform="translate(115.046875 34.554375)scale(0.36 -0.36)">
     <defs>
      <path d="M 59.515625 10.40625 
L 59.515625 29.984375 
L 43.40625 29.984375 
L 43.40625 38.09375 
L 69.28125 38.09375 
L 69.28125 6.78125 
Q 63.578125 2.734375 56.6875 0.65625 
Q 49.8125 -1.421875 42 -1.421875 
Q 24.90625 -1.421875 15.25 8.5625 
Q 5.609375 18.5625 5.609375 36.375 
Q 5.609375 54.25 15.25 64.234375 
Q 24.90625 74.21875 42 74.21875 
Q 49.125 74.21875 55.546875 72.453125 
Q 61.96875 70.703125 67.390625 67.28125 
L 67.390625 56.78125 
Q 61.921875 61.421875 55.765625 63.765625 
Q 49.609375 66.109375 42.828125 66.109375 
Q 29.4375 66.109375 22.71875 58.640625 
Q 16.015625 51.171875 16.015625 36.375 
Q 16.015625 21.625 22.71875 14.15625 
Q 29.4375 6.6875 42.828125 6.6875 
Q 48.046875 6.6875 52.140625 7.59375 
Q 56.25 8.5 59.515625 10.40625 
z
" id="DejaVuSans-71"/>
      <path d="M 45.40625 46.390625 
L 45.40625 75.984375 
L 54.390625 75.984375 
L 54.390625 0 
L 45.40625 0 
L 45.40625 8.203125 
Q 42.578125 3.328125 38.25 0.953125 
Q 33.9375 -1.421875 27.875 -1.421875 
Q 17.96875 -1.421875 11.734375 6.484375 
Q 5.515625 14.40625 5.515625 27.296875 
Q 5.515625 40.1875 11.734375 48.09375 
Q 17.96875 56 27.875 56 
Q 33.9375 56 38.25 53.625 
Q 42.578125 51.265625 45.40625 46.390625 
z
M 14.796875 27.296875 
Q 14.796875 17.390625 18.875 11.75 
Q 22.953125 6.109375 30.078125 6.109375 
Q 37.203125 6.109375 41.296875 11.75 
Q 45.40625 17.390625 45.40625 27.296875 
Q 45.40625 37.203125 41.296875 42.84375 
Q 37.203125 48.484375 30.078125 48.484375 
Q 22.953125 48.484375 18.875 42.84375 
Q 14.796875 37.203125 14.796875 27.296875 
z
" id="DejaVuSans-100"/>
      <path d="M 8.6875 72.90625 
L 18.609375 72.90625 
L 18.609375 28.609375 
Q 18.609375 16.890625 22.84375 11.734375 
Q 27.09375 6.59375 36.625 6.59375 
Q 46.09375 6.59375 50.34375 11.734375 
Q 54.59375 16.890625 54.59375 28.609375 
L 54.59375 72.90625 
L 64.5 72.90625 
L 64.5 27.390625 
Q 64.5 13.140625 57.4375 5.859375 
Q 50.390625 -1.421875 36.625 -1.421875 
Q 22.796875 -1.421875 15.734375 5.859375 
Q 8.6875 13.140625 8.6875 27.390625 
z
" id="DejaVuSans-85"/>
      <path d="M 9.421875 54.6875 
L 18.40625 54.6875 
L 18.40625 0 
L 9.421875 0 
z
M 9.421875 75.984375 
L 18.40625 75.984375 
L 18.40625 64.59375 
L 9.421875 64.59375 
z
" id="DejaVuSans-105"/>
      <path d="M 11.71875 12.40625 
L 22.015625 12.40625 
L 22.015625 0 
L 11.71875 0 
z
M 11.71875 51.703125 
L 22.015625 51.703125 
L 22.015625 39.3125 
L 11.71875 39.3125 
z
" id="DejaVuSans-58"/>
      <path d="M -0.296875 72.90625 
L 61.375 72.90625 
L 61.375 64.59375 
L 35.5 64.59375 
L 35.5 0 
L 25.59375 0 
L 25.59375 64.59375 
L -0.296875 64.59375 
z
" id="DejaVuSans-84"/>
      <path d="M 45.40625 27.984375 
Q 45.40625 37.75 41.375 43.109375 
Q 37.359375 48.484375 30.078125 48.484375 
Q 22.859375 48.484375 18.828125 43.109375 
Q 14.796875 37.75 14.796875 27.984375 
Q 14.796875 18.265625 18.828125 12.890625 
Q 22.859375 7.515625 30.078125 7.515625 
Q 37.359375 7.515625 41.375 12.890625 
Q 45.40625 18.265625 45.40625 27.984375 
z
M 54.390625 6.78125 
Q 54.390625 -7.171875 48.1875 -13.984375 
Q 42 -20.796875 29.203125 -20.796875 
Q 24.46875 -20.796875 20.265625 -20.09375 
Q 16.0625 -19.390625 12.109375 -17.921875 
L 12.109375 -9.1875 
Q 16.0625 -11.328125 19.921875 -12.34375 
Q 23.78125 -13.375 27.78125 -13.375 
Q 36.625 -13.375 41.015625 -8.765625 
Q 45.40625 -4.15625 45.40625 5.171875 
L 45.40625 9.625 
Q 42.625 4.78125 38.28125 2.390625 
Q 33.9375 0 27.875 0 
Q 17.828125 0 11.671875 7.65625 
Q 5.515625 15.328125 5.515625 27.984375 
Q 5.515625 40.671875 11.671875 48.328125 
Q 17.828125 56 27.875 56 
Q 33.9375 56 38.28125 53.609375 
Q 42.625 51.21875 45.40625 46.390625 
L 45.40625 54.6875 
L 54.390625 54.6875 
z
" id="DejaVuSans-103"/>
      <path d="M 24.3125 39.203125 
Q 19.875 35.25 17.796875 31.3125 
Q 15.71875 27.390625 15.71875 23.09375 
Q 15.71875 15.96875 20.890625 11.234375 
Q 26.078125 6.5 33.890625 6.5 
Q 38.53125 6.5 42.578125 8.03125 
Q 46.625 9.578125 50.203125 12.703125 
z
M 31.203125 44.671875 
L 56 19.28125 
Q 58.890625 23.640625 60.5 28.59375 
Q 62.109375 33.546875 62.40625 39.109375 
L 71.484375 39.109375 
Q 70.90625 32.671875 68.359375 26.359375 
Q 65.828125 20.0625 61.28125 13.921875 
L 74.90625 0 
L 62.59375 0 
L 55.609375 7.171875 
Q 50.53125 2.828125 44.96875 0.703125 
Q 39.40625 -1.421875 33.015625 -1.421875 
Q 21.234375 -1.421875 13.765625 5.296875 
Q 6.296875 12.015625 6.296875 22.515625 
Q 6.296875 28.765625 9.5625 34.25 
Q 12.84375 39.75 19.390625 44.578125 
Q 17.046875 47.65625 15.8125 50.703125 
Q 14.59375 53.765625 14.59375 56.6875 
Q 14.59375 64.59375 20.015625 69.40625 
Q 25.4375 74.21875 34.421875 74.21875 
Q 38.484375 74.21875 42.5 73.34375 
Q 46.53125 72.46875 50.6875 70.703125 
L 50.6875 61.8125 
Q 46.4375 64.109375 42.578125 65.296875 
Q 38.71875 66.5 35.40625 66.5 
Q 30.28125 66.5 27.078125 63.78125 
Q 23.875 61.078125 23.875 56.78125 
Q 23.875 54.296875 25.3125 51.78125 
Q 26.765625 49.265625 31.203125 44.671875 
z
" id="DejaVuSans-38"/>
      <path d="M 2.984375 54.6875 
L 12.5 54.6875 
L 29.59375 8.796875 
L 46.6875 54.6875 
L 56.203125 54.6875 
L 35.6875 0 
L 23.484375 0 
z
" id="DejaVuSans-118"/>
     </defs>
     <use xlink:href="#DejaVuSans-71"/>
     <use x="77.490234" xlink:href="#DejaVuSans-97"/>
     <use x="138.769531" xlink:href="#DejaVuSans-116"/>
     <use x="177.978516" xlink:href="#DejaVuSans-101"/>
     <use x="239.501953" xlink:href="#DejaVuSans-100"/>
     <use x="302.978516" xlink:href="#DejaVuSans-32"/>
     <use x="334.765625" xlink:href="#DejaVuSans-49"/>
     <use x="398.388672" xlink:href="#DejaVuSans-48"/>
     <use x="462.011719" xlink:href="#DejaVuSans-48"/>
     <use x="525.634766" xlink:href="#DejaVuSans-32"/>
     <use x="557.421875" xlink:href="#DejaVuSans-85"/>
     <use x="630.615234" xlink:href="#DejaVuSans-110"/>
     <use x="693.994141" xlink:href="#DejaVuSans-105"/>
     <use x="721.777344" xlink:href="#DejaVuSans-116"/>
     <use x="760.986328" xlink:href="#DejaVuSans-115"/>
     <use x="813.085938" xlink:href="#DejaVuSans-58"/>
     <use x="846.777344" xlink:href="#DejaVuSans-32"/>
     <use x="878.564453" xlink:href="#DejaVuSans-84"/>
     <use x="922.648438" xlink:href="#DejaVuSans-101"/>
     <use x="984.171875" xlink:href="#DejaVuSans-115"/>
     <use x="1036.271484" xlink:href="#DejaVuSans-116"/>
     <use x="1075.480469" xlink:href="#DejaVuSans-105"/>
     <use x="1103.263672" xlink:href="#DejaVuSans-110"/>
     <use x="1166.642578" xlink:href="#DejaVuSans-103"/>
     <use x="1230.119141" xlink:href="#DejaVuSans-32"/>
     <use x="1261.90625" xlink:href="#DejaVuSans-65"/>
     <use x="1328.564453" xlink:href="#DejaVuSans-99"/>
     <use x="1383.544922" xlink:href="#DejaVuSans-99"/>
     <use x="1438.525391" xlink:href="#DejaVuSans-117"/>
     <use x="1501.904297" xlink:href="#DejaVuSans-114"/>
     <use x="1543.017578" xlink:href="#DejaVuSans-97"/>
     <use x="1604.296875" xlink:href="#DejaVuSans-99"/>
     <use x="1659.277344" xlink:href="#DejaVuSans-121"/>
     <use x="1718.457031" xlink:href="#DejaVuSans-32"/>
     <use x="1750.244141" xlink:href="#DejaVuSans-38"/>
     <use x="1828.222656" xlink:href="#DejaVuSans-32"/>
     <use x="1860.009766" xlink:href="#DejaVuSans-69"/>
     <use x="1923.193359" xlink:href="#DejaVuSans-114"/>
     <use x="1962.556641" xlink:href="#DejaVuSans-114"/>
     <use x="2001.419922" xlink:href="#DejaVuSans-111"/>
     <use x="2062.601562" xlink:href="#DejaVuSans-114"/>
     <use x="2103.714844" xlink:href="#DejaVuSans-32"/>
     <use x="2135.501953" xlink:href="#DejaVuSans-67"/>
     <use x="2205.326172" xlink:href="#DejaVuSans-117"/>
     <use x="2268.705078" xlink:href="#DejaVuSans-114"/>
     <use x="2309.818359" xlink:href="#DejaVuSans-118"/>
     <use x="2368.998047" xlink:href="#DejaVuSans-101"/>
     <use x="2430.521484" xlink:href="#DejaVuSans-115"/>
    </g>
   </g>
   <g id="legend_1">
    <g id="patch_11">
     <path d="M 117.09875 124.225 
L 330.509063 124.225 
Q 334.909063 124.225 334.909063 119.825 
L 334.909063 57.44125 
Q 334.909063 53.04125 330.509063 53.04125 
L 117.09875 53.04125 
Q 112.69875 53.04125 112.69875 57.44125 
L 112.69875 119.825 
Q 112.69875 124.225 117.09875 124.225 
z
" style="fill:#ffffff;opacity:0.8;stroke:#cccccc;stroke-linejoin:miter;"/>
    </g>
    <g id="line2d_38">
     <path d="M 121.49875 70.857812 
L 165.49875 70.857812 
" style="fill:none;stroke:#1f1f1f;stroke-linecap:square;stroke-width:3;"/>
    </g>
    <g id="line2d_39"/>
    <g id="text_25">
     <!-- Ungated: 1.0 -->
     <g transform="translate(183.09875 78.557812)scale(0.22 -0.22)">
      <use xlink:href="#DejaVuSans-85"/>
      <use x="73.193359" xlink:href="#DejaVuSans-110"/>
      <use x="136.572266" xlink:href="#DejaVuSans-103"/>
      <use x="200.048828" xlink:href="#DejaVuSans-97"/>
      <use x="261.328125" xlink:href="#DejaVuSans-116"/>
      <use x="300.537109" xlink:href="#DejaVuSans-101"/>
      <use x="362.060547" xlink:href="#DejaVuSans-100"/>
      <use x="425.537109" xlink:href="#DejaVuSans-58"/>
      <use x="459.228516" xlink:href="#DejaVuSans-32"/>
      <use x="491.015625" xlink:href="#DejaVuSans-49"/>
      <use x="554.638672" xlink:href="#DejaVuSans-46"/>
      <use x="586.425781" xlink:href="#DejaVuSans-48"/>
     </g>
    </g>
    <g id="line2d_40">
     <path d="M 121.49875 103.149687 
L 165.49875 103.149687 
" style="fill:none;stroke:#ff15ff;stroke-linecap:square;stroke-width:3;"/>
    </g>
    <g id="line2d_41"/>
    <g id="text_26">
     <!-- Gated: 1.0 -->
     <g transform="translate(183.09875 110.849687)scale(0.22 -0.22)">
      <use xlink:href="#DejaVuSans-71"/>
      <use x="77.490234" xlink:href="#DejaVuSans-97"/>
      <use x="138.769531" xlink:href="#DejaVuSans-116"/>
      <use x="177.978516" xlink:href="#DejaVuSans-101"/>
      <use x="239.501953" xlink:href="#DejaVuSans-100"/>
      <use x="302.978516" xlink:href="#DejaVuSans-58"/>
      <use x="336.669922" xlink:href="#DejaVuSans-32"/>
      <use x="368.457031" xlink:href="#DejaVuSans-49"/>
      <use x="432.080078" xlink:href="#DejaVuSans-46"/>
      <use x="463.867188" xlink:href="#DejaVuSans-48"/>
     </g>
    </g>
   </g>
  </g>
 </g>
 <defs>
  <clipPath id="p2fcf776af4">
   <rect height="427.16" width="920.424375" x="101.69875" y="42.04125"/>
  </clipPath>
 </defs>
</svg>
