<?xml version="1.0" encoding="utf-8" standalone="no"?>
<!DOCTYPE svg PUBLIC "-//W3C//DTD SVG 1.1//EN"
  "http://www.w3.org/Graphics/SVG/1.1/DTD/svg11.dtd">
<!-- Created with matplotlib (https://matplotlib.org/) -->
<svg height="576pt" version="1.1" viewBox="0 0 1152 576" width="1152pt" xmlns="http://www.w3.org/2000/svg" xmlns:xlink="http://www.w3.org/1999/xlink">
 <metadata>
  <rdf:RDF xmlns:cc="http://creativecommons.org/ns#" xmlns:dc="http://purl.org/dc/elements/1.1/" xmlns:rdf="http://www.w3.org/1999/02/22-rdf-syntax-ns#">
   <cc:Work>
    <dc:type rdf:resource="http://purl.org/dc/dcmitype/StillImage"/>
    <dc:date>2021-09-14T03:09:32.037292</dc:date>
    <dc:format>image/svg+xml</dc:format>
    <dc:creator>
     <cc:Agent>
      <dc:title>Matplotlib v3.3.4, https://matplotlib.org/</dc:title>
     </cc:Agent>
    </dc:creator>
   </cc:Work>
  </rdf:RDF>
 </metadata>
 <defs>
  <style type="text/css">*{stroke-linecap:butt;stroke-linejoin:round;}</style>
 </defs>
 <g id="figure_1">
  <g id="patch_1">
   <path d="M 0 576 
L 1152 576 
L 1152 0 
L 0 0 
z
" style="fill:#ffffff;"/>
  </g>
  <g id="axes_1">
   <g id="patch_2">
    <path d="M 144 504 
L 1036.8 504 
L 1036.8 69.12 
L 144 69.12 
z
" style="fill:#ffffff;"/>
   </g>
   <g id="matplotlib.axis_1">
    <g id="xtick_1">
     <g id="line2d_1">
      <defs>
       <path d="M 0 0 
L 0 3.5 
" id="mdf766c6ada" style="stroke:#000000;stroke-width:0.8;"/>
      </defs>
      <g>
       <use style="stroke:#000000;stroke-width:0.8;" x="144" xlink:href="#mdf766c6ada" y="504"/>
      </g>
     </g>
     <g id="text_1">
      <!-- 84 -->
      <g transform="translate(128.73 529.23625)scale(0.24 -0.24)">
       <defs>
        <path d="M 31.78125 34.625 
Q 24.75 34.625 20.71875 30.859375 
Q 16.703125 27.09375 16.703125 20.515625 
Q 16.703125 13.921875 20.71875 10.15625 
Q 24.75 6.390625 31.78125 6.390625 
Q 38.8125 6.390625 42.859375 10.171875 
Q 46.921875 13.96875 46.921875 20.515625 
Q 46.921875 27.09375 42.890625 30.859375 
Q 38.875 34.625 31.78125 34.625 
z
M 21.921875 38.8125 
Q 15.578125 40.375 12.03125 44.71875 
Q 8.5 49.078125 8.5 55.328125 
Q 8.5 64.0625 14.71875 69.140625 
Q 20.953125 74.21875 31.78125 74.21875 
Q 42.671875 74.21875 48.875 69.140625 
Q 55.078125 64.0625 55.078125 55.328125 
Q 55.078125 49.078125 51.53125 44.71875 
Q 48 40.375 41.703125 38.8125 
Q 48.828125 37.15625 52.796875 32.3125 
Q 56.78125 27.484375 56.78125 20.515625 
Q 56.78125 9.90625 50.3125 4.234375 
Q 43.84375 -1.421875 31.78125 -1.421875 
Q 19.734375 -1.421875 13.25 4.234375 
Q 6.78125 9.90625 6.78125 20.515625 
Q 6.78125 27.484375 10.78125 32.3125 
Q 14.796875 37.15625 21.921875 38.8125 
z
M 18.3125 54.390625 
Q 18.3125 48.734375 21.84375 45.5625 
Q 25.390625 42.390625 31.78125 42.390625 
Q 38.140625 42.390625 41.71875 45.5625 
Q 45.3125 48.734375 45.3125 54.390625 
Q 45.3125 60.0625 41.71875 63.234375 
Q 38.140625 66.40625 31.78125 66.40625 
Q 25.390625 66.40625 21.84375 63.234375 
Q 18.3125 60.0625 18.3125 54.390625 
z
" id="DejaVuSans-56"/>
        <path d="M 37.796875 64.3125 
L 12.890625 25.390625 
L 37.796875 25.390625 
z
M 35.203125 72.90625 
L 47.609375 72.90625 
L 47.609375 25.390625 
L 58.015625 25.390625 
L 58.015625 17.1875 
L 47.609375 17.1875 
L 47.609375 0 
L 37.796875 0 
L 37.796875 17.1875 
L 4.890625 17.1875 
L 4.890625 26.703125 
z
" id="DejaVuSans-52"/>
       </defs>
       <use xlink:href="#DejaVuSans-56"/>
       <use x="63.623047" xlink:href="#DejaVuSans-52"/>
      </g>
     </g>
    </g>
    <g id="xtick_2">
     <g id="line2d_2">
      <g>
       <use style="stroke:#000000;stroke-width:0.8;" x="255.6" xlink:href="#mdf766c6ada" y="504"/>
      </g>
     </g>
     <g id="text_2">
      <!-- 86 -->
      <g transform="translate(240.33 529.23625)scale(0.24 -0.24)">
       <defs>
        <path d="M 33.015625 40.375 
Q 26.375 40.375 22.484375 35.828125 
Q 18.609375 31.296875 18.609375 23.390625 
Q 18.609375 15.53125 22.484375 10.953125 
Q 26.375 6.390625 33.015625 6.390625 
Q 39.65625 6.390625 43.53125 10.953125 
Q 47.40625 15.53125 47.40625 23.390625 
Q 47.40625 31.296875 43.53125 35.828125 
Q 39.65625 40.375 33.015625 40.375 
z
M 52.59375 71.296875 
L 52.59375 62.3125 
Q 48.875 64.0625 45.09375 64.984375 
Q 41.3125 65.921875 37.59375 65.921875 
Q 27.828125 65.921875 22.671875 59.328125 
Q 17.53125 52.734375 16.796875 39.40625 
Q 19.671875 43.65625 24.015625 45.921875 
Q 28.375 48.1875 33.59375 48.1875 
Q 44.578125 48.1875 50.953125 41.515625 
Q 57.328125 34.859375 57.328125 23.390625 
Q 57.328125 12.15625 50.6875 5.359375 
Q 44.046875 -1.421875 33.015625 -1.421875 
Q 20.359375 -1.421875 13.671875 8.265625 
Q 6.984375 17.96875 6.984375 36.375 
Q 6.984375 53.65625 15.1875 63.9375 
Q 23.390625 74.21875 37.203125 74.21875 
Q 40.921875 74.21875 44.703125 73.484375 
Q 48.484375 72.75 52.59375 71.296875 
z
" id="DejaVuSans-54"/>
       </defs>
       <use xlink:href="#DejaVuSans-56"/>
       <use x="63.623047" xlink:href="#DejaVuSans-54"/>
      </g>
     </g>
    </g>
    <g id="xtick_3">
     <g id="line2d_3">
      <g>
       <use style="stroke:#000000;stroke-width:0.8;" x="367.2" xlink:href="#mdf766c6ada" y="504"/>
      </g>
     </g>
     <g id="text_3">
      <!-- 88 -->
      <g transform="translate(351.93 529.23625)scale(0.24 -0.24)">
       <use xlink:href="#DejaVuSans-56"/>
       <use x="63.623047" xlink:href="#DejaVuSans-56"/>
      </g>
     </g>
    </g>
    <g id="xtick_4">
     <g id="line2d_4">
      <g>
       <use style="stroke:#000000;stroke-width:0.8;" x="478.8" xlink:href="#mdf766c6ada" y="504"/>
      </g>
     </g>
     <g id="text_4">
      <!-- 90 -->
      <g transform="translate(463.53 529.23625)scale(0.24 -0.24)">
       <defs>
        <path d="M 10.984375 1.515625 
L 10.984375 10.5 
Q 14.703125 8.734375 18.5 7.8125 
Q 22.3125 6.890625 25.984375 6.890625 
Q 35.75 6.890625 40.890625 13.453125 
Q 46.046875 20.015625 46.78125 33.40625 
Q 43.953125 29.203125 39.59375 26.953125 
Q 35.25 24.703125 29.984375 24.703125 
Q 19.046875 24.703125 12.671875 31.3125 
Q 6.296875 37.9375 6.296875 49.421875 
Q 6.296875 60.640625 12.9375 67.421875 
Q 19.578125 74.21875 30.609375 74.21875 
Q 43.265625 74.21875 49.921875 64.515625 
Q 56.59375 54.828125 56.59375 36.375 
Q 56.59375 19.140625 48.40625 8.859375 
Q 40.234375 -1.421875 26.421875 -1.421875 
Q 22.703125 -1.421875 18.890625 -0.6875 
Q 15.09375 0.046875 10.984375 1.515625 
z
M 30.609375 32.421875 
Q 37.25 32.421875 41.125 36.953125 
Q 45.015625 41.5 45.015625 49.421875 
Q 45.015625 57.28125 41.125 61.84375 
Q 37.25 66.40625 30.609375 66.40625 
Q 23.96875 66.40625 20.09375 61.84375 
Q 16.21875 57.28125 16.21875 49.421875 
Q 16.21875 41.5 20.09375 36.953125 
Q 23.96875 32.421875 30.609375 32.421875 
z
" id="DejaVuSans-57"/>
        <path d="M 31.78125 66.40625 
Q 24.171875 66.40625 20.328125 58.90625 
Q 16.5 51.421875 16.5 36.375 
Q 16.5 21.390625 20.328125 13.890625 
Q 24.171875 6.390625 31.78125 6.390625 
Q 39.453125 6.390625 43.28125 13.890625 
Q 47.125 21.390625 47.125 36.375 
Q 47.125 51.421875 43.28125 58.90625 
Q 39.453125 66.40625 31.78125 66.40625 
z
M 31.78125 74.21875 
Q 44.046875 74.21875 50.515625 64.515625 
Q 56.984375 54.828125 56.984375 36.375 
Q 56.984375 17.96875 50.515625 8.265625 
Q 44.046875 -1.421875 31.78125 -1.421875 
Q 19.53125 -1.421875 13.0625 8.265625 
Q 6.59375 17.96875 6.59375 36.375 
Q 6.59375 54.828125 13.0625 64.515625 
Q 19.53125 74.21875 31.78125 74.21875 
z
" id="DejaVuSans-48"/>
       </defs>
       <use xlink:href="#DejaVuSans-57"/>
       <use x="63.623047" xlink:href="#DejaVuSans-48"/>
      </g>
     </g>
    </g>
    <g id="xtick_5">
     <g id="line2d_5">
      <g>
       <use style="stroke:#000000;stroke-width:0.8;" x="590.4" xlink:href="#mdf766c6ada" y="504"/>
      </g>
     </g>
     <g id="text_5">
      <!-- 92 -->
      <g transform="translate(575.13 529.23625)scale(0.24 -0.24)">
       <defs>
        <path d="M 19.1875 8.296875 
L 53.609375 8.296875 
L 53.609375 0 
L 7.328125 0 
L 7.328125 8.296875 
Q 12.9375 14.109375 22.625 23.890625 
Q 32.328125 33.6875 34.8125 36.53125 
Q 39.546875 41.84375 41.421875 45.53125 
Q 43.3125 49.21875 43.3125 52.78125 
Q 43.3125 58.59375 39.234375 62.25 
Q 35.15625 65.921875 28.609375 65.921875 
Q 23.96875 65.921875 18.8125 64.3125 
Q 13.671875 62.703125 7.8125 59.421875 
L 7.8125 69.390625 
Q 13.765625 71.78125 18.9375 73 
Q 24.125 74.21875 28.421875 74.21875 
Q 39.75 74.21875 46.484375 68.546875 
Q 53.21875 62.890625 53.21875 53.421875 
Q 53.21875 48.921875 51.53125 44.890625 
Q 49.859375 40.875 45.40625 35.40625 
Q 44.1875 33.984375 37.640625 27.21875 
Q 31.109375 20.453125 19.1875 8.296875 
z
" id="DejaVuSans-50"/>
       </defs>
       <use xlink:href="#DejaVuSans-57"/>
       <use x="63.623047" xlink:href="#DejaVuSans-50"/>
      </g>
     </g>
    </g>
    <g id="xtick_6">
     <g id="line2d_6">
      <g>
       <use style="stroke:#000000;stroke-width:0.8;" x="702" xlink:href="#mdf766c6ada" y="504"/>
      </g>
     </g>
     <g id="text_6">
      <!-- 94 -->
      <g transform="translate(686.73 529.23625)scale(0.24 -0.24)">
       <use xlink:href="#DejaVuSans-57"/>
       <use x="63.623047" xlink:href="#DejaVuSans-52"/>
      </g>
     </g>
    </g>
    <g id="xtick_7">
     <g id="line2d_7">
      <g>
       <use style="stroke:#000000;stroke-width:0.8;" x="813.6" xlink:href="#mdf766c6ada" y="504"/>
      </g>
     </g>
     <g id="text_7">
      <!-- 96 -->
      <g transform="translate(798.33 529.23625)scale(0.24 -0.24)">
       <use xlink:href="#DejaVuSans-57"/>
       <use x="63.623047" xlink:href="#DejaVuSans-54"/>
      </g>
     </g>
    </g>
    <g id="xtick_8">
     <g id="line2d_8">
      <g>
       <use style="stroke:#000000;stroke-width:0.8;" x="925.2" xlink:href="#mdf766c6ada" y="504"/>
      </g>
     </g>
     <g id="text_8">
      <!-- 98 -->
      <g transform="translate(909.93 529.23625)scale(0.24 -0.24)">
       <use xlink:href="#DejaVuSans-57"/>
       <use x="63.623047" xlink:href="#DejaVuSans-56"/>
      </g>
     </g>
    </g>
    <g id="xtick_9">
     <g id="line2d_9">
      <g>
       <use style="stroke:#000000;stroke-width:0.8;" x="1036.8" xlink:href="#mdf766c6ada" y="504"/>
      </g>
     </g>
     <g id="text_9">
      <!-- 100 -->
      <g transform="translate(1013.895 529.23625)scale(0.24 -0.24)">
       <defs>
        <path d="M 12.40625 8.296875 
L 28.515625 8.296875 
L 28.515625 63.921875 
L 10.984375 60.40625 
L 10.984375 69.390625 
L 28.421875 72.90625 
L 38.28125 72.90625 
L 38.28125 8.296875 
L 54.390625 8.296875 
L 54.390625 0 
L 12.40625 0 
z
" id="DejaVuSans-49"/>
       </defs>
       <use xlink:href="#DejaVuSans-49"/>
       <use x="63.623047" xlink:href="#DejaVuSans-48"/>
       <use x="127.246094" xlink:href="#DejaVuSans-48"/>
      </g>
     </g>
    </g>
    <g id="text_10">
     <!-- Accuracy /% -->
     <g transform="translate(504.013437 559.503125)scale(0.28 -0.28)">
      <defs>
       <path d="M 34.1875 63.1875 
L 20.796875 26.90625 
L 47.609375 26.90625 
z
M 28.609375 72.90625 
L 39.796875 72.90625 
L 67.578125 0 
L 57.328125 0 
L 50.6875 18.703125 
L 17.828125 18.703125 
L 11.1875 0 
L 0.78125 0 
z
" id="DejaVuSans-65"/>
       <path d="M 48.78125 52.59375 
L 48.78125 44.1875 
Q 44.96875 46.296875 41.140625 47.34375 
Q 37.3125 48.390625 33.40625 48.390625 
Q 24.65625 48.390625 19.8125 42.84375 
Q 14.984375 37.3125 14.984375 27.296875 
Q 14.984375 17.28125 19.8125 11.734375 
Q 24.65625 6.203125 33.40625 6.203125 
Q 37.3125 6.203125 41.140625 7.25 
Q 44.96875 8.296875 48.78125 10.40625 
L 48.78125 2.09375 
Q 45.015625 0.34375 40.984375 -0.53125 
Q 36.96875 -1.421875 32.421875 -1.421875 
Q 20.0625 -1.421875 12.78125 6.34375 
Q 5.515625 14.109375 5.515625 27.296875 
Q 5.515625 40.671875 12.859375 48.328125 
Q 20.21875 56 33.015625 56 
Q 37.15625 56 41.109375 55.140625 
Q 45.0625 54.296875 48.78125 52.59375 
z
" id="DejaVuSans-99"/>
       <path d="M 8.5 21.578125 
L 8.5 54.6875 
L 17.484375 54.6875 
L 17.484375 21.921875 
Q 17.484375 14.15625 20.5 10.265625 
Q 23.53125 6.390625 29.59375 6.390625 
Q 36.859375 6.390625 41.078125 11.03125 
Q 45.3125 15.671875 45.3125 23.6875 
L 45.3125 54.6875 
L 54.296875 54.6875 
L 54.296875 0 
L 45.3125 0 
L 45.3125 8.40625 
Q 42.046875 3.421875 37.71875 1 
Q 33.40625 -1.421875 27.6875 -1.421875 
Q 18.265625 -1.421875 13.375 4.4375 
Q 8.5 10.296875 8.5 21.578125 
z
M 31.109375 56 
z
" id="DejaVuSans-117"/>
       <path d="M 41.109375 46.296875 
Q 39.59375 47.171875 37.8125 47.578125 
Q 36.03125 48 33.890625 48 
Q 26.265625 48 22.1875 43.046875 
Q 18.109375 38.09375 18.109375 28.8125 
L 18.109375 0 
L 9.078125 0 
L 9.078125 54.6875 
L 18.109375 54.6875 
L 18.109375 46.1875 
Q 20.953125 51.171875 25.484375 53.578125 
Q 30.03125 56 36.53125 56 
Q 37.453125 56 38.578125 55.875 
Q 39.703125 55.765625 41.0625 55.515625 
z
" id="DejaVuSans-114"/>
       <path d="M 34.28125 27.484375 
Q 23.390625 27.484375 19.1875 25 
Q 14.984375 22.515625 14.984375 16.5 
Q 14.984375 11.71875 18.140625 8.90625 
Q 21.296875 6.109375 26.703125 6.109375 
Q 34.1875 6.109375 38.703125 11.40625 
Q 43.21875 16.703125 43.21875 25.484375 
L 43.21875 27.484375 
z
M 52.203125 31.203125 
L 52.203125 0 
L 43.21875 0 
L 43.21875 8.296875 
Q 40.140625 3.328125 35.546875 0.953125 
Q 30.953125 -1.421875 24.3125 -1.421875 
Q 15.921875 -1.421875 10.953125 3.296875 
Q 6 8.015625 6 15.921875 
Q 6 25.140625 12.171875 29.828125 
Q 18.359375 34.515625 30.609375 34.515625 
L 43.21875 34.515625 
L 43.21875 35.40625 
Q 43.21875 41.609375 39.140625 45 
Q 35.0625 48.390625 27.6875 48.390625 
Q 23 48.390625 18.546875 47.265625 
Q 14.109375 46.140625 10.015625 43.890625 
L 10.015625 52.203125 
Q 14.9375 54.109375 19.578125 55.046875 
Q 24.21875 56 28.609375 56 
Q 40.484375 56 46.34375 49.84375 
Q 52.203125 43.703125 52.203125 31.203125 
z
" id="DejaVuSans-97"/>
       <path d="M 32.171875 -5.078125 
Q 28.375 -14.84375 24.75 -17.8125 
Q 21.140625 -20.796875 15.09375 -20.796875 
L 7.90625 -20.796875 
L 7.90625 -13.28125 
L 13.1875 -13.28125 
Q 16.890625 -13.28125 18.9375 -11.515625 
Q 21 -9.765625 23.484375 -3.21875 
L 25.09375 0.875 
L 2.984375 54.6875 
L 12.5 54.6875 
L 29.59375 11.921875 
L 46.6875 54.6875 
L 56.203125 54.6875 
z
" id="DejaVuSans-121"/>
       <path id="DejaVuSans-32"/>
       <path d="M 25.390625 72.90625 
L 33.6875 72.90625 
L 8.296875 -9.28125 
L 0 -9.28125 
z
" id="DejaVuSans-47"/>
       <path d="M 72.703125 32.078125 
Q 68.453125 32.078125 66.03125 28.46875 
Q 63.625 24.859375 63.625 18.40625 
Q 63.625 12.0625 66.03125 8.421875 
Q 68.453125 4.78125 72.703125 4.78125 
Q 76.859375 4.78125 79.265625 8.421875 
Q 81.6875 12.0625 81.6875 18.40625 
Q 81.6875 24.8125 79.265625 28.4375 
Q 76.859375 32.078125 72.703125 32.078125 
z
M 72.703125 38.28125 
Q 80.421875 38.28125 84.953125 32.90625 
Q 89.5 27.546875 89.5 18.40625 
Q 89.5 9.28125 84.9375 3.921875 
Q 80.375 -1.421875 72.703125 -1.421875 
Q 64.890625 -1.421875 60.34375 3.921875 
Q 55.8125 9.28125 55.8125 18.40625 
Q 55.8125 27.59375 60.375 32.9375 
Q 64.9375 38.28125 72.703125 38.28125 
z
M 22.3125 68.015625 
Q 18.109375 68.015625 15.6875 64.375 
Q 13.28125 60.75 13.28125 54.390625 
Q 13.28125 47.953125 15.671875 44.328125 
Q 18.0625 40.71875 22.3125 40.71875 
Q 26.5625 40.71875 28.96875 44.328125 
Q 31.390625 47.953125 31.390625 54.390625 
Q 31.390625 60.6875 28.953125 64.34375 
Q 26.515625 68.015625 22.3125 68.015625 
z
M 66.40625 74.21875 
L 74.21875 74.21875 
L 28.609375 -1.421875 
L 20.796875 -1.421875 
z
M 22.3125 74.21875 
Q 30.03125 74.21875 34.609375 68.875 
Q 39.203125 63.53125 39.203125 54.390625 
Q 39.203125 45.171875 34.640625 39.84375 
Q 30.078125 34.515625 22.3125 34.515625 
Q 14.546875 34.515625 10.03125 39.859375 
Q 5.515625 45.21875 5.515625 54.390625 
Q 5.515625 63.484375 10.046875 68.84375 
Q 14.59375 74.21875 22.3125 74.21875 
z
" id="DejaVuSans-37"/>
      </defs>
      <use xlink:href="#DejaVuSans-65"/>
      <use x="66.658203" xlink:href="#DejaVuSans-99"/>
      <use x="121.638672" xlink:href="#DejaVuSans-99"/>
      <use x="176.619141" xlink:href="#DejaVuSans-117"/>
      <use x="239.998047" xlink:href="#DejaVuSans-114"/>
      <use x="281.111328" xlink:href="#DejaVuSans-97"/>
      <use x="342.390625" xlink:href="#DejaVuSans-99"/>
      <use x="397.371094" xlink:href="#DejaVuSans-121"/>
      <use x="456.550781" xlink:href="#DejaVuSans-32"/>
      <use x="488.337891" xlink:href="#DejaVuSans-47"/>
      <use x="522.029297" xlink:href="#DejaVuSans-37"/>
     </g>
    </g>
   </g>
   <g id="matplotlib.axis_2">
    <g id="ytick_1">
     <g id="line2d_10">
      <defs>
       <path d="M 0 0 
L -3.5 0 
" id="me7854af29f" style="stroke:#000000;stroke-width:0.8;"/>
      </defs>
      <g>
       <use style="stroke:#000000;stroke-width:0.8;" x="144" xlink:href="#me7854af29f" y="325.08685"/>
      </g>
     </g>
     <g id="text_11">
      <!-- $\mathdefault{10^{4}}$ -->
      <g transform="translate(94.76 334.204975)scale(0.24 -0.24)">
       <use transform="translate(0 0.684375)" xlink:href="#DejaVuSans-49"/>
       <use transform="translate(63.623047 0.684375)" xlink:href="#DejaVuSans-48"/>
       <use transform="translate(128.203125 38.965625)scale(0.7)" xlink:href="#DejaVuSans-52"/>
      </g>
     </g>
    </g>
    <g id="ytick_2">
     <g id="line2d_11">
      <g>
       <use style="stroke:#000000;stroke-width:0.8;" x="144" xlink:href="#me7854af29f" y="69.12"/>
      </g>
     </g>
     <g id="text_12">
      <!-- $\mathdefault{10^{5}}$ -->
      <g transform="translate(94.76 78.238125)scale(0.24 -0.24)">
       <defs>
        <path d="M 10.796875 72.90625 
L 49.515625 72.90625 
L 49.515625 64.59375 
L 19.828125 64.59375 
L 19.828125 46.734375 
Q 21.96875 47.46875 24.109375 47.828125 
Q 26.265625 48.1875 28.421875 48.1875 
Q 40.625 48.1875 47.75 41.5 
Q 54.890625 34.8125 54.890625 23.390625 
Q 54.890625 11.625 47.5625 5.09375 
Q 40.234375 -1.421875 26.90625 -1.421875 
Q 22.3125 -1.421875 17.546875 -0.640625 
Q 12.796875 0.140625 7.71875 1.703125 
L 7.71875 11.625 
Q 12.109375 9.234375 16.796875 8.0625 
Q 21.484375 6.890625 26.703125 6.890625 
Q 35.15625 6.890625 40.078125 11.328125 
Q 45.015625 15.765625 45.015625 23.390625 
Q 45.015625 31 40.078125 35.4375 
Q 35.15625 39.890625 26.703125 39.890625 
Q 22.75 39.890625 18.8125 39.015625 
Q 14.890625 38.140625 10.796875 36.28125 
z
" id="DejaVuSans-53"/>
       </defs>
       <use transform="translate(0 0.684375)" xlink:href="#DejaVuSans-49"/>
       <use transform="translate(63.623047 0.684375)" xlink:href="#DejaVuSans-48"/>
       <use transform="translate(128.203125 38.965625)scale(0.7)" xlink:href="#DejaVuSans-53"/>
      </g>
     </g>
    </g>
    <g id="ytick_3">
     <g id="line2d_12">
      <defs>
       <path d="M 0 0 
L -2 0 
" id="m0320b401ca" style="stroke:#000000;stroke-width:0.6;"/>
      </defs>
      <g>
       <use style="stroke:#000000;stroke-width:0.6;" x="144" xlink:href="#m0320b401ca" y="504"/>
      </g>
     </g>
    </g>
    <g id="ytick_4">
     <g id="line2d_13">
      <g>
       <use style="stroke:#000000;stroke-width:0.6;" x="144" xlink:href="#m0320b401ca" y="458.926475"/>
      </g>
     </g>
    </g>
    <g id="ytick_5">
     <g id="line2d_14">
      <g>
       <use style="stroke:#000000;stroke-width:0.6;" x="144" xlink:href="#m0320b401ca" y="426.9463"/>
      </g>
     </g>
    </g>
    <g id="ytick_6">
     <g id="line2d_15">
      <g>
       <use style="stroke:#000000;stroke-width:0.6;" x="144" xlink:href="#m0320b401ca" y="402.14055"/>
      </g>
     </g>
    </g>
    <g id="ytick_7">
     <g id="line2d_16">
      <g>
       <use style="stroke:#000000;stroke-width:0.6;" x="144" xlink:href="#m0320b401ca" y="381.872775"/>
      </g>
     </g>
    </g>
    <g id="ytick_8">
     <g id="line2d_17">
      <g>
       <use style="stroke:#000000;stroke-width:0.6;" x="144" xlink:href="#m0320b401ca" y="364.736617"/>
      </g>
     </g>
    </g>
    <g id="ytick_9">
     <g id="line2d_18">
      <g>
       <use style="stroke:#000000;stroke-width:0.6;" x="144" xlink:href="#m0320b401ca" y="349.892601"/>
      </g>
     </g>
    </g>
    <g id="ytick_10">
     <g id="line2d_19">
      <g>
       <use style="stroke:#000000;stroke-width:0.6;" x="144" xlink:href="#m0320b401ca" y="336.799251"/>
      </g>
     </g>
    </g>
    <g id="ytick_11">
     <g id="line2d_20">
      <g>
       <use style="stroke:#000000;stroke-width:0.6;" x="144" xlink:href="#m0320b401ca" y="248.03315"/>
      </g>
     </g>
    </g>
    <g id="ytick_12">
     <g id="line2d_21">
      <g>
       <use style="stroke:#000000;stroke-width:0.6;" x="144" xlink:href="#m0320b401ca" y="202.959625"/>
      </g>
     </g>
    </g>
    <g id="ytick_13">
     <g id="line2d_22">
      <g>
       <use style="stroke:#000000;stroke-width:0.6;" x="144" xlink:href="#m0320b401ca" y="170.97945"/>
      </g>
     </g>
    </g>
    <g id="ytick_14">
     <g id="line2d_23">
      <g>
       <use style="stroke:#000000;stroke-width:0.6;" x="144" xlink:href="#m0320b401ca" y="146.1737"/>
      </g>
     </g>
    </g>
    <g id="ytick_15">
     <g id="line2d_24">
      <g>
       <use style="stroke:#000000;stroke-width:0.6;" x="144" xlink:href="#m0320b401ca" y="125.905926"/>
      </g>
     </g>
    </g>
    <g id="ytick_16">
     <g id="line2d_25">
      <g>
       <use style="stroke:#000000;stroke-width:0.6;" x="144" xlink:href="#m0320b401ca" y="108.769767"/>
      </g>
     </g>
    </g>
    <g id="ytick_17">
     <g id="line2d_26">
      <g>
       <use style="stroke:#000000;stroke-width:0.6;" x="144" xlink:href="#m0320b401ca" y="93.925751"/>
      </g>
     </g>
    </g>
    <g id="ytick_18">
     <g id="line2d_27">
      <g>
       <use style="stroke:#000000;stroke-width:0.6;" x="144" xlink:href="#m0320b401ca" y="80.832401"/>
      </g>
     </g>
    </g>
    <g id="text_13">
     <!-- Energy /A.U. -->
     <g transform="translate(84.936875 373.22)rotate(-90)scale(0.28 -0.28)">
      <defs>
       <path d="M 9.8125 72.90625 
L 55.90625 72.90625 
L 55.90625 64.59375 
L 19.671875 64.59375 
L 19.671875 43.015625 
L 54.390625 43.015625 
L 54.390625 34.71875 
L 19.671875 34.71875 
L 19.671875 8.296875 
L 56.78125 8.296875 
L 56.78125 0 
L 9.8125 0 
z
" id="DejaVuSans-69"/>
       <path d="M 54.890625 33.015625 
L 54.890625 0 
L 45.90625 0 
L 45.90625 32.71875 
Q 45.90625 40.484375 42.875 44.328125 
Q 39.84375 48.1875 33.796875 48.1875 
Q 26.515625 48.1875 22.3125 43.546875 
Q 18.109375 38.921875 18.109375 30.90625 
L 18.109375 0 
L 9.078125 0 
L 9.078125 54.6875 
L 18.109375 54.6875 
L 18.109375 46.1875 
Q 21.34375 51.125 25.703125 53.5625 
Q 30.078125 56 35.796875 56 
Q 45.21875 56 50.046875 50.171875 
Q 54.890625 44.34375 54.890625 33.015625 
z
" id="DejaVuSans-110"/>
       <path d="M 56.203125 29.59375 
L 56.203125 25.203125 
L 14.890625 25.203125 
Q 15.484375 15.921875 20.484375 11.0625 
Q 25.484375 6.203125 34.421875 6.203125 
Q 39.59375 6.203125 44.453125 7.46875 
Q 49.3125 8.734375 54.109375 11.28125 
L 54.109375 2.78125 
Q 49.265625 0.734375 44.1875 -0.34375 
Q 39.109375 -1.421875 33.890625 -1.421875 
Q 20.796875 -1.421875 13.15625 6.1875 
Q 5.515625 13.8125 5.515625 26.8125 
Q 5.515625 40.234375 12.765625 48.109375 
Q 20.015625 56 32.328125 56 
Q 43.359375 56 49.78125 48.890625 
Q 56.203125 41.796875 56.203125 29.59375 
z
M 47.21875 32.234375 
Q 47.125 39.59375 43.09375 43.984375 
Q 39.0625 48.390625 32.421875 48.390625 
Q 24.90625 48.390625 20.390625 44.140625 
Q 15.875 39.890625 15.1875 32.171875 
z
" id="DejaVuSans-101"/>
       <path d="M 45.40625 27.984375 
Q 45.40625 37.75 41.375 43.109375 
Q 37.359375 48.484375 30.078125 48.484375 
Q 22.859375 48.484375 18.828125 43.109375 
Q 14.796875 37.75 14.796875 27.984375 
Q 14.796875 18.265625 18.828125 12.890625 
Q 22.859375 7.515625 30.078125 7.515625 
Q 37.359375 7.515625 41.375 12.890625 
Q 45.40625 18.265625 45.40625 27.984375 
z
M 54.390625 6.78125 
Q 54.390625 -7.171875 48.1875 -13.984375 
Q 42 -20.796875 29.203125 -20.796875 
Q 24.46875 -20.796875 20.265625 -20.09375 
Q 16.0625 -19.390625 12.109375 -17.921875 
L 12.109375 -9.1875 
Q 16.0625 -11.328125 19.921875 -12.34375 
Q 23.78125 -13.375 27.78125 -13.375 
Q 36.625 -13.375 41.015625 -8.765625 
Q 45.40625 -4.15625 45.40625 5.171875 
L 45.40625 9.625 
Q 42.625 4.78125 38.28125 2.390625 
Q 33.9375 0 27.875 0 
Q 17.828125 0 11.671875 7.65625 
Q 5.515625 15.328125 5.515625 27.984375 
Q 5.515625 40.671875 11.671875 48.328125 
Q 17.828125 56 27.875 56 
Q 33.9375 56 38.28125 53.609375 
Q 42.625 51.21875 45.40625 46.390625 
L 45.40625 54.6875 
L 54.390625 54.6875 
z
" id="DejaVuSans-103"/>
       <path d="M 10.6875 12.40625 
L 21 12.40625 
L 21 0 
L 10.6875 0 
z
" id="DejaVuSans-46"/>
       <path d="M 8.6875 72.90625 
L 18.609375 72.90625 
L 18.609375 28.609375 
Q 18.609375 16.890625 22.84375 11.734375 
Q 27.09375 6.59375 36.625 6.59375 
Q 46.09375 6.59375 50.34375 11.734375 
Q 54.59375 16.890625 54.59375 28.609375 
L 54.59375 72.90625 
L 64.5 72.90625 
L 64.5 27.390625 
Q 64.5 13.140625 57.4375 5.859375 
Q 50.390625 -1.421875 36.625 -1.421875 
Q 22.796875 -1.421875 15.734375 5.859375 
Q 8.6875 13.140625 8.6875 27.390625 
z
" id="DejaVuSans-85"/>
      </defs>
      <use xlink:href="#DejaVuSans-69"/>
      <use x="63.183594" xlink:href="#DejaVuSans-110"/>
      <use x="126.5625" xlink:href="#DejaVuSans-101"/>
      <use x="188.085938" xlink:href="#DejaVuSans-114"/>
      <use x="227.449219" xlink:href="#DejaVuSans-103"/>
      <use x="290.925781" xlink:href="#DejaVuSans-121"/>
      <use x="350.105469" xlink:href="#DejaVuSans-32"/>
      <use x="381.892578" xlink:href="#DejaVuSans-47"/>
      <use x="415.583984" xlink:href="#DejaVuSans-65"/>
      <use x="482.242188" xlink:href="#DejaVuSans-46"/>
      <use x="514.029297" xlink:href="#DejaVuSans-85"/>
      <use x="587.222656" xlink:href="#DejaVuSans-46"/>
     </g>
    </g>
   </g>
   <g id="line2d_28">
    <path clip-path="url(#pef92a6478d)" d="M 122.107347 577 
L 246.114 532.961707 
L 339.858 514.219809 
L 322.002 498.919488 
L 393.984 485.13369 
L 425.79 473.735751 
L 435.276 463.952236 
L 441.414 455.060293 
L 472.662 446.744705 
L 448.11 438.946773 
L 501.678 431.646385 
L 485.496 425.092691 
L 477.684 419.358821 
L 523.998 413.790106 
L 523.44 408.231745 
L 513.954 403.07222 
L 536.832 398.134126 
L 536.832 393.385826 
L 562.5 389.179813 
L 534.042 385.296459 
L 512.838 381.653284 
L 558.036 377.947775 
L 582.03 374.472833 
L 565.29 370.754983 
L 568.08 367.892487 
L 607.14 364.953841 
L 589.284 362.106163 
L 549.108 359.226914 
L 609.372 356.091969 
L 612.162 353.608852 
L 605.466 350.889104 
L 614.394 348.276998 
L 618.858 345.740321 
L 624.438 342.947704 
L 631.134 340.51979 
L 586.494 338.022324 
L 617.742 335.861987 
L 650.106 333.881186 
L 627.786 331.726957 
L 648.99 329.813771 
L 659.034 327.717183 
L 654.57 325.78845 
L 661.266 323.701363 
L 659.034 321.752193 
L 645.642 320.05783 
L 628.344 318.239427 
L 675.216 316.597289 
L 653.454 314.995047 
L 669.078 313.390364 
L 676.332 311.820497 
L 672.984 310.046843 
L 640.062 308.633888 
L 669.636 307.287688 
L 674.1 305.735706 
L 670.194 304.111728 
L 650.664 302.62205 
L 685.26 301.140257 
L 669.636 299.608089 
L 651.78 298.295334 
L 686.376 296.842455 
L 684.144 295.609092 
L 685.26 294.248 
L 711.486 293.031287 
L 689.724 291.720792 
L 665.73 290.495513 
L 696.978 289.263408 
L 693.072 287.944872 
L 686.376 286.849471 
L 688.05 285.510655 
L 682.47 284.414779 
L 687.492 283.376598 
L 704.79 282.144698 
L 689.166 281.165956 
L 705.906 280.145777 
L 701.442 279.026839 
L 699.768 278.022349 
L 717.624 277.018699 
L 728.784 276.001426 
L 722.646 274.920407 
L 723.762 273.883555 
L 704.79 272.92657 
L 725.994 271.958006 
L 720.414 271.070394 
L 721.53 270.201521 
L 733.806 269.278421 
L 732.69 268.338364 
L 674.1 267.464567 
L 713.718 266.696555 
L 729.9 265.718361 
L 736.596 264.816923 
L 745.524 263.954162 
L 739.386 263.011432 
L 742.734 262.217613 
L 709.812 261.393091 
L 751.662 260.635798 
L 722.088 259.852877 
L 729.342 258.976739 
L 721.53 258.145298 
L 742.734 257.396959 
L 739.386 256.674008 
L 732.69 255.864323 
L 727.668 255.128372 
L 725.994 254.305224 
L 737.712 253.475056 
L 737.154 252.742424 
L 746.082 251.950214 
L 724.878 251.188766 
L 755.01 250.42107 
L 758.916 249.777186 
L 728.226 249.153861 
L 762.264 248.483841 
L 753.894 247.812946 
L 753.336 247.046813 
L 762.822 246.411337 
L 747.198 245.728758 
L 748.872 244.960869 
L 731.574 244.320388 
L 757.8 243.643383 
L 765.612 243.023796 
L 746.64 242.475363 
L 759.474 241.89839 
L 752.778 241.306055 
L 764.496 240.635573 
L 772.308 240.013483 
L 764.496 239.337151 
L 773.424 238.767858 
L 760.59 238.139356 
L 755.568 237.459751 
L 755.01 236.856784 
L 752.22 236.266554 
L 760.032 235.735878 
L 785.142 235.118595 
L 758.358 234.511531 
L 764.496 233.963512 
L 771.75 233.514639 
L 768.402 232.927932 
L 776.214 232.38654 
L 768.96 231.806942 
L 768.402 231.225482 
L 749.43 230.675287 
L 762.822 230.093101 
L 780.12 229.556302 
L 767.286 229.006879 
L 776.772 228.46882 
L 765.612 227.90449 
L 768.402 227.441978 
L 743.292 226.921996 
L 764.496 226.44566 
L 763.38 225.937238 
L 777.888 225.386761 
L 778.446 224.876436 
L 762.822 224.312907 
L 785.142 223.831924 
L 790.164 223.347267 
L 743.85 222.834413 
L 770.634 222.355016 
L 788.49 221.883647 
L 788.49 221.40922 
L 790.722 220.93939 
L 786.816 220.425371 
L 784.584 219.880362 
L 781.236 219.404785 
L 785.7 218.949422 
L 786.258 218.457963 
L 802.998 218.050693 
L 775.656 217.232596 
L 772.308 216.769163 
L 790.722 216.380872 
L 769.518 215.460232 
L 784.584 215.00206 
L 794.07 214.549198 
L 781.236 214.130568 
L 793.512 213.733852 
L 787.374 213.288839 
L 779.004 212.881296 
L 794.07 212.485397 
L 775.656 212.132113 
L 770.076 211.693169 
L 787.374 211.29861 
L 774.54 210.879464 
L 784.026 210.500877 
L 783.468 210.11105 
L 781.236 209.700244 
L 772.866 209.312113 
L 796.302 208.838752 
L 790.722 208.418702 
L 790.722 208.050912 
L 798.534 207.660583 
L 782.91 207.294115 
L 781.794 206.901186 
L 794.628 206.551108 
L 784.584 206.186504 
L 789.606 205.827183 
L 782.91 205.450124 
L 801.324 205.085703 
L 798.534 204.730248 
L 790.722 204.356911 
L 798.534 203.958805 
L 800.766 203.576888 
L 796.302 203.178517 
L 784.026 202.807136 
L 805.23 202.399267 
L 794.628 202.015173 
L 794.628 201.642474 
L 803.556 201.276072 
L 782.91 200.895786 
L 796.86 200.573529 
L 790.722 200.284476 
L 800.208 199.954144 
L 781.236 199.598528 
L 810.252 199.276611 
L 800.208 198.941788 
L 800.208 198.623183 
L 791.838 198.298635 
L 803.556 197.654208 
L 789.048 197.338683 
L 802.44 196.970413 
L 796.86 196.601661 
L 801.882 196.253189 
L 804.114 195.939086 
L 784.584 195.642992 
L 802.44 195.303431 
L 792.954 194.993666 
L 806.346 194.712843 
L 800.766 194.401819 
L 806.346 194.080797 
L 802.44 193.755097 
L 814.716 193.508873 
L 802.44 192.864643 
L 800.766 192.562563 
L 804.672 192.255229 
L 810.252 191.933757 
L 795.744 191.594706 
L 806.904 191.276921 
L 797.976 191.00117 
L 794.628 190.718754 
L 792.396 190.371423 
L 811.368 190.108891 
L 799.65 189.784136 
L 817.506 189.472846 
L 800.208 188.847604 
L 801.882 188.568573 
L 809.694 188.294276 
L 804.114 187.991318 
L 791.838 187.675899 
L 811.926 187.395829 
L 801.882 186.579131 
L 787.374 186.290559 
L 809.136 185.977871 
L 810.252 185.71543 
L 816.948 185.422471 
L 812.484 185.122839 
L 814.158 184.842043 
L 802.998 184.554814 
L 801.882 184.296464 
L 808.02 184.04246 
L 795.744 183.520612 
L 809.136 183.286392 
L 810.252 182.999881 
L 808.02 182.750073 
L 800.208 182.480538 
L 817.506 182.180287 
L 786.816 181.9586 
L 808.578 181.675225 
L 796.86 181.401114 
L 810.81 181.156689 
L 795.744 180.934007 
L 802.44 180.725185 
L 805.788 180.456684 
L 797.418 180.189345 
L 810.252 179.675677 
L 805.23 179.413709 
L 808.578 179.16475 
L 806.346 178.91014 
L 820.296 178.611256 
L 804.114 178.364917 
L 813.042 178.124914 
L 814.716 177.901229 
L 806.904 177.691147 
L 813.042 177.422888 
L 809.136 177.207465 
L 812.484 176.97634 
L 808.578 176.735713 
L 824.76 176.474476 
L 812.484 176.2156 
L 820.296 175.991779 
L 812.484 175.747682 
L 797.976 175.492129 
L 817.506 174.970616 
L 815.832 174.706832 
L 810.252 174.483982 
L 816.948 174.232654 
L 809.136 174.026923 
L 814.716 173.784977 
L 813.6 173.566672 
L 810.81 173.353011 
L 810.81 173.145121 
L 808.02 172.711411 
L 814.716 172.290386 
L 815.274 172.071809 
L 802.44 171.841349 
L 816.39 171.62054 
L 811.368 171.42268 
L 809.136 171.180168 
L 782.91 170.947239 
L 815.832 170.746511 
L 823.086 170.526767 
L 806.346 170.275551 
L 830.34 169.804936 
L 818.064 169.614886 
L 822.528 169.41969 
L 818.622 169.186986 
L 815.832 168.801594 
L 819.18 168.630624 
L 795.744 168.404323 
L 826.434 167.968906 
L 819.738 167.713481 
L 808.578 167.530101 
L 812.484 167.301327 
L 825.318 166.884262 
L 826.992 166.688076 
L 823.644 166.511865 
L 823.086 166.323689 
L 815.274 165.908671 
L 808.02 165.681591 
L 821.97 165.456209 
L 815.274 165.064844 
L 798.534 164.858448 
L 809.136 164.651837 
L 806.904 164.494751 
L 814.158 164.080797 
L 804.672 163.873851 
L 804.114 163.703479 
L 818.064 163.490103 
L 818.064 163.292758 
L 813.042 163.071856 
L 811.926 162.883323 
L 825.318 162.701003 
L 825.318 162.701003 
" style="fill:none;stroke:#ff9500;stroke-linecap:square;stroke-width:5;"/>
   </g>
   <g id="line2d_29">
    <path clip-path="url(#pef92a6478d)" d="M -1 573.371134 
L 127.818 551.096898 
L 251.694 520.346687 
L 315.306 497.063964 
L 348.786 479.041999 
L 364.968 464.488986 
L 397.332 451.562701 
L 433.602 439.679535 
L 459.828 429.144289 
L 463.734 420.47767 
L 470.988 411.550619 
L 477.684 404.190065 
L 507.816 397.006116 
L 534.042 390.621985 
L 503.91 384.662976 
L 522.882 378.929036 
L 546.876 373.242164 
L 553.014 368.027434 
L 556.92 363.091823 
L 570.87 358.599337 
L 531.81 354.2624 
L 569.754 349.975635 
L 547.434 346.15577 
L 580.914 342.729363 
L 585.378 339.200519 
L 590.4 335.696101 
L 592.074 332.486315 
L 596.538 329.261932 
L 590.958 326.315086 
L 614.952 323.448497 
L 618.3 320.752232 
L 629.46 317.921401 
L 631.692 315.390512 
L 609.93 312.818697 
L 603.234 310.420377 
L 617.742 307.971449 
L 635.598 305.737779 
L 623.88 303.521482 
L 642.852 301.267107 
L 658.476 299.05894 
L 652.896 296.981649 
L 643.41 295.003436 
L 650.664 292.944004 
L 670.752 291.038258 
L 645.084 289.098181 
L 654.57 287.226647 
L 660.708 285.373288 
L 676.332 283.591731 
L 641.178 281.890825 
L 680.796 280.30669 
L 681.912 278.570786 
L 630.576 276.982294 
L 688.05 275.509688 
L 696.42 273.655499 
L 696.978 272.08525 
L 688.608 270.667111 
L 692.514 269.396776 
L 688.608 268.075824 
L 673.542 266.669947 
L 701.442 265.298389 
L 683.586 264.107079 
L 690.282 262.863782 
L 702 261.605755 
L 700.326 260.292719 
L 717.066 259.083455 
L 710.928 257.86941 
L 695.304 256.68296 
L 704.232 255.390637 
L 719.298 254.267899 
L 723.204 253.048489 
L 705.906 251.987857 
L 720.414 250.899375 
L 700.884 249.738797 
L 714.276 248.790991 
L 713.718 247.744929 
L 725.994 246.792601 
L 714.834 245.830223 
L 709.254 245.003645 
L 727.668 244.041519 
L 715.95 242.943595 
L 724.878 242.001375 
L 736.038 241.005406 
L 739.386 239.979464 
L 743.292 239.044453 
L 743.292 238.203046 
L 723.762 237.321537 
L 736.596 236.488117 
L 717.624 235.669595 
L 749.43 234.673866 
L 755.01 233.774217 
L 755.568 233.011631 
L 766.17 232.243917 
L 727.668 231.47383 
L 755.01 230.649818 
L 748.872 229.82117 
L 753.894 229.039526 
L 766.728 228.281016 
L 757.8 227.492047 
L 761.148 226.781261 
L 744.408 226.059424 
L 755.01 225.272344 
L 758.916 224.560713 
L 770.634 223.859688 
L 768.402 223.12456 
L 756.126 222.416318 
L 765.054 221.653987 
L 751.104 220.936576 
L 765.612 220.246662 
L 762.822 219.59216 
L 772.308 218.898494 
L 761.148 218.201082 
L 781.794 217.520353 
L 772.308 216.923895 
L 758.916 216.208239 
L 784.584 215.675606 
L 780.12 215.12972 
L 780.12 214.502643 
L 775.098 213.898092 
L 781.236 212.664516 
L 791.838 212.064082 
L 791.28 211.479115 
L 762.822 210.911984 
L 793.512 210.329392 
L 775.656 209.803372 
L 782.91 209.244259 
L 784.026 208.609758 
L 790.722 208.024095 
L 781.794 207.463224 
L 790.722 206.948693 
L 790.722 206.408109 
L 787.374 205.798227 
L 785.7 205.345559 
L 781.794 204.765611 
L 782.91 204.202273 
L 784.584 203.617287 
L 790.164 203.094181 
L 800.208 202.578709 
L 793.512 202.063707 
L 792.396 201.577359 
L 790.722 201.095229 
L 793.512 200.634103 
L 799.65 200.154926 
L 796.302 199.688814 
L 784.584 199.229952 
L 803.556 198.725783 
L 799.65 198.305067 
L 789.048 197.8666 
L 798.534 197.405533 
L 798.534 196.963533 
L 791.28 196.485035 
L 800.208 196.044846 
L 796.86 195.517284 
L 804.672 195.037713 
L 804.114 194.495314 
L 801.324 194.072607 
L 810.252 193.60088 
L 808.578 193.139125 
L 796.302 192.648421 
L 795.744 192.240154 
L 800.766 191.844117 
L 791.28 191.413571 
L 798.534 190.95433 
L 811.926 190.532823 
L 813.6 190.104245 
L 806.904 189.665336 
L 806.346 189.252219 
L 796.302 188.87799 
L 812.484 188.518915 
L 820.296 188.104485 
L 796.86 187.265951 
L 800.208 186.876059 
L 790.722 186.533666 
L 809.694 186.126405 
L 816.39 185.734711 
L 804.114 185.346523 
L 781.794 184.9856 
L 807.462 184.607317 
L 823.644 184.204417 
L 804.114 183.870134 
L 825.876 183.52803 
L 808.02 183.192448 
L 819.18 182.846908 
L 817.506 182.450473 
L 799.092 182.082696 
L 811.368 181.720688 
L 819.18 181.353238 
L 801.882 180.967414 
L 815.832 180.563518 
L 815.832 180.248356 
L 806.904 179.84649 
L 804.114 179.544504 
L 821.97 179.221454 
L 821.412 178.913052 
L 816.948 178.582701 
L 804.672 178.169414 
L 822.528 177.802669 
L 819.738 177.430438 
L 806.346 177.123852 
L 813.042 176.837815 
L 814.158 176.529771 
L 822.528 176.157949 
L 815.832 175.858487 
L 826.992 175.53434 
L 826.434 175.207909 
L 802.44 174.940934 
L 820.854 174.641379 
L 806.904 174.295352 
L 822.528 174.014949 
L 809.136 173.70862 
L 816.948 173.381254 
L 810.252 173.010971 
L 824.76 172.388606 
L 820.296 172.061372 
L 808.02 171.774694 
L 823.644 171.490512 
L 812.484 171.198678 
L 825.318 170.928917 
L 824.76 170.619881 
L 823.086 170.328347 
L 827.55 170.022068 
L 819.738 169.73252 
L 820.854 169.444971 
L 820.854 169.114237 
L 828.108 168.819363 
L 820.854 168.49721 
L 822.528 168.178218 
L 804.114 167.881528 
L 820.854 167.603364 
L 813.6 167.337679 
L 835.362 166.497241 
L 826.434 166.244212 
L 830.898 165.965748 
L 826.992 165.742118 
L 817.506 165.493994 
L 829.224 165.220934 
L 819.18 164.956168 
L 824.202 164.692948 
L 806.346 164.448529 
L 823.644 164.187964 
L 832.572 163.67995 
L 833.688 163.393415 
L 826.992 163.142338 
L 827.55 162.858072 
L 837.594 162.585007 
L 826.434 162.330123 
L 818.064 162.018625 
L 830.898 161.756694 
L 813.042 161.485404 
L 832.014 161.236426 
L 831.456 160.979848 
L 825.876 160.745495 
L 822.528 160.484101 
L 823.644 160.251723 
L 827.55 159.992713 
L 815.274 159.740168 
L 827.55 159.528239 
L 819.738 159.272226 
L 837.036 159.035556 
L 830.898 158.81422 
L 835.92 158.599682 
L 838.71 158.32553 
L 832.014 158.076868 
L 830.34 157.851935 
L 837.036 157.646593 
L 839.268 157.395134 
L 835.92 157.154596 
L 828.666 156.898198 
L 840.942 156.665116 
L 824.76 156.418764 
L 826.992 156.150155 
L 840.942 155.960632 
L 825.318 155.765548 
L 837.036 155.525532 
L 831.456 155.285438 
L 839.826 155.077018 
L 842.058 154.83315 
L 828.666 154.635845 
L 832.014 154.383725 
L 810.81 154.157525 
L 830.898 153.934977 
L 826.434 153.74567 
L 835.362 153.363916 
L 826.992 153.166793 
L 836.478 152.97279 
L 833.688 152.737259 
L 824.76 152.327608 
L 838.71 151.885254 
L 840.942 151.654109 
L 844.29 151.469213 
L 834.246 151.253743 
L 833.688 151.045089 
L 827.55 150.837995 
L 839.268 150.642621 
L 834.246 150.45392 
L 837.594 150.28657 
L 832.014 150.085511 
L 823.644 149.90024 
L 822.528 149.694429 
L 823.086 149.486639 
L 821.412 149.291904 
L 841.5 148.886026 
L 847.08 148.67082 
L 828.108 148.340299 
L 837.036 147.97595 
L 825.876 147.774174 
L 833.688 147.623691 
L 850.986 147.4506 
L 834.804 147.216221 
L 829.224 146.99112 
L 838.71 146.597511 
L 835.92 146.430767 
L 837.036 146.267969 
L 833.13 146.107564 
L 833.688 145.949519 
L 832.572 145.754204 
L 843.174 145.554771 
L 835.362 145.400917 
L 833.688 145.232445 
L 835.362 145.057658 
L 840.384 144.870835 
L 838.152 144.704717 
L 839.826 144.534819 
L 839.268 144.305068 
L 845.964 144.134463 
L 840.384 143.753027 
L 837.594 143.592201 
L 840.942 143.426291 
L 833.13 143.263854 
L 845.964 143.115317 
L 827.55 142.926825 
L 844.848 142.586512 
L 838.152 142.388638 
L 839.268 142.200519 
L 844.848 141.728018 
L 827.55 141.591508 
L 836.478 141.41707 
L 832.014 141.260978 
L 824.202 141.106081 
L 842.058 140.969337 
L 842.616 140.818467 
L 844.848 140.645312 
L 840.384 140.499797 
L 840.384 140.499797 
" style="fill:none;stroke:#ff15ff;stroke-linecap:square;stroke-width:5;"/>
   </g>
   <g id="line2d_30">
    <path clip-path="url(#pef92a6478d)" d="M -1 565.24908 
L 184.176 535.708633 
L 282.942 503.789463 
L 319.77 482.016878 
L 420.21 464.362415 
L 359.946 447.96433 
L 462.06 434.334015 
L 487.728 423.523909 
L 492.75 412.783687 
L 498.33 403.398176 
L 518.976 394.744999 
L 521.208 386.614986 
L 511.722 380.297294 
L 519.534 373.558854 
L 556.92 367.532835 
L 539.064 361.906218 
L 570.312 356.74942 
L 567.522 351.642678 
L 606.582 347.064419 
L 597.096 342.663096 
L 589.842 338.146068 
L 587.61 333.918824 
L 565.29 329.703378 
L 578.124 325.890682 
L 568.08 322.508872 
L 599.886 319.414383 
L 616.068 315.71856 
L 608.814 312.435522 
L 587.052 309.563688 
L 606.024 306.484088 
L 616.626 303.823077 
L 650.664 301.292719 
L 649.548 298.804844 
L 657.918 296.153321 
L 612.162 293.709089 
L 662.94 291.213645 
L 640.62 288.820746 
L 669.078 286.650108 
L 660.708 284.708082 
L 633.924 282.508475 
L 681.354 280.533013 
L 643.968 278.68189 
L 669.636 276.775296 
L 654.57 274.901571 
L 680.238 272.918401 
L 670.752 271.130158 
L 668.52 269.438021 
L 683.028 267.657092 
L 697.536 266.108047 
L 694.188 264.492041 
L 694.746 262.857504 
L 710.37 261.247349 
L 690.282 259.689062 
L 712.044 258.340905 
L 702 256.862709 
L 674.658 255.549212 
L 704.79 254.103653 
L 703.116 252.553552 
L 713.718 251.025851 
L 724.878 249.715389 
L 717.624 248.523056 
L 731.016 247.285756 
L 720.972 246.196497 
L 705.348 244.96565 
L 709.254 243.731134 
L 727.11 242.588095 
L 730.458 241.363133 
L 725.994 240.161631 
L 742.734 238.952836 
L 725.994 237.88646 
L 717.066 236.750217 
L 732.132 235.677935 
L 727.668 234.725051 
L 748.314 233.606157 
L 727.668 232.629904 
L 755.01 231.589153 
L 736.038 230.588061 
L 747.198 229.597834 
L 751.104 228.637665 
L 746.64 227.744655 
L 731.574 225.975771 
L 752.778 225.055772 
L 749.988 224.117015 
L 732.132 223.388977 
L 770.076 221.695357 
L 759.474 220.780446 
L 775.098 219.983905 
L 768.402 219.108935 
L 765.612 218.282707 
L 774.54 217.441756 
L 755.568 216.651673 
L 760.032 215.848319 
L 770.634 215.119726 
L 766.728 214.311578 
L 784.584 213.624803 
L 781.236 212.833303 
L 764.496 212.138129 
L 754.452 211.417445 
L 763.938 210.793527 
L 777.888 210.157544 
L 785.7 209.410482 
L 773.424 208.65013 
L 771.192 207.94585 
L 778.446 207.282253 
L 770.076 206.639865 
L 773.424 205.904302 
L 778.446 205.318797 
L 776.214 204.669367 
L 792.396 204.102569 
L 767.844 203.489433 
L 790.164 202.841004 
L 796.302 202.228763 
L 785.7 201.625296 
L 783.468 201.011508 
L 781.794 200.362027 
L 789.606 199.776056 
L 781.236 199.131778 
L 783.468 198.522926 
L 787.932 197.868379 
L 777.33 197.326183 
L 772.308 196.719522 
L 780.678 196.140162 
L 790.164 195.654234 
L 796.86 195.065661 
L 781.794 194.074085 
L 795.186 193.485814 
L 797.976 192.929507 
L 809.694 192.349279 
L 793.512 191.825978 
L 794.628 191.30909 
L 799.65 190.761967 
L 789.606 190.267658 
L 787.932 189.8462 
L 798.534 189.378452 
L 799.65 188.97398 
L 787.374 188.453696 
L 804.114 187.978048 
L 797.976 187.512383 
L 794.07 186.960477 
L 802.44 186.475754 
L 797.418 185.956557 
L 812.484 185.453784 
L 811.926 184.978176 
L 808.578 184.546977 
L 801.882 184.121036 
L 799.65 183.665325 
L 819.738 183.206861 
L 799.092 182.733604 
L 794.07 182.298165 
L 809.136 181.853568 
L 789.606 181.428031 
L 784.584 181.071957 
L 805.23 180.661022 
L 809.136 180.293331 
L 796.86 179.85881 
L 803.556 179.5369 
L 801.882 179.12105 
L 812.484 178.690021 
L 806.346 178.259568 
L 811.368 177.778877 
L 820.296 177.342372 
L 812.484 176.916279 
L 820.854 176.548871 
L 815.832 176.149555 
L 805.23 175.805129 
L 818.064 175.437246 
L 819.738 175.0961 
L 817.506 174.734299 
L 804.672 174.32341 
L 823.086 173.981321 
L 800.208 173.56299 
L 825.876 173.223695 
L 809.136 172.850858 
L 821.412 172.447978 
L 817.506 172.054782 
L 820.854 171.696421 
L 813.6 171.346135 
L 824.76 171.03304 
L 811.926 170.324586 
L 814.158 169.990613 
L 820.296 169.653535 
L 819.738 169.239817 
L 796.302 168.920189 
L 832.572 168.281683 
L 823.086 167.636463 
L 810.252 167.270328 
L 815.832 167.007572 
L 826.434 166.665734 
L 826.434 166.303726 
L 824.76 165.986567 
L 825.318 165.650115 
L 840.384 165.292443 
L 826.992 164.671148 
L 837.594 164.369412 
L 828.108 164.062544 
L 829.224 163.754243 
L 826.434 163.423788 
L 832.572 163.106142 
L 832.014 162.838849 
L 832.014 162.554798 
L 835.362 162.271697 
L 823.644 161.592362 
L 827.55 161.320527 
L 821.97 160.996979 
L 826.434 160.72265 
L 835.92 160.418127 
L 832.572 160.133938 
L 809.136 159.834626 
L 823.086 159.558118 
L 834.246 159.029772 
L 834.246 158.763723 
L 830.34 158.489728 
L 834.804 158.251725 
L 829.224 157.950193 
L 821.412 157.666634 
L 833.13 157.365902 
L 829.224 157.083776 
L 840.942 156.803359 
L 844.29 156.515756 
L 843.174 156.221583 
L 833.688 155.968237 
L 828.666 155.674176 
L 829.224 155.430035 
L 835.362 154.873161 
L 833.13 154.610786 
L 828.108 154.38192 
L 832.014 154.136049 
L 839.826 153.867757 
L 844.29 153.59134 
L 825.318 153.088131 
L 832.572 152.822404 
L 827.55 152.621877 
L 839.826 152.405627 
L 839.268 152.153514 
L 825.876 151.917611 
L 838.71 151.674404 
L 815.274 151.403788 
L 835.362 151.164927 
L 826.992 150.898692 
L 835.362 150.683454 
L 790.164 150.424347 
L 844.29 150.209092 
L 842.058 149.996151 
L 845.964 149.81066 
L 828.666 149.585745 
L 834.246 149.341755 
L 849.312 149.111732 
L 842.058 148.897448 
L 843.732 148.639968 
L 843.174 148.426551 
L 832.014 148.213105 
L 848.754 147.484995 
L 833.688 147.024237 
L 848.754 146.782602 
L 836.478 146.529529 
L 840.942 146.31804 
L 849.87 146.122339 
L 830.898 145.874444 
L 847.638 145.661993 
L 838.71 145.44252 
L 845.964 145.219117 
L 833.13 145.001649 
L 845.964 144.633443 
L 837.036 144.445329 
L 852.66 144.103465 
L 850.428 143.866739 
L 843.732 143.468984 
L 853.776 143.240395 
L 844.29 143.038652 
L 840.384 142.825736 
L 832.014 142.610917 
L 843.174 142.439705 
L 837.036 142.233965 
L 845.964 142.059493 
L 837.594 141.866725 
L 842.058 141.644161 
L 841.5 141.429705 
L 844.848 141.234985 
L 841.5 140.996111 
L 855.45 140.603752 
L 842.058 140.425061 
L 842.058 140.253429 
L 846.522 140.047792 
L 827.55 139.871313 
L 848.754 139.692433 
L 842.058 139.524247 
L 847.638 139.368425 
L 837.036 139.173898 
L 839.826 139.000352 
L 849.312 138.811039 
L 848.196 138.596896 
L 843.174 138.204015 
L 843.174 138.030679 
L 840.384 137.858345 
L 844.848 137.506077 
L 856.566 137.332552 
L 838.152 137.180245 
L 839.268 137.006867 
L 852.66 136.80952 
L 844.29 136.645671 
L 849.87 136.301263 
L 839.268 136.09847 
L 847.638 135.93159 
L 843.174 135.770728 
L 847.08 135.652861 
L 841.5 135.360542 
L 850.986 135.179511 
L 846.522 135.009743 
L 847.08 134.847015 
L 853.776 134.669435 
L 830.34 134.492029 
L 854.892 134.139034 
L 847.08 133.961894 
L 847.08 133.829856 
L 846.522 133.643267 
L 840.942 133.351363 
L 849.312 132.999352 
L 836.478 132.863277 
L 834.804 132.698932 
L 849.312 132.572656 
L 841.5 132.385879 
L 843.174 132.189708 
L 838.71 132.028841 
L 853.776 131.756417 
L 839.268 131.643098 
L 855.45 131.471474 
L 851.544 131.316505 
L 840.942 131.16887 
L 850.986 130.875572 
L 849.312 130.723801 
L 863.82 130.572432 
L 856.566 130.427948 
L 856.566 130.427948 
" style="fill:none;stroke:#ff1500;stroke-linecap:square;stroke-width:5;"/>
   </g>
   <g id="line2d_31">
    <path clip-path="url(#pef92a6478d)" d="M -1 550.718258 
L 139.536 527.029372 
L 281.826 495.988089 
L 349.344 471.412857 
L 386.73 452.971068 
L 426.348 437.617908 
L 421.326 423.851922 
L 479.358 412.017389 
L 470.988 401.396744 
L 498.33 392.424541 
L 493.866 383.249054 
L 522.882 375.440776 
L 522.882 368.549737 
L 513.396 361.946162 
L 540.738 355.803405 
L 559.71 350.02005 
L 569.754 344.828713 
L 527.904 340.325919 
L 569.754 335.883034 
L 577.008 331.714798 
L 576.45 327.02997 
L 602.676 322.920512 
L 579.24 319.401015 
L 573.66 315.572831 
L 611.046 312.00357 
L 601.56 308.643519 
L 630.018 305.613063 
L 619.974 302.583275 
L 628.902 299.658153 
L 646.2 296.850852 
L 646.758 294.13844 
L 648.432 291.429611 
L 630.576 288.894162 
L 662.382 286.329669 
L 669.078 284.00866 
L 666.288 281.448063 
L 680.796 279.371004 
L 683.586 277.185133 
L 676.332 275.123429 
L 685.818 273.074842 
L 684.702 270.971423 
L 694.188 269.183152 
L 669.636 267.332038 
L 699.21 265.446269 
L 713.718 263.561131 
L 710.928 261.8222 
L 686.934 260.258303 
L 718.182 258.727993 
L 701.442 257.284224 
L 676.332 255.69897 
L 710.928 254.186399 
L 727.11 252.510672 
L 709.254 251.21422 
L 714.276 249.815761 
L 698.652 248.42463 
L 698.094 247.041736 
L 698.094 245.672642 
L 707.022 244.351949 
L 714.834 242.985574 
L 744.966 241.672013 
L 742.176 240.425343 
L 736.596 239.299439 
L 741.618 238.237353 
L 748.872 236.994578 
L 739.944 235.869751 
L 742.176 234.657823 
L 738.828 233.552145 
L 732.132 232.443957 
L 752.778 231.341656 
L 742.734 230.204419 
L 757.8 229.198288 
L 748.872 228.211843 
L 760.59 227.184743 
L 734.364 226.230662 
L 739.944 225.211372 
L 748.314 224.289024 
L 759.474 223.205666 
L 762.822 222.404701 
L 722.088 221.38264 
L 743.292 220.398629 
L 768.96 219.507881 
L 757.8 218.66479 
L 785.7 217.778576 
L 763.38 216.949421 
L 784.026 216.173926 
L 749.988 215.243531 
L 768.402 214.484045 
L 756.126 213.724994 
L 784.584 212.200789 
L 780.12 210.690104 
L 781.236 209.957966 
L 782.91 209.111147 
L 763.38 208.373474 
L 773.424 207.524919 
L 766.728 206.786802 
L 784.584 206.045626 
L 782.91 205.37394 
L 795.186 204.705876 
L 797.976 204.027018 
L 795.186 203.313919 
L 802.44 202.68375 
L 787.932 202.062796 
L 797.976 201.508737 
L 799.092 200.836868 
L 772.866 200.250836 
L 804.672 199.518991 
L 806.904 198.907839 
L 809.694 198.345388 
L 795.744 197.747184 
L 800.208 197.120503 
L 803.556 196.46415 
L 799.65 195.939184 
L 807.462 195.420309 
L 798.534 194.827218 
L 799.092 194.234767 
L 810.81 193.654438 
L 818.622 192.977397 
L 797.418 192.429811 
L 805.23 191.839703 
L 815.832 191.315941 
L 792.396 190.814255 
L 811.368 189.658716 
L 801.882 189.0849 
L 800.766 188.581603 
L 811.926 188.074722 
L 802.44 187.508036 
L 811.926 186.944047 
L 808.02 186.497664 
L 814.158 185.93007 
L 816.948 185.41945 
L 815.274 184.985804 
L 814.716 184.456888 
L 811.368 183.981245 
L 821.412 183.525433 
L 790.722 183.047632 
L 811.368 182.577291 
L 827.55 182.033841 
L 815.274 181.582624 
L 823.086 181.154293 
L 835.92 180.687364 
L 820.854 179.788988 
L 822.528 179.394484 
L 818.622 178.9839 
L 800.208 178.520126 
L 815.832 178.142622 
L 821.97 177.631624 
L 822.528 177.191251 
L 819.738 176.793164 
L 827.55 176.363714 
L 806.346 175.939611 
L 823.644 175.528102 
L 823.086 175.053085 
L 818.622 174.607346 
L 825.318 174.120535 
L 825.876 173.739337 
L 833.688 173.371792 
L 829.782 173.000072 
L 828.108 172.610388 
L 822.528 172.284245 
L 821.412 171.814397 
L 824.76 171.452296 
L 830.34 171.086402 
L 829.224 170.703753 
L 823.086 170.274032 
L 823.086 169.915688 
L 828.666 169.507007 
L 820.854 169.140924 
L 830.34 168.780713 
L 825.318 168.412653 
L 836.478 168.013293 
L 835.362 167.70663 
L 831.456 167.271923 
L 830.34 166.926792 
L 832.572 166.56838 
L 833.13 166.213138 
L 831.456 165.881316 
L 823.086 165.540234 
L 833.688 165.21461 
L 828.108 164.847814 
L 832.572 164.495393 
L 833.688 164.185777 
L 822.528 163.828105 
L 843.174 163.564848 
L 833.13 163.234937 
L 830.34 162.892335 
L 837.594 162.569851 
L 837.594 162.21048 
L 838.71 161.669267 
L 843.174 161.376425 
L 826.434 160.828749 
L 842.616 159.846296 
L 835.362 159.262991 
L 848.196 158.9127 
L 831.456 158.574693 
L 849.312 157.969682 
L 844.29 157.693257 
L 843.732 157.436434 
L 837.594 156.957029 
L 835.92 156.68929 
L 830.898 156.388732 
L 838.71 156.107657 
L 840.942 155.804836 
L 835.362 155.512546 
L 839.826 155.208231 
L 839.826 154.897922 
L 849.312 154.622008 
L 835.92 154.37552 
L 843.174 154.096454 
L 843.732 153.845607 
L 835.362 153.591607 
L 847.08 153.33474 
L 834.246 153.075431 
L 848.754 152.826434 
L 844.848 152.556805 
L 844.29 152.264772 
L 848.196 151.977174 
L 845.964 151.724066 
L 840.942 151.499245 
L 847.08 151.277274 
L 842.616 151.060086 
L 844.29 150.845852 
L 837.036 150.631436 
L 849.87 150.401121 
L 832.014 150.131114 
L 852.66 149.87354 
L 853.218 149.617456 
L 842.058 149.35699 
L 842.058 149.038801 
L 832.014 148.756321 
L 851.544 148.548977 
L 853.218 148.281769 
L 857.682 148.043866 
L 834.246 147.802148 
L 856.566 147.555675 
L 843.174 147.142183 
L 847.08 146.902854 
L 853.218 146.658189 
L 849.87 146.401678 
L 855.45 146.153657 
L 855.45 145.89416 
L 844.848 145.494327 
L 843.174 145.262395 
L 854.892 144.840303 
L 847.08 144.632893 
L 844.848 144.427523 
L 854.334 144.188127 
L 853.776 143.955074 
L 844.29 143.708954 
L 845.964 143.521201 
L 853.218 143.294812 
L 850.986 143.086139 
L 854.334 142.870533 
L 847.08 142.693655 
L 848.754 142.298824 
L 849.87 142.101249 
L 853.776 141.948059 
L 846.522 141.724607 
L 848.196 141.494385 
L 850.986 141.263558 
L 844.848 141.058926 
L 847.638 140.851735 
L 845.964 140.674647 
L 849.87 140.498211 
L 845.964 140.309005 
L 852.102 140.09783 
L 855.45 139.869499 
L 866.052 139.685874 
L 849.87 139.467621 
L 855.45 139.26745 
L 854.892 139.086453 
L 862.146 138.911071 
L 853.776 138.730569 
L 861.588 138.51907 
L 856.008 138.333428 
L 856.008 138.17042 
L 856.566 138.014711 
L 853.776 137.84688 
L 861.03 137.61916 
L 856.008 137.408335 
L 857.682 137.18135 
L 854.892 137.007838 
L 861.588 136.680386 
L 855.45 136.513961 
L 862.146 136.323823 
L 862.704 136.186737 
L 854.892 136.059164 
L 863.262 135.916875 
L 861.588 135.771556 
L 852.66 135.335237 
L 859.356 135.174979 
L 859.914 135.010267 
L 853.776 134.797508 
L 856.566 134.633725 
L 847.638 134.45443 
L 857.682 134.286573 
L 854.892 134.131194 
L 862.704 133.795927 
L 860.472 133.63498 
L 863.82 133.487417 
L 857.682 133.183147 
L 855.45 133.046703 
L 864.936 132.857184 
L 864.936 132.505728 
L 863.262 132.351979 
L 868.284 132.215659 
L 855.45 131.937671 
L 861.03 131.754025 
L 849.87 131.602425 
L 861.588 131.45407 
L 861.588 131.281462 
L 869.958 131.015405 
L 859.356 130.866042 
L 856.566 130.693402 
L 867.168 130.406918 
L 867.726 130.262363 
L 858.24 129.712936 
L 863.262 129.557988 
L 858.798 129.417282 
L 862.146 129.267176 
L 860.472 129.112615 
L 861.03 128.941702 
L 867.168 128.800113 
L 861.03 128.452412 
L 867.168 128.041665 
L 863.82 127.781048 
L 868.284 127.661407 
L 862.146 127.385649 
L 862.146 127.385649 
" style="fill:none;stroke:#2ecbff;stroke-linecap:square;stroke-width:5;"/>
   </g>
   <g id="line2d_32">
    <path clip-path="url(#pef92a6478d)" d="M -1 557.1006 
L 223.236 515.146851 
L 363.294 484.335552 
L 332.604 461.740688 
L 359.388 443.476525 
L 457.038 428.465407 
L 460.944 415.800848 
L 480.474 404.600907 
L 509.49 395.006466 
L 486.054 385.518773 
L 501.678 376.705136 
L 525.672 368.536238 
L 531.81 361.647946 
L 551.898 354.952746 
L 546.318 348.321939 
L 556.92 342.856948 
L 556.92 337.404408 
L 564.174 332.168868 
L 603.234 326.605996 
L 554.13 322.612976 
L 607.698 318.180513 
L 613.836 314.08004 
L 592.074 310.069538 
L 612.72 306.127745 
L 621.648 302.538615 
L 641.736 299.226485 
L 641.736 296.039582 
L 624.996 292.905848 
L 643.41 290.111332 
L 643.968 287.229529 
L 670.194 284.41187 
L 658.476 281.460367 
L 665.172 278.729697 
L 658.476 276.235235 
L 679.122 273.84298 
L 677.448 271.484632 
L 676.89 269.331604 
L 684.144 267.122286 
L 672.426 265.083981 
L 694.188 263.27206 
L 674.658 261.30603 
L 686.376 259.311425 
L 688.608 257.322052 
L 684.144 255.529296 
L 703.116 253.888679 
L 694.746 252.136956 
L 710.928 250.369428 
L 690.84 248.467584 
L 695.304 246.939018 
L 731.574 245.301633 
L 735.48 244.019885 
L 726.552 242.502537 
L 719.856 240.964938 
L 710.928 239.40234 
L 708.696 238.056536 
L 721.53 236.650633 
L 722.646 235.197212 
L 734.364 233.910539 
L 737.712 232.588349 
L 745.524 231.442305 
L 742.176 230.433749 
L 732.69 229.324599 
L 742.176 228.099199 
L 742.734 226.861732 
L 739.944 225.595187 
L 758.358 224.53113 
L 748.872 223.391412 
L 751.104 222.169483 
L 764.496 221.041854 
L 752.778 220.04091 
L 748.872 218.968414 
L 740.502 217.925755 
L 751.104 216.95937 
L 766.728 215.951828 
L 742.734 214.944716 
L 755.01 214.075682 
L 758.916 213.173928 
L 760.59 212.227368 
L 775.656 211.250691 
L 774.54 210.341094 
L 766.728 209.445988 
L 779.004 208.537629 
L 767.286 207.651537 
L 759.474 206.756286 
L 767.286 206.006782 
L 755.568 205.169602 
L 765.612 204.39243 
L 768.96 203.519826 
L 767.286 202.777706 
L 775.098 201.887123 
L 794.07 201.033748 
L 766.17 200.357773 
L 791.28 199.583416 
L 796.86 198.930858 
L 777.888 198.16352 
L 784.026 197.302846 
L 790.722 196.582315 
L 803.556 195.892032 
L 791.838 195.223418 
L 785.142 194.514598 
L 794.628 193.850963 
L 795.744 193.138487 
L 783.468 192.593011 
L 790.722 191.920859 
L 779.004 191.254571 
L 785.7 190.568675 
L 788.49 189.999359 
L 800.208 189.288146 
L 800.766 188.653949 
L 799.65 188.061567 
L 803.556 187.478886 
L 794.628 186.87607 
L 809.694 186.258517 
L 801.324 185.590637 
L 809.136 185.026891 
L 795.744 183.73464 
L 809.136 183.169351 
L 792.396 182.613693 
L 809.694 182.000087 
L 808.02 181.459279 
L 817.506 180.957649 
L 815.274 180.444796 
L 808.02 179.94399 
L 814.716 178.849827 
L 802.44 178.245352 
L 805.23 177.669308 
L 810.252 177.138996 
L 804.672 176.651321 
L 793.512 176.125045 
L 822.528 175.601611 
L 809.136 175.11575 
L 824.202 174.63269 
L 800.766 174.079601 
L 825.876 173.589938 
L 829.782 173.037404 
L 826.434 172.529797 
L 819.738 172.127572 
L 828.108 171.666736 
L 797.418 171.226734 
L 818.064 170.688976 
L 810.81 170.245919 
L 819.738 169.875052 
L 802.44 169.515941 
L 825.876 168.689305 
L 818.622 168.190227 
L 821.412 167.71361 
L 820.854 167.310979 
L 817.506 166.83758 
L 830.34 166.332418 
L 828.666 165.890066 
L 836.478 165.510446 
L 833.688 165.036654 
L 828.108 164.614295 
L 834.246 164.20284 
L 815.274 163.788669 
L 825.318 163.332177 
L 830.898 162.881409 
L 826.992 162.480096 
L 825.318 162.08978 
L 828.666 161.742467 
L 837.594 161.294831 
L 821.97 160.95194 
L 827.55 160.56501 
L 824.202 160.199726 
L 837.594 159.794307 
L 841.5 159.452701 
L 825.318 159.096486 
L 830.34 158.76312 
L 832.014 158.366329 
L 833.13 157.977193 
L 815.832 157.593247 
L 843.732 157.200089 
L 838.71 156.842143 
L 835.362 156.488655 
L 843.174 156.13403 
L 834.246 155.79549 
L 833.688 155.431712 
L 834.246 155.1003 
L 840.942 154.79909 
L 838.71 154.498141 
L 840.384 154.099066 
L 829.782 153.382223 
L 837.036 152.703899 
L 827.55 152.014765 
L 849.312 151.687198 
L 837.036 151.07162 
L 847.638 150.78208 
L 844.29 150.196354 
L 838.71 149.907365 
L 839.268 149.589317 
L 840.942 149.210473 
L 837.036 148.881204 
L 849.312 148.564118 
L 842.058 148.230852 
L 842.058 147.893219 
L 844.848 147.64324 
L 832.572 147.393726 
L 847.08 147.09518 
L 843.174 146.812657 
L 825.318 146.512398 
L 851.544 146.242443 
L 857.124 145.962899 
L 852.66 145.674132 
L 846.522 145.424948 
L 849.87 145.180254 
L 843.174 144.538077 
L 851.544 144.109276 
L 863.262 143.807993 
L 848.196 143.604411 
L 835.92 143.296687 
L 848.754 143.014905 
L 852.66 142.732452 
L 842.058 142.448075 
L 852.66 142.168469 
L 821.412 141.906753 
L 853.218 141.640958 
L 835.92 141.100439 
L 853.218 140.642487 
L 842.058 140.198447 
L 854.892 139.9448 
L 857.124 139.723052 
L 854.334 139.493237 
L 853.218 139.237723 
L 849.87 138.952816 
L 835.362 138.682339 
L 861.03 138.173688 
L 853.776 137.998323 
L 857.682 137.768088 
L 857.682 137.514559 
L 859.356 137.2809 
L 855.45 137.034782 
L 860.472 136.82964 
L 854.334 136.591919 
L 858.798 136.375788 
L 852.66 136.128775 
L 852.102 135.900016 
L 855.45 135.655831 
L 841.5 135.422606 
L 860.472 135.21834 
L 850.428 134.765353 
L 857.124 134.550738 
L 857.682 134.344764 
L 864.378 134.134691 
L 860.472 133.930915 
L 853.218 133.722808 
L 852.66 133.513991 
L 868.842 133.263079 
L 858.24 133.051791 
L 864.378 132.612447 
L 854.334 132.206882 
L 858.798 132.007396 
L 850.428 131.871249 
L 859.356 131.429462 
L 850.986 131.221279 
L 863.82 131.000458 
L 843.174 130.819056 
L 866.052 130.473926 
L 849.312 130.278924 
L 863.262 130.105676 
L 861.03 129.748501 
L 858.798 129.57349 
L 843.174 129.400865 
L 844.848 129.245127 
L 863.82 129.086379 
L 845.964 128.891384 
L 861.03 128.531382 
L 845.964 128.300078 
L 859.914 128.123915 
L 845.406 127.735514 
L 858.798 127.574245 
L 853.776 127.388746 
L 853.218 127.171542 
L 853.776 126.989192 
L 854.892 126.830634 
L 864.378 126.636855 
L 859.914 126.485834 
L 866.61 126.276533 
L 861.03 126.075272 
L 862.146 125.924617 
L 862.146 125.776052 
L 865.494 125.608842 
L 857.682 125.433805 
L 856.566 125.240225 
L 857.124 125.082991 
L 862.704 124.927643 
L 857.124 124.785344 
L 866.052 124.620413 
L 859.356 124.461504 
L 859.914 124.286624 
L 856.566 124.086561 
L 859.914 123.948251 
L 855.45 123.794658 
L 864.378 123.485585 
L 859.914 123.351343 
L 866.052 123.062018 
L 855.45 122.849432 
L 854.892 122.690971 
L 862.146 122.582349 
L 858.24 122.417456 
L 858.798 122.264592 
L 845.406 122.132689 
L 862.704 121.852106 
L 858.798 121.510093 
L 859.356 121.352612 
L 847.638 121.176256 
L 859.914 121.005244 
L 862.146 120.848392 
L 857.124 120.709836 
L 862.146 120.553334 
L 859.356 120.399253 
L 859.356 120.287056 
L 861.588 120.161763 
L 860.472 120.045193 
L 862.704 119.906787 
L 859.914 119.769302 
L 859.356 119.628533 
L 866.052 119.493039 
L 867.726 119.193317 
L 866.052 119.046675 
L 861.03 118.855926 
L 852.102 118.711128 
L 864.378 118.430211 
L 861.588 118.331614 
L 849.312 118.187711 
L 868.842 118.001623 
L 858.798 117.752114 
L 857.124 117.482445 
L 865.494 117.342447 
L 865.494 117.342447 
" style="fill:none;stroke:#9041ff;stroke-linecap:square;stroke-width:5;"/>
   </g>
   <g id="line2d_33">
    <path clip-path="url(#pef92a6478d)" d="M -1 528.560023 
L 179.154 499.48507 
L 277.92 468.223146 
L 381.708 446.403335 
L 387.846 427.577485 
L 461.502 411.631494 
L 403.47 398.692923 
L 474.894 386.508399 
L 478.242 376.609131 
L 488.844 367.900077 
L 495.54 360.006986 
L 522.324 352.377753 
L 516.186 346.082092 
L 539.622 339.590667 
L 554.688 333.526597 
L 518.976 328.149835 
L 544.644 322.681086 
L 552.456 317.116354 
L 563.616 312.913021 
L 565.29 308.410582 
L 616.068 299.892093 
L 608.814 296.074725 
L 615.51 292.414169 
L 608.256 288.873863 
L 583.704 285.453812 
L 608.814 282.340964 
L 615.51 279.127063 
L 635.598 276.114288 
L 611.604 273.238019 
L 647.316 270.587383 
L 642.294 267.936268 
L 667.404 265.478151 
L 655.686 262.94992 
L 627.228 260.510375 
L 649.548 258.146734 
L 670.752 256.055562 
L 678.006 253.858472 
L 650.106 251.612151 
L 670.752 249.475624 
L 669.078 247.646367 
L 689.166 245.781422 
L 681.354 244.007627 
L 670.194 242.311045 
L 661.266 240.430294 
L 697.536 238.703774 
L 696.978 236.93643 
L 695.862 235.25702 
L 705.348 233.641989 
L 690.84 231.916209 
L 669.636 230.36099 
L 682.47 228.972902 
L 717.624 227.608454 
L 714.834 226.114304 
L 711.486 224.753391 
L 736.596 223.319905 
L 710.37 221.927095 
L 718.182 220.656179 
L 706.464 219.367748 
L 690.282 218.027096 
L 719.298 216.734245 
L 728.784 215.384844 
L 741.06 214.26812 
L 712.044 212.965654 
L 734.364 211.887773 
L 731.574 210.6826 
L 722.646 208.476395 
L 740.502 207.479936 
L 731.016 206.385104 
L 737.154 205.334828 
L 739.386 204.351936 
L 730.458 203.234677 
L 714.276 202.255555 
L 735.48 201.429904 
L 739.386 200.339165 
L 740.502 199.361264 
L 752.778 198.405468 
L 742.176 197.603839 
L 751.104 196.544836 
L 748.872 195.710792 
L 761.706 194.817966 
L 768.96 193.107701 
L 750.546 192.245715 
L 766.17 191.435848 
L 754.452 190.669727 
L 764.496 189.911895 
L 768.96 189.144597 
L 761.148 188.270181 
L 768.96 187.445282 
L 767.286 186.671982 
L 752.22 185.908644 
L 776.772 185.175475 
L 773.424 184.454208 
L 749.43 183.635939 
L 782.91 182.270998 
L 752.778 180.97235 
L 784.584 180.275337 
L 768.96 179.645331 
L 782.91 179.02687 
L 779.004 178.371397 
L 777.888 177.688261 
L 784.584 177.04786 
L 773.424 176.348884 
L 783.468 175.594796 
L 773.982 175.014558 
L 782.91 174.285176 
L 781.236 173.675135 
L 795.186 173.099867 
L 794.07 172.51347 
L 791.28 171.946448 
L 780.678 171.309806 
L 776.772 170.765956 
L 792.396 170.172279 
L 795.744 169.46561 
L 790.164 168.919412 
L 785.7 168.348774 
L 792.396 167.754802 
L 801.882 167.152308 
L 796.86 166.685177 
L 794.628 166.196984 
L 794.628 165.660609 
L 788.49 165.174454 
L 799.65 164.660551 
L 806.904 164.150245 
L 793.512 163.553649 
L 771.192 163.011127 
L 811.368 162.47734 
L 808.02 161.941889 
L 799.092 161.495006 
L 808.02 160.98057 
L 811.926 160.526363 
L 806.904 159.954777 
L 791.838 159.476474 
L 810.252 159.004407 
L 813.6 158.54946 
L 812.484 158.082302 
L 809.136 157.594291 
L 814.158 157.087197 
L 804.672 156.603811 
L 812.484 156.171037 
L 812.484 155.747279 
L 818.064 155.332209 
L 820.296 154.903538 
L 824.76 154.416223 
L 817.506 154.015011 
L 814.716 153.571079 
L 805.23 153.121934 
L 810.252 152.708347 
L 814.158 152.23109 
L 820.296 151.842694 
L 805.23 151.409676 
L 814.716 150.978447 
L 800.766 150.597608 
L 821.97 149.765407 
L 818.622 149.456947 
L 823.086 149.074963 
L 794.628 148.675125 
L 800.208 148.280233 
L 810.252 147.876356 
L 825.318 147.531877 
L 825.876 147.14249 
L 824.202 146.759237 
L 833.13 146.332141 
L 830.898 146.006397 
L 826.992 145.601025 
L 814.716 145.241233 
L 823.086 144.872599 
L 821.97 144.521164 
L 819.738 144.16512 
L 821.97 143.832332 
L 829.224 143.494116 
L 829.782 143.111667 
L 819.738 142.80334 
L 827.55 142.42273 
L 821.412 142.054353 
L 813.042 141.70456 
L 821.97 141.369209 
L 816.39 141.049661 
L 830.34 140.690604 
L 831.456 140.368239 
L 831.456 140.056914 
L 830.898 139.743342 
L 821.97 139.407327 
L 830.34 139.022284 
L 830.898 138.737146 
L 815.832 138.443963 
L 837.036 138.122076 
L 837.594 137.844401 
L 833.688 137.552918 
L 848.196 137.246952 
L 840.384 136.939964 
L 828.666 136.653539 
L 844.848 136.387402 
L 832.014 136.108763 
L 840.384 135.788956 
L 819.18 135.493859 
L 837.594 135.177954 
L 834.246 134.872203 
L 838.71 134.335388 
L 839.268 134.085357 
L 827.55 133.821925 
L 842.058 133.559154 
L 846.522 133.303394 
L 846.522 133.030757 
L 829.782 132.463615 
L 845.406 132.216434 
L 837.594 131.662013 
L 842.616 131.41703 
L 838.152 131.150997 
L 848.754 130.655251 
L 840.942 130.433509 
L 844.29 130.15138 
L 823.644 129.921578 
L 824.76 129.680184 
L 822.528 129.405806 
L 843.732 129.058279 
L 843.732 128.825083 
L 839.268 128.535875 
L 849.87 128.145315 
L 830.34 127.916353 
L 847.08 127.721824 
L 838.71 127.45782 
L 845.964 127.236969 
L 843.732 126.957651 
L 842.616 126.699763 
L 839.826 126.480138 
L 845.406 126.212166 
L 838.152 125.707092 
L 848.196 125.444944 
L 841.5 125.219221 
L 852.102 125.04176 
L 845.406 124.834874 
L 848.754 124.640527 
L 846.522 124.441104 
L 848.754 124.210506 
L 848.196 123.978708 
L 843.174 123.736028 
L 847.638 123.528322 
L 844.848 123.294554 
L 847.638 123.058323 
L 844.29 122.86852 
L 849.87 122.462373 
L 841.5 122.285895 
L 851.544 122.035679 
L 849.312 121.832144 
L 826.434 121.652776 
L 849.312 121.464894 
L 845.964 121.258857 
L 848.196 120.857281 
L 844.29 120.625429 
L 835.362 120.403312 
L 833.13 120.234876 
L 839.268 120.039527 
L 840.384 119.886068 
L 847.638 119.701631 
L 844.848 119.543024 
L 844.29 119.359547 
L 842.616 119.187804 
L 833.688 118.953944 
L 850.986 118.713779 
L 842.058 118.490204 
L 852.102 118.257034 
L 852.66 118.07826 
L 839.826 117.909442 
L 839.826 117.728447 
L 847.638 117.526244 
L 834.804 117.364715 
L 857.682 117.165136 
L 842.616 116.993689 
L 851.544 116.801675 
L 849.312 116.652818 
L 841.5 116.512202 
L 843.732 116.314475 
L 844.29 116.120342 
L 854.892 115.936823 
L 841.5 115.805405 
L 850.428 115.479331 
L 856.566 115.162099 
L 850.986 114.99088 
L 849.87 114.814689 
L 846.522 114.664562 
L 853.776 114.515979 
L 844.848 114.347441 
L 844.848 114.19181 
L 839.826 114.020085 
L 852.102 113.854899 
L 848.754 113.67819 
L 849.312 113.544798 
L 853.218 113.372594 
L 827.55 113.222185 
L 854.334 113.061811 
L 844.29 112.890831 
L 852.102 112.719083 
L 848.754 112.557093 
L 854.334 112.404833 
L 853.218 112.281023 
L 855.45 112.111727 
L 843.732 111.734599 
L 853.776 111.338935 
L 848.196 111.170616 
L 850.428 111.020249 
L 849.87 110.862738 
L 856.566 110.577645 
L 842.616 110.399643 
L 850.428 110.15983 
L 852.102 110.022764 
L 857.682 109.916855 
L 850.428 109.663226 
L 859.914 109.518681 
L 838.152 109.377335 
L 852.66 109.233345 
L 850.986 109.112674 
L 854.334 108.959918 
L 843.732 108.812457 
L 854.892 108.570974 
L 840.384 108.45336 
L 854.334 108.322732 
L 845.406 108.207996 
L 848.754 108.08083 
L 857.124 107.960508 
L 856.008 107.811494 
L 846.522 107.670851 
L 861.03 107.488609 
L 855.45 107.241699 
L 858.24 107.023391 
L 856.566 106.921496 
L 844.29 106.794953 
L 856.008 106.695713 
L 850.428 106.616167 
L 852.102 106.508008 
L 847.638 106.360363 
L 856.008 106.216636 
L 852.102 106.096673 
L 854.892 105.960972 
L 854.892 105.960972 
" style="fill:none;stroke:#4161ff;stroke-linecap:square;stroke-width:5;"/>
   </g>
   <g id="patch_3">
    <path d="M 144 504 
L 144 69.12 
" style="fill:none;stroke:#000000;stroke-linecap:square;stroke-linejoin:miter;stroke-width:0.8;"/>
   </g>
   <g id="patch_4">
    <path d="M 1036.8 504 
L 1036.8 69.12 
" style="fill:none;stroke:#000000;stroke-linecap:square;stroke-linejoin:miter;stroke-width:0.8;"/>
   </g>
   <g id="patch_5">
    <path d="M 144 504 
L 1036.8 504 
" style="fill:none;stroke:#000000;stroke-linecap:square;stroke-linejoin:miter;stroke-width:0.8;"/>
   </g>
   <g id="patch_6">
    <path d="M 144 69.12 
L 1036.8 69.12 
" style="fill:none;stroke:#000000;stroke-linecap:square;stroke-linejoin:miter;stroke-width:0.8;"/>
   </g>
   <g id="text_14">
    <!-- Gated: Energy vs. Accuracy with All Networks -->
    <g transform="translate(179.488125 61.633125)scale(0.36 -0.36)">
     <defs>
      <path d="M 59.515625 10.40625 
L 59.515625 29.984375 
L 43.40625 29.984375 
L 43.40625 38.09375 
L 69.28125 38.09375 
L 69.28125 6.78125 
Q 63.578125 2.734375 56.6875 0.65625 
Q 49.8125 -1.421875 42 -1.421875 
Q 24.90625 -1.421875 15.25 8.5625 
Q 5.609375 18.5625 5.609375 36.375 
Q 5.609375 54.25 15.25 64.234375 
Q 24.90625 74.21875 42 74.21875 
Q 49.125 74.21875 55.546875 72.453125 
Q 61.96875 70.703125 67.390625 67.28125 
L 67.390625 56.78125 
Q 61.921875 61.421875 55.765625 63.765625 
Q 49.609375 66.109375 42.828125 66.109375 
Q 29.4375 66.109375 22.71875 58.640625 
Q 16.015625 51.171875 16.015625 36.375 
Q 16.015625 21.625 22.71875 14.15625 
Q 29.4375 6.6875 42.828125 6.6875 
Q 48.046875 6.6875 52.140625 7.59375 
Q 56.25 8.5 59.515625 10.40625 
z
" id="DejaVuSans-71"/>
      <path d="M 18.3125 70.21875 
L 18.3125 54.6875 
L 36.8125 54.6875 
L 36.8125 47.703125 
L 18.3125 47.703125 
L 18.3125 18.015625 
Q 18.3125 11.328125 20.140625 9.421875 
Q 21.96875 7.515625 27.59375 7.515625 
L 36.8125 7.515625 
L 36.8125 0 
L 27.59375 0 
Q 17.1875 0 13.234375 3.875 
Q 9.28125 7.765625 9.28125 18.015625 
L 9.28125 47.703125 
L 2.6875 47.703125 
L 2.6875 54.6875 
L 9.28125 54.6875 
L 9.28125 70.21875 
z
" id="DejaVuSans-116"/>
      <path d="M 45.40625 46.390625 
L 45.40625 75.984375 
L 54.390625 75.984375 
L 54.390625 0 
L 45.40625 0 
L 45.40625 8.203125 
Q 42.578125 3.328125 38.25 0.953125 
Q 33.9375 -1.421875 27.875 -1.421875 
Q 17.96875 -1.421875 11.734375 6.484375 
Q 5.515625 14.40625 5.515625 27.296875 
Q 5.515625 40.1875 11.734375 48.09375 
Q 17.96875 56 27.875 56 
Q 33.9375 56 38.25 53.625 
Q 42.578125 51.265625 45.40625 46.390625 
z
M 14.796875 27.296875 
Q 14.796875 17.390625 18.875 11.75 
Q 22.953125 6.109375 30.078125 6.109375 
Q 37.203125 6.109375 41.296875 11.75 
Q 45.40625 17.390625 45.40625 27.296875 
Q 45.40625 37.203125 41.296875 42.84375 
Q 37.203125 48.484375 30.078125 48.484375 
Q 22.953125 48.484375 18.875 42.84375 
Q 14.796875 37.203125 14.796875 27.296875 
z
" id="DejaVuSans-100"/>
      <path d="M 11.71875 12.40625 
L 22.015625 12.40625 
L 22.015625 0 
L 11.71875 0 
z
M 11.71875 51.703125 
L 22.015625 51.703125 
L 22.015625 39.3125 
L 11.71875 39.3125 
z
" id="DejaVuSans-58"/>
      <path d="M 2.984375 54.6875 
L 12.5 54.6875 
L 29.59375 8.796875 
L 46.6875 54.6875 
L 56.203125 54.6875 
L 35.6875 0 
L 23.484375 0 
z
" id="DejaVuSans-118"/>
      <path d="M 44.28125 53.078125 
L 44.28125 44.578125 
Q 40.484375 46.53125 36.375 47.5 
Q 32.28125 48.484375 27.875 48.484375 
Q 21.1875 48.484375 17.84375 46.4375 
Q 14.5 44.390625 14.5 40.28125 
Q 14.5 37.15625 16.890625 35.375 
Q 19.28125 33.59375 26.515625 31.984375 
L 29.59375 31.296875 
Q 39.15625 29.25 43.1875 25.515625 
Q 47.21875 21.78125 47.21875 15.09375 
Q 47.21875 7.46875 41.1875 3.015625 
Q 35.15625 -1.421875 24.609375 -1.421875 
Q 20.21875 -1.421875 15.453125 -0.5625 
Q 10.6875 0.296875 5.421875 2 
L 5.421875 11.28125 
Q 10.40625 8.6875 15.234375 7.390625 
Q 20.0625 6.109375 24.8125 6.109375 
Q 31.15625 6.109375 34.5625 8.28125 
Q 37.984375 10.453125 37.984375 14.40625 
Q 37.984375 18.0625 35.515625 20.015625 
Q 33.0625 21.96875 24.703125 23.78125 
L 21.578125 24.515625 
Q 13.234375 26.265625 9.515625 29.90625 
Q 5.8125 33.546875 5.8125 39.890625 
Q 5.8125 47.609375 11.28125 51.796875 
Q 16.75 56 26.8125 56 
Q 31.78125 56 36.171875 55.265625 
Q 40.578125 54.546875 44.28125 53.078125 
z
" id="DejaVuSans-115"/>
      <path d="M 4.203125 54.6875 
L 13.1875 54.6875 
L 24.421875 12.015625 
L 35.59375 54.6875 
L 46.1875 54.6875 
L 57.421875 12.015625 
L 68.609375 54.6875 
L 77.59375 54.6875 
L 63.28125 0 
L 52.6875 0 
L 40.921875 44.828125 
L 29.109375 0 
L 18.5 0 
z
" id="DejaVuSans-119"/>
      <path d="M 9.421875 54.6875 
L 18.40625 54.6875 
L 18.40625 0 
L 9.421875 0 
z
M 9.421875 75.984375 
L 18.40625 75.984375 
L 18.40625 64.59375 
L 9.421875 64.59375 
z
" id="DejaVuSans-105"/>
      <path d="M 54.890625 33.015625 
L 54.890625 0 
L 45.90625 0 
L 45.90625 32.71875 
Q 45.90625 40.484375 42.875 44.328125 
Q 39.84375 48.1875 33.796875 48.1875 
Q 26.515625 48.1875 22.3125 43.546875 
Q 18.109375 38.921875 18.109375 30.90625 
L 18.109375 0 
L 9.078125 0 
L 9.078125 75.984375 
L 18.109375 75.984375 
L 18.109375 46.1875 
Q 21.34375 51.125 25.703125 53.5625 
Q 30.078125 56 35.796875 56 
Q 45.21875 56 50.046875 50.171875 
Q 54.890625 44.34375 54.890625 33.015625 
z
" id="DejaVuSans-104"/>
      <path d="M 9.421875 75.984375 
L 18.40625 75.984375 
L 18.40625 0 
L 9.421875 0 
z
" id="DejaVuSans-108"/>
      <path d="M 9.8125 72.90625 
L 23.09375 72.90625 
L 55.421875 11.921875 
L 55.421875 72.90625 
L 64.984375 72.90625 
L 64.984375 0 
L 51.703125 0 
L 19.390625 60.984375 
L 19.390625 0 
L 9.8125 0 
z
" id="DejaVuSans-78"/>
      <path d="M 30.609375 48.390625 
Q 23.390625 48.390625 19.1875 42.75 
Q 14.984375 37.109375 14.984375 27.296875 
Q 14.984375 17.484375 19.15625 11.84375 
Q 23.34375 6.203125 30.609375 6.203125 
Q 37.796875 6.203125 41.984375 11.859375 
Q 46.1875 17.53125 46.1875 27.296875 
Q 46.1875 37.015625 41.984375 42.703125 
Q 37.796875 48.390625 30.609375 48.390625 
z
M 30.609375 56 
Q 42.328125 56 49.015625 48.375 
Q 55.71875 40.765625 55.71875 27.296875 
Q 55.71875 13.875 49.015625 6.21875 
Q 42.328125 -1.421875 30.609375 -1.421875 
Q 18.84375 -1.421875 12.171875 6.21875 
Q 5.515625 13.875 5.515625 27.296875 
Q 5.515625 40.765625 12.171875 48.375 
Q 18.84375 56 30.609375 56 
z
" id="DejaVuSans-111"/>
      <path d="M 9.078125 75.984375 
L 18.109375 75.984375 
L 18.109375 31.109375 
L 44.921875 54.6875 
L 56.390625 54.6875 
L 27.390625 29.109375 
L 57.625 0 
L 45.90625 0 
L 18.109375 26.703125 
L 18.109375 0 
L 9.078125 0 
z
" id="DejaVuSans-107"/>
     </defs>
     <use xlink:href="#DejaVuSans-71"/>
     <use x="77.490234" xlink:href="#DejaVuSans-97"/>
     <use x="138.769531" xlink:href="#DejaVuSans-116"/>
     <use x="177.978516" xlink:href="#DejaVuSans-101"/>
     <use x="239.501953" xlink:href="#DejaVuSans-100"/>
     <use x="302.978516" xlink:href="#DejaVuSans-58"/>
     <use x="336.669922" xlink:href="#DejaVuSans-32"/>
     <use x="368.457031" xlink:href="#DejaVuSans-69"/>
     <use x="431.640625" xlink:href="#DejaVuSans-110"/>
     <use x="495.019531" xlink:href="#DejaVuSans-101"/>
     <use x="556.542969" xlink:href="#DejaVuSans-114"/>
     <use x="595.90625" xlink:href="#DejaVuSans-103"/>
     <use x="659.382812" xlink:href="#DejaVuSans-121"/>
     <use x="718.5625" xlink:href="#DejaVuSans-32"/>
     <use x="750.349609" xlink:href="#DejaVuSans-118"/>
     <use x="809.529297" xlink:href="#DejaVuSans-115"/>
     <use x="861.628906" xlink:href="#DejaVuSans-46"/>
     <use x="893.416016" xlink:href="#DejaVuSans-32"/>
     <use x="925.203125" xlink:href="#DejaVuSans-65"/>
     <use x="991.861328" xlink:href="#DejaVuSans-99"/>
     <use x="1046.841797" xlink:href="#DejaVuSans-99"/>
     <use x="1101.822266" xlink:href="#DejaVuSans-117"/>
     <use x="1165.201172" xlink:href="#DejaVuSans-114"/>
     <use x="1206.314453" xlink:href="#DejaVuSans-97"/>
     <use x="1267.59375" xlink:href="#DejaVuSans-99"/>
     <use x="1322.574219" xlink:href="#DejaVuSans-121"/>
     <use x="1381.753906" xlink:href="#DejaVuSans-32"/>
     <use x="1413.541016" xlink:href="#DejaVuSans-119"/>
     <use x="1495.328125" xlink:href="#DejaVuSans-105"/>
     <use x="1523.111328" xlink:href="#DejaVuSans-116"/>
     <use x="1562.320312" xlink:href="#DejaVuSans-104"/>
     <use x="1625.699219" xlink:href="#DejaVuSans-32"/>
     <use x="1657.486328" xlink:href="#DejaVuSans-65"/>
     <use x="1725.894531" xlink:href="#DejaVuSans-108"/>
     <use x="1753.677734" xlink:href="#DejaVuSans-108"/>
     <use x="1781.460938" xlink:href="#DejaVuSans-32"/>
     <use x="1813.248047" xlink:href="#DejaVuSans-78"/>
     <use x="1888.052734" xlink:href="#DejaVuSans-101"/>
     <use x="1949.576172" xlink:href="#DejaVuSans-116"/>
     <use x="1988.785156" xlink:href="#DejaVuSans-119"/>
     <use x="2070.572266" xlink:href="#DejaVuSans-111"/>
     <use x="2131.753906" xlink:href="#DejaVuSans-114"/>
     <use x="2172.867188" xlink:href="#DejaVuSans-107"/>
     <use x="2230.777344" xlink:href="#DejaVuSans-115"/>
    </g>
   </g>
   <g id="legend_1">
    <g id="patch_7">
     <path d="M 909.0075 493 
L 1021.4 493 
Q 1025.8 493 1025.8 488.6 
L 1025.8 297.04875 
Q 1025.8 292.64875 1021.4 292.64875 
L 909.0075 292.64875 
Q 904.6075 292.64875 904.6075 297.04875 
L 904.6075 488.6 
Q 904.6075 493 909.0075 493 
z
" style="fill:#ffffff;opacity:0.8;stroke:#cccccc;stroke-linejoin:miter;"/>
    </g>
    <g id="line2d_34">
     <path d="M 913.4075 310.465312 
L 957.4075 310.465312 
" style="fill:none;stroke:#ff9500;stroke-linecap:square;stroke-width:5;"/>
    </g>
    <g id="line2d_35"/>
    <g id="text_15">
     <!-- 50 -->
     <g transform="translate(975.0075 318.165312)scale(0.22 -0.22)">
      <use xlink:href="#DejaVuSans-53"/>
      <use x="63.623047" xlink:href="#DejaVuSans-48"/>
     </g>
    </g>
    <g id="line2d_36">
     <path d="M 913.4075 342.757187 
L 957.4075 342.757187 
" style="fill:none;stroke:#ff15ff;stroke-linecap:square;stroke-width:5;"/>
    </g>
    <g id="line2d_37"/>
    <g id="text_16">
     <!-- 100 -->
     <g transform="translate(975.0075 350.457187)scale(0.22 -0.22)">
      <use xlink:href="#DejaVuSans-49"/>
      <use x="63.623047" xlink:href="#DejaVuSans-48"/>
      <use x="127.246094" xlink:href="#DejaVuSans-48"/>
     </g>
    </g>
    <g id="line2d_38">
     <path d="M 913.4075 375.049062 
L 957.4075 375.049062 
" style="fill:none;stroke:#ff1500;stroke-linecap:square;stroke-width:5;"/>
    </g>
    <g id="line2d_39"/>
    <g id="text_17">
     <!-- 150 -->
     <g transform="translate(975.0075 382.749062)scale(0.22 -0.22)">
      <use xlink:href="#DejaVuSans-49"/>
      <use x="63.623047" xlink:href="#DejaVuSans-53"/>
      <use x="127.246094" xlink:href="#DejaVuSans-48"/>
     </g>
    </g>
    <g id="line2d_40">
     <path d="M 913.4075 407.340937 
L 957.4075 407.340937 
" style="fill:none;stroke:#2ecbff;stroke-linecap:square;stroke-width:5;"/>
    </g>
    <g id="line2d_41"/>
    <g id="text_18">
     <!-- 200 -->
     <g transform="translate(975.0075 415.040937)scale(0.22 -0.22)">
      <use xlink:href="#DejaVuSans-50"/>
      <use x="63.623047" xlink:href="#DejaVuSans-48"/>
      <use x="127.246094" xlink:href="#DejaVuSans-48"/>
     </g>
    </g>
    <g id="line2d_42">
     <path d="M 913.4075 439.632812 
L 957.4075 439.632812 
" style="fill:none;stroke:#9041ff;stroke-linecap:square;stroke-width:5;"/>
    </g>
    <g id="line2d_43"/>
    <g id="text_19">
     <!-- 250 -->
     <g transform="translate(975.0075 447.332812)scale(0.22 -0.22)">
      <use xlink:href="#DejaVuSans-50"/>
      <use x="63.623047" xlink:href="#DejaVuSans-53"/>
      <use x="127.246094" xlink:href="#DejaVuSans-48"/>
     </g>
    </g>
    <g id="line2d_44">
     <path d="M 913.4075 471.924688 
L 957.4075 471.924688 
" style="fill:none;stroke:#4161ff;stroke-linecap:square;stroke-width:5;"/>
    </g>
    <g id="line2d_45"/>
    <g id="text_20">
     <!-- 300 -->
     <g transform="translate(975.0075 479.624687)scale(0.22 -0.22)">
      <defs>
       <path d="M 40.578125 39.3125 
Q 47.65625 37.796875 51.625 33 
Q 55.609375 28.21875 55.609375 21.1875 
Q 55.609375 10.40625 48.1875 4.484375 
Q 40.765625 -1.421875 27.09375 -1.421875 
Q 22.515625 -1.421875 17.65625 -0.515625 
Q 12.796875 0.390625 7.625 2.203125 
L 7.625 11.71875 
Q 11.71875 9.328125 16.59375 8.109375 
Q 21.484375 6.890625 26.8125 6.890625 
Q 36.078125 6.890625 40.9375 10.546875 
Q 45.796875 14.203125 45.796875 21.1875 
Q 45.796875 27.640625 41.28125 31.265625 
Q 36.765625 34.90625 28.71875 34.90625 
L 20.21875 34.90625 
L 20.21875 43.015625 
L 29.109375 43.015625 
Q 36.375 43.015625 40.234375 45.921875 
Q 44.09375 48.828125 44.09375 54.296875 
Q 44.09375 59.90625 40.109375 62.90625 
Q 36.140625 65.921875 28.71875 65.921875 
Q 24.65625 65.921875 20.015625 65.03125 
Q 15.375 64.15625 9.8125 62.3125 
L 9.8125 71.09375 
Q 15.4375 72.65625 20.34375 73.4375 
Q 25.25 74.21875 29.59375 74.21875 
Q 40.828125 74.21875 47.359375 69.109375 
Q 53.90625 64.015625 53.90625 55.328125 
Q 53.90625 49.265625 50.4375 45.09375 
Q 46.96875 40.921875 40.578125 39.3125 
z
" id="DejaVuSans-51"/>
      </defs>
      <use xlink:href="#DejaVuSans-51"/>
      <use x="63.623047" xlink:href="#DejaVuSans-48"/>
      <use x="127.246094" xlink:href="#DejaVuSans-48"/>
     </g>
    </g>
   </g>
  </g>
 </g>
 <defs>
  <clipPath id="pef92a6478d">
   <rect height="434.88" width="892.8" x="144" y="69.12"/>
  </clipPath>
 </defs>
</svg>
