<?xml version="1.0" encoding="utf-8" standalone="no"?>
<!DOCTYPE svg PUBLIC "-//W3C//DTD SVG 1.1//EN"
  "http://www.w3.org/Graphics/SVG/1.1/DTD/svg11.dtd">
<!-- Created with matplotlib (https://matplotlib.org/) -->
<svg height="576pt" version="1.1" viewBox="0 0 1152 576" width="1152pt" xmlns="http://www.w3.org/2000/svg" xmlns:xlink="http://www.w3.org/1999/xlink">
 <metadata>
  <rdf:RDF xmlns:cc="http://creativecommons.org/ns#" xmlns:dc="http://purl.org/dc/elements/1.1/" xmlns:rdf="http://www.w3.org/1999/02/22-rdf-syntax-ns#">
   <cc:Work>
    <dc:type rdf:resource="http://purl.org/dc/dcmitype/StillImage"/>
    <dc:date>2021-09-12T07:36:37.247354</dc:date>
    <dc:format>image/svg+xml</dc:format>
    <dc:creator>
     <cc:Agent>
      <dc:title>Matplotlib v3.3.4, https://matplotlib.org/</dc:title>
     </cc:Agent>
    </dc:creator>
   </cc:Work>
  </rdf:RDF>
 </metadata>
 <defs>
  <style type="text/css">*{stroke-linecap:butt;stroke-linejoin:round;}</style>
 </defs>
 <g id="figure_1">
  <g id="patch_1">
   <path d="M 0 576 
L 1152 576 
L 1152 0 
L 0 0 
z
" style="fill:#ffffff;"/>
  </g>
  <g id="axes_1">
   <g id="patch_2">
    <path d="M 144 504 
L 1036.8 504 
L 1036.8 69.12 
L 144 69.12 
z
" style="fill:#ffffff;"/>
   </g>
   <g id="matplotlib.axis_1">
    <g id="xtick_1">
     <g id="line2d_1">
      <defs>
       <path d="M 0 0 
L 0 3.5 
" id="m4ff6e36291" style="stroke:#000000;stroke-width:0.8;"/>
      </defs>
      <g>
       <use style="stroke:#000000;stroke-width:0.8;" x="144" xlink:href="#m4ff6e36291" y="504"/>
      </g>
     </g>
     <g id="text_1">
      <!-- 90 -->
      <g transform="translate(128.73 529.23625)scale(0.24 -0.24)">
       <defs>
        <path d="M 10.984375 1.515625 
L 10.984375 10.5 
Q 14.703125 8.734375 18.5 7.8125 
Q 22.3125 6.890625 25.984375 6.890625 
Q 35.75 6.890625 40.890625 13.453125 
Q 46.046875 20.015625 46.78125 33.40625 
Q 43.953125 29.203125 39.59375 26.953125 
Q 35.25 24.703125 29.984375 24.703125 
Q 19.046875 24.703125 12.671875 31.3125 
Q 6.296875 37.9375 6.296875 49.421875 
Q 6.296875 60.640625 12.9375 67.421875 
Q 19.578125 74.21875 30.609375 74.21875 
Q 43.265625 74.21875 49.921875 64.515625 
Q 56.59375 54.828125 56.59375 36.375 
Q 56.59375 19.140625 48.40625 8.859375 
Q 40.234375 -1.421875 26.421875 -1.421875 
Q 22.703125 -1.421875 18.890625 -0.6875 
Q 15.09375 0.046875 10.984375 1.515625 
z
M 30.609375 32.421875 
Q 37.25 32.421875 41.125 36.953125 
Q 45.015625 41.5 45.015625 49.421875 
Q 45.015625 57.28125 41.125 61.84375 
Q 37.25 66.40625 30.609375 66.40625 
Q 23.96875 66.40625 20.09375 61.84375 
Q 16.21875 57.28125 16.21875 49.421875 
Q 16.21875 41.5 20.09375 36.953125 
Q 23.96875 32.421875 30.609375 32.421875 
z
" id="DejaVuSans-57"/>
        <path d="M 31.78125 66.40625 
Q 24.171875 66.40625 20.328125 58.90625 
Q 16.5 51.421875 16.5 36.375 
Q 16.5 21.390625 20.328125 13.890625 
Q 24.171875 6.390625 31.78125 6.390625 
Q 39.453125 6.390625 43.28125 13.890625 
Q 47.125 21.390625 47.125 36.375 
Q 47.125 51.421875 43.28125 58.90625 
Q 39.453125 66.40625 31.78125 66.40625 
z
M 31.78125 74.21875 
Q 44.046875 74.21875 50.515625 64.515625 
Q 56.984375 54.828125 56.984375 36.375 
Q 56.984375 17.96875 50.515625 8.265625 
Q 44.046875 -1.421875 31.78125 -1.421875 
Q 19.53125 -1.421875 13.0625 8.265625 
Q 6.59375 17.96875 6.59375 36.375 
Q 6.59375 54.828125 13.0625 64.515625 
Q 19.53125 74.21875 31.78125 74.21875 
z
" id="DejaVuSans-48"/>
       </defs>
       <use xlink:href="#DejaVuSans-57"/>
       <use x="63.623047" xlink:href="#DejaVuSans-48"/>
      </g>
     </g>
    </g>
    <g id="xtick_2">
     <g id="line2d_2">
      <g>
       <use style="stroke:#000000;stroke-width:0.8;" x="322.56" xlink:href="#m4ff6e36291" y="504"/>
      </g>
     </g>
     <g id="text_2">
      <!-- 92 -->
      <g transform="translate(307.29 529.23625)scale(0.24 -0.24)">
       <defs>
        <path d="M 19.1875 8.296875 
L 53.609375 8.296875 
L 53.609375 0 
L 7.328125 0 
L 7.328125 8.296875 
Q 12.9375 14.109375 22.625 23.890625 
Q 32.328125 33.6875 34.8125 36.53125 
Q 39.546875 41.84375 41.421875 45.53125 
Q 43.3125 49.21875 43.3125 52.78125 
Q 43.3125 58.59375 39.234375 62.25 
Q 35.15625 65.921875 28.609375 65.921875 
Q 23.96875 65.921875 18.8125 64.3125 
Q 13.671875 62.703125 7.8125 59.421875 
L 7.8125 69.390625 
Q 13.765625 71.78125 18.9375 73 
Q 24.125 74.21875 28.421875 74.21875 
Q 39.75 74.21875 46.484375 68.546875 
Q 53.21875 62.890625 53.21875 53.421875 
Q 53.21875 48.921875 51.53125 44.890625 
Q 49.859375 40.875 45.40625 35.40625 
Q 44.1875 33.984375 37.640625 27.21875 
Q 31.109375 20.453125 19.1875 8.296875 
z
" id="DejaVuSans-50"/>
       </defs>
       <use xlink:href="#DejaVuSans-57"/>
       <use x="63.623047" xlink:href="#DejaVuSans-50"/>
      </g>
     </g>
    </g>
    <g id="xtick_3">
     <g id="line2d_3">
      <g>
       <use style="stroke:#000000;stroke-width:0.8;" x="501.12" xlink:href="#m4ff6e36291" y="504"/>
      </g>
     </g>
     <g id="text_3">
      <!-- 94 -->
      <g transform="translate(485.85 529.23625)scale(0.24 -0.24)">
       <defs>
        <path d="M 37.796875 64.3125 
L 12.890625 25.390625 
L 37.796875 25.390625 
z
M 35.203125 72.90625 
L 47.609375 72.90625 
L 47.609375 25.390625 
L 58.015625 25.390625 
L 58.015625 17.1875 
L 47.609375 17.1875 
L 47.609375 0 
L 37.796875 0 
L 37.796875 17.1875 
L 4.890625 17.1875 
L 4.890625 26.703125 
z
" id="DejaVuSans-52"/>
       </defs>
       <use xlink:href="#DejaVuSans-57"/>
       <use x="63.623047" xlink:href="#DejaVuSans-52"/>
      </g>
     </g>
    </g>
    <g id="xtick_4">
     <g id="line2d_4">
      <g>
       <use style="stroke:#000000;stroke-width:0.8;" x="679.68" xlink:href="#m4ff6e36291" y="504"/>
      </g>
     </g>
     <g id="text_4">
      <!-- 96 -->
      <g transform="translate(664.41 529.23625)scale(0.24 -0.24)">
       <defs>
        <path d="M 33.015625 40.375 
Q 26.375 40.375 22.484375 35.828125 
Q 18.609375 31.296875 18.609375 23.390625 
Q 18.609375 15.53125 22.484375 10.953125 
Q 26.375 6.390625 33.015625 6.390625 
Q 39.65625 6.390625 43.53125 10.953125 
Q 47.40625 15.53125 47.40625 23.390625 
Q 47.40625 31.296875 43.53125 35.828125 
Q 39.65625 40.375 33.015625 40.375 
z
M 52.59375 71.296875 
L 52.59375 62.3125 
Q 48.875 64.0625 45.09375 64.984375 
Q 41.3125 65.921875 37.59375 65.921875 
Q 27.828125 65.921875 22.671875 59.328125 
Q 17.53125 52.734375 16.796875 39.40625 
Q 19.671875 43.65625 24.015625 45.921875 
Q 28.375 48.1875 33.59375 48.1875 
Q 44.578125 48.1875 50.953125 41.515625 
Q 57.328125 34.859375 57.328125 23.390625 
Q 57.328125 12.15625 50.6875 5.359375 
Q 44.046875 -1.421875 33.015625 -1.421875 
Q 20.359375 -1.421875 13.671875 8.265625 
Q 6.984375 17.96875 6.984375 36.375 
Q 6.984375 53.65625 15.1875 63.9375 
Q 23.390625 74.21875 37.203125 74.21875 
Q 40.921875 74.21875 44.703125 73.484375 
Q 48.484375 72.75 52.59375 71.296875 
z
" id="DejaVuSans-54"/>
       </defs>
       <use xlink:href="#DejaVuSans-57"/>
       <use x="63.623047" xlink:href="#DejaVuSans-54"/>
      </g>
     </g>
    </g>
    <g id="xtick_5">
     <g id="line2d_5">
      <g>
       <use style="stroke:#000000;stroke-width:0.8;" x="858.24" xlink:href="#m4ff6e36291" y="504"/>
      </g>
     </g>
     <g id="text_5">
      <!-- 98 -->
      <g transform="translate(842.97 529.23625)scale(0.24 -0.24)">
       <defs>
        <path d="M 31.78125 34.625 
Q 24.75 34.625 20.71875 30.859375 
Q 16.703125 27.09375 16.703125 20.515625 
Q 16.703125 13.921875 20.71875 10.15625 
Q 24.75 6.390625 31.78125 6.390625 
Q 38.8125 6.390625 42.859375 10.171875 
Q 46.921875 13.96875 46.921875 20.515625 
Q 46.921875 27.09375 42.890625 30.859375 
Q 38.875 34.625 31.78125 34.625 
z
M 21.921875 38.8125 
Q 15.578125 40.375 12.03125 44.71875 
Q 8.5 49.078125 8.5 55.328125 
Q 8.5 64.0625 14.71875 69.140625 
Q 20.953125 74.21875 31.78125 74.21875 
Q 42.671875 74.21875 48.875 69.140625 
Q 55.078125 64.0625 55.078125 55.328125 
Q 55.078125 49.078125 51.53125 44.71875 
Q 48 40.375 41.703125 38.8125 
Q 48.828125 37.15625 52.796875 32.3125 
Q 56.78125 27.484375 56.78125 20.515625 
Q 56.78125 9.90625 50.3125 4.234375 
Q 43.84375 -1.421875 31.78125 -1.421875 
Q 19.734375 -1.421875 13.25 4.234375 
Q 6.78125 9.90625 6.78125 20.515625 
Q 6.78125 27.484375 10.78125 32.3125 
Q 14.796875 37.15625 21.921875 38.8125 
z
M 18.3125 54.390625 
Q 18.3125 48.734375 21.84375 45.5625 
Q 25.390625 42.390625 31.78125 42.390625 
Q 38.140625 42.390625 41.71875 45.5625 
Q 45.3125 48.734375 45.3125 54.390625 
Q 45.3125 60.0625 41.71875 63.234375 
Q 38.140625 66.40625 31.78125 66.40625 
Q 25.390625 66.40625 21.84375 63.234375 
Q 18.3125 60.0625 18.3125 54.390625 
z
" id="DejaVuSans-56"/>
       </defs>
       <use xlink:href="#DejaVuSans-57"/>
       <use x="63.623047" xlink:href="#DejaVuSans-56"/>
      </g>
     </g>
    </g>
    <g id="xtick_6">
     <g id="line2d_6">
      <g>
       <use style="stroke:#000000;stroke-width:0.8;" x="1036.8" xlink:href="#m4ff6e36291" y="504"/>
      </g>
     </g>
     <g id="text_6">
      <!-- 100 -->
      <g transform="translate(1013.895 529.23625)scale(0.24 -0.24)">
       <defs>
        <path d="M 12.40625 8.296875 
L 28.515625 8.296875 
L 28.515625 63.921875 
L 10.984375 60.40625 
L 10.984375 69.390625 
L 28.421875 72.90625 
L 38.28125 72.90625 
L 38.28125 8.296875 
L 54.390625 8.296875 
L 54.390625 0 
L 12.40625 0 
z
" id="DejaVuSans-49"/>
       </defs>
       <use xlink:href="#DejaVuSans-49"/>
       <use x="63.623047" xlink:href="#DejaVuSans-48"/>
       <use x="127.246094" xlink:href="#DejaVuSans-48"/>
      </g>
     </g>
    </g>
    <g id="text_7">
     <!-- Accuracy /% -->
     <g transform="translate(504.013437 559.503125)scale(0.28 -0.28)">
      <defs>
       <path d="M 34.1875 63.1875 
L 20.796875 26.90625 
L 47.609375 26.90625 
z
M 28.609375 72.90625 
L 39.796875 72.90625 
L 67.578125 0 
L 57.328125 0 
L 50.6875 18.703125 
L 17.828125 18.703125 
L 11.1875 0 
L 0.78125 0 
z
" id="DejaVuSans-65"/>
       <path d="M 48.78125 52.59375 
L 48.78125 44.1875 
Q 44.96875 46.296875 41.140625 47.34375 
Q 37.3125 48.390625 33.40625 48.390625 
Q 24.65625 48.390625 19.8125 42.84375 
Q 14.984375 37.3125 14.984375 27.296875 
Q 14.984375 17.28125 19.8125 11.734375 
Q 24.65625 6.203125 33.40625 6.203125 
Q 37.3125 6.203125 41.140625 7.25 
Q 44.96875 8.296875 48.78125 10.40625 
L 48.78125 2.09375 
Q 45.015625 0.34375 40.984375 -0.53125 
Q 36.96875 -1.421875 32.421875 -1.421875 
Q 20.0625 -1.421875 12.78125 6.34375 
Q 5.515625 14.109375 5.515625 27.296875 
Q 5.515625 40.671875 12.859375 48.328125 
Q 20.21875 56 33.015625 56 
Q 37.15625 56 41.109375 55.140625 
Q 45.0625 54.296875 48.78125 52.59375 
z
" id="DejaVuSans-99"/>
       <path d="M 8.5 21.578125 
L 8.5 54.6875 
L 17.484375 54.6875 
L 17.484375 21.921875 
Q 17.484375 14.15625 20.5 10.265625 
Q 23.53125 6.390625 29.59375 6.390625 
Q 36.859375 6.390625 41.078125 11.03125 
Q 45.3125 15.671875 45.3125 23.6875 
L 45.3125 54.6875 
L 54.296875 54.6875 
L 54.296875 0 
L 45.3125 0 
L 45.3125 8.40625 
Q 42.046875 3.421875 37.71875 1 
Q 33.40625 -1.421875 27.6875 -1.421875 
Q 18.265625 -1.421875 13.375 4.4375 
Q 8.5 10.296875 8.5 21.578125 
z
M 31.109375 56 
z
" id="DejaVuSans-117"/>
       <path d="M 41.109375 46.296875 
Q 39.59375 47.171875 37.8125 47.578125 
Q 36.03125 48 33.890625 48 
Q 26.265625 48 22.1875 43.046875 
Q 18.109375 38.09375 18.109375 28.8125 
L 18.109375 0 
L 9.078125 0 
L 9.078125 54.6875 
L 18.109375 54.6875 
L 18.109375 46.1875 
Q 20.953125 51.171875 25.484375 53.578125 
Q 30.03125 56 36.53125 56 
Q 37.453125 56 38.578125 55.875 
Q 39.703125 55.765625 41.0625 55.515625 
z
" id="DejaVuSans-114"/>
       <path d="M 34.28125 27.484375 
Q 23.390625 27.484375 19.1875 25 
Q 14.984375 22.515625 14.984375 16.5 
Q 14.984375 11.71875 18.140625 8.90625 
Q 21.296875 6.109375 26.703125 6.109375 
Q 34.1875 6.109375 38.703125 11.40625 
Q 43.21875 16.703125 43.21875 25.484375 
L 43.21875 27.484375 
z
M 52.203125 31.203125 
L 52.203125 0 
L 43.21875 0 
L 43.21875 8.296875 
Q 40.140625 3.328125 35.546875 0.953125 
Q 30.953125 -1.421875 24.3125 -1.421875 
Q 15.921875 -1.421875 10.953125 3.296875 
Q 6 8.015625 6 15.921875 
Q 6 25.140625 12.171875 29.828125 
Q 18.359375 34.515625 30.609375 34.515625 
L 43.21875 34.515625 
L 43.21875 35.40625 
Q 43.21875 41.609375 39.140625 45 
Q 35.0625 48.390625 27.6875 48.390625 
Q 23 48.390625 18.546875 47.265625 
Q 14.109375 46.140625 10.015625 43.890625 
L 10.015625 52.203125 
Q 14.9375 54.109375 19.578125 55.046875 
Q 24.21875 56 28.609375 56 
Q 40.484375 56 46.34375 49.84375 
Q 52.203125 43.703125 52.203125 31.203125 
z
" id="DejaVuSans-97"/>
       <path d="M 32.171875 -5.078125 
Q 28.375 -14.84375 24.75 -17.8125 
Q 21.140625 -20.796875 15.09375 -20.796875 
L 7.90625 -20.796875 
L 7.90625 -13.28125 
L 13.1875 -13.28125 
Q 16.890625 -13.28125 18.9375 -11.515625 
Q 21 -9.765625 23.484375 -3.21875 
L 25.09375 0.875 
L 2.984375 54.6875 
L 12.5 54.6875 
L 29.59375 11.921875 
L 46.6875 54.6875 
L 56.203125 54.6875 
z
" id="DejaVuSans-121"/>
       <path id="DejaVuSans-32"/>
       <path d="M 25.390625 72.90625 
L 33.6875 72.90625 
L 8.296875 -9.28125 
L 0 -9.28125 
z
" id="DejaVuSans-47"/>
       <path d="M 72.703125 32.078125 
Q 68.453125 32.078125 66.03125 28.46875 
Q 63.625 24.859375 63.625 18.40625 
Q 63.625 12.0625 66.03125 8.421875 
Q 68.453125 4.78125 72.703125 4.78125 
Q 76.859375 4.78125 79.265625 8.421875 
Q 81.6875 12.0625 81.6875 18.40625 
Q 81.6875 24.8125 79.265625 28.4375 
Q 76.859375 32.078125 72.703125 32.078125 
z
M 72.703125 38.28125 
Q 80.421875 38.28125 84.953125 32.90625 
Q 89.5 27.546875 89.5 18.40625 
Q 89.5 9.28125 84.9375 3.921875 
Q 80.375 -1.421875 72.703125 -1.421875 
Q 64.890625 -1.421875 60.34375 3.921875 
Q 55.8125 9.28125 55.8125 18.40625 
Q 55.8125 27.59375 60.375 32.9375 
Q 64.9375 38.28125 72.703125 38.28125 
z
M 22.3125 68.015625 
Q 18.109375 68.015625 15.6875 64.375 
Q 13.28125 60.75 13.28125 54.390625 
Q 13.28125 47.953125 15.671875 44.328125 
Q 18.0625 40.71875 22.3125 40.71875 
Q 26.5625 40.71875 28.96875 44.328125 
Q 31.390625 47.953125 31.390625 54.390625 
Q 31.390625 60.6875 28.953125 64.34375 
Q 26.515625 68.015625 22.3125 68.015625 
z
M 66.40625 74.21875 
L 74.21875 74.21875 
L 28.609375 -1.421875 
L 20.796875 -1.421875 
z
M 22.3125 74.21875 
Q 30.03125 74.21875 34.609375 68.875 
Q 39.203125 63.53125 39.203125 54.390625 
Q 39.203125 45.171875 34.640625 39.84375 
Q 30.078125 34.515625 22.3125 34.515625 
Q 14.546875 34.515625 10.03125 39.859375 
Q 5.515625 45.21875 5.515625 54.390625 
Q 5.515625 63.484375 10.046875 68.84375 
Q 14.59375 74.21875 22.3125 74.21875 
z
" id="DejaVuSans-37"/>
      </defs>
      <use xlink:href="#DejaVuSans-65"/>
      <use x="66.658203" xlink:href="#DejaVuSans-99"/>
      <use x="121.638672" xlink:href="#DejaVuSans-99"/>
      <use x="176.619141" xlink:href="#DejaVuSans-117"/>
      <use x="239.998047" xlink:href="#DejaVuSans-114"/>
      <use x="281.111328" xlink:href="#DejaVuSans-97"/>
      <use x="342.390625" xlink:href="#DejaVuSans-99"/>
      <use x="397.371094" xlink:href="#DejaVuSans-121"/>
      <use x="456.550781" xlink:href="#DejaVuSans-32"/>
      <use x="488.337891" xlink:href="#DejaVuSans-47"/>
      <use x="522.029297" xlink:href="#DejaVuSans-37"/>
     </g>
    </g>
   </g>
   <g id="matplotlib.axis_2">
    <g id="ytick_1">
     <g id="line2d_7">
      <defs>
       <path d="M 0 0 
L -3.5 0 
" id="m2b479be958" style="stroke:#000000;stroke-width:0.8;"/>
      </defs>
      <g>
       <use style="stroke:#000000;stroke-width:0.8;" x="144" xlink:href="#m2b479be958" y="504"/>
      </g>
     </g>
     <g id="text_8">
      <!-- $\mathdefault{10^{4}}$ -->
      <g transform="translate(94.76 513.118125)scale(0.24 -0.24)">
       <use transform="translate(0 0.684375)" xlink:href="#DejaVuSans-49"/>
       <use transform="translate(63.623047 0.684375)" xlink:href="#DejaVuSans-48"/>
       <use transform="translate(128.203125 38.965625)scale(0.7)" xlink:href="#DejaVuSans-52"/>
      </g>
     </g>
    </g>
    <g id="ytick_2">
     <g id="line2d_8">
      <g>
       <use style="stroke:#000000;stroke-width:0.8;" x="144" xlink:href="#m2b479be958" y="209.589505"/>
      </g>
     </g>
     <g id="text_9">
      <!-- $\mathdefault{10^{5}}$ -->
      <g transform="translate(94.76 218.70763)scale(0.24 -0.24)">
       <defs>
        <path d="M 10.796875 72.90625 
L 49.515625 72.90625 
L 49.515625 64.59375 
L 19.828125 64.59375 
L 19.828125 46.734375 
Q 21.96875 47.46875 24.109375 47.828125 
Q 26.265625 48.1875 28.421875 48.1875 
Q 40.625 48.1875 47.75 41.5 
Q 54.890625 34.8125 54.890625 23.390625 
Q 54.890625 11.625 47.5625 5.09375 
Q 40.234375 -1.421875 26.90625 -1.421875 
Q 22.3125 -1.421875 17.546875 -0.640625 
Q 12.796875 0.140625 7.71875 1.703125 
L 7.71875 11.625 
Q 12.109375 9.234375 16.796875 8.0625 
Q 21.484375 6.890625 26.703125 6.890625 
Q 35.15625 6.890625 40.078125 11.328125 
Q 45.015625 15.765625 45.015625 23.390625 
Q 45.015625 31 40.078125 35.4375 
Q 35.15625 39.890625 26.703125 39.890625 
Q 22.75 39.890625 18.8125 39.015625 
Q 14.890625 38.140625 10.796875 36.28125 
z
" id="DejaVuSans-53"/>
       </defs>
       <use transform="translate(0 0.684375)" xlink:href="#DejaVuSans-49"/>
       <use transform="translate(63.623047 0.684375)" xlink:href="#DejaVuSans-48"/>
       <use transform="translate(128.203125 38.965625)scale(0.7)" xlink:href="#DejaVuSans-53"/>
      </g>
     </g>
    </g>
    <g id="ytick_3">
     <g id="line2d_9">
      <defs>
       <path d="M 0 0 
L -2 0 
" id="m42608e0f88" style="stroke:#000000;stroke-width:0.6;"/>
      </defs>
      <g>
       <use style="stroke:#000000;stroke-width:0.6;" x="144" xlink:href="#m42608e0f88" y="415.37361"/>
      </g>
     </g>
    </g>
    <g id="ytick_4">
     <g id="line2d_10">
      <g>
       <use style="stroke:#000000;stroke-width:0.6;" x="144" xlink:href="#m42608e0f88" y="363.530495"/>
      </g>
     </g>
    </g>
    <g id="ytick_5">
     <g id="line2d_11">
      <g>
       <use style="stroke:#000000;stroke-width:0.6;" x="144" xlink:href="#m42608e0f88" y="326.74722"/>
      </g>
     </g>
    </g>
    <g id="ytick_6">
     <g id="line2d_12">
      <g>
       <use style="stroke:#000000;stroke-width:0.6;" x="144" xlink:href="#m42608e0f88" y="298.215895"/>
      </g>
     </g>
    </g>
    <g id="ytick_7">
     <g id="line2d_13">
      <g>
       <use style="stroke:#000000;stroke-width:0.6;" x="144" xlink:href="#m42608e0f88" y="274.904105"/>
      </g>
     </g>
    </g>
    <g id="ytick_8">
     <g id="line2d_14">
      <g>
       <use style="stroke:#000000;stroke-width:0.6;" x="144" xlink:href="#m42608e0f88" y="255.194268"/>
      </g>
     </g>
    </g>
    <g id="ytick_9">
     <g id="line2d_15">
      <g>
       <use style="stroke:#000000;stroke-width:0.6;" x="144" xlink:href="#m42608e0f88" y="238.12083"/>
      </g>
     </g>
    </g>
    <g id="ytick_10">
     <g id="line2d_16">
      <g>
       <use style="stroke:#000000;stroke-width:0.6;" x="144" xlink:href="#m42608e0f88" y="223.06099"/>
      </g>
     </g>
    </g>
    <g id="ytick_11">
     <g id="line2d_17">
      <g>
       <use style="stroke:#000000;stroke-width:0.6;" x="144" xlink:href="#m42608e0f88" y="120.963115"/>
      </g>
     </g>
    </g>
    <g id="ytick_12">
     <g id="line2d_18">
      <g>
       <use style="stroke:#000000;stroke-width:0.6;" x="144" xlink:href="#m42608e0f88" y="69.12"/>
      </g>
     </g>
    </g>
    <g id="text_10">
     <!-- Energy /A.U. -->
     <g transform="translate(84.936875 373.22)rotate(-90)scale(0.28 -0.28)">
      <defs>
       <path d="M 9.8125 72.90625 
L 55.90625 72.90625 
L 55.90625 64.59375 
L 19.671875 64.59375 
L 19.671875 43.015625 
L 54.390625 43.015625 
L 54.390625 34.71875 
L 19.671875 34.71875 
L 19.671875 8.296875 
L 56.78125 8.296875 
L 56.78125 0 
L 9.8125 0 
z
" id="DejaVuSans-69"/>
       <path d="M 54.890625 33.015625 
L 54.890625 0 
L 45.90625 0 
L 45.90625 32.71875 
Q 45.90625 40.484375 42.875 44.328125 
Q 39.84375 48.1875 33.796875 48.1875 
Q 26.515625 48.1875 22.3125 43.546875 
Q 18.109375 38.921875 18.109375 30.90625 
L 18.109375 0 
L 9.078125 0 
L 9.078125 54.6875 
L 18.109375 54.6875 
L 18.109375 46.1875 
Q 21.34375 51.125 25.703125 53.5625 
Q 30.078125 56 35.796875 56 
Q 45.21875 56 50.046875 50.171875 
Q 54.890625 44.34375 54.890625 33.015625 
z
" id="DejaVuSans-110"/>
       <path d="M 56.203125 29.59375 
L 56.203125 25.203125 
L 14.890625 25.203125 
Q 15.484375 15.921875 20.484375 11.0625 
Q 25.484375 6.203125 34.421875 6.203125 
Q 39.59375 6.203125 44.453125 7.46875 
Q 49.3125 8.734375 54.109375 11.28125 
L 54.109375 2.78125 
Q 49.265625 0.734375 44.1875 -0.34375 
Q 39.109375 -1.421875 33.890625 -1.421875 
Q 20.796875 -1.421875 13.15625 6.1875 
Q 5.515625 13.8125 5.515625 26.8125 
Q 5.515625 40.234375 12.765625 48.109375 
Q 20.015625 56 32.328125 56 
Q 43.359375 56 49.78125 48.890625 
Q 56.203125 41.796875 56.203125 29.59375 
z
M 47.21875 32.234375 
Q 47.125 39.59375 43.09375 43.984375 
Q 39.0625 48.390625 32.421875 48.390625 
Q 24.90625 48.390625 20.390625 44.140625 
Q 15.875 39.890625 15.1875 32.171875 
z
" id="DejaVuSans-101"/>
       <path d="M 45.40625 27.984375 
Q 45.40625 37.75 41.375 43.109375 
Q 37.359375 48.484375 30.078125 48.484375 
Q 22.859375 48.484375 18.828125 43.109375 
Q 14.796875 37.75 14.796875 27.984375 
Q 14.796875 18.265625 18.828125 12.890625 
Q 22.859375 7.515625 30.078125 7.515625 
Q 37.359375 7.515625 41.375 12.890625 
Q 45.40625 18.265625 45.40625 27.984375 
z
M 54.390625 6.78125 
Q 54.390625 -7.171875 48.1875 -13.984375 
Q 42 -20.796875 29.203125 -20.796875 
Q 24.46875 -20.796875 20.265625 -20.09375 
Q 16.0625 -19.390625 12.109375 -17.921875 
L 12.109375 -9.1875 
Q 16.0625 -11.328125 19.921875 -12.34375 
Q 23.78125 -13.375 27.78125 -13.375 
Q 36.625 -13.375 41.015625 -8.765625 
Q 45.40625 -4.15625 45.40625 5.171875 
L 45.40625 9.625 
Q 42.625 4.78125 38.28125 2.390625 
Q 33.9375 0 27.875 0 
Q 17.828125 0 11.671875 7.65625 
Q 5.515625 15.328125 5.515625 27.984375 
Q 5.515625 40.671875 11.671875 48.328125 
Q 17.828125 56 27.875 56 
Q 33.9375 56 38.28125 53.609375 
Q 42.625 51.21875 45.40625 46.390625 
L 45.40625 54.6875 
L 54.390625 54.6875 
z
" id="DejaVuSans-103"/>
       <path d="M 10.6875 12.40625 
L 21 12.40625 
L 21 0 
L 10.6875 0 
z
" id="DejaVuSans-46"/>
       <path d="M 8.6875 72.90625 
L 18.609375 72.90625 
L 18.609375 28.609375 
Q 18.609375 16.890625 22.84375 11.734375 
Q 27.09375 6.59375 36.625 6.59375 
Q 46.09375 6.59375 50.34375 11.734375 
Q 54.59375 16.890625 54.59375 28.609375 
L 54.59375 72.90625 
L 64.5 72.90625 
L 64.5 27.390625 
Q 64.5 13.140625 57.4375 5.859375 
Q 50.390625 -1.421875 36.625 -1.421875 
Q 22.796875 -1.421875 15.734375 5.859375 
Q 8.6875 13.140625 8.6875 27.390625 
z
" id="DejaVuSans-85"/>
      </defs>
      <use xlink:href="#DejaVuSans-69"/>
      <use x="63.183594" xlink:href="#DejaVuSans-110"/>
      <use x="126.5625" xlink:href="#DejaVuSans-101"/>
      <use x="188.085938" xlink:href="#DejaVuSans-114"/>
      <use x="227.449219" xlink:href="#DejaVuSans-103"/>
      <use x="290.925781" xlink:href="#DejaVuSans-121"/>
      <use x="350.105469" xlink:href="#DejaVuSans-32"/>
      <use x="381.892578" xlink:href="#DejaVuSans-47"/>
      <use x="415.583984" xlink:href="#DejaVuSans-65"/>
      <use x="482.242188" xlink:href="#DejaVuSans-46"/>
      <use x="514.029297" xlink:href="#DejaVuSans-85"/>
      <use x="587.222656" xlink:href="#DejaVuSans-46"/>
     </g>
    </g>
   </g>
   <g id="line2d_19">
    <path clip-path="url(#p20140bc3ee)" d="M 736.8192 281.071349 
L 902.88 281.071349 
" style="fill:none;stroke:#ffc36e;stroke-dasharray:5,8.25;stroke-dashoffset:0;stroke-width:5;"/>
   </g>
   <g id="line2d_20">
    <path clip-path="url(#p20140bc3ee)" d="M 146.364089 577 
L 155.6064 569.46833 
L 231.4944 560.42759 
L 193.9968 553.390449 
L 233.28 546.449073 
L 287.7408 540.047152 
L 263.6352 533.585927 
L 293.0976 528.102317 
L 302.0256 522.414997 
L 301.1328 517.500352 
L 310.9536 512.861923 
L 263.6352 507.817547 
L 374.3424 502.972202 
L 360.0576 498.967705 
L 346.6656 494.967894 
L 348.4512 490.921346 
L 387.7344 487.150297 
L 369.8784 483.708599 
L 390.4128 480.261491 
L 418.0896 476.945987 
L 425.232 473.932433 
L 421.6608 471.092431 
L 421.6608 468.203574 
L 430.5888 465.276306 
L 426.1248 462.437047 
L 402.0192 459.938693 
L 430.5888 457.374477 
L 410.9472 454.938756 
L 414.5184 452.539795 
L 441.3024 450.343042 
L 435.0528 448.036991 
L 460.944 445.624635 
L 421.6608 443.333082 
L 436.8384 441.110921 
L 467.1936 439.112513 
L 454.6944 437.028861 
L 458.2656 435.051163 
L 503.7984 433.13358 
L 493.0848 431.365181 
L 510.048 429.425809 
L 488.6208 427.881282 
L 484.1568 426.19906 
L 511.8336 424.549733 
L 529.6896 422.827421 
L 532.368 421.331776 
L 541.296 419.704675 
L 526.1184 418.138165 
L 529.6896 415.253041 
L 535.9392 413.549655 
L 542.1888 412.103403 
L 567.1872 410.689847 
L 568.9728 409.338631 
L 518.976 407.928316 
L 557.3664 406.568181 
L 555.5808 405.319303 
L 567.1872 404.108563 
L 537.7248 402.958416 
L 568.9728 400.4575 
L 576.1152 399.24057 
L 580.5792 398.13528 
L 552.9024 396.963656 
L 579.6864 395.804146 
L 561.8304 394.717028 
L 587.7216 393.615708 
L 589.5072 392.546801 
L 585.0432 391.453592 
L 594.864 390.374026 
L 607.3632 389.388585 
L 589.5072 388.30843 
L 607.3632 387.373229 
L 568.9728 386.392208 
L 613.6128 385.484858 
L 602.0064 384.499354 
L 601.1136 383.515066 
L 579.6864 382.567678 
L 611.8272 381.616325 
L 581.472 380.766569 
L 601.1136 379.911348 
L 613.6128 378.960331 
L 605.5776 377.995856 
L 595.7568 377.123571 
L 622.5408 376.233239 
L 570.7584 375.407379 
L 629.6832 374.585976 
L 649.3248 373.725228 
L 603.792 372.914365 
L 643.968 372.171612 
L 615.3984 371.408936 
L 614.5056 370.679644 
L 629.6832 369.893455 
L 620.7552 369.165039 
L 589.5072 368.463846 
L 627.8976 367.630878 
L 638.6112 366.942244 
L 635.04 366.244203 
L 648.432 365.555535 
L 643.968 364.850468 
L 637.7184 364.056017 
L 623.4336 363.490287 
L 642.1824 362.825626 
L 637.7184 362.149226 
L 654.6816 361.492483 
L 630.576 360.758145 
L 643.968 360.018707 
L 644.8608 359.302344 
L 651.1104 358.623266 
L 669.8592 357.970355 
L 661.824 357.398263 
L 645.7536 356.691782 
L 669.8592 356.067367 
L 660.9312 354.89119 
L 643.968 354.252875 
L 662.7168 353.693687 
L 671.6448 353.121791 
L 666.288 352.502379 
L 659.1456 351.922933 
L 687.7152 351.307232 
L 681.4656 350.746998 
L 676.1088 350.108248 
L 660.9312 349.597363 
L 649.3248 348.937326 
L 677.0016 348.444115 
L 647.5392 347.870408 
L 681.4656 347.363856 
L 674.3232 346.884123 
L 679.68 345.785112 
L 635.04 345.28685 
L 677.8944 344.676598 
L 642.1824 344.178064 
L 680.5728 343.634128 
L 657.36 343.032663 
L 652.0032 342.499441 
L 679.68 342.020878 
L 663.6096 341.541666 
L 702 341.064453 
L 678.7872 340.493916 
L 698.4288 339.990155 
L 692.1792 339.545443 
L 700.2144 339.07212 
L 660.0384 338.621916 
L 698.4288 338.100887 
L 696.6432 337.629967 
L 680.5728 337.218061 
L 680.5728 336.700744 
L 670.752 336.240866 
L 674.3232 335.805157 
L 685.9296 335.33086 
L 677.0016 334.907672 
L 677.8944 334.473028 
L 709.1424 333.562111 
L 682.3584 333.081668 
L 699.3216 332.553073 
L 695.7504 332.122801 
L 683.2512 331.685302 
L 702 331.260297 
L 678.7872 330.846868 
L 701.1072 330.460879 
L 692.1792 330.100131 
L 690.3936 329.708173 
L 711.8208 329.320219 
L 697.536 328.940238 
L 717.1776 328.568012 
L 682.3584 327.658029 
L 713.6064 327.237321 
L 710.928 326.798956 
L 710.928 326.409324 
L 722.5344 325.996427 
L 702.8928 325.594165 
L 721.6416 325.22343 
L 702 324.906479 
L 705.5712 324.579965 
L 698.4288 324.155068 
L 706.464 323.779494 
L 701.1072 323.377037 
L 691.2864 322.894095 
L 702 322.481263 
L 700.2144 322.052936 
L 710.928 321.666517 
L 692.1792 321.303259 
L 720.7488 320.971142 
L 678.7872 320.300824 
L 702 319.919136 
L 708.2496 319.53736 
L 678.7872 318.434818 
L 710.0352 318.068048 
L 719.856 317.745994 
L 717.1776 317.410043 
L 716.2848 317.080956 
L 728.784 316.776234 
L 696.6432 316.429521 
L 730.5696 315.76716 
L 724.32 315.473305 
L 707.3568 315.08941 
L 697.536 314.754494 
L 724.32 314.414718 
L 719.856 314.112191 
L 726.1056 313.786917 
L 715.392 313.443257 
L 738.6048 313.148142 
L 726.9984 312.835239 
L 686.8224 312.551529 
L 715.392 312.254843 
L 702.8928 311.954343 
L 704.6784 311.644873 
L 714.4992 311.367364 
L 710.0352 311.045382 
L 735.9264 310.705083 
L 730.5696 310.366829 
L 732.3552 310.05436 
L 721.6416 309.749751 
L 732.3552 309.445895 
L 735.9264 309.103067 
L 736.8192 308.848406 
L 736.8192 308.582092 
L 721.6416 308.025262 
L 722.5344 307.709353 
L 726.9984 307.424074 
L 713.6064 307.12441 
L 735.9264 306.852827 
L 715.392 306.547801 
L 739.4976 306.272326 
L 743.0688 306.00546 
L 712.7136 305.462629 
L 728.784 305.214207 
L 734.1408 304.702677 
L 726.9984 304.426729 
L 726.1056 304.157005 
L 727.8912 303.855705 
L 731.4624 303.560463 
L 737.712 303.302584 
L 716.2848 303.015719 
L 729.6768 302.783769 
L 717.1776 302.522755 
L 718.0704 302.270999 
L 739.4976 301.769064 
L 713.6064 301.502046 
L 725.2128 301.234563 
L 745.7472 300.959297 
L 735.0336 300.685782 
L 736.8192 300.428432 
L 741.2832 300.212161 
L 737.712 299.952715 
L 729.6768 299.728583 
L 744.8544 299.516888 
L 744.8544 299.337059 
L 748.4256 299.100173 
L 719.856 298.820574 
L 740.3904 298.293264 
L 733.248 298.026223 
L 751.104 297.765665 
L 734.1408 297.526159 
L 747.5328 297.343139 
L 715.392 297.056209 
L 742.176 296.862422 
L 743.0688 296.621013 
L 746.64 296.354591 
L 731.4624 296.134856 
L 745.7472 295.919306 
L 726.9984 295.69757 
L 753.7824 295.490166 
L 731.4624 295.016402 
L 743.9616 294.78414 
L 748.4256 294.509598 
L 733.248 294.307772 
L 726.9984 294.077632 
L 744.8544 293.663644 
L 733.248 293.442515 
L 738.6048 293.236509 
L 750.2112 293.003929 
L 744.8544 292.829362 
L 742.176 292.581042 
L 716.2848 292.324371 
L 711.8208 292.128378 
L 726.1056 291.920326 
L 748.4256 291.730508 
L 731.4624 291.543358 
L 755.568 291.365662 
L 723.4272 290.910913 
L 744.8544 290.68194 
L 744.8544 290.440836 
L 747.5328 290.272296 
L 738.6048 290.066223 
L 743.9616 289.878409 
L 726.9984 289.671484 
L 747.5328 289.458099 
L 738.6048 289.253912 
L 767.1744 289.050396 
L 762.7104 288.878685 
L 737.712 288.707286 
L 741.2832 288.546551 
L 754.6752 288.390473 
L 747.5328 288.184947 
L 751.9968 288.022883 
L 726.1056 287.64266 
L 752.8896 287.051519 
L 751.9968 286.914457 
L 763.6032 286.760807 
L 741.2832 286.597965 
L 744.8544 286.410692 
L 741.2832 286.225534 
L 750.2112 286.046946 
L 732.3552 285.868351 
L 734.1408 285.676067 
L 733.248 285.527986 
L 744.8544 285.33483 
L 718.9632 285.135256 
L 743.0688 284.929449 
L 744.8544 284.775802 
L 734.1408 284.54653 
L 750.2112 284.377231 
L 741.2832 284.199675 
L 765.3888 283.867655 
L 724.32 283.689596 
L 753.7824 283.352547 
L 739.4976 283.188141 
L 755.568 283.005476 
L 744.8544 282.828577 
L 756.4608 282.570053 
L 748.4256 282.405832 
L 724.32 282.254018 
L 761.8176 282.08957 
L 757.3536 281.925577 
L 762.7104 281.725433 
L 755.568 281.57545 
L 726.9984 281.285074 
L 736.8192 281.071349 
L 736.8192 281.071349 
" style="fill:none;stroke:#ff9500;stroke-linecap:square;stroke-width:5;"/>
   </g>
   <g id="line2d_21">
    <path clip-path="url(#p20140bc3ee)" d="M 769.8528 232.133185 
L 902.88 232.133185 
" style="fill:none;stroke:#ff7a6e;stroke-dasharray:5,8.25;stroke-dashoffset:0;stroke-width:5;"/>
   </g>
   <g id="line2d_22">
    <path clip-path="url(#p20140bc3ee)" d="M 88.328169 577 
L 94.896 563.134408 
L 208.2816 547.909187 
L 216.3168 534.662884 
L 231.4944 523.672761 
L 230.6016 513.938988 
L 260.9568 504.522333 
L 296.6688 496.096067 
L 263.6352 489.174943 
L 296.6688 482.388428 
L 343.0944 475.928928 
L 342.2016 469.687189 
L 353.808 464.324406 
L 393.984 458.849065 
L 387.7344 454.083479 
L 389.52 449.761182 
L 359.1648 444.933103 
L 420.768 440.396383 
L 431.4816 436.450776 
L 420.768 432.554585 
L 406.4832 428.544543 
L 443.9808 424.936123 
L 454.6944 421.647162 
L 483.264 418.432578 
L 490.4064 415.337113 
L 493.9776 412.397307 
L 511.8336 409.413385 
L 485.0496 406.708518 
L 484.1568 403.887497 
L 499.3344 401.166322 
L 494.8704 398.620191 
L 520.7616 396.105088 
L 509.1552 393.785757 
L 513.6192 391.561756 
L 522.5472 389.509447 
L 525.2256 387.370022 
L 551.1168 385.118788 
L 543.0816 382.922167 
L 543.9744 380.913087 
L 551.1168 379.041989 
L 543.9744 377.093755 
L 565.4016 375.248429 
L 581.472 373.452615 
L 565.4016 371.692398 
L 598.4352 369.882321 
L 603.792 368.338862 
L 577.9008 366.7479 
L 594.864 365.189926 
L 606.4704 363.588507 
L 578.7936 362.119898 
L 611.8272 360.565052 
L 571.6512 359.097097 
L 618.9696 357.665498 
L 614.5056 356.316046 
L 618.9696 354.761041 
L 616.2912 353.361376 
L 643.968 351.986755 
L 635.9328 350.680407 
L 635.04 349.334436 
L 647.5392 347.978095 
L 634.1472 346.757218 
L 652.896 345.626185 
L 632.3616 344.476226 
L 630.576 343.240704 
L 649.3248 342.129829 
L 661.824 341.000194 
L 660.9312 339.940443 
L 645.7536 338.835789 
L 644.8608 337.686787 
L 658.2528 336.569802 
L 654.6816 335.578972 
L 685.0368 334.557662 
L 685.9296 333.519638 
L 681.4656 332.523496 
L 685.0368 331.586735 
L 683.2512 330.56987 
L 700.2144 329.699197 
L 668.0736 328.75846 
L 689.5008 327.873485 
L 684.144 326.893508 
L 683.2512 325.958907 
L 669.8592 325.053774 
L 685.9296 324.173889 
L 687.7152 323.40745 
L 709.1424 322.602057 
L 683.2512 321.743207 
L 687.7152 320.837218 
L 685.0368 320.044727 
L 706.464 319.278791 
L 659.1456 318.470941 
L 708.2496 317.707362 
L 697.536 316.878102 
L 700.2144 316.089508 
L 718.9632 315.368889 
L 690.3936 314.573788 
L 689.5008 313.86037 
L 700.2144 313.121942 
L 702.8928 312.372623 
L 695.7504 310.930626 
L 718.0704 310.279008 
L 704.6784 309.614046 
L 722.5344 308.912752 
L 706.464 308.266061 
L 701.1072 307.555733 
L 713.6064 307.017553 
L 712.7136 306.362006 
L 715.392 305.711711 
L 718.9632 305.06769 
L 719.856 304.4024 
L 707.3568 303.704824 
L 718.9632 303.012342 
L 718.9632 302.360629 
L 727.8912 301.755106 
L 728.784 301.193374 
L 705.5712 300.558968 
L 735.9264 299.989576 
L 725.2128 299.436624 
L 718.0704 298.868708 
L 729.6768 298.240553 
L 718.9632 297.733712 
L 735.9264 297.185437 
L 718.9632 296.59676 
L 725.2128 296.029128 
L 737.712 295.440683 
L 726.9984 294.908071 
L 728.784 294.338628 
L 726.1056 293.832874 
L 715.392 293.273492 
L 715.392 292.832183 
L 725.2128 292.279104 
L 742.176 291.796054 
L 751.104 291.344308 
L 741.2832 290.816553 
L 754.6752 290.321131 
L 729.6768 289.842 
L 758.2464 289.303442 
L 754.6752 288.828684 
L 747.5328 288.333043 
L 744.8544 287.83634 
L 734.1408 287.33862 
L 752.8896 286.856298 
L 754.6752 286.389524 
L 754.6752 285.93977 
L 742.176 285.449293 
L 760.032 284.967549 
L 766.2816 284.534485 
L 733.248 283.639745 
L 750.2112 283.162113 
L 760.032 282.712858 
L 754.6752 282.314025 
L 754.6752 281.886612 
L 744.8544 281.446912 
L 743.0688 281.059773 
L 767.1744 280.649813 
L 744.8544 280.254157 
L 766.2816 279.842514 
L 762.7104 279.418083 
L 771.6384 279.004065 
L 762.7104 278.586449 
L 763.6032 278.161937 
L 761.8176 277.745224 
L 744.8544 277.34103 
L 771.6384 276.930592 
L 758.2464 276.51926 
L 771.6384 276.151594 
L 762.7104 275.781157 
L 756.4608 275.405231 
L 761.8176 275.062351 
L 760.9248 274.703163 
L 770.7456 274.371336 
L 769.8528 273.937442 
L 770.7456 273.52404 
L 753.7824 273.120786 
L 773.424 272.704503 
L 745.7472 272.367596 
L 784.1376 271.995803 
L 772.5312 271.295242 
L 775.2096 270.960553 
L 762.7104 270.627247 
L 762.7104 270.226867 
L 779.6736 269.913836 
L 776.1024 269.562827 
L 760.9248 269.140726 
L 772.5312 268.766614 
L 774.3168 268.403083 
L 768.0672 267.772807 
L 775.2096 267.464466 
L 777.888 267.165965 
L 746.64 266.845316 
L 767.1744 266.552131 
L 776.9952 266.210026 
L 771.6384 265.892513 
L 761.8176 265.520488 
L 763.6032 265.219376 
L 758.2464 264.903647 
L 778.7808 264.580569 
L 776.9952 264.26334 
L 779.6736 263.975361 
L 776.1024 263.693971 
L 781.4592 263.406765 
L 778.7808 263.063399 
L 767.1744 262.481795 
L 768.96 262.13649 
L 772.5312 261.82809 
L 783.2448 261.515663 
L 785.0304 261.241753 
L 783.2448 260.945605 
L 772.5312 260.632658 
L 781.4592 260.338727 
L 766.2816 260.04843 
L 770.7456 259.802068 
L 767.1744 259.518822 
L 767.1744 259.257212 
L 770.7456 258.990168 
L 763.6032 258.415088 
L 785.9232 258.122902 
L 784.1376 257.854716 
L 777.888 257.568778 
L 768.0672 257.29404 
L 785.0304 257.019002 
L 788.6016 256.718525 
L 761.8176 256.48257 
L 779.6736 256.248308 
L 765.3888 255.988904 
L 780.5664 255.444714 
L 770.7456 254.981867 
L 781.4592 254.736376 
L 764.496 254.491844 
L 783.2448 254.222496 
L 785.9232 253.982921 
L 775.2096 253.755808 
L 782.352 253.498477 
L 781.4592 253.263086 
L 775.2096 253.013249 
L 773.424 252.799281 
L 771.6384 252.32748 
L 779.6736 252.069825 
L 785.0304 251.582181 
L 775.2096 251.311553 
L 782.352 251.123449 
L 782.352 250.892932 
L 781.4592 250.675893 
L 773.424 250.437744 
L 785.9232 250.220469 
L 772.5312 249.741953 
L 782.352 249.519824 
L 770.7456 249.277885 
L 786.816 249.045616 
L 774.3168 248.624697 
L 789.4944 248.39796 
L 787.7088 248.207515 
L 796.6368 248.028678 
L 791.28 247.808586 
L 781.4592 247.568609 
L 778.7808 247.331216 
L 780.5664 247.145123 
L 773.424 246.912338 
L 785.0304 246.465627 
L 784.1376 246.281971 
L 776.1024 246.02388 
L 788.6016 245.646112 
L 771.6384 245.432741 
L 782.352 244.999081 
L 780.5664 244.635006 
L 776.1024 244.433331 
L 767.1744 244.214643 
L 785.9232 244.015192 
L 773.424 243.807548 
L 788.6016 243.632036 
L 770.7456 243.424738 
L 780.5664 243.233543 
L 780.5664 243.06304 
L 791.28 242.890637 
L 786.816 242.696829 
L 791.28 242.51327 
L 778.7808 242.324908 
L 790.3872 242.12297 
L 775.2096 241.729762 
L 776.9952 241.560345 
L 784.1376 241.39395 
L 776.1024 241.234533 
L 790.3872 241.062797 
L 785.0304 240.904346 
L 785.9232 240.69862 
L 784.1376 240.509023 
L 785.0304 240.311501 
L 795.744 240.158044 
L 790.3872 239.980633 
L 793.0656 239.802386 
L 787.7088 239.621985 
L 791.28 239.432112 
L 787.7088 239.266897 
L 800.208 238.934577 
L 793.9584 238.790006 
L 799.3152 238.62877 
L 797.5296 238.499407 
L 770.7456 238.323011 
L 784.1376 238.175532 
L 769.8528 237.993507 
L 779.6736 237.824342 
L 779.6736 237.641323 
L 789.4944 237.32165 
L 776.1024 237.181622 
L 781.4592 237.031317 
L 782.352 236.88431 
L 782.352 236.737027 
L 788.6016 236.574775 
L 783.2448 236.087773 
L 776.9952 235.965103 
L 785.9232 235.780346 
L 783.2448 235.455924 
L 797.5296 235.317456 
L 794.8512 235.136975 
L 799.3152 234.990595 
L 785.0304 234.851166 
L 793.0656 234.695954 
L 792.1728 234.568994 
L 787.7088 234.409048 
L 779.6736 234.258595 
L 781.4592 234.133996 
L 790.3872 233.991489 
L 781.4592 233.838283 
L 794.8512 233.68019 
L 788.6016 233.541472 
L 792.1728 233.429996 
L 784.1376 233.290219 
L 784.1376 233.155522 
L 798.4224 232.88976 
L 791.28 232.597672 
L 783.2448 232.450138 
L 784.1376 232.297559 
L 769.8528 232.133185 
L 769.8528 232.133185 
" style="fill:none;stroke:#ff1500;stroke-linecap:square;stroke-width:5;"/>
   </g>
   <g id="line2d_23">
    <path clip-path="url(#p20140bc3ee)" d="M 818.9568 182.474027 
L 902.88 182.474027 
" style="fill:none;stroke:#9deaff;stroke-dasharray:5,8.25;stroke-dashoffset:0;stroke-width:5;"/>
   </g>
   <g id="line2d_24">
    <path clip-path="url(#p20140bc3ee)" d="M 88.509095 577 
L 98.4672 574.395402 
L 124.3584 548.116442 
L 183.2832 527.934691 
L 218.9952 511.45522 
L 261.8496 497.328418 
L 279.7056 485.77005 
L 287.7408 475.294004 
L 329.7024 456.443494 
L 329.7024 449.024786 
L 347.5584 441.943723 
L 383.2704 435.321217 
L 375.2352 428.800971 
L 392.1984 423.066811 
L 410.0544 417.464192 
L 422.5536 412.47181 
L 410.0544 407.758012 
L 427.0176 402.769733 
L 465.408 398.072775 
L 475.2288 393.936818 
L 469.872 389.832965 
L 445.7664 385.742649 
L 494.8704 381.954778 
L 492.192 378.477282 
L 544.8672 372.007312 
L 554.688 369.010026 
L 550.224 365.911408 
L 552.0096 363.136426 
L 542.1888 360.295687 
L 562.7232 354.973176 
L 577.9008 352.461043 
L 564.5088 350.024415 
L 560.9376 347.717813 
L 582.3648 345.621255 
L 579.6864 343.438049 
L 600.2208 341.21035 
L 590.4 338.981879 
L 607.3632 336.908072 
L 618.9696 335.000625 
L 604.6848 333.090634 
L 626.112 331.191266 
L 643.968 329.339415 
L 641.2896 327.637801 
L 643.0752 325.810524 
L 656.4672 324.22212 
L 643.968 320.982695 
L 674.3232 319.394363 
L 655.5744 317.874012 
L 665.3952 316.310969 
L 640.3968 314.833844 
L 672.5376 313.40307 
L 661.824 312.008187 
L 690.3936 310.458853 
L 684.144 309.021812 
L 694.8576 307.65594 
L 673.4304 306.311472 
L 673.4304 304.95693 
L 696.6432 303.579988 
L 683.2512 302.357214 
L 696.6432 301.145901 
L 680.5728 299.985606 
L 680.5728 298.680633 
L 704.6784 297.555753 
L 711.8208 296.377913 
L 720.7488 295.307502 
L 692.1792 294.186478 
L 695.7504 293.049907 
L 705.5712 291.931851 
L 699.3216 290.881966 
L 726.1056 289.841296 
L 730.5696 288.779784 
L 731.4624 287.758873 
L 722.5344 285.825134 
L 730.5696 284.927626 
L 724.32 283.96581 
L 723.4272 283.038107 
L 732.3552 282.066291 
L 731.4624 281.098513 
L 718.9632 280.169689 
L 728.784 279.256902 
L 725.2128 278.465358 
L 742.176 277.676434 
L 718.0704 276.760483 
L 735.0336 275.820154 
L 748.4256 274.196219 
L 730.5696 273.386551 
L 748.4256 272.58097 
L 741.2832 271.7626 
L 735.9264 270.953969 
L 758.2464 270.214687 
L 744.8544 269.418803 
L 753.7824 268.673978 
L 751.9968 267.955381 
L 748.4256 267.180956 
L 740.3904 266.460729 
L 746.64 265.672994 
L 760.9248 264.311174 
L 771.6384 263.596435 
L 755.568 262.902641 
L 760.032 262.176797 
L 773.424 261.590331 
L 759.1392 260.935866 
L 776.9952 260.277957 
L 772.5312 259.627818 
L 772.5312 258.958119 
L 750.2112 258.261656 
L 782.352 256.898241 
L 774.3168 255.664788 
L 751.9968 255.021711 
L 764.496 254.40825 
L 758.2464 253.832129 
L 785.0304 253.2412 
L 782.352 252.563235 
L 781.4592 252.016223 
L 769.8528 250.815978 
L 769.8528 250.269838 
L 782.352 249.677935 
L 779.6736 249.11539 
L 786.816 248.542194 
L 766.2816 248.031501 
L 796.6368 247.461079 
L 788.6016 246.986668 
L 785.9232 246.435162 
L 786.816 245.945164 
L 793.9584 245.450155 
L 785.0304 244.901356 
L 793.0656 244.344951 
L 785.9232 243.835621 
L 801.1008 243.291166 
L 791.28 242.281306 
L 798.4224 241.733129 
L 782.352 241.203856 
L 799.3152 240.702626 
L 797.5296 240.220245 
L 798.4224 239.736831 
L 798.4224 239.227958 
L 797.5296 238.72466 
L 801.9936 238.262581 
L 801.1008 237.778461 
L 783.2448 237.307123 
L 810.0288 236.344982 
L 806.4576 235.922498 
L 795.744 235.46984 
L 801.9936 234.996184 
L 794.8512 234.581664 
L 820.7424 234.149238 
L 798.4224 233.713741 
L 805.5648 233.287143 
L 810.0288 232.830132 
L 810.0288 232.431189 
L 803.7792 232.010471 
L 804.672 231.564238 
L 793.0656 230.710041 
L 805.5648 230.289017 
L 823.4208 229.484361 
L 791.28 229.084493 
L 805.5648 228.694922 
L 810.9216 228.323697 
L 801.9936 227.934147 
L 824.3136 227.580949 
L 818.9568 227.133562 
L 803.7792 226.297351 
L 822.528 225.898231 
L 785.9232 225.527156 
L 816.2784 225.141275 
L 821.6352 224.76584 
L 810.9216 224.426324 
L 823.4208 224.081863 
L 810.9216 223.722913 
L 824.3136 223.311221 
L 828.7776 222.962668 
L 809.136 222.606792 
L 813.6 222.172102 
L 821.6352 221.776954 
L 820.7424 221.373448 
L 823.4208 221.042977 
L 808.2432 220.697482 
L 816.2784 220.375957 
L 803.7792 220.036297 
L 810.9216 219.681407 
L 808.2432 219.357294 
L 801.1008 219.017421 
L 810.0288 218.666336 
L 808.2432 218.278149 
L 805.5648 217.973244 
L 810.0288 217.649279 
L 827.8848 217.309006 
L 822.528 216.980276 
L 819.8496 216.676897 
L 813.6 216.393462 
L 821.6352 216.05146 
L 812.7072 215.711411 
L 820.7424 215.396764 
L 806.4576 215.108151 
L 801.1008 214.778957 
L 818.9568 214.130049 
L 821.6352 213.838712 
L 822.528 213.529083 
L 828.7776 213.206986 
L 823.4208 212.907212 
L 825.2064 212.613651 
L 817.1712 212.335592 
L 818.9568 212.027226 
L 810.9216 211.736326 
L 812.7072 211.449991 
L 820.7424 211.178565 
L 821.6352 210.858174 
L 808.2432 210.540008 
L 825.2064 210.25372 
L 824.3136 209.965033 
L 813.6 209.669037 
L 820.7424 209.364014 
L 831.456 209.044728 
L 823.4208 208.769062 
L 829.6704 208.523223 
L 823.4208 208.246851 
L 822.528 207.966975 
L 811.8144 207.689279 
L 816.2784 207.45 
L 817.1712 207.144971 
L 826.0992 206.887705 
L 818.064 206.629043 
L 821.6352 206.361354 
L 831.456 206.091461 
L 822.528 205.850901 
L 818.9568 205.606549 
L 833.2416 205.353131 
L 810.0288 205.099622 
L 812.7072 204.877107 
L 826.0992 204.631149 
L 820.7424 204.371952 
L 824.3136 204.099183 
L 822.528 203.809842 
L 819.8496 203.570361 
L 819.8496 203.279249 
L 824.3136 203.075811 
L 822.528 202.832666 
L 810.9216 202.557213 
L 824.3136 202.074687 
L 814.4928 201.814384 
L 826.992 201.546462 
L 816.2784 201.067815 
L 819.8496 200.827466 
L 819.8496 200.616877 
L 818.9568 200.380122 
L 832.3488 200.129351 
L 829.6704 199.925681 
L 833.2416 199.722742 
L 830.5632 199.482131 
L 821.6352 199.22839 
L 827.8848 198.950484 
L 821.6352 198.751873 
L 826.0992 198.530022 
L 827.8848 198.295301 
L 818.064 198.087826 
L 829.6704 197.866141 
L 822.528 197.600065 
L 823.4208 197.412231 
L 830.5632 197.185786 
L 818.064 196.953453 
L 817.1712 196.734002 
L 827.8848 196.532206 
L 814.4928 196.305117 
L 821.6352 196.096877 
L 819.8496 195.895505 
L 812.7072 195.674862 
L 822.528 195.450129 
L 817.1712 195.219763 
L 830.5632 194.797982 
L 831.456 194.595919 
L 818.064 194.40161 
L 829.6704 194.213046 
L 826.0992 193.996477 
L 828.7776 193.784505 
L 822.528 193.583636 
L 833.2416 193.357851 
L 811.8144 192.932034 
L 827.8848 192.746184 
L 828.7776 192.571326 
L 823.4208 192.405782 
L 824.3136 192.221727 
L 826.992 192.052749 
L 816.2784 191.834977 
L 824.3136 191.416587 
L 818.064 191.246638 
L 824.3136 191.058322 
L 826.0992 190.865562 
L 818.064 190.673392 
L 836.8128 190.471528 
L 826.992 190.304281 
L 834.1344 190.114314 
L 827.8848 189.7755 
L 837.7056 189.617313 
L 827.8848 189.460102 
L 825.2064 189.271418 
L 827.8848 189.101577 
L 808.2432 188.911237 
L 821.6352 188.709441 
L 817.1712 188.506182 
L 826.0992 188.303895 
L 820.7424 188.125274 
L 822.528 187.984035 
L 822.528 187.828854 
L 824.3136 187.666297 
L 811.8144 187.497834 
L 832.3488 187.13179 
L 821.6352 186.962784 
L 825.2064 186.7946 
L 821.6352 186.652336 
L 831.456 186.464204 
L 815.3856 186.292386 
L 827.8848 185.964907 
L 830.5632 185.766433 
L 828.7776 185.620115 
L 829.6704 185.449887 
L 827.8848 185.289248 
L 831.456 185.140522 
L 821.6352 184.648307 
L 829.6704 184.489983 
L 822.528 184.312074 
L 828.7776 184.148697 
L 821.6352 184.00425 
L 826.992 183.875643 
L 816.2784 183.713356 
L 814.4928 183.546582 
L 826.0992 183.239986 
L 818.9568 183.06798 
L 827.8848 182.936674 
L 817.1712 182.797517 
L 817.1712 182.647745 
L 818.9568 182.474027 
L 818.9568 182.474027 
" style="fill:none;stroke:#2ecbff;stroke-linecap:square;stroke-width:5;"/>
   </g>
   <g id="line2d_25">
    <path clip-path="url(#p20140bc3ee)" d="M 837.7056 149.763041 
L 902.88 149.763041 
" style="fill:none;stroke:#c49fff;stroke-dasharray:5,8.25;stroke-dashoffset:0;stroke-width:5;"/>
   </g>
   <g id="line2d_26">
    <path clip-path="url(#p20140bc3ee)" d="M 45.657144 577 
L 109.1808 557.420868 
L 133.2864 529.180021 
L 170.784 507.692401 
L 228.816 490.248466 
L 278.8128 475.394323 
L 284.1696 463.161302 
L 302.9184 452.28842 
L 322.56 441.919019 
L 353.808 432.77114 
L 347.5584 425.014939 
L 359.1648 417.620442 
L 382.3776 410.69877 
L 388.6272 403.97801 
L 427.0176 392.249247 
L 433.2672 387.031301 
L 440.4096 382.135594 
L 439.5168 377.072134 
L 475.2288 372.348015 
L 487.728 368.136224 
L 485.0496 363.907386 
L 486.8352 359.759475 
L 530.5824 355.885238 
L 524.3328 352.356153 
L 540.4032 349.011755 
L 545.76 345.707486 
L 565.4016 342.650269 
L 560.9376 339.577817 
L 568.08 333.769014 
L 568.08 331.019098 
L 574.3296 328.410517 
L 598.4352 325.802715 
L 577.9008 323.342344 
L 579.6864 320.923487 
L 596.6496 318.763536 
L 595.7568 316.531447 
L 619.8624 314.241215 
L 602.8992 311.973499 
L 620.7552 309.839048 
L 638.6112 307.882144 
L 635.9328 305.950012 
L 646.6464 304.036361 
L 644.8608 302.182556 
L 660.0384 300.401392 
L 660.0384 298.526028 
L 662.7168 296.878647 
L 666.288 295.221872 
L 661.824 293.584475 
L 677.8944 291.946004 
L 667.1808 290.389946 
L 679.68 288.813855 
L 659.1456 287.294243 
L 688.608 285.847673 
L 678.7872 284.384888 
L 692.1792 282.818942 
L 693.9648 281.371524 
L 705.5712 279.981162 
L 688.608 278.618782 
L 705.5712 277.250629 
L 709.1424 275.854417 
L 704.6784 274.611716 
L 714.4992 273.357025 
L 704.6784 272.168659 
L 710.0352 270.831955 
L 718.9632 269.658607 
L 734.1408 268.483102 
L 729.6768 267.397913 
L 717.1776 266.247085 
L 732.3552 265.105159 
L 722.5344 263.948782 
L 733.248 262.869162 
L 747.5328 261.794841 
L 751.9968 260.6984 
L 745.7472 259.659375 
L 746.64 258.6804 
L 743.0688 257.659836 
L 755.568 256.71206 
L 749.3184 255.750159 
L 737.712 254.818364 
L 749.3184 253.829878 
L 741.2832 252.841054 
L 732.3552 251.895622 
L 751.104 250.966255 
L 745.7472 250.125933 
L 761.8176 249.287208 
L 750.2112 248.373494 
L 767.1744 247.442036 
L 751.9968 246.570004 
L 771.6384 245.71873 
L 755.568 244.864874 
L 757.3536 244.034178 
L 753.7824 243.185035 
L 753.7824 242.348339 
L 767.1744 241.573867 
L 776.9952 240.762514 
L 765.3888 239.980471 
L 773.424 239.231121 
L 770.7456 238.471365 
L 780.5664 236.928249 
L 776.1024 236.221269 
L 779.6736 235.509602 
L 793.0656 234.764349 
L 784.1376 234.050204 
L 778.7808 233.305948 
L 785.0304 232.670873 
L 790.3872 231.998494 
L 786.816 231.311095 
L 791.28 230.6475 
L 799.3152 229.951829 
L 780.5664 229.243337 
L 785.9232 228.533661 
L 794.8512 227.851873 
L 801.9936 226.586107 
L 787.7088 225.913223 
L 788.6016 225.269092 
L 793.0656 224.697457 
L 811.8144 224.090866 
L 801.1008 223.405991 
L 809.136 222.84372 
L 790.3872 221.620306 
L 792.1728 221.047324 
L 807.3504 220.441241 
L 789.4944 219.841737 
L 802.8864 219.247894 
L 798.4224 218.704394 
L 811.8144 218.123777 
L 807.3504 217.610476 
L 805.5648 217.017937 
L 806.4576 216.493552 
L 799.3152 215.990536 
L 801.9936 215.44135 
L 817.1712 214.885661 
L 813.6 214.373829 
L 817.1712 213.80934 
L 809.136 212.756429 
L 811.8144 212.183792 
L 815.3856 211.651769 
L 819.8496 211.136436 
L 818.064 210.637641 
L 826.0992 210.124057 
L 818.9568 209.585583 
L 813.6 208.629554 
L 817.1712 208.139434 
L 805.5648 207.6521 
L 811.8144 207.14117 
L 814.4928 206.644246 
L 824.3136 206.205334 
L 810.0288 205.727768 
L 824.3136 205.262739 
L 817.1712 204.820137 
L 821.6352 204.366776 
L 818.064 203.919926 
L 828.7776 203.475039 
L 824.3136 202.605133 
L 818.9568 202.165769 
L 822.528 201.710698 
L 827.8848 200.803036 
L 834.1344 200.366592 
L 828.7776 199.920622 
L 833.2416 199.515469 
L 822.528 199.100558 
L 820.7424 198.704484 
L 821.6352 198.311421 
L 835.0272 197.52245 
L 832.3488 197.068355 
L 836.8128 196.638199 
L 824.3136 196.209178 
L 833.2416 195.790545 
L 817.1712 195.403111 
L 834.1344 194.608757 
L 827.8848 194.246237 
L 842.1696 193.884368 
L 830.5632 193.51787 
L 837.7056 193.099595 
L 835.0272 192.734992 
L 834.1344 192.363457 
L 840.384 191.511605 
L 835.92 191.103704 
L 842.1696 190.760935 
L 836.8128 190.418816 
L 837.7056 190.072964 
L 833.2416 189.723785 
L 824.3136 189.35801 
L 843.9552 189.006223 
L 831.456 188.66079 
L 836.8128 188.29832 
L 828.7776 187.907412 
L 835.0272 187.568446 
L 826.0992 187.233492 
L 847.5264 186.87015 
L 837.7056 186.538727 
L 838.5984 186.21179 
L 830.5632 185.905412 
L 840.384 185.551342 
L 829.6704 185.19904 
L 838.5984 184.877978 
L 825.2064 184.557697 
L 824.3136 184.223894 
L 830.5632 183.890153 
L 849.312 183.232674 
L 844.848 182.905091 
L 846.6336 182.556665 
L 842.1696 182.244544 
L 848.4192 181.945154 
L 843.0624 181.666548 
L 847.5264 181.345689 
L 827.8848 181.032296 
L 840.384 180.726878 
L 842.1696 180.42183 
L 843.0624 180.100577 
L 835.0272 179.760723 
L 836.8128 179.466909 
L 840.384 179.150504 
L 832.3488 178.826176 
L 834.1344 178.502889 
L 844.848 178.182799 
L 843.9552 177.892437 
L 839.4912 177.640633 
L 842.1696 177.356876 
L 849.312 177.060591 
L 833.2416 176.766581 
L 839.4912 176.499543 
L 838.5984 176.190473 
L 843.9552 175.640902 
L 848.4192 175.357147 
L 852.8832 174.802077 
L 847.5264 174.539049 
L 853.776 174.257284 
L 833.2416 173.740723 
L 828.7776 173.491146 
L 842.1696 173.222486 
L 848.4192 172.946674 
L 847.5264 172.654494 
L 842.1696 172.399188 
L 839.4912 172.085723 
L 852.8832 171.853947 
L 840.384 171.588674 
L 839.4912 171.300648 
L 843.9552 171.045197 
L 842.1696 170.800951 
L 850.2048 170.523798 
L 843.0624 170.248185 
L 844.848 170.002715 
L 835.0272 169.478822 
L 842.1696 169.246422 
L 841.2768 168.994281 
L 837.7056 168.740391 
L 851.9904 168.523909 
L 846.6336 168.298043 
L 848.4192 168.043129 
L 843.0624 167.784739 
L 843.0624 167.500841 
L 843.9552 167.284098 
L 845.7408 167.049916 
L 837.7056 166.800338 
L 840.384 166.578879 
L 846.6336 166.350232 
L 839.4912 166.082296 
L 839.4912 165.874731 
L 846.6336 165.633572 
L 835.92 165.386372 
L 848.4192 165.143485 
L 851.0976 164.919873 
L 833.2416 164.693227 
L 846.6336 164.467015 
L 850.2048 164.236869 
L 829.6704 163.995894 
L 843.9552 163.529032 
L 840.384 163.317685 
L 848.4192 162.859708 
L 845.7408 162.642544 
L 835.0272 162.436544 
L 843.9552 161.980626 
L 843.0624 161.766832 
L 851.0976 161.53467 
L 831.456 161.301736 
L 847.5264 160.897898 
L 849.312 160.71237 
L 835.92 160.531297 
L 843.9552 159.894477 
L 851.0976 159.681995 
L 842.1696 159.453294 
L 842.1696 159.267814 
L 843.9552 159.064618 
L 840.384 158.859959 
L 847.5264 158.647945 
L 847.5264 158.252299 
L 843.9552 158.048378 
L 847.5264 157.852556 
L 848.4192 157.657256 
L 843.9552 157.483435 
L 843.0624 157.308106 
L 841.2768 157.109758 
L 844.848 156.930901 
L 835.0272 156.725913 
L 847.5264 156.516027 
L 840.384 156.308772 
L 841.2768 156.107227 
L 836.8128 155.917135 
L 846.6336 155.748927 
L 836.8128 155.570841 
L 847.5264 155.010584 
L 843.0624 154.815369 
L 846.6336 154.628493 
L 834.1344 154.293152 
L 851.0976 154.089822 
L 841.2768 153.703488 
L 848.4192 153.537443 
L 842.1696 153.171355 
L 851.0976 152.990529 
L 834.1344 152.81288 
L 847.5264 152.647998 
L 841.2768 152.479712 
L 845.7408 152.295742 
L 839.4912 152.123197 
L 846.6336 151.961006 
L 844.848 151.774514 
L 846.6336 151.592533 
L 836.8128 151.428185 
L 848.4192 151.275232 
L 835.0272 150.924432 
L 846.6336 150.754803 
L 837.7056 150.594282 
L 844.848 150.412374 
L 835.0272 150.093001 
L 845.7408 149.948878 
L 837.7056 149.763041 
L 837.7056 149.763041 
" style="fill:none;stroke:#9041ff;stroke-linecap:square;stroke-width:5;"/>
   </g>
   <g id="line2d_27">
    <path clip-path="url(#p20140bc3ee)" d="M 849.312 124.116344 
L 902.88 124.116344 
" style="fill:none;stroke:#9fb7ff;stroke-dasharray:5,8.25;stroke-dashoffset:0;stroke-width:5;"/>
   </g>
   <g id="line2d_28">
    <path clip-path="url(#p20140bc3ee)" d="M 7.674795 577 
L 77.9328 549.512967 
L 131.5008 519.283612 
L 160.9632 496.421675 
L 222.5664 477.986194 
L 258.2784 462.376963 
L 265.4208 449.373361 
L 297.5616 437.949646 
L 318.9888 427.083039 
L 335.952 417.511919 
L 337.7376 409.337394 
L 363.6288 401.621511 
L 368.0928 394.357558 
L 385.9488 387.360374 
L 402.912 381.203453 
L 429.696 375.213009 
L 425.232 369.758402 
L 431.4816 364.67586 
L 443.088 359.443299 
L 470.7648 354.538458 
L 485.0496 350.141944 
L 483.264 345.77523 
L 479.6928 341.507016 
L 514.512 337.518377 
L 518.976 333.875069 
L 538.6176 326.984231 
L 552.0096 323.835578 
L 547.5456 320.646931 
L 545.76 317.656284 
L 563.616 314.661456 
L 560.0448 311.815666 
L 561.8304 309.14421 
L 590.4 306.422682 
L 579.6864 303.875302 
L 577.008 301.405176 
L 580.5792 299.162247 
L 590.4 296.861861 
L 609.1488 294.483848 
L 597.5424 292.135258 
L 611.8272 289.924524 
L 630.576 287.900257 
L 629.6832 285.888272 
L 644.8608 283.883246 
L 640.3968 281.970717 
L 641.2896 280.132633 
L 654.6816 278.212964 
L 652.0032 276.510945 
L 653.7888 274.799878 
L 654.6816 273.087562 
L 671.6448 271.381472 
L 648.432 269.784162 
L 671.6448 268.156728 
L 668.0736 266.60301 
L 678.7872 265.101697 
L 677.8944 263.61549 
L 682.3584 262.005642 
L 689.5008 259.065176 
L 676.1088 257.673231 
L 695.7504 256.274969 
L 704.6784 254.849141 
L 702.8928 253.561963 
L 716.2848 252.266707 
L 702 251.038341 
L 697.536 249.680009 
L 702 248.456303 
L 718.9632 247.234911 
L 716.2848 246.10929 
L 710.928 244.939086 
L 718.9632 243.771636 
L 722.5344 242.587709 
L 724.32 241.485882 
L 749.3184 240.380544 
L 742.176 239.259208 
L 742.176 238.178699 
L 735.0336 237.168339 
L 728.784 236.111169 
L 736.8192 235.121397 
L 737.712 234.124745 
L 730.5696 233.181362 
L 743.9616 232.159286 
L 745.7472 231.138203 
L 732.3552 230.167438 
L 740.3904 229.212505 
L 739.4976 228.344414 
L 755.568 227.482005 
L 738.6048 226.535436 
L 759.1392 225.611167 
L 756.4608 224.712506 
L 759.1392 223.830357 
L 751.104 222.954459 
L 760.9248 222.09981 
L 750.2112 221.231472 
L 751.9968 220.363977 
L 769.8528 219.563801 
L 774.3168 218.727258 
L 765.3888 217.928632 
L 774.3168 217.141367 
L 773.424 216.3608 
L 765.3888 215.587758 
L 775.2096 214.758832 
L 769.8528 214.017107 
L 771.6384 213.276667 
L 779.6736 212.51173 
L 775.2096 211.768229 
L 775.2096 211.001364 
L 776.1024 210.327592 
L 780.5664 209.622795 
L 776.1024 208.920995 
L 785.9232 208.234069 
L 790.3872 207.520028 
L 781.4592 206.797882 
L 781.4592 206.058294 
L 777.888 205.362072 
L 794.8512 204.707031 
L 785.9232 203.361957 
L 785.9232 202.705427 
L 785.0304 202.11561 
L 802.8864 201.484898 
L 800.208 200.791609 
L 801.9936 200.194581 
L 801.1008 199.568511 
L 794.8512 198.933826 
L 793.9584 198.331654 
L 800.208 197.699507 
L 788.6016 197.089469 
L 801.1008 196.480175 
L 790.3872 195.913568 
L 802.8864 195.307609 
L 806.4576 194.773986 
L 801.1008 194.171055 
L 810.9216 193.621101 
L 791.28 193.090787 
L 795.744 192.520495 
L 809.136 191.936657 
L 811.8144 191.397241 
L 807.3504 190.809795 
L 810.0288 190.282835 
L 808.2432 189.716777 
L 812.7072 189.123588 
L 808.2432 188.575458 
L 814.4928 188.053259 
L 818.064 187.53451 
L 820.7424 186.997947 
L 816.2784 186.448232 
L 816.2784 185.930459 
L 817.1712 185.446062 
L 799.3152 184.438631 
L 810.9216 183.914535 
L 818.9568 183.402252 
L 821.6352 182.941873 
L 813.6 182.456735 
L 813.6 181.983471 
L 810.9216 181.527583 
L 819.8496 181.053087 
L 818.064 180.594757 
L 825.2064 180.131279 
L 814.4928 179.650336 
L 818.064 178.749125 
L 812.7072 178.270449 
L 826.992 177.779729 
L 817.1712 177.320535 
L 828.7776 176.870339 
L 824.3136 176.407008 
L 835.0272 175.974174 
L 825.2064 175.549412 
L 820.7424 175.137971 
L 826.992 174.728292 
L 826.992 174.308862 
L 836.8128 173.910257 
L 831.456 173.434825 
L 834.1344 172.995671 
L 826.992 172.564474 
L 833.2416 172.133071 
L 818.064 171.723605 
L 826.992 171.314159 
L 830.5632 170.903322 
L 818.9568 170.525458 
L 826.0992 170.150635 
L 821.6352 169.769158 
L 832.3488 169.33633 
L 835.0272 168.95499 
L 828.7776 168.565995 
L 829.6704 168.113515 
L 843.9552 167.286628 
L 840.384 166.922792 
L 833.2416 166.568521 
L 843.9552 166.205146 
L 831.456 165.847403 
L 824.3136 165.472229 
L 835.92 165.108286 
L 840.384 164.75312 
L 835.92 164.381721 
L 834.1344 163.969556 
L 830.5632 163.614988 
L 823.4208 163.255034 
L 845.7408 162.880202 
L 835.0272 162.527378 
L 838.5984 162.191684 
L 833.2416 161.870768 
L 846.6336 161.505413 
L 839.4912 161.137689 
L 842.1696 160.798073 
L 833.2416 160.463292 
L 831.456 160.115267 
L 840.384 159.767397 
L 840.384 159.413063 
L 842.1696 159.089823 
L 849.312 158.739207 
L 842.1696 158.381688 
L 843.0624 158.061064 
L 846.6336 157.745034 
L 835.92 157.455689 
L 849.312 157.124484 
L 829.6704 156.806997 
L 834.1344 156.489308 
L 846.6336 155.844341 
L 846.6336 155.489247 
L 843.0624 155.173673 
L 852.8832 154.850829 
L 836.8128 154.193777 
L 842.1696 153.866772 
L 852.8832 153.567202 
L 850.2048 153.28379 
L 850.2048 152.983187 
L 844.848 152.370075 
L 845.7408 152.088281 
L 838.5984 151.767054 
L 849.312 151.479264 
L 844.848 151.189899 
L 846.6336 150.894896 
L 840.384 150.602899 
L 845.7408 150.316373 
L 844.848 150.039043 
L 861.8112 149.760852 
L 842.1696 149.47895 
L 835.0272 149.221453 
L 834.1344 148.949792 
L 849.312 148.670272 
L 858.24 148.383886 
L 848.4192 148.077887 
L 848.4192 147.801281 
L 844.848 147.479091 
L 854.6688 147.2367 
L 854.6688 146.97163 
L 848.4192 146.680769 
L 854.6688 146.404688 
L 851.9904 146.144253 
L 851.0976 145.868924 
L 849.312 145.589267 
L 861.8112 145.331342 
L 843.0624 145.056414 
L 850.2048 144.79083 
L 851.9904 144.544373 
L 838.5984 144.273714 
L 843.0624 144.008747 
L 857.3472 143.792018 
L 861.8112 143.557199 
L 845.7408 143.282917 
L 846.6336 143.0091 
L 850.2048 142.714197 
L 843.9552 142.486029 
L 844.848 142.240175 
L 848.4192 141.982452 
L 843.9552 141.759222 
L 855.5616 141.514742 
L 859.1328 141.235639 
L 849.312 141.017255 
L 848.4192 140.774997 
L 846.6336 140.521378 
L 851.9904 140.275595 
L 852.8832 140.037782 
L 847.5264 139.805797 
L 863.5968 139.56704 
L 863.5968 139.32449 
L 838.5984 139.075471 
L 853.776 138.838121 
L 851.9904 138.585008 
L 857.3472 138.364849 
L 857.3472 137.891359 
L 859.1328 137.660778 
L 855.5616 137.441674 
L 854.6688 137.206731 
L 849.312 136.973379 
L 858.24 136.748229 
L 856.4544 136.513663 
L 826.992 136.262552 
L 851.9904 136.042621 
L 859.1328 135.825845 
L 858.24 135.627112 
L 853.776 135.43574 
L 843.0624 135.222294 
L 856.4544 135.010105 
L 844.848 134.769839 
L 857.3472 134.547885 
L 860.9184 134.311086 
L 843.9552 134.115702 
L 852.8832 133.904843 
L 856.4544 133.68451 
L 851.9904 133.471234 
L 854.6688 133.051673 
L 866.2752 132.634805 
L 860.9184 132.243189 
L 847.5264 131.851535 
L 859.1328 131.458749 
L 852.8832 131.240442 
L 851.9904 131.021393 
L 855.5616 130.811239 
L 846.6336 130.615469 
L 857.3472 130.443639 
L 861.8112 130.255083 
L 843.9552 130.060298 
L 856.4544 129.655326 
L 859.1328 129.449613 
L 858.24 129.25124 
L 843.9552 128.898519 
L 858.24 128.688794 
L 847.5264 128.495605 
L 852.8832 128.283087 
L 861.8112 128.102305 
L 862.704 127.89747 
L 852.8832 127.717034 
L 857.3472 127.523429 
L 849.312 127.33105 
L 859.1328 127.153047 
L 855.5616 126.980738 
L 849.312 126.791446 
L 862.704 126.610771 
L 859.1328 126.432062 
L 858.24 126.236352 
L 855.5616 126.051625 
L 860.9184 125.875406 
L 860.9184 125.712371 
L 847.5264 125.34721 
L 856.4544 125.166338 
L 850.2048 124.996436 
L 857.3472 124.803495 
L 852.8832 124.632211 
L 853.776 124.46462 
L 852.8832 124.30674 
L 849.312 124.116344 
L 849.312 124.116344 
" style="fill:none;stroke:#4161ff;stroke-linecap:square;stroke-width:5;"/>
   </g>
   <g id="patch_3">
    <path d="M 144 504 
L 144 69.12 
" style="fill:none;stroke:#000000;stroke-linecap:square;stroke-linejoin:miter;stroke-width:0.8;"/>
   </g>
   <g id="patch_4">
    <path d="M 1036.8 504 
L 1036.8 69.12 
" style="fill:none;stroke:#000000;stroke-linecap:square;stroke-linejoin:miter;stroke-width:0.8;"/>
   </g>
   <g id="patch_5">
    <path d="M 144 504 
L 1036.8 504 
" style="fill:none;stroke:#000000;stroke-linecap:square;stroke-linejoin:miter;stroke-width:0.8;"/>
   </g>
   <g id="patch_6">
    <path d="M 144 69.12 
L 1036.8 69.12 
" style="fill:none;stroke:#000000;stroke-linecap:square;stroke-linejoin:miter;stroke-width:0.8;"/>
   </g>
   <g id="text_11">
    <!-- 96.53% -->
    <g style="fill:#ff9500;" transform="translate(912.88 288.245724)scale(0.26 -0.26)">
     <defs>
      <path d="M 40.578125 39.3125 
Q 47.65625 37.796875 51.625 33 
Q 55.609375 28.21875 55.609375 21.1875 
Q 55.609375 10.40625 48.1875 4.484375 
Q 40.765625 -1.421875 27.09375 -1.421875 
Q 22.515625 -1.421875 17.65625 -0.515625 
Q 12.796875 0.390625 7.625 2.203125 
L 7.625 11.71875 
Q 11.71875 9.328125 16.59375 8.109375 
Q 21.484375 6.890625 26.8125 6.890625 
Q 36.078125 6.890625 40.9375 10.546875 
Q 45.796875 14.203125 45.796875 21.1875 
Q 45.796875 27.640625 41.28125 31.265625 
Q 36.765625 34.90625 28.71875 34.90625 
L 20.21875 34.90625 
L 20.21875 43.015625 
L 29.109375 43.015625 
Q 36.375 43.015625 40.234375 45.921875 
Q 44.09375 48.828125 44.09375 54.296875 
Q 44.09375 59.90625 40.109375 62.90625 
Q 36.140625 65.921875 28.71875 65.921875 
Q 24.65625 65.921875 20.015625 65.03125 
Q 15.375 64.15625 9.8125 62.3125 
L 9.8125 71.09375 
Q 15.4375 72.65625 20.34375 73.4375 
Q 25.25 74.21875 29.59375 74.21875 
Q 40.828125 74.21875 47.359375 69.109375 
Q 53.90625 64.015625 53.90625 55.328125 
Q 53.90625 49.265625 50.4375 45.09375 
Q 46.96875 40.921875 40.578125 39.3125 
z
" id="DejaVuSans-51"/>
     </defs>
     <use xlink:href="#DejaVuSans-57"/>
     <use x="63.623047" xlink:href="#DejaVuSans-54"/>
     <use x="127.246094" xlink:href="#DejaVuSans-46"/>
     <use x="159.033203" xlink:href="#DejaVuSans-53"/>
     <use x="222.65625" xlink:href="#DejaVuSans-51"/>
     <use x="286.279297" xlink:href="#DejaVuSans-37"/>
    </g>
   </g>
   <g id="text_12">
    <!-- 97.17% -->
    <g style="fill:#ff1500;" transform="translate(912.88 239.30756)scale(0.26 -0.26)">
     <defs>
      <path d="M 8.203125 72.90625 
L 55.078125 72.90625 
L 55.078125 68.703125 
L 28.609375 0 
L 18.3125 0 
L 43.21875 64.59375 
L 8.203125 64.59375 
z
" id="DejaVuSans-55"/>
     </defs>
     <use xlink:href="#DejaVuSans-57"/>
     <use x="63.623047" xlink:href="#DejaVuSans-55"/>
     <use x="127.246094" xlink:href="#DejaVuSans-46"/>
     <use x="159.033203" xlink:href="#DejaVuSans-49"/>
     <use x="222.65625" xlink:href="#DejaVuSans-55"/>
     <use x="286.279297" xlink:href="#DejaVuSans-37"/>
    </g>
   </g>
   <g id="text_13">
    <!-- 97.54% -->
    <g style="fill:#2ecbff;" transform="translate(912.88 189.648402)scale(0.26 -0.26)">
     <use xlink:href="#DejaVuSans-57"/>
     <use x="63.623047" xlink:href="#DejaVuSans-55"/>
     <use x="127.246094" xlink:href="#DejaVuSans-46"/>
     <use x="159.033203" xlink:href="#DejaVuSans-53"/>
     <use x="222.65625" xlink:href="#DejaVuSans-52"/>
     <use x="286.279297" xlink:href="#DejaVuSans-37"/>
    </g>
   </g>
   <g id="text_14">
    <!-- 97.86% -->
    <g style="fill:#9041ff;" transform="translate(912.88 156.937416)scale(0.26 -0.26)">
     <use xlink:href="#DejaVuSans-57"/>
     <use x="63.623047" xlink:href="#DejaVuSans-55"/>
     <use x="127.246094" xlink:href="#DejaVuSans-46"/>
     <use x="159.033203" xlink:href="#DejaVuSans-56"/>
     <use x="222.65625" xlink:href="#DejaVuSans-54"/>
     <use x="286.279297" xlink:href="#DejaVuSans-37"/>
    </g>
   </g>
   <g id="text_15">
    <!-- 97.94% -->
    <g style="fill:#4161ff;" transform="translate(912.88 131.290719)scale(0.26 -0.26)">
     <use xlink:href="#DejaVuSans-57"/>
     <use x="63.623047" xlink:href="#DejaVuSans-55"/>
     <use x="127.246094" xlink:href="#DejaVuSans-46"/>
     <use x="159.033203" xlink:href="#DejaVuSans-57"/>
     <use x="222.65625" xlink:href="#DejaVuSans-52"/>
     <use x="286.279297" xlink:href="#DejaVuSans-37"/>
    </g>
   </g>
   <g id="text_16">
    <!-- Thresholds 150 Units: Energy vs. Accuracy -->
    <g transform="translate(206.330625 61.633125)scale(0.36 -0.36)">
     <defs>
      <path d="M -0.296875 72.90625 
L 61.375 72.90625 
L 61.375 64.59375 
L 35.5 64.59375 
L 35.5 0 
L 25.59375 0 
L 25.59375 64.59375 
L -0.296875 64.59375 
z
" id="DejaVuSans-84"/>
      <path d="M 54.890625 33.015625 
L 54.890625 0 
L 45.90625 0 
L 45.90625 32.71875 
Q 45.90625 40.484375 42.875 44.328125 
Q 39.84375 48.1875 33.796875 48.1875 
Q 26.515625 48.1875 22.3125 43.546875 
Q 18.109375 38.921875 18.109375 30.90625 
L 18.109375 0 
L 9.078125 0 
L 9.078125 75.984375 
L 18.109375 75.984375 
L 18.109375 46.1875 
Q 21.34375 51.125 25.703125 53.5625 
Q 30.078125 56 35.796875 56 
Q 45.21875 56 50.046875 50.171875 
Q 54.890625 44.34375 54.890625 33.015625 
z
" id="DejaVuSans-104"/>
      <path d="M 44.28125 53.078125 
L 44.28125 44.578125 
Q 40.484375 46.53125 36.375 47.5 
Q 32.28125 48.484375 27.875 48.484375 
Q 21.1875 48.484375 17.84375 46.4375 
Q 14.5 44.390625 14.5 40.28125 
Q 14.5 37.15625 16.890625 35.375 
Q 19.28125 33.59375 26.515625 31.984375 
L 29.59375 31.296875 
Q 39.15625 29.25 43.1875 25.515625 
Q 47.21875 21.78125 47.21875 15.09375 
Q 47.21875 7.46875 41.1875 3.015625 
Q 35.15625 -1.421875 24.609375 -1.421875 
Q 20.21875 -1.421875 15.453125 -0.5625 
Q 10.6875 0.296875 5.421875 2 
L 5.421875 11.28125 
Q 10.40625 8.6875 15.234375 7.390625 
Q 20.0625 6.109375 24.8125 6.109375 
Q 31.15625 6.109375 34.5625 8.28125 
Q 37.984375 10.453125 37.984375 14.40625 
Q 37.984375 18.0625 35.515625 20.015625 
Q 33.0625 21.96875 24.703125 23.78125 
L 21.578125 24.515625 
Q 13.234375 26.265625 9.515625 29.90625 
Q 5.8125 33.546875 5.8125 39.890625 
Q 5.8125 47.609375 11.28125 51.796875 
Q 16.75 56 26.8125 56 
Q 31.78125 56 36.171875 55.265625 
Q 40.578125 54.546875 44.28125 53.078125 
z
" id="DejaVuSans-115"/>
      <path d="M 30.609375 48.390625 
Q 23.390625 48.390625 19.1875 42.75 
Q 14.984375 37.109375 14.984375 27.296875 
Q 14.984375 17.484375 19.15625 11.84375 
Q 23.34375 6.203125 30.609375 6.203125 
Q 37.796875 6.203125 41.984375 11.859375 
Q 46.1875 17.53125 46.1875 27.296875 
Q 46.1875 37.015625 41.984375 42.703125 
Q 37.796875 48.390625 30.609375 48.390625 
z
M 30.609375 56 
Q 42.328125 56 49.015625 48.375 
Q 55.71875 40.765625 55.71875 27.296875 
Q 55.71875 13.875 49.015625 6.21875 
Q 42.328125 -1.421875 30.609375 -1.421875 
Q 18.84375 -1.421875 12.171875 6.21875 
Q 5.515625 13.875 5.515625 27.296875 
Q 5.515625 40.765625 12.171875 48.375 
Q 18.84375 56 30.609375 56 
z
" id="DejaVuSans-111"/>
      <path d="M 9.421875 75.984375 
L 18.40625 75.984375 
L 18.40625 0 
L 9.421875 0 
z
" id="DejaVuSans-108"/>
      <path d="M 45.40625 46.390625 
L 45.40625 75.984375 
L 54.390625 75.984375 
L 54.390625 0 
L 45.40625 0 
L 45.40625 8.203125 
Q 42.578125 3.328125 38.25 0.953125 
Q 33.9375 -1.421875 27.875 -1.421875 
Q 17.96875 -1.421875 11.734375 6.484375 
Q 5.515625 14.40625 5.515625 27.296875 
Q 5.515625 40.1875 11.734375 48.09375 
Q 17.96875 56 27.875 56 
Q 33.9375 56 38.25 53.625 
Q 42.578125 51.265625 45.40625 46.390625 
z
M 14.796875 27.296875 
Q 14.796875 17.390625 18.875 11.75 
Q 22.953125 6.109375 30.078125 6.109375 
Q 37.203125 6.109375 41.296875 11.75 
Q 45.40625 17.390625 45.40625 27.296875 
Q 45.40625 37.203125 41.296875 42.84375 
Q 37.203125 48.484375 30.078125 48.484375 
Q 22.953125 48.484375 18.875 42.84375 
Q 14.796875 37.203125 14.796875 27.296875 
z
" id="DejaVuSans-100"/>
      <path d="M 9.421875 54.6875 
L 18.40625 54.6875 
L 18.40625 0 
L 9.421875 0 
z
M 9.421875 75.984375 
L 18.40625 75.984375 
L 18.40625 64.59375 
L 9.421875 64.59375 
z
" id="DejaVuSans-105"/>
      <path d="M 18.3125 70.21875 
L 18.3125 54.6875 
L 36.8125 54.6875 
L 36.8125 47.703125 
L 18.3125 47.703125 
L 18.3125 18.015625 
Q 18.3125 11.328125 20.140625 9.421875 
Q 21.96875 7.515625 27.59375 7.515625 
L 36.8125 7.515625 
L 36.8125 0 
L 27.59375 0 
Q 17.1875 0 13.234375 3.875 
Q 9.28125 7.765625 9.28125 18.015625 
L 9.28125 47.703125 
L 2.6875 47.703125 
L 2.6875 54.6875 
L 9.28125 54.6875 
L 9.28125 70.21875 
z
" id="DejaVuSans-116"/>
      <path d="M 11.71875 12.40625 
L 22.015625 12.40625 
L 22.015625 0 
L 11.71875 0 
z
M 11.71875 51.703125 
L 22.015625 51.703125 
L 22.015625 39.3125 
L 11.71875 39.3125 
z
" id="DejaVuSans-58"/>
      <path d="M 2.984375 54.6875 
L 12.5 54.6875 
L 29.59375 8.796875 
L 46.6875 54.6875 
L 56.203125 54.6875 
L 35.6875 0 
L 23.484375 0 
z
" id="DejaVuSans-118"/>
     </defs>
     <use xlink:href="#DejaVuSans-84"/>
     <use x="61.083984" xlink:href="#DejaVuSans-104"/>
     <use x="124.462891" xlink:href="#DejaVuSans-114"/>
     <use x="163.326172" xlink:href="#DejaVuSans-101"/>
     <use x="224.849609" xlink:href="#DejaVuSans-115"/>
     <use x="276.949219" xlink:href="#DejaVuSans-104"/>
     <use x="340.328125" xlink:href="#DejaVuSans-111"/>
     <use x="401.509766" xlink:href="#DejaVuSans-108"/>
     <use x="429.292969" xlink:href="#DejaVuSans-100"/>
     <use x="492.769531" xlink:href="#DejaVuSans-115"/>
     <use x="544.869141" xlink:href="#DejaVuSans-32"/>
     <use x="576.65625" xlink:href="#DejaVuSans-49"/>
     <use x="640.279297" xlink:href="#DejaVuSans-53"/>
     <use x="703.902344" xlink:href="#DejaVuSans-48"/>
     <use x="767.525391" xlink:href="#DejaVuSans-32"/>
     <use x="799.3125" xlink:href="#DejaVuSans-85"/>
     <use x="872.505859" xlink:href="#DejaVuSans-110"/>
     <use x="935.884766" xlink:href="#DejaVuSans-105"/>
     <use x="963.667969" xlink:href="#DejaVuSans-116"/>
     <use x="1002.876953" xlink:href="#DejaVuSans-115"/>
     <use x="1054.976562" xlink:href="#DejaVuSans-58"/>
     <use x="1088.667969" xlink:href="#DejaVuSans-32"/>
     <use x="1120.455078" xlink:href="#DejaVuSans-69"/>
     <use x="1183.638672" xlink:href="#DejaVuSans-110"/>
     <use x="1247.017578" xlink:href="#DejaVuSans-101"/>
     <use x="1308.541016" xlink:href="#DejaVuSans-114"/>
     <use x="1347.904297" xlink:href="#DejaVuSans-103"/>
     <use x="1411.380859" xlink:href="#DejaVuSans-121"/>
     <use x="1470.560547" xlink:href="#DejaVuSans-32"/>
     <use x="1502.347656" xlink:href="#DejaVuSans-118"/>
     <use x="1561.527344" xlink:href="#DejaVuSans-115"/>
     <use x="1613.626953" xlink:href="#DejaVuSans-46"/>
     <use x="1645.414062" xlink:href="#DejaVuSans-32"/>
     <use x="1677.201172" xlink:href="#DejaVuSans-65"/>
     <use x="1743.859375" xlink:href="#DejaVuSans-99"/>
     <use x="1798.839844" xlink:href="#DejaVuSans-99"/>
     <use x="1853.820312" xlink:href="#DejaVuSans-117"/>
     <use x="1917.199219" xlink:href="#DejaVuSans-114"/>
     <use x="1958.3125" xlink:href="#DejaVuSans-97"/>
     <use x="2019.591797" xlink:href="#DejaVuSans-99"/>
     <use x="2074.572266" xlink:href="#DejaVuSans-121"/>
    </g>
   </g>
   <g id="legend_1">
    <g id="patch_7">
     <path d="M 159.4 248.179375 
L 264.786875 248.179375 
Q 269.186875 248.179375 269.186875 243.779375 
L 269.186875 84.52 
Q 269.186875 80.12 264.786875 80.12 
L 159.4 80.12 
Q 155 80.12 155 84.52 
L 155 243.779375 
Q 155 248.179375 159.4 248.179375 
z
" style="fill:#ffffff;opacity:0.8;stroke:#cccccc;stroke-linejoin:miter;"/>
    </g>
    <g id="line2d_29">
     <path d="M 163.8 97.936563 
L 207.8 97.936563 
" style="fill:none;stroke:#ff9500;stroke-linecap:square;stroke-width:5;"/>
    </g>
    <g id="line2d_30"/>
    <g id="text_17">
     <!-- 0.2 -->
     <g transform="translate(225.4 105.636563)scale(0.22 -0.22)">
      <use xlink:href="#DejaVuSans-48"/>
      <use x="63.623047" xlink:href="#DejaVuSans-46"/>
      <use x="95.410156" xlink:href="#DejaVuSans-50"/>
     </g>
    </g>
    <g id="line2d_31">
     <path d="M 163.8 130.228438 
L 207.8 130.228438 
" style="fill:none;stroke:#ff1500;stroke-linecap:square;stroke-width:5;"/>
    </g>
    <g id="line2d_32"/>
    <g id="text_18">
     <!-- 0.4 -->
     <g transform="translate(225.4 137.928438)scale(0.22 -0.22)">
      <use xlink:href="#DejaVuSans-48"/>
      <use x="63.623047" xlink:href="#DejaVuSans-46"/>
      <use x="95.410156" xlink:href="#DejaVuSans-52"/>
     </g>
    </g>
    <g id="line2d_33">
     <path d="M 163.8 162.520313 
L 207.8 162.520313 
" style="fill:none;stroke:#2ecbff;stroke-linecap:square;stroke-width:5;"/>
    </g>
    <g id="line2d_34"/>
    <g id="text_19">
     <!-- 0.6 -->
     <g transform="translate(225.4 170.220313)scale(0.22 -0.22)">
      <use xlink:href="#DejaVuSans-48"/>
      <use x="63.623047" xlink:href="#DejaVuSans-46"/>
      <use x="95.410156" xlink:href="#DejaVuSans-54"/>
     </g>
    </g>
    <g id="line2d_35">
     <path d="M 163.8 194.812188 
L 207.8 194.812188 
" style="fill:none;stroke:#9041ff;stroke-linecap:square;stroke-width:5;"/>
    </g>
    <g id="line2d_36"/>
    <g id="text_20">
     <!-- 0.8 -->
     <g transform="translate(225.4 202.512188)scale(0.22 -0.22)">
      <use xlink:href="#DejaVuSans-48"/>
      <use x="63.623047" xlink:href="#DejaVuSans-46"/>
      <use x="95.410156" xlink:href="#DejaVuSans-56"/>
     </g>
    </g>
    <g id="line2d_37">
     <path d="M 163.8 227.104063 
L 207.8 227.104063 
" style="fill:none;stroke:#4161ff;stroke-linecap:square;stroke-width:5;"/>
    </g>
    <g id="line2d_38"/>
    <g id="text_21">
     <!-- 1.0 -->
     <g transform="translate(225.4 234.804063)scale(0.22 -0.22)">
      <use xlink:href="#DejaVuSans-49"/>
      <use x="63.623047" xlink:href="#DejaVuSans-46"/>
      <use x="95.410156" xlink:href="#DejaVuSans-48"/>
     </g>
    </g>
   </g>
  </g>
 </g>
 <defs>
  <clipPath id="p20140bc3ee">
   <rect height="434.88" width="892.8" x="144" y="69.12"/>
  </clipPath>
 </defs>
</svg>
