<?xml version="1.0" encoding="utf-8" standalone="no"?>
<!DOCTYPE svg PUBLIC "-//W3C//DTD SVG 1.1//EN"
  "http://www.w3.org/Graphics/SVG/1.1/DTD/svg11.dtd">
<!-- Created with matplotlib (https://matplotlib.org/) -->
<svg height="576pt" version="1.1" viewBox="0 0 1152 576" width="1152pt" xmlns="http://www.w3.org/2000/svg" xmlns:xlink="http://www.w3.org/1999/xlink">
 <metadata>
  <rdf:RDF xmlns:cc="http://creativecommons.org/ns#" xmlns:dc="http://purl.org/dc/elements/1.1/" xmlns:rdf="http://www.w3.org/1999/02/22-rdf-syntax-ns#">
   <cc:Work>
    <dc:type rdf:resource="http://purl.org/dc/dcmitype/StillImage"/>
    <dc:date>2021-09-13T01:32:58.464885</dc:date>
    <dc:format>image/svg+xml</dc:format>
    <dc:creator>
     <cc:Agent>
      <dc:title>Matplotlib v3.3.4, https://matplotlib.org/</dc:title>
     </cc:Agent>
    </dc:creator>
   </cc:Work>
  </rdf:RDF>
 </metadata>
 <defs>
  <style type="text/css">*{stroke-linecap:butt;stroke-linejoin:round;}</style>
 </defs>
 <g id="figure_1">
  <g id="patch_1">
   <path d="M 0 576 
L 1152 576 
L 1152 0 
L 0 0 
z
" style="fill:#ffffff;"/>
  </g>
  <g id="axes_1">
   <g id="patch_2">
    <path d="M 144 504 
L 1036.8 504 
L 1036.8 69.12 
L 144 69.12 
z
" style="fill:#ffffff;"/>
   </g>
   <g id="matplotlib.axis_1">
    <g id="xtick_1">
     <g id="line2d_1">
      <defs>
       <path d="M 0 0 
L 0 3.5 
" id="m844b5b98af" style="stroke:#000000;stroke-width:0.8;"/>
      </defs>
      <g>
       <use style="stroke:#000000;stroke-width:0.8;" x="144" xlink:href="#m844b5b98af" y="504"/>
      </g>
     </g>
     <g id="text_1">
      <!-- 84 -->
      <g transform="translate(128.73 529.23625)scale(0.24 -0.24)">
       <defs>
        <path d="M 31.78125 34.625 
Q 24.75 34.625 20.71875 30.859375 
Q 16.703125 27.09375 16.703125 20.515625 
Q 16.703125 13.921875 20.71875 10.15625 
Q 24.75 6.390625 31.78125 6.390625 
Q 38.8125 6.390625 42.859375 10.171875 
Q 46.921875 13.96875 46.921875 20.515625 
Q 46.921875 27.09375 42.890625 30.859375 
Q 38.875 34.625 31.78125 34.625 
z
M 21.921875 38.8125 
Q 15.578125 40.375 12.03125 44.71875 
Q 8.5 49.078125 8.5 55.328125 
Q 8.5 64.0625 14.71875 69.140625 
Q 20.953125 74.21875 31.78125 74.21875 
Q 42.671875 74.21875 48.875 69.140625 
Q 55.078125 64.0625 55.078125 55.328125 
Q 55.078125 49.078125 51.53125 44.71875 
Q 48 40.375 41.703125 38.8125 
Q 48.828125 37.15625 52.796875 32.3125 
Q 56.78125 27.484375 56.78125 20.515625 
Q 56.78125 9.90625 50.3125 4.234375 
Q 43.84375 -1.421875 31.78125 -1.421875 
Q 19.734375 -1.421875 13.25 4.234375 
Q 6.78125 9.90625 6.78125 20.515625 
Q 6.78125 27.484375 10.78125 32.3125 
Q 14.796875 37.15625 21.921875 38.8125 
z
M 18.3125 54.390625 
Q 18.3125 48.734375 21.84375 45.5625 
Q 25.390625 42.390625 31.78125 42.390625 
Q 38.140625 42.390625 41.71875 45.5625 
Q 45.3125 48.734375 45.3125 54.390625 
Q 45.3125 60.0625 41.71875 63.234375 
Q 38.140625 66.40625 31.78125 66.40625 
Q 25.390625 66.40625 21.84375 63.234375 
Q 18.3125 60.0625 18.3125 54.390625 
z
" id="DejaVuSans-56"/>
        <path d="M 37.796875 64.3125 
L 12.890625 25.390625 
L 37.796875 25.390625 
z
M 35.203125 72.90625 
L 47.609375 72.90625 
L 47.609375 25.390625 
L 58.015625 25.390625 
L 58.015625 17.1875 
L 47.609375 17.1875 
L 47.609375 0 
L 37.796875 0 
L 37.796875 17.1875 
L 4.890625 17.1875 
L 4.890625 26.703125 
z
" id="DejaVuSans-52"/>
       </defs>
       <use xlink:href="#DejaVuSans-56"/>
       <use x="63.623047" xlink:href="#DejaVuSans-52"/>
      </g>
     </g>
    </g>
    <g id="xtick_2">
     <g id="line2d_2">
      <g>
       <use style="stroke:#000000;stroke-width:0.8;" x="255.6" xlink:href="#m844b5b98af" y="504"/>
      </g>
     </g>
     <g id="text_2">
      <!-- 86 -->
      <g transform="translate(240.33 529.23625)scale(0.24 -0.24)">
       <defs>
        <path d="M 33.015625 40.375 
Q 26.375 40.375 22.484375 35.828125 
Q 18.609375 31.296875 18.609375 23.390625 
Q 18.609375 15.53125 22.484375 10.953125 
Q 26.375 6.390625 33.015625 6.390625 
Q 39.65625 6.390625 43.53125 10.953125 
Q 47.40625 15.53125 47.40625 23.390625 
Q 47.40625 31.296875 43.53125 35.828125 
Q 39.65625 40.375 33.015625 40.375 
z
M 52.59375 71.296875 
L 52.59375 62.3125 
Q 48.875 64.0625 45.09375 64.984375 
Q 41.3125 65.921875 37.59375 65.921875 
Q 27.828125 65.921875 22.671875 59.328125 
Q 17.53125 52.734375 16.796875 39.40625 
Q 19.671875 43.65625 24.015625 45.921875 
Q 28.375 48.1875 33.59375 48.1875 
Q 44.578125 48.1875 50.953125 41.515625 
Q 57.328125 34.859375 57.328125 23.390625 
Q 57.328125 12.15625 50.6875 5.359375 
Q 44.046875 -1.421875 33.015625 -1.421875 
Q 20.359375 -1.421875 13.671875 8.265625 
Q 6.984375 17.96875 6.984375 36.375 
Q 6.984375 53.65625 15.1875 63.9375 
Q 23.390625 74.21875 37.203125 74.21875 
Q 40.921875 74.21875 44.703125 73.484375 
Q 48.484375 72.75 52.59375 71.296875 
z
" id="DejaVuSans-54"/>
       </defs>
       <use xlink:href="#DejaVuSans-56"/>
       <use x="63.623047" xlink:href="#DejaVuSans-54"/>
      </g>
     </g>
    </g>
    <g id="xtick_3">
     <g id="line2d_3">
      <g>
       <use style="stroke:#000000;stroke-width:0.8;" x="367.2" xlink:href="#m844b5b98af" y="504"/>
      </g>
     </g>
     <g id="text_3">
      <!-- 88 -->
      <g transform="translate(351.93 529.23625)scale(0.24 -0.24)">
       <use xlink:href="#DejaVuSans-56"/>
       <use x="63.623047" xlink:href="#DejaVuSans-56"/>
      </g>
     </g>
    </g>
    <g id="xtick_4">
     <g id="line2d_4">
      <g>
       <use style="stroke:#000000;stroke-width:0.8;" x="478.8" xlink:href="#m844b5b98af" y="504"/>
      </g>
     </g>
     <g id="text_4">
      <!-- 90 -->
      <g transform="translate(463.53 529.23625)scale(0.24 -0.24)">
       <defs>
        <path d="M 10.984375 1.515625 
L 10.984375 10.5 
Q 14.703125 8.734375 18.5 7.8125 
Q 22.3125 6.890625 25.984375 6.890625 
Q 35.75 6.890625 40.890625 13.453125 
Q 46.046875 20.015625 46.78125 33.40625 
Q 43.953125 29.203125 39.59375 26.953125 
Q 35.25 24.703125 29.984375 24.703125 
Q 19.046875 24.703125 12.671875 31.3125 
Q 6.296875 37.9375 6.296875 49.421875 
Q 6.296875 60.640625 12.9375 67.421875 
Q 19.578125 74.21875 30.609375 74.21875 
Q 43.265625 74.21875 49.921875 64.515625 
Q 56.59375 54.828125 56.59375 36.375 
Q 56.59375 19.140625 48.40625 8.859375 
Q 40.234375 -1.421875 26.421875 -1.421875 
Q 22.703125 -1.421875 18.890625 -0.6875 
Q 15.09375 0.046875 10.984375 1.515625 
z
M 30.609375 32.421875 
Q 37.25 32.421875 41.125 36.953125 
Q 45.015625 41.5 45.015625 49.421875 
Q 45.015625 57.28125 41.125 61.84375 
Q 37.25 66.40625 30.609375 66.40625 
Q 23.96875 66.40625 20.09375 61.84375 
Q 16.21875 57.28125 16.21875 49.421875 
Q 16.21875 41.5 20.09375 36.953125 
Q 23.96875 32.421875 30.609375 32.421875 
z
" id="DejaVuSans-57"/>
        <path d="M 31.78125 66.40625 
Q 24.171875 66.40625 20.328125 58.90625 
Q 16.5 51.421875 16.5 36.375 
Q 16.5 21.390625 20.328125 13.890625 
Q 24.171875 6.390625 31.78125 6.390625 
Q 39.453125 6.390625 43.28125 13.890625 
Q 47.125 21.390625 47.125 36.375 
Q 47.125 51.421875 43.28125 58.90625 
Q 39.453125 66.40625 31.78125 66.40625 
z
M 31.78125 74.21875 
Q 44.046875 74.21875 50.515625 64.515625 
Q 56.984375 54.828125 56.984375 36.375 
Q 56.984375 17.96875 50.515625 8.265625 
Q 44.046875 -1.421875 31.78125 -1.421875 
Q 19.53125 -1.421875 13.0625 8.265625 
Q 6.59375 17.96875 6.59375 36.375 
Q 6.59375 54.828125 13.0625 64.515625 
Q 19.53125 74.21875 31.78125 74.21875 
z
" id="DejaVuSans-48"/>
       </defs>
       <use xlink:href="#DejaVuSans-57"/>
       <use x="63.623047" xlink:href="#DejaVuSans-48"/>
      </g>
     </g>
    </g>
    <g id="xtick_5">
     <g id="line2d_5">
      <g>
       <use style="stroke:#000000;stroke-width:0.8;" x="590.4" xlink:href="#m844b5b98af" y="504"/>
      </g>
     </g>
     <g id="text_5">
      <!-- 92 -->
      <g transform="translate(575.13 529.23625)scale(0.24 -0.24)">
       <defs>
        <path d="M 19.1875 8.296875 
L 53.609375 8.296875 
L 53.609375 0 
L 7.328125 0 
L 7.328125 8.296875 
Q 12.9375 14.109375 22.625 23.890625 
Q 32.328125 33.6875 34.8125 36.53125 
Q 39.546875 41.84375 41.421875 45.53125 
Q 43.3125 49.21875 43.3125 52.78125 
Q 43.3125 58.59375 39.234375 62.25 
Q 35.15625 65.921875 28.609375 65.921875 
Q 23.96875 65.921875 18.8125 64.3125 
Q 13.671875 62.703125 7.8125 59.421875 
L 7.8125 69.390625 
Q 13.765625 71.78125 18.9375 73 
Q 24.125 74.21875 28.421875 74.21875 
Q 39.75 74.21875 46.484375 68.546875 
Q 53.21875 62.890625 53.21875 53.421875 
Q 53.21875 48.921875 51.53125 44.890625 
Q 49.859375 40.875 45.40625 35.40625 
Q 44.1875 33.984375 37.640625 27.21875 
Q 31.109375 20.453125 19.1875 8.296875 
z
" id="DejaVuSans-50"/>
       </defs>
       <use xlink:href="#DejaVuSans-57"/>
       <use x="63.623047" xlink:href="#DejaVuSans-50"/>
      </g>
     </g>
    </g>
    <g id="xtick_6">
     <g id="line2d_6">
      <g>
       <use style="stroke:#000000;stroke-width:0.8;" x="702" xlink:href="#m844b5b98af" y="504"/>
      </g>
     </g>
     <g id="text_6">
      <!-- 94 -->
      <g transform="translate(686.73 529.23625)scale(0.24 -0.24)">
       <use xlink:href="#DejaVuSans-57"/>
       <use x="63.623047" xlink:href="#DejaVuSans-52"/>
      </g>
     </g>
    </g>
    <g id="xtick_7">
     <g id="line2d_7">
      <g>
       <use style="stroke:#000000;stroke-width:0.8;" x="813.6" xlink:href="#m844b5b98af" y="504"/>
      </g>
     </g>
     <g id="text_7">
      <!-- 96 -->
      <g transform="translate(798.33 529.23625)scale(0.24 -0.24)">
       <use xlink:href="#DejaVuSans-57"/>
       <use x="63.623047" xlink:href="#DejaVuSans-54"/>
      </g>
     </g>
    </g>
    <g id="xtick_8">
     <g id="line2d_8">
      <g>
       <use style="stroke:#000000;stroke-width:0.8;" x="925.2" xlink:href="#m844b5b98af" y="504"/>
      </g>
     </g>
     <g id="text_8">
      <!-- 98 -->
      <g transform="translate(909.93 529.23625)scale(0.24 -0.24)">
       <use xlink:href="#DejaVuSans-57"/>
       <use x="63.623047" xlink:href="#DejaVuSans-56"/>
      </g>
     </g>
    </g>
    <g id="xtick_9">
     <g id="line2d_9">
      <g>
       <use style="stroke:#000000;stroke-width:0.8;" x="1036.8" xlink:href="#m844b5b98af" y="504"/>
      </g>
     </g>
     <g id="text_9">
      <!-- 100 -->
      <g transform="translate(1013.895 529.23625)scale(0.24 -0.24)">
       <defs>
        <path d="M 12.40625 8.296875 
L 28.515625 8.296875 
L 28.515625 63.921875 
L 10.984375 60.40625 
L 10.984375 69.390625 
L 28.421875 72.90625 
L 38.28125 72.90625 
L 38.28125 8.296875 
L 54.390625 8.296875 
L 54.390625 0 
L 12.40625 0 
z
" id="DejaVuSans-49"/>
       </defs>
       <use xlink:href="#DejaVuSans-49"/>
       <use x="63.623047" xlink:href="#DejaVuSans-48"/>
       <use x="127.246094" xlink:href="#DejaVuSans-48"/>
      </g>
     </g>
    </g>
    <g id="text_10">
     <!-- Accuracy /% -->
     <g transform="translate(504.013437 559.503125)scale(0.28 -0.28)">
      <defs>
       <path d="M 34.1875 63.1875 
L 20.796875 26.90625 
L 47.609375 26.90625 
z
M 28.609375 72.90625 
L 39.796875 72.90625 
L 67.578125 0 
L 57.328125 0 
L 50.6875 18.703125 
L 17.828125 18.703125 
L 11.1875 0 
L 0.78125 0 
z
" id="DejaVuSans-65"/>
       <path d="M 48.78125 52.59375 
L 48.78125 44.1875 
Q 44.96875 46.296875 41.140625 47.34375 
Q 37.3125 48.390625 33.40625 48.390625 
Q 24.65625 48.390625 19.8125 42.84375 
Q 14.984375 37.3125 14.984375 27.296875 
Q 14.984375 17.28125 19.8125 11.734375 
Q 24.65625 6.203125 33.40625 6.203125 
Q 37.3125 6.203125 41.140625 7.25 
Q 44.96875 8.296875 48.78125 10.40625 
L 48.78125 2.09375 
Q 45.015625 0.34375 40.984375 -0.53125 
Q 36.96875 -1.421875 32.421875 -1.421875 
Q 20.0625 -1.421875 12.78125 6.34375 
Q 5.515625 14.109375 5.515625 27.296875 
Q 5.515625 40.671875 12.859375 48.328125 
Q 20.21875 56 33.015625 56 
Q 37.15625 56 41.109375 55.140625 
Q 45.0625 54.296875 48.78125 52.59375 
z
" id="DejaVuSans-99"/>
       <path d="M 8.5 21.578125 
L 8.5 54.6875 
L 17.484375 54.6875 
L 17.484375 21.921875 
Q 17.484375 14.15625 20.5 10.265625 
Q 23.53125 6.390625 29.59375 6.390625 
Q 36.859375 6.390625 41.078125 11.03125 
Q 45.3125 15.671875 45.3125 23.6875 
L 45.3125 54.6875 
L 54.296875 54.6875 
L 54.296875 0 
L 45.3125 0 
L 45.3125 8.40625 
Q 42.046875 3.421875 37.71875 1 
Q 33.40625 -1.421875 27.6875 -1.421875 
Q 18.265625 -1.421875 13.375 4.4375 
Q 8.5 10.296875 8.5 21.578125 
z
M 31.109375 56 
z
" id="DejaVuSans-117"/>
       <path d="M 41.109375 46.296875 
Q 39.59375 47.171875 37.8125 47.578125 
Q 36.03125 48 33.890625 48 
Q 26.265625 48 22.1875 43.046875 
Q 18.109375 38.09375 18.109375 28.8125 
L 18.109375 0 
L 9.078125 0 
L 9.078125 54.6875 
L 18.109375 54.6875 
L 18.109375 46.1875 
Q 20.953125 51.171875 25.484375 53.578125 
Q 30.03125 56 36.53125 56 
Q 37.453125 56 38.578125 55.875 
Q 39.703125 55.765625 41.0625 55.515625 
z
" id="DejaVuSans-114"/>
       <path d="M 34.28125 27.484375 
Q 23.390625 27.484375 19.1875 25 
Q 14.984375 22.515625 14.984375 16.5 
Q 14.984375 11.71875 18.140625 8.90625 
Q 21.296875 6.109375 26.703125 6.109375 
Q 34.1875 6.109375 38.703125 11.40625 
Q 43.21875 16.703125 43.21875 25.484375 
L 43.21875 27.484375 
z
M 52.203125 31.203125 
L 52.203125 0 
L 43.21875 0 
L 43.21875 8.296875 
Q 40.140625 3.328125 35.546875 0.953125 
Q 30.953125 -1.421875 24.3125 -1.421875 
Q 15.921875 -1.421875 10.953125 3.296875 
Q 6 8.015625 6 15.921875 
Q 6 25.140625 12.171875 29.828125 
Q 18.359375 34.515625 30.609375 34.515625 
L 43.21875 34.515625 
L 43.21875 35.40625 
Q 43.21875 41.609375 39.140625 45 
Q 35.0625 48.390625 27.6875 48.390625 
Q 23 48.390625 18.546875 47.265625 
Q 14.109375 46.140625 10.015625 43.890625 
L 10.015625 52.203125 
Q 14.9375 54.109375 19.578125 55.046875 
Q 24.21875 56 28.609375 56 
Q 40.484375 56 46.34375 49.84375 
Q 52.203125 43.703125 52.203125 31.203125 
z
" id="DejaVuSans-97"/>
       <path d="M 32.171875 -5.078125 
Q 28.375 -14.84375 24.75 -17.8125 
Q 21.140625 -20.796875 15.09375 -20.796875 
L 7.90625 -20.796875 
L 7.90625 -13.28125 
L 13.1875 -13.28125 
Q 16.890625 -13.28125 18.9375 -11.515625 
Q 21 -9.765625 23.484375 -3.21875 
L 25.09375 0.875 
L 2.984375 54.6875 
L 12.5 54.6875 
L 29.59375 11.921875 
L 46.6875 54.6875 
L 56.203125 54.6875 
z
" id="DejaVuSans-121"/>
       <path id="DejaVuSans-32"/>
       <path d="M 25.390625 72.90625 
L 33.6875 72.90625 
L 8.296875 -9.28125 
L 0 -9.28125 
z
" id="DejaVuSans-47"/>
       <path d="M 72.703125 32.078125 
Q 68.453125 32.078125 66.03125 28.46875 
Q 63.625 24.859375 63.625 18.40625 
Q 63.625 12.0625 66.03125 8.421875 
Q 68.453125 4.78125 72.703125 4.78125 
Q 76.859375 4.78125 79.265625 8.421875 
Q 81.6875 12.0625 81.6875 18.40625 
Q 81.6875 24.8125 79.265625 28.4375 
Q 76.859375 32.078125 72.703125 32.078125 
z
M 72.703125 38.28125 
Q 80.421875 38.28125 84.953125 32.90625 
Q 89.5 27.546875 89.5 18.40625 
Q 89.5 9.28125 84.9375 3.921875 
Q 80.375 -1.421875 72.703125 -1.421875 
Q 64.890625 -1.421875 60.34375 3.921875 
Q 55.8125 9.28125 55.8125 18.40625 
Q 55.8125 27.59375 60.375 32.9375 
Q 64.9375 38.28125 72.703125 38.28125 
z
M 22.3125 68.015625 
Q 18.109375 68.015625 15.6875 64.375 
Q 13.28125 60.75 13.28125 54.390625 
Q 13.28125 47.953125 15.671875 44.328125 
Q 18.0625 40.71875 22.3125 40.71875 
Q 26.5625 40.71875 28.96875 44.328125 
Q 31.390625 47.953125 31.390625 54.390625 
Q 31.390625 60.6875 28.953125 64.34375 
Q 26.515625 68.015625 22.3125 68.015625 
z
M 66.40625 74.21875 
L 74.21875 74.21875 
L 28.609375 -1.421875 
L 20.796875 -1.421875 
z
M 22.3125 74.21875 
Q 30.03125 74.21875 34.609375 68.875 
Q 39.203125 63.53125 39.203125 54.390625 
Q 39.203125 45.171875 34.640625 39.84375 
Q 30.078125 34.515625 22.3125 34.515625 
Q 14.546875 34.515625 10.03125 39.859375 
Q 5.515625 45.21875 5.515625 54.390625 
Q 5.515625 63.484375 10.046875 68.84375 
Q 14.59375 74.21875 22.3125 74.21875 
z
" id="DejaVuSans-37"/>
      </defs>
      <use xlink:href="#DejaVuSans-65"/>
      <use x="66.658203" xlink:href="#DejaVuSans-99"/>
      <use x="121.638672" xlink:href="#DejaVuSans-99"/>
      <use x="176.619141" xlink:href="#DejaVuSans-117"/>
      <use x="239.998047" xlink:href="#DejaVuSans-114"/>
      <use x="281.111328" xlink:href="#DejaVuSans-97"/>
      <use x="342.390625" xlink:href="#DejaVuSans-99"/>
      <use x="397.371094" xlink:href="#DejaVuSans-121"/>
      <use x="456.550781" xlink:href="#DejaVuSans-32"/>
      <use x="488.337891" xlink:href="#DejaVuSans-47"/>
      <use x="522.029297" xlink:href="#DejaVuSans-37"/>
     </g>
    </g>
   </g>
   <g id="matplotlib.axis_2">
    <g id="ytick_1">
     <g id="line2d_10">
      <defs>
       <path d="M 0 0 
L -3.5 0 
" id="m7ea35590cf" style="stroke:#000000;stroke-width:0.8;"/>
      </defs>
      <g>
       <use style="stroke:#000000;stroke-width:0.8;" x="144" xlink:href="#m7ea35590cf" y="504"/>
      </g>
     </g>
     <g id="text_11">
      <!-- $\mathdefault{10^{3}}$ -->
      <g transform="translate(94.76 513.118125)scale(0.24 -0.24)">
       <defs>
        <path d="M 40.578125 39.3125 
Q 47.65625 37.796875 51.625 33 
Q 55.609375 28.21875 55.609375 21.1875 
Q 55.609375 10.40625 48.1875 4.484375 
Q 40.765625 -1.421875 27.09375 -1.421875 
Q 22.515625 -1.421875 17.65625 -0.515625 
Q 12.796875 0.390625 7.625 2.203125 
L 7.625 11.71875 
Q 11.71875 9.328125 16.59375 8.109375 
Q 21.484375 6.890625 26.8125 6.890625 
Q 36.078125 6.890625 40.9375 10.546875 
Q 45.796875 14.203125 45.796875 21.1875 
Q 45.796875 27.640625 41.28125 31.265625 
Q 36.765625 34.90625 28.71875 34.90625 
L 20.21875 34.90625 
L 20.21875 43.015625 
L 29.109375 43.015625 
Q 36.375 43.015625 40.234375 45.921875 
Q 44.09375 48.828125 44.09375 54.296875 
Q 44.09375 59.90625 40.109375 62.90625 
Q 36.140625 65.921875 28.71875 65.921875 
Q 24.65625 65.921875 20.015625 65.03125 
Q 15.375 64.15625 9.8125 62.3125 
L 9.8125 71.09375 
Q 15.4375 72.65625 20.34375 73.4375 
Q 25.25 74.21875 29.59375 74.21875 
Q 40.828125 74.21875 47.359375 69.109375 
Q 53.90625 64.015625 53.90625 55.328125 
Q 53.90625 49.265625 50.4375 45.09375 
Q 46.96875 40.921875 40.578125 39.3125 
z
" id="DejaVuSans-51"/>
       </defs>
       <use transform="translate(0 0.765625)" xlink:href="#DejaVuSans-49"/>
       <use transform="translate(63.623047 0.765625)" xlink:href="#DejaVuSans-48"/>
       <use transform="translate(128.203125 39.046875)scale(0.7)" xlink:href="#DejaVuSans-51"/>
      </g>
     </g>
    </g>
    <g id="ytick_2">
     <g id="line2d_11">
      <g>
       <use style="stroke:#000000;stroke-width:0.8;" x="144" xlink:href="#m7ea35590cf" y="322.644337"/>
      </g>
     </g>
     <g id="text_12">
      <!-- $\mathdefault{10^{4}}$ -->
      <g transform="translate(94.76 331.762462)scale(0.24 -0.24)">
       <use transform="translate(0 0.684375)" xlink:href="#DejaVuSans-49"/>
       <use transform="translate(63.623047 0.684375)" xlink:href="#DejaVuSans-48"/>
       <use transform="translate(128.203125 38.965625)scale(0.7)" xlink:href="#DejaVuSans-52"/>
      </g>
     </g>
    </g>
    <g id="ytick_3">
     <g id="line2d_12">
      <g>
       <use style="stroke:#000000;stroke-width:0.8;" x="144" xlink:href="#m7ea35590cf" y="141.288674"/>
      </g>
     </g>
     <g id="text_13">
      <!-- $\mathdefault{10^{5}}$ -->
      <g transform="translate(94.76 150.406799)scale(0.24 -0.24)">
       <defs>
        <path d="M 10.796875 72.90625 
L 49.515625 72.90625 
L 49.515625 64.59375 
L 19.828125 64.59375 
L 19.828125 46.734375 
Q 21.96875 47.46875 24.109375 47.828125 
Q 26.265625 48.1875 28.421875 48.1875 
Q 40.625 48.1875 47.75 41.5 
Q 54.890625 34.8125 54.890625 23.390625 
Q 54.890625 11.625 47.5625 5.09375 
Q 40.234375 -1.421875 26.90625 -1.421875 
Q 22.3125 -1.421875 17.546875 -0.640625 
Q 12.796875 0.140625 7.71875 1.703125 
L 7.71875 11.625 
Q 12.109375 9.234375 16.796875 8.0625 
Q 21.484375 6.890625 26.703125 6.890625 
Q 35.15625 6.890625 40.078125 11.328125 
Q 45.015625 15.765625 45.015625 23.390625 
Q 45.015625 31 40.078125 35.4375 
Q 35.15625 39.890625 26.703125 39.890625 
Q 22.75 39.890625 18.8125 39.015625 
Q 14.890625 38.140625 10.796875 36.28125 
z
" id="DejaVuSans-53"/>
       </defs>
       <use transform="translate(0 0.684375)" xlink:href="#DejaVuSans-49"/>
       <use transform="translate(63.623047 0.684375)" xlink:href="#DejaVuSans-48"/>
       <use transform="translate(128.203125 38.965625)scale(0.7)" xlink:href="#DejaVuSans-53"/>
      </g>
     </g>
    </g>
    <g id="ytick_4">
     <g id="line2d_13">
      <defs>
       <path d="M 0 0 
L -2 0 
" id="m94d34f26b6" style="stroke:#000000;stroke-width:0.6;"/>
      </defs>
      <g>
       <use style="stroke:#000000;stroke-width:0.6;" x="144" xlink:href="#m94d34f26b6" y="449.406506"/>
      </g>
     </g>
    </g>
    <g id="ytick_5">
     <g id="line2d_14">
      <g>
       <use style="stroke:#000000;stroke-width:0.6;" x="144" xlink:href="#m94d34f26b6" y="417.471359"/>
      </g>
     </g>
    </g>
    <g id="ytick_6">
     <g id="line2d_15">
      <g>
       <use style="stroke:#000000;stroke-width:0.6;" x="144" xlink:href="#m94d34f26b6" y="394.813011"/>
      </g>
     </g>
    </g>
    <g id="ytick_7">
     <g id="line2d_16">
      <g>
       <use style="stroke:#000000;stroke-width:0.6;" x="144" xlink:href="#m94d34f26b6" y="377.237831"/>
      </g>
     </g>
    </g>
    <g id="ytick_8">
     <g id="line2d_17">
      <g>
       <use style="stroke:#000000;stroke-width:0.6;" x="144" xlink:href="#m94d34f26b6" y="362.877864"/>
      </g>
     </g>
    </g>
    <g id="ytick_9">
     <g id="line2d_18">
      <g>
       <use style="stroke:#000000;stroke-width:0.6;" x="144" xlink:href="#m94d34f26b6" y="350.736685"/>
      </g>
     </g>
    </g>
    <g id="ytick_10">
     <g id="line2d_19">
      <g>
       <use style="stroke:#000000;stroke-width:0.6;" x="144" xlink:href="#m94d34f26b6" y="340.219517"/>
      </g>
     </g>
    </g>
    <g id="ytick_11">
     <g id="line2d_20">
      <g>
       <use style="stroke:#000000;stroke-width:0.6;" x="144" xlink:href="#m94d34f26b6" y="330.942717"/>
      </g>
     </g>
    </g>
    <g id="ytick_12">
     <g id="line2d_21">
      <g>
       <use style="stroke:#000000;stroke-width:0.6;" x="144" xlink:href="#m94d34f26b6" y="268.050843"/>
      </g>
     </g>
    </g>
    <g id="ytick_13">
     <g id="line2d_22">
      <g>
       <use style="stroke:#000000;stroke-width:0.6;" x="144" xlink:href="#m94d34f26b6" y="236.115696"/>
      </g>
     </g>
    </g>
    <g id="ytick_14">
     <g id="line2d_23">
      <g>
       <use style="stroke:#000000;stroke-width:0.6;" x="144" xlink:href="#m94d34f26b6" y="213.457348"/>
      </g>
     </g>
    </g>
    <g id="ytick_15">
     <g id="line2d_24">
      <g>
       <use style="stroke:#000000;stroke-width:0.6;" x="144" xlink:href="#m94d34f26b6" y="195.882169"/>
      </g>
     </g>
    </g>
    <g id="ytick_16">
     <g id="line2d_25">
      <g>
       <use style="stroke:#000000;stroke-width:0.6;" x="144" xlink:href="#m94d34f26b6" y="181.522201"/>
      </g>
     </g>
    </g>
    <g id="ytick_17">
     <g id="line2d_26">
      <g>
       <use style="stroke:#000000;stroke-width:0.6;" x="144" xlink:href="#m94d34f26b6" y="169.381022"/>
      </g>
     </g>
    </g>
    <g id="ytick_18">
     <g id="line2d_27">
      <g>
       <use style="stroke:#000000;stroke-width:0.6;" x="144" xlink:href="#m94d34f26b6" y="158.863854"/>
      </g>
     </g>
    </g>
    <g id="ytick_19">
     <g id="line2d_28">
      <g>
       <use style="stroke:#000000;stroke-width:0.6;" x="144" xlink:href="#m94d34f26b6" y="149.587054"/>
      </g>
     </g>
    </g>
    <g id="ytick_20">
     <g id="line2d_29">
      <g>
       <use style="stroke:#000000;stroke-width:0.6;" x="144" xlink:href="#m94d34f26b6" y="86.69518"/>
      </g>
     </g>
    </g>
    <g id="text_14">
     <!-- Energy /A.U. -->
     <g transform="translate(84.936875 373.22)rotate(-90)scale(0.28 -0.28)">
      <defs>
       <path d="M 9.8125 72.90625 
L 55.90625 72.90625 
L 55.90625 64.59375 
L 19.671875 64.59375 
L 19.671875 43.015625 
L 54.390625 43.015625 
L 54.390625 34.71875 
L 19.671875 34.71875 
L 19.671875 8.296875 
L 56.78125 8.296875 
L 56.78125 0 
L 9.8125 0 
z
" id="DejaVuSans-69"/>
       <path d="M 54.890625 33.015625 
L 54.890625 0 
L 45.90625 0 
L 45.90625 32.71875 
Q 45.90625 40.484375 42.875 44.328125 
Q 39.84375 48.1875 33.796875 48.1875 
Q 26.515625 48.1875 22.3125 43.546875 
Q 18.109375 38.921875 18.109375 30.90625 
L 18.109375 0 
L 9.078125 0 
L 9.078125 54.6875 
L 18.109375 54.6875 
L 18.109375 46.1875 
Q 21.34375 51.125 25.703125 53.5625 
Q 30.078125 56 35.796875 56 
Q 45.21875 56 50.046875 50.171875 
Q 54.890625 44.34375 54.890625 33.015625 
z
" id="DejaVuSans-110"/>
       <path d="M 56.203125 29.59375 
L 56.203125 25.203125 
L 14.890625 25.203125 
Q 15.484375 15.921875 20.484375 11.0625 
Q 25.484375 6.203125 34.421875 6.203125 
Q 39.59375 6.203125 44.453125 7.46875 
Q 49.3125 8.734375 54.109375 11.28125 
L 54.109375 2.78125 
Q 49.265625 0.734375 44.1875 -0.34375 
Q 39.109375 -1.421875 33.890625 -1.421875 
Q 20.796875 -1.421875 13.15625 6.1875 
Q 5.515625 13.8125 5.515625 26.8125 
Q 5.515625 40.234375 12.765625 48.109375 
Q 20.015625 56 32.328125 56 
Q 43.359375 56 49.78125 48.890625 
Q 56.203125 41.796875 56.203125 29.59375 
z
M 47.21875 32.234375 
Q 47.125 39.59375 43.09375 43.984375 
Q 39.0625 48.390625 32.421875 48.390625 
Q 24.90625 48.390625 20.390625 44.140625 
Q 15.875 39.890625 15.1875 32.171875 
z
" id="DejaVuSans-101"/>
       <path d="M 45.40625 27.984375 
Q 45.40625 37.75 41.375 43.109375 
Q 37.359375 48.484375 30.078125 48.484375 
Q 22.859375 48.484375 18.828125 43.109375 
Q 14.796875 37.75 14.796875 27.984375 
Q 14.796875 18.265625 18.828125 12.890625 
Q 22.859375 7.515625 30.078125 7.515625 
Q 37.359375 7.515625 41.375 12.890625 
Q 45.40625 18.265625 45.40625 27.984375 
z
M 54.390625 6.78125 
Q 54.390625 -7.171875 48.1875 -13.984375 
Q 42 -20.796875 29.203125 -20.796875 
Q 24.46875 -20.796875 20.265625 -20.09375 
Q 16.0625 -19.390625 12.109375 -17.921875 
L 12.109375 -9.1875 
Q 16.0625 -11.328125 19.921875 -12.34375 
Q 23.78125 -13.375 27.78125 -13.375 
Q 36.625 -13.375 41.015625 -8.765625 
Q 45.40625 -4.15625 45.40625 5.171875 
L 45.40625 9.625 
Q 42.625 4.78125 38.28125 2.390625 
Q 33.9375 0 27.875 0 
Q 17.828125 0 11.671875 7.65625 
Q 5.515625 15.328125 5.515625 27.984375 
Q 5.515625 40.671875 11.671875 48.328125 
Q 17.828125 56 27.875 56 
Q 33.9375 56 38.28125 53.609375 
Q 42.625 51.21875 45.40625 46.390625 
L 45.40625 54.6875 
L 54.390625 54.6875 
z
" id="DejaVuSans-103"/>
       <path d="M 10.6875 12.40625 
L 21 12.40625 
L 21 0 
L 10.6875 0 
z
" id="DejaVuSans-46"/>
       <path d="M 8.6875 72.90625 
L 18.609375 72.90625 
L 18.609375 28.609375 
Q 18.609375 16.890625 22.84375 11.734375 
Q 27.09375 6.59375 36.625 6.59375 
Q 46.09375 6.59375 50.34375 11.734375 
Q 54.59375 16.890625 54.59375 28.609375 
L 54.59375 72.90625 
L 64.5 72.90625 
L 64.5 27.390625 
Q 64.5 13.140625 57.4375 5.859375 
Q 50.390625 -1.421875 36.625 -1.421875 
Q 22.796875 -1.421875 15.734375 5.859375 
Q 8.6875 13.140625 8.6875 27.390625 
z
" id="DejaVuSans-85"/>
      </defs>
      <use xlink:href="#DejaVuSans-69"/>
      <use x="63.183594" xlink:href="#DejaVuSans-110"/>
      <use x="126.5625" xlink:href="#DejaVuSans-101"/>
      <use x="188.085938" xlink:href="#DejaVuSans-114"/>
      <use x="227.449219" xlink:href="#DejaVuSans-103"/>
      <use x="290.925781" xlink:href="#DejaVuSans-121"/>
      <use x="350.105469" xlink:href="#DejaVuSans-32"/>
      <use x="381.892578" xlink:href="#DejaVuSans-47"/>
      <use x="415.583984" xlink:href="#DejaVuSans-65"/>
      <use x="482.242188" xlink:href="#DejaVuSans-46"/>
      <use x="514.029297" xlink:href="#DejaVuSans-85"/>
      <use x="587.222656" xlink:href="#DejaVuSans-46"/>
     </g>
    </g>
   </g>
   <g id="line2d_30">
    <path clip-path="url(#p39b0195e19)" d="M -1 510.519412 
L 173.016 477.462998 
L 248.346 454.849017 
L 335.952 437.333496 
L 351.576 424.097479 
L 400.122 413.149281 
L 438.066 403.821699 
L 457.038 395.47871 
L 468.198 387.870599 
L 436.95 381.708629 
L 486.054 375.345841 
L 480.474 369.918339 
L 523.44 365.140292 
L 542.97 360.435015 
L 559.71 355.856759 
L 534.6 351.868617 
L 535.158 347.653087 
L 577.566 344.283879 
L 561.942 341.143019 
L 590.4 337.763009 
L 596.538 335.015852 
L 587.61 332.191055 
L 570.87 329.328049 
L 575.892 326.601711 
L 542.412 323.956133 
L 604.908 321.641265 
L 607.14 319.555152 
L 601.56 317.13066 
L 635.04 315.139687 
L 633.366 313.214257 
L 635.598 311.25693 
L 634.482 309.414334 
L 638.946 307.408108 
L 640.062 305.676561 
L 627.786 303.87008 
L 636.156 302.042372 
L 650.664 300.367892 
L 650.664 298.807276 
L 643.41 297.235638 
L 674.1 295.874817 
L 681.354 294.530574 
L 651.222 293.295531 
L 657.918 291.899127 
L 655.686 290.385482 
L 689.166 289.062277 
L 689.724 287.668828 
L 690.84 286.46716 
L 674.658 285.24749 
L 669.078 284.099358 
L 702 283.005257 
L 689.166 281.963978 
L 684.702 280.783702 
L 699.21 279.755625 
L 710.928 278.670715 
L 691.398 277.661274 
L 710.928 276.683553 
L 714.276 275.660061 
L 693.072 274.632861 
L 681.354 273.677274 
L 724.32 272.635994 
L 724.32 271.811568 
L 686.376 271.020155 
L 718.74 270.103312 
L 723.204 269.330348 
L 717.624 268.477267 
L 732.132 267.655956 
L 736.596 266.89765 
L 739.944 265.99647 
L 740.502 265.136012 
L 729.342 264.385675 
L 727.11 263.574631 
L 728.226 262.809604 
L 734.922 262.062124 
L 751.662 261.352747 
L 756.684 260.634622 
L 750.546 259.877563 
L 753.894 259.25088 
L 765.054 258.551891 
L 729.342 257.868345 
L 747.756 257.257047 
L 743.292 256.568836 
L 761.148 255.927691 
L 770.634 255.243413 
L 759.474 254.561013 
L 765.054 253.873362 
L 758.916 253.271568 
L 745.524 252.676715 
L 747.756 252.113967 
L 772.308 251.482076 
L 743.85 250.973867 
L 772.866 250.439125 
L 771.75 249.857782 
L 756.684 249.275977 
L 763.938 248.724553 
L 779.562 248.143626 
L 771.192 247.608299 
L 781.794 247.11276 
L 754.452 246.583323 
L 760.59 246.062965 
L 775.098 245.565781 
L 770.634 245.04662 
L 791.28 244.492308 
L 771.75 243.992646 
L 785.142 243.47132 
L 771.75 242.968885 
L 781.236 242.474346 
L 770.076 241.97869 
L 781.794 241.477409 
L 773.982 241.037433 
L 779.562 240.61735 
L 791.28 240.157527 
L 781.794 239.707507 
L 765.612 239.2493 
L 794.07 238.814635 
L 796.302 238.435391 
L 785.142 237.981608 
L 799.092 237.54475 
L 801.882 237.173764 
L 799.65 236.682724 
L 794.07 236.275876 
L 777.33 235.884011 
L 783.468 235.430934 
L 796.86 235.060119 
L 797.976 234.600637 
L 802.44 234.218265 
L 791.838 233.774366 
L 808.578 233.389747 
L 806.904 232.983564 
L 807.462 232.571042 
L 795.186 232.215324 
L 813.042 231.544273 
L 811.368 231.167262 
L 811.926 230.812422 
L 789.048 230.47128 
L 808.02 230.113288 
L 806.346 229.794046 
L 813.6 229.460182 
L 664.614 225.260765 
L 705.906 222.006 
L 724.878 219.065606 
L 748.314 216.498828 
L 749.988 214.231884 
L 734.922 211.898571 
L 771.192 209.827144 
L 772.866 207.971904 
L 775.656 206.155376 
L 795.744 204.356456 
L 792.396 202.703962 
L 797.418 201.096215 
L 801.882 199.512212 
L 802.998 198.016043 
L 797.418 196.5864 
L 815.274 195.205334 
L 813.042 193.838003 
L 813.042 192.492084 
L 823.644 191.221947 
L 817.506 189.964758 
L 821.97 188.717248 
L 816.39 187.587129 
L 834.804 186.431204 
L 833.13 185.367427 
L 828.666 184.28869 
L 830.898 183.259071 
L 838.71 182.278536 
L 832.572 181.225494 
L 847.08 179.300207 
L 847.08 178.326452 
L 844.29 177.407696 
L 844.29 176.538325 
L 844.848 175.670202 
L 850.428 174.798036 
L 854.892 173.949665 
L 849.87 173.094519 
L 851.544 172.251551 
L 857.682 171.435279 
L 857.124 170.644841 
L 856.008 169.875605 
L 853.776 169.119365 
L 854.334 168.455554 
L 862.704 167.043556 
L 861.03 166.280982 
L 856.008 165.516914 
L 854.334 164.768438 
L 866.052 164.068093 
L 869.4 163.373081 
L 875.538 162.738691 
L 866.61 162.094143 
L 868.842 161.432348 
L 869.4 160.83079 
L 872.19 160.258723 
L 851.544 159.565149 
L 877.77 158.977765 
L 881.118 158.378564 
L 874.98 157.793799 
L 877.212 157.180691 
L 880.56 156.530433 
L 871.074 155.968125 
L 876.654 155.414796 
L 872.748 154.858955 
L 877.212 154.31663 
L 879.444 153.778063 
L 882.234 153.247091 
L 880.002 152.727922 
L 878.886 152.202913 
L 881.118 151.659869 
L 887.256 151.178098 
L 879.444 150.617696 
L 887.814 150.073786 
L 885.024 149.579676 
L 887.814 149.073329 
L 888.372 148.62033 
L 885.024 148.144158 
L 887.256 147.695737 
L 891.72 147.227423 
L 887.814 146.734783 
L 892.836 146.275814 
L 887.256 145.799439 
L 895.068 145.34413 
L 896.184 144.890771 
L 896.184 144.454114 
L 897.3 144.025422 
L 900.648 143.569736 
L 892.278 143.158305 
L 893.952 142.738166 
L 891.72 142.288353 
L 900.648 141.892071 
L 892.836 141.490238 
L 898.416 141.089492 
L 901.206 140.666968 
L 891.162 140.289455 
L 893.952 139.88934 
L 900.09 139.4761 
L 898.974 139.085747 
L 897.3 138.719153 
L 898.416 138.29868 
L 893.394 137.897979 
L 892.836 137.490441 
L 900.09 137.129115 
L 900.648 136.720147 
L 892.836 136.365427 
L 902.88 136.023545 
L 903.438 135.672869 
L 894.51 135.281755 
L 898.974 134.944704 
L 896.742 134.564236 
L 909.576 133.876734 
L 896.742 133.511392 
L 893.394 133.145022 
L 902.322 132.816505 
L 905.67 132.474302 
L 906.786 132.157657 
L 900.648 131.536265 
L 899.532 131.182852 
L 902.88 130.874057 
L 910.134 130.527358 
L 900.09 130.198153 
L 906.228 129.846826 
L 895.626 129.530205 
L 907.344 129.213901 
L 909.576 128.93634 
L 907.902 128.65489 
L 911.25 128.067966 
L 905.67 127.749628 
L 907.344 127.460255 
L 903.996 127.15648 
L 906.786 126.845964 
L 904.554 126.533256 
L 913.482 126.206687 
L 911.25 125.905788 
L 910.134 125.61517 
L 912.366 125.312477 
L 909.018 125.060075 
L 911.808 124.474079 
L 917.388 124.219883 
L 916.272 123.948967 
L 909.576 123.674835 
L 915.714 123.105888 
L 910.692 122.861762 
L 911.808 122.572519 
L 909.018 122.28014 
L 915.156 122.019241 
L 914.04 121.739324 
L 907.902 121.470028 
L 914.04 121.223542 
L 915.156 120.970726 
L 909.018 120.464185 
L 910.692 120.199197 
L 916.272 119.957639 
L 911.25 119.69551 
L 916.272 119.443638 
L 901.764 119.206392 
L 914.04 118.97001 
L 912.924 118.718287 
L 907.902 118.487053 
L 908.46 118.244882 
L 917.946 117.7878 
L 917.388 117.542384 
L 914.04 117.292168 
L 915.714 117.078356 
L 921.294 116.849885 
L 915.714 116.602414 
L 914.04 116.358177 
L 917.946 116.1516 
L 910.692 115.940393 
L 920.178 115.741015 
L 910.692 115.524605 
L 921.852 115.284539 
L 916.83 115.082336 
L 921.852 114.851249 
L 919.62 114.620431 
L 919.62 114.381983 
L 912.366 114.143638 
L 914.598 113.947821 
L 920.178 113.714933 
L 921.852 113.513639 
L 916.83 113.310581 
L 915.156 113.096684 
L 918.504 112.656296 
L 919.062 112.44461 
L 914.04 112.237986 
L 917.946 112.029977 
L 925.2 111.827286 
L 920.178 111.619113 
L 926.874 111.218261 
L 918.504 110.821117 
L 924.642 110.613644 
L 921.852 110.414619 
L 925.758 110.239396 
L 915.714 110.060618 
L 921.852 109.866192 
L 915.156 109.658793 
L 915.156 109.470405 
L 924.084 109.279223 
L 923.526 109.08264 
L 923.526 108.886178 
L 921.852 108.716764 
L 916.83 108.51665 
L 926.316 108.150785 
L 920.178 107.78582 
L 920.178 107.607105 
L 921.294 107.425676 
L 911.808 107.02935 
L 925.758 106.85648 
L 925.758 106.85648 
" style="fill:none;stroke:#4161ff;stroke-linecap:square;stroke-width:5;"/>
   </g>
   <g id="line2d_31">
    <path clip-path="url(#p39b0195e19)" d="M 141.768 428.185763 
L 339.858 378.965519 
L 411.282 352.10926 
L 450.342 333.126846 
L 463.176 318.798619 
L 509.49 307.270625 
L 518.976 297.676448 
L 555.804 289.183427 
L 545.76 281.357685 
L 568.638 274.91665 
L 585.378 268.859709 
L 600.444 263.633209 
L 612.72 258.766874 
L 628.344 254.201982 
L 630.018 249.79335 
L 639.504 245.836925 
L 643.968 242.013902 
L 653.454 238.683098 
L 657.36 235.50041 
L 666.846 232.318276 
L 670.194 229.535765 
L 670.752 226.743181 
L 693.63 224.044156 
L 683.586 221.540708 
L 676.332 219.121129 
L 699.768 216.907444 
L 694.746 214.874342 
L 708.138 212.65276 
L 710.37 210.650269 
L 727.668 208.732264 
L 729.342 206.759463 
L 733.248 204.94382 
L 738.27 203.094782 
L 729.342 201.379431 
L 752.22 199.74592 
L 752.22 198.131022 
L 761.148 196.568337 
L 759.474 195.085007 
L 760.59 193.605079 
L 765.054 192.255334 
L 771.75 190.949754 
L 768.96 189.705863 
L 770.076 188.374566 
L 768.402 187.039054 
L 780.12 185.787346 
L 782.91 184.50615 
L 789.048 183.33933 
L 787.374 182.214815 
L 804.672 181.116447 
L 798.534 180.063977 
L 804.114 179.033572 
L 800.766 177.966845 
L 806.904 176.962645 
L 803.556 175.9541 
L 802.998 174.991432 
L 808.02 174.0543 
L 821.412 173.114673 
L 814.158 172.160417 
L 813.042 171.293858 
L 820.296 170.368329 
L 821.412 169.51361 
L 825.318 168.717604 
L 830.898 167.875535 
L 824.76 167.102168 
L 830.898 166.295338 
L 843.174 165.531126 
L 835.362 164.792595 
L 840.384 163.954418 
L 835.362 163.14496 
L 835.362 162.409704 
L 841.5 161.652337 
L 845.406 160.952177 
L 845.964 160.248946 
L 844.848 159.556559 
L 846.522 158.85729 
L 847.638 158.14347 
L 854.892 157.524691 
L 850.986 156.864976 
L 843.732 156.217976 
L 843.174 155.578835 
L 845.406 154.937564 
L 856.008 154.313908 
L 850.986 153.702339 
L 856.566 153.109902 
L 857.124 152.47181 
L 855.45 151.905439 
L 852.102 151.330549 
L 856.566 150.773111 
L 857.682 150.198552 
L 863.82 149.679923 
L 858.24 149.160652 
L 864.378 148.602061 
L 860.472 148.036696 
L 871.632 147.506786 
L 866.61 145.930539 
L 867.168 145.430531 
L 869.958 144.913 
L 874.98 144.437297 
L 872.748 143.950046 
L 872.19 143.440307 
L 873.864 142.955162 
L 868.284 142.475848 
L 868.842 142.005429 
L 875.538 141.536419 
L 868.842 141.064981 
L 872.19 140.601022 
L 876.654 140.181203 
L 868.842 139.776415 
L 879.444 139.344904 
L 880.56 138.890579 
L 869.4 138.438168 
L 880.002 137.62642 
L 880.56 137.179906 
L 887.256 136.729127 
L 882.234 136.324581 
L 886.14 135.86664 
L 885.582 135.445553 
L 878.886 135.063093 
L 890.046 134.62106 
L 885.582 134.235352 
L 882.234 133.816865 
L 885.582 133.435095 
L 887.256 133.03253 
L 889.488 132.653426 
L 880.56 132.273423 
L 889.488 131.880484 
L 891.72 131.500868 
L 882.234 131.177538 
L 891.162 130.825901 
L 890.046 130.454976 
L 887.256 130.105387 
L 889.488 129.76044 
L 890.604 129.40716 
L 890.046 129.076715 
L 890.046 128.727419 
L 865.494 128.374974 
L 897.3 128.028304 
L 889.488 127.661066 
L 893.952 127.340972 
L 894.51 127.021069 
L 892.836 126.64959 
L 893.952 126.312335 
L 896.184 126.020139 
L 887.814 125.700788 
L 893.394 125.357701 
L 901.206 125.054745 
L 898.416 124.746963 
L 899.532 124.417259 
L 895.626 123.797367 
L 897.3 123.49185 
L 896.184 123.169051 
L 896.184 122.86317 
L 893.952 122.572031 
L 897.858 122.26502 
L 901.206 121.653296 
L 896.742 121.344 
L 900.09 121.065467 
L 901.764 120.783238 
L 902.322 120.495028 
L 895.626 119.919807 
L 901.206 119.63259 
L 897.858 119.34986 
L 897.3 119.050689 
L 893.394 118.796096 
L 902.322 118.537622 
L 905.112 118.272892 
L 903.438 117.995939 
L 900.648 117.719474 
L 903.438 117.439723 
L 896.742 117.173171 
L 901.764 116.903745 
L 901.206 116.635997 
L 904.554 116.376066 
L 904.554 116.11459 
L 903.438 115.908359 
L 904.554 115.664048 
L 906.228 115.41753 
L 903.438 115.148096 
L 896.742 114.875471 
L 902.322 114.609865 
L 903.438 114.36327 
L 901.764 114.100047 
L 907.902 113.861009 
L 909.018 113.618311 
L 900.09 113.378162 
L 909.018 113.148985 
L 907.902 112.935968 
L 901.764 112.678045 
L 910.692 112.465695 
L 909.018 112.227786 
L 901.764 111.99997 
L 910.692 111.752464 
L 906.228 111.258988 
L 911.25 111.038392 
L 901.764 110.817822 
L 905.67 110.589736 
L 902.322 110.372057 
L 909.018 110.16244 
L 909.576 109.947026 
L 912.366 109.729223 
L 910.134 109.500557 
L 911.808 109.29553 
L 902.88 109.052657 
L 916.272 108.803145 
L 905.112 108.584805 
L 911.25 108.171194 
L 906.228 107.970823 
L 912.924 107.588074 
L 910.134 107.370065 
L 902.88 107.167827 
L 907.902 106.952226 
L 907.344 106.754084 
L 910.692 106.343677 
L 908.46 106.146511 
L 915.156 105.930008 
L 914.04 105.746292 
L 905.67 105.555293 
L 915.714 105.344319 
L 917.946 105.169742 
L 912.366 104.982311 
L 919.62 104.797837 
L 917.388 104.595081 
L 908.46 104.217494 
L 915.156 104.020408 
L 912.366 103.839169 
L 916.272 103.654055 
L 914.04 103.45458 
L 909.018 103.261515 
L 906.786 103.064158 
L 915.156 102.893299 
L 906.786 102.694465 
L 913.482 102.517605 
L 908.46 102.352458 
L 909.018 102.179011 
L 912.924 101.987694 
L 910.692 101.82426 
L 915.156 101.463061 
L 914.598 101.283108 
L 912.924 101.093625 
L 909.018 100.902178 
L 913.482 100.737348 
L 907.344 100.556035 
L 916.272 100.393787 
L 902.322 100.079015 
L 912.366 99.89857 
L 912.366 99.740183 
L 917.388 99.565196 
L 906.228 99.394393 
L 912.924 99.20754 
L 909.018 99.042011 
L 916.272 98.73429 
L 910.692 98.591177 
L 919.62 98.424946 
L 915.714 98.283178 
L 915.156 98.114722 
L 920.736 97.960856 
L 909.576 97.802602 
L 915.714 97.640475 
L 912.924 97.471734 
L 916.272 97.291968 
L 914.598 97.132251 
L 911.25 96.973389 
L 917.946 96.814443 
L 919.062 96.671234 
L 917.946 96.520078 
L 917.946 96.355732 
L 919.62 96.075228 
L 914.04 95.925818 
L 916.83 95.616397 
L 915.156 95.487377 
L 910.134 95.329201 
L 911.25 95.165585 
L 916.83 95.023866 
L 914.598 94.867728 
L 909.576 94.717251 
L 918.504 94.444197 
L 916.272 94.296473 
L 910.692 94.152782 
L 919.062 93.867711 
L 917.946 93.719428 
L 914.04 93.576853 
L 919.62 93.306651 
L 914.04 93.037766 
L 914.598 92.900069 
L 914.598 92.773699 
L 919.62 92.643697 
L 911.25 92.506017 
L 917.946 92.362806 
L 918.504 92.236733 
L 922.41 92.101296 
L 916.272 91.814855 
L 917.388 91.694769 
L 912.366 91.574211 
L 919.062 91.460017 
L 909.018 91.334391 
L 920.736 91.197168 
L 919.062 91.080452 
L 920.178 90.943773 
L 917.388 90.810716 
L 919.62 90.668092 
L 914.598 90.525908 
L 920.178 90.412314 
L 917.946 90.273494 
L 920.736 90.043484 
L 914.04 89.788468 
L 920.736 89.664387 
L 916.272 89.41666 
L 917.388 89.295519 
L 920.736 89.174606 
L 920.736 89.047337 
L 921.294 88.928799 
L 918.504 88.803666 
L 922.41 88.689968 
L 919.62 88.56301 
L 925.758 88.43441 
L 917.946 88.211706 
L 920.736 88.10636 
L 914.598 87.861959 
L 920.178 87.634311 
L 917.946 87.518512 
L 918.504 87.402435 
L 915.156 87.297924 
L 919.62 86.953798 
L 919.62 86.845721 
L 925.2 86.731055 
L 915.156 86.620709 
L 923.526 86.506364 
L 912.924 86.261499 
L 920.736 86.161214 
L 920.736 86.161214 
" style="fill:none;stroke:#1f1f1f;stroke-linecap:square;stroke-width:5;"/>
   </g>
   <g id="patch_3">
    <path d="M 144 504 
L 144 69.12 
" style="fill:none;stroke:#000000;stroke-linecap:square;stroke-linejoin:miter;stroke-width:0.8;"/>
   </g>
   <g id="patch_4">
    <path d="M 1036.8 504 
L 1036.8 69.12 
" style="fill:none;stroke:#000000;stroke-linecap:square;stroke-linejoin:miter;stroke-width:0.8;"/>
   </g>
   <g id="patch_5">
    <path d="M 144 504 
L 1036.8 504 
" style="fill:none;stroke:#000000;stroke-linecap:square;stroke-linejoin:miter;stroke-width:0.8;"/>
   </g>
   <g id="patch_6">
    <path d="M 144 69.12 
L 1036.8 69.12 
" style="fill:none;stroke:#000000;stroke-linecap:square;stroke-linejoin:miter;stroke-width:0.8;"/>
   </g>
   <g id="text_15">
    <!-- Ungating @ 96% Accuracy 150 Units: Energy vs. Accuracy -->
    <g transform="translate(65.123438 61.633125)scale(0.36 -0.36)">
     <defs>
      <path d="M 18.3125 70.21875 
L 18.3125 54.6875 
L 36.8125 54.6875 
L 36.8125 47.703125 
L 18.3125 47.703125 
L 18.3125 18.015625 
Q 18.3125 11.328125 20.140625 9.421875 
Q 21.96875 7.515625 27.59375 7.515625 
L 36.8125 7.515625 
L 36.8125 0 
L 27.59375 0 
Q 17.1875 0 13.234375 3.875 
Q 9.28125 7.765625 9.28125 18.015625 
L 9.28125 47.703125 
L 2.6875 47.703125 
L 2.6875 54.6875 
L 9.28125 54.6875 
L 9.28125 70.21875 
z
" id="DejaVuSans-116"/>
      <path d="M 9.421875 54.6875 
L 18.40625 54.6875 
L 18.40625 0 
L 9.421875 0 
z
M 9.421875 75.984375 
L 18.40625 75.984375 
L 18.40625 64.59375 
L 9.421875 64.59375 
z
" id="DejaVuSans-105"/>
      <path d="M 37.203125 26.21875 
Q 37.203125 19.234375 40.671875 15.25 
Q 44.140625 11.28125 50.203125 11.28125 
Q 56.203125 11.28125 59.640625 15.28125 
Q 63.09375 19.28125 63.09375 26.21875 
Q 63.09375 33.0625 59.578125 37.078125 
Q 56.0625 41.109375 50.09375 41.109375 
Q 44.1875 41.109375 40.6875 37.109375 
Q 37.203125 33.109375 37.203125 26.21875 
z
M 63.8125 11.625 
Q 60.890625 7.859375 57.109375 6.078125 
Q 53.328125 4.296875 48.296875 4.296875 
Q 39.890625 4.296875 34.640625 10.375 
Q 29.390625 16.453125 29.390625 26.21875 
Q 29.390625 35.984375 34.65625 42.078125 
Q 39.9375 48.1875 48.296875 48.1875 
Q 53.328125 48.1875 57.125 46.359375 
Q 60.9375 44.53125 63.8125 40.828125 
L 63.8125 47.21875 
L 70.796875 47.21875 
L 70.796875 11.28125 
Q 77.9375 12.359375 81.953125 17.796875 
Q 85.984375 23.25 85.984375 31.890625 
Q 85.984375 37.109375 84.4375 41.703125 
Q 82.90625 46.296875 79.78125 50.203125 
Q 74.703125 56.59375 67.40625 59.984375 
Q 60.109375 63.375 51.515625 63.375 
Q 45.515625 63.375 39.984375 61.78125 
Q 34.46875 60.203125 29.78125 57.078125 
Q 22.125 52.09375 17.796875 44.015625 
Q 13.484375 35.9375 13.484375 26.515625 
Q 13.484375 18.75 16.28125 11.953125 
Q 19.09375 5.171875 24.421875 0 
Q 29.546875 -5.078125 36.28125 -7.734375 
Q 43.015625 -10.40625 50.6875 -10.40625 
Q 56.984375 -10.40625 63.0625 -8.28125 
Q 69.140625 -6.15625 74.21875 -2.203125 
L 78.609375 -7.625 
Q 72.515625 -12.359375 65.3125 -14.875 
Q 58.109375 -17.390625 50.6875 -17.390625 
Q 41.65625 -17.390625 33.640625 -14.1875 
Q 25.640625 -10.984375 19.390625 -4.890625 
Q 13.140625 1.21875 9.859375 9.25 
Q 6.59375 17.28125 6.59375 26.515625 
Q 6.59375 35.40625 9.90625 43.453125 
Q 13.234375 51.515625 19.390625 57.625 
Q 25.6875 63.8125 33.9375 67.109375 
Q 42.1875 70.40625 51.421875 70.40625 
Q 61.765625 70.40625 70.625 66.15625 
Q 79.5 61.921875 85.5 54.109375 
Q 89.15625 49.3125 91.078125 43.703125 
Q 93.015625 38.09375 93.015625 32.078125 
Q 93.015625 19.234375 85.25 11.8125 
Q 77.484375 4.390625 63.8125 4.109375 
z
" id="DejaVuSans-64"/>
      <path d="M 44.28125 53.078125 
L 44.28125 44.578125 
Q 40.484375 46.53125 36.375 47.5 
Q 32.28125 48.484375 27.875 48.484375 
Q 21.1875 48.484375 17.84375 46.4375 
Q 14.5 44.390625 14.5 40.28125 
Q 14.5 37.15625 16.890625 35.375 
Q 19.28125 33.59375 26.515625 31.984375 
L 29.59375 31.296875 
Q 39.15625 29.25 43.1875 25.515625 
Q 47.21875 21.78125 47.21875 15.09375 
Q 47.21875 7.46875 41.1875 3.015625 
Q 35.15625 -1.421875 24.609375 -1.421875 
Q 20.21875 -1.421875 15.453125 -0.5625 
Q 10.6875 0.296875 5.421875 2 
L 5.421875 11.28125 
Q 10.40625 8.6875 15.234375 7.390625 
Q 20.0625 6.109375 24.8125 6.109375 
Q 31.15625 6.109375 34.5625 8.28125 
Q 37.984375 10.453125 37.984375 14.40625 
Q 37.984375 18.0625 35.515625 20.015625 
Q 33.0625 21.96875 24.703125 23.78125 
L 21.578125 24.515625 
Q 13.234375 26.265625 9.515625 29.90625 
Q 5.8125 33.546875 5.8125 39.890625 
Q 5.8125 47.609375 11.28125 51.796875 
Q 16.75 56 26.8125 56 
Q 31.78125 56 36.171875 55.265625 
Q 40.578125 54.546875 44.28125 53.078125 
z
" id="DejaVuSans-115"/>
      <path d="M 11.71875 12.40625 
L 22.015625 12.40625 
L 22.015625 0 
L 11.71875 0 
z
M 11.71875 51.703125 
L 22.015625 51.703125 
L 22.015625 39.3125 
L 11.71875 39.3125 
z
" id="DejaVuSans-58"/>
      <path d="M 2.984375 54.6875 
L 12.5 54.6875 
L 29.59375 8.796875 
L 46.6875 54.6875 
L 56.203125 54.6875 
L 35.6875 0 
L 23.484375 0 
z
" id="DejaVuSans-118"/>
     </defs>
     <use xlink:href="#DejaVuSans-85"/>
     <use x="73.193359" xlink:href="#DejaVuSans-110"/>
     <use x="136.572266" xlink:href="#DejaVuSans-103"/>
     <use x="200.048828" xlink:href="#DejaVuSans-97"/>
     <use x="261.328125" xlink:href="#DejaVuSans-116"/>
     <use x="300.537109" xlink:href="#DejaVuSans-105"/>
     <use x="328.320312" xlink:href="#DejaVuSans-110"/>
     <use x="391.699219" xlink:href="#DejaVuSans-103"/>
     <use x="455.175781" xlink:href="#DejaVuSans-32"/>
     <use x="486.962891" xlink:href="#DejaVuSans-64"/>
     <use x="586.962891" xlink:href="#DejaVuSans-32"/>
     <use x="618.75" xlink:href="#DejaVuSans-57"/>
     <use x="682.373047" xlink:href="#DejaVuSans-54"/>
     <use x="745.996094" xlink:href="#DejaVuSans-37"/>
     <use x="841.015625" xlink:href="#DejaVuSans-32"/>
     <use x="872.802734" xlink:href="#DejaVuSans-65"/>
     <use x="939.460938" xlink:href="#DejaVuSans-99"/>
     <use x="994.441406" xlink:href="#DejaVuSans-99"/>
     <use x="1049.421875" xlink:href="#DejaVuSans-117"/>
     <use x="1112.800781" xlink:href="#DejaVuSans-114"/>
     <use x="1153.914062" xlink:href="#DejaVuSans-97"/>
     <use x="1215.193359" xlink:href="#DejaVuSans-99"/>
     <use x="1270.173828" xlink:href="#DejaVuSans-121"/>
     <use x="1329.353516" xlink:href="#DejaVuSans-32"/>
     <use x="1361.140625" xlink:href="#DejaVuSans-49"/>
     <use x="1424.763672" xlink:href="#DejaVuSans-53"/>
     <use x="1488.386719" xlink:href="#DejaVuSans-48"/>
     <use x="1552.009766" xlink:href="#DejaVuSans-32"/>
     <use x="1583.796875" xlink:href="#DejaVuSans-85"/>
     <use x="1656.990234" xlink:href="#DejaVuSans-110"/>
     <use x="1720.369141" xlink:href="#DejaVuSans-105"/>
     <use x="1748.152344" xlink:href="#DejaVuSans-116"/>
     <use x="1787.361328" xlink:href="#DejaVuSans-115"/>
     <use x="1839.460938" xlink:href="#DejaVuSans-58"/>
     <use x="1873.152344" xlink:href="#DejaVuSans-32"/>
     <use x="1904.939453" xlink:href="#DejaVuSans-69"/>
     <use x="1968.123047" xlink:href="#DejaVuSans-110"/>
     <use x="2031.501953" xlink:href="#DejaVuSans-101"/>
     <use x="2093.025391" xlink:href="#DejaVuSans-114"/>
     <use x="2132.388672" xlink:href="#DejaVuSans-103"/>
     <use x="2195.865234" xlink:href="#DejaVuSans-121"/>
     <use x="2255.044922" xlink:href="#DejaVuSans-32"/>
     <use x="2286.832031" xlink:href="#DejaVuSans-118"/>
     <use x="2346.011719" xlink:href="#DejaVuSans-115"/>
     <use x="2398.111328" xlink:href="#DejaVuSans-46"/>
     <use x="2429.898438" xlink:href="#DejaVuSans-32"/>
     <use x="2461.685547" xlink:href="#DejaVuSans-65"/>
     <use x="2528.34375" xlink:href="#DejaVuSans-99"/>
     <use x="2583.324219" xlink:href="#DejaVuSans-99"/>
     <use x="2638.304688" xlink:href="#DejaVuSans-117"/>
     <use x="2701.683594" xlink:href="#DejaVuSans-114"/>
     <use x="2742.796875" xlink:href="#DejaVuSans-97"/>
     <use x="2804.076172" xlink:href="#DejaVuSans-99"/>
     <use x="2859.056641" xlink:href="#DejaVuSans-121"/>
    </g>
   </g>
   <g id="legend_1">
    <g id="patch_7">
     <path d="M 807.989687 493 
L 1021.4 493 
Q 1025.8 493 1025.8 488.6 
L 1025.8 426.21625 
Q 1025.8 421.81625 1021.4 421.81625 
L 807.989687 421.81625 
Q 803.589687 421.81625 803.589687 426.21625 
L 803.589687 488.6 
Q 803.589687 493 807.989687 493 
z
" style="fill:#ffffff;opacity:0.8;stroke:#cccccc;stroke-linejoin:miter;"/>
    </g>
    <g id="line2d_32">
     <path d="M 812.389687 439.632812 
L 856.389687 439.632812 
" style="fill:none;stroke:#4161ff;stroke-linecap:square;stroke-width:5;"/>
    </g>
    <g id="line2d_33"/>
    <g id="text_16">
     <!-- Ungated: 1.0 -->
     <g transform="translate(873.989687 447.332812)scale(0.22 -0.22)">
      <defs>
       <path d="M 45.40625 46.390625 
L 45.40625 75.984375 
L 54.390625 75.984375 
L 54.390625 0 
L 45.40625 0 
L 45.40625 8.203125 
Q 42.578125 3.328125 38.25 0.953125 
Q 33.9375 -1.421875 27.875 -1.421875 
Q 17.96875 -1.421875 11.734375 6.484375 
Q 5.515625 14.40625 5.515625 27.296875 
Q 5.515625 40.1875 11.734375 48.09375 
Q 17.96875 56 27.875 56 
Q 33.9375 56 38.25 53.625 
Q 42.578125 51.265625 45.40625 46.390625 
z
M 14.796875 27.296875 
Q 14.796875 17.390625 18.875 11.75 
Q 22.953125 6.109375 30.078125 6.109375 
Q 37.203125 6.109375 41.296875 11.75 
Q 45.40625 17.390625 45.40625 27.296875 
Q 45.40625 37.203125 41.296875 42.84375 
Q 37.203125 48.484375 30.078125 48.484375 
Q 22.953125 48.484375 18.875 42.84375 
Q 14.796875 37.203125 14.796875 27.296875 
z
" id="DejaVuSans-100"/>
      </defs>
      <use xlink:href="#DejaVuSans-85"/>
      <use x="73.193359" xlink:href="#DejaVuSans-110"/>
      <use x="136.572266" xlink:href="#DejaVuSans-103"/>
      <use x="200.048828" xlink:href="#DejaVuSans-97"/>
      <use x="261.328125" xlink:href="#DejaVuSans-116"/>
      <use x="300.537109" xlink:href="#DejaVuSans-101"/>
      <use x="362.060547" xlink:href="#DejaVuSans-100"/>
      <use x="425.537109" xlink:href="#DejaVuSans-58"/>
      <use x="459.228516" xlink:href="#DejaVuSans-32"/>
      <use x="491.015625" xlink:href="#DejaVuSans-49"/>
      <use x="554.638672" xlink:href="#DejaVuSans-46"/>
      <use x="586.425781" xlink:href="#DejaVuSans-48"/>
     </g>
    </g>
    <g id="line2d_34">
     <path d="M 812.389687 471.924688 
L 856.389687 471.924688 
" style="fill:none;stroke:#1f1f1f;stroke-linecap:square;stroke-width:5;"/>
    </g>
    <g id="line2d_35"/>
    <g id="text_17">
     <!-- Gated: 1.0 -->
     <g transform="translate(873.989687 479.624687)scale(0.22 -0.22)">
      <defs>
       <path d="M 59.515625 10.40625 
L 59.515625 29.984375 
L 43.40625 29.984375 
L 43.40625 38.09375 
L 69.28125 38.09375 
L 69.28125 6.78125 
Q 63.578125 2.734375 56.6875 0.65625 
Q 49.8125 -1.421875 42 -1.421875 
Q 24.90625 -1.421875 15.25 8.5625 
Q 5.609375 18.5625 5.609375 36.375 
Q 5.609375 54.25 15.25 64.234375 
Q 24.90625 74.21875 42 74.21875 
Q 49.125 74.21875 55.546875 72.453125 
Q 61.96875 70.703125 67.390625 67.28125 
L 67.390625 56.78125 
Q 61.921875 61.421875 55.765625 63.765625 
Q 49.609375 66.109375 42.828125 66.109375 
Q 29.4375 66.109375 22.71875 58.640625 
Q 16.015625 51.171875 16.015625 36.375 
Q 16.015625 21.625 22.71875 14.15625 
Q 29.4375 6.6875 42.828125 6.6875 
Q 48.046875 6.6875 52.140625 7.59375 
Q 56.25 8.5 59.515625 10.40625 
z
" id="DejaVuSans-71"/>
      </defs>
      <use xlink:href="#DejaVuSans-71"/>
      <use x="77.490234" xlink:href="#DejaVuSans-97"/>
      <use x="138.769531" xlink:href="#DejaVuSans-116"/>
      <use x="177.978516" xlink:href="#DejaVuSans-101"/>
      <use x="239.501953" xlink:href="#DejaVuSans-100"/>
      <use x="302.978516" xlink:href="#DejaVuSans-58"/>
      <use x="336.669922" xlink:href="#DejaVuSans-32"/>
      <use x="368.457031" xlink:href="#DejaVuSans-49"/>
      <use x="432.080078" xlink:href="#DejaVuSans-46"/>
      <use x="463.867188" xlink:href="#DejaVuSans-48"/>
     </g>
    </g>
   </g>
  </g>
 </g>
 <defs>
  <clipPath id="p39b0195e19">
   <rect height="434.88" width="892.8" x="144" y="69.12"/>
  </clipPath>
 </defs>
</svg>
