<?xml version="1.0" encoding="utf-8" standalone="no"?>
<!DOCTYPE svg PUBLIC "-//W3C//DTD SVG 1.1//EN"
  "http://www.w3.org/Graphics/SVG/1.1/DTD/svg11.dtd">
<!-- Created with matplotlib (https://matplotlib.org/) -->
<svg height="576pt" version="1.1" viewBox="0 0 1152 576" width="1152pt" xmlns="http://www.w3.org/2000/svg" xmlns:xlink="http://www.w3.org/1999/xlink">
 <metadata>
  <rdf:RDF xmlns:cc="http://creativecommons.org/ns#" xmlns:dc="http://purl.org/dc/elements/1.1/" xmlns:rdf="http://www.w3.org/1999/02/22-rdf-syntax-ns#">
   <cc:Work>
    <dc:type rdf:resource="http://purl.org/dc/dcmitype/StillImage"/>
    <dc:date>2021-09-12T15:17:39.107477</dc:date>
    <dc:format>image/svg+xml</dc:format>
    <dc:creator>
     <cc:Agent>
      <dc:title>Matplotlib v3.3.4, https://matplotlib.org/</dc:title>
     </cc:Agent>
    </dc:creator>
   </cc:Work>
  </rdf:RDF>
 </metadata>
 <defs>
  <style type="text/css">*{stroke-linecap:butt;stroke-linejoin:round;}</style>
 </defs>
 <g id="figure_1">
  <g id="patch_1">
   <path d="M 0 576 
L 1152 576 
L 1152 0 
L 0 0 
z
" style="fill:#ffffff;"/>
  </g>
  <g id="axes_1">
   <g id="patch_2">
    <path d="M 144 504 
L 1036.8 504 
L 1036.8 69.12 
L 144 69.12 
z
" style="fill:#ffffff;"/>
   </g>
   <g id="matplotlib.axis_1">
    <g id="xtick_1">
     <g id="line2d_1">
      <defs>
       <path d="M 0 0 
L 0 3.5 
" id="m5590f0c58e" style="stroke:#000000;stroke-width:0.8;"/>
      </defs>
      <g>
       <use style="stroke:#000000;stroke-width:0.8;" x="144" xlink:href="#m5590f0c58e" y="504"/>
      </g>
     </g>
     <g id="text_1">
      <!-- 84 -->
      <g transform="translate(128.73 529.23625)scale(0.24 -0.24)">
       <defs>
        <path d="M 31.78125 34.625 
Q 24.75 34.625 20.71875 30.859375 
Q 16.703125 27.09375 16.703125 20.515625 
Q 16.703125 13.921875 20.71875 10.15625 
Q 24.75 6.390625 31.78125 6.390625 
Q 38.8125 6.390625 42.859375 10.171875 
Q 46.921875 13.96875 46.921875 20.515625 
Q 46.921875 27.09375 42.890625 30.859375 
Q 38.875 34.625 31.78125 34.625 
z
M 21.921875 38.8125 
Q 15.578125 40.375 12.03125 44.71875 
Q 8.5 49.078125 8.5 55.328125 
Q 8.5 64.0625 14.71875 69.140625 
Q 20.953125 74.21875 31.78125 74.21875 
Q 42.671875 74.21875 48.875 69.140625 
Q 55.078125 64.0625 55.078125 55.328125 
Q 55.078125 49.078125 51.53125 44.71875 
Q 48 40.375 41.703125 38.8125 
Q 48.828125 37.15625 52.796875 32.3125 
Q 56.78125 27.484375 56.78125 20.515625 
Q 56.78125 9.90625 50.3125 4.234375 
Q 43.84375 -1.421875 31.78125 -1.421875 
Q 19.734375 -1.421875 13.25 4.234375 
Q 6.78125 9.90625 6.78125 20.515625 
Q 6.78125 27.484375 10.78125 32.3125 
Q 14.796875 37.15625 21.921875 38.8125 
z
M 18.3125 54.390625 
Q 18.3125 48.734375 21.84375 45.5625 
Q 25.390625 42.390625 31.78125 42.390625 
Q 38.140625 42.390625 41.71875 45.5625 
Q 45.3125 48.734375 45.3125 54.390625 
Q 45.3125 60.0625 41.71875 63.234375 
Q 38.140625 66.40625 31.78125 66.40625 
Q 25.390625 66.40625 21.84375 63.234375 
Q 18.3125 60.0625 18.3125 54.390625 
z
" id="DejaVuSans-56"/>
        <path d="M 37.796875 64.3125 
L 12.890625 25.390625 
L 37.796875 25.390625 
z
M 35.203125 72.90625 
L 47.609375 72.90625 
L 47.609375 25.390625 
L 58.015625 25.390625 
L 58.015625 17.1875 
L 47.609375 17.1875 
L 47.609375 0 
L 37.796875 0 
L 37.796875 17.1875 
L 4.890625 17.1875 
L 4.890625 26.703125 
z
" id="DejaVuSans-52"/>
       </defs>
       <use xlink:href="#DejaVuSans-56"/>
       <use x="63.623047" xlink:href="#DejaVuSans-52"/>
      </g>
     </g>
    </g>
    <g id="xtick_2">
     <g id="line2d_2">
      <g>
       <use style="stroke:#000000;stroke-width:0.8;" x="255.6" xlink:href="#m5590f0c58e" y="504"/>
      </g>
     </g>
     <g id="text_2">
      <!-- 86 -->
      <g transform="translate(240.33 529.23625)scale(0.24 -0.24)">
       <defs>
        <path d="M 33.015625 40.375 
Q 26.375 40.375 22.484375 35.828125 
Q 18.609375 31.296875 18.609375 23.390625 
Q 18.609375 15.53125 22.484375 10.953125 
Q 26.375 6.390625 33.015625 6.390625 
Q 39.65625 6.390625 43.53125 10.953125 
Q 47.40625 15.53125 47.40625 23.390625 
Q 47.40625 31.296875 43.53125 35.828125 
Q 39.65625 40.375 33.015625 40.375 
z
M 52.59375 71.296875 
L 52.59375 62.3125 
Q 48.875 64.0625 45.09375 64.984375 
Q 41.3125 65.921875 37.59375 65.921875 
Q 27.828125 65.921875 22.671875 59.328125 
Q 17.53125 52.734375 16.796875 39.40625 
Q 19.671875 43.65625 24.015625 45.921875 
Q 28.375 48.1875 33.59375 48.1875 
Q 44.578125 48.1875 50.953125 41.515625 
Q 57.328125 34.859375 57.328125 23.390625 
Q 57.328125 12.15625 50.6875 5.359375 
Q 44.046875 -1.421875 33.015625 -1.421875 
Q 20.359375 -1.421875 13.671875 8.265625 
Q 6.984375 17.96875 6.984375 36.375 
Q 6.984375 53.65625 15.1875 63.9375 
Q 23.390625 74.21875 37.203125 74.21875 
Q 40.921875 74.21875 44.703125 73.484375 
Q 48.484375 72.75 52.59375 71.296875 
z
" id="DejaVuSans-54"/>
       </defs>
       <use xlink:href="#DejaVuSans-56"/>
       <use x="63.623047" xlink:href="#DejaVuSans-54"/>
      </g>
     </g>
    </g>
    <g id="xtick_3">
     <g id="line2d_3">
      <g>
       <use style="stroke:#000000;stroke-width:0.8;" x="367.2" xlink:href="#m5590f0c58e" y="504"/>
      </g>
     </g>
     <g id="text_3">
      <!-- 88 -->
      <g transform="translate(351.93 529.23625)scale(0.24 -0.24)">
       <use xlink:href="#DejaVuSans-56"/>
       <use x="63.623047" xlink:href="#DejaVuSans-56"/>
      </g>
     </g>
    </g>
    <g id="xtick_4">
     <g id="line2d_4">
      <g>
       <use style="stroke:#000000;stroke-width:0.8;" x="478.8" xlink:href="#m5590f0c58e" y="504"/>
      </g>
     </g>
     <g id="text_4">
      <!-- 90 -->
      <g transform="translate(463.53 529.23625)scale(0.24 -0.24)">
       <defs>
        <path d="M 10.984375 1.515625 
L 10.984375 10.5 
Q 14.703125 8.734375 18.5 7.8125 
Q 22.3125 6.890625 25.984375 6.890625 
Q 35.75 6.890625 40.890625 13.453125 
Q 46.046875 20.015625 46.78125 33.40625 
Q 43.953125 29.203125 39.59375 26.953125 
Q 35.25 24.703125 29.984375 24.703125 
Q 19.046875 24.703125 12.671875 31.3125 
Q 6.296875 37.9375 6.296875 49.421875 
Q 6.296875 60.640625 12.9375 67.421875 
Q 19.578125 74.21875 30.609375 74.21875 
Q 43.265625 74.21875 49.921875 64.515625 
Q 56.59375 54.828125 56.59375 36.375 
Q 56.59375 19.140625 48.40625 8.859375 
Q 40.234375 -1.421875 26.421875 -1.421875 
Q 22.703125 -1.421875 18.890625 -0.6875 
Q 15.09375 0.046875 10.984375 1.515625 
z
M 30.609375 32.421875 
Q 37.25 32.421875 41.125 36.953125 
Q 45.015625 41.5 45.015625 49.421875 
Q 45.015625 57.28125 41.125 61.84375 
Q 37.25 66.40625 30.609375 66.40625 
Q 23.96875 66.40625 20.09375 61.84375 
Q 16.21875 57.28125 16.21875 49.421875 
Q 16.21875 41.5 20.09375 36.953125 
Q 23.96875 32.421875 30.609375 32.421875 
z
" id="DejaVuSans-57"/>
        <path d="M 31.78125 66.40625 
Q 24.171875 66.40625 20.328125 58.90625 
Q 16.5 51.421875 16.5 36.375 
Q 16.5 21.390625 20.328125 13.890625 
Q 24.171875 6.390625 31.78125 6.390625 
Q 39.453125 6.390625 43.28125 13.890625 
Q 47.125 21.390625 47.125 36.375 
Q 47.125 51.421875 43.28125 58.90625 
Q 39.453125 66.40625 31.78125 66.40625 
z
M 31.78125 74.21875 
Q 44.046875 74.21875 50.515625 64.515625 
Q 56.984375 54.828125 56.984375 36.375 
Q 56.984375 17.96875 50.515625 8.265625 
Q 44.046875 -1.421875 31.78125 -1.421875 
Q 19.53125 -1.421875 13.0625 8.265625 
Q 6.59375 17.96875 6.59375 36.375 
Q 6.59375 54.828125 13.0625 64.515625 
Q 19.53125 74.21875 31.78125 74.21875 
z
" id="DejaVuSans-48"/>
       </defs>
       <use xlink:href="#DejaVuSans-57"/>
       <use x="63.623047" xlink:href="#DejaVuSans-48"/>
      </g>
     </g>
    </g>
    <g id="xtick_5">
     <g id="line2d_5">
      <g>
       <use style="stroke:#000000;stroke-width:0.8;" x="590.4" xlink:href="#m5590f0c58e" y="504"/>
      </g>
     </g>
     <g id="text_5">
      <!-- 92 -->
      <g transform="translate(575.13 529.23625)scale(0.24 -0.24)">
       <defs>
        <path d="M 19.1875 8.296875 
L 53.609375 8.296875 
L 53.609375 0 
L 7.328125 0 
L 7.328125 8.296875 
Q 12.9375 14.109375 22.625 23.890625 
Q 32.328125 33.6875 34.8125 36.53125 
Q 39.546875 41.84375 41.421875 45.53125 
Q 43.3125 49.21875 43.3125 52.78125 
Q 43.3125 58.59375 39.234375 62.25 
Q 35.15625 65.921875 28.609375 65.921875 
Q 23.96875 65.921875 18.8125 64.3125 
Q 13.671875 62.703125 7.8125 59.421875 
L 7.8125 69.390625 
Q 13.765625 71.78125 18.9375 73 
Q 24.125 74.21875 28.421875 74.21875 
Q 39.75 74.21875 46.484375 68.546875 
Q 53.21875 62.890625 53.21875 53.421875 
Q 53.21875 48.921875 51.53125 44.890625 
Q 49.859375 40.875 45.40625 35.40625 
Q 44.1875 33.984375 37.640625 27.21875 
Q 31.109375 20.453125 19.1875 8.296875 
z
" id="DejaVuSans-50"/>
       </defs>
       <use xlink:href="#DejaVuSans-57"/>
       <use x="63.623047" xlink:href="#DejaVuSans-50"/>
      </g>
     </g>
    </g>
    <g id="xtick_6">
     <g id="line2d_6">
      <g>
       <use style="stroke:#000000;stroke-width:0.8;" x="702" xlink:href="#m5590f0c58e" y="504"/>
      </g>
     </g>
     <g id="text_6">
      <!-- 94 -->
      <g transform="translate(686.73 529.23625)scale(0.24 -0.24)">
       <use xlink:href="#DejaVuSans-57"/>
       <use x="63.623047" xlink:href="#DejaVuSans-52"/>
      </g>
     </g>
    </g>
    <g id="xtick_7">
     <g id="line2d_7">
      <g>
       <use style="stroke:#000000;stroke-width:0.8;" x="813.6" xlink:href="#m5590f0c58e" y="504"/>
      </g>
     </g>
     <g id="text_7">
      <!-- 96 -->
      <g transform="translate(798.33 529.23625)scale(0.24 -0.24)">
       <use xlink:href="#DejaVuSans-57"/>
       <use x="63.623047" xlink:href="#DejaVuSans-54"/>
      </g>
     </g>
    </g>
    <g id="xtick_8">
     <g id="line2d_8">
      <g>
       <use style="stroke:#000000;stroke-width:0.8;" x="925.2" xlink:href="#m5590f0c58e" y="504"/>
      </g>
     </g>
     <g id="text_8">
      <!-- 98 -->
      <g transform="translate(909.93 529.23625)scale(0.24 -0.24)">
       <use xlink:href="#DejaVuSans-57"/>
       <use x="63.623047" xlink:href="#DejaVuSans-56"/>
      </g>
     </g>
    </g>
    <g id="xtick_9">
     <g id="line2d_9">
      <g>
       <use style="stroke:#000000;stroke-width:0.8;" x="1036.8" xlink:href="#m5590f0c58e" y="504"/>
      </g>
     </g>
     <g id="text_9">
      <!-- 100 -->
      <g transform="translate(1013.895 529.23625)scale(0.24 -0.24)">
       <defs>
        <path d="M 12.40625 8.296875 
L 28.515625 8.296875 
L 28.515625 63.921875 
L 10.984375 60.40625 
L 10.984375 69.390625 
L 28.421875 72.90625 
L 38.28125 72.90625 
L 38.28125 8.296875 
L 54.390625 8.296875 
L 54.390625 0 
L 12.40625 0 
z
" id="DejaVuSans-49"/>
       </defs>
       <use xlink:href="#DejaVuSans-49"/>
       <use x="63.623047" xlink:href="#DejaVuSans-48"/>
       <use x="127.246094" xlink:href="#DejaVuSans-48"/>
      </g>
     </g>
    </g>
    <g id="text_10">
     <!-- Accuracy /% -->
     <g transform="translate(504.013437 559.503125)scale(0.28 -0.28)">
      <defs>
       <path d="M 34.1875 63.1875 
L 20.796875 26.90625 
L 47.609375 26.90625 
z
M 28.609375 72.90625 
L 39.796875 72.90625 
L 67.578125 0 
L 57.328125 0 
L 50.6875 18.703125 
L 17.828125 18.703125 
L 11.1875 0 
L 0.78125 0 
z
" id="DejaVuSans-65"/>
       <path d="M 48.78125 52.59375 
L 48.78125 44.1875 
Q 44.96875 46.296875 41.140625 47.34375 
Q 37.3125 48.390625 33.40625 48.390625 
Q 24.65625 48.390625 19.8125 42.84375 
Q 14.984375 37.3125 14.984375 27.296875 
Q 14.984375 17.28125 19.8125 11.734375 
Q 24.65625 6.203125 33.40625 6.203125 
Q 37.3125 6.203125 41.140625 7.25 
Q 44.96875 8.296875 48.78125 10.40625 
L 48.78125 2.09375 
Q 45.015625 0.34375 40.984375 -0.53125 
Q 36.96875 -1.421875 32.421875 -1.421875 
Q 20.0625 -1.421875 12.78125 6.34375 
Q 5.515625 14.109375 5.515625 27.296875 
Q 5.515625 40.671875 12.859375 48.328125 
Q 20.21875 56 33.015625 56 
Q 37.15625 56 41.109375 55.140625 
Q 45.0625 54.296875 48.78125 52.59375 
z
" id="DejaVuSans-99"/>
       <path d="M 8.5 21.578125 
L 8.5 54.6875 
L 17.484375 54.6875 
L 17.484375 21.921875 
Q 17.484375 14.15625 20.5 10.265625 
Q 23.53125 6.390625 29.59375 6.390625 
Q 36.859375 6.390625 41.078125 11.03125 
Q 45.3125 15.671875 45.3125 23.6875 
L 45.3125 54.6875 
L 54.296875 54.6875 
L 54.296875 0 
L 45.3125 0 
L 45.3125 8.40625 
Q 42.046875 3.421875 37.71875 1 
Q 33.40625 -1.421875 27.6875 -1.421875 
Q 18.265625 -1.421875 13.375 4.4375 
Q 8.5 10.296875 8.5 21.578125 
z
M 31.109375 56 
z
" id="DejaVuSans-117"/>
       <path d="M 41.109375 46.296875 
Q 39.59375 47.171875 37.8125 47.578125 
Q 36.03125 48 33.890625 48 
Q 26.265625 48 22.1875 43.046875 
Q 18.109375 38.09375 18.109375 28.8125 
L 18.109375 0 
L 9.078125 0 
L 9.078125 54.6875 
L 18.109375 54.6875 
L 18.109375 46.1875 
Q 20.953125 51.171875 25.484375 53.578125 
Q 30.03125 56 36.53125 56 
Q 37.453125 56 38.578125 55.875 
Q 39.703125 55.765625 41.0625 55.515625 
z
" id="DejaVuSans-114"/>
       <path d="M 34.28125 27.484375 
Q 23.390625 27.484375 19.1875 25 
Q 14.984375 22.515625 14.984375 16.5 
Q 14.984375 11.71875 18.140625 8.90625 
Q 21.296875 6.109375 26.703125 6.109375 
Q 34.1875 6.109375 38.703125 11.40625 
Q 43.21875 16.703125 43.21875 25.484375 
L 43.21875 27.484375 
z
M 52.203125 31.203125 
L 52.203125 0 
L 43.21875 0 
L 43.21875 8.296875 
Q 40.140625 3.328125 35.546875 0.953125 
Q 30.953125 -1.421875 24.3125 -1.421875 
Q 15.921875 -1.421875 10.953125 3.296875 
Q 6 8.015625 6 15.921875 
Q 6 25.140625 12.171875 29.828125 
Q 18.359375 34.515625 30.609375 34.515625 
L 43.21875 34.515625 
L 43.21875 35.40625 
Q 43.21875 41.609375 39.140625 45 
Q 35.0625 48.390625 27.6875 48.390625 
Q 23 48.390625 18.546875 47.265625 
Q 14.109375 46.140625 10.015625 43.890625 
L 10.015625 52.203125 
Q 14.9375 54.109375 19.578125 55.046875 
Q 24.21875 56 28.609375 56 
Q 40.484375 56 46.34375 49.84375 
Q 52.203125 43.703125 52.203125 31.203125 
z
" id="DejaVuSans-97"/>
       <path d="M 32.171875 -5.078125 
Q 28.375 -14.84375 24.75 -17.8125 
Q 21.140625 -20.796875 15.09375 -20.796875 
L 7.90625 -20.796875 
L 7.90625 -13.28125 
L 13.1875 -13.28125 
Q 16.890625 -13.28125 18.9375 -11.515625 
Q 21 -9.765625 23.484375 -3.21875 
L 25.09375 0.875 
L 2.984375 54.6875 
L 12.5 54.6875 
L 29.59375 11.921875 
L 46.6875 54.6875 
L 56.203125 54.6875 
z
" id="DejaVuSans-121"/>
       <path id="DejaVuSans-32"/>
       <path d="M 25.390625 72.90625 
L 33.6875 72.90625 
L 8.296875 -9.28125 
L 0 -9.28125 
z
" id="DejaVuSans-47"/>
       <path d="M 72.703125 32.078125 
Q 68.453125 32.078125 66.03125 28.46875 
Q 63.625 24.859375 63.625 18.40625 
Q 63.625 12.0625 66.03125 8.421875 
Q 68.453125 4.78125 72.703125 4.78125 
Q 76.859375 4.78125 79.265625 8.421875 
Q 81.6875 12.0625 81.6875 18.40625 
Q 81.6875 24.8125 79.265625 28.4375 
Q 76.859375 32.078125 72.703125 32.078125 
z
M 72.703125 38.28125 
Q 80.421875 38.28125 84.953125 32.90625 
Q 89.5 27.546875 89.5 18.40625 
Q 89.5 9.28125 84.9375 3.921875 
Q 80.375 -1.421875 72.703125 -1.421875 
Q 64.890625 -1.421875 60.34375 3.921875 
Q 55.8125 9.28125 55.8125 18.40625 
Q 55.8125 27.59375 60.375 32.9375 
Q 64.9375 38.28125 72.703125 38.28125 
z
M 22.3125 68.015625 
Q 18.109375 68.015625 15.6875 64.375 
Q 13.28125 60.75 13.28125 54.390625 
Q 13.28125 47.953125 15.671875 44.328125 
Q 18.0625 40.71875 22.3125 40.71875 
Q 26.5625 40.71875 28.96875 44.328125 
Q 31.390625 47.953125 31.390625 54.390625 
Q 31.390625 60.6875 28.953125 64.34375 
Q 26.515625 68.015625 22.3125 68.015625 
z
M 66.40625 74.21875 
L 74.21875 74.21875 
L 28.609375 -1.421875 
L 20.796875 -1.421875 
z
M 22.3125 74.21875 
Q 30.03125 74.21875 34.609375 68.875 
Q 39.203125 63.53125 39.203125 54.390625 
Q 39.203125 45.171875 34.640625 39.84375 
Q 30.078125 34.515625 22.3125 34.515625 
Q 14.546875 34.515625 10.03125 39.859375 
Q 5.515625 45.21875 5.515625 54.390625 
Q 5.515625 63.484375 10.046875 68.84375 
Q 14.59375 74.21875 22.3125 74.21875 
z
" id="DejaVuSans-37"/>
      </defs>
      <use xlink:href="#DejaVuSans-65"/>
      <use x="66.658203" xlink:href="#DejaVuSans-99"/>
      <use x="121.638672" xlink:href="#DejaVuSans-99"/>
      <use x="176.619141" xlink:href="#DejaVuSans-117"/>
      <use x="239.998047" xlink:href="#DejaVuSans-114"/>
      <use x="281.111328" xlink:href="#DejaVuSans-97"/>
      <use x="342.390625" xlink:href="#DejaVuSans-99"/>
      <use x="397.371094" xlink:href="#DejaVuSans-121"/>
      <use x="456.550781" xlink:href="#DejaVuSans-32"/>
      <use x="488.337891" xlink:href="#DejaVuSans-47"/>
      <use x="522.029297" xlink:href="#DejaVuSans-37"/>
     </g>
    </g>
   </g>
   <g id="matplotlib.axis_2">
    <g id="ytick_1">
     <g id="line2d_10">
      <defs>
       <path d="M 0 0 
L -3.5 0 
" id="md71d161f53" style="stroke:#000000;stroke-width:0.8;"/>
      </defs>
      <g>
       <use style="stroke:#000000;stroke-width:0.8;" x="144" xlink:href="#md71d161f53" y="444.362283"/>
      </g>
     </g>
     <g id="text_11">
      <!-- $\mathdefault{10^{1}}$ -->
      <g transform="translate(94.76 453.480408)scale(0.24 -0.24)">
       <use transform="translate(0 0.684375)" xlink:href="#DejaVuSans-49"/>
       <use transform="translate(63.623047 0.684375)" xlink:href="#DejaVuSans-48"/>
       <use transform="translate(128.203125 38.965625)scale(0.7)" xlink:href="#DejaVuSans-49"/>
      </g>
     </g>
    </g>
    <g id="ytick_2">
     <g id="line2d_11">
      <g>
       <use style="stroke:#000000;stroke-width:0.8;" x="144" xlink:href="#md71d161f53" y="359.04"/>
      </g>
     </g>
     <g id="text_12">
      <!-- $\mathdefault{10^{2}}$ -->
      <g transform="translate(94.76 368.158125)scale(0.24 -0.24)">
       <use transform="translate(0 0.765625)" xlink:href="#DejaVuSans-49"/>
       <use transform="translate(63.623047 0.765625)" xlink:href="#DejaVuSans-48"/>
       <use transform="translate(128.203125 39.046875)scale(0.7)" xlink:href="#DejaVuSans-50"/>
      </g>
     </g>
    </g>
    <g id="ytick_3">
     <g id="line2d_12">
      <g>
       <use style="stroke:#000000;stroke-width:0.8;" x="144" xlink:href="#md71d161f53" y="273.717717"/>
      </g>
     </g>
     <g id="text_13">
      <!-- $\mathdefault{10^{3}}$ -->
      <g transform="translate(94.76 282.835842)scale(0.24 -0.24)">
       <defs>
        <path d="M 40.578125 39.3125 
Q 47.65625 37.796875 51.625 33 
Q 55.609375 28.21875 55.609375 21.1875 
Q 55.609375 10.40625 48.1875 4.484375 
Q 40.765625 -1.421875 27.09375 -1.421875 
Q 22.515625 -1.421875 17.65625 -0.515625 
Q 12.796875 0.390625 7.625 2.203125 
L 7.625 11.71875 
Q 11.71875 9.328125 16.59375 8.109375 
Q 21.484375 6.890625 26.8125 6.890625 
Q 36.078125 6.890625 40.9375 10.546875 
Q 45.796875 14.203125 45.796875 21.1875 
Q 45.796875 27.640625 41.28125 31.265625 
Q 36.765625 34.90625 28.71875 34.90625 
L 20.21875 34.90625 
L 20.21875 43.015625 
L 29.109375 43.015625 
Q 36.375 43.015625 40.234375 45.921875 
Q 44.09375 48.828125 44.09375 54.296875 
Q 44.09375 59.90625 40.109375 62.90625 
Q 36.140625 65.921875 28.71875 65.921875 
Q 24.65625 65.921875 20.015625 65.03125 
Q 15.375 64.15625 9.8125 62.3125 
L 9.8125 71.09375 
Q 15.4375 72.65625 20.34375 73.4375 
Q 25.25 74.21875 29.59375 74.21875 
Q 40.828125 74.21875 47.359375 69.109375 
Q 53.90625 64.015625 53.90625 55.328125 
Q 53.90625 49.265625 50.4375 45.09375 
Q 46.96875 40.921875 40.578125 39.3125 
z
" id="DejaVuSans-51"/>
       </defs>
       <use transform="translate(0 0.765625)" xlink:href="#DejaVuSans-49"/>
       <use transform="translate(63.623047 0.765625)" xlink:href="#DejaVuSans-48"/>
       <use transform="translate(128.203125 39.046875)scale(0.7)" xlink:href="#DejaVuSans-51"/>
      </g>
     </g>
    </g>
    <g id="ytick_4">
     <g id="line2d_13">
      <g>
       <use style="stroke:#000000;stroke-width:0.8;" x="144" xlink:href="#md71d161f53" y="188.395433"/>
      </g>
     </g>
     <g id="text_14">
      <!-- $\mathdefault{10^{4}}$ -->
      <g transform="translate(94.76 197.513558)scale(0.24 -0.24)">
       <use transform="translate(0 0.684375)" xlink:href="#DejaVuSans-49"/>
       <use transform="translate(63.623047 0.684375)" xlink:href="#DejaVuSans-48"/>
       <use transform="translate(128.203125 38.965625)scale(0.7)" xlink:href="#DejaVuSans-52"/>
      </g>
     </g>
    </g>
    <g id="ytick_5">
     <g id="line2d_14">
      <g>
       <use style="stroke:#000000;stroke-width:0.8;" x="144" xlink:href="#md71d161f53" y="103.07315"/>
      </g>
     </g>
     <g id="text_15">
      <!-- $\mathdefault{10^{5}}$ -->
      <g transform="translate(94.76 112.191275)scale(0.24 -0.24)">
       <defs>
        <path d="M 10.796875 72.90625 
L 49.515625 72.90625 
L 49.515625 64.59375 
L 19.828125 64.59375 
L 19.828125 46.734375 
Q 21.96875 47.46875 24.109375 47.828125 
Q 26.265625 48.1875 28.421875 48.1875 
Q 40.625 48.1875 47.75 41.5 
Q 54.890625 34.8125 54.890625 23.390625 
Q 54.890625 11.625 47.5625 5.09375 
Q 40.234375 -1.421875 26.90625 -1.421875 
Q 22.3125 -1.421875 17.546875 -0.640625 
Q 12.796875 0.140625 7.71875 1.703125 
L 7.71875 11.625 
Q 12.109375 9.234375 16.796875 8.0625 
Q 21.484375 6.890625 26.703125 6.890625 
Q 35.15625 6.890625 40.078125 11.328125 
Q 45.015625 15.765625 45.015625 23.390625 
Q 45.015625 31 40.078125 35.4375 
Q 35.15625 39.890625 26.703125 39.890625 
Q 22.75 39.890625 18.8125 39.015625 
Q 14.890625 38.140625 10.796875 36.28125 
z
" id="DejaVuSans-53"/>
       </defs>
       <use transform="translate(0 0.684375)" xlink:href="#DejaVuSans-49"/>
       <use transform="translate(63.623047 0.684375)" xlink:href="#DejaVuSans-48"/>
       <use transform="translate(128.203125 38.965625)scale(0.7)" xlink:href="#DejaVuSans-53"/>
      </g>
     </g>
    </g>
    <g id="ytick_6">
     <g id="line2d_15">
      <defs>
       <path d="M 0 0 
L -2 0 
" id="m127515e890" style="stroke:#000000;stroke-width:0.6;"/>
      </defs>
      <g>
       <use style="stroke:#000000;stroke-width:0.6;" x="144" xlink:href="#m127515e890" y="504"/>
      </g>
     </g>
    </g>
    <g id="ytick_7">
     <g id="line2d_16">
      <g>
       <use style="stroke:#000000;stroke-width:0.6;" x="144" xlink:href="#m127515e890" y="488.975492"/>
      </g>
     </g>
    </g>
    <g id="ytick_8">
     <g id="line2d_17">
      <g>
       <use style="stroke:#000000;stroke-width:0.6;" x="144" xlink:href="#m127515e890" y="478.315433"/>
      </g>
     </g>
    </g>
    <g id="ytick_9">
     <g id="line2d_18">
      <g>
       <use style="stroke:#000000;stroke-width:0.6;" x="144" xlink:href="#m127515e890" y="470.04685"/>
      </g>
     </g>
    </g>
    <g id="ytick_10">
     <g id="line2d_19">
      <g>
       <use style="stroke:#000000;stroke-width:0.6;" x="144" xlink:href="#m127515e890" y="463.290925"/>
      </g>
     </g>
    </g>
    <g id="ytick_11">
     <g id="line2d_20">
      <g>
       <use style="stroke:#000000;stroke-width:0.6;" x="144" xlink:href="#m127515e890" y="457.578872"/>
      </g>
     </g>
    </g>
    <g id="ytick_12">
     <g id="line2d_21">
      <g>
       <use style="stroke:#000000;stroke-width:0.6;" x="144" xlink:href="#m127515e890" y="452.630867"/>
      </g>
     </g>
    </g>
    <g id="ytick_13">
     <g id="line2d_22">
      <g>
       <use style="stroke:#000000;stroke-width:0.6;" x="144" xlink:href="#m127515e890" y="448.266417"/>
      </g>
     </g>
    </g>
    <g id="ytick_14">
     <g id="line2d_23">
      <g>
       <use style="stroke:#000000;stroke-width:0.6;" x="144" xlink:href="#m127515e890" y="418.677717"/>
      </g>
     </g>
    </g>
    <g id="ytick_15">
     <g id="line2d_24">
      <g>
       <use style="stroke:#000000;stroke-width:0.6;" x="144" xlink:href="#m127515e890" y="403.653208"/>
      </g>
     </g>
    </g>
    <g id="ytick_16">
     <g id="line2d_25">
      <g>
       <use style="stroke:#000000;stroke-width:0.6;" x="144" xlink:href="#m127515e890" y="392.99315"/>
      </g>
     </g>
    </g>
    <g id="ytick_17">
     <g id="line2d_26">
      <g>
       <use style="stroke:#000000;stroke-width:0.6;" x="144" xlink:href="#m127515e890" y="384.724567"/>
      </g>
     </g>
    </g>
    <g id="ytick_18">
     <g id="line2d_27">
      <g>
       <use style="stroke:#000000;stroke-width:0.6;" x="144" xlink:href="#m127515e890" y="377.968642"/>
      </g>
     </g>
    </g>
    <g id="ytick_19">
     <g id="line2d_28">
      <g>
       <use style="stroke:#000000;stroke-width:0.6;" x="144" xlink:href="#m127515e890" y="372.256589"/>
      </g>
     </g>
    </g>
    <g id="ytick_20">
     <g id="line2d_29">
      <g>
       <use style="stroke:#000000;stroke-width:0.6;" x="144" xlink:href="#m127515e890" y="367.308584"/>
      </g>
     </g>
    </g>
    <g id="ytick_21">
     <g id="line2d_30">
      <g>
       <use style="stroke:#000000;stroke-width:0.6;" x="144" xlink:href="#m127515e890" y="362.944134"/>
      </g>
     </g>
    </g>
    <g id="ytick_22">
     <g id="line2d_31">
      <g>
       <use style="stroke:#000000;stroke-width:0.6;" x="144" xlink:href="#m127515e890" y="333.355433"/>
      </g>
     </g>
    </g>
    <g id="ytick_23">
     <g id="line2d_32">
      <g>
       <use style="stroke:#000000;stroke-width:0.6;" x="144" xlink:href="#m127515e890" y="318.330925"/>
      </g>
     </g>
    </g>
    <g id="ytick_24">
     <g id="line2d_33">
      <g>
       <use style="stroke:#000000;stroke-width:0.6;" x="144" xlink:href="#m127515e890" y="307.670867"/>
      </g>
     </g>
    </g>
    <g id="ytick_25">
     <g id="line2d_34">
      <g>
       <use style="stroke:#000000;stroke-width:0.6;" x="144" xlink:href="#m127515e890" y="299.402283"/>
      </g>
     </g>
    </g>
    <g id="ytick_26">
     <g id="line2d_35">
      <g>
       <use style="stroke:#000000;stroke-width:0.6;" x="144" xlink:href="#m127515e890" y="292.646359"/>
      </g>
     </g>
    </g>
    <g id="ytick_27">
     <g id="line2d_36">
      <g>
       <use style="stroke:#000000;stroke-width:0.6;" x="144" xlink:href="#m127515e890" y="286.934306"/>
      </g>
     </g>
    </g>
    <g id="ytick_28">
     <g id="line2d_37">
      <g>
       <use style="stroke:#000000;stroke-width:0.6;" x="144" xlink:href="#m127515e890" y="281.9863"/>
      </g>
     </g>
    </g>
    <g id="ytick_29">
     <g id="line2d_38">
      <g>
       <use style="stroke:#000000;stroke-width:0.6;" x="144" xlink:href="#m127515e890" y="277.62185"/>
      </g>
     </g>
    </g>
    <g id="ytick_30">
     <g id="line2d_39">
      <g>
       <use style="stroke:#000000;stroke-width:0.6;" x="144" xlink:href="#m127515e890" y="248.03315"/>
      </g>
     </g>
    </g>
    <g id="ytick_31">
     <g id="line2d_40">
      <g>
       <use style="stroke:#000000;stroke-width:0.6;" x="144" xlink:href="#m127515e890" y="233.008642"/>
      </g>
     </g>
    </g>
    <g id="ytick_32">
     <g id="line2d_41">
      <g>
       <use style="stroke:#000000;stroke-width:0.6;" x="144" xlink:href="#m127515e890" y="222.348584"/>
      </g>
     </g>
    </g>
    <g id="ytick_33">
     <g id="line2d_42">
      <g>
       <use style="stroke:#000000;stroke-width:0.6;" x="144" xlink:href="#m127515e890" y="214.08"/>
      </g>
     </g>
    </g>
    <g id="ytick_34">
     <g id="line2d_43">
      <g>
       <use style="stroke:#000000;stroke-width:0.6;" x="144" xlink:href="#m127515e890" y="207.324075"/>
      </g>
     </g>
    </g>
    <g id="ytick_35">
     <g id="line2d_44">
      <g>
       <use style="stroke:#000000;stroke-width:0.6;" x="144" xlink:href="#m127515e890" y="201.612022"/>
      </g>
     </g>
    </g>
    <g id="ytick_36">
     <g id="line2d_45">
      <g>
       <use style="stroke:#000000;stroke-width:0.6;" x="144" xlink:href="#m127515e890" y="196.664017"/>
      </g>
     </g>
    </g>
    <g id="ytick_37">
     <g id="line2d_46">
      <g>
       <use style="stroke:#000000;stroke-width:0.6;" x="144" xlink:href="#m127515e890" y="192.299567"/>
      </g>
     </g>
    </g>
    <g id="ytick_38">
     <g id="line2d_47">
      <g>
       <use style="stroke:#000000;stroke-width:0.6;" x="144" xlink:href="#m127515e890" y="162.710867"/>
      </g>
     </g>
    </g>
    <g id="ytick_39">
     <g id="line2d_48">
      <g>
       <use style="stroke:#000000;stroke-width:0.6;" x="144" xlink:href="#m127515e890" y="147.686359"/>
      </g>
     </g>
    </g>
    <g id="ytick_40">
     <g id="line2d_49">
      <g>
       <use style="stroke:#000000;stroke-width:0.6;" x="144" xlink:href="#m127515e890" y="137.0263"/>
      </g>
     </g>
    </g>
    <g id="ytick_41">
     <g id="line2d_50">
      <g>
       <use style="stroke:#000000;stroke-width:0.6;" x="144" xlink:href="#m127515e890" y="128.757717"/>
      </g>
     </g>
    </g>
    <g id="ytick_42">
     <g id="line2d_51">
      <g>
       <use style="stroke:#000000;stroke-width:0.6;" x="144" xlink:href="#m127515e890" y="122.001792"/>
      </g>
     </g>
    </g>
    <g id="ytick_43">
     <g id="line2d_52">
      <g>
       <use style="stroke:#000000;stroke-width:0.6;" x="144" xlink:href="#m127515e890" y="116.289739"/>
      </g>
     </g>
    </g>
    <g id="ytick_44">
     <g id="line2d_53">
      <g>
       <use style="stroke:#000000;stroke-width:0.6;" x="144" xlink:href="#m127515e890" y="111.341734"/>
      </g>
     </g>
    </g>
    <g id="ytick_45">
     <g id="line2d_54">
      <g>
       <use style="stroke:#000000;stroke-width:0.6;" x="144" xlink:href="#m127515e890" y="106.977284"/>
      </g>
     </g>
    </g>
    <g id="ytick_46">
     <g id="line2d_55">
      <g>
       <use style="stroke:#000000;stroke-width:0.6;" x="144" xlink:href="#m127515e890" y="77.388584"/>
      </g>
     </g>
    </g>
    <g id="text_16">
     <!-- Energy /A.U. -->
     <g transform="translate(84.936875 373.22)rotate(-90)scale(0.28 -0.28)">
      <defs>
       <path d="M 9.8125 72.90625 
L 55.90625 72.90625 
L 55.90625 64.59375 
L 19.671875 64.59375 
L 19.671875 43.015625 
L 54.390625 43.015625 
L 54.390625 34.71875 
L 19.671875 34.71875 
L 19.671875 8.296875 
L 56.78125 8.296875 
L 56.78125 0 
L 9.8125 0 
z
" id="DejaVuSans-69"/>
       <path d="M 54.890625 33.015625 
L 54.890625 0 
L 45.90625 0 
L 45.90625 32.71875 
Q 45.90625 40.484375 42.875 44.328125 
Q 39.84375 48.1875 33.796875 48.1875 
Q 26.515625 48.1875 22.3125 43.546875 
Q 18.109375 38.921875 18.109375 30.90625 
L 18.109375 0 
L 9.078125 0 
L 9.078125 54.6875 
L 18.109375 54.6875 
L 18.109375 46.1875 
Q 21.34375 51.125 25.703125 53.5625 
Q 30.078125 56 35.796875 56 
Q 45.21875 56 50.046875 50.171875 
Q 54.890625 44.34375 54.890625 33.015625 
z
" id="DejaVuSans-110"/>
       <path d="M 56.203125 29.59375 
L 56.203125 25.203125 
L 14.890625 25.203125 
Q 15.484375 15.921875 20.484375 11.0625 
Q 25.484375 6.203125 34.421875 6.203125 
Q 39.59375 6.203125 44.453125 7.46875 
Q 49.3125 8.734375 54.109375 11.28125 
L 54.109375 2.78125 
Q 49.265625 0.734375 44.1875 -0.34375 
Q 39.109375 -1.421875 33.890625 -1.421875 
Q 20.796875 -1.421875 13.15625 6.1875 
Q 5.515625 13.8125 5.515625 26.8125 
Q 5.515625 40.234375 12.765625 48.109375 
Q 20.015625 56 32.328125 56 
Q 43.359375 56 49.78125 48.890625 
Q 56.203125 41.796875 56.203125 29.59375 
z
M 47.21875 32.234375 
Q 47.125 39.59375 43.09375 43.984375 
Q 39.0625 48.390625 32.421875 48.390625 
Q 24.90625 48.390625 20.390625 44.140625 
Q 15.875 39.890625 15.1875 32.171875 
z
" id="DejaVuSans-101"/>
       <path d="M 45.40625 27.984375 
Q 45.40625 37.75 41.375 43.109375 
Q 37.359375 48.484375 30.078125 48.484375 
Q 22.859375 48.484375 18.828125 43.109375 
Q 14.796875 37.75 14.796875 27.984375 
Q 14.796875 18.265625 18.828125 12.890625 
Q 22.859375 7.515625 30.078125 7.515625 
Q 37.359375 7.515625 41.375 12.890625 
Q 45.40625 18.265625 45.40625 27.984375 
z
M 54.390625 6.78125 
Q 54.390625 -7.171875 48.1875 -13.984375 
Q 42 -20.796875 29.203125 -20.796875 
Q 24.46875 -20.796875 20.265625 -20.09375 
Q 16.0625 -19.390625 12.109375 -17.921875 
L 12.109375 -9.1875 
Q 16.0625 -11.328125 19.921875 -12.34375 
Q 23.78125 -13.375 27.78125 -13.375 
Q 36.625 -13.375 41.015625 -8.765625 
Q 45.40625 -4.15625 45.40625 5.171875 
L 45.40625 9.625 
Q 42.625 4.78125 38.28125 2.390625 
Q 33.9375 0 27.875 0 
Q 17.828125 0 11.671875 7.65625 
Q 5.515625 15.328125 5.515625 27.984375 
Q 5.515625 40.671875 11.671875 48.328125 
Q 17.828125 56 27.875 56 
Q 33.9375 56 38.28125 53.609375 
Q 42.625 51.21875 45.40625 46.390625 
L 45.40625 54.6875 
L 54.390625 54.6875 
z
" id="DejaVuSans-103"/>
       <path d="M 10.6875 12.40625 
L 21 12.40625 
L 21 0 
L 10.6875 0 
z
" id="DejaVuSans-46"/>
       <path d="M 8.6875 72.90625 
L 18.609375 72.90625 
L 18.609375 28.609375 
Q 18.609375 16.890625 22.84375 11.734375 
Q 27.09375 6.59375 36.625 6.59375 
Q 46.09375 6.59375 50.34375 11.734375 
Q 54.59375 16.890625 54.59375 28.609375 
L 54.59375 72.90625 
L 64.5 72.90625 
L 64.5 27.390625 
Q 64.5 13.140625 57.4375 5.859375 
Q 50.390625 -1.421875 36.625 -1.421875 
Q 22.796875 -1.421875 15.734375 5.859375 
Q 8.6875 13.140625 8.6875 27.390625 
z
" id="DejaVuSans-85"/>
      </defs>
      <use xlink:href="#DejaVuSans-69"/>
      <use x="63.183594" xlink:href="#DejaVuSans-110"/>
      <use x="126.5625" xlink:href="#DejaVuSans-101"/>
      <use x="188.085938" xlink:href="#DejaVuSans-114"/>
      <use x="227.449219" xlink:href="#DejaVuSans-103"/>
      <use x="290.925781" xlink:href="#DejaVuSans-121"/>
      <use x="350.105469" xlink:href="#DejaVuSans-32"/>
      <use x="381.892578" xlink:href="#DejaVuSans-47"/>
      <use x="415.583984" xlink:href="#DejaVuSans-65"/>
      <use x="482.242188" xlink:href="#DejaVuSans-46"/>
      <use x="514.029297" xlink:href="#DejaVuSans-85"/>
      <use x="587.222656" xlink:href="#DejaVuSans-46"/>
     </g>
    </g>
   </g>
   <g id="line2d_56">
    <path clip-path="url(#peb34f62c1a)" d="M 82.62 254.697012 
L 333.72 232.137981 
L 393.984 219.562737 
L 450.342 211.068861 
L 486.054 204.464873 
L 490.518 199.189141 
L 498.33 194.861509 
L 540.18 190.926075 
L 553.572 187.399949 
L 581.472 184.318915 
L 588.726 181.566287 
L 577.008 178.992361 
L 608.814 176.733235 
L 611.046 174.48694 
L 587.052 172.466773 
L 626.67 170.524413 
L 623.322 168.841502 
L 642.294 167.139453 
L 654.57 165.579702 
L 646.758 164.155904 
L 613.836 162.791553 
L 665.172 161.363449 
L 675.216 160.041446 
L 685.818 158.830966 
L 662.94 157.705757 
L 677.448 156.598619 
L 685.818 155.474758 
L 696.978 154.496674 
L 686.376 153.517392 
L 692.514 152.57197 
L 689.724 151.625936 
L 704.232 150.665531 
L 711.486 149.802399 
L 706.464 148.969102 
L 722.088 148.118908 
L 716.508 147.372191 
L 722.088 146.612697 
L 708.138 145.904592 
L 740.502 144.464127 
L 751.104 143.781699 
L 736.038 143.118082 
L 742.176 142.431833 
L 749.988 141.783649 
L 739.386 141.165966 
L 753.336 140.591827 
L 756.684 139.994282 
L 755.568 139.412494 
L 763.938 138.863914 
L 763.38 138.308731 
L 756.684 137.77582 
L 772.308 136.702765 
L 765.612 136.209502 
L 767.286 135.718943 
L 778.446 135.276147 
L 774.54 134.765442 
L 782.91 133.811176 
L 789.048 133.357737 
L 775.098 132.934769 
L 787.932 132.489828 
L 783.468 132.064851 
L 785.142 131.649058 
L 784.584 131.240496 
L 791.838 130.849422 
L 795.186 130.426969 
L 786.816 130.03026 
L 790.164 129.647031 
L 787.932 129.255592 
L 800.766 128.877874 
L 805.23 128.499316 
L 800.208 128.132958 
L 800.208 127.78895 
L 809.136 127.436469 
L 800.208 127.119502 
L 809.136 126.77879 
L 806.346 126.414746 
L 815.274 126.082038 
L 808.02 125.758115 
L 813.6 125.414541 
L 816.39 125.08308 
L 808.02 124.762195 
L 815.832 124.439774 
L 819.738 124.131134 
L 818.622 123.818738 
L 824.202 123.507891 
L 817.506 123.207437 
L 821.412 122.919149 
L 820.296 122.630979 
L 824.202 122.343534 
L 823.086 122.042566 
L 824.76 121.746781 
L 821.412 121.469961 
L 825.876 121.199753 
L 830.34 120.709413 
L 829.782 120.458113 
L 828.666 120.201163 
L 832.014 119.923326 
L 830.34 119.658416 
L 824.76 119.40866 
L 828.666 119.145071 
L 840.942 118.89239 
L 835.362 118.642856 
L 833.688 118.395973 
L 838.71 118.153676 
L 832.014 117.9064 
L 839.826 117.662306 
L 833.13 117.445621 
L 836.478 117.224335 
L 846.522 116.986487 
L 839.268 116.762454 
L 837.036 116.525309 
L 852.66 116.065819 
L 845.964 115.859517 
L 850.986 115.620715 
L 851.544 115.408637 
L 850.986 115.198146 
L 845.964 114.993994 
L 849.87 114.78379 
L 844.29 114.59214 
L 844.29 114.386381 
L 843.732 114.193849 
L 849.87 113.991404 
L 847.638 113.791024 
L 848.196 113.585247 
L 839.826 113.369299 
L 853.218 112.962814 
L 853.776 112.770511 
L 852.102 112.590975 
L 857.124 112.393824 
L 850.986 112.023999 
L 846.522 111.842883 
L 856.008 111.661153 
L 841.5 111.473895 
L 859.356 111.302455 
L 850.986 111.117555 
L 856.008 110.74595 
L 864.936 110.565254 
L 861.588 110.395453 
L 855.45 110.230735 
L 861.03 110.049522 
L 861.588 109.88809 
L 861.588 109.711266 
L 858.798 109.537366 
L 866.052 109.359311 
L 864.936 109.206575 
L 862.704 109.043972 
L 871.074 108.8791 
L 858.798 108.713063 
L 862.146 108.548318 
L 858.798 108.394584 
L 861.588 108.229089 
L 867.168 108.064043 
L 867.168 107.903548 
L 866.052 107.762712 
L 866.052 107.615974 
L 862.146 107.460899 
L 866.052 107.300825 
L 858.798 107.149946 
L 867.726 106.990345 
L 864.936 106.84344 
L 873.864 106.556896 
L 867.168 106.419215 
L 870.516 106.276103 
L 865.494 106.125605 
L 872.748 105.993135 
L 873.306 105.846421 
L 871.074 105.707827 
L 872.19 105.559969 
L 862.146 105.427172 
L 869.958 105.132741 
L 871.632 104.989565 
L 874.98 104.861792 
L 869.4 104.724737 
L 873.864 104.592192 
L 872.19 104.450507 
L 876.096 104.328364 
L 872.19 104.199448 
L 859.914 104.063243 
L 873.306 103.924552 
L 870.516 103.789537 
L 872.19 103.538019 
L 867.168 103.398912 
L 882.792 103.278695 
L 872.748 103.15045 
L 874.422 103.027942 
L 874.422 102.90775 
L 872.19 102.778917 
L 867.168 102.651965 
L 872.19 102.535496 
L 865.494 102.416212 
L 877.212 102.15799 
L 868.284 102.036034 
L 877.77 101.793262 
L 872.748 101.683809 
L 873.306 101.577669 
L 876.096 101.450272 
L 867.726 101.339651 
L 878.886 101.231624 
L 872.748 101.117912 
L 873.864 100.997245 
L 877.212 100.772457 
L 876.096 100.643722 
L 877.77 100.525813 
L 883.908 100.406818 
L 881.118 100.183154 
L 880.56 100.077886 
L 873.306 99.973524 
L 880.56 99.859739 
L 877.212 99.7573 
L 877.77 99.651429 
L 885.024 99.543158 
L 880.56 99.426929 
L 870.516 99.32204 
L 874.98 99.221991 
L 872.748 99.126468 
L 874.422 99.026191 
L 887.256 98.820277 
L 877.212 98.728287 
L 881.118 98.524955 
L 876.654 98.425166 
L 885.024 98.203191 
L 874.98 98.098353 
L 885.582 97.894879 
L 880.56 97.792133 
L 882.792 97.700076 
L 873.864 97.602478 
L 884.466 97.507051 
L 869.958 97.308842 
L 885.582 97.217628 
L 877.77 97.119126 
L 878.328 97.023499 
L 874.98 96.934169 
L 885.024 96.832225 
L 876.654 96.570402 
L 880.002 96.47686 
L 877.212 96.288662 
L 878.886 96.106736 
L 878.328 96.009873 
L 872.19 95.912109 
L 875.538 95.816921 
L 885.582 95.730939 
L 876.654 95.646967 
L 888.93 95.560477 
L 884.466 95.380624 
L 885.024 95.285112 
L 879.444 95.201827 
L 883.908 95.117597 
L 871.074 94.944615 
L 885.024 94.8564 
L 881.676 94.771361 
L 890.046 94.686328 
L 877.77 94.531063 
L 886.14 94.29613 
L 870.516 94.122538 
L 888.372 94.037257 
L 886.698 93.946123 
L 888.93 93.862244 
L 878.328 93.685754 
L 890.046 93.608408 
L 888.93 93.529356 
L 885.582 93.444044 
L 888.93 93.366141 
L 884.466 93.202649 
L 889.488 93.121698 
L 875.538 92.891402 
L 880.002 92.805561 
L 884.466 92.663477 
L 880.56 92.588268 
L 886.14 92.516296 
L 885.024 92.434223 
L 889.488 92.276699 
L 883.908 92.204306 
L 892.278 92.122453 
L 890.046 92.045179 
L 879.444 91.972822 
L 883.35 91.902465 
L 891.162 91.75126 
L 884.466 91.606705 
L 883.908 91.53892 
L 889.488 91.399645 
L 886.14 91.329014 
L 890.604 91.253611 
L 887.256 91.111229 
L 888.372 91.028344 
L 881.676 90.956823 
L 885.024 90.89246 
L 886.698 90.823034 
L 879.444 90.682882 
L 883.908 90.480756 
L 880.002 90.406264 
L 881.676 90.333435 
L 890.046 90.189745 
L 883.908 90.11793 
L 891.162 89.988949 
L 881.118 89.866512 
L 888.93 89.729727 
L 877.212 89.651085 
L 882.234 89.583629 
L 880.002 89.521749 
L 890.046 89.318306 
L 890.046 89.250478 
L 890.604 89.180275 
L 883.908 89.05952 
L 892.836 88.995345 
L 878.886 88.929793 
L 888.93 88.868787 
L 885.024 88.807546 
L 888.93 88.739093 
L 880.002 88.676106 
L 884.466 88.609066 
" style="fill:none;stroke:#1f1f1f;stroke-linecap:square;stroke-width:5;"/>
   </g>
   <g id="line2d_57">
    <path clip-path="url(#peb34f62c1a)" d="M 82.62 516.811364 
L 333.72 483.406746 
L 393.984 463.445456 
L 450.342 449.256701 
L 486.054 438.365449 
L 490.518 429.516927 
L 498.33 422.030843 
L 540.18 415.516713 
L 553.572 409.828064 
L 581.472 404.729951 
L 588.726 400.098549 
L 577.008 395.861005 
L 608.814 391.98251 
L 611.046 388.357399 
L 587.052 384.968186 
L 626.67 381.857559 
L 623.322 378.930835 
L 642.294 376.164 
L 654.57 373.542777 
L 646.758 371.063877 
L 613.836 368.703552 
L 665.172 366.473626 
L 675.216 364.339177 
L 685.818 362.305941 
L 662.94 360.362332 
L 677.448 358.491301 
L 685.818 356.695441 
L 696.978 354.97191 
L 686.376 353.330995 
L 692.514 351.728606 
L 689.724 350.177471 
L 704.232 348.700791 
L 711.486 347.263163 
L 706.464 345.885851 
L 722.088 344.542582 
L 716.508 343.235275 
L 722.088 341.966899 
L 708.138 340.73666 
L 740.502 338.383886 
L 751.104 337.255226 
L 736.038 336.163525 
L 742.176 335.092825 
L 749.988 334.05757 
L 739.386 333.033329 
L 753.336 332.038506 
L 756.684 331.069036 
L 755.568 330.130682 
L 763.938 329.214434 
L 763.38 328.321383 
L 756.684 327.446958 
L 765.612 326.586897 
L 772.308 325.748836 
L 765.612 324.922347 
L 767.286 324.110024 
L 778.446 323.310203 
L 774.54 322.531856 
L 778.446 321.772446 
L 782.91 321.037297 
L 789.048 320.309067 
L 775.098 319.590448 
L 787.932 318.878402 
L 783.468 318.178778 
L 785.142 317.494895 
L 784.584 316.823193 
L 791.838 316.164095 
L 795.186 315.516906 
L 786.816 314.88325 
L 790.164 314.260896 
L 787.932 313.64996 
L 800.766 313.048664 
L 805.23 312.454402 
L 800.208 311.868079 
L 800.208 311.287971 
L 809.136 310.714137 
L 800.208 310.144735 
L 809.136 309.587227 
L 806.346 309.041007 
L 815.274 308.50237 
L 808.02 307.968115 
L 813.6 307.445521 
L 816.39 306.925486 
L 808.02 306.413622 
L 815.832 305.908906 
L 819.738 305.410931 
L 818.622 304.918185 
L 824.202 304.432442 
L 817.506 303.950783 
L 821.412 303.473348 
L 820.296 302.999875 
L 824.202 302.529625 
L 823.086 302.065572 
L 824.76 301.606922 
L 821.412 301.157367 
L 825.876 300.707289 
L 830.34 299.823738 
L 829.782 299.388882 
L 828.666 298.958543 
L 832.014 298.536395 
L 830.34 298.116029 
L 824.76 297.698476 
L 828.666 297.286201 
L 840.942 296.878057 
L 835.362 296.471454 
L 833.688 296.065411 
L 838.71 295.66335 
L 832.014 295.267132 
L 839.826 294.87218 
L 833.13 294.482524 
L 836.478 294.094654 
L 846.522 293.710741 
L 839.268 293.328008 
L 837.036 292.947364 
L 852.66 292.202528 
L 845.964 291.832656 
L 850.986 291.466682 
L 851.544 291.099654 
L 850.986 290.737784 
L 845.964 290.376695 
L 849.87 290.018888 
L 844.29 289.662454 
L 844.29 289.30642 
L 843.732 288.95793 
L 849.87 288.612951 
L 847.638 288.268175 
L 848.196 287.927875 
L 839.826 287.588794 
L 848.196 287.251868 
L 853.218 286.919815 
L 853.776 286.588387 
L 852.102 286.25908 
L 857.124 285.932895 
L 850.986 285.285937 
L 846.522 284.965784 
L 856.008 284.648545 
L 841.5 284.333688 
L 859.356 284.020399 
L 850.986 283.708526 
L 856.008 283.088173 
L 864.936 282.779312 
L 861.588 282.472775 
L 855.45 282.167675 
L 861.03 281.86512 
L 861.588 281.564186 
L 861.588 281.264497 
L 858.798 280.967084 
L 866.052 280.6716 
L 864.936 280.37694 
L 862.704 280.084887 
L 871.074 279.794654 
L 858.798 279.506665 
L 862.146 279.220756 
L 858.798 278.937144 
L 861.588 278.655315 
L 867.168 278.37557 
L 867.168 278.098528 
L 866.052 277.823322 
L 866.052 277.549596 
L 862.146 277.275988 
L 866.052 277.002616 
L 858.798 276.731248 
L 867.726 276.463164 
L 864.936 276.194671 
L 872.19 275.926953 
L 873.864 275.660889 
L 867.168 275.395692 
L 870.516 275.132061 
L 865.494 274.868942 
L 872.748 274.608952 
L 873.306 274.350819 
L 871.074 274.093611 
L 872.19 273.836373 
L 862.146 273.580922 
L 869.958 273.077274 
L 871.632 272.826928 
L 874.98 272.578045 
L 869.4 272.32997 
L 873.864 272.08284 
L 872.19 271.837057 
L 876.096 271.59244 
L 872.19 271.349112 
L 859.914 271.106807 
L 873.306 270.865488 
L 870.516 270.625868 
L 871.632 270.38747 
L 872.19 270.151102 
L 867.168 269.916139 
L 882.792 269.679857 
L 872.748 269.444808 
L 874.422 269.212363 
L 874.422 268.981581 
L 872.19 268.751471 
L 867.168 268.524079 
L 872.19 268.295906 
L 865.494 268.070089 
L 874.98 267.845365 
L 877.212 267.62283 
L 868.284 267.400301 
L 877.77 266.956108 
L 872.748 266.735326 
L 873.306 266.516411 
L 876.096 266.297527 
L 867.726 266.079558 
L 878.886 265.86294 
L 872.748 265.647296 
L 873.864 265.432778 
L 877.212 265.218783 
L 877.212 265.006161 
L 876.096 264.793578 
L 877.77 264.582623 
L 883.908 264.372605 
L 881.118 264.164043 
L 881.118 263.955417 
L 880.56 263.74669 
L 873.306 263.538882 
L 880.56 263.331485 
L 877.212 263.125527 
L 877.77 262.919322 
L 885.024 262.715524 
L 880.56 262.511359 
L 870.516 262.307999 
L 874.98 262.105377 
L 872.748 261.904839 
L 874.422 261.704812 
L 887.256 261.307049 
L 877.212 261.10905 
L 881.118 260.911854 
L 881.118 260.715358 
L 876.654 260.519547 
L 885.024 260.129848 
L 874.98 259.934739 
L 885.582 259.547207 
L 880.56 259.354545 
L 882.792 259.162301 
L 873.864 258.971519 
L 884.466 258.780367 
L 878.886 258.590509 
L 869.958 258.402136 
L 885.582 258.213776 
L 877.77 258.026022 
L 878.328 257.839152 
L 874.98 257.653067 
L 885.024 257.468272 
L 877.77 257.098759 
L 876.654 256.915841 
L 880.002 256.733942 
L 877.212 256.37204 
L 878.886 256.191821 
L 878.886 256.012086 
L 878.328 255.83384 
L 872.19 255.656626 
L 875.538 255.47867 
L 885.582 255.301222 
L 876.654 255.123348 
L 888.93 254.945937 
L 884.466 254.769183 
L 884.466 254.593062 
L 885.024 254.416829 
L 879.444 254.24227 
L 883.908 254.068703 
L 879.444 253.895553 
L 871.074 253.722849 
L 885.024 253.550438 
L 881.676 253.378754 
L 890.046 253.207268 
L 879.444 253.036214 
L 877.77 252.865702 
L 886.14 252.358214 
L 870.516 252.023053 
L 888.372 251.856146 
L 886.698 251.690278 
L 888.93 251.525542 
L 878.328 251.195326 
L 890.046 251.031388 
L 888.93 250.867049 
L 885.582 250.703434 
L 888.93 250.540056 
L 884.466 250.216281 
L 889.488 250.054782 
L 881.676 249.734837 
L 875.538 249.575809 
L 883.35 249.258335 
L 884.466 249.100511 
L 880.56 248.943096 
L 886.14 248.786014 
L 885.024 248.630242 
L 889.488 248.474692 
L 889.488 248.319582 
L 883.908 248.165131 
L 892.278 248.011041 
L 890.046 247.857163 
L 879.444 247.704176 
L 891.162 247.246331 
L 885.024 247.094453 
L 883.908 246.791135 
L 889.488 246.489618 
L 886.14 246.339387 
L 890.604 246.189801 
L 887.256 246.040901 
L 887.256 245.89269 
L 888.372 245.744945 
L 881.676 245.597871 
L 886.698 245.304183 
L 880.56 245.157258 
L 879.444 245.010259 
L 883.35 244.718905 
L 883.908 244.573947 
L 880.002 244.429195 
L 881.676 244.285396 
L 890.046 243.998664 
L 883.908 243.855621 
L 891.162 243.713233 
L 891.162 243.571461 
L 881.118 243.288804 
L 887.814 243.147793 
L 888.93 243.00683 
L 877.212 242.866506 
L 882.234 242.726882 
L 880.002 242.587035 
L 886.698 242.448005 
L 883.908 242.309278 
L 890.046 242.170849 
L 890.046 242.033132 
L 890.604 241.895591 
L 883.908 241.621805 
L 892.836 241.485971 
L 878.886 241.35039 
L 888.93 241.215425 
L 885.024 241.080864 
L 888.93 240.946059 
L 880.002 240.811656 
L 884.466 240.677387 
L 884.466 240.677387 
" style="fill:none;stroke:#9e9e9e;stroke-linecap:square;stroke-width:5;"/>
   </g>
   <g id="line2d_58">
    <path clip-path="url(#peb34f62c1a)" d="M -1 279.860372 
L 15.102 278.370765 
L 151.254 269.561911 
L 264.528 263.135561 
L 290.754 257.651808 
L 306.936 252.880924 
L 369.99 244.817521 
L 414.072 241.440497 
L 416.862 238.496076 
L 425.79 235.689597 
L 445.878 233.196746 
L 438.066 230.824019 
L 433.044 228.724356 
L 492.75 226.66391 
L 492.75 224.868731 
L 490.518 223.168699 
L 471.546 221.458327 
L 505.584 219.937631 
L 517.86 218.361117 
L 518.976 216.928151 
L 508.932 215.480437 
L 523.44 214.209688 
L 552.456 212.882809 
L 542.97 211.64074 
L 558.594 210.409677 
L 549.108 209.435256 
L 563.616 208.453189 
L 530.694 207.419214 
L 551.34 206.380869 
L 558.036 205.50429 
L 571.428 204.564818 
L 575.892 203.677962 
L 588.726 202.842738 
L 532.368 201.972908 
L 592.632 201.255712 
L 583.704 200.418991 
L 608.256 199.609064 
L 582.588 198.842095 
L 598.77 198.093537 
L 602.676 197.432732 
L 617.742 196.730631 
L 600.444 196.098993 
L 626.112 195.370204 
L 582.03 194.724773 
L 593.748 194.105924 
L 622.206 193.461013 
L 628.902 192.838589 
L 585.378 192.299782 
L 624.996 191.68056 
L 614.952 191.116083 
L 649.548 190.529072 
L 641.178 189.993868 
L 628.902 189.396602 
L 628.902 188.876131 
L 624.438 188.34108 
L 663.498 187.802854 
L 631.692 186.90606 
L 638.946 186.430076 
L 657.36 185.945798 
L 651.222 185.535044 
L 655.686 185.089017 
L 654.012 184.663232 
L 665.172 184.227948 
L 626.67 183.812495 
L 671.868 183.352373 
L 633.366 182.892781 
L 631.692 182.419018 
L 641.736 182.016338 
L 669.636 181.594267 
L 664.614 181.190199 
L 668.52 180.801144 
L 666.846 180.396983 
L 628.902 180.042616 
L 680.796 179.677488 
L 680.238 179.307357 
L 674.658 178.981942 
L 699.21 178.28553 
L 679.122 177.903929 
L 676.332 177.544795 
L 671.31 177.223994 
L 677.448 176.913659 
L 703.116 176.577511 
L 685.26 176.255523 
L 695.304 175.92647 
L 680.238 175.278779 
L 686.934 174.96798 
L 704.79 174.658427 
L 686.376 174.377901 
L 710.928 174.070297 
L 691.956 173.775733 
L 693.072 173.487278 
L 715.95 173.215101 
L 690.84 172.92983 
L 719.298 172.659311 
L 703.674 172.132058 
L 715.95 171.878076 
L 719.298 171.330232 
L 714.276 171.062326 
L 701.442 170.786989 
L 728.226 170.518121 
L 710.37 170.261215 
L 724.32 170.031068 
L 723.762 169.762254 
L 713.718 169.28059 
L 702.558 169.013596 
L 709.812 168.759235 
L 712.044 168.524123 
L 718.182 168.287977 
L 707.022 168.048427 
L 715.392 167.822584 
L 698.652 167.605513 
L 734.922 167.379731 
L 747.198 167.172575 
L 728.226 166.956978 
L 728.226 166.732382 
L 734.922 166.500449 
L 719.856 166.30375 
L 744.408 165.867693 
L 721.53 165.232967 
L 751.662 165.033382 
L 739.386 164.814916 
L 751.662 164.640899 
L 756.684 164.445645 
L 742.176 164.247495 
L 744.408 164.067138 
L 752.778 163.878147 
L 752.778 163.651586 
L 743.85 163.450404 
L 761.148 163.271048 
L 732.69 163.086865 
L 732.69 162.895188 
L 745.524 162.681884 
L 748.314 162.475705 
L 747.756 162.285484 
L 732.69 162.112973 
L 758.358 161.939019 
L 740.502 161.582434 
L 744.408 161.38191 
L 762.264 161.209076 
L 761.148 161.038229 
L 747.198 160.859201 
L 766.17 160.705881 
L 751.662 160.543528 
L 772.308 160.361505 
L 751.104 160.20314 
L 754.452 160.024921 
L 742.176 159.853355 
L 763.38 159.676942 
L 755.568 159.5144 
L 733.806 159.341978 
L 753.336 159.188555 
L 742.176 159.028311 
L 760.59 158.869678 
L 761.706 158.733176 
L 752.778 158.576175 
L 757.8 158.420351 
L 749.988 158.275982 
L 759.474 158.124708 
L 762.822 157.95817 
L 777.888 157.814047 
L 762.264 157.648247 
L 766.17 157.521538 
L 752.778 157.382273 
L 767.286 157.216629 
L 767.844 157.070903 
L 737.712 156.922488 
L 768.402 156.76431 
L 771.192 156.595351 
L 749.988 156.430651 
L 768.402 156.288665 
L 747.198 156.159805 
L 765.054 156.01645 
L 763.938 155.870207 
L 780.678 155.740816 
L 769.518 155.597793 
L 770.076 155.47428 
L 757.242 155.332837 
L 765.054 155.186957 
L 784.584 155.040401 
L 758.358 154.633474 
L 781.236 154.514043 
L 776.772 154.385539 
L 779.562 154.249573 
L 778.446 154.119076 
L 755.568 153.984456 
L 781.794 153.736553 
L 773.424 153.597679 
L 772.308 153.464686 
L 759.474 153.323724 
L 771.75 153.207828 
L 763.938 153.075693 
L 783.468 152.951486 
L 770.076 152.5814 
L 770.076 152.465711 
L 780.678 152.340704 
L 771.192 152.220165 
L 792.954 152.101139 
L 777.33 151.987903 
L 796.86 151.871431 
L 769.518 151.651183 
L 791.838 151.535365 
L 777.33 151.300225 
L 785.142 150.9496 
L 779.004 150.84201 
L 792.396 150.724955 
L 779.562 150.611536 
L 784.026 150.497693 
L 773.424 150.379361 
L 782.91 150.273823 
L 772.866 150.173399 
L 796.302 150.075437 
L 782.352 149.973817 
L 795.186 149.763278 
L 758.358 149.546372 
L 792.954 149.43366 
L 771.75 149.325902 
L 772.308 149.212352 
L 796.86 148.911033 
L 797.976 148.793994 
L 797.976 148.677265 
L 778.446 148.467142 
L 792.396 148.37166 
L 785.142 148.278751 
L 786.816 148.185159 
L 795.744 147.978003 
L 766.728 147.872971 
L 772.308 147.770241 
L 785.142 147.671322 
L 775.656 147.557035 
L 795.186 147.369112 
L 781.236 147.295454 
L 797.418 147.10278 
L 780.12 146.71937 
L 804.114 146.513482 
L 797.418 146.423884 
L 762.822 146.339801 
L 792.396 146.245037 
L 791.28 146.158223 
L 774.54 146.05043 
L 780.12 145.956722 
L 799.092 145.872961 
L 789.606 145.765052 
L 809.694 145.686925 
L 789.048 145.431125 
L 806.346 145.34387 
L 786.816 145.138757 
L 795.186 145.05292 
L 790.722 144.949699 
L 792.954 144.864269 
L 798.534 144.78675 
L 792.396 144.699398 
L 801.324 144.605336 
L 791.28 144.430813 
L 801.324 144.347567 
L 783.468 144.182128 
L 792.954 144.029001 
L 794.07 143.938611 
L 799.092 143.836567 
L 788.49 143.679958 
L 797.418 143.516696 
L 794.628 143.437588 
L 807.462 143.34154 
L 800.766 143.268154 
L 806.346 143.18027 
L 762.264 143.08475 
L 802.998 142.930036 
L 792.954 142.831592 
L 800.208 142.749769 
L 777.33 142.678776 
L 803.556 142.600891 
L 790.722 142.534349 
L 794.628 142.466222 
L 789.606 142.397028 
L 792.954 142.313855 
L 789.048 142.247797 
L 800.766 142.168038 
L 763.38 142.072235 
L 789.606 141.918359 
L 796.302 141.82992 
L 792.954 141.761194 
L 797.418 141.679627 
L 793.512 141.608927 
L 796.86 141.544221 
L 782.352 141.470436 
L 800.208 141.307993 
L 786.816 141.245881 
L 791.838 141.176497 
L 788.49 141.093567 
L 795.744 141.010008 
L 781.794 140.946168 
L 792.396 140.862647 
L 791.838 140.782545 
L 797.418 140.709663 
L 766.17 140.651549 
L 809.136 140.514132 
L 795.744 140.43549 
L 802.44 140.362176 
L 796.302 140.293868 
L 797.976 140.225272 
L 797.418 140.145309 
L 800.766 140.064989 
L 789.606 139.983151 
L 802.998 139.907099 
L 795.744 139.848846 
L 805.23 139.72042 
L 794.628 139.637874 
L 808.578 139.49479 
L 811.368 139.424346 
L 798.534 139.365672 
L 804.114 139.30145 
L 815.832 139.22757 
L 809.694 139.16769 
" style="fill:none;stroke:#ff9500;stroke-linecap:square;stroke-width:5;"/>
   </g>
   <g id="line2d_59">
    <path clip-path="url(#peb34f62c1a)" d="M -1 499.703075 
L 15.102 497.348217 
L 151.254 483.249769 
L 264.528 472.264406 
L 290.754 463.086537 
L 306.936 455.284094 
L 369.99 442.683929 
L 414.072 437.404544 
L 416.862 432.657997 
L 425.79 428.280879 
L 445.878 424.332681 
L 438.066 420.672183 
L 433.044 417.287433 
L 492.75 414.124106 
L 492.75 411.168798 
L 490.518 408.35684 
L 471.546 405.684955 
L 505.584 403.175203 
L 517.86 400.794706 
L 518.976 398.502028 
L 508.932 396.317745 
L 523.44 394.232842 
L 552.456 392.244454 
L 542.97 390.346032 
L 558.594 388.507131 
L 549.108 386.72722 
L 563.616 385.025099 
L 530.694 383.366721 
L 551.34 381.763739 
L 558.036 380.219734 
L 571.428 378.732384 
L 575.892 377.273464 
L 588.726 375.866284 
L 532.368 374.485844 
L 592.632 373.142892 
L 583.704 371.834106 
L 608.256 370.571243 
L 582.588 369.339095 
L 598.77 368.145333 
L 602.676 366.976911 
L 617.742 365.843743 
L 600.444 364.727373 
L 626.112 363.638004 
L 582.03 362.566847 
L 593.748 361.5148 
L 622.206 360.487342 
L 628.902 359.488313 
L 585.378 358.516725 
L 624.996 357.554325 
L 614.952 356.606837 
L 649.548 355.669062 
L 641.178 354.758478 
L 628.902 353.863918 
L 628.902 352.992959 
L 624.438 352.128274 
L 663.498 351.286957 
L 646.2 350.465246 
L 631.692 349.653529 
L 638.946 348.858997 
L 657.36 348.08431 
L 651.222 347.322467 
L 655.686 346.568776 
L 654.012 345.830143 
L 665.172 345.103652 
L 626.67 344.387261 
L 671.868 343.681272 
L 633.366 342.98291 
L 631.692 342.296594 
L 641.736 341.627972 
L 669.636 340.969344 
L 664.614 340.320406 
L 668.52 339.684877 
L 666.846 339.058564 
L 628.902 338.433778 
L 680.796 337.818825 
L 680.238 337.213434 
L 674.658 336.6202 
L 699.21 335.450388 
L 679.122 334.878944 
L 676.332 334.315614 
L 671.31 333.750835 
L 677.448 333.194915 
L 703.116 332.646795 
L 685.26 332.110244 
L 695.304 331.578437 
L 688.608 331.053919 
L 680.238 330.536172 
L 686.934 330.026891 
L 704.79 329.522052 
L 686.376 329.02306 
L 710.928 328.530547 
L 691.956 328.043401 
L 693.072 327.56108 
L 715.95 327.087359 
L 690.84 326.615612 
L 719.298 326.149191 
L 703.674 325.230477 
L 715.95 324.777813 
L 718.182 324.329459 
L 719.298 323.887491 
L 714.276 323.450697 
L 701.442 323.013873 
L 728.226 322.58484 
L 710.37 322.159148 
L 724.32 321.740906 
L 723.762 321.329777 
L 719.856 320.92059 
L 713.718 320.513367 
L 702.558 320.110714 
L 709.812 319.710598 
L 712.044 319.312317 
L 718.182 318.921526 
L 707.022 318.531692 
L 715.392 318.143708 
L 698.652 317.759483 
L 734.922 317.380996 
L 747.198 317.005466 
L 728.226 316.634754 
L 728.226 316.268593 
L 734.922 315.905298 
L 719.856 315.545988 
L 744.408 314.834985 
L 734.922 314.482975 
L 731.574 314.132482 
L 721.53 313.786422 
L 751.662 313.4414 
L 739.386 313.100377 
L 751.662 312.760213 
L 756.684 312.425499 
L 742.176 312.092501 
L 744.408 311.76064 
L 752.778 311.432146 
L 752.778 311.108556 
L 743.85 310.786777 
L 761.148 310.466078 
L 732.69 310.146495 
L 732.69 309.830581 
L 745.524 309.516247 
L 748.314 309.205049 
L 747.756 308.896195 
L 732.69 308.589766 
L 758.358 308.285924 
L 740.502 307.685008 
L 744.408 307.385576 
L 762.264 307.090731 
L 761.148 306.795685 
L 747.198 306.50305 
L 766.17 306.210739 
L 751.662 305.920502 
L 772.308 305.631174 
L 751.104 305.34524 
L 754.452 305.059994 
L 742.176 304.778494 
L 763.38 304.496719 
L 755.568 304.215864 
L 733.806 303.938122 
L 753.336 303.660534 
L 742.176 303.385447 
L 760.59 303.111867 
L 761.706 302.841 
L 752.778 302.569344 
L 757.8 302.301714 
L 749.988 302.036397 
L 759.474 301.771067 
L 762.822 301.511996 
L 777.888 301.25418 
L 762.264 300.995988 
L 766.17 300.740051 
L 752.778 300.484178 
L 767.286 300.230705 
L 767.844 299.976918 
L 737.712 299.723674 
L 768.402 299.471205 
L 771.192 299.222487 
L 749.988 298.974896 
L 768.402 298.728343 
L 747.198 298.481453 
L 765.054 298.236621 
L 763.938 297.994565 
L 780.678 297.753668 
L 769.518 297.51446 
L 770.076 297.276779 
L 757.242 297.041065 
L 765.054 296.806577 
L 784.584 296.571471 
L 776.772 296.337076 
L 758.358 295.871318 
L 781.236 295.639422 
L 776.772 295.409132 
L 779.562 295.179587 
L 778.446 294.951524 
L 755.568 294.725424 
L 781.794 294.276259 
L 773.424 294.053023 
L 772.308 293.831601 
L 759.474 293.612471 
L 771.75 293.3923 
L 763.938 293.174725 
L 783.468 292.958718 
L 770.076 292.315529 
L 770.076 292.103385 
L 780.678 291.892216 
L 771.192 291.682307 
L 792.954 291.473683 
L 777.33 291.264268 
L 796.86 291.055789 
L 769.518 290.644276 
L 791.838 290.439595 
L 777.888 290.235429 
L 777.33 290.031785 
L 782.91 289.628877 
L 785.142 289.428712 
L 779.004 289.228931 
L 792.396 289.030044 
L 779.562 288.831919 
L 784.026 288.635199 
L 773.424 288.439864 
L 782.91 288.24417 
L 772.866 288.049207 
L 796.302 287.854437 
L 782.352 287.659686 
L 786.816 287.467057 
L 795.186 287.276114 
L 768.96 287.085449 
L 758.358 286.895855 
L 792.954 286.707756 
L 771.75 286.520258 
L 772.308 286.332717 
L 796.86 285.775024 
L 797.976 285.590158 
L 797.976 285.406347 
L 783.468 285.223284 
L 778.446 285.03945 
L 792.396 284.856729 
L 785.142 284.676422 
L 786.816 284.496008 
L 795.744 284.139451 
L 766.728 283.962906 
L 772.308 283.785727 
L 785.142 283.609449 
L 775.656 283.433387 
L 790.722 283.257833 
L 795.186 283.083047 
L 781.236 282.910591 
L 797.418 282.565818 
L 792.954 282.394882 
L 784.026 282.224097 
L 784.584 282.053191 
L 780.12 281.884318 
L 804.114 281.545973 
L 797.418 281.377805 
L 762.822 281.210782 
L 792.396 281.044154 
L 791.28 280.878284 
L 774.54 280.713719 
L 780.12 280.550603 
L 799.092 280.38736 
L 789.606 280.224317 
L 809.694 280.062029 
L 799.65 279.900555 
L 798.534 279.73901 
L 789.048 279.578519 
L 806.346 279.417685 
L 791.28 279.258646 
L 786.816 279.100071 
L 795.186 278.942498 
L 790.722 278.784674 
L 792.954 278.628438 
L 798.534 278.472906 
L 792.396 278.31875 
L 801.324 278.164118 
L 791.28 277.857503 
L 801.324 277.705011 
L 786.816 277.553179 
L 783.468 277.401577 
L 792.954 277.25014 
L 792.954 277.099428 
L 794.07 276.948915 
L 799.092 276.799652 
L 788.49 276.502432 
L 797.418 276.206321 
L 794.628 276.059631 
L 807.462 275.913301 
L 800.766 275.76694 
L 806.346 275.621866 
L 762.264 275.477195 
L 799.65 275.332954 
L 802.998 275.189208 
L 792.954 275.045578 
L 800.208 274.90252 
L 777.33 274.759905 
L 803.556 274.617554 
L 790.722 274.476863 
L 794.628 274.33624 
L 789.606 274.196529 
L 792.954 274.056672 
L 789.048 273.917796 
L 800.766 273.778908 
L 763.38 273.640808 
L 789.606 273.362912 
L 796.302 273.224922 
L 792.954 273.086742 
L 797.418 272.948876 
L 793.512 272.811238 
L 796.86 272.674773 
L 782.352 272.539024 
L 797.976 272.403379 
L 800.208 272.267833 
L 786.816 272.132939 
L 791.838 271.998872 
L 788.49 271.865089 
L 795.744 271.731536 
L 781.794 271.598555 
L 792.396 271.465852 
L 791.838 271.333708 
L 797.418 271.202319 
L 766.17 271.071979 
L 809.136 270.809889 
L 795.744 270.678601 
L 802.44 270.548199 
L 796.302 270.41771 
L 797.976 270.288686 
L 797.418 270.159336 
L 800.766 270.030867 
L 789.606 269.90258 
L 802.998 269.775109 
L 795.744 269.648019 
L 805.23 269.395765 
L 794.628 269.269828 
L 808.578 269.018279 
L 811.368 268.892836 
L 798.534 268.768102 
L 804.114 268.644289 
L 815.832 268.520421 
L 809.694 268.396592 
L 809.694 268.396592 
" style="fill:none;stroke:#ffc36e;stroke-linecap:square;stroke-width:5;"/>
   </g>
   <g id="patch_3">
    <path d="M 144 504 
L 144 69.12 
" style="fill:none;stroke:#000000;stroke-linecap:square;stroke-linejoin:miter;stroke-width:0.8;"/>
   </g>
   <g id="patch_4">
    <path d="M 1036.8 504 
L 1036.8 69.12 
" style="fill:none;stroke:#000000;stroke-linecap:square;stroke-linejoin:miter;stroke-width:0.8;"/>
   </g>
   <g id="patch_5">
    <path d="M 144 504 
L 1036.8 504 
" style="fill:none;stroke:#000000;stroke-linecap:square;stroke-linejoin:miter;stroke-width:0.8;"/>
   </g>
   <g id="patch_6">
    <path d="M 144 69.12 
L 1036.8 69.12 
" style="fill:none;stroke:#000000;stroke-linecap:square;stroke-linejoin:miter;stroke-width:0.8;"/>
   </g>
   <g id="text_17">
    <!-- Gated: Energy vs. Accuracy with 50 Units @ 0.8 -->
    <g transform="translate(159.347812 61.633125)scale(0.36 -0.36)">
     <defs>
      <path d="M 59.515625 10.40625 
L 59.515625 29.984375 
L 43.40625 29.984375 
L 43.40625 38.09375 
L 69.28125 38.09375 
L 69.28125 6.78125 
Q 63.578125 2.734375 56.6875 0.65625 
Q 49.8125 -1.421875 42 -1.421875 
Q 24.90625 -1.421875 15.25 8.5625 
Q 5.609375 18.5625 5.609375 36.375 
Q 5.609375 54.25 15.25 64.234375 
Q 24.90625 74.21875 42 74.21875 
Q 49.125 74.21875 55.546875 72.453125 
Q 61.96875 70.703125 67.390625 67.28125 
L 67.390625 56.78125 
Q 61.921875 61.421875 55.765625 63.765625 
Q 49.609375 66.109375 42.828125 66.109375 
Q 29.4375 66.109375 22.71875 58.640625 
Q 16.015625 51.171875 16.015625 36.375 
Q 16.015625 21.625 22.71875 14.15625 
Q 29.4375 6.6875 42.828125 6.6875 
Q 48.046875 6.6875 52.140625 7.59375 
Q 56.25 8.5 59.515625 10.40625 
z
" id="DejaVuSans-71"/>
      <path d="M 18.3125 70.21875 
L 18.3125 54.6875 
L 36.8125 54.6875 
L 36.8125 47.703125 
L 18.3125 47.703125 
L 18.3125 18.015625 
Q 18.3125 11.328125 20.140625 9.421875 
Q 21.96875 7.515625 27.59375 7.515625 
L 36.8125 7.515625 
L 36.8125 0 
L 27.59375 0 
Q 17.1875 0 13.234375 3.875 
Q 9.28125 7.765625 9.28125 18.015625 
L 9.28125 47.703125 
L 2.6875 47.703125 
L 2.6875 54.6875 
L 9.28125 54.6875 
L 9.28125 70.21875 
z
" id="DejaVuSans-116"/>
      <path d="M 45.40625 46.390625 
L 45.40625 75.984375 
L 54.390625 75.984375 
L 54.390625 0 
L 45.40625 0 
L 45.40625 8.203125 
Q 42.578125 3.328125 38.25 0.953125 
Q 33.9375 -1.421875 27.875 -1.421875 
Q 17.96875 -1.421875 11.734375 6.484375 
Q 5.515625 14.40625 5.515625 27.296875 
Q 5.515625 40.1875 11.734375 48.09375 
Q 17.96875 56 27.875 56 
Q 33.9375 56 38.25 53.625 
Q 42.578125 51.265625 45.40625 46.390625 
z
M 14.796875 27.296875 
Q 14.796875 17.390625 18.875 11.75 
Q 22.953125 6.109375 30.078125 6.109375 
Q 37.203125 6.109375 41.296875 11.75 
Q 45.40625 17.390625 45.40625 27.296875 
Q 45.40625 37.203125 41.296875 42.84375 
Q 37.203125 48.484375 30.078125 48.484375 
Q 22.953125 48.484375 18.875 42.84375 
Q 14.796875 37.203125 14.796875 27.296875 
z
" id="DejaVuSans-100"/>
      <path d="M 11.71875 12.40625 
L 22.015625 12.40625 
L 22.015625 0 
L 11.71875 0 
z
M 11.71875 51.703125 
L 22.015625 51.703125 
L 22.015625 39.3125 
L 11.71875 39.3125 
z
" id="DejaVuSans-58"/>
      <path d="M 2.984375 54.6875 
L 12.5 54.6875 
L 29.59375 8.796875 
L 46.6875 54.6875 
L 56.203125 54.6875 
L 35.6875 0 
L 23.484375 0 
z
" id="DejaVuSans-118"/>
      <path d="M 44.28125 53.078125 
L 44.28125 44.578125 
Q 40.484375 46.53125 36.375 47.5 
Q 32.28125 48.484375 27.875 48.484375 
Q 21.1875 48.484375 17.84375 46.4375 
Q 14.5 44.390625 14.5 40.28125 
Q 14.5 37.15625 16.890625 35.375 
Q 19.28125 33.59375 26.515625 31.984375 
L 29.59375 31.296875 
Q 39.15625 29.25 43.1875 25.515625 
Q 47.21875 21.78125 47.21875 15.09375 
Q 47.21875 7.46875 41.1875 3.015625 
Q 35.15625 -1.421875 24.609375 -1.421875 
Q 20.21875 -1.421875 15.453125 -0.5625 
Q 10.6875 0.296875 5.421875 2 
L 5.421875 11.28125 
Q 10.40625 8.6875 15.234375 7.390625 
Q 20.0625 6.109375 24.8125 6.109375 
Q 31.15625 6.109375 34.5625 8.28125 
Q 37.984375 10.453125 37.984375 14.40625 
Q 37.984375 18.0625 35.515625 20.015625 
Q 33.0625 21.96875 24.703125 23.78125 
L 21.578125 24.515625 
Q 13.234375 26.265625 9.515625 29.90625 
Q 5.8125 33.546875 5.8125 39.890625 
Q 5.8125 47.609375 11.28125 51.796875 
Q 16.75 56 26.8125 56 
Q 31.78125 56 36.171875 55.265625 
Q 40.578125 54.546875 44.28125 53.078125 
z
" id="DejaVuSans-115"/>
      <path d="M 4.203125 54.6875 
L 13.1875 54.6875 
L 24.421875 12.015625 
L 35.59375 54.6875 
L 46.1875 54.6875 
L 57.421875 12.015625 
L 68.609375 54.6875 
L 77.59375 54.6875 
L 63.28125 0 
L 52.6875 0 
L 40.921875 44.828125 
L 29.109375 0 
L 18.5 0 
z
" id="DejaVuSans-119"/>
      <path d="M 9.421875 54.6875 
L 18.40625 54.6875 
L 18.40625 0 
L 9.421875 0 
z
M 9.421875 75.984375 
L 18.40625 75.984375 
L 18.40625 64.59375 
L 9.421875 64.59375 
z
" id="DejaVuSans-105"/>
      <path d="M 54.890625 33.015625 
L 54.890625 0 
L 45.90625 0 
L 45.90625 32.71875 
Q 45.90625 40.484375 42.875 44.328125 
Q 39.84375 48.1875 33.796875 48.1875 
Q 26.515625 48.1875 22.3125 43.546875 
Q 18.109375 38.921875 18.109375 30.90625 
L 18.109375 0 
L 9.078125 0 
L 9.078125 75.984375 
L 18.109375 75.984375 
L 18.109375 46.1875 
Q 21.34375 51.125 25.703125 53.5625 
Q 30.078125 56 35.796875 56 
Q 45.21875 56 50.046875 50.171875 
Q 54.890625 44.34375 54.890625 33.015625 
z
" id="DejaVuSans-104"/>
      <path d="M 37.203125 26.21875 
Q 37.203125 19.234375 40.671875 15.25 
Q 44.140625 11.28125 50.203125 11.28125 
Q 56.203125 11.28125 59.640625 15.28125 
Q 63.09375 19.28125 63.09375 26.21875 
Q 63.09375 33.0625 59.578125 37.078125 
Q 56.0625 41.109375 50.09375 41.109375 
Q 44.1875 41.109375 40.6875 37.109375 
Q 37.203125 33.109375 37.203125 26.21875 
z
M 63.8125 11.625 
Q 60.890625 7.859375 57.109375 6.078125 
Q 53.328125 4.296875 48.296875 4.296875 
Q 39.890625 4.296875 34.640625 10.375 
Q 29.390625 16.453125 29.390625 26.21875 
Q 29.390625 35.984375 34.65625 42.078125 
Q 39.9375 48.1875 48.296875 48.1875 
Q 53.328125 48.1875 57.125 46.359375 
Q 60.9375 44.53125 63.8125 40.828125 
L 63.8125 47.21875 
L 70.796875 47.21875 
L 70.796875 11.28125 
Q 77.9375 12.359375 81.953125 17.796875 
Q 85.984375 23.25 85.984375 31.890625 
Q 85.984375 37.109375 84.4375 41.703125 
Q 82.90625 46.296875 79.78125 50.203125 
Q 74.703125 56.59375 67.40625 59.984375 
Q 60.109375 63.375 51.515625 63.375 
Q 45.515625 63.375 39.984375 61.78125 
Q 34.46875 60.203125 29.78125 57.078125 
Q 22.125 52.09375 17.796875 44.015625 
Q 13.484375 35.9375 13.484375 26.515625 
Q 13.484375 18.75 16.28125 11.953125 
Q 19.09375 5.171875 24.421875 0 
Q 29.546875 -5.078125 36.28125 -7.734375 
Q 43.015625 -10.40625 50.6875 -10.40625 
Q 56.984375 -10.40625 63.0625 -8.28125 
Q 69.140625 -6.15625 74.21875 -2.203125 
L 78.609375 -7.625 
Q 72.515625 -12.359375 65.3125 -14.875 
Q 58.109375 -17.390625 50.6875 -17.390625 
Q 41.65625 -17.390625 33.640625 -14.1875 
Q 25.640625 -10.984375 19.390625 -4.890625 
Q 13.140625 1.21875 9.859375 9.25 
Q 6.59375 17.28125 6.59375 26.515625 
Q 6.59375 35.40625 9.90625 43.453125 
Q 13.234375 51.515625 19.390625 57.625 
Q 25.6875 63.8125 33.9375 67.109375 
Q 42.1875 70.40625 51.421875 70.40625 
Q 61.765625 70.40625 70.625 66.15625 
Q 79.5 61.921875 85.5 54.109375 
Q 89.15625 49.3125 91.078125 43.703125 
Q 93.015625 38.09375 93.015625 32.078125 
Q 93.015625 19.234375 85.25 11.8125 
Q 77.484375 4.390625 63.8125 4.109375 
z
" id="DejaVuSans-64"/>
     </defs>
     <use xlink:href="#DejaVuSans-71"/>
     <use x="77.490234" xlink:href="#DejaVuSans-97"/>
     <use x="138.769531" xlink:href="#DejaVuSans-116"/>
     <use x="177.978516" xlink:href="#DejaVuSans-101"/>
     <use x="239.501953" xlink:href="#DejaVuSans-100"/>
     <use x="302.978516" xlink:href="#DejaVuSans-58"/>
     <use x="336.669922" xlink:href="#DejaVuSans-32"/>
     <use x="368.457031" xlink:href="#DejaVuSans-69"/>
     <use x="431.640625" xlink:href="#DejaVuSans-110"/>
     <use x="495.019531" xlink:href="#DejaVuSans-101"/>
     <use x="556.542969" xlink:href="#DejaVuSans-114"/>
     <use x="595.90625" xlink:href="#DejaVuSans-103"/>
     <use x="659.382812" xlink:href="#DejaVuSans-121"/>
     <use x="718.5625" xlink:href="#DejaVuSans-32"/>
     <use x="750.349609" xlink:href="#DejaVuSans-118"/>
     <use x="809.529297" xlink:href="#DejaVuSans-115"/>
     <use x="861.628906" xlink:href="#DejaVuSans-46"/>
     <use x="893.416016" xlink:href="#DejaVuSans-32"/>
     <use x="925.203125" xlink:href="#DejaVuSans-65"/>
     <use x="991.861328" xlink:href="#DejaVuSans-99"/>
     <use x="1046.841797" xlink:href="#DejaVuSans-99"/>
     <use x="1101.822266" xlink:href="#DejaVuSans-117"/>
     <use x="1165.201172" xlink:href="#DejaVuSans-114"/>
     <use x="1206.314453" xlink:href="#DejaVuSans-97"/>
     <use x="1267.59375" xlink:href="#DejaVuSans-99"/>
     <use x="1322.574219" xlink:href="#DejaVuSans-121"/>
     <use x="1381.753906" xlink:href="#DejaVuSans-32"/>
     <use x="1413.541016" xlink:href="#DejaVuSans-119"/>
     <use x="1495.328125" xlink:href="#DejaVuSans-105"/>
     <use x="1523.111328" xlink:href="#DejaVuSans-116"/>
     <use x="1562.320312" xlink:href="#DejaVuSans-104"/>
     <use x="1625.699219" xlink:href="#DejaVuSans-32"/>
     <use x="1657.486328" xlink:href="#DejaVuSans-53"/>
     <use x="1721.109375" xlink:href="#DejaVuSans-48"/>
     <use x="1784.732422" xlink:href="#DejaVuSans-32"/>
     <use x="1816.519531" xlink:href="#DejaVuSans-85"/>
     <use x="1889.712891" xlink:href="#DejaVuSans-110"/>
     <use x="1953.091797" xlink:href="#DejaVuSans-105"/>
     <use x="1980.875" xlink:href="#DejaVuSans-116"/>
     <use x="2020.083984" xlink:href="#DejaVuSans-115"/>
     <use x="2072.183594" xlink:href="#DejaVuSans-32"/>
     <use x="2103.970703" xlink:href="#DejaVuSans-64"/>
     <use x="2203.970703" xlink:href="#DejaVuSans-32"/>
     <use x="2235.757812" xlink:href="#DejaVuSans-48"/>
     <use x="2299.380859" xlink:href="#DejaVuSans-46"/>
     <use x="2331.167969" xlink:href="#DejaVuSans-56"/>
    </g>
   </g>
   <g id="legend_1">
    <g id="patch_7">
     <path d="M 799.660625 493 
L 1021.4 493 
Q 1025.8 493 1025.8 488.6 
L 1025.8 361.6325 
Q 1025.8 357.2325 1021.4 357.2325 
L 799.660625 357.2325 
Q 795.260625 357.2325 795.260625 361.6325 
L 795.260625 488.6 
Q 795.260625 493 799.660625 493 
z
" style="fill:#ffffff;opacity:0.8;stroke:#cccccc;stroke-linejoin:miter;"/>
    </g>
    <g id="line2d_60">
     <path d="M 804.060625 375.049062 
L 848.060625 375.049062 
" style="fill:none;stroke:#1f1f1f;stroke-linecap:square;stroke-width:5;"/>
    </g>
    <g id="line2d_61"/>
    <g id="text_18">
     <!-- Ungated: 1.0 -->
     <g transform="translate(865.660625 382.749062)scale(0.22 -0.22)">
      <use xlink:href="#DejaVuSans-85"/>
      <use x="73.193359" xlink:href="#DejaVuSans-110"/>
      <use x="136.572266" xlink:href="#DejaVuSans-103"/>
      <use x="200.048828" xlink:href="#DejaVuSans-97"/>
      <use x="261.328125" xlink:href="#DejaVuSans-116"/>
      <use x="300.537109" xlink:href="#DejaVuSans-101"/>
      <use x="362.060547" xlink:href="#DejaVuSans-100"/>
      <use x="425.537109" xlink:href="#DejaVuSans-58"/>
      <use x="459.228516" xlink:href="#DejaVuSans-32"/>
      <use x="491.015625" xlink:href="#DejaVuSans-49"/>
      <use x="554.638672" xlink:href="#DejaVuSans-46"/>
      <use x="586.425781" xlink:href="#DejaVuSans-48"/>
     </g>
    </g>
    <g id="line2d_62">
     <path d="M 804.060625 407.340937 
L 848.060625 407.340937 
" style="fill:none;stroke:#9e9e9e;stroke-linecap:square;stroke-width:5;"/>
    </g>
    <g id="line2d_63"/>
    <g id="text_19">
     <!-- Minimum: 1.0 -->
     <g transform="translate(865.660625 415.040937)scale(0.22 -0.22)">
      <defs>
       <path d="M 9.8125 72.90625 
L 24.515625 72.90625 
L 43.109375 23.296875 
L 61.8125 72.90625 
L 76.515625 72.90625 
L 76.515625 0 
L 66.890625 0 
L 66.890625 64.015625 
L 48.09375 14.015625 
L 38.1875 14.015625 
L 19.390625 64.015625 
L 19.390625 0 
L 9.8125 0 
z
" id="DejaVuSans-77"/>
       <path d="M 52 44.1875 
Q 55.375 50.25 60.0625 53.125 
Q 64.75 56 71.09375 56 
Q 79.640625 56 84.28125 50.015625 
Q 88.921875 44.046875 88.921875 33.015625 
L 88.921875 0 
L 79.890625 0 
L 79.890625 32.71875 
Q 79.890625 40.578125 77.09375 44.375 
Q 74.3125 48.1875 68.609375 48.1875 
Q 61.625 48.1875 57.5625 43.546875 
Q 53.515625 38.921875 53.515625 30.90625 
L 53.515625 0 
L 44.484375 0 
L 44.484375 32.71875 
Q 44.484375 40.625 41.703125 44.40625 
Q 38.921875 48.1875 33.109375 48.1875 
Q 26.21875 48.1875 22.15625 43.53125 
Q 18.109375 38.875 18.109375 30.90625 
L 18.109375 0 
L 9.078125 0 
L 9.078125 54.6875 
L 18.109375 54.6875 
L 18.109375 46.1875 
Q 21.1875 51.21875 25.484375 53.609375 
Q 29.78125 56 35.6875 56 
Q 41.65625 56 45.828125 52.96875 
Q 50 49.953125 52 44.1875 
z
" id="DejaVuSans-109"/>
      </defs>
      <use xlink:href="#DejaVuSans-77"/>
      <use x="86.279297" xlink:href="#DejaVuSans-105"/>
      <use x="114.0625" xlink:href="#DejaVuSans-110"/>
      <use x="177.441406" xlink:href="#DejaVuSans-105"/>
      <use x="205.224609" xlink:href="#DejaVuSans-109"/>
      <use x="302.636719" xlink:href="#DejaVuSans-117"/>
      <use x="366.015625" xlink:href="#DejaVuSans-109"/>
      <use x="463.427734" xlink:href="#DejaVuSans-58"/>
      <use x="497.119141" xlink:href="#DejaVuSans-32"/>
      <use x="528.90625" xlink:href="#DejaVuSans-49"/>
      <use x="592.529297" xlink:href="#DejaVuSans-46"/>
      <use x="624.316406" xlink:href="#DejaVuSans-48"/>
     </g>
    </g>
    <g id="line2d_64">
     <path d="M 804.060625 439.632812 
L 848.060625 439.632812 
" style="fill:none;stroke:#ff9500;stroke-linecap:square;stroke-width:5;"/>
    </g>
    <g id="line2d_65"/>
    <g id="text_20">
     <!-- Gated: 0.8 -->
     <g transform="translate(865.660625 447.332812)scale(0.22 -0.22)">
      <use xlink:href="#DejaVuSans-71"/>
      <use x="77.490234" xlink:href="#DejaVuSans-97"/>
      <use x="138.769531" xlink:href="#DejaVuSans-116"/>
      <use x="177.978516" xlink:href="#DejaVuSans-101"/>
      <use x="239.501953" xlink:href="#DejaVuSans-100"/>
      <use x="302.978516" xlink:href="#DejaVuSans-58"/>
      <use x="336.669922" xlink:href="#DejaVuSans-32"/>
      <use x="368.457031" xlink:href="#DejaVuSans-48"/>
      <use x="432.080078" xlink:href="#DejaVuSans-46"/>
      <use x="463.867188" xlink:href="#DejaVuSans-56"/>
     </g>
    </g>
    <g id="line2d_66">
     <path d="M 804.060625 471.924688 
L 848.060625 471.924688 
" style="fill:none;stroke:#ffc36e;stroke-linecap:square;stroke-width:5;"/>
    </g>
    <g id="line2d_67"/>
    <g id="text_21">
     <!-- Minimum: 0.8 -->
     <g transform="translate(865.660625 479.624687)scale(0.22 -0.22)">
      <use xlink:href="#DejaVuSans-77"/>
      <use x="86.279297" xlink:href="#DejaVuSans-105"/>
      <use x="114.0625" xlink:href="#DejaVuSans-110"/>
      <use x="177.441406" xlink:href="#DejaVuSans-105"/>
      <use x="205.224609" xlink:href="#DejaVuSans-109"/>
      <use x="302.636719" xlink:href="#DejaVuSans-117"/>
      <use x="366.015625" xlink:href="#DejaVuSans-109"/>
      <use x="463.427734" xlink:href="#DejaVuSans-58"/>
      <use x="497.119141" xlink:href="#DejaVuSans-32"/>
      <use x="528.90625" xlink:href="#DejaVuSans-48"/>
      <use x="592.529297" xlink:href="#DejaVuSans-46"/>
      <use x="624.316406" xlink:href="#DejaVuSans-56"/>
     </g>
    </g>
   </g>
  </g>
 </g>
 <defs>
  <clipPath id="peb34f62c1a">
   <rect height="434.88" width="892.8" x="144" y="69.12"/>
  </clipPath>
 </defs>
</svg>
