<?xml version="1.0" encoding="utf-8" standalone="no"?>
<!DOCTYPE svg PUBLIC "-//W3C//DTD SVG 1.1//EN"
  "http://www.w3.org/Graphics/SVG/1.1/DTD/svg11.dtd">
<!-- Created with matplotlib (https://matplotlib.org/) -->
<svg height="576pt" version="1.1" viewBox="0 0 1152 576" width="1152pt" xmlns="http://www.w3.org/2000/svg" xmlns:xlink="http://www.w3.org/1999/xlink">
 <metadata>
  <rdf:RDF xmlns:cc="http://creativecommons.org/ns#" xmlns:dc="http://purl.org/dc/elements/1.1/" xmlns:rdf="http://www.w3.org/1999/02/22-rdf-syntax-ns#">
   <cc:Work>
    <dc:type rdf:resource="http://purl.org/dc/dcmitype/StillImage"/>
    <dc:date>2021-09-12T15:17:42.984267</dc:date>
    <dc:format>image/svg+xml</dc:format>
    <dc:creator>
     <cc:Agent>
      <dc:title>Matplotlib v3.3.4, https://matplotlib.org/</dc:title>
     </cc:Agent>
    </dc:creator>
   </cc:Work>
  </rdf:RDF>
 </metadata>
 <defs>
  <style type="text/css">*{stroke-linecap:butt;stroke-linejoin:round;}</style>
 </defs>
 <g id="figure_1">
  <g id="patch_1">
   <path d="M 0 576 
L 1152 576 
L 1152 0 
L 0 0 
z
" style="fill:#ffffff;"/>
  </g>
  <g id="axes_1">
   <g id="patch_2">
    <path d="M 144 504 
L 1036.8 504 
L 1036.8 69.12 
L 144 69.12 
z
" style="fill:#ffffff;"/>
   </g>
   <g id="matplotlib.axis_1">
    <g id="xtick_1">
     <g id="line2d_1">
      <defs>
       <path d="M 0 0 
L 0 3.5 
" id="m157738cdcf" style="stroke:#000000;stroke-width:0.8;"/>
      </defs>
      <g>
       <use style="stroke:#000000;stroke-width:0.8;" x="144" xlink:href="#m157738cdcf" y="504"/>
      </g>
     </g>
     <g id="text_1">
      <!-- 84 -->
      <g transform="translate(128.73 529.23625)scale(0.24 -0.24)">
       <defs>
        <path d="M 31.78125 34.625 
Q 24.75 34.625 20.71875 30.859375 
Q 16.703125 27.09375 16.703125 20.515625 
Q 16.703125 13.921875 20.71875 10.15625 
Q 24.75 6.390625 31.78125 6.390625 
Q 38.8125 6.390625 42.859375 10.171875 
Q 46.921875 13.96875 46.921875 20.515625 
Q 46.921875 27.09375 42.890625 30.859375 
Q 38.875 34.625 31.78125 34.625 
z
M 21.921875 38.8125 
Q 15.578125 40.375 12.03125 44.71875 
Q 8.5 49.078125 8.5 55.328125 
Q 8.5 64.0625 14.71875 69.140625 
Q 20.953125 74.21875 31.78125 74.21875 
Q 42.671875 74.21875 48.875 69.140625 
Q 55.078125 64.0625 55.078125 55.328125 
Q 55.078125 49.078125 51.53125 44.71875 
Q 48 40.375 41.703125 38.8125 
Q 48.828125 37.15625 52.796875 32.3125 
Q 56.78125 27.484375 56.78125 20.515625 
Q 56.78125 9.90625 50.3125 4.234375 
Q 43.84375 -1.421875 31.78125 -1.421875 
Q 19.734375 -1.421875 13.25 4.234375 
Q 6.78125 9.90625 6.78125 20.515625 
Q 6.78125 27.484375 10.78125 32.3125 
Q 14.796875 37.15625 21.921875 38.8125 
z
M 18.3125 54.390625 
Q 18.3125 48.734375 21.84375 45.5625 
Q 25.390625 42.390625 31.78125 42.390625 
Q 38.140625 42.390625 41.71875 45.5625 
Q 45.3125 48.734375 45.3125 54.390625 
Q 45.3125 60.0625 41.71875 63.234375 
Q 38.140625 66.40625 31.78125 66.40625 
Q 25.390625 66.40625 21.84375 63.234375 
Q 18.3125 60.0625 18.3125 54.390625 
z
" id="DejaVuSans-56"/>
        <path d="M 37.796875 64.3125 
L 12.890625 25.390625 
L 37.796875 25.390625 
z
M 35.203125 72.90625 
L 47.609375 72.90625 
L 47.609375 25.390625 
L 58.015625 25.390625 
L 58.015625 17.1875 
L 47.609375 17.1875 
L 47.609375 0 
L 37.796875 0 
L 37.796875 17.1875 
L 4.890625 17.1875 
L 4.890625 26.703125 
z
" id="DejaVuSans-52"/>
       </defs>
       <use xlink:href="#DejaVuSans-56"/>
       <use x="63.623047" xlink:href="#DejaVuSans-52"/>
      </g>
     </g>
    </g>
    <g id="xtick_2">
     <g id="line2d_2">
      <g>
       <use style="stroke:#000000;stroke-width:0.8;" x="255.6" xlink:href="#m157738cdcf" y="504"/>
      </g>
     </g>
     <g id="text_2">
      <!-- 86 -->
      <g transform="translate(240.33 529.23625)scale(0.24 -0.24)">
       <defs>
        <path d="M 33.015625 40.375 
Q 26.375 40.375 22.484375 35.828125 
Q 18.609375 31.296875 18.609375 23.390625 
Q 18.609375 15.53125 22.484375 10.953125 
Q 26.375 6.390625 33.015625 6.390625 
Q 39.65625 6.390625 43.53125 10.953125 
Q 47.40625 15.53125 47.40625 23.390625 
Q 47.40625 31.296875 43.53125 35.828125 
Q 39.65625 40.375 33.015625 40.375 
z
M 52.59375 71.296875 
L 52.59375 62.3125 
Q 48.875 64.0625 45.09375 64.984375 
Q 41.3125 65.921875 37.59375 65.921875 
Q 27.828125 65.921875 22.671875 59.328125 
Q 17.53125 52.734375 16.796875 39.40625 
Q 19.671875 43.65625 24.015625 45.921875 
Q 28.375 48.1875 33.59375 48.1875 
Q 44.578125 48.1875 50.953125 41.515625 
Q 57.328125 34.859375 57.328125 23.390625 
Q 57.328125 12.15625 50.6875 5.359375 
Q 44.046875 -1.421875 33.015625 -1.421875 
Q 20.359375 -1.421875 13.671875 8.265625 
Q 6.984375 17.96875 6.984375 36.375 
Q 6.984375 53.65625 15.1875 63.9375 
Q 23.390625 74.21875 37.203125 74.21875 
Q 40.921875 74.21875 44.703125 73.484375 
Q 48.484375 72.75 52.59375 71.296875 
z
" id="DejaVuSans-54"/>
       </defs>
       <use xlink:href="#DejaVuSans-56"/>
       <use x="63.623047" xlink:href="#DejaVuSans-54"/>
      </g>
     </g>
    </g>
    <g id="xtick_3">
     <g id="line2d_3">
      <g>
       <use style="stroke:#000000;stroke-width:0.8;" x="367.2" xlink:href="#m157738cdcf" y="504"/>
      </g>
     </g>
     <g id="text_3">
      <!-- 88 -->
      <g transform="translate(351.93 529.23625)scale(0.24 -0.24)">
       <use xlink:href="#DejaVuSans-56"/>
       <use x="63.623047" xlink:href="#DejaVuSans-56"/>
      </g>
     </g>
    </g>
    <g id="xtick_4">
     <g id="line2d_4">
      <g>
       <use style="stroke:#000000;stroke-width:0.8;" x="478.8" xlink:href="#m157738cdcf" y="504"/>
      </g>
     </g>
     <g id="text_4">
      <!-- 90 -->
      <g transform="translate(463.53 529.23625)scale(0.24 -0.24)">
       <defs>
        <path d="M 10.984375 1.515625 
L 10.984375 10.5 
Q 14.703125 8.734375 18.5 7.8125 
Q 22.3125 6.890625 25.984375 6.890625 
Q 35.75 6.890625 40.890625 13.453125 
Q 46.046875 20.015625 46.78125 33.40625 
Q 43.953125 29.203125 39.59375 26.953125 
Q 35.25 24.703125 29.984375 24.703125 
Q 19.046875 24.703125 12.671875 31.3125 
Q 6.296875 37.9375 6.296875 49.421875 
Q 6.296875 60.640625 12.9375 67.421875 
Q 19.578125 74.21875 30.609375 74.21875 
Q 43.265625 74.21875 49.921875 64.515625 
Q 56.59375 54.828125 56.59375 36.375 
Q 56.59375 19.140625 48.40625 8.859375 
Q 40.234375 -1.421875 26.421875 -1.421875 
Q 22.703125 -1.421875 18.890625 -0.6875 
Q 15.09375 0.046875 10.984375 1.515625 
z
M 30.609375 32.421875 
Q 37.25 32.421875 41.125 36.953125 
Q 45.015625 41.5 45.015625 49.421875 
Q 45.015625 57.28125 41.125 61.84375 
Q 37.25 66.40625 30.609375 66.40625 
Q 23.96875 66.40625 20.09375 61.84375 
Q 16.21875 57.28125 16.21875 49.421875 
Q 16.21875 41.5 20.09375 36.953125 
Q 23.96875 32.421875 30.609375 32.421875 
z
" id="DejaVuSans-57"/>
        <path d="M 31.78125 66.40625 
Q 24.171875 66.40625 20.328125 58.90625 
Q 16.5 51.421875 16.5 36.375 
Q 16.5 21.390625 20.328125 13.890625 
Q 24.171875 6.390625 31.78125 6.390625 
Q 39.453125 6.390625 43.28125 13.890625 
Q 47.125 21.390625 47.125 36.375 
Q 47.125 51.421875 43.28125 58.90625 
Q 39.453125 66.40625 31.78125 66.40625 
z
M 31.78125 74.21875 
Q 44.046875 74.21875 50.515625 64.515625 
Q 56.984375 54.828125 56.984375 36.375 
Q 56.984375 17.96875 50.515625 8.265625 
Q 44.046875 -1.421875 31.78125 -1.421875 
Q 19.53125 -1.421875 13.0625 8.265625 
Q 6.59375 17.96875 6.59375 36.375 
Q 6.59375 54.828125 13.0625 64.515625 
Q 19.53125 74.21875 31.78125 74.21875 
z
" id="DejaVuSans-48"/>
       </defs>
       <use xlink:href="#DejaVuSans-57"/>
       <use x="63.623047" xlink:href="#DejaVuSans-48"/>
      </g>
     </g>
    </g>
    <g id="xtick_5">
     <g id="line2d_5">
      <g>
       <use style="stroke:#000000;stroke-width:0.8;" x="590.4" xlink:href="#m157738cdcf" y="504"/>
      </g>
     </g>
     <g id="text_5">
      <!-- 92 -->
      <g transform="translate(575.13 529.23625)scale(0.24 -0.24)">
       <defs>
        <path d="M 19.1875 8.296875 
L 53.609375 8.296875 
L 53.609375 0 
L 7.328125 0 
L 7.328125 8.296875 
Q 12.9375 14.109375 22.625 23.890625 
Q 32.328125 33.6875 34.8125 36.53125 
Q 39.546875 41.84375 41.421875 45.53125 
Q 43.3125 49.21875 43.3125 52.78125 
Q 43.3125 58.59375 39.234375 62.25 
Q 35.15625 65.921875 28.609375 65.921875 
Q 23.96875 65.921875 18.8125 64.3125 
Q 13.671875 62.703125 7.8125 59.421875 
L 7.8125 69.390625 
Q 13.765625 71.78125 18.9375 73 
Q 24.125 74.21875 28.421875 74.21875 
Q 39.75 74.21875 46.484375 68.546875 
Q 53.21875 62.890625 53.21875 53.421875 
Q 53.21875 48.921875 51.53125 44.890625 
Q 49.859375 40.875 45.40625 35.40625 
Q 44.1875 33.984375 37.640625 27.21875 
Q 31.109375 20.453125 19.1875 8.296875 
z
" id="DejaVuSans-50"/>
       </defs>
       <use xlink:href="#DejaVuSans-57"/>
       <use x="63.623047" xlink:href="#DejaVuSans-50"/>
      </g>
     </g>
    </g>
    <g id="xtick_6">
     <g id="line2d_6">
      <g>
       <use style="stroke:#000000;stroke-width:0.8;" x="702" xlink:href="#m157738cdcf" y="504"/>
      </g>
     </g>
     <g id="text_6">
      <!-- 94 -->
      <g transform="translate(686.73 529.23625)scale(0.24 -0.24)">
       <use xlink:href="#DejaVuSans-57"/>
       <use x="63.623047" xlink:href="#DejaVuSans-52"/>
      </g>
     </g>
    </g>
    <g id="xtick_7">
     <g id="line2d_7">
      <g>
       <use style="stroke:#000000;stroke-width:0.8;" x="813.6" xlink:href="#m157738cdcf" y="504"/>
      </g>
     </g>
     <g id="text_7">
      <!-- 96 -->
      <g transform="translate(798.33 529.23625)scale(0.24 -0.24)">
       <use xlink:href="#DejaVuSans-57"/>
       <use x="63.623047" xlink:href="#DejaVuSans-54"/>
      </g>
     </g>
    </g>
    <g id="xtick_8">
     <g id="line2d_8">
      <g>
       <use style="stroke:#000000;stroke-width:0.8;" x="925.2" xlink:href="#m157738cdcf" y="504"/>
      </g>
     </g>
     <g id="text_8">
      <!-- 98 -->
      <g transform="translate(909.93 529.23625)scale(0.24 -0.24)">
       <use xlink:href="#DejaVuSans-57"/>
       <use x="63.623047" xlink:href="#DejaVuSans-56"/>
      </g>
     </g>
    </g>
    <g id="xtick_9">
     <g id="line2d_9">
      <g>
       <use style="stroke:#000000;stroke-width:0.8;" x="1036.8" xlink:href="#m157738cdcf" y="504"/>
      </g>
     </g>
     <g id="text_9">
      <!-- 100 -->
      <g transform="translate(1013.895 529.23625)scale(0.24 -0.24)">
       <defs>
        <path d="M 12.40625 8.296875 
L 28.515625 8.296875 
L 28.515625 63.921875 
L 10.984375 60.40625 
L 10.984375 69.390625 
L 28.421875 72.90625 
L 38.28125 72.90625 
L 38.28125 8.296875 
L 54.390625 8.296875 
L 54.390625 0 
L 12.40625 0 
z
" id="DejaVuSans-49"/>
       </defs>
       <use xlink:href="#DejaVuSans-49"/>
       <use x="63.623047" xlink:href="#DejaVuSans-48"/>
       <use x="127.246094" xlink:href="#DejaVuSans-48"/>
      </g>
     </g>
    </g>
    <g id="text_10">
     <!-- Accuracy /% -->
     <g transform="translate(504.013437 559.503125)scale(0.28 -0.28)">
      <defs>
       <path d="M 34.1875 63.1875 
L 20.796875 26.90625 
L 47.609375 26.90625 
z
M 28.609375 72.90625 
L 39.796875 72.90625 
L 67.578125 0 
L 57.328125 0 
L 50.6875 18.703125 
L 17.828125 18.703125 
L 11.1875 0 
L 0.78125 0 
z
" id="DejaVuSans-65"/>
       <path d="M 48.78125 52.59375 
L 48.78125 44.1875 
Q 44.96875 46.296875 41.140625 47.34375 
Q 37.3125 48.390625 33.40625 48.390625 
Q 24.65625 48.390625 19.8125 42.84375 
Q 14.984375 37.3125 14.984375 27.296875 
Q 14.984375 17.28125 19.8125 11.734375 
Q 24.65625 6.203125 33.40625 6.203125 
Q 37.3125 6.203125 41.140625 7.25 
Q 44.96875 8.296875 48.78125 10.40625 
L 48.78125 2.09375 
Q 45.015625 0.34375 40.984375 -0.53125 
Q 36.96875 -1.421875 32.421875 -1.421875 
Q 20.0625 -1.421875 12.78125 6.34375 
Q 5.515625 14.109375 5.515625 27.296875 
Q 5.515625 40.671875 12.859375 48.328125 
Q 20.21875 56 33.015625 56 
Q 37.15625 56 41.109375 55.140625 
Q 45.0625 54.296875 48.78125 52.59375 
z
" id="DejaVuSans-99"/>
       <path d="M 8.5 21.578125 
L 8.5 54.6875 
L 17.484375 54.6875 
L 17.484375 21.921875 
Q 17.484375 14.15625 20.5 10.265625 
Q 23.53125 6.390625 29.59375 6.390625 
Q 36.859375 6.390625 41.078125 11.03125 
Q 45.3125 15.671875 45.3125 23.6875 
L 45.3125 54.6875 
L 54.296875 54.6875 
L 54.296875 0 
L 45.3125 0 
L 45.3125 8.40625 
Q 42.046875 3.421875 37.71875 1 
Q 33.40625 -1.421875 27.6875 -1.421875 
Q 18.265625 -1.421875 13.375 4.4375 
Q 8.5 10.296875 8.5 21.578125 
z
M 31.109375 56 
z
" id="DejaVuSans-117"/>
       <path d="M 41.109375 46.296875 
Q 39.59375 47.171875 37.8125 47.578125 
Q 36.03125 48 33.890625 48 
Q 26.265625 48 22.1875 43.046875 
Q 18.109375 38.09375 18.109375 28.8125 
L 18.109375 0 
L 9.078125 0 
L 9.078125 54.6875 
L 18.109375 54.6875 
L 18.109375 46.1875 
Q 20.953125 51.171875 25.484375 53.578125 
Q 30.03125 56 36.53125 56 
Q 37.453125 56 38.578125 55.875 
Q 39.703125 55.765625 41.0625 55.515625 
z
" id="DejaVuSans-114"/>
       <path d="M 34.28125 27.484375 
Q 23.390625 27.484375 19.1875 25 
Q 14.984375 22.515625 14.984375 16.5 
Q 14.984375 11.71875 18.140625 8.90625 
Q 21.296875 6.109375 26.703125 6.109375 
Q 34.1875 6.109375 38.703125 11.40625 
Q 43.21875 16.703125 43.21875 25.484375 
L 43.21875 27.484375 
z
M 52.203125 31.203125 
L 52.203125 0 
L 43.21875 0 
L 43.21875 8.296875 
Q 40.140625 3.328125 35.546875 0.953125 
Q 30.953125 -1.421875 24.3125 -1.421875 
Q 15.921875 -1.421875 10.953125 3.296875 
Q 6 8.015625 6 15.921875 
Q 6 25.140625 12.171875 29.828125 
Q 18.359375 34.515625 30.609375 34.515625 
L 43.21875 34.515625 
L 43.21875 35.40625 
Q 43.21875 41.609375 39.140625 45 
Q 35.0625 48.390625 27.6875 48.390625 
Q 23 48.390625 18.546875 47.265625 
Q 14.109375 46.140625 10.015625 43.890625 
L 10.015625 52.203125 
Q 14.9375 54.109375 19.578125 55.046875 
Q 24.21875 56 28.609375 56 
Q 40.484375 56 46.34375 49.84375 
Q 52.203125 43.703125 52.203125 31.203125 
z
" id="DejaVuSans-97"/>
       <path d="M 32.171875 -5.078125 
Q 28.375 -14.84375 24.75 -17.8125 
Q 21.140625 -20.796875 15.09375 -20.796875 
L 7.90625 -20.796875 
L 7.90625 -13.28125 
L 13.1875 -13.28125 
Q 16.890625 -13.28125 18.9375 -11.515625 
Q 21 -9.765625 23.484375 -3.21875 
L 25.09375 0.875 
L 2.984375 54.6875 
L 12.5 54.6875 
L 29.59375 11.921875 
L 46.6875 54.6875 
L 56.203125 54.6875 
z
" id="DejaVuSans-121"/>
       <path id="DejaVuSans-32"/>
       <path d="M 25.390625 72.90625 
L 33.6875 72.90625 
L 8.296875 -9.28125 
L 0 -9.28125 
z
" id="DejaVuSans-47"/>
       <path d="M 72.703125 32.078125 
Q 68.453125 32.078125 66.03125 28.46875 
Q 63.625 24.859375 63.625 18.40625 
Q 63.625 12.0625 66.03125 8.421875 
Q 68.453125 4.78125 72.703125 4.78125 
Q 76.859375 4.78125 79.265625 8.421875 
Q 81.6875 12.0625 81.6875 18.40625 
Q 81.6875 24.8125 79.265625 28.4375 
Q 76.859375 32.078125 72.703125 32.078125 
z
M 72.703125 38.28125 
Q 80.421875 38.28125 84.953125 32.90625 
Q 89.5 27.546875 89.5 18.40625 
Q 89.5 9.28125 84.9375 3.921875 
Q 80.375 -1.421875 72.703125 -1.421875 
Q 64.890625 -1.421875 60.34375 3.921875 
Q 55.8125 9.28125 55.8125 18.40625 
Q 55.8125 27.59375 60.375 32.9375 
Q 64.9375 38.28125 72.703125 38.28125 
z
M 22.3125 68.015625 
Q 18.109375 68.015625 15.6875 64.375 
Q 13.28125 60.75 13.28125 54.390625 
Q 13.28125 47.953125 15.671875 44.328125 
Q 18.0625 40.71875 22.3125 40.71875 
Q 26.5625 40.71875 28.96875 44.328125 
Q 31.390625 47.953125 31.390625 54.390625 
Q 31.390625 60.6875 28.953125 64.34375 
Q 26.515625 68.015625 22.3125 68.015625 
z
M 66.40625 74.21875 
L 74.21875 74.21875 
L 28.609375 -1.421875 
L 20.796875 -1.421875 
z
M 22.3125 74.21875 
Q 30.03125 74.21875 34.609375 68.875 
Q 39.203125 63.53125 39.203125 54.390625 
Q 39.203125 45.171875 34.640625 39.84375 
Q 30.078125 34.515625 22.3125 34.515625 
Q 14.546875 34.515625 10.03125 39.859375 
Q 5.515625 45.21875 5.515625 54.390625 
Q 5.515625 63.484375 10.046875 68.84375 
Q 14.59375 74.21875 22.3125 74.21875 
z
" id="DejaVuSans-37"/>
      </defs>
      <use xlink:href="#DejaVuSans-65"/>
      <use x="66.658203" xlink:href="#DejaVuSans-99"/>
      <use x="121.638672" xlink:href="#DejaVuSans-99"/>
      <use x="176.619141" xlink:href="#DejaVuSans-117"/>
      <use x="239.998047" xlink:href="#DejaVuSans-114"/>
      <use x="281.111328" xlink:href="#DejaVuSans-97"/>
      <use x="342.390625" xlink:href="#DejaVuSans-99"/>
      <use x="397.371094" xlink:href="#DejaVuSans-121"/>
      <use x="456.550781" xlink:href="#DejaVuSans-32"/>
      <use x="488.337891" xlink:href="#DejaVuSans-47"/>
      <use x="522.029297" xlink:href="#DejaVuSans-37"/>
     </g>
    </g>
   </g>
   <g id="matplotlib.axis_2">
    <g id="ytick_1">
     <g id="line2d_10">
      <defs>
       <path d="M 0 0 
L -3.5 0 
" id="mae03fd9aa3" style="stroke:#000000;stroke-width:0.8;"/>
      </defs>
      <g>
       <use style="stroke:#000000;stroke-width:0.8;" x="144" xlink:href="#mae03fd9aa3" y="444.362283"/>
      </g>
     </g>
     <g id="text_11">
      <!-- $\mathdefault{10^{1}}$ -->
      <g transform="translate(94.76 453.480408)scale(0.24 -0.24)">
       <use transform="translate(0 0.684375)" xlink:href="#DejaVuSans-49"/>
       <use transform="translate(63.623047 0.684375)" xlink:href="#DejaVuSans-48"/>
       <use transform="translate(128.203125 38.965625)scale(0.7)" xlink:href="#DejaVuSans-49"/>
      </g>
     </g>
    </g>
    <g id="ytick_2">
     <g id="line2d_11">
      <g>
       <use style="stroke:#000000;stroke-width:0.8;" x="144" xlink:href="#mae03fd9aa3" y="359.04"/>
      </g>
     </g>
     <g id="text_12">
      <!-- $\mathdefault{10^{2}}$ -->
      <g transform="translate(94.76 368.158125)scale(0.24 -0.24)">
       <use transform="translate(0 0.765625)" xlink:href="#DejaVuSans-49"/>
       <use transform="translate(63.623047 0.765625)" xlink:href="#DejaVuSans-48"/>
       <use transform="translate(128.203125 39.046875)scale(0.7)" xlink:href="#DejaVuSans-50"/>
      </g>
     </g>
    </g>
    <g id="ytick_3">
     <g id="line2d_12">
      <g>
       <use style="stroke:#000000;stroke-width:0.8;" x="144" xlink:href="#mae03fd9aa3" y="273.717717"/>
      </g>
     </g>
     <g id="text_13">
      <!-- $\mathdefault{10^{3}}$ -->
      <g transform="translate(94.76 282.835842)scale(0.24 -0.24)">
       <defs>
        <path d="M 40.578125 39.3125 
Q 47.65625 37.796875 51.625 33 
Q 55.609375 28.21875 55.609375 21.1875 
Q 55.609375 10.40625 48.1875 4.484375 
Q 40.765625 -1.421875 27.09375 -1.421875 
Q 22.515625 -1.421875 17.65625 -0.515625 
Q 12.796875 0.390625 7.625 2.203125 
L 7.625 11.71875 
Q 11.71875 9.328125 16.59375 8.109375 
Q 21.484375 6.890625 26.8125 6.890625 
Q 36.078125 6.890625 40.9375 10.546875 
Q 45.796875 14.203125 45.796875 21.1875 
Q 45.796875 27.640625 41.28125 31.265625 
Q 36.765625 34.90625 28.71875 34.90625 
L 20.21875 34.90625 
L 20.21875 43.015625 
L 29.109375 43.015625 
Q 36.375 43.015625 40.234375 45.921875 
Q 44.09375 48.828125 44.09375 54.296875 
Q 44.09375 59.90625 40.109375 62.90625 
Q 36.140625 65.921875 28.71875 65.921875 
Q 24.65625 65.921875 20.015625 65.03125 
Q 15.375 64.15625 9.8125 62.3125 
L 9.8125 71.09375 
Q 15.4375 72.65625 20.34375 73.4375 
Q 25.25 74.21875 29.59375 74.21875 
Q 40.828125 74.21875 47.359375 69.109375 
Q 53.90625 64.015625 53.90625 55.328125 
Q 53.90625 49.265625 50.4375 45.09375 
Q 46.96875 40.921875 40.578125 39.3125 
z
" id="DejaVuSans-51"/>
       </defs>
       <use transform="translate(0 0.765625)" xlink:href="#DejaVuSans-49"/>
       <use transform="translate(63.623047 0.765625)" xlink:href="#DejaVuSans-48"/>
       <use transform="translate(128.203125 39.046875)scale(0.7)" xlink:href="#DejaVuSans-51"/>
      </g>
     </g>
    </g>
    <g id="ytick_4">
     <g id="line2d_13">
      <g>
       <use style="stroke:#000000;stroke-width:0.8;" x="144" xlink:href="#mae03fd9aa3" y="188.395433"/>
      </g>
     </g>
     <g id="text_14">
      <!-- $\mathdefault{10^{4}}$ -->
      <g transform="translate(94.76 197.513558)scale(0.24 -0.24)">
       <use transform="translate(0 0.684375)" xlink:href="#DejaVuSans-49"/>
       <use transform="translate(63.623047 0.684375)" xlink:href="#DejaVuSans-48"/>
       <use transform="translate(128.203125 38.965625)scale(0.7)" xlink:href="#DejaVuSans-52"/>
      </g>
     </g>
    </g>
    <g id="ytick_5">
     <g id="line2d_14">
      <g>
       <use style="stroke:#000000;stroke-width:0.8;" x="144" xlink:href="#mae03fd9aa3" y="103.07315"/>
      </g>
     </g>
     <g id="text_15">
      <!-- $\mathdefault{10^{5}}$ -->
      <g transform="translate(94.76 112.191275)scale(0.24 -0.24)">
       <defs>
        <path d="M 10.796875 72.90625 
L 49.515625 72.90625 
L 49.515625 64.59375 
L 19.828125 64.59375 
L 19.828125 46.734375 
Q 21.96875 47.46875 24.109375 47.828125 
Q 26.265625 48.1875 28.421875 48.1875 
Q 40.625 48.1875 47.75 41.5 
Q 54.890625 34.8125 54.890625 23.390625 
Q 54.890625 11.625 47.5625 5.09375 
Q 40.234375 -1.421875 26.90625 -1.421875 
Q 22.3125 -1.421875 17.546875 -0.640625 
Q 12.796875 0.140625 7.71875 1.703125 
L 7.71875 11.625 
Q 12.109375 9.234375 16.796875 8.0625 
Q 21.484375 6.890625 26.703125 6.890625 
Q 35.15625 6.890625 40.078125 11.328125 
Q 45.015625 15.765625 45.015625 23.390625 
Q 45.015625 31 40.078125 35.4375 
Q 35.15625 39.890625 26.703125 39.890625 
Q 22.75 39.890625 18.8125 39.015625 
Q 14.890625 38.140625 10.796875 36.28125 
z
" id="DejaVuSans-53"/>
       </defs>
       <use transform="translate(0 0.684375)" xlink:href="#DejaVuSans-49"/>
       <use transform="translate(63.623047 0.684375)" xlink:href="#DejaVuSans-48"/>
       <use transform="translate(128.203125 38.965625)scale(0.7)" xlink:href="#DejaVuSans-53"/>
      </g>
     </g>
    </g>
    <g id="ytick_6">
     <g id="line2d_15">
      <defs>
       <path d="M 0 0 
L -2 0 
" id="m5d1bc68a10" style="stroke:#000000;stroke-width:0.6;"/>
      </defs>
      <g>
       <use style="stroke:#000000;stroke-width:0.6;" x="144" xlink:href="#m5d1bc68a10" y="504"/>
      </g>
     </g>
    </g>
    <g id="ytick_7">
     <g id="line2d_16">
      <g>
       <use style="stroke:#000000;stroke-width:0.6;" x="144" xlink:href="#m5d1bc68a10" y="488.975492"/>
      </g>
     </g>
    </g>
    <g id="ytick_8">
     <g id="line2d_17">
      <g>
       <use style="stroke:#000000;stroke-width:0.6;" x="144" xlink:href="#m5d1bc68a10" y="478.315433"/>
      </g>
     </g>
    </g>
    <g id="ytick_9">
     <g id="line2d_18">
      <g>
       <use style="stroke:#000000;stroke-width:0.6;" x="144" xlink:href="#m5d1bc68a10" y="470.04685"/>
      </g>
     </g>
    </g>
    <g id="ytick_10">
     <g id="line2d_19">
      <g>
       <use style="stroke:#000000;stroke-width:0.6;" x="144" xlink:href="#m5d1bc68a10" y="463.290925"/>
      </g>
     </g>
    </g>
    <g id="ytick_11">
     <g id="line2d_20">
      <g>
       <use style="stroke:#000000;stroke-width:0.6;" x="144" xlink:href="#m5d1bc68a10" y="457.578872"/>
      </g>
     </g>
    </g>
    <g id="ytick_12">
     <g id="line2d_21">
      <g>
       <use style="stroke:#000000;stroke-width:0.6;" x="144" xlink:href="#m5d1bc68a10" y="452.630867"/>
      </g>
     </g>
    </g>
    <g id="ytick_13">
     <g id="line2d_22">
      <g>
       <use style="stroke:#000000;stroke-width:0.6;" x="144" xlink:href="#m5d1bc68a10" y="448.266417"/>
      </g>
     </g>
    </g>
    <g id="ytick_14">
     <g id="line2d_23">
      <g>
       <use style="stroke:#000000;stroke-width:0.6;" x="144" xlink:href="#m5d1bc68a10" y="418.677717"/>
      </g>
     </g>
    </g>
    <g id="ytick_15">
     <g id="line2d_24">
      <g>
       <use style="stroke:#000000;stroke-width:0.6;" x="144" xlink:href="#m5d1bc68a10" y="403.653208"/>
      </g>
     </g>
    </g>
    <g id="ytick_16">
     <g id="line2d_25">
      <g>
       <use style="stroke:#000000;stroke-width:0.6;" x="144" xlink:href="#m5d1bc68a10" y="392.99315"/>
      </g>
     </g>
    </g>
    <g id="ytick_17">
     <g id="line2d_26">
      <g>
       <use style="stroke:#000000;stroke-width:0.6;" x="144" xlink:href="#m5d1bc68a10" y="384.724567"/>
      </g>
     </g>
    </g>
    <g id="ytick_18">
     <g id="line2d_27">
      <g>
       <use style="stroke:#000000;stroke-width:0.6;" x="144" xlink:href="#m5d1bc68a10" y="377.968642"/>
      </g>
     </g>
    </g>
    <g id="ytick_19">
     <g id="line2d_28">
      <g>
       <use style="stroke:#000000;stroke-width:0.6;" x="144" xlink:href="#m5d1bc68a10" y="372.256589"/>
      </g>
     </g>
    </g>
    <g id="ytick_20">
     <g id="line2d_29">
      <g>
       <use style="stroke:#000000;stroke-width:0.6;" x="144" xlink:href="#m5d1bc68a10" y="367.308584"/>
      </g>
     </g>
    </g>
    <g id="ytick_21">
     <g id="line2d_30">
      <g>
       <use style="stroke:#000000;stroke-width:0.6;" x="144" xlink:href="#m5d1bc68a10" y="362.944134"/>
      </g>
     </g>
    </g>
    <g id="ytick_22">
     <g id="line2d_31">
      <g>
       <use style="stroke:#000000;stroke-width:0.6;" x="144" xlink:href="#m5d1bc68a10" y="333.355433"/>
      </g>
     </g>
    </g>
    <g id="ytick_23">
     <g id="line2d_32">
      <g>
       <use style="stroke:#000000;stroke-width:0.6;" x="144" xlink:href="#m5d1bc68a10" y="318.330925"/>
      </g>
     </g>
    </g>
    <g id="ytick_24">
     <g id="line2d_33">
      <g>
       <use style="stroke:#000000;stroke-width:0.6;" x="144" xlink:href="#m5d1bc68a10" y="307.670867"/>
      </g>
     </g>
    </g>
    <g id="ytick_25">
     <g id="line2d_34">
      <g>
       <use style="stroke:#000000;stroke-width:0.6;" x="144" xlink:href="#m5d1bc68a10" y="299.402283"/>
      </g>
     </g>
    </g>
    <g id="ytick_26">
     <g id="line2d_35">
      <g>
       <use style="stroke:#000000;stroke-width:0.6;" x="144" xlink:href="#m5d1bc68a10" y="292.646359"/>
      </g>
     </g>
    </g>
    <g id="ytick_27">
     <g id="line2d_36">
      <g>
       <use style="stroke:#000000;stroke-width:0.6;" x="144" xlink:href="#m5d1bc68a10" y="286.934306"/>
      </g>
     </g>
    </g>
    <g id="ytick_28">
     <g id="line2d_37">
      <g>
       <use style="stroke:#000000;stroke-width:0.6;" x="144" xlink:href="#m5d1bc68a10" y="281.9863"/>
      </g>
     </g>
    </g>
    <g id="ytick_29">
     <g id="line2d_38">
      <g>
       <use style="stroke:#000000;stroke-width:0.6;" x="144" xlink:href="#m5d1bc68a10" y="277.62185"/>
      </g>
     </g>
    </g>
    <g id="ytick_30">
     <g id="line2d_39">
      <g>
       <use style="stroke:#000000;stroke-width:0.6;" x="144" xlink:href="#m5d1bc68a10" y="248.03315"/>
      </g>
     </g>
    </g>
    <g id="ytick_31">
     <g id="line2d_40">
      <g>
       <use style="stroke:#000000;stroke-width:0.6;" x="144" xlink:href="#m5d1bc68a10" y="233.008642"/>
      </g>
     </g>
    </g>
    <g id="ytick_32">
     <g id="line2d_41">
      <g>
       <use style="stroke:#000000;stroke-width:0.6;" x="144" xlink:href="#m5d1bc68a10" y="222.348584"/>
      </g>
     </g>
    </g>
    <g id="ytick_33">
     <g id="line2d_42">
      <g>
       <use style="stroke:#000000;stroke-width:0.6;" x="144" xlink:href="#m5d1bc68a10" y="214.08"/>
      </g>
     </g>
    </g>
    <g id="ytick_34">
     <g id="line2d_43">
      <g>
       <use style="stroke:#000000;stroke-width:0.6;" x="144" xlink:href="#m5d1bc68a10" y="207.324075"/>
      </g>
     </g>
    </g>
    <g id="ytick_35">
     <g id="line2d_44">
      <g>
       <use style="stroke:#000000;stroke-width:0.6;" x="144" xlink:href="#m5d1bc68a10" y="201.612022"/>
      </g>
     </g>
    </g>
    <g id="ytick_36">
     <g id="line2d_45">
      <g>
       <use style="stroke:#000000;stroke-width:0.6;" x="144" xlink:href="#m5d1bc68a10" y="196.664017"/>
      </g>
     </g>
    </g>
    <g id="ytick_37">
     <g id="line2d_46">
      <g>
       <use style="stroke:#000000;stroke-width:0.6;" x="144" xlink:href="#m5d1bc68a10" y="192.299567"/>
      </g>
     </g>
    </g>
    <g id="ytick_38">
     <g id="line2d_47">
      <g>
       <use style="stroke:#000000;stroke-width:0.6;" x="144" xlink:href="#m5d1bc68a10" y="162.710867"/>
      </g>
     </g>
    </g>
    <g id="ytick_39">
     <g id="line2d_48">
      <g>
       <use style="stroke:#000000;stroke-width:0.6;" x="144" xlink:href="#m5d1bc68a10" y="147.686359"/>
      </g>
     </g>
    </g>
    <g id="ytick_40">
     <g id="line2d_49">
      <g>
       <use style="stroke:#000000;stroke-width:0.6;" x="144" xlink:href="#m5d1bc68a10" y="137.0263"/>
      </g>
     </g>
    </g>
    <g id="ytick_41">
     <g id="line2d_50">
      <g>
       <use style="stroke:#000000;stroke-width:0.6;" x="144" xlink:href="#m5d1bc68a10" y="128.757717"/>
      </g>
     </g>
    </g>
    <g id="ytick_42">
     <g id="line2d_51">
      <g>
       <use style="stroke:#000000;stroke-width:0.6;" x="144" xlink:href="#m5d1bc68a10" y="122.001792"/>
      </g>
     </g>
    </g>
    <g id="ytick_43">
     <g id="line2d_52">
      <g>
       <use style="stroke:#000000;stroke-width:0.6;" x="144" xlink:href="#m5d1bc68a10" y="116.289739"/>
      </g>
     </g>
    </g>
    <g id="ytick_44">
     <g id="line2d_53">
      <g>
       <use style="stroke:#000000;stroke-width:0.6;" x="144" xlink:href="#m5d1bc68a10" y="111.341734"/>
      </g>
     </g>
    </g>
    <g id="ytick_45">
     <g id="line2d_54">
      <g>
       <use style="stroke:#000000;stroke-width:0.6;" x="144" xlink:href="#m5d1bc68a10" y="106.977284"/>
      </g>
     </g>
    </g>
    <g id="ytick_46">
     <g id="line2d_55">
      <g>
       <use style="stroke:#000000;stroke-width:0.6;" x="144" xlink:href="#m5d1bc68a10" y="77.388584"/>
      </g>
     </g>
    </g>
    <g id="text_16">
     <!-- Energy /A.U. -->
     <g transform="translate(84.936875 373.22)rotate(-90)scale(0.28 -0.28)">
      <defs>
       <path d="M 9.8125 72.90625 
L 55.90625 72.90625 
L 55.90625 64.59375 
L 19.671875 64.59375 
L 19.671875 43.015625 
L 54.390625 43.015625 
L 54.390625 34.71875 
L 19.671875 34.71875 
L 19.671875 8.296875 
L 56.78125 8.296875 
L 56.78125 0 
L 9.8125 0 
z
" id="DejaVuSans-69"/>
       <path d="M 54.890625 33.015625 
L 54.890625 0 
L 45.90625 0 
L 45.90625 32.71875 
Q 45.90625 40.484375 42.875 44.328125 
Q 39.84375 48.1875 33.796875 48.1875 
Q 26.515625 48.1875 22.3125 43.546875 
Q 18.109375 38.921875 18.109375 30.90625 
L 18.109375 0 
L 9.078125 0 
L 9.078125 54.6875 
L 18.109375 54.6875 
L 18.109375 46.1875 
Q 21.34375 51.125 25.703125 53.5625 
Q 30.078125 56 35.796875 56 
Q 45.21875 56 50.046875 50.171875 
Q 54.890625 44.34375 54.890625 33.015625 
z
" id="DejaVuSans-110"/>
       <path d="M 56.203125 29.59375 
L 56.203125 25.203125 
L 14.890625 25.203125 
Q 15.484375 15.921875 20.484375 11.0625 
Q 25.484375 6.203125 34.421875 6.203125 
Q 39.59375 6.203125 44.453125 7.46875 
Q 49.3125 8.734375 54.109375 11.28125 
L 54.109375 2.78125 
Q 49.265625 0.734375 44.1875 -0.34375 
Q 39.109375 -1.421875 33.890625 -1.421875 
Q 20.796875 -1.421875 13.15625 6.1875 
Q 5.515625 13.8125 5.515625 26.8125 
Q 5.515625 40.234375 12.765625 48.109375 
Q 20.015625 56 32.328125 56 
Q 43.359375 56 49.78125 48.890625 
Q 56.203125 41.796875 56.203125 29.59375 
z
M 47.21875 32.234375 
Q 47.125 39.59375 43.09375 43.984375 
Q 39.0625 48.390625 32.421875 48.390625 
Q 24.90625 48.390625 20.390625 44.140625 
Q 15.875 39.890625 15.1875 32.171875 
z
" id="DejaVuSans-101"/>
       <path d="M 45.40625 27.984375 
Q 45.40625 37.75 41.375 43.109375 
Q 37.359375 48.484375 30.078125 48.484375 
Q 22.859375 48.484375 18.828125 43.109375 
Q 14.796875 37.75 14.796875 27.984375 
Q 14.796875 18.265625 18.828125 12.890625 
Q 22.859375 7.515625 30.078125 7.515625 
Q 37.359375 7.515625 41.375 12.890625 
Q 45.40625 18.265625 45.40625 27.984375 
z
M 54.390625 6.78125 
Q 54.390625 -7.171875 48.1875 -13.984375 
Q 42 -20.796875 29.203125 -20.796875 
Q 24.46875 -20.796875 20.265625 -20.09375 
Q 16.0625 -19.390625 12.109375 -17.921875 
L 12.109375 -9.1875 
Q 16.0625 -11.328125 19.921875 -12.34375 
Q 23.78125 -13.375 27.78125 -13.375 
Q 36.625 -13.375 41.015625 -8.765625 
Q 45.40625 -4.15625 45.40625 5.171875 
L 45.40625 9.625 
Q 42.625 4.78125 38.28125 2.390625 
Q 33.9375 0 27.875 0 
Q 17.828125 0 11.671875 7.65625 
Q 5.515625 15.328125 5.515625 27.984375 
Q 5.515625 40.671875 11.671875 48.328125 
Q 17.828125 56 27.875 56 
Q 33.9375 56 38.28125 53.609375 
Q 42.625 51.21875 45.40625 46.390625 
L 45.40625 54.6875 
L 54.390625 54.6875 
z
" id="DejaVuSans-103"/>
       <path d="M 10.6875 12.40625 
L 21 12.40625 
L 21 0 
L 10.6875 0 
z
" id="DejaVuSans-46"/>
       <path d="M 8.6875 72.90625 
L 18.609375 72.90625 
L 18.609375 28.609375 
Q 18.609375 16.890625 22.84375 11.734375 
Q 27.09375 6.59375 36.625 6.59375 
Q 46.09375 6.59375 50.34375 11.734375 
Q 54.59375 16.890625 54.59375 28.609375 
L 54.59375 72.90625 
L 64.5 72.90625 
L 64.5 27.390625 
Q 64.5 13.140625 57.4375 5.859375 
Q 50.390625 -1.421875 36.625 -1.421875 
Q 22.796875 -1.421875 15.734375 5.859375 
Q 8.6875 13.140625 8.6875 27.390625 
z
" id="DejaVuSans-85"/>
      </defs>
      <use xlink:href="#DejaVuSans-69"/>
      <use x="63.183594" xlink:href="#DejaVuSans-110"/>
      <use x="126.5625" xlink:href="#DejaVuSans-101"/>
      <use x="188.085938" xlink:href="#DejaVuSans-114"/>
      <use x="227.449219" xlink:href="#DejaVuSans-103"/>
      <use x="290.925781" xlink:href="#DejaVuSans-121"/>
      <use x="350.105469" xlink:href="#DejaVuSans-32"/>
      <use x="381.892578" xlink:href="#DejaVuSans-47"/>
      <use x="415.583984" xlink:href="#DejaVuSans-65"/>
      <use x="482.242188" xlink:href="#DejaVuSans-46"/>
      <use x="514.029297" xlink:href="#DejaVuSans-85"/>
      <use x="587.222656" xlink:href="#DejaVuSans-46"/>
     </g>
    </g>
   </g>
   <g id="line2d_56">
    <path clip-path="url(#p9e9f105503)" d="M 82.62 254.697012 
L 333.72 232.137981 
L 393.984 219.562737 
L 450.342 211.068861 
L 486.054 204.464873 
L 490.518 199.189141 
L 498.33 194.861509 
L 540.18 190.926075 
L 553.572 187.399949 
L 581.472 184.318915 
L 588.726 181.566287 
L 577.008 178.992361 
L 608.814 176.733235 
L 611.046 174.48694 
L 587.052 172.466773 
L 626.67 170.524413 
L 623.322 168.841502 
L 642.294 167.139453 
L 654.57 165.579702 
L 646.758 164.155904 
L 613.836 162.791553 
L 665.172 161.363449 
L 675.216 160.041446 
L 685.818 158.830966 
L 662.94 157.705757 
L 677.448 156.598619 
L 685.818 155.474758 
L 696.978 154.496674 
L 686.376 153.517392 
L 692.514 152.57197 
L 689.724 151.625936 
L 704.232 150.665531 
L 711.486 149.802399 
L 706.464 148.969102 
L 722.088 148.118908 
L 716.508 147.372191 
L 722.088 146.612697 
L 708.138 145.904592 
L 740.502 144.464127 
L 751.104 143.781699 
L 736.038 143.118082 
L 742.176 142.431833 
L 749.988 141.783649 
L 739.386 141.165966 
L 753.336 140.591827 
L 756.684 139.994282 
L 755.568 139.412494 
L 763.938 138.863914 
L 763.38 138.308731 
L 756.684 137.77582 
L 772.308 136.702765 
L 765.612 136.209502 
L 767.286 135.718943 
L 778.446 135.276147 
L 774.54 134.765442 
L 782.91 133.811176 
L 789.048 133.357737 
L 775.098 132.934769 
L 787.932 132.489828 
L 783.468 132.064851 
L 785.142 131.649058 
L 784.584 131.240496 
L 791.838 130.849422 
L 795.186 130.426969 
L 786.816 130.03026 
L 790.164 129.647031 
L 787.932 129.255592 
L 800.766 128.877874 
L 805.23 128.499316 
L 800.208 128.132958 
L 800.208 127.78895 
L 809.136 127.436469 
L 800.208 127.119502 
L 809.136 126.77879 
L 806.346 126.414746 
L 815.274 126.082038 
L 808.02 125.758115 
L 813.6 125.414541 
L 816.39 125.08308 
L 808.02 124.762195 
L 815.832 124.439774 
L 819.738 124.131134 
L 818.622 123.818738 
L 824.202 123.507891 
L 817.506 123.207437 
L 821.412 122.919149 
L 820.296 122.630979 
L 824.202 122.343534 
L 823.086 122.042566 
L 824.76 121.746781 
L 821.412 121.469961 
L 825.876 121.199753 
L 830.34 120.709413 
L 829.782 120.458113 
L 828.666 120.201163 
L 832.014 119.923326 
L 830.34 119.658416 
L 824.76 119.40866 
L 828.666 119.145071 
L 840.942 118.89239 
L 835.362 118.642856 
L 833.688 118.395973 
L 838.71 118.153676 
L 832.014 117.9064 
L 839.826 117.662306 
L 833.13 117.445621 
L 836.478 117.224335 
L 846.522 116.986487 
L 839.268 116.762454 
L 837.036 116.525309 
L 852.66 116.065819 
L 845.964 115.859517 
L 850.986 115.620715 
L 851.544 115.408637 
L 850.986 115.198146 
L 845.964 114.993994 
L 849.87 114.78379 
L 844.29 114.59214 
L 844.29 114.386381 
L 843.732 114.193849 
L 849.87 113.991404 
L 847.638 113.791024 
L 848.196 113.585247 
L 839.826 113.369299 
L 853.218 112.962814 
L 853.776 112.770511 
L 852.102 112.590975 
L 857.124 112.393824 
L 850.986 112.023999 
L 846.522 111.842883 
L 856.008 111.661153 
L 841.5 111.473895 
L 859.356 111.302455 
L 850.986 111.117555 
L 856.008 110.74595 
L 864.936 110.565254 
L 861.588 110.395453 
L 855.45 110.230735 
L 861.03 110.049522 
L 861.588 109.88809 
L 861.588 109.711266 
L 858.798 109.537366 
L 866.052 109.359311 
L 864.936 109.206575 
L 862.704 109.043972 
L 871.074 108.8791 
L 858.798 108.713063 
L 862.146 108.548318 
L 858.798 108.394584 
L 861.588 108.229089 
L 867.168 108.064043 
L 867.168 107.903548 
L 866.052 107.762712 
L 866.052 107.615974 
L 862.146 107.460899 
L 866.052 107.300825 
L 858.798 107.149946 
L 867.726 106.990345 
L 864.936 106.84344 
L 873.864 106.556896 
L 867.168 106.419215 
L 870.516 106.276103 
L 865.494 106.125605 
L 872.748 105.993135 
L 873.306 105.846421 
L 871.074 105.707827 
L 872.19 105.559969 
L 862.146 105.427172 
L 869.958 105.132741 
L 871.632 104.989565 
L 874.98 104.861792 
L 869.4 104.724737 
L 873.864 104.592192 
L 872.19 104.450507 
L 876.096 104.328364 
L 872.19 104.199448 
L 859.914 104.063243 
L 873.306 103.924552 
L 870.516 103.789537 
L 872.19 103.538019 
L 867.168 103.398912 
L 882.792 103.278695 
L 872.748 103.15045 
L 874.422 103.027942 
L 874.422 102.90775 
L 872.19 102.778917 
L 867.168 102.651965 
L 872.19 102.535496 
L 865.494 102.416212 
L 877.212 102.15799 
L 868.284 102.036034 
L 877.77 101.793262 
L 872.748 101.683809 
L 873.306 101.577669 
L 876.096 101.450272 
L 867.726 101.339651 
L 878.886 101.231624 
L 872.748 101.117912 
L 873.864 100.997245 
L 877.212 100.772457 
L 876.096 100.643722 
L 877.77 100.525813 
L 883.908 100.406818 
L 881.118 100.183154 
L 880.56 100.077886 
L 873.306 99.973524 
L 880.56 99.859739 
L 877.212 99.7573 
L 877.77 99.651429 
L 885.024 99.543158 
L 880.56 99.426929 
L 870.516 99.32204 
L 874.98 99.221991 
L 872.748 99.126468 
L 874.422 99.026191 
L 887.256 98.820277 
L 877.212 98.728287 
L 881.118 98.524955 
L 876.654 98.425166 
L 885.024 98.203191 
L 874.98 98.098353 
L 885.582 97.894879 
L 880.56 97.792133 
L 882.792 97.700076 
L 873.864 97.602478 
L 884.466 97.507051 
L 869.958 97.308842 
L 885.582 97.217628 
L 877.77 97.119126 
L 878.328 97.023499 
L 874.98 96.934169 
L 885.024 96.832225 
L 876.654 96.570402 
L 880.002 96.47686 
L 877.212 96.288662 
L 878.886 96.106736 
L 878.328 96.009873 
L 872.19 95.912109 
L 875.538 95.816921 
L 885.582 95.730939 
L 876.654 95.646967 
L 888.93 95.560477 
L 884.466 95.380624 
L 885.024 95.285112 
L 879.444 95.201827 
L 883.908 95.117597 
L 871.074 94.944615 
L 885.024 94.8564 
L 881.676 94.771361 
L 890.046 94.686328 
L 877.77 94.531063 
L 886.14 94.29613 
L 870.516 94.122538 
L 888.372 94.037257 
L 886.698 93.946123 
L 888.93 93.862244 
L 878.328 93.685754 
L 890.046 93.608408 
L 888.93 93.529356 
L 885.582 93.444044 
L 888.93 93.366141 
L 884.466 93.202649 
L 889.488 93.121698 
L 875.538 92.891402 
L 880.002 92.805561 
L 884.466 92.663477 
L 880.56 92.588268 
L 886.14 92.516296 
L 885.024 92.434223 
L 889.488 92.276699 
L 883.908 92.204306 
L 892.278 92.122453 
L 890.046 92.045179 
L 879.444 91.972822 
L 883.35 91.902465 
L 891.162 91.75126 
L 884.466 91.606705 
L 883.908 91.53892 
L 889.488 91.399645 
L 886.14 91.329014 
L 890.604 91.253611 
L 887.256 91.111229 
L 888.372 91.028344 
L 881.676 90.956823 
L 885.024 90.89246 
L 886.698 90.823034 
L 879.444 90.682882 
L 883.908 90.480756 
L 880.002 90.406264 
L 881.676 90.333435 
L 890.046 90.189745 
L 883.908 90.11793 
L 891.162 89.988949 
L 881.118 89.866512 
L 888.93 89.729727 
L 877.212 89.651085 
L 882.234 89.583629 
L 880.002 89.521749 
L 890.046 89.318306 
L 890.046 89.250478 
L 890.604 89.180275 
L 883.908 89.05952 
L 892.836 88.995345 
L 878.886 88.929793 
L 888.93 88.868787 
L 885.024 88.807546 
L 888.93 88.739093 
L 880.002 88.676106 
L 884.466 88.609066 
" style="fill:none;stroke:#1f1f1f;stroke-linecap:square;stroke-width:5;"/>
   </g>
   <g id="line2d_57">
    <path clip-path="url(#p9e9f105503)" d="M 82.62 516.811364 
L 333.72 483.406746 
L 393.984 463.445456 
L 450.342 449.256701 
L 486.054 438.365449 
L 490.518 429.516927 
L 498.33 422.030843 
L 540.18 415.516713 
L 553.572 409.828064 
L 581.472 404.729951 
L 588.726 400.098549 
L 577.008 395.861005 
L 608.814 391.98251 
L 611.046 388.357399 
L 587.052 384.968186 
L 626.67 381.857559 
L 623.322 378.930835 
L 642.294 376.164 
L 654.57 373.542777 
L 646.758 371.063877 
L 613.836 368.703552 
L 665.172 366.473626 
L 675.216 364.339177 
L 685.818 362.305941 
L 662.94 360.362332 
L 677.448 358.491301 
L 685.818 356.695441 
L 696.978 354.97191 
L 686.376 353.330995 
L 692.514 351.728606 
L 689.724 350.177471 
L 704.232 348.700791 
L 711.486 347.263163 
L 706.464 345.885851 
L 722.088 344.542582 
L 716.508 343.235275 
L 722.088 341.966899 
L 708.138 340.73666 
L 740.502 338.383886 
L 751.104 337.255226 
L 736.038 336.163525 
L 742.176 335.092825 
L 749.988 334.05757 
L 739.386 333.033329 
L 753.336 332.038506 
L 756.684 331.069036 
L 755.568 330.130682 
L 763.938 329.214434 
L 763.38 328.321383 
L 756.684 327.446958 
L 765.612 326.586897 
L 772.308 325.748836 
L 765.612 324.922347 
L 767.286 324.110024 
L 778.446 323.310203 
L 774.54 322.531856 
L 778.446 321.772446 
L 782.91 321.037297 
L 789.048 320.309067 
L 775.098 319.590448 
L 787.932 318.878402 
L 783.468 318.178778 
L 785.142 317.494895 
L 784.584 316.823193 
L 791.838 316.164095 
L 795.186 315.516906 
L 786.816 314.88325 
L 790.164 314.260896 
L 787.932 313.64996 
L 800.766 313.048664 
L 805.23 312.454402 
L 800.208 311.868079 
L 800.208 311.287971 
L 809.136 310.714137 
L 800.208 310.144735 
L 809.136 309.587227 
L 806.346 309.041007 
L 815.274 308.50237 
L 808.02 307.968115 
L 813.6 307.445521 
L 816.39 306.925486 
L 808.02 306.413622 
L 815.832 305.908906 
L 819.738 305.410931 
L 818.622 304.918185 
L 824.202 304.432442 
L 817.506 303.950783 
L 821.412 303.473348 
L 820.296 302.999875 
L 824.202 302.529625 
L 823.086 302.065572 
L 824.76 301.606922 
L 821.412 301.157367 
L 825.876 300.707289 
L 830.34 299.823738 
L 829.782 299.388882 
L 828.666 298.958543 
L 832.014 298.536395 
L 830.34 298.116029 
L 824.76 297.698476 
L 828.666 297.286201 
L 840.942 296.878057 
L 835.362 296.471454 
L 833.688 296.065411 
L 838.71 295.66335 
L 832.014 295.267132 
L 839.826 294.87218 
L 833.13 294.482524 
L 836.478 294.094654 
L 846.522 293.710741 
L 839.268 293.328008 
L 837.036 292.947364 
L 852.66 292.202528 
L 845.964 291.832656 
L 850.986 291.466682 
L 851.544 291.099654 
L 850.986 290.737784 
L 845.964 290.376695 
L 849.87 290.018888 
L 844.29 289.662454 
L 844.29 289.30642 
L 843.732 288.95793 
L 849.87 288.612951 
L 847.638 288.268175 
L 848.196 287.927875 
L 839.826 287.588794 
L 848.196 287.251868 
L 853.218 286.919815 
L 853.776 286.588387 
L 852.102 286.25908 
L 857.124 285.932895 
L 850.986 285.285937 
L 846.522 284.965784 
L 856.008 284.648545 
L 841.5 284.333688 
L 859.356 284.020399 
L 850.986 283.708526 
L 856.008 283.088173 
L 864.936 282.779312 
L 861.588 282.472775 
L 855.45 282.167675 
L 861.03 281.86512 
L 861.588 281.564186 
L 861.588 281.264497 
L 858.798 280.967084 
L 866.052 280.6716 
L 864.936 280.37694 
L 862.704 280.084887 
L 871.074 279.794654 
L 858.798 279.506665 
L 862.146 279.220756 
L 858.798 278.937144 
L 861.588 278.655315 
L 867.168 278.37557 
L 867.168 278.098528 
L 866.052 277.823322 
L 866.052 277.549596 
L 862.146 277.275988 
L 866.052 277.002616 
L 858.798 276.731248 
L 867.726 276.463164 
L 864.936 276.194671 
L 872.19 275.926953 
L 873.864 275.660889 
L 867.168 275.395692 
L 870.516 275.132061 
L 865.494 274.868942 
L 872.748 274.608952 
L 873.306 274.350819 
L 871.074 274.093611 
L 872.19 273.836373 
L 862.146 273.580922 
L 869.958 273.077274 
L 871.632 272.826928 
L 874.98 272.578045 
L 869.4 272.32997 
L 873.864 272.08284 
L 872.19 271.837057 
L 876.096 271.59244 
L 872.19 271.349112 
L 859.914 271.106807 
L 873.306 270.865488 
L 870.516 270.625868 
L 871.632 270.38747 
L 872.19 270.151102 
L 867.168 269.916139 
L 882.792 269.679857 
L 872.748 269.444808 
L 874.422 269.212363 
L 874.422 268.981581 
L 872.19 268.751471 
L 867.168 268.524079 
L 872.19 268.295906 
L 865.494 268.070089 
L 874.98 267.845365 
L 877.212 267.62283 
L 868.284 267.400301 
L 877.77 266.956108 
L 872.748 266.735326 
L 873.306 266.516411 
L 876.096 266.297527 
L 867.726 266.079558 
L 878.886 265.86294 
L 872.748 265.647296 
L 873.864 265.432778 
L 877.212 265.218783 
L 877.212 265.006161 
L 876.096 264.793578 
L 877.77 264.582623 
L 883.908 264.372605 
L 881.118 264.164043 
L 881.118 263.955417 
L 880.56 263.74669 
L 873.306 263.538882 
L 880.56 263.331485 
L 877.212 263.125527 
L 877.77 262.919322 
L 885.024 262.715524 
L 880.56 262.511359 
L 870.516 262.307999 
L 874.98 262.105377 
L 872.748 261.904839 
L 874.422 261.704812 
L 887.256 261.307049 
L 877.212 261.10905 
L 881.118 260.911854 
L 881.118 260.715358 
L 876.654 260.519547 
L 885.024 260.129848 
L 874.98 259.934739 
L 885.582 259.547207 
L 880.56 259.354545 
L 882.792 259.162301 
L 873.864 258.971519 
L 884.466 258.780367 
L 878.886 258.590509 
L 869.958 258.402136 
L 885.582 258.213776 
L 877.77 258.026022 
L 878.328 257.839152 
L 874.98 257.653067 
L 885.024 257.468272 
L 877.77 257.098759 
L 876.654 256.915841 
L 880.002 256.733942 
L 877.212 256.37204 
L 878.886 256.191821 
L 878.886 256.012086 
L 878.328 255.83384 
L 872.19 255.656626 
L 875.538 255.47867 
L 885.582 255.301222 
L 876.654 255.123348 
L 888.93 254.945937 
L 884.466 254.769183 
L 884.466 254.593062 
L 885.024 254.416829 
L 879.444 254.24227 
L 883.908 254.068703 
L 879.444 253.895553 
L 871.074 253.722849 
L 885.024 253.550438 
L 881.676 253.378754 
L 890.046 253.207268 
L 879.444 253.036214 
L 877.77 252.865702 
L 886.14 252.358214 
L 870.516 252.023053 
L 888.372 251.856146 
L 886.698 251.690278 
L 888.93 251.525542 
L 878.328 251.195326 
L 890.046 251.031388 
L 888.93 250.867049 
L 885.582 250.703434 
L 888.93 250.540056 
L 884.466 250.216281 
L 889.488 250.054782 
L 881.676 249.734837 
L 875.538 249.575809 
L 883.35 249.258335 
L 884.466 249.100511 
L 880.56 248.943096 
L 886.14 248.786014 
L 885.024 248.630242 
L 889.488 248.474692 
L 889.488 248.319582 
L 883.908 248.165131 
L 892.278 248.011041 
L 890.046 247.857163 
L 879.444 247.704176 
L 891.162 247.246331 
L 885.024 247.094453 
L 883.908 246.791135 
L 889.488 246.489618 
L 886.14 246.339387 
L 890.604 246.189801 
L 887.256 246.040901 
L 887.256 245.89269 
L 888.372 245.744945 
L 881.676 245.597871 
L 886.698 245.304183 
L 880.56 245.157258 
L 879.444 245.010259 
L 883.35 244.718905 
L 883.908 244.573947 
L 880.002 244.429195 
L 881.676 244.285396 
L 890.046 243.998664 
L 883.908 243.855621 
L 891.162 243.713233 
L 891.162 243.571461 
L 881.118 243.288804 
L 887.814 243.147793 
L 888.93 243.00683 
L 877.212 242.866506 
L 882.234 242.726882 
L 880.002 242.587035 
L 886.698 242.448005 
L 883.908 242.309278 
L 890.046 242.170849 
L 890.046 242.033132 
L 890.604 241.895591 
L 883.908 241.621805 
L 892.836 241.485971 
L 878.886 241.35039 
L 888.93 241.215425 
L 885.024 241.080864 
L 888.93 240.946059 
L 880.002 240.811656 
L 884.466 240.677387 
L 884.466 240.677387 
" style="fill:none;stroke:#9e9e9e;stroke-linecap:square;stroke-width:5;"/>
   </g>
   <g id="line2d_58">
    <path clip-path="url(#p9e9f105503)" d="M -1 295.002467 
L 42.444 291.893885 
L 63.648 286.5376 
L 163.53 281.950466 
L 157.392 277.843024 
L 273.456 274.348244 
L 272.898 271.076621 
L 262.854 267.965088 
L 314.19 265.369677 
L 308.052 262.677829 
L 354.924 260.292378 
L 364.41 258.015952 
L 337.626 255.849618 
L 371.664 253.919015 
L 357.714 251.92395 
L 362.178 250.122328 
L 382.266 248.409138 
L 412.398 246.702349 
L 399.006 245.184394 
L 412.956 243.593898 
L 436.95 242.094106 
L 425.232 240.641315 
L 434.16 239.326189 
L 429.696 236.72534 
L 463.734 235.638818 
L 454.806 234.412603 
L 460.386 233.189506 
L 447.552 232.068231 
L 465.408 230.969268 
L 475.452 229.894882 
L 471.546 228.873159 
L 465.408 227.845637 
L 489.96 226.058354 
L 487.728 225.144151 
L 489.96 224.268044 
L 483.822 223.411603 
L 500.562 222.581239 
L 479.916 221.721297 
L 482.706 220.778534 
L 479.916 219.986799 
L 508.932 219.155976 
L 506.7 218.451144 
L 516.186 217.711385 
L 507.258 216.918717 
L 512.28 216.264947 
L 498.33 215.507483 
L 521.208 214.895193 
L 525.114 214.25016 
L 533.484 213.667037 
L 513.954 213.047288 
L 516.744 212.403029 
L 534.6 211.775379 
L 540.738 211.237092 
L 540.18 210.649412 
L 530.694 210.011153 
L 553.014 208.856712 
L 535.716 208.271631 
L 555.804 207.71818 
L 542.412 207.184692 
L 546.876 206.65012 
L 561.384 205.629358 
L 553.572 205.147653 
L 560.826 204.676798 
L 547.992 204.204729 
L 549.108 203.755799 
L 545.202 203.275847 
L 564.732 202.388518 
L 560.268 201.957667 
L 570.312 201.488709 
L 561.942 201.0805 
L 569.196 200.677817 
L 573.66 200.264956 
L 574.218 199.86728 
L 579.24 199.429001 
L 580.914 199.037564 
L 581.472 198.649861 
L 577.566 198.261697 
L 569.754 197.895726 
L 585.378 197.518126 
L 589.842 197.141339 
L 583.146 196.767205 
L 597.096 196.411241 
L 598.77 196.05713 
L 572.544 195.343558 
L 587.052 195.017462 
L 596.538 194.653785 
L 602.676 194.287233 
L 591.516 193.964304 
L 605.466 193.616556 
L 586.494 193.282185 
L 602.676 192.97683 
L 601.002 192.680978 
L 608.256 192.361272 
L 611.604 192.063998 
L 579.24 191.731062 
L 612.162 191.408837 
L 616.626 191.145325 
L 618.858 190.851568 
L 619.416 190.531247 
L 609.93 190.251077 
L 606.024 189.955793 
L 619.974 189.664691 
L 617.742 189.374551 
L 612.162 189.078166 
L 617.184 188.809249 
L 611.604 188.541382 
L 633.366 188.282116 
L 638.388 188.023315 
L 632.25 187.781561 
L 618.858 187.518663 
L 629.46 187.269644 
L 620.532 187.029208 
L 632.808 186.770708 
L 637.272 186.539157 
L 634.482 186.285415 
L 639.504 186.025913 
L 634.482 185.769601 
L 650.664 185.529701 
L 636.714 185.278472 
L 651.78 184.82334 
L 650.664 184.589585 
L 643.968 184.348409 
L 645.642 184.126404 
L 628.902 183.910988 
L 655.686 183.456404 
L 660.708 183.232975 
L 633.366 183.009176 
L 655.128 182.789172 
L 640.62 182.567875 
L 665.73 182.332108 
L 652.338 182.109752 
L 662.382 181.902157 
L 659.592 181.698181 
L 664.614 181.482442 
L 656.244 181.290072 
L 670.194 181.091414 
L 657.36 180.897275 
L 674.658 180.697162 
L 670.194 180.496336 
L 671.868 180.292131 
L 670.194 180.101124 
L 686.376 179.684388 
L 657.36 179.123652 
L 676.89 178.936854 
L 673.542 178.731725 
L 674.1 178.56227 
L 683.028 178.360627 
L 663.498 178.1693 
L 680.796 177.999796 
L 682.47 177.817816 
L 667.962 177.631246 
L 668.52 177.465787 
L 674.658 177.28469 
L 676.332 177.11486 
L 689.724 176.938708 
L 692.514 176.752927 
L 690.282 176.58994 
L 673.542 176.253008 
L 693.63 176.104264 
L 681.354 175.935247 
L 694.746 175.771899 
L 678.006 175.614689 
L 684.144 175.4459 
L 683.586 175.268856 
L 698.652 175.104599 
L 663.498 174.935545 
L 687.492 174.771346 
L 690.84 174.610785 
L 698.652 174.462872 
L 697.536 174.301371 
L 703.116 174.142079 
L 700.884 173.965109 
L 695.862 173.818406 
L 696.978 173.672737 
L 702.558 173.516496 
L 681.354 173.370447 
L 680.238 173.229154 
L 701.442 173.064047 
L 694.746 172.930724 
L 696.978 172.785131 
L 696.978 172.63962 
L 698.094 172.487083 
L 697.536 172.32707 
L 691.956 172.185958 
L 717.624 172.045782 
L 708.696 171.909879 
L 711.486 171.777216 
L 695.304 171.483275 
L 711.486 171.194182 
L 709.812 171.050773 
L 698.652 170.912919 
L 713.16 170.647793 
L 712.044 170.513467 
L 715.392 170.395287 
L 713.16 170.253002 
L 695.862 170.114418 
L 720.972 169.988394 
L 720.972 169.855347 
L 712.602 169.731201 
L 721.53 169.599857 
L 708.138 169.332828 
L 719.298 169.197781 
L 717.066 169.082503 
L 704.232 168.937278 
L 712.602 168.810851 
L 711.486 168.680052 
L 729.9 168.557432 
L 717.066 168.445839 
L 722.088 168.324848 
L 720.414 168.210231 
L 715.392 168.086232 
L 723.762 167.958911 
L 720.972 167.840489 
L 702.558 167.720306 
L 718.74 167.60353 
L 707.58 167.372004 
L 723.204 167.26011 
L 706.464 167.137986 
L 731.574 166.782556 
L 719.298 166.553112 
L 721.53 166.439242 
L 727.668 166.32889 
L 728.226 166.204123 
L 736.038 166.085372 
L 723.762 165.864674 
L 724.32 165.750765 
L 718.182 165.637931 
L 734.922 165.41599 
L 719.298 165.311499 
L 733.806 165.209081 
L 733.248 165.108786 
L 722.088 164.993699 
L 723.204 164.870351 
L 733.806 164.763178 
L 712.044 164.534889 
L 731.016 164.435802 
L 720.414 164.328094 
L 731.016 164.219632 
L 728.226 164.008033 
L 734.922 163.911404 
L 725.994 163.80683 
L 731.016 163.694095 
L 728.784 163.582683 
L 716.508 163.485667 
L 732.132 163.292461 
L 738.27 163.187171 
L 734.922 163.074788 
L 725.994 162.971166 
L 743.292 162.871384 
L 727.11 162.670961 
L 725.436 162.570546 
L 736.596 162.479756 
L 733.248 162.384878 
L 734.922 162.286397 
L 728.784 161.982727 
L 743.85 161.797518 
L 732.69 161.707385 
L 742.734 161.613373 
L 727.668 161.332946 
L 747.756 161.152658 
L 742.176 161.061219 
L 748.872 160.857982 
L 741.06 160.67582 
L 737.154 160.578074 
L 744.408 160.481966 
L 742.176 160.396543 
L 726.552 160.305722 
L 746.082 160.210507 
L 741.06 160.118209 
L 746.082 160.034403 
L 726.552 159.938193 
L 749.988 159.765363 
L 740.502 159.671896 
L 754.452 159.586495 
L 723.204 159.431599 
L 748.314 159.256466 
L 737.154 159.075542 
L 725.994 158.983847 
L 746.64 158.63484 
L 734.922 158.545256 
L 741.618 158.458455 
L 727.11 158.292515 
L 753.894 158.221134 
L 748.314 158.136681 
L 748.872 158.055454 
L 742.734 157.961797 
L 750.546 157.884219 
L 747.198 157.803565 
L 738.27 157.717798 
L 740.502 157.621724 
L 757.8 157.536794 
L 751.662 157.45852 
L 752.22 157.376096 
L 761.148 157.295727 
L 748.314 157.133274 
L 755.568 157.054055 
L 752.778 156.987068 
L 747.756 156.907274 
L 757.8 156.826144 
L 739.386 156.574313 
L 741.06 156.482585 
L 749.43 156.407701 
L 743.292 156.323203 
L 748.314 156.235123 
L 744.408 156.166275 
L 759.474 155.925715 
L 758.358 155.855614 
L 750.546 155.693274 
L 750.546 155.693274 
" style="fill:none;stroke:#ff9500;stroke-linecap:square;stroke-width:5;"/>
   </g>
   <g id="line2d_59">
    <path clip-path="url(#p9e9f105503)" d="M -1 466.558053 
L 42.444 461.311425 
L 63.648 452.834821 
L 163.53 445.461555 
L 157.392 438.960076 
L 273.456 433.144234 
L 272.898 427.908583 
L 262.854 423.140604 
L 314.19 418.757693 
L 308.052 414.753057 
L 354.924 411.033821 
L 364.41 407.563998 
L 337.626 404.288585 
L 371.664 401.218354 
L 357.714 398.314719 
L 362.178 395.577435 
L 382.266 392.980901 
L 412.398 390.524973 
L 399.006 388.174811 
L 412.956 385.923345 
L 436.95 383.771224 
L 425.232 381.709366 
L 434.16 379.724386 
L 429.696 376.013521 
L 463.734 374.271791 
L 454.806 372.597428 
L 460.386 370.967115 
L 447.552 369.389775 
L 465.408 367.862944 
L 475.452 366.381711 
L 471.546 364.940366 
L 465.408 363.535765 
L 489.96 360.845642 
L 487.728 359.559883 
L 489.96 358.31144 
L 483.822 357.089521 
L 500.562 355.893085 
L 479.916 354.729256 
L 482.706 353.59404 
L 479.916 352.488646 
L 508.932 351.406105 
L 506.7 350.353807 
L 516.186 349.327259 
L 507.258 348.314428 
L 512.28 347.324092 
L 498.33 346.354712 
L 521.208 345.403646 
L 525.114 344.477962 
L 533.484 343.576572 
L 513.954 342.691284 
L 516.744 341.817826 
L 534.6 340.965466 
L 540.738 340.132281 
L 540.18 339.314324 
L 530.694 338.511684 
L 553.014 336.948294 
L 535.716 336.18949 
L 555.804 335.442541 
L 542.412 334.703586 
L 546.876 333.974004 
L 561.384 332.562062 
L 553.572 331.866628 
L 560.826 331.182611 
L 547.992 330.511165 
L 549.108 329.846316 
L 545.202 329.193832 
L 564.732 327.92 
L 560.268 327.296987 
L 570.312 326.682994 
L 561.942 326.078094 
L 569.196 325.481986 
L 573.66 324.890184 
L 574.218 324.309829 
L 579.24 323.737915 
L 580.914 323.169897 
L 581.472 322.610025 
L 577.566 322.055267 
L 569.754 321.508718 
L 585.378 320.966296 
L 589.842 320.431536 
L 583.146 319.906047 
L 597.096 319.384897 
L 598.77 318.872996 
L 587.61 318.365691 
L 572.544 317.862625 
L 587.052 317.365338 
L 596.538 316.876869 
L 602.676 316.394292 
L 591.516 315.916708 
L 605.466 315.4427 
L 586.494 314.973102 
L 602.676 314.508087 
L 601.002 314.046576 
L 608.256 313.588814 
L 611.604 313.136196 
L 579.24 312.687786 
L 612.162 312.246237 
L 616.626 311.809109 
L 618.858 311.378279 
L 619.416 310.95172 
L 609.93 310.529643 
L 606.024 310.11008 
L 619.974 309.695333 
L 617.742 309.283666 
L 612.162 308.877491 
L 617.184 308.476256 
L 611.604 308.075901 
L 633.366 307.680776 
L 638.388 307.2889 
L 632.25 306.901176 
L 618.858 306.514341 
L 629.46 306.130792 
L 620.532 305.751742 
L 632.808 305.375655 
L 637.272 305.003267 
L 634.482 304.629964 
L 639.504 304.261742 
L 634.482 303.895814 
L 650.664 303.535499 
L 636.714 303.177862 
L 651.78 302.472501 
L 650.664 302.127764 
L 643.968 301.781818 
L 645.642 301.441091 
L 628.902 301.102541 
L 646.758 300.764585 
L 655.686 300.431004 
L 660.708 300.099092 
L 633.366 299.771228 
L 655.128 299.444973 
L 640.62 299.12099 
L 665.73 298.800556 
L 652.338 298.481387 
L 662.382 298.164463 
L 659.592 297.848682 
L 664.614 297.533681 
L 656.244 297.221479 
L 670.194 296.913477 
L 657.36 296.606935 
L 674.658 296.303497 
L 670.194 296.001785 
L 671.868 295.701344 
L 670.194 295.404447 
L 686.376 294.814665 
L 676.332 294.52158 
L 661.266 294.229258 
L 657.36 293.940763 
L 676.89 293.652765 
L 673.542 293.368479 
L 674.1 293.086084 
L 683.028 292.804161 
L 663.498 292.524022 
L 680.796 292.246044 
L 682.47 291.970484 
L 667.962 291.694204 
L 668.52 291.419771 
L 674.658 291.146644 
L 676.332 290.875404 
L 689.724 290.606794 
L 692.514 290.339616 
L 690.282 290.073866 
L 683.586 289.810971 
L 673.542 289.549044 
L 693.63 289.289808 
L 681.354 289.03255 
L 694.746 288.777011 
L 678.006 288.521457 
L 684.144 288.267581 
L 683.586 288.014127 
L 698.652 287.761843 
L 663.498 287.510724 
L 687.492 287.260573 
L 690.84 287.012298 
L 698.652 286.765172 
L 697.536 286.519591 
L 703.116 286.276044 
L 700.884 286.033459 
L 695.862 285.792276 
L 696.978 285.553231 
L 702.558 285.314825 
L 681.354 285.077246 
L 680.238 284.840569 
L 701.442 284.605938 
L 694.746 284.372643 
L 696.978 284.139758 
L 696.978 283.908513 
L 698.094 283.678783 
L 697.536 283.449552 
L 691.956 283.223791 
L 717.624 282.997269 
L 708.696 282.772315 
L 711.486 282.548826 
L 705.348 282.32611 
L 695.304 282.104262 
L 711.486 281.663364 
L 709.812 281.443933 
L 698.652 281.225706 
L 708.696 281.008203 
L 713.16 280.791849 
L 712.044 280.576096 
L 715.392 280.361597 
L 713.16 280.148047 
L 695.862 279.936417 
L 720.972 279.725371 
L 720.972 279.514884 
L 712.602 279.304364 
L 721.53 279.095188 
L 708.138 278.68108 
L 719.298 278.474765 
L 717.066 278.269389 
L 704.232 278.064256 
L 712.602 277.861048 
L 711.486 277.659448 
L 729.9 277.458497 
L 717.066 277.258497 
L 722.088 277.058585 
L 720.414 276.860148 
L 715.392 276.661001 
L 723.762 276.464768 
L 720.972 276.270045 
L 702.558 276.0751 
L 718.74 275.880803 
L 707.58 275.493516 
L 723.204 275.300961 
L 706.464 275.109902 
L 717.624 274.919276 
L 721.53 274.729706 
L 731.574 274.541415 
L 719.298 274.164695 
L 721.53 273.97744 
L 727.668 273.7907 
L 728.226 273.605672 
L 736.038 273.422034 
L 726.552 273.238895 
L 723.762 273.056659 
L 724.32 272.874965 
L 718.182 272.694192 
L 731.016 272.51398 
L 734.922 272.333528 
L 719.298 272.153103 
L 733.806 271.974319 
L 733.248 271.796344 
L 722.088 271.6201 
L 723.204 271.445354 
L 733.806 271.270761 
L 725.994 271.096789 
L 712.044 270.92287 
L 731.016 270.74951 
L 720.414 270.575857 
L 731.016 270.403471 
L 728.784 270.231763 
L 728.226 270.060377 
L 734.922 269.889704 
L 725.994 269.719584 
L 731.016 269.550301 
L 728.784 269.382147 
L 716.508 269.213993 
L 730.458 269.046495 
L 732.132 268.879463 
L 738.27 268.713289 
L 734.922 268.547848 
L 725.994 268.382938 
L 743.292 268.218142 
L 730.458 268.054399 
L 725.436 267.727294 
L 736.596 267.564963 
L 733.248 267.403068 
L 734.922 267.24165 
L 732.69 267.081051 
L 732.69 266.920672 
L 728.784 266.761371 
L 741.618 266.6018 
L 743.85 266.443662 
L 732.69 266.285691 
L 742.734 266.128351 
L 727.668 265.65955 
L 747.756 265.351131 
L 742.176 265.196983 
L 748.872 264.891078 
L 741.618 264.738976 
L 741.06 264.587468 
L 737.154 264.436157 
L 744.408 264.285511 
L 742.176 264.135009 
L 726.552 263.98493 
L 746.082 263.835409 
L 741.06 263.686815 
L 746.082 263.538674 
L 726.552 263.390128 
L 749.988 263.094151 
L 740.502 262.946788 
L 754.452 262.800048 
L 723.204 262.507961 
L 748.314 262.217238 
L 737.154 261.928271 
L 725.994 261.78427 
L 741.06 261.496626 
L 737.154 261.353547 
L 746.64 261.210765 
L 734.922 261.068362 
L 741.618 260.927004 
L 727.11 260.644032 
L 753.894 260.50359 
L 748.314 260.362979 
L 748.872 260.223138 
L 742.734 260.083792 
L 750.546 259.944497 
L 747.198 259.805645 
L 738.27 259.667165 
L 740.502 259.52959 
L 757.8 259.392554 
L 751.662 259.255867 
L 752.22 259.119922 
L 761.148 258.984144 
L 748.314 258.713183 
L 755.568 258.578855 
L 747.756 258.31093 
L 757.8 258.177239 
L 739.386 257.77843 
L 741.06 257.646182 
L 749.43 257.514591 
L 743.292 257.383318 
L 748.314 257.252297 
L 744.408 257.1215 
L 752.22 256.990622 
L 752.778 256.85993 
L 759.474 256.729387 
L 758.358 256.599579 
L 750.546 256.341377 
L 750.546 256.341377 
" style="fill:none;stroke:#ffc36e;stroke-linecap:square;stroke-width:5;"/>
   </g>
   <g id="patch_3">
    <path d="M 144 504 
L 144 69.12 
" style="fill:none;stroke:#000000;stroke-linecap:square;stroke-linejoin:miter;stroke-width:0.8;"/>
   </g>
   <g id="patch_4">
    <path d="M 1036.8 504 
L 1036.8 69.12 
" style="fill:none;stroke:#000000;stroke-linecap:square;stroke-linejoin:miter;stroke-width:0.8;"/>
   </g>
   <g id="patch_5">
    <path d="M 144 504 
L 1036.8 504 
" style="fill:none;stroke:#000000;stroke-linecap:square;stroke-linejoin:miter;stroke-width:0.8;"/>
   </g>
   <g id="patch_6">
    <path d="M 144 69.12 
L 1036.8 69.12 
" style="fill:none;stroke:#000000;stroke-linecap:square;stroke-linejoin:miter;stroke-width:0.8;"/>
   </g>
   <g id="text_17">
    <!-- Gated: Energy vs. Accuracy with 50 Units @ 0.4 -->
    <g transform="translate(159.347812 61.633125)scale(0.36 -0.36)">
     <defs>
      <path d="M 59.515625 10.40625 
L 59.515625 29.984375 
L 43.40625 29.984375 
L 43.40625 38.09375 
L 69.28125 38.09375 
L 69.28125 6.78125 
Q 63.578125 2.734375 56.6875 0.65625 
Q 49.8125 -1.421875 42 -1.421875 
Q 24.90625 -1.421875 15.25 8.5625 
Q 5.609375 18.5625 5.609375 36.375 
Q 5.609375 54.25 15.25 64.234375 
Q 24.90625 74.21875 42 74.21875 
Q 49.125 74.21875 55.546875 72.453125 
Q 61.96875 70.703125 67.390625 67.28125 
L 67.390625 56.78125 
Q 61.921875 61.421875 55.765625 63.765625 
Q 49.609375 66.109375 42.828125 66.109375 
Q 29.4375 66.109375 22.71875 58.640625 
Q 16.015625 51.171875 16.015625 36.375 
Q 16.015625 21.625 22.71875 14.15625 
Q 29.4375 6.6875 42.828125 6.6875 
Q 48.046875 6.6875 52.140625 7.59375 
Q 56.25 8.5 59.515625 10.40625 
z
" id="DejaVuSans-71"/>
      <path d="M 18.3125 70.21875 
L 18.3125 54.6875 
L 36.8125 54.6875 
L 36.8125 47.703125 
L 18.3125 47.703125 
L 18.3125 18.015625 
Q 18.3125 11.328125 20.140625 9.421875 
Q 21.96875 7.515625 27.59375 7.515625 
L 36.8125 7.515625 
L 36.8125 0 
L 27.59375 0 
Q 17.1875 0 13.234375 3.875 
Q 9.28125 7.765625 9.28125 18.015625 
L 9.28125 47.703125 
L 2.6875 47.703125 
L 2.6875 54.6875 
L 9.28125 54.6875 
L 9.28125 70.21875 
z
" id="DejaVuSans-116"/>
      <path d="M 45.40625 46.390625 
L 45.40625 75.984375 
L 54.390625 75.984375 
L 54.390625 0 
L 45.40625 0 
L 45.40625 8.203125 
Q 42.578125 3.328125 38.25 0.953125 
Q 33.9375 -1.421875 27.875 -1.421875 
Q 17.96875 -1.421875 11.734375 6.484375 
Q 5.515625 14.40625 5.515625 27.296875 
Q 5.515625 40.1875 11.734375 48.09375 
Q 17.96875 56 27.875 56 
Q 33.9375 56 38.25 53.625 
Q 42.578125 51.265625 45.40625 46.390625 
z
M 14.796875 27.296875 
Q 14.796875 17.390625 18.875 11.75 
Q 22.953125 6.109375 30.078125 6.109375 
Q 37.203125 6.109375 41.296875 11.75 
Q 45.40625 17.390625 45.40625 27.296875 
Q 45.40625 37.203125 41.296875 42.84375 
Q 37.203125 48.484375 30.078125 48.484375 
Q 22.953125 48.484375 18.875 42.84375 
Q 14.796875 37.203125 14.796875 27.296875 
z
" id="DejaVuSans-100"/>
      <path d="M 11.71875 12.40625 
L 22.015625 12.40625 
L 22.015625 0 
L 11.71875 0 
z
M 11.71875 51.703125 
L 22.015625 51.703125 
L 22.015625 39.3125 
L 11.71875 39.3125 
z
" id="DejaVuSans-58"/>
      <path d="M 2.984375 54.6875 
L 12.5 54.6875 
L 29.59375 8.796875 
L 46.6875 54.6875 
L 56.203125 54.6875 
L 35.6875 0 
L 23.484375 0 
z
" id="DejaVuSans-118"/>
      <path d="M 44.28125 53.078125 
L 44.28125 44.578125 
Q 40.484375 46.53125 36.375 47.5 
Q 32.28125 48.484375 27.875 48.484375 
Q 21.1875 48.484375 17.84375 46.4375 
Q 14.5 44.390625 14.5 40.28125 
Q 14.5 37.15625 16.890625 35.375 
Q 19.28125 33.59375 26.515625 31.984375 
L 29.59375 31.296875 
Q 39.15625 29.25 43.1875 25.515625 
Q 47.21875 21.78125 47.21875 15.09375 
Q 47.21875 7.46875 41.1875 3.015625 
Q 35.15625 -1.421875 24.609375 -1.421875 
Q 20.21875 -1.421875 15.453125 -0.5625 
Q 10.6875 0.296875 5.421875 2 
L 5.421875 11.28125 
Q 10.40625 8.6875 15.234375 7.390625 
Q 20.0625 6.109375 24.8125 6.109375 
Q 31.15625 6.109375 34.5625 8.28125 
Q 37.984375 10.453125 37.984375 14.40625 
Q 37.984375 18.0625 35.515625 20.015625 
Q 33.0625 21.96875 24.703125 23.78125 
L 21.578125 24.515625 
Q 13.234375 26.265625 9.515625 29.90625 
Q 5.8125 33.546875 5.8125 39.890625 
Q 5.8125 47.609375 11.28125 51.796875 
Q 16.75 56 26.8125 56 
Q 31.78125 56 36.171875 55.265625 
Q 40.578125 54.546875 44.28125 53.078125 
z
" id="DejaVuSans-115"/>
      <path d="M 4.203125 54.6875 
L 13.1875 54.6875 
L 24.421875 12.015625 
L 35.59375 54.6875 
L 46.1875 54.6875 
L 57.421875 12.015625 
L 68.609375 54.6875 
L 77.59375 54.6875 
L 63.28125 0 
L 52.6875 0 
L 40.921875 44.828125 
L 29.109375 0 
L 18.5 0 
z
" id="DejaVuSans-119"/>
      <path d="M 9.421875 54.6875 
L 18.40625 54.6875 
L 18.40625 0 
L 9.421875 0 
z
M 9.421875 75.984375 
L 18.40625 75.984375 
L 18.40625 64.59375 
L 9.421875 64.59375 
z
" id="DejaVuSans-105"/>
      <path d="M 54.890625 33.015625 
L 54.890625 0 
L 45.90625 0 
L 45.90625 32.71875 
Q 45.90625 40.484375 42.875 44.328125 
Q 39.84375 48.1875 33.796875 48.1875 
Q 26.515625 48.1875 22.3125 43.546875 
Q 18.109375 38.921875 18.109375 30.90625 
L 18.109375 0 
L 9.078125 0 
L 9.078125 75.984375 
L 18.109375 75.984375 
L 18.109375 46.1875 
Q 21.34375 51.125 25.703125 53.5625 
Q 30.078125 56 35.796875 56 
Q 45.21875 56 50.046875 50.171875 
Q 54.890625 44.34375 54.890625 33.015625 
z
" id="DejaVuSans-104"/>
      <path d="M 37.203125 26.21875 
Q 37.203125 19.234375 40.671875 15.25 
Q 44.140625 11.28125 50.203125 11.28125 
Q 56.203125 11.28125 59.640625 15.28125 
Q 63.09375 19.28125 63.09375 26.21875 
Q 63.09375 33.0625 59.578125 37.078125 
Q 56.0625 41.109375 50.09375 41.109375 
Q 44.1875 41.109375 40.6875 37.109375 
Q 37.203125 33.109375 37.203125 26.21875 
z
M 63.8125 11.625 
Q 60.890625 7.859375 57.109375 6.078125 
Q 53.328125 4.296875 48.296875 4.296875 
Q 39.890625 4.296875 34.640625 10.375 
Q 29.390625 16.453125 29.390625 26.21875 
Q 29.390625 35.984375 34.65625 42.078125 
Q 39.9375 48.1875 48.296875 48.1875 
Q 53.328125 48.1875 57.125 46.359375 
Q 60.9375 44.53125 63.8125 40.828125 
L 63.8125 47.21875 
L 70.796875 47.21875 
L 70.796875 11.28125 
Q 77.9375 12.359375 81.953125 17.796875 
Q 85.984375 23.25 85.984375 31.890625 
Q 85.984375 37.109375 84.4375 41.703125 
Q 82.90625 46.296875 79.78125 50.203125 
Q 74.703125 56.59375 67.40625 59.984375 
Q 60.109375 63.375 51.515625 63.375 
Q 45.515625 63.375 39.984375 61.78125 
Q 34.46875 60.203125 29.78125 57.078125 
Q 22.125 52.09375 17.796875 44.015625 
Q 13.484375 35.9375 13.484375 26.515625 
Q 13.484375 18.75 16.28125 11.953125 
Q 19.09375 5.171875 24.421875 0 
Q 29.546875 -5.078125 36.28125 -7.734375 
Q 43.015625 -10.40625 50.6875 -10.40625 
Q 56.984375 -10.40625 63.0625 -8.28125 
Q 69.140625 -6.15625 74.21875 -2.203125 
L 78.609375 -7.625 
Q 72.515625 -12.359375 65.3125 -14.875 
Q 58.109375 -17.390625 50.6875 -17.390625 
Q 41.65625 -17.390625 33.640625 -14.1875 
Q 25.640625 -10.984375 19.390625 -4.890625 
Q 13.140625 1.21875 9.859375 9.25 
Q 6.59375 17.28125 6.59375 26.515625 
Q 6.59375 35.40625 9.90625 43.453125 
Q 13.234375 51.515625 19.390625 57.625 
Q 25.6875 63.8125 33.9375 67.109375 
Q 42.1875 70.40625 51.421875 70.40625 
Q 61.765625 70.40625 70.625 66.15625 
Q 79.5 61.921875 85.5 54.109375 
Q 89.15625 49.3125 91.078125 43.703125 
Q 93.015625 38.09375 93.015625 32.078125 
Q 93.015625 19.234375 85.25 11.8125 
Q 77.484375 4.390625 63.8125 4.109375 
z
" id="DejaVuSans-64"/>
     </defs>
     <use xlink:href="#DejaVuSans-71"/>
     <use x="77.490234" xlink:href="#DejaVuSans-97"/>
     <use x="138.769531" xlink:href="#DejaVuSans-116"/>
     <use x="177.978516" xlink:href="#DejaVuSans-101"/>
     <use x="239.501953" xlink:href="#DejaVuSans-100"/>
     <use x="302.978516" xlink:href="#DejaVuSans-58"/>
     <use x="336.669922" xlink:href="#DejaVuSans-32"/>
     <use x="368.457031" xlink:href="#DejaVuSans-69"/>
     <use x="431.640625" xlink:href="#DejaVuSans-110"/>
     <use x="495.019531" xlink:href="#DejaVuSans-101"/>
     <use x="556.542969" xlink:href="#DejaVuSans-114"/>
     <use x="595.90625" xlink:href="#DejaVuSans-103"/>
     <use x="659.382812" xlink:href="#DejaVuSans-121"/>
     <use x="718.5625" xlink:href="#DejaVuSans-32"/>
     <use x="750.349609" xlink:href="#DejaVuSans-118"/>
     <use x="809.529297" xlink:href="#DejaVuSans-115"/>
     <use x="861.628906" xlink:href="#DejaVuSans-46"/>
     <use x="893.416016" xlink:href="#DejaVuSans-32"/>
     <use x="925.203125" xlink:href="#DejaVuSans-65"/>
     <use x="991.861328" xlink:href="#DejaVuSans-99"/>
     <use x="1046.841797" xlink:href="#DejaVuSans-99"/>
     <use x="1101.822266" xlink:href="#DejaVuSans-117"/>
     <use x="1165.201172" xlink:href="#DejaVuSans-114"/>
     <use x="1206.314453" xlink:href="#DejaVuSans-97"/>
     <use x="1267.59375" xlink:href="#DejaVuSans-99"/>
     <use x="1322.574219" xlink:href="#DejaVuSans-121"/>
     <use x="1381.753906" xlink:href="#DejaVuSans-32"/>
     <use x="1413.541016" xlink:href="#DejaVuSans-119"/>
     <use x="1495.328125" xlink:href="#DejaVuSans-105"/>
     <use x="1523.111328" xlink:href="#DejaVuSans-116"/>
     <use x="1562.320312" xlink:href="#DejaVuSans-104"/>
     <use x="1625.699219" xlink:href="#DejaVuSans-32"/>
     <use x="1657.486328" xlink:href="#DejaVuSans-53"/>
     <use x="1721.109375" xlink:href="#DejaVuSans-48"/>
     <use x="1784.732422" xlink:href="#DejaVuSans-32"/>
     <use x="1816.519531" xlink:href="#DejaVuSans-85"/>
     <use x="1889.712891" xlink:href="#DejaVuSans-110"/>
     <use x="1953.091797" xlink:href="#DejaVuSans-105"/>
     <use x="1980.875" xlink:href="#DejaVuSans-116"/>
     <use x="2020.083984" xlink:href="#DejaVuSans-115"/>
     <use x="2072.183594" xlink:href="#DejaVuSans-32"/>
     <use x="2103.970703" xlink:href="#DejaVuSans-64"/>
     <use x="2203.970703" xlink:href="#DejaVuSans-32"/>
     <use x="2235.757812" xlink:href="#DejaVuSans-48"/>
     <use x="2299.380859" xlink:href="#DejaVuSans-46"/>
     <use x="2331.167969" xlink:href="#DejaVuSans-52"/>
    </g>
   </g>
   <g id="legend_1">
    <g id="patch_7">
     <path d="M 799.660625 493 
L 1021.4 493 
Q 1025.8 493 1025.8 488.6 
L 1025.8 361.6325 
Q 1025.8 357.2325 1021.4 357.2325 
L 799.660625 357.2325 
Q 795.260625 357.2325 795.260625 361.6325 
L 795.260625 488.6 
Q 795.260625 493 799.660625 493 
z
" style="fill:#ffffff;opacity:0.8;stroke:#cccccc;stroke-linejoin:miter;"/>
    </g>
    <g id="line2d_60">
     <path d="M 804.060625 375.049062 
L 848.060625 375.049062 
" style="fill:none;stroke:#1f1f1f;stroke-linecap:square;stroke-width:5;"/>
    </g>
    <g id="line2d_61"/>
    <g id="text_18">
     <!-- Ungated: 1.0 -->
     <g transform="translate(865.660625 382.749062)scale(0.22 -0.22)">
      <use xlink:href="#DejaVuSans-85"/>
      <use x="73.193359" xlink:href="#DejaVuSans-110"/>
      <use x="136.572266" xlink:href="#DejaVuSans-103"/>
      <use x="200.048828" xlink:href="#DejaVuSans-97"/>
      <use x="261.328125" xlink:href="#DejaVuSans-116"/>
      <use x="300.537109" xlink:href="#DejaVuSans-101"/>
      <use x="362.060547" xlink:href="#DejaVuSans-100"/>
      <use x="425.537109" xlink:href="#DejaVuSans-58"/>
      <use x="459.228516" xlink:href="#DejaVuSans-32"/>
      <use x="491.015625" xlink:href="#DejaVuSans-49"/>
      <use x="554.638672" xlink:href="#DejaVuSans-46"/>
      <use x="586.425781" xlink:href="#DejaVuSans-48"/>
     </g>
    </g>
    <g id="line2d_62">
     <path d="M 804.060625 407.340937 
L 848.060625 407.340937 
" style="fill:none;stroke:#9e9e9e;stroke-linecap:square;stroke-width:5;"/>
    </g>
    <g id="line2d_63"/>
    <g id="text_19">
     <!-- Minimum: 1.0 -->
     <g transform="translate(865.660625 415.040937)scale(0.22 -0.22)">
      <defs>
       <path d="M 9.8125 72.90625 
L 24.515625 72.90625 
L 43.109375 23.296875 
L 61.8125 72.90625 
L 76.515625 72.90625 
L 76.515625 0 
L 66.890625 0 
L 66.890625 64.015625 
L 48.09375 14.015625 
L 38.1875 14.015625 
L 19.390625 64.015625 
L 19.390625 0 
L 9.8125 0 
z
" id="DejaVuSans-77"/>
       <path d="M 52 44.1875 
Q 55.375 50.25 60.0625 53.125 
Q 64.75 56 71.09375 56 
Q 79.640625 56 84.28125 50.015625 
Q 88.921875 44.046875 88.921875 33.015625 
L 88.921875 0 
L 79.890625 0 
L 79.890625 32.71875 
Q 79.890625 40.578125 77.09375 44.375 
Q 74.3125 48.1875 68.609375 48.1875 
Q 61.625 48.1875 57.5625 43.546875 
Q 53.515625 38.921875 53.515625 30.90625 
L 53.515625 0 
L 44.484375 0 
L 44.484375 32.71875 
Q 44.484375 40.625 41.703125 44.40625 
Q 38.921875 48.1875 33.109375 48.1875 
Q 26.21875 48.1875 22.15625 43.53125 
Q 18.109375 38.875 18.109375 30.90625 
L 18.109375 0 
L 9.078125 0 
L 9.078125 54.6875 
L 18.109375 54.6875 
L 18.109375 46.1875 
Q 21.1875 51.21875 25.484375 53.609375 
Q 29.78125 56 35.6875 56 
Q 41.65625 56 45.828125 52.96875 
Q 50 49.953125 52 44.1875 
z
" id="DejaVuSans-109"/>
      </defs>
      <use xlink:href="#DejaVuSans-77"/>
      <use x="86.279297" xlink:href="#DejaVuSans-105"/>
      <use x="114.0625" xlink:href="#DejaVuSans-110"/>
      <use x="177.441406" xlink:href="#DejaVuSans-105"/>
      <use x="205.224609" xlink:href="#DejaVuSans-109"/>
      <use x="302.636719" xlink:href="#DejaVuSans-117"/>
      <use x="366.015625" xlink:href="#DejaVuSans-109"/>
      <use x="463.427734" xlink:href="#DejaVuSans-58"/>
      <use x="497.119141" xlink:href="#DejaVuSans-32"/>
      <use x="528.90625" xlink:href="#DejaVuSans-49"/>
      <use x="592.529297" xlink:href="#DejaVuSans-46"/>
      <use x="624.316406" xlink:href="#DejaVuSans-48"/>
     </g>
    </g>
    <g id="line2d_64">
     <path d="M 804.060625 439.632812 
L 848.060625 439.632812 
" style="fill:none;stroke:#ff9500;stroke-linecap:square;stroke-width:5;"/>
    </g>
    <g id="line2d_65"/>
    <g id="text_20">
     <!-- Gated: 0.4 -->
     <g transform="translate(865.660625 447.332812)scale(0.22 -0.22)">
      <use xlink:href="#DejaVuSans-71"/>
      <use x="77.490234" xlink:href="#DejaVuSans-97"/>
      <use x="138.769531" xlink:href="#DejaVuSans-116"/>
      <use x="177.978516" xlink:href="#DejaVuSans-101"/>
      <use x="239.501953" xlink:href="#DejaVuSans-100"/>
      <use x="302.978516" xlink:href="#DejaVuSans-58"/>
      <use x="336.669922" xlink:href="#DejaVuSans-32"/>
      <use x="368.457031" xlink:href="#DejaVuSans-48"/>
      <use x="432.080078" xlink:href="#DejaVuSans-46"/>
      <use x="463.867188" xlink:href="#DejaVuSans-52"/>
     </g>
    </g>
    <g id="line2d_66">
     <path d="M 804.060625 471.924688 
L 848.060625 471.924688 
" style="fill:none;stroke:#ffc36e;stroke-linecap:square;stroke-width:5;"/>
    </g>
    <g id="line2d_67"/>
    <g id="text_21">
     <!-- Minimum: 0.4 -->
     <g transform="translate(865.660625 479.624687)scale(0.22 -0.22)">
      <use xlink:href="#DejaVuSans-77"/>
      <use x="86.279297" xlink:href="#DejaVuSans-105"/>
      <use x="114.0625" xlink:href="#DejaVuSans-110"/>
      <use x="177.441406" xlink:href="#DejaVuSans-105"/>
      <use x="205.224609" xlink:href="#DejaVuSans-109"/>
      <use x="302.636719" xlink:href="#DejaVuSans-117"/>
      <use x="366.015625" xlink:href="#DejaVuSans-109"/>
      <use x="463.427734" xlink:href="#DejaVuSans-58"/>
      <use x="497.119141" xlink:href="#DejaVuSans-32"/>
      <use x="528.90625" xlink:href="#DejaVuSans-48"/>
      <use x="592.529297" xlink:href="#DejaVuSans-46"/>
      <use x="624.316406" xlink:href="#DejaVuSans-52"/>
     </g>
    </g>
   </g>
  </g>
 </g>
 <defs>
  <clipPath id="p9e9f105503">
   <rect height="434.88" width="892.8" x="144" y="69.12"/>
  </clipPath>
 </defs>
</svg>
