<?xml version="1.0" encoding="utf-8" standalone="no"?>
<!DOCTYPE svg PUBLIC "-//W3C//DTD SVG 1.1//EN"
  "http://www.w3.org/Graphics/SVG/1.1/DTD/svg11.dtd">
<!-- Created with matplotlib (https://matplotlib.org/) -->
<svg height="576pt" version="1.1" viewBox="0 0 1152 576" width="1152pt" xmlns="http://www.w3.org/2000/svg" xmlns:xlink="http://www.w3.org/1999/xlink">
 <metadata>
  <rdf:RDF xmlns:cc="http://creativecommons.org/ns#" xmlns:dc="http://purl.org/dc/elements/1.1/" xmlns:rdf="http://www.w3.org/1999/02/22-rdf-syntax-ns#">
   <cc:Work>
    <dc:type rdf:resource="http://purl.org/dc/dcmitype/StillImage"/>
    <dc:date>2021-09-12T15:17:43.906560</dc:date>
    <dc:format>image/svg+xml</dc:format>
    <dc:creator>
     <cc:Agent>
      <dc:title>Matplotlib v3.3.4, https://matplotlib.org/</dc:title>
     </cc:Agent>
    </dc:creator>
   </cc:Work>
  </rdf:RDF>
 </metadata>
 <defs>
  <style type="text/css">*{stroke-linecap:butt;stroke-linejoin:round;}</style>
 </defs>
 <g id="figure_1">
  <g id="patch_1">
   <path d="M 0 576 
L 1152 576 
L 1152 0 
L 0 0 
z
" style="fill:#ffffff;"/>
  </g>
  <g id="axes_1">
   <g id="patch_2">
    <path d="M 144 504 
L 1036.8 504 
L 1036.8 69.12 
L 144 69.12 
z
" style="fill:#ffffff;"/>
   </g>
   <g id="matplotlib.axis_1">
    <g id="xtick_1">
     <g id="line2d_1">
      <defs>
       <path d="M 0 0 
L 0 3.5 
" id="m6090eccba4" style="stroke:#000000;stroke-width:0.8;"/>
      </defs>
      <g>
       <use style="stroke:#000000;stroke-width:0.8;" x="144" xlink:href="#m6090eccba4" y="504"/>
      </g>
     </g>
     <g id="text_1">
      <!-- 84 -->
      <g transform="translate(128.73 529.23625)scale(0.24 -0.24)">
       <defs>
        <path d="M 31.78125 34.625 
Q 24.75 34.625 20.71875 30.859375 
Q 16.703125 27.09375 16.703125 20.515625 
Q 16.703125 13.921875 20.71875 10.15625 
Q 24.75 6.390625 31.78125 6.390625 
Q 38.8125 6.390625 42.859375 10.171875 
Q 46.921875 13.96875 46.921875 20.515625 
Q 46.921875 27.09375 42.890625 30.859375 
Q 38.875 34.625 31.78125 34.625 
z
M 21.921875 38.8125 
Q 15.578125 40.375 12.03125 44.71875 
Q 8.5 49.078125 8.5 55.328125 
Q 8.5 64.0625 14.71875 69.140625 
Q 20.953125 74.21875 31.78125 74.21875 
Q 42.671875 74.21875 48.875 69.140625 
Q 55.078125 64.0625 55.078125 55.328125 
Q 55.078125 49.078125 51.53125 44.71875 
Q 48 40.375 41.703125 38.8125 
Q 48.828125 37.15625 52.796875 32.3125 
Q 56.78125 27.484375 56.78125 20.515625 
Q 56.78125 9.90625 50.3125 4.234375 
Q 43.84375 -1.421875 31.78125 -1.421875 
Q 19.734375 -1.421875 13.25 4.234375 
Q 6.78125 9.90625 6.78125 20.515625 
Q 6.78125 27.484375 10.78125 32.3125 
Q 14.796875 37.15625 21.921875 38.8125 
z
M 18.3125 54.390625 
Q 18.3125 48.734375 21.84375 45.5625 
Q 25.390625 42.390625 31.78125 42.390625 
Q 38.140625 42.390625 41.71875 45.5625 
Q 45.3125 48.734375 45.3125 54.390625 
Q 45.3125 60.0625 41.71875 63.234375 
Q 38.140625 66.40625 31.78125 66.40625 
Q 25.390625 66.40625 21.84375 63.234375 
Q 18.3125 60.0625 18.3125 54.390625 
z
" id="DejaVuSans-56"/>
        <path d="M 37.796875 64.3125 
L 12.890625 25.390625 
L 37.796875 25.390625 
z
M 35.203125 72.90625 
L 47.609375 72.90625 
L 47.609375 25.390625 
L 58.015625 25.390625 
L 58.015625 17.1875 
L 47.609375 17.1875 
L 47.609375 0 
L 37.796875 0 
L 37.796875 17.1875 
L 4.890625 17.1875 
L 4.890625 26.703125 
z
" id="DejaVuSans-52"/>
       </defs>
       <use xlink:href="#DejaVuSans-56"/>
       <use x="63.623047" xlink:href="#DejaVuSans-52"/>
      </g>
     </g>
    </g>
    <g id="xtick_2">
     <g id="line2d_2">
      <g>
       <use style="stroke:#000000;stroke-width:0.8;" x="255.6" xlink:href="#m6090eccba4" y="504"/>
      </g>
     </g>
     <g id="text_2">
      <!-- 86 -->
      <g transform="translate(240.33 529.23625)scale(0.24 -0.24)">
       <defs>
        <path d="M 33.015625 40.375 
Q 26.375 40.375 22.484375 35.828125 
Q 18.609375 31.296875 18.609375 23.390625 
Q 18.609375 15.53125 22.484375 10.953125 
Q 26.375 6.390625 33.015625 6.390625 
Q 39.65625 6.390625 43.53125 10.953125 
Q 47.40625 15.53125 47.40625 23.390625 
Q 47.40625 31.296875 43.53125 35.828125 
Q 39.65625 40.375 33.015625 40.375 
z
M 52.59375 71.296875 
L 52.59375 62.3125 
Q 48.875 64.0625 45.09375 64.984375 
Q 41.3125 65.921875 37.59375 65.921875 
Q 27.828125 65.921875 22.671875 59.328125 
Q 17.53125 52.734375 16.796875 39.40625 
Q 19.671875 43.65625 24.015625 45.921875 
Q 28.375 48.1875 33.59375 48.1875 
Q 44.578125 48.1875 50.953125 41.515625 
Q 57.328125 34.859375 57.328125 23.390625 
Q 57.328125 12.15625 50.6875 5.359375 
Q 44.046875 -1.421875 33.015625 -1.421875 
Q 20.359375 -1.421875 13.671875 8.265625 
Q 6.984375 17.96875 6.984375 36.375 
Q 6.984375 53.65625 15.1875 63.9375 
Q 23.390625 74.21875 37.203125 74.21875 
Q 40.921875 74.21875 44.703125 73.484375 
Q 48.484375 72.75 52.59375 71.296875 
z
" id="DejaVuSans-54"/>
       </defs>
       <use xlink:href="#DejaVuSans-56"/>
       <use x="63.623047" xlink:href="#DejaVuSans-54"/>
      </g>
     </g>
    </g>
    <g id="xtick_3">
     <g id="line2d_3">
      <g>
       <use style="stroke:#000000;stroke-width:0.8;" x="367.2" xlink:href="#m6090eccba4" y="504"/>
      </g>
     </g>
     <g id="text_3">
      <!-- 88 -->
      <g transform="translate(351.93 529.23625)scale(0.24 -0.24)">
       <use xlink:href="#DejaVuSans-56"/>
       <use x="63.623047" xlink:href="#DejaVuSans-56"/>
      </g>
     </g>
    </g>
    <g id="xtick_4">
     <g id="line2d_4">
      <g>
       <use style="stroke:#000000;stroke-width:0.8;" x="478.8" xlink:href="#m6090eccba4" y="504"/>
      </g>
     </g>
     <g id="text_4">
      <!-- 90 -->
      <g transform="translate(463.53 529.23625)scale(0.24 -0.24)">
       <defs>
        <path d="M 10.984375 1.515625 
L 10.984375 10.5 
Q 14.703125 8.734375 18.5 7.8125 
Q 22.3125 6.890625 25.984375 6.890625 
Q 35.75 6.890625 40.890625 13.453125 
Q 46.046875 20.015625 46.78125 33.40625 
Q 43.953125 29.203125 39.59375 26.953125 
Q 35.25 24.703125 29.984375 24.703125 
Q 19.046875 24.703125 12.671875 31.3125 
Q 6.296875 37.9375 6.296875 49.421875 
Q 6.296875 60.640625 12.9375 67.421875 
Q 19.578125 74.21875 30.609375 74.21875 
Q 43.265625 74.21875 49.921875 64.515625 
Q 56.59375 54.828125 56.59375 36.375 
Q 56.59375 19.140625 48.40625 8.859375 
Q 40.234375 -1.421875 26.421875 -1.421875 
Q 22.703125 -1.421875 18.890625 -0.6875 
Q 15.09375 0.046875 10.984375 1.515625 
z
M 30.609375 32.421875 
Q 37.25 32.421875 41.125 36.953125 
Q 45.015625 41.5 45.015625 49.421875 
Q 45.015625 57.28125 41.125 61.84375 
Q 37.25 66.40625 30.609375 66.40625 
Q 23.96875 66.40625 20.09375 61.84375 
Q 16.21875 57.28125 16.21875 49.421875 
Q 16.21875 41.5 20.09375 36.953125 
Q 23.96875 32.421875 30.609375 32.421875 
z
" id="DejaVuSans-57"/>
        <path d="M 31.78125 66.40625 
Q 24.171875 66.40625 20.328125 58.90625 
Q 16.5 51.421875 16.5 36.375 
Q 16.5 21.390625 20.328125 13.890625 
Q 24.171875 6.390625 31.78125 6.390625 
Q 39.453125 6.390625 43.28125 13.890625 
Q 47.125 21.390625 47.125 36.375 
Q 47.125 51.421875 43.28125 58.90625 
Q 39.453125 66.40625 31.78125 66.40625 
z
M 31.78125 74.21875 
Q 44.046875 74.21875 50.515625 64.515625 
Q 56.984375 54.828125 56.984375 36.375 
Q 56.984375 17.96875 50.515625 8.265625 
Q 44.046875 -1.421875 31.78125 -1.421875 
Q 19.53125 -1.421875 13.0625 8.265625 
Q 6.59375 17.96875 6.59375 36.375 
Q 6.59375 54.828125 13.0625 64.515625 
Q 19.53125 74.21875 31.78125 74.21875 
z
" id="DejaVuSans-48"/>
       </defs>
       <use xlink:href="#DejaVuSans-57"/>
       <use x="63.623047" xlink:href="#DejaVuSans-48"/>
      </g>
     </g>
    </g>
    <g id="xtick_5">
     <g id="line2d_5">
      <g>
       <use style="stroke:#000000;stroke-width:0.8;" x="590.4" xlink:href="#m6090eccba4" y="504"/>
      </g>
     </g>
     <g id="text_5">
      <!-- 92 -->
      <g transform="translate(575.13 529.23625)scale(0.24 -0.24)">
       <defs>
        <path d="M 19.1875 8.296875 
L 53.609375 8.296875 
L 53.609375 0 
L 7.328125 0 
L 7.328125 8.296875 
Q 12.9375 14.109375 22.625 23.890625 
Q 32.328125 33.6875 34.8125 36.53125 
Q 39.546875 41.84375 41.421875 45.53125 
Q 43.3125 49.21875 43.3125 52.78125 
Q 43.3125 58.59375 39.234375 62.25 
Q 35.15625 65.921875 28.609375 65.921875 
Q 23.96875 65.921875 18.8125 64.3125 
Q 13.671875 62.703125 7.8125 59.421875 
L 7.8125 69.390625 
Q 13.765625 71.78125 18.9375 73 
Q 24.125 74.21875 28.421875 74.21875 
Q 39.75 74.21875 46.484375 68.546875 
Q 53.21875 62.890625 53.21875 53.421875 
Q 53.21875 48.921875 51.53125 44.890625 
Q 49.859375 40.875 45.40625 35.40625 
Q 44.1875 33.984375 37.640625 27.21875 
Q 31.109375 20.453125 19.1875 8.296875 
z
" id="DejaVuSans-50"/>
       </defs>
       <use xlink:href="#DejaVuSans-57"/>
       <use x="63.623047" xlink:href="#DejaVuSans-50"/>
      </g>
     </g>
    </g>
    <g id="xtick_6">
     <g id="line2d_6">
      <g>
       <use style="stroke:#000000;stroke-width:0.8;" x="702" xlink:href="#m6090eccba4" y="504"/>
      </g>
     </g>
     <g id="text_6">
      <!-- 94 -->
      <g transform="translate(686.73 529.23625)scale(0.24 -0.24)">
       <use xlink:href="#DejaVuSans-57"/>
       <use x="63.623047" xlink:href="#DejaVuSans-52"/>
      </g>
     </g>
    </g>
    <g id="xtick_7">
     <g id="line2d_7">
      <g>
       <use style="stroke:#000000;stroke-width:0.8;" x="813.6" xlink:href="#m6090eccba4" y="504"/>
      </g>
     </g>
     <g id="text_7">
      <!-- 96 -->
      <g transform="translate(798.33 529.23625)scale(0.24 -0.24)">
       <use xlink:href="#DejaVuSans-57"/>
       <use x="63.623047" xlink:href="#DejaVuSans-54"/>
      </g>
     </g>
    </g>
    <g id="xtick_8">
     <g id="line2d_8">
      <g>
       <use style="stroke:#000000;stroke-width:0.8;" x="925.2" xlink:href="#m6090eccba4" y="504"/>
      </g>
     </g>
     <g id="text_8">
      <!-- 98 -->
      <g transform="translate(909.93 529.23625)scale(0.24 -0.24)">
       <use xlink:href="#DejaVuSans-57"/>
       <use x="63.623047" xlink:href="#DejaVuSans-56"/>
      </g>
     </g>
    </g>
    <g id="xtick_9">
     <g id="line2d_9">
      <g>
       <use style="stroke:#000000;stroke-width:0.8;" x="1036.8" xlink:href="#m6090eccba4" y="504"/>
      </g>
     </g>
     <g id="text_9">
      <!-- 100 -->
      <g transform="translate(1013.895 529.23625)scale(0.24 -0.24)">
       <defs>
        <path d="M 12.40625 8.296875 
L 28.515625 8.296875 
L 28.515625 63.921875 
L 10.984375 60.40625 
L 10.984375 69.390625 
L 28.421875 72.90625 
L 38.28125 72.90625 
L 38.28125 8.296875 
L 54.390625 8.296875 
L 54.390625 0 
L 12.40625 0 
z
" id="DejaVuSans-49"/>
       </defs>
       <use xlink:href="#DejaVuSans-49"/>
       <use x="63.623047" xlink:href="#DejaVuSans-48"/>
       <use x="127.246094" xlink:href="#DejaVuSans-48"/>
      </g>
     </g>
    </g>
    <g id="text_10">
     <!-- Accuracy /% -->
     <g transform="translate(504.013437 559.503125)scale(0.28 -0.28)">
      <defs>
       <path d="M 34.1875 63.1875 
L 20.796875 26.90625 
L 47.609375 26.90625 
z
M 28.609375 72.90625 
L 39.796875 72.90625 
L 67.578125 0 
L 57.328125 0 
L 50.6875 18.703125 
L 17.828125 18.703125 
L 11.1875 0 
L 0.78125 0 
z
" id="DejaVuSans-65"/>
       <path d="M 48.78125 52.59375 
L 48.78125 44.1875 
Q 44.96875 46.296875 41.140625 47.34375 
Q 37.3125 48.390625 33.40625 48.390625 
Q 24.65625 48.390625 19.8125 42.84375 
Q 14.984375 37.3125 14.984375 27.296875 
Q 14.984375 17.28125 19.8125 11.734375 
Q 24.65625 6.203125 33.40625 6.203125 
Q 37.3125 6.203125 41.140625 7.25 
Q 44.96875 8.296875 48.78125 10.40625 
L 48.78125 2.09375 
Q 45.015625 0.34375 40.984375 -0.53125 
Q 36.96875 -1.421875 32.421875 -1.421875 
Q 20.0625 -1.421875 12.78125 6.34375 
Q 5.515625 14.109375 5.515625 27.296875 
Q 5.515625 40.671875 12.859375 48.328125 
Q 20.21875 56 33.015625 56 
Q 37.15625 56 41.109375 55.140625 
Q 45.0625 54.296875 48.78125 52.59375 
z
" id="DejaVuSans-99"/>
       <path d="M 8.5 21.578125 
L 8.5 54.6875 
L 17.484375 54.6875 
L 17.484375 21.921875 
Q 17.484375 14.15625 20.5 10.265625 
Q 23.53125 6.390625 29.59375 6.390625 
Q 36.859375 6.390625 41.078125 11.03125 
Q 45.3125 15.671875 45.3125 23.6875 
L 45.3125 54.6875 
L 54.296875 54.6875 
L 54.296875 0 
L 45.3125 0 
L 45.3125 8.40625 
Q 42.046875 3.421875 37.71875 1 
Q 33.40625 -1.421875 27.6875 -1.421875 
Q 18.265625 -1.421875 13.375 4.4375 
Q 8.5 10.296875 8.5 21.578125 
z
M 31.109375 56 
z
" id="DejaVuSans-117"/>
       <path d="M 41.109375 46.296875 
Q 39.59375 47.171875 37.8125 47.578125 
Q 36.03125 48 33.890625 48 
Q 26.265625 48 22.1875 43.046875 
Q 18.109375 38.09375 18.109375 28.8125 
L 18.109375 0 
L 9.078125 0 
L 9.078125 54.6875 
L 18.109375 54.6875 
L 18.109375 46.1875 
Q 20.953125 51.171875 25.484375 53.578125 
Q 30.03125 56 36.53125 56 
Q 37.453125 56 38.578125 55.875 
Q 39.703125 55.765625 41.0625 55.515625 
z
" id="DejaVuSans-114"/>
       <path d="M 34.28125 27.484375 
Q 23.390625 27.484375 19.1875 25 
Q 14.984375 22.515625 14.984375 16.5 
Q 14.984375 11.71875 18.140625 8.90625 
Q 21.296875 6.109375 26.703125 6.109375 
Q 34.1875 6.109375 38.703125 11.40625 
Q 43.21875 16.703125 43.21875 25.484375 
L 43.21875 27.484375 
z
M 52.203125 31.203125 
L 52.203125 0 
L 43.21875 0 
L 43.21875 8.296875 
Q 40.140625 3.328125 35.546875 0.953125 
Q 30.953125 -1.421875 24.3125 -1.421875 
Q 15.921875 -1.421875 10.953125 3.296875 
Q 6 8.015625 6 15.921875 
Q 6 25.140625 12.171875 29.828125 
Q 18.359375 34.515625 30.609375 34.515625 
L 43.21875 34.515625 
L 43.21875 35.40625 
Q 43.21875 41.609375 39.140625 45 
Q 35.0625 48.390625 27.6875 48.390625 
Q 23 48.390625 18.546875 47.265625 
Q 14.109375 46.140625 10.015625 43.890625 
L 10.015625 52.203125 
Q 14.9375 54.109375 19.578125 55.046875 
Q 24.21875 56 28.609375 56 
Q 40.484375 56 46.34375 49.84375 
Q 52.203125 43.703125 52.203125 31.203125 
z
" id="DejaVuSans-97"/>
       <path d="M 32.171875 -5.078125 
Q 28.375 -14.84375 24.75 -17.8125 
Q 21.140625 -20.796875 15.09375 -20.796875 
L 7.90625 -20.796875 
L 7.90625 -13.28125 
L 13.1875 -13.28125 
Q 16.890625 -13.28125 18.9375 -11.515625 
Q 21 -9.765625 23.484375 -3.21875 
L 25.09375 0.875 
L 2.984375 54.6875 
L 12.5 54.6875 
L 29.59375 11.921875 
L 46.6875 54.6875 
L 56.203125 54.6875 
z
" id="DejaVuSans-121"/>
       <path id="DejaVuSans-32"/>
       <path d="M 25.390625 72.90625 
L 33.6875 72.90625 
L 8.296875 -9.28125 
L 0 -9.28125 
z
" id="DejaVuSans-47"/>
       <path d="M 72.703125 32.078125 
Q 68.453125 32.078125 66.03125 28.46875 
Q 63.625 24.859375 63.625 18.40625 
Q 63.625 12.0625 66.03125 8.421875 
Q 68.453125 4.78125 72.703125 4.78125 
Q 76.859375 4.78125 79.265625 8.421875 
Q 81.6875 12.0625 81.6875 18.40625 
Q 81.6875 24.8125 79.265625 28.4375 
Q 76.859375 32.078125 72.703125 32.078125 
z
M 72.703125 38.28125 
Q 80.421875 38.28125 84.953125 32.90625 
Q 89.5 27.546875 89.5 18.40625 
Q 89.5 9.28125 84.9375 3.921875 
Q 80.375 -1.421875 72.703125 -1.421875 
Q 64.890625 -1.421875 60.34375 3.921875 
Q 55.8125 9.28125 55.8125 18.40625 
Q 55.8125 27.59375 60.375 32.9375 
Q 64.9375 38.28125 72.703125 38.28125 
z
M 22.3125 68.015625 
Q 18.109375 68.015625 15.6875 64.375 
Q 13.28125 60.75 13.28125 54.390625 
Q 13.28125 47.953125 15.671875 44.328125 
Q 18.0625 40.71875 22.3125 40.71875 
Q 26.5625 40.71875 28.96875 44.328125 
Q 31.390625 47.953125 31.390625 54.390625 
Q 31.390625 60.6875 28.953125 64.34375 
Q 26.515625 68.015625 22.3125 68.015625 
z
M 66.40625 74.21875 
L 74.21875 74.21875 
L 28.609375 -1.421875 
L 20.796875 -1.421875 
z
M 22.3125 74.21875 
Q 30.03125 74.21875 34.609375 68.875 
Q 39.203125 63.53125 39.203125 54.390625 
Q 39.203125 45.171875 34.640625 39.84375 
Q 30.078125 34.515625 22.3125 34.515625 
Q 14.546875 34.515625 10.03125 39.859375 
Q 5.515625 45.21875 5.515625 54.390625 
Q 5.515625 63.484375 10.046875 68.84375 
Q 14.59375 74.21875 22.3125 74.21875 
z
" id="DejaVuSans-37"/>
      </defs>
      <use xlink:href="#DejaVuSans-65"/>
      <use x="66.658203" xlink:href="#DejaVuSans-99"/>
      <use x="121.638672" xlink:href="#DejaVuSans-99"/>
      <use x="176.619141" xlink:href="#DejaVuSans-117"/>
      <use x="239.998047" xlink:href="#DejaVuSans-114"/>
      <use x="281.111328" xlink:href="#DejaVuSans-97"/>
      <use x="342.390625" xlink:href="#DejaVuSans-99"/>
      <use x="397.371094" xlink:href="#DejaVuSans-121"/>
      <use x="456.550781" xlink:href="#DejaVuSans-32"/>
      <use x="488.337891" xlink:href="#DejaVuSans-47"/>
      <use x="522.029297" xlink:href="#DejaVuSans-37"/>
     </g>
    </g>
   </g>
   <g id="matplotlib.axis_2">
    <g id="ytick_1">
     <g id="line2d_10">
      <defs>
       <path d="M 0 0 
L -3.5 0 
" id="m3a93f50696" style="stroke:#000000;stroke-width:0.8;"/>
      </defs>
      <g>
       <use style="stroke:#000000;stroke-width:0.8;" x="144" xlink:href="#m3a93f50696" y="444.362283"/>
      </g>
     </g>
     <g id="text_11">
      <!-- $\mathdefault{10^{1}}$ -->
      <g transform="translate(94.76 453.480408)scale(0.24 -0.24)">
       <use transform="translate(0 0.684375)" xlink:href="#DejaVuSans-49"/>
       <use transform="translate(63.623047 0.684375)" xlink:href="#DejaVuSans-48"/>
       <use transform="translate(128.203125 38.965625)scale(0.7)" xlink:href="#DejaVuSans-49"/>
      </g>
     </g>
    </g>
    <g id="ytick_2">
     <g id="line2d_11">
      <g>
       <use style="stroke:#000000;stroke-width:0.8;" x="144" xlink:href="#m3a93f50696" y="359.04"/>
      </g>
     </g>
     <g id="text_12">
      <!-- $\mathdefault{10^{2}}$ -->
      <g transform="translate(94.76 368.158125)scale(0.24 -0.24)">
       <use transform="translate(0 0.765625)" xlink:href="#DejaVuSans-49"/>
       <use transform="translate(63.623047 0.765625)" xlink:href="#DejaVuSans-48"/>
       <use transform="translate(128.203125 39.046875)scale(0.7)" xlink:href="#DejaVuSans-50"/>
      </g>
     </g>
    </g>
    <g id="ytick_3">
     <g id="line2d_12">
      <g>
       <use style="stroke:#000000;stroke-width:0.8;" x="144" xlink:href="#m3a93f50696" y="273.717717"/>
      </g>
     </g>
     <g id="text_13">
      <!-- $\mathdefault{10^{3}}$ -->
      <g transform="translate(94.76 282.835842)scale(0.24 -0.24)">
       <defs>
        <path d="M 40.578125 39.3125 
Q 47.65625 37.796875 51.625 33 
Q 55.609375 28.21875 55.609375 21.1875 
Q 55.609375 10.40625 48.1875 4.484375 
Q 40.765625 -1.421875 27.09375 -1.421875 
Q 22.515625 -1.421875 17.65625 -0.515625 
Q 12.796875 0.390625 7.625 2.203125 
L 7.625 11.71875 
Q 11.71875 9.328125 16.59375 8.109375 
Q 21.484375 6.890625 26.8125 6.890625 
Q 36.078125 6.890625 40.9375 10.546875 
Q 45.796875 14.203125 45.796875 21.1875 
Q 45.796875 27.640625 41.28125 31.265625 
Q 36.765625 34.90625 28.71875 34.90625 
L 20.21875 34.90625 
L 20.21875 43.015625 
L 29.109375 43.015625 
Q 36.375 43.015625 40.234375 45.921875 
Q 44.09375 48.828125 44.09375 54.296875 
Q 44.09375 59.90625 40.109375 62.90625 
Q 36.140625 65.921875 28.71875 65.921875 
Q 24.65625 65.921875 20.015625 65.03125 
Q 15.375 64.15625 9.8125 62.3125 
L 9.8125 71.09375 
Q 15.4375 72.65625 20.34375 73.4375 
Q 25.25 74.21875 29.59375 74.21875 
Q 40.828125 74.21875 47.359375 69.109375 
Q 53.90625 64.015625 53.90625 55.328125 
Q 53.90625 49.265625 50.4375 45.09375 
Q 46.96875 40.921875 40.578125 39.3125 
z
" id="DejaVuSans-51"/>
       </defs>
       <use transform="translate(0 0.765625)" xlink:href="#DejaVuSans-49"/>
       <use transform="translate(63.623047 0.765625)" xlink:href="#DejaVuSans-48"/>
       <use transform="translate(128.203125 39.046875)scale(0.7)" xlink:href="#DejaVuSans-51"/>
      </g>
     </g>
    </g>
    <g id="ytick_4">
     <g id="line2d_13">
      <g>
       <use style="stroke:#000000;stroke-width:0.8;" x="144" xlink:href="#m3a93f50696" y="188.395433"/>
      </g>
     </g>
     <g id="text_14">
      <!-- $\mathdefault{10^{4}}$ -->
      <g transform="translate(94.76 197.513558)scale(0.24 -0.24)">
       <use transform="translate(0 0.684375)" xlink:href="#DejaVuSans-49"/>
       <use transform="translate(63.623047 0.684375)" xlink:href="#DejaVuSans-48"/>
       <use transform="translate(128.203125 38.965625)scale(0.7)" xlink:href="#DejaVuSans-52"/>
      </g>
     </g>
    </g>
    <g id="ytick_5">
     <g id="line2d_14">
      <g>
       <use style="stroke:#000000;stroke-width:0.8;" x="144" xlink:href="#m3a93f50696" y="103.07315"/>
      </g>
     </g>
     <g id="text_15">
      <!-- $\mathdefault{10^{5}}$ -->
      <g transform="translate(94.76 112.191275)scale(0.24 -0.24)">
       <defs>
        <path d="M 10.796875 72.90625 
L 49.515625 72.90625 
L 49.515625 64.59375 
L 19.828125 64.59375 
L 19.828125 46.734375 
Q 21.96875 47.46875 24.109375 47.828125 
Q 26.265625 48.1875 28.421875 48.1875 
Q 40.625 48.1875 47.75 41.5 
Q 54.890625 34.8125 54.890625 23.390625 
Q 54.890625 11.625 47.5625 5.09375 
Q 40.234375 -1.421875 26.90625 -1.421875 
Q 22.3125 -1.421875 17.546875 -0.640625 
Q 12.796875 0.140625 7.71875 1.703125 
L 7.71875 11.625 
Q 12.109375 9.234375 16.796875 8.0625 
Q 21.484375 6.890625 26.703125 6.890625 
Q 35.15625 6.890625 40.078125 11.328125 
Q 45.015625 15.765625 45.015625 23.390625 
Q 45.015625 31 40.078125 35.4375 
Q 35.15625 39.890625 26.703125 39.890625 
Q 22.75 39.890625 18.8125 39.015625 
Q 14.890625 38.140625 10.796875 36.28125 
z
" id="DejaVuSans-53"/>
       </defs>
       <use transform="translate(0 0.684375)" xlink:href="#DejaVuSans-49"/>
       <use transform="translate(63.623047 0.684375)" xlink:href="#DejaVuSans-48"/>
       <use transform="translate(128.203125 38.965625)scale(0.7)" xlink:href="#DejaVuSans-53"/>
      </g>
     </g>
    </g>
    <g id="ytick_6">
     <g id="line2d_15">
      <defs>
       <path d="M 0 0 
L -2 0 
" id="m6e20651ae8" style="stroke:#000000;stroke-width:0.6;"/>
      </defs>
      <g>
       <use style="stroke:#000000;stroke-width:0.6;" x="144" xlink:href="#m6e20651ae8" y="504"/>
      </g>
     </g>
    </g>
    <g id="ytick_7">
     <g id="line2d_16">
      <g>
       <use style="stroke:#000000;stroke-width:0.6;" x="144" xlink:href="#m6e20651ae8" y="488.975492"/>
      </g>
     </g>
    </g>
    <g id="ytick_8">
     <g id="line2d_17">
      <g>
       <use style="stroke:#000000;stroke-width:0.6;" x="144" xlink:href="#m6e20651ae8" y="478.315433"/>
      </g>
     </g>
    </g>
    <g id="ytick_9">
     <g id="line2d_18">
      <g>
       <use style="stroke:#000000;stroke-width:0.6;" x="144" xlink:href="#m6e20651ae8" y="470.04685"/>
      </g>
     </g>
    </g>
    <g id="ytick_10">
     <g id="line2d_19">
      <g>
       <use style="stroke:#000000;stroke-width:0.6;" x="144" xlink:href="#m6e20651ae8" y="463.290925"/>
      </g>
     </g>
    </g>
    <g id="ytick_11">
     <g id="line2d_20">
      <g>
       <use style="stroke:#000000;stroke-width:0.6;" x="144" xlink:href="#m6e20651ae8" y="457.578872"/>
      </g>
     </g>
    </g>
    <g id="ytick_12">
     <g id="line2d_21">
      <g>
       <use style="stroke:#000000;stroke-width:0.6;" x="144" xlink:href="#m6e20651ae8" y="452.630867"/>
      </g>
     </g>
    </g>
    <g id="ytick_13">
     <g id="line2d_22">
      <g>
       <use style="stroke:#000000;stroke-width:0.6;" x="144" xlink:href="#m6e20651ae8" y="448.266417"/>
      </g>
     </g>
    </g>
    <g id="ytick_14">
     <g id="line2d_23">
      <g>
       <use style="stroke:#000000;stroke-width:0.6;" x="144" xlink:href="#m6e20651ae8" y="418.677717"/>
      </g>
     </g>
    </g>
    <g id="ytick_15">
     <g id="line2d_24">
      <g>
       <use style="stroke:#000000;stroke-width:0.6;" x="144" xlink:href="#m6e20651ae8" y="403.653208"/>
      </g>
     </g>
    </g>
    <g id="ytick_16">
     <g id="line2d_25">
      <g>
       <use style="stroke:#000000;stroke-width:0.6;" x="144" xlink:href="#m6e20651ae8" y="392.99315"/>
      </g>
     </g>
    </g>
    <g id="ytick_17">
     <g id="line2d_26">
      <g>
       <use style="stroke:#000000;stroke-width:0.6;" x="144" xlink:href="#m6e20651ae8" y="384.724567"/>
      </g>
     </g>
    </g>
    <g id="ytick_18">
     <g id="line2d_27">
      <g>
       <use style="stroke:#000000;stroke-width:0.6;" x="144" xlink:href="#m6e20651ae8" y="377.968642"/>
      </g>
     </g>
    </g>
    <g id="ytick_19">
     <g id="line2d_28">
      <g>
       <use style="stroke:#000000;stroke-width:0.6;" x="144" xlink:href="#m6e20651ae8" y="372.256589"/>
      </g>
     </g>
    </g>
    <g id="ytick_20">
     <g id="line2d_29">
      <g>
       <use style="stroke:#000000;stroke-width:0.6;" x="144" xlink:href="#m6e20651ae8" y="367.308584"/>
      </g>
     </g>
    </g>
    <g id="ytick_21">
     <g id="line2d_30">
      <g>
       <use style="stroke:#000000;stroke-width:0.6;" x="144" xlink:href="#m6e20651ae8" y="362.944134"/>
      </g>
     </g>
    </g>
    <g id="ytick_22">
     <g id="line2d_31">
      <g>
       <use style="stroke:#000000;stroke-width:0.6;" x="144" xlink:href="#m6e20651ae8" y="333.355433"/>
      </g>
     </g>
    </g>
    <g id="ytick_23">
     <g id="line2d_32">
      <g>
       <use style="stroke:#000000;stroke-width:0.6;" x="144" xlink:href="#m6e20651ae8" y="318.330925"/>
      </g>
     </g>
    </g>
    <g id="ytick_24">
     <g id="line2d_33">
      <g>
       <use style="stroke:#000000;stroke-width:0.6;" x="144" xlink:href="#m6e20651ae8" y="307.670867"/>
      </g>
     </g>
    </g>
    <g id="ytick_25">
     <g id="line2d_34">
      <g>
       <use style="stroke:#000000;stroke-width:0.6;" x="144" xlink:href="#m6e20651ae8" y="299.402283"/>
      </g>
     </g>
    </g>
    <g id="ytick_26">
     <g id="line2d_35">
      <g>
       <use style="stroke:#000000;stroke-width:0.6;" x="144" xlink:href="#m6e20651ae8" y="292.646359"/>
      </g>
     </g>
    </g>
    <g id="ytick_27">
     <g id="line2d_36">
      <g>
       <use style="stroke:#000000;stroke-width:0.6;" x="144" xlink:href="#m6e20651ae8" y="286.934306"/>
      </g>
     </g>
    </g>
    <g id="ytick_28">
     <g id="line2d_37">
      <g>
       <use style="stroke:#000000;stroke-width:0.6;" x="144" xlink:href="#m6e20651ae8" y="281.9863"/>
      </g>
     </g>
    </g>
    <g id="ytick_29">
     <g id="line2d_38">
      <g>
       <use style="stroke:#000000;stroke-width:0.6;" x="144" xlink:href="#m6e20651ae8" y="277.62185"/>
      </g>
     </g>
    </g>
    <g id="ytick_30">
     <g id="line2d_39">
      <g>
       <use style="stroke:#000000;stroke-width:0.6;" x="144" xlink:href="#m6e20651ae8" y="248.03315"/>
      </g>
     </g>
    </g>
    <g id="ytick_31">
     <g id="line2d_40">
      <g>
       <use style="stroke:#000000;stroke-width:0.6;" x="144" xlink:href="#m6e20651ae8" y="233.008642"/>
      </g>
     </g>
    </g>
    <g id="ytick_32">
     <g id="line2d_41">
      <g>
       <use style="stroke:#000000;stroke-width:0.6;" x="144" xlink:href="#m6e20651ae8" y="222.348584"/>
      </g>
     </g>
    </g>
    <g id="ytick_33">
     <g id="line2d_42">
      <g>
       <use style="stroke:#000000;stroke-width:0.6;" x="144" xlink:href="#m6e20651ae8" y="214.08"/>
      </g>
     </g>
    </g>
    <g id="ytick_34">
     <g id="line2d_43">
      <g>
       <use style="stroke:#000000;stroke-width:0.6;" x="144" xlink:href="#m6e20651ae8" y="207.324075"/>
      </g>
     </g>
    </g>
    <g id="ytick_35">
     <g id="line2d_44">
      <g>
       <use style="stroke:#000000;stroke-width:0.6;" x="144" xlink:href="#m6e20651ae8" y="201.612022"/>
      </g>
     </g>
    </g>
    <g id="ytick_36">
     <g id="line2d_45">
      <g>
       <use style="stroke:#000000;stroke-width:0.6;" x="144" xlink:href="#m6e20651ae8" y="196.664017"/>
      </g>
     </g>
    </g>
    <g id="ytick_37">
     <g id="line2d_46">
      <g>
       <use style="stroke:#000000;stroke-width:0.6;" x="144" xlink:href="#m6e20651ae8" y="192.299567"/>
      </g>
     </g>
    </g>
    <g id="ytick_38">
     <g id="line2d_47">
      <g>
       <use style="stroke:#000000;stroke-width:0.6;" x="144" xlink:href="#m6e20651ae8" y="162.710867"/>
      </g>
     </g>
    </g>
    <g id="ytick_39">
     <g id="line2d_48">
      <g>
       <use style="stroke:#000000;stroke-width:0.6;" x="144" xlink:href="#m6e20651ae8" y="147.686359"/>
      </g>
     </g>
    </g>
    <g id="ytick_40">
     <g id="line2d_49">
      <g>
       <use style="stroke:#000000;stroke-width:0.6;" x="144" xlink:href="#m6e20651ae8" y="137.0263"/>
      </g>
     </g>
    </g>
    <g id="ytick_41">
     <g id="line2d_50">
      <g>
       <use style="stroke:#000000;stroke-width:0.6;" x="144" xlink:href="#m6e20651ae8" y="128.757717"/>
      </g>
     </g>
    </g>
    <g id="ytick_42">
     <g id="line2d_51">
      <g>
       <use style="stroke:#000000;stroke-width:0.6;" x="144" xlink:href="#m6e20651ae8" y="122.001792"/>
      </g>
     </g>
    </g>
    <g id="ytick_43">
     <g id="line2d_52">
      <g>
       <use style="stroke:#000000;stroke-width:0.6;" x="144" xlink:href="#m6e20651ae8" y="116.289739"/>
      </g>
     </g>
    </g>
    <g id="ytick_44">
     <g id="line2d_53">
      <g>
       <use style="stroke:#000000;stroke-width:0.6;" x="144" xlink:href="#m6e20651ae8" y="111.341734"/>
      </g>
     </g>
    </g>
    <g id="ytick_45">
     <g id="line2d_54">
      <g>
       <use style="stroke:#000000;stroke-width:0.6;" x="144" xlink:href="#m6e20651ae8" y="106.977284"/>
      </g>
     </g>
    </g>
    <g id="ytick_46">
     <g id="line2d_55">
      <g>
       <use style="stroke:#000000;stroke-width:0.6;" x="144" xlink:href="#m6e20651ae8" y="77.388584"/>
      </g>
     </g>
    </g>
    <g id="text_16">
     <!-- Energy /A.U. -->
     <g transform="translate(84.936875 373.22)rotate(-90)scale(0.28 -0.28)">
      <defs>
       <path d="M 9.8125 72.90625 
L 55.90625 72.90625 
L 55.90625 64.59375 
L 19.671875 64.59375 
L 19.671875 43.015625 
L 54.390625 43.015625 
L 54.390625 34.71875 
L 19.671875 34.71875 
L 19.671875 8.296875 
L 56.78125 8.296875 
L 56.78125 0 
L 9.8125 0 
z
" id="DejaVuSans-69"/>
       <path d="M 54.890625 33.015625 
L 54.890625 0 
L 45.90625 0 
L 45.90625 32.71875 
Q 45.90625 40.484375 42.875 44.328125 
Q 39.84375 48.1875 33.796875 48.1875 
Q 26.515625 48.1875 22.3125 43.546875 
Q 18.109375 38.921875 18.109375 30.90625 
L 18.109375 0 
L 9.078125 0 
L 9.078125 54.6875 
L 18.109375 54.6875 
L 18.109375 46.1875 
Q 21.34375 51.125 25.703125 53.5625 
Q 30.078125 56 35.796875 56 
Q 45.21875 56 50.046875 50.171875 
Q 54.890625 44.34375 54.890625 33.015625 
z
" id="DejaVuSans-110"/>
       <path d="M 56.203125 29.59375 
L 56.203125 25.203125 
L 14.890625 25.203125 
Q 15.484375 15.921875 20.484375 11.0625 
Q 25.484375 6.203125 34.421875 6.203125 
Q 39.59375 6.203125 44.453125 7.46875 
Q 49.3125 8.734375 54.109375 11.28125 
L 54.109375 2.78125 
Q 49.265625 0.734375 44.1875 -0.34375 
Q 39.109375 -1.421875 33.890625 -1.421875 
Q 20.796875 -1.421875 13.15625 6.1875 
Q 5.515625 13.8125 5.515625 26.8125 
Q 5.515625 40.234375 12.765625 48.109375 
Q 20.015625 56 32.328125 56 
Q 43.359375 56 49.78125 48.890625 
Q 56.203125 41.796875 56.203125 29.59375 
z
M 47.21875 32.234375 
Q 47.125 39.59375 43.09375 43.984375 
Q 39.0625 48.390625 32.421875 48.390625 
Q 24.90625 48.390625 20.390625 44.140625 
Q 15.875 39.890625 15.1875 32.171875 
z
" id="DejaVuSans-101"/>
       <path d="M 45.40625 27.984375 
Q 45.40625 37.75 41.375 43.109375 
Q 37.359375 48.484375 30.078125 48.484375 
Q 22.859375 48.484375 18.828125 43.109375 
Q 14.796875 37.75 14.796875 27.984375 
Q 14.796875 18.265625 18.828125 12.890625 
Q 22.859375 7.515625 30.078125 7.515625 
Q 37.359375 7.515625 41.375 12.890625 
Q 45.40625 18.265625 45.40625 27.984375 
z
M 54.390625 6.78125 
Q 54.390625 -7.171875 48.1875 -13.984375 
Q 42 -20.796875 29.203125 -20.796875 
Q 24.46875 -20.796875 20.265625 -20.09375 
Q 16.0625 -19.390625 12.109375 -17.921875 
L 12.109375 -9.1875 
Q 16.0625 -11.328125 19.921875 -12.34375 
Q 23.78125 -13.375 27.78125 -13.375 
Q 36.625 -13.375 41.015625 -8.765625 
Q 45.40625 -4.15625 45.40625 5.171875 
L 45.40625 9.625 
Q 42.625 4.78125 38.28125 2.390625 
Q 33.9375 0 27.875 0 
Q 17.828125 0 11.671875 7.65625 
Q 5.515625 15.328125 5.515625 27.984375 
Q 5.515625 40.671875 11.671875 48.328125 
Q 17.828125 56 27.875 56 
Q 33.9375 56 38.28125 53.609375 
Q 42.625 51.21875 45.40625 46.390625 
L 45.40625 54.6875 
L 54.390625 54.6875 
z
" id="DejaVuSans-103"/>
       <path d="M 10.6875 12.40625 
L 21 12.40625 
L 21 0 
L 10.6875 0 
z
" id="DejaVuSans-46"/>
       <path d="M 8.6875 72.90625 
L 18.609375 72.90625 
L 18.609375 28.609375 
Q 18.609375 16.890625 22.84375 11.734375 
Q 27.09375 6.59375 36.625 6.59375 
Q 46.09375 6.59375 50.34375 11.734375 
Q 54.59375 16.890625 54.59375 28.609375 
L 54.59375 72.90625 
L 64.5 72.90625 
L 64.5 27.390625 
Q 64.5 13.140625 57.4375 5.859375 
Q 50.390625 -1.421875 36.625 -1.421875 
Q 22.796875 -1.421875 15.734375 5.859375 
Q 8.6875 13.140625 8.6875 27.390625 
z
" id="DejaVuSans-85"/>
      </defs>
      <use xlink:href="#DejaVuSans-69"/>
      <use x="63.183594" xlink:href="#DejaVuSans-110"/>
      <use x="126.5625" xlink:href="#DejaVuSans-101"/>
      <use x="188.085938" xlink:href="#DejaVuSans-114"/>
      <use x="227.449219" xlink:href="#DejaVuSans-103"/>
      <use x="290.925781" xlink:href="#DejaVuSans-121"/>
      <use x="350.105469" xlink:href="#DejaVuSans-32"/>
      <use x="381.892578" xlink:href="#DejaVuSans-47"/>
      <use x="415.583984" xlink:href="#DejaVuSans-65"/>
      <use x="482.242188" xlink:href="#DejaVuSans-46"/>
      <use x="514.029297" xlink:href="#DejaVuSans-85"/>
      <use x="587.222656" xlink:href="#DejaVuSans-46"/>
     </g>
    </g>
   </g>
   <g id="line2d_56">
    <path clip-path="url(#p68fbe4cc62)" d="M 82.62 254.697012 
L 333.72 232.137981 
L 393.984 219.562737 
L 450.342 211.068861 
L 486.054 204.464873 
L 490.518 199.189141 
L 498.33 194.861509 
L 540.18 190.926075 
L 553.572 187.399949 
L 581.472 184.318915 
L 588.726 181.566287 
L 577.008 178.992361 
L 608.814 176.733235 
L 611.046 174.48694 
L 587.052 172.466773 
L 626.67 170.524413 
L 623.322 168.841502 
L 642.294 167.139453 
L 654.57 165.579702 
L 646.758 164.155904 
L 613.836 162.791553 
L 665.172 161.363449 
L 675.216 160.041446 
L 685.818 158.830966 
L 662.94 157.705757 
L 677.448 156.598619 
L 685.818 155.474758 
L 696.978 154.496674 
L 686.376 153.517392 
L 692.514 152.57197 
L 689.724 151.625936 
L 704.232 150.665531 
L 711.486 149.802399 
L 706.464 148.969102 
L 722.088 148.118908 
L 716.508 147.372191 
L 722.088 146.612697 
L 708.138 145.904592 
L 740.502 144.464127 
L 751.104 143.781699 
L 736.038 143.118082 
L 742.176 142.431833 
L 749.988 141.783649 
L 739.386 141.165966 
L 753.336 140.591827 
L 756.684 139.994282 
L 755.568 139.412494 
L 763.938 138.863914 
L 763.38 138.308731 
L 756.684 137.77582 
L 772.308 136.702765 
L 765.612 136.209502 
L 767.286 135.718943 
L 778.446 135.276147 
L 774.54 134.765442 
L 782.91 133.811176 
L 789.048 133.357737 
L 775.098 132.934769 
L 787.932 132.489828 
L 783.468 132.064851 
L 785.142 131.649058 
L 784.584 131.240496 
L 791.838 130.849422 
L 795.186 130.426969 
L 786.816 130.03026 
L 790.164 129.647031 
L 787.932 129.255592 
L 800.766 128.877874 
L 805.23 128.499316 
L 800.208 128.132958 
L 800.208 127.78895 
L 809.136 127.436469 
L 800.208 127.119502 
L 809.136 126.77879 
L 806.346 126.414746 
L 815.274 126.082038 
L 808.02 125.758115 
L 813.6 125.414541 
L 816.39 125.08308 
L 808.02 124.762195 
L 815.832 124.439774 
L 819.738 124.131134 
L 818.622 123.818738 
L 824.202 123.507891 
L 817.506 123.207437 
L 821.412 122.919149 
L 820.296 122.630979 
L 824.202 122.343534 
L 823.086 122.042566 
L 824.76 121.746781 
L 821.412 121.469961 
L 825.876 121.199753 
L 830.34 120.709413 
L 829.782 120.458113 
L 828.666 120.201163 
L 832.014 119.923326 
L 830.34 119.658416 
L 824.76 119.40866 
L 828.666 119.145071 
L 840.942 118.89239 
L 835.362 118.642856 
L 833.688 118.395973 
L 838.71 118.153676 
L 832.014 117.9064 
L 839.826 117.662306 
L 833.13 117.445621 
L 836.478 117.224335 
L 846.522 116.986487 
L 839.268 116.762454 
L 837.036 116.525309 
L 852.66 116.065819 
L 845.964 115.859517 
L 850.986 115.620715 
L 851.544 115.408637 
L 850.986 115.198146 
L 845.964 114.993994 
L 849.87 114.78379 
L 844.29 114.59214 
L 844.29 114.386381 
L 843.732 114.193849 
L 849.87 113.991404 
L 847.638 113.791024 
L 848.196 113.585247 
L 839.826 113.369299 
L 853.218 112.962814 
L 853.776 112.770511 
L 852.102 112.590975 
L 857.124 112.393824 
L 850.986 112.023999 
L 846.522 111.842883 
L 856.008 111.661153 
L 841.5 111.473895 
L 859.356 111.302455 
L 850.986 111.117555 
L 856.008 110.74595 
L 864.936 110.565254 
L 861.588 110.395453 
L 855.45 110.230735 
L 861.03 110.049522 
L 861.588 109.88809 
L 861.588 109.711266 
L 858.798 109.537366 
L 866.052 109.359311 
L 864.936 109.206575 
L 862.704 109.043972 
L 871.074 108.8791 
L 858.798 108.713063 
L 862.146 108.548318 
L 858.798 108.394584 
L 861.588 108.229089 
L 867.168 108.064043 
L 867.168 107.903548 
L 866.052 107.762712 
L 866.052 107.615974 
L 862.146 107.460899 
L 866.052 107.300825 
L 858.798 107.149946 
L 867.726 106.990345 
L 864.936 106.84344 
L 873.864 106.556896 
L 867.168 106.419215 
L 870.516 106.276103 
L 865.494 106.125605 
L 872.748 105.993135 
L 873.306 105.846421 
L 871.074 105.707827 
L 872.19 105.559969 
L 862.146 105.427172 
L 869.958 105.132741 
L 871.632 104.989565 
L 874.98 104.861792 
L 869.4 104.724737 
L 873.864 104.592192 
L 872.19 104.450507 
L 876.096 104.328364 
L 872.19 104.199448 
L 859.914 104.063243 
L 873.306 103.924552 
L 870.516 103.789537 
L 872.19 103.538019 
L 867.168 103.398912 
L 882.792 103.278695 
L 872.748 103.15045 
L 874.422 103.027942 
L 874.422 102.90775 
L 872.19 102.778917 
L 867.168 102.651965 
L 872.19 102.535496 
L 865.494 102.416212 
L 877.212 102.15799 
L 868.284 102.036034 
L 877.77 101.793262 
L 872.748 101.683809 
L 873.306 101.577669 
L 876.096 101.450272 
L 867.726 101.339651 
L 878.886 101.231624 
L 872.748 101.117912 
L 873.864 100.997245 
L 877.212 100.772457 
L 876.096 100.643722 
L 877.77 100.525813 
L 883.908 100.406818 
L 881.118 100.183154 
L 880.56 100.077886 
L 873.306 99.973524 
L 880.56 99.859739 
L 877.212 99.7573 
L 877.77 99.651429 
L 885.024 99.543158 
L 880.56 99.426929 
L 870.516 99.32204 
L 874.98 99.221991 
L 872.748 99.126468 
L 874.422 99.026191 
L 887.256 98.820277 
L 877.212 98.728287 
L 881.118 98.524955 
L 876.654 98.425166 
L 885.024 98.203191 
L 874.98 98.098353 
L 885.582 97.894879 
L 880.56 97.792133 
L 882.792 97.700076 
L 873.864 97.602478 
L 884.466 97.507051 
L 869.958 97.308842 
L 885.582 97.217628 
L 877.77 97.119126 
L 878.328 97.023499 
L 874.98 96.934169 
L 885.024 96.832225 
L 876.654 96.570402 
L 880.002 96.47686 
L 877.212 96.288662 
L 878.886 96.106736 
L 878.328 96.009873 
L 872.19 95.912109 
L 875.538 95.816921 
L 885.582 95.730939 
L 876.654 95.646967 
L 888.93 95.560477 
L 884.466 95.380624 
L 885.024 95.285112 
L 879.444 95.201827 
L 883.908 95.117597 
L 871.074 94.944615 
L 885.024 94.8564 
L 881.676 94.771361 
L 890.046 94.686328 
L 877.77 94.531063 
L 886.14 94.29613 
L 870.516 94.122538 
L 888.372 94.037257 
L 886.698 93.946123 
L 888.93 93.862244 
L 878.328 93.685754 
L 890.046 93.608408 
L 888.93 93.529356 
L 885.582 93.444044 
L 888.93 93.366141 
L 884.466 93.202649 
L 889.488 93.121698 
L 875.538 92.891402 
L 880.002 92.805561 
L 884.466 92.663477 
L 880.56 92.588268 
L 886.14 92.516296 
L 885.024 92.434223 
L 889.488 92.276699 
L 883.908 92.204306 
L 892.278 92.122453 
L 890.046 92.045179 
L 879.444 91.972822 
L 883.35 91.902465 
L 891.162 91.75126 
L 884.466 91.606705 
L 883.908 91.53892 
L 889.488 91.399645 
L 886.14 91.329014 
L 890.604 91.253611 
L 887.256 91.111229 
L 888.372 91.028344 
L 881.676 90.956823 
L 885.024 90.89246 
L 886.698 90.823034 
L 879.444 90.682882 
L 883.908 90.480756 
L 880.002 90.406264 
L 881.676 90.333435 
L 890.046 90.189745 
L 883.908 90.11793 
L 891.162 89.988949 
L 881.118 89.866512 
L 888.93 89.729727 
L 877.212 89.651085 
L 882.234 89.583629 
L 880.002 89.521749 
L 890.046 89.318306 
L 890.046 89.250478 
L 890.604 89.180275 
L 883.908 89.05952 
L 892.836 88.995345 
L 878.886 88.929793 
L 888.93 88.868787 
L 885.024 88.807546 
L 888.93 88.739093 
L 880.002 88.676106 
L 884.466 88.609066 
" style="fill:none;stroke:#1f1f1f;stroke-linecap:square;stroke-width:5;"/>
   </g>
   <g id="line2d_57">
    <path clip-path="url(#p68fbe4cc62)" d="M 82.62 516.811364 
L 333.72 483.406746 
L 393.984 463.445456 
L 450.342 449.256701 
L 486.054 438.365449 
L 490.518 429.516927 
L 498.33 422.030843 
L 540.18 415.516713 
L 553.572 409.828064 
L 581.472 404.729951 
L 588.726 400.098549 
L 577.008 395.861005 
L 608.814 391.98251 
L 611.046 388.357399 
L 587.052 384.968186 
L 626.67 381.857559 
L 623.322 378.930835 
L 642.294 376.164 
L 654.57 373.542777 
L 646.758 371.063877 
L 613.836 368.703552 
L 665.172 366.473626 
L 675.216 364.339177 
L 685.818 362.305941 
L 662.94 360.362332 
L 677.448 358.491301 
L 685.818 356.695441 
L 696.978 354.97191 
L 686.376 353.330995 
L 692.514 351.728606 
L 689.724 350.177471 
L 704.232 348.700791 
L 711.486 347.263163 
L 706.464 345.885851 
L 722.088 344.542582 
L 716.508 343.235275 
L 722.088 341.966899 
L 708.138 340.73666 
L 740.502 338.383886 
L 751.104 337.255226 
L 736.038 336.163525 
L 742.176 335.092825 
L 749.988 334.05757 
L 739.386 333.033329 
L 753.336 332.038506 
L 756.684 331.069036 
L 755.568 330.130682 
L 763.938 329.214434 
L 763.38 328.321383 
L 756.684 327.446958 
L 765.612 326.586897 
L 772.308 325.748836 
L 765.612 324.922347 
L 767.286 324.110024 
L 778.446 323.310203 
L 774.54 322.531856 
L 778.446 321.772446 
L 782.91 321.037297 
L 789.048 320.309067 
L 775.098 319.590448 
L 787.932 318.878402 
L 783.468 318.178778 
L 785.142 317.494895 
L 784.584 316.823193 
L 791.838 316.164095 
L 795.186 315.516906 
L 786.816 314.88325 
L 790.164 314.260896 
L 787.932 313.64996 
L 800.766 313.048664 
L 805.23 312.454402 
L 800.208 311.868079 
L 800.208 311.287971 
L 809.136 310.714137 
L 800.208 310.144735 
L 809.136 309.587227 
L 806.346 309.041007 
L 815.274 308.50237 
L 808.02 307.968115 
L 813.6 307.445521 
L 816.39 306.925486 
L 808.02 306.413622 
L 815.832 305.908906 
L 819.738 305.410931 
L 818.622 304.918185 
L 824.202 304.432442 
L 817.506 303.950783 
L 821.412 303.473348 
L 820.296 302.999875 
L 824.202 302.529625 
L 823.086 302.065572 
L 824.76 301.606922 
L 821.412 301.157367 
L 825.876 300.707289 
L 830.34 299.823738 
L 829.782 299.388882 
L 828.666 298.958543 
L 832.014 298.536395 
L 830.34 298.116029 
L 824.76 297.698476 
L 828.666 297.286201 
L 840.942 296.878057 
L 835.362 296.471454 
L 833.688 296.065411 
L 838.71 295.66335 
L 832.014 295.267132 
L 839.826 294.87218 
L 833.13 294.482524 
L 836.478 294.094654 
L 846.522 293.710741 
L 839.268 293.328008 
L 837.036 292.947364 
L 852.66 292.202528 
L 845.964 291.832656 
L 850.986 291.466682 
L 851.544 291.099654 
L 850.986 290.737784 
L 845.964 290.376695 
L 849.87 290.018888 
L 844.29 289.662454 
L 844.29 289.30642 
L 843.732 288.95793 
L 849.87 288.612951 
L 847.638 288.268175 
L 848.196 287.927875 
L 839.826 287.588794 
L 848.196 287.251868 
L 853.218 286.919815 
L 853.776 286.588387 
L 852.102 286.25908 
L 857.124 285.932895 
L 850.986 285.285937 
L 846.522 284.965784 
L 856.008 284.648545 
L 841.5 284.333688 
L 859.356 284.020399 
L 850.986 283.708526 
L 856.008 283.088173 
L 864.936 282.779312 
L 861.588 282.472775 
L 855.45 282.167675 
L 861.03 281.86512 
L 861.588 281.564186 
L 861.588 281.264497 
L 858.798 280.967084 
L 866.052 280.6716 
L 864.936 280.37694 
L 862.704 280.084887 
L 871.074 279.794654 
L 858.798 279.506665 
L 862.146 279.220756 
L 858.798 278.937144 
L 861.588 278.655315 
L 867.168 278.37557 
L 867.168 278.098528 
L 866.052 277.823322 
L 866.052 277.549596 
L 862.146 277.275988 
L 866.052 277.002616 
L 858.798 276.731248 
L 867.726 276.463164 
L 864.936 276.194671 
L 872.19 275.926953 
L 873.864 275.660889 
L 867.168 275.395692 
L 870.516 275.132061 
L 865.494 274.868942 
L 872.748 274.608952 
L 873.306 274.350819 
L 871.074 274.093611 
L 872.19 273.836373 
L 862.146 273.580922 
L 869.958 273.077274 
L 871.632 272.826928 
L 874.98 272.578045 
L 869.4 272.32997 
L 873.864 272.08284 
L 872.19 271.837057 
L 876.096 271.59244 
L 872.19 271.349112 
L 859.914 271.106807 
L 873.306 270.865488 
L 870.516 270.625868 
L 871.632 270.38747 
L 872.19 270.151102 
L 867.168 269.916139 
L 882.792 269.679857 
L 872.748 269.444808 
L 874.422 269.212363 
L 874.422 268.981581 
L 872.19 268.751471 
L 867.168 268.524079 
L 872.19 268.295906 
L 865.494 268.070089 
L 874.98 267.845365 
L 877.212 267.62283 
L 868.284 267.400301 
L 877.77 266.956108 
L 872.748 266.735326 
L 873.306 266.516411 
L 876.096 266.297527 
L 867.726 266.079558 
L 878.886 265.86294 
L 872.748 265.647296 
L 873.864 265.432778 
L 877.212 265.218783 
L 877.212 265.006161 
L 876.096 264.793578 
L 877.77 264.582623 
L 883.908 264.372605 
L 881.118 264.164043 
L 881.118 263.955417 
L 880.56 263.74669 
L 873.306 263.538882 
L 880.56 263.331485 
L 877.212 263.125527 
L 877.77 262.919322 
L 885.024 262.715524 
L 880.56 262.511359 
L 870.516 262.307999 
L 874.98 262.105377 
L 872.748 261.904839 
L 874.422 261.704812 
L 887.256 261.307049 
L 877.212 261.10905 
L 881.118 260.911854 
L 881.118 260.715358 
L 876.654 260.519547 
L 885.024 260.129848 
L 874.98 259.934739 
L 885.582 259.547207 
L 880.56 259.354545 
L 882.792 259.162301 
L 873.864 258.971519 
L 884.466 258.780367 
L 878.886 258.590509 
L 869.958 258.402136 
L 885.582 258.213776 
L 877.77 258.026022 
L 878.328 257.839152 
L 874.98 257.653067 
L 885.024 257.468272 
L 877.77 257.098759 
L 876.654 256.915841 
L 880.002 256.733942 
L 877.212 256.37204 
L 878.886 256.191821 
L 878.886 256.012086 
L 878.328 255.83384 
L 872.19 255.656626 
L 875.538 255.47867 
L 885.582 255.301222 
L 876.654 255.123348 
L 888.93 254.945937 
L 884.466 254.769183 
L 884.466 254.593062 
L 885.024 254.416829 
L 879.444 254.24227 
L 883.908 254.068703 
L 879.444 253.895553 
L 871.074 253.722849 
L 885.024 253.550438 
L 881.676 253.378754 
L 890.046 253.207268 
L 879.444 253.036214 
L 877.77 252.865702 
L 886.14 252.358214 
L 870.516 252.023053 
L 888.372 251.856146 
L 886.698 251.690278 
L 888.93 251.525542 
L 878.328 251.195326 
L 890.046 251.031388 
L 888.93 250.867049 
L 885.582 250.703434 
L 888.93 250.540056 
L 884.466 250.216281 
L 889.488 250.054782 
L 881.676 249.734837 
L 875.538 249.575809 
L 883.35 249.258335 
L 884.466 249.100511 
L 880.56 248.943096 
L 886.14 248.786014 
L 885.024 248.630242 
L 889.488 248.474692 
L 889.488 248.319582 
L 883.908 248.165131 
L 892.278 248.011041 
L 890.046 247.857163 
L 879.444 247.704176 
L 891.162 247.246331 
L 885.024 247.094453 
L 883.908 246.791135 
L 889.488 246.489618 
L 886.14 246.339387 
L 890.604 246.189801 
L 887.256 246.040901 
L 887.256 245.89269 
L 888.372 245.744945 
L 881.676 245.597871 
L 886.698 245.304183 
L 880.56 245.157258 
L 879.444 245.010259 
L 883.35 244.718905 
L 883.908 244.573947 
L 880.002 244.429195 
L 881.676 244.285396 
L 890.046 243.998664 
L 883.908 243.855621 
L 891.162 243.713233 
L 891.162 243.571461 
L 881.118 243.288804 
L 887.814 243.147793 
L 888.93 243.00683 
L 877.212 242.866506 
L 882.234 242.726882 
L 880.002 242.587035 
L 886.698 242.448005 
L 883.908 242.309278 
L 890.046 242.170849 
L 890.046 242.033132 
L 890.604 241.895591 
L 883.908 241.621805 
L 892.836 241.485971 
L 878.886 241.35039 
L 888.93 241.215425 
L 885.024 241.080864 
L 888.93 240.946059 
L 880.002 240.811656 
L 884.466 240.677387 
L 884.466 240.677387 
" style="fill:none;stroke:#9e9e9e;stroke-linecap:square;stroke-width:5;"/>
   </g>
   <g id="line2d_58">
    <path clip-path="url(#p68fbe4cc62)" d="M -1 294.920674 
L 58.626 291.328405 
L 125.028 285.164373 
L 147.348 279.907922 
L 194.778 275.522915 
L 235.512 271.397094 
L 256.158 267.69934 
L 271.224 264.669007 
L 312.516 261.635511 
L 305.262 258.936945 
L 358.83 256.581819 
L 374.454 254.239975 
L 396.774 252.10332 
L 402.912 249.939131 
L 400.68 248.105902 
L 411.84 246.229188 
L 410.724 244.330464 
L 429.696 242.665763 
L 449.226 241.114585 
L 457.596 239.585349 
L 448.11 238.205974 
L 448.11 236.909117 
L 467.64 235.658162 
L 470.988 234.313692 
L 487.728 233.141237 
L 500.004 231.942568 
L 498.33 230.741296 
L 470.988 229.623808 
L 508.932 228.487877 
L 511.164 227.499945 
L 501.12 226.572126 
L 498.888 225.529279 
L 517.86 224.585193 
L 522.882 223.625965 
L 530.136 222.676044 
L 504.468 221.834687 
L 530.136 220.977792 
L 525.672 220.145215 
L 529.578 219.433314 
L 553.572 218.636608 
L 545.76 217.834123 
L 542.412 217.088478 
L 534.042 216.345375 
L 547.992 215.565806 
L 511.164 214.832261 
L 554.688 214.147093 
L 562.5 213.529857 
L 565.848 212.873344 
L 543.528 212.237151 
L 555.246 211.55823 
L 568.08 211.001339 
L 544.644 210.391056 
L 559.71 209.766296 
L 561.384 209.152095 
L 572.544 208.575929 
L 558.036 207.978056 
L 584.262 207.454956 
L 571.428 206.894367 
L 578.682 206.375335 
L 578.682 205.825839 
L 576.45 205.323974 
L 562.5 204.788922 
L 583.704 204.257332 
L 590.4 203.803448 
L 580.914 203.301047 
L 540.738 202.813966 
L 603.234 201.879847 
L 597.096 201.423173 
L 584.262 201.012729 
L 608.256 200.608707 
L 564.732 200.16872 
L 585.378 199.737159 
L 597.096 199.322841 
L 579.798 198.858729 
L 606.582 198.463494 
L 588.726 198.021292 
L 577.008 197.612532 
L 595.422 197.21741 
L 594.306 196.806193 
L 603.234 196.095965 
L 619.416 195.726132 
L 604.35 195.394731 
L 604.908 195.057256 
L 593.19 194.696437 
L 601.56 194.304824 
L 599.328 193.933385 
L 585.936 193.544896 
L 598.212 193.214304 
L 619.974 192.861846 
L 611.604 192.534393 
L 611.046 192.184678 
L 623.322 191.862885 
L 608.814 191.53433 
L 622.764 191.209462 
L 630.576 190.897391 
L 619.416 190.600496 
L 625.554 190.315329 
L 623.322 190.010095 
L 614.394 189.65841 
L 616.068 189.357953 
L 613.278 189.076687 
L 630.018 188.80489 
L 622.206 188.524797 
L 623.322 188.22405 
L 627.786 187.947129 
L 626.112 187.656097 
L 625.554 187.374871 
L 635.04 186.864918 
L 650.106 186.591383 
L 635.598 186.312971 
L 637.272 186.04243 
L 632.808 185.770899 
L 638.946 185.492007 
L 648.99 185.247556 
L 636.714 184.987514 
L 645.642 184.721577 
L 634.482 184.21718 
L 648.99 183.968882 
L 640.62 183.729313 
L 652.338 183.456757 
L 655.686 183.199399 
L 628.344 182.966064 
L 662.94 182.728647 
L 648.432 182.495463 
L 646.2 182.271889 
L 658.476 182.046357 
L 651.78 181.819751 
L 660.708 181.611765 
L 645.642 181.390941 
L 659.592 181.157461 
L 641.736 180.960878 
L 664.614 180.7609 
L 671.31 180.505212 
L 669.636 180.263503 
L 671.31 180.030128 
L 668.52 179.605072 
L 672.426 179.403778 
L 671.868 179.210103 
L 668.52 179.004041 
L 669.636 178.803703 
L 667.404 178.592157 
L 682.47 178.386202 
L 662.382 178.180887 
L 666.288 177.977976 
L 662.382 177.78298 
L 670.752 177.577055 
L 653.454 177.37856 
L 683.028 177.18165 
L 680.238 177.014755 
L 672.426 176.833159 
L 681.354 176.650185 
L 667.404 176.465189 
L 675.774 176.283934 
L 672.426 176.088802 
L 681.912 175.914783 
L 660.708 175.734431 
L 689.724 175.553774 
L 673.542 175.18838 
L 662.94 174.822614 
L 677.448 174.647179 
L 688.05 174.301034 
L 669.078 173.957248 
L 679.68 173.814625 
L 666.846 173.623483 
L 676.89 173.438486 
L 677.448 173.296128 
L 679.122 173.124684 
L 694.188 172.95565 
L 688.05 172.788255 
L 696.42 172.636894 
L 681.354 172.309902 
L 686.376 172.004255 
L 672.984 171.840983 
L 671.868 171.68479 
L 686.934 171.528192 
L 685.26 171.388478 
L 689.166 171.239603 
L 686.376 171.08318 
L 688.05 170.91994 
L 697.536 170.764079 
L 694.746 170.625892 
L 694.746 170.481649 
L 691.398 170.334936 
L 705.348 170.182068 
L 696.42 170.036612 
L 695.304 169.897427 
L 695.862 169.762157 
L 688.608 169.617096 
L 702 169.333715 
L 679.122 169.174307 
L 698.652 168.911551 
L 690.84 168.780234 
L 693.63 168.643363 
L 678.564 168.496198 
L 698.652 168.358431 
L 693.63 168.230885 
L 706.464 168.079218 
L 698.094 167.939488 
L 703.674 167.666069 
L 704.79 167.535738 
L 696.978 167.280183 
L 709.254 167.151746 
L 708.696 167.018994 
L 707.58 166.885849 
L 708.138 166.635488 
L 714.276 166.507472 
L 703.116 166.375877 
L 712.044 166.262474 
L 712.602 166.124448 
L 713.718 165.975862 
L 698.094 165.718467 
L 699.768 165.591316 
L 714.276 165.46888 
L 714.276 165.348913 
L 714.834 165.222094 
L 715.95 165.104728 
L 712.602 164.992041 
L 703.116 164.74783 
L 725.436 164.510419 
L 712.044 164.169887 
L 713.718 164.05221 
L 717.624 163.945345 
L 714.834 163.831401 
L 714.834 163.709301 
L 712.044 163.593955 
L 713.16 163.477754 
L 727.11 163.252064 
L 712.044 163.132418 
L 726.552 163.013801 
L 715.95 162.809257 
L 714.276 162.696602 
L 717.624 162.46927 
L 705.906 162.369223 
L 723.204 162.161833 
L 725.994 162.051799 
L 722.088 161.940243 
L 723.204 161.834183 
L 727.668 161.741798 
L 723.762 161.644534 
L 724.878 161.548627 
L 716.508 161.430578 
L 720.972 161.31906 
L 729.9 161.214436 
L 720.414 161.103281 
L 731.574 161.010507 
L 727.668 160.911228 
L 728.226 160.790286 
L 719.856 160.694464 
L 720.972 160.581421 
L 723.204 160.481827 
L 736.038 160.290695 
L 733.806 160.20595 
L 738.27 160.0095 
L 736.596 159.907261 
L 719.856 159.809748 
L 722.088 159.71474 
L 724.32 159.526222 
L 724.32 159.416509 
L 744.966 159.228746 
L 728.784 159.140828 
L 743.292 159.052509 
L 731.574 158.862277 
L 739.944 158.6627 
L 734.364 158.571454 
L 735.48 158.487499 
L 740.502 158.388414 
L 724.32 158.026275 
L 738.828 157.929799 
L 738.27 157.839663 
L 738.27 157.751076 
L 729.342 157.672214 
L 734.922 157.472512 
L 729.342 157.374816 
L 744.408 157.292525 
L 737.712 157.199139 
L 738.828 157.118925 
L 734.922 157.021468 
L 743.85 156.93337 
L 732.132 156.848397 
L 746.64 156.761245 
L 734.922 156.672137 
L 742.734 156.586512 
L 735.48 156.503318 
L 747.756 156.405735 
L 732.132 156.234177 
L 746.64 156.147199 
L 738.828 155.983024 
L 737.712 155.89402 
L 742.176 155.797894 
L 752.778 155.710972 
L 745.524 155.621469 
L 755.568 155.543284 
L 745.524 155.457213 
L 748.872 155.38014 
L 739.944 155.29078 
L 748.314 155.20762 
L 734.922 155.11777 
L 758.358 155.04043 
L 751.104 154.961281 
L 741.06 154.715136 
L 749.43 154.644504 
L 744.408 154.555851 
L 747.198 154.390275 
L 755.01 154.316828 
L 747.198 154.235551 
L 749.43 154.15736 
L 748.314 154.089124 
L 749.988 154.017551 
L 744.966 153.780302 
L 758.358 153.702332 
L 753.894 153.620027 
L 750.546 153.541087 
L 755.01 153.472654 
L 754.452 153.38944 
L 742.734 153.30451 
L 742.734 153.30451 
" style="fill:none;stroke:#ff9500;stroke-linecap:square;stroke-width:5;"/>
   </g>
   <g id="line2d_59">
    <path clip-path="url(#p68fbe4cc62)" d="M -1 480.931051 
L 58.626 474.986393 
L 125.028 464.307731 
L 147.348 455.430272 
L 194.778 447.940852 
L 235.512 441.348549 
L 256.158 435.450389 
L 271.224 430.220705 
L 312.516 425.495971 
L 305.262 421.172804 
L 358.83 417.219106 
L 374.454 413.547679 
L 396.774 410.160798 
L 402.912 406.981187 
L 400.68 403.99441 
L 411.84 401.199169 
L 410.724 398.55393 
L 429.696 396.042989 
L 449.226 393.644124 
L 457.596 391.342261 
L 448.11 389.158775 
L 448.11 387.052908 
L 467.64 385.051345 
L 470.988 383.124379 
L 487.728 381.278218 
L 500.004 379.487072 
L 498.33 377.773206 
L 470.988 376.117703 
L 508.932 374.52539 
L 511.164 372.984684 
L 501.12 371.488116 
L 498.888 370.020161 
L 517.86 368.60581 
L 522.882 367.233069 
L 530.136 365.8921 
L 504.468 364.57702 
L 530.136 363.306587 
L 525.672 362.069331 
L 529.578 360.862031 
L 553.572 359.691626 
L 545.76 358.542485 
L 542.412 357.419438 
L 534.042 356.322762 
L 547.992 355.256829 
L 511.164 354.218661 
L 554.688 353.19691 
L 562.5 352.200208 
L 565.848 351.224912 
L 543.528 350.270884 
L 568.08 348.430247 
L 544.644 347.53696 
L 559.71 346.661312 
L 561.384 345.80037 
L 572.544 344.953972 
L 558.036 344.116863 
L 584.262 343.300521 
L 571.428 342.501761 
L 578.682 341.715288 
L 578.682 340.941388 
L 576.45 340.177741 
L 562.5 339.420754 
L 583.704 338.685699 
L 590.4 337.958912 
L 580.914 337.240808 
L 540.738 336.53162 
L 577.008 335.843147 
L 603.234 335.161677 
L 597.096 334.492626 
L 584.262 333.82702 
L 608.256 333.173804 
L 564.732 332.52673 
L 585.378 331.889863 
L 597.096 331.262939 
L 579.798 330.642868 
L 606.582 330.035009 
L 588.726 329.437688 
L 577.008 328.848641 
L 595.422 328.264218 
L 594.306 327.690661 
L 598.212 327.124076 
L 603.234 326.563989 
L 619.416 326.007113 
L 604.35 325.456085 
L 604.908 324.910297 
L 593.19 324.371959 
L 601.56 323.842446 
L 599.328 323.314857 
L 585.936 322.7953 
L 598.212 322.281104 
L 619.974 321.777381 
L 611.604 321.280176 
L 611.046 320.787992 
L 623.322 320.301563 
L 608.814 319.822031 
L 622.764 319.346739 
L 630.576 318.877376 
L 619.416 318.414936 
L 625.554 317.95501 
L 623.322 317.503184 
L 614.394 317.056369 
L 616.068 316.61476 
L 613.278 316.176312 
L 630.018 315.743482 
L 622.206 315.313007 
L 623.322 314.885127 
L 627.786 314.459408 
L 626.112 314.038828 
L 625.554 313.622623 
L 635.04 312.802235 
L 650.106 312.397914 
L 635.598 311.999012 
L 637.272 311.602799 
L 632.808 311.206456 
L 638.946 310.817789 
L 648.99 310.431028 
L 636.714 310.047519 
L 645.642 309.669735 
L 634.482 308.920418 
L 648.99 308.549411 
L 640.62 308.179838 
L 652.338 307.816408 
L 655.686 307.456892 
L 628.344 307.096915 
L 662.94 306.743878 
L 648.432 306.394427 
L 646.2 306.047274 
L 658.476 305.703282 
L 651.78 305.360725 
L 660.708 305.022821 
L 645.642 304.689295 
L 659.592 304.357224 
L 641.736 304.028586 
L 664.614 303.702333 
L 671.31 303.380151 
L 669.636 303.058196 
L 671.31 302.737077 
L 668.52 302.10614 
L 672.426 301.79318 
L 671.868 301.483063 
L 668.52 301.17388 
L 669.636 300.866597 
L 667.404 300.55879 
L 682.47 300.254429 
L 662.382 299.953155 
L 666.288 299.652831 
L 662.382 299.354431 
L 670.752 299.057778 
L 653.454 298.761618 
L 683.028 298.468152 
L 680.238 298.17656 
L 672.426 297.888363 
L 681.354 297.602735 
L 667.404 297.317959 
L 675.774 297.035519 
L 672.426 296.75475 
L 681.912 296.475331 
L 660.708 296.19645 
L 689.724 295.919607 
L 679.122 295.642868 
L 662.94 294.824695 
L 677.448 294.55561 
L 688.05 294.020695 
L 675.774 293.753131 
L 669.078 293.488102 
L 679.68 293.226315 
L 666.846 292.963385 
L 676.89 292.70349 
L 677.448 292.445226 
L 679.122 292.189345 
L 694.188 291.933829 
L 688.05 291.677786 
L 696.42 291.425082 
L 690.84 291.172559 
L 681.354 290.92304 
L 685.26 290.674696 
L 686.376 290.424995 
L 672.984 290.17682 
L 671.868 289.929029 
L 686.934 289.683261 
L 685.26 289.438755 
L 689.166 289.195605 
L 686.376 288.954394 
L 688.05 288.714468 
L 697.536 288.476549 
L 694.746 288.239341 
L 694.746 288.002725 
L 691.398 287.767897 
L 705.348 287.533445 
L 696.42 287.300884 
L 695.304 287.069228 
L 695.862 286.838574 
L 688.608 286.608081 
L 698.652 286.379294 
L 702 286.151247 
L 679.122 285.924169 
L 693.072 285.698088 
L 698.652 285.473311 
L 690.84 285.249112 
L 693.63 285.025628 
L 678.564 284.804108 
L 698.652 284.583821 
L 693.63 284.365633 
L 706.464 284.147313 
L 698.094 283.930734 
L 702 283.71463 
L 704.79 283.285086 
L 702 283.070509 
L 696.978 282.856088 
L 709.254 282.643353 
L 708.696 282.431559 
L 707.58 282.221397 
L 708.138 282.011686 
L 708.138 281.804613 
L 714.276 281.598306 
L 703.116 281.393086 
L 712.044 281.187172 
L 712.602 280.981747 
L 713.718 280.777309 
L 698.094 280.372353 
L 699.768 280.170983 
L 714.276 279.970005 
L 714.276 279.770556 
L 714.834 279.570955 
L 715.95 279.37185 
L 712.602 279.173608 
L 704.79 278.977171 
L 703.116 278.781653 
L 725.436 278.392591 
L 717.066 278.006499 
L 712.044 277.815175 
L 713.718 277.62361 
L 717.624 277.432943 
L 714.834 277.242231 
L 714.834 277.052644 
L 712.044 276.865399 
L 713.16 276.677912 
L 727.11 276.305707 
L 712.044 276.120331 
L 726.552 275.935694 
L 718.74 275.751174 
L 714.276 275.383236 
L 717.066 275.200155 
L 717.624 275.018003 
L 705.906 274.836848 
L 723.204 274.476742 
L 725.994 274.296456 
L 722.088 274.117872 
L 723.204 273.93935 
L 727.668 273.761588 
L 723.762 273.585494 
L 724.878 273.409856 
L 716.508 273.23472 
L 720.972 273.06102 
L 729.9 272.887248 
L 720.414 272.714413 
L 731.574 272.541214 
L 727.668 272.368715 
L 728.226 272.196655 
L 719.856 272.024655 
L 720.972 271.853389 
L 723.204 271.68252 
L 734.364 271.511563 
L 736.038 271.341881 
L 733.806 271.172719 
L 737.154 271.003669 
L 738.27 270.834617 
L 736.596 270.666623 
L 719.856 270.499359 
L 724.32 270.166201 
L 724.32 269.835978 
L 744.966 269.507876 
L 728.784 269.344143 
L 743.292 269.181522 
L 733.806 269.018608 
L 731.574 268.856229 
L 739.944 268.53195 
L 734.364 268.371598 
L 735.48 268.212125 
L 740.502 268.052162 
L 733.806 267.735049 
L 732.132 267.576977 
L 724.32 267.41949 
L 738.828 267.262356 
L 738.27 267.105761 
L 738.27 266.949807 
L 729.342 266.794778 
L 733.806 266.638956 
L 734.922 266.48345 
L 729.342 266.328987 
L 744.408 266.17458 
L 737.712 266.020125 
L 738.828 265.867209 
L 734.922 265.714419 
L 743.85 265.562591 
L 732.132 265.411585 
L 746.64 265.260624 
L 734.922 265.110184 
L 742.734 264.960203 
L 735.48 264.810396 
L 747.756 264.660778 
L 732.132 264.362629 
L 746.64 264.214377 
L 739.944 264.066003 
L 737.712 263.771452 
L 742.176 263.624654 
L 752.778 263.478356 
L 745.524 263.332449 
L 755.568 263.186787 
L 745.524 263.041827 
L 748.872 262.89724 
L 739.944 262.75325 
L 748.314 262.610064 
L 734.922 262.466702 
L 758.358 262.323946 
L 741.06 261.898101 
L 741.06 261.756752 
L 749.43 261.615646 
L 744.408 261.475111 
L 747.198 261.195942 
L 755.01 261.057016 
L 747.198 260.918776 
L 749.43 260.780878 
L 748.314 260.643205 
L 749.988 260.506395 
L 744.966 260.095749 
L 758.358 259.95938 
L 750.546 259.688092 
L 755.01 259.552412 
L 754.452 259.417577 
L 742.734 259.283177 
L 742.734 259.283177 
" style="fill:none;stroke:#ffc36e;stroke-linecap:square;stroke-width:5;"/>
   </g>
   <g id="patch_3">
    <path d="M 144 504 
L 144 69.12 
" style="fill:none;stroke:#000000;stroke-linecap:square;stroke-linejoin:miter;stroke-width:0.8;"/>
   </g>
   <g id="patch_4">
    <path d="M 1036.8 504 
L 1036.8 69.12 
" style="fill:none;stroke:#000000;stroke-linecap:square;stroke-linejoin:miter;stroke-width:0.8;"/>
   </g>
   <g id="patch_5">
    <path d="M 144 504 
L 1036.8 504 
" style="fill:none;stroke:#000000;stroke-linecap:square;stroke-linejoin:miter;stroke-width:0.8;"/>
   </g>
   <g id="patch_6">
    <path d="M 144 69.12 
L 1036.8 69.12 
" style="fill:none;stroke:#000000;stroke-linecap:square;stroke-linejoin:miter;stroke-width:0.8;"/>
   </g>
   <g id="text_17">
    <!-- Gated: Energy vs. Accuracy with 50 Units @ 0.45 -->
    <g transform="translate(147.895312 61.633125)scale(0.36 -0.36)">
     <defs>
      <path d="M 59.515625 10.40625 
L 59.515625 29.984375 
L 43.40625 29.984375 
L 43.40625 38.09375 
L 69.28125 38.09375 
L 69.28125 6.78125 
Q 63.578125 2.734375 56.6875 0.65625 
Q 49.8125 -1.421875 42 -1.421875 
Q 24.90625 -1.421875 15.25 8.5625 
Q 5.609375 18.5625 5.609375 36.375 
Q 5.609375 54.25 15.25 64.234375 
Q 24.90625 74.21875 42 74.21875 
Q 49.125 74.21875 55.546875 72.453125 
Q 61.96875 70.703125 67.390625 67.28125 
L 67.390625 56.78125 
Q 61.921875 61.421875 55.765625 63.765625 
Q 49.609375 66.109375 42.828125 66.109375 
Q 29.4375 66.109375 22.71875 58.640625 
Q 16.015625 51.171875 16.015625 36.375 
Q 16.015625 21.625 22.71875 14.15625 
Q 29.4375 6.6875 42.828125 6.6875 
Q 48.046875 6.6875 52.140625 7.59375 
Q 56.25 8.5 59.515625 10.40625 
z
" id="DejaVuSans-71"/>
      <path d="M 18.3125 70.21875 
L 18.3125 54.6875 
L 36.8125 54.6875 
L 36.8125 47.703125 
L 18.3125 47.703125 
L 18.3125 18.015625 
Q 18.3125 11.328125 20.140625 9.421875 
Q 21.96875 7.515625 27.59375 7.515625 
L 36.8125 7.515625 
L 36.8125 0 
L 27.59375 0 
Q 17.1875 0 13.234375 3.875 
Q 9.28125 7.765625 9.28125 18.015625 
L 9.28125 47.703125 
L 2.6875 47.703125 
L 2.6875 54.6875 
L 9.28125 54.6875 
L 9.28125 70.21875 
z
" id="DejaVuSans-116"/>
      <path d="M 45.40625 46.390625 
L 45.40625 75.984375 
L 54.390625 75.984375 
L 54.390625 0 
L 45.40625 0 
L 45.40625 8.203125 
Q 42.578125 3.328125 38.25 0.953125 
Q 33.9375 -1.421875 27.875 -1.421875 
Q 17.96875 -1.421875 11.734375 6.484375 
Q 5.515625 14.40625 5.515625 27.296875 
Q 5.515625 40.1875 11.734375 48.09375 
Q 17.96875 56 27.875 56 
Q 33.9375 56 38.25 53.625 
Q 42.578125 51.265625 45.40625 46.390625 
z
M 14.796875 27.296875 
Q 14.796875 17.390625 18.875 11.75 
Q 22.953125 6.109375 30.078125 6.109375 
Q 37.203125 6.109375 41.296875 11.75 
Q 45.40625 17.390625 45.40625 27.296875 
Q 45.40625 37.203125 41.296875 42.84375 
Q 37.203125 48.484375 30.078125 48.484375 
Q 22.953125 48.484375 18.875 42.84375 
Q 14.796875 37.203125 14.796875 27.296875 
z
" id="DejaVuSans-100"/>
      <path d="M 11.71875 12.40625 
L 22.015625 12.40625 
L 22.015625 0 
L 11.71875 0 
z
M 11.71875 51.703125 
L 22.015625 51.703125 
L 22.015625 39.3125 
L 11.71875 39.3125 
z
" id="DejaVuSans-58"/>
      <path d="M 2.984375 54.6875 
L 12.5 54.6875 
L 29.59375 8.796875 
L 46.6875 54.6875 
L 56.203125 54.6875 
L 35.6875 0 
L 23.484375 0 
z
" id="DejaVuSans-118"/>
      <path d="M 44.28125 53.078125 
L 44.28125 44.578125 
Q 40.484375 46.53125 36.375 47.5 
Q 32.28125 48.484375 27.875 48.484375 
Q 21.1875 48.484375 17.84375 46.4375 
Q 14.5 44.390625 14.5 40.28125 
Q 14.5 37.15625 16.890625 35.375 
Q 19.28125 33.59375 26.515625 31.984375 
L 29.59375 31.296875 
Q 39.15625 29.25 43.1875 25.515625 
Q 47.21875 21.78125 47.21875 15.09375 
Q 47.21875 7.46875 41.1875 3.015625 
Q 35.15625 -1.421875 24.609375 -1.421875 
Q 20.21875 -1.421875 15.453125 -0.5625 
Q 10.6875 0.296875 5.421875 2 
L 5.421875 11.28125 
Q 10.40625 8.6875 15.234375 7.390625 
Q 20.0625 6.109375 24.8125 6.109375 
Q 31.15625 6.109375 34.5625 8.28125 
Q 37.984375 10.453125 37.984375 14.40625 
Q 37.984375 18.0625 35.515625 20.015625 
Q 33.0625 21.96875 24.703125 23.78125 
L 21.578125 24.515625 
Q 13.234375 26.265625 9.515625 29.90625 
Q 5.8125 33.546875 5.8125 39.890625 
Q 5.8125 47.609375 11.28125 51.796875 
Q 16.75 56 26.8125 56 
Q 31.78125 56 36.171875 55.265625 
Q 40.578125 54.546875 44.28125 53.078125 
z
" id="DejaVuSans-115"/>
      <path d="M 4.203125 54.6875 
L 13.1875 54.6875 
L 24.421875 12.015625 
L 35.59375 54.6875 
L 46.1875 54.6875 
L 57.421875 12.015625 
L 68.609375 54.6875 
L 77.59375 54.6875 
L 63.28125 0 
L 52.6875 0 
L 40.921875 44.828125 
L 29.109375 0 
L 18.5 0 
z
" id="DejaVuSans-119"/>
      <path d="M 9.421875 54.6875 
L 18.40625 54.6875 
L 18.40625 0 
L 9.421875 0 
z
M 9.421875 75.984375 
L 18.40625 75.984375 
L 18.40625 64.59375 
L 9.421875 64.59375 
z
" id="DejaVuSans-105"/>
      <path d="M 54.890625 33.015625 
L 54.890625 0 
L 45.90625 0 
L 45.90625 32.71875 
Q 45.90625 40.484375 42.875 44.328125 
Q 39.84375 48.1875 33.796875 48.1875 
Q 26.515625 48.1875 22.3125 43.546875 
Q 18.109375 38.921875 18.109375 30.90625 
L 18.109375 0 
L 9.078125 0 
L 9.078125 75.984375 
L 18.109375 75.984375 
L 18.109375 46.1875 
Q 21.34375 51.125 25.703125 53.5625 
Q 30.078125 56 35.796875 56 
Q 45.21875 56 50.046875 50.171875 
Q 54.890625 44.34375 54.890625 33.015625 
z
" id="DejaVuSans-104"/>
      <path d="M 37.203125 26.21875 
Q 37.203125 19.234375 40.671875 15.25 
Q 44.140625 11.28125 50.203125 11.28125 
Q 56.203125 11.28125 59.640625 15.28125 
Q 63.09375 19.28125 63.09375 26.21875 
Q 63.09375 33.0625 59.578125 37.078125 
Q 56.0625 41.109375 50.09375 41.109375 
Q 44.1875 41.109375 40.6875 37.109375 
Q 37.203125 33.109375 37.203125 26.21875 
z
M 63.8125 11.625 
Q 60.890625 7.859375 57.109375 6.078125 
Q 53.328125 4.296875 48.296875 4.296875 
Q 39.890625 4.296875 34.640625 10.375 
Q 29.390625 16.453125 29.390625 26.21875 
Q 29.390625 35.984375 34.65625 42.078125 
Q 39.9375 48.1875 48.296875 48.1875 
Q 53.328125 48.1875 57.125 46.359375 
Q 60.9375 44.53125 63.8125 40.828125 
L 63.8125 47.21875 
L 70.796875 47.21875 
L 70.796875 11.28125 
Q 77.9375 12.359375 81.953125 17.796875 
Q 85.984375 23.25 85.984375 31.890625 
Q 85.984375 37.109375 84.4375 41.703125 
Q 82.90625 46.296875 79.78125 50.203125 
Q 74.703125 56.59375 67.40625 59.984375 
Q 60.109375 63.375 51.515625 63.375 
Q 45.515625 63.375 39.984375 61.78125 
Q 34.46875 60.203125 29.78125 57.078125 
Q 22.125 52.09375 17.796875 44.015625 
Q 13.484375 35.9375 13.484375 26.515625 
Q 13.484375 18.75 16.28125 11.953125 
Q 19.09375 5.171875 24.421875 0 
Q 29.546875 -5.078125 36.28125 -7.734375 
Q 43.015625 -10.40625 50.6875 -10.40625 
Q 56.984375 -10.40625 63.0625 -8.28125 
Q 69.140625 -6.15625 74.21875 -2.203125 
L 78.609375 -7.625 
Q 72.515625 -12.359375 65.3125 -14.875 
Q 58.109375 -17.390625 50.6875 -17.390625 
Q 41.65625 -17.390625 33.640625 -14.1875 
Q 25.640625 -10.984375 19.390625 -4.890625 
Q 13.140625 1.21875 9.859375 9.25 
Q 6.59375 17.28125 6.59375 26.515625 
Q 6.59375 35.40625 9.90625 43.453125 
Q 13.234375 51.515625 19.390625 57.625 
Q 25.6875 63.8125 33.9375 67.109375 
Q 42.1875 70.40625 51.421875 70.40625 
Q 61.765625 70.40625 70.625 66.15625 
Q 79.5 61.921875 85.5 54.109375 
Q 89.15625 49.3125 91.078125 43.703125 
Q 93.015625 38.09375 93.015625 32.078125 
Q 93.015625 19.234375 85.25 11.8125 
Q 77.484375 4.390625 63.8125 4.109375 
z
" id="DejaVuSans-64"/>
     </defs>
     <use xlink:href="#DejaVuSans-71"/>
     <use x="77.490234" xlink:href="#DejaVuSans-97"/>
     <use x="138.769531" xlink:href="#DejaVuSans-116"/>
     <use x="177.978516" xlink:href="#DejaVuSans-101"/>
     <use x="239.501953" xlink:href="#DejaVuSans-100"/>
     <use x="302.978516" xlink:href="#DejaVuSans-58"/>
     <use x="336.669922" xlink:href="#DejaVuSans-32"/>
     <use x="368.457031" xlink:href="#DejaVuSans-69"/>
     <use x="431.640625" xlink:href="#DejaVuSans-110"/>
     <use x="495.019531" xlink:href="#DejaVuSans-101"/>
     <use x="556.542969" xlink:href="#DejaVuSans-114"/>
     <use x="595.90625" xlink:href="#DejaVuSans-103"/>
     <use x="659.382812" xlink:href="#DejaVuSans-121"/>
     <use x="718.5625" xlink:href="#DejaVuSans-32"/>
     <use x="750.349609" xlink:href="#DejaVuSans-118"/>
     <use x="809.529297" xlink:href="#DejaVuSans-115"/>
     <use x="861.628906" xlink:href="#DejaVuSans-46"/>
     <use x="893.416016" xlink:href="#DejaVuSans-32"/>
     <use x="925.203125" xlink:href="#DejaVuSans-65"/>
     <use x="991.861328" xlink:href="#DejaVuSans-99"/>
     <use x="1046.841797" xlink:href="#DejaVuSans-99"/>
     <use x="1101.822266" xlink:href="#DejaVuSans-117"/>
     <use x="1165.201172" xlink:href="#DejaVuSans-114"/>
     <use x="1206.314453" xlink:href="#DejaVuSans-97"/>
     <use x="1267.59375" xlink:href="#DejaVuSans-99"/>
     <use x="1322.574219" xlink:href="#DejaVuSans-121"/>
     <use x="1381.753906" xlink:href="#DejaVuSans-32"/>
     <use x="1413.541016" xlink:href="#DejaVuSans-119"/>
     <use x="1495.328125" xlink:href="#DejaVuSans-105"/>
     <use x="1523.111328" xlink:href="#DejaVuSans-116"/>
     <use x="1562.320312" xlink:href="#DejaVuSans-104"/>
     <use x="1625.699219" xlink:href="#DejaVuSans-32"/>
     <use x="1657.486328" xlink:href="#DejaVuSans-53"/>
     <use x="1721.109375" xlink:href="#DejaVuSans-48"/>
     <use x="1784.732422" xlink:href="#DejaVuSans-32"/>
     <use x="1816.519531" xlink:href="#DejaVuSans-85"/>
     <use x="1889.712891" xlink:href="#DejaVuSans-110"/>
     <use x="1953.091797" xlink:href="#DejaVuSans-105"/>
     <use x="1980.875" xlink:href="#DejaVuSans-116"/>
     <use x="2020.083984" xlink:href="#DejaVuSans-115"/>
     <use x="2072.183594" xlink:href="#DejaVuSans-32"/>
     <use x="2103.970703" xlink:href="#DejaVuSans-64"/>
     <use x="2203.970703" xlink:href="#DejaVuSans-32"/>
     <use x="2235.757812" xlink:href="#DejaVuSans-48"/>
     <use x="2299.380859" xlink:href="#DejaVuSans-46"/>
     <use x="2331.167969" xlink:href="#DejaVuSans-52"/>
     <use x="2394.791016" xlink:href="#DejaVuSans-53"/>
    </g>
   </g>
   <g id="legend_1">
    <g id="patch_7">
     <path d="M 785.663125 493 
L 1021.4 493 
Q 1025.8 493 1025.8 488.6 
L 1025.8 361.6325 
Q 1025.8 357.2325 1021.4 357.2325 
L 785.663125 357.2325 
Q 781.263125 357.2325 781.263125 361.6325 
L 781.263125 488.6 
Q 781.263125 493 785.663125 493 
z
" style="fill:#ffffff;opacity:0.8;stroke:#cccccc;stroke-linejoin:miter;"/>
    </g>
    <g id="line2d_60">
     <path d="M 790.063125 375.049062 
L 834.063125 375.049062 
" style="fill:none;stroke:#1f1f1f;stroke-linecap:square;stroke-width:5;"/>
    </g>
    <g id="line2d_61"/>
    <g id="text_18">
     <!-- Ungated: 1.0 -->
     <g transform="translate(851.663125 382.749062)scale(0.22 -0.22)">
      <use xlink:href="#DejaVuSans-85"/>
      <use x="73.193359" xlink:href="#DejaVuSans-110"/>
      <use x="136.572266" xlink:href="#DejaVuSans-103"/>
      <use x="200.048828" xlink:href="#DejaVuSans-97"/>
      <use x="261.328125" xlink:href="#DejaVuSans-116"/>
      <use x="300.537109" xlink:href="#DejaVuSans-101"/>
      <use x="362.060547" xlink:href="#DejaVuSans-100"/>
      <use x="425.537109" xlink:href="#DejaVuSans-58"/>
      <use x="459.228516" xlink:href="#DejaVuSans-32"/>
      <use x="491.015625" xlink:href="#DejaVuSans-49"/>
      <use x="554.638672" xlink:href="#DejaVuSans-46"/>
      <use x="586.425781" xlink:href="#DejaVuSans-48"/>
     </g>
    </g>
    <g id="line2d_62">
     <path d="M 790.063125 407.340937 
L 834.063125 407.340937 
" style="fill:none;stroke:#9e9e9e;stroke-linecap:square;stroke-width:5;"/>
    </g>
    <g id="line2d_63"/>
    <g id="text_19">
     <!-- Minimum: 1.0 -->
     <g transform="translate(851.663125 415.040937)scale(0.22 -0.22)">
      <defs>
       <path d="M 9.8125 72.90625 
L 24.515625 72.90625 
L 43.109375 23.296875 
L 61.8125 72.90625 
L 76.515625 72.90625 
L 76.515625 0 
L 66.890625 0 
L 66.890625 64.015625 
L 48.09375 14.015625 
L 38.1875 14.015625 
L 19.390625 64.015625 
L 19.390625 0 
L 9.8125 0 
z
" id="DejaVuSans-77"/>
       <path d="M 52 44.1875 
Q 55.375 50.25 60.0625 53.125 
Q 64.75 56 71.09375 56 
Q 79.640625 56 84.28125 50.015625 
Q 88.921875 44.046875 88.921875 33.015625 
L 88.921875 0 
L 79.890625 0 
L 79.890625 32.71875 
Q 79.890625 40.578125 77.09375 44.375 
Q 74.3125 48.1875 68.609375 48.1875 
Q 61.625 48.1875 57.5625 43.546875 
Q 53.515625 38.921875 53.515625 30.90625 
L 53.515625 0 
L 44.484375 0 
L 44.484375 32.71875 
Q 44.484375 40.625 41.703125 44.40625 
Q 38.921875 48.1875 33.109375 48.1875 
Q 26.21875 48.1875 22.15625 43.53125 
Q 18.109375 38.875 18.109375 30.90625 
L 18.109375 0 
L 9.078125 0 
L 9.078125 54.6875 
L 18.109375 54.6875 
L 18.109375 46.1875 
Q 21.1875 51.21875 25.484375 53.609375 
Q 29.78125 56 35.6875 56 
Q 41.65625 56 45.828125 52.96875 
Q 50 49.953125 52 44.1875 
z
" id="DejaVuSans-109"/>
      </defs>
      <use xlink:href="#DejaVuSans-77"/>
      <use x="86.279297" xlink:href="#DejaVuSans-105"/>
      <use x="114.0625" xlink:href="#DejaVuSans-110"/>
      <use x="177.441406" xlink:href="#DejaVuSans-105"/>
      <use x="205.224609" xlink:href="#DejaVuSans-109"/>
      <use x="302.636719" xlink:href="#DejaVuSans-117"/>
      <use x="366.015625" xlink:href="#DejaVuSans-109"/>
      <use x="463.427734" xlink:href="#DejaVuSans-58"/>
      <use x="497.119141" xlink:href="#DejaVuSans-32"/>
      <use x="528.90625" xlink:href="#DejaVuSans-49"/>
      <use x="592.529297" xlink:href="#DejaVuSans-46"/>
      <use x="624.316406" xlink:href="#DejaVuSans-48"/>
     </g>
    </g>
    <g id="line2d_64">
     <path d="M 790.063125 439.632812 
L 834.063125 439.632812 
" style="fill:none;stroke:#ff9500;stroke-linecap:square;stroke-width:5;"/>
    </g>
    <g id="line2d_65"/>
    <g id="text_20">
     <!-- Gated: 0.45 -->
     <g transform="translate(851.663125 447.332812)scale(0.22 -0.22)">
      <use xlink:href="#DejaVuSans-71"/>
      <use x="77.490234" xlink:href="#DejaVuSans-97"/>
      <use x="138.769531" xlink:href="#DejaVuSans-116"/>
      <use x="177.978516" xlink:href="#DejaVuSans-101"/>
      <use x="239.501953" xlink:href="#DejaVuSans-100"/>
      <use x="302.978516" xlink:href="#DejaVuSans-58"/>
      <use x="336.669922" xlink:href="#DejaVuSans-32"/>
      <use x="368.457031" xlink:href="#DejaVuSans-48"/>
      <use x="432.080078" xlink:href="#DejaVuSans-46"/>
      <use x="463.867188" xlink:href="#DejaVuSans-52"/>
      <use x="527.490234" xlink:href="#DejaVuSans-53"/>
     </g>
    </g>
    <g id="line2d_66">
     <path d="M 790.063125 471.924688 
L 834.063125 471.924688 
" style="fill:none;stroke:#ffc36e;stroke-linecap:square;stroke-width:5;"/>
    </g>
    <g id="line2d_67"/>
    <g id="text_21">
     <!-- Minimum: 0.45 -->
     <g transform="translate(851.663125 479.624687)scale(0.22 -0.22)">
      <use xlink:href="#DejaVuSans-77"/>
      <use x="86.279297" xlink:href="#DejaVuSans-105"/>
      <use x="114.0625" xlink:href="#DejaVuSans-110"/>
      <use x="177.441406" xlink:href="#DejaVuSans-105"/>
      <use x="205.224609" xlink:href="#DejaVuSans-109"/>
      <use x="302.636719" xlink:href="#DejaVuSans-117"/>
      <use x="366.015625" xlink:href="#DejaVuSans-109"/>
      <use x="463.427734" xlink:href="#DejaVuSans-58"/>
      <use x="497.119141" xlink:href="#DejaVuSans-32"/>
      <use x="528.90625" xlink:href="#DejaVuSans-48"/>
      <use x="592.529297" xlink:href="#DejaVuSans-46"/>
      <use x="624.316406" xlink:href="#DejaVuSans-52"/>
      <use x="687.939453" xlink:href="#DejaVuSans-53"/>
     </g>
    </g>
   </g>
  </g>
 </g>
 <defs>
  <clipPath id="p68fbe4cc62">
   <rect height="434.88" width="892.8" x="144" y="69.12"/>
  </clipPath>
 </defs>
</svg>
