<?xml version="1.0" encoding="utf-8" standalone="no"?>
<!DOCTYPE svg PUBLIC "-//W3C//DTD SVG 1.1//EN"
  "http://www.w3.org/Graphics/SVG/1.1/DTD/svg11.dtd">
<!-- Created with matplotlib (https://matplotlib.org/) -->
<svg height="576pt" version="1.1" viewBox="0 0 1152 576" width="1152pt" xmlns="http://www.w3.org/2000/svg" xmlns:xlink="http://www.w3.org/1999/xlink">
 <metadata>
  <rdf:RDF xmlns:cc="http://creativecommons.org/ns#" xmlns:dc="http://purl.org/dc/elements/1.1/" xmlns:rdf="http://www.w3.org/1999/02/22-rdf-syntax-ns#">
   <cc:Work>
    <dc:type rdf:resource="http://purl.org/dc/dcmitype/StillImage"/>
    <dc:date>2021-09-12T15:17:38.310659</dc:date>
    <dc:format>image/svg+xml</dc:format>
    <dc:creator>
     <cc:Agent>
      <dc:title>Matplotlib v3.3.4, https://matplotlib.org/</dc:title>
     </cc:Agent>
    </dc:creator>
   </cc:Work>
  </rdf:RDF>
 </metadata>
 <defs>
  <style type="text/css">*{stroke-linecap:butt;stroke-linejoin:round;}</style>
 </defs>
 <g id="figure_1">
  <g id="patch_1">
   <path d="M 0 576 
L 1152 576 
L 1152 0 
L 0 0 
z
" style="fill:#ffffff;"/>
  </g>
  <g id="axes_1">
   <g id="patch_2">
    <path d="M 144 504 
L 1036.8 504 
L 1036.8 69.12 
L 144 69.12 
z
" style="fill:#ffffff;"/>
   </g>
   <g id="matplotlib.axis_1">
    <g id="xtick_1">
     <g id="line2d_1">
      <defs>
       <path d="M 0 0 
L 0 3.5 
" id="m489189868b" style="stroke:#000000;stroke-width:0.8;"/>
      </defs>
      <g>
       <use style="stroke:#000000;stroke-width:0.8;" x="144" xlink:href="#m489189868b" y="504"/>
      </g>
     </g>
     <g id="text_1">
      <!-- 84 -->
      <g transform="translate(128.73 529.23625)scale(0.24 -0.24)">
       <defs>
        <path d="M 31.78125 34.625 
Q 24.75 34.625 20.71875 30.859375 
Q 16.703125 27.09375 16.703125 20.515625 
Q 16.703125 13.921875 20.71875 10.15625 
Q 24.75 6.390625 31.78125 6.390625 
Q 38.8125 6.390625 42.859375 10.171875 
Q 46.921875 13.96875 46.921875 20.515625 
Q 46.921875 27.09375 42.890625 30.859375 
Q 38.875 34.625 31.78125 34.625 
z
M 21.921875 38.8125 
Q 15.578125 40.375 12.03125 44.71875 
Q 8.5 49.078125 8.5 55.328125 
Q 8.5 64.0625 14.71875 69.140625 
Q 20.953125 74.21875 31.78125 74.21875 
Q 42.671875 74.21875 48.875 69.140625 
Q 55.078125 64.0625 55.078125 55.328125 
Q 55.078125 49.078125 51.53125 44.71875 
Q 48 40.375 41.703125 38.8125 
Q 48.828125 37.15625 52.796875 32.3125 
Q 56.78125 27.484375 56.78125 20.515625 
Q 56.78125 9.90625 50.3125 4.234375 
Q 43.84375 -1.421875 31.78125 -1.421875 
Q 19.734375 -1.421875 13.25 4.234375 
Q 6.78125 9.90625 6.78125 20.515625 
Q 6.78125 27.484375 10.78125 32.3125 
Q 14.796875 37.15625 21.921875 38.8125 
z
M 18.3125 54.390625 
Q 18.3125 48.734375 21.84375 45.5625 
Q 25.390625 42.390625 31.78125 42.390625 
Q 38.140625 42.390625 41.71875 45.5625 
Q 45.3125 48.734375 45.3125 54.390625 
Q 45.3125 60.0625 41.71875 63.234375 
Q 38.140625 66.40625 31.78125 66.40625 
Q 25.390625 66.40625 21.84375 63.234375 
Q 18.3125 60.0625 18.3125 54.390625 
z
" id="DejaVuSans-56"/>
        <path d="M 37.796875 64.3125 
L 12.890625 25.390625 
L 37.796875 25.390625 
z
M 35.203125 72.90625 
L 47.609375 72.90625 
L 47.609375 25.390625 
L 58.015625 25.390625 
L 58.015625 17.1875 
L 47.609375 17.1875 
L 47.609375 0 
L 37.796875 0 
L 37.796875 17.1875 
L 4.890625 17.1875 
L 4.890625 26.703125 
z
" id="DejaVuSans-52"/>
       </defs>
       <use xlink:href="#DejaVuSans-56"/>
       <use x="63.623047" xlink:href="#DejaVuSans-52"/>
      </g>
     </g>
    </g>
    <g id="xtick_2">
     <g id="line2d_2">
      <g>
       <use style="stroke:#000000;stroke-width:0.8;" x="255.6" xlink:href="#m489189868b" y="504"/>
      </g>
     </g>
     <g id="text_2">
      <!-- 86 -->
      <g transform="translate(240.33 529.23625)scale(0.24 -0.24)">
       <defs>
        <path d="M 33.015625 40.375 
Q 26.375 40.375 22.484375 35.828125 
Q 18.609375 31.296875 18.609375 23.390625 
Q 18.609375 15.53125 22.484375 10.953125 
Q 26.375 6.390625 33.015625 6.390625 
Q 39.65625 6.390625 43.53125 10.953125 
Q 47.40625 15.53125 47.40625 23.390625 
Q 47.40625 31.296875 43.53125 35.828125 
Q 39.65625 40.375 33.015625 40.375 
z
M 52.59375 71.296875 
L 52.59375 62.3125 
Q 48.875 64.0625 45.09375 64.984375 
Q 41.3125 65.921875 37.59375 65.921875 
Q 27.828125 65.921875 22.671875 59.328125 
Q 17.53125 52.734375 16.796875 39.40625 
Q 19.671875 43.65625 24.015625 45.921875 
Q 28.375 48.1875 33.59375 48.1875 
Q 44.578125 48.1875 50.953125 41.515625 
Q 57.328125 34.859375 57.328125 23.390625 
Q 57.328125 12.15625 50.6875 5.359375 
Q 44.046875 -1.421875 33.015625 -1.421875 
Q 20.359375 -1.421875 13.671875 8.265625 
Q 6.984375 17.96875 6.984375 36.375 
Q 6.984375 53.65625 15.1875 63.9375 
Q 23.390625 74.21875 37.203125 74.21875 
Q 40.921875 74.21875 44.703125 73.484375 
Q 48.484375 72.75 52.59375 71.296875 
z
" id="DejaVuSans-54"/>
       </defs>
       <use xlink:href="#DejaVuSans-56"/>
       <use x="63.623047" xlink:href="#DejaVuSans-54"/>
      </g>
     </g>
    </g>
    <g id="xtick_3">
     <g id="line2d_3">
      <g>
       <use style="stroke:#000000;stroke-width:0.8;" x="367.2" xlink:href="#m489189868b" y="504"/>
      </g>
     </g>
     <g id="text_3">
      <!-- 88 -->
      <g transform="translate(351.93 529.23625)scale(0.24 -0.24)">
       <use xlink:href="#DejaVuSans-56"/>
       <use x="63.623047" xlink:href="#DejaVuSans-56"/>
      </g>
     </g>
    </g>
    <g id="xtick_4">
     <g id="line2d_4">
      <g>
       <use style="stroke:#000000;stroke-width:0.8;" x="478.8" xlink:href="#m489189868b" y="504"/>
      </g>
     </g>
     <g id="text_4">
      <!-- 90 -->
      <g transform="translate(463.53 529.23625)scale(0.24 -0.24)">
       <defs>
        <path d="M 10.984375 1.515625 
L 10.984375 10.5 
Q 14.703125 8.734375 18.5 7.8125 
Q 22.3125 6.890625 25.984375 6.890625 
Q 35.75 6.890625 40.890625 13.453125 
Q 46.046875 20.015625 46.78125 33.40625 
Q 43.953125 29.203125 39.59375 26.953125 
Q 35.25 24.703125 29.984375 24.703125 
Q 19.046875 24.703125 12.671875 31.3125 
Q 6.296875 37.9375 6.296875 49.421875 
Q 6.296875 60.640625 12.9375 67.421875 
Q 19.578125 74.21875 30.609375 74.21875 
Q 43.265625 74.21875 49.921875 64.515625 
Q 56.59375 54.828125 56.59375 36.375 
Q 56.59375 19.140625 48.40625 8.859375 
Q 40.234375 -1.421875 26.421875 -1.421875 
Q 22.703125 -1.421875 18.890625 -0.6875 
Q 15.09375 0.046875 10.984375 1.515625 
z
M 30.609375 32.421875 
Q 37.25 32.421875 41.125 36.953125 
Q 45.015625 41.5 45.015625 49.421875 
Q 45.015625 57.28125 41.125 61.84375 
Q 37.25 66.40625 30.609375 66.40625 
Q 23.96875 66.40625 20.09375 61.84375 
Q 16.21875 57.28125 16.21875 49.421875 
Q 16.21875 41.5 20.09375 36.953125 
Q 23.96875 32.421875 30.609375 32.421875 
z
" id="DejaVuSans-57"/>
        <path d="M 31.78125 66.40625 
Q 24.171875 66.40625 20.328125 58.90625 
Q 16.5 51.421875 16.5 36.375 
Q 16.5 21.390625 20.328125 13.890625 
Q 24.171875 6.390625 31.78125 6.390625 
Q 39.453125 6.390625 43.28125 13.890625 
Q 47.125 21.390625 47.125 36.375 
Q 47.125 51.421875 43.28125 58.90625 
Q 39.453125 66.40625 31.78125 66.40625 
z
M 31.78125 74.21875 
Q 44.046875 74.21875 50.515625 64.515625 
Q 56.984375 54.828125 56.984375 36.375 
Q 56.984375 17.96875 50.515625 8.265625 
Q 44.046875 -1.421875 31.78125 -1.421875 
Q 19.53125 -1.421875 13.0625 8.265625 
Q 6.59375 17.96875 6.59375 36.375 
Q 6.59375 54.828125 13.0625 64.515625 
Q 19.53125 74.21875 31.78125 74.21875 
z
" id="DejaVuSans-48"/>
       </defs>
       <use xlink:href="#DejaVuSans-57"/>
       <use x="63.623047" xlink:href="#DejaVuSans-48"/>
      </g>
     </g>
    </g>
    <g id="xtick_5">
     <g id="line2d_5">
      <g>
       <use style="stroke:#000000;stroke-width:0.8;" x="590.4" xlink:href="#m489189868b" y="504"/>
      </g>
     </g>
     <g id="text_5">
      <!-- 92 -->
      <g transform="translate(575.13 529.23625)scale(0.24 -0.24)">
       <defs>
        <path d="M 19.1875 8.296875 
L 53.609375 8.296875 
L 53.609375 0 
L 7.328125 0 
L 7.328125 8.296875 
Q 12.9375 14.109375 22.625 23.890625 
Q 32.328125 33.6875 34.8125 36.53125 
Q 39.546875 41.84375 41.421875 45.53125 
Q 43.3125 49.21875 43.3125 52.78125 
Q 43.3125 58.59375 39.234375 62.25 
Q 35.15625 65.921875 28.609375 65.921875 
Q 23.96875 65.921875 18.8125 64.3125 
Q 13.671875 62.703125 7.8125 59.421875 
L 7.8125 69.390625 
Q 13.765625 71.78125 18.9375 73 
Q 24.125 74.21875 28.421875 74.21875 
Q 39.75 74.21875 46.484375 68.546875 
Q 53.21875 62.890625 53.21875 53.421875 
Q 53.21875 48.921875 51.53125 44.890625 
Q 49.859375 40.875 45.40625 35.40625 
Q 44.1875 33.984375 37.640625 27.21875 
Q 31.109375 20.453125 19.1875 8.296875 
z
" id="DejaVuSans-50"/>
       </defs>
       <use xlink:href="#DejaVuSans-57"/>
       <use x="63.623047" xlink:href="#DejaVuSans-50"/>
      </g>
     </g>
    </g>
    <g id="xtick_6">
     <g id="line2d_6">
      <g>
       <use style="stroke:#000000;stroke-width:0.8;" x="702" xlink:href="#m489189868b" y="504"/>
      </g>
     </g>
     <g id="text_6">
      <!-- 94 -->
      <g transform="translate(686.73 529.23625)scale(0.24 -0.24)">
       <use xlink:href="#DejaVuSans-57"/>
       <use x="63.623047" xlink:href="#DejaVuSans-52"/>
      </g>
     </g>
    </g>
    <g id="xtick_7">
     <g id="line2d_7">
      <g>
       <use style="stroke:#000000;stroke-width:0.8;" x="813.6" xlink:href="#m489189868b" y="504"/>
      </g>
     </g>
     <g id="text_7">
      <!-- 96 -->
      <g transform="translate(798.33 529.23625)scale(0.24 -0.24)">
       <use xlink:href="#DejaVuSans-57"/>
       <use x="63.623047" xlink:href="#DejaVuSans-54"/>
      </g>
     </g>
    </g>
    <g id="xtick_8">
     <g id="line2d_8">
      <g>
       <use style="stroke:#000000;stroke-width:0.8;" x="925.2" xlink:href="#m489189868b" y="504"/>
      </g>
     </g>
     <g id="text_8">
      <!-- 98 -->
      <g transform="translate(909.93 529.23625)scale(0.24 -0.24)">
       <use xlink:href="#DejaVuSans-57"/>
       <use x="63.623047" xlink:href="#DejaVuSans-56"/>
      </g>
     </g>
    </g>
    <g id="xtick_9">
     <g id="line2d_9">
      <g>
       <use style="stroke:#000000;stroke-width:0.8;" x="1036.8" xlink:href="#m489189868b" y="504"/>
      </g>
     </g>
     <g id="text_9">
      <!-- 100 -->
      <g transform="translate(1013.895 529.23625)scale(0.24 -0.24)">
       <defs>
        <path d="M 12.40625 8.296875 
L 28.515625 8.296875 
L 28.515625 63.921875 
L 10.984375 60.40625 
L 10.984375 69.390625 
L 28.421875 72.90625 
L 38.28125 72.90625 
L 38.28125 8.296875 
L 54.390625 8.296875 
L 54.390625 0 
L 12.40625 0 
z
" id="DejaVuSans-49"/>
       </defs>
       <use xlink:href="#DejaVuSans-49"/>
       <use x="63.623047" xlink:href="#DejaVuSans-48"/>
       <use x="127.246094" xlink:href="#DejaVuSans-48"/>
      </g>
     </g>
    </g>
    <g id="text_10">
     <!-- Accuracy /% -->
     <g transform="translate(504.013437 559.503125)scale(0.28 -0.28)">
      <defs>
       <path d="M 34.1875 63.1875 
L 20.796875 26.90625 
L 47.609375 26.90625 
z
M 28.609375 72.90625 
L 39.796875 72.90625 
L 67.578125 0 
L 57.328125 0 
L 50.6875 18.703125 
L 17.828125 18.703125 
L 11.1875 0 
L 0.78125 0 
z
" id="DejaVuSans-65"/>
       <path d="M 48.78125 52.59375 
L 48.78125 44.1875 
Q 44.96875 46.296875 41.140625 47.34375 
Q 37.3125 48.390625 33.40625 48.390625 
Q 24.65625 48.390625 19.8125 42.84375 
Q 14.984375 37.3125 14.984375 27.296875 
Q 14.984375 17.28125 19.8125 11.734375 
Q 24.65625 6.203125 33.40625 6.203125 
Q 37.3125 6.203125 41.140625 7.25 
Q 44.96875 8.296875 48.78125 10.40625 
L 48.78125 2.09375 
Q 45.015625 0.34375 40.984375 -0.53125 
Q 36.96875 -1.421875 32.421875 -1.421875 
Q 20.0625 -1.421875 12.78125 6.34375 
Q 5.515625 14.109375 5.515625 27.296875 
Q 5.515625 40.671875 12.859375 48.328125 
Q 20.21875 56 33.015625 56 
Q 37.15625 56 41.109375 55.140625 
Q 45.0625 54.296875 48.78125 52.59375 
z
" id="DejaVuSans-99"/>
       <path d="M 8.5 21.578125 
L 8.5 54.6875 
L 17.484375 54.6875 
L 17.484375 21.921875 
Q 17.484375 14.15625 20.5 10.265625 
Q 23.53125 6.390625 29.59375 6.390625 
Q 36.859375 6.390625 41.078125 11.03125 
Q 45.3125 15.671875 45.3125 23.6875 
L 45.3125 54.6875 
L 54.296875 54.6875 
L 54.296875 0 
L 45.3125 0 
L 45.3125 8.40625 
Q 42.046875 3.421875 37.71875 1 
Q 33.40625 -1.421875 27.6875 -1.421875 
Q 18.265625 -1.421875 13.375 4.4375 
Q 8.5 10.296875 8.5 21.578125 
z
M 31.109375 56 
z
" id="DejaVuSans-117"/>
       <path d="M 41.109375 46.296875 
Q 39.59375 47.171875 37.8125 47.578125 
Q 36.03125 48 33.890625 48 
Q 26.265625 48 22.1875 43.046875 
Q 18.109375 38.09375 18.109375 28.8125 
L 18.109375 0 
L 9.078125 0 
L 9.078125 54.6875 
L 18.109375 54.6875 
L 18.109375 46.1875 
Q 20.953125 51.171875 25.484375 53.578125 
Q 30.03125 56 36.53125 56 
Q 37.453125 56 38.578125 55.875 
Q 39.703125 55.765625 41.0625 55.515625 
z
" id="DejaVuSans-114"/>
       <path d="M 34.28125 27.484375 
Q 23.390625 27.484375 19.1875 25 
Q 14.984375 22.515625 14.984375 16.5 
Q 14.984375 11.71875 18.140625 8.90625 
Q 21.296875 6.109375 26.703125 6.109375 
Q 34.1875 6.109375 38.703125 11.40625 
Q 43.21875 16.703125 43.21875 25.484375 
L 43.21875 27.484375 
z
M 52.203125 31.203125 
L 52.203125 0 
L 43.21875 0 
L 43.21875 8.296875 
Q 40.140625 3.328125 35.546875 0.953125 
Q 30.953125 -1.421875 24.3125 -1.421875 
Q 15.921875 -1.421875 10.953125 3.296875 
Q 6 8.015625 6 15.921875 
Q 6 25.140625 12.171875 29.828125 
Q 18.359375 34.515625 30.609375 34.515625 
L 43.21875 34.515625 
L 43.21875 35.40625 
Q 43.21875 41.609375 39.140625 45 
Q 35.0625 48.390625 27.6875 48.390625 
Q 23 48.390625 18.546875 47.265625 
Q 14.109375 46.140625 10.015625 43.890625 
L 10.015625 52.203125 
Q 14.9375 54.109375 19.578125 55.046875 
Q 24.21875 56 28.609375 56 
Q 40.484375 56 46.34375 49.84375 
Q 52.203125 43.703125 52.203125 31.203125 
z
" id="DejaVuSans-97"/>
       <path d="M 32.171875 -5.078125 
Q 28.375 -14.84375 24.75 -17.8125 
Q 21.140625 -20.796875 15.09375 -20.796875 
L 7.90625 -20.796875 
L 7.90625 -13.28125 
L 13.1875 -13.28125 
Q 16.890625 -13.28125 18.9375 -11.515625 
Q 21 -9.765625 23.484375 -3.21875 
L 25.09375 0.875 
L 2.984375 54.6875 
L 12.5 54.6875 
L 29.59375 11.921875 
L 46.6875 54.6875 
L 56.203125 54.6875 
z
" id="DejaVuSans-121"/>
       <path id="DejaVuSans-32"/>
       <path d="M 25.390625 72.90625 
L 33.6875 72.90625 
L 8.296875 -9.28125 
L 0 -9.28125 
z
" id="DejaVuSans-47"/>
       <path d="M 72.703125 32.078125 
Q 68.453125 32.078125 66.03125 28.46875 
Q 63.625 24.859375 63.625 18.40625 
Q 63.625 12.0625 66.03125 8.421875 
Q 68.453125 4.78125 72.703125 4.78125 
Q 76.859375 4.78125 79.265625 8.421875 
Q 81.6875 12.0625 81.6875 18.40625 
Q 81.6875 24.8125 79.265625 28.4375 
Q 76.859375 32.078125 72.703125 32.078125 
z
M 72.703125 38.28125 
Q 80.421875 38.28125 84.953125 32.90625 
Q 89.5 27.546875 89.5 18.40625 
Q 89.5 9.28125 84.9375 3.921875 
Q 80.375 -1.421875 72.703125 -1.421875 
Q 64.890625 -1.421875 60.34375 3.921875 
Q 55.8125 9.28125 55.8125 18.40625 
Q 55.8125 27.59375 60.375 32.9375 
Q 64.9375 38.28125 72.703125 38.28125 
z
M 22.3125 68.015625 
Q 18.109375 68.015625 15.6875 64.375 
Q 13.28125 60.75 13.28125 54.390625 
Q 13.28125 47.953125 15.671875 44.328125 
Q 18.0625 40.71875 22.3125 40.71875 
Q 26.5625 40.71875 28.96875 44.328125 
Q 31.390625 47.953125 31.390625 54.390625 
Q 31.390625 60.6875 28.953125 64.34375 
Q 26.515625 68.015625 22.3125 68.015625 
z
M 66.40625 74.21875 
L 74.21875 74.21875 
L 28.609375 -1.421875 
L 20.796875 -1.421875 
z
M 22.3125 74.21875 
Q 30.03125 74.21875 34.609375 68.875 
Q 39.203125 63.53125 39.203125 54.390625 
Q 39.203125 45.171875 34.640625 39.84375 
Q 30.078125 34.515625 22.3125 34.515625 
Q 14.546875 34.515625 10.03125 39.859375 
Q 5.515625 45.21875 5.515625 54.390625 
Q 5.515625 63.484375 10.046875 68.84375 
Q 14.59375 74.21875 22.3125 74.21875 
z
" id="DejaVuSans-37"/>
      </defs>
      <use xlink:href="#DejaVuSans-65"/>
      <use x="66.658203" xlink:href="#DejaVuSans-99"/>
      <use x="121.638672" xlink:href="#DejaVuSans-99"/>
      <use x="176.619141" xlink:href="#DejaVuSans-117"/>
      <use x="239.998047" xlink:href="#DejaVuSans-114"/>
      <use x="281.111328" xlink:href="#DejaVuSans-97"/>
      <use x="342.390625" xlink:href="#DejaVuSans-99"/>
      <use x="397.371094" xlink:href="#DejaVuSans-121"/>
      <use x="456.550781" xlink:href="#DejaVuSans-32"/>
      <use x="488.337891" xlink:href="#DejaVuSans-47"/>
      <use x="522.029297" xlink:href="#DejaVuSans-37"/>
     </g>
    </g>
   </g>
   <g id="matplotlib.axis_2">
    <g id="ytick_1">
     <g id="line2d_10">
      <defs>
       <path d="M 0 0 
L -3.5 0 
" id="m4a9d248b6d" style="stroke:#000000;stroke-width:0.8;"/>
      </defs>
      <g>
       <use style="stroke:#000000;stroke-width:0.8;" x="144" xlink:href="#m4a9d248b6d" y="444.362283"/>
      </g>
     </g>
     <g id="text_11">
      <!-- $\mathdefault{10^{1}}$ -->
      <g transform="translate(94.76 453.480408)scale(0.24 -0.24)">
       <use transform="translate(0 0.684375)" xlink:href="#DejaVuSans-49"/>
       <use transform="translate(63.623047 0.684375)" xlink:href="#DejaVuSans-48"/>
       <use transform="translate(128.203125 38.965625)scale(0.7)" xlink:href="#DejaVuSans-49"/>
      </g>
     </g>
    </g>
    <g id="ytick_2">
     <g id="line2d_11">
      <g>
       <use style="stroke:#000000;stroke-width:0.8;" x="144" xlink:href="#m4a9d248b6d" y="359.04"/>
      </g>
     </g>
     <g id="text_12">
      <!-- $\mathdefault{10^{2}}$ -->
      <g transform="translate(94.76 368.158125)scale(0.24 -0.24)">
       <use transform="translate(0 0.765625)" xlink:href="#DejaVuSans-49"/>
       <use transform="translate(63.623047 0.765625)" xlink:href="#DejaVuSans-48"/>
       <use transform="translate(128.203125 39.046875)scale(0.7)" xlink:href="#DejaVuSans-50"/>
      </g>
     </g>
    </g>
    <g id="ytick_3">
     <g id="line2d_12">
      <g>
       <use style="stroke:#000000;stroke-width:0.8;" x="144" xlink:href="#m4a9d248b6d" y="273.717717"/>
      </g>
     </g>
     <g id="text_13">
      <!-- $\mathdefault{10^{3}}$ -->
      <g transform="translate(94.76 282.835842)scale(0.24 -0.24)">
       <defs>
        <path d="M 40.578125 39.3125 
Q 47.65625 37.796875 51.625 33 
Q 55.609375 28.21875 55.609375 21.1875 
Q 55.609375 10.40625 48.1875 4.484375 
Q 40.765625 -1.421875 27.09375 -1.421875 
Q 22.515625 -1.421875 17.65625 -0.515625 
Q 12.796875 0.390625 7.625 2.203125 
L 7.625 11.71875 
Q 11.71875 9.328125 16.59375 8.109375 
Q 21.484375 6.890625 26.8125 6.890625 
Q 36.078125 6.890625 40.9375 10.546875 
Q 45.796875 14.203125 45.796875 21.1875 
Q 45.796875 27.640625 41.28125 31.265625 
Q 36.765625 34.90625 28.71875 34.90625 
L 20.21875 34.90625 
L 20.21875 43.015625 
L 29.109375 43.015625 
Q 36.375 43.015625 40.234375 45.921875 
Q 44.09375 48.828125 44.09375 54.296875 
Q 44.09375 59.90625 40.109375 62.90625 
Q 36.140625 65.921875 28.71875 65.921875 
Q 24.65625 65.921875 20.015625 65.03125 
Q 15.375 64.15625 9.8125 62.3125 
L 9.8125 71.09375 
Q 15.4375 72.65625 20.34375 73.4375 
Q 25.25 74.21875 29.59375 74.21875 
Q 40.828125 74.21875 47.359375 69.109375 
Q 53.90625 64.015625 53.90625 55.328125 
Q 53.90625 49.265625 50.4375 45.09375 
Q 46.96875 40.921875 40.578125 39.3125 
z
" id="DejaVuSans-51"/>
       </defs>
       <use transform="translate(0 0.765625)" xlink:href="#DejaVuSans-49"/>
       <use transform="translate(63.623047 0.765625)" xlink:href="#DejaVuSans-48"/>
       <use transform="translate(128.203125 39.046875)scale(0.7)" xlink:href="#DejaVuSans-51"/>
      </g>
     </g>
    </g>
    <g id="ytick_4">
     <g id="line2d_13">
      <g>
       <use style="stroke:#000000;stroke-width:0.8;" x="144" xlink:href="#m4a9d248b6d" y="188.395433"/>
      </g>
     </g>
     <g id="text_14">
      <!-- $\mathdefault{10^{4}}$ -->
      <g transform="translate(94.76 197.513558)scale(0.24 -0.24)">
       <use transform="translate(0 0.684375)" xlink:href="#DejaVuSans-49"/>
       <use transform="translate(63.623047 0.684375)" xlink:href="#DejaVuSans-48"/>
       <use transform="translate(128.203125 38.965625)scale(0.7)" xlink:href="#DejaVuSans-52"/>
      </g>
     </g>
    </g>
    <g id="ytick_5">
     <g id="line2d_14">
      <g>
       <use style="stroke:#000000;stroke-width:0.8;" x="144" xlink:href="#m4a9d248b6d" y="103.07315"/>
      </g>
     </g>
     <g id="text_15">
      <!-- $\mathdefault{10^{5}}$ -->
      <g transform="translate(94.76 112.191275)scale(0.24 -0.24)">
       <defs>
        <path d="M 10.796875 72.90625 
L 49.515625 72.90625 
L 49.515625 64.59375 
L 19.828125 64.59375 
L 19.828125 46.734375 
Q 21.96875 47.46875 24.109375 47.828125 
Q 26.265625 48.1875 28.421875 48.1875 
Q 40.625 48.1875 47.75 41.5 
Q 54.890625 34.8125 54.890625 23.390625 
Q 54.890625 11.625 47.5625 5.09375 
Q 40.234375 -1.421875 26.90625 -1.421875 
Q 22.3125 -1.421875 17.546875 -0.640625 
Q 12.796875 0.140625 7.71875 1.703125 
L 7.71875 11.625 
Q 12.109375 9.234375 16.796875 8.0625 
Q 21.484375 6.890625 26.703125 6.890625 
Q 35.15625 6.890625 40.078125 11.328125 
Q 45.015625 15.765625 45.015625 23.390625 
Q 45.015625 31 40.078125 35.4375 
Q 35.15625 39.890625 26.703125 39.890625 
Q 22.75 39.890625 18.8125 39.015625 
Q 14.890625 38.140625 10.796875 36.28125 
z
" id="DejaVuSans-53"/>
       </defs>
       <use transform="translate(0 0.684375)" xlink:href="#DejaVuSans-49"/>
       <use transform="translate(63.623047 0.684375)" xlink:href="#DejaVuSans-48"/>
       <use transform="translate(128.203125 38.965625)scale(0.7)" xlink:href="#DejaVuSans-53"/>
      </g>
     </g>
    </g>
    <g id="ytick_6">
     <g id="line2d_15">
      <defs>
       <path d="M 0 0 
L -2 0 
" id="m9140cf450f" style="stroke:#000000;stroke-width:0.6;"/>
      </defs>
      <g>
       <use style="stroke:#000000;stroke-width:0.6;" x="144" xlink:href="#m9140cf450f" y="504"/>
      </g>
     </g>
    </g>
    <g id="ytick_7">
     <g id="line2d_16">
      <g>
       <use style="stroke:#000000;stroke-width:0.6;" x="144" xlink:href="#m9140cf450f" y="488.975492"/>
      </g>
     </g>
    </g>
    <g id="ytick_8">
     <g id="line2d_17">
      <g>
       <use style="stroke:#000000;stroke-width:0.6;" x="144" xlink:href="#m9140cf450f" y="478.315433"/>
      </g>
     </g>
    </g>
    <g id="ytick_9">
     <g id="line2d_18">
      <g>
       <use style="stroke:#000000;stroke-width:0.6;" x="144" xlink:href="#m9140cf450f" y="470.04685"/>
      </g>
     </g>
    </g>
    <g id="ytick_10">
     <g id="line2d_19">
      <g>
       <use style="stroke:#000000;stroke-width:0.6;" x="144" xlink:href="#m9140cf450f" y="463.290925"/>
      </g>
     </g>
    </g>
    <g id="ytick_11">
     <g id="line2d_20">
      <g>
       <use style="stroke:#000000;stroke-width:0.6;" x="144" xlink:href="#m9140cf450f" y="457.578872"/>
      </g>
     </g>
    </g>
    <g id="ytick_12">
     <g id="line2d_21">
      <g>
       <use style="stroke:#000000;stroke-width:0.6;" x="144" xlink:href="#m9140cf450f" y="452.630867"/>
      </g>
     </g>
    </g>
    <g id="ytick_13">
     <g id="line2d_22">
      <g>
       <use style="stroke:#000000;stroke-width:0.6;" x="144" xlink:href="#m9140cf450f" y="448.266417"/>
      </g>
     </g>
    </g>
    <g id="ytick_14">
     <g id="line2d_23">
      <g>
       <use style="stroke:#000000;stroke-width:0.6;" x="144" xlink:href="#m9140cf450f" y="418.677717"/>
      </g>
     </g>
    </g>
    <g id="ytick_15">
     <g id="line2d_24">
      <g>
       <use style="stroke:#000000;stroke-width:0.6;" x="144" xlink:href="#m9140cf450f" y="403.653208"/>
      </g>
     </g>
    </g>
    <g id="ytick_16">
     <g id="line2d_25">
      <g>
       <use style="stroke:#000000;stroke-width:0.6;" x="144" xlink:href="#m9140cf450f" y="392.99315"/>
      </g>
     </g>
    </g>
    <g id="ytick_17">
     <g id="line2d_26">
      <g>
       <use style="stroke:#000000;stroke-width:0.6;" x="144" xlink:href="#m9140cf450f" y="384.724567"/>
      </g>
     </g>
    </g>
    <g id="ytick_18">
     <g id="line2d_27">
      <g>
       <use style="stroke:#000000;stroke-width:0.6;" x="144" xlink:href="#m9140cf450f" y="377.968642"/>
      </g>
     </g>
    </g>
    <g id="ytick_19">
     <g id="line2d_28">
      <g>
       <use style="stroke:#000000;stroke-width:0.6;" x="144" xlink:href="#m9140cf450f" y="372.256589"/>
      </g>
     </g>
    </g>
    <g id="ytick_20">
     <g id="line2d_29">
      <g>
       <use style="stroke:#000000;stroke-width:0.6;" x="144" xlink:href="#m9140cf450f" y="367.308584"/>
      </g>
     </g>
    </g>
    <g id="ytick_21">
     <g id="line2d_30">
      <g>
       <use style="stroke:#000000;stroke-width:0.6;" x="144" xlink:href="#m9140cf450f" y="362.944134"/>
      </g>
     </g>
    </g>
    <g id="ytick_22">
     <g id="line2d_31">
      <g>
       <use style="stroke:#000000;stroke-width:0.6;" x="144" xlink:href="#m9140cf450f" y="333.355433"/>
      </g>
     </g>
    </g>
    <g id="ytick_23">
     <g id="line2d_32">
      <g>
       <use style="stroke:#000000;stroke-width:0.6;" x="144" xlink:href="#m9140cf450f" y="318.330925"/>
      </g>
     </g>
    </g>
    <g id="ytick_24">
     <g id="line2d_33">
      <g>
       <use style="stroke:#000000;stroke-width:0.6;" x="144" xlink:href="#m9140cf450f" y="307.670867"/>
      </g>
     </g>
    </g>
    <g id="ytick_25">
     <g id="line2d_34">
      <g>
       <use style="stroke:#000000;stroke-width:0.6;" x="144" xlink:href="#m9140cf450f" y="299.402283"/>
      </g>
     </g>
    </g>
    <g id="ytick_26">
     <g id="line2d_35">
      <g>
       <use style="stroke:#000000;stroke-width:0.6;" x="144" xlink:href="#m9140cf450f" y="292.646359"/>
      </g>
     </g>
    </g>
    <g id="ytick_27">
     <g id="line2d_36">
      <g>
       <use style="stroke:#000000;stroke-width:0.6;" x="144" xlink:href="#m9140cf450f" y="286.934306"/>
      </g>
     </g>
    </g>
    <g id="ytick_28">
     <g id="line2d_37">
      <g>
       <use style="stroke:#000000;stroke-width:0.6;" x="144" xlink:href="#m9140cf450f" y="281.9863"/>
      </g>
     </g>
    </g>
    <g id="ytick_29">
     <g id="line2d_38">
      <g>
       <use style="stroke:#000000;stroke-width:0.6;" x="144" xlink:href="#m9140cf450f" y="277.62185"/>
      </g>
     </g>
    </g>
    <g id="ytick_30">
     <g id="line2d_39">
      <g>
       <use style="stroke:#000000;stroke-width:0.6;" x="144" xlink:href="#m9140cf450f" y="248.03315"/>
      </g>
     </g>
    </g>
    <g id="ytick_31">
     <g id="line2d_40">
      <g>
       <use style="stroke:#000000;stroke-width:0.6;" x="144" xlink:href="#m9140cf450f" y="233.008642"/>
      </g>
     </g>
    </g>
    <g id="ytick_32">
     <g id="line2d_41">
      <g>
       <use style="stroke:#000000;stroke-width:0.6;" x="144" xlink:href="#m9140cf450f" y="222.348584"/>
      </g>
     </g>
    </g>
    <g id="ytick_33">
     <g id="line2d_42">
      <g>
       <use style="stroke:#000000;stroke-width:0.6;" x="144" xlink:href="#m9140cf450f" y="214.08"/>
      </g>
     </g>
    </g>
    <g id="ytick_34">
     <g id="line2d_43">
      <g>
       <use style="stroke:#000000;stroke-width:0.6;" x="144" xlink:href="#m9140cf450f" y="207.324075"/>
      </g>
     </g>
    </g>
    <g id="ytick_35">
     <g id="line2d_44">
      <g>
       <use style="stroke:#000000;stroke-width:0.6;" x="144" xlink:href="#m9140cf450f" y="201.612022"/>
      </g>
     </g>
    </g>
    <g id="ytick_36">
     <g id="line2d_45">
      <g>
       <use style="stroke:#000000;stroke-width:0.6;" x="144" xlink:href="#m9140cf450f" y="196.664017"/>
      </g>
     </g>
    </g>
    <g id="ytick_37">
     <g id="line2d_46">
      <g>
       <use style="stroke:#000000;stroke-width:0.6;" x="144" xlink:href="#m9140cf450f" y="192.299567"/>
      </g>
     </g>
    </g>
    <g id="ytick_38">
     <g id="line2d_47">
      <g>
       <use style="stroke:#000000;stroke-width:0.6;" x="144" xlink:href="#m9140cf450f" y="162.710867"/>
      </g>
     </g>
    </g>
    <g id="ytick_39">
     <g id="line2d_48">
      <g>
       <use style="stroke:#000000;stroke-width:0.6;" x="144" xlink:href="#m9140cf450f" y="147.686359"/>
      </g>
     </g>
    </g>
    <g id="ytick_40">
     <g id="line2d_49">
      <g>
       <use style="stroke:#000000;stroke-width:0.6;" x="144" xlink:href="#m9140cf450f" y="137.0263"/>
      </g>
     </g>
    </g>
    <g id="ytick_41">
     <g id="line2d_50">
      <g>
       <use style="stroke:#000000;stroke-width:0.6;" x="144" xlink:href="#m9140cf450f" y="128.757717"/>
      </g>
     </g>
    </g>
    <g id="ytick_42">
     <g id="line2d_51">
      <g>
       <use style="stroke:#000000;stroke-width:0.6;" x="144" xlink:href="#m9140cf450f" y="122.001792"/>
      </g>
     </g>
    </g>
    <g id="ytick_43">
     <g id="line2d_52">
      <g>
       <use style="stroke:#000000;stroke-width:0.6;" x="144" xlink:href="#m9140cf450f" y="116.289739"/>
      </g>
     </g>
    </g>
    <g id="ytick_44">
     <g id="line2d_53">
      <g>
       <use style="stroke:#000000;stroke-width:0.6;" x="144" xlink:href="#m9140cf450f" y="111.341734"/>
      </g>
     </g>
    </g>
    <g id="ytick_45">
     <g id="line2d_54">
      <g>
       <use style="stroke:#000000;stroke-width:0.6;" x="144" xlink:href="#m9140cf450f" y="106.977284"/>
      </g>
     </g>
    </g>
    <g id="ytick_46">
     <g id="line2d_55">
      <g>
       <use style="stroke:#000000;stroke-width:0.6;" x="144" xlink:href="#m9140cf450f" y="77.388584"/>
      </g>
     </g>
    </g>
    <g id="text_16">
     <!-- Energy /A.U. -->
     <g transform="translate(84.936875 373.22)rotate(-90)scale(0.28 -0.28)">
      <defs>
       <path d="M 9.8125 72.90625 
L 55.90625 72.90625 
L 55.90625 64.59375 
L 19.671875 64.59375 
L 19.671875 43.015625 
L 54.390625 43.015625 
L 54.390625 34.71875 
L 19.671875 34.71875 
L 19.671875 8.296875 
L 56.78125 8.296875 
L 56.78125 0 
L 9.8125 0 
z
" id="DejaVuSans-69"/>
       <path d="M 54.890625 33.015625 
L 54.890625 0 
L 45.90625 0 
L 45.90625 32.71875 
Q 45.90625 40.484375 42.875 44.328125 
Q 39.84375 48.1875 33.796875 48.1875 
Q 26.515625 48.1875 22.3125 43.546875 
Q 18.109375 38.921875 18.109375 30.90625 
L 18.109375 0 
L 9.078125 0 
L 9.078125 54.6875 
L 18.109375 54.6875 
L 18.109375 46.1875 
Q 21.34375 51.125 25.703125 53.5625 
Q 30.078125 56 35.796875 56 
Q 45.21875 56 50.046875 50.171875 
Q 54.890625 44.34375 54.890625 33.015625 
z
" id="DejaVuSans-110"/>
       <path d="M 56.203125 29.59375 
L 56.203125 25.203125 
L 14.890625 25.203125 
Q 15.484375 15.921875 20.484375 11.0625 
Q 25.484375 6.203125 34.421875 6.203125 
Q 39.59375 6.203125 44.453125 7.46875 
Q 49.3125 8.734375 54.109375 11.28125 
L 54.109375 2.78125 
Q 49.265625 0.734375 44.1875 -0.34375 
Q 39.109375 -1.421875 33.890625 -1.421875 
Q 20.796875 -1.421875 13.15625 6.1875 
Q 5.515625 13.8125 5.515625 26.8125 
Q 5.515625 40.234375 12.765625 48.109375 
Q 20.015625 56 32.328125 56 
Q 43.359375 56 49.78125 48.890625 
Q 56.203125 41.796875 56.203125 29.59375 
z
M 47.21875 32.234375 
Q 47.125 39.59375 43.09375 43.984375 
Q 39.0625 48.390625 32.421875 48.390625 
Q 24.90625 48.390625 20.390625 44.140625 
Q 15.875 39.890625 15.1875 32.171875 
z
" id="DejaVuSans-101"/>
       <path d="M 45.40625 27.984375 
Q 45.40625 37.75 41.375 43.109375 
Q 37.359375 48.484375 30.078125 48.484375 
Q 22.859375 48.484375 18.828125 43.109375 
Q 14.796875 37.75 14.796875 27.984375 
Q 14.796875 18.265625 18.828125 12.890625 
Q 22.859375 7.515625 30.078125 7.515625 
Q 37.359375 7.515625 41.375 12.890625 
Q 45.40625 18.265625 45.40625 27.984375 
z
M 54.390625 6.78125 
Q 54.390625 -7.171875 48.1875 -13.984375 
Q 42 -20.796875 29.203125 -20.796875 
Q 24.46875 -20.796875 20.265625 -20.09375 
Q 16.0625 -19.390625 12.109375 -17.921875 
L 12.109375 -9.1875 
Q 16.0625 -11.328125 19.921875 -12.34375 
Q 23.78125 -13.375 27.78125 -13.375 
Q 36.625 -13.375 41.015625 -8.765625 
Q 45.40625 -4.15625 45.40625 5.171875 
L 45.40625 9.625 
Q 42.625 4.78125 38.28125 2.390625 
Q 33.9375 0 27.875 0 
Q 17.828125 0 11.671875 7.65625 
Q 5.515625 15.328125 5.515625 27.984375 
Q 5.515625 40.671875 11.671875 48.328125 
Q 17.828125 56 27.875 56 
Q 33.9375 56 38.28125 53.609375 
Q 42.625 51.21875 45.40625 46.390625 
L 45.40625 54.6875 
L 54.390625 54.6875 
z
" id="DejaVuSans-103"/>
       <path d="M 10.6875 12.40625 
L 21 12.40625 
L 21 0 
L 10.6875 0 
z
" id="DejaVuSans-46"/>
       <path d="M 8.6875 72.90625 
L 18.609375 72.90625 
L 18.609375 28.609375 
Q 18.609375 16.890625 22.84375 11.734375 
Q 27.09375 6.59375 36.625 6.59375 
Q 46.09375 6.59375 50.34375 11.734375 
Q 54.59375 16.890625 54.59375 28.609375 
L 54.59375 72.90625 
L 64.5 72.90625 
L 64.5 27.390625 
Q 64.5 13.140625 57.4375 5.859375 
Q 50.390625 -1.421875 36.625 -1.421875 
Q 22.796875 -1.421875 15.734375 5.859375 
Q 8.6875 13.140625 8.6875 27.390625 
z
" id="DejaVuSans-85"/>
      </defs>
      <use xlink:href="#DejaVuSans-69"/>
      <use x="63.183594" xlink:href="#DejaVuSans-110"/>
      <use x="126.5625" xlink:href="#DejaVuSans-101"/>
      <use x="188.085938" xlink:href="#DejaVuSans-114"/>
      <use x="227.449219" xlink:href="#DejaVuSans-103"/>
      <use x="290.925781" xlink:href="#DejaVuSans-121"/>
      <use x="350.105469" xlink:href="#DejaVuSans-32"/>
      <use x="381.892578" xlink:href="#DejaVuSans-47"/>
      <use x="415.583984" xlink:href="#DejaVuSans-65"/>
      <use x="482.242188" xlink:href="#DejaVuSans-46"/>
      <use x="514.029297" xlink:href="#DejaVuSans-85"/>
      <use x="587.222656" xlink:href="#DejaVuSans-46"/>
     </g>
    </g>
   </g>
   <g id="line2d_56">
    <path clip-path="url(#p27ef3de6ac)" d="M 82.62 254.697012 
L 333.72 232.137981 
L 393.984 219.562737 
L 450.342 211.068861 
L 486.054 204.464873 
L 490.518 199.189141 
L 498.33 194.861509 
L 540.18 190.926075 
L 553.572 187.399949 
L 581.472 184.318915 
L 588.726 181.566287 
L 577.008 178.992361 
L 608.814 176.733235 
L 611.046 174.48694 
L 587.052 172.466773 
L 626.67 170.524413 
L 623.322 168.841502 
L 642.294 167.139453 
L 654.57 165.579702 
L 646.758 164.155904 
L 613.836 162.791553 
L 665.172 161.363449 
L 675.216 160.041446 
L 685.818 158.830966 
L 662.94 157.705757 
L 677.448 156.598619 
L 685.818 155.474758 
L 696.978 154.496674 
L 686.376 153.517392 
L 692.514 152.57197 
L 689.724 151.625936 
L 704.232 150.665531 
L 711.486 149.802399 
L 706.464 148.969102 
L 722.088 148.118908 
L 716.508 147.372191 
L 722.088 146.612697 
L 708.138 145.904592 
L 740.502 144.464127 
L 751.104 143.781699 
L 736.038 143.118082 
L 742.176 142.431833 
L 749.988 141.783649 
L 739.386 141.165966 
L 753.336 140.591827 
L 756.684 139.994282 
L 755.568 139.412494 
L 763.938 138.863914 
L 763.38 138.308731 
L 756.684 137.77582 
L 772.308 136.702765 
L 765.612 136.209502 
L 767.286 135.718943 
L 778.446 135.276147 
L 774.54 134.765442 
L 782.91 133.811176 
L 789.048 133.357737 
L 775.098 132.934769 
L 787.932 132.489828 
L 783.468 132.064851 
L 785.142 131.649058 
L 784.584 131.240496 
L 791.838 130.849422 
L 795.186 130.426969 
L 786.816 130.03026 
L 790.164 129.647031 
L 787.932 129.255592 
L 800.766 128.877874 
L 805.23 128.499316 
L 800.208 128.132958 
L 800.208 127.78895 
L 809.136 127.436469 
L 800.208 127.119502 
L 809.136 126.77879 
L 806.346 126.414746 
L 815.274 126.082038 
L 808.02 125.758115 
L 813.6 125.414541 
L 816.39 125.08308 
L 808.02 124.762195 
L 815.832 124.439774 
L 819.738 124.131134 
L 818.622 123.818738 
L 824.202 123.507891 
L 817.506 123.207437 
L 821.412 122.919149 
L 820.296 122.630979 
L 824.202 122.343534 
L 823.086 122.042566 
L 824.76 121.746781 
L 821.412 121.469961 
L 825.876 121.199753 
L 830.34 120.709413 
L 829.782 120.458113 
L 828.666 120.201163 
L 832.014 119.923326 
L 830.34 119.658416 
L 824.76 119.40866 
L 828.666 119.145071 
L 840.942 118.89239 
L 835.362 118.642856 
L 833.688 118.395973 
L 838.71 118.153676 
L 832.014 117.9064 
L 839.826 117.662306 
L 833.13 117.445621 
L 836.478 117.224335 
L 846.522 116.986487 
L 839.268 116.762454 
L 837.036 116.525309 
L 852.66 116.065819 
L 845.964 115.859517 
L 850.986 115.620715 
L 851.544 115.408637 
L 850.986 115.198146 
L 845.964 114.993994 
L 849.87 114.78379 
L 844.29 114.59214 
L 844.29 114.386381 
L 843.732 114.193849 
L 849.87 113.991404 
L 847.638 113.791024 
L 848.196 113.585247 
L 839.826 113.369299 
L 853.218 112.962814 
L 853.776 112.770511 
L 852.102 112.590975 
L 857.124 112.393824 
L 850.986 112.023999 
L 846.522 111.842883 
L 856.008 111.661153 
L 841.5 111.473895 
L 859.356 111.302455 
L 850.986 111.117555 
L 856.008 110.74595 
L 864.936 110.565254 
L 861.588 110.395453 
L 855.45 110.230735 
L 861.03 110.049522 
L 861.588 109.88809 
L 861.588 109.711266 
L 858.798 109.537366 
L 866.052 109.359311 
L 864.936 109.206575 
L 862.704 109.043972 
L 871.074 108.8791 
L 858.798 108.713063 
L 862.146 108.548318 
L 858.798 108.394584 
L 861.588 108.229089 
L 867.168 108.064043 
L 867.168 107.903548 
L 866.052 107.762712 
L 866.052 107.615974 
L 862.146 107.460899 
L 866.052 107.300825 
L 858.798 107.149946 
L 867.726 106.990345 
L 864.936 106.84344 
L 873.864 106.556896 
L 867.168 106.419215 
L 870.516 106.276103 
L 865.494 106.125605 
L 872.748 105.993135 
L 873.306 105.846421 
L 871.074 105.707827 
L 872.19 105.559969 
L 862.146 105.427172 
L 869.958 105.132741 
L 871.632 104.989565 
L 874.98 104.861792 
L 869.4 104.724737 
L 873.864 104.592192 
L 872.19 104.450507 
L 876.096 104.328364 
L 872.19 104.199448 
L 859.914 104.063243 
L 873.306 103.924552 
L 870.516 103.789537 
L 872.19 103.538019 
L 867.168 103.398912 
L 882.792 103.278695 
L 872.748 103.15045 
L 874.422 103.027942 
L 874.422 102.90775 
L 872.19 102.778917 
L 867.168 102.651965 
L 872.19 102.535496 
L 865.494 102.416212 
L 877.212 102.15799 
L 868.284 102.036034 
L 877.77 101.793262 
L 872.748 101.683809 
L 873.306 101.577669 
L 876.096 101.450272 
L 867.726 101.339651 
L 878.886 101.231624 
L 872.748 101.117912 
L 873.864 100.997245 
L 877.212 100.772457 
L 876.096 100.643722 
L 877.77 100.525813 
L 883.908 100.406818 
L 881.118 100.183154 
L 880.56 100.077886 
L 873.306 99.973524 
L 880.56 99.859739 
L 877.212 99.7573 
L 877.77 99.651429 
L 885.024 99.543158 
L 880.56 99.426929 
L 870.516 99.32204 
L 874.98 99.221991 
L 872.748 99.126468 
L 874.422 99.026191 
L 887.256 98.820277 
L 877.212 98.728287 
L 881.118 98.524955 
L 876.654 98.425166 
L 885.024 98.203191 
L 874.98 98.098353 
L 885.582 97.894879 
L 880.56 97.792133 
L 882.792 97.700076 
L 873.864 97.602478 
L 884.466 97.507051 
L 869.958 97.308842 
L 885.582 97.217628 
L 877.77 97.119126 
L 878.328 97.023499 
L 874.98 96.934169 
L 885.024 96.832225 
L 876.654 96.570402 
L 880.002 96.47686 
L 877.212 96.288662 
L 878.886 96.106736 
L 878.328 96.009873 
L 872.19 95.912109 
L 875.538 95.816921 
L 885.582 95.730939 
L 876.654 95.646967 
L 888.93 95.560477 
L 884.466 95.380624 
L 885.024 95.285112 
L 879.444 95.201827 
L 883.908 95.117597 
L 871.074 94.944615 
L 885.024 94.8564 
L 881.676 94.771361 
L 890.046 94.686328 
L 877.77 94.531063 
L 886.14 94.29613 
L 870.516 94.122538 
L 888.372 94.037257 
L 886.698 93.946123 
L 888.93 93.862244 
L 878.328 93.685754 
L 890.046 93.608408 
L 888.93 93.529356 
L 885.582 93.444044 
L 888.93 93.366141 
L 884.466 93.202649 
L 889.488 93.121698 
L 875.538 92.891402 
L 880.002 92.805561 
L 884.466 92.663477 
L 880.56 92.588268 
L 886.14 92.516296 
L 885.024 92.434223 
L 889.488 92.276699 
L 883.908 92.204306 
L 892.278 92.122453 
L 890.046 92.045179 
L 879.444 91.972822 
L 883.35 91.902465 
L 891.162 91.75126 
L 884.466 91.606705 
L 883.908 91.53892 
L 889.488 91.399645 
L 886.14 91.329014 
L 890.604 91.253611 
L 887.256 91.111229 
L 888.372 91.028344 
L 881.676 90.956823 
L 885.024 90.89246 
L 886.698 90.823034 
L 879.444 90.682882 
L 883.908 90.480756 
L 880.002 90.406264 
L 881.676 90.333435 
L 890.046 90.189745 
L 883.908 90.11793 
L 891.162 89.988949 
L 881.118 89.866512 
L 888.93 89.729727 
L 877.212 89.651085 
L 882.234 89.583629 
L 880.002 89.521749 
L 890.046 89.318306 
L 890.046 89.250478 
L 890.604 89.180275 
L 883.908 89.05952 
L 892.836 88.995345 
L 878.886 88.929793 
L 888.93 88.868787 
L 885.024 88.807546 
L 888.93 88.739093 
L 880.002 88.676106 
L 884.466 88.609066 
" style="fill:none;stroke:#1f1f1f;stroke-linecap:square;stroke-width:5;"/>
   </g>
   <g id="line2d_57">
    <path clip-path="url(#p27ef3de6ac)" d="M 82.62 516.811364 
L 333.72 483.406746 
L 393.984 463.445456 
L 450.342 449.256701 
L 486.054 438.365449 
L 490.518 429.516927 
L 498.33 422.030843 
L 540.18 415.516713 
L 553.572 409.828064 
L 581.472 404.729951 
L 588.726 400.098549 
L 577.008 395.861005 
L 608.814 391.98251 
L 611.046 388.357399 
L 587.052 384.968186 
L 626.67 381.857559 
L 623.322 378.930835 
L 642.294 376.164 
L 654.57 373.542777 
L 646.758 371.063877 
L 613.836 368.703552 
L 665.172 366.473626 
L 675.216 364.339177 
L 685.818 362.305941 
L 662.94 360.362332 
L 677.448 358.491301 
L 685.818 356.695441 
L 696.978 354.97191 
L 686.376 353.330995 
L 692.514 351.728606 
L 689.724 350.177471 
L 704.232 348.700791 
L 711.486 347.263163 
L 706.464 345.885851 
L 722.088 344.542582 
L 716.508 343.235275 
L 722.088 341.966899 
L 708.138 340.73666 
L 740.502 338.383886 
L 751.104 337.255226 
L 736.038 336.163525 
L 742.176 335.092825 
L 749.988 334.05757 
L 739.386 333.033329 
L 753.336 332.038506 
L 756.684 331.069036 
L 755.568 330.130682 
L 763.938 329.214434 
L 763.38 328.321383 
L 756.684 327.446958 
L 765.612 326.586897 
L 772.308 325.748836 
L 765.612 324.922347 
L 767.286 324.110024 
L 778.446 323.310203 
L 774.54 322.531856 
L 778.446 321.772446 
L 782.91 321.037297 
L 789.048 320.309067 
L 775.098 319.590448 
L 787.932 318.878402 
L 783.468 318.178778 
L 785.142 317.494895 
L 784.584 316.823193 
L 791.838 316.164095 
L 795.186 315.516906 
L 786.816 314.88325 
L 790.164 314.260896 
L 787.932 313.64996 
L 800.766 313.048664 
L 805.23 312.454402 
L 800.208 311.868079 
L 800.208 311.287971 
L 809.136 310.714137 
L 800.208 310.144735 
L 809.136 309.587227 
L 806.346 309.041007 
L 815.274 308.50237 
L 808.02 307.968115 
L 813.6 307.445521 
L 816.39 306.925486 
L 808.02 306.413622 
L 815.832 305.908906 
L 819.738 305.410931 
L 818.622 304.918185 
L 824.202 304.432442 
L 817.506 303.950783 
L 821.412 303.473348 
L 820.296 302.999875 
L 824.202 302.529625 
L 823.086 302.065572 
L 824.76 301.606922 
L 821.412 301.157367 
L 825.876 300.707289 
L 830.34 299.823738 
L 829.782 299.388882 
L 828.666 298.958543 
L 832.014 298.536395 
L 830.34 298.116029 
L 824.76 297.698476 
L 828.666 297.286201 
L 840.942 296.878057 
L 835.362 296.471454 
L 833.688 296.065411 
L 838.71 295.66335 
L 832.014 295.267132 
L 839.826 294.87218 
L 833.13 294.482524 
L 836.478 294.094654 
L 846.522 293.710741 
L 839.268 293.328008 
L 837.036 292.947364 
L 852.66 292.202528 
L 845.964 291.832656 
L 850.986 291.466682 
L 851.544 291.099654 
L 850.986 290.737784 
L 845.964 290.376695 
L 849.87 290.018888 
L 844.29 289.662454 
L 844.29 289.30642 
L 843.732 288.95793 
L 849.87 288.612951 
L 847.638 288.268175 
L 848.196 287.927875 
L 839.826 287.588794 
L 848.196 287.251868 
L 853.218 286.919815 
L 853.776 286.588387 
L 852.102 286.25908 
L 857.124 285.932895 
L 850.986 285.285937 
L 846.522 284.965784 
L 856.008 284.648545 
L 841.5 284.333688 
L 859.356 284.020399 
L 850.986 283.708526 
L 856.008 283.088173 
L 864.936 282.779312 
L 861.588 282.472775 
L 855.45 282.167675 
L 861.03 281.86512 
L 861.588 281.564186 
L 861.588 281.264497 
L 858.798 280.967084 
L 866.052 280.6716 
L 864.936 280.37694 
L 862.704 280.084887 
L 871.074 279.794654 
L 858.798 279.506665 
L 862.146 279.220756 
L 858.798 278.937144 
L 861.588 278.655315 
L 867.168 278.37557 
L 867.168 278.098528 
L 866.052 277.823322 
L 866.052 277.549596 
L 862.146 277.275988 
L 866.052 277.002616 
L 858.798 276.731248 
L 867.726 276.463164 
L 864.936 276.194671 
L 872.19 275.926953 
L 873.864 275.660889 
L 867.168 275.395692 
L 870.516 275.132061 
L 865.494 274.868942 
L 872.748 274.608952 
L 873.306 274.350819 
L 871.074 274.093611 
L 872.19 273.836373 
L 862.146 273.580922 
L 869.958 273.077274 
L 871.632 272.826928 
L 874.98 272.578045 
L 869.4 272.32997 
L 873.864 272.08284 
L 872.19 271.837057 
L 876.096 271.59244 
L 872.19 271.349112 
L 859.914 271.106807 
L 873.306 270.865488 
L 870.516 270.625868 
L 871.632 270.38747 
L 872.19 270.151102 
L 867.168 269.916139 
L 882.792 269.679857 
L 872.748 269.444808 
L 874.422 269.212363 
L 874.422 268.981581 
L 872.19 268.751471 
L 867.168 268.524079 
L 872.19 268.295906 
L 865.494 268.070089 
L 874.98 267.845365 
L 877.212 267.62283 
L 868.284 267.400301 
L 877.77 266.956108 
L 872.748 266.735326 
L 873.306 266.516411 
L 876.096 266.297527 
L 867.726 266.079558 
L 878.886 265.86294 
L 872.748 265.647296 
L 873.864 265.432778 
L 877.212 265.218783 
L 877.212 265.006161 
L 876.096 264.793578 
L 877.77 264.582623 
L 883.908 264.372605 
L 881.118 264.164043 
L 881.118 263.955417 
L 880.56 263.74669 
L 873.306 263.538882 
L 880.56 263.331485 
L 877.212 263.125527 
L 877.77 262.919322 
L 885.024 262.715524 
L 880.56 262.511359 
L 870.516 262.307999 
L 874.98 262.105377 
L 872.748 261.904839 
L 874.422 261.704812 
L 887.256 261.307049 
L 877.212 261.10905 
L 881.118 260.911854 
L 881.118 260.715358 
L 876.654 260.519547 
L 885.024 260.129848 
L 874.98 259.934739 
L 885.582 259.547207 
L 880.56 259.354545 
L 882.792 259.162301 
L 873.864 258.971519 
L 884.466 258.780367 
L 878.886 258.590509 
L 869.958 258.402136 
L 885.582 258.213776 
L 877.77 258.026022 
L 878.328 257.839152 
L 874.98 257.653067 
L 885.024 257.468272 
L 877.77 257.098759 
L 876.654 256.915841 
L 880.002 256.733942 
L 877.212 256.37204 
L 878.886 256.191821 
L 878.886 256.012086 
L 878.328 255.83384 
L 872.19 255.656626 
L 875.538 255.47867 
L 885.582 255.301222 
L 876.654 255.123348 
L 888.93 254.945937 
L 884.466 254.769183 
L 884.466 254.593062 
L 885.024 254.416829 
L 879.444 254.24227 
L 883.908 254.068703 
L 879.444 253.895553 
L 871.074 253.722849 
L 885.024 253.550438 
L 881.676 253.378754 
L 890.046 253.207268 
L 879.444 253.036214 
L 877.77 252.865702 
L 886.14 252.358214 
L 870.516 252.023053 
L 888.372 251.856146 
L 886.698 251.690278 
L 888.93 251.525542 
L 878.328 251.195326 
L 890.046 251.031388 
L 888.93 250.867049 
L 885.582 250.703434 
L 888.93 250.540056 
L 884.466 250.216281 
L 889.488 250.054782 
L 881.676 249.734837 
L 875.538 249.575809 
L 883.35 249.258335 
L 884.466 249.100511 
L 880.56 248.943096 
L 886.14 248.786014 
L 885.024 248.630242 
L 889.488 248.474692 
L 889.488 248.319582 
L 883.908 248.165131 
L 892.278 248.011041 
L 890.046 247.857163 
L 879.444 247.704176 
L 891.162 247.246331 
L 885.024 247.094453 
L 883.908 246.791135 
L 889.488 246.489618 
L 886.14 246.339387 
L 890.604 246.189801 
L 887.256 246.040901 
L 887.256 245.89269 
L 888.372 245.744945 
L 881.676 245.597871 
L 886.698 245.304183 
L 880.56 245.157258 
L 879.444 245.010259 
L 883.35 244.718905 
L 883.908 244.573947 
L 880.002 244.429195 
L 881.676 244.285396 
L 890.046 243.998664 
L 883.908 243.855621 
L 891.162 243.713233 
L 891.162 243.571461 
L 881.118 243.288804 
L 887.814 243.147793 
L 888.93 243.00683 
L 877.212 242.866506 
L 882.234 242.726882 
L 880.002 242.587035 
L 886.698 242.448005 
L 883.908 242.309278 
L 890.046 242.170849 
L 890.046 242.033132 
L 890.604 241.895591 
L 883.908 241.621805 
L 892.836 241.485971 
L 878.886 241.35039 
L 888.93 241.215425 
L 885.024 241.080864 
L 888.93 240.946059 
L 880.002 240.811656 
L 884.466 240.677387 
L 884.466 240.677387 
" style="fill:none;stroke:#9e9e9e;stroke-linecap:square;stroke-width:5;"/>
   </g>
   <g id="line2d_58">
    <path clip-path="url(#p27ef3de6ac)" d="M -1 285.428009 
L 60.3 282.182302 
L 210.96 271.232597 
L 232.164 263.147731 
L 354.366 256.737437 
L 329.814 251.366611 
L 411.282 246.834755 
L 393.984 243.192255 
L 439.182 239.69536 
L 473.22 236.828065 
L 481.59 233.981429 
L 459.828 231.240888 
L 503.352 228.934136 
L 479.916 226.588211 
L 534.6 224.487876 
L 520.65 222.702394 
L 547.992 220.893416 
L 570.87 216.132967 
L 561.942 214.71575 
L 570.87 213.419063 
L 577.566 212.095822 
L 556.92 210.77478 
L 588.168 209.648571 
L 597.654 208.464109 
L 594.864 207.323116 
L 605.466 206.250665 
L 601.56 205.325041 
L 607.14 204.298244 
L 583.146 203.310094 
L 610.488 202.343819 
L 618.858 201.480683 
L 631.134 200.64202 
L 648.99 199.848451 
L 646.2 199.052965 
L 608.256 198.269398 
L 655.686 197.540688 
L 661.266 196.779014 
L 643.41 196.123948 
L 652.338 195.48487 
L 656.802 194.785235 
L 650.106 194.129991 
L 657.918 193.470669 
L 654.57 192.817574 
L 659.034 192.157064 
L 665.172 191.553893 
L 674.1 190.956062 
L 672.984 190.391216 
L 678.564 189.864726 
L 671.31 189.346459 
L 675.774 188.821211 
L 655.128 188.288927 
L 684.702 187.731783 
L 678.006 187.214222 
L 678.564 186.737791 
L 688.05 186.291009 
L 689.166 185.836197 
L 674.658 185.30954 
L 700.326 184.835778 
L 705.906 184.402396 
L 685.26 183.948389 
L 707.58 183.530322 
L 688.608 182.716516 
L 717.066 182.290429 
L 712.044 181.880592 
L 703.674 181.430819 
L 720.972 181.052883 
L 703.116 180.65966 
L 718.182 180.253205 
L 682.47 179.824184 
L 715.95 179.45148 
L 702 179.092932 
L 713.16 178.723477 
L 728.226 178.402268 
L 704.79 178.037043 
L 719.856 177.689748 
L 715.95 177.353437 
L 715.95 177.001386 
L 746.64 175.988631 
L 737.154 175.649827 
L 733.806 175.358524 
L 715.95 175.038671 
L 732.69 174.726049 
L 740.502 174.418569 
L 731.574 174.130701 
L 733.806 173.864197 
L 741.618 173.589945 
L 725.994 173.27651 
L 733.806 172.975714 
L 750.546 172.721111 
L 739.386 172.436421 
L 733.806 172.149799 
L 760.032 171.864169 
L 752.778 171.634622 
L 735.48 171.378061 
L 747.198 171.108111 
L 727.11 170.861037 
L 751.104 170.638303 
L 753.894 170.374402 
L 733.248 170.118162 
L 761.148 169.639778 
L 757.8 169.382269 
L 741.618 169.1314 
L 763.38 168.4419 
L 752.778 168.212342 
L 756.684 167.97078 
L 756.684 167.775611 
L 762.264 167.535079 
L 762.822 167.309179 
L 775.098 167.06992 
L 760.59 166.85539 
L 751.104 166.429921 
L 761.706 166.205605 
L 757.8 166.006962 
L 769.518 165.782698 
L 770.076 165.578919 
L 780.678 165.351615 
L 767.844 165.139748 
L 782.352 164.955822 
L 783.468 164.756697 
L 759.474 164.538083 
L 758.916 164.341996 
L 776.214 163.954944 
L 764.496 163.746278 
L 776.214 163.570476 
L 776.772 163.392504 
L 781.236 163.238387 
L 764.496 163.032848 
L 783.468 162.844538 
L 775.656 162.662059 
L 739.944 162.471402 
L 794.07 162.282772 
L 764.496 162.114416 
L 792.954 161.920056 
L 779.562 161.738016 
L 778.446 161.594499 
L 753.894 161.415209 
L 790.722 161.26176 
L 780.12 161.092586 
L 797.418 160.933215 
L 771.192 160.583928 
L 782.352 160.423601 
L 782.91 160.234614 
L 781.794 160.064871 
L 770.076 159.8898 
L 780.12 159.371816 
L 794.07 159.060512 
L 782.352 158.906233 
L 792.396 158.591465 
L 791.838 158.435649 
L 796.86 158.275589 
L 796.86 158.132902 
L 777.888 157.97816 
L 796.302 157.832741 
L 785.142 157.693072 
L 806.346 157.554254 
L 782.352 157.284016 
L 796.302 157.130304 
L 773.982 156.984447 
L 802.998 156.708665 
L 797.418 156.564919 
L 796.302 156.409986 
L 799.65 156.254004 
L 777.888 155.944524 
L 802.44 155.815832 
L 801.882 155.685218 
L 804.672 155.561249 
L 800.766 155.449863 
L 775.656 155.324373 
L 804.672 155.186965 
L 790.722 155.047727 
L 810.252 154.905875 
L 805.23 154.788618 
L 767.286 154.511225 
L 799.65 154.260197 
L 799.65 154.127369 
L 798.534 154.004031 
L 802.44 153.881161 
L 801.324 153.744463 
L 785.142 153.612034 
L 798.534 153.505055 
L 796.86 153.378222 
L 792.954 153.246588 
L 801.882 153.126255 
L 798.534 153.006787 
L 809.136 152.897059 
L 809.694 152.765846 
L 786.258 152.540462 
L 806.346 152.421589 
L 793.512 152.184743 
L 794.628 152.057386 
L 799.092 151.924016 
L 809.136 151.782028 
L 796.302 151.440649 
L 784.026 151.33602 
L 805.23 151.215913 
L 792.396 151.114387 
L 813.042 150.874315 
L 797.976 150.76389 
L 807.462 150.648466 
L 806.346 150.542965 
L 816.948 150.433185 
L 808.02 150.192783 
L 808.578 150.087904 
L 806.904 149.875634 
L 807.462 149.780918 
L 818.622 149.596922 
L 803.556 149.503607 
L 815.832 149.285635 
L 806.346 148.848376 
L 814.158 148.759095 
L 812.484 148.643984 
L 803.556 148.551102 
L 810.81 148.44357 
L 805.788 148.341367 
L 820.854 148.245253 
L 800.766 148.143418 
L 822.528 148.056934 
L 809.136 147.750903 
L 822.528 147.556662 
L 804.114 147.462858 
L 821.97 147.362207 
L 811.926 147.186027 
L 812.484 147.07877 
L 825.318 146.90154 
L 804.114 146.563648 
L 820.296 146.306396 
L 818.064 146.21817 
L 819.18 146.120916 
L 815.274 145.95095 
L 814.158 145.859514 
L 816.39 145.762514 
L 814.158 145.671074 
L 808.02 145.56436 
L 819.18 145.390662 
L 826.992 145.297695 
L 809.136 145.209808 
L 825.318 145.032698 
L 823.086 144.940477 
L 826.434 144.782717 
L 800.208 144.611279 
L 818.064 144.445137 
L 808.578 144.363727 
L 811.368 144.277984 
L 826.992 144.19662 
L 815.274 144.119449 
L 835.362 143.89038 
L 816.39 143.820453 
L 825.876 143.732663 
L 824.202 143.645913 
L 814.716 143.467273 
L 831.456 143.302356 
L 820.296 143.225777 
L 826.434 143.151097 
L 824.202 143.078972 
L 824.202 143.002939 
L 829.782 142.921237 
L 822.528 142.850762 
L 825.876 142.763128 
L 810.81 142.696635 
L 818.622 142.627234 
L 826.434 142.552882 
L 818.064 142.490445 
L 821.97 142.41644 
L 816.39 142.342069 
L 830.898 142.109973 
L 825.318 141.959538 
L 830.898 141.887173 
L 819.18 141.80555 
L 826.992 141.726615 
L 819.18 141.529481 
L 819.18 141.461181 
L 833.688 141.256916 
L 824.202 141.099821 
L 808.02 141.017712 
L 810.252 140.955538 
L 834.246 140.813555 
L 819.738 140.616531 
L 822.528 140.558046 
L 818.064 140.477982 
L 834.246 140.268298 
L 833.13 140.213709 
L 823.086 140.153814 
L 827.55 140.090499 
L 834.246 139.9732 
L 832.572 139.907248 
L 816.948 139.704193 
L 836.478 139.564064 
L 821.412 139.491882 
L 838.71 139.423268 
L 823.644 139.352116 
L 823.644 139.352116 
" style="fill:none;stroke:#ff9500;stroke-linecap:square;stroke-width:5;"/>
   </g>
   <g id="line2d_59">
    <path clip-path="url(#p27ef3de6ac)" d="M -1 527.063671 
L 60.3 521.562285 
L 210.96 502.746967 
L 232.164 489.45509 
L 354.366 478.666581 
L 329.814 469.748537 
L 411.282 462.118118 
L 393.984 455.568499 
L 439.182 449.872157 
L 473.22 444.620957 
L 481.59 439.918794 
L 459.828 435.607595 
L 503.352 431.645216 
L 479.916 427.995181 
L 534.6 424.510153 
L 520.65 421.225647 
L 547.992 418.171459 
L 556.362 415.29261 
L 563.616 412.547366 
L 570.87 409.931988 
L 561.942 407.449065 
L 570.87 405.074177 
L 577.566 402.823226 
L 556.92 400.677756 
L 588.168 398.606015 
L 597.654 396.623519 
L 594.864 394.709964 
L 605.466 392.880036 
L 601.56 391.105418 
L 607.14 389.394142 
L 583.146 387.731354 
L 610.488 386.127415 
L 618.858 384.582981 
L 631.134 383.071855 
L 648.99 381.617503 
L 646.2 380.193372 
L 608.256 378.795339 
L 655.686 377.427569 
L 661.266 376.11041 
L 643.41 374.832808 
L 652.338 373.593118 
L 656.802 372.38769 
L 650.106 371.217989 
L 657.918 370.077314 
L 654.57 368.958925 
L 659.034 367.865791 
L 665.172 366.798185 
L 674.1 365.755955 
L 672.984 364.736373 
L 678.564 363.74619 
L 671.31 362.780998 
L 675.774 361.82558 
L 655.128 360.885492 
L 684.702 359.963317 
L 678.006 359.046157 
L 678.564 358.150549 
L 688.05 357.271881 
L 689.166 356.414043 
L 674.658 355.577887 
L 700.326 354.755564 
L 705.906 353.94696 
L 685.26 353.144926 
L 707.58 352.359271 
L 699.768 351.585225 
L 688.608 350.826184 
L 717.066 350.080324 
L 712.044 349.340358 
L 703.674 348.617043 
L 720.972 347.904493 
L 703.116 347.201822 
L 718.182 346.51647 
L 682.47 345.826776 
L 715.95 345.152518 
L 702 344.486535 
L 713.16 343.831374 
L 728.226 343.191101 
L 704.79 342.556975 
L 719.856 341.934265 
L 715.95 341.320641 
L 715.95 340.712849 
L 732.69 339.532224 
L 746.64 338.952085 
L 737.154 338.38007 
L 733.806 337.811781 
L 715.95 337.255553 
L 732.69 336.703573 
L 740.502 336.154572 
L 731.574 335.612165 
L 733.806 335.077542 
L 741.618 334.553981 
L 725.994 334.031219 
L 733.806 333.516925 
L 750.546 333.013054 
L 739.386 332.509507 
L 733.806 332.009473 
L 760.032 331.51785 
L 752.778 331.031278 
L 735.48 330.54774 
L 747.198 330.065056 
L 727.11 329.586979 
L 751.104 329.113938 
L 753.894 328.647123 
L 733.248 328.187414 
L 761.148 327.280693 
L 757.8 326.832686 
L 741.618 326.390813 
L 752.778 325.517128 
L 763.38 325.090861 
L 752.778 324.664861 
L 756.684 324.24376 
L 756.684 323.829398 
L 762.264 323.421992 
L 762.822 323.01543 
L 775.098 322.612849 
L 760.59 322.21444 
L 751.104 321.431485 
L 761.706 321.042861 
L 757.8 320.657359 
L 769.518 320.274409 
L 770.076 319.898278 
L 780.678 319.524162 
L 767.844 319.153083 
L 782.352 318.785926 
L 783.468 318.423768 
L 759.474 318.065431 
L 758.916 317.707139 
L 776.214 316.999395 
L 764.496 316.652158 
L 776.214 316.305093 
L 776.772 315.96172 
L 781.236 315.622984 
L 764.496 315.284997 
L 783.468 314.949579 
L 775.656 314.618767 
L 739.944 314.288324 
L 794.07 313.961074 
L 764.496 313.635687 
L 792.954 313.313389 
L 779.562 312.996756 
L 778.446 312.681044 
L 753.894 312.366937 
L 790.722 312.054049 
L 780.12 311.742452 
L 797.418 311.434373 
L 771.192 310.823977 
L 782.352 310.52125 
L 782.91 310.221428 
L 781.794 309.92624 
L 770.076 309.63063 
L 780.12 308.75778 
L 789.606 308.469427 
L 794.07 308.183301 
L 782.352 307.898481 
L 792.396 307.340528 
L 791.838 307.065804 
L 796.86 306.7905 
L 796.86 306.517118 
L 777.888 306.246071 
L 796.302 305.976886 
L 785.142 305.710388 
L 806.346 305.44454 
L 789.606 305.180883 
L 782.352 304.917439 
L 796.302 304.654846 
L 773.982 304.394147 
L 797.976 304.136175 
L 802.998 303.879015 
L 797.418 303.623553 
L 796.302 303.369682 
L 799.65 303.116927 
L 777.888 302.619828 
L 802.44 302.373638 
L 801.882 302.127918 
L 804.672 301.886078 
L 800.766 301.644459 
L 775.656 301.402855 
L 804.672 301.164542 
L 790.722 300.929043 
L 810.252 300.693006 
L 805.23 300.456125 
L 767.286 299.986502 
L 790.722 299.752945 
L 799.65 299.521231 
L 799.65 299.290466 
L 798.534 299.062457 
L 802.44 298.835968 
L 801.324 298.609938 
L 785.142 298.3841 
L 798.534 298.159821 
L 796.86 297.936387 
L 792.954 297.712702 
L 801.882 297.491264 
L 798.534 297.272363 
L 809.136 297.053305 
L 809.694 296.835733 
L 786.258 296.402749 
L 806.346 296.186511 
L 793.512 295.75989 
L 794.628 295.548598 
L 799.092 295.337696 
L 809.136 295.129353 
L 804.114 294.715231 
L 796.302 294.510447 
L 784.026 294.305258 
L 805.23 294.101499 
L 792.396 293.899101 
L 808.578 293.699073 
L 813.042 293.499098 
L 797.976 293.300593 
L 807.462 293.102388 
L 806.346 292.905068 
L 816.948 292.708252 
L 808.02 292.31901 
L 808.578 292.125151 
L 806.904 291.931341 
L 806.904 291.739506 
L 807.462 291.54847 
L 810.81 291.358148 
L 818.622 291.169062 
L 803.556 290.979904 
L 815.832 290.792251 
L 815.832 290.605505 
L 813.042 290.419628 
L 813.042 290.233586 
L 806.346 289.865225 
L 814.158 289.682836 
L 812.484 289.49987 
L 803.556 289.318341 
L 810.81 289.137621 
L 805.788 288.957752 
L 820.854 288.777636 
L 800.766 288.599173 
L 822.528 288.421287 
L 809.136 287.893665 
L 813.6 287.71986 
L 822.528 287.546978 
L 804.114 287.375151 
L 821.97 287.203908 
L 813.042 287.032649 
L 811.926 286.862467 
L 812.484 286.692713 
L 823.644 286.523934 
L 825.318 286.354767 
L 821.412 286.187117 
L 822.528 286.019476 
L 804.114 285.686644 
L 820.296 285.192813 
L 818.064 285.02986 
L 819.18 284.868469 
L 815.274 284.70797 
L 815.274 284.547535 
L 814.158 284.387539 
L 816.39 284.229117 
L 814.158 284.071547 
L 808.02 283.913436 
L 819.18 283.598279 
L 826.992 283.442366 
L 809.136 283.286568 
L 825.318 282.976977 
L 823.086 282.824077 
L 826.434 282.518854 
L 816.948 282.367149 
L 800.208 282.216471 
L 814.716 282.065876 
L 818.064 281.915459 
L 808.578 281.766025 
L 811.368 281.617902 
L 826.992 281.469627 
L 815.274 281.322899 
L 825.876 281.176531 
L 826.992 281.031091 
L 835.362 280.885621 
L 816.39 280.74004 
L 825.876 280.595449 
L 824.202 280.451589 
L 814.716 280.165314 
L 831.456 279.881592 
L 820.296 279.740452 
L 826.434 279.599307 
L 824.202 279.459541 
L 824.202 279.319422 
L 829.782 279.179855 
L 822.528 279.039973 
L 825.876 278.901114 
L 810.81 278.762729 
L 826.434 278.488402 
L 818.064 278.352398 
L 821.97 278.217647 
L 816.39 278.081725 
L 830.898 277.675955 
L 825.318 277.406126 
L 830.898 277.271458 
L 819.18 277.137891 
L 826.992 277.005298 
L 821.97 276.873526 
L 825.318 276.741172 
L 819.18 276.610111 
L 819.18 276.479823 
L 830.898 276.218867 
L 833.688 276.08886 
L 824.202 275.831305 
L 808.02 275.702892 
L 810.252 275.574059 
L 834.246 275.31905 
L 819.738 274.942031 
L 822.528 274.81682 
L 818.064 274.691628 
L 828.108 274.443633 
L 834.246 274.319923 
L 833.13 274.196982 
L 823.086 274.074396 
L 834.246 273.706701 
L 832.572 273.585049 
L 819.18 273.34212 
L 816.948 273.221709 
L 836.478 272.980525 
L 821.412 272.861431 
L 838.71 272.742314 
L 823.644 272.623412 
L 823.644 272.623412 
" style="fill:none;stroke:#ffc36e;stroke-linecap:square;stroke-width:5;"/>
   </g>
   <g id="patch_3">
    <path d="M 144 504 
L 144 69.12 
" style="fill:none;stroke:#000000;stroke-linecap:square;stroke-linejoin:miter;stroke-width:0.8;"/>
   </g>
   <g id="patch_4">
    <path d="M 1036.8 504 
L 1036.8 69.12 
" style="fill:none;stroke:#000000;stroke-linecap:square;stroke-linejoin:miter;stroke-width:0.8;"/>
   </g>
   <g id="patch_5">
    <path d="M 144 504 
L 1036.8 504 
" style="fill:none;stroke:#000000;stroke-linecap:square;stroke-linejoin:miter;stroke-width:0.8;"/>
   </g>
   <g id="patch_6">
    <path d="M 144 69.12 
L 1036.8 69.12 
" style="fill:none;stroke:#000000;stroke-linecap:square;stroke-linejoin:miter;stroke-width:0.8;"/>
   </g>
   <g id="text_17">
    <!-- Gated: Energy vs. Accuracy with 50 Units @ 0.95 -->
    <g transform="translate(147.895312 61.633125)scale(0.36 -0.36)">
     <defs>
      <path d="M 59.515625 10.40625 
L 59.515625 29.984375 
L 43.40625 29.984375 
L 43.40625 38.09375 
L 69.28125 38.09375 
L 69.28125 6.78125 
Q 63.578125 2.734375 56.6875 0.65625 
Q 49.8125 -1.421875 42 -1.421875 
Q 24.90625 -1.421875 15.25 8.5625 
Q 5.609375 18.5625 5.609375 36.375 
Q 5.609375 54.25 15.25 64.234375 
Q 24.90625 74.21875 42 74.21875 
Q 49.125 74.21875 55.546875 72.453125 
Q 61.96875 70.703125 67.390625 67.28125 
L 67.390625 56.78125 
Q 61.921875 61.421875 55.765625 63.765625 
Q 49.609375 66.109375 42.828125 66.109375 
Q 29.4375 66.109375 22.71875 58.640625 
Q 16.015625 51.171875 16.015625 36.375 
Q 16.015625 21.625 22.71875 14.15625 
Q 29.4375 6.6875 42.828125 6.6875 
Q 48.046875 6.6875 52.140625 7.59375 
Q 56.25 8.5 59.515625 10.40625 
z
" id="DejaVuSans-71"/>
      <path d="M 18.3125 70.21875 
L 18.3125 54.6875 
L 36.8125 54.6875 
L 36.8125 47.703125 
L 18.3125 47.703125 
L 18.3125 18.015625 
Q 18.3125 11.328125 20.140625 9.421875 
Q 21.96875 7.515625 27.59375 7.515625 
L 36.8125 7.515625 
L 36.8125 0 
L 27.59375 0 
Q 17.1875 0 13.234375 3.875 
Q 9.28125 7.765625 9.28125 18.015625 
L 9.28125 47.703125 
L 2.6875 47.703125 
L 2.6875 54.6875 
L 9.28125 54.6875 
L 9.28125 70.21875 
z
" id="DejaVuSans-116"/>
      <path d="M 45.40625 46.390625 
L 45.40625 75.984375 
L 54.390625 75.984375 
L 54.390625 0 
L 45.40625 0 
L 45.40625 8.203125 
Q 42.578125 3.328125 38.25 0.953125 
Q 33.9375 -1.421875 27.875 -1.421875 
Q 17.96875 -1.421875 11.734375 6.484375 
Q 5.515625 14.40625 5.515625 27.296875 
Q 5.515625 40.1875 11.734375 48.09375 
Q 17.96875 56 27.875 56 
Q 33.9375 56 38.25 53.625 
Q 42.578125 51.265625 45.40625 46.390625 
z
M 14.796875 27.296875 
Q 14.796875 17.390625 18.875 11.75 
Q 22.953125 6.109375 30.078125 6.109375 
Q 37.203125 6.109375 41.296875 11.75 
Q 45.40625 17.390625 45.40625 27.296875 
Q 45.40625 37.203125 41.296875 42.84375 
Q 37.203125 48.484375 30.078125 48.484375 
Q 22.953125 48.484375 18.875 42.84375 
Q 14.796875 37.203125 14.796875 27.296875 
z
" id="DejaVuSans-100"/>
      <path d="M 11.71875 12.40625 
L 22.015625 12.40625 
L 22.015625 0 
L 11.71875 0 
z
M 11.71875 51.703125 
L 22.015625 51.703125 
L 22.015625 39.3125 
L 11.71875 39.3125 
z
" id="DejaVuSans-58"/>
      <path d="M 2.984375 54.6875 
L 12.5 54.6875 
L 29.59375 8.796875 
L 46.6875 54.6875 
L 56.203125 54.6875 
L 35.6875 0 
L 23.484375 0 
z
" id="DejaVuSans-118"/>
      <path d="M 44.28125 53.078125 
L 44.28125 44.578125 
Q 40.484375 46.53125 36.375 47.5 
Q 32.28125 48.484375 27.875 48.484375 
Q 21.1875 48.484375 17.84375 46.4375 
Q 14.5 44.390625 14.5 40.28125 
Q 14.5 37.15625 16.890625 35.375 
Q 19.28125 33.59375 26.515625 31.984375 
L 29.59375 31.296875 
Q 39.15625 29.25 43.1875 25.515625 
Q 47.21875 21.78125 47.21875 15.09375 
Q 47.21875 7.46875 41.1875 3.015625 
Q 35.15625 -1.421875 24.609375 -1.421875 
Q 20.21875 -1.421875 15.453125 -0.5625 
Q 10.6875 0.296875 5.421875 2 
L 5.421875 11.28125 
Q 10.40625 8.6875 15.234375 7.390625 
Q 20.0625 6.109375 24.8125 6.109375 
Q 31.15625 6.109375 34.5625 8.28125 
Q 37.984375 10.453125 37.984375 14.40625 
Q 37.984375 18.0625 35.515625 20.015625 
Q 33.0625 21.96875 24.703125 23.78125 
L 21.578125 24.515625 
Q 13.234375 26.265625 9.515625 29.90625 
Q 5.8125 33.546875 5.8125 39.890625 
Q 5.8125 47.609375 11.28125 51.796875 
Q 16.75 56 26.8125 56 
Q 31.78125 56 36.171875 55.265625 
Q 40.578125 54.546875 44.28125 53.078125 
z
" id="DejaVuSans-115"/>
      <path d="M 4.203125 54.6875 
L 13.1875 54.6875 
L 24.421875 12.015625 
L 35.59375 54.6875 
L 46.1875 54.6875 
L 57.421875 12.015625 
L 68.609375 54.6875 
L 77.59375 54.6875 
L 63.28125 0 
L 52.6875 0 
L 40.921875 44.828125 
L 29.109375 0 
L 18.5 0 
z
" id="DejaVuSans-119"/>
      <path d="M 9.421875 54.6875 
L 18.40625 54.6875 
L 18.40625 0 
L 9.421875 0 
z
M 9.421875 75.984375 
L 18.40625 75.984375 
L 18.40625 64.59375 
L 9.421875 64.59375 
z
" id="DejaVuSans-105"/>
      <path d="M 54.890625 33.015625 
L 54.890625 0 
L 45.90625 0 
L 45.90625 32.71875 
Q 45.90625 40.484375 42.875 44.328125 
Q 39.84375 48.1875 33.796875 48.1875 
Q 26.515625 48.1875 22.3125 43.546875 
Q 18.109375 38.921875 18.109375 30.90625 
L 18.109375 0 
L 9.078125 0 
L 9.078125 75.984375 
L 18.109375 75.984375 
L 18.109375 46.1875 
Q 21.34375 51.125 25.703125 53.5625 
Q 30.078125 56 35.796875 56 
Q 45.21875 56 50.046875 50.171875 
Q 54.890625 44.34375 54.890625 33.015625 
z
" id="DejaVuSans-104"/>
      <path d="M 37.203125 26.21875 
Q 37.203125 19.234375 40.671875 15.25 
Q 44.140625 11.28125 50.203125 11.28125 
Q 56.203125 11.28125 59.640625 15.28125 
Q 63.09375 19.28125 63.09375 26.21875 
Q 63.09375 33.0625 59.578125 37.078125 
Q 56.0625 41.109375 50.09375 41.109375 
Q 44.1875 41.109375 40.6875 37.109375 
Q 37.203125 33.109375 37.203125 26.21875 
z
M 63.8125 11.625 
Q 60.890625 7.859375 57.109375 6.078125 
Q 53.328125 4.296875 48.296875 4.296875 
Q 39.890625 4.296875 34.640625 10.375 
Q 29.390625 16.453125 29.390625 26.21875 
Q 29.390625 35.984375 34.65625 42.078125 
Q 39.9375 48.1875 48.296875 48.1875 
Q 53.328125 48.1875 57.125 46.359375 
Q 60.9375 44.53125 63.8125 40.828125 
L 63.8125 47.21875 
L 70.796875 47.21875 
L 70.796875 11.28125 
Q 77.9375 12.359375 81.953125 17.796875 
Q 85.984375 23.25 85.984375 31.890625 
Q 85.984375 37.109375 84.4375 41.703125 
Q 82.90625 46.296875 79.78125 50.203125 
Q 74.703125 56.59375 67.40625 59.984375 
Q 60.109375 63.375 51.515625 63.375 
Q 45.515625 63.375 39.984375 61.78125 
Q 34.46875 60.203125 29.78125 57.078125 
Q 22.125 52.09375 17.796875 44.015625 
Q 13.484375 35.9375 13.484375 26.515625 
Q 13.484375 18.75 16.28125 11.953125 
Q 19.09375 5.171875 24.421875 0 
Q 29.546875 -5.078125 36.28125 -7.734375 
Q 43.015625 -10.40625 50.6875 -10.40625 
Q 56.984375 -10.40625 63.0625 -8.28125 
Q 69.140625 -6.15625 74.21875 -2.203125 
L 78.609375 -7.625 
Q 72.515625 -12.359375 65.3125 -14.875 
Q 58.109375 -17.390625 50.6875 -17.390625 
Q 41.65625 -17.390625 33.640625 -14.1875 
Q 25.640625 -10.984375 19.390625 -4.890625 
Q 13.140625 1.21875 9.859375 9.25 
Q 6.59375 17.28125 6.59375 26.515625 
Q 6.59375 35.40625 9.90625 43.453125 
Q 13.234375 51.515625 19.390625 57.625 
Q 25.6875 63.8125 33.9375 67.109375 
Q 42.1875 70.40625 51.421875 70.40625 
Q 61.765625 70.40625 70.625 66.15625 
Q 79.5 61.921875 85.5 54.109375 
Q 89.15625 49.3125 91.078125 43.703125 
Q 93.015625 38.09375 93.015625 32.078125 
Q 93.015625 19.234375 85.25 11.8125 
Q 77.484375 4.390625 63.8125 4.109375 
z
" id="DejaVuSans-64"/>
     </defs>
     <use xlink:href="#DejaVuSans-71"/>
     <use x="77.490234" xlink:href="#DejaVuSans-97"/>
     <use x="138.769531" xlink:href="#DejaVuSans-116"/>
     <use x="177.978516" xlink:href="#DejaVuSans-101"/>
     <use x="239.501953" xlink:href="#DejaVuSans-100"/>
     <use x="302.978516" xlink:href="#DejaVuSans-58"/>
     <use x="336.669922" xlink:href="#DejaVuSans-32"/>
     <use x="368.457031" xlink:href="#DejaVuSans-69"/>
     <use x="431.640625" xlink:href="#DejaVuSans-110"/>
     <use x="495.019531" xlink:href="#DejaVuSans-101"/>
     <use x="556.542969" xlink:href="#DejaVuSans-114"/>
     <use x="595.90625" xlink:href="#DejaVuSans-103"/>
     <use x="659.382812" xlink:href="#DejaVuSans-121"/>
     <use x="718.5625" xlink:href="#DejaVuSans-32"/>
     <use x="750.349609" xlink:href="#DejaVuSans-118"/>
     <use x="809.529297" xlink:href="#DejaVuSans-115"/>
     <use x="861.628906" xlink:href="#DejaVuSans-46"/>
     <use x="893.416016" xlink:href="#DejaVuSans-32"/>
     <use x="925.203125" xlink:href="#DejaVuSans-65"/>
     <use x="991.861328" xlink:href="#DejaVuSans-99"/>
     <use x="1046.841797" xlink:href="#DejaVuSans-99"/>
     <use x="1101.822266" xlink:href="#DejaVuSans-117"/>
     <use x="1165.201172" xlink:href="#DejaVuSans-114"/>
     <use x="1206.314453" xlink:href="#DejaVuSans-97"/>
     <use x="1267.59375" xlink:href="#DejaVuSans-99"/>
     <use x="1322.574219" xlink:href="#DejaVuSans-121"/>
     <use x="1381.753906" xlink:href="#DejaVuSans-32"/>
     <use x="1413.541016" xlink:href="#DejaVuSans-119"/>
     <use x="1495.328125" xlink:href="#DejaVuSans-105"/>
     <use x="1523.111328" xlink:href="#DejaVuSans-116"/>
     <use x="1562.320312" xlink:href="#DejaVuSans-104"/>
     <use x="1625.699219" xlink:href="#DejaVuSans-32"/>
     <use x="1657.486328" xlink:href="#DejaVuSans-53"/>
     <use x="1721.109375" xlink:href="#DejaVuSans-48"/>
     <use x="1784.732422" xlink:href="#DejaVuSans-32"/>
     <use x="1816.519531" xlink:href="#DejaVuSans-85"/>
     <use x="1889.712891" xlink:href="#DejaVuSans-110"/>
     <use x="1953.091797" xlink:href="#DejaVuSans-105"/>
     <use x="1980.875" xlink:href="#DejaVuSans-116"/>
     <use x="2020.083984" xlink:href="#DejaVuSans-115"/>
     <use x="2072.183594" xlink:href="#DejaVuSans-32"/>
     <use x="2103.970703" xlink:href="#DejaVuSans-64"/>
     <use x="2203.970703" xlink:href="#DejaVuSans-32"/>
     <use x="2235.757812" xlink:href="#DejaVuSans-48"/>
     <use x="2299.380859" xlink:href="#DejaVuSans-46"/>
     <use x="2331.167969" xlink:href="#DejaVuSans-57"/>
     <use x="2394.791016" xlink:href="#DejaVuSans-53"/>
    </g>
   </g>
   <g id="legend_1">
    <g id="patch_7">
     <path d="M 785.663125 493 
L 1021.4 493 
Q 1025.8 493 1025.8 488.6 
L 1025.8 361.6325 
Q 1025.8 357.2325 1021.4 357.2325 
L 785.663125 357.2325 
Q 781.263125 357.2325 781.263125 361.6325 
L 781.263125 488.6 
Q 781.263125 493 785.663125 493 
z
" style="fill:#ffffff;opacity:0.8;stroke:#cccccc;stroke-linejoin:miter;"/>
    </g>
    <g id="line2d_60">
     <path d="M 790.063125 375.049062 
L 834.063125 375.049062 
" style="fill:none;stroke:#1f1f1f;stroke-linecap:square;stroke-width:5;"/>
    </g>
    <g id="line2d_61"/>
    <g id="text_18">
     <!-- Ungated: 1.0 -->
     <g transform="translate(851.663125 382.749062)scale(0.22 -0.22)">
      <use xlink:href="#DejaVuSans-85"/>
      <use x="73.193359" xlink:href="#DejaVuSans-110"/>
      <use x="136.572266" xlink:href="#DejaVuSans-103"/>
      <use x="200.048828" xlink:href="#DejaVuSans-97"/>
      <use x="261.328125" xlink:href="#DejaVuSans-116"/>
      <use x="300.537109" xlink:href="#DejaVuSans-101"/>
      <use x="362.060547" xlink:href="#DejaVuSans-100"/>
      <use x="425.537109" xlink:href="#DejaVuSans-58"/>
      <use x="459.228516" xlink:href="#DejaVuSans-32"/>
      <use x="491.015625" xlink:href="#DejaVuSans-49"/>
      <use x="554.638672" xlink:href="#DejaVuSans-46"/>
      <use x="586.425781" xlink:href="#DejaVuSans-48"/>
     </g>
    </g>
    <g id="line2d_62">
     <path d="M 790.063125 407.340937 
L 834.063125 407.340937 
" style="fill:none;stroke:#9e9e9e;stroke-linecap:square;stroke-width:5;"/>
    </g>
    <g id="line2d_63"/>
    <g id="text_19">
     <!-- Minimum: 1.0 -->
     <g transform="translate(851.663125 415.040937)scale(0.22 -0.22)">
      <defs>
       <path d="M 9.8125 72.90625 
L 24.515625 72.90625 
L 43.109375 23.296875 
L 61.8125 72.90625 
L 76.515625 72.90625 
L 76.515625 0 
L 66.890625 0 
L 66.890625 64.015625 
L 48.09375 14.015625 
L 38.1875 14.015625 
L 19.390625 64.015625 
L 19.390625 0 
L 9.8125 0 
z
" id="DejaVuSans-77"/>
       <path d="M 52 44.1875 
Q 55.375 50.25 60.0625 53.125 
Q 64.75 56 71.09375 56 
Q 79.640625 56 84.28125 50.015625 
Q 88.921875 44.046875 88.921875 33.015625 
L 88.921875 0 
L 79.890625 0 
L 79.890625 32.71875 
Q 79.890625 40.578125 77.09375 44.375 
Q 74.3125 48.1875 68.609375 48.1875 
Q 61.625 48.1875 57.5625 43.546875 
Q 53.515625 38.921875 53.515625 30.90625 
L 53.515625 0 
L 44.484375 0 
L 44.484375 32.71875 
Q 44.484375 40.625 41.703125 44.40625 
Q 38.921875 48.1875 33.109375 48.1875 
Q 26.21875 48.1875 22.15625 43.53125 
Q 18.109375 38.875 18.109375 30.90625 
L 18.109375 0 
L 9.078125 0 
L 9.078125 54.6875 
L 18.109375 54.6875 
L 18.109375 46.1875 
Q 21.1875 51.21875 25.484375 53.609375 
Q 29.78125 56 35.6875 56 
Q 41.65625 56 45.828125 52.96875 
Q 50 49.953125 52 44.1875 
z
" id="DejaVuSans-109"/>
      </defs>
      <use xlink:href="#DejaVuSans-77"/>
      <use x="86.279297" xlink:href="#DejaVuSans-105"/>
      <use x="114.0625" xlink:href="#DejaVuSans-110"/>
      <use x="177.441406" xlink:href="#DejaVuSans-105"/>
      <use x="205.224609" xlink:href="#DejaVuSans-109"/>
      <use x="302.636719" xlink:href="#DejaVuSans-117"/>
      <use x="366.015625" xlink:href="#DejaVuSans-109"/>
      <use x="463.427734" xlink:href="#DejaVuSans-58"/>
      <use x="497.119141" xlink:href="#DejaVuSans-32"/>
      <use x="528.90625" xlink:href="#DejaVuSans-49"/>
      <use x="592.529297" xlink:href="#DejaVuSans-46"/>
      <use x="624.316406" xlink:href="#DejaVuSans-48"/>
     </g>
    </g>
    <g id="line2d_64">
     <path d="M 790.063125 439.632812 
L 834.063125 439.632812 
" style="fill:none;stroke:#ff9500;stroke-linecap:square;stroke-width:5;"/>
    </g>
    <g id="line2d_65"/>
    <g id="text_20">
     <!-- Gated: 0.95 -->
     <g transform="translate(851.663125 447.332812)scale(0.22 -0.22)">
      <use xlink:href="#DejaVuSans-71"/>
      <use x="77.490234" xlink:href="#DejaVuSans-97"/>
      <use x="138.769531" xlink:href="#DejaVuSans-116"/>
      <use x="177.978516" xlink:href="#DejaVuSans-101"/>
      <use x="239.501953" xlink:href="#DejaVuSans-100"/>
      <use x="302.978516" xlink:href="#DejaVuSans-58"/>
      <use x="336.669922" xlink:href="#DejaVuSans-32"/>
      <use x="368.457031" xlink:href="#DejaVuSans-48"/>
      <use x="432.080078" xlink:href="#DejaVuSans-46"/>
      <use x="463.867188" xlink:href="#DejaVuSans-57"/>
      <use x="527.490234" xlink:href="#DejaVuSans-53"/>
     </g>
    </g>
    <g id="line2d_66">
     <path d="M 790.063125 471.924688 
L 834.063125 471.924688 
" style="fill:none;stroke:#ffc36e;stroke-linecap:square;stroke-width:5;"/>
    </g>
    <g id="line2d_67"/>
    <g id="text_21">
     <!-- Minimum: 0.95 -->
     <g transform="translate(851.663125 479.624687)scale(0.22 -0.22)">
      <use xlink:href="#DejaVuSans-77"/>
      <use x="86.279297" xlink:href="#DejaVuSans-105"/>
      <use x="114.0625" xlink:href="#DejaVuSans-110"/>
      <use x="177.441406" xlink:href="#DejaVuSans-105"/>
      <use x="205.224609" xlink:href="#DejaVuSans-109"/>
      <use x="302.636719" xlink:href="#DejaVuSans-117"/>
      <use x="366.015625" xlink:href="#DejaVuSans-109"/>
      <use x="463.427734" xlink:href="#DejaVuSans-58"/>
      <use x="497.119141" xlink:href="#DejaVuSans-32"/>
      <use x="528.90625" xlink:href="#DejaVuSans-48"/>
      <use x="592.529297" xlink:href="#DejaVuSans-46"/>
      <use x="624.316406" xlink:href="#DejaVuSans-57"/>
      <use x="687.939453" xlink:href="#DejaVuSans-53"/>
     </g>
    </g>
   </g>
  </g>
 </g>
 <defs>
  <clipPath id="p27ef3de6ac">
   <rect height="434.88" width="892.8" x="144" y="69.12"/>
  </clipPath>
 </defs>
</svg>
