<?xml version="1.0" encoding="utf-8" standalone="no"?>
<!DOCTYPE svg PUBLIC "-//W3C//DTD SVG 1.1//EN"
  "http://www.w3.org/Graphics/SVG/1.1/DTD/svg11.dtd">
<!-- Created with matplotlib (https://matplotlib.org/) -->
<svg height="576pt" version="1.1" viewBox="0 0 1152 576" width="1152pt" xmlns="http://www.w3.org/2000/svg" xmlns:xlink="http://www.w3.org/1999/xlink">
 <metadata>
  <rdf:RDF xmlns:cc="http://creativecommons.org/ns#" xmlns:dc="http://purl.org/dc/elements/1.1/" xmlns:rdf="http://www.w3.org/1999/02/22-rdf-syntax-ns#">
   <cc:Work>
    <dc:type rdf:resource="http://purl.org/dc/dcmitype/StillImage"/>
    <dc:date>2021-09-12T20:38:02.376976</dc:date>
    <dc:format>image/svg+xml</dc:format>
    <dc:creator>
     <cc:Agent>
      <dc:title>Matplotlib v3.3.4, https://matplotlib.org/</dc:title>
     </cc:Agent>
    </dc:creator>
   </cc:Work>
  </rdf:RDF>
 </metadata>
 <defs>
  <style type="text/css">*{stroke-linecap:butt;stroke-linejoin:round;}</style>
 </defs>
 <g id="figure_1">
  <g id="patch_1">
   <path d="M 0 576 
L 1152 576 
L 1152 0 
L 0 0 
z
" style="fill:#ffffff;"/>
  </g>
  <g id="axes_1">
   <g id="patch_2">
    <path d="M 144 504 
L 1036.8 504 
L 1036.8 69.12 
L 144 69.12 
z
" style="fill:#ffffff;"/>
   </g>
   <g id="matplotlib.axis_1">
    <g id="xtick_1">
     <g id="line2d_1">
      <defs>
       <path d="M 0 0 
L 0 3.5 
" id="mfe5b340eeb" style="stroke:#000000;stroke-width:0.8;"/>
      </defs>
      <g>
       <use style="stroke:#000000;stroke-width:0.8;" x="144" xlink:href="#mfe5b340eeb" y="504"/>
      </g>
     </g>
     <g id="text_1">
      <!-- 84 -->
      <g transform="translate(128.73 529.23625)scale(0.24 -0.24)">
       <defs>
        <path d="M 31.78125 34.625 
Q 24.75 34.625 20.71875 30.859375 
Q 16.703125 27.09375 16.703125 20.515625 
Q 16.703125 13.921875 20.71875 10.15625 
Q 24.75 6.390625 31.78125 6.390625 
Q 38.8125 6.390625 42.859375 10.171875 
Q 46.921875 13.96875 46.921875 20.515625 
Q 46.921875 27.09375 42.890625 30.859375 
Q 38.875 34.625 31.78125 34.625 
z
M 21.921875 38.8125 
Q 15.578125 40.375 12.03125 44.71875 
Q 8.5 49.078125 8.5 55.328125 
Q 8.5 64.0625 14.71875 69.140625 
Q 20.953125 74.21875 31.78125 74.21875 
Q 42.671875 74.21875 48.875 69.140625 
Q 55.078125 64.0625 55.078125 55.328125 
Q 55.078125 49.078125 51.53125 44.71875 
Q 48 40.375 41.703125 38.8125 
Q 48.828125 37.15625 52.796875 32.3125 
Q 56.78125 27.484375 56.78125 20.515625 
Q 56.78125 9.90625 50.3125 4.234375 
Q 43.84375 -1.421875 31.78125 -1.421875 
Q 19.734375 -1.421875 13.25 4.234375 
Q 6.78125 9.90625 6.78125 20.515625 
Q 6.78125 27.484375 10.78125 32.3125 
Q 14.796875 37.15625 21.921875 38.8125 
z
M 18.3125 54.390625 
Q 18.3125 48.734375 21.84375 45.5625 
Q 25.390625 42.390625 31.78125 42.390625 
Q 38.140625 42.390625 41.71875 45.5625 
Q 45.3125 48.734375 45.3125 54.390625 
Q 45.3125 60.0625 41.71875 63.234375 
Q 38.140625 66.40625 31.78125 66.40625 
Q 25.390625 66.40625 21.84375 63.234375 
Q 18.3125 60.0625 18.3125 54.390625 
z
" id="DejaVuSans-56"/>
        <path d="M 37.796875 64.3125 
L 12.890625 25.390625 
L 37.796875 25.390625 
z
M 35.203125 72.90625 
L 47.609375 72.90625 
L 47.609375 25.390625 
L 58.015625 25.390625 
L 58.015625 17.1875 
L 47.609375 17.1875 
L 47.609375 0 
L 37.796875 0 
L 37.796875 17.1875 
L 4.890625 17.1875 
L 4.890625 26.703125 
z
" id="DejaVuSans-52"/>
       </defs>
       <use xlink:href="#DejaVuSans-56"/>
       <use x="63.623047" xlink:href="#DejaVuSans-52"/>
      </g>
     </g>
    </g>
    <g id="xtick_2">
     <g id="line2d_2">
      <g>
       <use style="stroke:#000000;stroke-width:0.8;" x="255.6" xlink:href="#mfe5b340eeb" y="504"/>
      </g>
     </g>
     <g id="text_2">
      <!-- 86 -->
      <g transform="translate(240.33 529.23625)scale(0.24 -0.24)">
       <defs>
        <path d="M 33.015625 40.375 
Q 26.375 40.375 22.484375 35.828125 
Q 18.609375 31.296875 18.609375 23.390625 
Q 18.609375 15.53125 22.484375 10.953125 
Q 26.375 6.390625 33.015625 6.390625 
Q 39.65625 6.390625 43.53125 10.953125 
Q 47.40625 15.53125 47.40625 23.390625 
Q 47.40625 31.296875 43.53125 35.828125 
Q 39.65625 40.375 33.015625 40.375 
z
M 52.59375 71.296875 
L 52.59375 62.3125 
Q 48.875 64.0625 45.09375 64.984375 
Q 41.3125 65.921875 37.59375 65.921875 
Q 27.828125 65.921875 22.671875 59.328125 
Q 17.53125 52.734375 16.796875 39.40625 
Q 19.671875 43.65625 24.015625 45.921875 
Q 28.375 48.1875 33.59375 48.1875 
Q 44.578125 48.1875 50.953125 41.515625 
Q 57.328125 34.859375 57.328125 23.390625 
Q 57.328125 12.15625 50.6875 5.359375 
Q 44.046875 -1.421875 33.015625 -1.421875 
Q 20.359375 -1.421875 13.671875 8.265625 
Q 6.984375 17.96875 6.984375 36.375 
Q 6.984375 53.65625 15.1875 63.9375 
Q 23.390625 74.21875 37.203125 74.21875 
Q 40.921875 74.21875 44.703125 73.484375 
Q 48.484375 72.75 52.59375 71.296875 
z
" id="DejaVuSans-54"/>
       </defs>
       <use xlink:href="#DejaVuSans-56"/>
       <use x="63.623047" xlink:href="#DejaVuSans-54"/>
      </g>
     </g>
    </g>
    <g id="xtick_3">
     <g id="line2d_3">
      <g>
       <use style="stroke:#000000;stroke-width:0.8;" x="367.2" xlink:href="#mfe5b340eeb" y="504"/>
      </g>
     </g>
     <g id="text_3">
      <!-- 88 -->
      <g transform="translate(351.93 529.23625)scale(0.24 -0.24)">
       <use xlink:href="#DejaVuSans-56"/>
       <use x="63.623047" xlink:href="#DejaVuSans-56"/>
      </g>
     </g>
    </g>
    <g id="xtick_4">
     <g id="line2d_4">
      <g>
       <use style="stroke:#000000;stroke-width:0.8;" x="478.8" xlink:href="#mfe5b340eeb" y="504"/>
      </g>
     </g>
     <g id="text_4">
      <!-- 90 -->
      <g transform="translate(463.53 529.23625)scale(0.24 -0.24)">
       <defs>
        <path d="M 10.984375 1.515625 
L 10.984375 10.5 
Q 14.703125 8.734375 18.5 7.8125 
Q 22.3125 6.890625 25.984375 6.890625 
Q 35.75 6.890625 40.890625 13.453125 
Q 46.046875 20.015625 46.78125 33.40625 
Q 43.953125 29.203125 39.59375 26.953125 
Q 35.25 24.703125 29.984375 24.703125 
Q 19.046875 24.703125 12.671875 31.3125 
Q 6.296875 37.9375 6.296875 49.421875 
Q 6.296875 60.640625 12.9375 67.421875 
Q 19.578125 74.21875 30.609375 74.21875 
Q 43.265625 74.21875 49.921875 64.515625 
Q 56.59375 54.828125 56.59375 36.375 
Q 56.59375 19.140625 48.40625 8.859375 
Q 40.234375 -1.421875 26.421875 -1.421875 
Q 22.703125 -1.421875 18.890625 -0.6875 
Q 15.09375 0.046875 10.984375 1.515625 
z
M 30.609375 32.421875 
Q 37.25 32.421875 41.125 36.953125 
Q 45.015625 41.5 45.015625 49.421875 
Q 45.015625 57.28125 41.125 61.84375 
Q 37.25 66.40625 30.609375 66.40625 
Q 23.96875 66.40625 20.09375 61.84375 
Q 16.21875 57.28125 16.21875 49.421875 
Q 16.21875 41.5 20.09375 36.953125 
Q 23.96875 32.421875 30.609375 32.421875 
z
" id="DejaVuSans-57"/>
        <path d="M 31.78125 66.40625 
Q 24.171875 66.40625 20.328125 58.90625 
Q 16.5 51.421875 16.5 36.375 
Q 16.5 21.390625 20.328125 13.890625 
Q 24.171875 6.390625 31.78125 6.390625 
Q 39.453125 6.390625 43.28125 13.890625 
Q 47.125 21.390625 47.125 36.375 
Q 47.125 51.421875 43.28125 58.90625 
Q 39.453125 66.40625 31.78125 66.40625 
z
M 31.78125 74.21875 
Q 44.046875 74.21875 50.515625 64.515625 
Q 56.984375 54.828125 56.984375 36.375 
Q 56.984375 17.96875 50.515625 8.265625 
Q 44.046875 -1.421875 31.78125 -1.421875 
Q 19.53125 -1.421875 13.0625 8.265625 
Q 6.59375 17.96875 6.59375 36.375 
Q 6.59375 54.828125 13.0625 64.515625 
Q 19.53125 74.21875 31.78125 74.21875 
z
" id="DejaVuSans-48"/>
       </defs>
       <use xlink:href="#DejaVuSans-57"/>
       <use x="63.623047" xlink:href="#DejaVuSans-48"/>
      </g>
     </g>
    </g>
    <g id="xtick_5">
     <g id="line2d_5">
      <g>
       <use style="stroke:#000000;stroke-width:0.8;" x="590.4" xlink:href="#mfe5b340eeb" y="504"/>
      </g>
     </g>
     <g id="text_5">
      <!-- 92 -->
      <g transform="translate(575.13 529.23625)scale(0.24 -0.24)">
       <defs>
        <path d="M 19.1875 8.296875 
L 53.609375 8.296875 
L 53.609375 0 
L 7.328125 0 
L 7.328125 8.296875 
Q 12.9375 14.109375 22.625 23.890625 
Q 32.328125 33.6875 34.8125 36.53125 
Q 39.546875 41.84375 41.421875 45.53125 
Q 43.3125 49.21875 43.3125 52.78125 
Q 43.3125 58.59375 39.234375 62.25 
Q 35.15625 65.921875 28.609375 65.921875 
Q 23.96875 65.921875 18.8125 64.3125 
Q 13.671875 62.703125 7.8125 59.421875 
L 7.8125 69.390625 
Q 13.765625 71.78125 18.9375 73 
Q 24.125 74.21875 28.421875 74.21875 
Q 39.75 74.21875 46.484375 68.546875 
Q 53.21875 62.890625 53.21875 53.421875 
Q 53.21875 48.921875 51.53125 44.890625 
Q 49.859375 40.875 45.40625 35.40625 
Q 44.1875 33.984375 37.640625 27.21875 
Q 31.109375 20.453125 19.1875 8.296875 
z
" id="DejaVuSans-50"/>
       </defs>
       <use xlink:href="#DejaVuSans-57"/>
       <use x="63.623047" xlink:href="#DejaVuSans-50"/>
      </g>
     </g>
    </g>
    <g id="xtick_6">
     <g id="line2d_6">
      <g>
       <use style="stroke:#000000;stroke-width:0.8;" x="702" xlink:href="#mfe5b340eeb" y="504"/>
      </g>
     </g>
     <g id="text_6">
      <!-- 94 -->
      <g transform="translate(686.73 529.23625)scale(0.24 -0.24)">
       <use xlink:href="#DejaVuSans-57"/>
       <use x="63.623047" xlink:href="#DejaVuSans-52"/>
      </g>
     </g>
    </g>
    <g id="xtick_7">
     <g id="line2d_7">
      <g>
       <use style="stroke:#000000;stroke-width:0.8;" x="813.6" xlink:href="#mfe5b340eeb" y="504"/>
      </g>
     </g>
     <g id="text_7">
      <!-- 96 -->
      <g transform="translate(798.33 529.23625)scale(0.24 -0.24)">
       <use xlink:href="#DejaVuSans-57"/>
       <use x="63.623047" xlink:href="#DejaVuSans-54"/>
      </g>
     </g>
    </g>
    <g id="xtick_8">
     <g id="line2d_8">
      <g>
       <use style="stroke:#000000;stroke-width:0.8;" x="925.2" xlink:href="#mfe5b340eeb" y="504"/>
      </g>
     </g>
     <g id="text_8">
      <!-- 98 -->
      <g transform="translate(909.93 529.23625)scale(0.24 -0.24)">
       <use xlink:href="#DejaVuSans-57"/>
       <use x="63.623047" xlink:href="#DejaVuSans-56"/>
      </g>
     </g>
    </g>
    <g id="xtick_9">
     <g id="line2d_9">
      <g>
       <use style="stroke:#000000;stroke-width:0.8;" x="1036.8" xlink:href="#mfe5b340eeb" y="504"/>
      </g>
     </g>
     <g id="text_9">
      <!-- 100 -->
      <g transform="translate(1013.895 529.23625)scale(0.24 -0.24)">
       <defs>
        <path d="M 12.40625 8.296875 
L 28.515625 8.296875 
L 28.515625 63.921875 
L 10.984375 60.40625 
L 10.984375 69.390625 
L 28.421875 72.90625 
L 38.28125 72.90625 
L 38.28125 8.296875 
L 54.390625 8.296875 
L 54.390625 0 
L 12.40625 0 
z
" id="DejaVuSans-49"/>
       </defs>
       <use xlink:href="#DejaVuSans-49"/>
       <use x="63.623047" xlink:href="#DejaVuSans-48"/>
       <use x="127.246094" xlink:href="#DejaVuSans-48"/>
      </g>
     </g>
    </g>
    <g id="text_10">
     <!-- Accuracy /% -->
     <g transform="translate(504.013437 559.503125)scale(0.28 -0.28)">
      <defs>
       <path d="M 34.1875 63.1875 
L 20.796875 26.90625 
L 47.609375 26.90625 
z
M 28.609375 72.90625 
L 39.796875 72.90625 
L 67.578125 0 
L 57.328125 0 
L 50.6875 18.703125 
L 17.828125 18.703125 
L 11.1875 0 
L 0.78125 0 
z
" id="DejaVuSans-65"/>
       <path d="M 48.78125 52.59375 
L 48.78125 44.1875 
Q 44.96875 46.296875 41.140625 47.34375 
Q 37.3125 48.390625 33.40625 48.390625 
Q 24.65625 48.390625 19.8125 42.84375 
Q 14.984375 37.3125 14.984375 27.296875 
Q 14.984375 17.28125 19.8125 11.734375 
Q 24.65625 6.203125 33.40625 6.203125 
Q 37.3125 6.203125 41.140625 7.25 
Q 44.96875 8.296875 48.78125 10.40625 
L 48.78125 2.09375 
Q 45.015625 0.34375 40.984375 -0.53125 
Q 36.96875 -1.421875 32.421875 -1.421875 
Q 20.0625 -1.421875 12.78125 6.34375 
Q 5.515625 14.109375 5.515625 27.296875 
Q 5.515625 40.671875 12.859375 48.328125 
Q 20.21875 56 33.015625 56 
Q 37.15625 56 41.109375 55.140625 
Q 45.0625 54.296875 48.78125 52.59375 
z
" id="DejaVuSans-99"/>
       <path d="M 8.5 21.578125 
L 8.5 54.6875 
L 17.484375 54.6875 
L 17.484375 21.921875 
Q 17.484375 14.15625 20.5 10.265625 
Q 23.53125 6.390625 29.59375 6.390625 
Q 36.859375 6.390625 41.078125 11.03125 
Q 45.3125 15.671875 45.3125 23.6875 
L 45.3125 54.6875 
L 54.296875 54.6875 
L 54.296875 0 
L 45.3125 0 
L 45.3125 8.40625 
Q 42.046875 3.421875 37.71875 1 
Q 33.40625 -1.421875 27.6875 -1.421875 
Q 18.265625 -1.421875 13.375 4.4375 
Q 8.5 10.296875 8.5 21.578125 
z
M 31.109375 56 
z
" id="DejaVuSans-117"/>
       <path d="M 41.109375 46.296875 
Q 39.59375 47.171875 37.8125 47.578125 
Q 36.03125 48 33.890625 48 
Q 26.265625 48 22.1875 43.046875 
Q 18.109375 38.09375 18.109375 28.8125 
L 18.109375 0 
L 9.078125 0 
L 9.078125 54.6875 
L 18.109375 54.6875 
L 18.109375 46.1875 
Q 20.953125 51.171875 25.484375 53.578125 
Q 30.03125 56 36.53125 56 
Q 37.453125 56 38.578125 55.875 
Q 39.703125 55.765625 41.0625 55.515625 
z
" id="DejaVuSans-114"/>
       <path d="M 34.28125 27.484375 
Q 23.390625 27.484375 19.1875 25 
Q 14.984375 22.515625 14.984375 16.5 
Q 14.984375 11.71875 18.140625 8.90625 
Q 21.296875 6.109375 26.703125 6.109375 
Q 34.1875 6.109375 38.703125 11.40625 
Q 43.21875 16.703125 43.21875 25.484375 
L 43.21875 27.484375 
z
M 52.203125 31.203125 
L 52.203125 0 
L 43.21875 0 
L 43.21875 8.296875 
Q 40.140625 3.328125 35.546875 0.953125 
Q 30.953125 -1.421875 24.3125 -1.421875 
Q 15.921875 -1.421875 10.953125 3.296875 
Q 6 8.015625 6 15.921875 
Q 6 25.140625 12.171875 29.828125 
Q 18.359375 34.515625 30.609375 34.515625 
L 43.21875 34.515625 
L 43.21875 35.40625 
Q 43.21875 41.609375 39.140625 45 
Q 35.0625 48.390625 27.6875 48.390625 
Q 23 48.390625 18.546875 47.265625 
Q 14.109375 46.140625 10.015625 43.890625 
L 10.015625 52.203125 
Q 14.9375 54.109375 19.578125 55.046875 
Q 24.21875 56 28.609375 56 
Q 40.484375 56 46.34375 49.84375 
Q 52.203125 43.703125 52.203125 31.203125 
z
" id="DejaVuSans-97"/>
       <path d="M 32.171875 -5.078125 
Q 28.375 -14.84375 24.75 -17.8125 
Q 21.140625 -20.796875 15.09375 -20.796875 
L 7.90625 -20.796875 
L 7.90625 -13.28125 
L 13.1875 -13.28125 
Q 16.890625 -13.28125 18.9375 -11.515625 
Q 21 -9.765625 23.484375 -3.21875 
L 25.09375 0.875 
L 2.984375 54.6875 
L 12.5 54.6875 
L 29.59375 11.921875 
L 46.6875 54.6875 
L 56.203125 54.6875 
z
" id="DejaVuSans-121"/>
       <path id="DejaVuSans-32"/>
       <path d="M 25.390625 72.90625 
L 33.6875 72.90625 
L 8.296875 -9.28125 
L 0 -9.28125 
z
" id="DejaVuSans-47"/>
       <path d="M 72.703125 32.078125 
Q 68.453125 32.078125 66.03125 28.46875 
Q 63.625 24.859375 63.625 18.40625 
Q 63.625 12.0625 66.03125 8.421875 
Q 68.453125 4.78125 72.703125 4.78125 
Q 76.859375 4.78125 79.265625 8.421875 
Q 81.6875 12.0625 81.6875 18.40625 
Q 81.6875 24.8125 79.265625 28.4375 
Q 76.859375 32.078125 72.703125 32.078125 
z
M 72.703125 38.28125 
Q 80.421875 38.28125 84.953125 32.90625 
Q 89.5 27.546875 89.5 18.40625 
Q 89.5 9.28125 84.9375 3.921875 
Q 80.375 -1.421875 72.703125 -1.421875 
Q 64.890625 -1.421875 60.34375 3.921875 
Q 55.8125 9.28125 55.8125 18.40625 
Q 55.8125 27.59375 60.375 32.9375 
Q 64.9375 38.28125 72.703125 38.28125 
z
M 22.3125 68.015625 
Q 18.109375 68.015625 15.6875 64.375 
Q 13.28125 60.75 13.28125 54.390625 
Q 13.28125 47.953125 15.671875 44.328125 
Q 18.0625 40.71875 22.3125 40.71875 
Q 26.5625 40.71875 28.96875 44.328125 
Q 31.390625 47.953125 31.390625 54.390625 
Q 31.390625 60.6875 28.953125 64.34375 
Q 26.515625 68.015625 22.3125 68.015625 
z
M 66.40625 74.21875 
L 74.21875 74.21875 
L 28.609375 -1.421875 
L 20.796875 -1.421875 
z
M 22.3125 74.21875 
Q 30.03125 74.21875 34.609375 68.875 
Q 39.203125 63.53125 39.203125 54.390625 
Q 39.203125 45.171875 34.640625 39.84375 
Q 30.078125 34.515625 22.3125 34.515625 
Q 14.546875 34.515625 10.03125 39.859375 
Q 5.515625 45.21875 5.515625 54.390625 
Q 5.515625 63.484375 10.046875 68.84375 
Q 14.59375 74.21875 22.3125 74.21875 
z
" id="DejaVuSans-37"/>
      </defs>
      <use xlink:href="#DejaVuSans-65"/>
      <use x="66.658203" xlink:href="#DejaVuSans-99"/>
      <use x="121.638672" xlink:href="#DejaVuSans-99"/>
      <use x="176.619141" xlink:href="#DejaVuSans-117"/>
      <use x="239.998047" xlink:href="#DejaVuSans-114"/>
      <use x="281.111328" xlink:href="#DejaVuSans-97"/>
      <use x="342.390625" xlink:href="#DejaVuSans-99"/>
      <use x="397.371094" xlink:href="#DejaVuSans-121"/>
      <use x="456.550781" xlink:href="#DejaVuSans-32"/>
      <use x="488.337891" xlink:href="#DejaVuSans-47"/>
      <use x="522.029297" xlink:href="#DejaVuSans-37"/>
     </g>
    </g>
   </g>
   <g id="matplotlib.axis_2">
    <g id="ytick_1">
     <g id="line2d_10">
      <defs>
       <path d="M 0 0 
L -3.5 0 
" id="m2356c5f6f3" style="stroke:#000000;stroke-width:0.8;"/>
      </defs>
      <g>
       <use style="stroke:#000000;stroke-width:0.8;" x="144" xlink:href="#m2356c5f6f3" y="444.362283"/>
      </g>
     </g>
     <g id="text_11">
      <!-- $\mathdefault{10^{1}}$ -->
      <g transform="translate(94.76 453.480408)scale(0.24 -0.24)">
       <use transform="translate(0 0.684375)" xlink:href="#DejaVuSans-49"/>
       <use transform="translate(63.623047 0.684375)" xlink:href="#DejaVuSans-48"/>
       <use transform="translate(128.203125 38.965625)scale(0.7)" xlink:href="#DejaVuSans-49"/>
      </g>
     </g>
    </g>
    <g id="ytick_2">
     <g id="line2d_11">
      <g>
       <use style="stroke:#000000;stroke-width:0.8;" x="144" xlink:href="#m2356c5f6f3" y="359.04"/>
      </g>
     </g>
     <g id="text_12">
      <!-- $\mathdefault{10^{2}}$ -->
      <g transform="translate(94.76 368.158125)scale(0.24 -0.24)">
       <use transform="translate(0 0.765625)" xlink:href="#DejaVuSans-49"/>
       <use transform="translate(63.623047 0.765625)" xlink:href="#DejaVuSans-48"/>
       <use transform="translate(128.203125 39.046875)scale(0.7)" xlink:href="#DejaVuSans-50"/>
      </g>
     </g>
    </g>
    <g id="ytick_3">
     <g id="line2d_12">
      <g>
       <use style="stroke:#000000;stroke-width:0.8;" x="144" xlink:href="#m2356c5f6f3" y="273.717717"/>
      </g>
     </g>
     <g id="text_13">
      <!-- $\mathdefault{10^{3}}$ -->
      <g transform="translate(94.76 282.835842)scale(0.24 -0.24)">
       <defs>
        <path d="M 40.578125 39.3125 
Q 47.65625 37.796875 51.625 33 
Q 55.609375 28.21875 55.609375 21.1875 
Q 55.609375 10.40625 48.1875 4.484375 
Q 40.765625 -1.421875 27.09375 -1.421875 
Q 22.515625 -1.421875 17.65625 -0.515625 
Q 12.796875 0.390625 7.625 2.203125 
L 7.625 11.71875 
Q 11.71875 9.328125 16.59375 8.109375 
Q 21.484375 6.890625 26.8125 6.890625 
Q 36.078125 6.890625 40.9375 10.546875 
Q 45.796875 14.203125 45.796875 21.1875 
Q 45.796875 27.640625 41.28125 31.265625 
Q 36.765625 34.90625 28.71875 34.90625 
L 20.21875 34.90625 
L 20.21875 43.015625 
L 29.109375 43.015625 
Q 36.375 43.015625 40.234375 45.921875 
Q 44.09375 48.828125 44.09375 54.296875 
Q 44.09375 59.90625 40.109375 62.90625 
Q 36.140625 65.921875 28.71875 65.921875 
Q 24.65625 65.921875 20.015625 65.03125 
Q 15.375 64.15625 9.8125 62.3125 
L 9.8125 71.09375 
Q 15.4375 72.65625 20.34375 73.4375 
Q 25.25 74.21875 29.59375 74.21875 
Q 40.828125 74.21875 47.359375 69.109375 
Q 53.90625 64.015625 53.90625 55.328125 
Q 53.90625 49.265625 50.4375 45.09375 
Q 46.96875 40.921875 40.578125 39.3125 
z
" id="DejaVuSans-51"/>
       </defs>
       <use transform="translate(0 0.765625)" xlink:href="#DejaVuSans-49"/>
       <use transform="translate(63.623047 0.765625)" xlink:href="#DejaVuSans-48"/>
       <use transform="translate(128.203125 39.046875)scale(0.7)" xlink:href="#DejaVuSans-51"/>
      </g>
     </g>
    </g>
    <g id="ytick_4">
     <g id="line2d_13">
      <g>
       <use style="stroke:#000000;stroke-width:0.8;" x="144" xlink:href="#m2356c5f6f3" y="188.395433"/>
      </g>
     </g>
     <g id="text_14">
      <!-- $\mathdefault{10^{4}}$ -->
      <g transform="translate(94.76 197.513558)scale(0.24 -0.24)">
       <use transform="translate(0 0.684375)" xlink:href="#DejaVuSans-49"/>
       <use transform="translate(63.623047 0.684375)" xlink:href="#DejaVuSans-48"/>
       <use transform="translate(128.203125 38.965625)scale(0.7)" xlink:href="#DejaVuSans-52"/>
      </g>
     </g>
    </g>
    <g id="ytick_5">
     <g id="line2d_14">
      <g>
       <use style="stroke:#000000;stroke-width:0.8;" x="144" xlink:href="#m2356c5f6f3" y="103.07315"/>
      </g>
     </g>
     <g id="text_15">
      <!-- $\mathdefault{10^{5}}$ -->
      <g transform="translate(94.76 112.191275)scale(0.24 -0.24)">
       <defs>
        <path d="M 10.796875 72.90625 
L 49.515625 72.90625 
L 49.515625 64.59375 
L 19.828125 64.59375 
L 19.828125 46.734375 
Q 21.96875 47.46875 24.109375 47.828125 
Q 26.265625 48.1875 28.421875 48.1875 
Q 40.625 48.1875 47.75 41.5 
Q 54.890625 34.8125 54.890625 23.390625 
Q 54.890625 11.625 47.5625 5.09375 
Q 40.234375 -1.421875 26.90625 -1.421875 
Q 22.3125 -1.421875 17.546875 -0.640625 
Q 12.796875 0.140625 7.71875 1.703125 
L 7.71875 11.625 
Q 12.109375 9.234375 16.796875 8.0625 
Q 21.484375 6.890625 26.703125 6.890625 
Q 35.15625 6.890625 40.078125 11.328125 
Q 45.015625 15.765625 45.015625 23.390625 
Q 45.015625 31 40.078125 35.4375 
Q 35.15625 39.890625 26.703125 39.890625 
Q 22.75 39.890625 18.8125 39.015625 
Q 14.890625 38.140625 10.796875 36.28125 
z
" id="DejaVuSans-53"/>
       </defs>
       <use transform="translate(0 0.684375)" xlink:href="#DejaVuSans-49"/>
       <use transform="translate(63.623047 0.684375)" xlink:href="#DejaVuSans-48"/>
       <use transform="translate(128.203125 38.965625)scale(0.7)" xlink:href="#DejaVuSans-53"/>
      </g>
     </g>
    </g>
    <g id="ytick_6">
     <g id="line2d_15">
      <defs>
       <path d="M 0 0 
L -2 0 
" id="ma986a6fb19" style="stroke:#000000;stroke-width:0.6;"/>
      </defs>
      <g>
       <use style="stroke:#000000;stroke-width:0.6;" x="144" xlink:href="#ma986a6fb19" y="504"/>
      </g>
     </g>
    </g>
    <g id="ytick_7">
     <g id="line2d_16">
      <g>
       <use style="stroke:#000000;stroke-width:0.6;" x="144" xlink:href="#ma986a6fb19" y="488.975492"/>
      </g>
     </g>
    </g>
    <g id="ytick_8">
     <g id="line2d_17">
      <g>
       <use style="stroke:#000000;stroke-width:0.6;" x="144" xlink:href="#ma986a6fb19" y="478.315433"/>
      </g>
     </g>
    </g>
    <g id="ytick_9">
     <g id="line2d_18">
      <g>
       <use style="stroke:#000000;stroke-width:0.6;" x="144" xlink:href="#ma986a6fb19" y="470.04685"/>
      </g>
     </g>
    </g>
    <g id="ytick_10">
     <g id="line2d_19">
      <g>
       <use style="stroke:#000000;stroke-width:0.6;" x="144" xlink:href="#ma986a6fb19" y="463.290925"/>
      </g>
     </g>
    </g>
    <g id="ytick_11">
     <g id="line2d_20">
      <g>
       <use style="stroke:#000000;stroke-width:0.6;" x="144" xlink:href="#ma986a6fb19" y="457.578872"/>
      </g>
     </g>
    </g>
    <g id="ytick_12">
     <g id="line2d_21">
      <g>
       <use style="stroke:#000000;stroke-width:0.6;" x="144" xlink:href="#ma986a6fb19" y="452.630867"/>
      </g>
     </g>
    </g>
    <g id="ytick_13">
     <g id="line2d_22">
      <g>
       <use style="stroke:#000000;stroke-width:0.6;" x="144" xlink:href="#ma986a6fb19" y="448.266417"/>
      </g>
     </g>
    </g>
    <g id="ytick_14">
     <g id="line2d_23">
      <g>
       <use style="stroke:#000000;stroke-width:0.6;" x="144" xlink:href="#ma986a6fb19" y="418.677717"/>
      </g>
     </g>
    </g>
    <g id="ytick_15">
     <g id="line2d_24">
      <g>
       <use style="stroke:#000000;stroke-width:0.6;" x="144" xlink:href="#ma986a6fb19" y="403.653208"/>
      </g>
     </g>
    </g>
    <g id="ytick_16">
     <g id="line2d_25">
      <g>
       <use style="stroke:#000000;stroke-width:0.6;" x="144" xlink:href="#ma986a6fb19" y="392.99315"/>
      </g>
     </g>
    </g>
    <g id="ytick_17">
     <g id="line2d_26">
      <g>
       <use style="stroke:#000000;stroke-width:0.6;" x="144" xlink:href="#ma986a6fb19" y="384.724567"/>
      </g>
     </g>
    </g>
    <g id="ytick_18">
     <g id="line2d_27">
      <g>
       <use style="stroke:#000000;stroke-width:0.6;" x="144" xlink:href="#ma986a6fb19" y="377.968642"/>
      </g>
     </g>
    </g>
    <g id="ytick_19">
     <g id="line2d_28">
      <g>
       <use style="stroke:#000000;stroke-width:0.6;" x="144" xlink:href="#ma986a6fb19" y="372.256589"/>
      </g>
     </g>
    </g>
    <g id="ytick_20">
     <g id="line2d_29">
      <g>
       <use style="stroke:#000000;stroke-width:0.6;" x="144" xlink:href="#ma986a6fb19" y="367.308584"/>
      </g>
     </g>
    </g>
    <g id="ytick_21">
     <g id="line2d_30">
      <g>
       <use style="stroke:#000000;stroke-width:0.6;" x="144" xlink:href="#ma986a6fb19" y="362.944134"/>
      </g>
     </g>
    </g>
    <g id="ytick_22">
     <g id="line2d_31">
      <g>
       <use style="stroke:#000000;stroke-width:0.6;" x="144" xlink:href="#ma986a6fb19" y="333.355433"/>
      </g>
     </g>
    </g>
    <g id="ytick_23">
     <g id="line2d_32">
      <g>
       <use style="stroke:#000000;stroke-width:0.6;" x="144" xlink:href="#ma986a6fb19" y="318.330925"/>
      </g>
     </g>
    </g>
    <g id="ytick_24">
     <g id="line2d_33">
      <g>
       <use style="stroke:#000000;stroke-width:0.6;" x="144" xlink:href="#ma986a6fb19" y="307.670867"/>
      </g>
     </g>
    </g>
    <g id="ytick_25">
     <g id="line2d_34">
      <g>
       <use style="stroke:#000000;stroke-width:0.6;" x="144" xlink:href="#ma986a6fb19" y="299.402283"/>
      </g>
     </g>
    </g>
    <g id="ytick_26">
     <g id="line2d_35">
      <g>
       <use style="stroke:#000000;stroke-width:0.6;" x="144" xlink:href="#ma986a6fb19" y="292.646359"/>
      </g>
     </g>
    </g>
    <g id="ytick_27">
     <g id="line2d_36">
      <g>
       <use style="stroke:#000000;stroke-width:0.6;" x="144" xlink:href="#ma986a6fb19" y="286.934306"/>
      </g>
     </g>
    </g>
    <g id="ytick_28">
     <g id="line2d_37">
      <g>
       <use style="stroke:#000000;stroke-width:0.6;" x="144" xlink:href="#ma986a6fb19" y="281.9863"/>
      </g>
     </g>
    </g>
    <g id="ytick_29">
     <g id="line2d_38">
      <g>
       <use style="stroke:#000000;stroke-width:0.6;" x="144" xlink:href="#ma986a6fb19" y="277.62185"/>
      </g>
     </g>
    </g>
    <g id="ytick_30">
     <g id="line2d_39">
      <g>
       <use style="stroke:#000000;stroke-width:0.6;" x="144" xlink:href="#ma986a6fb19" y="248.03315"/>
      </g>
     </g>
    </g>
    <g id="ytick_31">
     <g id="line2d_40">
      <g>
       <use style="stroke:#000000;stroke-width:0.6;" x="144" xlink:href="#ma986a6fb19" y="233.008642"/>
      </g>
     </g>
    </g>
    <g id="ytick_32">
     <g id="line2d_41">
      <g>
       <use style="stroke:#000000;stroke-width:0.6;" x="144" xlink:href="#ma986a6fb19" y="222.348584"/>
      </g>
     </g>
    </g>
    <g id="ytick_33">
     <g id="line2d_42">
      <g>
       <use style="stroke:#000000;stroke-width:0.6;" x="144" xlink:href="#ma986a6fb19" y="214.08"/>
      </g>
     </g>
    </g>
    <g id="ytick_34">
     <g id="line2d_43">
      <g>
       <use style="stroke:#000000;stroke-width:0.6;" x="144" xlink:href="#ma986a6fb19" y="207.324075"/>
      </g>
     </g>
    </g>
    <g id="ytick_35">
     <g id="line2d_44">
      <g>
       <use style="stroke:#000000;stroke-width:0.6;" x="144" xlink:href="#ma986a6fb19" y="201.612022"/>
      </g>
     </g>
    </g>
    <g id="ytick_36">
     <g id="line2d_45">
      <g>
       <use style="stroke:#000000;stroke-width:0.6;" x="144" xlink:href="#ma986a6fb19" y="196.664017"/>
      </g>
     </g>
    </g>
    <g id="ytick_37">
     <g id="line2d_46">
      <g>
       <use style="stroke:#000000;stroke-width:0.6;" x="144" xlink:href="#ma986a6fb19" y="192.299567"/>
      </g>
     </g>
    </g>
    <g id="ytick_38">
     <g id="line2d_47">
      <g>
       <use style="stroke:#000000;stroke-width:0.6;" x="144" xlink:href="#ma986a6fb19" y="162.710867"/>
      </g>
     </g>
    </g>
    <g id="ytick_39">
     <g id="line2d_48">
      <g>
       <use style="stroke:#000000;stroke-width:0.6;" x="144" xlink:href="#ma986a6fb19" y="147.686359"/>
      </g>
     </g>
    </g>
    <g id="ytick_40">
     <g id="line2d_49">
      <g>
       <use style="stroke:#000000;stroke-width:0.6;" x="144" xlink:href="#ma986a6fb19" y="137.0263"/>
      </g>
     </g>
    </g>
    <g id="ytick_41">
     <g id="line2d_50">
      <g>
       <use style="stroke:#000000;stroke-width:0.6;" x="144" xlink:href="#ma986a6fb19" y="128.757717"/>
      </g>
     </g>
    </g>
    <g id="ytick_42">
     <g id="line2d_51">
      <g>
       <use style="stroke:#000000;stroke-width:0.6;" x="144" xlink:href="#ma986a6fb19" y="122.001792"/>
      </g>
     </g>
    </g>
    <g id="ytick_43">
     <g id="line2d_52">
      <g>
       <use style="stroke:#000000;stroke-width:0.6;" x="144" xlink:href="#ma986a6fb19" y="116.289739"/>
      </g>
     </g>
    </g>
    <g id="ytick_44">
     <g id="line2d_53">
      <g>
       <use style="stroke:#000000;stroke-width:0.6;" x="144" xlink:href="#ma986a6fb19" y="111.341734"/>
      </g>
     </g>
    </g>
    <g id="ytick_45">
     <g id="line2d_54">
      <g>
       <use style="stroke:#000000;stroke-width:0.6;" x="144" xlink:href="#ma986a6fb19" y="106.977284"/>
      </g>
     </g>
    </g>
    <g id="ytick_46">
     <g id="line2d_55">
      <g>
       <use style="stroke:#000000;stroke-width:0.6;" x="144" xlink:href="#ma986a6fb19" y="77.388584"/>
      </g>
     </g>
    </g>
    <g id="text_16">
     <!-- Energy /A.U. -->
     <g transform="translate(84.936875 373.22)rotate(-90)scale(0.28 -0.28)">
      <defs>
       <path d="M 9.8125 72.90625 
L 55.90625 72.90625 
L 55.90625 64.59375 
L 19.671875 64.59375 
L 19.671875 43.015625 
L 54.390625 43.015625 
L 54.390625 34.71875 
L 19.671875 34.71875 
L 19.671875 8.296875 
L 56.78125 8.296875 
L 56.78125 0 
L 9.8125 0 
z
" id="DejaVuSans-69"/>
       <path d="M 54.890625 33.015625 
L 54.890625 0 
L 45.90625 0 
L 45.90625 32.71875 
Q 45.90625 40.484375 42.875 44.328125 
Q 39.84375 48.1875 33.796875 48.1875 
Q 26.515625 48.1875 22.3125 43.546875 
Q 18.109375 38.921875 18.109375 30.90625 
L 18.109375 0 
L 9.078125 0 
L 9.078125 54.6875 
L 18.109375 54.6875 
L 18.109375 46.1875 
Q 21.34375 51.125 25.703125 53.5625 
Q 30.078125 56 35.796875 56 
Q 45.21875 56 50.046875 50.171875 
Q 54.890625 44.34375 54.890625 33.015625 
z
" id="DejaVuSans-110"/>
       <path d="M 56.203125 29.59375 
L 56.203125 25.203125 
L 14.890625 25.203125 
Q 15.484375 15.921875 20.484375 11.0625 
Q 25.484375 6.203125 34.421875 6.203125 
Q 39.59375 6.203125 44.453125 7.46875 
Q 49.3125 8.734375 54.109375 11.28125 
L 54.109375 2.78125 
Q 49.265625 0.734375 44.1875 -0.34375 
Q 39.109375 -1.421875 33.890625 -1.421875 
Q 20.796875 -1.421875 13.15625 6.1875 
Q 5.515625 13.8125 5.515625 26.8125 
Q 5.515625 40.234375 12.765625 48.109375 
Q 20.015625 56 32.328125 56 
Q 43.359375 56 49.78125 48.890625 
Q 56.203125 41.796875 56.203125 29.59375 
z
M 47.21875 32.234375 
Q 47.125 39.59375 43.09375 43.984375 
Q 39.0625 48.390625 32.421875 48.390625 
Q 24.90625 48.390625 20.390625 44.140625 
Q 15.875 39.890625 15.1875 32.171875 
z
" id="DejaVuSans-101"/>
       <path d="M 45.40625 27.984375 
Q 45.40625 37.75 41.375 43.109375 
Q 37.359375 48.484375 30.078125 48.484375 
Q 22.859375 48.484375 18.828125 43.109375 
Q 14.796875 37.75 14.796875 27.984375 
Q 14.796875 18.265625 18.828125 12.890625 
Q 22.859375 7.515625 30.078125 7.515625 
Q 37.359375 7.515625 41.375 12.890625 
Q 45.40625 18.265625 45.40625 27.984375 
z
M 54.390625 6.78125 
Q 54.390625 -7.171875 48.1875 -13.984375 
Q 42 -20.796875 29.203125 -20.796875 
Q 24.46875 -20.796875 20.265625 -20.09375 
Q 16.0625 -19.390625 12.109375 -17.921875 
L 12.109375 -9.1875 
Q 16.0625 -11.328125 19.921875 -12.34375 
Q 23.78125 -13.375 27.78125 -13.375 
Q 36.625 -13.375 41.015625 -8.765625 
Q 45.40625 -4.15625 45.40625 5.171875 
L 45.40625 9.625 
Q 42.625 4.78125 38.28125 2.390625 
Q 33.9375 0 27.875 0 
Q 17.828125 0 11.671875 7.65625 
Q 5.515625 15.328125 5.515625 27.984375 
Q 5.515625 40.671875 11.671875 48.328125 
Q 17.828125 56 27.875 56 
Q 33.9375 56 38.28125 53.609375 
Q 42.625 51.21875 45.40625 46.390625 
L 45.40625 54.6875 
L 54.390625 54.6875 
z
" id="DejaVuSans-103"/>
       <path d="M 10.6875 12.40625 
L 21 12.40625 
L 21 0 
L 10.6875 0 
z
" id="DejaVuSans-46"/>
       <path d="M 8.6875 72.90625 
L 18.609375 72.90625 
L 18.609375 28.609375 
Q 18.609375 16.890625 22.84375 11.734375 
Q 27.09375 6.59375 36.625 6.59375 
Q 46.09375 6.59375 50.34375 11.734375 
Q 54.59375 16.890625 54.59375 28.609375 
L 54.59375 72.90625 
L 64.5 72.90625 
L 64.5 27.390625 
Q 64.5 13.140625 57.4375 5.859375 
Q 50.390625 -1.421875 36.625 -1.421875 
Q 22.796875 -1.421875 15.734375 5.859375 
Q 8.6875 13.140625 8.6875 27.390625 
z
" id="DejaVuSans-85"/>
      </defs>
      <use xlink:href="#DejaVuSans-69"/>
      <use x="63.183594" xlink:href="#DejaVuSans-110"/>
      <use x="126.5625" xlink:href="#DejaVuSans-101"/>
      <use x="188.085938" xlink:href="#DejaVuSans-114"/>
      <use x="227.449219" xlink:href="#DejaVuSans-103"/>
      <use x="290.925781" xlink:href="#DejaVuSans-121"/>
      <use x="350.105469" xlink:href="#DejaVuSans-32"/>
      <use x="381.892578" xlink:href="#DejaVuSans-47"/>
      <use x="415.583984" xlink:href="#DejaVuSans-65"/>
      <use x="482.242188" xlink:href="#DejaVuSans-46"/>
      <use x="514.029297" xlink:href="#DejaVuSans-85"/>
      <use x="587.222656" xlink:href="#DejaVuSans-46"/>
     </g>
    </g>
   </g>
   <g id="line2d_56">
    <path clip-path="url(#p32096f3ae6)" d="M 70.902 237.094365 
L 334.836 214.600563 
L 414.63 202.324924 
L 467.64 193.688167 
L 492.75 186.933649 
L 521.766 181.631029 
L 521.208 177.170624 
L 565.29 173.117255 
L 553.572 169.487717 
L 580.914 166.372285 
L 599.886 163.568922 
L 597.654 158.711135 
L 618.858 156.523134 
L 632.25 154.52757 
L 640.062 152.695466 
L 661.824 150.953227 
L 650.664 147.727142 
L 666.846 146.25155 
L 677.448 144.930531 
L 682.47 143.605027 
L 699.21 142.419852 
L 697.536 141.200192 
L 693.63 140.097783 
L 691.398 139.022451 
L 713.718 138.004505 
L 715.95 137.037926 
L 724.878 136.128585 
L 728.784 135.192426 
L 720.414 134.244717 
L 734.364 133.392385 
L 736.596 132.575833 
L 737.154 131.802073 
L 748.872 131.04953 
L 749.43 130.281549 
L 765.612 129.585244 
L 763.38 128.909056 
L 773.982 128.2307 
L 775.098 127.569068 
L 767.286 126.936727 
L 775.656 126.282227 
L 770.634 125.705255 
L 782.352 125.134531 
L 791.28 124.572427 
L 789.048 123.952054 
L 785.142 123.423669 
L 778.446 122.876111 
L 789.606 122.355159 
L 795.186 121.817916 
L 794.628 121.328548 
L 804.672 120.423475 
L 807.462 119.994248 
L 802.44 119.518144 
L 810.81 119.082695 
L 815.274 118.62189 
L 816.948 118.210033 
L 809.694 117.757601 
L 829.782 117.332298 
L 820.854 116.953873 
L 815.832 116.570536 
L 824.76 116.169256 
L 834.804 115.422269 
L 826.434 115.065529 
L 830.34 114.692576 
L 829.224 114.332869 
L 830.898 113.977973 
L 834.804 113.623733 
L 837.036 113.269109 
L 840.942 112.935834 
L 835.362 112.58239 
L 842.058 112.272148 
L 843.174 111.944888 
L 850.986 111.632043 
L 835.362 111.324032 
L 847.638 111.032418 
L 847.08 110.720328 
L 850.986 110.437405 
L 852.102 110.145332 
L 852.102 109.278612 
L 856.008 108.997427 
L 854.892 108.442226 
L 862.704 108.173859 
L 861.588 107.91206 
L 863.82 107.651264 
L 863.262 107.378398 
L 856.566 107.118408 
L 856.566 106.879162 
L 867.726 106.627462 
L 865.494 106.39053 
L 875.538 105.910516 
L 869.4 105.687108 
L 875.538 105.449977 
L 871.632 105.213806 
L 876.096 104.991703 
L 871.632 104.765081 
L 874.422 104.542472 
L 872.19 104.308644 
L 872.19 104.080743 
L 880.56 103.846772 
L 882.792 103.63976 
L 874.98 103.210068 
L 878.886 103.008587 
L 872.19 102.811835 
L 884.466 102.390833 
L 878.886 102.182408 
L 881.118 101.984312 
L 877.212 101.77726 
L 876.654 101.582482 
L 885.582 101.398048 
L 887.256 101.192895 
L 884.466 101.021429 
L 878.886 100.835061 
L 885.582 100.466204 
L 883.908 100.299782 
L 876.096 100.124947 
L 891.162 99.746272 
L 891.162 99.582904 
L 882.792 99.396179 
L 888.93 99.229105 
L 888.93 99.04718 
L 890.604 98.869782 
L 895.626 98.713966 
L 893.394 98.541915 
L 885.024 98.375216 
L 895.068 98.211976 
L 879.444 98.043152 
L 889.488 97.712759 
L 893.952 97.544691 
L 893.394 97.39364 
L 893.952 97.23314 
L 896.742 97.081959 
L 890.604 96.933658 
L 891.162 96.790827 
L 888.372 96.487101 
L 883.35 96.321108 
L 892.836 96.17136 
L 896.742 95.740373 
L 902.88 95.592845 
L 896.184 95.445685 
L 897.858 95.299585 
L 903.438 95.170402 
L 897.858 95.039334 
L 899.532 94.899817 
L 897.858 94.760697 
L 893.394 94.609289 
L 900.09 94.480015 
L 899.532 94.343766 
L 895.068 94.211141 
L 901.206 94.087168 
L 898.974 93.826678 
L 902.322 93.692784 
L 895.626 93.555778 
L 906.228 93.429788 
L 893.394 93.179393 
L 900.648 93.059833 
L 900.648 92.932005 
L 896.184 92.807668 
L 900.09 92.685511 
L 900.09 92.56515 
L 901.764 92.448998 
L 901.764 92.321358 
L 907.902 91.940816 
L 898.974 91.816643 
L 907.902 91.466696 
L 907.902 91.355434 
L 903.996 91.248861 
L 906.228 91.138788 
L 903.996 91.017557 
L 905.112 90.900615 
L 911.808 90.787811 
L 911.25 90.674009 
L 904.554 90.446003 
L 911.808 90.334111 
L 906.228 90.22124 
L 908.46 90.108942 
L 907.344 89.998854 
L 903.438 89.889545 
L 907.344 89.792371 
L 902.88 89.687853 
L 913.482 89.478607 
L 910.134 89.388621 
L 907.344 89.289788 
L 912.366 89.190169 
L 909.018 89.097683 
L 909.576 89.000072 
L 911.808 88.906861 
L 904.554 88.697009 
L 907.902 88.598339 
L 906.228 88.494855 
L 915.714 88.394474 
L 906.786 88.295041 
L 908.46 88.189469 
L 906.228 88.098323 
L 911.808 88.007937 
L 903.996 87.921205 
L 907.902 87.829418 
L 906.786 87.732036 
L 909.018 87.631895 
L 906.786 87.440692 
L 914.04 87.260286 
L 906.786 87.170129 
L 911.808 87.068506 
L 907.902 86.986374 
L 914.598 86.719437 
L 908.46 86.634688 
L 912.366 86.551505 
L 911.808 86.453503 
L 913.482 86.370809 
L 909.576 86.193439 
L 912.366 86.112768 
L 911.25 86.020619 
L 912.366 85.854482 
L 916.83 85.774233 
L 915.156 85.694832 
L 914.598 85.616376 
L 918.504 85.529957 
L 909.576 85.110714 
L 917.946 84.715844 
L 912.366 84.639837 
L 913.482 84.551875 
L 920.178 84.472398 
L 912.924 84.399155 
L 917.388 84.324213 
L 911.25 84.096818 
L 916.272 84.023203 
L 914.04 83.952506 
L 907.902 83.884608 
L 920.178 83.809403 
L 917.388 83.732389 
L 911.25 83.597198 
L 912.366 83.520526 
L 920.736 83.291067 
L 915.156 83.21793 
L 917.388 83.153648 
L 915.714 83.079796 
L 910.134 83.013954 
L 917.388 82.945342 
L 907.902 82.802828 
L 919.62 82.730052 
L 917.388 82.660929 
L 915.714 82.586084 
L 910.134 82.516347 
L 914.04 82.440388 
L 910.134 82.374789 
L 921.294 82.255159 
L 916.272 82.190961 
L 916.272 82.132907 
L 915.714 82.068977 
L 919.62 81.71652 
L 916.272 81.648104 
L 920.178 81.521434 
L 914.04 81.461632 
L 925.2 81.331284 
L 917.946 81.200627 
L 922.968 81.081354 
L 921.294 81.012406 
L 908.46 80.951781 
L 915.714 80.898045 
L 913.482 80.831729 
L 918.504 80.786538 
L 916.272 80.729258 
L 914.04 80.672357 
L 922.41 80.554833 
L 917.388 80.364652 
L 922.968 80.297095 
L 915.156 80.232256 
L 915.714 80.176007 
L 923.526 79.959182 
L 920.736 79.900721 
L 911.808 79.842622 
L 922.968 79.780472 
L 920.736 79.723866 
L 922.41 79.6684 
L 921.294 79.611107 
L 914.598 79.496511 
L 915.156 79.442129 
L 914.598 79.386327 
L 921.294 79.170268 
L 916.272 79.005351 
L 926.874 78.90097 
L 924.084 78.847222 
L 915.714 78.79202 
L 919.062 78.740389 
L 922.41 78.640954 
L 921.852 78.586049 
L 918.504 78.535622 
L 919.062 78.436008 
L 922.968 78.281083 
L 921.852 78.226362 
L 921.852 78.226362 
" style="fill:none;stroke:#1f1f1f;stroke-linecap:square;stroke-width:5;"/>
   </g>
   <g id="line2d_57">
    <path clip-path="url(#p32096f3ae6)" d="M 70.902 503.393322 
L 334.836 471.468704 
L 414.63 452.382483 
L 467.64 438.861778 
L 492.75 428.19486 
L 521.766 419.394373 
L 521.208 411.912173 
L 565.29 405.405908 
L 553.572 399.626652 
L 580.914 394.387172 
L 599.886 389.607367 
L 597.654 381.209342 
L 618.858 377.476586 
L 632.25 374.040373 
L 640.062 370.849427 
L 661.824 367.866725 
L 656.244 365.077014 
L 650.664 362.459798 
L 666.846 359.969941 
L 677.448 357.592234 
L 682.47 355.327022 
L 699.21 353.157348 
L 697.536 351.089082 
L 693.63 349.113253 
L 691.398 347.213909 
L 713.718 345.407104 
L 715.95 343.67604 
L 724.878 342.00506 
L 728.784 340.407235 
L 720.414 338.851721 
L 734.364 337.358311 
L 736.596 335.926447 
L 737.154 334.536261 
L 748.872 333.192073 
L 749.43 331.896955 
L 765.612 330.639369 
L 763.38 329.423761 
L 773.982 328.246658 
L 775.098 327.104806 
L 767.286 325.998017 
L 775.656 324.92482 
L 770.634 323.87376 
L 782.352 322.852144 
L 791.28 321.850058 
L 789.048 320.883184 
L 785.142 319.935201 
L 778.446 319.005223 
L 789.606 318.095986 
L 795.186 317.206495 
L 794.628 316.341475 
L 804.672 314.662819 
L 807.462 313.845535 
L 802.44 313.047624 
L 810.81 312.260571 
L 815.274 311.487055 
L 816.948 310.735855 
L 809.694 310.003904 
L 829.782 309.286877 
L 820.854 308.575533 
L 815.832 307.877693 
L 824.76 307.193066 
L 834.804 305.842279 
L 826.434 305.18411 
L 830.34 304.542177 
L 829.224 303.911591 
L 830.898 303.297592 
L 834.804 302.694818 
L 837.036 302.101547 
L 840.942 301.517785 
L 835.362 300.942474 
L 842.058 300.373387 
L 843.174 299.81617 
L 850.986 299.26403 
L 835.362 298.719936 
L 847.638 298.18332 
L 847.08 297.651157 
L 850.986 297.129622 
L 852.102 296.616965 
L 852.102 295.115486 
L 856.008 294.621613 
L 854.892 293.657799 
L 862.704 293.184075 
L 861.588 292.71718 
L 863.82 292.252831 
L 863.262 291.795491 
L 856.566 291.347507 
L 856.566 290.898937 
L 867.726 290.456626 
L 865.494 290.018777 
L 869.958 289.586407 
L 875.538 289.159308 
L 869.4 288.735207 
L 875.538 288.318188 
L 871.632 287.899218 
L 876.096 287.48809 
L 871.632 287.082331 
L 874.422 286.681972 
L 872.19 286.280331 
L 872.19 285.885514 
L 880.56 285.494229 
L 882.792 285.105559 
L 879.444 284.718711 
L 874.98 284.335737 
L 878.886 283.956868 
L 872.19 283.580521 
L 880.002 283.207437 
L 884.466 282.838558 
L 878.886 282.475769 
L 881.118 282.1156 
L 877.212 281.761547 
L 876.654 281.408919 
L 885.582 281.057706 
L 887.256 280.709299 
L 884.466 280.362395 
L 878.886 280.018778 
L 883.35 279.679212 
L 885.582 279.342827 
L 883.908 279.009154 
L 876.096 278.676118 
L 891.162 278.018986 
L 891.162 277.69394 
L 882.792 277.372135 
L 888.93 277.053524 
L 888.93 276.739224 
L 890.604 276.427241 
L 895.626 276.119933 
L 893.394 275.814286 
L 885.024 275.508501 
L 895.068 275.205512 
L 879.444 274.904472 
L 886.698 274.604366 
L 889.488 274.305841 
L 893.952 274.009586 
L 893.394 273.717539 
L 893.952 273.426147 
L 896.742 273.137095 
L 890.604 272.849386 
L 891.162 272.564195 
L 888.372 271.997645 
L 883.35 271.719522 
L 892.836 271.440407 
L 893.952 271.162035 
L 896.742 270.615777 
L 902.88 270.344898 
L 896.184 270.075405 
L 897.858 269.806332 
L 903.438 269.540282 
L 897.858 269.276698 
L 899.532 269.015042 
L 897.858 268.754737 
L 893.394 268.496014 
L 900.09 268.237608 
L 899.532 267.980829 
L 895.068 267.725996 
L 901.206 267.472511 
L 899.532 267.220516 
L 898.974 266.968513 
L 902.322 266.71952 
L 895.626 266.471361 
L 906.228 266.224843 
L 897.3 265.978257 
L 893.394 265.733485 
L 900.648 265.489805 
L 900.648 265.248685 
L 896.184 265.007344 
L 900.09 264.767616 
L 900.09 264.52961 
L 901.764 264.292975 
L 901.764 264.057855 
L 904.554 263.589839 
L 907.902 263.357183 
L 898.974 263.125244 
L 902.88 262.894046 
L 904.554 262.664102 
L 907.902 262.436489 
L 907.902 262.20955 
L 903.996 261.983214 
L 906.228 261.756919 
L 903.996 261.531643 
L 905.112 261.310109 
L 911.808 261.088211 
L 911.25 260.866609 
L 904.554 260.645631 
L 904.554 260.425767 
L 911.808 260.205793 
L 906.228 259.986988 
L 908.46 259.767836 
L 907.344 259.550306 
L 903.438 259.334666 
L 907.344 259.119806 
L 902.88 258.905868 
L 906.228 258.692635 
L 913.482 258.480573 
L 907.344 258.058126 
L 912.366 257.848441 
L 909.018 257.638675 
L 909.576 257.430401 
L 911.808 257.222468 
L 905.112 257.016327 
L 904.554 256.811092 
L 907.902 256.606658 
L 906.228 256.403069 
L 915.714 256.199266 
L 906.786 255.99659 
L 908.46 255.794394 
L 906.228 255.593073 
L 911.808 255.392125 
L 903.996 255.193248 
L 907.902 254.994253 
L 906.786 254.795606 
L 909.018 254.598531 
L 907.344 254.400381 
L 906.786 254.203597 
L 914.04 253.810724 
L 906.786 253.614687 
L 911.808 253.419634 
L 907.902 253.225882 
L 910.134 253.033191 
L 914.04 252.84096 
L 914.598 252.649172 
L 908.46 252.458518 
L 912.366 252.269011 
L 911.808 252.079425 
L 913.482 251.889172 
L 910.134 251.700314 
L 909.576 251.511864 
L 912.366 251.323995 
L 911.25 251.136791 
L 912.366 250.765015 
L 916.83 250.579905 
L 915.156 250.395125 
L 914.598 250.210549 
L 918.504 250.026802 
L 916.83 249.843743 
L 914.04 249.660804 
L 913.482 249.478594 
L 914.04 249.297272 
L 909.576 249.116627 
L 911.25 248.93716 
L 915.156 248.758669 
L 912.924 248.579941 
L 917.946 248.22435 
L 912.366 248.047881 
L 913.482 247.870473 
L 920.178 247.693813 
L 912.924 247.518329 
L 917.388 247.343475 
L 915.156 247.168969 
L 915.714 246.995278 
L 911.25 246.82137 
L 916.272 246.647817 
L 914.04 246.475399 
L 907.902 246.303905 
L 920.178 246.133186 
L 911.25 245.623446 
L 912.366 245.454313 
L 920.736 244.950324 
L 915.156 244.78375 
L 917.388 244.617044 
L 915.714 244.450948 
L 910.134 244.286026 
L 917.388 244.12069 
L 907.902 243.956429 
L 907.902 243.793025 
L 919.62 243.629658 
L 915.714 243.304717 
L 910.134 243.142854 
L 914.04 242.980975 
L 910.134 242.819386 
L 914.04 242.658244 
L 921.294 242.497456 
L 916.272 242.337525 
L 916.272 242.177834 
L 915.714 242.018505 
L 916.83 241.700734 
L 919.062 241.386086 
L 919.62 241.229194 
L 916.272 241.072937 
L 920.178 240.761925 
L 914.04 240.6075 
L 923.526 240.452127 
L 925.2 240.29767 
L 917.946 240.143667 
L 917.946 239.98962 
L 922.968 239.683282 
L 921.294 239.530512 
L 908.46 239.379054 
L 915.714 239.227651 
L 913.482 239.076828 
L 918.504 238.92594 
L 914.04 238.625702 
L 922.41 238.327638 
L 917.946 238.031077 
L 917.388 237.884029 
L 922.968 237.73729 
L 915.156 237.590431 
L 915.714 237.444187 
L 918.504 237.298946 
L 918.504 237.153427 
L 919.062 237.008472 
L 923.526 236.863682 
L 920.736 236.719302 
L 911.808 236.575186 
L 922.968 236.431479 
L 920.736 236.287651 
L 922.41 236.14415 
L 921.294 236.001877 
L 914.598 235.717689 
L 915.156 235.575958 
L 914.598 235.435253 
L 920.178 235.155114 
L 921.294 234.875051 
L 920.178 234.735729 
L 920.178 234.596835 
L 916.272 234.458786 
L 926.874 234.183859 
L 924.084 234.046728 
L 915.714 233.91036 
L 921.294 233.637652 
L 922.41 233.501736 
L 921.852 233.365978 
L 918.504 233.230999 
L 919.062 233.096254 
L 919.062 232.961756 
L 921.852 232.827583 
L 919.062 232.69363 
L 922.968 232.559769 
L 921.852 232.426399 
L 921.852 232.426399 
" style="fill:none;stroke:#9e9e9e;stroke-linecap:square;stroke-width:5;"/>
   </g>
   <g id="line2d_58">
    <path clip-path="url(#p32096f3ae6)" d="M -1 278.882067 
L 9.522 278.282063 
L 98.244 268.284599 
L 228.258 260.878031 
L 230.49 254.292643 
L 286.848 249.153966 
L 352.692 244.655138 
L 356.04 240.599222 
L 378.918 237.058915 
L 397.332 233.830455 
L 421.884 231.00516 
L 426.348 228.02943 
L 412.956 225.487181 
L 455.922 223.102765 
L 476.568 221.013797 
L 470.988 218.922799 
L 448.11 216.951017 
L 484.38 215.139792 
L 487.17 213.30428 
L 502.794 211.514225 
L 522.882 208.35493 
L 520.092 206.949372 
L 532.926 205.498652 
L 505.584 204.192059 
L 542.97 203.00002 
L 539.622 201.705785 
L 545.76 200.468475 
L 547.992 199.338531 
L 551.34 198.262983 
L 544.086 197.102292 
L 570.87 196.066939 
L 563.058 195.158071 
L 539.064 194.145228 
L 558.594 193.188326 
L 550.224 192.309709 
L 580.914 191.455057 
L 574.776 190.606275 
L 563.058 189.784964 
L 573.66 188.990183 
L 537.948 188.224135 
L 558.594 187.488475 
L 562.5 186.680023 
L 592.074 185.947083 
L 593.748 185.260544 
L 588.168 183.877988 
L 614.952 183.221426 
L 612.72 182.614892 
L 592.632 182.012243 
L 627.786 181.439337 
L 617.742 180.855538 
L 627.228 180.283935 
L 632.808 179.723825 
L 618.3 179.150234 
L 623.322 178.629197 
L 623.322 178.123032 
L 643.968 177.561414 
L 604.35 177.004143 
L 609.93 176.464597 
L 645.642 175.988979 
L 622.764 175.1007 
L 632.25 174.620293 
L 628.902 174.170366 
L 640.062 173.704674 
L 643.968 173.286918 
L 635.04 172.864582 
L 657.918 172.426019 
L 657.918 172.013967 
L 667.404 171.649715 
L 651.222 171.237304 
L 671.868 170.853962 
L 647.316 170.478647 
L 672.426 170.065056 
L 652.338 169.70794 
L 667.962 169.294255 
L 668.52 168.918155 
L 674.658 168.555828 
L 672.426 168.232836 
L 685.26 167.869101 
L 685.818 167.550205 
L 687.492 167.223913 
L 697.536 166.869196 
L 674.1 165.929279 
L 689.724 165.59789 
L 696.978 165.312633 
L 688.05 165.004006 
L 698.652 164.71507 
L 699.21 164.41949 
L 683.586 164.105849 
L 709.812 163.547649 
L 696.42 163.253003 
L 707.022 162.977341 
L 704.232 162.687407 
L 699.21 162.439976 
L 709.254 162.158592 
L 709.254 161.889891 
L 696.978 161.597391 
L 716.508 161.341801 
L 714.834 161.069312 
L 716.508 160.825202 
L 723.204 160.315313 
L 697.536 160.084073 
L 720.972 159.844636 
L 718.74 159.618264 
L 712.044 159.377118 
L 722.646 159.154099 
L 709.812 158.928422 
L 719.856 158.686 
L 720.414 158.467722 
L 700.884 158.230867 
L 711.486 158.007693 
L 737.712 157.783885 
L 727.11 157.563692 
L 727.11 157.318203 
L 731.016 157.123302 
L 746.64 156.920345 
L 733.806 156.721412 
L 733.248 156.503372 
L 741.06 156.277536 
L 738.27 156.080248 
L 747.756 155.6563 
L 708.138 155.250458 
L 746.64 155.053057 
L 729.9 154.883207 
L 743.85 154.705105 
L 731.574 154.522109 
L 726.552 154.334443 
L 750.546 154.136905 
L 738.828 153.971146 
L 753.336 153.799224 
L 735.48 153.610266 
L 743.292 153.410003 
L 758.358 153.212399 
L 750.546 153.025009 
L 719.298 152.84432 
L 758.916 152.681869 
L 746.64 152.493448 
L 752.22 152.321681 
L 734.364 152.144361 
L 753.894 151.990302 
L 741.618 151.805825 
L 766.728 151.325992 
L 758.916 151.170933 
L 764.496 151.014989 
L 763.38 150.852759 
L 761.148 150.68919 
L 755.01 150.545942 
L 767.286 150.235764 
L 762.822 150.089644 
L 751.104 149.919625 
L 756.126 149.769842 
L 766.17 149.606421 
L 759.474 149.479946 
L 766.728 149.334212 
L 767.286 149.17925 
L 767.286 149.023824 
L 781.236 148.875581 
L 771.192 148.717029 
L 755.01 148.573649 
L 774.54 148.434487 
L 768.96 148.306857 
L 776.214 148.175901 
L 776.214 147.888282 
L 777.33 147.762216 
L 763.38 147.508852 
L 786.258 147.351094 
L 777.33 147.209209 
L 782.352 147.081076 
L 782.352 146.959114 
L 776.772 146.830936 
L 782.91 146.70408 
L 780.12 146.57973 
L 785.142 146.444651 
L 781.236 146.185958 
L 769.518 146.061412 
L 768.402 145.922662 
L 771.192 145.79526 
L 784.026 145.51742 
L 781.794 145.412099 
L 771.75 145.289774 
L 775.656 145.163668 
L 791.838 145.041336 
L 775.098 144.910638 
L 787.374 144.779128 
L 786.816 144.665629 
L 778.446 144.431156 
L 788.49 144.311079 
L 782.352 144.191843 
L 792.954 143.994324 
L 780.678 143.852939 
L 788.49 143.738028 
L 785.7 143.632841 
L 801.882 143.411468 
L 786.816 143.293414 
L 787.932 143.177807 
L 795.744 143.073075 
L 795.186 142.950419 
L 799.65 142.83486 
L 790.164 142.624498 
L 780.678 142.530841 
L 797.976 142.407554 
L 796.86 142.308881 
L 794.628 142.193742 
L 800.766 142.091653 
L 791.838 141.766685 
L 794.07 141.654806 
L 799.092 141.543259 
L 798.534 141.444289 
L 801.882 141.346355 
L 790.722 141.14446 
L 805.788 140.941648 
L 784.026 140.843919 
L 798.534 140.748545 
L 794.07 140.647227 
L 802.998 140.561253 
L 801.882 140.462362 
L 799.092 140.365204 
L 782.91 140.280238 
L 796.302 140.1864 
L 795.186 140.106642 
L 804.114 140.013455 
L 802.998 139.929916 
L 799.092 139.824396 
L 799.65 139.710364 
L 807.462 139.518525 
L 778.446 139.428063 
L 805.23 139.220099 
L 798.534 139.051397 
L 811.368 138.962584 
L 810.81 138.878655 
L 801.324 138.771948 
L 813.042 138.685881 
L 795.744 138.593248 
L 802.998 138.496523 
L 802.44 138.411448 
L 819.738 138.156421 
L 808.578 138.019183 
L 815.274 137.581515 
L 802.44 137.505111 
L 811.368 137.421997 
L 805.23 137.331989 
L 813.042 137.24082 
L 803.556 137.159387 
L 817.506 137.000542 
L 811.368 136.919207 
L 821.97 136.761927 
L 806.904 136.684747 
L 815.274 136.600757 
L 808.02 136.515079 
L 814.716 136.351603 
L 807.462 136.259263 
L 811.926 136.186774 
L 806.346 136.11411 
L 812.484 135.955409 
L 808.02 135.881473 
L 821.412 135.720832 
L 819.738 135.637611 
L 820.854 135.565096 
L 806.904 135.490853 
L 820.854 135.412096 
L 815.832 135.334153 
L 815.832 135.263462 
L 809.136 135.11746 
L 822.528 134.981793 
L 818.622 134.901722 
L 803.556 134.835227 
L 825.318 134.762133 
L 822.528 134.68323 
L 821.97 134.611467 
L 816.948 134.468628 
L 820.296 134.393288 
L 803.556 134.248633 
L 817.506 134.107068 
L 794.628 134.038973 
L 815.274 133.890282 
L 816.948 133.817584 
L 808.578 133.763153 
L 828.666 133.684495 
L 821.412 133.62455 
L 830.898 133.498311 
L 816.948 133.316302 
L 820.296 133.251576 
L 819.18 133.185836 
L 818.064 133.113945 
L 828.108 133.048214 
L 818.622 132.912276 
L 824.76 132.842101 
L 822.528 132.757898 
L 816.948 132.700161 
L 828.666 132.585176 
L 810.81 132.325903 
L 830.34 132.11442 
L 829.224 132.055383 
L 814.158 131.933985 
L 832.572 131.873291 
L 822.528 131.826276 
L 825.876 131.763369 
L 821.97 131.707377 
L 832.572 131.515764 
L 818.064 131.33426 
L 818.064 131.33426 
" style="fill:none;stroke:#ff1500;stroke-linecap:square;stroke-width:5;"/>
   </g>
   <g id="line2d_59">
    <path clip-path="url(#p32096f3ae6)" d="M -1 508.449535 
L 9.522 507.292275 
L 98.244 487.745764 
L 228.258 473.559391 
L 230.49 462.34016 
L 286.848 453.144715 
L 352.692 445.340613 
L 356.04 438.548164 
L 378.918 432.600597 
L 397.332 427.243061 
L 421.884 422.396335 
L 426.348 417.971789 
L 412.956 413.859172 
L 455.922 410.071992 
L 476.568 406.575678 
L 470.988 403.315527 
L 448.11 400.257126 
L 484.38 397.368162 
L 487.17 394.632905 
L 502.794 392.066882 
L 513.396 389.622648 
L 522.882 387.293651 
L 520.092 385.070656 
L 532.926 382.948551 
L 505.584 380.91558 
L 542.97 378.977235 
L 539.622 377.106122 
L 545.76 375.304682 
L 547.992 373.568634 
L 551.34 371.889881 
L 544.086 370.268558 
L 570.87 368.699339 
L 563.058 367.171373 
L 539.064 365.705898 
L 558.594 364.274256 
L 550.224 362.878414 
L 580.914 361.519965 
L 574.776 360.199787 
L 563.058 358.911819 
L 573.66 357.665471 
L 537.948 356.448331 
L 558.594 355.264811 
L 562.5 354.103361 
L 592.074 352.979532 
L 593.748 351.877703 
L 588.168 349.757962 
L 614.952 348.731327 
L 612.72 347.728254 
L 592.632 346.741074 
L 627.786 345.778316 
L 617.742 344.830825 
L 627.228 343.911782 
L 632.808 343.007672 
L 618.3 342.123938 
L 623.322 341.255391 
L 623.322 340.403376 
L 643.968 339.568277 
L 604.35 338.749144 
L 609.93 337.939085 
L 645.642 337.148455 
L 631.692 336.366127 
L 622.764 335.598726 
L 632.25 334.853495 
L 628.902 334.114503 
L 640.062 333.390455 
L 643.968 332.674066 
L 635.04 331.972367 
L 657.918 331.280184 
L 657.918 330.60072 
L 667.404 329.931848 
L 651.222 329.271457 
L 671.868 328.619241 
L 647.316 327.979836 
L 672.426 327.349268 
L 652.338 326.724532 
L 667.962 326.107471 
L 668.52 325.504754 
L 674.658 324.905232 
L 672.426 324.313226 
L 685.26 323.731664 
L 685.818 323.157754 
L 687.492 322.590575 
L 697.536 322.035619 
L 683.028 320.948889 
L 674.1 320.417106 
L 689.724 319.889428 
L 696.978 319.369884 
L 688.05 318.857872 
L 698.652 318.35205 
L 699.21 317.851433 
L 683.586 317.356662 
L 699.768 316.865606 
L 709.812 316.382093 
L 696.42 315.900731 
L 707.022 315.42322 
L 704.232 314.948329 
L 699.21 314.479608 
L 709.254 314.017201 
L 709.254 313.561739 
L 696.978 313.10799 
L 716.508 312.662889 
L 714.834 312.223566 
L 716.508 311.787707 
L 723.204 310.927477 
L 697.536 310.501855 
L 720.972 310.083597 
L 718.74 309.670684 
L 712.044 309.259163 
L 722.646 308.851543 
L 709.812 308.44603 
L 719.856 308.047952 
L 720.414 307.651037 
L 700.884 307.259449 
L 711.486 306.870283 
L 737.712 306.484125 
L 727.11 306.102873 
L 727.11 305.722639 
L 731.016 305.347731 
L 746.64 304.977178 
L 733.806 304.608687 
L 733.248 304.244267 
L 741.06 303.882257 
L 738.27 303.52259 
L 747.756 302.810795 
L 708.138 302.112718 
L 746.64 301.766366 
L 729.9 301.422239 
L 743.85 301.080367 
L 731.574 300.742207 
L 726.552 300.405863 
L 750.546 300.071799 
L 738.828 299.738241 
L 753.336 299.409628 
L 735.48 299.081257 
L 743.292 298.756841 
L 758.358 298.435813 
L 750.546 298.116497 
L 719.298 297.800169 
L 758.916 297.485863 
L 746.64 297.174504 
L 752.22 296.865271 
L 734.364 296.557174 
L 753.894 296.250469 
L 741.618 295.948146 
L 760.032 295.349738 
L 766.728 295.051868 
L 758.916 294.758574 
L 764.496 294.465073 
L 763.38 294.172673 
L 761.148 293.885144 
L 755.01 293.598356 
L 767.286 293.029053 
L 762.822 292.74657 
L 751.104 292.468045 
L 756.126 292.19112 
L 766.17 291.916116 
L 759.474 291.642046 
L 766.728 291.368618 
L 767.286 291.099492 
L 767.286 290.83135 
L 781.236 290.563312 
L 771.192 290.295836 
L 755.01 290.031055 
L 774.54 289.767401 
L 768.96 289.505432 
L 776.214 289.244 
L 776.214 288.725861 
L 777.33 288.4686 
L 771.75 288.211659 
L 763.38 287.956679 
L 786.258 287.70366 
L 777.33 287.451462 
L 782.352 287.20204 
L 782.352 286.954807 
L 776.772 286.709812 
L 782.91 286.464786 
L 780.12 286.222366 
L 785.142 285.981489 
L 782.352 285.741888 
L 781.236 285.502359 
L 769.518 285.264045 
L 768.402 285.027279 
L 771.192 284.791221 
L 784.026 284.323333 
L 781.794 284.092007 
L 771.75 283.862775 
L 775.656 283.634251 
L 791.838 283.406517 
L 775.098 283.180113 
L 787.374 282.954719 
L 786.816 282.730357 
L 783.468 282.505916 
L 778.446 282.283857 
L 788.49 282.062887 
L 782.352 281.842319 
L 789.606 281.622948 
L 792.954 281.405114 
L 780.678 281.188171 
L 788.49 280.972118 
L 785.7 280.758349 
L 791.28 280.545028 
L 801.882 280.332379 
L 786.816 280.119476 
L 787.932 279.90794 
L 795.744 279.697534 
L 795.186 279.48904 
L 799.65 279.280426 
L 790.164 278.866599 
L 780.678 278.661535 
L 797.976 278.457379 
L 796.86 278.253848 
L 794.628 278.052058 
L 800.766 277.850608 
L 797.976 277.649726 
L 792.954 277.450584 
L 791.838 277.252599 
L 794.07 277.055695 
L 799.092 276.859191 
L 798.534 276.663742 
L 801.882 276.469229 
L 790.722 276.081345 
L 805.788 275.697797 
L 784.026 275.507857 
L 798.534 275.317918 
L 794.07 275.129213 
L 802.998 274.941504 
L 801.882 274.754688 
L 799.092 274.567801 
L 782.91 274.381349 
L 796.302 274.196559 
L 795.186 274.011263 
L 804.114 273.827074 
L 802.998 273.644076 
L 799.092 273.462366 
L 799.65 273.280312 
L 807.462 272.919355 
L 778.446 272.740108 
L 804.114 272.561135 
L 805.23 272.383393 
L 799.65 272.206575 
L 798.534 272.030974 
L 811.368 271.855355 
L 810.81 271.680002 
L 801.324 271.505115 
L 813.042 271.330619 
L 795.744 271.1567 
L 802.998 270.983632 
L 802.44 270.811459 
L 819.738 270.30042 
L 809.136 270.130832 
L 808.578 269.962316 
L 811.368 269.628029 
L 814.716 269.461373 
L 815.274 269.29516 
L 815.274 269.130049 
L 802.44 268.965269 
L 811.368 268.801177 
L 805.23 268.637827 
L 813.042 268.475321 
L 803.556 268.313034 
L 817.506 267.99223 
L 811.368 267.83111 
L 821.97 267.511507 
L 806.904 267.351637 
L 815.274 267.192675 
L 808.02 267.034687 
L 814.716 266.719946 
L 807.462 266.564874 
L 811.926 266.409743 
L 806.346 266.255238 
L 811.368 266.100142 
L 812.484 265.946396 
L 808.02 265.792159 
L 821.412 265.487164 
L 819.738 265.335871 
L 820.854 265.185238 
L 806.904 265.034813 
L 820.854 264.885355 
L 815.832 264.736336 
L 815.832 264.587662 
L 809.136 264.291025 
L 813.6 264.14337 
L 822.528 263.996219 
L 818.622 263.849773 
L 803.556 263.703034 
L 825.318 263.557296 
L 822.528 263.412468 
L 821.97 263.26769 
L 816.948 262.979059 
L 820.296 262.835346 
L 803.556 262.548911 
L 817.506 262.406712 
L 817.506 262.265384 
L 794.628 262.124586 
L 814.716 261.983656 
L 815.274 261.84319 
L 816.948 261.703679 
L 808.578 261.564423 
L 828.666 261.424648 
L 821.412 261.285309 
L 830.898 261.008158 
L 821.97 260.870058 
L 823.644 260.732335 
L 816.948 260.595255 
L 820.296 260.45894 
L 818.064 260.186038 
L 828.108 260.049697 
L 819.18 259.913881 
L 818.622 259.778569 
L 824.76 259.644208 
L 822.528 259.510816 
L 816.948 259.377316 
L 828.666 259.244433 
L 828.666 259.112102 
L 810.81 258.584001 
L 823.086 258.453189 
L 822.528 258.32267 
L 830.34 258.192112 
L 829.224 258.061927 
L 814.158 257.802109 
L 832.572 257.673303 
L 822.528 257.544603 
L 825.876 257.416669 
L 821.97 257.288214 
L 830.34 257.034037 
L 832.572 256.90737 
L 818.064 256.655126 
L 818.064 256.529019 
L 818.064 256.529019 
" style="fill:none;stroke:#ff7a6e;stroke-linecap:square;stroke-width:5;"/>
   </g>
   <g id="patch_3">
    <path d="M 144 504 
L 144 69.12 
" style="fill:none;stroke:#000000;stroke-linecap:square;stroke-linejoin:miter;stroke-width:0.8;"/>
   </g>
   <g id="patch_4">
    <path d="M 1036.8 504 
L 1036.8 69.12 
" style="fill:none;stroke:#000000;stroke-linecap:square;stroke-linejoin:miter;stroke-width:0.8;"/>
   </g>
   <g id="patch_5">
    <path d="M 144 504 
L 1036.8 504 
" style="fill:none;stroke:#000000;stroke-linecap:square;stroke-linejoin:miter;stroke-width:0.8;"/>
   </g>
   <g id="patch_6">
    <path d="M 144 69.12 
L 1036.8 69.12 
" style="fill:none;stroke:#000000;stroke-linecap:square;stroke-linejoin:miter;stroke-width:0.8;"/>
   </g>
   <g id="text_17">
    <!-- Gated: Energy vs. Accuracy with 150 Units @ 0.65 -->
    <g transform="translate(136.442813 61.633125)scale(0.36 -0.36)">
     <defs>
      <path d="M 59.515625 10.40625 
L 59.515625 29.984375 
L 43.40625 29.984375 
L 43.40625 38.09375 
L 69.28125 38.09375 
L 69.28125 6.78125 
Q 63.578125 2.734375 56.6875 0.65625 
Q 49.8125 -1.421875 42 -1.421875 
Q 24.90625 -1.421875 15.25 8.5625 
Q 5.609375 18.5625 5.609375 36.375 
Q 5.609375 54.25 15.25 64.234375 
Q 24.90625 74.21875 42 74.21875 
Q 49.125 74.21875 55.546875 72.453125 
Q 61.96875 70.703125 67.390625 67.28125 
L 67.390625 56.78125 
Q 61.921875 61.421875 55.765625 63.765625 
Q 49.609375 66.109375 42.828125 66.109375 
Q 29.4375 66.109375 22.71875 58.640625 
Q 16.015625 51.171875 16.015625 36.375 
Q 16.015625 21.625 22.71875 14.15625 
Q 29.4375 6.6875 42.828125 6.6875 
Q 48.046875 6.6875 52.140625 7.59375 
Q 56.25 8.5 59.515625 10.40625 
z
" id="DejaVuSans-71"/>
      <path d="M 18.3125 70.21875 
L 18.3125 54.6875 
L 36.8125 54.6875 
L 36.8125 47.703125 
L 18.3125 47.703125 
L 18.3125 18.015625 
Q 18.3125 11.328125 20.140625 9.421875 
Q 21.96875 7.515625 27.59375 7.515625 
L 36.8125 7.515625 
L 36.8125 0 
L 27.59375 0 
Q 17.1875 0 13.234375 3.875 
Q 9.28125 7.765625 9.28125 18.015625 
L 9.28125 47.703125 
L 2.6875 47.703125 
L 2.6875 54.6875 
L 9.28125 54.6875 
L 9.28125 70.21875 
z
" id="DejaVuSans-116"/>
      <path d="M 45.40625 46.390625 
L 45.40625 75.984375 
L 54.390625 75.984375 
L 54.390625 0 
L 45.40625 0 
L 45.40625 8.203125 
Q 42.578125 3.328125 38.25 0.953125 
Q 33.9375 -1.421875 27.875 -1.421875 
Q 17.96875 -1.421875 11.734375 6.484375 
Q 5.515625 14.40625 5.515625 27.296875 
Q 5.515625 40.1875 11.734375 48.09375 
Q 17.96875 56 27.875 56 
Q 33.9375 56 38.25 53.625 
Q 42.578125 51.265625 45.40625 46.390625 
z
M 14.796875 27.296875 
Q 14.796875 17.390625 18.875 11.75 
Q 22.953125 6.109375 30.078125 6.109375 
Q 37.203125 6.109375 41.296875 11.75 
Q 45.40625 17.390625 45.40625 27.296875 
Q 45.40625 37.203125 41.296875 42.84375 
Q 37.203125 48.484375 30.078125 48.484375 
Q 22.953125 48.484375 18.875 42.84375 
Q 14.796875 37.203125 14.796875 27.296875 
z
" id="DejaVuSans-100"/>
      <path d="M 11.71875 12.40625 
L 22.015625 12.40625 
L 22.015625 0 
L 11.71875 0 
z
M 11.71875 51.703125 
L 22.015625 51.703125 
L 22.015625 39.3125 
L 11.71875 39.3125 
z
" id="DejaVuSans-58"/>
      <path d="M 2.984375 54.6875 
L 12.5 54.6875 
L 29.59375 8.796875 
L 46.6875 54.6875 
L 56.203125 54.6875 
L 35.6875 0 
L 23.484375 0 
z
" id="DejaVuSans-118"/>
      <path d="M 44.28125 53.078125 
L 44.28125 44.578125 
Q 40.484375 46.53125 36.375 47.5 
Q 32.28125 48.484375 27.875 48.484375 
Q 21.1875 48.484375 17.84375 46.4375 
Q 14.5 44.390625 14.5 40.28125 
Q 14.5 37.15625 16.890625 35.375 
Q 19.28125 33.59375 26.515625 31.984375 
L 29.59375 31.296875 
Q 39.15625 29.25 43.1875 25.515625 
Q 47.21875 21.78125 47.21875 15.09375 
Q 47.21875 7.46875 41.1875 3.015625 
Q 35.15625 -1.421875 24.609375 -1.421875 
Q 20.21875 -1.421875 15.453125 -0.5625 
Q 10.6875 0.296875 5.421875 2 
L 5.421875 11.28125 
Q 10.40625 8.6875 15.234375 7.390625 
Q 20.0625 6.109375 24.8125 6.109375 
Q 31.15625 6.109375 34.5625 8.28125 
Q 37.984375 10.453125 37.984375 14.40625 
Q 37.984375 18.0625 35.515625 20.015625 
Q 33.0625 21.96875 24.703125 23.78125 
L 21.578125 24.515625 
Q 13.234375 26.265625 9.515625 29.90625 
Q 5.8125 33.546875 5.8125 39.890625 
Q 5.8125 47.609375 11.28125 51.796875 
Q 16.75 56 26.8125 56 
Q 31.78125 56 36.171875 55.265625 
Q 40.578125 54.546875 44.28125 53.078125 
z
" id="DejaVuSans-115"/>
      <path d="M 4.203125 54.6875 
L 13.1875 54.6875 
L 24.421875 12.015625 
L 35.59375 54.6875 
L 46.1875 54.6875 
L 57.421875 12.015625 
L 68.609375 54.6875 
L 77.59375 54.6875 
L 63.28125 0 
L 52.6875 0 
L 40.921875 44.828125 
L 29.109375 0 
L 18.5 0 
z
" id="DejaVuSans-119"/>
      <path d="M 9.421875 54.6875 
L 18.40625 54.6875 
L 18.40625 0 
L 9.421875 0 
z
M 9.421875 75.984375 
L 18.40625 75.984375 
L 18.40625 64.59375 
L 9.421875 64.59375 
z
" id="DejaVuSans-105"/>
      <path d="M 54.890625 33.015625 
L 54.890625 0 
L 45.90625 0 
L 45.90625 32.71875 
Q 45.90625 40.484375 42.875 44.328125 
Q 39.84375 48.1875 33.796875 48.1875 
Q 26.515625 48.1875 22.3125 43.546875 
Q 18.109375 38.921875 18.109375 30.90625 
L 18.109375 0 
L 9.078125 0 
L 9.078125 75.984375 
L 18.109375 75.984375 
L 18.109375 46.1875 
Q 21.34375 51.125 25.703125 53.5625 
Q 30.078125 56 35.796875 56 
Q 45.21875 56 50.046875 50.171875 
Q 54.890625 44.34375 54.890625 33.015625 
z
" id="DejaVuSans-104"/>
      <path d="M 37.203125 26.21875 
Q 37.203125 19.234375 40.671875 15.25 
Q 44.140625 11.28125 50.203125 11.28125 
Q 56.203125 11.28125 59.640625 15.28125 
Q 63.09375 19.28125 63.09375 26.21875 
Q 63.09375 33.0625 59.578125 37.078125 
Q 56.0625 41.109375 50.09375 41.109375 
Q 44.1875 41.109375 40.6875 37.109375 
Q 37.203125 33.109375 37.203125 26.21875 
z
M 63.8125 11.625 
Q 60.890625 7.859375 57.109375 6.078125 
Q 53.328125 4.296875 48.296875 4.296875 
Q 39.890625 4.296875 34.640625 10.375 
Q 29.390625 16.453125 29.390625 26.21875 
Q 29.390625 35.984375 34.65625 42.078125 
Q 39.9375 48.1875 48.296875 48.1875 
Q 53.328125 48.1875 57.125 46.359375 
Q 60.9375 44.53125 63.8125 40.828125 
L 63.8125 47.21875 
L 70.796875 47.21875 
L 70.796875 11.28125 
Q 77.9375 12.359375 81.953125 17.796875 
Q 85.984375 23.25 85.984375 31.890625 
Q 85.984375 37.109375 84.4375 41.703125 
Q 82.90625 46.296875 79.78125 50.203125 
Q 74.703125 56.59375 67.40625 59.984375 
Q 60.109375 63.375 51.515625 63.375 
Q 45.515625 63.375 39.984375 61.78125 
Q 34.46875 60.203125 29.78125 57.078125 
Q 22.125 52.09375 17.796875 44.015625 
Q 13.484375 35.9375 13.484375 26.515625 
Q 13.484375 18.75 16.28125 11.953125 
Q 19.09375 5.171875 24.421875 0 
Q 29.546875 -5.078125 36.28125 -7.734375 
Q 43.015625 -10.40625 50.6875 -10.40625 
Q 56.984375 -10.40625 63.0625 -8.28125 
Q 69.140625 -6.15625 74.21875 -2.203125 
L 78.609375 -7.625 
Q 72.515625 -12.359375 65.3125 -14.875 
Q 58.109375 -17.390625 50.6875 -17.390625 
Q 41.65625 -17.390625 33.640625 -14.1875 
Q 25.640625 -10.984375 19.390625 -4.890625 
Q 13.140625 1.21875 9.859375 9.25 
Q 6.59375 17.28125 6.59375 26.515625 
Q 6.59375 35.40625 9.90625 43.453125 
Q 13.234375 51.515625 19.390625 57.625 
Q 25.6875 63.8125 33.9375 67.109375 
Q 42.1875 70.40625 51.421875 70.40625 
Q 61.765625 70.40625 70.625 66.15625 
Q 79.5 61.921875 85.5 54.109375 
Q 89.15625 49.3125 91.078125 43.703125 
Q 93.015625 38.09375 93.015625 32.078125 
Q 93.015625 19.234375 85.25 11.8125 
Q 77.484375 4.390625 63.8125 4.109375 
z
" id="DejaVuSans-64"/>
     </defs>
     <use xlink:href="#DejaVuSans-71"/>
     <use x="77.490234" xlink:href="#DejaVuSans-97"/>
     <use x="138.769531" xlink:href="#DejaVuSans-116"/>
     <use x="177.978516" xlink:href="#DejaVuSans-101"/>
     <use x="239.501953" xlink:href="#DejaVuSans-100"/>
     <use x="302.978516" xlink:href="#DejaVuSans-58"/>
     <use x="336.669922" xlink:href="#DejaVuSans-32"/>
     <use x="368.457031" xlink:href="#DejaVuSans-69"/>
     <use x="431.640625" xlink:href="#DejaVuSans-110"/>
     <use x="495.019531" xlink:href="#DejaVuSans-101"/>
     <use x="556.542969" xlink:href="#DejaVuSans-114"/>
     <use x="595.90625" xlink:href="#DejaVuSans-103"/>
     <use x="659.382812" xlink:href="#DejaVuSans-121"/>
     <use x="718.5625" xlink:href="#DejaVuSans-32"/>
     <use x="750.349609" xlink:href="#DejaVuSans-118"/>
     <use x="809.529297" xlink:href="#DejaVuSans-115"/>
     <use x="861.628906" xlink:href="#DejaVuSans-46"/>
     <use x="893.416016" xlink:href="#DejaVuSans-32"/>
     <use x="925.203125" xlink:href="#DejaVuSans-65"/>
     <use x="991.861328" xlink:href="#DejaVuSans-99"/>
     <use x="1046.841797" xlink:href="#DejaVuSans-99"/>
     <use x="1101.822266" xlink:href="#DejaVuSans-117"/>
     <use x="1165.201172" xlink:href="#DejaVuSans-114"/>
     <use x="1206.314453" xlink:href="#DejaVuSans-97"/>
     <use x="1267.59375" xlink:href="#DejaVuSans-99"/>
     <use x="1322.574219" xlink:href="#DejaVuSans-121"/>
     <use x="1381.753906" xlink:href="#DejaVuSans-32"/>
     <use x="1413.541016" xlink:href="#DejaVuSans-119"/>
     <use x="1495.328125" xlink:href="#DejaVuSans-105"/>
     <use x="1523.111328" xlink:href="#DejaVuSans-116"/>
     <use x="1562.320312" xlink:href="#DejaVuSans-104"/>
     <use x="1625.699219" xlink:href="#DejaVuSans-32"/>
     <use x="1657.486328" xlink:href="#DejaVuSans-49"/>
     <use x="1721.109375" xlink:href="#DejaVuSans-53"/>
     <use x="1784.732422" xlink:href="#DejaVuSans-48"/>
     <use x="1848.355469" xlink:href="#DejaVuSans-32"/>
     <use x="1880.142578" xlink:href="#DejaVuSans-85"/>
     <use x="1953.335938" xlink:href="#DejaVuSans-110"/>
     <use x="2016.714844" xlink:href="#DejaVuSans-105"/>
     <use x="2044.498047" xlink:href="#DejaVuSans-116"/>
     <use x="2083.707031" xlink:href="#DejaVuSans-115"/>
     <use x="2135.806641" xlink:href="#DejaVuSans-32"/>
     <use x="2167.59375" xlink:href="#DejaVuSans-64"/>
     <use x="2267.59375" xlink:href="#DejaVuSans-32"/>
     <use x="2299.380859" xlink:href="#DejaVuSans-48"/>
     <use x="2363.003906" xlink:href="#DejaVuSans-46"/>
     <use x="2394.791016" xlink:href="#DejaVuSans-54"/>
     <use x="2458.414062" xlink:href="#DejaVuSans-53"/>
    </g>
   </g>
   <g id="legend_1">
    <g id="patch_7">
     <path d="M 785.663125 493 
L 1021.4 493 
Q 1025.8 493 1025.8 488.6 
L 1025.8 361.6325 
Q 1025.8 357.2325 1021.4 357.2325 
L 785.663125 357.2325 
Q 781.263125 357.2325 781.263125 361.6325 
L 781.263125 488.6 
Q 781.263125 493 785.663125 493 
z
" style="fill:#ffffff;opacity:0.8;stroke:#cccccc;stroke-linejoin:miter;"/>
    </g>
    <g id="line2d_60">
     <path d="M 790.063125 375.049062 
L 834.063125 375.049062 
" style="fill:none;stroke:#1f1f1f;stroke-linecap:square;stroke-width:5;"/>
    </g>
    <g id="line2d_61"/>
    <g id="text_18">
     <!-- Ungated: 1.0 -->
     <g transform="translate(851.663125 382.749062)scale(0.22 -0.22)">
      <use xlink:href="#DejaVuSans-85"/>
      <use x="73.193359" xlink:href="#DejaVuSans-110"/>
      <use x="136.572266" xlink:href="#DejaVuSans-103"/>
      <use x="200.048828" xlink:href="#DejaVuSans-97"/>
      <use x="261.328125" xlink:href="#DejaVuSans-116"/>
      <use x="300.537109" xlink:href="#DejaVuSans-101"/>
      <use x="362.060547" xlink:href="#DejaVuSans-100"/>
      <use x="425.537109" xlink:href="#DejaVuSans-58"/>
      <use x="459.228516" xlink:href="#DejaVuSans-32"/>
      <use x="491.015625" xlink:href="#DejaVuSans-49"/>
      <use x="554.638672" xlink:href="#DejaVuSans-46"/>
      <use x="586.425781" xlink:href="#DejaVuSans-48"/>
     </g>
    </g>
    <g id="line2d_62">
     <path d="M 790.063125 407.340937 
L 834.063125 407.340937 
" style="fill:none;stroke:#9e9e9e;stroke-linecap:square;stroke-width:5;"/>
    </g>
    <g id="line2d_63"/>
    <g id="text_19">
     <!-- Minimum: 1.0 -->
     <g transform="translate(851.663125 415.040937)scale(0.22 -0.22)">
      <defs>
       <path d="M 9.8125 72.90625 
L 24.515625 72.90625 
L 43.109375 23.296875 
L 61.8125 72.90625 
L 76.515625 72.90625 
L 76.515625 0 
L 66.890625 0 
L 66.890625 64.015625 
L 48.09375 14.015625 
L 38.1875 14.015625 
L 19.390625 64.015625 
L 19.390625 0 
L 9.8125 0 
z
" id="DejaVuSans-77"/>
       <path d="M 52 44.1875 
Q 55.375 50.25 60.0625 53.125 
Q 64.75 56 71.09375 56 
Q 79.640625 56 84.28125 50.015625 
Q 88.921875 44.046875 88.921875 33.015625 
L 88.921875 0 
L 79.890625 0 
L 79.890625 32.71875 
Q 79.890625 40.578125 77.09375 44.375 
Q 74.3125 48.1875 68.609375 48.1875 
Q 61.625 48.1875 57.5625 43.546875 
Q 53.515625 38.921875 53.515625 30.90625 
L 53.515625 0 
L 44.484375 0 
L 44.484375 32.71875 
Q 44.484375 40.625 41.703125 44.40625 
Q 38.921875 48.1875 33.109375 48.1875 
Q 26.21875 48.1875 22.15625 43.53125 
Q 18.109375 38.875 18.109375 30.90625 
L 18.109375 0 
L 9.078125 0 
L 9.078125 54.6875 
L 18.109375 54.6875 
L 18.109375 46.1875 
Q 21.1875 51.21875 25.484375 53.609375 
Q 29.78125 56 35.6875 56 
Q 41.65625 56 45.828125 52.96875 
Q 50 49.953125 52 44.1875 
z
" id="DejaVuSans-109"/>
      </defs>
      <use xlink:href="#DejaVuSans-77"/>
      <use x="86.279297" xlink:href="#DejaVuSans-105"/>
      <use x="114.0625" xlink:href="#DejaVuSans-110"/>
      <use x="177.441406" xlink:href="#DejaVuSans-105"/>
      <use x="205.224609" xlink:href="#DejaVuSans-109"/>
      <use x="302.636719" xlink:href="#DejaVuSans-117"/>
      <use x="366.015625" xlink:href="#DejaVuSans-109"/>
      <use x="463.427734" xlink:href="#DejaVuSans-58"/>
      <use x="497.119141" xlink:href="#DejaVuSans-32"/>
      <use x="528.90625" xlink:href="#DejaVuSans-49"/>
      <use x="592.529297" xlink:href="#DejaVuSans-46"/>
      <use x="624.316406" xlink:href="#DejaVuSans-48"/>
     </g>
    </g>
    <g id="line2d_64">
     <path d="M 790.063125 439.632812 
L 834.063125 439.632812 
" style="fill:none;stroke:#ff1500;stroke-linecap:square;stroke-width:5;"/>
    </g>
    <g id="line2d_65"/>
    <g id="text_20">
     <!-- Gated: 0.65 -->
     <g transform="translate(851.663125 447.332812)scale(0.22 -0.22)">
      <use xlink:href="#DejaVuSans-71"/>
      <use x="77.490234" xlink:href="#DejaVuSans-97"/>
      <use x="138.769531" xlink:href="#DejaVuSans-116"/>
      <use x="177.978516" xlink:href="#DejaVuSans-101"/>
      <use x="239.501953" xlink:href="#DejaVuSans-100"/>
      <use x="302.978516" xlink:href="#DejaVuSans-58"/>
      <use x="336.669922" xlink:href="#DejaVuSans-32"/>
      <use x="368.457031" xlink:href="#DejaVuSans-48"/>
      <use x="432.080078" xlink:href="#DejaVuSans-46"/>
      <use x="463.867188" xlink:href="#DejaVuSans-54"/>
      <use x="527.490234" xlink:href="#DejaVuSans-53"/>
     </g>
    </g>
    <g id="line2d_66">
     <path d="M 790.063125 471.924688 
L 834.063125 471.924688 
" style="fill:none;stroke:#ff7a6e;stroke-linecap:square;stroke-width:5;"/>
    </g>
    <g id="line2d_67"/>
    <g id="text_21">
     <!-- Minimum: 0.65 -->
     <g transform="translate(851.663125 479.624687)scale(0.22 -0.22)">
      <use xlink:href="#DejaVuSans-77"/>
      <use x="86.279297" xlink:href="#DejaVuSans-105"/>
      <use x="114.0625" xlink:href="#DejaVuSans-110"/>
      <use x="177.441406" xlink:href="#DejaVuSans-105"/>
      <use x="205.224609" xlink:href="#DejaVuSans-109"/>
      <use x="302.636719" xlink:href="#DejaVuSans-117"/>
      <use x="366.015625" xlink:href="#DejaVuSans-109"/>
      <use x="463.427734" xlink:href="#DejaVuSans-58"/>
      <use x="497.119141" xlink:href="#DejaVuSans-32"/>
      <use x="528.90625" xlink:href="#DejaVuSans-48"/>
      <use x="592.529297" xlink:href="#DejaVuSans-46"/>
      <use x="624.316406" xlink:href="#DejaVuSans-54"/>
      <use x="687.939453" xlink:href="#DejaVuSans-53"/>
     </g>
    </g>
   </g>
  </g>
 </g>
 <defs>
  <clipPath id="p32096f3ae6">
   <rect height="434.88" width="892.8" x="144" y="69.12"/>
  </clipPath>
 </defs>
</svg>
