<?xml version="1.0" encoding="utf-8" standalone="no"?>
<!DOCTYPE svg PUBLIC "-//W3C//DTD SVG 1.1//EN"
  "http://www.w3.org/Graphics/SVG/1.1/DTD/svg11.dtd">
<!-- Created with matplotlib (https://matplotlib.org/) -->
<svg height="576pt" version="1.1" viewBox="0 0 1152 576" width="1152pt" xmlns="http://www.w3.org/2000/svg" xmlns:xlink="http://www.w3.org/1999/xlink">
 <metadata>
  <rdf:RDF xmlns:cc="http://creativecommons.org/ns#" xmlns:dc="http://purl.org/dc/elements/1.1/" xmlns:rdf="http://www.w3.org/1999/02/22-rdf-syntax-ns#">
   <cc:Work>
    <dc:type rdf:resource="http://purl.org/dc/dcmitype/StillImage"/>
    <dc:date>2021-09-12T15:19:47.004671</dc:date>
    <dc:format>image/svg+xml</dc:format>
    <dc:creator>
     <cc:Agent>
      <dc:title>Matplotlib v3.3.4, https://matplotlib.org/</dc:title>
     </cc:Agent>
    </dc:creator>
   </cc:Work>
  </rdf:RDF>
 </metadata>
 <defs>
  <style type="text/css">*{stroke-linecap:butt;stroke-linejoin:round;}</style>
 </defs>
 <g id="figure_1">
  <g id="patch_1">
   <path d="M 0 576 
L 1152 576 
L 1152 0 
L 0 0 
z
" style="fill:#ffffff;"/>
  </g>
  <g id="axes_1">
   <g id="patch_2">
    <path d="M 144 504 
L 1036.8 504 
L 1036.8 69.12 
L 144 69.12 
z
" style="fill:#ffffff;"/>
   </g>
   <g id="matplotlib.axis_1">
    <g id="xtick_1">
     <g id="line2d_1">
      <defs>
       <path d="M 0 0 
L 0 3.5 
" id="m9bb4c40a42" style="stroke:#000000;stroke-width:0.8;"/>
      </defs>
      <g>
       <use style="stroke:#000000;stroke-width:0.8;" x="144" xlink:href="#m9bb4c40a42" y="504"/>
      </g>
     </g>
     <g id="text_1">
      <!-- 84 -->
      <g transform="translate(128.73 529.23625)scale(0.24 -0.24)">
       <defs>
        <path d="M 31.78125 34.625 
Q 24.75 34.625 20.71875 30.859375 
Q 16.703125 27.09375 16.703125 20.515625 
Q 16.703125 13.921875 20.71875 10.15625 
Q 24.75 6.390625 31.78125 6.390625 
Q 38.8125 6.390625 42.859375 10.171875 
Q 46.921875 13.96875 46.921875 20.515625 
Q 46.921875 27.09375 42.890625 30.859375 
Q 38.875 34.625 31.78125 34.625 
z
M 21.921875 38.8125 
Q 15.578125 40.375 12.03125 44.71875 
Q 8.5 49.078125 8.5 55.328125 
Q 8.5 64.0625 14.71875 69.140625 
Q 20.953125 74.21875 31.78125 74.21875 
Q 42.671875 74.21875 48.875 69.140625 
Q 55.078125 64.0625 55.078125 55.328125 
Q 55.078125 49.078125 51.53125 44.71875 
Q 48 40.375 41.703125 38.8125 
Q 48.828125 37.15625 52.796875 32.3125 
Q 56.78125 27.484375 56.78125 20.515625 
Q 56.78125 9.90625 50.3125 4.234375 
Q 43.84375 -1.421875 31.78125 -1.421875 
Q 19.734375 -1.421875 13.25 4.234375 
Q 6.78125 9.90625 6.78125 20.515625 
Q 6.78125 27.484375 10.78125 32.3125 
Q 14.796875 37.15625 21.921875 38.8125 
z
M 18.3125 54.390625 
Q 18.3125 48.734375 21.84375 45.5625 
Q 25.390625 42.390625 31.78125 42.390625 
Q 38.140625 42.390625 41.71875 45.5625 
Q 45.3125 48.734375 45.3125 54.390625 
Q 45.3125 60.0625 41.71875 63.234375 
Q 38.140625 66.40625 31.78125 66.40625 
Q 25.390625 66.40625 21.84375 63.234375 
Q 18.3125 60.0625 18.3125 54.390625 
z
" id="DejaVuSans-56"/>
        <path d="M 37.796875 64.3125 
L 12.890625 25.390625 
L 37.796875 25.390625 
z
M 35.203125 72.90625 
L 47.609375 72.90625 
L 47.609375 25.390625 
L 58.015625 25.390625 
L 58.015625 17.1875 
L 47.609375 17.1875 
L 47.609375 0 
L 37.796875 0 
L 37.796875 17.1875 
L 4.890625 17.1875 
L 4.890625 26.703125 
z
" id="DejaVuSans-52"/>
       </defs>
       <use xlink:href="#DejaVuSans-56"/>
       <use x="63.623047" xlink:href="#DejaVuSans-52"/>
      </g>
     </g>
    </g>
    <g id="xtick_2">
     <g id="line2d_2">
      <g>
       <use style="stroke:#000000;stroke-width:0.8;" x="255.6" xlink:href="#m9bb4c40a42" y="504"/>
      </g>
     </g>
     <g id="text_2">
      <!-- 86 -->
      <g transform="translate(240.33 529.23625)scale(0.24 -0.24)">
       <defs>
        <path d="M 33.015625 40.375 
Q 26.375 40.375 22.484375 35.828125 
Q 18.609375 31.296875 18.609375 23.390625 
Q 18.609375 15.53125 22.484375 10.953125 
Q 26.375 6.390625 33.015625 6.390625 
Q 39.65625 6.390625 43.53125 10.953125 
Q 47.40625 15.53125 47.40625 23.390625 
Q 47.40625 31.296875 43.53125 35.828125 
Q 39.65625 40.375 33.015625 40.375 
z
M 52.59375 71.296875 
L 52.59375 62.3125 
Q 48.875 64.0625 45.09375 64.984375 
Q 41.3125 65.921875 37.59375 65.921875 
Q 27.828125 65.921875 22.671875 59.328125 
Q 17.53125 52.734375 16.796875 39.40625 
Q 19.671875 43.65625 24.015625 45.921875 
Q 28.375 48.1875 33.59375 48.1875 
Q 44.578125 48.1875 50.953125 41.515625 
Q 57.328125 34.859375 57.328125 23.390625 
Q 57.328125 12.15625 50.6875 5.359375 
Q 44.046875 -1.421875 33.015625 -1.421875 
Q 20.359375 -1.421875 13.671875 8.265625 
Q 6.984375 17.96875 6.984375 36.375 
Q 6.984375 53.65625 15.1875 63.9375 
Q 23.390625 74.21875 37.203125 74.21875 
Q 40.921875 74.21875 44.703125 73.484375 
Q 48.484375 72.75 52.59375 71.296875 
z
" id="DejaVuSans-54"/>
       </defs>
       <use xlink:href="#DejaVuSans-56"/>
       <use x="63.623047" xlink:href="#DejaVuSans-54"/>
      </g>
     </g>
    </g>
    <g id="xtick_3">
     <g id="line2d_3">
      <g>
       <use style="stroke:#000000;stroke-width:0.8;" x="367.2" xlink:href="#m9bb4c40a42" y="504"/>
      </g>
     </g>
     <g id="text_3">
      <!-- 88 -->
      <g transform="translate(351.93 529.23625)scale(0.24 -0.24)">
       <use xlink:href="#DejaVuSans-56"/>
       <use x="63.623047" xlink:href="#DejaVuSans-56"/>
      </g>
     </g>
    </g>
    <g id="xtick_4">
     <g id="line2d_4">
      <g>
       <use style="stroke:#000000;stroke-width:0.8;" x="478.8" xlink:href="#m9bb4c40a42" y="504"/>
      </g>
     </g>
     <g id="text_4">
      <!-- 90 -->
      <g transform="translate(463.53 529.23625)scale(0.24 -0.24)">
       <defs>
        <path d="M 10.984375 1.515625 
L 10.984375 10.5 
Q 14.703125 8.734375 18.5 7.8125 
Q 22.3125 6.890625 25.984375 6.890625 
Q 35.75 6.890625 40.890625 13.453125 
Q 46.046875 20.015625 46.78125 33.40625 
Q 43.953125 29.203125 39.59375 26.953125 
Q 35.25 24.703125 29.984375 24.703125 
Q 19.046875 24.703125 12.671875 31.3125 
Q 6.296875 37.9375 6.296875 49.421875 
Q 6.296875 60.640625 12.9375 67.421875 
Q 19.578125 74.21875 30.609375 74.21875 
Q 43.265625 74.21875 49.921875 64.515625 
Q 56.59375 54.828125 56.59375 36.375 
Q 56.59375 19.140625 48.40625 8.859375 
Q 40.234375 -1.421875 26.421875 -1.421875 
Q 22.703125 -1.421875 18.890625 -0.6875 
Q 15.09375 0.046875 10.984375 1.515625 
z
M 30.609375 32.421875 
Q 37.25 32.421875 41.125 36.953125 
Q 45.015625 41.5 45.015625 49.421875 
Q 45.015625 57.28125 41.125 61.84375 
Q 37.25 66.40625 30.609375 66.40625 
Q 23.96875 66.40625 20.09375 61.84375 
Q 16.21875 57.28125 16.21875 49.421875 
Q 16.21875 41.5 20.09375 36.953125 
Q 23.96875 32.421875 30.609375 32.421875 
z
" id="DejaVuSans-57"/>
        <path d="M 31.78125 66.40625 
Q 24.171875 66.40625 20.328125 58.90625 
Q 16.5 51.421875 16.5 36.375 
Q 16.5 21.390625 20.328125 13.890625 
Q 24.171875 6.390625 31.78125 6.390625 
Q 39.453125 6.390625 43.28125 13.890625 
Q 47.125 21.390625 47.125 36.375 
Q 47.125 51.421875 43.28125 58.90625 
Q 39.453125 66.40625 31.78125 66.40625 
z
M 31.78125 74.21875 
Q 44.046875 74.21875 50.515625 64.515625 
Q 56.984375 54.828125 56.984375 36.375 
Q 56.984375 17.96875 50.515625 8.265625 
Q 44.046875 -1.421875 31.78125 -1.421875 
Q 19.53125 -1.421875 13.0625 8.265625 
Q 6.59375 17.96875 6.59375 36.375 
Q 6.59375 54.828125 13.0625 64.515625 
Q 19.53125 74.21875 31.78125 74.21875 
z
" id="DejaVuSans-48"/>
       </defs>
       <use xlink:href="#DejaVuSans-57"/>
       <use x="63.623047" xlink:href="#DejaVuSans-48"/>
      </g>
     </g>
    </g>
    <g id="xtick_5">
     <g id="line2d_5">
      <g>
       <use style="stroke:#000000;stroke-width:0.8;" x="590.4" xlink:href="#m9bb4c40a42" y="504"/>
      </g>
     </g>
     <g id="text_5">
      <!-- 92 -->
      <g transform="translate(575.13 529.23625)scale(0.24 -0.24)">
       <defs>
        <path d="M 19.1875 8.296875 
L 53.609375 8.296875 
L 53.609375 0 
L 7.328125 0 
L 7.328125 8.296875 
Q 12.9375 14.109375 22.625 23.890625 
Q 32.328125 33.6875 34.8125 36.53125 
Q 39.546875 41.84375 41.421875 45.53125 
Q 43.3125 49.21875 43.3125 52.78125 
Q 43.3125 58.59375 39.234375 62.25 
Q 35.15625 65.921875 28.609375 65.921875 
Q 23.96875 65.921875 18.8125 64.3125 
Q 13.671875 62.703125 7.8125 59.421875 
L 7.8125 69.390625 
Q 13.765625 71.78125 18.9375 73 
Q 24.125 74.21875 28.421875 74.21875 
Q 39.75 74.21875 46.484375 68.546875 
Q 53.21875 62.890625 53.21875 53.421875 
Q 53.21875 48.921875 51.53125 44.890625 
Q 49.859375 40.875 45.40625 35.40625 
Q 44.1875 33.984375 37.640625 27.21875 
Q 31.109375 20.453125 19.1875 8.296875 
z
" id="DejaVuSans-50"/>
       </defs>
       <use xlink:href="#DejaVuSans-57"/>
       <use x="63.623047" xlink:href="#DejaVuSans-50"/>
      </g>
     </g>
    </g>
    <g id="xtick_6">
     <g id="line2d_6">
      <g>
       <use style="stroke:#000000;stroke-width:0.8;" x="702" xlink:href="#m9bb4c40a42" y="504"/>
      </g>
     </g>
     <g id="text_6">
      <!-- 94 -->
      <g transform="translate(686.73 529.23625)scale(0.24 -0.24)">
       <use xlink:href="#DejaVuSans-57"/>
       <use x="63.623047" xlink:href="#DejaVuSans-52"/>
      </g>
     </g>
    </g>
    <g id="xtick_7">
     <g id="line2d_7">
      <g>
       <use style="stroke:#000000;stroke-width:0.8;" x="813.6" xlink:href="#m9bb4c40a42" y="504"/>
      </g>
     </g>
     <g id="text_7">
      <!-- 96 -->
      <g transform="translate(798.33 529.23625)scale(0.24 -0.24)">
       <use xlink:href="#DejaVuSans-57"/>
       <use x="63.623047" xlink:href="#DejaVuSans-54"/>
      </g>
     </g>
    </g>
    <g id="xtick_8">
     <g id="line2d_8">
      <g>
       <use style="stroke:#000000;stroke-width:0.8;" x="925.2" xlink:href="#m9bb4c40a42" y="504"/>
      </g>
     </g>
     <g id="text_8">
      <!-- 98 -->
      <g transform="translate(909.93 529.23625)scale(0.24 -0.24)">
       <use xlink:href="#DejaVuSans-57"/>
       <use x="63.623047" xlink:href="#DejaVuSans-56"/>
      </g>
     </g>
    </g>
    <g id="xtick_9">
     <g id="line2d_9">
      <g>
       <use style="stroke:#000000;stroke-width:0.8;" x="1036.8" xlink:href="#m9bb4c40a42" y="504"/>
      </g>
     </g>
     <g id="text_9">
      <!-- 100 -->
      <g transform="translate(1013.895 529.23625)scale(0.24 -0.24)">
       <defs>
        <path d="M 12.40625 8.296875 
L 28.515625 8.296875 
L 28.515625 63.921875 
L 10.984375 60.40625 
L 10.984375 69.390625 
L 28.421875 72.90625 
L 38.28125 72.90625 
L 38.28125 8.296875 
L 54.390625 8.296875 
L 54.390625 0 
L 12.40625 0 
z
" id="DejaVuSans-49"/>
       </defs>
       <use xlink:href="#DejaVuSans-49"/>
       <use x="63.623047" xlink:href="#DejaVuSans-48"/>
       <use x="127.246094" xlink:href="#DejaVuSans-48"/>
      </g>
     </g>
    </g>
    <g id="text_10">
     <!-- Accuracy /% -->
     <g transform="translate(504.013437 559.503125)scale(0.28 -0.28)">
      <defs>
       <path d="M 34.1875 63.1875 
L 20.796875 26.90625 
L 47.609375 26.90625 
z
M 28.609375 72.90625 
L 39.796875 72.90625 
L 67.578125 0 
L 57.328125 0 
L 50.6875 18.703125 
L 17.828125 18.703125 
L 11.1875 0 
L 0.78125 0 
z
" id="DejaVuSans-65"/>
       <path d="M 48.78125 52.59375 
L 48.78125 44.1875 
Q 44.96875 46.296875 41.140625 47.34375 
Q 37.3125 48.390625 33.40625 48.390625 
Q 24.65625 48.390625 19.8125 42.84375 
Q 14.984375 37.3125 14.984375 27.296875 
Q 14.984375 17.28125 19.8125 11.734375 
Q 24.65625 6.203125 33.40625 6.203125 
Q 37.3125 6.203125 41.140625 7.25 
Q 44.96875 8.296875 48.78125 10.40625 
L 48.78125 2.09375 
Q 45.015625 0.34375 40.984375 -0.53125 
Q 36.96875 -1.421875 32.421875 -1.421875 
Q 20.0625 -1.421875 12.78125 6.34375 
Q 5.515625 14.109375 5.515625 27.296875 
Q 5.515625 40.671875 12.859375 48.328125 
Q 20.21875 56 33.015625 56 
Q 37.15625 56 41.109375 55.140625 
Q 45.0625 54.296875 48.78125 52.59375 
z
" id="DejaVuSans-99"/>
       <path d="M 8.5 21.578125 
L 8.5 54.6875 
L 17.484375 54.6875 
L 17.484375 21.921875 
Q 17.484375 14.15625 20.5 10.265625 
Q 23.53125 6.390625 29.59375 6.390625 
Q 36.859375 6.390625 41.078125 11.03125 
Q 45.3125 15.671875 45.3125 23.6875 
L 45.3125 54.6875 
L 54.296875 54.6875 
L 54.296875 0 
L 45.3125 0 
L 45.3125 8.40625 
Q 42.046875 3.421875 37.71875 1 
Q 33.40625 -1.421875 27.6875 -1.421875 
Q 18.265625 -1.421875 13.375 4.4375 
Q 8.5 10.296875 8.5 21.578125 
z
M 31.109375 56 
z
" id="DejaVuSans-117"/>
       <path d="M 41.109375 46.296875 
Q 39.59375 47.171875 37.8125 47.578125 
Q 36.03125 48 33.890625 48 
Q 26.265625 48 22.1875 43.046875 
Q 18.109375 38.09375 18.109375 28.8125 
L 18.109375 0 
L 9.078125 0 
L 9.078125 54.6875 
L 18.109375 54.6875 
L 18.109375 46.1875 
Q 20.953125 51.171875 25.484375 53.578125 
Q 30.03125 56 36.53125 56 
Q 37.453125 56 38.578125 55.875 
Q 39.703125 55.765625 41.0625 55.515625 
z
" id="DejaVuSans-114"/>
       <path d="M 34.28125 27.484375 
Q 23.390625 27.484375 19.1875 25 
Q 14.984375 22.515625 14.984375 16.5 
Q 14.984375 11.71875 18.140625 8.90625 
Q 21.296875 6.109375 26.703125 6.109375 
Q 34.1875 6.109375 38.703125 11.40625 
Q 43.21875 16.703125 43.21875 25.484375 
L 43.21875 27.484375 
z
M 52.203125 31.203125 
L 52.203125 0 
L 43.21875 0 
L 43.21875 8.296875 
Q 40.140625 3.328125 35.546875 0.953125 
Q 30.953125 -1.421875 24.3125 -1.421875 
Q 15.921875 -1.421875 10.953125 3.296875 
Q 6 8.015625 6 15.921875 
Q 6 25.140625 12.171875 29.828125 
Q 18.359375 34.515625 30.609375 34.515625 
L 43.21875 34.515625 
L 43.21875 35.40625 
Q 43.21875 41.609375 39.140625 45 
Q 35.0625 48.390625 27.6875 48.390625 
Q 23 48.390625 18.546875 47.265625 
Q 14.109375 46.140625 10.015625 43.890625 
L 10.015625 52.203125 
Q 14.9375 54.109375 19.578125 55.046875 
Q 24.21875 56 28.609375 56 
Q 40.484375 56 46.34375 49.84375 
Q 52.203125 43.703125 52.203125 31.203125 
z
" id="DejaVuSans-97"/>
       <path d="M 32.171875 -5.078125 
Q 28.375 -14.84375 24.75 -17.8125 
Q 21.140625 -20.796875 15.09375 -20.796875 
L 7.90625 -20.796875 
L 7.90625 -13.28125 
L 13.1875 -13.28125 
Q 16.890625 -13.28125 18.9375 -11.515625 
Q 21 -9.765625 23.484375 -3.21875 
L 25.09375 0.875 
L 2.984375 54.6875 
L 12.5 54.6875 
L 29.59375 11.921875 
L 46.6875 54.6875 
L 56.203125 54.6875 
z
" id="DejaVuSans-121"/>
       <path id="DejaVuSans-32"/>
       <path d="M 25.390625 72.90625 
L 33.6875 72.90625 
L 8.296875 -9.28125 
L 0 -9.28125 
z
" id="DejaVuSans-47"/>
       <path d="M 72.703125 32.078125 
Q 68.453125 32.078125 66.03125 28.46875 
Q 63.625 24.859375 63.625 18.40625 
Q 63.625 12.0625 66.03125 8.421875 
Q 68.453125 4.78125 72.703125 4.78125 
Q 76.859375 4.78125 79.265625 8.421875 
Q 81.6875 12.0625 81.6875 18.40625 
Q 81.6875 24.8125 79.265625 28.4375 
Q 76.859375 32.078125 72.703125 32.078125 
z
M 72.703125 38.28125 
Q 80.421875 38.28125 84.953125 32.90625 
Q 89.5 27.546875 89.5 18.40625 
Q 89.5 9.28125 84.9375 3.921875 
Q 80.375 -1.421875 72.703125 -1.421875 
Q 64.890625 -1.421875 60.34375 3.921875 
Q 55.8125 9.28125 55.8125 18.40625 
Q 55.8125 27.59375 60.375 32.9375 
Q 64.9375 38.28125 72.703125 38.28125 
z
M 22.3125 68.015625 
Q 18.109375 68.015625 15.6875 64.375 
Q 13.28125 60.75 13.28125 54.390625 
Q 13.28125 47.953125 15.671875 44.328125 
Q 18.0625 40.71875 22.3125 40.71875 
Q 26.5625 40.71875 28.96875 44.328125 
Q 31.390625 47.953125 31.390625 54.390625 
Q 31.390625 60.6875 28.953125 64.34375 
Q 26.515625 68.015625 22.3125 68.015625 
z
M 66.40625 74.21875 
L 74.21875 74.21875 
L 28.609375 -1.421875 
L 20.796875 -1.421875 
z
M 22.3125 74.21875 
Q 30.03125 74.21875 34.609375 68.875 
Q 39.203125 63.53125 39.203125 54.390625 
Q 39.203125 45.171875 34.640625 39.84375 
Q 30.078125 34.515625 22.3125 34.515625 
Q 14.546875 34.515625 10.03125 39.859375 
Q 5.515625 45.21875 5.515625 54.390625 
Q 5.515625 63.484375 10.046875 68.84375 
Q 14.59375 74.21875 22.3125 74.21875 
z
" id="DejaVuSans-37"/>
      </defs>
      <use xlink:href="#DejaVuSans-65"/>
      <use x="66.658203" xlink:href="#DejaVuSans-99"/>
      <use x="121.638672" xlink:href="#DejaVuSans-99"/>
      <use x="176.619141" xlink:href="#DejaVuSans-117"/>
      <use x="239.998047" xlink:href="#DejaVuSans-114"/>
      <use x="281.111328" xlink:href="#DejaVuSans-97"/>
      <use x="342.390625" xlink:href="#DejaVuSans-99"/>
      <use x="397.371094" xlink:href="#DejaVuSans-121"/>
      <use x="456.550781" xlink:href="#DejaVuSans-32"/>
      <use x="488.337891" xlink:href="#DejaVuSans-47"/>
      <use x="522.029297" xlink:href="#DejaVuSans-37"/>
     </g>
    </g>
   </g>
   <g id="matplotlib.axis_2">
    <g id="ytick_1">
     <g id="line2d_10">
      <defs>
       <path d="M 0 0 
L -3.5 0 
" id="m776a5556a9" style="stroke:#000000;stroke-width:0.8;"/>
      </defs>
      <g>
       <use style="stroke:#000000;stroke-width:0.8;" x="144" xlink:href="#m776a5556a9" y="444.362283"/>
      </g>
     </g>
     <g id="text_11">
      <!-- $\mathdefault{10^{1}}$ -->
      <g transform="translate(94.76 453.480408)scale(0.24 -0.24)">
       <use transform="translate(0 0.684375)" xlink:href="#DejaVuSans-49"/>
       <use transform="translate(63.623047 0.684375)" xlink:href="#DejaVuSans-48"/>
       <use transform="translate(128.203125 38.965625)scale(0.7)" xlink:href="#DejaVuSans-49"/>
      </g>
     </g>
    </g>
    <g id="ytick_2">
     <g id="line2d_11">
      <g>
       <use style="stroke:#000000;stroke-width:0.8;" x="144" xlink:href="#m776a5556a9" y="359.04"/>
      </g>
     </g>
     <g id="text_12">
      <!-- $\mathdefault{10^{2}}$ -->
      <g transform="translate(94.76 368.158125)scale(0.24 -0.24)">
       <use transform="translate(0 0.765625)" xlink:href="#DejaVuSans-49"/>
       <use transform="translate(63.623047 0.765625)" xlink:href="#DejaVuSans-48"/>
       <use transform="translate(128.203125 39.046875)scale(0.7)" xlink:href="#DejaVuSans-50"/>
      </g>
     </g>
    </g>
    <g id="ytick_3">
     <g id="line2d_12">
      <g>
       <use style="stroke:#000000;stroke-width:0.8;" x="144" xlink:href="#m776a5556a9" y="273.717717"/>
      </g>
     </g>
     <g id="text_13">
      <!-- $\mathdefault{10^{3}}$ -->
      <g transform="translate(94.76 282.835842)scale(0.24 -0.24)">
       <defs>
        <path d="M 40.578125 39.3125 
Q 47.65625 37.796875 51.625 33 
Q 55.609375 28.21875 55.609375 21.1875 
Q 55.609375 10.40625 48.1875 4.484375 
Q 40.765625 -1.421875 27.09375 -1.421875 
Q 22.515625 -1.421875 17.65625 -0.515625 
Q 12.796875 0.390625 7.625 2.203125 
L 7.625 11.71875 
Q 11.71875 9.328125 16.59375 8.109375 
Q 21.484375 6.890625 26.8125 6.890625 
Q 36.078125 6.890625 40.9375 10.546875 
Q 45.796875 14.203125 45.796875 21.1875 
Q 45.796875 27.640625 41.28125 31.265625 
Q 36.765625 34.90625 28.71875 34.90625 
L 20.21875 34.90625 
L 20.21875 43.015625 
L 29.109375 43.015625 
Q 36.375 43.015625 40.234375 45.921875 
Q 44.09375 48.828125 44.09375 54.296875 
Q 44.09375 59.90625 40.109375 62.90625 
Q 36.140625 65.921875 28.71875 65.921875 
Q 24.65625 65.921875 20.015625 65.03125 
Q 15.375 64.15625 9.8125 62.3125 
L 9.8125 71.09375 
Q 15.4375 72.65625 20.34375 73.4375 
Q 25.25 74.21875 29.59375 74.21875 
Q 40.828125 74.21875 47.359375 69.109375 
Q 53.90625 64.015625 53.90625 55.328125 
Q 53.90625 49.265625 50.4375 45.09375 
Q 46.96875 40.921875 40.578125 39.3125 
z
" id="DejaVuSans-51"/>
       </defs>
       <use transform="translate(0 0.765625)" xlink:href="#DejaVuSans-49"/>
       <use transform="translate(63.623047 0.765625)" xlink:href="#DejaVuSans-48"/>
       <use transform="translate(128.203125 39.046875)scale(0.7)" xlink:href="#DejaVuSans-51"/>
      </g>
     </g>
    </g>
    <g id="ytick_4">
     <g id="line2d_13">
      <g>
       <use style="stroke:#000000;stroke-width:0.8;" x="144" xlink:href="#m776a5556a9" y="188.395433"/>
      </g>
     </g>
     <g id="text_14">
      <!-- $\mathdefault{10^{4}}$ -->
      <g transform="translate(94.76 197.513558)scale(0.24 -0.24)">
       <use transform="translate(0 0.684375)" xlink:href="#DejaVuSans-49"/>
       <use transform="translate(63.623047 0.684375)" xlink:href="#DejaVuSans-48"/>
       <use transform="translate(128.203125 38.965625)scale(0.7)" xlink:href="#DejaVuSans-52"/>
      </g>
     </g>
    </g>
    <g id="ytick_5">
     <g id="line2d_14">
      <g>
       <use style="stroke:#000000;stroke-width:0.8;" x="144" xlink:href="#m776a5556a9" y="103.07315"/>
      </g>
     </g>
     <g id="text_15">
      <!-- $\mathdefault{10^{5}}$ -->
      <g transform="translate(94.76 112.191275)scale(0.24 -0.24)">
       <defs>
        <path d="M 10.796875 72.90625 
L 49.515625 72.90625 
L 49.515625 64.59375 
L 19.828125 64.59375 
L 19.828125 46.734375 
Q 21.96875 47.46875 24.109375 47.828125 
Q 26.265625 48.1875 28.421875 48.1875 
Q 40.625 48.1875 47.75 41.5 
Q 54.890625 34.8125 54.890625 23.390625 
Q 54.890625 11.625 47.5625 5.09375 
Q 40.234375 -1.421875 26.90625 -1.421875 
Q 22.3125 -1.421875 17.546875 -0.640625 
Q 12.796875 0.140625 7.71875 1.703125 
L 7.71875 11.625 
Q 12.109375 9.234375 16.796875 8.0625 
Q 21.484375 6.890625 26.703125 6.890625 
Q 35.15625 6.890625 40.078125 11.328125 
Q 45.015625 15.765625 45.015625 23.390625 
Q 45.015625 31 40.078125 35.4375 
Q 35.15625 39.890625 26.703125 39.890625 
Q 22.75 39.890625 18.8125 39.015625 
Q 14.890625 38.140625 10.796875 36.28125 
z
" id="DejaVuSans-53"/>
       </defs>
       <use transform="translate(0 0.684375)" xlink:href="#DejaVuSans-49"/>
       <use transform="translate(63.623047 0.684375)" xlink:href="#DejaVuSans-48"/>
       <use transform="translate(128.203125 38.965625)scale(0.7)" xlink:href="#DejaVuSans-53"/>
      </g>
     </g>
    </g>
    <g id="ytick_6">
     <g id="line2d_15">
      <defs>
       <path d="M 0 0 
L -2 0 
" id="mcef6fdba0b" style="stroke:#000000;stroke-width:0.6;"/>
      </defs>
      <g>
       <use style="stroke:#000000;stroke-width:0.6;" x="144" xlink:href="#mcef6fdba0b" y="504"/>
      </g>
     </g>
    </g>
    <g id="ytick_7">
     <g id="line2d_16">
      <g>
       <use style="stroke:#000000;stroke-width:0.6;" x="144" xlink:href="#mcef6fdba0b" y="488.975492"/>
      </g>
     </g>
    </g>
    <g id="ytick_8">
     <g id="line2d_17">
      <g>
       <use style="stroke:#000000;stroke-width:0.6;" x="144" xlink:href="#mcef6fdba0b" y="478.315433"/>
      </g>
     </g>
    </g>
    <g id="ytick_9">
     <g id="line2d_18">
      <g>
       <use style="stroke:#000000;stroke-width:0.6;" x="144" xlink:href="#mcef6fdba0b" y="470.04685"/>
      </g>
     </g>
    </g>
    <g id="ytick_10">
     <g id="line2d_19">
      <g>
       <use style="stroke:#000000;stroke-width:0.6;" x="144" xlink:href="#mcef6fdba0b" y="463.290925"/>
      </g>
     </g>
    </g>
    <g id="ytick_11">
     <g id="line2d_20">
      <g>
       <use style="stroke:#000000;stroke-width:0.6;" x="144" xlink:href="#mcef6fdba0b" y="457.578872"/>
      </g>
     </g>
    </g>
    <g id="ytick_12">
     <g id="line2d_21">
      <g>
       <use style="stroke:#000000;stroke-width:0.6;" x="144" xlink:href="#mcef6fdba0b" y="452.630867"/>
      </g>
     </g>
    </g>
    <g id="ytick_13">
     <g id="line2d_22">
      <g>
       <use style="stroke:#000000;stroke-width:0.6;" x="144" xlink:href="#mcef6fdba0b" y="448.266417"/>
      </g>
     </g>
    </g>
    <g id="ytick_14">
     <g id="line2d_23">
      <g>
       <use style="stroke:#000000;stroke-width:0.6;" x="144" xlink:href="#mcef6fdba0b" y="418.677717"/>
      </g>
     </g>
    </g>
    <g id="ytick_15">
     <g id="line2d_24">
      <g>
       <use style="stroke:#000000;stroke-width:0.6;" x="144" xlink:href="#mcef6fdba0b" y="403.653208"/>
      </g>
     </g>
    </g>
    <g id="ytick_16">
     <g id="line2d_25">
      <g>
       <use style="stroke:#000000;stroke-width:0.6;" x="144" xlink:href="#mcef6fdba0b" y="392.99315"/>
      </g>
     </g>
    </g>
    <g id="ytick_17">
     <g id="line2d_26">
      <g>
       <use style="stroke:#000000;stroke-width:0.6;" x="144" xlink:href="#mcef6fdba0b" y="384.724567"/>
      </g>
     </g>
    </g>
    <g id="ytick_18">
     <g id="line2d_27">
      <g>
       <use style="stroke:#000000;stroke-width:0.6;" x="144" xlink:href="#mcef6fdba0b" y="377.968642"/>
      </g>
     </g>
    </g>
    <g id="ytick_19">
     <g id="line2d_28">
      <g>
       <use style="stroke:#000000;stroke-width:0.6;" x="144" xlink:href="#mcef6fdba0b" y="372.256589"/>
      </g>
     </g>
    </g>
    <g id="ytick_20">
     <g id="line2d_29">
      <g>
       <use style="stroke:#000000;stroke-width:0.6;" x="144" xlink:href="#mcef6fdba0b" y="367.308584"/>
      </g>
     </g>
    </g>
    <g id="ytick_21">
     <g id="line2d_30">
      <g>
       <use style="stroke:#000000;stroke-width:0.6;" x="144" xlink:href="#mcef6fdba0b" y="362.944134"/>
      </g>
     </g>
    </g>
    <g id="ytick_22">
     <g id="line2d_31">
      <g>
       <use style="stroke:#000000;stroke-width:0.6;" x="144" xlink:href="#mcef6fdba0b" y="333.355433"/>
      </g>
     </g>
    </g>
    <g id="ytick_23">
     <g id="line2d_32">
      <g>
       <use style="stroke:#000000;stroke-width:0.6;" x="144" xlink:href="#mcef6fdba0b" y="318.330925"/>
      </g>
     </g>
    </g>
    <g id="ytick_24">
     <g id="line2d_33">
      <g>
       <use style="stroke:#000000;stroke-width:0.6;" x="144" xlink:href="#mcef6fdba0b" y="307.670867"/>
      </g>
     </g>
    </g>
    <g id="ytick_25">
     <g id="line2d_34">
      <g>
       <use style="stroke:#000000;stroke-width:0.6;" x="144" xlink:href="#mcef6fdba0b" y="299.402283"/>
      </g>
     </g>
    </g>
    <g id="ytick_26">
     <g id="line2d_35">
      <g>
       <use style="stroke:#000000;stroke-width:0.6;" x="144" xlink:href="#mcef6fdba0b" y="292.646359"/>
      </g>
     </g>
    </g>
    <g id="ytick_27">
     <g id="line2d_36">
      <g>
       <use style="stroke:#000000;stroke-width:0.6;" x="144" xlink:href="#mcef6fdba0b" y="286.934306"/>
      </g>
     </g>
    </g>
    <g id="ytick_28">
     <g id="line2d_37">
      <g>
       <use style="stroke:#000000;stroke-width:0.6;" x="144" xlink:href="#mcef6fdba0b" y="281.9863"/>
      </g>
     </g>
    </g>
    <g id="ytick_29">
     <g id="line2d_38">
      <g>
       <use style="stroke:#000000;stroke-width:0.6;" x="144" xlink:href="#mcef6fdba0b" y="277.62185"/>
      </g>
     </g>
    </g>
    <g id="ytick_30">
     <g id="line2d_39">
      <g>
       <use style="stroke:#000000;stroke-width:0.6;" x="144" xlink:href="#mcef6fdba0b" y="248.03315"/>
      </g>
     </g>
    </g>
    <g id="ytick_31">
     <g id="line2d_40">
      <g>
       <use style="stroke:#000000;stroke-width:0.6;" x="144" xlink:href="#mcef6fdba0b" y="233.008642"/>
      </g>
     </g>
    </g>
    <g id="ytick_32">
     <g id="line2d_41">
      <g>
       <use style="stroke:#000000;stroke-width:0.6;" x="144" xlink:href="#mcef6fdba0b" y="222.348584"/>
      </g>
     </g>
    </g>
    <g id="ytick_33">
     <g id="line2d_42">
      <g>
       <use style="stroke:#000000;stroke-width:0.6;" x="144" xlink:href="#mcef6fdba0b" y="214.08"/>
      </g>
     </g>
    </g>
    <g id="ytick_34">
     <g id="line2d_43">
      <g>
       <use style="stroke:#000000;stroke-width:0.6;" x="144" xlink:href="#mcef6fdba0b" y="207.324075"/>
      </g>
     </g>
    </g>
    <g id="ytick_35">
     <g id="line2d_44">
      <g>
       <use style="stroke:#000000;stroke-width:0.6;" x="144" xlink:href="#mcef6fdba0b" y="201.612022"/>
      </g>
     </g>
    </g>
    <g id="ytick_36">
     <g id="line2d_45">
      <g>
       <use style="stroke:#000000;stroke-width:0.6;" x="144" xlink:href="#mcef6fdba0b" y="196.664017"/>
      </g>
     </g>
    </g>
    <g id="ytick_37">
     <g id="line2d_46">
      <g>
       <use style="stroke:#000000;stroke-width:0.6;" x="144" xlink:href="#mcef6fdba0b" y="192.299567"/>
      </g>
     </g>
    </g>
    <g id="ytick_38">
     <g id="line2d_47">
      <g>
       <use style="stroke:#000000;stroke-width:0.6;" x="144" xlink:href="#mcef6fdba0b" y="162.710867"/>
      </g>
     </g>
    </g>
    <g id="ytick_39">
     <g id="line2d_48">
      <g>
       <use style="stroke:#000000;stroke-width:0.6;" x="144" xlink:href="#mcef6fdba0b" y="147.686359"/>
      </g>
     </g>
    </g>
    <g id="ytick_40">
     <g id="line2d_49">
      <g>
       <use style="stroke:#000000;stroke-width:0.6;" x="144" xlink:href="#mcef6fdba0b" y="137.0263"/>
      </g>
     </g>
    </g>
    <g id="ytick_41">
     <g id="line2d_50">
      <g>
       <use style="stroke:#000000;stroke-width:0.6;" x="144" xlink:href="#mcef6fdba0b" y="128.757717"/>
      </g>
     </g>
    </g>
    <g id="ytick_42">
     <g id="line2d_51">
      <g>
       <use style="stroke:#000000;stroke-width:0.6;" x="144" xlink:href="#mcef6fdba0b" y="122.001792"/>
      </g>
     </g>
    </g>
    <g id="ytick_43">
     <g id="line2d_52">
      <g>
       <use style="stroke:#000000;stroke-width:0.6;" x="144" xlink:href="#mcef6fdba0b" y="116.289739"/>
      </g>
     </g>
    </g>
    <g id="ytick_44">
     <g id="line2d_53">
      <g>
       <use style="stroke:#000000;stroke-width:0.6;" x="144" xlink:href="#mcef6fdba0b" y="111.341734"/>
      </g>
     </g>
    </g>
    <g id="ytick_45">
     <g id="line2d_54">
      <g>
       <use style="stroke:#000000;stroke-width:0.6;" x="144" xlink:href="#mcef6fdba0b" y="106.977284"/>
      </g>
     </g>
    </g>
    <g id="ytick_46">
     <g id="line2d_55">
      <g>
       <use style="stroke:#000000;stroke-width:0.6;" x="144" xlink:href="#mcef6fdba0b" y="77.388584"/>
      </g>
     </g>
    </g>
    <g id="text_16">
     <!-- Energy /A.U. -->
     <g transform="translate(84.936875 373.22)rotate(-90)scale(0.28 -0.28)">
      <defs>
       <path d="M 9.8125 72.90625 
L 55.90625 72.90625 
L 55.90625 64.59375 
L 19.671875 64.59375 
L 19.671875 43.015625 
L 54.390625 43.015625 
L 54.390625 34.71875 
L 19.671875 34.71875 
L 19.671875 8.296875 
L 56.78125 8.296875 
L 56.78125 0 
L 9.8125 0 
z
" id="DejaVuSans-69"/>
       <path d="M 54.890625 33.015625 
L 54.890625 0 
L 45.90625 0 
L 45.90625 32.71875 
Q 45.90625 40.484375 42.875 44.328125 
Q 39.84375 48.1875 33.796875 48.1875 
Q 26.515625 48.1875 22.3125 43.546875 
Q 18.109375 38.921875 18.109375 30.90625 
L 18.109375 0 
L 9.078125 0 
L 9.078125 54.6875 
L 18.109375 54.6875 
L 18.109375 46.1875 
Q 21.34375 51.125 25.703125 53.5625 
Q 30.078125 56 35.796875 56 
Q 45.21875 56 50.046875 50.171875 
Q 54.890625 44.34375 54.890625 33.015625 
z
" id="DejaVuSans-110"/>
       <path d="M 56.203125 29.59375 
L 56.203125 25.203125 
L 14.890625 25.203125 
Q 15.484375 15.921875 20.484375 11.0625 
Q 25.484375 6.203125 34.421875 6.203125 
Q 39.59375 6.203125 44.453125 7.46875 
Q 49.3125 8.734375 54.109375 11.28125 
L 54.109375 2.78125 
Q 49.265625 0.734375 44.1875 -0.34375 
Q 39.109375 -1.421875 33.890625 -1.421875 
Q 20.796875 -1.421875 13.15625 6.1875 
Q 5.515625 13.8125 5.515625 26.8125 
Q 5.515625 40.234375 12.765625 48.109375 
Q 20.015625 56 32.328125 56 
Q 43.359375 56 49.78125 48.890625 
Q 56.203125 41.796875 56.203125 29.59375 
z
M 47.21875 32.234375 
Q 47.125 39.59375 43.09375 43.984375 
Q 39.0625 48.390625 32.421875 48.390625 
Q 24.90625 48.390625 20.390625 44.140625 
Q 15.875 39.890625 15.1875 32.171875 
z
" id="DejaVuSans-101"/>
       <path d="M 45.40625 27.984375 
Q 45.40625 37.75 41.375 43.109375 
Q 37.359375 48.484375 30.078125 48.484375 
Q 22.859375 48.484375 18.828125 43.109375 
Q 14.796875 37.75 14.796875 27.984375 
Q 14.796875 18.265625 18.828125 12.890625 
Q 22.859375 7.515625 30.078125 7.515625 
Q 37.359375 7.515625 41.375 12.890625 
Q 45.40625 18.265625 45.40625 27.984375 
z
M 54.390625 6.78125 
Q 54.390625 -7.171875 48.1875 -13.984375 
Q 42 -20.796875 29.203125 -20.796875 
Q 24.46875 -20.796875 20.265625 -20.09375 
Q 16.0625 -19.390625 12.109375 -17.921875 
L 12.109375 -9.1875 
Q 16.0625 -11.328125 19.921875 -12.34375 
Q 23.78125 -13.375 27.78125 -13.375 
Q 36.625 -13.375 41.015625 -8.765625 
Q 45.40625 -4.15625 45.40625 5.171875 
L 45.40625 9.625 
Q 42.625 4.78125 38.28125 2.390625 
Q 33.9375 0 27.875 0 
Q 17.828125 0 11.671875 7.65625 
Q 5.515625 15.328125 5.515625 27.984375 
Q 5.515625 40.671875 11.671875 48.328125 
Q 17.828125 56 27.875 56 
Q 33.9375 56 38.28125 53.609375 
Q 42.625 51.21875 45.40625 46.390625 
L 45.40625 54.6875 
L 54.390625 54.6875 
z
" id="DejaVuSans-103"/>
       <path d="M 10.6875 12.40625 
L 21 12.40625 
L 21 0 
L 10.6875 0 
z
" id="DejaVuSans-46"/>
       <path d="M 8.6875 72.90625 
L 18.609375 72.90625 
L 18.609375 28.609375 
Q 18.609375 16.890625 22.84375 11.734375 
Q 27.09375 6.59375 36.625 6.59375 
Q 46.09375 6.59375 50.34375 11.734375 
Q 54.59375 16.890625 54.59375 28.609375 
L 54.59375 72.90625 
L 64.5 72.90625 
L 64.5 27.390625 
Q 64.5 13.140625 57.4375 5.859375 
Q 50.390625 -1.421875 36.625 -1.421875 
Q 22.796875 -1.421875 15.734375 5.859375 
Q 8.6875 13.140625 8.6875 27.390625 
z
" id="DejaVuSans-85"/>
      </defs>
      <use xlink:href="#DejaVuSans-69"/>
      <use x="63.183594" xlink:href="#DejaVuSans-110"/>
      <use x="126.5625" xlink:href="#DejaVuSans-101"/>
      <use x="188.085938" xlink:href="#DejaVuSans-114"/>
      <use x="227.449219" xlink:href="#DejaVuSans-103"/>
      <use x="290.925781" xlink:href="#DejaVuSans-121"/>
      <use x="350.105469" xlink:href="#DejaVuSans-32"/>
      <use x="381.892578" xlink:href="#DejaVuSans-47"/>
      <use x="415.583984" xlink:href="#DejaVuSans-65"/>
      <use x="482.242188" xlink:href="#DejaVuSans-46"/>
      <use x="514.029297" xlink:href="#DejaVuSans-85"/>
      <use x="587.222656" xlink:href="#DejaVuSans-46"/>
     </g>
    </g>
   </g>
   <g id="line2d_56">
    <path clip-path="url(#p6892578c9c)" d="M 163.53 231.597494 
L 368.316 208.803705 
L 437.508 196.392877 
L 471.546 187.944239 
L 512.838 181.346778 
L 518.418 176.061321 
L 542.412 171.495265 
L 554.13 167.6202 
L 560.268 164.240397 
L 567.522 161.127228 
L 592.074 158.293549 
L 611.046 155.706777 
L 601.002 153.394263 
L 626.112 151.22511 
L 631.134 147.285486 
L 635.04 145.675053 
L 643.968 144.035424 
L 667.404 142.529382 
L 674.1 141.084246 
L 672.984 139.749811 
L 672.426 138.485833 
L 672.426 137.224694 
L 694.746 136.043286 
L 712.044 134.904526 
L 705.348 133.794306 
L 721.53 132.763604 
L 705.906 131.766292 
L 733.248 130.786935 
L 733.248 129.891633 
L 725.994 129.010332 
L 744.966 128.171561 
L 743.292 127.345201 
L 742.176 126.585212 
L 753.894 125.798504 
L 755.01 125.056634 
L 752.22 124.344114 
L 756.684 123.646422 
L 773.982 122.95972 
L 765.612 122.281717 
L 771.75 121.614347 
L 769.518 121.023976 
L 766.728 120.413125 
L 779.004 119.808946 
L 779.562 119.219774 
L 795.186 118.65214 
L 780.12 118.092405 
L 792.396 117.567743 
L 790.722 117.054742 
L 788.49 116.558115 
L 794.07 116.057899 
L 790.722 115.561671 
L 793.512 115.07741 
L 808.02 114.625255 
L 809.694 114.166877 
L 815.832 113.706184 
L 818.064 113.256071 
L 817.506 112.809997 
L 808.02 112.387338 
L 823.644 111.955256 
L 819.738 111.547652 
L 823.644 111.15116 
L 824.202 110.759452 
L 832.014 110.408396 
L 826.992 110.001241 
L 830.34 109.602125 
L 837.594 109.265738 
L 829.782 108.914559 
L 825.876 108.556917 
L 835.92 108.180343 
L 837.036 107.804255 
L 839.268 107.469237 
L 833.13 107.140196 
L 844.848 106.844947 
L 840.942 106.512519 
L 849.87 106.193731 
L 842.616 105.879293 
L 847.638 105.555404 
L 843.732 105.261965 
L 843.174 104.938992 
L 854.334 104.645347 
L 847.08 104.340571 
L 855.45 104.045599 
L 856.008 103.774496 
L 858.24 103.511263 
L 853.776 103.223861 
L 847.638 102.941062 
L 861.588 102.658083 
L 848.754 102.137324 
L 850.986 101.871416 
L 865.494 101.641751 
L 866.61 101.384426 
L 870.516 101.128505 
L 868.842 100.878549 
L 856.008 100.626672 
L 868.842 100.397781 
L 870.516 100.157666 
L 868.842 99.912769 
L 873.864 99.670857 
L 871.632 99.4426 
L 872.748 98.985556 
L 873.864 98.777854 
L 879.444 98.554322 
L 876.096 98.328528 
L 881.118 98.105216 
L 867.168 97.671771 
L 873.864 97.464316 
L 874.422 97.270314 
L 876.096 97.068745 
L 881.676 96.874789 
L 879.444 96.669233 
L 882.792 96.477367 
L 880.002 96.269064 
L 871.074 96.06786 
L 873.864 95.873575 
L 883.35 95.674901 
L 882.792 95.477496 
L 884.466 95.289569 
L 880.56 95.107261 
L 885.582 94.930164 
L 882.792 94.747604 
L 882.792 94.572746 
L 893.952 94.401708 
L 888.372 94.218221 
L 886.698 94.036436 
L 883.35 93.863546 
L 884.466 93.681721 
L 892.278 93.495427 
L 892.836 93.319556 
L 889.488 93.140771 
L 886.698 92.813219 
L 896.742 92.650042 
L 895.626 92.493666 
L 895.626 92.328297 
L 900.09 92.165896 
L 893.952 92.009403 
L 893.394 91.84237 
L 896.742 91.67793 
L 896.184 91.518015 
L 897.858 91.371987 
L 890.604 91.212248 
L 892.836 91.076304 
L 906.228 90.934256 
L 898.974 90.787135 
L 901.206 90.630437 
L 894.51 90.488902 
L 900.09 90.345126 
L 896.742 90.197045 
L 902.88 90.036867 
L 901.764 89.901228 
L 905.112 89.755314 
L 903.996 89.609283 
L 906.228 89.345625 
L 904.554 89.210144 
L 894.51 89.066972 
L 909.576 88.514826 
L 903.996 88.377059 
L 903.996 88.246821 
L 896.184 88.115866 
L 907.902 87.849451 
L 908.46 87.725022 
L 893.952 87.607538 
L 911.808 87.475163 
L 911.808 87.357645 
L 906.786 87.229676 
L 914.04 87.099945 
L 898.974 86.86023 
L 909.576 86.607627 
L 907.902 86.492145 
L 911.808 86.379041 
L 900.648 86.262812 
L 915.714 86.02519 
L 909.018 85.913118 
L 917.388 85.803988 
L 911.808 85.687627 
L 911.808 85.568856 
L 908.46 85.462158 
L 916.83 85.225991 
L 911.25 85.118385 
L 919.62 85.013622 
L 916.272 84.904245 
L 916.83 84.802497 
L 909.576 84.695839 
L 910.692 84.589077 
L 905.112 84.481047 
L 917.388 84.260342 
L 917.946 84.150225 
L 917.388 84.033679 
L 914.598 83.930099 
L 918.504 83.833275 
L 912.366 83.73996 
L 920.736 83.640084 
L 918.504 83.53573 
L 920.736 83.424155 
L 909.018 83.130827 
L 919.062 83.026733 
L 903.996 82.931007 
L 916.272 82.830835 
L 911.808 82.730401 
L 921.294 82.640431 
L 912.924 82.455828 
L 922.41 82.361039 
L 912.366 82.272381 
L 926.316 82.084338 
L 915.156 81.824885 
L 919.62 81.725797 
L 917.388 81.635404 
L 922.41 81.534918 
L 920.178 81.439776 
L 925.2 81.352049 
L 917.946 81.169174 
L 921.852 81.080193 
L 920.736 80.998862 
L 921.294 80.913061 
L 918.504 80.827987 
L 925.2 80.744281 
L 916.272 80.574658 
L 927.99 80.321256 
L 916.272 80.236194 
L 920.178 80.158305 
L 920.736 80.075223 
L 918.504 79.991587 
L 929.106 79.90848 
L 920.736 79.746758 
L 920.736 79.664748 
L 921.294 79.581973 
L 926.316 79.441109 
L 915.714 79.373751 
L 923.526 79.298123 
L 921.852 79.211581 
L 921.294 79.136614 
L 925.2 78.976693 
L 922.968 78.820576 
L 930.222 78.737958 
L 920.178 78.589398 
L 927.432 78.441725 
L 916.272 78.293069 
L 924.642 78.22268 
L 921.852 78.147824 
L 921.294 78.079141 
L 919.062 78.006088 
L 931.896 77.927722 
L 923.526 77.860309 
L 927.432 77.785952 
L 927.99 77.724767 
L 924.084 77.659161 
L 924.642 77.590431 
L 924.084 77.452345 
L 927.99 77.390406 
L 921.852 77.312506 
L 925.2 77.244864 
L 922.41 77.175976 
L 925.758 77.105246 
L 915.714 77.036732 
L 920.736 76.972658 
L 927.99 76.846277 
L 919.062 76.786583 
L 922.968 76.716956 
L 926.874 76.656121 
L 920.736 76.532626 
L 931.338 76.332554 
L 926.874 76.267752 
L 929.664 76.206728 
L 926.874 76.137394 
L 930.222 76.076236 
L 927.99 76.008543 
L 926.874 75.947757 
L 931.896 75.700462 
L 925.758 75.527772 
L 928.548 75.462016 
L 927.99 75.401823 
L 927.432 75.344812 
L 925.758 75.285825 
L 929.664 75.223301 
L 928.548 75.169982 
L 925.2 75.05185 
L 927.99 74.992479 
L 925.758 74.932125 
L 925.2 74.867012 
L 931.338 74.70787 
L 930.222 74.657945 
L 929.664 74.604827 
L 930.222 74.501397 
L 925.2 74.449934 
L 929.664 74.392839 
L 924.642 74.333742 
L 926.316 74.282932 
L 931.896 74.168345 
L 931.338 74.111838 
L 926.316 74.052904 
L 926.874 74.004717 
L 930.222 73.957215 
L 927.99 73.907982 
L 927.99 73.849873 
L 925.758 73.800085 
L 929.106 73.752651 
L 926.874 73.701672 
L 926.874 73.648941 
L 930.222 73.592007 
L 929.106 73.537496 
L 927.99 73.479655 
L 924.642 73.430598 
L 927.432 73.384066 
L 927.99 73.290697 
L 925.2 73.242286 
L 933.57 73.141358 
L 929.664 73.095168 
L 928.548 73.045625 
L 931.338 72.945103 
L 927.432 72.89271 
L 927.432 72.89271 
" style="fill:none;stroke:#1f1f1f;stroke-linecap:square;stroke-width:5;"/>
   </g>
   <g id="line2d_57">
    <path clip-path="url(#p6892578c9c)" d="M 163.53 495.930889 
L 368.316 464.450152 
L 437.508 445.837742 
L 471.546 432.574107 
L 512.838 422.09706 
L 518.418 413.446345 
L 542.412 406.037584 
L 554.13 399.649307 
L 560.268 393.954233 
L 567.522 388.86692 
L 592.074 384.326492 
L 611.046 380.201368 
L 601.002 376.38539 
L 626.112 372.858012 
L 628.902 369.584332 
L 631.134 366.490862 
L 635.04 363.565672 
L 643.968 360.815553 
L 667.404 358.229034 
L 674.1 355.807447 
L 672.984 353.517077 
L 672.426 351.347598 
L 672.426 349.263772 
L 694.746 347.289515 
L 712.044 345.416803 
L 705.348 343.63598 
L 721.53 341.92735 
L 705.906 340.283759 
L 733.248 338.702857 
L 733.248 337.171808 
L 725.994 335.709836 
L 744.966 334.297214 
L 743.292 332.933941 
L 742.176 331.606161 
L 753.894 330.32628 
L 755.01 329.088319 
L 752.22 327.889064 
L 756.684 326.723128 
L 773.982 325.59462 
L 765.612 324.49513 
L 771.75 323.435218 
L 769.518 322.396069 
L 766.728 321.391006 
L 779.004 320.406557 
L 779.562 319.439916 
L 795.186 318.498965 
L 780.12 317.584214 
L 792.396 316.683779 
L 790.722 315.798126 
L 788.49 314.932787 
L 794.07 314.092745 
L 790.722 313.276912 
L 793.512 312.476447 
L 808.02 311.681736 
L 809.694 310.897579 
L 815.832 310.130227 
L 818.064 309.374969 
L 817.506 308.642159 
L 808.02 307.92633 
L 823.644 307.218348 
L 819.738 306.52901 
L 823.644 305.853297 
L 824.202 305.185704 
L 832.014 304.527875 
L 826.992 303.883676 
L 830.34 303.252172 
L 837.594 302.628859 
L 829.782 302.015088 
L 825.876 301.410861 
L 835.92 300.81187 
L 837.036 300.223001 
L 839.268 299.642949 
L 833.13 299.070038 
L 844.848 298.50215 
L 840.942 297.944571 
L 849.87 297.39425 
L 842.616 296.847463 
L 847.638 296.313939 
L 843.732 295.792113 
L 843.174 295.274857 
L 854.334 294.766772 
L 847.08 294.262582 
L 855.45 293.762075 
L 856.008 293.268474 
L 858.24 292.779149 
L 853.776 292.297733 
L 847.638 291.821992 
L 861.588 291.34799 
L 848.754 290.421491 
L 850.986 289.965126 
L 865.494 289.511483 
L 866.61 289.063427 
L 870.516 288.620659 
L 868.842 288.180296 
L 856.008 287.74976 
L 868.842 287.321979 
L 870.516 286.898518 
L 868.842 286.479325 
L 873.864 286.065927 
L 871.632 285.652392 
L 872.748 284.83393 
L 873.864 284.431191 
L 879.444 284.033825 
L 876.096 283.641263 
L 881.118 283.250997 
L 872.748 282.86489 
L 867.168 282.481205 
L 873.864 282.100648 
L 874.422 281.723884 
L 876.096 281.349803 
L 881.676 280.976036 
L 879.444 280.604475 
L 882.792 280.238567 
L 880.002 279.875817 
L 871.074 279.516579 
L 873.864 279.16072 
L 883.35 278.80724 
L 882.792 278.456268 
L 884.466 278.109448 
L 880.56 277.762642 
L 885.582 277.417056 
L 882.792 277.075237 
L 882.792 276.735516 
L 893.952 276.39829 
L 888.372 276.062642 
L 886.698 275.728482 
L 883.35 275.396731 
L 884.466 275.068114 
L 892.278 274.74291 
L 892.836 274.419969 
L 889.488 274.100176 
L 888.372 273.781274 
L 886.698 273.464362 
L 896.742 273.147629 
L 895.626 272.833869 
L 895.626 272.521963 
L 900.09 272.212382 
L 893.952 271.904679 
L 893.394 271.599672 
L 896.742 271.296974 
L 896.184 270.99573 
L 897.858 270.694875 
L 890.604 270.399646 
L 892.836 270.104043 
L 906.228 269.80921 
L 898.974 269.517016 
L 901.206 269.225048 
L 894.51 268.934985 
L 900.09 268.647453 
L 896.742 268.362006 
L 902.88 268.079984 
L 901.764 267.798664 
L 905.112 267.518767 
L 903.996 267.239857 
L 905.67 266.963053 
L 906.228 266.687637 
L 904.554 266.413219 
L 894.51 266.140793 
L 898.416 265.868647 
L 908.46 265.328874 
L 909.576 265.060861 
L 903.996 264.794978 
L 903.996 264.530071 
L 896.184 264.26736 
L 903.996 264.006946 
L 907.902 263.747143 
L 908.46 263.490018 
L 893.952 263.233933 
L 911.808 262.977212 
L 911.808 262.721981 
L 906.786 262.468725 
L 914.04 262.216116 
L 898.974 261.715728 
L 907.902 261.467994 
L 909.576 261.221463 
L 907.902 260.975152 
L 911.808 260.728471 
L 900.648 260.485141 
L 915.714 260.001727 
L 909.018 259.762337 
L 917.388 259.524636 
L 911.808 259.287337 
L 911.808 259.052244 
L 908.46 258.81796 
L 914.04 258.582971 
L 916.83 258.34889 
L 911.25 258.116565 
L 919.62 257.885984 
L 916.272 257.656186 
L 916.83 257.427899 
L 909.576 257.199598 
L 910.692 256.972569 
L 905.112 256.745704 
L 916.272 256.520075 
L 917.946 256.074882 
L 917.388 255.853128 
L 914.598 255.632835 
L 918.504 255.412378 
L 912.366 255.193248 
L 920.736 254.975412 
L 918.504 254.759134 
L 920.736 254.543251 
L 916.83 254.329274 
L 915.714 254.11602 
L 909.018 253.904012 
L 919.062 253.693382 
L 903.996 253.483724 
L 916.272 253.274704 
L 911.808 253.06641 
L 921.294 252.858073 
L 912.924 252.445872 
L 922.41 252.241125 
L 912.366 252.037121 
L 926.316 251.631844 
L 920.736 251.430423 
L 921.852 251.228744 
L 915.156 251.028405 
L 919.62 250.829245 
L 917.388 250.631035 
L 922.41 250.433129 
L 920.178 250.236362 
L 925.2 250.04083 
L 922.41 249.845953 
L 917.946 249.651638 
L 921.852 249.458615 
L 920.736 249.265956 
L 921.294 249.074353 
L 918.504 248.883729 
L 925.2 248.692577 
L 916.272 248.313595 
L 927.99 247.748385 
L 916.272 247.561835 
L 920.178 247.376063 
L 920.736 247.190301 
L 918.504 247.005156 
L 929.106 246.820626 
L 921.852 246.636538 
L 920.736 246.452528 
L 920.736 246.269422 
L 921.294 246.087643 
L 922.968 245.906195 
L 926.316 245.725411 
L 915.714 245.545471 
L 923.526 245.365734 
L 921.852 245.186449 
L 921.294 245.007939 
L 925.2 244.651304 
L 922.968 244.298782 
L 930.222 244.123526 
L 920.178 243.775782 
L 927.432 243.4301 
L 917.946 243.258095 
L 916.272 243.086621 
L 924.642 242.915576 
L 921.852 242.745527 
L 921.294 242.576229 
L 919.062 242.407228 
L 931.896 242.238206 
L 923.526 242.070525 
L 927.432 241.903584 
L 927.99 241.736102 
L 924.084 241.569668 
L 924.642 241.403252 
L 924.084 241.237823 
L 924.084 241.073439 
L 927.99 240.908932 
L 921.852 240.745445 
L 925.2 240.582154 
L 922.41 240.419605 
L 925.758 240.257451 
L 915.714 240.096136 
L 927.99 239.613992 
L 919.062 239.453916 
L 926.874 239.13469 
L 920.736 238.818127 
L 926.874 238.65996 
L 926.316 238.502278 
L 931.338 238.345481 
L 926.874 238.18976 
L 929.664 238.03424 
L 926.874 237.878699 
L 930.222 237.723592 
L 926.874 237.414768 
L 927.99 237.260662 
L 931.896 236.954835 
L 931.896 236.802054 
L 926.316 236.650268 
L 925.758 236.499073 
L 925.758 236.348087 
L 928.548 236.197432 
L 927.432 235.897667 
L 925.758 235.748582 
L 929.664 235.599477 
L 926.874 235.302775 
L 925.2 235.154557 
L 927.99 235.006835 
L 925.2 234.713295 
L 931.338 234.275552 
L 929.664 233.986362 
L 925.2 233.842365 
L 930.222 233.698158 
L 925.2 233.554319 
L 929.664 233.410952 
L 924.642 233.267801 
L 926.316 233.125131 
L 931.338 232.983496 
L 931.896 232.842523 
L 931.338 232.701426 
L 926.316 232.560697 
L 926.874 232.42046 
L 930.222 232.280395 
L 927.99 232.141269 
L 927.99 232.002468 
L 925.758 231.863694 
L 929.106 231.725586 
L 926.874 231.587939 
L 926.874 231.450535 
L 930.222 231.313691 
L 927.99 231.040943 
L 924.642 230.905038 
L 927.99 230.634331 
L 927.99 230.499163 
L 925.2 230.364866 
L 933.57 230.096692 
L 928.548 229.829441 
L 931.338 229.563603 
L 927.432 229.431335 
L 927.432 229.431335 
" style="fill:none;stroke:#9e9e9e;stroke-linecap:square;stroke-width:5;"/>
   </g>
   <g id="line2d_58">
    <path clip-path="url(#p6892578c9c)" d="M -1 286.939432 
L 25.146 284.556176 
L 52.488 280.493228 
L 153.486 276.925661 
L 199.8 273.826685 
L 252.252 270.831614 
L 228.816 268.016456 
L 228.816 265.50663 
L 295.218 262.988192 
L 280.152 260.675155 
L 302.472 258.497942 
L 303.03 256.515025 
L 337.068 254.486216 
L 325.908 252.485402 
L 325.35 250.683529 
L 331.488 248.962149 
L 391.194 247.238584 
L 374.454 245.70996 
L 373.338 244.201154 
L 380.592 242.6745 
L 397.89 241.211152 
L 395.658 239.850208 
L 412.398 238.464384 
L 416.304 237.171322 
L 421.326 235.925429 
L 425.232 234.723948 
L 424.116 233.592701 
L 425.232 232.452631 
L 453.69 231.332962 
L 426.906 230.213605 
L 423 229.115716 
L 419.652 228.042481 
L 448.11 226.982849 
L 446.436 225.995146 
L 435.276 225.036852 
L 440.856 224.10483 
L 458.154 223.212514 
L 465.408 222.357102 
L 449.784 221.5061 
L 484.938 220.67891 
L 484.38 219.865829 
L 488.286 219.051745 
L 486.054 218.330757 
L 473.778 217.676842 
L 491.076 216.939657 
L 466.524 216.237727 
L 505.584 215.516349 
L 500.004 214.816758 
L 498.888 214.106322 
L 500.004 213.371825 
L 493.866 212.734921 
L 520.092 212.09294 
L 493.308 211.432092 
L 507.258 210.773782 
L 507.258 210.159396 
L 519.534 209.544665 
L 522.882 208.989613 
L 503.352 208.391143 
L 513.396 207.803891 
L 527.346 207.236086 
L 527.346 206.699647 
L 535.158 206.161841 
L 520.092 205.670528 
L 527.346 205.100669 
L 515.628 204.619143 
L 547.434 204.096729 
L 530.136 203.640394 
L 548.55 202.714181 
L 530.694 202.241394 
L 533.484 201.776979 
L 530.136 201.319312 
L 540.18 200.903847 
L 544.086 200.438361 
L 545.202 199.98097 
L 558.036 199.512449 
L 563.058 199.063445 
L 555.246 198.678661 
L 554.13 198.270284 
L 553.572 197.846393 
L 563.058 197.465286 
L 554.13 197.089148 
L 566.406 196.698574 
L 557.478 196.295118 
L 556.362 195.894403 
L 569.754 195.491905 
L 564.732 195.0969 
L 550.782 194.752754 
L 569.754 194.38209 
L 556.92 194.01584 
L 569.196 193.65354 
L 574.218 192.952495 
L 576.45 192.61553 
L 586.494 192.270493 
L 588.168 191.944415 
L 575.892 191.601216 
L 590.958 191.279035 
L 584.262 190.954853 
L 583.704 190.658832 
L 589.842 190.318874 
L 586.494 190.018941 
L 588.168 189.70784 
L 588.726 189.41312 
L 601.002 189.096885 
L 588.168 188.791732 
L 600.444 188.189032 
L 598.212 187.918645 
L 600.444 187.639932 
L 614.952 187.355341 
L 607.698 187.069678 
L 594.864 186.789411 
L 606.024 186.26208 
L 607.14 186.021162 
L 607.14 185.765854 
L 624.438 185.511803 
L 621.09 185.258744 
L 614.952 184.998245 
L 623.322 184.735014 
L 625.554 184.481001 
L 625.554 184.219982 
L 614.394 183.96093 
L 618.858 183.715703 
L 616.068 183.455592 
L 609.372 183.22114 
L 630.018 182.745722 
L 603.792 182.505816 
L 631.134 182.030083 
L 631.134 181.803658 
L 635.598 181.35608 
L 625.554 181.133516 
L 633.924 180.707694 
L 620.532 180.491793 
L 637.83 180.272902 
L 624.438 180.057926 
L 622.206 179.845356 
L 640.62 179.433386 
L 628.902 179.227826 
L 646.2 179.011238 
L 638.388 178.814313 
L 639.504 178.620014 
L 655.686 178.225582 
L 643.41 178.021235 
L 618.858 177.834971 
L 646.758 177.653371 
L 640.062 177.268254 
L 632.25 177.079264 
L 652.896 176.871808 
L 647.316 176.690988 
L 648.99 176.499024 
L 667.404 175.947951 
L 655.686 175.766741 
L 651.78 175.581756 
L 665.172 175.247914 
L 662.94 175.077858 
L 662.382 174.89871 
L 670.752 174.724134 
L 658.476 174.557729 
L 654.57 174.387941 
L 660.15 174.203427 
L 654.012 173.851075 
L 654.57 173.679949 
L 672.426 173.514347 
L 657.36 173.338294 
L 676.332 173.034458 
L 661.266 172.886008 
L 675.774 172.713525 
L 646.758 172.381132 
L 676.332 172.067239 
L 668.52 171.910246 
L 683.028 171.759691 
L 666.288 171.302743 
L 676.332 171.170574 
L 654.57 171.010882 
L 675.774 170.871881 
L 681.354 170.717157 
L 679.122 170.564993 
L 671.31 170.403754 
L 686.934 170.264832 
L 691.956 169.969386 
L 686.934 169.830059 
L 696.42 169.697639 
L 684.144 169.418664 
L 681.354 169.289039 
L 693.63 169.163615 
L 687.492 169.014919 
L 699.21 168.877397 
L 684.702 168.729748 
L 693.072 168.452623 
L 680.796 168.30921 
L 681.912 168.168875 
L 697.536 167.909542 
L 700.326 167.639149 
L 689.166 167.386034 
L 703.674 167.017486 
L 693.63 166.49242 
L 702.558 166.235903 
L 692.514 166.123888 
L 710.37 166.008218 
L 705.348 165.881059 
L 709.254 165.762834 
L 702 165.642213 
L 708.138 165.520043 
L 696.42 165.40795 
L 714.834 165.174658 
L 707.022 165.059892 
L 708.696 164.944215 
L 701.442 164.719872 
L 715.95 164.610069 
L 708.696 164.400284 
L 715.95 164.281203 
L 702 163.934397 
L 712.044 163.83305 
L 709.812 163.723049 
L 715.95 163.608415 
L 712.044 163.490132 
L 720.972 163.386995 
L 712.044 163.275967 
L 715.95 163.185041 
L 715.392 163.076526 
L 713.16 162.966391 
L 723.762 162.860944 
L 714.276 162.639581 
L 712.044 162.523741 
L 719.856 162.314214 
L 718.182 162.214587 
L 713.718 162.010259 
L 725.994 161.906283 
L 723.762 161.709574 
L 717.624 161.506272 
L 729.9 161.403923 
L 721.53 161.220382 
L 725.436 161.01831 
L 720.972 160.91432 
L 729.9 160.824953 
L 724.878 160.721443 
L 736.038 160.625242 
L 733.248 160.525161 
L 733.806 160.426217 
L 738.27 160.325424 
L 731.574 160.224593 
L 734.364 160.135515 
L 716.508 160.031676 
L 737.154 159.937528 
L 723.762 159.744946 
L 737.712 159.555039 
L 729.9 159.468926 
L 735.48 159.382865 
L 720.414 159.292154 
L 729.9 159.113511 
L 727.11 159.027236 
L 736.596 158.753802 
L 737.154 158.667795 
L 739.386 158.579488 
L 733.806 158.488948 
L 738.828 158.391447 
L 736.596 158.297419 
L 738.828 158.125998 
L 743.292 158.04892 
L 740.502 157.973069 
L 730.458 157.808391 
L 744.966 157.646099 
L 744.408 157.572117 
L 741.06 157.396776 
L 746.64 157.310817 
L 736.038 157.224307 
L 749.988 157.04527 
L 746.082 156.963165 
L 743.292 156.880985 
L 751.104 156.803284 
L 748.314 156.724011 
L 751.104 156.556736 
L 743.292 156.475115 
L 750.546 156.391716 
L 748.872 156.318592 
L 751.104 156.248417 
L 741.06 156.08828 
L 742.734 156.011585 
L 754.452 155.941888 
L 751.662 155.868197 
L 755.01 155.795659 
L 737.154 155.548964 
L 753.894 155.385227 
L 743.85 155.245044 
L 746.64 155.088465 
L 754.452 154.942697 
L 750.546 154.871879 
L 751.662 154.795914 
L 754.452 154.725162 
L 749.43 154.641687 
L 752.778 154.565145 
L 752.22 154.49871 
L 753.336 154.425462 
L 747.756 154.353469 
L 747.756 154.353469 
" style="fill:none;stroke:#2ecbff;stroke-linecap:square;stroke-width:5;"/>
   </g>
   <g id="line2d_59">
    <path clip-path="url(#p6892578c9c)" d="M -1 439.579944 
L 25.146 435.092956 
L 52.488 428.095235 
L 153.486 421.882716 
L 199.8 416.365297 
L 252.252 411.400983 
L 228.816 406.766586 
L 228.816 402.473568 
L 295.218 398.517883 
L 280.152 394.834487 
L 302.472 391.384867 
L 303.03 388.134575 
L 337.068 385.073328 
L 325.908 382.174799 
L 325.35 379.40718 
L 331.488 376.755758 
L 391.194 374.246813 
L 374.454 371.842021 
L 373.338 369.537163 
L 380.592 367.335748 
L 397.89 365.234771 
L 395.658 363.212891 
L 412.398 361.261647 
L 416.304 359.39034 
L 421.326 357.577718 
L 425.232 355.829072 
L 424.116 354.137076 
L 425.232 352.506425 
L 453.69 350.924744 
L 426.906 349.390447 
L 423 347.897512 
L 419.652 346.454974 
L 448.11 345.051635 
L 446.436 343.679368 
L 435.276 342.350691 
L 440.856 341.054445 
L 458.154 339.800147 
L 465.408 338.577179 
L 449.784 337.382226 
L 484.938 336.21591 
L 484.38 335.076352 
L 488.286 333.961426 
L 486.054 332.873447 
L 473.778 331.812777 
L 491.076 330.776052 
L 466.524 329.755265 
L 505.584 328.762865 
L 500.004 327.790711 
L 498.888 326.836796 
L 500.004 325.903142 
L 493.866 324.988312 
L 520.092 324.090558 
L 493.308 323.20646 
L 507.258 322.34451 
L 507.258 321.500374 
L 519.534 320.668417 
L 522.882 319.851351 
L 503.352 319.047372 
L 513.396 318.261994 
L 527.346 317.487458 
L 527.346 316.723246 
L 535.158 315.973805 
L 520.092 315.238605 
L 527.346 314.517282 
L 515.628 313.806896 
L 547.434 313.108004 
L 530.136 312.415493 
L 538.506 311.732384 
L 548.55 311.059601 
L 530.694 310.40086 
L 533.484 309.750572 
L 530.136 309.110521 
L 540.18 308.481985 
L 544.086 307.86035 
L 545.202 307.245134 
L 558.036 306.640867 
L 563.058 306.043889 
L 555.246 305.455491 
L 554.13 304.871615 
L 553.572 304.29734 
L 563.058 303.733755 
L 554.13 303.173086 
L 566.406 302.620722 
L 557.478 302.076833 
L 556.362 301.538035 
L 569.754 301.006669 
L 564.732 300.480992 
L 550.782 299.959349 
L 569.754 299.44723 
L 556.92 298.940048 
L 569.196 298.439112 
L 571.428 297.943344 
L 576.45 296.971456 
L 586.494 296.495253 
L 588.168 296.024769 
L 575.892 295.556574 
L 590.958 295.095731 
L 584.262 294.637956 
L 583.704 294.184904 
L 589.842 293.73597 
L 586.494 293.292709 
L 588.168 292.853064 
L 588.726 292.417583 
L 601.002 291.987958 
L 588.168 291.563093 
L 595.98 291.140585 
L 600.444 290.723866 
L 598.212 290.310951 
L 600.444 289.902134 
L 614.952 289.498162 
L 607.698 289.097242 
L 594.864 288.69902 
L 606.024 287.916181 
L 607.14 287.53013 
L 607.14 287.145993 
L 624.438 286.766518 
L 621.09 286.389301 
L 614.952 286.015153 
L 623.322 285.642697 
L 625.554 285.274598 
L 625.554 284.910523 
L 614.394 284.548155 
L 618.858 284.18887 
L 616.068 283.834532 
L 609.372 283.483856 
L 630.018 282.787907 
L 603.792 282.442801 
L 631.134 281.76291 
L 631.134 281.42748 
L 635.598 280.763252 
L 625.554 280.435158 
L 633.924 279.789118 
L 620.532 279.468503 
L 637.83 279.15131 
L 624.438 278.834526 
L 622.206 278.520031 
L 634.482 278.207558 
L 640.62 277.896746 
L 628.902 277.588103 
L 646.2 277.281898 
L 638.388 276.979427 
L 639.504 276.679667 
L 655.686 276.087398 
L 643.41 275.794385 
L 618.858 275.502968 
L 646.758 275.21464 
L 643.968 274.926602 
L 640.062 274.64039 
L 632.25 274.356622 
L 652.896 274.074642 
L 647.316 273.795752 
L 648.99 273.517062 
L 661.824 272.966847 
L 667.404 272.695067 
L 655.686 272.424674 
L 651.78 272.156637 
L 665.172 271.62273 
L 662.94 271.357677 
L 662.382 271.093797 
L 670.752 270.832098 
L 658.476 270.572289 
L 654.57 270.313943 
L 660.15 270.056173 
L 654.012 269.547411 
L 654.57 269.295059 
L 672.426 269.043597 
L 657.36 268.79433 
L 676.332 268.300379 
L 661.266 268.054904 
L 675.774 267.811828 
L 646.758 267.328741 
L 666.288 267.08899 
L 676.332 266.850815 
L 668.52 266.615215 
L 683.028 266.380826 
L 675.774 266.147835 
L 672.984 265.915902 
L 666.288 265.684893 
L 676.332 265.455055 
L 654.57 265.226834 
L 675.774 265.00049 
L 681.354 264.774542 
L 679.122 264.550016 
L 671.31 264.326484 
L 686.934 264.103951 
L 691.956 263.659396 
L 686.934 263.438753 
L 696.42 263.220093 
L 686.376 263.00306 
L 681.354 262.570471 
L 693.63 262.355786 
L 687.492 262.141835 
L 699.21 261.928959 
L 684.702 261.716991 
L 693.072 261.296924 
L 680.796 261.089212 
L 681.912 260.882537 
L 697.536 260.471863 
L 700.326 260.066408 
L 691.398 259.864592 
L 689.166 259.663468 
L 703.674 259.065091 
L 696.978 258.671048 
L 696.978 258.475241 
L 693.63 258.279699 
L 702.558 257.892653 
L 692.514 257.701262 
L 710.37 257.510452 
L 705.348 257.319923 
L 709.254 257.130433 
L 702 256.941592 
L 708.138 256.753432 
L 696.42 256.565312 
L 711.486 256.378596 
L 714.834 256.193173 
L 707.022 256.008301 
L 708.696 255.824174 
L 701.442 255.458248 
L 715.95 255.27675 
L 708.696 254.91637 
L 715.95 254.737612 
L 710.928 254.559315 
L 709.254 254.38253 
L 702 254.205923 
L 712.044 254.029974 
L 709.812 253.854996 
L 715.95 253.680561 
L 712.044 253.50664 
L 720.972 253.333361 
L 712.044 253.161351 
L 715.95 252.98957 
L 715.392 252.818576 
L 713.16 252.647886 
L 723.762 252.478075 
L 714.276 252.140778 
L 712.044 251.973699 
L 718.74 251.806914 
L 719.856 251.640818 
L 718.182 251.475058 
L 713.718 251.310057 
L 713.718 251.145163 
L 725.994 250.98117 
L 723.762 250.655039 
L 717.624 250.492985 
L 717.624 250.33151 
L 729.9 250.170586 
L 721.53 249.850357 
L 725.436 249.691073 
L 725.436 249.532248 
L 720.972 249.374042 
L 729.9 249.216601 
L 724.878 249.059519 
L 736.038 248.903289 
L 733.248 248.748054 
L 733.806 248.593061 
L 738.27 248.438406 
L 731.574 248.284254 
L 734.364 248.130095 
L 716.508 247.976836 
L 737.154 247.8245 
L 723.762 247.521035 
L 737.712 247.218688 
L 729.9 247.068476 
L 735.48 246.918607 
L 720.414 246.76968 
L 729.9 246.621198 
L 729.9 246.473658 
L 727.11 246.326127 
L 734.922 246.031756 
L 739.386 245.595045 
L 733.806 245.450472 
L 738.828 245.306226 
L 736.596 245.16254 
L 738.828 244.877384 
L 743.292 244.735293 
L 740.502 244.593671 
L 730.458 244.310834 
L 744.966 244.030242 
L 744.408 243.890781 
L 741.06 243.612536 
L 746.64 243.474319 
L 736.038 243.336477 
L 749.988 243.061624 
L 743.292 242.788935 
L 751.104 242.653234 
L 748.314 242.518013 
L 751.104 242.248798 
L 743.292 242.114946 
L 750.546 241.981313 
L 748.872 241.848071 
L 751.104 241.715454 
L 741.06 241.451201 
L 742.734 241.319509 
L 754.452 241.188208 
L 751.662 241.056934 
L 755.01 240.925981 
L 750.546 240.795533 
L 737.154 240.536428 
L 753.894 240.40751 
L 753.894 240.278865 
L 743.85 240.02224 
L 746.64 239.767445 
L 754.452 239.514025 
L 750.546 239.387658 
L 751.662 239.261641 
L 754.452 239.136065 
L 749.43 239.010833 
L 752.778 238.88652 
L 752.22 238.762457 
L 753.336 238.638831 
L 747.756 238.515131 
L 747.756 238.515131 
" style="fill:none;stroke:#9deaff;stroke-linecap:square;stroke-width:5;"/>
   </g>
   <g id="patch_3">
    <path d="M 144 504 
L 144 69.12 
" style="fill:none;stroke:#000000;stroke-linecap:square;stroke-linejoin:miter;stroke-width:0.8;"/>
   </g>
   <g id="patch_4">
    <path d="M 1036.8 504 
L 1036.8 69.12 
" style="fill:none;stroke:#000000;stroke-linecap:square;stroke-linejoin:miter;stroke-width:0.8;"/>
   </g>
   <g id="patch_5">
    <path d="M 144 504 
L 1036.8 504 
" style="fill:none;stroke:#000000;stroke-linecap:square;stroke-linejoin:miter;stroke-width:0.8;"/>
   </g>
   <g id="patch_6">
    <path d="M 144 69.12 
L 1036.8 69.12 
" style="fill:none;stroke:#000000;stroke-linecap:square;stroke-linejoin:miter;stroke-width:0.8;"/>
   </g>
   <g id="text_17">
    <!-- Gated: Energy vs. Accuracy with 200 Units @ 0.25 -->
    <g transform="translate(136.442813 61.633125)scale(0.36 -0.36)">
     <defs>
      <path d="M 59.515625 10.40625 
L 59.515625 29.984375 
L 43.40625 29.984375 
L 43.40625 38.09375 
L 69.28125 38.09375 
L 69.28125 6.78125 
Q 63.578125 2.734375 56.6875 0.65625 
Q 49.8125 -1.421875 42 -1.421875 
Q 24.90625 -1.421875 15.25 8.5625 
Q 5.609375 18.5625 5.609375 36.375 
Q 5.609375 54.25 15.25 64.234375 
Q 24.90625 74.21875 42 74.21875 
Q 49.125 74.21875 55.546875 72.453125 
Q 61.96875 70.703125 67.390625 67.28125 
L 67.390625 56.78125 
Q 61.921875 61.421875 55.765625 63.765625 
Q 49.609375 66.109375 42.828125 66.109375 
Q 29.4375 66.109375 22.71875 58.640625 
Q 16.015625 51.171875 16.015625 36.375 
Q 16.015625 21.625 22.71875 14.15625 
Q 29.4375 6.6875 42.828125 6.6875 
Q 48.046875 6.6875 52.140625 7.59375 
Q 56.25 8.5 59.515625 10.40625 
z
" id="DejaVuSans-71"/>
      <path d="M 18.3125 70.21875 
L 18.3125 54.6875 
L 36.8125 54.6875 
L 36.8125 47.703125 
L 18.3125 47.703125 
L 18.3125 18.015625 
Q 18.3125 11.328125 20.140625 9.421875 
Q 21.96875 7.515625 27.59375 7.515625 
L 36.8125 7.515625 
L 36.8125 0 
L 27.59375 0 
Q 17.1875 0 13.234375 3.875 
Q 9.28125 7.765625 9.28125 18.015625 
L 9.28125 47.703125 
L 2.6875 47.703125 
L 2.6875 54.6875 
L 9.28125 54.6875 
L 9.28125 70.21875 
z
" id="DejaVuSans-116"/>
      <path d="M 45.40625 46.390625 
L 45.40625 75.984375 
L 54.390625 75.984375 
L 54.390625 0 
L 45.40625 0 
L 45.40625 8.203125 
Q 42.578125 3.328125 38.25 0.953125 
Q 33.9375 -1.421875 27.875 -1.421875 
Q 17.96875 -1.421875 11.734375 6.484375 
Q 5.515625 14.40625 5.515625 27.296875 
Q 5.515625 40.1875 11.734375 48.09375 
Q 17.96875 56 27.875 56 
Q 33.9375 56 38.25 53.625 
Q 42.578125 51.265625 45.40625 46.390625 
z
M 14.796875 27.296875 
Q 14.796875 17.390625 18.875 11.75 
Q 22.953125 6.109375 30.078125 6.109375 
Q 37.203125 6.109375 41.296875 11.75 
Q 45.40625 17.390625 45.40625 27.296875 
Q 45.40625 37.203125 41.296875 42.84375 
Q 37.203125 48.484375 30.078125 48.484375 
Q 22.953125 48.484375 18.875 42.84375 
Q 14.796875 37.203125 14.796875 27.296875 
z
" id="DejaVuSans-100"/>
      <path d="M 11.71875 12.40625 
L 22.015625 12.40625 
L 22.015625 0 
L 11.71875 0 
z
M 11.71875 51.703125 
L 22.015625 51.703125 
L 22.015625 39.3125 
L 11.71875 39.3125 
z
" id="DejaVuSans-58"/>
      <path d="M 2.984375 54.6875 
L 12.5 54.6875 
L 29.59375 8.796875 
L 46.6875 54.6875 
L 56.203125 54.6875 
L 35.6875 0 
L 23.484375 0 
z
" id="DejaVuSans-118"/>
      <path d="M 44.28125 53.078125 
L 44.28125 44.578125 
Q 40.484375 46.53125 36.375 47.5 
Q 32.28125 48.484375 27.875 48.484375 
Q 21.1875 48.484375 17.84375 46.4375 
Q 14.5 44.390625 14.5 40.28125 
Q 14.5 37.15625 16.890625 35.375 
Q 19.28125 33.59375 26.515625 31.984375 
L 29.59375 31.296875 
Q 39.15625 29.25 43.1875 25.515625 
Q 47.21875 21.78125 47.21875 15.09375 
Q 47.21875 7.46875 41.1875 3.015625 
Q 35.15625 -1.421875 24.609375 -1.421875 
Q 20.21875 -1.421875 15.453125 -0.5625 
Q 10.6875 0.296875 5.421875 2 
L 5.421875 11.28125 
Q 10.40625 8.6875 15.234375 7.390625 
Q 20.0625 6.109375 24.8125 6.109375 
Q 31.15625 6.109375 34.5625 8.28125 
Q 37.984375 10.453125 37.984375 14.40625 
Q 37.984375 18.0625 35.515625 20.015625 
Q 33.0625 21.96875 24.703125 23.78125 
L 21.578125 24.515625 
Q 13.234375 26.265625 9.515625 29.90625 
Q 5.8125 33.546875 5.8125 39.890625 
Q 5.8125 47.609375 11.28125 51.796875 
Q 16.75 56 26.8125 56 
Q 31.78125 56 36.171875 55.265625 
Q 40.578125 54.546875 44.28125 53.078125 
z
" id="DejaVuSans-115"/>
      <path d="M 4.203125 54.6875 
L 13.1875 54.6875 
L 24.421875 12.015625 
L 35.59375 54.6875 
L 46.1875 54.6875 
L 57.421875 12.015625 
L 68.609375 54.6875 
L 77.59375 54.6875 
L 63.28125 0 
L 52.6875 0 
L 40.921875 44.828125 
L 29.109375 0 
L 18.5 0 
z
" id="DejaVuSans-119"/>
      <path d="M 9.421875 54.6875 
L 18.40625 54.6875 
L 18.40625 0 
L 9.421875 0 
z
M 9.421875 75.984375 
L 18.40625 75.984375 
L 18.40625 64.59375 
L 9.421875 64.59375 
z
" id="DejaVuSans-105"/>
      <path d="M 54.890625 33.015625 
L 54.890625 0 
L 45.90625 0 
L 45.90625 32.71875 
Q 45.90625 40.484375 42.875 44.328125 
Q 39.84375 48.1875 33.796875 48.1875 
Q 26.515625 48.1875 22.3125 43.546875 
Q 18.109375 38.921875 18.109375 30.90625 
L 18.109375 0 
L 9.078125 0 
L 9.078125 75.984375 
L 18.109375 75.984375 
L 18.109375 46.1875 
Q 21.34375 51.125 25.703125 53.5625 
Q 30.078125 56 35.796875 56 
Q 45.21875 56 50.046875 50.171875 
Q 54.890625 44.34375 54.890625 33.015625 
z
" id="DejaVuSans-104"/>
      <path d="M 37.203125 26.21875 
Q 37.203125 19.234375 40.671875 15.25 
Q 44.140625 11.28125 50.203125 11.28125 
Q 56.203125 11.28125 59.640625 15.28125 
Q 63.09375 19.28125 63.09375 26.21875 
Q 63.09375 33.0625 59.578125 37.078125 
Q 56.0625 41.109375 50.09375 41.109375 
Q 44.1875 41.109375 40.6875 37.109375 
Q 37.203125 33.109375 37.203125 26.21875 
z
M 63.8125 11.625 
Q 60.890625 7.859375 57.109375 6.078125 
Q 53.328125 4.296875 48.296875 4.296875 
Q 39.890625 4.296875 34.640625 10.375 
Q 29.390625 16.453125 29.390625 26.21875 
Q 29.390625 35.984375 34.65625 42.078125 
Q 39.9375 48.1875 48.296875 48.1875 
Q 53.328125 48.1875 57.125 46.359375 
Q 60.9375 44.53125 63.8125 40.828125 
L 63.8125 47.21875 
L 70.796875 47.21875 
L 70.796875 11.28125 
Q 77.9375 12.359375 81.953125 17.796875 
Q 85.984375 23.25 85.984375 31.890625 
Q 85.984375 37.109375 84.4375 41.703125 
Q 82.90625 46.296875 79.78125 50.203125 
Q 74.703125 56.59375 67.40625 59.984375 
Q 60.109375 63.375 51.515625 63.375 
Q 45.515625 63.375 39.984375 61.78125 
Q 34.46875 60.203125 29.78125 57.078125 
Q 22.125 52.09375 17.796875 44.015625 
Q 13.484375 35.9375 13.484375 26.515625 
Q 13.484375 18.75 16.28125 11.953125 
Q 19.09375 5.171875 24.421875 0 
Q 29.546875 -5.078125 36.28125 -7.734375 
Q 43.015625 -10.40625 50.6875 -10.40625 
Q 56.984375 -10.40625 63.0625 -8.28125 
Q 69.140625 -6.15625 74.21875 -2.203125 
L 78.609375 -7.625 
Q 72.515625 -12.359375 65.3125 -14.875 
Q 58.109375 -17.390625 50.6875 -17.390625 
Q 41.65625 -17.390625 33.640625 -14.1875 
Q 25.640625 -10.984375 19.390625 -4.890625 
Q 13.140625 1.21875 9.859375 9.25 
Q 6.59375 17.28125 6.59375 26.515625 
Q 6.59375 35.40625 9.90625 43.453125 
Q 13.234375 51.515625 19.390625 57.625 
Q 25.6875 63.8125 33.9375 67.109375 
Q 42.1875 70.40625 51.421875 70.40625 
Q 61.765625 70.40625 70.625 66.15625 
Q 79.5 61.921875 85.5 54.109375 
Q 89.15625 49.3125 91.078125 43.703125 
Q 93.015625 38.09375 93.015625 32.078125 
Q 93.015625 19.234375 85.25 11.8125 
Q 77.484375 4.390625 63.8125 4.109375 
z
" id="DejaVuSans-64"/>
     </defs>
     <use xlink:href="#DejaVuSans-71"/>
     <use x="77.490234" xlink:href="#DejaVuSans-97"/>
     <use x="138.769531" xlink:href="#DejaVuSans-116"/>
     <use x="177.978516" xlink:href="#DejaVuSans-101"/>
     <use x="239.501953" xlink:href="#DejaVuSans-100"/>
     <use x="302.978516" xlink:href="#DejaVuSans-58"/>
     <use x="336.669922" xlink:href="#DejaVuSans-32"/>
     <use x="368.457031" xlink:href="#DejaVuSans-69"/>
     <use x="431.640625" xlink:href="#DejaVuSans-110"/>
     <use x="495.019531" xlink:href="#DejaVuSans-101"/>
     <use x="556.542969" xlink:href="#DejaVuSans-114"/>
     <use x="595.90625" xlink:href="#DejaVuSans-103"/>
     <use x="659.382812" xlink:href="#DejaVuSans-121"/>
     <use x="718.5625" xlink:href="#DejaVuSans-32"/>
     <use x="750.349609" xlink:href="#DejaVuSans-118"/>
     <use x="809.529297" xlink:href="#DejaVuSans-115"/>
     <use x="861.628906" xlink:href="#DejaVuSans-46"/>
     <use x="893.416016" xlink:href="#DejaVuSans-32"/>
     <use x="925.203125" xlink:href="#DejaVuSans-65"/>
     <use x="991.861328" xlink:href="#DejaVuSans-99"/>
     <use x="1046.841797" xlink:href="#DejaVuSans-99"/>
     <use x="1101.822266" xlink:href="#DejaVuSans-117"/>
     <use x="1165.201172" xlink:href="#DejaVuSans-114"/>
     <use x="1206.314453" xlink:href="#DejaVuSans-97"/>
     <use x="1267.59375" xlink:href="#DejaVuSans-99"/>
     <use x="1322.574219" xlink:href="#DejaVuSans-121"/>
     <use x="1381.753906" xlink:href="#DejaVuSans-32"/>
     <use x="1413.541016" xlink:href="#DejaVuSans-119"/>
     <use x="1495.328125" xlink:href="#DejaVuSans-105"/>
     <use x="1523.111328" xlink:href="#DejaVuSans-116"/>
     <use x="1562.320312" xlink:href="#DejaVuSans-104"/>
     <use x="1625.699219" xlink:href="#DejaVuSans-32"/>
     <use x="1657.486328" xlink:href="#DejaVuSans-50"/>
     <use x="1721.109375" xlink:href="#DejaVuSans-48"/>
     <use x="1784.732422" xlink:href="#DejaVuSans-48"/>
     <use x="1848.355469" xlink:href="#DejaVuSans-32"/>
     <use x="1880.142578" xlink:href="#DejaVuSans-85"/>
     <use x="1953.335938" xlink:href="#DejaVuSans-110"/>
     <use x="2016.714844" xlink:href="#DejaVuSans-105"/>
     <use x="2044.498047" xlink:href="#DejaVuSans-116"/>
     <use x="2083.707031" xlink:href="#DejaVuSans-115"/>
     <use x="2135.806641" xlink:href="#DejaVuSans-32"/>
     <use x="2167.59375" xlink:href="#DejaVuSans-64"/>
     <use x="2267.59375" xlink:href="#DejaVuSans-32"/>
     <use x="2299.380859" xlink:href="#DejaVuSans-48"/>
     <use x="2363.003906" xlink:href="#DejaVuSans-46"/>
     <use x="2394.791016" xlink:href="#DejaVuSans-50"/>
     <use x="2458.414062" xlink:href="#DejaVuSans-53"/>
    </g>
   </g>
   <g id="legend_1">
    <g id="patch_7">
     <path d="M 785.663125 493 
L 1021.4 493 
Q 1025.8 493 1025.8 488.6 
L 1025.8 361.6325 
Q 1025.8 357.2325 1021.4 357.2325 
L 785.663125 357.2325 
Q 781.263125 357.2325 781.263125 361.6325 
L 781.263125 488.6 
Q 781.263125 493 785.663125 493 
z
" style="fill:#ffffff;opacity:0.8;stroke:#cccccc;stroke-linejoin:miter;"/>
    </g>
    <g id="line2d_60">
     <path d="M 790.063125 375.049062 
L 834.063125 375.049062 
" style="fill:none;stroke:#1f1f1f;stroke-linecap:square;stroke-width:5;"/>
    </g>
    <g id="line2d_61"/>
    <g id="text_18">
     <!-- Ungated: 1.0 -->
     <g transform="translate(851.663125 382.749062)scale(0.22 -0.22)">
      <use xlink:href="#DejaVuSans-85"/>
      <use x="73.193359" xlink:href="#DejaVuSans-110"/>
      <use x="136.572266" xlink:href="#DejaVuSans-103"/>
      <use x="200.048828" xlink:href="#DejaVuSans-97"/>
      <use x="261.328125" xlink:href="#DejaVuSans-116"/>
      <use x="300.537109" xlink:href="#DejaVuSans-101"/>
      <use x="362.060547" xlink:href="#DejaVuSans-100"/>
      <use x="425.537109" xlink:href="#DejaVuSans-58"/>
      <use x="459.228516" xlink:href="#DejaVuSans-32"/>
      <use x="491.015625" xlink:href="#DejaVuSans-49"/>
      <use x="554.638672" xlink:href="#DejaVuSans-46"/>
      <use x="586.425781" xlink:href="#DejaVuSans-48"/>
     </g>
    </g>
    <g id="line2d_62">
     <path d="M 790.063125 407.340937 
L 834.063125 407.340937 
" style="fill:none;stroke:#9e9e9e;stroke-linecap:square;stroke-width:5;"/>
    </g>
    <g id="line2d_63"/>
    <g id="text_19">
     <!-- Minimum: 1.0 -->
     <g transform="translate(851.663125 415.040937)scale(0.22 -0.22)">
      <defs>
       <path d="M 9.8125 72.90625 
L 24.515625 72.90625 
L 43.109375 23.296875 
L 61.8125 72.90625 
L 76.515625 72.90625 
L 76.515625 0 
L 66.890625 0 
L 66.890625 64.015625 
L 48.09375 14.015625 
L 38.1875 14.015625 
L 19.390625 64.015625 
L 19.390625 0 
L 9.8125 0 
z
" id="DejaVuSans-77"/>
       <path d="M 52 44.1875 
Q 55.375 50.25 60.0625 53.125 
Q 64.75 56 71.09375 56 
Q 79.640625 56 84.28125 50.015625 
Q 88.921875 44.046875 88.921875 33.015625 
L 88.921875 0 
L 79.890625 0 
L 79.890625 32.71875 
Q 79.890625 40.578125 77.09375 44.375 
Q 74.3125 48.1875 68.609375 48.1875 
Q 61.625 48.1875 57.5625 43.546875 
Q 53.515625 38.921875 53.515625 30.90625 
L 53.515625 0 
L 44.484375 0 
L 44.484375 32.71875 
Q 44.484375 40.625 41.703125 44.40625 
Q 38.921875 48.1875 33.109375 48.1875 
Q 26.21875 48.1875 22.15625 43.53125 
Q 18.109375 38.875 18.109375 30.90625 
L 18.109375 0 
L 9.078125 0 
L 9.078125 54.6875 
L 18.109375 54.6875 
L 18.109375 46.1875 
Q 21.1875 51.21875 25.484375 53.609375 
Q 29.78125 56 35.6875 56 
Q 41.65625 56 45.828125 52.96875 
Q 50 49.953125 52 44.1875 
z
" id="DejaVuSans-109"/>
      </defs>
      <use xlink:href="#DejaVuSans-77"/>
      <use x="86.279297" xlink:href="#DejaVuSans-105"/>
      <use x="114.0625" xlink:href="#DejaVuSans-110"/>
      <use x="177.441406" xlink:href="#DejaVuSans-105"/>
      <use x="205.224609" xlink:href="#DejaVuSans-109"/>
      <use x="302.636719" xlink:href="#DejaVuSans-117"/>
      <use x="366.015625" xlink:href="#DejaVuSans-109"/>
      <use x="463.427734" xlink:href="#DejaVuSans-58"/>
      <use x="497.119141" xlink:href="#DejaVuSans-32"/>
      <use x="528.90625" xlink:href="#DejaVuSans-49"/>
      <use x="592.529297" xlink:href="#DejaVuSans-46"/>
      <use x="624.316406" xlink:href="#DejaVuSans-48"/>
     </g>
    </g>
    <g id="line2d_64">
     <path d="M 790.063125 439.632812 
L 834.063125 439.632812 
" style="fill:none;stroke:#2ecbff;stroke-linecap:square;stroke-width:5;"/>
    </g>
    <g id="line2d_65"/>
    <g id="text_20">
     <!-- Gated: 0.25 -->
     <g transform="translate(851.663125 447.332812)scale(0.22 -0.22)">
      <use xlink:href="#DejaVuSans-71"/>
      <use x="77.490234" xlink:href="#DejaVuSans-97"/>
      <use x="138.769531" xlink:href="#DejaVuSans-116"/>
      <use x="177.978516" xlink:href="#DejaVuSans-101"/>
      <use x="239.501953" xlink:href="#DejaVuSans-100"/>
      <use x="302.978516" xlink:href="#DejaVuSans-58"/>
      <use x="336.669922" xlink:href="#DejaVuSans-32"/>
      <use x="368.457031" xlink:href="#DejaVuSans-48"/>
      <use x="432.080078" xlink:href="#DejaVuSans-46"/>
      <use x="463.867188" xlink:href="#DejaVuSans-50"/>
      <use x="527.490234" xlink:href="#DejaVuSans-53"/>
     </g>
    </g>
    <g id="line2d_66">
     <path d="M 790.063125 471.924688 
L 834.063125 471.924688 
" style="fill:none;stroke:#9deaff;stroke-linecap:square;stroke-width:5;"/>
    </g>
    <g id="line2d_67"/>
    <g id="text_21">
     <!-- Minimum: 0.25 -->
     <g transform="translate(851.663125 479.624687)scale(0.22 -0.22)">
      <use xlink:href="#DejaVuSans-77"/>
      <use x="86.279297" xlink:href="#DejaVuSans-105"/>
      <use x="114.0625" xlink:href="#DejaVuSans-110"/>
      <use x="177.441406" xlink:href="#DejaVuSans-105"/>
      <use x="205.224609" xlink:href="#DejaVuSans-109"/>
      <use x="302.636719" xlink:href="#DejaVuSans-117"/>
      <use x="366.015625" xlink:href="#DejaVuSans-109"/>
      <use x="463.427734" xlink:href="#DejaVuSans-58"/>
      <use x="497.119141" xlink:href="#DejaVuSans-32"/>
      <use x="528.90625" xlink:href="#DejaVuSans-48"/>
      <use x="592.529297" xlink:href="#DejaVuSans-46"/>
      <use x="624.316406" xlink:href="#DejaVuSans-50"/>
      <use x="687.939453" xlink:href="#DejaVuSans-53"/>
     </g>
    </g>
   </g>
  </g>
 </g>
 <defs>
  <clipPath id="p6892578c9c">
   <rect height="434.88" width="892.8" x="144" y="69.12"/>
  </clipPath>
 </defs>
</svg>
