<?xml version="1.0" encoding="utf-8" standalone="no"?>
<!DOCTYPE svg PUBLIC "-//W3C//DTD SVG 1.1//EN"
  "http://www.w3.org/Graphics/SVG/1.1/DTD/svg11.dtd">
<!-- Created with matplotlib (https://matplotlib.org/) -->
<svg height="576pt" version="1.1" viewBox="0 0 1152 576" width="1152pt" xmlns="http://www.w3.org/2000/svg" xmlns:xlink="http://www.w3.org/1999/xlink">
 <metadata>
  <rdf:RDF xmlns:cc="http://creativecommons.org/ns#" xmlns:dc="http://purl.org/dc/elements/1.1/" xmlns:rdf="http://www.w3.org/1999/02/22-rdf-syntax-ns#">
   <cc:Work>
    <dc:type rdf:resource="http://purl.org/dc/dcmitype/StillImage"/>
    <dc:date>2021-09-12T15:19:37.220488</dc:date>
    <dc:format>image/svg+xml</dc:format>
    <dc:creator>
     <cc:Agent>
      <dc:title>Matplotlib v3.3.4, https://matplotlib.org/</dc:title>
     </cc:Agent>
    </dc:creator>
   </cc:Work>
  </rdf:RDF>
 </metadata>
 <defs>
  <style type="text/css">*{stroke-linecap:butt;stroke-linejoin:round;}</style>
 </defs>
 <g id="figure_1">
  <g id="patch_1">
   <path d="M 0 576 
L 1152 576 
L 1152 0 
L 0 0 
z
" style="fill:#ffffff;"/>
  </g>
  <g id="axes_1">
   <g id="patch_2">
    <path d="M 144 504 
L 1036.8 504 
L 1036.8 69.12 
L 144 69.12 
z
" style="fill:#ffffff;"/>
   </g>
   <g id="matplotlib.axis_1">
    <g id="xtick_1">
     <g id="line2d_1">
      <defs>
       <path d="M 0 0 
L 0 3.5 
" id="mbae7f6852b" style="stroke:#000000;stroke-width:0.8;"/>
      </defs>
      <g>
       <use style="stroke:#000000;stroke-width:0.8;" x="144" xlink:href="#mbae7f6852b" y="504"/>
      </g>
     </g>
     <g id="text_1">
      <!-- 84 -->
      <g transform="translate(128.73 529.23625)scale(0.24 -0.24)">
       <defs>
        <path d="M 31.78125 34.625 
Q 24.75 34.625 20.71875 30.859375 
Q 16.703125 27.09375 16.703125 20.515625 
Q 16.703125 13.921875 20.71875 10.15625 
Q 24.75 6.390625 31.78125 6.390625 
Q 38.8125 6.390625 42.859375 10.171875 
Q 46.921875 13.96875 46.921875 20.515625 
Q 46.921875 27.09375 42.890625 30.859375 
Q 38.875 34.625 31.78125 34.625 
z
M 21.921875 38.8125 
Q 15.578125 40.375 12.03125 44.71875 
Q 8.5 49.078125 8.5 55.328125 
Q 8.5 64.0625 14.71875 69.140625 
Q 20.953125 74.21875 31.78125 74.21875 
Q 42.671875 74.21875 48.875 69.140625 
Q 55.078125 64.0625 55.078125 55.328125 
Q 55.078125 49.078125 51.53125 44.71875 
Q 48 40.375 41.703125 38.8125 
Q 48.828125 37.15625 52.796875 32.3125 
Q 56.78125 27.484375 56.78125 20.515625 
Q 56.78125 9.90625 50.3125 4.234375 
Q 43.84375 -1.421875 31.78125 -1.421875 
Q 19.734375 -1.421875 13.25 4.234375 
Q 6.78125 9.90625 6.78125 20.515625 
Q 6.78125 27.484375 10.78125 32.3125 
Q 14.796875 37.15625 21.921875 38.8125 
z
M 18.3125 54.390625 
Q 18.3125 48.734375 21.84375 45.5625 
Q 25.390625 42.390625 31.78125 42.390625 
Q 38.140625 42.390625 41.71875 45.5625 
Q 45.3125 48.734375 45.3125 54.390625 
Q 45.3125 60.0625 41.71875 63.234375 
Q 38.140625 66.40625 31.78125 66.40625 
Q 25.390625 66.40625 21.84375 63.234375 
Q 18.3125 60.0625 18.3125 54.390625 
z
" id="DejaVuSans-56"/>
        <path d="M 37.796875 64.3125 
L 12.890625 25.390625 
L 37.796875 25.390625 
z
M 35.203125 72.90625 
L 47.609375 72.90625 
L 47.609375 25.390625 
L 58.015625 25.390625 
L 58.015625 17.1875 
L 47.609375 17.1875 
L 47.609375 0 
L 37.796875 0 
L 37.796875 17.1875 
L 4.890625 17.1875 
L 4.890625 26.703125 
z
" id="DejaVuSans-52"/>
       </defs>
       <use xlink:href="#DejaVuSans-56"/>
       <use x="63.623047" xlink:href="#DejaVuSans-52"/>
      </g>
     </g>
    </g>
    <g id="xtick_2">
     <g id="line2d_2">
      <g>
       <use style="stroke:#000000;stroke-width:0.8;" x="255.6" xlink:href="#mbae7f6852b" y="504"/>
      </g>
     </g>
     <g id="text_2">
      <!-- 86 -->
      <g transform="translate(240.33 529.23625)scale(0.24 -0.24)">
       <defs>
        <path d="M 33.015625 40.375 
Q 26.375 40.375 22.484375 35.828125 
Q 18.609375 31.296875 18.609375 23.390625 
Q 18.609375 15.53125 22.484375 10.953125 
Q 26.375 6.390625 33.015625 6.390625 
Q 39.65625 6.390625 43.53125 10.953125 
Q 47.40625 15.53125 47.40625 23.390625 
Q 47.40625 31.296875 43.53125 35.828125 
Q 39.65625 40.375 33.015625 40.375 
z
M 52.59375 71.296875 
L 52.59375 62.3125 
Q 48.875 64.0625 45.09375 64.984375 
Q 41.3125 65.921875 37.59375 65.921875 
Q 27.828125 65.921875 22.671875 59.328125 
Q 17.53125 52.734375 16.796875 39.40625 
Q 19.671875 43.65625 24.015625 45.921875 
Q 28.375 48.1875 33.59375 48.1875 
Q 44.578125 48.1875 50.953125 41.515625 
Q 57.328125 34.859375 57.328125 23.390625 
Q 57.328125 12.15625 50.6875 5.359375 
Q 44.046875 -1.421875 33.015625 -1.421875 
Q 20.359375 -1.421875 13.671875 8.265625 
Q 6.984375 17.96875 6.984375 36.375 
Q 6.984375 53.65625 15.1875 63.9375 
Q 23.390625 74.21875 37.203125 74.21875 
Q 40.921875 74.21875 44.703125 73.484375 
Q 48.484375 72.75 52.59375 71.296875 
z
" id="DejaVuSans-54"/>
       </defs>
       <use xlink:href="#DejaVuSans-56"/>
       <use x="63.623047" xlink:href="#DejaVuSans-54"/>
      </g>
     </g>
    </g>
    <g id="xtick_3">
     <g id="line2d_3">
      <g>
       <use style="stroke:#000000;stroke-width:0.8;" x="367.2" xlink:href="#mbae7f6852b" y="504"/>
      </g>
     </g>
     <g id="text_3">
      <!-- 88 -->
      <g transform="translate(351.93 529.23625)scale(0.24 -0.24)">
       <use xlink:href="#DejaVuSans-56"/>
       <use x="63.623047" xlink:href="#DejaVuSans-56"/>
      </g>
     </g>
    </g>
    <g id="xtick_4">
     <g id="line2d_4">
      <g>
       <use style="stroke:#000000;stroke-width:0.8;" x="478.8" xlink:href="#mbae7f6852b" y="504"/>
      </g>
     </g>
     <g id="text_4">
      <!-- 90 -->
      <g transform="translate(463.53 529.23625)scale(0.24 -0.24)">
       <defs>
        <path d="M 10.984375 1.515625 
L 10.984375 10.5 
Q 14.703125 8.734375 18.5 7.8125 
Q 22.3125 6.890625 25.984375 6.890625 
Q 35.75 6.890625 40.890625 13.453125 
Q 46.046875 20.015625 46.78125 33.40625 
Q 43.953125 29.203125 39.59375 26.953125 
Q 35.25 24.703125 29.984375 24.703125 
Q 19.046875 24.703125 12.671875 31.3125 
Q 6.296875 37.9375 6.296875 49.421875 
Q 6.296875 60.640625 12.9375 67.421875 
Q 19.578125 74.21875 30.609375 74.21875 
Q 43.265625 74.21875 49.921875 64.515625 
Q 56.59375 54.828125 56.59375 36.375 
Q 56.59375 19.140625 48.40625 8.859375 
Q 40.234375 -1.421875 26.421875 -1.421875 
Q 22.703125 -1.421875 18.890625 -0.6875 
Q 15.09375 0.046875 10.984375 1.515625 
z
M 30.609375 32.421875 
Q 37.25 32.421875 41.125 36.953125 
Q 45.015625 41.5 45.015625 49.421875 
Q 45.015625 57.28125 41.125 61.84375 
Q 37.25 66.40625 30.609375 66.40625 
Q 23.96875 66.40625 20.09375 61.84375 
Q 16.21875 57.28125 16.21875 49.421875 
Q 16.21875 41.5 20.09375 36.953125 
Q 23.96875 32.421875 30.609375 32.421875 
z
" id="DejaVuSans-57"/>
        <path d="M 31.78125 66.40625 
Q 24.171875 66.40625 20.328125 58.90625 
Q 16.5 51.421875 16.5 36.375 
Q 16.5 21.390625 20.328125 13.890625 
Q 24.171875 6.390625 31.78125 6.390625 
Q 39.453125 6.390625 43.28125 13.890625 
Q 47.125 21.390625 47.125 36.375 
Q 47.125 51.421875 43.28125 58.90625 
Q 39.453125 66.40625 31.78125 66.40625 
z
M 31.78125 74.21875 
Q 44.046875 74.21875 50.515625 64.515625 
Q 56.984375 54.828125 56.984375 36.375 
Q 56.984375 17.96875 50.515625 8.265625 
Q 44.046875 -1.421875 31.78125 -1.421875 
Q 19.53125 -1.421875 13.0625 8.265625 
Q 6.59375 17.96875 6.59375 36.375 
Q 6.59375 54.828125 13.0625 64.515625 
Q 19.53125 74.21875 31.78125 74.21875 
z
" id="DejaVuSans-48"/>
       </defs>
       <use xlink:href="#DejaVuSans-57"/>
       <use x="63.623047" xlink:href="#DejaVuSans-48"/>
      </g>
     </g>
    </g>
    <g id="xtick_5">
     <g id="line2d_5">
      <g>
       <use style="stroke:#000000;stroke-width:0.8;" x="590.4" xlink:href="#mbae7f6852b" y="504"/>
      </g>
     </g>
     <g id="text_5">
      <!-- 92 -->
      <g transform="translate(575.13 529.23625)scale(0.24 -0.24)">
       <defs>
        <path d="M 19.1875 8.296875 
L 53.609375 8.296875 
L 53.609375 0 
L 7.328125 0 
L 7.328125 8.296875 
Q 12.9375 14.109375 22.625 23.890625 
Q 32.328125 33.6875 34.8125 36.53125 
Q 39.546875 41.84375 41.421875 45.53125 
Q 43.3125 49.21875 43.3125 52.78125 
Q 43.3125 58.59375 39.234375 62.25 
Q 35.15625 65.921875 28.609375 65.921875 
Q 23.96875 65.921875 18.8125 64.3125 
Q 13.671875 62.703125 7.8125 59.421875 
L 7.8125 69.390625 
Q 13.765625 71.78125 18.9375 73 
Q 24.125 74.21875 28.421875 74.21875 
Q 39.75 74.21875 46.484375 68.546875 
Q 53.21875 62.890625 53.21875 53.421875 
Q 53.21875 48.921875 51.53125 44.890625 
Q 49.859375 40.875 45.40625 35.40625 
Q 44.1875 33.984375 37.640625 27.21875 
Q 31.109375 20.453125 19.1875 8.296875 
z
" id="DejaVuSans-50"/>
       </defs>
       <use xlink:href="#DejaVuSans-57"/>
       <use x="63.623047" xlink:href="#DejaVuSans-50"/>
      </g>
     </g>
    </g>
    <g id="xtick_6">
     <g id="line2d_6">
      <g>
       <use style="stroke:#000000;stroke-width:0.8;" x="702" xlink:href="#mbae7f6852b" y="504"/>
      </g>
     </g>
     <g id="text_6">
      <!-- 94 -->
      <g transform="translate(686.73 529.23625)scale(0.24 -0.24)">
       <use xlink:href="#DejaVuSans-57"/>
       <use x="63.623047" xlink:href="#DejaVuSans-52"/>
      </g>
     </g>
    </g>
    <g id="xtick_7">
     <g id="line2d_7">
      <g>
       <use style="stroke:#000000;stroke-width:0.8;" x="813.6" xlink:href="#mbae7f6852b" y="504"/>
      </g>
     </g>
     <g id="text_7">
      <!-- 96 -->
      <g transform="translate(798.33 529.23625)scale(0.24 -0.24)">
       <use xlink:href="#DejaVuSans-57"/>
       <use x="63.623047" xlink:href="#DejaVuSans-54"/>
      </g>
     </g>
    </g>
    <g id="xtick_8">
     <g id="line2d_8">
      <g>
       <use style="stroke:#000000;stroke-width:0.8;" x="925.2" xlink:href="#mbae7f6852b" y="504"/>
      </g>
     </g>
     <g id="text_8">
      <!-- 98 -->
      <g transform="translate(909.93 529.23625)scale(0.24 -0.24)">
       <use xlink:href="#DejaVuSans-57"/>
       <use x="63.623047" xlink:href="#DejaVuSans-56"/>
      </g>
     </g>
    </g>
    <g id="xtick_9">
     <g id="line2d_9">
      <g>
       <use style="stroke:#000000;stroke-width:0.8;" x="1036.8" xlink:href="#mbae7f6852b" y="504"/>
      </g>
     </g>
     <g id="text_9">
      <!-- 100 -->
      <g transform="translate(1013.895 529.23625)scale(0.24 -0.24)">
       <defs>
        <path d="M 12.40625 8.296875 
L 28.515625 8.296875 
L 28.515625 63.921875 
L 10.984375 60.40625 
L 10.984375 69.390625 
L 28.421875 72.90625 
L 38.28125 72.90625 
L 38.28125 8.296875 
L 54.390625 8.296875 
L 54.390625 0 
L 12.40625 0 
z
" id="DejaVuSans-49"/>
       </defs>
       <use xlink:href="#DejaVuSans-49"/>
       <use x="63.623047" xlink:href="#DejaVuSans-48"/>
       <use x="127.246094" xlink:href="#DejaVuSans-48"/>
      </g>
     </g>
    </g>
    <g id="text_10">
     <!-- Accuracy /% -->
     <g transform="translate(504.013437 559.503125)scale(0.28 -0.28)">
      <defs>
       <path d="M 34.1875 63.1875 
L 20.796875 26.90625 
L 47.609375 26.90625 
z
M 28.609375 72.90625 
L 39.796875 72.90625 
L 67.578125 0 
L 57.328125 0 
L 50.6875 18.703125 
L 17.828125 18.703125 
L 11.1875 0 
L 0.78125 0 
z
" id="DejaVuSans-65"/>
       <path d="M 48.78125 52.59375 
L 48.78125 44.1875 
Q 44.96875 46.296875 41.140625 47.34375 
Q 37.3125 48.390625 33.40625 48.390625 
Q 24.65625 48.390625 19.8125 42.84375 
Q 14.984375 37.3125 14.984375 27.296875 
Q 14.984375 17.28125 19.8125 11.734375 
Q 24.65625 6.203125 33.40625 6.203125 
Q 37.3125 6.203125 41.140625 7.25 
Q 44.96875 8.296875 48.78125 10.40625 
L 48.78125 2.09375 
Q 45.015625 0.34375 40.984375 -0.53125 
Q 36.96875 -1.421875 32.421875 -1.421875 
Q 20.0625 -1.421875 12.78125 6.34375 
Q 5.515625 14.109375 5.515625 27.296875 
Q 5.515625 40.671875 12.859375 48.328125 
Q 20.21875 56 33.015625 56 
Q 37.15625 56 41.109375 55.140625 
Q 45.0625 54.296875 48.78125 52.59375 
z
" id="DejaVuSans-99"/>
       <path d="M 8.5 21.578125 
L 8.5 54.6875 
L 17.484375 54.6875 
L 17.484375 21.921875 
Q 17.484375 14.15625 20.5 10.265625 
Q 23.53125 6.390625 29.59375 6.390625 
Q 36.859375 6.390625 41.078125 11.03125 
Q 45.3125 15.671875 45.3125 23.6875 
L 45.3125 54.6875 
L 54.296875 54.6875 
L 54.296875 0 
L 45.3125 0 
L 45.3125 8.40625 
Q 42.046875 3.421875 37.71875 1 
Q 33.40625 -1.421875 27.6875 -1.421875 
Q 18.265625 -1.421875 13.375 4.4375 
Q 8.5 10.296875 8.5 21.578125 
z
M 31.109375 56 
z
" id="DejaVuSans-117"/>
       <path d="M 41.109375 46.296875 
Q 39.59375 47.171875 37.8125 47.578125 
Q 36.03125 48 33.890625 48 
Q 26.265625 48 22.1875 43.046875 
Q 18.109375 38.09375 18.109375 28.8125 
L 18.109375 0 
L 9.078125 0 
L 9.078125 54.6875 
L 18.109375 54.6875 
L 18.109375 46.1875 
Q 20.953125 51.171875 25.484375 53.578125 
Q 30.03125 56 36.53125 56 
Q 37.453125 56 38.578125 55.875 
Q 39.703125 55.765625 41.0625 55.515625 
z
" id="DejaVuSans-114"/>
       <path d="M 34.28125 27.484375 
Q 23.390625 27.484375 19.1875 25 
Q 14.984375 22.515625 14.984375 16.5 
Q 14.984375 11.71875 18.140625 8.90625 
Q 21.296875 6.109375 26.703125 6.109375 
Q 34.1875 6.109375 38.703125 11.40625 
Q 43.21875 16.703125 43.21875 25.484375 
L 43.21875 27.484375 
z
M 52.203125 31.203125 
L 52.203125 0 
L 43.21875 0 
L 43.21875 8.296875 
Q 40.140625 3.328125 35.546875 0.953125 
Q 30.953125 -1.421875 24.3125 -1.421875 
Q 15.921875 -1.421875 10.953125 3.296875 
Q 6 8.015625 6 15.921875 
Q 6 25.140625 12.171875 29.828125 
Q 18.359375 34.515625 30.609375 34.515625 
L 43.21875 34.515625 
L 43.21875 35.40625 
Q 43.21875 41.609375 39.140625 45 
Q 35.0625 48.390625 27.6875 48.390625 
Q 23 48.390625 18.546875 47.265625 
Q 14.109375 46.140625 10.015625 43.890625 
L 10.015625 52.203125 
Q 14.9375 54.109375 19.578125 55.046875 
Q 24.21875 56 28.609375 56 
Q 40.484375 56 46.34375 49.84375 
Q 52.203125 43.703125 52.203125 31.203125 
z
" id="DejaVuSans-97"/>
       <path d="M 32.171875 -5.078125 
Q 28.375 -14.84375 24.75 -17.8125 
Q 21.140625 -20.796875 15.09375 -20.796875 
L 7.90625 -20.796875 
L 7.90625 -13.28125 
L 13.1875 -13.28125 
Q 16.890625 -13.28125 18.9375 -11.515625 
Q 21 -9.765625 23.484375 -3.21875 
L 25.09375 0.875 
L 2.984375 54.6875 
L 12.5 54.6875 
L 29.59375 11.921875 
L 46.6875 54.6875 
L 56.203125 54.6875 
z
" id="DejaVuSans-121"/>
       <path id="DejaVuSans-32"/>
       <path d="M 25.390625 72.90625 
L 33.6875 72.90625 
L 8.296875 -9.28125 
L 0 -9.28125 
z
" id="DejaVuSans-47"/>
       <path d="M 72.703125 32.078125 
Q 68.453125 32.078125 66.03125 28.46875 
Q 63.625 24.859375 63.625 18.40625 
Q 63.625 12.0625 66.03125 8.421875 
Q 68.453125 4.78125 72.703125 4.78125 
Q 76.859375 4.78125 79.265625 8.421875 
Q 81.6875 12.0625 81.6875 18.40625 
Q 81.6875 24.8125 79.265625 28.4375 
Q 76.859375 32.078125 72.703125 32.078125 
z
M 72.703125 38.28125 
Q 80.421875 38.28125 84.953125 32.90625 
Q 89.5 27.546875 89.5 18.40625 
Q 89.5 9.28125 84.9375 3.921875 
Q 80.375 -1.421875 72.703125 -1.421875 
Q 64.890625 -1.421875 60.34375 3.921875 
Q 55.8125 9.28125 55.8125 18.40625 
Q 55.8125 27.59375 60.375 32.9375 
Q 64.9375 38.28125 72.703125 38.28125 
z
M 22.3125 68.015625 
Q 18.109375 68.015625 15.6875 64.375 
Q 13.28125 60.75 13.28125 54.390625 
Q 13.28125 47.953125 15.671875 44.328125 
Q 18.0625 40.71875 22.3125 40.71875 
Q 26.5625 40.71875 28.96875 44.328125 
Q 31.390625 47.953125 31.390625 54.390625 
Q 31.390625 60.6875 28.953125 64.34375 
Q 26.515625 68.015625 22.3125 68.015625 
z
M 66.40625 74.21875 
L 74.21875 74.21875 
L 28.609375 -1.421875 
L 20.796875 -1.421875 
z
M 22.3125 74.21875 
Q 30.03125 74.21875 34.609375 68.875 
Q 39.203125 63.53125 39.203125 54.390625 
Q 39.203125 45.171875 34.640625 39.84375 
Q 30.078125 34.515625 22.3125 34.515625 
Q 14.546875 34.515625 10.03125 39.859375 
Q 5.515625 45.21875 5.515625 54.390625 
Q 5.515625 63.484375 10.046875 68.84375 
Q 14.59375 74.21875 22.3125 74.21875 
z
" id="DejaVuSans-37"/>
      </defs>
      <use xlink:href="#DejaVuSans-65"/>
      <use x="66.658203" xlink:href="#DejaVuSans-99"/>
      <use x="121.638672" xlink:href="#DejaVuSans-99"/>
      <use x="176.619141" xlink:href="#DejaVuSans-117"/>
      <use x="239.998047" xlink:href="#DejaVuSans-114"/>
      <use x="281.111328" xlink:href="#DejaVuSans-97"/>
      <use x="342.390625" xlink:href="#DejaVuSans-99"/>
      <use x="397.371094" xlink:href="#DejaVuSans-121"/>
      <use x="456.550781" xlink:href="#DejaVuSans-32"/>
      <use x="488.337891" xlink:href="#DejaVuSans-47"/>
      <use x="522.029297" xlink:href="#DejaVuSans-37"/>
     </g>
    </g>
   </g>
   <g id="matplotlib.axis_2">
    <g id="ytick_1">
     <g id="line2d_10">
      <defs>
       <path d="M 0 0 
L -3.5 0 
" id="mabaf2bccb2" style="stroke:#000000;stroke-width:0.8;"/>
      </defs>
      <g>
       <use style="stroke:#000000;stroke-width:0.8;" x="144" xlink:href="#mabaf2bccb2" y="444.362283"/>
      </g>
     </g>
     <g id="text_11">
      <!-- $\mathdefault{10^{1}}$ -->
      <g transform="translate(94.76 453.480408)scale(0.24 -0.24)">
       <use transform="translate(0 0.684375)" xlink:href="#DejaVuSans-49"/>
       <use transform="translate(63.623047 0.684375)" xlink:href="#DejaVuSans-48"/>
       <use transform="translate(128.203125 38.965625)scale(0.7)" xlink:href="#DejaVuSans-49"/>
      </g>
     </g>
    </g>
    <g id="ytick_2">
     <g id="line2d_11">
      <g>
       <use style="stroke:#000000;stroke-width:0.8;" x="144" xlink:href="#mabaf2bccb2" y="359.04"/>
      </g>
     </g>
     <g id="text_12">
      <!-- $\mathdefault{10^{2}}$ -->
      <g transform="translate(94.76 368.158125)scale(0.24 -0.24)">
       <use transform="translate(0 0.765625)" xlink:href="#DejaVuSans-49"/>
       <use transform="translate(63.623047 0.765625)" xlink:href="#DejaVuSans-48"/>
       <use transform="translate(128.203125 39.046875)scale(0.7)" xlink:href="#DejaVuSans-50"/>
      </g>
     </g>
    </g>
    <g id="ytick_3">
     <g id="line2d_12">
      <g>
       <use style="stroke:#000000;stroke-width:0.8;" x="144" xlink:href="#mabaf2bccb2" y="273.717717"/>
      </g>
     </g>
     <g id="text_13">
      <!-- $\mathdefault{10^{3}}$ -->
      <g transform="translate(94.76 282.835842)scale(0.24 -0.24)">
       <defs>
        <path d="M 40.578125 39.3125 
Q 47.65625 37.796875 51.625 33 
Q 55.609375 28.21875 55.609375 21.1875 
Q 55.609375 10.40625 48.1875 4.484375 
Q 40.765625 -1.421875 27.09375 -1.421875 
Q 22.515625 -1.421875 17.65625 -0.515625 
Q 12.796875 0.390625 7.625 2.203125 
L 7.625 11.71875 
Q 11.71875 9.328125 16.59375 8.109375 
Q 21.484375 6.890625 26.8125 6.890625 
Q 36.078125 6.890625 40.9375 10.546875 
Q 45.796875 14.203125 45.796875 21.1875 
Q 45.796875 27.640625 41.28125 31.265625 
Q 36.765625 34.90625 28.71875 34.90625 
L 20.21875 34.90625 
L 20.21875 43.015625 
L 29.109375 43.015625 
Q 36.375 43.015625 40.234375 45.921875 
Q 44.09375 48.828125 44.09375 54.296875 
Q 44.09375 59.90625 40.109375 62.90625 
Q 36.140625 65.921875 28.71875 65.921875 
Q 24.65625 65.921875 20.015625 65.03125 
Q 15.375 64.15625 9.8125 62.3125 
L 9.8125 71.09375 
Q 15.4375 72.65625 20.34375 73.4375 
Q 25.25 74.21875 29.59375 74.21875 
Q 40.828125 74.21875 47.359375 69.109375 
Q 53.90625 64.015625 53.90625 55.328125 
Q 53.90625 49.265625 50.4375 45.09375 
Q 46.96875 40.921875 40.578125 39.3125 
z
" id="DejaVuSans-51"/>
       </defs>
       <use transform="translate(0 0.765625)" xlink:href="#DejaVuSans-49"/>
       <use transform="translate(63.623047 0.765625)" xlink:href="#DejaVuSans-48"/>
       <use transform="translate(128.203125 39.046875)scale(0.7)" xlink:href="#DejaVuSans-51"/>
      </g>
     </g>
    </g>
    <g id="ytick_4">
     <g id="line2d_13">
      <g>
       <use style="stroke:#000000;stroke-width:0.8;" x="144" xlink:href="#mabaf2bccb2" y="188.395433"/>
      </g>
     </g>
     <g id="text_14">
      <!-- $\mathdefault{10^{4}}$ -->
      <g transform="translate(94.76 197.513558)scale(0.24 -0.24)">
       <use transform="translate(0 0.684375)" xlink:href="#DejaVuSans-49"/>
       <use transform="translate(63.623047 0.684375)" xlink:href="#DejaVuSans-48"/>
       <use transform="translate(128.203125 38.965625)scale(0.7)" xlink:href="#DejaVuSans-52"/>
      </g>
     </g>
    </g>
    <g id="ytick_5">
     <g id="line2d_14">
      <g>
       <use style="stroke:#000000;stroke-width:0.8;" x="144" xlink:href="#mabaf2bccb2" y="103.07315"/>
      </g>
     </g>
     <g id="text_15">
      <!-- $\mathdefault{10^{5}}$ -->
      <g transform="translate(94.76 112.191275)scale(0.24 -0.24)">
       <defs>
        <path d="M 10.796875 72.90625 
L 49.515625 72.90625 
L 49.515625 64.59375 
L 19.828125 64.59375 
L 19.828125 46.734375 
Q 21.96875 47.46875 24.109375 47.828125 
Q 26.265625 48.1875 28.421875 48.1875 
Q 40.625 48.1875 47.75 41.5 
Q 54.890625 34.8125 54.890625 23.390625 
Q 54.890625 11.625 47.5625 5.09375 
Q 40.234375 -1.421875 26.90625 -1.421875 
Q 22.3125 -1.421875 17.546875 -0.640625 
Q 12.796875 0.140625 7.71875 1.703125 
L 7.71875 11.625 
Q 12.109375 9.234375 16.796875 8.0625 
Q 21.484375 6.890625 26.703125 6.890625 
Q 35.15625 6.890625 40.078125 11.328125 
Q 45.015625 15.765625 45.015625 23.390625 
Q 45.015625 31 40.078125 35.4375 
Q 35.15625 39.890625 26.703125 39.890625 
Q 22.75 39.890625 18.8125 39.015625 
Q 14.890625 38.140625 10.796875 36.28125 
z
" id="DejaVuSans-53"/>
       </defs>
       <use transform="translate(0 0.684375)" xlink:href="#DejaVuSans-49"/>
       <use transform="translate(63.623047 0.684375)" xlink:href="#DejaVuSans-48"/>
       <use transform="translate(128.203125 38.965625)scale(0.7)" xlink:href="#DejaVuSans-53"/>
      </g>
     </g>
    </g>
    <g id="ytick_6">
     <g id="line2d_15">
      <defs>
       <path d="M 0 0 
L -2 0 
" id="m6d217b71bb" style="stroke:#000000;stroke-width:0.6;"/>
      </defs>
      <g>
       <use style="stroke:#000000;stroke-width:0.6;" x="144" xlink:href="#m6d217b71bb" y="504"/>
      </g>
     </g>
    </g>
    <g id="ytick_7">
     <g id="line2d_16">
      <g>
       <use style="stroke:#000000;stroke-width:0.6;" x="144" xlink:href="#m6d217b71bb" y="488.975492"/>
      </g>
     </g>
    </g>
    <g id="ytick_8">
     <g id="line2d_17">
      <g>
       <use style="stroke:#000000;stroke-width:0.6;" x="144" xlink:href="#m6d217b71bb" y="478.315433"/>
      </g>
     </g>
    </g>
    <g id="ytick_9">
     <g id="line2d_18">
      <g>
       <use style="stroke:#000000;stroke-width:0.6;" x="144" xlink:href="#m6d217b71bb" y="470.04685"/>
      </g>
     </g>
    </g>
    <g id="ytick_10">
     <g id="line2d_19">
      <g>
       <use style="stroke:#000000;stroke-width:0.6;" x="144" xlink:href="#m6d217b71bb" y="463.290925"/>
      </g>
     </g>
    </g>
    <g id="ytick_11">
     <g id="line2d_20">
      <g>
       <use style="stroke:#000000;stroke-width:0.6;" x="144" xlink:href="#m6d217b71bb" y="457.578872"/>
      </g>
     </g>
    </g>
    <g id="ytick_12">
     <g id="line2d_21">
      <g>
       <use style="stroke:#000000;stroke-width:0.6;" x="144" xlink:href="#m6d217b71bb" y="452.630867"/>
      </g>
     </g>
    </g>
    <g id="ytick_13">
     <g id="line2d_22">
      <g>
       <use style="stroke:#000000;stroke-width:0.6;" x="144" xlink:href="#m6d217b71bb" y="448.266417"/>
      </g>
     </g>
    </g>
    <g id="ytick_14">
     <g id="line2d_23">
      <g>
       <use style="stroke:#000000;stroke-width:0.6;" x="144" xlink:href="#m6d217b71bb" y="418.677717"/>
      </g>
     </g>
    </g>
    <g id="ytick_15">
     <g id="line2d_24">
      <g>
       <use style="stroke:#000000;stroke-width:0.6;" x="144" xlink:href="#m6d217b71bb" y="403.653208"/>
      </g>
     </g>
    </g>
    <g id="ytick_16">
     <g id="line2d_25">
      <g>
       <use style="stroke:#000000;stroke-width:0.6;" x="144" xlink:href="#m6d217b71bb" y="392.99315"/>
      </g>
     </g>
    </g>
    <g id="ytick_17">
     <g id="line2d_26">
      <g>
       <use style="stroke:#000000;stroke-width:0.6;" x="144" xlink:href="#m6d217b71bb" y="384.724567"/>
      </g>
     </g>
    </g>
    <g id="ytick_18">
     <g id="line2d_27">
      <g>
       <use style="stroke:#000000;stroke-width:0.6;" x="144" xlink:href="#m6d217b71bb" y="377.968642"/>
      </g>
     </g>
    </g>
    <g id="ytick_19">
     <g id="line2d_28">
      <g>
       <use style="stroke:#000000;stroke-width:0.6;" x="144" xlink:href="#m6d217b71bb" y="372.256589"/>
      </g>
     </g>
    </g>
    <g id="ytick_20">
     <g id="line2d_29">
      <g>
       <use style="stroke:#000000;stroke-width:0.6;" x="144" xlink:href="#m6d217b71bb" y="367.308584"/>
      </g>
     </g>
    </g>
    <g id="ytick_21">
     <g id="line2d_30">
      <g>
       <use style="stroke:#000000;stroke-width:0.6;" x="144" xlink:href="#m6d217b71bb" y="362.944134"/>
      </g>
     </g>
    </g>
    <g id="ytick_22">
     <g id="line2d_31">
      <g>
       <use style="stroke:#000000;stroke-width:0.6;" x="144" xlink:href="#m6d217b71bb" y="333.355433"/>
      </g>
     </g>
    </g>
    <g id="ytick_23">
     <g id="line2d_32">
      <g>
       <use style="stroke:#000000;stroke-width:0.6;" x="144" xlink:href="#m6d217b71bb" y="318.330925"/>
      </g>
     </g>
    </g>
    <g id="ytick_24">
     <g id="line2d_33">
      <g>
       <use style="stroke:#000000;stroke-width:0.6;" x="144" xlink:href="#m6d217b71bb" y="307.670867"/>
      </g>
     </g>
    </g>
    <g id="ytick_25">
     <g id="line2d_34">
      <g>
       <use style="stroke:#000000;stroke-width:0.6;" x="144" xlink:href="#m6d217b71bb" y="299.402283"/>
      </g>
     </g>
    </g>
    <g id="ytick_26">
     <g id="line2d_35">
      <g>
       <use style="stroke:#000000;stroke-width:0.6;" x="144" xlink:href="#m6d217b71bb" y="292.646359"/>
      </g>
     </g>
    </g>
    <g id="ytick_27">
     <g id="line2d_36">
      <g>
       <use style="stroke:#000000;stroke-width:0.6;" x="144" xlink:href="#m6d217b71bb" y="286.934306"/>
      </g>
     </g>
    </g>
    <g id="ytick_28">
     <g id="line2d_37">
      <g>
       <use style="stroke:#000000;stroke-width:0.6;" x="144" xlink:href="#m6d217b71bb" y="281.9863"/>
      </g>
     </g>
    </g>
    <g id="ytick_29">
     <g id="line2d_38">
      <g>
       <use style="stroke:#000000;stroke-width:0.6;" x="144" xlink:href="#m6d217b71bb" y="277.62185"/>
      </g>
     </g>
    </g>
    <g id="ytick_30">
     <g id="line2d_39">
      <g>
       <use style="stroke:#000000;stroke-width:0.6;" x="144" xlink:href="#m6d217b71bb" y="248.03315"/>
      </g>
     </g>
    </g>
    <g id="ytick_31">
     <g id="line2d_40">
      <g>
       <use style="stroke:#000000;stroke-width:0.6;" x="144" xlink:href="#m6d217b71bb" y="233.008642"/>
      </g>
     </g>
    </g>
    <g id="ytick_32">
     <g id="line2d_41">
      <g>
       <use style="stroke:#000000;stroke-width:0.6;" x="144" xlink:href="#m6d217b71bb" y="222.348584"/>
      </g>
     </g>
    </g>
    <g id="ytick_33">
     <g id="line2d_42">
      <g>
       <use style="stroke:#000000;stroke-width:0.6;" x="144" xlink:href="#m6d217b71bb" y="214.08"/>
      </g>
     </g>
    </g>
    <g id="ytick_34">
     <g id="line2d_43">
      <g>
       <use style="stroke:#000000;stroke-width:0.6;" x="144" xlink:href="#m6d217b71bb" y="207.324075"/>
      </g>
     </g>
    </g>
    <g id="ytick_35">
     <g id="line2d_44">
      <g>
       <use style="stroke:#000000;stroke-width:0.6;" x="144" xlink:href="#m6d217b71bb" y="201.612022"/>
      </g>
     </g>
    </g>
    <g id="ytick_36">
     <g id="line2d_45">
      <g>
       <use style="stroke:#000000;stroke-width:0.6;" x="144" xlink:href="#m6d217b71bb" y="196.664017"/>
      </g>
     </g>
    </g>
    <g id="ytick_37">
     <g id="line2d_46">
      <g>
       <use style="stroke:#000000;stroke-width:0.6;" x="144" xlink:href="#m6d217b71bb" y="192.299567"/>
      </g>
     </g>
    </g>
    <g id="ytick_38">
     <g id="line2d_47">
      <g>
       <use style="stroke:#000000;stroke-width:0.6;" x="144" xlink:href="#m6d217b71bb" y="162.710867"/>
      </g>
     </g>
    </g>
    <g id="ytick_39">
     <g id="line2d_48">
      <g>
       <use style="stroke:#000000;stroke-width:0.6;" x="144" xlink:href="#m6d217b71bb" y="147.686359"/>
      </g>
     </g>
    </g>
    <g id="ytick_40">
     <g id="line2d_49">
      <g>
       <use style="stroke:#000000;stroke-width:0.6;" x="144" xlink:href="#m6d217b71bb" y="137.0263"/>
      </g>
     </g>
    </g>
    <g id="ytick_41">
     <g id="line2d_50">
      <g>
       <use style="stroke:#000000;stroke-width:0.6;" x="144" xlink:href="#m6d217b71bb" y="128.757717"/>
      </g>
     </g>
    </g>
    <g id="ytick_42">
     <g id="line2d_51">
      <g>
       <use style="stroke:#000000;stroke-width:0.6;" x="144" xlink:href="#m6d217b71bb" y="122.001792"/>
      </g>
     </g>
    </g>
    <g id="ytick_43">
     <g id="line2d_52">
      <g>
       <use style="stroke:#000000;stroke-width:0.6;" x="144" xlink:href="#m6d217b71bb" y="116.289739"/>
      </g>
     </g>
    </g>
    <g id="ytick_44">
     <g id="line2d_53">
      <g>
       <use style="stroke:#000000;stroke-width:0.6;" x="144" xlink:href="#m6d217b71bb" y="111.341734"/>
      </g>
     </g>
    </g>
    <g id="ytick_45">
     <g id="line2d_54">
      <g>
       <use style="stroke:#000000;stroke-width:0.6;" x="144" xlink:href="#m6d217b71bb" y="106.977284"/>
      </g>
     </g>
    </g>
    <g id="ytick_46">
     <g id="line2d_55">
      <g>
       <use style="stroke:#000000;stroke-width:0.6;" x="144" xlink:href="#m6d217b71bb" y="77.388584"/>
      </g>
     </g>
    </g>
    <g id="text_16">
     <!-- Energy /A.U. -->
     <g transform="translate(84.936875 373.22)rotate(-90)scale(0.28 -0.28)">
      <defs>
       <path d="M 9.8125 72.90625 
L 55.90625 72.90625 
L 55.90625 64.59375 
L 19.671875 64.59375 
L 19.671875 43.015625 
L 54.390625 43.015625 
L 54.390625 34.71875 
L 19.671875 34.71875 
L 19.671875 8.296875 
L 56.78125 8.296875 
L 56.78125 0 
L 9.8125 0 
z
" id="DejaVuSans-69"/>
       <path d="M 54.890625 33.015625 
L 54.890625 0 
L 45.90625 0 
L 45.90625 32.71875 
Q 45.90625 40.484375 42.875 44.328125 
Q 39.84375 48.1875 33.796875 48.1875 
Q 26.515625 48.1875 22.3125 43.546875 
Q 18.109375 38.921875 18.109375 30.90625 
L 18.109375 0 
L 9.078125 0 
L 9.078125 54.6875 
L 18.109375 54.6875 
L 18.109375 46.1875 
Q 21.34375 51.125 25.703125 53.5625 
Q 30.078125 56 35.796875 56 
Q 45.21875 56 50.046875 50.171875 
Q 54.890625 44.34375 54.890625 33.015625 
z
" id="DejaVuSans-110"/>
       <path d="M 56.203125 29.59375 
L 56.203125 25.203125 
L 14.890625 25.203125 
Q 15.484375 15.921875 20.484375 11.0625 
Q 25.484375 6.203125 34.421875 6.203125 
Q 39.59375 6.203125 44.453125 7.46875 
Q 49.3125 8.734375 54.109375 11.28125 
L 54.109375 2.78125 
Q 49.265625 0.734375 44.1875 -0.34375 
Q 39.109375 -1.421875 33.890625 -1.421875 
Q 20.796875 -1.421875 13.15625 6.1875 
Q 5.515625 13.8125 5.515625 26.8125 
Q 5.515625 40.234375 12.765625 48.109375 
Q 20.015625 56 32.328125 56 
Q 43.359375 56 49.78125 48.890625 
Q 56.203125 41.796875 56.203125 29.59375 
z
M 47.21875 32.234375 
Q 47.125 39.59375 43.09375 43.984375 
Q 39.0625 48.390625 32.421875 48.390625 
Q 24.90625 48.390625 20.390625 44.140625 
Q 15.875 39.890625 15.1875 32.171875 
z
" id="DejaVuSans-101"/>
       <path d="M 45.40625 27.984375 
Q 45.40625 37.75 41.375 43.109375 
Q 37.359375 48.484375 30.078125 48.484375 
Q 22.859375 48.484375 18.828125 43.109375 
Q 14.796875 37.75 14.796875 27.984375 
Q 14.796875 18.265625 18.828125 12.890625 
Q 22.859375 7.515625 30.078125 7.515625 
Q 37.359375 7.515625 41.375 12.890625 
Q 45.40625 18.265625 45.40625 27.984375 
z
M 54.390625 6.78125 
Q 54.390625 -7.171875 48.1875 -13.984375 
Q 42 -20.796875 29.203125 -20.796875 
Q 24.46875 -20.796875 20.265625 -20.09375 
Q 16.0625 -19.390625 12.109375 -17.921875 
L 12.109375 -9.1875 
Q 16.0625 -11.328125 19.921875 -12.34375 
Q 23.78125 -13.375 27.78125 -13.375 
Q 36.625 -13.375 41.015625 -8.765625 
Q 45.40625 -4.15625 45.40625 5.171875 
L 45.40625 9.625 
Q 42.625 4.78125 38.28125 2.390625 
Q 33.9375 0 27.875 0 
Q 17.828125 0 11.671875 7.65625 
Q 5.515625 15.328125 5.515625 27.984375 
Q 5.515625 40.671875 11.671875 48.328125 
Q 17.828125 56 27.875 56 
Q 33.9375 56 38.28125 53.609375 
Q 42.625 51.21875 45.40625 46.390625 
L 45.40625 54.6875 
L 54.390625 54.6875 
z
" id="DejaVuSans-103"/>
       <path d="M 10.6875 12.40625 
L 21 12.40625 
L 21 0 
L 10.6875 0 
z
" id="DejaVuSans-46"/>
       <path d="M 8.6875 72.90625 
L 18.609375 72.90625 
L 18.609375 28.609375 
Q 18.609375 16.890625 22.84375 11.734375 
Q 27.09375 6.59375 36.625 6.59375 
Q 46.09375 6.59375 50.34375 11.734375 
Q 54.59375 16.890625 54.59375 28.609375 
L 54.59375 72.90625 
L 64.5 72.90625 
L 64.5 27.390625 
Q 64.5 13.140625 57.4375 5.859375 
Q 50.390625 -1.421875 36.625 -1.421875 
Q 22.796875 -1.421875 15.734375 5.859375 
Q 8.6875 13.140625 8.6875 27.390625 
z
" id="DejaVuSans-85"/>
      </defs>
      <use xlink:href="#DejaVuSans-69"/>
      <use x="63.183594" xlink:href="#DejaVuSans-110"/>
      <use x="126.5625" xlink:href="#DejaVuSans-101"/>
      <use x="188.085938" xlink:href="#DejaVuSans-114"/>
      <use x="227.449219" xlink:href="#DejaVuSans-103"/>
      <use x="290.925781" xlink:href="#DejaVuSans-121"/>
      <use x="350.105469" xlink:href="#DejaVuSans-32"/>
      <use x="381.892578" xlink:href="#DejaVuSans-47"/>
      <use x="415.583984" xlink:href="#DejaVuSans-65"/>
      <use x="482.242188" xlink:href="#DejaVuSans-46"/>
      <use x="514.029297" xlink:href="#DejaVuSans-85"/>
      <use x="587.222656" xlink:href="#DejaVuSans-46"/>
     </g>
    </g>
   </g>
   <g id="line2d_56">
    <path clip-path="url(#pd8a5196ceb)" d="M 163.53 231.597494 
L 368.316 208.803705 
L 437.508 196.392877 
L 471.546 187.944239 
L 512.838 181.346778 
L 518.418 176.061321 
L 542.412 171.495265 
L 554.13 167.6202 
L 560.268 164.240397 
L 567.522 161.127228 
L 592.074 158.293549 
L 611.046 155.706777 
L 601.002 153.394263 
L 626.112 151.22511 
L 631.134 147.285486 
L 635.04 145.675053 
L 643.968 144.035424 
L 667.404 142.529382 
L 674.1 141.084246 
L 672.984 139.749811 
L 672.426 138.485833 
L 672.426 137.224694 
L 694.746 136.043286 
L 712.044 134.904526 
L 705.348 133.794306 
L 721.53 132.763604 
L 705.906 131.766292 
L 733.248 130.786935 
L 733.248 129.891633 
L 725.994 129.010332 
L 744.966 128.171561 
L 743.292 127.345201 
L 742.176 126.585212 
L 753.894 125.798504 
L 755.01 125.056634 
L 752.22 124.344114 
L 756.684 123.646422 
L 773.982 122.95972 
L 765.612 122.281717 
L 771.75 121.614347 
L 769.518 121.023976 
L 766.728 120.413125 
L 779.004 119.808946 
L 779.562 119.219774 
L 795.186 118.65214 
L 780.12 118.092405 
L 792.396 117.567743 
L 790.722 117.054742 
L 788.49 116.558115 
L 794.07 116.057899 
L 790.722 115.561671 
L 793.512 115.07741 
L 808.02 114.625255 
L 809.694 114.166877 
L 815.832 113.706184 
L 818.064 113.256071 
L 817.506 112.809997 
L 808.02 112.387338 
L 823.644 111.955256 
L 819.738 111.547652 
L 823.644 111.15116 
L 824.202 110.759452 
L 832.014 110.408396 
L 826.992 110.001241 
L 830.34 109.602125 
L 837.594 109.265738 
L 829.782 108.914559 
L 825.876 108.556917 
L 835.92 108.180343 
L 837.036 107.804255 
L 839.268 107.469237 
L 833.13 107.140196 
L 844.848 106.844947 
L 840.942 106.512519 
L 849.87 106.193731 
L 842.616 105.879293 
L 847.638 105.555404 
L 843.732 105.261965 
L 843.174 104.938992 
L 854.334 104.645347 
L 847.08 104.340571 
L 855.45 104.045599 
L 856.008 103.774496 
L 858.24 103.511263 
L 853.776 103.223861 
L 847.638 102.941062 
L 861.588 102.658083 
L 848.754 102.137324 
L 850.986 101.871416 
L 865.494 101.641751 
L 866.61 101.384426 
L 870.516 101.128505 
L 868.842 100.878549 
L 856.008 100.626672 
L 868.842 100.397781 
L 870.516 100.157666 
L 868.842 99.912769 
L 873.864 99.670857 
L 871.632 99.4426 
L 872.748 98.985556 
L 873.864 98.777854 
L 879.444 98.554322 
L 876.096 98.328528 
L 881.118 98.105216 
L 867.168 97.671771 
L 873.864 97.464316 
L 874.422 97.270314 
L 876.096 97.068745 
L 881.676 96.874789 
L 879.444 96.669233 
L 882.792 96.477367 
L 880.002 96.269064 
L 871.074 96.06786 
L 873.864 95.873575 
L 883.35 95.674901 
L 882.792 95.477496 
L 884.466 95.289569 
L 880.56 95.107261 
L 885.582 94.930164 
L 882.792 94.747604 
L 882.792 94.572746 
L 893.952 94.401708 
L 888.372 94.218221 
L 886.698 94.036436 
L 883.35 93.863546 
L 884.466 93.681721 
L 892.278 93.495427 
L 892.836 93.319556 
L 889.488 93.140771 
L 886.698 92.813219 
L 896.742 92.650042 
L 895.626 92.493666 
L 895.626 92.328297 
L 900.09 92.165896 
L 893.952 92.009403 
L 893.394 91.84237 
L 896.742 91.67793 
L 896.184 91.518015 
L 897.858 91.371987 
L 890.604 91.212248 
L 892.836 91.076304 
L 906.228 90.934256 
L 898.974 90.787135 
L 901.206 90.630437 
L 894.51 90.488902 
L 900.09 90.345126 
L 896.742 90.197045 
L 902.88 90.036867 
L 901.764 89.901228 
L 905.112 89.755314 
L 903.996 89.609283 
L 906.228 89.345625 
L 904.554 89.210144 
L 894.51 89.066972 
L 909.576 88.514826 
L 903.996 88.377059 
L 903.996 88.246821 
L 896.184 88.115866 
L 907.902 87.849451 
L 908.46 87.725022 
L 893.952 87.607538 
L 911.808 87.475163 
L 911.808 87.357645 
L 906.786 87.229676 
L 914.04 87.099945 
L 898.974 86.86023 
L 909.576 86.607627 
L 907.902 86.492145 
L 911.808 86.379041 
L 900.648 86.262812 
L 915.714 86.02519 
L 909.018 85.913118 
L 917.388 85.803988 
L 911.808 85.687627 
L 911.808 85.568856 
L 908.46 85.462158 
L 916.83 85.225991 
L 911.25 85.118385 
L 919.62 85.013622 
L 916.272 84.904245 
L 916.83 84.802497 
L 909.576 84.695839 
L 910.692 84.589077 
L 905.112 84.481047 
L 917.388 84.260342 
L 917.946 84.150225 
L 917.388 84.033679 
L 914.598 83.930099 
L 918.504 83.833275 
L 912.366 83.73996 
L 920.736 83.640084 
L 918.504 83.53573 
L 920.736 83.424155 
L 909.018 83.130827 
L 919.062 83.026733 
L 903.996 82.931007 
L 916.272 82.830835 
L 911.808 82.730401 
L 921.294 82.640431 
L 912.924 82.455828 
L 922.41 82.361039 
L 912.366 82.272381 
L 926.316 82.084338 
L 915.156 81.824885 
L 919.62 81.725797 
L 917.388 81.635404 
L 922.41 81.534918 
L 920.178 81.439776 
L 925.2 81.352049 
L 917.946 81.169174 
L 921.852 81.080193 
L 920.736 80.998862 
L 921.294 80.913061 
L 918.504 80.827987 
L 925.2 80.744281 
L 916.272 80.574658 
L 927.99 80.321256 
L 916.272 80.236194 
L 920.178 80.158305 
L 920.736 80.075223 
L 918.504 79.991587 
L 929.106 79.90848 
L 920.736 79.746758 
L 920.736 79.664748 
L 921.294 79.581973 
L 926.316 79.441109 
L 915.714 79.373751 
L 923.526 79.298123 
L 921.852 79.211581 
L 921.294 79.136614 
L 925.2 78.976693 
L 922.968 78.820576 
L 930.222 78.737958 
L 920.178 78.589398 
L 927.432 78.441725 
L 916.272 78.293069 
L 924.642 78.22268 
L 921.852 78.147824 
L 921.294 78.079141 
L 919.062 78.006088 
L 931.896 77.927722 
L 923.526 77.860309 
L 927.432 77.785952 
L 927.99 77.724767 
L 924.084 77.659161 
L 924.642 77.590431 
L 924.084 77.452345 
L 927.99 77.390406 
L 921.852 77.312506 
L 925.2 77.244864 
L 922.41 77.175976 
L 925.758 77.105246 
L 915.714 77.036732 
L 920.736 76.972658 
L 927.99 76.846277 
L 919.062 76.786583 
L 922.968 76.716956 
L 926.874 76.656121 
L 920.736 76.532626 
L 931.338 76.332554 
L 926.874 76.267752 
L 929.664 76.206728 
L 926.874 76.137394 
L 930.222 76.076236 
L 927.99 76.008543 
L 926.874 75.947757 
L 931.896 75.700462 
L 925.758 75.527772 
L 928.548 75.462016 
L 927.99 75.401823 
L 927.432 75.344812 
L 925.758 75.285825 
L 929.664 75.223301 
L 928.548 75.169982 
L 925.2 75.05185 
L 927.99 74.992479 
L 925.758 74.932125 
L 925.2 74.867012 
L 931.338 74.70787 
L 930.222 74.657945 
L 929.664 74.604827 
L 930.222 74.501397 
L 925.2 74.449934 
L 929.664 74.392839 
L 924.642 74.333742 
L 926.316 74.282932 
L 931.896 74.168345 
L 931.338 74.111838 
L 926.316 74.052904 
L 926.874 74.004717 
L 930.222 73.957215 
L 927.99 73.907982 
L 927.99 73.849873 
L 925.758 73.800085 
L 929.106 73.752651 
L 926.874 73.701672 
L 926.874 73.648941 
L 930.222 73.592007 
L 929.106 73.537496 
L 927.99 73.479655 
L 924.642 73.430598 
L 927.432 73.384066 
L 927.99 73.290697 
L 925.2 73.242286 
L 933.57 73.141358 
L 929.664 73.095168 
L 928.548 73.045625 
L 931.338 72.945103 
L 927.432 72.89271 
L 927.432 72.89271 
" style="fill:none;stroke:#1f1f1f;stroke-linecap:square;stroke-width:5;"/>
   </g>
   <g id="line2d_57">
    <path clip-path="url(#pd8a5196ceb)" d="M 163.53 495.930889 
L 368.316 464.450152 
L 437.508 445.837742 
L 471.546 432.574107 
L 512.838 422.09706 
L 518.418 413.446345 
L 542.412 406.037584 
L 554.13 399.649307 
L 560.268 393.954233 
L 567.522 388.86692 
L 592.074 384.326492 
L 611.046 380.201368 
L 601.002 376.38539 
L 626.112 372.858012 
L 628.902 369.584332 
L 631.134 366.490862 
L 635.04 363.565672 
L 643.968 360.815553 
L 667.404 358.229034 
L 674.1 355.807447 
L 672.984 353.517077 
L 672.426 351.347598 
L 672.426 349.263772 
L 694.746 347.289515 
L 712.044 345.416803 
L 705.348 343.63598 
L 721.53 341.92735 
L 705.906 340.283759 
L 733.248 338.702857 
L 733.248 337.171808 
L 725.994 335.709836 
L 744.966 334.297214 
L 743.292 332.933941 
L 742.176 331.606161 
L 753.894 330.32628 
L 755.01 329.088319 
L 752.22 327.889064 
L 756.684 326.723128 
L 773.982 325.59462 
L 765.612 324.49513 
L 771.75 323.435218 
L 769.518 322.396069 
L 766.728 321.391006 
L 779.004 320.406557 
L 779.562 319.439916 
L 795.186 318.498965 
L 780.12 317.584214 
L 792.396 316.683779 
L 790.722 315.798126 
L 788.49 314.932787 
L 794.07 314.092745 
L 790.722 313.276912 
L 793.512 312.476447 
L 808.02 311.681736 
L 809.694 310.897579 
L 815.832 310.130227 
L 818.064 309.374969 
L 817.506 308.642159 
L 808.02 307.92633 
L 823.644 307.218348 
L 819.738 306.52901 
L 823.644 305.853297 
L 824.202 305.185704 
L 832.014 304.527875 
L 826.992 303.883676 
L 830.34 303.252172 
L 837.594 302.628859 
L 829.782 302.015088 
L 825.876 301.410861 
L 835.92 300.81187 
L 837.036 300.223001 
L 839.268 299.642949 
L 833.13 299.070038 
L 844.848 298.50215 
L 840.942 297.944571 
L 849.87 297.39425 
L 842.616 296.847463 
L 847.638 296.313939 
L 843.732 295.792113 
L 843.174 295.274857 
L 854.334 294.766772 
L 847.08 294.262582 
L 855.45 293.762075 
L 856.008 293.268474 
L 858.24 292.779149 
L 853.776 292.297733 
L 847.638 291.821992 
L 861.588 291.34799 
L 848.754 290.421491 
L 850.986 289.965126 
L 865.494 289.511483 
L 866.61 289.063427 
L 870.516 288.620659 
L 868.842 288.180296 
L 856.008 287.74976 
L 868.842 287.321979 
L 870.516 286.898518 
L 868.842 286.479325 
L 873.864 286.065927 
L 871.632 285.652392 
L 872.748 284.83393 
L 873.864 284.431191 
L 879.444 284.033825 
L 876.096 283.641263 
L 881.118 283.250997 
L 872.748 282.86489 
L 867.168 282.481205 
L 873.864 282.100648 
L 874.422 281.723884 
L 876.096 281.349803 
L 881.676 280.976036 
L 879.444 280.604475 
L 882.792 280.238567 
L 880.002 279.875817 
L 871.074 279.516579 
L 873.864 279.16072 
L 883.35 278.80724 
L 882.792 278.456268 
L 884.466 278.109448 
L 880.56 277.762642 
L 885.582 277.417056 
L 882.792 277.075237 
L 882.792 276.735516 
L 893.952 276.39829 
L 888.372 276.062642 
L 886.698 275.728482 
L 883.35 275.396731 
L 884.466 275.068114 
L 892.278 274.74291 
L 892.836 274.419969 
L 889.488 274.100176 
L 888.372 273.781274 
L 886.698 273.464362 
L 896.742 273.147629 
L 895.626 272.833869 
L 895.626 272.521963 
L 900.09 272.212382 
L 893.952 271.904679 
L 893.394 271.599672 
L 896.742 271.296974 
L 896.184 270.99573 
L 897.858 270.694875 
L 890.604 270.399646 
L 892.836 270.104043 
L 906.228 269.80921 
L 898.974 269.517016 
L 901.206 269.225048 
L 894.51 268.934985 
L 900.09 268.647453 
L 896.742 268.362006 
L 902.88 268.079984 
L 901.764 267.798664 
L 905.112 267.518767 
L 903.996 267.239857 
L 905.67 266.963053 
L 906.228 266.687637 
L 904.554 266.413219 
L 894.51 266.140793 
L 898.416 265.868647 
L 908.46 265.328874 
L 909.576 265.060861 
L 903.996 264.794978 
L 903.996 264.530071 
L 896.184 264.26736 
L 903.996 264.006946 
L 907.902 263.747143 
L 908.46 263.490018 
L 893.952 263.233933 
L 911.808 262.977212 
L 911.808 262.721981 
L 906.786 262.468725 
L 914.04 262.216116 
L 898.974 261.715728 
L 907.902 261.467994 
L 909.576 261.221463 
L 907.902 260.975152 
L 911.808 260.728471 
L 900.648 260.485141 
L 915.714 260.001727 
L 909.018 259.762337 
L 917.388 259.524636 
L 911.808 259.287337 
L 911.808 259.052244 
L 908.46 258.81796 
L 914.04 258.582971 
L 916.83 258.34889 
L 911.25 258.116565 
L 919.62 257.885984 
L 916.272 257.656186 
L 916.83 257.427899 
L 909.576 257.199598 
L 910.692 256.972569 
L 905.112 256.745704 
L 916.272 256.520075 
L 917.946 256.074882 
L 917.388 255.853128 
L 914.598 255.632835 
L 918.504 255.412378 
L 912.366 255.193248 
L 920.736 254.975412 
L 918.504 254.759134 
L 920.736 254.543251 
L 916.83 254.329274 
L 915.714 254.11602 
L 909.018 253.904012 
L 919.062 253.693382 
L 903.996 253.483724 
L 916.272 253.274704 
L 911.808 253.06641 
L 921.294 252.858073 
L 912.924 252.445872 
L 922.41 252.241125 
L 912.366 252.037121 
L 926.316 251.631844 
L 920.736 251.430423 
L 921.852 251.228744 
L 915.156 251.028405 
L 919.62 250.829245 
L 917.388 250.631035 
L 922.41 250.433129 
L 920.178 250.236362 
L 925.2 250.04083 
L 922.41 249.845953 
L 917.946 249.651638 
L 921.852 249.458615 
L 920.736 249.265956 
L 921.294 249.074353 
L 918.504 248.883729 
L 925.2 248.692577 
L 916.272 248.313595 
L 927.99 247.748385 
L 916.272 247.561835 
L 920.178 247.376063 
L 920.736 247.190301 
L 918.504 247.005156 
L 929.106 246.820626 
L 921.852 246.636538 
L 920.736 246.452528 
L 920.736 246.269422 
L 921.294 246.087643 
L 922.968 245.906195 
L 926.316 245.725411 
L 915.714 245.545471 
L 923.526 245.365734 
L 921.852 245.186449 
L 921.294 245.007939 
L 925.2 244.651304 
L 922.968 244.298782 
L 930.222 244.123526 
L 920.178 243.775782 
L 927.432 243.4301 
L 917.946 243.258095 
L 916.272 243.086621 
L 924.642 242.915576 
L 921.852 242.745527 
L 921.294 242.576229 
L 919.062 242.407228 
L 931.896 242.238206 
L 923.526 242.070525 
L 927.432 241.903584 
L 927.99 241.736102 
L 924.084 241.569668 
L 924.642 241.403252 
L 924.084 241.237823 
L 924.084 241.073439 
L 927.99 240.908932 
L 921.852 240.745445 
L 925.2 240.582154 
L 922.41 240.419605 
L 925.758 240.257451 
L 915.714 240.096136 
L 927.99 239.613992 
L 919.062 239.453916 
L 926.874 239.13469 
L 920.736 238.818127 
L 926.874 238.65996 
L 926.316 238.502278 
L 931.338 238.345481 
L 926.874 238.18976 
L 929.664 238.03424 
L 926.874 237.878699 
L 930.222 237.723592 
L 926.874 237.414768 
L 927.99 237.260662 
L 931.896 236.954835 
L 931.896 236.802054 
L 926.316 236.650268 
L 925.758 236.499073 
L 925.758 236.348087 
L 928.548 236.197432 
L 927.432 235.897667 
L 925.758 235.748582 
L 929.664 235.599477 
L 926.874 235.302775 
L 925.2 235.154557 
L 927.99 235.006835 
L 925.2 234.713295 
L 931.338 234.275552 
L 929.664 233.986362 
L 925.2 233.842365 
L 930.222 233.698158 
L 925.2 233.554319 
L 929.664 233.410952 
L 924.642 233.267801 
L 926.316 233.125131 
L 931.338 232.983496 
L 931.896 232.842523 
L 931.338 232.701426 
L 926.316 232.560697 
L 926.874 232.42046 
L 930.222 232.280395 
L 927.99 232.141269 
L 927.99 232.002468 
L 925.758 231.863694 
L 929.106 231.725586 
L 926.874 231.587939 
L 926.874 231.450535 
L 930.222 231.313691 
L 927.99 231.040943 
L 924.642 230.905038 
L 927.99 230.634331 
L 927.99 230.499163 
L 925.2 230.364866 
L 933.57 230.096692 
L 928.548 229.829441 
L 931.338 229.563603 
L 927.432 229.431335 
L 927.432 229.431335 
" style="fill:none;stroke:#9e9e9e;stroke-linecap:square;stroke-width:5;"/>
   </g>
   <g id="line2d_58">
    <path clip-path="url(#pd8a5196ceb)" d="M -1 272.910413 
L 261.738 254.024148 
L 329.256 246.49917 
L 391.752 240.131694 
L 405.702 234.696445 
L 446.436 230.1162 
L 473.778 226.354864 
L 462.06 222.697581 
L 468.198 219.534771 
L 489.96 216.609783 
L 494.424 213.931432 
L 473.22 211.484314 
L 509.49 209.252484 
L 492.192 207.096897 
L 538.506 205.261774 
L 550.224 203.321632 
L 555.246 201.556994 
L 526.23 199.886741 
L 535.158 198.316433 
L 571.428 196.787999 
L 549.666 195.386147 
L 584.262 193.975448 
L 578.124 192.633276 
L 585.378 191.459295 
L 571.428 190.268801 
L 592.632 189.198209 
L 583.146 188.136387 
L 545.202 187.122501 
L 602.118 186.010295 
L 619.974 184.922886 
L 604.35 184.014315 
L 633.366 183.085774 
L 611.604 182.158062 
L 627.228 181.381697 
L 647.316 180.523092 
L 633.366 179.663923 
L 647.874 179.02792 
L 639.504 178.323101 
L 640.062 177.596887 
L 635.598 176.90518 
L 665.73 176.179888 
L 657.918 175.525733 
L 665.172 174.841652 
L 654.012 174.207865 
L 670.194 173.563242 
L 669.636 172.923242 
L 670.752 172.317897 
L 664.056 171.202554 
L 681.354 170.6861 
L 664.614 169.610307 
L 669.078 169.112585 
L 690.282 168.588405 
L 685.26 168.075115 
L 681.912 167.594881 
L 669.636 167.108859 
L 713.718 166.62468 
L 700.326 166.193106 
L 705.348 165.77356 
L 676.332 165.316163 
L 718.182 164.850943 
L 715.392 164.436469 
L 727.11 164.045152 
L 722.646 163.666327 
L 700.884 163.262252 
L 714.834 162.879748 
L 717.066 162.469791 
L 716.508 162.111399 
L 713.718 161.752374 
L 718.74 161.383309 
L 729.342 161.029086 
L 724.32 160.686847 
L 740.502 160.357512 
L 731.574 160.014649 
L 744.408 159.698086 
L 745.524 159.369919 
L 737.154 159.043454 
L 715.392 158.719351 
L 741.06 158.390876 
L 727.11 158.069733 
L 756.684 157.772146 
L 739.386 157.456439 
L 747.756 157.120782 
L 746.082 156.843898 
L 751.662 156.552518 
L 736.038 156.285698 
L 751.104 155.978574 
L 741.618 155.73706 
L 749.988 155.415499 
L 747.756 155.116898 
L 755.01 154.841246 
L 752.778 154.567956 
L 747.756 154.304716 
L 761.706 154.070793 
L 759.474 153.789323 
L 763.938 153.535625 
L 763.38 153.297739 
L 735.48 153.048499 
L 763.938 152.600054 
L 753.336 152.3596 
L 751.104 152.114061 
L 761.148 151.866475 
L 762.264 151.606221 
L 757.8 151.36385 
L 746.64 151.135728 
L 775.098 150.921829 
L 741.618 150.699543 
L 770.076 150.483879 
L 766.728 150.294106 
L 774.54 150.089469 
L 756.126 149.868097 
L 774.54 149.423402 
L 772.866 149.213848 
L 783.468 148.992854 
L 769.518 148.599374 
L 769.518 148.414245 
L 773.982 148.189114 
L 781.236 147.999075 
L 755.568 147.793816 
L 775.656 147.61114 
L 775.656 147.433679 
L 768.96 147.259959 
L 793.512 146.881353 
L 787.374 146.694046 
L 767.286 146.473287 
L 783.468 146.268215 
L 782.352 146.084607 
L 786.816 145.909139 
L 777.33 145.556464 
L 792.954 145.224056 
L 784.584 145.064631 
L 785.7 144.874726 
L 785.7 144.695774 
L 795.186 144.530427 
L 786.258 144.212013 
L 787.932 144.045734 
L 792.396 143.904733 
L 786.258 143.753868 
L 789.048 143.430279 
L 800.208 143.285103 
L 794.628 143.118371 
L 796.86 142.973738 
L 791.838 142.631827 
L 801.882 142.297749 
L 800.208 142.151961 
L 803.556 142.010799 
L 800.208 141.884417 
L 807.462 141.736723 
L 792.954 141.471632 
L 812.484 141.052917 
L 799.092 140.911569 
L 815.274 140.60242 
L 802.44 140.46409 
L 802.998 140.350754 
L 810.81 140.204381 
L 796.86 140.064028 
L 811.926 139.949422 
L 810.252 139.835722 
L 789.606 139.703957 
L 809.694 139.416695 
L 806.904 139.295886 
L 811.926 139.17711 
L 800.766 139.03869 
L 808.578 138.908883 
L 800.208 138.795095 
L 816.39 138.578078 
L 815.832 138.461629 
L 804.114 138.325676 
L 814.158 138.179002 
L 813.042 138.046686 
L 813.042 137.928173 
L 823.086 137.685555 
L 807.462 137.57361 
L 816.948 137.477326 
L 804.114 137.368179 
L 813.6 137.262797 
L 807.462 137.14501 
L 815.274 137.020541 
L 813.042 136.892135 
L 814.158 136.78644 
L 808.578 136.680277 
L 820.854 136.445278 
L 820.296 136.321193 
L 806.346 136.191232 
L 821.97 135.970501 
L 831.456 135.860129 
L 808.578 135.743271 
L 823.644 135.623067 
L 817.506 135.515743 
L 826.434 135.393323 
L 820.854 135.186906 
L 818.622 135.103881 
L 835.92 134.99955 
L 805.788 134.882946 
L 827.55 134.778876 
L 810.252 134.601458 
L 826.434 134.404308 
L 813.6 134.313988 
L 827.55 134.110412 
L 824.76 134.009465 
L 830.34 133.803681 
L 813.042 133.709469 
L 828.108 133.525468 
L 832.572 133.439203 
L 829.782 133.356788 
L 830.898 133.252609 
L 827.55 133.153795 
L 836.478 133.045692 
L 830.34 132.875459 
L 831.456 132.77422 
L 829.224 132.604677 
L 822.528 132.530619 
L 836.478 132.358079 
L 829.224 132.265982 
L 830.34 132.174613 
L 825.876 132.092928 
L 835.362 131.998929 
L 825.876 131.904431 
L 835.92 131.822818 
L 826.434 131.665664 
L 839.826 131.576762 
L 826.992 131.430953 
L 840.384 131.268925 
L 837.594 131.180946 
L 847.638 131.091122 
L 835.92 130.917413 
L 842.616 130.8205 
L 837.594 130.746961 
L 839.826 130.668116 
L 831.456 130.595153 
L 844.848 130.521883 
L 834.246 130.372556 
L 843.732 130.295764 
L 843.174 130.232362 
L 819.18 129.993926 
L 834.246 129.913796 
L 831.456 129.841691 
L 831.456 129.758708 
L 845.964 129.560807 
L 835.92 129.41756 
L 837.036 129.346766 
L 839.826 129.283425 
L 833.688 129.206183 
L 839.826 129.126277 
L 834.246 129.062287 
L 847.08 128.927792 
L 846.522 128.852029 
L 839.826 128.785556 
L 845.406 128.722997 
L 842.616 128.655812 
L 845.406 128.59661 
L 844.848 128.517748 
L 839.826 128.447644 
L 840.384 128.380832 
L 848.196 128.252399 
L 838.152 128.120022 
L 840.942 128.005007 
L 847.638 127.877727 
L 842.616 127.813343 
L 849.87 127.749548 
L 839.268 127.61888 
L 840.942 127.550667 
L 847.638 127.48036 
L 843.732 127.409036 
L 853.776 127.243337 
L 852.66 127.181329 
L 853.776 127.120699 
L 845.964 127.060322 
L 853.776 127.002275 
L 843.174 126.942517 
L 848.196 126.884354 
L 849.87 126.824603 
L 846.522 126.769058 
L 835.92 126.704638 
L 851.544 126.636509 
L 844.848 126.568929 
L 853.218 126.35184 
L 848.754 126.304326 
L 854.334 126.247759 
L 850.428 126.193095 
L 838.71 126.132961 
L 841.5 126.073324 
L 850.986 126.02005 
L 847.08 125.96748 
L 848.754 125.892811 
L 839.826 125.835575 
L 847.638 125.782445 
L 847.08 125.696374 
L 852.66 125.587764 
L 838.71 125.525253 
L 853.218 125.471519 
L 847.08 125.413093 
L 844.848 125.348285 
L 849.312 125.292665 
L 846.522 125.237251 
L 847.08 125.189629 
L 845.964 125.140573 
L 847.08 125.094281 
L 853.776 124.907659 
L 847.08 124.765999 
L 848.196 124.711403 
L 848.196 124.711403 
" style="fill:none;stroke:#2ecbff;stroke-linecap:square;stroke-width:5;"/>
   </g>
   <g id="line2d_59">
    <path clip-path="url(#pd8a5196ceb)" d="M -1 524.320748 
L 120.564 508.144227 
L 261.738 488.828758 
L 329.256 474.734518 
L 391.752 463.542948 
L 405.702 454.312892 
L 446.436 446.46062 
L 473.778 439.784486 
L 462.06 433.892938 
L 468.198 428.518606 
L 489.96 423.63436 
L 494.424 419.144496 
L 473.22 415.036007 
L 509.49 411.176741 
L 492.192 407.557197 
L 538.506 404.244148 
L 550.224 401.097399 
L 555.246 398.144727 
L 526.23 395.368897 
L 535.158 392.771743 
L 571.428 390.326157 
L 549.666 387.98067 
L 584.262 385.767882 
L 578.124 383.659108 
L 585.378 381.64397 
L 571.428 379.712665 
L 592.632 377.846199 
L 583.146 376.03914 
L 545.202 374.296372 
L 602.118 372.620558 
L 619.974 371.002667 
L 604.35 369.422903 
L 633.366 367.909226 
L 611.604 366.449398 
L 627.228 365.042987 
L 647.316 363.666135 
L 633.366 362.334475 
L 647.874 361.045565 
L 639.504 359.78218 
L 640.062 358.551663 
L 635.598 357.362159 
L 665.73 356.194131 
L 657.918 355.054961 
L 665.172 353.9542 
L 654.012 352.875483 
L 670.194 351.823386 
L 669.636 350.791349 
L 670.752 349.791569 
L 664.056 347.844676 
L 681.354 346.903003 
L 664.614 345.073195 
L 669.078 344.191681 
L 690.282 343.33006 
L 685.26 342.484667 
L 681.912 341.660036 
L 669.636 340.842072 
L 713.718 340.049387 
L 700.326 339.263552 
L 705.348 338.492725 
L 676.332 337.733352 
L 718.182 336.982029 
L 715.392 336.242584 
L 727.11 335.519872 
L 722.646 334.809348 
L 700.884 334.113554 
L 714.834 333.434351 
L 717.066 332.764404 
L 716.508 332.10687 
L 713.718 331.451301 
L 718.74 330.806897 
L 729.342 330.173999 
L 724.32 329.545666 
L 740.502 328.926631 
L 731.574 328.312853 
L 744.408 327.71177 
L 745.524 327.116963 
L 737.154 326.528812 
L 715.392 325.948266 
L 741.06 325.373715 
L 727.11 324.809666 
L 756.684 324.253454 
L 739.386 323.706491 
L 747.756 323.164895 
L 746.082 322.630481 
L 751.662 322.102048 
L 736.038 321.582483 
L 751.104 321.06747 
L 741.618 320.557823 
L 749.988 320.053426 
L 747.756 319.557824 
L 755.01 319.066211 
L 752.778 318.578051 
L 747.756 318.095044 
L 761.706 317.619107 
L 759.474 317.145789 
L 763.938 316.676871 
L 763.38 316.211709 
L 735.48 315.750178 
L 752.778 315.296634 
L 763.938 314.85176 
L 753.336 314.411385 
L 751.104 313.975442 
L 761.148 313.539286 
L 762.264 313.109148 
L 757.8 312.683798 
L 746.64 312.264621 
L 775.098 311.852901 
L 741.618 311.443906 
L 770.076 311.041614 
L 766.728 310.643724 
L 774.54 310.248485 
L 756.126 309.853348 
L 768.96 309.461946 
L 774.54 309.07534 
L 772.866 308.69191 
L 783.468 308.311801 
L 769.518 307.56053 
L 769.518 307.190851 
L 773.982 306.820873 
L 781.236 306.456942 
L 755.568 306.098845 
L 775.656 305.74005 
L 775.656 305.384413 
L 768.96 305.033449 
L 793.512 304.337343 
L 787.374 303.994216 
L 767.286 303.64911 
L 783.468 303.309467 
L 782.352 302.974369 
L 786.816 302.639232 
L 777.33 301.980757 
L 792.954 301.333588 
L 784.584 301.012975 
L 785.7 300.693461 
L 785.7 300.378704 
L 795.186 300.066007 
L 786.258 299.449031 
L 787.932 299.144968 
L 792.396 298.843494 
L 786.258 298.541659 
L 789.048 297.949087 
L 800.208 297.655752 
L 794.628 297.365504 
L 796.86 297.075874 
L 792.954 296.788773 
L 791.838 296.503691 
L 801.882 295.938234 
L 800.208 295.659334 
L 803.556 295.380995 
L 800.208 295.106398 
L 807.462 294.834488 
L 801.882 294.564201 
L 792.954 294.295444 
L 812.484 293.498549 
L 799.092 293.234935 
L 815.274 292.714352 
L 802.44 292.457033 
L 802.998 292.201426 
L 810.81 291.948145 
L 796.86 291.694993 
L 811.926 291.445202 
L 810.252 291.194644 
L 789.606 290.947039 
L 809.694 290.456426 
L 806.904 290.214714 
L 811.926 289.973298 
L 800.766 289.733342 
L 808.578 289.49527 
L 800.208 289.257678 
L 815.274 289.022241 
L 816.39 288.787357 
L 815.832 288.552411 
L 804.114 288.319052 
L 814.158 288.085615 
L 813.042 287.85322 
L 813.042 287.6223 
L 823.086 287.165056 
L 807.462 286.93871 
L 816.948 286.713873 
L 804.114 286.491052 
L 813.6 286.268983 
L 807.462 286.048061 
L 815.274 285.82871 
L 813.042 285.608513 
L 814.158 285.390474 
L 808.578 285.173783 
L 813.042 284.958878 
L 820.854 284.744135 
L 820.296 284.531056 
L 806.346 284.318086 
L 821.412 284.10567 
L 821.97 283.895414 
L 831.456 283.686066 
L 808.578 283.477524 
L 823.644 283.271022 
L 817.506 283.063615 
L 826.434 282.858419 
L 821.412 282.653988 
L 820.854 282.450057 
L 818.622 282.246922 
L 835.92 282.04568 
L 805.788 281.845459 
L 827.55 281.646057 
L 810.252 281.250796 
L 825.318 281.055667 
L 826.434 280.859705 
L 813.6 280.664595 
L 826.992 280.471084 
L 827.55 280.277739 
L 824.76 280.085678 
L 830.34 279.706056 
L 813.042 279.516864 
L 826.434 279.327669 
L 828.108 279.139655 
L 832.572 278.952947 
L 829.782 278.766337 
L 830.898 278.580751 
L 827.55 278.396748 
L 836.478 278.21287 
L 830.34 278.030048 
L 830.34 277.846924 
L 831.456 277.664552 
L 829.782 277.482878 
L 829.224 277.302306 
L 822.528 277.122015 
L 836.478 276.766089 
L 829.224 276.588613 
L 830.34 276.412413 
L 825.876 276.237195 
L 835.362 276.062019 
L 825.876 275.888202 
L 835.92 275.714254 
L 826.434 275.369573 
L 839.826 275.198974 
L 826.992 274.859257 
L 840.384 274.69057 
L 840.384 274.521511 
L 837.594 274.353493 
L 847.638 274.186028 
L 835.92 273.851667 
L 842.616 273.685047 
L 837.594 273.518377 
L 839.826 273.352745 
L 831.456 273.188713 
L 844.848 273.024581 
L 835.362 272.860743 
L 834.246 272.697986 
L 843.732 272.53581 
L 843.174 272.374286 
L 826.992 272.054681 
L 819.18 271.895318 
L 834.246 271.736311 
L 831.456 271.578117 
L 831.456 271.419779 
L 837.036 271.262096 
L 837.594 271.105477 
L 845.964 270.949051 
L 837.036 270.793563 
L 835.92 270.63856 
L 837.036 270.483756 
L 839.826 270.329915 
L 833.688 270.177022 
L 839.826 270.02479 
L 834.246 269.87315 
L 844.848 269.721628 
L 847.08 269.569755 
L 846.522 269.418991 
L 839.826 269.268886 
L 845.406 269.119238 
L 842.616 268.970583 
L 845.406 268.822913 
L 844.848 268.675169 
L 839.826 268.527887 
L 840.384 268.381953 
L 848.196 268.090184 
L 845.406 267.945202 
L 838.152 267.801004 
L 840.942 267.657179 
L 840.942 267.513863 
L 847.638 267.229556 
L 842.616 267.088012 
L 849.87 266.947533 
L 840.384 266.806846 
L 839.268 266.66678 
L 840.942 266.527076 
L 847.638 266.387978 
L 843.732 266.249323 
L 853.776 265.834753 
L 852.66 265.69775 
L 853.776 265.561047 
L 845.964 265.424588 
L 853.776 265.28859 
L 843.174 265.152934 
L 849.87 264.883987 
L 846.522 264.74882 
L 835.92 264.614195 
L 851.544 264.480425 
L 844.848 264.34774 
L 848.196 264.215114 
L 848.196 264.08355 
L 849.87 263.952603 
L 853.218 263.822017 
L 848.754 263.691649 
L 854.334 263.561108 
L 850.428 263.430779 
L 838.71 263.300726 
L 841.5 263.171493 
L 850.986 263.043005 
L 847.08 262.914746 
L 848.754 262.786603 
L 839.826 262.659229 
L 849.312 262.405957 
L 847.08 262.280164 
L 848.754 262.15402 
L 852.66 262.028104 
L 838.71 261.902854 
L 853.218 261.777994 
L 844.848 261.528533 
L 849.312 261.4048 
L 846.522 261.281677 
L 847.08 261.158738 
L 845.964 261.036135 
L 849.87 260.671178 
L 848.196 260.549728 
L 853.776 260.428358 
L 848.754 260.307249 
L 852.66 260.18664 
L 847.08 260.066184 
L 848.196 259.946051 
L 848.196 259.946051 
" style="fill:none;stroke:#9deaff;stroke-linecap:square;stroke-width:5;"/>
   </g>
   <g id="patch_3">
    <path d="M 144 504 
L 144 69.12 
" style="fill:none;stroke:#000000;stroke-linecap:square;stroke-linejoin:miter;stroke-width:0.8;"/>
   </g>
   <g id="patch_4">
    <path d="M 1036.8 504 
L 1036.8 69.12 
" style="fill:none;stroke:#000000;stroke-linecap:square;stroke-linejoin:miter;stroke-width:0.8;"/>
   </g>
   <g id="patch_5">
    <path d="M 144 504 
L 1036.8 504 
" style="fill:none;stroke:#000000;stroke-linecap:square;stroke-linejoin:miter;stroke-width:0.8;"/>
   </g>
   <g id="patch_6">
    <path d="M 144 69.12 
L 1036.8 69.12 
" style="fill:none;stroke:#000000;stroke-linecap:square;stroke-linejoin:miter;stroke-width:0.8;"/>
   </g>
   <g id="text_17">
    <!-- Gated: Energy vs. Accuracy with 200 Units @ 0.85 -->
    <g transform="translate(136.442813 61.633125)scale(0.36 -0.36)">
     <defs>
      <path d="M 59.515625 10.40625 
L 59.515625 29.984375 
L 43.40625 29.984375 
L 43.40625 38.09375 
L 69.28125 38.09375 
L 69.28125 6.78125 
Q 63.578125 2.734375 56.6875 0.65625 
Q 49.8125 -1.421875 42 -1.421875 
Q 24.90625 -1.421875 15.25 8.5625 
Q 5.609375 18.5625 5.609375 36.375 
Q 5.609375 54.25 15.25 64.234375 
Q 24.90625 74.21875 42 74.21875 
Q 49.125 74.21875 55.546875 72.453125 
Q 61.96875 70.703125 67.390625 67.28125 
L 67.390625 56.78125 
Q 61.921875 61.421875 55.765625 63.765625 
Q 49.609375 66.109375 42.828125 66.109375 
Q 29.4375 66.109375 22.71875 58.640625 
Q 16.015625 51.171875 16.015625 36.375 
Q 16.015625 21.625 22.71875 14.15625 
Q 29.4375 6.6875 42.828125 6.6875 
Q 48.046875 6.6875 52.140625 7.59375 
Q 56.25 8.5 59.515625 10.40625 
z
" id="DejaVuSans-71"/>
      <path d="M 18.3125 70.21875 
L 18.3125 54.6875 
L 36.8125 54.6875 
L 36.8125 47.703125 
L 18.3125 47.703125 
L 18.3125 18.015625 
Q 18.3125 11.328125 20.140625 9.421875 
Q 21.96875 7.515625 27.59375 7.515625 
L 36.8125 7.515625 
L 36.8125 0 
L 27.59375 0 
Q 17.1875 0 13.234375 3.875 
Q 9.28125 7.765625 9.28125 18.015625 
L 9.28125 47.703125 
L 2.6875 47.703125 
L 2.6875 54.6875 
L 9.28125 54.6875 
L 9.28125 70.21875 
z
" id="DejaVuSans-116"/>
      <path d="M 45.40625 46.390625 
L 45.40625 75.984375 
L 54.390625 75.984375 
L 54.390625 0 
L 45.40625 0 
L 45.40625 8.203125 
Q 42.578125 3.328125 38.25 0.953125 
Q 33.9375 -1.421875 27.875 -1.421875 
Q 17.96875 -1.421875 11.734375 6.484375 
Q 5.515625 14.40625 5.515625 27.296875 
Q 5.515625 40.1875 11.734375 48.09375 
Q 17.96875 56 27.875 56 
Q 33.9375 56 38.25 53.625 
Q 42.578125 51.265625 45.40625 46.390625 
z
M 14.796875 27.296875 
Q 14.796875 17.390625 18.875 11.75 
Q 22.953125 6.109375 30.078125 6.109375 
Q 37.203125 6.109375 41.296875 11.75 
Q 45.40625 17.390625 45.40625 27.296875 
Q 45.40625 37.203125 41.296875 42.84375 
Q 37.203125 48.484375 30.078125 48.484375 
Q 22.953125 48.484375 18.875 42.84375 
Q 14.796875 37.203125 14.796875 27.296875 
z
" id="DejaVuSans-100"/>
      <path d="M 11.71875 12.40625 
L 22.015625 12.40625 
L 22.015625 0 
L 11.71875 0 
z
M 11.71875 51.703125 
L 22.015625 51.703125 
L 22.015625 39.3125 
L 11.71875 39.3125 
z
" id="DejaVuSans-58"/>
      <path d="M 2.984375 54.6875 
L 12.5 54.6875 
L 29.59375 8.796875 
L 46.6875 54.6875 
L 56.203125 54.6875 
L 35.6875 0 
L 23.484375 0 
z
" id="DejaVuSans-118"/>
      <path d="M 44.28125 53.078125 
L 44.28125 44.578125 
Q 40.484375 46.53125 36.375 47.5 
Q 32.28125 48.484375 27.875 48.484375 
Q 21.1875 48.484375 17.84375 46.4375 
Q 14.5 44.390625 14.5 40.28125 
Q 14.5 37.15625 16.890625 35.375 
Q 19.28125 33.59375 26.515625 31.984375 
L 29.59375 31.296875 
Q 39.15625 29.25 43.1875 25.515625 
Q 47.21875 21.78125 47.21875 15.09375 
Q 47.21875 7.46875 41.1875 3.015625 
Q 35.15625 -1.421875 24.609375 -1.421875 
Q 20.21875 -1.421875 15.453125 -0.5625 
Q 10.6875 0.296875 5.421875 2 
L 5.421875 11.28125 
Q 10.40625 8.6875 15.234375 7.390625 
Q 20.0625 6.109375 24.8125 6.109375 
Q 31.15625 6.109375 34.5625 8.28125 
Q 37.984375 10.453125 37.984375 14.40625 
Q 37.984375 18.0625 35.515625 20.015625 
Q 33.0625 21.96875 24.703125 23.78125 
L 21.578125 24.515625 
Q 13.234375 26.265625 9.515625 29.90625 
Q 5.8125 33.546875 5.8125 39.890625 
Q 5.8125 47.609375 11.28125 51.796875 
Q 16.75 56 26.8125 56 
Q 31.78125 56 36.171875 55.265625 
Q 40.578125 54.546875 44.28125 53.078125 
z
" id="DejaVuSans-115"/>
      <path d="M 4.203125 54.6875 
L 13.1875 54.6875 
L 24.421875 12.015625 
L 35.59375 54.6875 
L 46.1875 54.6875 
L 57.421875 12.015625 
L 68.609375 54.6875 
L 77.59375 54.6875 
L 63.28125 0 
L 52.6875 0 
L 40.921875 44.828125 
L 29.109375 0 
L 18.5 0 
z
" id="DejaVuSans-119"/>
      <path d="M 9.421875 54.6875 
L 18.40625 54.6875 
L 18.40625 0 
L 9.421875 0 
z
M 9.421875 75.984375 
L 18.40625 75.984375 
L 18.40625 64.59375 
L 9.421875 64.59375 
z
" id="DejaVuSans-105"/>
      <path d="M 54.890625 33.015625 
L 54.890625 0 
L 45.90625 0 
L 45.90625 32.71875 
Q 45.90625 40.484375 42.875 44.328125 
Q 39.84375 48.1875 33.796875 48.1875 
Q 26.515625 48.1875 22.3125 43.546875 
Q 18.109375 38.921875 18.109375 30.90625 
L 18.109375 0 
L 9.078125 0 
L 9.078125 75.984375 
L 18.109375 75.984375 
L 18.109375 46.1875 
Q 21.34375 51.125 25.703125 53.5625 
Q 30.078125 56 35.796875 56 
Q 45.21875 56 50.046875 50.171875 
Q 54.890625 44.34375 54.890625 33.015625 
z
" id="DejaVuSans-104"/>
      <path d="M 37.203125 26.21875 
Q 37.203125 19.234375 40.671875 15.25 
Q 44.140625 11.28125 50.203125 11.28125 
Q 56.203125 11.28125 59.640625 15.28125 
Q 63.09375 19.28125 63.09375 26.21875 
Q 63.09375 33.0625 59.578125 37.078125 
Q 56.0625 41.109375 50.09375 41.109375 
Q 44.1875 41.109375 40.6875 37.109375 
Q 37.203125 33.109375 37.203125 26.21875 
z
M 63.8125 11.625 
Q 60.890625 7.859375 57.109375 6.078125 
Q 53.328125 4.296875 48.296875 4.296875 
Q 39.890625 4.296875 34.640625 10.375 
Q 29.390625 16.453125 29.390625 26.21875 
Q 29.390625 35.984375 34.65625 42.078125 
Q 39.9375 48.1875 48.296875 48.1875 
Q 53.328125 48.1875 57.125 46.359375 
Q 60.9375 44.53125 63.8125 40.828125 
L 63.8125 47.21875 
L 70.796875 47.21875 
L 70.796875 11.28125 
Q 77.9375 12.359375 81.953125 17.796875 
Q 85.984375 23.25 85.984375 31.890625 
Q 85.984375 37.109375 84.4375 41.703125 
Q 82.90625 46.296875 79.78125 50.203125 
Q 74.703125 56.59375 67.40625 59.984375 
Q 60.109375 63.375 51.515625 63.375 
Q 45.515625 63.375 39.984375 61.78125 
Q 34.46875 60.203125 29.78125 57.078125 
Q 22.125 52.09375 17.796875 44.015625 
Q 13.484375 35.9375 13.484375 26.515625 
Q 13.484375 18.75 16.28125 11.953125 
Q 19.09375 5.171875 24.421875 0 
Q 29.546875 -5.078125 36.28125 -7.734375 
Q 43.015625 -10.40625 50.6875 -10.40625 
Q 56.984375 -10.40625 63.0625 -8.28125 
Q 69.140625 -6.15625 74.21875 -2.203125 
L 78.609375 -7.625 
Q 72.515625 -12.359375 65.3125 -14.875 
Q 58.109375 -17.390625 50.6875 -17.390625 
Q 41.65625 -17.390625 33.640625 -14.1875 
Q 25.640625 -10.984375 19.390625 -4.890625 
Q 13.140625 1.21875 9.859375 9.25 
Q 6.59375 17.28125 6.59375 26.515625 
Q 6.59375 35.40625 9.90625 43.453125 
Q 13.234375 51.515625 19.390625 57.625 
Q 25.6875 63.8125 33.9375 67.109375 
Q 42.1875 70.40625 51.421875 70.40625 
Q 61.765625 70.40625 70.625 66.15625 
Q 79.5 61.921875 85.5 54.109375 
Q 89.15625 49.3125 91.078125 43.703125 
Q 93.015625 38.09375 93.015625 32.078125 
Q 93.015625 19.234375 85.25 11.8125 
Q 77.484375 4.390625 63.8125 4.109375 
z
" id="DejaVuSans-64"/>
     </defs>
     <use xlink:href="#DejaVuSans-71"/>
     <use x="77.490234" xlink:href="#DejaVuSans-97"/>
     <use x="138.769531" xlink:href="#DejaVuSans-116"/>
     <use x="177.978516" xlink:href="#DejaVuSans-101"/>
     <use x="239.501953" xlink:href="#DejaVuSans-100"/>
     <use x="302.978516" xlink:href="#DejaVuSans-58"/>
     <use x="336.669922" xlink:href="#DejaVuSans-32"/>
     <use x="368.457031" xlink:href="#DejaVuSans-69"/>
     <use x="431.640625" xlink:href="#DejaVuSans-110"/>
     <use x="495.019531" xlink:href="#DejaVuSans-101"/>
     <use x="556.542969" xlink:href="#DejaVuSans-114"/>
     <use x="595.90625" xlink:href="#DejaVuSans-103"/>
     <use x="659.382812" xlink:href="#DejaVuSans-121"/>
     <use x="718.5625" xlink:href="#DejaVuSans-32"/>
     <use x="750.349609" xlink:href="#DejaVuSans-118"/>
     <use x="809.529297" xlink:href="#DejaVuSans-115"/>
     <use x="861.628906" xlink:href="#DejaVuSans-46"/>
     <use x="893.416016" xlink:href="#DejaVuSans-32"/>
     <use x="925.203125" xlink:href="#DejaVuSans-65"/>
     <use x="991.861328" xlink:href="#DejaVuSans-99"/>
     <use x="1046.841797" xlink:href="#DejaVuSans-99"/>
     <use x="1101.822266" xlink:href="#DejaVuSans-117"/>
     <use x="1165.201172" xlink:href="#DejaVuSans-114"/>
     <use x="1206.314453" xlink:href="#DejaVuSans-97"/>
     <use x="1267.59375" xlink:href="#DejaVuSans-99"/>
     <use x="1322.574219" xlink:href="#DejaVuSans-121"/>
     <use x="1381.753906" xlink:href="#DejaVuSans-32"/>
     <use x="1413.541016" xlink:href="#DejaVuSans-119"/>
     <use x="1495.328125" xlink:href="#DejaVuSans-105"/>
     <use x="1523.111328" xlink:href="#DejaVuSans-116"/>
     <use x="1562.320312" xlink:href="#DejaVuSans-104"/>
     <use x="1625.699219" xlink:href="#DejaVuSans-32"/>
     <use x="1657.486328" xlink:href="#DejaVuSans-50"/>
     <use x="1721.109375" xlink:href="#DejaVuSans-48"/>
     <use x="1784.732422" xlink:href="#DejaVuSans-48"/>
     <use x="1848.355469" xlink:href="#DejaVuSans-32"/>
     <use x="1880.142578" xlink:href="#DejaVuSans-85"/>
     <use x="1953.335938" xlink:href="#DejaVuSans-110"/>
     <use x="2016.714844" xlink:href="#DejaVuSans-105"/>
     <use x="2044.498047" xlink:href="#DejaVuSans-116"/>
     <use x="2083.707031" xlink:href="#DejaVuSans-115"/>
     <use x="2135.806641" xlink:href="#DejaVuSans-32"/>
     <use x="2167.59375" xlink:href="#DejaVuSans-64"/>
     <use x="2267.59375" xlink:href="#DejaVuSans-32"/>
     <use x="2299.380859" xlink:href="#DejaVuSans-48"/>
     <use x="2363.003906" xlink:href="#DejaVuSans-46"/>
     <use x="2394.791016" xlink:href="#DejaVuSans-56"/>
     <use x="2458.414062" xlink:href="#DejaVuSans-53"/>
    </g>
   </g>
   <g id="legend_1">
    <g id="patch_7">
     <path d="M 785.663125 493 
L 1021.4 493 
Q 1025.8 493 1025.8 488.6 
L 1025.8 361.6325 
Q 1025.8 357.2325 1021.4 357.2325 
L 785.663125 357.2325 
Q 781.263125 357.2325 781.263125 361.6325 
L 781.263125 488.6 
Q 781.263125 493 785.663125 493 
z
" style="fill:#ffffff;opacity:0.8;stroke:#cccccc;stroke-linejoin:miter;"/>
    </g>
    <g id="line2d_60">
     <path d="M 790.063125 375.049062 
L 834.063125 375.049062 
" style="fill:none;stroke:#1f1f1f;stroke-linecap:square;stroke-width:5;"/>
    </g>
    <g id="line2d_61"/>
    <g id="text_18">
     <!-- Ungated: 1.0 -->
     <g transform="translate(851.663125 382.749062)scale(0.22 -0.22)">
      <use xlink:href="#DejaVuSans-85"/>
      <use x="73.193359" xlink:href="#DejaVuSans-110"/>
      <use x="136.572266" xlink:href="#DejaVuSans-103"/>
      <use x="200.048828" xlink:href="#DejaVuSans-97"/>
      <use x="261.328125" xlink:href="#DejaVuSans-116"/>
      <use x="300.537109" xlink:href="#DejaVuSans-101"/>
      <use x="362.060547" xlink:href="#DejaVuSans-100"/>
      <use x="425.537109" xlink:href="#DejaVuSans-58"/>
      <use x="459.228516" xlink:href="#DejaVuSans-32"/>
      <use x="491.015625" xlink:href="#DejaVuSans-49"/>
      <use x="554.638672" xlink:href="#DejaVuSans-46"/>
      <use x="586.425781" xlink:href="#DejaVuSans-48"/>
     </g>
    </g>
    <g id="line2d_62">
     <path d="M 790.063125 407.340937 
L 834.063125 407.340937 
" style="fill:none;stroke:#9e9e9e;stroke-linecap:square;stroke-width:5;"/>
    </g>
    <g id="line2d_63"/>
    <g id="text_19">
     <!-- Minimum: 1.0 -->
     <g transform="translate(851.663125 415.040937)scale(0.22 -0.22)">
      <defs>
       <path d="M 9.8125 72.90625 
L 24.515625 72.90625 
L 43.109375 23.296875 
L 61.8125 72.90625 
L 76.515625 72.90625 
L 76.515625 0 
L 66.890625 0 
L 66.890625 64.015625 
L 48.09375 14.015625 
L 38.1875 14.015625 
L 19.390625 64.015625 
L 19.390625 0 
L 9.8125 0 
z
" id="DejaVuSans-77"/>
       <path d="M 52 44.1875 
Q 55.375 50.25 60.0625 53.125 
Q 64.75 56 71.09375 56 
Q 79.640625 56 84.28125 50.015625 
Q 88.921875 44.046875 88.921875 33.015625 
L 88.921875 0 
L 79.890625 0 
L 79.890625 32.71875 
Q 79.890625 40.578125 77.09375 44.375 
Q 74.3125 48.1875 68.609375 48.1875 
Q 61.625 48.1875 57.5625 43.546875 
Q 53.515625 38.921875 53.515625 30.90625 
L 53.515625 0 
L 44.484375 0 
L 44.484375 32.71875 
Q 44.484375 40.625 41.703125 44.40625 
Q 38.921875 48.1875 33.109375 48.1875 
Q 26.21875 48.1875 22.15625 43.53125 
Q 18.109375 38.875 18.109375 30.90625 
L 18.109375 0 
L 9.078125 0 
L 9.078125 54.6875 
L 18.109375 54.6875 
L 18.109375 46.1875 
Q 21.1875 51.21875 25.484375 53.609375 
Q 29.78125 56 35.6875 56 
Q 41.65625 56 45.828125 52.96875 
Q 50 49.953125 52 44.1875 
z
" id="DejaVuSans-109"/>
      </defs>
      <use xlink:href="#DejaVuSans-77"/>
      <use x="86.279297" xlink:href="#DejaVuSans-105"/>
      <use x="114.0625" xlink:href="#DejaVuSans-110"/>
      <use x="177.441406" xlink:href="#DejaVuSans-105"/>
      <use x="205.224609" xlink:href="#DejaVuSans-109"/>
      <use x="302.636719" xlink:href="#DejaVuSans-117"/>
      <use x="366.015625" xlink:href="#DejaVuSans-109"/>
      <use x="463.427734" xlink:href="#DejaVuSans-58"/>
      <use x="497.119141" xlink:href="#DejaVuSans-32"/>
      <use x="528.90625" xlink:href="#DejaVuSans-49"/>
      <use x="592.529297" xlink:href="#DejaVuSans-46"/>
      <use x="624.316406" xlink:href="#DejaVuSans-48"/>
     </g>
    </g>
    <g id="line2d_64">
     <path d="M 790.063125 439.632812 
L 834.063125 439.632812 
" style="fill:none;stroke:#2ecbff;stroke-linecap:square;stroke-width:5;"/>
    </g>
    <g id="line2d_65"/>
    <g id="text_20">
     <!-- Gated: 0.85 -->
     <g transform="translate(851.663125 447.332812)scale(0.22 -0.22)">
      <use xlink:href="#DejaVuSans-71"/>
      <use x="77.490234" xlink:href="#DejaVuSans-97"/>
      <use x="138.769531" xlink:href="#DejaVuSans-116"/>
      <use x="177.978516" xlink:href="#DejaVuSans-101"/>
      <use x="239.501953" xlink:href="#DejaVuSans-100"/>
      <use x="302.978516" xlink:href="#DejaVuSans-58"/>
      <use x="336.669922" xlink:href="#DejaVuSans-32"/>
      <use x="368.457031" xlink:href="#DejaVuSans-48"/>
      <use x="432.080078" xlink:href="#DejaVuSans-46"/>
      <use x="463.867188" xlink:href="#DejaVuSans-56"/>
      <use x="527.490234" xlink:href="#DejaVuSans-53"/>
     </g>
    </g>
    <g id="line2d_66">
     <path d="M 790.063125 471.924688 
L 834.063125 471.924688 
" style="fill:none;stroke:#9deaff;stroke-linecap:square;stroke-width:5;"/>
    </g>
    <g id="line2d_67"/>
    <g id="text_21">
     <!-- Minimum: 0.85 -->
     <g transform="translate(851.663125 479.624687)scale(0.22 -0.22)">
      <use xlink:href="#DejaVuSans-77"/>
      <use x="86.279297" xlink:href="#DejaVuSans-105"/>
      <use x="114.0625" xlink:href="#DejaVuSans-110"/>
      <use x="177.441406" xlink:href="#DejaVuSans-105"/>
      <use x="205.224609" xlink:href="#DejaVuSans-109"/>
      <use x="302.636719" xlink:href="#DejaVuSans-117"/>
      <use x="366.015625" xlink:href="#DejaVuSans-109"/>
      <use x="463.427734" xlink:href="#DejaVuSans-58"/>
      <use x="497.119141" xlink:href="#DejaVuSans-32"/>
      <use x="528.90625" xlink:href="#DejaVuSans-48"/>
      <use x="592.529297" xlink:href="#DejaVuSans-46"/>
      <use x="624.316406" xlink:href="#DejaVuSans-56"/>
      <use x="687.939453" xlink:href="#DejaVuSans-53"/>
     </g>
    </g>
   </g>
  </g>
 </g>
 <defs>
  <clipPath id="pd8a5196ceb">
   <rect height="434.88" width="892.8" x="144" y="69.12"/>
  </clipPath>
 </defs>
</svg>
