<?xml version="1.0" encoding="utf-8" standalone="no"?>
<!DOCTYPE svg PUBLIC "-//W3C//DTD SVG 1.1//EN"
  "http://www.w3.org/Graphics/SVG/1.1/DTD/svg11.dtd">
<!-- Created with matplotlib (https://matplotlib.org/) -->
<svg height="576pt" version="1.1" viewBox="0 0 1152 576" width="1152pt" xmlns="http://www.w3.org/2000/svg" xmlns:xlink="http://www.w3.org/1999/xlink">
 <metadata>
  <rdf:RDF xmlns:cc="http://creativecommons.org/ns#" xmlns:dc="http://purl.org/dc/elements/1.1/" xmlns:rdf="http://www.w3.org/1999/02/22-rdf-syntax-ns#">
   <cc:Work>
    <dc:type rdf:resource="http://purl.org/dc/dcmitype/StillImage"/>
    <dc:date>2021-09-12T15:19:38.727470</dc:date>
    <dc:format>image/svg+xml</dc:format>
    <dc:creator>
     <cc:Agent>
      <dc:title>Matplotlib v3.3.4, https://matplotlib.org/</dc:title>
     </cc:Agent>
    </dc:creator>
   </cc:Work>
  </rdf:RDF>
 </metadata>
 <defs>
  <style type="text/css">*{stroke-linecap:butt;stroke-linejoin:round;}</style>
 </defs>
 <g id="figure_1">
  <g id="patch_1">
   <path d="M 0 576 
L 1152 576 
L 1152 0 
L 0 0 
z
" style="fill:#ffffff;"/>
  </g>
  <g id="axes_1">
   <g id="patch_2">
    <path d="M 144 504 
L 1036.8 504 
L 1036.8 69.12 
L 144 69.12 
z
" style="fill:#ffffff;"/>
   </g>
   <g id="matplotlib.axis_1">
    <g id="xtick_1">
     <g id="line2d_1">
      <defs>
       <path d="M 0 0 
L 0 3.5 
" id="m2cc8d281fd" style="stroke:#000000;stroke-width:0.8;"/>
      </defs>
      <g>
       <use style="stroke:#000000;stroke-width:0.8;" x="144" xlink:href="#m2cc8d281fd" y="504"/>
      </g>
     </g>
     <g id="text_1">
      <!-- 84 -->
      <g transform="translate(128.73 529.23625)scale(0.24 -0.24)">
       <defs>
        <path d="M 31.78125 34.625 
Q 24.75 34.625 20.71875 30.859375 
Q 16.703125 27.09375 16.703125 20.515625 
Q 16.703125 13.921875 20.71875 10.15625 
Q 24.75 6.390625 31.78125 6.390625 
Q 38.8125 6.390625 42.859375 10.171875 
Q 46.921875 13.96875 46.921875 20.515625 
Q 46.921875 27.09375 42.890625 30.859375 
Q 38.875 34.625 31.78125 34.625 
z
M 21.921875 38.8125 
Q 15.578125 40.375 12.03125 44.71875 
Q 8.5 49.078125 8.5 55.328125 
Q 8.5 64.0625 14.71875 69.140625 
Q 20.953125 74.21875 31.78125 74.21875 
Q 42.671875 74.21875 48.875 69.140625 
Q 55.078125 64.0625 55.078125 55.328125 
Q 55.078125 49.078125 51.53125 44.71875 
Q 48 40.375 41.703125 38.8125 
Q 48.828125 37.15625 52.796875 32.3125 
Q 56.78125 27.484375 56.78125 20.515625 
Q 56.78125 9.90625 50.3125 4.234375 
Q 43.84375 -1.421875 31.78125 -1.421875 
Q 19.734375 -1.421875 13.25 4.234375 
Q 6.78125 9.90625 6.78125 20.515625 
Q 6.78125 27.484375 10.78125 32.3125 
Q 14.796875 37.15625 21.921875 38.8125 
z
M 18.3125 54.390625 
Q 18.3125 48.734375 21.84375 45.5625 
Q 25.390625 42.390625 31.78125 42.390625 
Q 38.140625 42.390625 41.71875 45.5625 
Q 45.3125 48.734375 45.3125 54.390625 
Q 45.3125 60.0625 41.71875 63.234375 
Q 38.140625 66.40625 31.78125 66.40625 
Q 25.390625 66.40625 21.84375 63.234375 
Q 18.3125 60.0625 18.3125 54.390625 
z
" id="DejaVuSans-56"/>
        <path d="M 37.796875 64.3125 
L 12.890625 25.390625 
L 37.796875 25.390625 
z
M 35.203125 72.90625 
L 47.609375 72.90625 
L 47.609375 25.390625 
L 58.015625 25.390625 
L 58.015625 17.1875 
L 47.609375 17.1875 
L 47.609375 0 
L 37.796875 0 
L 37.796875 17.1875 
L 4.890625 17.1875 
L 4.890625 26.703125 
z
" id="DejaVuSans-52"/>
       </defs>
       <use xlink:href="#DejaVuSans-56"/>
       <use x="63.623047" xlink:href="#DejaVuSans-52"/>
      </g>
     </g>
    </g>
    <g id="xtick_2">
     <g id="line2d_2">
      <g>
       <use style="stroke:#000000;stroke-width:0.8;" x="255.6" xlink:href="#m2cc8d281fd" y="504"/>
      </g>
     </g>
     <g id="text_2">
      <!-- 86 -->
      <g transform="translate(240.33 529.23625)scale(0.24 -0.24)">
       <defs>
        <path d="M 33.015625 40.375 
Q 26.375 40.375 22.484375 35.828125 
Q 18.609375 31.296875 18.609375 23.390625 
Q 18.609375 15.53125 22.484375 10.953125 
Q 26.375 6.390625 33.015625 6.390625 
Q 39.65625 6.390625 43.53125 10.953125 
Q 47.40625 15.53125 47.40625 23.390625 
Q 47.40625 31.296875 43.53125 35.828125 
Q 39.65625 40.375 33.015625 40.375 
z
M 52.59375 71.296875 
L 52.59375 62.3125 
Q 48.875 64.0625 45.09375 64.984375 
Q 41.3125 65.921875 37.59375 65.921875 
Q 27.828125 65.921875 22.671875 59.328125 
Q 17.53125 52.734375 16.796875 39.40625 
Q 19.671875 43.65625 24.015625 45.921875 
Q 28.375 48.1875 33.59375 48.1875 
Q 44.578125 48.1875 50.953125 41.515625 
Q 57.328125 34.859375 57.328125 23.390625 
Q 57.328125 12.15625 50.6875 5.359375 
Q 44.046875 -1.421875 33.015625 -1.421875 
Q 20.359375 -1.421875 13.671875 8.265625 
Q 6.984375 17.96875 6.984375 36.375 
Q 6.984375 53.65625 15.1875 63.9375 
Q 23.390625 74.21875 37.203125 74.21875 
Q 40.921875 74.21875 44.703125 73.484375 
Q 48.484375 72.75 52.59375 71.296875 
z
" id="DejaVuSans-54"/>
       </defs>
       <use xlink:href="#DejaVuSans-56"/>
       <use x="63.623047" xlink:href="#DejaVuSans-54"/>
      </g>
     </g>
    </g>
    <g id="xtick_3">
     <g id="line2d_3">
      <g>
       <use style="stroke:#000000;stroke-width:0.8;" x="367.2" xlink:href="#m2cc8d281fd" y="504"/>
      </g>
     </g>
     <g id="text_3">
      <!-- 88 -->
      <g transform="translate(351.93 529.23625)scale(0.24 -0.24)">
       <use xlink:href="#DejaVuSans-56"/>
       <use x="63.623047" xlink:href="#DejaVuSans-56"/>
      </g>
     </g>
    </g>
    <g id="xtick_4">
     <g id="line2d_4">
      <g>
       <use style="stroke:#000000;stroke-width:0.8;" x="478.8" xlink:href="#m2cc8d281fd" y="504"/>
      </g>
     </g>
     <g id="text_4">
      <!-- 90 -->
      <g transform="translate(463.53 529.23625)scale(0.24 -0.24)">
       <defs>
        <path d="M 10.984375 1.515625 
L 10.984375 10.5 
Q 14.703125 8.734375 18.5 7.8125 
Q 22.3125 6.890625 25.984375 6.890625 
Q 35.75 6.890625 40.890625 13.453125 
Q 46.046875 20.015625 46.78125 33.40625 
Q 43.953125 29.203125 39.59375 26.953125 
Q 35.25 24.703125 29.984375 24.703125 
Q 19.046875 24.703125 12.671875 31.3125 
Q 6.296875 37.9375 6.296875 49.421875 
Q 6.296875 60.640625 12.9375 67.421875 
Q 19.578125 74.21875 30.609375 74.21875 
Q 43.265625 74.21875 49.921875 64.515625 
Q 56.59375 54.828125 56.59375 36.375 
Q 56.59375 19.140625 48.40625 8.859375 
Q 40.234375 -1.421875 26.421875 -1.421875 
Q 22.703125 -1.421875 18.890625 -0.6875 
Q 15.09375 0.046875 10.984375 1.515625 
z
M 30.609375 32.421875 
Q 37.25 32.421875 41.125 36.953125 
Q 45.015625 41.5 45.015625 49.421875 
Q 45.015625 57.28125 41.125 61.84375 
Q 37.25 66.40625 30.609375 66.40625 
Q 23.96875 66.40625 20.09375 61.84375 
Q 16.21875 57.28125 16.21875 49.421875 
Q 16.21875 41.5 20.09375 36.953125 
Q 23.96875 32.421875 30.609375 32.421875 
z
" id="DejaVuSans-57"/>
        <path d="M 31.78125 66.40625 
Q 24.171875 66.40625 20.328125 58.90625 
Q 16.5 51.421875 16.5 36.375 
Q 16.5 21.390625 20.328125 13.890625 
Q 24.171875 6.390625 31.78125 6.390625 
Q 39.453125 6.390625 43.28125 13.890625 
Q 47.125 21.390625 47.125 36.375 
Q 47.125 51.421875 43.28125 58.90625 
Q 39.453125 66.40625 31.78125 66.40625 
z
M 31.78125 74.21875 
Q 44.046875 74.21875 50.515625 64.515625 
Q 56.984375 54.828125 56.984375 36.375 
Q 56.984375 17.96875 50.515625 8.265625 
Q 44.046875 -1.421875 31.78125 -1.421875 
Q 19.53125 -1.421875 13.0625 8.265625 
Q 6.59375 17.96875 6.59375 36.375 
Q 6.59375 54.828125 13.0625 64.515625 
Q 19.53125 74.21875 31.78125 74.21875 
z
" id="DejaVuSans-48"/>
       </defs>
       <use xlink:href="#DejaVuSans-57"/>
       <use x="63.623047" xlink:href="#DejaVuSans-48"/>
      </g>
     </g>
    </g>
    <g id="xtick_5">
     <g id="line2d_5">
      <g>
       <use style="stroke:#000000;stroke-width:0.8;" x="590.4" xlink:href="#m2cc8d281fd" y="504"/>
      </g>
     </g>
     <g id="text_5">
      <!-- 92 -->
      <g transform="translate(575.13 529.23625)scale(0.24 -0.24)">
       <defs>
        <path d="M 19.1875 8.296875 
L 53.609375 8.296875 
L 53.609375 0 
L 7.328125 0 
L 7.328125 8.296875 
Q 12.9375 14.109375 22.625 23.890625 
Q 32.328125 33.6875 34.8125 36.53125 
Q 39.546875 41.84375 41.421875 45.53125 
Q 43.3125 49.21875 43.3125 52.78125 
Q 43.3125 58.59375 39.234375 62.25 
Q 35.15625 65.921875 28.609375 65.921875 
Q 23.96875 65.921875 18.8125 64.3125 
Q 13.671875 62.703125 7.8125 59.421875 
L 7.8125 69.390625 
Q 13.765625 71.78125 18.9375 73 
Q 24.125 74.21875 28.421875 74.21875 
Q 39.75 74.21875 46.484375 68.546875 
Q 53.21875 62.890625 53.21875 53.421875 
Q 53.21875 48.921875 51.53125 44.890625 
Q 49.859375 40.875 45.40625 35.40625 
Q 44.1875 33.984375 37.640625 27.21875 
Q 31.109375 20.453125 19.1875 8.296875 
z
" id="DejaVuSans-50"/>
       </defs>
       <use xlink:href="#DejaVuSans-57"/>
       <use x="63.623047" xlink:href="#DejaVuSans-50"/>
      </g>
     </g>
    </g>
    <g id="xtick_6">
     <g id="line2d_6">
      <g>
       <use style="stroke:#000000;stroke-width:0.8;" x="702" xlink:href="#m2cc8d281fd" y="504"/>
      </g>
     </g>
     <g id="text_6">
      <!-- 94 -->
      <g transform="translate(686.73 529.23625)scale(0.24 -0.24)">
       <use xlink:href="#DejaVuSans-57"/>
       <use x="63.623047" xlink:href="#DejaVuSans-52"/>
      </g>
     </g>
    </g>
    <g id="xtick_7">
     <g id="line2d_7">
      <g>
       <use style="stroke:#000000;stroke-width:0.8;" x="813.6" xlink:href="#m2cc8d281fd" y="504"/>
      </g>
     </g>
     <g id="text_7">
      <!-- 96 -->
      <g transform="translate(798.33 529.23625)scale(0.24 -0.24)">
       <use xlink:href="#DejaVuSans-57"/>
       <use x="63.623047" xlink:href="#DejaVuSans-54"/>
      </g>
     </g>
    </g>
    <g id="xtick_8">
     <g id="line2d_8">
      <g>
       <use style="stroke:#000000;stroke-width:0.8;" x="925.2" xlink:href="#m2cc8d281fd" y="504"/>
      </g>
     </g>
     <g id="text_8">
      <!-- 98 -->
      <g transform="translate(909.93 529.23625)scale(0.24 -0.24)">
       <use xlink:href="#DejaVuSans-57"/>
       <use x="63.623047" xlink:href="#DejaVuSans-56"/>
      </g>
     </g>
    </g>
    <g id="xtick_9">
     <g id="line2d_9">
      <g>
       <use style="stroke:#000000;stroke-width:0.8;" x="1036.8" xlink:href="#m2cc8d281fd" y="504"/>
      </g>
     </g>
     <g id="text_9">
      <!-- 100 -->
      <g transform="translate(1013.895 529.23625)scale(0.24 -0.24)">
       <defs>
        <path d="M 12.40625 8.296875 
L 28.515625 8.296875 
L 28.515625 63.921875 
L 10.984375 60.40625 
L 10.984375 69.390625 
L 28.421875 72.90625 
L 38.28125 72.90625 
L 38.28125 8.296875 
L 54.390625 8.296875 
L 54.390625 0 
L 12.40625 0 
z
" id="DejaVuSans-49"/>
       </defs>
       <use xlink:href="#DejaVuSans-49"/>
       <use x="63.623047" xlink:href="#DejaVuSans-48"/>
       <use x="127.246094" xlink:href="#DejaVuSans-48"/>
      </g>
     </g>
    </g>
    <g id="text_10">
     <!-- Accuracy /% -->
     <g transform="translate(504.013437 559.503125)scale(0.28 -0.28)">
      <defs>
       <path d="M 34.1875 63.1875 
L 20.796875 26.90625 
L 47.609375 26.90625 
z
M 28.609375 72.90625 
L 39.796875 72.90625 
L 67.578125 0 
L 57.328125 0 
L 50.6875 18.703125 
L 17.828125 18.703125 
L 11.1875 0 
L 0.78125 0 
z
" id="DejaVuSans-65"/>
       <path d="M 48.78125 52.59375 
L 48.78125 44.1875 
Q 44.96875 46.296875 41.140625 47.34375 
Q 37.3125 48.390625 33.40625 48.390625 
Q 24.65625 48.390625 19.8125 42.84375 
Q 14.984375 37.3125 14.984375 27.296875 
Q 14.984375 17.28125 19.8125 11.734375 
Q 24.65625 6.203125 33.40625 6.203125 
Q 37.3125 6.203125 41.140625 7.25 
Q 44.96875 8.296875 48.78125 10.40625 
L 48.78125 2.09375 
Q 45.015625 0.34375 40.984375 -0.53125 
Q 36.96875 -1.421875 32.421875 -1.421875 
Q 20.0625 -1.421875 12.78125 6.34375 
Q 5.515625 14.109375 5.515625 27.296875 
Q 5.515625 40.671875 12.859375 48.328125 
Q 20.21875 56 33.015625 56 
Q 37.15625 56 41.109375 55.140625 
Q 45.0625 54.296875 48.78125 52.59375 
z
" id="DejaVuSans-99"/>
       <path d="M 8.5 21.578125 
L 8.5 54.6875 
L 17.484375 54.6875 
L 17.484375 21.921875 
Q 17.484375 14.15625 20.5 10.265625 
Q 23.53125 6.390625 29.59375 6.390625 
Q 36.859375 6.390625 41.078125 11.03125 
Q 45.3125 15.671875 45.3125 23.6875 
L 45.3125 54.6875 
L 54.296875 54.6875 
L 54.296875 0 
L 45.3125 0 
L 45.3125 8.40625 
Q 42.046875 3.421875 37.71875 1 
Q 33.40625 -1.421875 27.6875 -1.421875 
Q 18.265625 -1.421875 13.375 4.4375 
Q 8.5 10.296875 8.5 21.578125 
z
M 31.109375 56 
z
" id="DejaVuSans-117"/>
       <path d="M 41.109375 46.296875 
Q 39.59375 47.171875 37.8125 47.578125 
Q 36.03125 48 33.890625 48 
Q 26.265625 48 22.1875 43.046875 
Q 18.109375 38.09375 18.109375 28.8125 
L 18.109375 0 
L 9.078125 0 
L 9.078125 54.6875 
L 18.109375 54.6875 
L 18.109375 46.1875 
Q 20.953125 51.171875 25.484375 53.578125 
Q 30.03125 56 36.53125 56 
Q 37.453125 56 38.578125 55.875 
Q 39.703125 55.765625 41.0625 55.515625 
z
" id="DejaVuSans-114"/>
       <path d="M 34.28125 27.484375 
Q 23.390625 27.484375 19.1875 25 
Q 14.984375 22.515625 14.984375 16.5 
Q 14.984375 11.71875 18.140625 8.90625 
Q 21.296875 6.109375 26.703125 6.109375 
Q 34.1875 6.109375 38.703125 11.40625 
Q 43.21875 16.703125 43.21875 25.484375 
L 43.21875 27.484375 
z
M 52.203125 31.203125 
L 52.203125 0 
L 43.21875 0 
L 43.21875 8.296875 
Q 40.140625 3.328125 35.546875 0.953125 
Q 30.953125 -1.421875 24.3125 -1.421875 
Q 15.921875 -1.421875 10.953125 3.296875 
Q 6 8.015625 6 15.921875 
Q 6 25.140625 12.171875 29.828125 
Q 18.359375 34.515625 30.609375 34.515625 
L 43.21875 34.515625 
L 43.21875 35.40625 
Q 43.21875 41.609375 39.140625 45 
Q 35.0625 48.390625 27.6875 48.390625 
Q 23 48.390625 18.546875 47.265625 
Q 14.109375 46.140625 10.015625 43.890625 
L 10.015625 52.203125 
Q 14.9375 54.109375 19.578125 55.046875 
Q 24.21875 56 28.609375 56 
Q 40.484375 56 46.34375 49.84375 
Q 52.203125 43.703125 52.203125 31.203125 
z
" id="DejaVuSans-97"/>
       <path d="M 32.171875 -5.078125 
Q 28.375 -14.84375 24.75 -17.8125 
Q 21.140625 -20.796875 15.09375 -20.796875 
L 7.90625 -20.796875 
L 7.90625 -13.28125 
L 13.1875 -13.28125 
Q 16.890625 -13.28125 18.9375 -11.515625 
Q 21 -9.765625 23.484375 -3.21875 
L 25.09375 0.875 
L 2.984375 54.6875 
L 12.5 54.6875 
L 29.59375 11.921875 
L 46.6875 54.6875 
L 56.203125 54.6875 
z
" id="DejaVuSans-121"/>
       <path id="DejaVuSans-32"/>
       <path d="M 25.390625 72.90625 
L 33.6875 72.90625 
L 8.296875 -9.28125 
L 0 -9.28125 
z
" id="DejaVuSans-47"/>
       <path d="M 72.703125 32.078125 
Q 68.453125 32.078125 66.03125 28.46875 
Q 63.625 24.859375 63.625 18.40625 
Q 63.625 12.0625 66.03125 8.421875 
Q 68.453125 4.78125 72.703125 4.78125 
Q 76.859375 4.78125 79.265625 8.421875 
Q 81.6875 12.0625 81.6875 18.40625 
Q 81.6875 24.8125 79.265625 28.4375 
Q 76.859375 32.078125 72.703125 32.078125 
z
M 72.703125 38.28125 
Q 80.421875 38.28125 84.953125 32.90625 
Q 89.5 27.546875 89.5 18.40625 
Q 89.5 9.28125 84.9375 3.921875 
Q 80.375 -1.421875 72.703125 -1.421875 
Q 64.890625 -1.421875 60.34375 3.921875 
Q 55.8125 9.28125 55.8125 18.40625 
Q 55.8125 27.59375 60.375 32.9375 
Q 64.9375 38.28125 72.703125 38.28125 
z
M 22.3125 68.015625 
Q 18.109375 68.015625 15.6875 64.375 
Q 13.28125 60.75 13.28125 54.390625 
Q 13.28125 47.953125 15.671875 44.328125 
Q 18.0625 40.71875 22.3125 40.71875 
Q 26.5625 40.71875 28.96875 44.328125 
Q 31.390625 47.953125 31.390625 54.390625 
Q 31.390625 60.6875 28.953125 64.34375 
Q 26.515625 68.015625 22.3125 68.015625 
z
M 66.40625 74.21875 
L 74.21875 74.21875 
L 28.609375 -1.421875 
L 20.796875 -1.421875 
z
M 22.3125 74.21875 
Q 30.03125 74.21875 34.609375 68.875 
Q 39.203125 63.53125 39.203125 54.390625 
Q 39.203125 45.171875 34.640625 39.84375 
Q 30.078125 34.515625 22.3125 34.515625 
Q 14.546875 34.515625 10.03125 39.859375 
Q 5.515625 45.21875 5.515625 54.390625 
Q 5.515625 63.484375 10.046875 68.84375 
Q 14.59375 74.21875 22.3125 74.21875 
z
" id="DejaVuSans-37"/>
      </defs>
      <use xlink:href="#DejaVuSans-65"/>
      <use x="66.658203" xlink:href="#DejaVuSans-99"/>
      <use x="121.638672" xlink:href="#DejaVuSans-99"/>
      <use x="176.619141" xlink:href="#DejaVuSans-117"/>
      <use x="239.998047" xlink:href="#DejaVuSans-114"/>
      <use x="281.111328" xlink:href="#DejaVuSans-97"/>
      <use x="342.390625" xlink:href="#DejaVuSans-99"/>
      <use x="397.371094" xlink:href="#DejaVuSans-121"/>
      <use x="456.550781" xlink:href="#DejaVuSans-32"/>
      <use x="488.337891" xlink:href="#DejaVuSans-47"/>
      <use x="522.029297" xlink:href="#DejaVuSans-37"/>
     </g>
    </g>
   </g>
   <g id="matplotlib.axis_2">
    <g id="ytick_1">
     <g id="line2d_10">
      <defs>
       <path d="M 0 0 
L -3.5 0 
" id="md2049d401f" style="stroke:#000000;stroke-width:0.8;"/>
      </defs>
      <g>
       <use style="stroke:#000000;stroke-width:0.8;" x="144" xlink:href="#md2049d401f" y="444.362283"/>
      </g>
     </g>
     <g id="text_11">
      <!-- $\mathdefault{10^{1}}$ -->
      <g transform="translate(94.76 453.480408)scale(0.24 -0.24)">
       <use transform="translate(0 0.684375)" xlink:href="#DejaVuSans-49"/>
       <use transform="translate(63.623047 0.684375)" xlink:href="#DejaVuSans-48"/>
       <use transform="translate(128.203125 38.965625)scale(0.7)" xlink:href="#DejaVuSans-49"/>
      </g>
     </g>
    </g>
    <g id="ytick_2">
     <g id="line2d_11">
      <g>
       <use style="stroke:#000000;stroke-width:0.8;" x="144" xlink:href="#md2049d401f" y="359.04"/>
      </g>
     </g>
     <g id="text_12">
      <!-- $\mathdefault{10^{2}}$ -->
      <g transform="translate(94.76 368.158125)scale(0.24 -0.24)">
       <use transform="translate(0 0.765625)" xlink:href="#DejaVuSans-49"/>
       <use transform="translate(63.623047 0.765625)" xlink:href="#DejaVuSans-48"/>
       <use transform="translate(128.203125 39.046875)scale(0.7)" xlink:href="#DejaVuSans-50"/>
      </g>
     </g>
    </g>
    <g id="ytick_3">
     <g id="line2d_12">
      <g>
       <use style="stroke:#000000;stroke-width:0.8;" x="144" xlink:href="#md2049d401f" y="273.717717"/>
      </g>
     </g>
     <g id="text_13">
      <!-- $\mathdefault{10^{3}}$ -->
      <g transform="translate(94.76 282.835842)scale(0.24 -0.24)">
       <defs>
        <path d="M 40.578125 39.3125 
Q 47.65625 37.796875 51.625 33 
Q 55.609375 28.21875 55.609375 21.1875 
Q 55.609375 10.40625 48.1875 4.484375 
Q 40.765625 -1.421875 27.09375 -1.421875 
Q 22.515625 -1.421875 17.65625 -0.515625 
Q 12.796875 0.390625 7.625 2.203125 
L 7.625 11.71875 
Q 11.71875 9.328125 16.59375 8.109375 
Q 21.484375 6.890625 26.8125 6.890625 
Q 36.078125 6.890625 40.9375 10.546875 
Q 45.796875 14.203125 45.796875 21.1875 
Q 45.796875 27.640625 41.28125 31.265625 
Q 36.765625 34.90625 28.71875 34.90625 
L 20.21875 34.90625 
L 20.21875 43.015625 
L 29.109375 43.015625 
Q 36.375 43.015625 40.234375 45.921875 
Q 44.09375 48.828125 44.09375 54.296875 
Q 44.09375 59.90625 40.109375 62.90625 
Q 36.140625 65.921875 28.71875 65.921875 
Q 24.65625 65.921875 20.015625 65.03125 
Q 15.375 64.15625 9.8125 62.3125 
L 9.8125 71.09375 
Q 15.4375 72.65625 20.34375 73.4375 
Q 25.25 74.21875 29.59375 74.21875 
Q 40.828125 74.21875 47.359375 69.109375 
Q 53.90625 64.015625 53.90625 55.328125 
Q 53.90625 49.265625 50.4375 45.09375 
Q 46.96875 40.921875 40.578125 39.3125 
z
" id="DejaVuSans-51"/>
       </defs>
       <use transform="translate(0 0.765625)" xlink:href="#DejaVuSans-49"/>
       <use transform="translate(63.623047 0.765625)" xlink:href="#DejaVuSans-48"/>
       <use transform="translate(128.203125 39.046875)scale(0.7)" xlink:href="#DejaVuSans-51"/>
      </g>
     </g>
    </g>
    <g id="ytick_4">
     <g id="line2d_13">
      <g>
       <use style="stroke:#000000;stroke-width:0.8;" x="144" xlink:href="#md2049d401f" y="188.395433"/>
      </g>
     </g>
     <g id="text_14">
      <!-- $\mathdefault{10^{4}}$ -->
      <g transform="translate(94.76 197.513558)scale(0.24 -0.24)">
       <use transform="translate(0 0.684375)" xlink:href="#DejaVuSans-49"/>
       <use transform="translate(63.623047 0.684375)" xlink:href="#DejaVuSans-48"/>
       <use transform="translate(128.203125 38.965625)scale(0.7)" xlink:href="#DejaVuSans-52"/>
      </g>
     </g>
    </g>
    <g id="ytick_5">
     <g id="line2d_14">
      <g>
       <use style="stroke:#000000;stroke-width:0.8;" x="144" xlink:href="#md2049d401f" y="103.07315"/>
      </g>
     </g>
     <g id="text_15">
      <!-- $\mathdefault{10^{5}}$ -->
      <g transform="translate(94.76 112.191275)scale(0.24 -0.24)">
       <defs>
        <path d="M 10.796875 72.90625 
L 49.515625 72.90625 
L 49.515625 64.59375 
L 19.828125 64.59375 
L 19.828125 46.734375 
Q 21.96875 47.46875 24.109375 47.828125 
Q 26.265625 48.1875 28.421875 48.1875 
Q 40.625 48.1875 47.75 41.5 
Q 54.890625 34.8125 54.890625 23.390625 
Q 54.890625 11.625 47.5625 5.09375 
Q 40.234375 -1.421875 26.90625 -1.421875 
Q 22.3125 -1.421875 17.546875 -0.640625 
Q 12.796875 0.140625 7.71875 1.703125 
L 7.71875 11.625 
Q 12.109375 9.234375 16.796875 8.0625 
Q 21.484375 6.890625 26.703125 6.890625 
Q 35.15625 6.890625 40.078125 11.328125 
Q 45.015625 15.765625 45.015625 23.390625 
Q 45.015625 31 40.078125 35.4375 
Q 35.15625 39.890625 26.703125 39.890625 
Q 22.75 39.890625 18.8125 39.015625 
Q 14.890625 38.140625 10.796875 36.28125 
z
" id="DejaVuSans-53"/>
       </defs>
       <use transform="translate(0 0.684375)" xlink:href="#DejaVuSans-49"/>
       <use transform="translate(63.623047 0.684375)" xlink:href="#DejaVuSans-48"/>
       <use transform="translate(128.203125 38.965625)scale(0.7)" xlink:href="#DejaVuSans-53"/>
      </g>
     </g>
    </g>
    <g id="ytick_6">
     <g id="line2d_15">
      <defs>
       <path d="M 0 0 
L -2 0 
" id="m638c14db43" style="stroke:#000000;stroke-width:0.6;"/>
      </defs>
      <g>
       <use style="stroke:#000000;stroke-width:0.6;" x="144" xlink:href="#m638c14db43" y="504"/>
      </g>
     </g>
    </g>
    <g id="ytick_7">
     <g id="line2d_16">
      <g>
       <use style="stroke:#000000;stroke-width:0.6;" x="144" xlink:href="#m638c14db43" y="488.975492"/>
      </g>
     </g>
    </g>
    <g id="ytick_8">
     <g id="line2d_17">
      <g>
       <use style="stroke:#000000;stroke-width:0.6;" x="144" xlink:href="#m638c14db43" y="478.315433"/>
      </g>
     </g>
    </g>
    <g id="ytick_9">
     <g id="line2d_18">
      <g>
       <use style="stroke:#000000;stroke-width:0.6;" x="144" xlink:href="#m638c14db43" y="470.04685"/>
      </g>
     </g>
    </g>
    <g id="ytick_10">
     <g id="line2d_19">
      <g>
       <use style="stroke:#000000;stroke-width:0.6;" x="144" xlink:href="#m638c14db43" y="463.290925"/>
      </g>
     </g>
    </g>
    <g id="ytick_11">
     <g id="line2d_20">
      <g>
       <use style="stroke:#000000;stroke-width:0.6;" x="144" xlink:href="#m638c14db43" y="457.578872"/>
      </g>
     </g>
    </g>
    <g id="ytick_12">
     <g id="line2d_21">
      <g>
       <use style="stroke:#000000;stroke-width:0.6;" x="144" xlink:href="#m638c14db43" y="452.630867"/>
      </g>
     </g>
    </g>
    <g id="ytick_13">
     <g id="line2d_22">
      <g>
       <use style="stroke:#000000;stroke-width:0.6;" x="144" xlink:href="#m638c14db43" y="448.266417"/>
      </g>
     </g>
    </g>
    <g id="ytick_14">
     <g id="line2d_23">
      <g>
       <use style="stroke:#000000;stroke-width:0.6;" x="144" xlink:href="#m638c14db43" y="418.677717"/>
      </g>
     </g>
    </g>
    <g id="ytick_15">
     <g id="line2d_24">
      <g>
       <use style="stroke:#000000;stroke-width:0.6;" x="144" xlink:href="#m638c14db43" y="403.653208"/>
      </g>
     </g>
    </g>
    <g id="ytick_16">
     <g id="line2d_25">
      <g>
       <use style="stroke:#000000;stroke-width:0.6;" x="144" xlink:href="#m638c14db43" y="392.99315"/>
      </g>
     </g>
    </g>
    <g id="ytick_17">
     <g id="line2d_26">
      <g>
       <use style="stroke:#000000;stroke-width:0.6;" x="144" xlink:href="#m638c14db43" y="384.724567"/>
      </g>
     </g>
    </g>
    <g id="ytick_18">
     <g id="line2d_27">
      <g>
       <use style="stroke:#000000;stroke-width:0.6;" x="144" xlink:href="#m638c14db43" y="377.968642"/>
      </g>
     </g>
    </g>
    <g id="ytick_19">
     <g id="line2d_28">
      <g>
       <use style="stroke:#000000;stroke-width:0.6;" x="144" xlink:href="#m638c14db43" y="372.256589"/>
      </g>
     </g>
    </g>
    <g id="ytick_20">
     <g id="line2d_29">
      <g>
       <use style="stroke:#000000;stroke-width:0.6;" x="144" xlink:href="#m638c14db43" y="367.308584"/>
      </g>
     </g>
    </g>
    <g id="ytick_21">
     <g id="line2d_30">
      <g>
       <use style="stroke:#000000;stroke-width:0.6;" x="144" xlink:href="#m638c14db43" y="362.944134"/>
      </g>
     </g>
    </g>
    <g id="ytick_22">
     <g id="line2d_31">
      <g>
       <use style="stroke:#000000;stroke-width:0.6;" x="144" xlink:href="#m638c14db43" y="333.355433"/>
      </g>
     </g>
    </g>
    <g id="ytick_23">
     <g id="line2d_32">
      <g>
       <use style="stroke:#000000;stroke-width:0.6;" x="144" xlink:href="#m638c14db43" y="318.330925"/>
      </g>
     </g>
    </g>
    <g id="ytick_24">
     <g id="line2d_33">
      <g>
       <use style="stroke:#000000;stroke-width:0.6;" x="144" xlink:href="#m638c14db43" y="307.670867"/>
      </g>
     </g>
    </g>
    <g id="ytick_25">
     <g id="line2d_34">
      <g>
       <use style="stroke:#000000;stroke-width:0.6;" x="144" xlink:href="#m638c14db43" y="299.402283"/>
      </g>
     </g>
    </g>
    <g id="ytick_26">
     <g id="line2d_35">
      <g>
       <use style="stroke:#000000;stroke-width:0.6;" x="144" xlink:href="#m638c14db43" y="292.646359"/>
      </g>
     </g>
    </g>
    <g id="ytick_27">
     <g id="line2d_36">
      <g>
       <use style="stroke:#000000;stroke-width:0.6;" x="144" xlink:href="#m638c14db43" y="286.934306"/>
      </g>
     </g>
    </g>
    <g id="ytick_28">
     <g id="line2d_37">
      <g>
       <use style="stroke:#000000;stroke-width:0.6;" x="144" xlink:href="#m638c14db43" y="281.9863"/>
      </g>
     </g>
    </g>
    <g id="ytick_29">
     <g id="line2d_38">
      <g>
       <use style="stroke:#000000;stroke-width:0.6;" x="144" xlink:href="#m638c14db43" y="277.62185"/>
      </g>
     </g>
    </g>
    <g id="ytick_30">
     <g id="line2d_39">
      <g>
       <use style="stroke:#000000;stroke-width:0.6;" x="144" xlink:href="#m638c14db43" y="248.03315"/>
      </g>
     </g>
    </g>
    <g id="ytick_31">
     <g id="line2d_40">
      <g>
       <use style="stroke:#000000;stroke-width:0.6;" x="144" xlink:href="#m638c14db43" y="233.008642"/>
      </g>
     </g>
    </g>
    <g id="ytick_32">
     <g id="line2d_41">
      <g>
       <use style="stroke:#000000;stroke-width:0.6;" x="144" xlink:href="#m638c14db43" y="222.348584"/>
      </g>
     </g>
    </g>
    <g id="ytick_33">
     <g id="line2d_42">
      <g>
       <use style="stroke:#000000;stroke-width:0.6;" x="144" xlink:href="#m638c14db43" y="214.08"/>
      </g>
     </g>
    </g>
    <g id="ytick_34">
     <g id="line2d_43">
      <g>
       <use style="stroke:#000000;stroke-width:0.6;" x="144" xlink:href="#m638c14db43" y="207.324075"/>
      </g>
     </g>
    </g>
    <g id="ytick_35">
     <g id="line2d_44">
      <g>
       <use style="stroke:#000000;stroke-width:0.6;" x="144" xlink:href="#m638c14db43" y="201.612022"/>
      </g>
     </g>
    </g>
    <g id="ytick_36">
     <g id="line2d_45">
      <g>
       <use style="stroke:#000000;stroke-width:0.6;" x="144" xlink:href="#m638c14db43" y="196.664017"/>
      </g>
     </g>
    </g>
    <g id="ytick_37">
     <g id="line2d_46">
      <g>
       <use style="stroke:#000000;stroke-width:0.6;" x="144" xlink:href="#m638c14db43" y="192.299567"/>
      </g>
     </g>
    </g>
    <g id="ytick_38">
     <g id="line2d_47">
      <g>
       <use style="stroke:#000000;stroke-width:0.6;" x="144" xlink:href="#m638c14db43" y="162.710867"/>
      </g>
     </g>
    </g>
    <g id="ytick_39">
     <g id="line2d_48">
      <g>
       <use style="stroke:#000000;stroke-width:0.6;" x="144" xlink:href="#m638c14db43" y="147.686359"/>
      </g>
     </g>
    </g>
    <g id="ytick_40">
     <g id="line2d_49">
      <g>
       <use style="stroke:#000000;stroke-width:0.6;" x="144" xlink:href="#m638c14db43" y="137.0263"/>
      </g>
     </g>
    </g>
    <g id="ytick_41">
     <g id="line2d_50">
      <g>
       <use style="stroke:#000000;stroke-width:0.6;" x="144" xlink:href="#m638c14db43" y="128.757717"/>
      </g>
     </g>
    </g>
    <g id="ytick_42">
     <g id="line2d_51">
      <g>
       <use style="stroke:#000000;stroke-width:0.6;" x="144" xlink:href="#m638c14db43" y="122.001792"/>
      </g>
     </g>
    </g>
    <g id="ytick_43">
     <g id="line2d_52">
      <g>
       <use style="stroke:#000000;stroke-width:0.6;" x="144" xlink:href="#m638c14db43" y="116.289739"/>
      </g>
     </g>
    </g>
    <g id="ytick_44">
     <g id="line2d_53">
      <g>
       <use style="stroke:#000000;stroke-width:0.6;" x="144" xlink:href="#m638c14db43" y="111.341734"/>
      </g>
     </g>
    </g>
    <g id="ytick_45">
     <g id="line2d_54">
      <g>
       <use style="stroke:#000000;stroke-width:0.6;" x="144" xlink:href="#m638c14db43" y="106.977284"/>
      </g>
     </g>
    </g>
    <g id="ytick_46">
     <g id="line2d_55">
      <g>
       <use style="stroke:#000000;stroke-width:0.6;" x="144" xlink:href="#m638c14db43" y="77.388584"/>
      </g>
     </g>
    </g>
    <g id="text_16">
     <!-- Energy /A.U. -->
     <g transform="translate(84.936875 373.22)rotate(-90)scale(0.28 -0.28)">
      <defs>
       <path d="M 9.8125 72.90625 
L 55.90625 72.90625 
L 55.90625 64.59375 
L 19.671875 64.59375 
L 19.671875 43.015625 
L 54.390625 43.015625 
L 54.390625 34.71875 
L 19.671875 34.71875 
L 19.671875 8.296875 
L 56.78125 8.296875 
L 56.78125 0 
L 9.8125 0 
z
" id="DejaVuSans-69"/>
       <path d="M 54.890625 33.015625 
L 54.890625 0 
L 45.90625 0 
L 45.90625 32.71875 
Q 45.90625 40.484375 42.875 44.328125 
Q 39.84375 48.1875 33.796875 48.1875 
Q 26.515625 48.1875 22.3125 43.546875 
Q 18.109375 38.921875 18.109375 30.90625 
L 18.109375 0 
L 9.078125 0 
L 9.078125 54.6875 
L 18.109375 54.6875 
L 18.109375 46.1875 
Q 21.34375 51.125 25.703125 53.5625 
Q 30.078125 56 35.796875 56 
Q 45.21875 56 50.046875 50.171875 
Q 54.890625 44.34375 54.890625 33.015625 
z
" id="DejaVuSans-110"/>
       <path d="M 56.203125 29.59375 
L 56.203125 25.203125 
L 14.890625 25.203125 
Q 15.484375 15.921875 20.484375 11.0625 
Q 25.484375 6.203125 34.421875 6.203125 
Q 39.59375 6.203125 44.453125 7.46875 
Q 49.3125 8.734375 54.109375 11.28125 
L 54.109375 2.78125 
Q 49.265625 0.734375 44.1875 -0.34375 
Q 39.109375 -1.421875 33.890625 -1.421875 
Q 20.796875 -1.421875 13.15625 6.1875 
Q 5.515625 13.8125 5.515625 26.8125 
Q 5.515625 40.234375 12.765625 48.109375 
Q 20.015625 56 32.328125 56 
Q 43.359375 56 49.78125 48.890625 
Q 56.203125 41.796875 56.203125 29.59375 
z
M 47.21875 32.234375 
Q 47.125 39.59375 43.09375 43.984375 
Q 39.0625 48.390625 32.421875 48.390625 
Q 24.90625 48.390625 20.390625 44.140625 
Q 15.875 39.890625 15.1875 32.171875 
z
" id="DejaVuSans-101"/>
       <path d="M 45.40625 27.984375 
Q 45.40625 37.75 41.375 43.109375 
Q 37.359375 48.484375 30.078125 48.484375 
Q 22.859375 48.484375 18.828125 43.109375 
Q 14.796875 37.75 14.796875 27.984375 
Q 14.796875 18.265625 18.828125 12.890625 
Q 22.859375 7.515625 30.078125 7.515625 
Q 37.359375 7.515625 41.375 12.890625 
Q 45.40625 18.265625 45.40625 27.984375 
z
M 54.390625 6.78125 
Q 54.390625 -7.171875 48.1875 -13.984375 
Q 42 -20.796875 29.203125 -20.796875 
Q 24.46875 -20.796875 20.265625 -20.09375 
Q 16.0625 -19.390625 12.109375 -17.921875 
L 12.109375 -9.1875 
Q 16.0625 -11.328125 19.921875 -12.34375 
Q 23.78125 -13.375 27.78125 -13.375 
Q 36.625 -13.375 41.015625 -8.765625 
Q 45.40625 -4.15625 45.40625 5.171875 
L 45.40625 9.625 
Q 42.625 4.78125 38.28125 2.390625 
Q 33.9375 0 27.875 0 
Q 17.828125 0 11.671875 7.65625 
Q 5.515625 15.328125 5.515625 27.984375 
Q 5.515625 40.671875 11.671875 48.328125 
Q 17.828125 56 27.875 56 
Q 33.9375 56 38.28125 53.609375 
Q 42.625 51.21875 45.40625 46.390625 
L 45.40625 54.6875 
L 54.390625 54.6875 
z
" id="DejaVuSans-103"/>
       <path d="M 10.6875 12.40625 
L 21 12.40625 
L 21 0 
L 10.6875 0 
z
" id="DejaVuSans-46"/>
       <path d="M 8.6875 72.90625 
L 18.609375 72.90625 
L 18.609375 28.609375 
Q 18.609375 16.890625 22.84375 11.734375 
Q 27.09375 6.59375 36.625 6.59375 
Q 46.09375 6.59375 50.34375 11.734375 
Q 54.59375 16.890625 54.59375 28.609375 
L 54.59375 72.90625 
L 64.5 72.90625 
L 64.5 27.390625 
Q 64.5 13.140625 57.4375 5.859375 
Q 50.390625 -1.421875 36.625 -1.421875 
Q 22.796875 -1.421875 15.734375 5.859375 
Q 8.6875 13.140625 8.6875 27.390625 
z
" id="DejaVuSans-85"/>
      </defs>
      <use xlink:href="#DejaVuSans-69"/>
      <use x="63.183594" xlink:href="#DejaVuSans-110"/>
      <use x="126.5625" xlink:href="#DejaVuSans-101"/>
      <use x="188.085938" xlink:href="#DejaVuSans-114"/>
      <use x="227.449219" xlink:href="#DejaVuSans-103"/>
      <use x="290.925781" xlink:href="#DejaVuSans-121"/>
      <use x="350.105469" xlink:href="#DejaVuSans-32"/>
      <use x="381.892578" xlink:href="#DejaVuSans-47"/>
      <use x="415.583984" xlink:href="#DejaVuSans-65"/>
      <use x="482.242188" xlink:href="#DejaVuSans-46"/>
      <use x="514.029297" xlink:href="#DejaVuSans-85"/>
      <use x="587.222656" xlink:href="#DejaVuSans-46"/>
     </g>
    </g>
   </g>
   <g id="line2d_56">
    <path clip-path="url(#p8cba7880c4)" d="M 163.53 231.597494 
L 368.316 208.803705 
L 437.508 196.392877 
L 471.546 187.944239 
L 512.838 181.346778 
L 518.418 176.061321 
L 542.412 171.495265 
L 554.13 167.6202 
L 560.268 164.240397 
L 567.522 161.127228 
L 592.074 158.293549 
L 611.046 155.706777 
L 601.002 153.394263 
L 626.112 151.22511 
L 631.134 147.285486 
L 635.04 145.675053 
L 643.968 144.035424 
L 667.404 142.529382 
L 674.1 141.084246 
L 672.984 139.749811 
L 672.426 138.485833 
L 672.426 137.224694 
L 694.746 136.043286 
L 712.044 134.904526 
L 705.348 133.794306 
L 721.53 132.763604 
L 705.906 131.766292 
L 733.248 130.786935 
L 733.248 129.891633 
L 725.994 129.010332 
L 744.966 128.171561 
L 743.292 127.345201 
L 742.176 126.585212 
L 753.894 125.798504 
L 755.01 125.056634 
L 752.22 124.344114 
L 756.684 123.646422 
L 773.982 122.95972 
L 765.612 122.281717 
L 771.75 121.614347 
L 769.518 121.023976 
L 766.728 120.413125 
L 779.004 119.808946 
L 779.562 119.219774 
L 795.186 118.65214 
L 780.12 118.092405 
L 792.396 117.567743 
L 790.722 117.054742 
L 788.49 116.558115 
L 794.07 116.057899 
L 790.722 115.561671 
L 793.512 115.07741 
L 808.02 114.625255 
L 809.694 114.166877 
L 815.832 113.706184 
L 818.064 113.256071 
L 817.506 112.809997 
L 808.02 112.387338 
L 823.644 111.955256 
L 819.738 111.547652 
L 823.644 111.15116 
L 824.202 110.759452 
L 832.014 110.408396 
L 826.992 110.001241 
L 830.34 109.602125 
L 837.594 109.265738 
L 829.782 108.914559 
L 825.876 108.556917 
L 835.92 108.180343 
L 837.036 107.804255 
L 839.268 107.469237 
L 833.13 107.140196 
L 844.848 106.844947 
L 840.942 106.512519 
L 849.87 106.193731 
L 842.616 105.879293 
L 847.638 105.555404 
L 843.732 105.261965 
L 843.174 104.938992 
L 854.334 104.645347 
L 847.08 104.340571 
L 855.45 104.045599 
L 856.008 103.774496 
L 858.24 103.511263 
L 853.776 103.223861 
L 847.638 102.941062 
L 861.588 102.658083 
L 848.754 102.137324 
L 850.986 101.871416 
L 865.494 101.641751 
L 866.61 101.384426 
L 870.516 101.128505 
L 868.842 100.878549 
L 856.008 100.626672 
L 868.842 100.397781 
L 870.516 100.157666 
L 868.842 99.912769 
L 873.864 99.670857 
L 871.632 99.4426 
L 872.748 98.985556 
L 873.864 98.777854 
L 879.444 98.554322 
L 876.096 98.328528 
L 881.118 98.105216 
L 867.168 97.671771 
L 873.864 97.464316 
L 874.422 97.270314 
L 876.096 97.068745 
L 881.676 96.874789 
L 879.444 96.669233 
L 882.792 96.477367 
L 880.002 96.269064 
L 871.074 96.06786 
L 873.864 95.873575 
L 883.35 95.674901 
L 882.792 95.477496 
L 884.466 95.289569 
L 880.56 95.107261 
L 885.582 94.930164 
L 882.792 94.747604 
L 882.792 94.572746 
L 893.952 94.401708 
L 888.372 94.218221 
L 886.698 94.036436 
L 883.35 93.863546 
L 884.466 93.681721 
L 892.278 93.495427 
L 892.836 93.319556 
L 889.488 93.140771 
L 886.698 92.813219 
L 896.742 92.650042 
L 895.626 92.493666 
L 895.626 92.328297 
L 900.09 92.165896 
L 893.952 92.009403 
L 893.394 91.84237 
L 896.742 91.67793 
L 896.184 91.518015 
L 897.858 91.371987 
L 890.604 91.212248 
L 892.836 91.076304 
L 906.228 90.934256 
L 898.974 90.787135 
L 901.206 90.630437 
L 894.51 90.488902 
L 900.09 90.345126 
L 896.742 90.197045 
L 902.88 90.036867 
L 901.764 89.901228 
L 905.112 89.755314 
L 903.996 89.609283 
L 906.228 89.345625 
L 904.554 89.210144 
L 894.51 89.066972 
L 909.576 88.514826 
L 903.996 88.377059 
L 903.996 88.246821 
L 896.184 88.115866 
L 907.902 87.849451 
L 908.46 87.725022 
L 893.952 87.607538 
L 911.808 87.475163 
L 911.808 87.357645 
L 906.786 87.229676 
L 914.04 87.099945 
L 898.974 86.86023 
L 909.576 86.607627 
L 907.902 86.492145 
L 911.808 86.379041 
L 900.648 86.262812 
L 915.714 86.02519 
L 909.018 85.913118 
L 917.388 85.803988 
L 911.808 85.687627 
L 911.808 85.568856 
L 908.46 85.462158 
L 916.83 85.225991 
L 911.25 85.118385 
L 919.62 85.013622 
L 916.272 84.904245 
L 916.83 84.802497 
L 909.576 84.695839 
L 910.692 84.589077 
L 905.112 84.481047 
L 917.388 84.260342 
L 917.946 84.150225 
L 917.388 84.033679 
L 914.598 83.930099 
L 918.504 83.833275 
L 912.366 83.73996 
L 920.736 83.640084 
L 918.504 83.53573 
L 920.736 83.424155 
L 909.018 83.130827 
L 919.062 83.026733 
L 903.996 82.931007 
L 916.272 82.830835 
L 911.808 82.730401 
L 921.294 82.640431 
L 912.924 82.455828 
L 922.41 82.361039 
L 912.366 82.272381 
L 926.316 82.084338 
L 915.156 81.824885 
L 919.62 81.725797 
L 917.388 81.635404 
L 922.41 81.534918 
L 920.178 81.439776 
L 925.2 81.352049 
L 917.946 81.169174 
L 921.852 81.080193 
L 920.736 80.998862 
L 921.294 80.913061 
L 918.504 80.827987 
L 925.2 80.744281 
L 916.272 80.574658 
L 927.99 80.321256 
L 916.272 80.236194 
L 920.178 80.158305 
L 920.736 80.075223 
L 918.504 79.991587 
L 929.106 79.90848 
L 920.736 79.746758 
L 920.736 79.664748 
L 921.294 79.581973 
L 926.316 79.441109 
L 915.714 79.373751 
L 923.526 79.298123 
L 921.852 79.211581 
L 921.294 79.136614 
L 925.2 78.976693 
L 922.968 78.820576 
L 930.222 78.737958 
L 920.178 78.589398 
L 927.432 78.441725 
L 916.272 78.293069 
L 924.642 78.22268 
L 921.852 78.147824 
L 921.294 78.079141 
L 919.062 78.006088 
L 931.896 77.927722 
L 923.526 77.860309 
L 927.432 77.785952 
L 927.99 77.724767 
L 924.084 77.659161 
L 924.642 77.590431 
L 924.084 77.452345 
L 927.99 77.390406 
L 921.852 77.312506 
L 925.2 77.244864 
L 922.41 77.175976 
L 925.758 77.105246 
L 915.714 77.036732 
L 920.736 76.972658 
L 927.99 76.846277 
L 919.062 76.786583 
L 922.968 76.716956 
L 926.874 76.656121 
L 920.736 76.532626 
L 931.338 76.332554 
L 926.874 76.267752 
L 929.664 76.206728 
L 926.874 76.137394 
L 930.222 76.076236 
L 927.99 76.008543 
L 926.874 75.947757 
L 931.896 75.700462 
L 925.758 75.527772 
L 928.548 75.462016 
L 927.99 75.401823 
L 927.432 75.344812 
L 925.758 75.285825 
L 929.664 75.223301 
L 928.548 75.169982 
L 925.2 75.05185 
L 927.99 74.992479 
L 925.758 74.932125 
L 925.2 74.867012 
L 931.338 74.70787 
L 930.222 74.657945 
L 929.664 74.604827 
L 930.222 74.501397 
L 925.2 74.449934 
L 929.664 74.392839 
L 924.642 74.333742 
L 926.316 74.282932 
L 931.896 74.168345 
L 931.338 74.111838 
L 926.316 74.052904 
L 926.874 74.004717 
L 930.222 73.957215 
L 927.99 73.907982 
L 927.99 73.849873 
L 925.758 73.800085 
L 929.106 73.752651 
L 926.874 73.701672 
L 926.874 73.648941 
L 930.222 73.592007 
L 929.106 73.537496 
L 927.99 73.479655 
L 924.642 73.430598 
L 927.432 73.384066 
L 927.99 73.290697 
L 925.2 73.242286 
L 933.57 73.141358 
L 929.664 73.095168 
L 928.548 73.045625 
L 931.338 72.945103 
L 927.432 72.89271 
L 927.432 72.89271 
" style="fill:none;stroke:#1f1f1f;stroke-linecap:square;stroke-width:5;"/>
   </g>
   <g id="line2d_57">
    <path clip-path="url(#p8cba7880c4)" d="M 163.53 495.930889 
L 368.316 464.450152 
L 437.508 445.837742 
L 471.546 432.574107 
L 512.838 422.09706 
L 518.418 413.446345 
L 542.412 406.037584 
L 554.13 399.649307 
L 560.268 393.954233 
L 567.522 388.86692 
L 592.074 384.326492 
L 611.046 380.201368 
L 601.002 376.38539 
L 626.112 372.858012 
L 628.902 369.584332 
L 631.134 366.490862 
L 635.04 363.565672 
L 643.968 360.815553 
L 667.404 358.229034 
L 674.1 355.807447 
L 672.984 353.517077 
L 672.426 351.347598 
L 672.426 349.263772 
L 694.746 347.289515 
L 712.044 345.416803 
L 705.348 343.63598 
L 721.53 341.92735 
L 705.906 340.283759 
L 733.248 338.702857 
L 733.248 337.171808 
L 725.994 335.709836 
L 744.966 334.297214 
L 743.292 332.933941 
L 742.176 331.606161 
L 753.894 330.32628 
L 755.01 329.088319 
L 752.22 327.889064 
L 756.684 326.723128 
L 773.982 325.59462 
L 765.612 324.49513 
L 771.75 323.435218 
L 769.518 322.396069 
L 766.728 321.391006 
L 779.004 320.406557 
L 779.562 319.439916 
L 795.186 318.498965 
L 780.12 317.584214 
L 792.396 316.683779 
L 790.722 315.798126 
L 788.49 314.932787 
L 794.07 314.092745 
L 790.722 313.276912 
L 793.512 312.476447 
L 808.02 311.681736 
L 809.694 310.897579 
L 815.832 310.130227 
L 818.064 309.374969 
L 817.506 308.642159 
L 808.02 307.92633 
L 823.644 307.218348 
L 819.738 306.52901 
L 823.644 305.853297 
L 824.202 305.185704 
L 832.014 304.527875 
L 826.992 303.883676 
L 830.34 303.252172 
L 837.594 302.628859 
L 829.782 302.015088 
L 825.876 301.410861 
L 835.92 300.81187 
L 837.036 300.223001 
L 839.268 299.642949 
L 833.13 299.070038 
L 844.848 298.50215 
L 840.942 297.944571 
L 849.87 297.39425 
L 842.616 296.847463 
L 847.638 296.313939 
L 843.732 295.792113 
L 843.174 295.274857 
L 854.334 294.766772 
L 847.08 294.262582 
L 855.45 293.762075 
L 856.008 293.268474 
L 858.24 292.779149 
L 853.776 292.297733 
L 847.638 291.821992 
L 861.588 291.34799 
L 848.754 290.421491 
L 850.986 289.965126 
L 865.494 289.511483 
L 866.61 289.063427 
L 870.516 288.620659 
L 868.842 288.180296 
L 856.008 287.74976 
L 868.842 287.321979 
L 870.516 286.898518 
L 868.842 286.479325 
L 873.864 286.065927 
L 871.632 285.652392 
L 872.748 284.83393 
L 873.864 284.431191 
L 879.444 284.033825 
L 876.096 283.641263 
L 881.118 283.250997 
L 872.748 282.86489 
L 867.168 282.481205 
L 873.864 282.100648 
L 874.422 281.723884 
L 876.096 281.349803 
L 881.676 280.976036 
L 879.444 280.604475 
L 882.792 280.238567 
L 880.002 279.875817 
L 871.074 279.516579 
L 873.864 279.16072 
L 883.35 278.80724 
L 882.792 278.456268 
L 884.466 278.109448 
L 880.56 277.762642 
L 885.582 277.417056 
L 882.792 277.075237 
L 882.792 276.735516 
L 893.952 276.39829 
L 888.372 276.062642 
L 886.698 275.728482 
L 883.35 275.396731 
L 884.466 275.068114 
L 892.278 274.74291 
L 892.836 274.419969 
L 889.488 274.100176 
L 888.372 273.781274 
L 886.698 273.464362 
L 896.742 273.147629 
L 895.626 272.833869 
L 895.626 272.521963 
L 900.09 272.212382 
L 893.952 271.904679 
L 893.394 271.599672 
L 896.742 271.296974 
L 896.184 270.99573 
L 897.858 270.694875 
L 890.604 270.399646 
L 892.836 270.104043 
L 906.228 269.80921 
L 898.974 269.517016 
L 901.206 269.225048 
L 894.51 268.934985 
L 900.09 268.647453 
L 896.742 268.362006 
L 902.88 268.079984 
L 901.764 267.798664 
L 905.112 267.518767 
L 903.996 267.239857 
L 905.67 266.963053 
L 906.228 266.687637 
L 904.554 266.413219 
L 894.51 266.140793 
L 898.416 265.868647 
L 908.46 265.328874 
L 909.576 265.060861 
L 903.996 264.794978 
L 903.996 264.530071 
L 896.184 264.26736 
L 903.996 264.006946 
L 907.902 263.747143 
L 908.46 263.490018 
L 893.952 263.233933 
L 911.808 262.977212 
L 911.808 262.721981 
L 906.786 262.468725 
L 914.04 262.216116 
L 898.974 261.715728 
L 907.902 261.467994 
L 909.576 261.221463 
L 907.902 260.975152 
L 911.808 260.728471 
L 900.648 260.485141 
L 915.714 260.001727 
L 909.018 259.762337 
L 917.388 259.524636 
L 911.808 259.287337 
L 911.808 259.052244 
L 908.46 258.81796 
L 914.04 258.582971 
L 916.83 258.34889 
L 911.25 258.116565 
L 919.62 257.885984 
L 916.272 257.656186 
L 916.83 257.427899 
L 909.576 257.199598 
L 910.692 256.972569 
L 905.112 256.745704 
L 916.272 256.520075 
L 917.946 256.074882 
L 917.388 255.853128 
L 914.598 255.632835 
L 918.504 255.412378 
L 912.366 255.193248 
L 920.736 254.975412 
L 918.504 254.759134 
L 920.736 254.543251 
L 916.83 254.329274 
L 915.714 254.11602 
L 909.018 253.904012 
L 919.062 253.693382 
L 903.996 253.483724 
L 916.272 253.274704 
L 911.808 253.06641 
L 921.294 252.858073 
L 912.924 252.445872 
L 922.41 252.241125 
L 912.366 252.037121 
L 926.316 251.631844 
L 920.736 251.430423 
L 921.852 251.228744 
L 915.156 251.028405 
L 919.62 250.829245 
L 917.388 250.631035 
L 922.41 250.433129 
L 920.178 250.236362 
L 925.2 250.04083 
L 922.41 249.845953 
L 917.946 249.651638 
L 921.852 249.458615 
L 920.736 249.265956 
L 921.294 249.074353 
L 918.504 248.883729 
L 925.2 248.692577 
L 916.272 248.313595 
L 927.99 247.748385 
L 916.272 247.561835 
L 920.178 247.376063 
L 920.736 247.190301 
L 918.504 247.005156 
L 929.106 246.820626 
L 921.852 246.636538 
L 920.736 246.452528 
L 920.736 246.269422 
L 921.294 246.087643 
L 922.968 245.906195 
L 926.316 245.725411 
L 915.714 245.545471 
L 923.526 245.365734 
L 921.852 245.186449 
L 921.294 245.007939 
L 925.2 244.651304 
L 922.968 244.298782 
L 930.222 244.123526 
L 920.178 243.775782 
L 927.432 243.4301 
L 917.946 243.258095 
L 916.272 243.086621 
L 924.642 242.915576 
L 921.852 242.745527 
L 921.294 242.576229 
L 919.062 242.407228 
L 931.896 242.238206 
L 923.526 242.070525 
L 927.432 241.903584 
L 927.99 241.736102 
L 924.084 241.569668 
L 924.642 241.403252 
L 924.084 241.237823 
L 924.084 241.073439 
L 927.99 240.908932 
L 921.852 240.745445 
L 925.2 240.582154 
L 922.41 240.419605 
L 925.758 240.257451 
L 915.714 240.096136 
L 927.99 239.613992 
L 919.062 239.453916 
L 926.874 239.13469 
L 920.736 238.818127 
L 926.874 238.65996 
L 926.316 238.502278 
L 931.338 238.345481 
L 926.874 238.18976 
L 929.664 238.03424 
L 926.874 237.878699 
L 930.222 237.723592 
L 926.874 237.414768 
L 927.99 237.260662 
L 931.896 236.954835 
L 931.896 236.802054 
L 926.316 236.650268 
L 925.758 236.499073 
L 925.758 236.348087 
L 928.548 236.197432 
L 927.432 235.897667 
L 925.758 235.748582 
L 929.664 235.599477 
L 926.874 235.302775 
L 925.2 235.154557 
L 927.99 235.006835 
L 925.2 234.713295 
L 931.338 234.275552 
L 929.664 233.986362 
L 925.2 233.842365 
L 930.222 233.698158 
L 925.2 233.554319 
L 929.664 233.410952 
L 924.642 233.267801 
L 926.316 233.125131 
L 931.338 232.983496 
L 931.896 232.842523 
L 931.338 232.701426 
L 926.316 232.560697 
L 926.874 232.42046 
L 930.222 232.280395 
L 927.99 232.141269 
L 927.99 232.002468 
L 925.758 231.863694 
L 929.106 231.725586 
L 926.874 231.587939 
L 926.874 231.450535 
L 930.222 231.313691 
L 927.99 231.040943 
L 924.642 230.905038 
L 927.99 230.634331 
L 927.99 230.499163 
L 925.2 230.364866 
L 933.57 230.096692 
L 928.548 229.829441 
L 931.338 229.563603 
L 927.432 229.431335 
L 927.432 229.431335 
" style="fill:none;stroke:#9e9e9e;stroke-linecap:square;stroke-width:5;"/>
   </g>
   <g id="line2d_58">
    <path clip-path="url(#p8cba7880c4)" d="M -1 275.403665 
L 128.376 268.894276 
L 188.082 261.107609 
L 267.876 254.795453 
L 287.964 249.693826 
L 362.178 245.181621 
L 362.736 241.10661 
L 396.216 237.521358 
L 389.52 234.321581 
L 391.194 231.334781 
L 449.226 228.604037 
L 436.392 226.203366 
L 438.624 223.930776 
L 454.806 221.625327 
L 463.734 219.501687 
L 437.508 217.380227 
L 474.336 215.449981 
L 485.496 213.826788 
L 453.132 212.116203 
L 508.374 210.507255 
L 501.12 208.918257 
L 517.86 207.435045 
L 502.236 206.027722 
L 531.252 204.633214 
L 532.926 203.317916 
L 535.158 202.117019 
L 526.788 200.897232 
L 540.738 199.780761 
L 558.594 198.753348 
L 547.992 197.667979 
L 546.876 196.604249 
L 564.732 195.56676 
L 583.146 194.625835 
L 571.986 193.756449 
L 569.196 192.859619 
L 567.522 192.044176 
L 571.986 191.175032 
L 566.406 190.290135 
L 567.522 189.461751 
L 574.776 188.678561 
L 578.682 187.899696 
L 590.958 187.150925 
L 606.582 186.433784 
L 585.936 185.725943 
L 610.488 184.319924 
L 626.67 183.632321 
L 599.328 182.929486 
L 608.814 182.277851 
L 614.394 181.653168 
L 608.256 181.077128 
L 630.018 180.538735 
L 618.858 180.023922 
L 621.648 179.486746 
L 628.902 178.862369 
L 622.764 178.298288 
L 629.46 177.83351 
L 644.526 177.271666 
L 624.438 176.73301 
L 633.366 176.247564 
L 614.394 175.71919 
L 654.57 175.257123 
L 649.548 174.780576 
L 652.896 174.326259 
L 663.498 173.857331 
L 653.454 173.439329 
L 655.686 172.993935 
L 659.592 172.562263 
L 646.758 172.126465 
L 667.404 171.304173 
L 655.686 170.914152 
L 665.172 170.517905 
L 649.548 170.106371 
L 643.41 169.727547 
L 672.984 169.332325 
L 660.708 168.95349 
L 665.172 168.582954 
L 664.614 168.209376 
L 685.26 167.851234 
L 671.868 167.492553 
L 678.006 167.16349 
L 681.354 166.773496 
L 689.166 166.45109 
L 679.122 166.10203 
L 699.768 165.767634 
L 694.188 165.441242 
L 672.426 165.103561 
L 689.166 164.778548 
L 690.282 164.464263 
L 671.868 163.847703 
L 697.536 163.530895 
L 696.42 163.226301 
L 696.42 162.988768 
L 685.26 162.720368 
L 691.956 162.444889 
L 685.26 162.205509 
L 705.348 161.928921 
L 703.674 161.672813 
L 714.276 161.414513 
L 691.956 161.134708 
L 699.768 160.8376 
L 719.298 160.545125 
L 713.16 160.258699 
L 690.282 160.007901 
L 714.834 159.761812 
L 703.116 159.530601 
L 713.718 159.282641 
L 712.044 159.033268 
L 714.276 158.775142 
L 712.602 158.542369 
L 720.414 158.325122 
L 723.204 158.09095 
L 724.32 157.869996 
L 699.21 157.625913 
L 734.922 157.156088 
L 729.9 156.91346 
L 720.972 156.713225 
L 723.762 156.497613 
L 740.502 156.056471 
L 723.762 155.865397 
L 743.292 155.655074 
L 748.872 155.449026 
L 729.9 155.237092 
L 744.408 154.833172 
L 715.95 154.601377 
L 741.06 154.410415 
L 741.06 154.212891 
L 734.922 154.02908 
L 742.734 153.818825 
L 745.524 153.43442 
L 747.198 153.239128 
L 759.474 153.062303 
L 738.27 152.849664 
L 757.8 152.667445 
L 746.64 152.478942 
L 756.126 152.307851 
L 748.314 152.124218 
L 764.496 151.967665 
L 743.85 151.788427 
L 747.756 151.606821 
L 765.612 151.424591 
L 757.242 151.231278 
L 759.474 151.069947 
L 760.032 150.890397 
L 757.8 150.719325 
L 764.496 150.559668 
L 763.938 150.408631 
L 760.59 150.229341 
L 745.524 150.076612 
L 778.446 149.908514 
L 747.198 149.767884 
L 767.286 149.606829 
L 761.706 149.454564 
L 773.424 149.277611 
L 772.866 149.130877 
L 749.43 148.986091 
L 760.59 148.839783 
L 762.264 148.669646 
L 775.656 148.521983 
L 774.54 148.363722 
L 771.192 148.218599 
L 772.866 148.077113 
L 771.192 147.935579 
L 780.678 147.645633 
L 785.7 147.503226 
L 771.192 147.370946 
L 780.12 147.218941 
L 772.866 147.083764 
L 787.374 146.937313 
L 786.816 146.800702 
L 766.17 146.673484 
L 779.004 146.535259 
L 770.634 146.280107 
L 784.584 145.995759 
L 776.214 145.863872 
L 795.744 145.741992 
L 764.496 145.469183 
L 789.048 145.242015 
L 782.91 145.127751 
L 791.838 144.995267 
L 787.374 144.871482 
L 794.07 144.769923 
L 781.794 144.517005 
L 782.91 144.389056 
L 786.816 144.128578 
L 802.998 144.00338 
L 786.258 143.880337 
L 794.07 143.642038 
L 787.932 143.53735 
L 794.628 143.432696 
L 793.512 143.308894 
L 789.048 143.184586 
L 791.838 143.056962 
L 786.816 142.941953 
L 797.976 142.835922 
L 782.352 142.629504 
L 804.672 142.404701 
L 791.838 142.29713 
L 807.462 142.086994 
L 787.374 141.670491 
L 790.722 141.569757 
L 804.114 141.358313 
L 792.954 141.251352 
L 806.904 140.933202 
L 806.346 140.839094 
L 796.86 140.732308 
L 797.976 140.640196 
L 806.346 140.531846 
L 803.556 140.441437 
L 804.672 140.323959 
L 780.678 140.235615 
L 801.882 140.03876 
L 792.954 139.936951 
L 814.716 139.752384 
L 802.998 139.656212 
L 811.926 139.559241 
L 797.418 139.459759 
L 813.042 139.192356 
L 807.462 139.098009 
L 810.81 139.005906 
L 804.672 138.916907 
L 807.462 138.824614 
L 802.44 138.623193 
L 799.092 138.543994 
L 813.6 138.371513 
L 808.578 138.279366 
L 818.622 137.933573 
L 815.832 137.851469 
L 793.512 137.7677 
L 817.506 137.588511 
L 811.368 137.490562 
L 816.948 137.40524 
L 812.484 137.334761 
L 814.158 137.165522 
L 800.208 137.08825 
L 804.672 137.017434 
L 805.23 136.924928 
L 815.832 136.838049 
L 814.158 136.754412 
L 816.39 136.68319 
L 814.716 136.595983 
L 819.738 136.375877 
L 816.948 136.299942 
L 800.766 136.148041 
L 826.992 135.903543 
L 806.904 135.743946 
L 808.578 135.577123 
L 815.832 135.497477 
L 809.694 135.439486 
L 821.97 135.185007 
L 814.158 135.113665 
L 829.224 134.976385 
L 808.02 134.906142 
L 826.992 134.836318 
L 821.412 134.759917 
L 810.252 134.681956 
L 825.318 134.619661 
L 820.296 134.550261 
L 828.108 134.406983 
L 813.042 134.331022 
L 828.108 134.263 
L 821.97 134.206976 
L 824.76 134.116389 
L 816.39 134.034218 
L 828.666 133.83994 
L 829.224 133.77286 
L 816.948 133.699961 
L 823.644 133.632417 
L 828.666 133.438148 
L 832.014 133.371569 
L 811.926 133.306466 
L 833.688 133.24165 
L 824.202 133.175786 
L 834.804 133.05165 
L 820.854 132.910618 
L 823.644 132.8564 
L 821.412 132.781953 
L 831.456 132.719774 
L 829.224 132.65673 
L 828.666 132.593669 
L 826.992 132.527857 
L 829.782 132.465063 
L 814.158 132.339782 
L 819.18 132.278091 
L 825.876 132.089875 
L 830.898 132.028965 
L 828.666 131.968554 
L 820.296 131.91284 
L 828.108 131.848238 
L 826.992 131.787755 
L 824.76 131.731089 
L 825.876 131.666583 
L 835.362 131.608939 
L 831.456 131.561525 
L 822.528 131.497591 
L 825.876 131.432748 
L 825.876 131.374239 
L 830.898 131.191778 
L 831.456 131.137941 
L 828.108 131.079221 
L 829.224 131.023112 
L 828.108 130.961956 
L 828.108 130.961956 
" style="fill:none;stroke:#2ecbff;stroke-linecap:square;stroke-width:5;"/>
   </g>
   <g id="line2d_59">
    <path clip-path="url(#p8cba7880c4)" d="M -1 492.869871 
L 128.376 480.687361 
L 188.082 466.854523 
L 267.876 455.777058 
L 287.964 446.741156 
L 362.178 438.879975 
L 362.736 432.030091 
L 396.216 425.950569 
L 389.52 420.538267 
L 391.194 415.683481 
L 449.226 411.249386 
L 436.392 407.192022 
L 438.624 403.421422 
L 454.806 399.932744 
L 463.734 396.649785 
L 437.508 393.591519 
L 474.336 390.70307 
L 485.496 387.993723 
L 453.132 385.422009 
L 508.374 382.962314 
L 501.12 380.616343 
L 517.86 378.378299 
L 502.236 376.259144 
L 531.252 374.232746 
L 532.926 372.284775 
L 535.158 370.425952 
L 526.788 368.640297 
L 540.738 366.929051 
L 558.594 365.274608 
L 547.992 363.673235 
L 546.876 362.122949 
L 583.146 359.181029 
L 571.986 357.78319 
L 569.196 356.421873 
L 567.522 355.104492 
L 571.986 353.822838 
L 566.406 352.592265 
L 567.522 351.387557 
L 574.776 350.228168 
L 578.682 349.08756 
L 590.958 347.98531 
L 606.582 346.908828 
L 585.936 345.864772 
L 597.654 344.83387 
L 610.488 343.827246 
L 626.67 342.844589 
L 599.328 341.877797 
L 608.814 340.944325 
L 614.394 340.03031 
L 608.256 339.130634 
L 630.018 338.248214 
L 618.858 337.380253 
L 621.648 336.538799 
L 628.902 335.703154 
L 622.764 334.885649 
L 629.46 334.083383 
L 644.526 333.303139 
L 624.438 332.526902 
L 633.366 331.768892 
L 614.394 331.02126 
L 654.57 330.291502 
L 649.548 329.56999 
L 652.896 328.865778 
L 663.498 328.17135 
L 653.454 327.481962 
L 655.686 326.806818 
L 659.592 326.141526 
L 646.758 325.486575 
L 667.404 324.209906 
L 655.686 323.5871 
L 665.172 322.974117 
L 649.548 322.368637 
L 643.41 321.769311 
L 672.984 321.180542 
L 660.708 320.594858 
L 665.172 320.020815 
L 664.614 319.459496 
L 685.26 318.904994 
L 671.868 318.357223 
L 678.006 317.819842 
L 681.354 317.289588 
L 689.166 316.767616 
L 679.122 316.251867 
L 699.768 315.740948 
L 694.188 315.237003 
L 672.426 314.736643 
L 689.166 314.241909 
L 690.282 313.754301 
L 671.868 312.795426 
L 697.536 312.322101 
L 696.42 311.858179 
L 696.42 311.398676 
L 685.26 310.944159 
L 691.956 310.496751 
L 685.26 310.054821 
L 705.348 309.620218 
L 703.674 309.190993 
L 714.276 308.765114 
L 691.956 308.341406 
L 699.768 307.921376 
L 719.298 307.507776 
L 713.16 307.097431 
L 690.282 306.690802 
L 714.834 306.285681 
L 703.116 305.884284 
L 713.718 305.487735 
L 712.044 305.094492 
L 714.276 304.705186 
L 712.602 304.318655 
L 720.414 303.93647 
L 723.204 303.558475 
L 724.32 303.182739 
L 699.21 302.811827 
L 734.922 302.082448 
L 729.9 301.720729 
L 720.972 301.364594 
L 723.762 301.013903 
L 740.502 300.31635 
L 723.762 299.971981 
L 743.292 299.630463 
L 748.872 299.292394 
L 729.9 298.955231 
L 744.408 298.29245 
L 715.95 297.962894 
L 741.06 297.638718 
L 741.06 297.314817 
L 734.922 296.996235 
L 742.734 296.67799 
L 743.85 296.362736 
L 747.198 295.735405 
L 759.474 295.424466 
L 738.27 295.118757 
L 757.8 294.812679 
L 746.64 294.51146 
L 756.126 294.211103 
L 748.314 293.913812 
L 764.496 293.616894 
L 743.85 293.322996 
L 747.756 293.032485 
L 765.612 292.743448 
L 757.242 292.457401 
L 759.474 292.171055 
L 760.032 291.887832 
L 757.8 291.604501 
L 764.496 291.322147 
L 763.938 291.041834 
L 760.59 290.763909 
L 745.524 290.48818 
L 778.446 290.214221 
L 747.198 289.943005 
L 767.286 289.674173 
L 761.706 289.405617 
L 773.424 289.138968 
L 772.866 288.872517 
L 749.43 288.6061 
L 760.59 288.343263 
L 762.264 288.083684 
L 775.656 287.822728 
L 774.54 287.563808 
L 771.192 287.305772 
L 772.866 287.050009 
L 771.192 286.795438 
L 779.562 286.543015 
L 780.678 286.292405 
L 785.7 286.041913 
L 771.192 285.792954 
L 780.12 285.5463 
L 772.866 285.299986 
L 787.374 285.056441 
L 786.816 284.81452 
L 766.17 284.573247 
L 779.004 284.33267 
L 770.634 283.85585 
L 784.584 283.382711 
L 776.214 283.148404 
L 795.744 282.916109 
L 764.496 282.454332 
L 789.048 282.225585 
L 789.048 281.99741 
L 782.91 281.771242 
L 791.838 281.546605 
L 787.374 281.320458 
L 794.07 281.097735 
L 784.026 280.87615 
L 781.794 280.655897 
L 782.91 280.436607 
L 786.258 280.216632 
L 786.816 279.99884 
L 802.998 279.780893 
L 786.258 279.565278 
L 791.838 279.350128 
L 794.07 279.136563 
L 787.932 278.924094 
L 794.628 278.711799 
L 793.512 278.500168 
L 789.048 278.289303 
L 791.838 278.078618 
L 786.816 277.86918 
L 797.976 277.659928 
L 783.468 277.452538 
L 782.352 277.24627 
L 804.672 276.838215 
L 791.838 276.636326 
L 807.462 276.233193 
L 802.44 276.032739 
L 801.882 275.832873 
L 787.374 275.436401 
L 790.722 275.239354 
L 800.766 275.042044 
L 804.114 274.844775 
L 792.954 274.649997 
L 796.302 274.456004 
L 806.904 274.068455 
L 806.346 273.876574 
L 796.86 273.684145 
L 797.976 273.492265 
L 806.346 273.301843 
L 803.556 273.112874 
L 804.672 272.92502 
L 780.678 272.738014 
L 801.882 272.364474 
L 792.954 272.178738 
L 814.716 271.808215 
L 802.998 271.624986 
L 811.926 271.442239 
L 797.418 271.260622 
L 805.23 271.079473 
L 804.114 270.900048 
L 813.042 270.720288 
L 807.462 270.540646 
L 810.81 270.361593 
L 804.672 270.182926 
L 807.462 270.00475 
L 802.44 269.648173 
L 799.092 269.472053 
L 813.6 269.119651 
L 808.578 268.944946 
L 810.81 268.770371 
L 818.064 268.424742 
L 818.622 268.253786 
L 815.832 268.082153 
L 793.512 267.911154 
L 817.506 267.571203 
L 811.368 267.401617 
L 816.948 267.233172 
L 812.484 267.065482 
L 814.158 266.898697 
L 814.158 266.731166 
L 800.208 266.564383 
L 804.672 266.398049 
L 805.23 266.233074 
L 815.832 266.068045 
L 814.158 265.90331 
L 816.39 265.739163 
L 814.716 265.575887 
L 818.064 265.412824 
L 818.622 265.250643 
L 819.738 265.088249 
L 816.948 264.926835 
L 800.766 264.604208 
L 813.042 264.444369 
L 809.136 264.284699 
L 826.992 264.125647 
L 807.462 263.967131 
L 806.904 263.810172 
L 808.578 263.496607 
L 815.832 263.340743 
L 809.694 263.185333 
L 821.97 262.721078 
L 814.158 262.567394 
L 829.224 262.260082 
L 808.02 262.107778 
L 826.992 261.95647 
L 821.412 261.805691 
L 810.252 261.655319 
L 825.318 261.505336 
L 820.296 261.35574 
L 828.108 261.056478 
L 813.042 260.907348 
L 828.108 260.75895 
L 821.97 260.61137 
L 824.76 260.463691 
L 816.39 260.316528 
L 823.644 260.170072 
L 824.202 260.024596 
L 828.666 259.879994 
L 829.224 259.735329 
L 816.948 259.590928 
L 823.644 259.44674 
L 824.76 259.302794 
L 824.76 259.159549 
L 832.014 258.874751 
L 811.926 258.732638 
L 833.688 258.591552 
L 824.202 258.450236 
L 834.804 258.16795 
L 820.854 257.887704 
L 823.644 257.747867 
L 821.412 257.608061 
L 831.456 257.46882 
L 828.666 257.192375 
L 826.992 257.054453 
L 829.782 256.917789 
L 814.158 256.645629 
L 820.854 256.374615 
L 820.296 256.239846 
L 830.898 255.970841 
L 828.666 255.836968 
L 820.296 255.704094 
L 828.108 255.571423 
L 826.992 255.438828 
L 824.76 255.30666 
L 825.876 255.174783 
L 835.362 255.043472 
L 831.456 254.912676 
L 822.528 254.782061 
L 825.876 254.651723 
L 825.876 254.521666 
L 830.898 254.263563 
L 830.898 254.13464 
L 831.456 254.005719 
L 828.108 253.877614 
L 829.224 253.749823 
L 828.108 253.622197 
L 828.108 253.622197 
" style="fill:none;stroke:#9deaff;stroke-linecap:square;stroke-width:5;"/>
   </g>
   <g id="patch_3">
    <path d="M 144 504 
L 144 69.12 
" style="fill:none;stroke:#000000;stroke-linecap:square;stroke-linejoin:miter;stroke-width:0.8;"/>
   </g>
   <g id="patch_4">
    <path d="M 1036.8 504 
L 1036.8 69.12 
" style="fill:none;stroke:#000000;stroke-linecap:square;stroke-linejoin:miter;stroke-width:0.8;"/>
   </g>
   <g id="patch_5">
    <path d="M 144 504 
L 1036.8 504 
" style="fill:none;stroke:#000000;stroke-linecap:square;stroke-linejoin:miter;stroke-width:0.8;"/>
   </g>
   <g id="patch_6">
    <path d="M 144 69.12 
L 1036.8 69.12 
" style="fill:none;stroke:#000000;stroke-linecap:square;stroke-linejoin:miter;stroke-width:0.8;"/>
   </g>
   <g id="text_17">
    <!-- Gated: Energy vs. Accuracy with 200 Units @ 0.6 -->
    <g transform="translate(147.895312 61.633125)scale(0.36 -0.36)">
     <defs>
      <path d="M 59.515625 10.40625 
L 59.515625 29.984375 
L 43.40625 29.984375 
L 43.40625 38.09375 
L 69.28125 38.09375 
L 69.28125 6.78125 
Q 63.578125 2.734375 56.6875 0.65625 
Q 49.8125 -1.421875 42 -1.421875 
Q 24.90625 -1.421875 15.25 8.5625 
Q 5.609375 18.5625 5.609375 36.375 
Q 5.609375 54.25 15.25 64.234375 
Q 24.90625 74.21875 42 74.21875 
Q 49.125 74.21875 55.546875 72.453125 
Q 61.96875 70.703125 67.390625 67.28125 
L 67.390625 56.78125 
Q 61.921875 61.421875 55.765625 63.765625 
Q 49.609375 66.109375 42.828125 66.109375 
Q 29.4375 66.109375 22.71875 58.640625 
Q 16.015625 51.171875 16.015625 36.375 
Q 16.015625 21.625 22.71875 14.15625 
Q 29.4375 6.6875 42.828125 6.6875 
Q 48.046875 6.6875 52.140625 7.59375 
Q 56.25 8.5 59.515625 10.40625 
z
" id="DejaVuSans-71"/>
      <path d="M 18.3125 70.21875 
L 18.3125 54.6875 
L 36.8125 54.6875 
L 36.8125 47.703125 
L 18.3125 47.703125 
L 18.3125 18.015625 
Q 18.3125 11.328125 20.140625 9.421875 
Q 21.96875 7.515625 27.59375 7.515625 
L 36.8125 7.515625 
L 36.8125 0 
L 27.59375 0 
Q 17.1875 0 13.234375 3.875 
Q 9.28125 7.765625 9.28125 18.015625 
L 9.28125 47.703125 
L 2.6875 47.703125 
L 2.6875 54.6875 
L 9.28125 54.6875 
L 9.28125 70.21875 
z
" id="DejaVuSans-116"/>
      <path d="M 45.40625 46.390625 
L 45.40625 75.984375 
L 54.390625 75.984375 
L 54.390625 0 
L 45.40625 0 
L 45.40625 8.203125 
Q 42.578125 3.328125 38.25 0.953125 
Q 33.9375 -1.421875 27.875 -1.421875 
Q 17.96875 -1.421875 11.734375 6.484375 
Q 5.515625 14.40625 5.515625 27.296875 
Q 5.515625 40.1875 11.734375 48.09375 
Q 17.96875 56 27.875 56 
Q 33.9375 56 38.25 53.625 
Q 42.578125 51.265625 45.40625 46.390625 
z
M 14.796875 27.296875 
Q 14.796875 17.390625 18.875 11.75 
Q 22.953125 6.109375 30.078125 6.109375 
Q 37.203125 6.109375 41.296875 11.75 
Q 45.40625 17.390625 45.40625 27.296875 
Q 45.40625 37.203125 41.296875 42.84375 
Q 37.203125 48.484375 30.078125 48.484375 
Q 22.953125 48.484375 18.875 42.84375 
Q 14.796875 37.203125 14.796875 27.296875 
z
" id="DejaVuSans-100"/>
      <path d="M 11.71875 12.40625 
L 22.015625 12.40625 
L 22.015625 0 
L 11.71875 0 
z
M 11.71875 51.703125 
L 22.015625 51.703125 
L 22.015625 39.3125 
L 11.71875 39.3125 
z
" id="DejaVuSans-58"/>
      <path d="M 2.984375 54.6875 
L 12.5 54.6875 
L 29.59375 8.796875 
L 46.6875 54.6875 
L 56.203125 54.6875 
L 35.6875 0 
L 23.484375 0 
z
" id="DejaVuSans-118"/>
      <path d="M 44.28125 53.078125 
L 44.28125 44.578125 
Q 40.484375 46.53125 36.375 47.5 
Q 32.28125 48.484375 27.875 48.484375 
Q 21.1875 48.484375 17.84375 46.4375 
Q 14.5 44.390625 14.5 40.28125 
Q 14.5 37.15625 16.890625 35.375 
Q 19.28125 33.59375 26.515625 31.984375 
L 29.59375 31.296875 
Q 39.15625 29.25 43.1875 25.515625 
Q 47.21875 21.78125 47.21875 15.09375 
Q 47.21875 7.46875 41.1875 3.015625 
Q 35.15625 -1.421875 24.609375 -1.421875 
Q 20.21875 -1.421875 15.453125 -0.5625 
Q 10.6875 0.296875 5.421875 2 
L 5.421875 11.28125 
Q 10.40625 8.6875 15.234375 7.390625 
Q 20.0625 6.109375 24.8125 6.109375 
Q 31.15625 6.109375 34.5625 8.28125 
Q 37.984375 10.453125 37.984375 14.40625 
Q 37.984375 18.0625 35.515625 20.015625 
Q 33.0625 21.96875 24.703125 23.78125 
L 21.578125 24.515625 
Q 13.234375 26.265625 9.515625 29.90625 
Q 5.8125 33.546875 5.8125 39.890625 
Q 5.8125 47.609375 11.28125 51.796875 
Q 16.75 56 26.8125 56 
Q 31.78125 56 36.171875 55.265625 
Q 40.578125 54.546875 44.28125 53.078125 
z
" id="DejaVuSans-115"/>
      <path d="M 4.203125 54.6875 
L 13.1875 54.6875 
L 24.421875 12.015625 
L 35.59375 54.6875 
L 46.1875 54.6875 
L 57.421875 12.015625 
L 68.609375 54.6875 
L 77.59375 54.6875 
L 63.28125 0 
L 52.6875 0 
L 40.921875 44.828125 
L 29.109375 0 
L 18.5 0 
z
" id="DejaVuSans-119"/>
      <path d="M 9.421875 54.6875 
L 18.40625 54.6875 
L 18.40625 0 
L 9.421875 0 
z
M 9.421875 75.984375 
L 18.40625 75.984375 
L 18.40625 64.59375 
L 9.421875 64.59375 
z
" id="DejaVuSans-105"/>
      <path d="M 54.890625 33.015625 
L 54.890625 0 
L 45.90625 0 
L 45.90625 32.71875 
Q 45.90625 40.484375 42.875 44.328125 
Q 39.84375 48.1875 33.796875 48.1875 
Q 26.515625 48.1875 22.3125 43.546875 
Q 18.109375 38.921875 18.109375 30.90625 
L 18.109375 0 
L 9.078125 0 
L 9.078125 75.984375 
L 18.109375 75.984375 
L 18.109375 46.1875 
Q 21.34375 51.125 25.703125 53.5625 
Q 30.078125 56 35.796875 56 
Q 45.21875 56 50.046875 50.171875 
Q 54.890625 44.34375 54.890625 33.015625 
z
" id="DejaVuSans-104"/>
      <path d="M 37.203125 26.21875 
Q 37.203125 19.234375 40.671875 15.25 
Q 44.140625 11.28125 50.203125 11.28125 
Q 56.203125 11.28125 59.640625 15.28125 
Q 63.09375 19.28125 63.09375 26.21875 
Q 63.09375 33.0625 59.578125 37.078125 
Q 56.0625 41.109375 50.09375 41.109375 
Q 44.1875 41.109375 40.6875 37.109375 
Q 37.203125 33.109375 37.203125 26.21875 
z
M 63.8125 11.625 
Q 60.890625 7.859375 57.109375 6.078125 
Q 53.328125 4.296875 48.296875 4.296875 
Q 39.890625 4.296875 34.640625 10.375 
Q 29.390625 16.453125 29.390625 26.21875 
Q 29.390625 35.984375 34.65625 42.078125 
Q 39.9375 48.1875 48.296875 48.1875 
Q 53.328125 48.1875 57.125 46.359375 
Q 60.9375 44.53125 63.8125 40.828125 
L 63.8125 47.21875 
L 70.796875 47.21875 
L 70.796875 11.28125 
Q 77.9375 12.359375 81.953125 17.796875 
Q 85.984375 23.25 85.984375 31.890625 
Q 85.984375 37.109375 84.4375 41.703125 
Q 82.90625 46.296875 79.78125 50.203125 
Q 74.703125 56.59375 67.40625 59.984375 
Q 60.109375 63.375 51.515625 63.375 
Q 45.515625 63.375 39.984375 61.78125 
Q 34.46875 60.203125 29.78125 57.078125 
Q 22.125 52.09375 17.796875 44.015625 
Q 13.484375 35.9375 13.484375 26.515625 
Q 13.484375 18.75 16.28125 11.953125 
Q 19.09375 5.171875 24.421875 0 
Q 29.546875 -5.078125 36.28125 -7.734375 
Q 43.015625 -10.40625 50.6875 -10.40625 
Q 56.984375 -10.40625 63.0625 -8.28125 
Q 69.140625 -6.15625 74.21875 -2.203125 
L 78.609375 -7.625 
Q 72.515625 -12.359375 65.3125 -14.875 
Q 58.109375 -17.390625 50.6875 -17.390625 
Q 41.65625 -17.390625 33.640625 -14.1875 
Q 25.640625 -10.984375 19.390625 -4.890625 
Q 13.140625 1.21875 9.859375 9.25 
Q 6.59375 17.28125 6.59375 26.515625 
Q 6.59375 35.40625 9.90625 43.453125 
Q 13.234375 51.515625 19.390625 57.625 
Q 25.6875 63.8125 33.9375 67.109375 
Q 42.1875 70.40625 51.421875 70.40625 
Q 61.765625 70.40625 70.625 66.15625 
Q 79.5 61.921875 85.5 54.109375 
Q 89.15625 49.3125 91.078125 43.703125 
Q 93.015625 38.09375 93.015625 32.078125 
Q 93.015625 19.234375 85.25 11.8125 
Q 77.484375 4.390625 63.8125 4.109375 
z
" id="DejaVuSans-64"/>
     </defs>
     <use xlink:href="#DejaVuSans-71"/>
     <use x="77.490234" xlink:href="#DejaVuSans-97"/>
     <use x="138.769531" xlink:href="#DejaVuSans-116"/>
     <use x="177.978516" xlink:href="#DejaVuSans-101"/>
     <use x="239.501953" xlink:href="#DejaVuSans-100"/>
     <use x="302.978516" xlink:href="#DejaVuSans-58"/>
     <use x="336.669922" xlink:href="#DejaVuSans-32"/>
     <use x="368.457031" xlink:href="#DejaVuSans-69"/>
     <use x="431.640625" xlink:href="#DejaVuSans-110"/>
     <use x="495.019531" xlink:href="#DejaVuSans-101"/>
     <use x="556.542969" xlink:href="#DejaVuSans-114"/>
     <use x="595.90625" xlink:href="#DejaVuSans-103"/>
     <use x="659.382812" xlink:href="#DejaVuSans-121"/>
     <use x="718.5625" xlink:href="#DejaVuSans-32"/>
     <use x="750.349609" xlink:href="#DejaVuSans-118"/>
     <use x="809.529297" xlink:href="#DejaVuSans-115"/>
     <use x="861.628906" xlink:href="#DejaVuSans-46"/>
     <use x="893.416016" xlink:href="#DejaVuSans-32"/>
     <use x="925.203125" xlink:href="#DejaVuSans-65"/>
     <use x="991.861328" xlink:href="#DejaVuSans-99"/>
     <use x="1046.841797" xlink:href="#DejaVuSans-99"/>
     <use x="1101.822266" xlink:href="#DejaVuSans-117"/>
     <use x="1165.201172" xlink:href="#DejaVuSans-114"/>
     <use x="1206.314453" xlink:href="#DejaVuSans-97"/>
     <use x="1267.59375" xlink:href="#DejaVuSans-99"/>
     <use x="1322.574219" xlink:href="#DejaVuSans-121"/>
     <use x="1381.753906" xlink:href="#DejaVuSans-32"/>
     <use x="1413.541016" xlink:href="#DejaVuSans-119"/>
     <use x="1495.328125" xlink:href="#DejaVuSans-105"/>
     <use x="1523.111328" xlink:href="#DejaVuSans-116"/>
     <use x="1562.320312" xlink:href="#DejaVuSans-104"/>
     <use x="1625.699219" xlink:href="#DejaVuSans-32"/>
     <use x="1657.486328" xlink:href="#DejaVuSans-50"/>
     <use x="1721.109375" xlink:href="#DejaVuSans-48"/>
     <use x="1784.732422" xlink:href="#DejaVuSans-48"/>
     <use x="1848.355469" xlink:href="#DejaVuSans-32"/>
     <use x="1880.142578" xlink:href="#DejaVuSans-85"/>
     <use x="1953.335938" xlink:href="#DejaVuSans-110"/>
     <use x="2016.714844" xlink:href="#DejaVuSans-105"/>
     <use x="2044.498047" xlink:href="#DejaVuSans-116"/>
     <use x="2083.707031" xlink:href="#DejaVuSans-115"/>
     <use x="2135.806641" xlink:href="#DejaVuSans-32"/>
     <use x="2167.59375" xlink:href="#DejaVuSans-64"/>
     <use x="2267.59375" xlink:href="#DejaVuSans-32"/>
     <use x="2299.380859" xlink:href="#DejaVuSans-48"/>
     <use x="2363.003906" xlink:href="#DejaVuSans-46"/>
     <use x="2394.791016" xlink:href="#DejaVuSans-54"/>
    </g>
   </g>
   <g id="legend_1">
    <g id="patch_7">
     <path d="M 799.660625 493 
L 1021.4 493 
Q 1025.8 493 1025.8 488.6 
L 1025.8 361.6325 
Q 1025.8 357.2325 1021.4 357.2325 
L 799.660625 357.2325 
Q 795.260625 357.2325 795.260625 361.6325 
L 795.260625 488.6 
Q 795.260625 493 799.660625 493 
z
" style="fill:#ffffff;opacity:0.8;stroke:#cccccc;stroke-linejoin:miter;"/>
    </g>
    <g id="line2d_60">
     <path d="M 804.060625 375.049062 
L 848.060625 375.049062 
" style="fill:none;stroke:#1f1f1f;stroke-linecap:square;stroke-width:5;"/>
    </g>
    <g id="line2d_61"/>
    <g id="text_18">
     <!-- Ungated: 1.0 -->
     <g transform="translate(865.660625 382.749062)scale(0.22 -0.22)">
      <use xlink:href="#DejaVuSans-85"/>
      <use x="73.193359" xlink:href="#DejaVuSans-110"/>
      <use x="136.572266" xlink:href="#DejaVuSans-103"/>
      <use x="200.048828" xlink:href="#DejaVuSans-97"/>
      <use x="261.328125" xlink:href="#DejaVuSans-116"/>
      <use x="300.537109" xlink:href="#DejaVuSans-101"/>
      <use x="362.060547" xlink:href="#DejaVuSans-100"/>
      <use x="425.537109" xlink:href="#DejaVuSans-58"/>
      <use x="459.228516" xlink:href="#DejaVuSans-32"/>
      <use x="491.015625" xlink:href="#DejaVuSans-49"/>
      <use x="554.638672" xlink:href="#DejaVuSans-46"/>
      <use x="586.425781" xlink:href="#DejaVuSans-48"/>
     </g>
    </g>
    <g id="line2d_62">
     <path d="M 804.060625 407.340937 
L 848.060625 407.340937 
" style="fill:none;stroke:#9e9e9e;stroke-linecap:square;stroke-width:5;"/>
    </g>
    <g id="line2d_63"/>
    <g id="text_19">
     <!-- Minimum: 1.0 -->
     <g transform="translate(865.660625 415.040937)scale(0.22 -0.22)">
      <defs>
       <path d="M 9.8125 72.90625 
L 24.515625 72.90625 
L 43.109375 23.296875 
L 61.8125 72.90625 
L 76.515625 72.90625 
L 76.515625 0 
L 66.890625 0 
L 66.890625 64.015625 
L 48.09375 14.015625 
L 38.1875 14.015625 
L 19.390625 64.015625 
L 19.390625 0 
L 9.8125 0 
z
" id="DejaVuSans-77"/>
       <path d="M 52 44.1875 
Q 55.375 50.25 60.0625 53.125 
Q 64.75 56 71.09375 56 
Q 79.640625 56 84.28125 50.015625 
Q 88.921875 44.046875 88.921875 33.015625 
L 88.921875 0 
L 79.890625 0 
L 79.890625 32.71875 
Q 79.890625 40.578125 77.09375 44.375 
Q 74.3125 48.1875 68.609375 48.1875 
Q 61.625 48.1875 57.5625 43.546875 
Q 53.515625 38.921875 53.515625 30.90625 
L 53.515625 0 
L 44.484375 0 
L 44.484375 32.71875 
Q 44.484375 40.625 41.703125 44.40625 
Q 38.921875 48.1875 33.109375 48.1875 
Q 26.21875 48.1875 22.15625 43.53125 
Q 18.109375 38.875 18.109375 30.90625 
L 18.109375 0 
L 9.078125 0 
L 9.078125 54.6875 
L 18.109375 54.6875 
L 18.109375 46.1875 
Q 21.1875 51.21875 25.484375 53.609375 
Q 29.78125 56 35.6875 56 
Q 41.65625 56 45.828125 52.96875 
Q 50 49.953125 52 44.1875 
z
" id="DejaVuSans-109"/>
      </defs>
      <use xlink:href="#DejaVuSans-77"/>
      <use x="86.279297" xlink:href="#DejaVuSans-105"/>
      <use x="114.0625" xlink:href="#DejaVuSans-110"/>
      <use x="177.441406" xlink:href="#DejaVuSans-105"/>
      <use x="205.224609" xlink:href="#DejaVuSans-109"/>
      <use x="302.636719" xlink:href="#DejaVuSans-117"/>
      <use x="366.015625" xlink:href="#DejaVuSans-109"/>
      <use x="463.427734" xlink:href="#DejaVuSans-58"/>
      <use x="497.119141" xlink:href="#DejaVuSans-32"/>
      <use x="528.90625" xlink:href="#DejaVuSans-49"/>
      <use x="592.529297" xlink:href="#DejaVuSans-46"/>
      <use x="624.316406" xlink:href="#DejaVuSans-48"/>
     </g>
    </g>
    <g id="line2d_64">
     <path d="M 804.060625 439.632812 
L 848.060625 439.632812 
" style="fill:none;stroke:#2ecbff;stroke-linecap:square;stroke-width:5;"/>
    </g>
    <g id="line2d_65"/>
    <g id="text_20">
     <!-- Gated: 0.6 -->
     <g transform="translate(865.660625 447.332812)scale(0.22 -0.22)">
      <use xlink:href="#DejaVuSans-71"/>
      <use x="77.490234" xlink:href="#DejaVuSans-97"/>
      <use x="138.769531" xlink:href="#DejaVuSans-116"/>
      <use x="177.978516" xlink:href="#DejaVuSans-101"/>
      <use x="239.501953" xlink:href="#DejaVuSans-100"/>
      <use x="302.978516" xlink:href="#DejaVuSans-58"/>
      <use x="336.669922" xlink:href="#DejaVuSans-32"/>
      <use x="368.457031" xlink:href="#DejaVuSans-48"/>
      <use x="432.080078" xlink:href="#DejaVuSans-46"/>
      <use x="463.867188" xlink:href="#DejaVuSans-54"/>
     </g>
    </g>
    <g id="line2d_66">
     <path d="M 804.060625 471.924688 
L 848.060625 471.924688 
" style="fill:none;stroke:#9deaff;stroke-linecap:square;stroke-width:5;"/>
    </g>
    <g id="line2d_67"/>
    <g id="text_21">
     <!-- Minimum: 0.6 -->
     <g transform="translate(865.660625 479.624687)scale(0.22 -0.22)">
      <use xlink:href="#DejaVuSans-77"/>
      <use x="86.279297" xlink:href="#DejaVuSans-105"/>
      <use x="114.0625" xlink:href="#DejaVuSans-110"/>
      <use x="177.441406" xlink:href="#DejaVuSans-105"/>
      <use x="205.224609" xlink:href="#DejaVuSans-109"/>
      <use x="302.636719" xlink:href="#DejaVuSans-117"/>
      <use x="366.015625" xlink:href="#DejaVuSans-109"/>
      <use x="463.427734" xlink:href="#DejaVuSans-58"/>
      <use x="497.119141" xlink:href="#DejaVuSans-32"/>
      <use x="528.90625" xlink:href="#DejaVuSans-48"/>
      <use x="592.529297" xlink:href="#DejaVuSans-46"/>
      <use x="624.316406" xlink:href="#DejaVuSans-54"/>
     </g>
    </g>
   </g>
  </g>
 </g>
 <defs>
  <clipPath id="p8cba7880c4">
   <rect height="434.88" width="892.8" x="144" y="69.12"/>
  </clipPath>
 </defs>
</svg>
