<?xml version="1.0" encoding="utf-8" standalone="no"?>
<!DOCTYPE svg PUBLIC "-//W3C//DTD SVG 1.1//EN"
  "http://www.w3.org/Graphics/SVG/1.1/DTD/svg11.dtd">
<!-- Created with matplotlib (https://matplotlib.org/) -->
<svg height="576pt" version="1.1" viewBox="0 0 1152 576" width="1152pt" xmlns="http://www.w3.org/2000/svg" xmlns:xlink="http://www.w3.org/1999/xlink">
 <metadata>
  <rdf:RDF xmlns:cc="http://creativecommons.org/ns#" xmlns:dc="http://purl.org/dc/elements/1.1/" xmlns:rdf="http://www.w3.org/1999/02/22-rdf-syntax-ns#">
   <cc:Work>
    <dc:type rdf:resource="http://purl.org/dc/dcmitype/StillImage"/>
    <dc:date>2021-09-14T20:58:23.563628</dc:date>
    <dc:format>image/svg+xml</dc:format>
    <dc:creator>
     <cc:Agent>
      <dc:title>Matplotlib v3.3.4, https://matplotlib.org/</dc:title>
     </cc:Agent>
    </dc:creator>
   </cc:Work>
  </rdf:RDF>
 </metadata>
 <defs>
  <style type="text/css">*{stroke-linecap:butt;stroke-linejoin:round;}</style>
 </defs>
 <g id="figure_1">
  <g id="patch_1">
   <path d="M 0 576 
L 1152 576 
L 1152 0 
L 0 0 
z
" style="fill:#ffffff;"/>
  </g>
  <g id="axes_1">
   <g id="patch_2">
    <path d="M 144 504 
L 1036.8 504 
L 1036.8 69.12 
L 144 69.12 
z
" style="fill:#ffffff;"/>
   </g>
   <g id="matplotlib.axis_1">
    <g id="xtick_1">
     <g id="line2d_1">
      <defs>
       <path d="M 0 0 
L 0 3.5 
" id="mffd7720473" style="stroke:#000000;stroke-width:0.8;"/>
      </defs>
      <g>
       <use style="stroke:#000000;stroke-width:0.8;" x="232.325134" xlink:href="#mffd7720473" y="504"/>
      </g>
     </g>
     <g id="text_1">
      <!-- 0.2 -->
      <g transform="translate(213.241384 529.23625)scale(0.24 -0.24)">
       <defs>
        <path d="M 31.78125 66.40625 
Q 24.171875 66.40625 20.328125 58.90625 
Q 16.5 51.421875 16.5 36.375 
Q 16.5 21.390625 20.328125 13.890625 
Q 24.171875 6.390625 31.78125 6.390625 
Q 39.453125 6.390625 43.28125 13.890625 
Q 47.125 21.390625 47.125 36.375 
Q 47.125 51.421875 43.28125 58.90625 
Q 39.453125 66.40625 31.78125 66.40625 
z
M 31.78125 74.21875 
Q 44.046875 74.21875 50.515625 64.515625 
Q 56.984375 54.828125 56.984375 36.375 
Q 56.984375 17.96875 50.515625 8.265625 
Q 44.046875 -1.421875 31.78125 -1.421875 
Q 19.53125 -1.421875 13.0625 8.265625 
Q 6.59375 17.96875 6.59375 36.375 
Q 6.59375 54.828125 13.0625 64.515625 
Q 19.53125 74.21875 31.78125 74.21875 
z
" id="DejaVuSans-48"/>
        <path d="M 10.6875 12.40625 
L 21 12.40625 
L 21 0 
L 10.6875 0 
z
" id="DejaVuSans-46"/>
        <path d="M 19.1875 8.296875 
L 53.609375 8.296875 
L 53.609375 0 
L 7.328125 0 
L 7.328125 8.296875 
Q 12.9375 14.109375 22.625 23.890625 
Q 32.328125 33.6875 34.8125 36.53125 
Q 39.546875 41.84375 41.421875 45.53125 
Q 43.3125 49.21875 43.3125 52.78125 
Q 43.3125 58.59375 39.234375 62.25 
Q 35.15625 65.921875 28.609375 65.921875 
Q 23.96875 65.921875 18.8125 64.3125 
Q 13.671875 62.703125 7.8125 59.421875 
L 7.8125 69.390625 
Q 13.765625 71.78125 18.9375 73 
Q 24.125 74.21875 28.421875 74.21875 
Q 39.75 74.21875 46.484375 68.546875 
Q 53.21875 62.890625 53.21875 53.421875 
Q 53.21875 48.921875 51.53125 44.890625 
Q 49.859375 40.875 45.40625 35.40625 
Q 44.1875 33.984375 37.640625 27.21875 
Q 31.109375 20.453125 19.1875 8.296875 
z
" id="DejaVuSans-50"/>
       </defs>
       <use xlink:href="#DejaVuSans-48"/>
       <use x="63.623047" xlink:href="#DejaVuSans-46"/>
       <use x="95.410156" xlink:href="#DejaVuSans-50"/>
      </g>
     </g>
    </g>
    <g id="xtick_2">
     <g id="line2d_2">
      <g>
       <use style="stroke:#000000;stroke-width:0.8;" x="423.298396" xlink:href="#mffd7720473" y="504"/>
      </g>
     </g>
     <g id="text_2">
      <!-- 0.4 -->
      <g transform="translate(404.214646 529.23625)scale(0.24 -0.24)">
       <defs>
        <path d="M 37.796875 64.3125 
L 12.890625 25.390625 
L 37.796875 25.390625 
z
M 35.203125 72.90625 
L 47.609375 72.90625 
L 47.609375 25.390625 
L 58.015625 25.390625 
L 58.015625 17.1875 
L 47.609375 17.1875 
L 47.609375 0 
L 37.796875 0 
L 37.796875 17.1875 
L 4.890625 17.1875 
L 4.890625 26.703125 
z
" id="DejaVuSans-52"/>
       </defs>
       <use xlink:href="#DejaVuSans-48"/>
       <use x="63.623047" xlink:href="#DejaVuSans-46"/>
       <use x="95.410156" xlink:href="#DejaVuSans-52"/>
      </g>
     </g>
    </g>
    <g id="xtick_3">
     <g id="line2d_3">
      <g>
       <use style="stroke:#000000;stroke-width:0.8;" x="614.271658" xlink:href="#mffd7720473" y="504"/>
      </g>
     </g>
     <g id="text_3">
      <!-- 0.6 -->
      <g transform="translate(595.187908 529.23625)scale(0.24 -0.24)">
       <defs>
        <path d="M 33.015625 40.375 
Q 26.375 40.375 22.484375 35.828125 
Q 18.609375 31.296875 18.609375 23.390625 
Q 18.609375 15.53125 22.484375 10.953125 
Q 26.375 6.390625 33.015625 6.390625 
Q 39.65625 6.390625 43.53125 10.953125 
Q 47.40625 15.53125 47.40625 23.390625 
Q 47.40625 31.296875 43.53125 35.828125 
Q 39.65625 40.375 33.015625 40.375 
z
M 52.59375 71.296875 
L 52.59375 62.3125 
Q 48.875 64.0625 45.09375 64.984375 
Q 41.3125 65.921875 37.59375 65.921875 
Q 27.828125 65.921875 22.671875 59.328125 
Q 17.53125 52.734375 16.796875 39.40625 
Q 19.671875 43.65625 24.015625 45.921875 
Q 28.375 48.1875 33.59375 48.1875 
Q 44.578125 48.1875 50.953125 41.515625 
Q 57.328125 34.859375 57.328125 23.390625 
Q 57.328125 12.15625 50.6875 5.359375 
Q 44.046875 -1.421875 33.015625 -1.421875 
Q 20.359375 -1.421875 13.671875 8.265625 
Q 6.984375 17.96875 6.984375 36.375 
Q 6.984375 53.65625 15.1875 63.9375 
Q 23.390625 74.21875 37.203125 74.21875 
Q 40.921875 74.21875 44.703125 73.484375 
Q 48.484375 72.75 52.59375 71.296875 
z
" id="DejaVuSans-54"/>
       </defs>
       <use xlink:href="#DejaVuSans-48"/>
       <use x="63.623047" xlink:href="#DejaVuSans-46"/>
       <use x="95.410156" xlink:href="#DejaVuSans-54"/>
      </g>
     </g>
    </g>
    <g id="xtick_4">
     <g id="line2d_4">
      <g>
       <use style="stroke:#000000;stroke-width:0.8;" x="805.24492" xlink:href="#mffd7720473" y="504"/>
      </g>
     </g>
     <g id="text_4">
      <!-- 0.8 -->
      <g transform="translate(786.16117 529.23625)scale(0.24 -0.24)">
       <defs>
        <path d="M 31.78125 34.625 
Q 24.75 34.625 20.71875 30.859375 
Q 16.703125 27.09375 16.703125 20.515625 
Q 16.703125 13.921875 20.71875 10.15625 
Q 24.75 6.390625 31.78125 6.390625 
Q 38.8125 6.390625 42.859375 10.171875 
Q 46.921875 13.96875 46.921875 20.515625 
Q 46.921875 27.09375 42.890625 30.859375 
Q 38.875 34.625 31.78125 34.625 
z
M 21.921875 38.8125 
Q 15.578125 40.375 12.03125 44.71875 
Q 8.5 49.078125 8.5 55.328125 
Q 8.5 64.0625 14.71875 69.140625 
Q 20.953125 74.21875 31.78125 74.21875 
Q 42.671875 74.21875 48.875 69.140625 
Q 55.078125 64.0625 55.078125 55.328125 
Q 55.078125 49.078125 51.53125 44.71875 
Q 48 40.375 41.703125 38.8125 
Q 48.828125 37.15625 52.796875 32.3125 
Q 56.78125 27.484375 56.78125 20.515625 
Q 56.78125 9.90625 50.3125 4.234375 
Q 43.84375 -1.421875 31.78125 -1.421875 
Q 19.734375 -1.421875 13.25 4.234375 
Q 6.78125 9.90625 6.78125 20.515625 
Q 6.78125 27.484375 10.78125 32.3125 
Q 14.796875 37.15625 21.921875 38.8125 
z
M 18.3125 54.390625 
Q 18.3125 48.734375 21.84375 45.5625 
Q 25.390625 42.390625 31.78125 42.390625 
Q 38.140625 42.390625 41.71875 45.5625 
Q 45.3125 48.734375 45.3125 54.390625 
Q 45.3125 60.0625 41.71875 63.234375 
Q 38.140625 66.40625 31.78125 66.40625 
Q 25.390625 66.40625 21.84375 63.234375 
Q 18.3125 60.0625 18.3125 54.390625 
z
" id="DejaVuSans-56"/>
       </defs>
       <use xlink:href="#DejaVuSans-48"/>
       <use x="63.623047" xlink:href="#DejaVuSans-46"/>
       <use x="95.410156" xlink:href="#DejaVuSans-56"/>
      </g>
     </g>
    </g>
    <g id="xtick_5">
     <g id="line2d_5">
      <g>
       <use style="stroke:#000000;stroke-width:0.8;" x="996.218182" xlink:href="#mffd7720473" y="504"/>
      </g>
     </g>
     <g id="text_5">
      <!-- 1.0 -->
      <g transform="translate(977.134432 529.23625)scale(0.24 -0.24)">
       <defs>
        <path d="M 12.40625 8.296875 
L 28.515625 8.296875 
L 28.515625 63.921875 
L 10.984375 60.40625 
L 10.984375 69.390625 
L 28.421875 72.90625 
L 38.28125 72.90625 
L 38.28125 8.296875 
L 54.390625 8.296875 
L 54.390625 0 
L 12.40625 0 
z
" id="DejaVuSans-49"/>
       </defs>
       <use xlink:href="#DejaVuSans-49"/>
       <use x="63.623047" xlink:href="#DejaVuSans-46"/>
       <use x="95.410156" xlink:href="#DejaVuSans-48"/>
      </g>
     </g>
    </g>
    <g id="text_6">
     <!-- Probability of Connection -->
     <g transform="translate(414.789687 559.503125)scale(0.28 -0.28)">
      <defs>
       <path d="M 19.671875 64.796875 
L 19.671875 37.40625 
L 32.078125 37.40625 
Q 38.96875 37.40625 42.71875 40.96875 
Q 46.484375 44.53125 46.484375 51.125 
Q 46.484375 57.671875 42.71875 61.234375 
Q 38.96875 64.796875 32.078125 64.796875 
z
M 9.8125 72.90625 
L 32.078125 72.90625 
Q 44.34375 72.90625 50.609375 67.359375 
Q 56.890625 61.8125 56.890625 51.125 
Q 56.890625 40.328125 50.609375 34.8125 
Q 44.34375 29.296875 32.078125 29.296875 
L 19.671875 29.296875 
L 19.671875 0 
L 9.8125 0 
z
" id="DejaVuSans-80"/>
       <path d="M 41.109375 46.296875 
Q 39.59375 47.171875 37.8125 47.578125 
Q 36.03125 48 33.890625 48 
Q 26.265625 48 22.1875 43.046875 
Q 18.109375 38.09375 18.109375 28.8125 
L 18.109375 0 
L 9.078125 0 
L 9.078125 54.6875 
L 18.109375 54.6875 
L 18.109375 46.1875 
Q 20.953125 51.171875 25.484375 53.578125 
Q 30.03125 56 36.53125 56 
Q 37.453125 56 38.578125 55.875 
Q 39.703125 55.765625 41.0625 55.515625 
z
" id="DejaVuSans-114"/>
       <path d="M 30.609375 48.390625 
Q 23.390625 48.390625 19.1875 42.75 
Q 14.984375 37.109375 14.984375 27.296875 
Q 14.984375 17.484375 19.15625 11.84375 
Q 23.34375 6.203125 30.609375 6.203125 
Q 37.796875 6.203125 41.984375 11.859375 
Q 46.1875 17.53125 46.1875 27.296875 
Q 46.1875 37.015625 41.984375 42.703125 
Q 37.796875 48.390625 30.609375 48.390625 
z
M 30.609375 56 
Q 42.328125 56 49.015625 48.375 
Q 55.71875 40.765625 55.71875 27.296875 
Q 55.71875 13.875 49.015625 6.21875 
Q 42.328125 -1.421875 30.609375 -1.421875 
Q 18.84375 -1.421875 12.171875 6.21875 
Q 5.515625 13.875 5.515625 27.296875 
Q 5.515625 40.765625 12.171875 48.375 
Q 18.84375 56 30.609375 56 
z
" id="DejaVuSans-111"/>
       <path d="M 48.6875 27.296875 
Q 48.6875 37.203125 44.609375 42.84375 
Q 40.53125 48.484375 33.40625 48.484375 
Q 26.265625 48.484375 22.1875 42.84375 
Q 18.109375 37.203125 18.109375 27.296875 
Q 18.109375 17.390625 22.1875 11.75 
Q 26.265625 6.109375 33.40625 6.109375 
Q 40.53125 6.109375 44.609375 11.75 
Q 48.6875 17.390625 48.6875 27.296875 
z
M 18.109375 46.390625 
Q 20.953125 51.265625 25.265625 53.625 
Q 29.59375 56 35.59375 56 
Q 45.5625 56 51.78125 48.09375 
Q 58.015625 40.1875 58.015625 27.296875 
Q 58.015625 14.40625 51.78125 6.484375 
Q 45.5625 -1.421875 35.59375 -1.421875 
Q 29.59375 -1.421875 25.265625 0.953125 
Q 20.953125 3.328125 18.109375 8.203125 
L 18.109375 0 
L 9.078125 0 
L 9.078125 75.984375 
L 18.109375 75.984375 
z
" id="DejaVuSans-98"/>
       <path d="M 34.28125 27.484375 
Q 23.390625 27.484375 19.1875 25 
Q 14.984375 22.515625 14.984375 16.5 
Q 14.984375 11.71875 18.140625 8.90625 
Q 21.296875 6.109375 26.703125 6.109375 
Q 34.1875 6.109375 38.703125 11.40625 
Q 43.21875 16.703125 43.21875 25.484375 
L 43.21875 27.484375 
z
M 52.203125 31.203125 
L 52.203125 0 
L 43.21875 0 
L 43.21875 8.296875 
Q 40.140625 3.328125 35.546875 0.953125 
Q 30.953125 -1.421875 24.3125 -1.421875 
Q 15.921875 -1.421875 10.953125 3.296875 
Q 6 8.015625 6 15.921875 
Q 6 25.140625 12.171875 29.828125 
Q 18.359375 34.515625 30.609375 34.515625 
L 43.21875 34.515625 
L 43.21875 35.40625 
Q 43.21875 41.609375 39.140625 45 
Q 35.0625 48.390625 27.6875 48.390625 
Q 23 48.390625 18.546875 47.265625 
Q 14.109375 46.140625 10.015625 43.890625 
L 10.015625 52.203125 
Q 14.9375 54.109375 19.578125 55.046875 
Q 24.21875 56 28.609375 56 
Q 40.484375 56 46.34375 49.84375 
Q 52.203125 43.703125 52.203125 31.203125 
z
" id="DejaVuSans-97"/>
       <path d="M 9.421875 54.6875 
L 18.40625 54.6875 
L 18.40625 0 
L 9.421875 0 
z
M 9.421875 75.984375 
L 18.40625 75.984375 
L 18.40625 64.59375 
L 9.421875 64.59375 
z
" id="DejaVuSans-105"/>
       <path d="M 9.421875 75.984375 
L 18.40625 75.984375 
L 18.40625 0 
L 9.421875 0 
z
" id="DejaVuSans-108"/>
       <path d="M 18.3125 70.21875 
L 18.3125 54.6875 
L 36.8125 54.6875 
L 36.8125 47.703125 
L 18.3125 47.703125 
L 18.3125 18.015625 
Q 18.3125 11.328125 20.140625 9.421875 
Q 21.96875 7.515625 27.59375 7.515625 
L 36.8125 7.515625 
L 36.8125 0 
L 27.59375 0 
Q 17.1875 0 13.234375 3.875 
Q 9.28125 7.765625 9.28125 18.015625 
L 9.28125 47.703125 
L 2.6875 47.703125 
L 2.6875 54.6875 
L 9.28125 54.6875 
L 9.28125 70.21875 
z
" id="DejaVuSans-116"/>
       <path d="M 32.171875 -5.078125 
Q 28.375 -14.84375 24.75 -17.8125 
Q 21.140625 -20.796875 15.09375 -20.796875 
L 7.90625 -20.796875 
L 7.90625 -13.28125 
L 13.1875 -13.28125 
Q 16.890625 -13.28125 18.9375 -11.515625 
Q 21 -9.765625 23.484375 -3.21875 
L 25.09375 0.875 
L 2.984375 54.6875 
L 12.5 54.6875 
L 29.59375 11.921875 
L 46.6875 54.6875 
L 56.203125 54.6875 
z
" id="DejaVuSans-121"/>
       <path id="DejaVuSans-32"/>
       <path d="M 37.109375 75.984375 
L 37.109375 68.5 
L 28.515625 68.5 
Q 23.6875 68.5 21.796875 66.546875 
Q 19.921875 64.59375 19.921875 59.515625 
L 19.921875 54.6875 
L 34.71875 54.6875 
L 34.71875 47.703125 
L 19.921875 47.703125 
L 19.921875 0 
L 10.890625 0 
L 10.890625 47.703125 
L 2.296875 47.703125 
L 2.296875 54.6875 
L 10.890625 54.6875 
L 10.890625 58.5 
Q 10.890625 67.625 15.140625 71.796875 
Q 19.390625 75.984375 28.609375 75.984375 
z
" id="DejaVuSans-102"/>
       <path d="M 64.40625 67.28125 
L 64.40625 56.890625 
Q 59.421875 61.53125 53.78125 63.8125 
Q 48.140625 66.109375 41.796875 66.109375 
Q 29.296875 66.109375 22.65625 58.46875 
Q 16.015625 50.828125 16.015625 36.375 
Q 16.015625 21.96875 22.65625 14.328125 
Q 29.296875 6.6875 41.796875 6.6875 
Q 48.140625 6.6875 53.78125 8.984375 
Q 59.421875 11.28125 64.40625 15.921875 
L 64.40625 5.609375 
Q 59.234375 2.09375 53.4375 0.328125 
Q 47.65625 -1.421875 41.21875 -1.421875 
Q 24.65625 -1.421875 15.125 8.703125 
Q 5.609375 18.84375 5.609375 36.375 
Q 5.609375 53.953125 15.125 64.078125 
Q 24.65625 74.21875 41.21875 74.21875 
Q 47.75 74.21875 53.53125 72.484375 
Q 59.328125 70.75 64.40625 67.28125 
z
" id="DejaVuSans-67"/>
       <path d="M 54.890625 33.015625 
L 54.890625 0 
L 45.90625 0 
L 45.90625 32.71875 
Q 45.90625 40.484375 42.875 44.328125 
Q 39.84375 48.1875 33.796875 48.1875 
Q 26.515625 48.1875 22.3125 43.546875 
Q 18.109375 38.921875 18.109375 30.90625 
L 18.109375 0 
L 9.078125 0 
L 9.078125 54.6875 
L 18.109375 54.6875 
L 18.109375 46.1875 
Q 21.34375 51.125 25.703125 53.5625 
Q 30.078125 56 35.796875 56 
Q 45.21875 56 50.046875 50.171875 
Q 54.890625 44.34375 54.890625 33.015625 
z
" id="DejaVuSans-110"/>
       <path d="M 56.203125 29.59375 
L 56.203125 25.203125 
L 14.890625 25.203125 
Q 15.484375 15.921875 20.484375 11.0625 
Q 25.484375 6.203125 34.421875 6.203125 
Q 39.59375 6.203125 44.453125 7.46875 
Q 49.3125 8.734375 54.109375 11.28125 
L 54.109375 2.78125 
Q 49.265625 0.734375 44.1875 -0.34375 
Q 39.109375 -1.421875 33.890625 -1.421875 
Q 20.796875 -1.421875 13.15625 6.1875 
Q 5.515625 13.8125 5.515625 26.8125 
Q 5.515625 40.234375 12.765625 48.109375 
Q 20.015625 56 32.328125 56 
Q 43.359375 56 49.78125 48.890625 
Q 56.203125 41.796875 56.203125 29.59375 
z
M 47.21875 32.234375 
Q 47.125 39.59375 43.09375 43.984375 
Q 39.0625 48.390625 32.421875 48.390625 
Q 24.90625 48.390625 20.390625 44.140625 
Q 15.875 39.890625 15.1875 32.171875 
z
" id="DejaVuSans-101"/>
       <path d="M 48.78125 52.59375 
L 48.78125 44.1875 
Q 44.96875 46.296875 41.140625 47.34375 
Q 37.3125 48.390625 33.40625 48.390625 
Q 24.65625 48.390625 19.8125 42.84375 
Q 14.984375 37.3125 14.984375 27.296875 
Q 14.984375 17.28125 19.8125 11.734375 
Q 24.65625 6.203125 33.40625 6.203125 
Q 37.3125 6.203125 41.140625 7.25 
Q 44.96875 8.296875 48.78125 10.40625 
L 48.78125 2.09375 
Q 45.015625 0.34375 40.984375 -0.53125 
Q 36.96875 -1.421875 32.421875 -1.421875 
Q 20.0625 -1.421875 12.78125 6.34375 
Q 5.515625 14.109375 5.515625 27.296875 
Q 5.515625 40.671875 12.859375 48.328125 
Q 20.21875 56 33.015625 56 
Q 37.15625 56 41.109375 55.140625 
Q 45.0625 54.296875 48.78125 52.59375 
z
" id="DejaVuSans-99"/>
      </defs>
      <use xlink:href="#DejaVuSans-80"/>
      <use x="58.552734" xlink:href="#DejaVuSans-114"/>
      <use x="97.416016" xlink:href="#DejaVuSans-111"/>
      <use x="158.597656" xlink:href="#DejaVuSans-98"/>
      <use x="222.074219" xlink:href="#DejaVuSans-97"/>
      <use x="283.353516" xlink:href="#DejaVuSans-98"/>
      <use x="346.830078" xlink:href="#DejaVuSans-105"/>
      <use x="374.613281" xlink:href="#DejaVuSans-108"/>
      <use x="402.396484" xlink:href="#DejaVuSans-105"/>
      <use x="430.179688" xlink:href="#DejaVuSans-116"/>
      <use x="469.388672" xlink:href="#DejaVuSans-121"/>
      <use x="528.568359" xlink:href="#DejaVuSans-32"/>
      <use x="560.355469" xlink:href="#DejaVuSans-111"/>
      <use x="621.537109" xlink:href="#DejaVuSans-102"/>
      <use x="656.742188" xlink:href="#DejaVuSans-32"/>
      <use x="688.529297" xlink:href="#DejaVuSans-67"/>
      <use x="758.353516" xlink:href="#DejaVuSans-111"/>
      <use x="819.535156" xlink:href="#DejaVuSans-110"/>
      <use x="882.914062" xlink:href="#DejaVuSans-110"/>
      <use x="946.292969" xlink:href="#DejaVuSans-101"/>
      <use x="1007.816406" xlink:href="#DejaVuSans-99"/>
      <use x="1062.796875" xlink:href="#DejaVuSans-116"/>
      <use x="1102.005859" xlink:href="#DejaVuSans-105"/>
      <use x="1129.789062" xlink:href="#DejaVuSans-111"/>
      <use x="1190.970703" xlink:href="#DejaVuSans-110"/>
     </g>
    </g>
   </g>
   <g id="matplotlib.axis_2">
    <g id="ytick_1">
     <g id="line2d_6">
      <defs>
       <path d="M 0 0 
L -2 0 
" id="mc28f5848fe" style="stroke:#000000;stroke-width:0.6;"/>
      </defs>
      <g>
       <use style="stroke:#000000;stroke-width:0.6;" x="144" xlink:href="#mc28f5848fe" y="458.419964"/>
      </g>
     </g>
     <g id="text_7">
      <!-- $\mathdefault{3\times10^{4}}$ -->
      <g transform="translate(51.72 467.538089)scale(0.24 -0.24)">
       <defs>
        <path d="M 40.578125 39.3125 
Q 47.65625 37.796875 51.625 33 
Q 55.609375 28.21875 55.609375 21.1875 
Q 55.609375 10.40625 48.1875 4.484375 
Q 40.765625 -1.421875 27.09375 -1.421875 
Q 22.515625 -1.421875 17.65625 -0.515625 
Q 12.796875 0.390625 7.625 2.203125 
L 7.625 11.71875 
Q 11.71875 9.328125 16.59375 8.109375 
Q 21.484375 6.890625 26.8125 6.890625 
Q 36.078125 6.890625 40.9375 10.546875 
Q 45.796875 14.203125 45.796875 21.1875 
Q 45.796875 27.640625 41.28125 31.265625 
Q 36.765625 34.90625 28.71875 34.90625 
L 20.21875 34.90625 
L 20.21875 43.015625 
L 29.109375 43.015625 
Q 36.375 43.015625 40.234375 45.921875 
Q 44.09375 48.828125 44.09375 54.296875 
Q 44.09375 59.90625 40.109375 62.90625 
Q 36.140625 65.921875 28.71875 65.921875 
Q 24.65625 65.921875 20.015625 65.03125 
Q 15.375 64.15625 9.8125 62.3125 
L 9.8125 71.09375 
Q 15.4375 72.65625 20.34375 73.4375 
Q 25.25 74.21875 29.59375 74.21875 
Q 40.828125 74.21875 47.359375 69.109375 
Q 53.90625 64.015625 53.90625 55.328125 
Q 53.90625 49.265625 50.4375 45.09375 
Q 46.96875 40.921875 40.578125 39.3125 
z
" id="DejaVuSans-51"/>
        <path d="M 70.125 53.71875 
L 47.796875 31.296875 
L 70.125 8.984375 
L 64.3125 3.078125 
L 41.890625 25.484375 
L 19.484375 3.078125 
L 13.71875 8.984375 
L 35.984375 31.296875 
L 13.71875 53.71875 
L 19.484375 59.625 
L 41.890625 37.203125 
L 64.3125 59.625 
z
" id="DejaVuSans-215"/>
       </defs>
       <use transform="translate(0 0.684375)" xlink:href="#DejaVuSans-51"/>
       <use transform="translate(83.105469 0.684375)" xlink:href="#DejaVuSans-215"/>
       <use transform="translate(186.376953 0.684375)" xlink:href="#DejaVuSans-49"/>
       <use transform="translate(250 0.684375)" xlink:href="#DejaVuSans-48"/>
       <use transform="translate(314.580078 38.965625)scale(0.7)" xlink:href="#DejaVuSans-52"/>
      </g>
     </g>
    </g>
    <g id="ytick_2">
     <g id="line2d_7">
      <g>
       <use style="stroke:#000000;stroke-width:0.6;" x="144" xlink:href="#mc28f5848fe" y="358.24417"/>
      </g>
     </g>
     <g id="text_8">
      <!-- $\mathdefault{4\times10^{4}}$ -->
      <g transform="translate(51.72 367.362295)scale(0.24 -0.24)">
       <use transform="translate(0 0.684375)" xlink:href="#DejaVuSans-52"/>
       <use transform="translate(83.105469 0.684375)" xlink:href="#DejaVuSans-215"/>
       <use transform="translate(186.376953 0.684375)" xlink:href="#DejaVuSans-49"/>
       <use transform="translate(250 0.684375)" xlink:href="#DejaVuSans-48"/>
       <use transform="translate(314.580078 38.965625)scale(0.7)" xlink:href="#DejaVuSans-52"/>
      </g>
     </g>
    </g>
    <g id="ytick_3">
     <g id="line2d_8">
      <g>
       <use style="stroke:#000000;stroke-width:0.6;" x="144" xlink:href="#mc28f5848fe" y="280.541786"/>
      </g>
     </g>
    </g>
    <g id="ytick_4">
     <g id="line2d_9">
      <g>
       <use style="stroke:#000000;stroke-width:0.6;" x="144" xlink:href="#mc28f5848fe" y="217.054317"/>
      </g>
     </g>
     <g id="text_9">
      <!-- $\mathdefault{6\times10^{4}}$ -->
      <g transform="translate(51.72 226.172442)scale(0.24 -0.24)">
       <use transform="translate(0 0.684375)" xlink:href="#DejaVuSans-54"/>
       <use transform="translate(83.105469 0.684375)" xlink:href="#DejaVuSans-215"/>
       <use transform="translate(186.376953 0.684375)" xlink:href="#DejaVuSans-49"/>
       <use transform="translate(250 0.684375)" xlink:href="#DejaVuSans-48"/>
       <use transform="translate(314.580078 38.965625)scale(0.7)" xlink:href="#DejaVuSans-52"/>
      </g>
     </g>
    </g>
    <g id="ytick_5">
     <g id="line2d_10">
      <g>
       <use style="stroke:#000000;stroke-width:0.6;" x="144" xlink:href="#mc28f5848fe" y="163.376426"/>
      </g>
     </g>
    </g>
    <g id="ytick_6">
     <g id="line2d_11">
      <g>
       <use style="stroke:#000000;stroke-width:0.6;" x="144" xlink:href="#mc28f5848fe" y="116.878522"/>
      </g>
     </g>
    </g>
    <g id="ytick_7">
     <g id="line2d_12">
      <g>
       <use style="stroke:#000000;stroke-width:0.6;" x="144" xlink:href="#mc28f5848fe" y="75.864464"/>
      </g>
     </g>
    </g>
    <g id="text_10">
     <!-- Energy /a.u. -->
     <g transform="translate(41.896875 371.09375)rotate(-90)scale(0.28 -0.28)">
      <defs>
       <path d="M 9.8125 72.90625 
L 55.90625 72.90625 
L 55.90625 64.59375 
L 19.671875 64.59375 
L 19.671875 43.015625 
L 54.390625 43.015625 
L 54.390625 34.71875 
L 19.671875 34.71875 
L 19.671875 8.296875 
L 56.78125 8.296875 
L 56.78125 0 
L 9.8125 0 
z
" id="DejaVuSans-69"/>
       <path d="M 45.40625 27.984375 
Q 45.40625 37.75 41.375 43.109375 
Q 37.359375 48.484375 30.078125 48.484375 
Q 22.859375 48.484375 18.828125 43.109375 
Q 14.796875 37.75 14.796875 27.984375 
Q 14.796875 18.265625 18.828125 12.890625 
Q 22.859375 7.515625 30.078125 7.515625 
Q 37.359375 7.515625 41.375 12.890625 
Q 45.40625 18.265625 45.40625 27.984375 
z
M 54.390625 6.78125 
Q 54.390625 -7.171875 48.1875 -13.984375 
Q 42 -20.796875 29.203125 -20.796875 
Q 24.46875 -20.796875 20.265625 -20.09375 
Q 16.0625 -19.390625 12.109375 -17.921875 
L 12.109375 -9.1875 
Q 16.0625 -11.328125 19.921875 -12.34375 
Q 23.78125 -13.375 27.78125 -13.375 
Q 36.625 -13.375 41.015625 -8.765625 
Q 45.40625 -4.15625 45.40625 5.171875 
L 45.40625 9.625 
Q 42.625 4.78125 38.28125 2.390625 
Q 33.9375 0 27.875 0 
Q 17.828125 0 11.671875 7.65625 
Q 5.515625 15.328125 5.515625 27.984375 
Q 5.515625 40.671875 11.671875 48.328125 
Q 17.828125 56 27.875 56 
Q 33.9375 56 38.28125 53.609375 
Q 42.625 51.21875 45.40625 46.390625 
L 45.40625 54.6875 
L 54.390625 54.6875 
z
" id="DejaVuSans-103"/>
       <path d="M 25.390625 72.90625 
L 33.6875 72.90625 
L 8.296875 -9.28125 
L 0 -9.28125 
z
" id="DejaVuSans-47"/>
       <path d="M 8.5 21.578125 
L 8.5 54.6875 
L 17.484375 54.6875 
L 17.484375 21.921875 
Q 17.484375 14.15625 20.5 10.265625 
Q 23.53125 6.390625 29.59375 6.390625 
Q 36.859375 6.390625 41.078125 11.03125 
Q 45.3125 15.671875 45.3125 23.6875 
L 45.3125 54.6875 
L 54.296875 54.6875 
L 54.296875 0 
L 45.3125 0 
L 45.3125 8.40625 
Q 42.046875 3.421875 37.71875 1 
Q 33.40625 -1.421875 27.6875 -1.421875 
Q 18.265625 -1.421875 13.375 4.4375 
Q 8.5 10.296875 8.5 21.578125 
z
M 31.109375 56 
z
" id="DejaVuSans-117"/>
      </defs>
      <use xlink:href="#DejaVuSans-69"/>
      <use x="63.183594" xlink:href="#DejaVuSans-110"/>
      <use x="126.5625" xlink:href="#DejaVuSans-101"/>
      <use x="188.085938" xlink:href="#DejaVuSans-114"/>
      <use x="227.449219" xlink:href="#DejaVuSans-103"/>
      <use x="290.925781" xlink:href="#DejaVuSans-121"/>
      <use x="350.105469" xlink:href="#DejaVuSans-32"/>
      <use x="381.892578" xlink:href="#DejaVuSans-47"/>
      <use x="415.583984" xlink:href="#DejaVuSans-97"/>
      <use x="476.863281" xlink:href="#DejaVuSans-46"/>
      <use x="508.650391" xlink:href="#DejaVuSans-117"/>
      <use x="572.029297" xlink:href="#DejaVuSans-46"/>
     </g>
    </g>
   </g>
   <g id="line2d_13">
    <defs>
     <path d="M 0 6.25 
C 1.657519 6.25 3.247374 5.591461 4.419417 4.419417 
C 5.591461 3.247374 6.25 1.657519 6.25 0 
C 6.25 -1.657519 5.591461 -3.247374 4.419417 -4.419417 
C 3.247374 -5.591461 1.657519 -6.25 0 -6.25 
C -1.657519 -6.25 -3.247374 -5.591461 -4.419417 -4.419417 
C -5.591461 -3.247374 -6.25 -1.657519 -6.25 0 
C -6.25 1.657519 -5.591461 3.247374 -4.419417 4.419417 
C -3.247374 5.591461 -1.657519 6.25 0 6.25 
z
" id="m08d474e9d4" style="stroke:#ffc36e;"/>
    </defs>
    <g clip-path="url(#p8ae443e167)">
     <use style="fill:#ffc36e;stroke:#ffc36e;" x="327.811765" xlink:href="#m08d474e9d4" y="228.113803"/>
     <use style="fill:#ffc36e;stroke:#ffc36e;" x="375.55508" xlink:href="#m08d474e9d4" y="199.298911"/>
     <use style="fill:#ffc36e;stroke:#ffc36e;" x="423.298396" xlink:href="#m08d474e9d4" y="236.493318"/>
     <use style="fill:#ffc36e;stroke:#ffc36e;" x="471.041711" xlink:href="#m08d474e9d4" y="283.556871"/>
     <use style="fill:#ffc36e;stroke:#ffc36e;" x="518.785027" xlink:href="#m08d474e9d4" y="235.292246"/>
     <use style="fill:#ffc36e;stroke:#ffc36e;" x="566.528342" xlink:href="#m08d474e9d4" y="194.625316"/>
     <use style="fill:#ffc36e;stroke:#ffc36e;" x="614.271658" xlink:href="#m08d474e9d4" y="239.214875"/>
     <use style="fill:#ffc36e;stroke:#ffc36e;" x="662.014973" xlink:href="#m08d474e9d4" y="251.94286"/>
     <use style="fill:#ffc36e;stroke:#ffc36e;" x="709.758289" xlink:href="#m08d474e9d4" y="284.532101"/>
     <use style="fill:#ffc36e;stroke:#ffc36e;" x="757.501604" xlink:href="#m08d474e9d4" y="273.38201"/>
     <use style="fill:#ffc36e;stroke:#ffc36e;" x="805.24492" xlink:href="#m08d474e9d4" y="258.004049"/>
     <use style="fill:#ffc36e;stroke:#ffc36e;" x="852.988235" xlink:href="#m08d474e9d4" y="268.09989"/>
     <use style="fill:#ffc36e;stroke:#ffc36e;" x="900.731551" xlink:href="#m08d474e9d4" y="246.481348"/>
     <use style="fill:#ffc36e;stroke:#ffc36e;" x="948.474866" xlink:href="#m08d474e9d4" y="279.737394"/>
     <use style="fill:#ffc36e;stroke:#ffc36e;" x="996.218182" xlink:href="#m08d474e9d4" y="255.397619"/>
    </g>
   </g>
   <g id="line2d_14">
    <path clip-path="url(#p8ae443e167)" d="M 327.811765 228.113803 
L 375.55508 238.086345 
L 423.298396 251.066916 
L 471.041711 235.936939 
L 518.785027 222.453149 
L 566.528342 227.716133 
L 614.271658 258.045106 
L 662.014973 269.688525 
L 709.758289 271.80256 
L 757.501604 266.436748 
L 805.24492 257.416353 
L 852.988235 264.49906 
L 900.731551 260.257101 
L 948.474866 279.737394 
L 996.218182 255.397619 
" style="fill:none;stroke:#ffc36e;stroke-linecap:square;stroke-width:5;"/>
   </g>
   <g id="line2d_15">
    <defs>
     <path d="M 0 6.25 
C 1.657519 6.25 3.247374 5.591461 4.419417 4.419417 
C 5.591461 3.247374 6.25 1.657519 6.25 0 
C 6.25 -1.657519 5.591461 -3.247374 4.419417 -4.419417 
C 3.247374 -5.591461 1.657519 -6.25 0 -6.25 
C -1.657519 -6.25 -3.247374 -5.591461 -4.419417 -4.419417 
C -5.591461 -3.247374 -6.25 -1.657519 -6.25 0 
C -6.25 1.657519 -5.591461 3.247374 -4.419417 4.419417 
C -3.247374 5.591461 -1.657519 6.25 0 6.25 
z
" id="m50d27478be" style="stroke:#ffa0f0;"/>
    </defs>
    <g clip-path="url(#p8ae443e167)">
     <use style="fill:#ffa0f0;stroke:#ffa0f0;" x="280.068449" xlink:href="#m50d27478be" y="209.837906"/>
     <use style="fill:#ffa0f0;stroke:#ffa0f0;" x="327.811765" xlink:href="#m50d27478be" y="190.117253"/>
     <use style="fill:#ffa0f0;stroke:#ffa0f0;" x="375.55508" xlink:href="#m50d27478be" y="216.131079"/>
     <use style="fill:#ffa0f0;stroke:#ffa0f0;" x="423.298396" xlink:href="#m50d27478be" y="209.525198"/>
     <use style="fill:#ffa0f0;stroke:#ffa0f0;" x="471.041711" xlink:href="#m50d27478be" y="201.921828"/>
     <use style="fill:#ffa0f0;stroke:#ffa0f0;" x="518.785027" xlink:href="#m50d27478be" y="201.25235"/>
     <use style="fill:#ffa0f0;stroke:#ffa0f0;" x="566.528342" xlink:href="#m50d27478be" y="259.301072"/>
     <use style="fill:#ffa0f0;stroke:#ffa0f0;" x="614.271658" xlink:href="#m50d27478be" y="258.207957"/>
     <use style="fill:#ffa0f0;stroke:#ffa0f0;" x="662.014973" xlink:href="#m50d27478be" y="255.473983"/>
     <use style="fill:#ffa0f0;stroke:#ffa0f0;" x="709.758289" xlink:href="#m50d27478be" y="245.443629"/>
     <use style="fill:#ffa0f0;stroke:#ffa0f0;" x="757.501604" xlink:href="#m50d27478be" y="264.95219"/>
     <use style="fill:#ffa0f0;stroke:#ffa0f0;" x="805.24492" xlink:href="#m50d27478be" y="259.249434"/>
     <use style="fill:#ffa0f0;stroke:#ffa0f0;" x="852.988235" xlink:href="#m50d27478be" y="269.40827"/>
     <use style="fill:#ffa0f0;stroke:#ffa0f0;" x="900.731551" xlink:href="#m50d27478be" y="258.420152"/>
     <use style="fill:#ffa0f0;stroke:#ffa0f0;" x="948.474866" xlink:href="#m50d27478be" y="265.861993"/>
     <use style="fill:#ffa0f0;stroke:#ffa0f0;" x="996.218182" xlink:href="#m50d27478be" y="262.539099"/>
    </g>
   </g>
   <g id="line2d_16">
    <path clip-path="url(#p8ae443e167)" d="M 280.068449 209.837906 
L 327.811765 205.081877 
L 375.55508 209.144283 
L 423.298396 204.212962 
L 471.041711 219.782465 
L 518.785027 238.513284 
L 566.528342 257.657282 
L 614.271658 252.998489 
L 662.014973 255.198813 
L 709.758289 256.451761 
L 757.501604 264.511795 
L 805.24492 262.323567 
L 852.988235 264.533314 
L 900.731551 262.260439 
L 948.474866 265.861993 
L 996.218182 262.539099 
" style="fill:none;stroke:#ffa0f0;stroke-linecap:square;stroke-width:5;"/>
   </g>
   <g id="line2d_17">
    <defs>
     <path d="M 0 6.25 
C 1.657519 6.25 3.247374 5.591461 4.419417 4.419417 
C 5.591461 3.247374 6.25 1.657519 6.25 0 
C 6.25 -1.657519 5.591461 -3.247374 4.419417 -4.419417 
C 3.247374 -5.591461 1.657519 -6.25 0 -6.25 
C -1.657519 -6.25 -3.247374 -5.591461 -4.419417 -4.419417 
C -5.591461 -3.247374 -6.25 -1.657519 -6.25 0 
C -6.25 1.657519 -5.591461 3.247374 -4.419417 4.419417 
C -3.247374 5.591461 -1.657519 6.25 0 6.25 
z
" id="m3dfc9ae1ae" style="stroke:#ff7a6e;"/>
    </defs>
    <g clip-path="url(#p8ae443e167)">
     <use style="fill:#ff7a6e;stroke:#ff7a6e;" x="232.325134" xlink:href="#m3dfc9ae1ae" y="226.319215"/>
     <use style="fill:#ff7a6e;stroke:#ff7a6e;" x="280.068449" xlink:href="#m3dfc9ae1ae" y="242.847652"/>
     <use style="fill:#ff7a6e;stroke:#ff7a6e;" x="327.811765" xlink:href="#m3dfc9ae1ae" y="208.725143"/>
     <use style="fill:#ff7a6e;stroke:#ff7a6e;" x="375.55508" xlink:href="#m3dfc9ae1ae" y="215.940072"/>
     <use style="fill:#ff7a6e;stroke:#ff7a6e;" x="423.298396" xlink:href="#m3dfc9ae1ae" y="196.566717"/>
     <use style="fill:#ff7a6e;stroke:#ff7a6e;" x="471.041711" xlink:href="#m3dfc9ae1ae" y="207.56573"/>
     <use style="fill:#ff7a6e;stroke:#ff7a6e;" x="518.785027" xlink:href="#m3dfc9ae1ae" y="200.35486"/>
     <use style="fill:#ff7a6e;stroke:#ff7a6e;" x="566.528342" xlink:href="#m3dfc9ae1ae" y="196.786006"/>
     <use style="fill:#ff7a6e;stroke:#ff7a6e;" x="614.271658" xlink:href="#m3dfc9ae1ae" y="209.873821"/>
     <use style="fill:#ff7a6e;stroke:#ff7a6e;" x="662.014973" xlink:href="#m3dfc9ae1ae" y="201.764919"/>
     <use style="fill:#ff7a6e;stroke:#ff7a6e;" x="709.758289" xlink:href="#m3dfc9ae1ae" y="193.858321"/>
     <use style="fill:#ff7a6e;stroke:#ff7a6e;" x="757.501604" xlink:href="#m3dfc9ae1ae" y="190.673913"/>
     <use style="fill:#ff7a6e;stroke:#ff7a6e;" x="805.24492" xlink:href="#m3dfc9ae1ae" y="171.008058"/>
     <use style="fill:#ff7a6e;stroke:#ff7a6e;" x="852.988235" xlink:href="#m3dfc9ae1ae" y="190.952095"/>
     <use style="fill:#ff7a6e;stroke:#ff7a6e;" x="900.731551" xlink:href="#m3dfc9ae1ae" y="186.094581"/>
     <use style="fill:#ff7a6e;stroke:#ff7a6e;" x="948.474866" xlink:href="#m3dfc9ae1ae" y="190.515451"/>
     <use style="fill:#ff7a6e;stroke:#ff7a6e;" x="996.218182" xlink:href="#m3dfc9ae1ae" y="185.292357"/>
    </g>
   </g>
   <g id="line2d_18">
    <path clip-path="url(#p8ae443e167)" d="M 232.325134 226.319215 
L 280.068449 222.197305 
L 327.811765 206.985335 
L 375.55508 206.600362 
L 423.298396 201.46593 
L 471.041711 201.540047 
L 518.785027 202.294528 
L 566.528342 202.766537 
L 614.271658 201.770976 
L 662.014973 195.401233 
L 709.758289 185.032561 
L 757.501604 184.085401 
L 805.24492 182.580929 
L 852.988235 189.180453 
L 900.731551 187.293234 
L 948.474866 190.515451 
L 996.218182 185.292357 
" style="fill:none;stroke:#ff7a6e;stroke-linecap:square;stroke-width:5;"/>
   </g>
   <g id="line2d_19">
    <defs>
     <path d="M 0 6.25 
C 1.657519 6.25 3.247374 5.591461 4.419417 4.419417 
C 5.591461 3.247374 6.25 1.657519 6.25 0 
C 6.25 -1.657519 5.591461 -3.247374 4.419417 -4.419417 
C 3.247374 -5.591461 1.657519 -6.25 0 -6.25 
C -1.657519 -6.25 -3.247374 -5.591461 -4.419417 -4.419417 
C -5.591461 -3.247374 -6.25 -1.657519 -6.25 0 
C -6.25 1.657519 -5.591461 3.247374 -4.419417 4.419417 
C -3.247374 5.591461 -1.657519 6.25 0 6.25 
z
" id="m0ab53071f4" style="stroke:#9deaff;"/>
    </defs>
    <g clip-path="url(#p8ae443e167)">
     <use style="fill:#9deaff;stroke:#9deaff;" x="232.325134" xlink:href="#m0ab53071f4" y="264.81746"/>
     <use style="fill:#9deaff;stroke:#9deaff;" x="280.068449" xlink:href="#m0ab53071f4" y="221.963326"/>
     <use style="fill:#9deaff;stroke:#9deaff;" x="327.811765" xlink:href="#m0ab53071f4" y="192.311945"/>
     <use style="fill:#9deaff;stroke:#9deaff;" x="375.55508" xlink:href="#m0ab53071f4" y="168.183204"/>
     <use style="fill:#9deaff;stroke:#9deaff;" x="423.298396" xlink:href="#m0ab53071f4" y="184.557358"/>
     <use style="fill:#9deaff;stroke:#9deaff;" x="471.041711" xlink:href="#m0ab53071f4" y="180.326898"/>
     <use style="fill:#9deaff;stroke:#9deaff;" x="518.785027" xlink:href="#m0ab53071f4" y="159.448328"/>
     <use style="fill:#9deaff;stroke:#9deaff;" x="566.528342" xlink:href="#m0ab53071f4" y="177.285206"/>
     <use style="fill:#9deaff;stroke:#9deaff;" x="614.271658" xlink:href="#m0ab53071f4" y="171.259533"/>
     <use style="fill:#9deaff;stroke:#9deaff;" x="662.014973" xlink:href="#m0ab53071f4" y="170.339635"/>
     <use style="fill:#9deaff;stroke:#9deaff;" x="709.758289" xlink:href="#m0ab53071f4" y="160.113705"/>
     <use style="fill:#9deaff;stroke:#9deaff;" x="757.501604" xlink:href="#m0ab53071f4" y="159.143171"/>
     <use style="fill:#9deaff;stroke:#9deaff;" x="805.24492" xlink:href="#m0ab53071f4" y="152.310385"/>
     <use style="fill:#9deaff;stroke:#9deaff;" x="852.988235" xlink:href="#m0ab53071f4" y="163.985194"/>
     <use style="fill:#9deaff;stroke:#9deaff;" x="900.731551" xlink:href="#m0ab53071f4" y="151.007806"/>
     <use style="fill:#9deaff;stroke:#9deaff;" x="948.474866" xlink:href="#m0ab53071f4" y="141.302294"/>
     <use style="fill:#9deaff;stroke:#9deaff;" x="996.218182" xlink:href="#m0ab53071f4" y="139.097972"/>
    </g>
   </g>
   <g id="line2d_20">
    <path clip-path="url(#p8ae443e167)" d="M 232.325134 264.81746 
L 280.068449 193.460394 
L 327.811765 181.538363 
L 375.55508 177.619761 
L 423.298396 174.603418 
L 471.041711 172.231008 
L 518.785027 169.25201 
L 566.528342 172.947861 
L 614.271658 167.200865 
L 662.014973 163.162127 
L 709.758289 157.171735 
L 757.501604 158.446618 
L 805.24492 155.719097 
L 852.988235 151.97465 
L 900.731551 143.764374 
L 948.474866 141.302294 
L 996.218182 139.097972 
" style="fill:none;stroke:#9deaff;stroke-linecap:square;stroke-width:5;"/>
   </g>
   <g id="line2d_21">
    <defs>
     <path d="M 0 6.25 
C 1.657519 6.25 3.247374 5.591461 4.419417 4.419417 
C 5.591461 3.247374 6.25 1.657519 6.25 0 
C 6.25 -1.657519 5.591461 -3.247374 4.419417 -4.419417 
C 3.247374 -5.591461 1.657519 -6.25 0 -6.25 
C -1.657519 -6.25 -3.247374 -5.591461 -4.419417 -4.419417 
C -5.591461 -3.247374 -6.25 -1.657519 -6.25 0 
C -6.25 1.657519 -5.591461 3.247374 -4.419417 4.419417 
C -3.247374 5.591461 -1.657519 6.25 0 6.25 
z
" id="m5b5a81c4a7" style="stroke:#c49fff;"/>
    </defs>
    <g clip-path="url(#p8ae443e167)">
     <use style="fill:#c49fff;stroke:#c49fff;" x="184.581818" xlink:href="#m5b5a81c4a7" y="204.352913"/>
     <use style="fill:#c49fff;stroke:#c49fff;" x="232.325134" xlink:href="#m5b5a81c4a7" y="201.106177"/>
     <use style="fill:#c49fff;stroke:#c49fff;" x="280.068449" xlink:href="#m5b5a81c4a7" y="200.198518"/>
     <use style="fill:#c49fff;stroke:#c49fff;" x="327.811765" xlink:href="#m5b5a81c4a7" y="205.415689"/>
     <use style="fill:#c49fff;stroke:#c49fff;" x="375.55508" xlink:href="#m5b5a81c4a7" y="190.508803"/>
     <use style="fill:#c49fff;stroke:#c49fff;" x="423.298396" xlink:href="#m5b5a81c4a7" y="168.656904"/>
     <use style="fill:#c49fff;stroke:#c49fff;" x="471.041711" xlink:href="#m5b5a81c4a7" y="167.408317"/>
     <use style="fill:#c49fff;stroke:#c49fff;" x="518.785027" xlink:href="#m5b5a81c4a7" y="159.359059"/>
     <use style="fill:#c49fff;stroke:#c49fff;" x="566.528342" xlink:href="#m5b5a81c4a7" y="136.914276"/>
     <use style="fill:#c49fff;stroke:#c49fff;" x="614.271658" xlink:href="#m5b5a81c4a7" y="133.6142"/>
     <use style="fill:#c49fff;stroke:#c49fff;" x="662.014973" xlink:href="#m5b5a81c4a7" y="144.090806"/>
     <use style="fill:#c49fff;stroke:#c49fff;" x="709.758289" xlink:href="#m5b5a81c4a7" y="134.915136"/>
     <use style="fill:#c49fff;stroke:#c49fff;" x="757.501604" xlink:href="#m5b5a81c4a7" y="138.663918"/>
     <use style="fill:#c49fff;stroke:#c49fff;" x="805.24492" xlink:href="#m5b5a81c4a7" y="140.792353"/>
     <use style="fill:#c49fff;stroke:#c49fff;" x="852.988235" xlink:href="#m5b5a81c4a7" y="139.168418"/>
     <use style="fill:#c49fff;stroke:#c49fff;" x="900.731551" xlink:href="#m5b5a81c4a7" y="121.962015"/>
     <use style="fill:#c49fff;stroke:#c49fff;" x="948.474866" xlink:href="#m5b5a81c4a7" y="127.986844"/>
     <use style="fill:#c49fff;stroke:#c49fff;" x="996.218182" xlink:href="#m5b5a81c4a7" y="119.124903"/>
    </g>
   </g>
   <g id="line2d_22">
    <path clip-path="url(#p8ae443e167)" d="M 184.581818 204.352913 
L 232.325134 202.232701 
L 280.068449 198.652785 
L 327.811765 187.865595 
L 375.55508 175.364273 
L 423.298396 165.116986 
L 471.041711 154.320031 
L 518.785027 143.109379 
L 566.528342 138.17901 
L 614.271658 137.508927 
L 662.014973 139.20293 
L 709.758289 138.11532 
L 757.501604 139.540379 
L 805.24492 133.869459 
L 852.988235 129.632963 
L 900.731551 123.005011 
L 948.474866 127.986844 
L 996.218182 119.124903 
" style="fill:none;stroke:#c49fff;stroke-linecap:square;stroke-width:5;"/>
   </g>
   <g id="line2d_23">
    <defs>
     <path d="M 0 6.25 
C 1.657519 6.25 3.247374 5.591461 4.419417 4.419417 
C 5.591461 3.247374 6.25 1.657519 6.25 0 
C 6.25 -1.657519 5.591461 -3.247374 4.419417 -4.419417 
C 3.247374 -5.591461 1.657519 -6.25 0 -6.25 
C -1.657519 -6.25 -3.247374 -5.591461 -4.419417 -4.419417 
C -5.591461 -3.247374 -6.25 -1.657519 -6.25 0 
C -6.25 1.657519 -5.591461 3.247374 -4.419417 4.419417 
C -3.247374 5.591461 -1.657519 6.25 0 6.25 
z
" id="m7d5438a071" style="stroke:#9fb7ff;"/>
    </defs>
    <g clip-path="url(#p8ae443e167)">
     <use style="fill:#9fb7ff;stroke:#9fb7ff;" x="184.581818" xlink:href="#m7d5438a071" y="155.330474"/>
     <use style="fill:#9fb7ff;stroke:#9fb7ff;" x="232.325134" xlink:href="#m7d5438a071" y="179.911354"/>
     <use style="fill:#9fb7ff;stroke:#9fb7ff;" x="280.068449" xlink:href="#m7d5438a071" y="180.196212"/>
     <use style="fill:#9fb7ff;stroke:#9fb7ff;" x="327.811765" xlink:href="#m7d5438a071" y="215.949034"/>
     <use style="fill:#9fb7ff;stroke:#9fb7ff;" x="375.55508" xlink:href="#m7d5438a071" y="154.579613"/>
     <use style="fill:#9fb7ff;stroke:#9fb7ff;" x="423.298396" xlink:href="#m7d5438a071" y="151.763787"/>
     <use style="fill:#9fb7ff;stroke:#9fb7ff;" x="471.041711" xlink:href="#m7d5438a071" y="162.237408"/>
     <use style="fill:#9fb7ff;stroke:#9fb7ff;" x="518.785027" xlink:href="#m7d5438a071" y="123.25256"/>
     <use style="fill:#9fb7ff;stroke:#9fb7ff;" x="566.528342" xlink:href="#m7d5438a071" y="138.460237"/>
     <use style="fill:#9fb7ff;stroke:#9fb7ff;" x="614.271658" xlink:href="#m7d5438a071" y="135.064924"/>
     <use style="fill:#9fb7ff;stroke:#9fb7ff;" x="662.014973" xlink:href="#m7d5438a071" y="143.627197"/>
     <use style="fill:#9fb7ff;stroke:#9fb7ff;" x="709.758289" xlink:href="#m7d5438a071" y="115.727302"/>
     <use style="fill:#9fb7ff;stroke:#9fb7ff;" x="757.501604" xlink:href="#m7d5438a071" y="88.887273"/>
     <use style="fill:#9fb7ff;stroke:#9fb7ff;" x="805.24492" xlink:href="#m7d5438a071" y="107.409619"/>
     <use style="fill:#9fb7ff;stroke:#9fb7ff;" x="852.988235" xlink:href="#m7d5438a071" y="134.567078"/>
     <use style="fill:#9fb7ff;stroke:#9fb7ff;" x="900.731551" xlink:href="#m7d5438a071" y="105.45692"/>
     <use style="fill:#9fb7ff;stroke:#9fb7ff;" x="948.474866" xlink:href="#m7d5438a071" y="99.556119"/>
     <use style="fill:#9fb7ff;stroke:#9fb7ff;" x="996.218182" xlink:href="#m7d5438a071" y="106.474244"/>
    </g>
   </g>
   <g id="line2d_24">
    <path clip-path="url(#p8ae443e167)" d="M 184.581818 155.330474 
L 232.325134 191.61254 
L 280.068449 182.670394 
L 327.811765 172.864211 
L 375.55508 156.165541 
L 423.298396 145.35863 
L 471.041711 140.948743 
L 518.785027 132.198029 
L 566.528342 139.033006 
L 614.271658 131.276678 
L 662.014973 115.364137 
L 709.758289 103.826554 
L 757.501604 109.784914 
L 805.24492 115.560021 
L 852.988235 112.860236 
L 900.731551 103.815713 
L 948.474866 99.556119 
L 996.218182 106.474244 
" style="fill:none;stroke:#9fb7ff;stroke-linecap:square;stroke-width:5;"/>
   </g>
   <g id="line2d_25">
    <g clip-path="url(#p8ae443e167)">
     <use style="fill:#ffc36e;stroke:#ffc36e;" x="757.501604" xlink:href="#m08d474e9d4" y="483.269145"/>
     <use style="fill:#ffc36e;stroke:#ffc36e;" x="805.24492" xlink:href="#m08d474e9d4" y="378.930172"/>
     <use style="fill:#ffc36e;stroke:#ffc36e;" x="852.988235" xlink:href="#m08d474e9d4" y="386.965171"/>
     <use style="fill:#ffc36e;stroke:#ffc36e;" x="900.731551" xlink:href="#m08d474e9d4" y="350.389045"/>
     <use style="fill:#ffc36e;stroke:#ffc36e;" x="948.474866" xlink:href="#m08d474e9d4" y="484.232727"/>
     <use style="fill:#ffc36e;stroke:#ffc36e;" x="996.218182" xlink:href="#m08d474e9d4" y="428.816104"/>
    </g>
   </g>
   <g id="line2d_26">
    <path clip-path="url(#p8ae443e167)" d="M 757.501604 483.269145 
L 805.24492 371.738154 
L 852.988235 402.750204 
L 900.731551 416.783374 
L 948.474866 484.232727 
L 996.218182 428.816104 
" style="fill:none;stroke:#ff9500;stroke-linecap:square;stroke-width:5;"/>
   </g>
   <g id="line2d_27">
    <g clip-path="url(#p8ae443e167)">
     <use style="fill:#ffa0f0;stroke:#ffa0f0;" x="518.785027" xlink:href="#m50d27478be" y="421.006939"/>
     <use style="fill:#ffa0f0;stroke:#ffa0f0;" x="614.271658" xlink:href="#m50d27478be" y="391.509154"/>
     <use style="fill:#ffa0f0;stroke:#ffa0f0;" x="662.014973" xlink:href="#m50d27478be" y="404.804558"/>
     <use style="fill:#ffa0f0;stroke:#ffa0f0;" x="709.758289" xlink:href="#m50d27478be" y="424.713807"/>
     <use style="fill:#ffa0f0;stroke:#ffa0f0;" x="757.501604" xlink:href="#m50d27478be" y="453.124813"/>
     <use style="fill:#ffa0f0;stroke:#ffa0f0;" x="805.24492" xlink:href="#m50d27478be" y="422.214655"/>
     <use style="fill:#ffa0f0;stroke:#ffa0f0;" x="852.988235" xlink:href="#m50d27478be" y="401.422984"/>
     <use style="fill:#ffa0f0;stroke:#ffa0f0;" x="900.731551" xlink:href="#m50d27478be" y="396.662294"/>
     <use style="fill:#ffa0f0;stroke:#ffa0f0;" x="948.474866" xlink:href="#m50d27478be" y="442.914072"/>
     <use style="fill:#ffa0f0;stroke:#ffa0f0;" x="996.218182" xlink:href="#m50d27478be" y="411.887216"/>
    </g>
   </g>
   <g id="line2d_28">
    <path clip-path="url(#p8ae443e167)" d="M 518.785027 421.006939 
L 614.271658 406.74271 
L 662.014973 426.985689 
L 709.758289 433.071551 
L 757.501604 424.942992 
L 805.24492 406.591059 
L 852.988235 413.055515 
L 900.731551 416.626681 
L 948.474866 442.914072 
L 996.218182 411.887216 
" style="fill:none;stroke:#ff15ff;stroke-linecap:square;stroke-width:5;"/>
   </g>
   <g id="line2d_29">
    <g clip-path="url(#p8ae443e167)">
     <use style="fill:#ff7a6e;stroke:#ff7a6e;" x="518.785027" xlink:href="#m3dfc9ae1ae" y="424.91517"/>
     <use style="fill:#ff7a6e;stroke:#ff7a6e;" x="566.528342" xlink:href="#m3dfc9ae1ae" y="432.93609"/>
     <use style="fill:#ff7a6e;stroke:#ff7a6e;" x="614.271658" xlink:href="#m3dfc9ae1ae" y="422.056186"/>
     <use style="fill:#ff7a6e;stroke:#ff7a6e;" x="662.014973" xlink:href="#m3dfc9ae1ae" y="369.56044"/>
     <use style="fill:#ff7a6e;stroke:#ff7a6e;" x="709.758289" xlink:href="#m3dfc9ae1ae" y="420.783647"/>
     <use style="fill:#ff7a6e;stroke:#ff7a6e;" x="757.501604" xlink:href="#m3dfc9ae1ae" y="428.597376"/>
     <use style="fill:#ff7a6e;stroke:#ff7a6e;" x="805.24492" xlink:href="#m3dfc9ae1ae" y="402.773621"/>
     <use style="fill:#ff7a6e;stroke:#ff7a6e;" x="852.988235" xlink:href="#m3dfc9ae1ae" y="433.164985"/>
     <use style="fill:#ff7a6e;stroke:#ff7a6e;" x="900.731551" xlink:href="#m3dfc9ae1ae" y="428.463633"/>
     <use style="fill:#ff7a6e;stroke:#ff7a6e;" x="948.474866" xlink:href="#m3dfc9ae1ae" y="435.955199"/>
     <use style="fill:#ff7a6e;stroke:#ff7a6e;" x="996.218182" xlink:href="#m3dfc9ae1ae" y="396.54573"/>
    </g>
   </g>
   <g id="line2d_30">
    <path clip-path="url(#p8ae443e167)" d="M 518.785027 424.91517 
L 566.528342 407.067566 
L 614.271658 403.26126 
L 662.014973 405.313845 
L 709.758289 417.216252 
L 757.501604 421.252834 
L 805.24492 421.209178 
L 852.988235 432.514204 
L 900.731551 419.898215 
L 948.474866 435.955199 
L 996.218182 396.54573 
" style="fill:none;stroke:#ff1500;stroke-linecap:square;stroke-width:5;"/>
   </g>
   <g id="line2d_31">
    <g clip-path="url(#p8ae443e167)">
     <use style="fill:#9deaff;stroke:#9deaff;" x="471.041711" xlink:href="#m0ab53071f4" y="398.123241"/>
     <use style="fill:#9deaff;stroke:#9deaff;" x="518.785027" xlink:href="#m0ab53071f4" y="422.542317"/>
     <use style="fill:#9deaff;stroke:#9deaff;" x="566.528342" xlink:href="#m0ab53071f4" y="386.871093"/>
     <use style="fill:#9deaff;stroke:#9deaff;" x="614.271658" xlink:href="#m0ab53071f4" y="383.862"/>
     <use style="fill:#9deaff;stroke:#9deaff;" x="662.014973" xlink:href="#m0ab53071f4" y="399.294788"/>
     <use style="fill:#9deaff;stroke:#9deaff;" x="709.758289" xlink:href="#m0ab53071f4" y="384.164997"/>
     <use style="fill:#9deaff;stroke:#9deaff;" x="757.501604" xlink:href="#m0ab53071f4" y="393.872716"/>
     <use style="fill:#9deaff;stroke:#9deaff;" x="805.24492" xlink:href="#m0ab53071f4" y="402.796456"/>
     <use style="fill:#9deaff;stroke:#9deaff;" x="852.988235" xlink:href="#m0ab53071f4" y="391.850046"/>
     <use style="fill:#9deaff;stroke:#9deaff;" x="900.731551" xlink:href="#m0ab53071f4" y="391.832616"/>
     <use style="fill:#9deaff;stroke:#9deaff;" x="948.474866" xlink:href="#m0ab53071f4" y="378.101657"/>
     <use style="fill:#9deaff;stroke:#9deaff;" x="996.218182" xlink:href="#m0ab53071f4" y="427.151291"/>
    </g>
   </g>
   <g id="line2d_32">
    <path clip-path="url(#p8ae443e167)" d="M 471.041711 398.123241 
L 518.785027 397.320604 
L 566.528342 389.945475 
L 614.271658 389.033094 
L 662.014973 392.387811 
L 709.758289 393.528241 
L 757.501604 396.140689 
L 805.24492 395.454879 
L 852.988235 387.200942 
L 900.731551 398.42167 
L 948.474866 378.101657 
L 996.218182 427.151291 
" style="fill:none;stroke:#2ecbff;stroke-linecap:square;stroke-width:5;"/>
   </g>
   <g id="line2d_33">
    <g clip-path="url(#p8ae443e167)">
     <use style="fill:#c49fff;stroke:#c49fff;" x="375.55508" xlink:href="#m5b5a81c4a7" y="399.103752"/>
     <use style="fill:#c49fff;stroke:#c49fff;" x="471.041711" xlink:href="#m5b5a81c4a7" y="379.234571"/>
     <use style="fill:#c49fff;stroke:#c49fff;" x="518.785027" xlink:href="#m5b5a81c4a7" y="398.317066"/>
     <use style="fill:#c49fff;stroke:#c49fff;" x="566.528342" xlink:href="#m5b5a81c4a7" y="389.358963"/>
     <use style="fill:#c49fff;stroke:#c49fff;" x="614.271658" xlink:href="#m5b5a81c4a7" y="385.355787"/>
     <use style="fill:#c49fff;stroke:#c49fff;" x="662.014973" xlink:href="#m5b5a81c4a7" y="407.59909"/>
     <use style="fill:#c49fff;stroke:#c49fff;" x="709.758289" xlink:href="#m5b5a81c4a7" y="379.920392"/>
     <use style="fill:#c49fff;stroke:#c49fff;" x="757.501604" xlink:href="#m5b5a81c4a7" y="391.098373"/>
     <use style="fill:#c49fff;stroke:#c49fff;" x="805.24492" xlink:href="#m5b5a81c4a7" y="383.915212"/>
     <use style="fill:#c49fff;stroke:#c49fff;" x="852.988235" xlink:href="#m5b5a81c4a7" y="396.542957"/>
     <use style="fill:#c49fff;stroke:#c49fff;" x="900.731551" xlink:href="#m5b5a81c4a7" y="375.892378"/>
     <use style="fill:#c49fff;stroke:#c49fff;" x="948.474866" xlink:href="#m5b5a81c4a7" y="352.09061"/>
     <use style="fill:#c49fff;stroke:#c49fff;" x="996.218182" xlink:href="#m5b5a81c4a7" y="389.500221"/>
    </g>
   </g>
   <g id="line2d_34">
    <path clip-path="url(#p8ae443e167)" d="M 375.55508 399.103752 
L 471.041711 388.882904 
L 518.785027 390.968538 
L 566.528342 393.970823 
L 614.271658 390.75399 
L 662.014973 392.687507 
L 709.758289 384.947326 
L 757.501604 390.480415 
L 805.24492 385.346667 
L 852.988235 374.367751 
L 900.731551 372.149663 
L 948.474866 352.09061 
L 996.218182 389.500221 
" style="fill:none;stroke:#9041ff;stroke-linecap:square;stroke-width:5;"/>
   </g>
   <g id="line2d_35">
    <g clip-path="url(#p8ae443e167)">
     <use style="fill:#9fb7ff;stroke:#9fb7ff;" x="471.041711" xlink:href="#m7d5438a071" y="388.178166"/>
     <use style="fill:#9fb7ff;stroke:#9fb7ff;" x="518.785027" xlink:href="#m7d5438a071" y="376.134746"/>
     <use style="fill:#9fb7ff;stroke:#9fb7ff;" x="566.528342" xlink:href="#m7d5438a071" y="405.260694"/>
     <use style="fill:#9fb7ff;stroke:#9fb7ff;" x="614.271658" xlink:href="#m7d5438a071" y="368.545741"/>
     <use style="fill:#9fb7ff;stroke:#9fb7ff;" x="662.014973" xlink:href="#m7d5438a071" y="348.009022"/>
     <use style="fill:#9fb7ff;stroke:#9fb7ff;" x="709.758289" xlink:href="#m7d5438a071" y="383.182656"/>
     <use style="fill:#9fb7ff;stroke:#9fb7ff;" x="757.501604" xlink:href="#m7d5438a071" y="360.548692"/>
     <use style="fill:#9fb7ff;stroke:#9fb7ff;" x="805.24492" xlink:href="#m7d5438a071" y="350.62668"/>
     <use style="fill:#9fb7ff;stroke:#9fb7ff;" x="852.988235" xlink:href="#m7d5438a071" y="346.959617"/>
     <use style="fill:#9fb7ff;stroke:#9fb7ff;" x="900.731551" xlink:href="#m7d5438a071" y="361.447125"/>
     <use style="fill:#9fb7ff;stroke:#9fb7ff;" x="948.474866" xlink:href="#m7d5438a071" y="337.157715"/>
     <use style="fill:#9fb7ff;stroke:#9fb7ff;" x="996.218182" xlink:href="#m7d5438a071" y="314.727598"/>
    </g>
   </g>
   <g id="line2d_36">
    <path clip-path="url(#p8ae443e167)" d="M 471.041711 388.178166 
L 518.785027 382.957421 
L 566.528342 373.139668 
L 614.271658 366.279518 
L 662.014973 363.610735 
L 709.758289 364.521039 
L 757.501604 352.66448 
L 805.24492 352.956999 
L 852.988235 348.378875 
L 900.731551 337.255509 
L 948.474866 337.157715 
L 996.218182 314.727598 
" style="fill:none;stroke:#4161ff;stroke-linecap:square;stroke-width:5;"/>
   </g>
   <g id="patch_3">
    <path d="M 144 504 
L 144 69.12 
" style="fill:none;stroke:#000000;stroke-linecap:square;stroke-linejoin:miter;stroke-width:0.8;"/>
   </g>
   <g id="patch_4">
    <path d="M 1036.8 504 
L 1036.8 69.12 
" style="fill:none;stroke:#000000;stroke-linecap:square;stroke-linejoin:miter;stroke-width:0.8;"/>
   </g>
   <g id="patch_5">
    <path d="M 144 504 
L 1036.8 504 
" style="fill:none;stroke:#000000;stroke-linecap:square;stroke-linejoin:miter;stroke-width:0.8;"/>
   </g>
   <g id="patch_6">
    <path d="M 144 69.12 
L 1036.8 69.12 
" style="fill:none;stroke:#000000;stroke-linecap:square;stroke-linejoin:miter;stroke-width:0.8;"/>
   </g>
   <g id="text_11">
    <!-- All Simulations: Synaptic Density vs. Energy @ 96% Accuracy -->
    <g transform="translate(35.7075 61.633125)scale(0.36 -0.36)">
     <defs>
      <path d="M 34.1875 63.1875 
L 20.796875 26.90625 
L 47.609375 26.90625 
z
M 28.609375 72.90625 
L 39.796875 72.90625 
L 67.578125 0 
L 57.328125 0 
L 50.6875 18.703125 
L 17.828125 18.703125 
L 11.1875 0 
L 0.78125 0 
z
" id="DejaVuSans-65"/>
      <path d="M 53.515625 70.515625 
L 53.515625 60.890625 
Q 47.90625 63.578125 42.921875 64.890625 
Q 37.9375 66.21875 33.296875 66.21875 
Q 25.25 66.21875 20.875 63.09375 
Q 16.5 59.96875 16.5 54.203125 
Q 16.5 49.359375 19.40625 46.890625 
Q 22.3125 44.4375 30.421875 42.921875 
L 36.375 41.703125 
Q 47.40625 39.59375 52.65625 34.296875 
Q 57.90625 29 57.90625 20.125 
Q 57.90625 9.515625 50.796875 4.046875 
Q 43.703125 -1.421875 29.984375 -1.421875 
Q 24.8125 -1.421875 18.96875 -0.25 
Q 13.140625 0.921875 6.890625 3.21875 
L 6.890625 13.375 
Q 12.890625 10.015625 18.65625 8.296875 
Q 24.421875 6.59375 29.984375 6.59375 
Q 38.421875 6.59375 43.015625 9.90625 
Q 47.609375 13.234375 47.609375 19.390625 
Q 47.609375 24.75 44.3125 27.78125 
Q 41.015625 30.8125 33.5 32.328125 
L 27.484375 33.5 
Q 16.453125 35.6875 11.515625 40.375 
Q 6.59375 45.0625 6.59375 53.421875 
Q 6.59375 63.09375 13.40625 68.65625 
Q 20.21875 74.21875 32.171875 74.21875 
Q 37.3125 74.21875 42.625 73.28125 
Q 47.953125 72.359375 53.515625 70.515625 
z
" id="DejaVuSans-83"/>
      <path d="M 52 44.1875 
Q 55.375 50.25 60.0625 53.125 
Q 64.75 56 71.09375 56 
Q 79.640625 56 84.28125 50.015625 
Q 88.921875 44.046875 88.921875 33.015625 
L 88.921875 0 
L 79.890625 0 
L 79.890625 32.71875 
Q 79.890625 40.578125 77.09375 44.375 
Q 74.3125 48.1875 68.609375 48.1875 
Q 61.625 48.1875 57.5625 43.546875 
Q 53.515625 38.921875 53.515625 30.90625 
L 53.515625 0 
L 44.484375 0 
L 44.484375 32.71875 
Q 44.484375 40.625 41.703125 44.40625 
Q 38.921875 48.1875 33.109375 48.1875 
Q 26.21875 48.1875 22.15625 43.53125 
Q 18.109375 38.875 18.109375 30.90625 
L 18.109375 0 
L 9.078125 0 
L 9.078125 54.6875 
L 18.109375 54.6875 
L 18.109375 46.1875 
Q 21.1875 51.21875 25.484375 53.609375 
Q 29.78125 56 35.6875 56 
Q 41.65625 56 45.828125 52.96875 
Q 50 49.953125 52 44.1875 
z
" id="DejaVuSans-109"/>
      <path d="M 44.28125 53.078125 
L 44.28125 44.578125 
Q 40.484375 46.53125 36.375 47.5 
Q 32.28125 48.484375 27.875 48.484375 
Q 21.1875 48.484375 17.84375 46.4375 
Q 14.5 44.390625 14.5 40.28125 
Q 14.5 37.15625 16.890625 35.375 
Q 19.28125 33.59375 26.515625 31.984375 
L 29.59375 31.296875 
Q 39.15625 29.25 43.1875 25.515625 
Q 47.21875 21.78125 47.21875 15.09375 
Q 47.21875 7.46875 41.1875 3.015625 
Q 35.15625 -1.421875 24.609375 -1.421875 
Q 20.21875 -1.421875 15.453125 -0.5625 
Q 10.6875 0.296875 5.421875 2 
L 5.421875 11.28125 
Q 10.40625 8.6875 15.234375 7.390625 
Q 20.0625 6.109375 24.8125 6.109375 
Q 31.15625 6.109375 34.5625 8.28125 
Q 37.984375 10.453125 37.984375 14.40625 
Q 37.984375 18.0625 35.515625 20.015625 
Q 33.0625 21.96875 24.703125 23.78125 
L 21.578125 24.515625 
Q 13.234375 26.265625 9.515625 29.90625 
Q 5.8125 33.546875 5.8125 39.890625 
Q 5.8125 47.609375 11.28125 51.796875 
Q 16.75 56 26.8125 56 
Q 31.78125 56 36.171875 55.265625 
Q 40.578125 54.546875 44.28125 53.078125 
z
" id="DejaVuSans-115"/>
      <path d="M 11.71875 12.40625 
L 22.015625 12.40625 
L 22.015625 0 
L 11.71875 0 
z
M 11.71875 51.703125 
L 22.015625 51.703125 
L 22.015625 39.3125 
L 11.71875 39.3125 
z
" id="DejaVuSans-58"/>
      <path d="M 18.109375 8.203125 
L 18.109375 -20.796875 
L 9.078125 -20.796875 
L 9.078125 54.6875 
L 18.109375 54.6875 
L 18.109375 46.390625 
Q 20.953125 51.265625 25.265625 53.625 
Q 29.59375 56 35.59375 56 
Q 45.5625 56 51.78125 48.09375 
Q 58.015625 40.1875 58.015625 27.296875 
Q 58.015625 14.40625 51.78125 6.484375 
Q 45.5625 -1.421875 35.59375 -1.421875 
Q 29.59375 -1.421875 25.265625 0.953125 
Q 20.953125 3.328125 18.109375 8.203125 
z
M 48.6875 27.296875 
Q 48.6875 37.203125 44.609375 42.84375 
Q 40.53125 48.484375 33.40625 48.484375 
Q 26.265625 48.484375 22.1875 42.84375 
Q 18.109375 37.203125 18.109375 27.296875 
Q 18.109375 17.390625 22.1875 11.75 
Q 26.265625 6.109375 33.40625 6.109375 
Q 40.53125 6.109375 44.609375 11.75 
Q 48.6875 17.390625 48.6875 27.296875 
z
" id="DejaVuSans-112"/>
      <path d="M 19.671875 64.796875 
L 19.671875 8.109375 
L 31.59375 8.109375 
Q 46.6875 8.109375 53.6875 14.9375 
Q 60.6875 21.78125 60.6875 36.53125 
Q 60.6875 51.171875 53.6875 57.984375 
Q 46.6875 64.796875 31.59375 64.796875 
z
M 9.8125 72.90625 
L 30.078125 72.90625 
Q 51.265625 72.90625 61.171875 64.09375 
Q 71.09375 55.28125 71.09375 36.53125 
Q 71.09375 17.671875 61.125 8.828125 
Q 51.171875 0 30.078125 0 
L 9.8125 0 
z
" id="DejaVuSans-68"/>
      <path d="M 2.984375 54.6875 
L 12.5 54.6875 
L 29.59375 8.796875 
L 46.6875 54.6875 
L 56.203125 54.6875 
L 35.6875 0 
L 23.484375 0 
z
" id="DejaVuSans-118"/>
      <path d="M 37.203125 26.21875 
Q 37.203125 19.234375 40.671875 15.25 
Q 44.140625 11.28125 50.203125 11.28125 
Q 56.203125 11.28125 59.640625 15.28125 
Q 63.09375 19.28125 63.09375 26.21875 
Q 63.09375 33.0625 59.578125 37.078125 
Q 56.0625 41.109375 50.09375 41.109375 
Q 44.1875 41.109375 40.6875 37.109375 
Q 37.203125 33.109375 37.203125 26.21875 
z
M 63.8125 11.625 
Q 60.890625 7.859375 57.109375 6.078125 
Q 53.328125 4.296875 48.296875 4.296875 
Q 39.890625 4.296875 34.640625 10.375 
Q 29.390625 16.453125 29.390625 26.21875 
Q 29.390625 35.984375 34.65625 42.078125 
Q 39.9375 48.1875 48.296875 48.1875 
Q 53.328125 48.1875 57.125 46.359375 
Q 60.9375 44.53125 63.8125 40.828125 
L 63.8125 47.21875 
L 70.796875 47.21875 
L 70.796875 11.28125 
Q 77.9375 12.359375 81.953125 17.796875 
Q 85.984375 23.25 85.984375 31.890625 
Q 85.984375 37.109375 84.4375 41.703125 
Q 82.90625 46.296875 79.78125 50.203125 
Q 74.703125 56.59375 67.40625 59.984375 
Q 60.109375 63.375 51.515625 63.375 
Q 45.515625 63.375 39.984375 61.78125 
Q 34.46875 60.203125 29.78125 57.078125 
Q 22.125 52.09375 17.796875 44.015625 
Q 13.484375 35.9375 13.484375 26.515625 
Q 13.484375 18.75 16.28125 11.953125 
Q 19.09375 5.171875 24.421875 0 
Q 29.546875 -5.078125 36.28125 -7.734375 
Q 43.015625 -10.40625 50.6875 -10.40625 
Q 56.984375 -10.40625 63.0625 -8.28125 
Q 69.140625 -6.15625 74.21875 -2.203125 
L 78.609375 -7.625 
Q 72.515625 -12.359375 65.3125 -14.875 
Q 58.109375 -17.390625 50.6875 -17.390625 
Q 41.65625 -17.390625 33.640625 -14.1875 
Q 25.640625 -10.984375 19.390625 -4.890625 
Q 13.140625 1.21875 9.859375 9.25 
Q 6.59375 17.28125 6.59375 26.515625 
Q 6.59375 35.40625 9.90625 43.453125 
Q 13.234375 51.515625 19.390625 57.625 
Q 25.6875 63.8125 33.9375 67.109375 
Q 42.1875 70.40625 51.421875 70.40625 
Q 61.765625 70.40625 70.625 66.15625 
Q 79.5 61.921875 85.5 54.109375 
Q 89.15625 49.3125 91.078125 43.703125 
Q 93.015625 38.09375 93.015625 32.078125 
Q 93.015625 19.234375 85.25 11.8125 
Q 77.484375 4.390625 63.8125 4.109375 
z
" id="DejaVuSans-64"/>
      <path d="M 10.984375 1.515625 
L 10.984375 10.5 
Q 14.703125 8.734375 18.5 7.8125 
Q 22.3125 6.890625 25.984375 6.890625 
Q 35.75 6.890625 40.890625 13.453125 
Q 46.046875 20.015625 46.78125 33.40625 
Q 43.953125 29.203125 39.59375 26.953125 
Q 35.25 24.703125 29.984375 24.703125 
Q 19.046875 24.703125 12.671875 31.3125 
Q 6.296875 37.9375 6.296875 49.421875 
Q 6.296875 60.640625 12.9375 67.421875 
Q 19.578125 74.21875 30.609375 74.21875 
Q 43.265625 74.21875 49.921875 64.515625 
Q 56.59375 54.828125 56.59375 36.375 
Q 56.59375 19.140625 48.40625 8.859375 
Q 40.234375 -1.421875 26.421875 -1.421875 
Q 22.703125 -1.421875 18.890625 -0.6875 
Q 15.09375 0.046875 10.984375 1.515625 
z
M 30.609375 32.421875 
Q 37.25 32.421875 41.125 36.953125 
Q 45.015625 41.5 45.015625 49.421875 
Q 45.015625 57.28125 41.125 61.84375 
Q 37.25 66.40625 30.609375 66.40625 
Q 23.96875 66.40625 20.09375 61.84375 
Q 16.21875 57.28125 16.21875 49.421875 
Q 16.21875 41.5 20.09375 36.953125 
Q 23.96875 32.421875 30.609375 32.421875 
z
" id="DejaVuSans-57"/>
      <path d="M 72.703125 32.078125 
Q 68.453125 32.078125 66.03125 28.46875 
Q 63.625 24.859375 63.625 18.40625 
Q 63.625 12.0625 66.03125 8.421875 
Q 68.453125 4.78125 72.703125 4.78125 
Q 76.859375 4.78125 79.265625 8.421875 
Q 81.6875 12.0625 81.6875 18.40625 
Q 81.6875 24.8125 79.265625 28.4375 
Q 76.859375 32.078125 72.703125 32.078125 
z
M 72.703125 38.28125 
Q 80.421875 38.28125 84.953125 32.90625 
Q 89.5 27.546875 89.5 18.40625 
Q 89.5 9.28125 84.9375 3.921875 
Q 80.375 -1.421875 72.703125 -1.421875 
Q 64.890625 -1.421875 60.34375 3.921875 
Q 55.8125 9.28125 55.8125 18.40625 
Q 55.8125 27.59375 60.375 32.9375 
Q 64.9375 38.28125 72.703125 38.28125 
z
M 22.3125 68.015625 
Q 18.109375 68.015625 15.6875 64.375 
Q 13.28125 60.75 13.28125 54.390625 
Q 13.28125 47.953125 15.671875 44.328125 
Q 18.0625 40.71875 22.3125 40.71875 
Q 26.5625 40.71875 28.96875 44.328125 
Q 31.390625 47.953125 31.390625 54.390625 
Q 31.390625 60.6875 28.953125 64.34375 
Q 26.515625 68.015625 22.3125 68.015625 
z
M 66.40625 74.21875 
L 74.21875 74.21875 
L 28.609375 -1.421875 
L 20.796875 -1.421875 
z
M 22.3125 74.21875 
Q 30.03125 74.21875 34.609375 68.875 
Q 39.203125 63.53125 39.203125 54.390625 
Q 39.203125 45.171875 34.640625 39.84375 
Q 30.078125 34.515625 22.3125 34.515625 
Q 14.546875 34.515625 10.03125 39.859375 
Q 5.515625 45.21875 5.515625 54.390625 
Q 5.515625 63.484375 10.046875 68.84375 
Q 14.59375 74.21875 22.3125 74.21875 
z
" id="DejaVuSans-37"/>
     </defs>
     <use xlink:href="#DejaVuSans-65"/>
     <use x="68.408203" xlink:href="#DejaVuSans-108"/>
     <use x="96.191406" xlink:href="#DejaVuSans-108"/>
     <use x="123.974609" xlink:href="#DejaVuSans-32"/>
     <use x="155.761719" xlink:href="#DejaVuSans-83"/>
     <use x="219.238281" xlink:href="#DejaVuSans-105"/>
     <use x="247.021484" xlink:href="#DejaVuSans-109"/>
     <use x="344.433594" xlink:href="#DejaVuSans-117"/>
     <use x="407.8125" xlink:href="#DejaVuSans-108"/>
     <use x="435.595703" xlink:href="#DejaVuSans-97"/>
     <use x="496.875" xlink:href="#DejaVuSans-116"/>
     <use x="536.083984" xlink:href="#DejaVuSans-105"/>
     <use x="563.867188" xlink:href="#DejaVuSans-111"/>
     <use x="625.048828" xlink:href="#DejaVuSans-110"/>
     <use x="688.427734" xlink:href="#DejaVuSans-115"/>
     <use x="740.527344" xlink:href="#DejaVuSans-58"/>
     <use x="774.21875" xlink:href="#DejaVuSans-32"/>
     <use x="806.005859" xlink:href="#DejaVuSans-83"/>
     <use x="869.482422" xlink:href="#DejaVuSans-121"/>
     <use x="928.662109" xlink:href="#DejaVuSans-110"/>
     <use x="992.041016" xlink:href="#DejaVuSans-97"/>
     <use x="1053.320312" xlink:href="#DejaVuSans-112"/>
     <use x="1116.796875" xlink:href="#DejaVuSans-116"/>
     <use x="1156.005859" xlink:href="#DejaVuSans-105"/>
     <use x="1183.789062" xlink:href="#DejaVuSans-99"/>
     <use x="1238.769531" xlink:href="#DejaVuSans-32"/>
     <use x="1270.556641" xlink:href="#DejaVuSans-68"/>
     <use x="1347.558594" xlink:href="#DejaVuSans-101"/>
     <use x="1409.082031" xlink:href="#DejaVuSans-110"/>
     <use x="1472.460938" xlink:href="#DejaVuSans-115"/>
     <use x="1524.560547" xlink:href="#DejaVuSans-105"/>
     <use x="1552.34375" xlink:href="#DejaVuSans-116"/>
     <use x="1591.552734" xlink:href="#DejaVuSans-121"/>
     <use x="1650.732422" xlink:href="#DejaVuSans-32"/>
     <use x="1682.519531" xlink:href="#DejaVuSans-118"/>
     <use x="1741.699219" xlink:href="#DejaVuSans-115"/>
     <use x="1793.798828" xlink:href="#DejaVuSans-46"/>
     <use x="1825.585938" xlink:href="#DejaVuSans-32"/>
     <use x="1857.373047" xlink:href="#DejaVuSans-69"/>
     <use x="1920.556641" xlink:href="#DejaVuSans-110"/>
     <use x="1983.935547" xlink:href="#DejaVuSans-101"/>
     <use x="2045.458984" xlink:href="#DejaVuSans-114"/>
     <use x="2084.822266" xlink:href="#DejaVuSans-103"/>
     <use x="2148.298828" xlink:href="#DejaVuSans-121"/>
     <use x="2207.478516" xlink:href="#DejaVuSans-32"/>
     <use x="2239.265625" xlink:href="#DejaVuSans-64"/>
     <use x="2339.265625" xlink:href="#DejaVuSans-32"/>
     <use x="2371.052734" xlink:href="#DejaVuSans-57"/>
     <use x="2434.675781" xlink:href="#DejaVuSans-54"/>
     <use x="2498.298828" xlink:href="#DejaVuSans-37"/>
     <use x="2593.318359" xlink:href="#DejaVuSans-32"/>
     <use x="2625.105469" xlink:href="#DejaVuSans-65"/>
     <use x="2691.763672" xlink:href="#DejaVuSans-99"/>
     <use x="2746.744141" xlink:href="#DejaVuSans-99"/>
     <use x="2801.724609" xlink:href="#DejaVuSans-117"/>
     <use x="2865.103516" xlink:href="#DejaVuSans-114"/>
     <use x="2906.216797" xlink:href="#DejaVuSans-97"/>
     <use x="2967.496094" xlink:href="#DejaVuSans-99"/>
     <use x="3022.476562" xlink:href="#DejaVuSans-121"/>
    </g>
   </g>
   <g id="legend_1">
    <g id="patch_7">
     <path d="M 159.4 493 
L 332.866562 493 
Q 337.266562 493 337.266562 488.6 
L 337.266562 297.04875 
Q 337.266562 292.64875 332.866562 292.64875 
L 159.4 292.64875 
Q 155 292.64875 155 297.04875 
L 155 488.6 
Q 155 493 159.4 493 
z
" style="fill:#ffffff;opacity:0.8;stroke:#cccccc;stroke-linejoin:miter;"/>
    </g>
    <g id="line2d_37">
     <path d="M 163.8 310.465312 
L 207.8 310.465312 
" style="fill:none;stroke:#ff9500;stroke-linecap:square;stroke-width:5;"/>
    </g>
    <g id="line2d_38"/>
    <g id="text_12">
     <!-- 50 units -->
     <g transform="translate(225.4 318.165312)scale(0.22 -0.22)">
      <defs>
       <path d="M 10.796875 72.90625 
L 49.515625 72.90625 
L 49.515625 64.59375 
L 19.828125 64.59375 
L 19.828125 46.734375 
Q 21.96875 47.46875 24.109375 47.828125 
Q 26.265625 48.1875 28.421875 48.1875 
Q 40.625 48.1875 47.75 41.5 
Q 54.890625 34.8125 54.890625 23.390625 
Q 54.890625 11.625 47.5625 5.09375 
Q 40.234375 -1.421875 26.90625 -1.421875 
Q 22.3125 -1.421875 17.546875 -0.640625 
Q 12.796875 0.140625 7.71875 1.703125 
L 7.71875 11.625 
Q 12.109375 9.234375 16.796875 8.0625 
Q 21.484375 6.890625 26.703125 6.890625 
Q 35.15625 6.890625 40.078125 11.328125 
Q 45.015625 15.765625 45.015625 23.390625 
Q 45.015625 31 40.078125 35.4375 
Q 35.15625 39.890625 26.703125 39.890625 
Q 22.75 39.890625 18.8125 39.015625 
Q 14.890625 38.140625 10.796875 36.28125 
z
" id="DejaVuSans-53"/>
      </defs>
      <use xlink:href="#DejaVuSans-53"/>
      <use x="63.623047" xlink:href="#DejaVuSans-48"/>
      <use x="127.246094" xlink:href="#DejaVuSans-32"/>
      <use x="159.033203" xlink:href="#DejaVuSans-117"/>
      <use x="222.412109" xlink:href="#DejaVuSans-110"/>
      <use x="285.791016" xlink:href="#DejaVuSans-105"/>
      <use x="313.574219" xlink:href="#DejaVuSans-116"/>
      <use x="352.783203" xlink:href="#DejaVuSans-115"/>
     </g>
    </g>
    <g id="line2d_39">
     <path d="M 163.8 342.757187 
L 207.8 342.757187 
" style="fill:none;stroke:#ff15ff;stroke-linecap:square;stroke-width:5;"/>
    </g>
    <g id="line2d_40"/>
    <g id="text_13">
     <!-- 100 units -->
     <g transform="translate(225.4 350.457187)scale(0.22 -0.22)">
      <use xlink:href="#DejaVuSans-49"/>
      <use x="63.623047" xlink:href="#DejaVuSans-48"/>
      <use x="127.246094" xlink:href="#DejaVuSans-48"/>
      <use x="190.869141" xlink:href="#DejaVuSans-32"/>
      <use x="222.65625" xlink:href="#DejaVuSans-117"/>
      <use x="286.035156" xlink:href="#DejaVuSans-110"/>
      <use x="349.414062" xlink:href="#DejaVuSans-105"/>
      <use x="377.197266" xlink:href="#DejaVuSans-116"/>
      <use x="416.40625" xlink:href="#DejaVuSans-115"/>
     </g>
    </g>
    <g id="line2d_41">
     <path d="M 163.8 375.049062 
L 207.8 375.049062 
" style="fill:none;stroke:#ff1500;stroke-linecap:square;stroke-width:5;"/>
    </g>
    <g id="line2d_42"/>
    <g id="text_14">
     <!-- 150 units -->
     <g transform="translate(225.4 382.749062)scale(0.22 -0.22)">
      <use xlink:href="#DejaVuSans-49"/>
      <use x="63.623047" xlink:href="#DejaVuSans-53"/>
      <use x="127.246094" xlink:href="#DejaVuSans-48"/>
      <use x="190.869141" xlink:href="#DejaVuSans-32"/>
      <use x="222.65625" xlink:href="#DejaVuSans-117"/>
      <use x="286.035156" xlink:href="#DejaVuSans-110"/>
      <use x="349.414062" xlink:href="#DejaVuSans-105"/>
      <use x="377.197266" xlink:href="#DejaVuSans-116"/>
      <use x="416.40625" xlink:href="#DejaVuSans-115"/>
     </g>
    </g>
    <g id="line2d_43">
     <path d="M 163.8 407.340937 
L 207.8 407.340937 
" style="fill:none;stroke:#2ecbff;stroke-linecap:square;stroke-width:5;"/>
    </g>
    <g id="line2d_44"/>
    <g id="text_15">
     <!-- 200 units -->
     <g transform="translate(225.4 415.040937)scale(0.22 -0.22)">
      <use xlink:href="#DejaVuSans-50"/>
      <use x="63.623047" xlink:href="#DejaVuSans-48"/>
      <use x="127.246094" xlink:href="#DejaVuSans-48"/>
      <use x="190.869141" xlink:href="#DejaVuSans-32"/>
      <use x="222.65625" xlink:href="#DejaVuSans-117"/>
      <use x="286.035156" xlink:href="#DejaVuSans-110"/>
      <use x="349.414062" xlink:href="#DejaVuSans-105"/>
      <use x="377.197266" xlink:href="#DejaVuSans-116"/>
      <use x="416.40625" xlink:href="#DejaVuSans-115"/>
     </g>
    </g>
    <g id="line2d_45">
     <path d="M 163.8 439.632812 
L 207.8 439.632812 
" style="fill:none;stroke:#9041ff;stroke-linecap:square;stroke-width:5;"/>
    </g>
    <g id="line2d_46"/>
    <g id="text_16">
     <!-- 250 units -->
     <g transform="translate(225.4 447.332812)scale(0.22 -0.22)">
      <use xlink:href="#DejaVuSans-50"/>
      <use x="63.623047" xlink:href="#DejaVuSans-53"/>
      <use x="127.246094" xlink:href="#DejaVuSans-48"/>
      <use x="190.869141" xlink:href="#DejaVuSans-32"/>
      <use x="222.65625" xlink:href="#DejaVuSans-117"/>
      <use x="286.035156" xlink:href="#DejaVuSans-110"/>
      <use x="349.414062" xlink:href="#DejaVuSans-105"/>
      <use x="377.197266" xlink:href="#DejaVuSans-116"/>
      <use x="416.40625" xlink:href="#DejaVuSans-115"/>
     </g>
    </g>
    <g id="line2d_47">
     <path d="M 163.8 471.924688 
L 207.8 471.924688 
" style="fill:none;stroke:#4161ff;stroke-linecap:square;stroke-width:5;"/>
    </g>
    <g id="line2d_48"/>
    <g id="text_17">
     <!-- 300 units -->
     <g transform="translate(225.4 479.624687)scale(0.22 -0.22)">
      <use xlink:href="#DejaVuSans-51"/>
      <use x="63.623047" xlink:href="#DejaVuSans-48"/>
      <use x="127.246094" xlink:href="#DejaVuSans-48"/>
      <use x="190.869141" xlink:href="#DejaVuSans-32"/>
      <use x="222.65625" xlink:href="#DejaVuSans-117"/>
      <use x="286.035156" xlink:href="#DejaVuSans-110"/>
      <use x="349.414062" xlink:href="#DejaVuSans-105"/>
      <use x="377.197266" xlink:href="#DejaVuSans-116"/>
      <use x="416.40625" xlink:href="#DejaVuSans-115"/>
     </g>
    </g>
   </g>
  </g>
 </g>
 <defs>
  <clipPath id="p8ae443e167">
   <rect height="434.88" width="892.8" x="144" y="69.12"/>
  </clipPath>
 </defs>
</svg>
