<?xml version="1.0" encoding="utf-8" standalone="no"?>
<!DOCTYPE svg PUBLIC "-//W3C//DTD SVG 1.1//EN"
  "http://www.w3.org/Graphics/SVG/1.1/DTD/svg11.dtd">
<!-- Created with matplotlib (https://matplotlib.org/) -->
<svg height="568.879625pt" version="1.1" viewBox="0 0 1143.665937 568.879625" width="1143.665937pt" xmlns="http://www.w3.org/2000/svg" xmlns:xlink="http://www.w3.org/1999/xlink">
 <metadata>
  <rdf:RDF xmlns:cc="http://creativecommons.org/ns#" xmlns:dc="http://purl.org/dc/elements/1.1/" xmlns:rdf="http://www.w3.org/1999/02/22-rdf-syntax-ns#">
   <cc:Work>
    <dc:type rdf:resource="http://purl.org/dc/dcmitype/StillImage"/>
    <dc:date>2021-09-12T04:17:09.014071</dc:date>
    <dc:format>image/svg+xml</dc:format>
    <dc:creator>
     <cc:Agent>
      <dc:title>Matplotlib v3.3.4, https://matplotlib.org/</dc:title>
     </cc:Agent>
    </dc:creator>
   </cc:Work>
  </rdf:RDF>
 </metadata>
 <defs>
  <style type="text/css">*{stroke-linecap:butt;stroke-linejoin:round;}</style>
 </defs>
 <g id="figure_1">
  <g id="patch_1">
   <path d="M 0 568.879625 
L 1143.665937 568.879625 
L 1143.665937 0 
L 0 0 
z
" style="fill:#ffffff;"/>
  </g>
  <g id="axes_1">
   <g id="patch_2">
    <path d="M 87.53875 500.353375 
L 1113.560938 500.353375 
L 1113.560938 82.353375 
L 87.53875 82.353375 
z
" style="fill:#ffffff;"/>
   </g>
   <g id="matplotlib.axis_1">
    <g id="xtick_1">
     <g id="line2d_1">
      <defs>
       <path d="M 0 0 
L 0 3.5 
" id="mb9822a2cce" style="stroke:#000000;stroke-width:0.8;"/>
      </defs>
      <g>
       <use style="stroke:#000000;stroke-width:0.8;" x="87.53875" xlink:href="#mb9822a2cce" y="500.353375"/>
      </g>
     </g>
     <g id="text_1">
      <!-- 88 -->
      <g transform="translate(72.26875 525.589625)scale(0.24 -0.24)">
       <defs>
        <path d="M 31.78125 34.625 
Q 24.75 34.625 20.71875 30.859375 
Q 16.703125 27.09375 16.703125 20.515625 
Q 16.703125 13.921875 20.71875 10.15625 
Q 24.75 6.390625 31.78125 6.390625 
Q 38.8125 6.390625 42.859375 10.171875 
Q 46.921875 13.96875 46.921875 20.515625 
Q 46.921875 27.09375 42.890625 30.859375 
Q 38.875 34.625 31.78125 34.625 
z
M 21.921875 38.8125 
Q 15.578125 40.375 12.03125 44.71875 
Q 8.5 49.078125 8.5 55.328125 
Q 8.5 64.0625 14.71875 69.140625 
Q 20.953125 74.21875 31.78125 74.21875 
Q 42.671875 74.21875 48.875 69.140625 
Q 55.078125 64.0625 55.078125 55.328125 
Q 55.078125 49.078125 51.53125 44.71875 
Q 48 40.375 41.703125 38.8125 
Q 48.828125 37.15625 52.796875 32.3125 
Q 56.78125 27.484375 56.78125 20.515625 
Q 56.78125 9.90625 50.3125 4.234375 
Q 43.84375 -1.421875 31.78125 -1.421875 
Q 19.734375 -1.421875 13.25 4.234375 
Q 6.78125 9.90625 6.78125 20.515625 
Q 6.78125 27.484375 10.78125 32.3125 
Q 14.796875 37.15625 21.921875 38.8125 
z
M 18.3125 54.390625 
Q 18.3125 48.734375 21.84375 45.5625 
Q 25.390625 42.390625 31.78125 42.390625 
Q 38.140625 42.390625 41.71875 45.5625 
Q 45.3125 48.734375 45.3125 54.390625 
Q 45.3125 60.0625 41.71875 63.234375 
Q 38.140625 66.40625 31.78125 66.40625 
Q 25.390625 66.40625 21.84375 63.234375 
Q 18.3125 60.0625 18.3125 54.390625 
z
" id="DejaVuSans-56"/>
       </defs>
       <use xlink:href="#DejaVuSans-56"/>
       <use x="63.623047" xlink:href="#DejaVuSans-56"/>
      </g>
     </g>
    </g>
    <g id="xtick_2">
     <g id="line2d_2">
      <g>
       <use style="stroke:#000000;stroke-width:0.8;" x="258.542448" xlink:href="#mb9822a2cce" y="500.353375"/>
      </g>
     </g>
     <g id="text_2">
      <!-- 90 -->
      <g transform="translate(243.272448 525.589625)scale(0.24 -0.24)">
       <defs>
        <path d="M 10.984375 1.515625 
L 10.984375 10.5 
Q 14.703125 8.734375 18.5 7.8125 
Q 22.3125 6.890625 25.984375 6.890625 
Q 35.75 6.890625 40.890625 13.453125 
Q 46.046875 20.015625 46.78125 33.40625 
Q 43.953125 29.203125 39.59375 26.953125 
Q 35.25 24.703125 29.984375 24.703125 
Q 19.046875 24.703125 12.671875 31.3125 
Q 6.296875 37.9375 6.296875 49.421875 
Q 6.296875 60.640625 12.9375 67.421875 
Q 19.578125 74.21875 30.609375 74.21875 
Q 43.265625 74.21875 49.921875 64.515625 
Q 56.59375 54.828125 56.59375 36.375 
Q 56.59375 19.140625 48.40625 8.859375 
Q 40.234375 -1.421875 26.421875 -1.421875 
Q 22.703125 -1.421875 18.890625 -0.6875 
Q 15.09375 0.046875 10.984375 1.515625 
z
M 30.609375 32.421875 
Q 37.25 32.421875 41.125 36.953125 
Q 45.015625 41.5 45.015625 49.421875 
Q 45.015625 57.28125 41.125 61.84375 
Q 37.25 66.40625 30.609375 66.40625 
Q 23.96875 66.40625 20.09375 61.84375 
Q 16.21875 57.28125 16.21875 49.421875 
Q 16.21875 41.5 20.09375 36.953125 
Q 23.96875 32.421875 30.609375 32.421875 
z
" id="DejaVuSans-57"/>
        <path d="M 31.78125 66.40625 
Q 24.171875 66.40625 20.328125 58.90625 
Q 16.5 51.421875 16.5 36.375 
Q 16.5 21.390625 20.328125 13.890625 
Q 24.171875 6.390625 31.78125 6.390625 
Q 39.453125 6.390625 43.28125 13.890625 
Q 47.125 21.390625 47.125 36.375 
Q 47.125 51.421875 43.28125 58.90625 
Q 39.453125 66.40625 31.78125 66.40625 
z
M 31.78125 74.21875 
Q 44.046875 74.21875 50.515625 64.515625 
Q 56.984375 54.828125 56.984375 36.375 
Q 56.984375 17.96875 50.515625 8.265625 
Q 44.046875 -1.421875 31.78125 -1.421875 
Q 19.53125 -1.421875 13.0625 8.265625 
Q 6.59375 17.96875 6.59375 36.375 
Q 6.59375 54.828125 13.0625 64.515625 
Q 19.53125 74.21875 31.78125 74.21875 
z
" id="DejaVuSans-48"/>
       </defs>
       <use xlink:href="#DejaVuSans-57"/>
       <use x="63.623047" xlink:href="#DejaVuSans-48"/>
      </g>
     </g>
    </g>
    <g id="xtick_3">
     <g id="line2d_3">
      <g>
       <use style="stroke:#000000;stroke-width:0.8;" x="429.546146" xlink:href="#mb9822a2cce" y="500.353375"/>
      </g>
     </g>
     <g id="text_3">
      <!-- 92 -->
      <g transform="translate(414.276146 525.589625)scale(0.24 -0.24)">
       <defs>
        <path d="M 19.1875 8.296875 
L 53.609375 8.296875 
L 53.609375 0 
L 7.328125 0 
L 7.328125 8.296875 
Q 12.9375 14.109375 22.625 23.890625 
Q 32.328125 33.6875 34.8125 36.53125 
Q 39.546875 41.84375 41.421875 45.53125 
Q 43.3125 49.21875 43.3125 52.78125 
Q 43.3125 58.59375 39.234375 62.25 
Q 35.15625 65.921875 28.609375 65.921875 
Q 23.96875 65.921875 18.8125 64.3125 
Q 13.671875 62.703125 7.8125 59.421875 
L 7.8125 69.390625 
Q 13.765625 71.78125 18.9375 73 
Q 24.125 74.21875 28.421875 74.21875 
Q 39.75 74.21875 46.484375 68.546875 
Q 53.21875 62.890625 53.21875 53.421875 
Q 53.21875 48.921875 51.53125 44.890625 
Q 49.859375 40.875 45.40625 35.40625 
Q 44.1875 33.984375 37.640625 27.21875 
Q 31.109375 20.453125 19.1875 8.296875 
z
" id="DejaVuSans-50"/>
       </defs>
       <use xlink:href="#DejaVuSans-57"/>
       <use x="63.623047" xlink:href="#DejaVuSans-50"/>
      </g>
     </g>
    </g>
    <g id="xtick_4">
     <g id="line2d_4">
      <g>
       <use style="stroke:#000000;stroke-width:0.8;" x="600.549844" xlink:href="#mb9822a2cce" y="500.353375"/>
      </g>
     </g>
     <g id="text_4">
      <!-- 94 -->
      <g transform="translate(585.279844 525.589625)scale(0.24 -0.24)">
       <defs>
        <path d="M 37.796875 64.3125 
L 12.890625 25.390625 
L 37.796875 25.390625 
z
M 35.203125 72.90625 
L 47.609375 72.90625 
L 47.609375 25.390625 
L 58.015625 25.390625 
L 58.015625 17.1875 
L 47.609375 17.1875 
L 47.609375 0 
L 37.796875 0 
L 37.796875 17.1875 
L 4.890625 17.1875 
L 4.890625 26.703125 
z
" id="DejaVuSans-52"/>
       </defs>
       <use xlink:href="#DejaVuSans-57"/>
       <use x="63.623047" xlink:href="#DejaVuSans-52"/>
      </g>
     </g>
    </g>
    <g id="xtick_5">
     <g id="line2d_5">
      <g>
       <use style="stroke:#000000;stroke-width:0.8;" x="771.553542" xlink:href="#mb9822a2cce" y="500.353375"/>
      </g>
     </g>
     <g id="text_5">
      <!-- 96 -->
      <g transform="translate(756.283542 525.589625)scale(0.24 -0.24)">
       <defs>
        <path d="M 33.015625 40.375 
Q 26.375 40.375 22.484375 35.828125 
Q 18.609375 31.296875 18.609375 23.390625 
Q 18.609375 15.53125 22.484375 10.953125 
Q 26.375 6.390625 33.015625 6.390625 
Q 39.65625 6.390625 43.53125 10.953125 
Q 47.40625 15.53125 47.40625 23.390625 
Q 47.40625 31.296875 43.53125 35.828125 
Q 39.65625 40.375 33.015625 40.375 
z
M 52.59375 71.296875 
L 52.59375 62.3125 
Q 48.875 64.0625 45.09375 64.984375 
Q 41.3125 65.921875 37.59375 65.921875 
Q 27.828125 65.921875 22.671875 59.328125 
Q 17.53125 52.734375 16.796875 39.40625 
Q 19.671875 43.65625 24.015625 45.921875 
Q 28.375 48.1875 33.59375 48.1875 
Q 44.578125 48.1875 50.953125 41.515625 
Q 57.328125 34.859375 57.328125 23.390625 
Q 57.328125 12.15625 50.6875 5.359375 
Q 44.046875 -1.421875 33.015625 -1.421875 
Q 20.359375 -1.421875 13.671875 8.265625 
Q 6.984375 17.96875 6.984375 36.375 
Q 6.984375 53.65625 15.1875 63.9375 
Q 23.390625 74.21875 37.203125 74.21875 
Q 40.921875 74.21875 44.703125 73.484375 
Q 48.484375 72.75 52.59375 71.296875 
z
" id="DejaVuSans-54"/>
       </defs>
       <use xlink:href="#DejaVuSans-57"/>
       <use x="63.623047" xlink:href="#DejaVuSans-54"/>
      </g>
     </g>
    </g>
    <g id="xtick_6">
     <g id="line2d_6">
      <g>
       <use style="stroke:#000000;stroke-width:0.8;" x="942.55724" xlink:href="#mb9822a2cce" y="500.353375"/>
      </g>
     </g>
     <g id="text_6">
      <!-- 98 -->
      <g transform="translate(927.28724 525.589625)scale(0.24 -0.24)">
       <use xlink:href="#DejaVuSans-57"/>
       <use x="63.623047" xlink:href="#DejaVuSans-56"/>
      </g>
     </g>
    </g>
    <g id="xtick_7">
     <g id="line2d_7">
      <g>
       <use style="stroke:#000000;stroke-width:0.8;" x="1113.560937" xlink:href="#mb9822a2cce" y="500.353375"/>
      </g>
     </g>
     <g id="text_7">
      <!-- 100 -->
      <g transform="translate(1090.655937 525.589625)scale(0.24 -0.24)">
       <defs>
        <path d="M 12.40625 8.296875 
L 28.515625 8.296875 
L 28.515625 63.921875 
L 10.984375 60.40625 
L 10.984375 69.390625 
L 28.421875 72.90625 
L 38.28125 72.90625 
L 38.28125 8.296875 
L 54.390625 8.296875 
L 54.390625 0 
L 12.40625 0 
z
" id="DejaVuSans-49"/>
       </defs>
       <use xlink:href="#DejaVuSans-49"/>
       <use x="63.623047" xlink:href="#DejaVuSans-48"/>
       <use x="127.246094" xlink:href="#DejaVuSans-48"/>
      </g>
     </g>
    </g>
    <g id="text_8">
     <!-- Accuracy /% -->
     <g transform="translate(514.163281 555.8565)scale(0.28 -0.28)">
      <defs>
       <path d="M 34.1875 63.1875 
L 20.796875 26.90625 
L 47.609375 26.90625 
z
M 28.609375 72.90625 
L 39.796875 72.90625 
L 67.578125 0 
L 57.328125 0 
L 50.6875 18.703125 
L 17.828125 18.703125 
L 11.1875 0 
L 0.78125 0 
z
" id="DejaVuSans-65"/>
       <path d="M 48.78125 52.59375 
L 48.78125 44.1875 
Q 44.96875 46.296875 41.140625 47.34375 
Q 37.3125 48.390625 33.40625 48.390625 
Q 24.65625 48.390625 19.8125 42.84375 
Q 14.984375 37.3125 14.984375 27.296875 
Q 14.984375 17.28125 19.8125 11.734375 
Q 24.65625 6.203125 33.40625 6.203125 
Q 37.3125 6.203125 41.140625 7.25 
Q 44.96875 8.296875 48.78125 10.40625 
L 48.78125 2.09375 
Q 45.015625 0.34375 40.984375 -0.53125 
Q 36.96875 -1.421875 32.421875 -1.421875 
Q 20.0625 -1.421875 12.78125 6.34375 
Q 5.515625 14.109375 5.515625 27.296875 
Q 5.515625 40.671875 12.859375 48.328125 
Q 20.21875 56 33.015625 56 
Q 37.15625 56 41.109375 55.140625 
Q 45.0625 54.296875 48.78125 52.59375 
z
" id="DejaVuSans-99"/>
       <path d="M 8.5 21.578125 
L 8.5 54.6875 
L 17.484375 54.6875 
L 17.484375 21.921875 
Q 17.484375 14.15625 20.5 10.265625 
Q 23.53125 6.390625 29.59375 6.390625 
Q 36.859375 6.390625 41.078125 11.03125 
Q 45.3125 15.671875 45.3125 23.6875 
L 45.3125 54.6875 
L 54.296875 54.6875 
L 54.296875 0 
L 45.3125 0 
L 45.3125 8.40625 
Q 42.046875 3.421875 37.71875 1 
Q 33.40625 -1.421875 27.6875 -1.421875 
Q 18.265625 -1.421875 13.375 4.4375 
Q 8.5 10.296875 8.5 21.578125 
z
M 31.109375 56 
z
" id="DejaVuSans-117"/>
       <path d="M 41.109375 46.296875 
Q 39.59375 47.171875 37.8125 47.578125 
Q 36.03125 48 33.890625 48 
Q 26.265625 48 22.1875 43.046875 
Q 18.109375 38.09375 18.109375 28.8125 
L 18.109375 0 
L 9.078125 0 
L 9.078125 54.6875 
L 18.109375 54.6875 
L 18.109375 46.1875 
Q 20.953125 51.171875 25.484375 53.578125 
Q 30.03125 56 36.53125 56 
Q 37.453125 56 38.578125 55.875 
Q 39.703125 55.765625 41.0625 55.515625 
z
" id="DejaVuSans-114"/>
       <path d="M 34.28125 27.484375 
Q 23.390625 27.484375 19.1875 25 
Q 14.984375 22.515625 14.984375 16.5 
Q 14.984375 11.71875 18.140625 8.90625 
Q 21.296875 6.109375 26.703125 6.109375 
Q 34.1875 6.109375 38.703125 11.40625 
Q 43.21875 16.703125 43.21875 25.484375 
L 43.21875 27.484375 
z
M 52.203125 31.203125 
L 52.203125 0 
L 43.21875 0 
L 43.21875 8.296875 
Q 40.140625 3.328125 35.546875 0.953125 
Q 30.953125 -1.421875 24.3125 -1.421875 
Q 15.921875 -1.421875 10.953125 3.296875 
Q 6 8.015625 6 15.921875 
Q 6 25.140625 12.171875 29.828125 
Q 18.359375 34.515625 30.609375 34.515625 
L 43.21875 34.515625 
L 43.21875 35.40625 
Q 43.21875 41.609375 39.140625 45 
Q 35.0625 48.390625 27.6875 48.390625 
Q 23 48.390625 18.546875 47.265625 
Q 14.109375 46.140625 10.015625 43.890625 
L 10.015625 52.203125 
Q 14.9375 54.109375 19.578125 55.046875 
Q 24.21875 56 28.609375 56 
Q 40.484375 56 46.34375 49.84375 
Q 52.203125 43.703125 52.203125 31.203125 
z
" id="DejaVuSans-97"/>
       <path d="M 32.171875 -5.078125 
Q 28.375 -14.84375 24.75 -17.8125 
Q 21.140625 -20.796875 15.09375 -20.796875 
L 7.90625 -20.796875 
L 7.90625 -13.28125 
L 13.1875 -13.28125 
Q 16.890625 -13.28125 18.9375 -11.515625 
Q 21 -9.765625 23.484375 -3.21875 
L 25.09375 0.875 
L 2.984375 54.6875 
L 12.5 54.6875 
L 29.59375 11.921875 
L 46.6875 54.6875 
L 56.203125 54.6875 
z
" id="DejaVuSans-121"/>
       <path id="DejaVuSans-32"/>
       <path d="M 25.390625 72.90625 
L 33.6875 72.90625 
L 8.296875 -9.28125 
L 0 -9.28125 
z
" id="DejaVuSans-47"/>
       <path d="M 72.703125 32.078125 
Q 68.453125 32.078125 66.03125 28.46875 
Q 63.625 24.859375 63.625 18.40625 
Q 63.625 12.0625 66.03125 8.421875 
Q 68.453125 4.78125 72.703125 4.78125 
Q 76.859375 4.78125 79.265625 8.421875 
Q 81.6875 12.0625 81.6875 18.40625 
Q 81.6875 24.8125 79.265625 28.4375 
Q 76.859375 32.078125 72.703125 32.078125 
z
M 72.703125 38.28125 
Q 80.421875 38.28125 84.953125 32.90625 
Q 89.5 27.546875 89.5 18.40625 
Q 89.5 9.28125 84.9375 3.921875 
Q 80.375 -1.421875 72.703125 -1.421875 
Q 64.890625 -1.421875 60.34375 3.921875 
Q 55.8125 9.28125 55.8125 18.40625 
Q 55.8125 27.59375 60.375 32.9375 
Q 64.9375 38.28125 72.703125 38.28125 
z
M 22.3125 68.015625 
Q 18.109375 68.015625 15.6875 64.375 
Q 13.28125 60.75 13.28125 54.390625 
Q 13.28125 47.953125 15.671875 44.328125 
Q 18.0625 40.71875 22.3125 40.71875 
Q 26.5625 40.71875 28.96875 44.328125 
Q 31.390625 47.953125 31.390625 54.390625 
Q 31.390625 60.6875 28.953125 64.34375 
Q 26.515625 68.015625 22.3125 68.015625 
z
M 66.40625 74.21875 
L 74.21875 74.21875 
L 28.609375 -1.421875 
L 20.796875 -1.421875 
z
M 22.3125 74.21875 
Q 30.03125 74.21875 34.609375 68.875 
Q 39.203125 63.53125 39.203125 54.390625 
Q 39.203125 45.171875 34.640625 39.84375 
Q 30.078125 34.515625 22.3125 34.515625 
Q 14.546875 34.515625 10.03125 39.859375 
Q 5.515625 45.21875 5.515625 54.390625 
Q 5.515625 63.484375 10.046875 68.84375 
Q 14.59375 74.21875 22.3125 74.21875 
z
" id="DejaVuSans-37"/>
      </defs>
      <use xlink:href="#DejaVuSans-65"/>
      <use x="66.658203" xlink:href="#DejaVuSans-99"/>
      <use x="121.638672" xlink:href="#DejaVuSans-99"/>
      <use x="176.619141" xlink:href="#DejaVuSans-117"/>
      <use x="239.998047" xlink:href="#DejaVuSans-114"/>
      <use x="281.111328" xlink:href="#DejaVuSans-97"/>
      <use x="342.390625" xlink:href="#DejaVuSans-99"/>
      <use x="397.371094" xlink:href="#DejaVuSans-121"/>
      <use x="456.550781" xlink:href="#DejaVuSans-32"/>
      <use x="488.337891" xlink:href="#DejaVuSans-47"/>
      <use x="522.029297" xlink:href="#DejaVuSans-37"/>
     </g>
    </g>
   </g>
   <g id="matplotlib.axis_2">
    <g id="ytick_1">
     <g id="line2d_8">
      <defs>
       <path d="M 0 0 
L -3.5 0 
" id="mbd1a1c388a" style="stroke:#000000;stroke-width:0.8;"/>
      </defs>
      <g>
       <use style="stroke:#000000;stroke-width:0.8;" x="87.53875" xlink:href="#mbd1a1c388a" y="411.642181"/>
      </g>
     </g>
     <g id="text_9">
      <!-- $\mathdefault{10^{4}}$ -->
      <g transform="translate(38.29875 420.760306)scale(0.24 -0.24)">
       <use transform="translate(0 0.684375)" xlink:href="#DejaVuSans-49"/>
       <use transform="translate(63.623047 0.684375)" xlink:href="#DejaVuSans-48"/>
       <use transform="translate(128.203125 38.965625)scale(0.7)" xlink:href="#DejaVuSans-52"/>
      </g>
     </g>
    </g>
    <g id="ytick_2">
     <g id="line2d_9">
      <g>
       <use style="stroke:#000000;stroke-width:0.8;" x="87.53875" xlink:href="#mbd1a1c388a" y="188.716131"/>
      </g>
     </g>
     <g id="text_10">
      <!-- $\mathdefault{10^{5}}$ -->
      <g transform="translate(38.29875 197.834256)scale(0.24 -0.24)">
       <defs>
        <path d="M 10.796875 72.90625 
L 49.515625 72.90625 
L 49.515625 64.59375 
L 19.828125 64.59375 
L 19.828125 46.734375 
Q 21.96875 47.46875 24.109375 47.828125 
Q 26.265625 48.1875 28.421875 48.1875 
Q 40.625 48.1875 47.75 41.5 
Q 54.890625 34.8125 54.890625 23.390625 
Q 54.890625 11.625 47.5625 5.09375 
Q 40.234375 -1.421875 26.90625 -1.421875 
Q 22.3125 -1.421875 17.546875 -0.640625 
Q 12.796875 0.140625 7.71875 1.703125 
L 7.71875 11.625 
Q 12.109375 9.234375 16.796875 8.0625 
Q 21.484375 6.890625 26.703125 6.890625 
Q 35.15625 6.890625 40.078125 11.328125 
Q 45.015625 15.765625 45.015625 23.390625 
Q 45.015625 31 40.078125 35.4375 
Q 35.15625 39.890625 26.703125 39.890625 
Q 22.75 39.890625 18.8125 39.015625 
Q 14.890625 38.140625 10.796875 36.28125 
z
" id="DejaVuSans-53"/>
       </defs>
       <use transform="translate(0 0.684375)" xlink:href="#DejaVuSans-49"/>
       <use transform="translate(63.623047 0.684375)" xlink:href="#DejaVuSans-48"/>
       <use transform="translate(128.203125 38.965625)scale(0.7)" xlink:href="#DejaVuSans-53"/>
      </g>
     </g>
    </g>
    <g id="ytick_3">
     <g id="line2d_10">
      <defs>
       <path d="M 0 0 
L -2 0 
" id="m4ea3d38733" style="stroke:#000000;stroke-width:0.6;"/>
      </defs>
      <g>
       <use style="stroke:#000000;stroke-width:0.6;" x="87.53875" xlink:href="#m4ea3d38733" y="500.353375"/>
      </g>
     </g>
    </g>
    <g id="ytick_4">
     <g id="line2d_11">
      <g>
       <use style="stroke:#000000;stroke-width:0.6;" x="87.53875" xlink:href="#m4ea3d38733" y="478.749609"/>
      </g>
     </g>
    </g>
    <g id="ytick_5">
     <g id="line2d_12">
      <g>
       <use style="stroke:#000000;stroke-width:0.6;" x="87.53875" xlink:href="#m4ea3d38733" y="461.098046"/>
      </g>
     </g>
    </g>
    <g id="ytick_6">
     <g id="line2d_13">
      <g>
       <use style="stroke:#000000;stroke-width:0.6;" x="87.53875" xlink:href="#m4ea3d38733" y="446.173863"/>
      </g>
     </g>
    </g>
    <g id="ytick_7">
     <g id="line2d_14">
      <g>
       <use style="stroke:#000000;stroke-width:0.6;" x="87.53875" xlink:href="#m4ea3d38733" y="433.245947"/>
      </g>
     </g>
    </g>
    <g id="ytick_8">
     <g id="line2d_15">
      <g>
       <use style="stroke:#000000;stroke-width:0.6;" x="87.53875" xlink:href="#m4ea3d38733" y="421.842718"/>
      </g>
     </g>
    </g>
    <g id="ytick_9">
     <g id="line2d_16">
      <g>
       <use style="stroke:#000000;stroke-width:0.6;" x="87.53875" xlink:href="#m4ea3d38733" y="344.534753"/>
      </g>
     </g>
    </g>
    <g id="ytick_10">
     <g id="line2d_17">
      <g>
       <use style="stroke:#000000;stroke-width:0.6;" x="87.53875" xlink:href="#m4ea3d38733" y="305.279424"/>
      </g>
     </g>
    </g>
    <g id="ytick_11">
     <g id="line2d_18">
      <g>
       <use style="stroke:#000000;stroke-width:0.6;" x="87.53875" xlink:href="#m4ea3d38733" y="277.427326"/>
      </g>
     </g>
    </g>
    <g id="ytick_12">
     <g id="line2d_19">
      <g>
       <use style="stroke:#000000;stroke-width:0.6;" x="87.53875" xlink:href="#m4ea3d38733" y="255.823559"/>
      </g>
     </g>
    </g>
    <g id="ytick_13">
     <g id="line2d_20">
      <g>
       <use style="stroke:#000000;stroke-width:0.6;" x="87.53875" xlink:href="#m4ea3d38733" y="238.171997"/>
      </g>
     </g>
    </g>
    <g id="ytick_14">
     <g id="line2d_21">
      <g>
       <use style="stroke:#000000;stroke-width:0.6;" x="87.53875" xlink:href="#m4ea3d38733" y="223.247813"/>
      </g>
     </g>
    </g>
    <g id="ytick_15">
     <g id="line2d_22">
      <g>
       <use style="stroke:#000000;stroke-width:0.6;" x="87.53875" xlink:href="#m4ea3d38733" y="210.319898"/>
      </g>
     </g>
    </g>
    <g id="ytick_16">
     <g id="line2d_23">
      <g>
       <use style="stroke:#000000;stroke-width:0.6;" x="87.53875" xlink:href="#m4ea3d38733" y="198.916668"/>
      </g>
     </g>
    </g>
    <g id="ytick_17">
     <g id="line2d_24">
      <g>
       <use style="stroke:#000000;stroke-width:0.6;" x="87.53875" xlink:href="#m4ea3d38733" y="121.608704"/>
      </g>
     </g>
    </g>
    <g id="ytick_18">
     <g id="line2d_25">
      <g>
       <use style="stroke:#000000;stroke-width:0.6;" x="87.53875" xlink:href="#m4ea3d38733" y="82.353375"/>
      </g>
     </g>
    </g>
    <g id="text_11">
     <!-- Energy /A.U. -->
     <g transform="translate(28.475625 378.013375)rotate(-90)scale(0.28 -0.28)">
      <defs>
       <path d="M 9.8125 72.90625 
L 55.90625 72.90625 
L 55.90625 64.59375 
L 19.671875 64.59375 
L 19.671875 43.015625 
L 54.390625 43.015625 
L 54.390625 34.71875 
L 19.671875 34.71875 
L 19.671875 8.296875 
L 56.78125 8.296875 
L 56.78125 0 
L 9.8125 0 
z
" id="DejaVuSans-69"/>
       <path d="M 54.890625 33.015625 
L 54.890625 0 
L 45.90625 0 
L 45.90625 32.71875 
Q 45.90625 40.484375 42.875 44.328125 
Q 39.84375 48.1875 33.796875 48.1875 
Q 26.515625 48.1875 22.3125 43.546875 
Q 18.109375 38.921875 18.109375 30.90625 
L 18.109375 0 
L 9.078125 0 
L 9.078125 54.6875 
L 18.109375 54.6875 
L 18.109375 46.1875 
Q 21.34375 51.125 25.703125 53.5625 
Q 30.078125 56 35.796875 56 
Q 45.21875 56 50.046875 50.171875 
Q 54.890625 44.34375 54.890625 33.015625 
z
" id="DejaVuSans-110"/>
       <path d="M 56.203125 29.59375 
L 56.203125 25.203125 
L 14.890625 25.203125 
Q 15.484375 15.921875 20.484375 11.0625 
Q 25.484375 6.203125 34.421875 6.203125 
Q 39.59375 6.203125 44.453125 7.46875 
Q 49.3125 8.734375 54.109375 11.28125 
L 54.109375 2.78125 
Q 49.265625 0.734375 44.1875 -0.34375 
Q 39.109375 -1.421875 33.890625 -1.421875 
Q 20.796875 -1.421875 13.15625 6.1875 
Q 5.515625 13.8125 5.515625 26.8125 
Q 5.515625 40.234375 12.765625 48.109375 
Q 20.015625 56 32.328125 56 
Q 43.359375 56 49.78125 48.890625 
Q 56.203125 41.796875 56.203125 29.59375 
z
M 47.21875 32.234375 
Q 47.125 39.59375 43.09375 43.984375 
Q 39.0625 48.390625 32.421875 48.390625 
Q 24.90625 48.390625 20.390625 44.140625 
Q 15.875 39.890625 15.1875 32.171875 
z
" id="DejaVuSans-101"/>
       <path d="M 45.40625 27.984375 
Q 45.40625 37.75 41.375 43.109375 
Q 37.359375 48.484375 30.078125 48.484375 
Q 22.859375 48.484375 18.828125 43.109375 
Q 14.796875 37.75 14.796875 27.984375 
Q 14.796875 18.265625 18.828125 12.890625 
Q 22.859375 7.515625 30.078125 7.515625 
Q 37.359375 7.515625 41.375 12.890625 
Q 45.40625 18.265625 45.40625 27.984375 
z
M 54.390625 6.78125 
Q 54.390625 -7.171875 48.1875 -13.984375 
Q 42 -20.796875 29.203125 -20.796875 
Q 24.46875 -20.796875 20.265625 -20.09375 
Q 16.0625 -19.390625 12.109375 -17.921875 
L 12.109375 -9.1875 
Q 16.0625 -11.328125 19.921875 -12.34375 
Q 23.78125 -13.375 27.78125 -13.375 
Q 36.625 -13.375 41.015625 -8.765625 
Q 45.40625 -4.15625 45.40625 5.171875 
L 45.40625 9.625 
Q 42.625 4.78125 38.28125 2.390625 
Q 33.9375 0 27.875 0 
Q 17.828125 0 11.671875 7.65625 
Q 5.515625 15.328125 5.515625 27.984375 
Q 5.515625 40.671875 11.671875 48.328125 
Q 17.828125 56 27.875 56 
Q 33.9375 56 38.28125 53.609375 
Q 42.625 51.21875 45.40625 46.390625 
L 45.40625 54.6875 
L 54.390625 54.6875 
z
" id="DejaVuSans-103"/>
       <path d="M 10.6875 12.40625 
L 21 12.40625 
L 21 0 
L 10.6875 0 
z
" id="DejaVuSans-46"/>
       <path d="M 8.6875 72.90625 
L 18.609375 72.90625 
L 18.609375 28.609375 
Q 18.609375 16.890625 22.84375 11.734375 
Q 27.09375 6.59375 36.625 6.59375 
Q 46.09375 6.59375 50.34375 11.734375 
Q 54.59375 16.890625 54.59375 28.609375 
L 54.59375 72.90625 
L 64.5 72.90625 
L 64.5 27.390625 
Q 64.5 13.140625 57.4375 5.859375 
Q 50.390625 -1.421875 36.625 -1.421875 
Q 22.796875 -1.421875 15.734375 5.859375 
Q 8.6875 13.140625 8.6875 27.390625 
z
" id="DejaVuSans-85"/>
      </defs>
      <use xlink:href="#DejaVuSans-69"/>
      <use x="63.183594" xlink:href="#DejaVuSans-110"/>
      <use x="126.5625" xlink:href="#DejaVuSans-101"/>
      <use x="188.085938" xlink:href="#DejaVuSans-114"/>
      <use x="227.449219" xlink:href="#DejaVuSans-103"/>
      <use x="290.925781" xlink:href="#DejaVuSans-121"/>
      <use x="350.105469" xlink:href="#DejaVuSans-32"/>
      <use x="381.892578" xlink:href="#DejaVuSans-47"/>
      <use x="415.583984" xlink:href="#DejaVuSans-65"/>
      <use x="482.242188" xlink:href="#DejaVuSans-46"/>
      <use x="514.029297" xlink:href="#DejaVuSans-85"/>
      <use x="587.222656" xlink:href="#DejaVuSans-46"/>
     </g>
    </g>
   </g>
   <g id="line2d_26">
    <path clip-path="url(#pe4436e2261)" d="M -1 517.670614 
L 48.207899 509.663306 
L 78.988565 499.240928 
L 118.319416 489.996527 
L 167.05547 481.808683 
L 206.38632 467.852374 
L 232.036875 461.57994 
L 258.542448 455.926137 
L 279.062892 450.55308 
L 287.613077 445.603431 
L 291.033151 440.893825 
L 298.728317 436.492107 
L 309.843557 432.198901 
L 307.278502 428.178799 
L 320.958798 424.370758 
L 335.494112 420.741881 
L 341.479241 417.28663 
L 361.144667 414.076828 
L 349.174408 410.842381 
L 371.404889 407.820042 
L 375.679981 404.841066 
L 385.085184 401.985954 
L 381.66511 399.248983 
L 389.360277 396.451213 
L 414.155813 393.762994 
L 399.620499 391.265298 
L 414.155813 388.954074 
L 416.720868 386.724022 
L 432.96622 384.383871 
L 424.416035 382.181967 
L 433.821238 380.150934 
L 436.386294 377.942293 
L 432.96622 375.837985 
L 442.371423 373.883022 
L 450.921608 371.968501 
L 455.196701 370.096414 
L 457.761756 368.292833 
L 456.906737 366.470545 
L 458.616774 364.705378 
L 464.601904 362.974215 
L 458.616774 361.181932 
L 477.427181 359.633401 
L 474.007107 356.324742 
L 473.152089 354.791768 
L 484.267329 353.233546 
L 497.947625 351.768395 
L 483.412311 350.248642 
L 490.252459 348.772987 
L 491.962496 347.367319 
L 503.932754 344.587841 
L 508.207847 343.296149 
L 515.903013 341.980223 
L 510.772902 340.662778 
L 514.192976 339.388744 
L 515.047995 338.167038 
L 522.743161 336.926174 
L 534.71342 335.697221 
L 523.59818 334.479313 
L 528.728291 333.288446 
L 531.293346 332.160617 
L 531.293346 331.049592 
L 537.278476 330.001261 
L 538.133494 328.82511 
L 548.393716 327.742115 
L 548.393716 326.658113 
L 532.148365 325.592503 
L 541.553568 324.587685 
L 560.363975 323.48068 
L 562.074012 322.501107 
L 533.858402 321.577879 
L 561.218993 320.597798 
L 560.363975 319.649 
L 556.943901 318.677681 
L 556.943901 317.693326 
L 578.319363 316.725746 
L 562.92903 315.823095 
L 569.769178 314.922234 
L 580.0294 314.020977 
L 574.899289 313.143769 
L 575.754308 312.277129 
L 582.594455 311.408374 
L 592.854677 310.492265 
L 587.724566 309.644982 
L 588.579585 308.827359 
L 601.404862 307.991149 
L 596.274751 307.154537 
L 600.549844 306.336807 
L 602.259881 305.538745 
L 597.12977 304.71162 
L 594.564714 303.925915 
L 598.839807 303.15419 
L 599.694825 302.382183 
L 610.810066 301.622426 
L 591.14464 300.875808 
L 611.665084 300.114849 
L 625.34538 299.403092 
L 610.810066 298.666471 
L 614.23014 297.987298 
L 624.490361 297.279474 
L 619.360251 296.616829 
L 626.200398 295.931355 
L 630.475491 295.239408 
L 628.765454 294.567234 
L 621.925306 293.908786 
L 633.895565 293.208127 
L 618.505232 292.538286 
L 633.040546 291.896204 
L 642.44575 291.223494 
L 639.025676 290.577317 
L 633.895565 289.923258 
L 639.880694 289.280436 
L 633.040546 288.675431 
L 636.46062 288.037609 
L 649.285898 287.39227 
L 640.735713 286.793276 
L 639.025676 286.178628 
L 646.720842 285.596457 
L 645.010805 285.013869 
L 651.850953 284.435024 
L 654.416009 283.853565 
L 658.691101 283.262994 
L 658.691101 282.671086 
L 650.140916 282.123681 
L 651.850953 281.605544 
L 664.67623 280.498326 
L 664.67623 279.959889 
L 667.241286 279.418207 
L 666.386267 278.88842 
L 674.081434 278.341659 
L 672.371397 277.789251 
L 683.486637 277.254751 
L 652.705972 276.166347 
L 682.631619 275.664906 
L 685.196674 275.135067 
L 674.936452 274.607327 
L 685.196674 274.121241 
L 679.211545 273.620563 
L 684.341656 273.128614 
L 680.921582 272.652818 
L 694.601878 271.63638 
L 688.616748 271.170879 
L 700.587007 270.71445 
L 684.341656 270.259366 
L 700.587007 269.773035 
L 691.181804 269.325771 
L 692.036822 268.847971 
L 694.601878 268.351688 
L 686.051693 267.938111 
L 689.471767 267.485641 
L 700.587007 267.017507 
L 700.587007 266.587134 
L 696.311915 266.127486 
L 701.442026 265.692743 
L 696.311915 265.266742 
L 707.427155 264.815707 
L 706.572136 264.373814 
L 704.007081 263.94639 
L 709.137192 263.508679 
L 710.847229 263.108617 
L 707.427155 262.696567 
L 701.442026 262.27006 
L 709.99221 261.848871 
L 717.687377 261.017692 
L 704.007081 260.60277 
L 715.97734 260.18972 
L 711.702247 259.782736 
L 714.267303 259.394254 
L 721.107451 258.974393 
L 720.252432 258.595014 
L 707.427155 258.218716 
L 731.367673 257.816657 
L 709.99221 257.422882 
L 721.107451 257.035507 
L 721.962469 256.658578 
L 727.09258 256.294749 
L 734.787747 255.909018 
L 727.947599 255.543717 
L 731.367673 255.172339 
L 730.512654 254.780576 
L 732.222691 254.388334 
L 724.527525 254.021259 
L 732.222691 253.650888 
L 721.962469 253.29857 
L 737.352802 252.943497 
L 735.642765 252.237012 
L 735.642765 251.876636 
L 727.947599 251.533525 
L 735.642765 251.184877 
L 735.642765 250.832816 
L 734.787747 250.488434 
L 751.033098 249.814921 
L 746.758005 249.486793 
L 736.497784 249.13529 
L 745.047968 248.786401 
L 742.482913 248.446358 
L 745.047968 248.121914 
L 745.902987 247.797611 
L 745.902987 247.454428 
L 739.917858 247.137495 
L 747.613024 246.79316 
L 754.453172 246.142754 
L 745.047968 245.81474 
L 745.902987 245.518257 
L 744.19295 245.21176 
L 748.468042 244.894227 
L 745.902987 244.573101 
L 749.323061 244.237538 
L 748.468042 243.934518 
L 745.902987 243.622969 
L 757.018227 243.315971 
L 754.453172 242.999405 
L 763.858375 242.699859 
L 755.30819 242.110737 
L 757.018227 241.800554 
L 762.148338 241.503444 
L 760.438301 241.206577 
L 751.888116 240.900166 
L 762.148338 240.611892 
L 761.29332 240.308465 
L 757.018227 240.027382 
L 767.278449 239.748161 
L 763.858375 239.460143 
L 772.40856 239.156912 
L 769.843505 238.880151 
L 765.568412 238.592074 
L 766.423431 238.311032 
L 776.683653 238.023418 
L 774.118597 237.734915 
L 778.39369 237.44051 
L 775.828634 237.155593 
L 778.39369 236.901663 
L 778.39369 236.63569 
L 768.133468 236.362113 
L 779.248708 235.799205 
L 773.263579 235.514551 
L 773.263579 235.264795 
L 783.523801 235.001291 
L 779.248708 234.742649 
L 785.233837 234.467383 
L 786.088856 234.207343 
L 776.683653 233.946333 
L 786.943874 233.680415 
L 786.943874 233.137624 
L 782.668782 232.875456 
L 783.523801 232.633158 
L 785.233837 232.376961 
L 778.39369 232.125165 
L 787.798893 231.870737 
L 783.523801 231.6136 
L 786.943874 231.372913 
L 786.943874 231.108071 
L 791.218967 230.847436 
L 784.378819 230.602926 
L 785.233837 230.363076 
L 787.798893 230.121112 
L 792.073985 229.879781 
L 792.929004 229.621837 
L 796.349078 229.387574 
L 796.349078 229.147277 
L 794.639041 228.907789 
L 788.653911 228.655484 
L 792.929004 228.426743 
L 792.073985 228.193588 
L 792.073985 227.951972 
L 798.059115 227.703601 
L 795.494059 227.452765 
L 800.62417 227.218852 
L 802.334207 226.993979 
L 801.479189 226.765028 
L 794.639041 226.543526 
L 802.334207 226.31365 
L 793.784022 226.099017 
L 796.349078 225.875215 
L 796.349078 225.658997 
L 802.334207 225.425553 
L 797.204096 225.195043 
L 804.899263 224.955369 
L 804.899263 224.720691 
L 796.349078 224.494137 
L 798.914133 224.263003 
L 796.349078 223.817608 
L 803.189226 223.578772 
L 800.62417 223.365784 
L 807.464318 223.149045 
L 805.754281 222.927363 
L 808.319337 222.705847 
L 798.059115 222.279601 
L 805.754281 222.062991 
L 806.6093 221.846369 
L 805.754281 221.641469 
L 817.72454 221.428093 
L 810.029374 220.98489 
L 798.914133 220.766154 
L 811.739411 220.566099 
L 811.739411 220.369268 
L 805.754281 220.164253 
L 816.014503 219.966419 
L 812.594429 219.751127 
L 814.304466 219.542743 
L 810.029374 219.34081 
L 817.72454 219.136039 
L 819.434577 218.927939 
L 816.869522 218.730243 
L 817.72454 218.541436 
L 816.014503 218.337263 
L 821.144614 218.133347 
L 802.334207 217.933861 
L 828.83978 217.721018 
L 827.984762 217.520335 
L 814.304466 217.135838 
L 817.72454 216.930502 
L 815.159485 216.729252 
L 821.144614 216.534532 
L 822.854651 216.333264 
L 815.159485 216.146754 
L 832.259854 215.957119 
L 833.969891 215.773249 
L 819.434577 215.585426 
L 818.579559 215.397365 
L 820.289596 215.194482 
L 819.434577 215.004228 
L 827.129743 214.811214 
L 819.434577 214.615729 
L 824.564688 214.428781 
L 817.72454 214.233583 
L 824.564688 214.055976 
L 824.564688 213.680945 
L 815.159485 213.489069 
L 830.549817 213.131969 
L 830.549817 212.955194 
L 827.984762 212.765055 
L 828.83978 212.587949 
L 825.419707 212.404727 
L 832.259854 212.205895 
L 828.83978 212.021221 
L 822.854651 211.844482 
L 825.419707 211.312685 
L 825.419707 211.122425 
L 834.82491 210.931657 
L 837.389965 210.752718 
L 832.259854 210.582495 
L 841.665058 210.414778 
L 838.244984 210.064285 
L 838.244984 209.883058 
L 829.694799 209.713013 
L 829.694799 209.551051 
L 834.82491 209.38401 
L 835.679928 209.215996 
L 824.564688 209.035329 
L 833.969891 208.849173 
L 833.114873 208.679218 
L 840.810039 208.497888 
L 839.100002 208.335391 
L 833.114873 208.169531 
L 845.085132 207.996876 
L 839.100002 207.824131 
L 838.244984 207.661084 
L 832.259854 207.491045 
L 842.520076 207.32704 
L 841.665058 207.163388 
L 835.679928 206.823642 
L 834.82491 206.662495 
L 837.389965 206.501446 
L 845.085132 206.337154 
L 836.534947 206.164943 
L 841.665058 205.991221 
L 841.665058 205.835125 
L 836.534947 205.673538 
L 836.534947 205.507788 
L 828.83978 205.355646 
L 846.795169 205.196576 
L 842.520076 205.031035 
L 845.085132 204.857646 
L 840.810039 204.67693 
L 847.650187 204.526193 
L 833.969891 204.365825 
L 847.650187 204.213383 
L 836.534947 203.908809 
L 838.244984 203.753984 
L 846.795169 203.446288 
L 841.665058 203.140075 
L 850.215243 202.9836 
L 849.360224 202.830197 
L 853.635317 202.66814 
L 846.795169 202.370681 
L 851.92528 202.213624 
L 838.244984 202.049877 
L 851.070261 201.731522 
L 849.360224 201.581331 
L 849.360224 201.440357 
L 844.230113 201.291266 
L 846.795169 201.141985 
L 841.665058 200.990337 
L 845.085132 200.700628 
L 854.490335 200.549289 
L 850.215243 200.395097 
L 851.92528 200.240174 
L 845.94015 199.928432 
L 852.780298 199.7747 
L 852.780298 199.632518 
L 854.490335 199.48919 
L 835.679928 199.351455 
L 851.92528 199.210016 
L 842.520076 199.063676 
L 842.520076 198.912876 
L 845.94015 198.773823 
L 853.635317 198.625867 
L 848.505206 198.486967 
L 857.910409 198.353545 
L 840.810039 198.081332 
L 855.345354 197.786546 
L 855.345354 197.635865 
L 857.055391 197.506951 
L 851.92528 197.223833 
L 856.200372 197.077234 
L 845.085132 196.78601 
L 855.345354 196.520298 
L 851.070261 196.382179 
L 855.345354 196.106973 
L 847.650187 195.970677 
L 854.490335 195.837724 
L 855.345354 195.700826 
L 851.070261 195.410941 
L 845.94015 195.273458 
L 851.92528 195.135531 
L 851.92528 195.000762 
L 857.910409 194.744047 
L 850.215243 194.603975 
L 857.055391 194.466682 
L 850.215243 194.328667 
L 857.910409 194.073997 
L 855.345354 193.934369 
L 855.345354 193.803871 
L 854.490335 193.661031 
L 857.055391 193.528396 
L 863.04052 193.404371 
L 860.475465 193.269507 
L 851.92528 193.144136 
L 854.490335 193.014309 
L 852.780298 192.887569 
L 852.780298 192.765049 
L 864.750557 192.628593 
L 863.895539 192.491655 
L 851.070261 192.235585 
L 857.055391 192.101441 
L 857.910409 191.967496 
L 861.330483 191.83787 
L 853.635317 191.575906 
L 869.025649 191.187404 
L 858.765428 190.939822 
L 861.330483 190.81325 
L 860.475465 190.689819 
L 857.055391 190.570133 
L 863.04052 190.442773 
L 861.330483 190.317985 
L 862.185502 190.200166 
L 865.605576 190.079707 
L 860.475465 189.83784 
L 869.025649 189.709879 
L 857.055391 189.587607 
L 864.750557 189.329937 
L 869.880668 189.08828 
L 864.750557 188.963266 
L 864.750557 188.843359 
L 863.895539 188.724209 
L 861.330483 188.606105 
L 861.330483 188.482036 
L 857.055391 188.240299 
L 858.765428 188.123765 
L 862.185502 188.005319 
L 870.735686 187.898453 
L 865.605576 187.648635 
L 866.460594 187.412827 
L 863.895539 187.294672 
L 863.895539 186.924006 
L 856.200372 186.812583 
L 869.880668 186.571818 
L 864.750557 186.46179 
L 869.025649 186.230554 
L 869.025649 186.116435 
L 857.910409 185.766932 
L 871.590705 185.539494 
L 862.185502 185.428249 
L 874.15576 185.20326 
L 866.460594 184.972943 
L 866.460594 184.855297 
L 868.170631 184.744522 
L 868.170631 184.629557 
L 869.025649 184.520591 
L 863.895539 184.395812 
L 869.880668 184.286052 
L 863.895539 184.175179 
L 877.575834 183.961012 
L 859.620446 183.625525 
L 870.735686 183.520289 
L 862.185502 183.306679 
L 872.445723 183.09354 
L 865.605576 182.979805 
L 869.025649 182.862175 
L 863.04052 182.755093 
L 875.010779 182.644751 
L 874.15576 182.540386 
L 879.285871 182.423975 
L 866.460594 182.317033 
L 867.315612 182.205195 
L 864.750557 182.099188 
L 868.170631 181.994476 
L 861.330483 181.891061 
L 879.285871 181.451757 
L 862.185502 181.243676 
L 870.735686 181.135889 
L 869.025649 181.034931 
L 874.15576 180.929903 
L 870.735686 180.822039 
L 862.185502 180.724544 
L 869.880668 180.61783 
L 866.460594 180.511996 
L 868.170631 180.413922 
L 866.460594 180.308103 
L 863.04052 180.212523 
L 875.010779 180.105369 
L 859.620446 179.888287 
L 876.720816 179.770285 
L 871.590705 179.680255 
L 871.590705 179.680255 
" style="fill:none;stroke:#4161ff;stroke-linecap:square;stroke-opacity:0.196078;stroke-width:4;"/>
   </g>
   <g id="line2d_27">
    <path clip-path="url(#pe4436e2261)" d="M -1 517.673449 
L 49.917936 510.159232 
L 128.579637 490.29291 
L 175.605654 474.726435 
L 195.27108 461.647762 
L 263.672559 450.383536 
L 276.497836 440.65831 
L 273.932781 432.010214 
L 322.668835 424.247863 
L 341.479241 417.29075 
L 338.059167 410.851622 
L 356.014556 404.717415 
L 396.200425 399.233439 
L 399.620499 393.983184 
L 416.720868 389.16242 
L 403.040573 384.559256 
L 424.416035 380.266184 
L 439.806368 375.977676 
L 431.256183 372.0307 
L 449.211571 368.260097 
L 446.646516 364.677491 
L 444.936479 361.249443 
L 471.442052 358.109531 
L 485.977366 354.931074 
L 490.252459 351.978545 
L 485.122348 349.051354 
L 490.252459 346.272377 
L 505.642791 343.578303 
L 497.947625 340.834355 
L 515.903013 338.179378 
L 523.59818 335.735897 
L 523.59818 333.475968 
L 533.003383 331.319539 
L 537.278476 329.037859 
L 538.988512 326.891304 
L 544.973642 324.946668 
L 558.653938 322.812503 
L 550.958771 320.784052 
L 556.088882 318.883918 
L 569.769178 317.055204 
L 585.159511 315.246629 
L 579.174382 313.51278 
L 576.609326 311.745883 
L 581.739437 310.066961 
L 594.564714 308.392117 
L 592.854677 306.660588 
L 588.579585 305.20231 
L 596.274751 303.656722 
L 599.694825 302.041597 
L 603.114899 300.610559 
L 610.810066 299.129223 
L 629.620472 297.733853 
L 601.404862 294.89297 
L 622.780324 293.555688 
L 625.34538 292.261287 
L 638.170657 290.916093 
L 640.735713 289.705069 
L 640.735713 288.482513 
L 641.590731 287.241421 
L 655.271027 286.046889 
L 650.140916 284.92186 
L 655.271027 283.758971 
L 658.691101 282.592464 
L 648.430879 281.452647 
L 651.850953 280.33165 
L 670.66136 279.282886 
L 668.951323 278.266145 
L 681.7766 277.294239 
L 650.995935 276.206356 
L 664.67623 275.218292 
L 659.54612 274.207797 
L 670.66136 273.23042 
L 672.371397 272.291355 
L 686.051693 271.276326 
L 685.196674 270.373804 
L 663.821212 269.529901 
L 684.341656 268.621202 
L 689.471767 267.748897 
L 691.181804 266.854592 
L 700.587007 265.945326 
L 713.412284 265.043969 
L 703.152062 264.228506 
L 698.021952 263.397087 
L 709.137192 262.565073 
L 711.702247 261.753456 
L 707.427155 260.993592 
L 714.267303 260.18443 
L 704.862099 259.337204 
L 711.702247 258.566361 
L 709.99221 257.834932 
L 726.237562 257.080226 
L 730.512654 256.318141 
L 730.512654 255.563674 
L 721.107451 254.849127 
L 734.787747 254.105153 
L 724.527525 253.383767 
L 740.772876 252.686382 
L 737.352802 251.27068 
L 734.787747 250.583346 
L 744.19295 249.891316 
L 751.033098 249.252344 
L 734.787747 248.585635 
L 751.888116 247.975891 
L 750.178079 247.34701 
L 742.482913 246.754709 
L 753.598153 246.132178 
L 756.163209 245.500949 
L 745.047968 244.911448 
L 746.758005 244.312045 
L 751.888116 243.673725 
L 744.19295 243.063521 
L 764.713394 242.483257 
L 753.598153 241.887323 
L 766.423431 241.300895 
L 763.003357 240.700501 
L 765.568412 240.113959 
L 750.178079 239.570259 
L 756.163209 238.984412 
L 770.698523 238.395924 
L 766.423431 237.854633 
L 768.988486 237.29588 
L 763.858375 236.773282 
L 751.888116 236.24038 
L 776.683653 235.720848 
L 765.568412 234.664098 
L 778.39369 234.132323 
L 781.813764 233.639552 
L 776.683653 233.178646 
L 784.378819 232.664005 
L 797.204096 232.192228 
L 776.683653 231.717559 
L 785.233837 231.233594 
L 788.653911 230.760539 
L 791.218967 230.282657 
L 795.494059 229.78576 
L 794.639041 229.296711 
L 796.349078 228.819852 
L 786.943874 228.293793 
L 798.059115 227.833821 
L 806.6093 227.36424 
L 792.073985 226.437868 
L 797.204096 225.979291 
L 800.62417 225.544313 
L 791.218967 225.116037 
L 801.479189 224.67166 
L 796.349078 224.197758 
L 804.044244 223.787823 
L 814.304466 223.383133 
L 798.914133 222.983237 
L 808.319337 222.539995 
L 806.6093 222.141968 
L 801.479189 221.721142 
L 809.174355 221.273122 
L 796.349078 220.914178 
L 812.594429 220.07729 
L 816.869522 219.697463 
L 816.869522 219.276889 
L 821.144614 218.885597 
L 814.304466 218.501534 
L 811.739411 218.092698 
L 812.594429 217.682951 
L 819.434577 217.298964 
L 821.144614 216.898856 
L 813.449448 216.178723 
L 818.579559 215.785135 
L 817.72454 215.406726 
L 813.449448 215.037079 
L 819.434577 214.659233 
L 820.289596 214.282142 
L 834.82491 213.915149 
L 821.144614 213.552981 
L 825.419707 213.196927 
L 823.70967 212.824388 
L 832.259854 212.482445 
L 805.754281 212.15366 
L 831.404836 211.79477 
L 817.72454 211.438147 
L 836.534947 211.077097 
L 833.114873 210.745705 
L 833.969891 210.417768 
L 833.969891 210.071877 
L 834.82491 209.739241 
L 842.520076 209.406539 
L 825.419707 209.042228 
L 827.129743 208.695505 
L 824.564688 208.360629 
L 833.114873 208.026683 
L 827.984762 207.704844 
L 833.114873 207.387799 
L 849.360224 207.066305 
L 845.94015 206.7429 
L 845.085132 206.426436 
L 838.244984 206.120564 
L 827.984762 205.802467 
L 842.520076 205.485229 
L 842.520076 205.167763 
L 845.94015 204.876588 
L 848.505206 203.938174 
L 851.92528 203.627158 
L 851.070261 203.321416 
L 847.650187 203.026956 
L 837.389965 202.737782 
L 851.070261 202.430477 
L 840.810039 202.144066 
L 855.345354 201.834662 
L 845.94015 201.542362 
L 845.94015 201.245125 
L 848.505206 200.950559 
L 856.200372 200.685089 
L 846.795169 200.40787 
L 847.650187 200.125018 
L 844.230113 199.823966 
L 849.360224 199.513869 
L 857.910409 199.252096 
L 851.92528 198.971123 
L 842.520076 198.693504 
L 839.955021 198.405901 
L 850.215243 198.130991 
L 846.795169 197.847846 
L 842.520076 197.606738 
L 858.765428 197.327274 
L 851.92528 197.056464 
L 851.92528 196.786072 
L 858.765428 196.243642 
L 854.490335 195.967282 
L 858.765428 195.70964 
L 852.780298 195.455687 
L 861.330483 195.197708 
L 855.345354 194.672048 
L 859.620446 194.423927 
L 856.200372 194.168797 
L 862.185502 193.90947 
L 859.620446 193.652044 
L 863.04052 193.375961 
L 856.200372 193.109975 
L 867.315612 192.873373 
L 858.765428 192.631119 
L 863.04052 192.386827 
L 864.750557 192.12888 
L 857.910409 191.863697 
L 845.94015 191.607961 
L 870.735686 190.913611 
L 864.750557 190.419264 
L 857.055391 190.175573 
L 861.330483 189.930703 
L 860.475465 189.700338 
L 861.330483 189.43899 
L 861.330483 189.207406 
L 866.460594 188.988668 
L 863.895539 188.756918 
L 856.200372 188.529169 
L 866.460594 188.297854 
L 861.330483 188.061708 
L 861.330483 187.843799 
L 857.055391 187.593824 
L 868.170631 187.355922 
L 867.315612 187.137431 
L 869.880668 186.922858 
L 859.620446 186.699891 
L 861.330483 186.485598 
L 872.445723 186.245657 
L 865.605576 186.040269 
L 864.750557 185.821804 
L 873.300742 185.610312 
L 867.315612 185.381072 
L 870.735686 185.171525 
L 862.185502 184.959061 
L 863.895539 184.733819 
L 867.315612 184.49308 
L 851.070261 184.263273 
L 872.445723 184.048731 
L 868.170631 183.844703 
L 877.575834 183.636061 
L 860.475465 183.437957 
L 871.590705 183.225456 
L 863.895539 182.837953 
L 866.460594 182.64651 
L 875.865797 182.432332 
L 872.445723 182.218196 
L 872.445723 181.996125 
L 876.720816 181.788335 
L 874.15576 181.574662 
L 875.865797 181.364156 
L 866.460594 181.156112 
L 880.995908 180.743422 
L 876.720816 180.5406 
L 868.170631 180.350696 
L 867.315612 180.148277 
L 869.880668 179.943895 
L 868.170631 179.760288 
L 872.445723 179.365277 
L 866.460594 179.157139 
L 877.575834 178.968047 
L 869.880668 178.58716 
L 879.285871 178.367905 
L 869.025649 177.967292 
L 873.300742 177.787763 
L 882.705945 177.600526 
L 875.010779 177.422137 
L 873.300742 177.227788 
L 880.995908 177.03779 
L 875.865797 176.858155 
L 879.285871 176.673531 
L 875.010779 176.488054 
L 875.865797 176.305237 
L 871.590705 175.948635 
L 886.126019 175.765579 
L 877.575834 175.586115 
L 883.560964 175.38797 
L 877.575834 175.210336 
L 886.126019 175.032001 
L 874.15576 174.862909 
L 879.285871 174.670559 
L 874.15576 174.478098 
L 886.981038 174.305946 
L 880.995908 174.132071 
L 879.285871 173.958985 
L 882.705945 173.78111 
L 878.430853 173.612757 
L 878.430853 173.442813 
L 876.720816 173.2705 
L 873.300742 173.080093 
L 872.445723 172.905394 
L 885.271001 172.735334 
L 873.300742 172.549079 
L 876.720816 172.384718 
L 889.546093 172.056185 
L 880.995908 171.717243 
L 861.330483 171.538461 
L 880.995908 171.209157 
L 876.720816 171.051581 
L 886.981038 170.711014 
L 879.285871 170.537851 
L 878.430853 170.350384 
L 880.995908 170.182951 
L 880.995908 170.022343 
L 868.170631 169.869617 
L 875.010779 169.698519 
L 875.865797 169.553143 
L 888.691075 169.198659 
L 891.25613 169.037535 
L 887.836056 168.886092 
L 887.836056 168.728255 
L 888.691075 168.554493 
L 884.415982 168.403983 
L 886.981038 168.233817 
L 880.14089 168.077266 
L 889.546093 167.627928 
L 882.705945 167.460737 
L 886.126019 167.282907 
L 880.14089 167.132349 
L 879.285871 166.964904 
L 892.966167 166.511952 
L 885.271001 166.20549 
L 882.705945 166.046737 
L 886.981038 165.899612 
L 886.126019 165.749612 
L 873.300742 165.585178 
L 881.850927 165.294742 
L 875.865797 165.152186 
L 882.705945 164.995689 
L 881.850927 164.837992 
L 882.705945 164.681466 
L 885.271001 164.533404 
L 884.415982 164.387326 
L 892.966167 164.236334 
L 888.691075 164.101262 
L 879.285871 163.956518 
L 888.691075 163.806277 
L 887.836056 163.641407 
L 889.546093 163.475707 
L 877.575834 163.188103 
L 879.285871 163.042498 
L 885.271001 162.906077 
L 886.126019 162.770691 
L 886.126019 162.637466 
L 895.531223 162.36124 
L 887.836056 162.230138 
L 898.951297 162.08557 
L 890.401112 161.804655 
L 893.821186 161.653952 
L 891.25613 161.516309 
L 884.415982 161.374577 
L 887.836056 161.232964 
L 877.575834 161.081636 
L 889.546093 160.939624 
L 887.836056 160.792082 
L 892.111149 160.656669 
L 886.981038 160.397817 
L 887.836056 160.264737 
L 886.981038 160.124227 
L 879.285871 159.987905 
L 887.836056 159.726451 
L 894.676204 159.585439 
L 892.111149 159.442538 
L 900.661334 159.163581 
L 883.560964 158.895331 
L 893.821186 158.76668 
L 884.415982 158.638333 
L 892.966167 158.513221 
L 888.691075 158.242717 
L 885.271001 158.116346 
L 893.821186 157.854847 
L 895.531223 157.621482 
L 893.821186 157.494258 
L 886.126019 157.35026 
L 888.691075 157.224423 
L 881.850927 156.967977 
L 892.966167 156.840903 
L 890.401112 156.708364 
L 893.821186 156.578434 
L 889.546093 156.3173 
L 892.111149 156.085048 
L 878.430853 155.95912 
L 895.531223 155.714277 
L 890.401112 155.58829 
L 892.966167 155.466807 
L 888.691075 155.338855 
L 889.546093 155.213583 
L 889.546093 155.074388 
L 887.836056 154.947869 
L 892.966167 154.703717 
L 885.271001 154.600121 
L 899.806315 154.479972 
L 897.24126 154.354322 
L 897.24126 154.22785 
L 887.836056 154.098743 
L 889.546093 153.978961 
L 894.676204 153.866505 
L 892.966167 153.743062 
L 892.966167 153.626318 
L 886.126019 153.496856 
L 893.821186 153.266066 
L 891.25613 153.147601 
L 884.415982 153.035471 
L 896.386241 152.918401 
L 896.386241 152.806498 
L 897.24126 152.69771 
L 897.24126 152.572333 
L 889.546093 152.330281 
L 897.24126 152.216202 
L 896.386241 152.094466 
L 897.24126 151.97088 
L 901.516352 151.857067 
L 888.691075 151.626111 
L 889.546093 151.509849 
L 898.096278 151.281258 
L 895.531223 151.059229 
L 887.836056 150.939195 
L 899.806315 150.827821 
L 893.821186 150.718946 
L 893.821186 150.601877 
L 897.24126 150.494199 
L 888.691075 150.385912 
L 900.661334 150.168834 
L 897.24126 150.060949 
L 899.806315 149.943441 
L 892.966167 149.836899 
L 893.821186 149.724658 
L 896.386241 149.598353 
L 901.516352 149.49407 
L 896.386241 149.387725 
L 896.386241 149.275609 
L 898.096278 149.170511 
L 893.821186 149.06939 
L 894.676204 148.97229 
L 900.661334 148.74855 
L 892.111149 148.540073 
L 891.25613 148.433825 
L 898.096278 148.340831 
L 890.401112 148.223138 
L 891.25613 148.110081 
L 904.081408 147.997731 
L 892.966167 147.80066 
L 901.516352 147.578293 
L 895.531223 147.46463 
L 896.386241 147.365572 
L 889.546093 147.26593 
L 895.531223 147.05317 
L 893.821186 146.945739 
L 895.531223 146.842315 
L 893.821186 146.737064 
L 898.951297 146.638159 
L 896.386241 146.53305 
L 886.981038 146.428367 
L 898.096278 146.325297 
L 893.821186 146.22688 
L 903.226389 146.124803 
L 896.386241 146.024658 
L 900.661334 145.927022 
L 892.966167 145.721653 
L 897.24126 145.612708 
L 888.691075 145.516812 
L 898.096278 145.41667 
L 892.966167 145.323241 
L 892.966167 145.209903 
L 893.821186 145.112014 
L 897.24126 145.011665 
L 892.966167 144.915198 
L 900.661334 144.816549 
L 899.806315 144.723143 
L 892.966167 144.620984 
L 893.821186 144.521247 
L 899.806315 144.429208 
L 886.126019 144.247312 
L 898.951297 144.153336 
L 897.24126 144.05941 
L 896.386241 143.96124 
L 898.096278 143.855044 
L 883.560964 143.57152 
L 893.821186 143.373961 
L 892.966167 143.278406 
L 899.806315 143.181464 
L 896.386241 143.003574 
L 900.661334 142.912565 
L 893.821186 142.816837 
L 895.531223 142.723289 
L 900.661334 142.618828 
L 890.401112 142.434759 
L 899.806315 142.254044 
L 898.096278 142.158667 
L 893.821186 141.974389 
L 892.111149 141.877249 
L 906.646463 141.785595 
L 892.966167 141.605861 
L 902.371371 141.422426 
L 892.966167 141.333944 
L 895.531223 141.239216 
L 904.081408 141.137622 
L 903.226389 141.059315 
" style="fill:none;stroke:#4161ff;stroke-linecap:square;stroke-opacity:0.392157;stroke-width:4;"/>
   </g>
   <g id="line2d_28">
    <path clip-path="url(#pe4436e2261)" d="M -1 482.727125 
L 211.516431 434.873722 
L 317.538724 401.58182 
L 314.11865 378.031037 
L 411.590758 360.0139 
L 443.226442 345.932594 
L 465.456922 333.608265 
L 524.453198 323.342231 
L 526.163235 314.598998 
L 519.323087 307.088911 
L 604.824936 300.251786 
L 613.375121 294.389108 
L 638.170657 288.80248 
L 641.590731 283.649857 
L 692.891841 279.132029 
L 656.126046 274.704797 
L 678.356526 270.71313 
L 701.442026 266.792541 
L 698.021952 263.152282 
L 703.152062 259.550812 
L 717.687377 256.16752 
L 718.542395 253.081753 
L 714.267303 250.123718 
L 722.817488 247.195008 
L 731.367673 244.747998 
L 755.30819 242.152754 
L 734.787747 239.806302 
L 791.218967 237.508276 
L 756.163209 235.348556 
L 767.278449 233.16556 
L 764.713394 230.839844 
L 786.943874 228.690568 
L 800.62417 226.761901 
L 785.233837 224.983865 
L 782.668782 223.220932 
L 787.798893 221.337382 
L 789.50893 219.701873 
L 827.984762 218.190922 
L 816.869522 216.584591 
L 816.869522 215.007275 
L 811.739411 213.474968 
L 838.244984 212.079575 
L 812.594429 210.646855 
L 807.464318 209.151748 
L 821.999633 207.744017 
L 823.70967 206.412498 
L 811.739411 205.030791 
L 860.475465 203.561584 
L 845.085132 202.507953 
L 861.330483 201.315053 
L 847.650187 200.054317 
L 844.230113 198.998658 
L 834.82491 197.834108 
L 816.869522 196.729825 
L 845.94015 195.564652 
L 841.665058 194.414242 
L 840.810039 193.336662 
L 841.665058 192.279891 
L 866.460594 191.12481 
L 857.055391 190.158635 
L 857.055391 189.251917 
L 862.185502 188.293056 
L 882.705945 187.321784 
L 845.94015 186.499333 
L 863.04052 185.492184 
L 861.330483 184.534839 
L 875.010779 183.636937 
L 852.780298 182.697206 
L 869.025649 181.833275 
L 874.15576 181.020917 
L 864.750557 180.244893 
L 861.330483 179.329574 
L 881.850927 178.566163 
L 849.360224 177.764989 
L 883.560964 177.051063 
L 876.720816 176.300837 
L 872.445723 175.466583 
L 864.750557 174.806997 
L 860.475465 174.061746 
L 880.14089 173.295602 
L 862.185502 172.571212 
L 837.389965 171.789209 
L 878.430853 171.059577 
L 888.691075 170.323854 
L 893.821186 169.699731 
L 875.865797 169.003722 
L 872.445723 168.31901 
L 889.546093 167.660021 
L 886.126019 167.063905 
L 878.430853 166.393973 
L 867.315612 165.720268 
L 883.560964 165.068764 
L 875.010779 164.512253 
L 885.271001 163.911389 
L 880.14089 163.276665 
L 872.445723 162.67756 
L 877.575834 162.076876 
L 886.981038 161.502518 
L 903.226389 160.957723 
L 882.705945 160.392303 
L 889.546093 159.793821 
L 894.676204 159.219051 
L 876.720816 158.686037 
L 885.271001 158.109928 
L 887.836056 157.566547 
L 884.415982 157.014836 
L 886.126019 156.510293 
L 855.345354 156.008306 
L 880.995908 155.546824 
L 870.735686 155.051233 
L 892.966167 154.530891 
L 879.285871 154.07993 
L 889.546093 153.580916 
L 881.850927 153.070719 
L 892.111149 152.521096 
L 877.575834 152.03356 
L 889.546093 151.550103 
L 885.271001 151.052412 
L 895.531223 150.592214 
L 879.285871 150.103825 
L 899.806315 149.718773 
L 895.531223 149.239967 
L 898.096278 148.790571 
L 880.14089 148.370821 
L 879.285871 147.905494 
L 896.386241 147.024007 
L 884.415982 146.59564 
L 898.096278 146.159077 
L 873.300742 145.709318 
L 872.445723 145.229929 
L 887.836056 144.829522 
L 886.981038 144.509418 
L 886.981038 144.086356 
L 880.14089 143.704518 
L 899.806315 143.334767 
L 869.025649 142.97245 
L 886.126019 142.590441 
L 892.111149 142.230431 
L 892.111149 141.826999 
L 893.821186 141.390518 
L 884.415982 140.996053 
L 882.705945 140.526643 
L 885.271001 140.151877 
L 899.806315 139.823009 
L 897.24126 139.459796 
L 875.865797 139.158187 
L 893.821186 138.770005 
L 884.415982 138.436327 
L 892.966167 138.073629 
L 891.25613 137.714724 
L 872.445723 137.320197 
L 901.516352 137.011153 
L 892.966167 136.674038 
L 878.430853 136.291763 
L 902.371371 135.931922 
L 898.096278 135.673134 
L 883.560964 135.389529 
L 892.111149 135.035825 
L 892.111149 134.766183 
L 888.691075 134.47365 
L 904.936426 134.083612 
L 898.096278 133.801337 
L 879.285871 133.445191 
L 907.501482 133.166081 
L 893.821186 132.831873 
L 900.661334 132.50989 
L 891.25613 132.156177 
L 891.25613 131.892239 
L 886.126019 131.594628 
L 896.386241 131.318801 
L 895.531223 131.062719 
L 904.936426 130.77255 
L 897.24126 130.462868 
L 905.791445 130.181438 
L 905.791445 129.90797 
L 904.936426 129.634878 
L 908.3565 129.378041 
L 901.516352 129.125839 
L 903.226389 128.820232 
L 916.906685 128.573891 
L 892.966167 128.10816 
L 904.081408 127.843646 
L 897.24126 127.561232 
L 898.951297 127.280777 
L 898.951297 127.001743 
L 903.226389 126.75311 
L 887.836056 126.460494 
L 898.096278 126.21624 
L 886.981038 125.969414 
L 900.661334 125.676648 
L 895.531223 125.21222 
L 873.300742 125.003593 
L 892.966167 124.762805 
L 904.936426 124.27675 
L 901.516352 124.054342 
L 904.936426 123.831685 
L 910.921555 123.61183 
L 887.836056 123.354549 
L 915.196648 122.860697 
L 892.111149 122.663109 
L 908.3565 122.448866 
L 891.25613 122.250666 
L 896.386241 122.0105 
L 907.501482 121.818524 
L 890.401112 121.596211 
L 891.25613 121.368498 
L 903.226389 120.915426 
L 899.806315 120.71508 
L 901.516352 120.471829 
L 895.531223 120.250114 
L 898.951297 120.08596 
L 914.341629 119.900113 
L 904.936426 119.740605 
L 905.791445 119.572639 
L 895.531223 119.395594 
L 892.966167 119.168342 
L 893.821186 118.940665 
L 904.081408 118.780714 
L 880.14089 118.37359 
L 893.821186 117.950329 
L 901.516352 117.648261 
L 901.516352 117.483577 
L 899.806315 117.288901 
L 894.676204 117.109636 
L 898.951297 116.907868 
L 887.836056 116.730591 
L 886.126019 116.553351 
L 900.661334 116.200564 
L 893.821186 116.00639 
L 898.951297 115.654002 
L 897.24126 115.516423 
L 909.211518 115.203235 
L 899.806315 115.037371 
L 912.631592 114.856301 
L 898.951297 114.698772 
L 898.951297 114.549157 
L 900.661334 114.372127 
L 897.24126 114.046119 
L 896.386241 113.874536 
L 894.676204 113.73569 
L 898.096278 113.615484 
L 896.386241 113.481336 
L 905.791445 113.337581 
L 899.806315 113.048013 
L 900.661334 112.884872 
L 891.25613 112.70366 
L 902.371371 112.564211 
L 900.661334 112.418324 
L 895.531223 112.27496 
L 902.371371 112.136886 
L 899.806315 112.015873 
L 901.516352 111.898736 
L 901.516352 111.771358 
L 885.271001 111.489141 
L 904.081408 111.337792 
L 898.096278 111.202484 
L 901.516352 111.062799 
L 909.211518 110.936841 
L 897.24126 110.798334 
L 898.951297 110.654994 
L 888.691075 110.49644 
L 898.096278 110.391993 
L 892.111149 110.166592 
L 903.226389 110.060019 
L 898.096278 109.954162 
L 900.661334 109.834811 
L 893.821186 109.705586 
L 893.821186 109.552757 
L 884.415982 109.395697 
L 897.24126 109.143792 
L 903.226389 109.019215 
L 901.516352 108.930478 
L 906.646463 108.828402 
L 904.081408 108.736265 
L 906.646463 108.638704 
L 902.371371 108.434489 
L 903.226389 108.310164 
L 883.560964 108.075266 
L 900.661334 107.828439 
L 900.661334 107.708909 
L 904.936426 107.624808 
L 900.661334 107.53113 
L 904.936426 107.317552 
L 892.966167 107.120361 
L 902.371371 107.016254 
L 894.676204 106.785319 
L 893.821186 106.673071 
L 914.341629 106.38836 
L 894.676204 106.117157 
L 905.791445 106.032285 
L 895.531223 105.947278 
L 901.516352 105.871499 
L 900.661334 105.773216 
L 899.806315 105.68978 
L 889.546093 105.587299 
L 904.936426 105.490049 
L 898.951297 105.374298 
L 885.271001 105.296642 
L 904.936426 104.967334 
L 903.226389 104.883923 
L 898.096278 104.796972 
L 904.936426 104.704541 
L 897.24126 104.533987 
L 902.371371 104.428561 
L 895.531223 104.343834 
L 902.371371 104.26643 
L 898.951297 104.194848 
L 895.531223 104.116526 
L 904.936426 103.964584 
L 903.226389 103.889724 
L 895.531223 103.718382 
L 907.501482 103.639698 
L 897.24126 103.482187 
L 904.081408 103.390653 
L 898.096278 103.266556 
L 892.111149 103.122976 
L 904.081408 103.057093 
L 901.516352 102.983661 
L 909.211518 102.909457 
L 894.676204 102.672662 
L 902.371371 102.449654 
L 896.386241 102.327798 
L 899.806315 102.273871 
L 887.836056 102.069512 
L 898.951297 102.01042 
L 894.676204 101.942643 
L 894.676204 101.808979 
L 903.226389 101.673201 
L 896.386241 101.618665 
L 899.806315 101.56526 
L 901.516352 101.508377 
L 894.676204 101.377774 
L 889.546093 101.255077 
L 905.791445 100.990564 
L 894.676204 100.935877 
L 898.951297 100.875806 
L 898.951297 100.818862 
L 886.126019 100.715461 
L 898.096278 100.552286 
L 889.546093 100.493254 
L 908.3565 100.298609 
L 894.676204 100.188379 
L 897.24126 100.147481 
L 889.546093 99.981754 
L 891.25613 99.919861 
L 902.371371 99.720868 
L 904.081408 99.672152 
L 893.821186 99.386532 
L 893.821186 99.334826 
L 888.691075 99.277885 
L 900.661334 99.131708 
L 890.401112 99.030978 
L 896.386241 98.93947 
L 893.821186 98.891544 
L 889.546093 98.753793 
L 892.111149 98.666677 
L 890.401112 98.624241 
L 898.096278 98.575775 
L 885.271001 98.527158 
L 900.661334 98.48296 
L 886.981038 98.438945 
L 899.806315 98.313476 
L 886.981038 98.223068 
L 887.836056 98.171828 
L 896.386241 98.124083 
L 895.531223 98.034959 
L 898.096278 97.918719 
L 891.25613 97.79215 
L 895.531223 97.742056 
L 893.821186 97.662933 
L 893.821186 97.622907 
L 899.806315 97.573297 
L 892.966167 97.531596 
L 890.401112 97.490065 
L 891.25613 97.455925 
L 886.981038 97.386335 
L 896.386241 97.307862 
L 890.401112 97.26752 
L 893.821186 97.186457 
L 890.401112 97.146428 
L 891.25613 97.1059 
L 897.24126 97.018845 
L 891.25613 96.950702 
L 892.111149 96.881034 
L 892.966167 96.841969 
L 897.24126 96.802642 
L 888.691075 96.765655 
L 892.966167 96.689247 
L 892.111149 96.654664 
L 890.401112 96.572122 
L 898.951297 96.540799 
L 887.836056 96.401448 
L 896.386241 96.263364 
L 891.25613 96.150319 
L 898.096278 96.190265 
L 893.821186 96.11736 
L 897.24126 96.081505 
L 895.531223 96.01271 
L 889.546093 95.979472 
L 893.821186 95.91345 
L 891.25613 95.81389 
L 895.531223 95.741702 
L 891.25613 95.709529 
L 897.24126 95.651394 
L 896.386241 95.593736 
L 889.546093 95.492833 
L 892.111149 95.457402 
L 892.966167 95.427697 
L 890.401112 95.354876 
L 892.966167 95.326707 
L 895.531223 95.297246 
L 891.25613 95.269595 
L 888.691075 95.207163 
L 891.25613 95.178265 
L 892.966167 95.144716 
L 889.546093 95.111368 
L 890.401112 95.082998 
L 887.836056 94.980484 
L 894.676204 94.834574 
L 893.821186 94.807345 
L 885.271001 94.749632 
L 890.401112 94.687759 
L 892.966167 94.624237 
L 887.836056 94.599046 
L 890.401112 94.51335 
L 895.531223 94.424348 
L 894.676204 94.362762 
L 889.546093 94.299624 
L 890.401112 94.248637 
L 897.24126 94.163157 
L 892.966167 94.135429 
L 892.966167 94.081168 
L 891.25613 93.968934 
L 893.821186 93.942236 
L 890.401112 93.894326 
L 890.401112 93.865931 
L 891.25613 93.839444 
L 897.24126 93.81124 
L 886.981038 93.784515 
L 880.14089 93.756271 
L 890.401112 93.701739 
L 895.531223 93.597986 
L 886.981038 93.574455 
L 892.111149 93.498973 
L 890.401112 93.469874 
L 892.966167 93.446584 
L 891.25613 93.393689 
L 891.25613 93.367713 
L 892.966167 93.290698 
L 890.401112 93.263896 
L 893.821186 93.240947 
L 897.24126 93.21744 
L 891.25613 93.193397 
L 894.676204 93.142731 
L 889.546093 93.064559 
L 893.821186 93.039996 
" style="fill:none;stroke:#4161ff;stroke-linecap:square;stroke-opacity:0.588235;stroke-width:4;"/>
   </g>
   <g id="line2d_29">
    <path clip-path="url(#pe4436e2261)" d="M 8.02203 435.834525 
L 298.728317 380.245474 
L 338.059167 349.43105 
L 377.390018 328.035297 
L 479.992237 311.652382 
L 524.453198 299.258859 
L 586.869548 288.283544 
L 611.665084 279.151456 
L 674.936452 271.273793 
L 616.795195 264.656321 
L 692.036822 258.584153 
L 696.311915 253.305105 
L 743.337932 248.504472 
L 745.902987 243.933588 
L 749.323061 240.067271 
L 733.07771 236.039677 
L 757.873246 232.570517 
L 785.233837 229.044746 
L 736.497784 225.689325 
L 795.494059 222.358272 
L 791.218967 219.299227 
L 817.72454 216.407844 
L 752.743135 213.679628 
L 777.538671 211.048292 
L 804.044244 208.948411 
L 819.434577 206.684817 
L 792.073985 204.51601 
L 845.085132 202.432268 
L 806.6093 200.521357 
L 816.869522 198.50318 
L 816.869522 196.331458 
L 844.230113 194.305485 
L 835.679928 192.440879 
L 829.694799 190.816792 
L 822.854651 189.106014 
L 822.854651 187.274218 
L 834.82491 185.804062 
L 871.590705 184.422368 
L 848.505206 182.909019 
L 858.765428 181.46207 
L 839.955021 180.12797 
L 851.92528 178.803049 
L 833.114873 177.380905 
L 851.92528 175.92518 
L 851.070261 174.58119 
L 843.375095 173.289762 
L 842.520076 171.968446 
L 869.880668 170.532384 
L 851.92528 169.615619 
L 873.300742 168.547766 
L 882.705945 167.407901 
L 878.430853 166.414638 
L 857.055391 165.37902 
L 824.564688 164.313661 
L 875.010779 163.175492 
L 859.620446 161.992247 
L 857.055391 160.933108 
L 873.300742 159.929658 
L 880.14089 158.830824 
L 870.735686 157.868746 
L 874.15576 156.987991 
L 872.445723 156.086438 
L 879.285871 155.218706 
L 852.780298 154.487349 
L 863.895539 153.59731 
L 866.460594 152.736017 
L 875.865797 151.894814 
L 863.895539 151.015779 
L 853.635317 150.13609 
L 873.300742 149.269401 
L 880.14089 148.481564 
L 865.605576 147.583377 
L 898.951297 146.9099 
L 874.15576 146.151507 
L 898.096278 145.486133 
L 869.025649 144.77947 
L 892.966167 144.008967 
L 860.475465 143.423281 
L 877.575834 142.746473 
L 877.575834 142.026428 
L 850.215243 141.337998 
L 870.735686 140.574194 
L 871.590705 139.872367 
L 850.215243 139.134984 
L 884.415982 138.563659 
L 845.94015 137.944974 
L 882.705945 137.355738 
L 874.15576 136.715244 
L 892.111149 136.141828 
L 866.460594 135.522825 
L 855.345354 134.904683 
L 879.285871 134.300197 
L 881.850927 133.792642 
L 866.460594 133.206315 
L 870.735686 132.530765 
L 885.271001 131.934558 
L 869.880668 131.436855 
L 885.271001 130.948013 
L 889.546093 130.452261 
L 873.300742 129.90964 
L 883.560964 129.325796 
L 875.865797 128.809927 
L 872.445723 128.297382 
L 868.170631 127.787397 
L 888.691075 127.247233 
L 875.010779 126.708336 
L 888.691075 126.203303 
L 869.025649 125.711899 
L 870.735686 125.26199 
L 867.315612 124.805318 
L 900.661334 124.369683 
L 891.25613 123.974101 
L 885.271001 123.525008 
L 889.546093 123.052695 
L 870.735686 122.548107 
L 885.271001 122.114928 
L 878.430853 121.66125 
L 877.575834 121.148105 
L 884.415982 120.688889 
L 869.880668 120.214444 
L 893.821186 119.873834 
L 881.850927 119.499182 
L 885.271001 119.08436 
L 873.300742 118.74343 
L 885.271001 118.313059 
L 892.966167 117.896384 
L 889.546093 117.489812 
L 879.285871 117.144727 
L 886.981038 116.72571 
L 873.300742 116.288963 
L 882.705945 115.868849 
L 902.371371 115.515473 
L 889.546093 115.248204 
L 882.705945 114.907528 
L 872.445723 114.603962 
L 889.546093 114.258963 
L 864.750557 113.96677 
L 906.646463 113.649272 
L 875.010779 113.334279 
L 893.821186 112.521907 
L 891.25613 112.127703 
L 883.560964 111.66679 
L 892.111149 111.357109 
L 894.676204 111.091828 
L 903.226389 110.81738 
L 892.966167 110.5777 
L 883.560964 110.212999 
L 900.661334 109.925617 
L 905.791445 109.624038 
L 895.531223 109.315661 
L 896.386241 108.986031 
L 906.646463 108.76477 
L 885.271001 108.486855 
L 884.415982 108.20974 
L 895.531223 107.906467 
L 892.966167 107.698599 
L 913.486611 107.455212 
L 897.24126 106.963452 
L 896.386241 106.704258 
L 897.24126 106.410556 
L 890.401112 106.165726 
L 895.531223 105.893706 
L 894.676204 105.639059 
L 886.981038 105.378934 
L 881.850927 105.045646 
L 898.951297 104.73416 
L 886.126019 104.507897 
L 885.271001 104.275651 
L 886.126019 104.085339 
L 888.691075 103.88072 
L 902.371371 103.677043 
L 886.981038 103.405739 
L 903.226389 103.198612 
L 901.516352 102.978742 
L 890.401112 102.763338 
L 887.836056 102.571148 
L 912.631592 102.086502 
L 892.966167 101.879729 
L 899.806315 101.716448 
L 891.25613 101.548982 
L 901.516352 101.345586 
L 904.936426 101.119882 
L 898.951297 100.910977 
L 902.371371 100.713819 
L 899.806315 100.519135 
L 909.211518 100.310327 
L 905.791445 100.126148 
L 908.3565 99.912428 
L 891.25613 99.692721 
L 897.24126 99.526835 
L 897.24126 99.370556 
L 876.720816 99.230573 
L 889.546093 99.040996 
L 887.836056 98.847582 
L 893.821186 98.484824 
L 903.226389 98.152775 
L 874.15576 97.956267 
L 903.226389 97.804565 
L 911.776574 97.622764 
L 885.271001 97.199788 
L 903.226389 97.051267 
L 902.371371 96.91171 
L 888.691075 96.779045 
L 898.096278 96.451339 
L 898.951297 96.267411 
L 890.401112 96.076232 
L 910.066537 95.713499 
L 906.646463 95.585349 
L 908.3565 95.470553 
L 905.791445 95.286542 
L 910.066537 95.176791 
L 908.3565 95.032046 
L 886.126019 94.87875 
L 902.371371 94.780806 
L 903.226389 94.650509 
L 857.910409 94.32389 
L 904.081408 94.09423 
L 914.341629 93.935372 
L 913.486611 93.824971 
L 908.3565 93.737963 
L 914.341629 93.642501 
L 898.096278 93.537589 
L 907.501482 93.417539 
L 906.646463 93.295798 
L 915.196648 93.18951 
L 902.371371 92.978291 
L 907.501482 92.894021 
L 905.791445 92.821653 
L 905.791445 92.749081 
L 906.646463 92.672775 
L 902.371371 92.584201 
L 905.791445 92.479658 
L 914.341629 92.401263 
L 910.921555 92.335964 
L 918.616722 92.229447 
L 908.3565 92.058958 
L 914.341629 91.970649 
L 903.226389 91.81165 
L 917.761703 91.625466 
L 922.891814 91.55388 
L 910.066537 91.396434 
L 908.3565 91.335041 
L 919.47174 91.205414 
L 917.761703 91.158668 
L 914.341629 91.064641 
L 919.47174 90.966119 
L 906.646463 90.76669 
L 918.616722 90.608461 
L 912.631592 90.521054 
L 905.791445 90.481215 
L 921.181777 90.438192 
L 903.226389 90.39736 
L 915.196648 90.35499 
L 912.631592 90.309528 
L 916.906685 90.256118 
L 905.791445 90.153957 
L 918.616722 89.989517 
L 909.211518 89.952903 
L 912.631592 89.878166 
L 915.196648 89.793385 
L 914.341629 89.738336 
L 904.081408 89.60762 
L 921.181777 89.46549 
L 920.326759 89.432904 
L 910.921555 89.361728 
L 921.181777 89.329654 
L 913.486611 89.296963 
L 904.081408 89.208572 
L 910.921555 89.169088 
L 905.791445 89.126491 
L 913.486611 89.096669 
L 910.066537 89.059824 
L 915.196648 88.966744 
L 908.3565 88.993976 
L 914.341629 88.936446 
L 910.921555 88.907819 
L 916.051666 88.842218 
L 918.616722 88.774149 
L 909.211518 88.55109 
L 918.616722 88.486119 
L 916.906685 88.425014 
L 910.921555 88.391422 
L 919.47174 88.359388 
L 913.486611 88.332807 
L 916.906685 88.305005 
L 916.051666 88.251315 
L 911.776574 88.19601 
L 916.051666 88.167029 
L 917.761703 88.13482 
L 913.486611 88.075744 
L 922.036796 88.046555 
L 911.776574 87.989238 
L 910.066537 87.967472 
L 913.486611 87.940204 
L 916.051666 87.805964 
L 913.486611 87.776406 
L 916.906685 87.749853 
L 921.181777 87.721169 
L 917.761703 87.669086 
L 912.631592 87.597255 
L 920.326759 87.577991 
L 910.921555 87.497939 
L 919.47174 87.323376 
L 916.051666 87.226076 
L 919.47174 87.203596 
L 915.196648 87.177754 
L 918.616722 87.10926 
L 912.631592 87.085688 
L 916.906685 86.998938 
L 914.341629 86.934456 
L 921.181777 86.911025 
L 910.066537 86.864385 
L 915.196648 86.840144 
L 914.341629 86.775913 
L 917.761703 86.758248 
L 912.631592 86.690435 
L 911.776574 86.642876 
L 919.47174 86.521985 
L 911.776574 86.503367 
L 917.761703 86.419772 
L 918.616722 86.378611 
L 910.066537 86.336919 
L 916.051666 86.257223 
L 919.47174 86.200486 
L 913.486611 86.181012 
L 909.211518 86.141348 
L 913.486611 86.101669 
L 917.761703 86.061881 
L 915.196648 86.006834 
L 910.066537 85.928903 
L 912.631592 85.87113 
L 918.616722 85.820054 
L 916.051666 85.783419 
L 908.3565 85.742551 
L 913.486611 85.690974 
L 918.616722 85.671649 
L 911.776574 85.653763 
L 913.486611 85.587736 
L 922.036796 85.536124 
L 908.3565 85.46343 
L 917.761703 85.310346 
L 909.211518 85.208358 
L 917.761703 85.129922 
L 908.3565 85.159939 
L 910.921555 85.095955 
L 918.616722 85.047092 
L 915.196648 84.981817 
L 909.211518 84.887567 
L 915.196648 84.871674 
L 918.616722 84.856405 
L 914.341629 84.824336 
L 916.051666 84.768096 
L 907.501482 84.71963 
L 912.631592 84.673957 
L 917.761703 84.65659 
L 910.921555 84.642734 
L 911.776574 84.58445 
L 909.211518 84.555255 
L 912.631592 84.510357 
L 910.921555 84.494661 
L 916.051666 84.422383 
L 906.646463 84.46634 
L 910.921555 84.406577 
L 907.501482 84.393738 
L 912.631592 84.353124 
L 910.921555 84.296008 
L 915.196648 84.169434 
L 909.211518 84.268095 
L 913.486611 84.152222 
L 913.486611 84.140356 
L 910.066537 84.086194 
L 916.906685 84.060084 
L 914.341629 84.033874 
L 910.921555 83.955172 
L 914.341629 83.940873 
L 916.906685 83.928747 
L 906.646463 83.901115 
L 912.631592 83.848548 
L 908.3565 83.835173 
L 913.486611 83.784653 
L 910.066537 83.73384 
L 910.921555 83.707353 
L 907.501482 83.681329 
L 916.051666 83.668067 
L 909.211518 83.569416 
L 914.341629 83.530872 
L 914.341629 83.530872 
" style="fill:none;stroke:#4161ff;stroke-linecap:square;stroke-opacity:0.784314;stroke-width:4;"/>
   </g>
   <g id="line2d_30">
    <path clip-path="url(#pe4436e2261)" d="M 156.795248 333.275667 
L 251.7023 288.102241 
L 400.475517 263.937358 
L 300.438354 246.182593 
L 598.839807 232.652205 
L 480.847255 222.213454 
L 637.315639 213.114954 
L 532.148365 205.019507 
L 715.97734 198.753258 
L 678.356526 192.545284 
L 680.921582 187.106754 
L 597.12977 182.119471 
L 613.375121 177.267133 
L 674.936452 172.532174 
L 668.951323 168.813035 
L 673.226415 165.055396 
L 631.330509 161.75892 
L 755.30819 158.370163 
L 686.906711 155.49844 
L 751.888116 152.429869 
L 694.601878 149.298179 
L 749.323061 146.560113 
L 643.300768 143.85496 
L 596.274751 141.390641 
L 792.073985 139.183579 
L 752.743135 136.773501 
L 653.56099 134.557687 
L 777.538671 132.705157 
L 709.137192 130.700626 
L 733.932728 128.575062 
L 669.806341 126.276838 
L 759.583283 124.185916 
L 713.412284 122.382714 
L 748.468042 120.68512 
L 725.382543 119.042109 
L 796.349078 117.328095 
L 792.073985 115.95401 
L 798.914133 114.584079 
L 758.728264 113.044879 
L 752.743135 111.417843 
L 776.683653 110.076927 
L 773.263579 108.742214 
L 771.553542 107.360453 
L 713.412284 105.932944 
L 768.133468 104.622697 
L 783.523801 103.203444 
L 750.178079 100.280158 
L 790.363948 99.259529 
L 791.218967 98.249265 
L 741.627895 97.16292 
L 745.047968 96.155938 
L 787.798893 94.969619 
L 739.062839 94.025191 
L 816.014503 92.962026 
L 812.594429 91.748424 
L 767.278449 90.585322 
L 780.103727 89.426569 
L 717.687377 88.214769 
L 656.981064 87.250451 
L 758.728264 86.306709 
L 766.423431 85.266943 
L 757.018227 84.309055 
L 741.627895 83.440425 
L 810.029374 82.538314 
L 788.653911 81.639799 
L 780.958745 80.71853 
L 705.717118 79.684557 
L 749.323061 78.710507 
L 762.148338 77.799875 
L 736.497784 76.981705 
L 813.449448 75.374233 
L 765.568412 74.611252 
L 786.943874 73.842071 
L 786.943874 73.032838 
L 784.378819 72.238052 
L 778.39369 71.573676 
L 720.252432 70.81615 
L 826.274725 70.049734 
L 787.798893 69.216431 
L 709.137192 68.42735 
L 783.523801 67.809047 
L 726.237562 67.090882 
L 814.304466 66.548622 
L 775.828634 65.892382 
L 711.702247 65.29381 
L 753.598153 64.694376 
L 779.248708 64.091737 
L 826.274725 63.451699 
L 743.337932 62.753013 
L 772.40856 62.036907 
L 818.579559 61.454484 
L 792.929004 60.764822 
L 786.943874 60.152046 
L 834.82491 59.43565 
L 841.665058 58.888419 
L 762.148338 58.337891 
L 805.754281 57.783992 
L 791.218967 57.163166 
L 832.259854 56.474261 
L 806.6093 55.885865 
L 704.007081 55.318378 
L 760.438301 54.704347 
L 731.367673 54.02599 
L 810.029374 53.345535 
L 794.639041 52.768976 
L 767.278449 52.255004 
L 761.29332 51.792194 
L 764.713394 51.366163 
L 812.594429 50.911365 
L 808.319337 50.412344 
L 778.39369 49.93852 
L 833.969891 49.410074 
L 828.83978 48.902309 
L 794.639041 48.259305 
L 774.118597 47.656616 
L 762.148338 47.046338 
L 781.813764 46.533365 
L 813.449448 46.04234 
L 810.884392 45.58517 
L 818.579559 45.115282 
L 834.82491 44.650589 
L 778.39369 44.14528 
L 805.754281 43.690457 
L 810.884392 43.154564 
L 780.103727 42.630116 
L 793.784022 42.081152 
L 803.189226 41.583706 
L 808.319337 41.073764 
L 799.769152 40.527915 
L 799.769152 40.088587 
L 808.319337 39.731477 
L 795.494059 39.339054 
L 796.349078 39.003027 
L 824.564688 38.612251 
L 788.653911 38.1897 
L 813.449448 37.75086 
L 759.583283 37.364987 
L 760.438301 36.963684 
L 791.218967 36.46523 
L 778.39369 35.993395 
L 774.118597 35.537688 
L 788.653911 35.176373 
L 823.70967 34.776949 
L 734.787747 34.398513 
L 752.743135 34.049509 
L 816.869522 33.547957 
L 765.568412 33.13363 
L 808.319337 32.747813 
L 837.389965 32.320605 
L 784.378819 31.866076 
L 800.62417 31.514576 
L 797.204096 31.134144 
L 802.334207 30.681334 
L 832.259854 30.34022 
L 788.653911 29.645902 
L 775.828634 29.256391 
L 788.653911 28.966165 
L 784.378819 28.653719 
L 776.683653 28.27785 
L 780.103727 27.94585 
L 814.304466 27.535614 
L 786.943874 27.162103 
L 791.218967 26.79811 
L 775.828634 26.432197 
L 845.085132 25.975952 
L 812.594429 25.715479 
L 780.958745 25.313257 
L 780.103727 24.979274 
L 773.263579 24.70407 
L 839.100002 24.398254 
L 777.538671 24.029725 
L 801.479189 23.646055 
L 785.233837 23.285438 
L 791.218967 22.884386 
L 804.899263 22.485256 
L 791.218967 22.085525 
L 793.784022 21.630116 
L 777.538671 21.253855 
L 824.564688 21.007297 
L 814.304466 20.623465 
L 817.72454 20.286176 
L 818.579559 19.889072 
L 810.884392 19.511487 
L 812.594429 19.179585 
L 768.988486 18.764441 
L 758.728264 18.3967 
L 787.798893 18.036446 
L 761.29332 17.582089 
L 821.144614 17.189136 
L 812.594429 16.893822 
L 746.758005 16.587828 
L 800.62417 16.319982 
L 762.148338 16.064572 
L 815.159485 15.830587 
L 773.263579 15.495045 
L 806.6093 15.159361 
L 780.103727 14.824661 
L 783.523801 14.442139 
L 748.468042 14.019044 
L 792.073985 13.669034 
L 792.929004 13.274287 
L 776.683653 13.000853 
L 807.464318 12.67087 
L 796.349078 12.37707 
L 816.869522 11.68081 
L 754.453172 11.344408 
L 788.653911 11.000853 
L 773.263579 10.697111 
L 821.999633 10.410046 
L 734.787747 10.127536 
L 814.304466 9.793733 
L 800.62417 9.502078 
L 753.598153 9.203422 
L 754.453172 8.855343 
L 810.029374 8.607759 
L 810.884392 8.39969 
L 822.854651 8.203531 
L 822.854651 7.869689 
L 811.739411 7.605036 
L 805.754281 7.323381 
L 829.694799 7.063353 
L 816.014503 6.792331 
L 768.133468 6.504457 
L 798.914133 5.993344 
L 784.378819 5.799364 
L 817.72454 5.529044 
L 759.583283 5.246029 
L 800.62417 4.928789 
L 809.174355 4.646551 
L 823.70967 4.365587 
L 814.304466 4.075596 
L 786.943874 3.812448 
L 849.360224 3.280902 
L 804.044244 3.010909 
L 838.244984 2.584673 
L 822.854651 2.339701 
L 861.330483 2.102281 
L 786.943874 1.85447 
L 812.594429 1.584183 
L 806.6093 1.330665 
L 816.014503 1.025771 
L 782.668782 0.765891 
L 832.259854 0.448876 
L 784.378819 0.071004 
L 830.549817 -0.160093 
L 809.174355 -0.802445 
L 815.577753 -1 
L 815.577753 -1 
" style="fill:none;stroke:#4161ff;stroke-linecap:square;stroke-opacity:0.980392;stroke-width:4;"/>
   </g>
   <g id="patch_3">
    <path d="M 87.53875 500.353375 
L 87.53875 82.353375 
" style="fill:none;stroke:#000000;stroke-linecap:square;stroke-linejoin:miter;stroke-width:0.8;"/>
   </g>
   <g id="patch_4">
    <path d="M 1113.560938 500.353375 
L 1113.560938 82.353375 
" style="fill:none;stroke:#000000;stroke-linecap:square;stroke-linejoin:miter;stroke-width:0.8;"/>
   </g>
   <g id="patch_5">
    <path d="M 87.53875 500.353375 
L 1113.560937 500.353375 
" style="fill:none;stroke:#000000;stroke-linecap:square;stroke-linejoin:miter;stroke-width:0.8;"/>
   </g>
   <g id="patch_6">
    <path d="M 87.53875 82.353375 
L 1113.560937 82.353375 
" style="fill:none;stroke:#000000;stroke-linecap:square;stroke-linejoin:miter;stroke-width:0.8;"/>
   </g>
   <g id="text_12">
    <!-- 0.5 Synaptic Density: Energy vs. Accuracy with 100 Units -->
    <g transform="translate(85.555781 34.554375)scale(0.36 -0.36)">
     <defs>
      <path d="M 53.515625 70.515625 
L 53.515625 60.890625 
Q 47.90625 63.578125 42.921875 64.890625 
Q 37.9375 66.21875 33.296875 66.21875 
Q 25.25 66.21875 20.875 63.09375 
Q 16.5 59.96875 16.5 54.203125 
Q 16.5 49.359375 19.40625 46.890625 
Q 22.3125 44.4375 30.421875 42.921875 
L 36.375 41.703125 
Q 47.40625 39.59375 52.65625 34.296875 
Q 57.90625 29 57.90625 20.125 
Q 57.90625 9.515625 50.796875 4.046875 
Q 43.703125 -1.421875 29.984375 -1.421875 
Q 24.8125 -1.421875 18.96875 -0.25 
Q 13.140625 0.921875 6.890625 3.21875 
L 6.890625 13.375 
Q 12.890625 10.015625 18.65625 8.296875 
Q 24.421875 6.59375 29.984375 6.59375 
Q 38.421875 6.59375 43.015625 9.90625 
Q 47.609375 13.234375 47.609375 19.390625 
Q 47.609375 24.75 44.3125 27.78125 
Q 41.015625 30.8125 33.5 32.328125 
L 27.484375 33.5 
Q 16.453125 35.6875 11.515625 40.375 
Q 6.59375 45.0625 6.59375 53.421875 
Q 6.59375 63.09375 13.40625 68.65625 
Q 20.21875 74.21875 32.171875 74.21875 
Q 37.3125 74.21875 42.625 73.28125 
Q 47.953125 72.359375 53.515625 70.515625 
z
" id="DejaVuSans-83"/>
      <path d="M 18.109375 8.203125 
L 18.109375 -20.796875 
L 9.078125 -20.796875 
L 9.078125 54.6875 
L 18.109375 54.6875 
L 18.109375 46.390625 
Q 20.953125 51.265625 25.265625 53.625 
Q 29.59375 56 35.59375 56 
Q 45.5625 56 51.78125 48.09375 
Q 58.015625 40.1875 58.015625 27.296875 
Q 58.015625 14.40625 51.78125 6.484375 
Q 45.5625 -1.421875 35.59375 -1.421875 
Q 29.59375 -1.421875 25.265625 0.953125 
Q 20.953125 3.328125 18.109375 8.203125 
z
M 48.6875 27.296875 
Q 48.6875 37.203125 44.609375 42.84375 
Q 40.53125 48.484375 33.40625 48.484375 
Q 26.265625 48.484375 22.1875 42.84375 
Q 18.109375 37.203125 18.109375 27.296875 
Q 18.109375 17.390625 22.1875 11.75 
Q 26.265625 6.109375 33.40625 6.109375 
Q 40.53125 6.109375 44.609375 11.75 
Q 48.6875 17.390625 48.6875 27.296875 
z
" id="DejaVuSans-112"/>
      <path d="M 18.3125 70.21875 
L 18.3125 54.6875 
L 36.8125 54.6875 
L 36.8125 47.703125 
L 18.3125 47.703125 
L 18.3125 18.015625 
Q 18.3125 11.328125 20.140625 9.421875 
Q 21.96875 7.515625 27.59375 7.515625 
L 36.8125 7.515625 
L 36.8125 0 
L 27.59375 0 
Q 17.1875 0 13.234375 3.875 
Q 9.28125 7.765625 9.28125 18.015625 
L 9.28125 47.703125 
L 2.6875 47.703125 
L 2.6875 54.6875 
L 9.28125 54.6875 
L 9.28125 70.21875 
z
" id="DejaVuSans-116"/>
      <path d="M 9.421875 54.6875 
L 18.40625 54.6875 
L 18.40625 0 
L 9.421875 0 
z
M 9.421875 75.984375 
L 18.40625 75.984375 
L 18.40625 64.59375 
L 9.421875 64.59375 
z
" id="DejaVuSans-105"/>
      <path d="M 19.671875 64.796875 
L 19.671875 8.109375 
L 31.59375 8.109375 
Q 46.6875 8.109375 53.6875 14.9375 
Q 60.6875 21.78125 60.6875 36.53125 
Q 60.6875 51.171875 53.6875 57.984375 
Q 46.6875 64.796875 31.59375 64.796875 
z
M 9.8125 72.90625 
L 30.078125 72.90625 
Q 51.265625 72.90625 61.171875 64.09375 
Q 71.09375 55.28125 71.09375 36.53125 
Q 71.09375 17.671875 61.125 8.828125 
Q 51.171875 0 30.078125 0 
L 9.8125 0 
z
" id="DejaVuSans-68"/>
      <path d="M 44.28125 53.078125 
L 44.28125 44.578125 
Q 40.484375 46.53125 36.375 47.5 
Q 32.28125 48.484375 27.875 48.484375 
Q 21.1875 48.484375 17.84375 46.4375 
Q 14.5 44.390625 14.5 40.28125 
Q 14.5 37.15625 16.890625 35.375 
Q 19.28125 33.59375 26.515625 31.984375 
L 29.59375 31.296875 
Q 39.15625 29.25 43.1875 25.515625 
Q 47.21875 21.78125 47.21875 15.09375 
Q 47.21875 7.46875 41.1875 3.015625 
Q 35.15625 -1.421875 24.609375 -1.421875 
Q 20.21875 -1.421875 15.453125 -0.5625 
Q 10.6875 0.296875 5.421875 2 
L 5.421875 11.28125 
Q 10.40625 8.6875 15.234375 7.390625 
Q 20.0625 6.109375 24.8125 6.109375 
Q 31.15625 6.109375 34.5625 8.28125 
Q 37.984375 10.453125 37.984375 14.40625 
Q 37.984375 18.0625 35.515625 20.015625 
Q 33.0625 21.96875 24.703125 23.78125 
L 21.578125 24.515625 
Q 13.234375 26.265625 9.515625 29.90625 
Q 5.8125 33.546875 5.8125 39.890625 
Q 5.8125 47.609375 11.28125 51.796875 
Q 16.75 56 26.8125 56 
Q 31.78125 56 36.171875 55.265625 
Q 40.578125 54.546875 44.28125 53.078125 
z
" id="DejaVuSans-115"/>
      <path d="M 11.71875 12.40625 
L 22.015625 12.40625 
L 22.015625 0 
L 11.71875 0 
z
M 11.71875 51.703125 
L 22.015625 51.703125 
L 22.015625 39.3125 
L 11.71875 39.3125 
z
" id="DejaVuSans-58"/>
      <path d="M 2.984375 54.6875 
L 12.5 54.6875 
L 29.59375 8.796875 
L 46.6875 54.6875 
L 56.203125 54.6875 
L 35.6875 0 
L 23.484375 0 
z
" id="DejaVuSans-118"/>
      <path d="M 4.203125 54.6875 
L 13.1875 54.6875 
L 24.421875 12.015625 
L 35.59375 54.6875 
L 46.1875 54.6875 
L 57.421875 12.015625 
L 68.609375 54.6875 
L 77.59375 54.6875 
L 63.28125 0 
L 52.6875 0 
L 40.921875 44.828125 
L 29.109375 0 
L 18.5 0 
z
" id="DejaVuSans-119"/>
      <path d="M 54.890625 33.015625 
L 54.890625 0 
L 45.90625 0 
L 45.90625 32.71875 
Q 45.90625 40.484375 42.875 44.328125 
Q 39.84375 48.1875 33.796875 48.1875 
Q 26.515625 48.1875 22.3125 43.546875 
Q 18.109375 38.921875 18.109375 30.90625 
L 18.109375 0 
L 9.078125 0 
L 9.078125 75.984375 
L 18.109375 75.984375 
L 18.109375 46.1875 
Q 21.34375 51.125 25.703125 53.5625 
Q 30.078125 56 35.796875 56 
Q 45.21875 56 50.046875 50.171875 
Q 54.890625 44.34375 54.890625 33.015625 
z
" id="DejaVuSans-104"/>
     </defs>
     <use xlink:href="#DejaVuSans-48"/>
     <use x="63.623047" xlink:href="#DejaVuSans-46"/>
     <use x="95.410156" xlink:href="#DejaVuSans-53"/>
     <use x="159.033203" xlink:href="#DejaVuSans-32"/>
     <use x="190.820312" xlink:href="#DejaVuSans-83"/>
     <use x="254.296875" xlink:href="#DejaVuSans-121"/>
     <use x="313.476562" xlink:href="#DejaVuSans-110"/>
     <use x="376.855469" xlink:href="#DejaVuSans-97"/>
     <use x="438.134766" xlink:href="#DejaVuSans-112"/>
     <use x="501.611328" xlink:href="#DejaVuSans-116"/>
     <use x="540.820312" xlink:href="#DejaVuSans-105"/>
     <use x="568.603516" xlink:href="#DejaVuSans-99"/>
     <use x="623.583984" xlink:href="#DejaVuSans-32"/>
     <use x="655.371094" xlink:href="#DejaVuSans-68"/>
     <use x="732.373047" xlink:href="#DejaVuSans-101"/>
     <use x="793.896484" xlink:href="#DejaVuSans-110"/>
     <use x="857.275391" xlink:href="#DejaVuSans-115"/>
     <use x="909.375" xlink:href="#DejaVuSans-105"/>
     <use x="937.158203" xlink:href="#DejaVuSans-116"/>
     <use x="976.367188" xlink:href="#DejaVuSans-121"/>
     <use x="1028.296875" xlink:href="#DejaVuSans-58"/>
     <use x="1061.988281" xlink:href="#DejaVuSans-32"/>
     <use x="1093.775391" xlink:href="#DejaVuSans-69"/>
     <use x="1156.958984" xlink:href="#DejaVuSans-110"/>
     <use x="1220.337891" xlink:href="#DejaVuSans-101"/>
     <use x="1281.861328" xlink:href="#DejaVuSans-114"/>
     <use x="1321.224609" xlink:href="#DejaVuSans-103"/>
     <use x="1384.701172" xlink:href="#DejaVuSans-121"/>
     <use x="1443.880859" xlink:href="#DejaVuSans-32"/>
     <use x="1475.667969" xlink:href="#DejaVuSans-118"/>
     <use x="1534.847656" xlink:href="#DejaVuSans-115"/>
     <use x="1586.947266" xlink:href="#DejaVuSans-46"/>
     <use x="1618.734375" xlink:href="#DejaVuSans-32"/>
     <use x="1650.521484" xlink:href="#DejaVuSans-65"/>
     <use x="1717.179688" xlink:href="#DejaVuSans-99"/>
     <use x="1772.160156" xlink:href="#DejaVuSans-99"/>
     <use x="1827.140625" xlink:href="#DejaVuSans-117"/>
     <use x="1890.519531" xlink:href="#DejaVuSans-114"/>
     <use x="1931.632812" xlink:href="#DejaVuSans-97"/>
     <use x="1992.912109" xlink:href="#DejaVuSans-99"/>
     <use x="2047.892578" xlink:href="#DejaVuSans-121"/>
     <use x="2107.072266" xlink:href="#DejaVuSans-32"/>
     <use x="2138.859375" xlink:href="#DejaVuSans-119"/>
     <use x="2220.646484" xlink:href="#DejaVuSans-105"/>
     <use x="2248.429688" xlink:href="#DejaVuSans-116"/>
     <use x="2287.638672" xlink:href="#DejaVuSans-104"/>
     <use x="2351.017578" xlink:href="#DejaVuSans-32"/>
     <use x="2382.804688" xlink:href="#DejaVuSans-49"/>
     <use x="2446.427734" xlink:href="#DejaVuSans-48"/>
     <use x="2510.050781" xlink:href="#DejaVuSans-48"/>
     <use x="2573.673828" xlink:href="#DejaVuSans-32"/>
     <use x="2605.460938" xlink:href="#DejaVuSans-85"/>
     <use x="2678.654297" xlink:href="#DejaVuSans-110"/>
     <use x="2742.033203" xlink:href="#DejaVuSans-105"/>
     <use x="2769.816406" xlink:href="#DejaVuSans-116"/>
     <use x="2809.025391" xlink:href="#DejaVuSans-115"/>
    </g>
    <!-- @ Various Learning Rates -->
    <g transform="translate(370.450781 74.8665)scale(0.36 -0.36)">
     <defs>
      <path d="M 37.203125 26.21875 
Q 37.203125 19.234375 40.671875 15.25 
Q 44.140625 11.28125 50.203125 11.28125 
Q 56.203125 11.28125 59.640625 15.28125 
Q 63.09375 19.28125 63.09375 26.21875 
Q 63.09375 33.0625 59.578125 37.078125 
Q 56.0625 41.109375 50.09375 41.109375 
Q 44.1875 41.109375 40.6875 37.109375 
Q 37.203125 33.109375 37.203125 26.21875 
z
M 63.8125 11.625 
Q 60.890625 7.859375 57.109375 6.078125 
Q 53.328125 4.296875 48.296875 4.296875 
Q 39.890625 4.296875 34.640625 10.375 
Q 29.390625 16.453125 29.390625 26.21875 
Q 29.390625 35.984375 34.65625 42.078125 
Q 39.9375 48.1875 48.296875 48.1875 
Q 53.328125 48.1875 57.125 46.359375 
Q 60.9375 44.53125 63.8125 40.828125 
L 63.8125 47.21875 
L 70.796875 47.21875 
L 70.796875 11.28125 
Q 77.9375 12.359375 81.953125 17.796875 
Q 85.984375 23.25 85.984375 31.890625 
Q 85.984375 37.109375 84.4375 41.703125 
Q 82.90625 46.296875 79.78125 50.203125 
Q 74.703125 56.59375 67.40625 59.984375 
Q 60.109375 63.375 51.515625 63.375 
Q 45.515625 63.375 39.984375 61.78125 
Q 34.46875 60.203125 29.78125 57.078125 
Q 22.125 52.09375 17.796875 44.015625 
Q 13.484375 35.9375 13.484375 26.515625 
Q 13.484375 18.75 16.28125 11.953125 
Q 19.09375 5.171875 24.421875 0 
Q 29.546875 -5.078125 36.28125 -7.734375 
Q 43.015625 -10.40625 50.6875 -10.40625 
Q 56.984375 -10.40625 63.0625 -8.28125 
Q 69.140625 -6.15625 74.21875 -2.203125 
L 78.609375 -7.625 
Q 72.515625 -12.359375 65.3125 -14.875 
Q 58.109375 -17.390625 50.6875 -17.390625 
Q 41.65625 -17.390625 33.640625 -14.1875 
Q 25.640625 -10.984375 19.390625 -4.890625 
Q 13.140625 1.21875 9.859375 9.25 
Q 6.59375 17.28125 6.59375 26.515625 
Q 6.59375 35.40625 9.90625 43.453125 
Q 13.234375 51.515625 19.390625 57.625 
Q 25.6875 63.8125 33.9375 67.109375 
Q 42.1875 70.40625 51.421875 70.40625 
Q 61.765625 70.40625 70.625 66.15625 
Q 79.5 61.921875 85.5 54.109375 
Q 89.15625 49.3125 91.078125 43.703125 
Q 93.015625 38.09375 93.015625 32.078125 
Q 93.015625 19.234375 85.25 11.8125 
Q 77.484375 4.390625 63.8125 4.109375 
z
" id="DejaVuSans-64"/>
      <path d="M 28.609375 0 
L 0.78125 72.90625 
L 11.078125 72.90625 
L 34.1875 11.53125 
L 57.328125 72.90625 
L 67.578125 72.90625 
L 39.796875 0 
z
" id="DejaVuSans-86"/>
      <path d="M 30.609375 48.390625 
Q 23.390625 48.390625 19.1875 42.75 
Q 14.984375 37.109375 14.984375 27.296875 
Q 14.984375 17.484375 19.15625 11.84375 
Q 23.34375 6.203125 30.609375 6.203125 
Q 37.796875 6.203125 41.984375 11.859375 
Q 46.1875 17.53125 46.1875 27.296875 
Q 46.1875 37.015625 41.984375 42.703125 
Q 37.796875 48.390625 30.609375 48.390625 
z
M 30.609375 56 
Q 42.328125 56 49.015625 48.375 
Q 55.71875 40.765625 55.71875 27.296875 
Q 55.71875 13.875 49.015625 6.21875 
Q 42.328125 -1.421875 30.609375 -1.421875 
Q 18.84375 -1.421875 12.171875 6.21875 
Q 5.515625 13.875 5.515625 27.296875 
Q 5.515625 40.765625 12.171875 48.375 
Q 18.84375 56 30.609375 56 
z
" id="DejaVuSans-111"/>
      <path d="M 9.8125 72.90625 
L 19.671875 72.90625 
L 19.671875 8.296875 
L 55.171875 8.296875 
L 55.171875 0 
L 9.8125 0 
z
" id="DejaVuSans-76"/>
      <path d="M 44.390625 34.1875 
Q 47.5625 33.109375 50.5625 29.59375 
Q 53.5625 26.078125 56.59375 19.921875 
L 66.609375 0 
L 56 0 
L 46.6875 18.703125 
Q 43.0625 26.03125 39.671875 28.421875 
Q 36.28125 30.8125 30.421875 30.8125 
L 19.671875 30.8125 
L 19.671875 0 
L 9.8125 0 
L 9.8125 72.90625 
L 32.078125 72.90625 
Q 44.578125 72.90625 50.734375 67.671875 
Q 56.890625 62.453125 56.890625 51.90625 
Q 56.890625 45.015625 53.6875 40.46875 
Q 50.484375 35.9375 44.390625 34.1875 
z
M 19.671875 64.796875 
L 19.671875 38.921875 
L 32.078125 38.921875 
Q 39.203125 38.921875 42.84375 42.21875 
Q 46.484375 45.515625 46.484375 51.90625 
Q 46.484375 58.296875 42.84375 61.546875 
Q 39.203125 64.796875 32.078125 64.796875 
z
" id="DejaVuSans-82"/>
     </defs>
     <use xlink:href="#DejaVuSans-64"/>
     <use x="100" xlink:href="#DejaVuSans-32"/>
     <use x="131.787109" xlink:href="#DejaVuSans-86"/>
     <use x="192.445312" xlink:href="#DejaVuSans-97"/>
     <use x="253.724609" xlink:href="#DejaVuSans-114"/>
     <use x="294.837891" xlink:href="#DejaVuSans-105"/>
     <use x="322.621094" xlink:href="#DejaVuSans-111"/>
     <use x="383.802734" xlink:href="#DejaVuSans-117"/>
     <use x="447.181641" xlink:href="#DejaVuSans-115"/>
     <use x="499.28125" xlink:href="#DejaVuSans-32"/>
     <use x="531.068359" xlink:href="#DejaVuSans-76"/>
     <use x="585.03125" xlink:href="#DejaVuSans-101"/>
     <use x="646.554688" xlink:href="#DejaVuSans-97"/>
     <use x="707.833984" xlink:href="#DejaVuSans-114"/>
     <use x="747.197266" xlink:href="#DejaVuSans-110"/>
     <use x="810.576172" xlink:href="#DejaVuSans-105"/>
     <use x="838.359375" xlink:href="#DejaVuSans-110"/>
     <use x="901.738281" xlink:href="#DejaVuSans-103"/>
     <use x="965.214844" xlink:href="#DejaVuSans-32"/>
     <use x="997.001953" xlink:href="#DejaVuSans-82"/>
     <use x="1064.234375" xlink:href="#DejaVuSans-97"/>
     <use x="1125.513672" xlink:href="#DejaVuSans-116"/>
     <use x="1164.722656" xlink:href="#DejaVuSans-101"/>
     <use x="1226.246094" xlink:href="#DejaVuSans-115"/>
    </g>
   </g>
   <g id="legend_1">
    <g id="patch_7">
     <path d="M 950.781563 489.353375 
L 1098.160938 489.353375 
Q 1102.560938 489.353375 1102.560938 484.953375 
L 1102.560938 325.694 
Q 1102.560938 321.294 1098.160938 321.294 
L 950.781563 321.294 
Q 946.381563 321.294 946.381563 325.694 
L 946.381563 484.953375 
Q 946.381563 489.353375 950.781563 489.353375 
z
" style="fill:#ffffff;opacity:0.8;stroke:#cccccc;stroke-linejoin:miter;"/>
    </g>
    <g id="line2d_31">
     <path d="M 955.181563 339.110562 
L 999.181563 339.110562 
" style="fill:none;stroke:#4161ff;stroke-linecap:square;stroke-opacity:0.196078;stroke-width:4;"/>
    </g>
    <g id="line2d_32"/>
    <g id="text_13">
     <!-- 0.0005 -->
     <g transform="translate(1016.781563 346.810562)scale(0.22 -0.22)">
      <use xlink:href="#DejaVuSans-48"/>
      <use x="63.623047" xlink:href="#DejaVuSans-46"/>
      <use x="95.410156" xlink:href="#DejaVuSans-48"/>
      <use x="159.033203" xlink:href="#DejaVuSans-48"/>
      <use x="222.65625" xlink:href="#DejaVuSans-48"/>
      <use x="286.279297" xlink:href="#DejaVuSans-53"/>
     </g>
    </g>
    <g id="line2d_33">
     <path d="M 955.181563 371.402437 
L 999.181563 371.402437 
" style="fill:none;stroke:#4161ff;stroke-linecap:square;stroke-opacity:0.392157;stroke-width:4;"/>
    </g>
    <g id="line2d_34"/>
    <g id="text_14">
     <!-- 0.001 -->
     <g transform="translate(1016.781563 379.102437)scale(0.22 -0.22)">
      <use xlink:href="#DejaVuSans-48"/>
      <use x="63.623047" xlink:href="#DejaVuSans-46"/>
      <use x="95.410156" xlink:href="#DejaVuSans-48"/>
      <use x="159.033203" xlink:href="#DejaVuSans-48"/>
      <use x="222.65625" xlink:href="#DejaVuSans-49"/>
     </g>
    </g>
    <g id="line2d_35">
     <path d="M 955.181563 403.694312 
L 999.181563 403.694312 
" style="fill:none;stroke:#4161ff;stroke-linecap:square;stroke-opacity:0.588235;stroke-width:4;"/>
    </g>
    <g id="line2d_36"/>
    <g id="text_15">
     <!-- 0.005 -->
     <g transform="translate(1016.781563 411.394312)scale(0.22 -0.22)">
      <use xlink:href="#DejaVuSans-48"/>
      <use x="63.623047" xlink:href="#DejaVuSans-46"/>
      <use x="95.410156" xlink:href="#DejaVuSans-48"/>
      <use x="159.033203" xlink:href="#DejaVuSans-48"/>
      <use x="222.65625" xlink:href="#DejaVuSans-53"/>
     </g>
    </g>
    <g id="line2d_37">
     <path d="M 955.181563 435.986187 
L 999.181563 435.986187 
" style="fill:none;stroke:#4161ff;stroke-linecap:square;stroke-opacity:0.784314;stroke-width:4;"/>
    </g>
    <g id="line2d_38"/>
    <g id="text_16">
     <!-- 0.01 -->
     <g transform="translate(1016.781563 443.686187)scale(0.22 -0.22)">
      <use xlink:href="#DejaVuSans-48"/>
      <use x="63.623047" xlink:href="#DejaVuSans-46"/>
      <use x="95.410156" xlink:href="#DejaVuSans-48"/>
      <use x="159.033203" xlink:href="#DejaVuSans-49"/>
     </g>
    </g>
    <g id="line2d_39">
     <path d="M 955.181563 468.278062 
L 999.181563 468.278062 
" style="fill:none;stroke:#4161ff;stroke-linecap:square;stroke-opacity:0.980392;stroke-width:4;"/>
    </g>
    <g id="line2d_40"/>
    <g id="text_17">
     <!-- 0.05 -->
     <g transform="translate(1016.781563 475.978062)scale(0.22 -0.22)">
      <use xlink:href="#DejaVuSans-48"/>
      <use x="63.623047" xlink:href="#DejaVuSans-46"/>
      <use x="95.410156" xlink:href="#DejaVuSans-48"/>
      <use x="159.033203" xlink:href="#DejaVuSans-53"/>
     </g>
    </g>
   </g>
  </g>
 </g>
 <defs>
  <clipPath id="pe4436e2261">
   <rect height="418" width="1026.022188" x="87.53875" y="82.353375"/>
  </clipPath>
 </defs>
</svg>
