<?xml version="1.0" encoding="utf-8" standalone="no"?>
<!DOCTYPE svg PUBLIC "-//W3C//DTD SVG 1.1//EN"
  "http://www.w3.org/Graphics/SVG/1.1/DTD/svg11.dtd">
<!-- Created with matplotlib (https://matplotlib.org/) -->
<svg height="576pt" version="1.1" viewBox="0 0 1152 576" width="1152pt" xmlns="http://www.w3.org/2000/svg" xmlns:xlink="http://www.w3.org/1999/xlink">
 <metadata>
  <rdf:RDF xmlns:cc="http://creativecommons.org/ns#" xmlns:dc="http://purl.org/dc/elements/1.1/" xmlns:rdf="http://www.w3.org/1999/02/22-rdf-syntax-ns#">
   <cc:Work>
    <dc:type rdf:resource="http://purl.org/dc/dcmitype/StillImage"/>
    <dc:date>2021-09-11T23:30:43.722736</dc:date>
    <dc:format>image/svg+xml</dc:format>
    <dc:creator>
     <cc:Agent>
      <dc:title>Matplotlib v3.3.4, https://matplotlib.org/</dc:title>
     </cc:Agent>
    </dc:creator>
   </cc:Work>
  </rdf:RDF>
 </metadata>
 <defs>
  <style type="text/css">*{stroke-linecap:butt;stroke-linejoin:round;}</style>
 </defs>
 <g id="figure_1">
  <g id="patch_1">
   <path d="M 0 576 
L 1152 576 
L 1152 0 
L 0 0 
z
" style="fill:#ffffff;"/>
  </g>
  <g id="axes_1">
   <g id="patch_2">
    <path d="M 144 504 
L 1036.8 504 
L 1036.8 69.12 
L 144 69.12 
z
" style="fill:#ffffff;"/>
   </g>
   <g id="matplotlib.axis_1">
    <g id="xtick_1">
     <g id="line2d_1">
      <defs>
       <path d="M 0 0 
L 0 3.5 
" id="m5e9f9d43b5" style="stroke:#000000;stroke-width:0.8;"/>
      </defs>
      <g>
       <use style="stroke:#000000;stroke-width:0.8;" x="144" xlink:href="#m5e9f9d43b5" y="504"/>
      </g>
     </g>
     <g id="text_1">
      <!-- 0.0 -->
      <g transform="translate(124.91625 529.23625)scale(0.24 -0.24)">
       <defs>
        <path d="M 31.78125 66.40625 
Q 24.171875 66.40625 20.328125 58.90625 
Q 16.5 51.421875 16.5 36.375 
Q 16.5 21.390625 20.328125 13.890625 
Q 24.171875 6.390625 31.78125 6.390625 
Q 39.453125 6.390625 43.28125 13.890625 
Q 47.125 21.390625 47.125 36.375 
Q 47.125 51.421875 43.28125 58.90625 
Q 39.453125 66.40625 31.78125 66.40625 
z
M 31.78125 74.21875 
Q 44.046875 74.21875 50.515625 64.515625 
Q 56.984375 54.828125 56.984375 36.375 
Q 56.984375 17.96875 50.515625 8.265625 
Q 44.046875 -1.421875 31.78125 -1.421875 
Q 19.53125 -1.421875 13.0625 8.265625 
Q 6.59375 17.96875 6.59375 36.375 
Q 6.59375 54.828125 13.0625 64.515625 
Q 19.53125 74.21875 31.78125 74.21875 
z
" id="DejaVuSans-48"/>
        <path d="M 10.6875 12.40625 
L 21 12.40625 
L 21 0 
L 10.6875 0 
z
" id="DejaVuSans-46"/>
       </defs>
       <use xlink:href="#DejaVuSans-48"/>
       <use x="63.623047" xlink:href="#DejaVuSans-46"/>
       <use x="95.410156" xlink:href="#DejaVuSans-48"/>
      </g>
     </g>
    </g>
    <g id="xtick_2">
     <g id="line2d_2">
      <g>
       <use style="stroke:#000000;stroke-width:0.8;" x="320.792079" xlink:href="#m5e9f9d43b5" y="504"/>
      </g>
     </g>
     <g id="text_2">
      <!-- 0.2 -->
      <g transform="translate(301.708329 529.23625)scale(0.24 -0.24)">
       <defs>
        <path d="M 19.1875 8.296875 
L 53.609375 8.296875 
L 53.609375 0 
L 7.328125 0 
L 7.328125 8.296875 
Q 12.9375 14.109375 22.625 23.890625 
Q 32.328125 33.6875 34.8125 36.53125 
Q 39.546875 41.84375 41.421875 45.53125 
Q 43.3125 49.21875 43.3125 52.78125 
Q 43.3125 58.59375 39.234375 62.25 
Q 35.15625 65.921875 28.609375 65.921875 
Q 23.96875 65.921875 18.8125 64.3125 
Q 13.671875 62.703125 7.8125 59.421875 
L 7.8125 69.390625 
Q 13.765625 71.78125 18.9375 73 
Q 24.125 74.21875 28.421875 74.21875 
Q 39.75 74.21875 46.484375 68.546875 
Q 53.21875 62.890625 53.21875 53.421875 
Q 53.21875 48.921875 51.53125 44.890625 
Q 49.859375 40.875 45.40625 35.40625 
Q 44.1875 33.984375 37.640625 27.21875 
Q 31.109375 20.453125 19.1875 8.296875 
z
" id="DejaVuSans-50"/>
       </defs>
       <use xlink:href="#DejaVuSans-48"/>
       <use x="63.623047" xlink:href="#DejaVuSans-46"/>
       <use x="95.410156" xlink:href="#DejaVuSans-50"/>
      </g>
     </g>
    </g>
    <g id="xtick_3">
     <g id="line2d_3">
      <g>
       <use style="stroke:#000000;stroke-width:0.8;" x="497.584158" xlink:href="#m5e9f9d43b5" y="504"/>
      </g>
     </g>
     <g id="text_3">
      <!-- 0.4 -->
      <g transform="translate(478.500408 529.23625)scale(0.24 -0.24)">
       <defs>
        <path d="M 37.796875 64.3125 
L 12.890625 25.390625 
L 37.796875 25.390625 
z
M 35.203125 72.90625 
L 47.609375 72.90625 
L 47.609375 25.390625 
L 58.015625 25.390625 
L 58.015625 17.1875 
L 47.609375 17.1875 
L 47.609375 0 
L 37.796875 0 
L 37.796875 17.1875 
L 4.890625 17.1875 
L 4.890625 26.703125 
z
" id="DejaVuSans-52"/>
       </defs>
       <use xlink:href="#DejaVuSans-48"/>
       <use x="63.623047" xlink:href="#DejaVuSans-46"/>
       <use x="95.410156" xlink:href="#DejaVuSans-52"/>
      </g>
     </g>
    </g>
    <g id="xtick_4">
     <g id="line2d_4">
      <g>
       <use style="stroke:#000000;stroke-width:0.8;" x="674.376238" xlink:href="#m5e9f9d43b5" y="504"/>
      </g>
     </g>
     <g id="text_4">
      <!-- 0.6 -->
      <g transform="translate(655.292488 529.23625)scale(0.24 -0.24)">
       <defs>
        <path d="M 33.015625 40.375 
Q 26.375 40.375 22.484375 35.828125 
Q 18.609375 31.296875 18.609375 23.390625 
Q 18.609375 15.53125 22.484375 10.953125 
Q 26.375 6.390625 33.015625 6.390625 
Q 39.65625 6.390625 43.53125 10.953125 
Q 47.40625 15.53125 47.40625 23.390625 
Q 47.40625 31.296875 43.53125 35.828125 
Q 39.65625 40.375 33.015625 40.375 
z
M 52.59375 71.296875 
L 52.59375 62.3125 
Q 48.875 64.0625 45.09375 64.984375 
Q 41.3125 65.921875 37.59375 65.921875 
Q 27.828125 65.921875 22.671875 59.328125 
Q 17.53125 52.734375 16.796875 39.40625 
Q 19.671875 43.65625 24.015625 45.921875 
Q 28.375 48.1875 33.59375 48.1875 
Q 44.578125 48.1875 50.953125 41.515625 
Q 57.328125 34.859375 57.328125 23.390625 
Q 57.328125 12.15625 50.6875 5.359375 
Q 44.046875 -1.421875 33.015625 -1.421875 
Q 20.359375 -1.421875 13.671875 8.265625 
Q 6.984375 17.96875 6.984375 36.375 
Q 6.984375 53.65625 15.1875 63.9375 
Q 23.390625 74.21875 37.203125 74.21875 
Q 40.921875 74.21875 44.703125 73.484375 
Q 48.484375 72.75 52.59375 71.296875 
z
" id="DejaVuSans-54"/>
       </defs>
       <use xlink:href="#DejaVuSans-48"/>
       <use x="63.623047" xlink:href="#DejaVuSans-46"/>
       <use x="95.410156" xlink:href="#DejaVuSans-54"/>
      </g>
     </g>
    </g>
    <g id="xtick_5">
     <g id="line2d_5">
      <g>
       <use style="stroke:#000000;stroke-width:0.8;" x="851.168317" xlink:href="#m5e9f9d43b5" y="504"/>
      </g>
     </g>
     <g id="text_5">
      <!-- 0.8 -->
      <g transform="translate(832.084567 529.23625)scale(0.24 -0.24)">
       <defs>
        <path d="M 31.78125 34.625 
Q 24.75 34.625 20.71875 30.859375 
Q 16.703125 27.09375 16.703125 20.515625 
Q 16.703125 13.921875 20.71875 10.15625 
Q 24.75 6.390625 31.78125 6.390625 
Q 38.8125 6.390625 42.859375 10.171875 
Q 46.921875 13.96875 46.921875 20.515625 
Q 46.921875 27.09375 42.890625 30.859375 
Q 38.875 34.625 31.78125 34.625 
z
M 21.921875 38.8125 
Q 15.578125 40.375 12.03125 44.71875 
Q 8.5 49.078125 8.5 55.328125 
Q 8.5 64.0625 14.71875 69.140625 
Q 20.953125 74.21875 31.78125 74.21875 
Q 42.671875 74.21875 48.875 69.140625 
Q 55.078125 64.0625 55.078125 55.328125 
Q 55.078125 49.078125 51.53125 44.71875 
Q 48 40.375 41.703125 38.8125 
Q 48.828125 37.15625 52.796875 32.3125 
Q 56.78125 27.484375 56.78125 20.515625 
Q 56.78125 9.90625 50.3125 4.234375 
Q 43.84375 -1.421875 31.78125 -1.421875 
Q 19.734375 -1.421875 13.25 4.234375 
Q 6.78125 9.90625 6.78125 20.515625 
Q 6.78125 27.484375 10.78125 32.3125 
Q 14.796875 37.15625 21.921875 38.8125 
z
M 18.3125 54.390625 
Q 18.3125 48.734375 21.84375 45.5625 
Q 25.390625 42.390625 31.78125 42.390625 
Q 38.140625 42.390625 41.71875 45.5625 
Q 45.3125 48.734375 45.3125 54.390625 
Q 45.3125 60.0625 41.71875 63.234375 
Q 38.140625 66.40625 31.78125 66.40625 
Q 25.390625 66.40625 21.84375 63.234375 
Q 18.3125 60.0625 18.3125 54.390625 
z
" id="DejaVuSans-56"/>
       </defs>
       <use xlink:href="#DejaVuSans-48"/>
       <use x="63.623047" xlink:href="#DejaVuSans-46"/>
       <use x="95.410156" xlink:href="#DejaVuSans-56"/>
      </g>
     </g>
    </g>
    <g id="xtick_6">
     <g id="line2d_6">
      <g>
       <use style="stroke:#000000;stroke-width:0.8;" x="1027.960396" xlink:href="#m5e9f9d43b5" y="504"/>
      </g>
     </g>
     <g id="text_6">
      <!-- 1.0 -->
      <g transform="translate(1008.876646 529.23625)scale(0.24 -0.24)">
       <defs>
        <path d="M 12.40625 8.296875 
L 28.515625 8.296875 
L 28.515625 63.921875 
L 10.984375 60.40625 
L 10.984375 69.390625 
L 28.421875 72.90625 
L 38.28125 72.90625 
L 38.28125 8.296875 
L 54.390625 8.296875 
L 54.390625 0 
L 12.40625 0 
z
" id="DejaVuSans-49"/>
       </defs>
       <use xlink:href="#DejaVuSans-49"/>
       <use x="63.623047" xlink:href="#DejaVuSans-46"/>
       <use x="95.410156" xlink:href="#DejaVuSans-48"/>
      </g>
     </g>
    </g>
    <g id="text_7">
     <!-- Probability of Connection -->
     <g transform="translate(414.789687 559.503125)scale(0.28 -0.28)">
      <defs>
       <path d="M 19.671875 64.796875 
L 19.671875 37.40625 
L 32.078125 37.40625 
Q 38.96875 37.40625 42.71875 40.96875 
Q 46.484375 44.53125 46.484375 51.125 
Q 46.484375 57.671875 42.71875 61.234375 
Q 38.96875 64.796875 32.078125 64.796875 
z
M 9.8125 72.90625 
L 32.078125 72.90625 
Q 44.34375 72.90625 50.609375 67.359375 
Q 56.890625 61.8125 56.890625 51.125 
Q 56.890625 40.328125 50.609375 34.8125 
Q 44.34375 29.296875 32.078125 29.296875 
L 19.671875 29.296875 
L 19.671875 0 
L 9.8125 0 
z
" id="DejaVuSans-80"/>
       <path d="M 41.109375 46.296875 
Q 39.59375 47.171875 37.8125 47.578125 
Q 36.03125 48 33.890625 48 
Q 26.265625 48 22.1875 43.046875 
Q 18.109375 38.09375 18.109375 28.8125 
L 18.109375 0 
L 9.078125 0 
L 9.078125 54.6875 
L 18.109375 54.6875 
L 18.109375 46.1875 
Q 20.953125 51.171875 25.484375 53.578125 
Q 30.03125 56 36.53125 56 
Q 37.453125 56 38.578125 55.875 
Q 39.703125 55.765625 41.0625 55.515625 
z
" id="DejaVuSans-114"/>
       <path d="M 30.609375 48.390625 
Q 23.390625 48.390625 19.1875 42.75 
Q 14.984375 37.109375 14.984375 27.296875 
Q 14.984375 17.484375 19.15625 11.84375 
Q 23.34375 6.203125 30.609375 6.203125 
Q 37.796875 6.203125 41.984375 11.859375 
Q 46.1875 17.53125 46.1875 27.296875 
Q 46.1875 37.015625 41.984375 42.703125 
Q 37.796875 48.390625 30.609375 48.390625 
z
M 30.609375 56 
Q 42.328125 56 49.015625 48.375 
Q 55.71875 40.765625 55.71875 27.296875 
Q 55.71875 13.875 49.015625 6.21875 
Q 42.328125 -1.421875 30.609375 -1.421875 
Q 18.84375 -1.421875 12.171875 6.21875 
Q 5.515625 13.875 5.515625 27.296875 
Q 5.515625 40.765625 12.171875 48.375 
Q 18.84375 56 30.609375 56 
z
" id="DejaVuSans-111"/>
       <path d="M 48.6875 27.296875 
Q 48.6875 37.203125 44.609375 42.84375 
Q 40.53125 48.484375 33.40625 48.484375 
Q 26.265625 48.484375 22.1875 42.84375 
Q 18.109375 37.203125 18.109375 27.296875 
Q 18.109375 17.390625 22.1875 11.75 
Q 26.265625 6.109375 33.40625 6.109375 
Q 40.53125 6.109375 44.609375 11.75 
Q 48.6875 17.390625 48.6875 27.296875 
z
M 18.109375 46.390625 
Q 20.953125 51.265625 25.265625 53.625 
Q 29.59375 56 35.59375 56 
Q 45.5625 56 51.78125 48.09375 
Q 58.015625 40.1875 58.015625 27.296875 
Q 58.015625 14.40625 51.78125 6.484375 
Q 45.5625 -1.421875 35.59375 -1.421875 
Q 29.59375 -1.421875 25.265625 0.953125 
Q 20.953125 3.328125 18.109375 8.203125 
L 18.109375 0 
L 9.078125 0 
L 9.078125 75.984375 
L 18.109375 75.984375 
z
" id="DejaVuSans-98"/>
       <path d="M 34.28125 27.484375 
Q 23.390625 27.484375 19.1875 25 
Q 14.984375 22.515625 14.984375 16.5 
Q 14.984375 11.71875 18.140625 8.90625 
Q 21.296875 6.109375 26.703125 6.109375 
Q 34.1875 6.109375 38.703125 11.40625 
Q 43.21875 16.703125 43.21875 25.484375 
L 43.21875 27.484375 
z
M 52.203125 31.203125 
L 52.203125 0 
L 43.21875 0 
L 43.21875 8.296875 
Q 40.140625 3.328125 35.546875 0.953125 
Q 30.953125 -1.421875 24.3125 -1.421875 
Q 15.921875 -1.421875 10.953125 3.296875 
Q 6 8.015625 6 15.921875 
Q 6 25.140625 12.171875 29.828125 
Q 18.359375 34.515625 30.609375 34.515625 
L 43.21875 34.515625 
L 43.21875 35.40625 
Q 43.21875 41.609375 39.140625 45 
Q 35.0625 48.390625 27.6875 48.390625 
Q 23 48.390625 18.546875 47.265625 
Q 14.109375 46.140625 10.015625 43.890625 
L 10.015625 52.203125 
Q 14.9375 54.109375 19.578125 55.046875 
Q 24.21875 56 28.609375 56 
Q 40.484375 56 46.34375 49.84375 
Q 52.203125 43.703125 52.203125 31.203125 
z
" id="DejaVuSans-97"/>
       <path d="M 9.421875 54.6875 
L 18.40625 54.6875 
L 18.40625 0 
L 9.421875 0 
z
M 9.421875 75.984375 
L 18.40625 75.984375 
L 18.40625 64.59375 
L 9.421875 64.59375 
z
" id="DejaVuSans-105"/>
       <path d="M 9.421875 75.984375 
L 18.40625 75.984375 
L 18.40625 0 
L 9.421875 0 
z
" id="DejaVuSans-108"/>
       <path d="M 18.3125 70.21875 
L 18.3125 54.6875 
L 36.8125 54.6875 
L 36.8125 47.703125 
L 18.3125 47.703125 
L 18.3125 18.015625 
Q 18.3125 11.328125 20.140625 9.421875 
Q 21.96875 7.515625 27.59375 7.515625 
L 36.8125 7.515625 
L 36.8125 0 
L 27.59375 0 
Q 17.1875 0 13.234375 3.875 
Q 9.28125 7.765625 9.28125 18.015625 
L 9.28125 47.703125 
L 2.6875 47.703125 
L 2.6875 54.6875 
L 9.28125 54.6875 
L 9.28125 70.21875 
z
" id="DejaVuSans-116"/>
       <path d="M 32.171875 -5.078125 
Q 28.375 -14.84375 24.75 -17.8125 
Q 21.140625 -20.796875 15.09375 -20.796875 
L 7.90625 -20.796875 
L 7.90625 -13.28125 
L 13.1875 -13.28125 
Q 16.890625 -13.28125 18.9375 -11.515625 
Q 21 -9.765625 23.484375 -3.21875 
L 25.09375 0.875 
L 2.984375 54.6875 
L 12.5 54.6875 
L 29.59375 11.921875 
L 46.6875 54.6875 
L 56.203125 54.6875 
z
" id="DejaVuSans-121"/>
       <path id="DejaVuSans-32"/>
       <path d="M 37.109375 75.984375 
L 37.109375 68.5 
L 28.515625 68.5 
Q 23.6875 68.5 21.796875 66.546875 
Q 19.921875 64.59375 19.921875 59.515625 
L 19.921875 54.6875 
L 34.71875 54.6875 
L 34.71875 47.703125 
L 19.921875 47.703125 
L 19.921875 0 
L 10.890625 0 
L 10.890625 47.703125 
L 2.296875 47.703125 
L 2.296875 54.6875 
L 10.890625 54.6875 
L 10.890625 58.5 
Q 10.890625 67.625 15.140625 71.796875 
Q 19.390625 75.984375 28.609375 75.984375 
z
" id="DejaVuSans-102"/>
       <path d="M 64.40625 67.28125 
L 64.40625 56.890625 
Q 59.421875 61.53125 53.78125 63.8125 
Q 48.140625 66.109375 41.796875 66.109375 
Q 29.296875 66.109375 22.65625 58.46875 
Q 16.015625 50.828125 16.015625 36.375 
Q 16.015625 21.96875 22.65625 14.328125 
Q 29.296875 6.6875 41.796875 6.6875 
Q 48.140625 6.6875 53.78125 8.984375 
Q 59.421875 11.28125 64.40625 15.921875 
L 64.40625 5.609375 
Q 59.234375 2.09375 53.4375 0.328125 
Q 47.65625 -1.421875 41.21875 -1.421875 
Q 24.65625 -1.421875 15.125 8.703125 
Q 5.609375 18.84375 5.609375 36.375 
Q 5.609375 53.953125 15.125 64.078125 
Q 24.65625 74.21875 41.21875 74.21875 
Q 47.75 74.21875 53.53125 72.484375 
Q 59.328125 70.75 64.40625 67.28125 
z
" id="DejaVuSans-67"/>
       <path d="M 54.890625 33.015625 
L 54.890625 0 
L 45.90625 0 
L 45.90625 32.71875 
Q 45.90625 40.484375 42.875 44.328125 
Q 39.84375 48.1875 33.796875 48.1875 
Q 26.515625 48.1875 22.3125 43.546875 
Q 18.109375 38.921875 18.109375 30.90625 
L 18.109375 0 
L 9.078125 0 
L 9.078125 54.6875 
L 18.109375 54.6875 
L 18.109375 46.1875 
Q 21.34375 51.125 25.703125 53.5625 
Q 30.078125 56 35.796875 56 
Q 45.21875 56 50.046875 50.171875 
Q 54.890625 44.34375 54.890625 33.015625 
z
" id="DejaVuSans-110"/>
       <path d="M 56.203125 29.59375 
L 56.203125 25.203125 
L 14.890625 25.203125 
Q 15.484375 15.921875 20.484375 11.0625 
Q 25.484375 6.203125 34.421875 6.203125 
Q 39.59375 6.203125 44.453125 7.46875 
Q 49.3125 8.734375 54.109375 11.28125 
L 54.109375 2.78125 
Q 49.265625 0.734375 44.1875 -0.34375 
Q 39.109375 -1.421875 33.890625 -1.421875 
Q 20.796875 -1.421875 13.15625 6.1875 
Q 5.515625 13.8125 5.515625 26.8125 
Q 5.515625 40.234375 12.765625 48.109375 
Q 20.015625 56 32.328125 56 
Q 43.359375 56 49.78125 48.890625 
Q 56.203125 41.796875 56.203125 29.59375 
z
M 47.21875 32.234375 
Q 47.125 39.59375 43.09375 43.984375 
Q 39.0625 48.390625 32.421875 48.390625 
Q 24.90625 48.390625 20.390625 44.140625 
Q 15.875 39.890625 15.1875 32.171875 
z
" id="DejaVuSans-101"/>
       <path d="M 48.78125 52.59375 
L 48.78125 44.1875 
Q 44.96875 46.296875 41.140625 47.34375 
Q 37.3125 48.390625 33.40625 48.390625 
Q 24.65625 48.390625 19.8125 42.84375 
Q 14.984375 37.3125 14.984375 27.296875 
Q 14.984375 17.28125 19.8125 11.734375 
Q 24.65625 6.203125 33.40625 6.203125 
Q 37.3125 6.203125 41.140625 7.25 
Q 44.96875 8.296875 48.78125 10.40625 
L 48.78125 2.09375 
Q 45.015625 0.34375 40.984375 -0.53125 
Q 36.96875 -1.421875 32.421875 -1.421875 
Q 20.0625 -1.421875 12.78125 6.34375 
Q 5.515625 14.109375 5.515625 27.296875 
Q 5.515625 40.671875 12.859375 48.328125 
Q 20.21875 56 33.015625 56 
Q 37.15625 56 41.109375 55.140625 
Q 45.0625 54.296875 48.78125 52.59375 
z
" id="DejaVuSans-99"/>
      </defs>
      <use xlink:href="#DejaVuSans-80"/>
      <use x="58.552734" xlink:href="#DejaVuSans-114"/>
      <use x="97.416016" xlink:href="#DejaVuSans-111"/>
      <use x="158.597656" xlink:href="#DejaVuSans-98"/>
      <use x="222.074219" xlink:href="#DejaVuSans-97"/>
      <use x="283.353516" xlink:href="#DejaVuSans-98"/>
      <use x="346.830078" xlink:href="#DejaVuSans-105"/>
      <use x="374.613281" xlink:href="#DejaVuSans-108"/>
      <use x="402.396484" xlink:href="#DejaVuSans-105"/>
      <use x="430.179688" xlink:href="#DejaVuSans-116"/>
      <use x="469.388672" xlink:href="#DejaVuSans-121"/>
      <use x="528.568359" xlink:href="#DejaVuSans-32"/>
      <use x="560.355469" xlink:href="#DejaVuSans-111"/>
      <use x="621.537109" xlink:href="#DejaVuSans-102"/>
      <use x="656.742188" xlink:href="#DejaVuSans-32"/>
      <use x="688.529297" xlink:href="#DejaVuSans-67"/>
      <use x="758.353516" xlink:href="#DejaVuSans-111"/>
      <use x="819.535156" xlink:href="#DejaVuSans-110"/>
      <use x="882.914062" xlink:href="#DejaVuSans-110"/>
      <use x="946.292969" xlink:href="#DejaVuSans-101"/>
      <use x="1007.816406" xlink:href="#DejaVuSans-99"/>
      <use x="1062.796875" xlink:href="#DejaVuSans-116"/>
      <use x="1102.005859" xlink:href="#DejaVuSans-105"/>
      <use x="1129.789062" xlink:href="#DejaVuSans-111"/>
      <use x="1190.970703" xlink:href="#DejaVuSans-110"/>
     </g>
    </g>
   </g>
   <g id="matplotlib.axis_2">
    <g id="ytick_1">
     <g id="line2d_7">
      <defs>
       <path d="M 0 0 
L -3.5 0 
" id="mcdcbee47d1" style="stroke:#000000;stroke-width:0.8;"/>
      </defs>
      <g>
       <use style="stroke:#000000;stroke-width:0.8;" x="144" xlink:href="#mcdcbee47d1" y="428.368696"/>
      </g>
     </g>
     <g id="text_8">
      <!-- 50000 -->
      <g transform="translate(60.65 437.486821)scale(0.24 -0.24)">
       <defs>
        <path d="M 10.796875 72.90625 
L 49.515625 72.90625 
L 49.515625 64.59375 
L 19.828125 64.59375 
L 19.828125 46.734375 
Q 21.96875 47.46875 24.109375 47.828125 
Q 26.265625 48.1875 28.421875 48.1875 
Q 40.625 48.1875 47.75 41.5 
Q 54.890625 34.8125 54.890625 23.390625 
Q 54.890625 11.625 47.5625 5.09375 
Q 40.234375 -1.421875 26.90625 -1.421875 
Q 22.3125 -1.421875 17.546875 -0.640625 
Q 12.796875 0.140625 7.71875 1.703125 
L 7.71875 11.625 
Q 12.109375 9.234375 16.796875 8.0625 
Q 21.484375 6.890625 26.703125 6.890625 
Q 35.15625 6.890625 40.078125 11.328125 
Q 45.015625 15.765625 45.015625 23.390625 
Q 45.015625 31 40.078125 35.4375 
Q 35.15625 39.890625 26.703125 39.890625 
Q 22.75 39.890625 18.8125 39.015625 
Q 14.890625 38.140625 10.796875 36.28125 
z
" id="DejaVuSans-53"/>
       </defs>
       <use xlink:href="#DejaVuSans-53"/>
       <use x="63.623047" xlink:href="#DejaVuSans-48"/>
       <use x="127.246094" xlink:href="#DejaVuSans-48"/>
       <use x="190.869141" xlink:href="#DejaVuSans-48"/>
       <use x="254.492188" xlink:href="#DejaVuSans-48"/>
      </g>
     </g>
    </g>
    <g id="ytick_2">
     <g id="line2d_8">
      <g>
       <use style="stroke:#000000;stroke-width:0.8;" x="144" xlink:href="#mcdcbee47d1" y="333.829565"/>
      </g>
     </g>
     <g id="text_9">
      <!-- 60000 -->
      <g transform="translate(60.65 342.94769)scale(0.24 -0.24)">
       <use xlink:href="#DejaVuSans-54"/>
       <use x="63.623047" xlink:href="#DejaVuSans-48"/>
       <use x="127.246094" xlink:href="#DejaVuSans-48"/>
       <use x="190.869141" xlink:href="#DejaVuSans-48"/>
       <use x="254.492188" xlink:href="#DejaVuSans-48"/>
      </g>
     </g>
    </g>
    <g id="ytick_3">
     <g id="line2d_9">
      <g>
       <use style="stroke:#000000;stroke-width:0.8;" x="144" xlink:href="#mcdcbee47d1" y="239.290435"/>
      </g>
     </g>
     <g id="text_10">
      <!-- 70000 -->
      <g transform="translate(60.65 248.40856)scale(0.24 -0.24)">
       <defs>
        <path d="M 8.203125 72.90625 
L 55.078125 72.90625 
L 55.078125 68.703125 
L 28.609375 0 
L 18.3125 0 
L 43.21875 64.59375 
L 8.203125 64.59375 
z
" id="DejaVuSans-55"/>
       </defs>
       <use xlink:href="#DejaVuSans-55"/>
       <use x="63.623047" xlink:href="#DejaVuSans-48"/>
       <use x="127.246094" xlink:href="#DejaVuSans-48"/>
       <use x="190.869141" xlink:href="#DejaVuSans-48"/>
       <use x="254.492188" xlink:href="#DejaVuSans-48"/>
      </g>
     </g>
    </g>
    <g id="ytick_4">
     <g id="line2d_10">
      <g>
       <use style="stroke:#000000;stroke-width:0.8;" x="144" xlink:href="#mcdcbee47d1" y="144.751304"/>
      </g>
     </g>
     <g id="text_11">
      <!-- 80000 -->
      <g transform="translate(60.65 153.869429)scale(0.24 -0.24)">
       <use xlink:href="#DejaVuSans-56"/>
       <use x="63.623047" xlink:href="#DejaVuSans-48"/>
       <use x="127.246094" xlink:href="#DejaVuSans-48"/>
       <use x="190.869141" xlink:href="#DejaVuSans-48"/>
       <use x="254.492188" xlink:href="#DejaVuSans-48"/>
      </g>
     </g>
    </g>
    <g id="text_12">
     <!-- Energy /a.u. -->
     <g transform="translate(50.826875 371.09375)rotate(-90)scale(0.28 -0.28)">
      <defs>
       <path d="M 9.8125 72.90625 
L 55.90625 72.90625 
L 55.90625 64.59375 
L 19.671875 64.59375 
L 19.671875 43.015625 
L 54.390625 43.015625 
L 54.390625 34.71875 
L 19.671875 34.71875 
L 19.671875 8.296875 
L 56.78125 8.296875 
L 56.78125 0 
L 9.8125 0 
z
" id="DejaVuSans-69"/>
       <path d="M 45.40625 27.984375 
Q 45.40625 37.75 41.375 43.109375 
Q 37.359375 48.484375 30.078125 48.484375 
Q 22.859375 48.484375 18.828125 43.109375 
Q 14.796875 37.75 14.796875 27.984375 
Q 14.796875 18.265625 18.828125 12.890625 
Q 22.859375 7.515625 30.078125 7.515625 
Q 37.359375 7.515625 41.375 12.890625 
Q 45.40625 18.265625 45.40625 27.984375 
z
M 54.390625 6.78125 
Q 54.390625 -7.171875 48.1875 -13.984375 
Q 42 -20.796875 29.203125 -20.796875 
Q 24.46875 -20.796875 20.265625 -20.09375 
Q 16.0625 -19.390625 12.109375 -17.921875 
L 12.109375 -9.1875 
Q 16.0625 -11.328125 19.921875 -12.34375 
Q 23.78125 -13.375 27.78125 -13.375 
Q 36.625 -13.375 41.015625 -8.765625 
Q 45.40625 -4.15625 45.40625 5.171875 
L 45.40625 9.625 
Q 42.625 4.78125 38.28125 2.390625 
Q 33.9375 0 27.875 0 
Q 17.828125 0 11.671875 7.65625 
Q 5.515625 15.328125 5.515625 27.984375 
Q 5.515625 40.671875 11.671875 48.328125 
Q 17.828125 56 27.875 56 
Q 33.9375 56 38.28125 53.609375 
Q 42.625 51.21875 45.40625 46.390625 
L 45.40625 54.6875 
L 54.390625 54.6875 
z
" id="DejaVuSans-103"/>
       <path d="M 25.390625 72.90625 
L 33.6875 72.90625 
L 8.296875 -9.28125 
L 0 -9.28125 
z
" id="DejaVuSans-47"/>
       <path d="M 8.5 21.578125 
L 8.5 54.6875 
L 17.484375 54.6875 
L 17.484375 21.921875 
Q 17.484375 14.15625 20.5 10.265625 
Q 23.53125 6.390625 29.59375 6.390625 
Q 36.859375 6.390625 41.078125 11.03125 
Q 45.3125 15.671875 45.3125 23.6875 
L 45.3125 54.6875 
L 54.296875 54.6875 
L 54.296875 0 
L 45.3125 0 
L 45.3125 8.40625 
Q 42.046875 3.421875 37.71875 1 
Q 33.40625 -1.421875 27.6875 -1.421875 
Q 18.265625 -1.421875 13.375 4.4375 
Q 8.5 10.296875 8.5 21.578125 
z
M 31.109375 56 
z
" id="DejaVuSans-117"/>
      </defs>
      <use xlink:href="#DejaVuSans-69"/>
      <use x="63.183594" xlink:href="#DejaVuSans-110"/>
      <use x="126.5625" xlink:href="#DejaVuSans-101"/>
      <use x="188.085938" xlink:href="#DejaVuSans-114"/>
      <use x="227.449219" xlink:href="#DejaVuSans-103"/>
      <use x="290.925781" xlink:href="#DejaVuSans-121"/>
      <use x="350.105469" xlink:href="#DejaVuSans-32"/>
      <use x="381.892578" xlink:href="#DejaVuSans-47"/>
      <use x="415.583984" xlink:href="#DejaVuSans-97"/>
      <use x="476.863281" xlink:href="#DejaVuSans-46"/>
      <use x="508.650391" xlink:href="#DejaVuSans-117"/>
      <use x="572.029297" xlink:href="#DejaVuSans-46"/>
     </g>
    </g>
   </g>
   <g id="LineCollection_1">
    <path clip-path="url(#pea1bb73a3b)" d="M 762.772277 433.754527 
L 762.772277 475.715423 
" style="fill:none;stroke:#ffc36e;stroke-dasharray:18.5,8;stroke-dashoffset:0;stroke-width:5;"/>
   </g>
   <g id="LineCollection_2">
    <path clip-path="url(#pea1bb73a3b)" d="M 895.366337 413.011026 
L 895.366337 439.470704 
" style="fill:none;stroke:#ffa0f0;stroke-dasharray:18.5,8;stroke-dashoffset:0;stroke-width:5;"/>
   </g>
   <g id="LineCollection_3">
    <path clip-path="url(#pea1bb73a3b)" d="M 364.990099 374.327697 
L 364.990099 149.643255 
" style="fill:none;stroke:#ff7a6e;stroke-dasharray:18.5,8;stroke-dashoffset:0;stroke-width:5;"/>
   </g>
   <g id="LineCollection_4">
    <path clip-path="url(#pea1bb73a3b)" d="M 320.792079 406.534047 
L 320.792079 475.120954 
" style="fill:none;stroke:#9deaff;stroke-dasharray:18.5,8;stroke-dashoffset:0;stroke-width:5;"/>
   </g>
   <g id="LineCollection_5">
    <path clip-path="url(#pea1bb73a3b)" d="M 409.188119 314.550203 
L 409.188119 111.798995 
" style="fill:none;stroke:#c49fff;stroke-dasharray:18.5,8;stroke-dashoffset:0;stroke-width:5;"/>
   </g>
   <g id="LineCollection_6">
    <path clip-path="url(#pea1bb73a3b)" d="M 409.188119 332.026233 
L 409.188119 445.420783 
" style="fill:none;stroke:#9fb7ff;stroke-dasharray:18.5,8;stroke-dashoffset:0;stroke-width:5;"/>
   </g>
   <g id="line2d_11">
    <defs>
     <path d="M 0 6.25 
C 1.657519 6.25 3.247374 5.591461 4.419417 4.419417 
C 5.591461 3.247374 6.25 1.657519 6.25 0 
C 6.25 -1.657519 5.591461 -3.247374 4.419417 -4.419417 
C 3.247374 -5.591461 1.657519 -6.25 0 -6.25 
C -1.657519 -6.25 -3.247374 -5.591461 -4.419417 -4.419417 
C -5.591461 -3.247374 -6.25 -1.657519 -6.25 0 
C -6.25 1.657519 -5.591461 3.247374 -4.419417 4.419417 
C -3.247374 5.591461 -1.657519 6.25 0 6.25 
z
" id="m654d866d05" style="stroke:#ffc36e;"/>
    </defs>
    <g clip-path="url(#pea1bb73a3b)">
     <use style="fill:#ffc36e;stroke:#ffc36e;" x="409.188119" xlink:href="#m654d866d05" y="351.562043"/>
     <use style="fill:#ffc36e;stroke:#ffc36e;" x="453.386139" xlink:href="#m654d866d05" y="304.156479"/>
     <use style="fill:#ffc36e;stroke:#ffc36e;" x="497.584158" xlink:href="#m654d866d05" y="364.627464"/>
     <use style="fill:#ffc36e;stroke:#ffc36e;" x="541.782178" xlink:href="#m654d866d05" y="432.443927"/>
     <use style="fill:#ffc36e;stroke:#ffc36e;" x="585.980198" xlink:href="#m654d866d05" y="362.773988"/>
     <use style="fill:#ffc36e;stroke:#ffc36e;" x="630.178218" xlink:href="#m654d866d05" y="296.091076"/>
     <use style="fill:#ffc36e;stroke:#ffc36e;" x="674.376238" xlink:href="#m654d866d05" y="368.803748"/>
     <use style="fill:#ffc36e;stroke:#ffc36e;" x="718.574257" xlink:href="#m654d866d05" y="387.907603"/>
     <use style="fill:#ffc36e;stroke:#ffc36e;" x="762.772277" xlink:href="#m654d866d05" y="433.754527"/>
     <use style="fill:#ffc36e;stroke:#ffc36e;" x="806.970297" xlink:href="#m654d866d05" y="418.548875"/>
     <use style="fill:#ffc36e;stroke:#ffc36e;" x="851.168317" xlink:href="#m654d866d05" y="396.762502"/>
     <use style="fill:#ffc36e;stroke:#ffc36e;" x="895.366337" xlink:href="#m654d866d05" y="411.173781"/>
     <use style="fill:#ffc36e;stroke:#ffc36e;" x="939.564356" xlink:href="#m654d866d05" y="379.795691"/>
     <use style="fill:#ffc36e;stroke:#ffc36e;" x="983.762376" xlink:href="#m654d866d05" y="427.275492"/>
     <use style="fill:#ffc36e;stroke:#ffc36e;" x="1027.960396" xlink:href="#m654d866d05" y="392.973603"/>
    </g>
   </g>
   <g id="line2d_12">
    <path clip-path="url(#pea1bb73a3b)" d="M 409.188119 351.562043 
L 453.386139 367.075957 
L 497.584158 386.615126 
L 541.782178 363.769664 
L 585.980198 342.556271 
L 630.178218 350.934142 
L 674.376238 396.821959 
L 718.574257 413.403668 
L 762.772277 416.355301 
L 806.970297 408.828386 
L 851.168317 395.910658 
L 895.366337 406.081655 
L 939.564356 400.014929 
L 983.762376 427.275492 
L 1027.960396 392.973603 
" style="fill:none;stroke:#ff9500;stroke-linecap:square;stroke-width:5;"/>
   </g>
   <g id="line2d_13">
    <defs>
     <path d="M 0 6.25 
C 1.657519 6.25 3.247374 5.591461 4.419417 4.419417 
C 5.591461 3.247374 6.25 1.657519 6.25 0 
C 6.25 -1.657519 5.591461 -3.247374 4.419417 -4.419417 
C 3.247374 -5.591461 1.657519 -6.25 0 -6.25 
C -1.657519 -6.25 -3.247374 -5.591461 -4.419417 -4.419417 
C -5.591461 -3.247374 -6.25 -1.657519 -6.25 0 
C -6.25 1.657519 -5.591461 3.247374 -4.419417 4.419417 
C -3.247374 5.591461 -1.657519 6.25 0 6.25 
z
" id="m824bd17453" style="stroke:#ffa0f0;"/>
    </defs>
    <g clip-path="url(#pea1bb73a3b)">
     <use style="fill:#ffa0f0;stroke:#ffa0f0;" x="364.990099" xlink:href="#m824bd17453" y="321.951601"/>
     <use style="fill:#ffa0f0;stroke:#ffa0f0;" x="409.188119" xlink:href="#m824bd17453" y="288.208095"/>
     <use style="fill:#ffa0f0;stroke:#ffa0f0;" x="453.386139" xlink:href="#m824bd17453" y="332.323644"/>
     <use style="fill:#ffa0f0;stroke:#ffa0f0;" x="497.584158" xlink:href="#m824bd17453" y="321.43131"/>
     <use style="fill:#ffa0f0;stroke:#ffa0f0;" x="541.782178" xlink:href="#m824bd17453" y="308.635749"/>
     <use style="fill:#ffa0f0;stroke:#ffa0f0;" x="585.980198" xlink:href="#m824bd17453" y="307.495656"/>
     <use style="fill:#ffa0f0;stroke:#ffa0f0;" x="630.178218" xlink:href="#m824bd17453" y="398.637409"/>
     <use style="fill:#ffa0f0;stroke:#ffa0f0;" x="674.376238" xlink:href="#m824bd17453" y="397.057723"/>
     <use style="fill:#ffa0f0;stroke:#ffa0f0;" x="718.574257" xlink:href="#m824bd17453" y="393.085015"/>
     <use style="fill:#ffa0f0;stroke:#ffa0f0;" x="762.772277" xlink:href="#m824bd17453" y="378.239946"/>
     <use style="fill:#ffa0f0;stroke:#ffa0f0;" x="806.970297" xlink:href="#m824bd17453" y="406.725351"/>
     <use style="fill:#ffa0f0;stroke:#ffa0f0;" x="851.168317" xlink:href="#m824bd17453" y="398.562897"/>
     <use style="fill:#ffa0f0;stroke:#ffa0f0;" x="895.366337" xlink:href="#m824bd17453" y="413.011026"/>
     <use style="fill:#ffa0f0;stroke:#ffa0f0;" x="939.564356" xlink:href="#m824bd17453" y="397.364758"/>
     <use style="fill:#ffa0f0;stroke:#ffa0f0;" x="983.762376" xlink:href="#m824bd17453" y="408.015248"/>
     <use style="fill:#ffa0f0;stroke:#ffa0f0;" x="1027.960396" xlink:href="#m824bd17453" y="403.28776"/>
    </g>
   </g>
   <g id="line2d_14">
    <path clip-path="url(#pea1bb73a3b)" d="M 364.990099 321.951601 
L 409.188119 313.987683 
L 453.386139 320.796901 
L 497.584158 312.520905 
L 541.782178 338.256271 
L 585.980198 367.730263 
L 630.178218 396.260049 
L 674.376238 389.460895 
L 718.574257 392.683437 
L 762.772277 394.509398 
L 806.970297 406.099758 
L 851.168317 402.97956 
L 895.366337 406.130344 
L 939.564356 402.889255 
L 983.762376 408.015248 
L 1027.960396 403.28776 
" style="fill:none;stroke:#ff15ff;stroke-linecap:square;stroke-width:5;"/>
   </g>
   <g id="line2d_15">
    <defs>
     <path d="M 0 6.25 
C 1.657519 6.25 3.247374 5.591461 4.419417 4.419417 
C 5.591461 3.247374 6.25 1.657519 6.25 0 
C 6.25 -1.657519 5.591461 -3.247374 4.419417 -4.419417 
C 3.247374 -5.591461 1.657519 -6.25 0 -6.25 
C -1.657519 -6.25 -3.247374 -5.591461 -4.419417 -4.419417 
C -5.591461 -3.247374 -6.25 -1.657519 -6.25 0 
C -6.25 1.657519 -5.591461 3.247374 -4.419417 4.419417 
C -3.247374 5.591461 -1.657519 6.25 0 6.25 
z
" id="m50ab46815e" style="stroke:#ff7a6e;"/>
    </defs>
    <g clip-path="url(#pea1bb73a3b)">
     <use style="fill:#ff7a6e;stroke:#ff7a6e;" x="320.792079" xlink:href="#m50ab46815e" y="348.722791"/>
     <use style="fill:#ff7a6e;stroke:#ff7a6e;" x="364.990099" xlink:href="#m50ab46815e" y="374.327697"/>
     <use style="fill:#ff7a6e;stroke:#ff7a6e;" x="409.188119" xlink:href="#m50ab46815e" y="320.098027"/>
     <use style="fill:#ff7a6e;stroke:#ff7a6e;" x="453.386139" xlink:href="#m50ab46815e" y="332.011587"/>
     <use style="fill:#ff7a6e;stroke:#ff7a6e;" x="497.584158" xlink:href="#m50ab46815e" y="299.454575"/>
     <use style="fill:#ff7a6e;stroke:#ff7a6e;" x="541.782178" xlink:href="#m50ab46815e" y="318.160435"/>
     <use style="fill:#ff7a6e;stroke:#ff7a6e;" x="585.980198" xlink:href="#m50ab46815e" y="305.963828"/>
     <use style="fill:#ff7a6e;stroke:#ff7a6e;" x="630.178218" xlink:href="#m50ab46815e" y="299.833318"/>
     <use style="fill:#ff7a6e;stroke:#ff7a6e;" x="674.376238" xlink:href="#m50ab46815e" y="322.011328"/>
     <use style="fill:#ff7a6e;stroke:#ff7a6e;" x="718.574257" xlink:href="#m50ab46815e" y="308.368736"/>
     <use style="fill:#ff7a6e;stroke:#ff7a6e;" x="762.772277" xlink:href="#m50ab46815e" y="294.757072"/>
     <use style="fill:#ff7a6e;stroke:#ff7a6e;" x="806.970297" xlink:href="#m50ab46815e" y="289.187024"/>
     <use style="fill:#ff7a6e;stroke:#ff7a6e;" x="851.168317" xlink:href="#m50ab46815e" y="253.636299"/>
     <use style="fill:#ff7a6e;stroke:#ff7a6e;" x="895.366337" xlink:href="#m50ab46815e" y="289.675644"/>
     <use style="fill:#ff7a6e;stroke:#ff7a6e;" x="939.564356" xlink:href="#m50ab46815e" y="281.087206"/>
     <use style="fill:#ff7a6e;stroke:#ff7a6e;" x="983.762376" xlink:href="#m50ab46815e" y="288.908517"/>
     <use style="fill:#ff7a6e;stroke:#ff7a6e;" x="1027.960396" xlink:href="#m50ab46815e" y="279.657255"/>
    </g>
   </g>
   <g id="line2d_16">
    <path clip-path="url(#pea1bb73a3b)" d="M 320.792079 348.722791 
L 364.990099 342.14577 
L 409.188119 317.188063 
L 453.386139 316.542199 
L 497.584158 307.859612 
L 541.782178 307.98586 
L 585.980198 309.269491 
L 630.178218 310.071128 
L 674.376238 308.379045 
L 718.574257 297.437611 
L 762.772277 279.193465 
L 806.970297 277.499656 
L 851.168317 274.799716 
L 895.366337 286.557122 
L 939.564356 283.217659 
L 983.762376 288.908517 
L 1027.960396 279.657255 
" style="fill:none;stroke:#ff1500;stroke-linecap:square;stroke-width:5;"/>
   </g>
   <g id="line2d_17">
    <defs>
     <path d="M 0 6.25 
C 1.657519 6.25 3.247374 5.591461 4.419417 4.419417 
C 5.591461 3.247374 6.25 1.657519 6.25 0 
C 6.25 -1.657519 5.591461 -3.247374 4.419417 -4.419417 
C 3.247374 -5.591461 1.657519 -6.25 0 -6.25 
C -1.657519 -6.25 -3.247374 -5.591461 -4.419417 -4.419417 
C -5.591461 -3.247374 -6.25 -1.657519 -6.25 0 
C -6.25 1.657519 -5.591461 3.247374 -4.419417 4.419417 
C -3.247374 5.591461 -1.657519 6.25 0 6.25 
z
" id="mc074a50c21" style="stroke:#9deaff;"/>
    </defs>
    <g clip-path="url(#pea1bb73a3b)">
     <use style="fill:#9deaff;stroke:#9deaff;" x="320.792079" xlink:href="#mc074a50c21" y="406.534047"/>
     <use style="fill:#9deaff;stroke:#9deaff;" x="364.990099" xlink:href="#mc074a50c21" y="341.770088"/>
     <use style="fill:#9deaff;stroke:#9deaff;" x="409.188119" xlink:href="#mc074a50c21" y="292.058571"/>
     <use style="fill:#9deaff;stroke:#9deaff;" x="453.386139" xlink:href="#mc074a50c21" y="248.362783"/>
     <use style="fill:#9deaff;stroke:#9deaff;" x="497.584158" xlink:href="#mc074a50c21" y="278.344234"/>
     <use style="fill:#9deaff;stroke:#9deaff;" x="541.782178" xlink:href="#mc074a50c21" y="270.732715"/>
     <use style="fill:#9deaff;stroke:#9deaff;" x="585.980198" xlink:href="#mc074a50c21" y="231.782962"/>
     <use style="fill:#9deaff;stroke:#9deaff;" x="630.178218" xlink:href="#mc074a50c21" y="265.202623"/>
     <use style="fill:#9deaff;stroke:#9deaff;" x="674.376238" xlink:href="#mc074a50c21" y="254.103688"/>
     <use style="fill:#9deaff;stroke:#9deaff;" x="718.574257" xlink:href="#mc074a50c21" y="252.392329"/>
     <use style="fill:#9deaff;stroke:#9deaff;" x="762.772277" xlink:href="#mc074a50c21" y="233.06061"/>
     <use style="fill:#9deaff;stroke:#9deaff;" x="806.970297" xlink:href="#mc074a50c21" y="231.196186"/>
     <use style="fill:#9deaff;stroke:#9deaff;" x="851.168317" xlink:href="#mc074a50c21" y="217.922086"/>
     <use style="fill:#9deaff;stroke:#9deaff;" x="895.366337" xlink:href="#mc074a50c21" y="240.446365"/>
     <use style="fill:#9deaff;stroke:#9deaff;" x="939.564356" xlink:href="#mc074a50c21" y="215.361864"/>
     <use style="fill:#9deaff;stroke:#9deaff;" x="983.762376" xlink:href="#mc074a50c21" y="195.981115"/>
     <use style="fill:#9deaff;stroke:#9deaff;" x="1027.960396" xlink:href="#mc074a50c21" y="191.503562"/>
    </g>
   </g>
   <g id="line2d_18">
    <path clip-path="url(#pea1bb73a3b)" d="M 320.792079 406.534047 
L 364.990099 294.063814 
L 409.188119 272.921863 
L 453.386139 265.813244 
L 497.584158 260.286637 
L 541.782178 255.9061 
L 585.980198 250.363091 
L 630.178218 257.23288 
L 674.376238 246.518876 
L 718.574257 238.883042 
L 762.772277 227.392961 
L 806.970297 229.854879 
L 851.168317 224.576772 
L 895.366337 217.263115 
L 939.564356 200.948847 
L 983.762376 195.981115 
L 1027.960396 191.503562 
" style="fill:none;stroke:#2ecbff;stroke-linecap:square;stroke-width:5;"/>
   </g>
   <g id="line2d_19">
    <defs>
     <path d="M 0 6.25 
C 1.657519 6.25 3.247374 5.591461 4.419417 4.419417 
C 5.591461 3.247374 6.25 1.657519 6.25 0 
C 6.25 -1.657519 5.591461 -3.247374 4.419417 -4.419417 
C 3.247374 -5.591461 1.657519 -6.25 0 -6.25 
C -1.657519 -6.25 -3.247374 -5.591461 -4.419417 -4.419417 
C -5.591461 -3.247374 -6.25 -1.657519 -6.25 0 
C -6.25 1.657519 -5.591461 3.247374 -4.419417 4.419417 
C -3.247374 5.591461 -1.657519 6.25 0 6.25 
z
" id="mc092239a9e" style="stroke:#c49fff;"/>
    </defs>
    <g clip-path="url(#pea1bb73a3b)">
     <use style="fill:#c49fff;stroke:#c49fff;" x="276.594059" xlink:href="#mc092239a9e" y="312.757397"/>
     <use style="fill:#c49fff;stroke:#c49fff;" x="320.792079" xlink:href="#mc092239a9e" y="307.246438"/>
     <use style="fill:#c49fff;stroke:#c49fff;" x="364.990099" xlink:href="#mc092239a9e" y="305.69658"/>
     <use style="fill:#c49fff;stroke:#c49fff;" x="409.188119" xlink:href="#mc092239a9e" y="314.550203"/>
     <use style="fill:#c49fff;stroke:#c49fff;" x="453.386139" xlink:href="#mc092239a9e" y="288.89683"/>
     <use style="fill:#c49fff;stroke:#c49fff;" x="497.584158" xlink:href="#mc092239a9e" y="249.250087"/>
     <use style="fill:#c49fff;stroke:#c49fff;" x="541.782178" xlink:href="#mc092239a9e" y="246.908709"/>
     <use style="fill:#c49fff;stroke:#c49fff;" x="585.980198" xlink:href="#mc092239a9e" y="231.611363"/>
     <use style="fill:#c49fff;stroke:#c49fff;" x="630.178218" xlink:href="#mc092239a9e" y="187.039869"/>
     <use style="fill:#c49fff;stroke:#c49fff;" x="674.376238" xlink:href="#mc092239a9e" y="180.240845"/>
     <use style="fill:#c49fff;stroke:#c49fff;" x="718.574257" xlink:href="#mc092239a9e" y="201.604854"/>
     <use style="fill:#c49fff;stroke:#c49fff;" x="762.772277" xlink:href="#mc092239a9e" y="182.928811"/>
     <use style="fill:#c49fff;stroke:#c49fff;" x="806.970297" xlink:href="#mc092239a9e" y="190.61854"/>
     <use style="fill:#c49fff;stroke:#c49fff;" x="851.168317" xlink:href="#mc092239a9e" y="194.94781"/>
     <use style="fill:#c49fff;stroke:#c49fff;" x="895.366337" xlink:href="#mc092239a9e" y="191.647094"/>
     <use style="fill:#c49fff;stroke:#c49fff;" x="939.564356" xlink:href="#mc092239a9e" y="155.712239"/>
     <use style="fill:#c49fff;stroke:#c49fff;" x="983.762376" xlink:href="#mc092239a9e" y="168.497352"/>
     <use style="fill:#c49fff;stroke:#c49fff;" x="1027.960396" xlink:href="#mc092239a9e" y="149.614648"/>
    </g>
   </g>
   <g id="line2d_20">
    <path clip-path="url(#pea1bb73a3b)" d="M 276.594059 312.757397 
L 320.792079 309.164407 
L 364.990099 303.047871 
L 409.188119 284.232373 
L 453.386139 261.685209 
L 497.584158 242.590053 
L 541.782178 221.853314 
L 585.980198 199.630693 
L 630.178218 189.628523 
L 674.376238 188.25817 
L 718.574257 191.717402 
L 762.772277 189.498387 
L 806.970297 192.404481 
L 851.168317 180.769048 
L 895.366337 171.952229 
L 939.564356 157.941413 
L 983.762376 168.497352 
L 1027.960396 149.614648 
" style="fill:none;stroke:#9041ff;stroke-linecap:square;stroke-width:5;"/>
   </g>
   <g id="line2d_21">
    <defs>
     <path d="M 0 6.25 
C 1.657519 6.25 3.247374 5.591461 4.419417 4.419417 
C 5.591461 3.247374 6.25 1.657519 6.25 0 
C 6.25 -1.657519 5.591461 -3.247374 4.419417 -4.419417 
C 3.247374 -5.591461 1.657519 -6.25 0 -6.25 
C -1.657519 -6.25 -3.247374 -5.591461 -4.419417 -4.419417 
C -5.591461 -3.247374 -6.25 -1.657519 -6.25 0 
C -6.25 1.657519 -5.591461 3.247374 -4.419417 4.419417 
C -3.247374 5.591461 -1.657519 6.25 0 6.25 
z
" id="m46a28a7955" style="stroke:#9fb7ff;"/>
    </defs>
    <g clip-path="url(#pea1bb73a3b)">
     <use style="fill:#9fb7ff;stroke:#9fb7ff;" x="276.594059" xlink:href="#m46a28a7955" y="223.821367"/>
     <use style="fill:#9fb7ff;stroke:#9fb7ff;" x="320.792079" xlink:href="#m46a28a7955" y="269.980062"/>
     <use style="fill:#9fb7ff;stroke:#9fb7ff;" x="364.990099" xlink:href="#m46a28a7955" y="270.496108"/>
     <use style="fill:#9fb7ff;stroke:#9fb7ff;" x="409.188119" xlink:href="#m46a28a7955" y="332.026233"/>
     <use style="fill:#9fb7ff;stroke:#9fb7ff;" x="453.386139" xlink:href="#m46a28a7955" y="222.359451"/>
     <use style="fill:#9fb7ff;stroke:#9fb7ff;" x="497.584158" xlink:href="#m46a28a7955" y="216.848914"/>
     <use style="fill:#9fb7ff;stroke:#9fb7ff;" x="541.782178" xlink:href="#m46a28a7955" y="237.122228"/>
     <use style="fill:#9fb7ff;stroke:#9fb7ff;" x="585.980198" xlink:href="#m46a28a7955" y="158.469516"/>
     <use style="fill:#9fb7ff;stroke:#9fb7ff;" x="630.178218" xlink:href="#m46a28a7955" y="190.20286"/>
     <use style="fill:#9fb7ff;stroke:#9fb7ff;" x="674.376238" xlink:href="#m46a28a7955" y="183.237655"/>
     <use style="fill:#9fb7ff;stroke:#9fb7ff;" x="718.574257" xlink:href="#m46a28a7955" y="200.672987"/>
     <use style="fill:#9fb7ff;stroke:#9fb7ff;" x="762.772277" xlink:href="#m46a28a7955" y="142.246765"/>
     <use style="fill:#9fb7ff;stroke:#9fb7ff;" x="806.970297" xlink:href="#m46a28a7955" y="81.445131"/>
     <use style="fill:#9fb7ff;stroke:#9fb7ff;" x="851.168317" xlink:href="#m46a28a7955" y="123.903064"/>
     <use style="fill:#9fb7ff;stroke:#9fb7ff;" x="895.366337" xlink:href="#m46a28a7955" y="182.210645"/>
     <use style="fill:#9fb7ff;stroke:#9fb7ff;" x="939.564356" xlink:href="#m46a28a7955" y="119.532728"/>
     <use style="fill:#9fb7ff;stroke:#9fb7ff;" x="983.762376" xlink:href="#m46a28a7955" y="106.176236"/>
     <use style="fill:#9fb7ff;stroke:#9fb7ff;" x="1027.960396" xlink:href="#m46a28a7955" y="121.81266"/>
    </g>
   </g>
   <g id="line2d_22">
    <path clip-path="url(#pea1bb73a3b)" d="M 276.594059 223.821367 
L 320.792079 290.834134 
L 364.990099 274.960597 
L 409.188119 257.078199 
L 453.386139 225.443531 
L 497.584158 204.146886 
L 541.782178 195.264868 
L 585.980198 177.303344 
L 630.178218 191.371168 
L 674.376238 175.385802 
L 718.574257 141.454961 
L 762.772277 115.864987 
L 806.970297 129.18628 
L 851.168317 141.882146 
L 895.366337 135.973203 
L 939.564356 115.840542 
L 983.762376 106.176236 
L 1027.960396 121.81266 
" style="fill:none;stroke:#4161ff;stroke-linecap:square;stroke-width:5;"/>
   </g>
   <g id="patch_3">
    <path d="M 144 504 
L 144 69.12 
" style="fill:none;stroke:#000000;stroke-linecap:square;stroke-linejoin:miter;stroke-width:0.8;"/>
   </g>
   <g id="patch_4">
    <path d="M 1036.8 504 
L 1036.8 69.12 
" style="fill:none;stroke:#000000;stroke-linecap:square;stroke-linejoin:miter;stroke-width:0.8;"/>
   </g>
   <g id="patch_5">
    <path d="M 144 504 
L 1036.8 504 
" style="fill:none;stroke:#000000;stroke-linecap:square;stroke-linejoin:miter;stroke-width:0.8;"/>
   </g>
   <g id="patch_6">
    <path d="M 144 69.12 
L 1036.8 69.12 
" style="fill:none;stroke:#000000;stroke-linecap:square;stroke-linejoin:miter;stroke-width:0.8;"/>
   </g>
   <g id="text_13">
    <!-- 50: 8.0% Saved -->
    <g style="fill:#ff9500;" transform="translate(652.772277 492.889798)scale(0.26 -0.26)">
     <defs>
      <path d="M 11.71875 12.40625 
L 22.015625 12.40625 
L 22.015625 0 
L 11.71875 0 
z
M 11.71875 51.703125 
L 22.015625 51.703125 
L 22.015625 39.3125 
L 11.71875 39.3125 
z
" id="DejaVuSans-58"/>
      <path d="M 72.703125 32.078125 
Q 68.453125 32.078125 66.03125 28.46875 
Q 63.625 24.859375 63.625 18.40625 
Q 63.625 12.0625 66.03125 8.421875 
Q 68.453125 4.78125 72.703125 4.78125 
Q 76.859375 4.78125 79.265625 8.421875 
Q 81.6875 12.0625 81.6875 18.40625 
Q 81.6875 24.8125 79.265625 28.4375 
Q 76.859375 32.078125 72.703125 32.078125 
z
M 72.703125 38.28125 
Q 80.421875 38.28125 84.953125 32.90625 
Q 89.5 27.546875 89.5 18.40625 
Q 89.5 9.28125 84.9375 3.921875 
Q 80.375 -1.421875 72.703125 -1.421875 
Q 64.890625 -1.421875 60.34375 3.921875 
Q 55.8125 9.28125 55.8125 18.40625 
Q 55.8125 27.59375 60.375 32.9375 
Q 64.9375 38.28125 72.703125 38.28125 
z
M 22.3125 68.015625 
Q 18.109375 68.015625 15.6875 64.375 
Q 13.28125 60.75 13.28125 54.390625 
Q 13.28125 47.953125 15.671875 44.328125 
Q 18.0625 40.71875 22.3125 40.71875 
Q 26.5625 40.71875 28.96875 44.328125 
Q 31.390625 47.953125 31.390625 54.390625 
Q 31.390625 60.6875 28.953125 64.34375 
Q 26.515625 68.015625 22.3125 68.015625 
z
M 66.40625 74.21875 
L 74.21875 74.21875 
L 28.609375 -1.421875 
L 20.796875 -1.421875 
z
M 22.3125 74.21875 
Q 30.03125 74.21875 34.609375 68.875 
Q 39.203125 63.53125 39.203125 54.390625 
Q 39.203125 45.171875 34.640625 39.84375 
Q 30.078125 34.515625 22.3125 34.515625 
Q 14.546875 34.515625 10.03125 39.859375 
Q 5.515625 45.21875 5.515625 54.390625 
Q 5.515625 63.484375 10.046875 68.84375 
Q 14.59375 74.21875 22.3125 74.21875 
z
" id="DejaVuSans-37"/>
      <path d="M 53.515625 70.515625 
L 53.515625 60.890625 
Q 47.90625 63.578125 42.921875 64.890625 
Q 37.9375 66.21875 33.296875 66.21875 
Q 25.25 66.21875 20.875 63.09375 
Q 16.5 59.96875 16.5 54.203125 
Q 16.5 49.359375 19.40625 46.890625 
Q 22.3125 44.4375 30.421875 42.921875 
L 36.375 41.703125 
Q 47.40625 39.59375 52.65625 34.296875 
Q 57.90625 29 57.90625 20.125 
Q 57.90625 9.515625 50.796875 4.046875 
Q 43.703125 -1.421875 29.984375 -1.421875 
Q 24.8125 -1.421875 18.96875 -0.25 
Q 13.140625 0.921875 6.890625 3.21875 
L 6.890625 13.375 
Q 12.890625 10.015625 18.65625 8.296875 
Q 24.421875 6.59375 29.984375 6.59375 
Q 38.421875 6.59375 43.015625 9.90625 
Q 47.609375 13.234375 47.609375 19.390625 
Q 47.609375 24.75 44.3125 27.78125 
Q 41.015625 30.8125 33.5 32.328125 
L 27.484375 33.5 
Q 16.453125 35.6875 11.515625 40.375 
Q 6.59375 45.0625 6.59375 53.421875 
Q 6.59375 63.09375 13.40625 68.65625 
Q 20.21875 74.21875 32.171875 74.21875 
Q 37.3125 74.21875 42.625 73.28125 
Q 47.953125 72.359375 53.515625 70.515625 
z
" id="DejaVuSans-83"/>
      <path d="M 2.984375 54.6875 
L 12.5 54.6875 
L 29.59375 8.796875 
L 46.6875 54.6875 
L 56.203125 54.6875 
L 35.6875 0 
L 23.484375 0 
z
" id="DejaVuSans-118"/>
      <path d="M 45.40625 46.390625 
L 45.40625 75.984375 
L 54.390625 75.984375 
L 54.390625 0 
L 45.40625 0 
L 45.40625 8.203125 
Q 42.578125 3.328125 38.25 0.953125 
Q 33.9375 -1.421875 27.875 -1.421875 
Q 17.96875 -1.421875 11.734375 6.484375 
Q 5.515625 14.40625 5.515625 27.296875 
Q 5.515625 40.1875 11.734375 48.09375 
Q 17.96875 56 27.875 56 
Q 33.9375 56 38.25 53.625 
Q 42.578125 51.265625 45.40625 46.390625 
z
M 14.796875 27.296875 
Q 14.796875 17.390625 18.875 11.75 
Q 22.953125 6.109375 30.078125 6.109375 
Q 37.203125 6.109375 41.296875 11.75 
Q 45.40625 17.390625 45.40625 27.296875 
Q 45.40625 37.203125 41.296875 42.84375 
Q 37.203125 48.484375 30.078125 48.484375 
Q 22.953125 48.484375 18.875 42.84375 
Q 14.796875 37.203125 14.796875 27.296875 
z
" id="DejaVuSans-100"/>
     </defs>
     <use xlink:href="#DejaVuSans-53"/>
     <use x="63.623047" xlink:href="#DejaVuSans-48"/>
     <use x="127.246094" xlink:href="#DejaVuSans-58"/>
     <use x="160.9375" xlink:href="#DejaVuSans-32"/>
     <use x="192.724609" xlink:href="#DejaVuSans-56"/>
     <use x="256.347656" xlink:href="#DejaVuSans-46"/>
     <use x="288.134766" xlink:href="#DejaVuSans-48"/>
     <use x="351.757812" xlink:href="#DejaVuSans-37"/>
     <use x="446.777344" xlink:href="#DejaVuSans-32"/>
     <use x="478.564453" xlink:href="#DejaVuSans-83"/>
     <use x="542.041016" xlink:href="#DejaVuSans-97"/>
     <use x="603.320312" xlink:href="#DejaVuSans-118"/>
     <use x="662.5" xlink:href="#DejaVuSans-101"/>
     <use x="724.023438" xlink:href="#DejaVuSans-100"/>
    </g>
   </g>
   <g id="text_14">
    <!-- 100: 2.0% Saved -->
    <g style="fill:#ff15ff;" transform="translate(785.366337 456.645079)scale(0.26 -0.26)">
     <use xlink:href="#DejaVuSans-49"/>
     <use x="63.623047" xlink:href="#DejaVuSans-48"/>
     <use x="127.246094" xlink:href="#DejaVuSans-48"/>
     <use x="190.869141" xlink:href="#DejaVuSans-58"/>
     <use x="224.560547" xlink:href="#DejaVuSans-32"/>
     <use x="256.347656" xlink:href="#DejaVuSans-50"/>
     <use x="319.970703" xlink:href="#DejaVuSans-46"/>
     <use x="351.757812" xlink:href="#DejaVuSans-48"/>
     <use x="415.380859" xlink:href="#DejaVuSans-37"/>
     <use x="510.400391" xlink:href="#DejaVuSans-32"/>
     <use x="542.1875" xlink:href="#DejaVuSans-83"/>
     <use x="605.664062" xlink:href="#DejaVuSans-97"/>
     <use x="666.943359" xlink:href="#DejaVuSans-118"/>
     <use x="726.123047" xlink:href="#DejaVuSans-101"/>
     <use x="787.646484" xlink:href="#DejaVuSans-100"/>
    </g>
   </g>
   <g id="text_15">
    <!-- 150: 15.2% Saved -->
    <g style="fill:#ff1500;" transform="translate(344.990099 146.81763)scale(0.26 -0.26)">
     <use xlink:href="#DejaVuSans-49"/>
     <use x="63.623047" xlink:href="#DejaVuSans-53"/>
     <use x="127.246094" xlink:href="#DejaVuSans-48"/>
     <use x="190.869141" xlink:href="#DejaVuSans-58"/>
     <use x="224.560547" xlink:href="#DejaVuSans-32"/>
     <use x="256.347656" xlink:href="#DejaVuSans-49"/>
     <use x="319.970703" xlink:href="#DejaVuSans-53"/>
     <use x="383.59375" xlink:href="#DejaVuSans-46"/>
     <use x="415.380859" xlink:href="#DejaVuSans-50"/>
     <use x="479.003906" xlink:href="#DejaVuSans-37"/>
     <use x="574.023438" xlink:href="#DejaVuSans-32"/>
     <use x="605.810547" xlink:href="#DejaVuSans-83"/>
     <use x="669.287109" xlink:href="#DejaVuSans-97"/>
     <use x="730.566406" xlink:href="#DejaVuSans-118"/>
     <use x="789.746094" xlink:href="#DejaVuSans-101"/>
     <use x="851.269531" xlink:href="#DejaVuSans-100"/>
    </g>
   </g>
   <g id="text_16">
    <!-- 200: 30.3% Saved -->
    <g style="fill:#2ecbff;" transform="translate(210.792079 492.295329)scale(0.26 -0.26)">
     <defs>
      <path d="M 40.578125 39.3125 
Q 47.65625 37.796875 51.625 33 
Q 55.609375 28.21875 55.609375 21.1875 
Q 55.609375 10.40625 48.1875 4.484375 
Q 40.765625 -1.421875 27.09375 -1.421875 
Q 22.515625 -1.421875 17.65625 -0.515625 
Q 12.796875 0.390625 7.625 2.203125 
L 7.625 11.71875 
Q 11.71875 9.328125 16.59375 8.109375 
Q 21.484375 6.890625 26.8125 6.890625 
Q 36.078125 6.890625 40.9375 10.546875 
Q 45.796875 14.203125 45.796875 21.1875 
Q 45.796875 27.640625 41.28125 31.265625 
Q 36.765625 34.90625 28.71875 34.90625 
L 20.21875 34.90625 
L 20.21875 43.015625 
L 29.109375 43.015625 
Q 36.375 43.015625 40.234375 45.921875 
Q 44.09375 48.828125 44.09375 54.296875 
Q 44.09375 59.90625 40.109375 62.90625 
Q 36.140625 65.921875 28.71875 65.921875 
Q 24.65625 65.921875 20.015625 65.03125 
Q 15.375 64.15625 9.8125 62.3125 
L 9.8125 71.09375 
Q 15.4375 72.65625 20.34375 73.4375 
Q 25.25 74.21875 29.59375 74.21875 
Q 40.828125 74.21875 47.359375 69.109375 
Q 53.90625 64.015625 53.90625 55.328125 
Q 53.90625 49.265625 50.4375 45.09375 
Q 46.96875 40.921875 40.578125 39.3125 
z
" id="DejaVuSans-51"/>
     </defs>
     <use xlink:href="#DejaVuSans-50"/>
     <use x="63.623047" xlink:href="#DejaVuSans-48"/>
     <use x="127.246094" xlink:href="#DejaVuSans-48"/>
     <use x="190.869141" xlink:href="#DejaVuSans-58"/>
     <use x="224.560547" xlink:href="#DejaVuSans-32"/>
     <use x="256.347656" xlink:href="#DejaVuSans-51"/>
     <use x="319.970703" xlink:href="#DejaVuSans-48"/>
     <use x="383.59375" xlink:href="#DejaVuSans-46"/>
     <use x="415.380859" xlink:href="#DejaVuSans-51"/>
     <use x="479.003906" xlink:href="#DejaVuSans-37"/>
     <use x="574.023438" xlink:href="#DejaVuSans-32"/>
     <use x="605.810547" xlink:href="#DejaVuSans-83"/>
     <use x="669.287109" xlink:href="#DejaVuSans-97"/>
     <use x="730.566406" xlink:href="#DejaVuSans-118"/>
     <use x="789.746094" xlink:href="#DejaVuSans-101"/>
     <use x="851.269531" xlink:href="#DejaVuSans-100"/>
    </g>
   </g>
   <g id="text_17">
    <!-- 250: 21.9% Saved -->
    <g style="fill:#9041ff;" transform="translate(349.188119 108.97337)scale(0.26 -0.26)">
     <defs>
      <path d="M 10.984375 1.515625 
L 10.984375 10.5 
Q 14.703125 8.734375 18.5 7.8125 
Q 22.3125 6.890625 25.984375 6.890625 
Q 35.75 6.890625 40.890625 13.453125 
Q 46.046875 20.015625 46.78125 33.40625 
Q 43.953125 29.203125 39.59375 26.953125 
Q 35.25 24.703125 29.984375 24.703125 
Q 19.046875 24.703125 12.671875 31.3125 
Q 6.296875 37.9375 6.296875 49.421875 
Q 6.296875 60.640625 12.9375 67.421875 
Q 19.578125 74.21875 30.609375 74.21875 
Q 43.265625 74.21875 49.921875 64.515625 
Q 56.59375 54.828125 56.59375 36.375 
Q 56.59375 19.140625 48.40625 8.859375 
Q 40.234375 -1.421875 26.421875 -1.421875 
Q 22.703125 -1.421875 18.890625 -0.6875 
Q 15.09375 0.046875 10.984375 1.515625 
z
M 30.609375 32.421875 
Q 37.25 32.421875 41.125 36.953125 
Q 45.015625 41.5 45.015625 49.421875 
Q 45.015625 57.28125 41.125 61.84375 
Q 37.25 66.40625 30.609375 66.40625 
Q 23.96875 66.40625 20.09375 61.84375 
Q 16.21875 57.28125 16.21875 49.421875 
Q 16.21875 41.5 20.09375 36.953125 
Q 23.96875 32.421875 30.609375 32.421875 
z
" id="DejaVuSans-57"/>
     </defs>
     <use xlink:href="#DejaVuSans-50"/>
     <use x="63.623047" xlink:href="#DejaVuSans-53"/>
     <use x="127.246094" xlink:href="#DejaVuSans-48"/>
     <use x="190.869141" xlink:href="#DejaVuSans-58"/>
     <use x="224.560547" xlink:href="#DejaVuSans-32"/>
     <use x="256.347656" xlink:href="#DejaVuSans-50"/>
     <use x="319.970703" xlink:href="#DejaVuSans-49"/>
     <use x="383.59375" xlink:href="#DejaVuSans-46"/>
     <use x="415.380859" xlink:href="#DejaVuSans-57"/>
     <use x="479.003906" xlink:href="#DejaVuSans-37"/>
     <use x="574.023438" xlink:href="#DejaVuSans-32"/>
     <use x="605.810547" xlink:href="#DejaVuSans-83"/>
     <use x="669.287109" xlink:href="#DejaVuSans-97"/>
     <use x="730.566406" xlink:href="#DejaVuSans-118"/>
     <use x="789.746094" xlink:href="#DejaVuSans-101"/>
     <use x="851.269531" xlink:href="#DejaVuSans-100"/>
    </g>
   </g>
   <g id="text_18">
    <!-- 300: 27.0% Saved -->
    <g style="fill:#4161ff;" transform="translate(339.188119 462.595158)scale(0.26 -0.26)">
     <use xlink:href="#DejaVuSans-51"/>
     <use x="63.623047" xlink:href="#DejaVuSans-48"/>
     <use x="127.246094" xlink:href="#DejaVuSans-48"/>
     <use x="190.869141" xlink:href="#DejaVuSans-58"/>
     <use x="224.560547" xlink:href="#DejaVuSans-32"/>
     <use x="256.347656" xlink:href="#DejaVuSans-50"/>
     <use x="319.970703" xlink:href="#DejaVuSans-55"/>
     <use x="383.59375" xlink:href="#DejaVuSans-46"/>
     <use x="415.380859" xlink:href="#DejaVuSans-48"/>
     <use x="479.003906" xlink:href="#DejaVuSans-37"/>
     <use x="574.023438" xlink:href="#DejaVuSans-32"/>
     <use x="605.810547" xlink:href="#DejaVuSans-83"/>
     <use x="669.287109" xlink:href="#DejaVuSans-97"/>
     <use x="730.566406" xlink:href="#DejaVuSans-118"/>
     <use x="789.746094" xlink:href="#DejaVuSans-101"/>
     <use x="851.269531" xlink:href="#DejaVuSans-100"/>
    </g>
   </g>
   <g id="text_19">
    <!-- Ungated: Synaptic Density vs. Energy @ 96% Accuracy -->
    <g transform="translate(92.399063 61.633125)scale(0.36 -0.36)">
     <defs>
      <path d="M 8.6875 72.90625 
L 18.609375 72.90625 
L 18.609375 28.609375 
Q 18.609375 16.890625 22.84375 11.734375 
Q 27.09375 6.59375 36.625 6.59375 
Q 46.09375 6.59375 50.34375 11.734375 
Q 54.59375 16.890625 54.59375 28.609375 
L 54.59375 72.90625 
L 64.5 72.90625 
L 64.5 27.390625 
Q 64.5 13.140625 57.4375 5.859375 
Q 50.390625 -1.421875 36.625 -1.421875 
Q 22.796875 -1.421875 15.734375 5.859375 
Q 8.6875 13.140625 8.6875 27.390625 
z
" id="DejaVuSans-85"/>
      <path d="M 18.109375 8.203125 
L 18.109375 -20.796875 
L 9.078125 -20.796875 
L 9.078125 54.6875 
L 18.109375 54.6875 
L 18.109375 46.390625 
Q 20.953125 51.265625 25.265625 53.625 
Q 29.59375 56 35.59375 56 
Q 45.5625 56 51.78125 48.09375 
Q 58.015625 40.1875 58.015625 27.296875 
Q 58.015625 14.40625 51.78125 6.484375 
Q 45.5625 -1.421875 35.59375 -1.421875 
Q 29.59375 -1.421875 25.265625 0.953125 
Q 20.953125 3.328125 18.109375 8.203125 
z
M 48.6875 27.296875 
Q 48.6875 37.203125 44.609375 42.84375 
Q 40.53125 48.484375 33.40625 48.484375 
Q 26.265625 48.484375 22.1875 42.84375 
Q 18.109375 37.203125 18.109375 27.296875 
Q 18.109375 17.390625 22.1875 11.75 
Q 26.265625 6.109375 33.40625 6.109375 
Q 40.53125 6.109375 44.609375 11.75 
Q 48.6875 17.390625 48.6875 27.296875 
z
" id="DejaVuSans-112"/>
      <path d="M 19.671875 64.796875 
L 19.671875 8.109375 
L 31.59375 8.109375 
Q 46.6875 8.109375 53.6875 14.9375 
Q 60.6875 21.78125 60.6875 36.53125 
Q 60.6875 51.171875 53.6875 57.984375 
Q 46.6875 64.796875 31.59375 64.796875 
z
M 9.8125 72.90625 
L 30.078125 72.90625 
Q 51.265625 72.90625 61.171875 64.09375 
Q 71.09375 55.28125 71.09375 36.53125 
Q 71.09375 17.671875 61.125 8.828125 
Q 51.171875 0 30.078125 0 
L 9.8125 0 
z
" id="DejaVuSans-68"/>
      <path d="M 44.28125 53.078125 
L 44.28125 44.578125 
Q 40.484375 46.53125 36.375 47.5 
Q 32.28125 48.484375 27.875 48.484375 
Q 21.1875 48.484375 17.84375 46.4375 
Q 14.5 44.390625 14.5 40.28125 
Q 14.5 37.15625 16.890625 35.375 
Q 19.28125 33.59375 26.515625 31.984375 
L 29.59375 31.296875 
Q 39.15625 29.25 43.1875 25.515625 
Q 47.21875 21.78125 47.21875 15.09375 
Q 47.21875 7.46875 41.1875 3.015625 
Q 35.15625 -1.421875 24.609375 -1.421875 
Q 20.21875 -1.421875 15.453125 -0.5625 
Q 10.6875 0.296875 5.421875 2 
L 5.421875 11.28125 
Q 10.40625 8.6875 15.234375 7.390625 
Q 20.0625 6.109375 24.8125 6.109375 
Q 31.15625 6.109375 34.5625 8.28125 
Q 37.984375 10.453125 37.984375 14.40625 
Q 37.984375 18.0625 35.515625 20.015625 
Q 33.0625 21.96875 24.703125 23.78125 
L 21.578125 24.515625 
Q 13.234375 26.265625 9.515625 29.90625 
Q 5.8125 33.546875 5.8125 39.890625 
Q 5.8125 47.609375 11.28125 51.796875 
Q 16.75 56 26.8125 56 
Q 31.78125 56 36.171875 55.265625 
Q 40.578125 54.546875 44.28125 53.078125 
z
" id="DejaVuSans-115"/>
      <path d="M 37.203125 26.21875 
Q 37.203125 19.234375 40.671875 15.25 
Q 44.140625 11.28125 50.203125 11.28125 
Q 56.203125 11.28125 59.640625 15.28125 
Q 63.09375 19.28125 63.09375 26.21875 
Q 63.09375 33.0625 59.578125 37.078125 
Q 56.0625 41.109375 50.09375 41.109375 
Q 44.1875 41.109375 40.6875 37.109375 
Q 37.203125 33.109375 37.203125 26.21875 
z
M 63.8125 11.625 
Q 60.890625 7.859375 57.109375 6.078125 
Q 53.328125 4.296875 48.296875 4.296875 
Q 39.890625 4.296875 34.640625 10.375 
Q 29.390625 16.453125 29.390625 26.21875 
Q 29.390625 35.984375 34.65625 42.078125 
Q 39.9375 48.1875 48.296875 48.1875 
Q 53.328125 48.1875 57.125 46.359375 
Q 60.9375 44.53125 63.8125 40.828125 
L 63.8125 47.21875 
L 70.796875 47.21875 
L 70.796875 11.28125 
Q 77.9375 12.359375 81.953125 17.796875 
Q 85.984375 23.25 85.984375 31.890625 
Q 85.984375 37.109375 84.4375 41.703125 
Q 82.90625 46.296875 79.78125 50.203125 
Q 74.703125 56.59375 67.40625 59.984375 
Q 60.109375 63.375 51.515625 63.375 
Q 45.515625 63.375 39.984375 61.78125 
Q 34.46875 60.203125 29.78125 57.078125 
Q 22.125 52.09375 17.796875 44.015625 
Q 13.484375 35.9375 13.484375 26.515625 
Q 13.484375 18.75 16.28125 11.953125 
Q 19.09375 5.171875 24.421875 0 
Q 29.546875 -5.078125 36.28125 -7.734375 
Q 43.015625 -10.40625 50.6875 -10.40625 
Q 56.984375 -10.40625 63.0625 -8.28125 
Q 69.140625 -6.15625 74.21875 -2.203125 
L 78.609375 -7.625 
Q 72.515625 -12.359375 65.3125 -14.875 
Q 58.109375 -17.390625 50.6875 -17.390625 
Q 41.65625 -17.390625 33.640625 -14.1875 
Q 25.640625 -10.984375 19.390625 -4.890625 
Q 13.140625 1.21875 9.859375 9.25 
Q 6.59375 17.28125 6.59375 26.515625 
Q 6.59375 35.40625 9.90625 43.453125 
Q 13.234375 51.515625 19.390625 57.625 
Q 25.6875 63.8125 33.9375 67.109375 
Q 42.1875 70.40625 51.421875 70.40625 
Q 61.765625 70.40625 70.625 66.15625 
Q 79.5 61.921875 85.5 54.109375 
Q 89.15625 49.3125 91.078125 43.703125 
Q 93.015625 38.09375 93.015625 32.078125 
Q 93.015625 19.234375 85.25 11.8125 
Q 77.484375 4.390625 63.8125 4.109375 
z
" id="DejaVuSans-64"/>
      <path d="M 34.1875 63.1875 
L 20.796875 26.90625 
L 47.609375 26.90625 
z
M 28.609375 72.90625 
L 39.796875 72.90625 
L 67.578125 0 
L 57.328125 0 
L 50.6875 18.703125 
L 17.828125 18.703125 
L 11.1875 0 
L 0.78125 0 
z
" id="DejaVuSans-65"/>
     </defs>
     <use xlink:href="#DejaVuSans-85"/>
     <use x="73.193359" xlink:href="#DejaVuSans-110"/>
     <use x="136.572266" xlink:href="#DejaVuSans-103"/>
     <use x="200.048828" xlink:href="#DejaVuSans-97"/>
     <use x="261.328125" xlink:href="#DejaVuSans-116"/>
     <use x="300.537109" xlink:href="#DejaVuSans-101"/>
     <use x="362.060547" xlink:href="#DejaVuSans-100"/>
     <use x="425.537109" xlink:href="#DejaVuSans-58"/>
     <use x="459.228516" xlink:href="#DejaVuSans-32"/>
     <use x="491.015625" xlink:href="#DejaVuSans-83"/>
     <use x="554.492188" xlink:href="#DejaVuSans-121"/>
     <use x="613.671875" xlink:href="#DejaVuSans-110"/>
     <use x="677.050781" xlink:href="#DejaVuSans-97"/>
     <use x="738.330078" xlink:href="#DejaVuSans-112"/>
     <use x="801.806641" xlink:href="#DejaVuSans-116"/>
     <use x="841.015625" xlink:href="#DejaVuSans-105"/>
     <use x="868.798828" xlink:href="#DejaVuSans-99"/>
     <use x="923.779297" xlink:href="#DejaVuSans-32"/>
     <use x="955.566406" xlink:href="#DejaVuSans-68"/>
     <use x="1032.568359" xlink:href="#DejaVuSans-101"/>
     <use x="1094.091797" xlink:href="#DejaVuSans-110"/>
     <use x="1157.470703" xlink:href="#DejaVuSans-115"/>
     <use x="1209.570312" xlink:href="#DejaVuSans-105"/>
     <use x="1237.353516" xlink:href="#DejaVuSans-116"/>
     <use x="1276.5625" xlink:href="#DejaVuSans-121"/>
     <use x="1335.742188" xlink:href="#DejaVuSans-32"/>
     <use x="1367.529297" xlink:href="#DejaVuSans-118"/>
     <use x="1426.708984" xlink:href="#DejaVuSans-115"/>
     <use x="1478.808594" xlink:href="#DejaVuSans-46"/>
     <use x="1510.595703" xlink:href="#DejaVuSans-32"/>
     <use x="1542.382812" xlink:href="#DejaVuSans-69"/>
     <use x="1605.566406" xlink:href="#DejaVuSans-110"/>
     <use x="1668.945312" xlink:href="#DejaVuSans-101"/>
     <use x="1730.46875" xlink:href="#DejaVuSans-114"/>
     <use x="1769.832031" xlink:href="#DejaVuSans-103"/>
     <use x="1833.308594" xlink:href="#DejaVuSans-121"/>
     <use x="1892.488281" xlink:href="#DejaVuSans-32"/>
     <use x="1924.275391" xlink:href="#DejaVuSans-64"/>
     <use x="2024.275391" xlink:href="#DejaVuSans-32"/>
     <use x="2056.0625" xlink:href="#DejaVuSans-57"/>
     <use x="2119.685547" xlink:href="#DejaVuSans-54"/>
     <use x="2183.308594" xlink:href="#DejaVuSans-37"/>
     <use x="2278.328125" xlink:href="#DejaVuSans-32"/>
     <use x="2310.115234" xlink:href="#DejaVuSans-65"/>
     <use x="2376.773438" xlink:href="#DejaVuSans-99"/>
     <use x="2431.753906" xlink:href="#DejaVuSans-99"/>
     <use x="2486.734375" xlink:href="#DejaVuSans-117"/>
     <use x="2550.113281" xlink:href="#DejaVuSans-114"/>
     <use x="2591.226562" xlink:href="#DejaVuSans-97"/>
     <use x="2652.505859" xlink:href="#DejaVuSans-99"/>
     <use x="2707.486328" xlink:href="#DejaVuSans-121"/>
    </g>
   </g>
   <g id="legend_1">
    <g id="patch_7">
     <path d="M 159.4 280.47125 
L 332.866562 280.47125 
Q 337.266562 280.47125 337.266562 276.07125 
L 337.266562 84.52 
Q 337.266562 80.12 332.866562 80.12 
L 159.4 80.12 
Q 155 80.12 155 84.52 
L 155 276.07125 
Q 155 280.47125 159.4 280.47125 
z
" style="fill:#ffffff;opacity:0.8;stroke:#cccccc;stroke-linejoin:miter;"/>
    </g>
    <g id="line2d_23">
     <path d="M 163.8 97.936563 
L 207.8 97.936563 
" style="fill:none;stroke:#ff9500;stroke-linecap:square;stroke-width:5;"/>
    </g>
    <g id="line2d_24"/>
    <g id="text_20">
     <!-- 50 units -->
     <g transform="translate(225.4 105.636563)scale(0.22 -0.22)">
      <use xlink:href="#DejaVuSans-53"/>
      <use x="63.623047" xlink:href="#DejaVuSans-48"/>
      <use x="127.246094" xlink:href="#DejaVuSans-32"/>
      <use x="159.033203" xlink:href="#DejaVuSans-117"/>
      <use x="222.412109" xlink:href="#DejaVuSans-110"/>
      <use x="285.791016" xlink:href="#DejaVuSans-105"/>
      <use x="313.574219" xlink:href="#DejaVuSans-116"/>
      <use x="352.783203" xlink:href="#DejaVuSans-115"/>
     </g>
    </g>
    <g id="line2d_25">
     <path d="M 163.8 130.228438 
L 207.8 130.228438 
" style="fill:none;stroke:#ff15ff;stroke-linecap:square;stroke-width:5;"/>
    </g>
    <g id="line2d_26"/>
    <g id="text_21">
     <!-- 100 units -->
     <g transform="translate(225.4 137.928438)scale(0.22 -0.22)">
      <use xlink:href="#DejaVuSans-49"/>
      <use x="63.623047" xlink:href="#DejaVuSans-48"/>
      <use x="127.246094" xlink:href="#DejaVuSans-48"/>
      <use x="190.869141" xlink:href="#DejaVuSans-32"/>
      <use x="222.65625" xlink:href="#DejaVuSans-117"/>
      <use x="286.035156" xlink:href="#DejaVuSans-110"/>
      <use x="349.414062" xlink:href="#DejaVuSans-105"/>
      <use x="377.197266" xlink:href="#DejaVuSans-116"/>
      <use x="416.40625" xlink:href="#DejaVuSans-115"/>
     </g>
    </g>
    <g id="line2d_27">
     <path d="M 163.8 162.520313 
L 207.8 162.520313 
" style="fill:none;stroke:#ff1500;stroke-linecap:square;stroke-width:5;"/>
    </g>
    <g id="line2d_28"/>
    <g id="text_22">
     <!-- 150 units -->
     <g transform="translate(225.4 170.220313)scale(0.22 -0.22)">
      <use xlink:href="#DejaVuSans-49"/>
      <use x="63.623047" xlink:href="#DejaVuSans-53"/>
      <use x="127.246094" xlink:href="#DejaVuSans-48"/>
      <use x="190.869141" xlink:href="#DejaVuSans-32"/>
      <use x="222.65625" xlink:href="#DejaVuSans-117"/>
      <use x="286.035156" xlink:href="#DejaVuSans-110"/>
      <use x="349.414062" xlink:href="#DejaVuSans-105"/>
      <use x="377.197266" xlink:href="#DejaVuSans-116"/>
      <use x="416.40625" xlink:href="#DejaVuSans-115"/>
     </g>
    </g>
    <g id="line2d_29">
     <path d="M 163.8 194.812188 
L 207.8 194.812188 
" style="fill:none;stroke:#2ecbff;stroke-linecap:square;stroke-width:5;"/>
    </g>
    <g id="line2d_30"/>
    <g id="text_23">
     <!-- 200 units -->
     <g transform="translate(225.4 202.512188)scale(0.22 -0.22)">
      <use xlink:href="#DejaVuSans-50"/>
      <use x="63.623047" xlink:href="#DejaVuSans-48"/>
      <use x="127.246094" xlink:href="#DejaVuSans-48"/>
      <use x="190.869141" xlink:href="#DejaVuSans-32"/>
      <use x="222.65625" xlink:href="#DejaVuSans-117"/>
      <use x="286.035156" xlink:href="#DejaVuSans-110"/>
      <use x="349.414062" xlink:href="#DejaVuSans-105"/>
      <use x="377.197266" xlink:href="#DejaVuSans-116"/>
      <use x="416.40625" xlink:href="#DejaVuSans-115"/>
     </g>
    </g>
    <g id="line2d_31">
     <path d="M 163.8 227.104063 
L 207.8 227.104063 
" style="fill:none;stroke:#9041ff;stroke-linecap:square;stroke-width:5;"/>
    </g>
    <g id="line2d_32"/>
    <g id="text_24">
     <!-- 250 units -->
     <g transform="translate(225.4 234.804063)scale(0.22 -0.22)">
      <use xlink:href="#DejaVuSans-50"/>
      <use x="63.623047" xlink:href="#DejaVuSans-53"/>
      <use x="127.246094" xlink:href="#DejaVuSans-48"/>
      <use x="190.869141" xlink:href="#DejaVuSans-32"/>
      <use x="222.65625" xlink:href="#DejaVuSans-117"/>
      <use x="286.035156" xlink:href="#DejaVuSans-110"/>
      <use x="349.414062" xlink:href="#DejaVuSans-105"/>
      <use x="377.197266" xlink:href="#DejaVuSans-116"/>
      <use x="416.40625" xlink:href="#DejaVuSans-115"/>
     </g>
    </g>
    <g id="line2d_33">
     <path d="M 163.8 259.395938 
L 207.8 259.395938 
" style="fill:none;stroke:#4161ff;stroke-linecap:square;stroke-width:5;"/>
    </g>
    <g id="line2d_34"/>
    <g id="text_25">
     <!-- 300 units -->
     <g transform="translate(225.4 267.095938)scale(0.22 -0.22)">
      <use xlink:href="#DejaVuSans-51"/>
      <use x="63.623047" xlink:href="#DejaVuSans-48"/>
      <use x="127.246094" xlink:href="#DejaVuSans-48"/>
      <use x="190.869141" xlink:href="#DejaVuSans-32"/>
      <use x="222.65625" xlink:href="#DejaVuSans-117"/>
      <use x="286.035156" xlink:href="#DejaVuSans-110"/>
      <use x="349.414062" xlink:href="#DejaVuSans-105"/>
      <use x="377.197266" xlink:href="#DejaVuSans-116"/>
      <use x="416.40625" xlink:href="#DejaVuSans-115"/>
     </g>
    </g>
   </g>
  </g>
 </g>
 <defs>
  <clipPath id="pea1bb73a3b">
   <rect height="434.88" width="892.8" x="144" y="69.12"/>
  </clipPath>
 </defs>
</svg>
