<?xml version="1.0" encoding="utf-8" standalone="no"?>
<!DOCTYPE svg PUBLIC "-//W3C//DTD SVG 1.1//EN"
  "http://www.w3.org/Graphics/SVG/1.1/DTD/svg11.dtd">
<!-- Created with matplotlib (https://matplotlib.org/) -->
<svg height="568.879625pt" version="1.1" viewBox="0 0 1143.665937 568.879625" width="1143.665937pt" xmlns="http://www.w3.org/2000/svg" xmlns:xlink="http://www.w3.org/1999/xlink">
 <metadata>
  <rdf:RDF xmlns:cc="http://creativecommons.org/ns#" xmlns:dc="http://purl.org/dc/elements/1.1/" xmlns:rdf="http://www.w3.org/1999/02/22-rdf-syntax-ns#">
   <cc:Work>
    <dc:type rdf:resource="http://purl.org/dc/dcmitype/StillImage"/>
    <dc:date>2021-09-12T04:17:51.601516</dc:date>
    <dc:format>image/svg+xml</dc:format>
    <dc:creator>
     <cc:Agent>
      <dc:title>Matplotlib v3.3.4, https://matplotlib.org/</dc:title>
     </cc:Agent>
    </dc:creator>
   </cc:Work>
  </rdf:RDF>
 </metadata>
 <defs>
  <style type="text/css">*{stroke-linecap:butt;stroke-linejoin:round;}</style>
 </defs>
 <g id="figure_1">
  <g id="patch_1">
   <path d="M 0 568.879625 
L 1143.665937 568.879625 
L 1143.665937 0 
L 0 0 
z
" style="fill:#ffffff;"/>
  </g>
  <g id="axes_1">
   <g id="patch_2">
    <path d="M 87.53875 500.353375 
L 1113.560938 500.353375 
L 1113.560938 82.353375 
L 87.53875 82.353375 
z
" style="fill:#ffffff;"/>
   </g>
   <g id="matplotlib.axis_1">
    <g id="xtick_1">
     <g id="line2d_1">
      <defs>
       <path d="M 0 0 
L 0 3.5 
" id="mdcb147857f" style="stroke:#000000;stroke-width:0.8;"/>
      </defs>
      <g>
       <use style="stroke:#000000;stroke-width:0.8;" x="87.53875" xlink:href="#mdcb147857f" y="500.353375"/>
      </g>
     </g>
     <g id="text_1">
      <!-- 88 -->
      <g transform="translate(72.26875 525.589625)scale(0.24 -0.24)">
       <defs>
        <path d="M 31.78125 34.625 
Q 24.75 34.625 20.71875 30.859375 
Q 16.703125 27.09375 16.703125 20.515625 
Q 16.703125 13.921875 20.71875 10.15625 
Q 24.75 6.390625 31.78125 6.390625 
Q 38.8125 6.390625 42.859375 10.171875 
Q 46.921875 13.96875 46.921875 20.515625 
Q 46.921875 27.09375 42.890625 30.859375 
Q 38.875 34.625 31.78125 34.625 
z
M 21.921875 38.8125 
Q 15.578125 40.375 12.03125 44.71875 
Q 8.5 49.078125 8.5 55.328125 
Q 8.5 64.0625 14.71875 69.140625 
Q 20.953125 74.21875 31.78125 74.21875 
Q 42.671875 74.21875 48.875 69.140625 
Q 55.078125 64.0625 55.078125 55.328125 
Q 55.078125 49.078125 51.53125 44.71875 
Q 48 40.375 41.703125 38.8125 
Q 48.828125 37.15625 52.796875 32.3125 
Q 56.78125 27.484375 56.78125 20.515625 
Q 56.78125 9.90625 50.3125 4.234375 
Q 43.84375 -1.421875 31.78125 -1.421875 
Q 19.734375 -1.421875 13.25 4.234375 
Q 6.78125 9.90625 6.78125 20.515625 
Q 6.78125 27.484375 10.78125 32.3125 
Q 14.796875 37.15625 21.921875 38.8125 
z
M 18.3125 54.390625 
Q 18.3125 48.734375 21.84375 45.5625 
Q 25.390625 42.390625 31.78125 42.390625 
Q 38.140625 42.390625 41.71875 45.5625 
Q 45.3125 48.734375 45.3125 54.390625 
Q 45.3125 60.0625 41.71875 63.234375 
Q 38.140625 66.40625 31.78125 66.40625 
Q 25.390625 66.40625 21.84375 63.234375 
Q 18.3125 60.0625 18.3125 54.390625 
z
" id="DejaVuSans-56"/>
       </defs>
       <use xlink:href="#DejaVuSans-56"/>
       <use x="63.623047" xlink:href="#DejaVuSans-56"/>
      </g>
     </g>
    </g>
    <g id="xtick_2">
     <g id="line2d_2">
      <g>
       <use style="stroke:#000000;stroke-width:0.8;" x="258.542448" xlink:href="#mdcb147857f" y="500.353375"/>
      </g>
     </g>
     <g id="text_2">
      <!-- 90 -->
      <g transform="translate(243.272448 525.589625)scale(0.24 -0.24)">
       <defs>
        <path d="M 10.984375 1.515625 
L 10.984375 10.5 
Q 14.703125 8.734375 18.5 7.8125 
Q 22.3125 6.890625 25.984375 6.890625 
Q 35.75 6.890625 40.890625 13.453125 
Q 46.046875 20.015625 46.78125 33.40625 
Q 43.953125 29.203125 39.59375 26.953125 
Q 35.25 24.703125 29.984375 24.703125 
Q 19.046875 24.703125 12.671875 31.3125 
Q 6.296875 37.9375 6.296875 49.421875 
Q 6.296875 60.640625 12.9375 67.421875 
Q 19.578125 74.21875 30.609375 74.21875 
Q 43.265625 74.21875 49.921875 64.515625 
Q 56.59375 54.828125 56.59375 36.375 
Q 56.59375 19.140625 48.40625 8.859375 
Q 40.234375 -1.421875 26.421875 -1.421875 
Q 22.703125 -1.421875 18.890625 -0.6875 
Q 15.09375 0.046875 10.984375 1.515625 
z
M 30.609375 32.421875 
Q 37.25 32.421875 41.125 36.953125 
Q 45.015625 41.5 45.015625 49.421875 
Q 45.015625 57.28125 41.125 61.84375 
Q 37.25 66.40625 30.609375 66.40625 
Q 23.96875 66.40625 20.09375 61.84375 
Q 16.21875 57.28125 16.21875 49.421875 
Q 16.21875 41.5 20.09375 36.953125 
Q 23.96875 32.421875 30.609375 32.421875 
z
" id="DejaVuSans-57"/>
        <path d="M 31.78125 66.40625 
Q 24.171875 66.40625 20.328125 58.90625 
Q 16.5 51.421875 16.5 36.375 
Q 16.5 21.390625 20.328125 13.890625 
Q 24.171875 6.390625 31.78125 6.390625 
Q 39.453125 6.390625 43.28125 13.890625 
Q 47.125 21.390625 47.125 36.375 
Q 47.125 51.421875 43.28125 58.90625 
Q 39.453125 66.40625 31.78125 66.40625 
z
M 31.78125 74.21875 
Q 44.046875 74.21875 50.515625 64.515625 
Q 56.984375 54.828125 56.984375 36.375 
Q 56.984375 17.96875 50.515625 8.265625 
Q 44.046875 -1.421875 31.78125 -1.421875 
Q 19.53125 -1.421875 13.0625 8.265625 
Q 6.59375 17.96875 6.59375 36.375 
Q 6.59375 54.828125 13.0625 64.515625 
Q 19.53125 74.21875 31.78125 74.21875 
z
" id="DejaVuSans-48"/>
       </defs>
       <use xlink:href="#DejaVuSans-57"/>
       <use x="63.623047" xlink:href="#DejaVuSans-48"/>
      </g>
     </g>
    </g>
    <g id="xtick_3">
     <g id="line2d_3">
      <g>
       <use style="stroke:#000000;stroke-width:0.8;" x="429.546146" xlink:href="#mdcb147857f" y="500.353375"/>
      </g>
     </g>
     <g id="text_3">
      <!-- 92 -->
      <g transform="translate(414.276146 525.589625)scale(0.24 -0.24)">
       <defs>
        <path d="M 19.1875 8.296875 
L 53.609375 8.296875 
L 53.609375 0 
L 7.328125 0 
L 7.328125 8.296875 
Q 12.9375 14.109375 22.625 23.890625 
Q 32.328125 33.6875 34.8125 36.53125 
Q 39.546875 41.84375 41.421875 45.53125 
Q 43.3125 49.21875 43.3125 52.78125 
Q 43.3125 58.59375 39.234375 62.25 
Q 35.15625 65.921875 28.609375 65.921875 
Q 23.96875 65.921875 18.8125 64.3125 
Q 13.671875 62.703125 7.8125 59.421875 
L 7.8125 69.390625 
Q 13.765625 71.78125 18.9375 73 
Q 24.125 74.21875 28.421875 74.21875 
Q 39.75 74.21875 46.484375 68.546875 
Q 53.21875 62.890625 53.21875 53.421875 
Q 53.21875 48.921875 51.53125 44.890625 
Q 49.859375 40.875 45.40625 35.40625 
Q 44.1875 33.984375 37.640625 27.21875 
Q 31.109375 20.453125 19.1875 8.296875 
z
" id="DejaVuSans-50"/>
       </defs>
       <use xlink:href="#DejaVuSans-57"/>
       <use x="63.623047" xlink:href="#DejaVuSans-50"/>
      </g>
     </g>
    </g>
    <g id="xtick_4">
     <g id="line2d_4">
      <g>
       <use style="stroke:#000000;stroke-width:0.8;" x="600.549844" xlink:href="#mdcb147857f" y="500.353375"/>
      </g>
     </g>
     <g id="text_4">
      <!-- 94 -->
      <g transform="translate(585.279844 525.589625)scale(0.24 -0.24)">
       <defs>
        <path d="M 37.796875 64.3125 
L 12.890625 25.390625 
L 37.796875 25.390625 
z
M 35.203125 72.90625 
L 47.609375 72.90625 
L 47.609375 25.390625 
L 58.015625 25.390625 
L 58.015625 17.1875 
L 47.609375 17.1875 
L 47.609375 0 
L 37.796875 0 
L 37.796875 17.1875 
L 4.890625 17.1875 
L 4.890625 26.703125 
z
" id="DejaVuSans-52"/>
       </defs>
       <use xlink:href="#DejaVuSans-57"/>
       <use x="63.623047" xlink:href="#DejaVuSans-52"/>
      </g>
     </g>
    </g>
    <g id="xtick_5">
     <g id="line2d_5">
      <g>
       <use style="stroke:#000000;stroke-width:0.8;" x="771.553542" xlink:href="#mdcb147857f" y="500.353375"/>
      </g>
     </g>
     <g id="text_5">
      <!-- 96 -->
      <g transform="translate(756.283542 525.589625)scale(0.24 -0.24)">
       <defs>
        <path d="M 33.015625 40.375 
Q 26.375 40.375 22.484375 35.828125 
Q 18.609375 31.296875 18.609375 23.390625 
Q 18.609375 15.53125 22.484375 10.953125 
Q 26.375 6.390625 33.015625 6.390625 
Q 39.65625 6.390625 43.53125 10.953125 
Q 47.40625 15.53125 47.40625 23.390625 
Q 47.40625 31.296875 43.53125 35.828125 
Q 39.65625 40.375 33.015625 40.375 
z
M 52.59375 71.296875 
L 52.59375 62.3125 
Q 48.875 64.0625 45.09375 64.984375 
Q 41.3125 65.921875 37.59375 65.921875 
Q 27.828125 65.921875 22.671875 59.328125 
Q 17.53125 52.734375 16.796875 39.40625 
Q 19.671875 43.65625 24.015625 45.921875 
Q 28.375 48.1875 33.59375 48.1875 
Q 44.578125 48.1875 50.953125 41.515625 
Q 57.328125 34.859375 57.328125 23.390625 
Q 57.328125 12.15625 50.6875 5.359375 
Q 44.046875 -1.421875 33.015625 -1.421875 
Q 20.359375 -1.421875 13.671875 8.265625 
Q 6.984375 17.96875 6.984375 36.375 
Q 6.984375 53.65625 15.1875 63.9375 
Q 23.390625 74.21875 37.203125 74.21875 
Q 40.921875 74.21875 44.703125 73.484375 
Q 48.484375 72.75 52.59375 71.296875 
z
" id="DejaVuSans-54"/>
       </defs>
       <use xlink:href="#DejaVuSans-57"/>
       <use x="63.623047" xlink:href="#DejaVuSans-54"/>
      </g>
     </g>
    </g>
    <g id="xtick_6">
     <g id="line2d_6">
      <g>
       <use style="stroke:#000000;stroke-width:0.8;" x="942.55724" xlink:href="#mdcb147857f" y="500.353375"/>
      </g>
     </g>
     <g id="text_6">
      <!-- 98 -->
      <g transform="translate(927.28724 525.589625)scale(0.24 -0.24)">
       <use xlink:href="#DejaVuSans-57"/>
       <use x="63.623047" xlink:href="#DejaVuSans-56"/>
      </g>
     </g>
    </g>
    <g id="xtick_7">
     <g id="line2d_7">
      <g>
       <use style="stroke:#000000;stroke-width:0.8;" x="1113.560937" xlink:href="#mdcb147857f" y="500.353375"/>
      </g>
     </g>
     <g id="text_7">
      <!-- 100 -->
      <g transform="translate(1090.655937 525.589625)scale(0.24 -0.24)">
       <defs>
        <path d="M 12.40625 8.296875 
L 28.515625 8.296875 
L 28.515625 63.921875 
L 10.984375 60.40625 
L 10.984375 69.390625 
L 28.421875 72.90625 
L 38.28125 72.90625 
L 38.28125 8.296875 
L 54.390625 8.296875 
L 54.390625 0 
L 12.40625 0 
z
" id="DejaVuSans-49"/>
       </defs>
       <use xlink:href="#DejaVuSans-49"/>
       <use x="63.623047" xlink:href="#DejaVuSans-48"/>
       <use x="127.246094" xlink:href="#DejaVuSans-48"/>
      </g>
     </g>
    </g>
    <g id="text_8">
     <!-- Accuracy /% -->
     <g transform="translate(514.163281 555.8565)scale(0.28 -0.28)">
      <defs>
       <path d="M 34.1875 63.1875 
L 20.796875 26.90625 
L 47.609375 26.90625 
z
M 28.609375 72.90625 
L 39.796875 72.90625 
L 67.578125 0 
L 57.328125 0 
L 50.6875 18.703125 
L 17.828125 18.703125 
L 11.1875 0 
L 0.78125 0 
z
" id="DejaVuSans-65"/>
       <path d="M 48.78125 52.59375 
L 48.78125 44.1875 
Q 44.96875 46.296875 41.140625 47.34375 
Q 37.3125 48.390625 33.40625 48.390625 
Q 24.65625 48.390625 19.8125 42.84375 
Q 14.984375 37.3125 14.984375 27.296875 
Q 14.984375 17.28125 19.8125 11.734375 
Q 24.65625 6.203125 33.40625 6.203125 
Q 37.3125 6.203125 41.140625 7.25 
Q 44.96875 8.296875 48.78125 10.40625 
L 48.78125 2.09375 
Q 45.015625 0.34375 40.984375 -0.53125 
Q 36.96875 -1.421875 32.421875 -1.421875 
Q 20.0625 -1.421875 12.78125 6.34375 
Q 5.515625 14.109375 5.515625 27.296875 
Q 5.515625 40.671875 12.859375 48.328125 
Q 20.21875 56 33.015625 56 
Q 37.15625 56 41.109375 55.140625 
Q 45.0625 54.296875 48.78125 52.59375 
z
" id="DejaVuSans-99"/>
       <path d="M 8.5 21.578125 
L 8.5 54.6875 
L 17.484375 54.6875 
L 17.484375 21.921875 
Q 17.484375 14.15625 20.5 10.265625 
Q 23.53125 6.390625 29.59375 6.390625 
Q 36.859375 6.390625 41.078125 11.03125 
Q 45.3125 15.671875 45.3125 23.6875 
L 45.3125 54.6875 
L 54.296875 54.6875 
L 54.296875 0 
L 45.3125 0 
L 45.3125 8.40625 
Q 42.046875 3.421875 37.71875 1 
Q 33.40625 -1.421875 27.6875 -1.421875 
Q 18.265625 -1.421875 13.375 4.4375 
Q 8.5 10.296875 8.5 21.578125 
z
M 31.109375 56 
z
" id="DejaVuSans-117"/>
       <path d="M 41.109375 46.296875 
Q 39.59375 47.171875 37.8125 47.578125 
Q 36.03125 48 33.890625 48 
Q 26.265625 48 22.1875 43.046875 
Q 18.109375 38.09375 18.109375 28.8125 
L 18.109375 0 
L 9.078125 0 
L 9.078125 54.6875 
L 18.109375 54.6875 
L 18.109375 46.1875 
Q 20.953125 51.171875 25.484375 53.578125 
Q 30.03125 56 36.53125 56 
Q 37.453125 56 38.578125 55.875 
Q 39.703125 55.765625 41.0625 55.515625 
z
" id="DejaVuSans-114"/>
       <path d="M 34.28125 27.484375 
Q 23.390625 27.484375 19.1875 25 
Q 14.984375 22.515625 14.984375 16.5 
Q 14.984375 11.71875 18.140625 8.90625 
Q 21.296875 6.109375 26.703125 6.109375 
Q 34.1875 6.109375 38.703125 11.40625 
Q 43.21875 16.703125 43.21875 25.484375 
L 43.21875 27.484375 
z
M 52.203125 31.203125 
L 52.203125 0 
L 43.21875 0 
L 43.21875 8.296875 
Q 40.140625 3.328125 35.546875 0.953125 
Q 30.953125 -1.421875 24.3125 -1.421875 
Q 15.921875 -1.421875 10.953125 3.296875 
Q 6 8.015625 6 15.921875 
Q 6 25.140625 12.171875 29.828125 
Q 18.359375 34.515625 30.609375 34.515625 
L 43.21875 34.515625 
L 43.21875 35.40625 
Q 43.21875 41.609375 39.140625 45 
Q 35.0625 48.390625 27.6875 48.390625 
Q 23 48.390625 18.546875 47.265625 
Q 14.109375 46.140625 10.015625 43.890625 
L 10.015625 52.203125 
Q 14.9375 54.109375 19.578125 55.046875 
Q 24.21875 56 28.609375 56 
Q 40.484375 56 46.34375 49.84375 
Q 52.203125 43.703125 52.203125 31.203125 
z
" id="DejaVuSans-97"/>
       <path d="M 32.171875 -5.078125 
Q 28.375 -14.84375 24.75 -17.8125 
Q 21.140625 -20.796875 15.09375 -20.796875 
L 7.90625 -20.796875 
L 7.90625 -13.28125 
L 13.1875 -13.28125 
Q 16.890625 -13.28125 18.9375 -11.515625 
Q 21 -9.765625 23.484375 -3.21875 
L 25.09375 0.875 
L 2.984375 54.6875 
L 12.5 54.6875 
L 29.59375 11.921875 
L 46.6875 54.6875 
L 56.203125 54.6875 
z
" id="DejaVuSans-121"/>
       <path id="DejaVuSans-32"/>
       <path d="M 25.390625 72.90625 
L 33.6875 72.90625 
L 8.296875 -9.28125 
L 0 -9.28125 
z
" id="DejaVuSans-47"/>
       <path d="M 72.703125 32.078125 
Q 68.453125 32.078125 66.03125 28.46875 
Q 63.625 24.859375 63.625 18.40625 
Q 63.625 12.0625 66.03125 8.421875 
Q 68.453125 4.78125 72.703125 4.78125 
Q 76.859375 4.78125 79.265625 8.421875 
Q 81.6875 12.0625 81.6875 18.40625 
Q 81.6875 24.8125 79.265625 28.4375 
Q 76.859375 32.078125 72.703125 32.078125 
z
M 72.703125 38.28125 
Q 80.421875 38.28125 84.953125 32.90625 
Q 89.5 27.546875 89.5 18.40625 
Q 89.5 9.28125 84.9375 3.921875 
Q 80.375 -1.421875 72.703125 -1.421875 
Q 64.890625 -1.421875 60.34375 3.921875 
Q 55.8125 9.28125 55.8125 18.40625 
Q 55.8125 27.59375 60.375 32.9375 
Q 64.9375 38.28125 72.703125 38.28125 
z
M 22.3125 68.015625 
Q 18.109375 68.015625 15.6875 64.375 
Q 13.28125 60.75 13.28125 54.390625 
Q 13.28125 47.953125 15.671875 44.328125 
Q 18.0625 40.71875 22.3125 40.71875 
Q 26.5625 40.71875 28.96875 44.328125 
Q 31.390625 47.953125 31.390625 54.390625 
Q 31.390625 60.6875 28.953125 64.34375 
Q 26.515625 68.015625 22.3125 68.015625 
z
M 66.40625 74.21875 
L 74.21875 74.21875 
L 28.609375 -1.421875 
L 20.796875 -1.421875 
z
M 22.3125 74.21875 
Q 30.03125 74.21875 34.609375 68.875 
Q 39.203125 63.53125 39.203125 54.390625 
Q 39.203125 45.171875 34.640625 39.84375 
Q 30.078125 34.515625 22.3125 34.515625 
Q 14.546875 34.515625 10.03125 39.859375 
Q 5.515625 45.21875 5.515625 54.390625 
Q 5.515625 63.484375 10.046875 68.84375 
Q 14.59375 74.21875 22.3125 74.21875 
z
" id="DejaVuSans-37"/>
      </defs>
      <use xlink:href="#DejaVuSans-65"/>
      <use x="66.658203" xlink:href="#DejaVuSans-99"/>
      <use x="121.638672" xlink:href="#DejaVuSans-99"/>
      <use x="176.619141" xlink:href="#DejaVuSans-117"/>
      <use x="239.998047" xlink:href="#DejaVuSans-114"/>
      <use x="281.111328" xlink:href="#DejaVuSans-97"/>
      <use x="342.390625" xlink:href="#DejaVuSans-99"/>
      <use x="397.371094" xlink:href="#DejaVuSans-121"/>
      <use x="456.550781" xlink:href="#DejaVuSans-32"/>
      <use x="488.337891" xlink:href="#DejaVuSans-47"/>
      <use x="522.029297" xlink:href="#DejaVuSans-37"/>
     </g>
    </g>
   </g>
   <g id="matplotlib.axis_2">
    <g id="ytick_1">
     <g id="line2d_8">
      <defs>
       <path d="M 0 0 
L -3.5 0 
" id="m8ccb90fa29" style="stroke:#000000;stroke-width:0.8;"/>
      </defs>
      <g>
       <use style="stroke:#000000;stroke-width:0.8;" x="87.53875" xlink:href="#m8ccb90fa29" y="411.642181"/>
      </g>
     </g>
     <g id="text_9">
      <!-- $\mathdefault{10^{4}}$ -->
      <g transform="translate(38.29875 420.760306)scale(0.24 -0.24)">
       <use transform="translate(0 0.684375)" xlink:href="#DejaVuSans-49"/>
       <use transform="translate(63.623047 0.684375)" xlink:href="#DejaVuSans-48"/>
       <use transform="translate(128.203125 38.965625)scale(0.7)" xlink:href="#DejaVuSans-52"/>
      </g>
     </g>
    </g>
    <g id="ytick_2">
     <g id="line2d_9">
      <g>
       <use style="stroke:#000000;stroke-width:0.8;" x="87.53875" xlink:href="#m8ccb90fa29" y="188.716131"/>
      </g>
     </g>
     <g id="text_10">
      <!-- $\mathdefault{10^{5}}$ -->
      <g transform="translate(38.29875 197.834256)scale(0.24 -0.24)">
       <defs>
        <path d="M 10.796875 72.90625 
L 49.515625 72.90625 
L 49.515625 64.59375 
L 19.828125 64.59375 
L 19.828125 46.734375 
Q 21.96875 47.46875 24.109375 47.828125 
Q 26.265625 48.1875 28.421875 48.1875 
Q 40.625 48.1875 47.75 41.5 
Q 54.890625 34.8125 54.890625 23.390625 
Q 54.890625 11.625 47.5625 5.09375 
Q 40.234375 -1.421875 26.90625 -1.421875 
Q 22.3125 -1.421875 17.546875 -0.640625 
Q 12.796875 0.140625 7.71875 1.703125 
L 7.71875 11.625 
Q 12.109375 9.234375 16.796875 8.0625 
Q 21.484375 6.890625 26.703125 6.890625 
Q 35.15625 6.890625 40.078125 11.328125 
Q 45.015625 15.765625 45.015625 23.390625 
Q 45.015625 31 40.078125 35.4375 
Q 35.15625 39.890625 26.703125 39.890625 
Q 22.75 39.890625 18.8125 39.015625 
Q 14.890625 38.140625 10.796875 36.28125 
z
" id="DejaVuSans-53"/>
       </defs>
       <use transform="translate(0 0.684375)" xlink:href="#DejaVuSans-49"/>
       <use transform="translate(63.623047 0.684375)" xlink:href="#DejaVuSans-48"/>
       <use transform="translate(128.203125 38.965625)scale(0.7)" xlink:href="#DejaVuSans-53"/>
      </g>
     </g>
    </g>
    <g id="ytick_3">
     <g id="line2d_10">
      <defs>
       <path d="M 0 0 
L -2 0 
" id="m9ff7ca6696" style="stroke:#000000;stroke-width:0.6;"/>
      </defs>
      <g>
       <use style="stroke:#000000;stroke-width:0.6;" x="87.53875" xlink:href="#m9ff7ca6696" y="500.353375"/>
      </g>
     </g>
    </g>
    <g id="ytick_4">
     <g id="line2d_11">
      <g>
       <use style="stroke:#000000;stroke-width:0.6;" x="87.53875" xlink:href="#m9ff7ca6696" y="478.749609"/>
      </g>
     </g>
    </g>
    <g id="ytick_5">
     <g id="line2d_12">
      <g>
       <use style="stroke:#000000;stroke-width:0.6;" x="87.53875" xlink:href="#m9ff7ca6696" y="461.098046"/>
      </g>
     </g>
    </g>
    <g id="ytick_6">
     <g id="line2d_13">
      <g>
       <use style="stroke:#000000;stroke-width:0.6;" x="87.53875" xlink:href="#m9ff7ca6696" y="446.173863"/>
      </g>
     </g>
    </g>
    <g id="ytick_7">
     <g id="line2d_14">
      <g>
       <use style="stroke:#000000;stroke-width:0.6;" x="87.53875" xlink:href="#m9ff7ca6696" y="433.245947"/>
      </g>
     </g>
    </g>
    <g id="ytick_8">
     <g id="line2d_15">
      <g>
       <use style="stroke:#000000;stroke-width:0.6;" x="87.53875" xlink:href="#m9ff7ca6696" y="421.842718"/>
      </g>
     </g>
    </g>
    <g id="ytick_9">
     <g id="line2d_16">
      <g>
       <use style="stroke:#000000;stroke-width:0.6;" x="87.53875" xlink:href="#m9ff7ca6696" y="344.534753"/>
      </g>
     </g>
    </g>
    <g id="ytick_10">
     <g id="line2d_17">
      <g>
       <use style="stroke:#000000;stroke-width:0.6;" x="87.53875" xlink:href="#m9ff7ca6696" y="305.279424"/>
      </g>
     </g>
    </g>
    <g id="ytick_11">
     <g id="line2d_18">
      <g>
       <use style="stroke:#000000;stroke-width:0.6;" x="87.53875" xlink:href="#m9ff7ca6696" y="277.427326"/>
      </g>
     </g>
    </g>
    <g id="ytick_12">
     <g id="line2d_19">
      <g>
       <use style="stroke:#000000;stroke-width:0.6;" x="87.53875" xlink:href="#m9ff7ca6696" y="255.823559"/>
      </g>
     </g>
    </g>
    <g id="ytick_13">
     <g id="line2d_20">
      <g>
       <use style="stroke:#000000;stroke-width:0.6;" x="87.53875" xlink:href="#m9ff7ca6696" y="238.171997"/>
      </g>
     </g>
    </g>
    <g id="ytick_14">
     <g id="line2d_21">
      <g>
       <use style="stroke:#000000;stroke-width:0.6;" x="87.53875" xlink:href="#m9ff7ca6696" y="223.247813"/>
      </g>
     </g>
    </g>
    <g id="ytick_15">
     <g id="line2d_22">
      <g>
       <use style="stroke:#000000;stroke-width:0.6;" x="87.53875" xlink:href="#m9ff7ca6696" y="210.319898"/>
      </g>
     </g>
    </g>
    <g id="ytick_16">
     <g id="line2d_23">
      <g>
       <use style="stroke:#000000;stroke-width:0.6;" x="87.53875" xlink:href="#m9ff7ca6696" y="198.916668"/>
      </g>
     </g>
    </g>
    <g id="ytick_17">
     <g id="line2d_24">
      <g>
       <use style="stroke:#000000;stroke-width:0.6;" x="87.53875" xlink:href="#m9ff7ca6696" y="121.608704"/>
      </g>
     </g>
    </g>
    <g id="ytick_18">
     <g id="line2d_25">
      <g>
       <use style="stroke:#000000;stroke-width:0.6;" x="87.53875" xlink:href="#m9ff7ca6696" y="82.353375"/>
      </g>
     </g>
    </g>
    <g id="text_11">
     <!-- Energy /A.U. -->
     <g transform="translate(28.475625 378.013375)rotate(-90)scale(0.28 -0.28)">
      <defs>
       <path d="M 9.8125 72.90625 
L 55.90625 72.90625 
L 55.90625 64.59375 
L 19.671875 64.59375 
L 19.671875 43.015625 
L 54.390625 43.015625 
L 54.390625 34.71875 
L 19.671875 34.71875 
L 19.671875 8.296875 
L 56.78125 8.296875 
L 56.78125 0 
L 9.8125 0 
z
" id="DejaVuSans-69"/>
       <path d="M 54.890625 33.015625 
L 54.890625 0 
L 45.90625 0 
L 45.90625 32.71875 
Q 45.90625 40.484375 42.875 44.328125 
Q 39.84375 48.1875 33.796875 48.1875 
Q 26.515625 48.1875 22.3125 43.546875 
Q 18.109375 38.921875 18.109375 30.90625 
L 18.109375 0 
L 9.078125 0 
L 9.078125 54.6875 
L 18.109375 54.6875 
L 18.109375 46.1875 
Q 21.34375 51.125 25.703125 53.5625 
Q 30.078125 56 35.796875 56 
Q 45.21875 56 50.046875 50.171875 
Q 54.890625 44.34375 54.890625 33.015625 
z
" id="DejaVuSans-110"/>
       <path d="M 56.203125 29.59375 
L 56.203125 25.203125 
L 14.890625 25.203125 
Q 15.484375 15.921875 20.484375 11.0625 
Q 25.484375 6.203125 34.421875 6.203125 
Q 39.59375 6.203125 44.453125 7.46875 
Q 49.3125 8.734375 54.109375 11.28125 
L 54.109375 2.78125 
Q 49.265625 0.734375 44.1875 -0.34375 
Q 39.109375 -1.421875 33.890625 -1.421875 
Q 20.796875 -1.421875 13.15625 6.1875 
Q 5.515625 13.8125 5.515625 26.8125 
Q 5.515625 40.234375 12.765625 48.109375 
Q 20.015625 56 32.328125 56 
Q 43.359375 56 49.78125 48.890625 
Q 56.203125 41.796875 56.203125 29.59375 
z
M 47.21875 32.234375 
Q 47.125 39.59375 43.09375 43.984375 
Q 39.0625 48.390625 32.421875 48.390625 
Q 24.90625 48.390625 20.390625 44.140625 
Q 15.875 39.890625 15.1875 32.171875 
z
" id="DejaVuSans-101"/>
       <path d="M 45.40625 27.984375 
Q 45.40625 37.75 41.375 43.109375 
Q 37.359375 48.484375 30.078125 48.484375 
Q 22.859375 48.484375 18.828125 43.109375 
Q 14.796875 37.75 14.796875 27.984375 
Q 14.796875 18.265625 18.828125 12.890625 
Q 22.859375 7.515625 30.078125 7.515625 
Q 37.359375 7.515625 41.375 12.890625 
Q 45.40625 18.265625 45.40625 27.984375 
z
M 54.390625 6.78125 
Q 54.390625 -7.171875 48.1875 -13.984375 
Q 42 -20.796875 29.203125 -20.796875 
Q 24.46875 -20.796875 20.265625 -20.09375 
Q 16.0625 -19.390625 12.109375 -17.921875 
L 12.109375 -9.1875 
Q 16.0625 -11.328125 19.921875 -12.34375 
Q 23.78125 -13.375 27.78125 -13.375 
Q 36.625 -13.375 41.015625 -8.765625 
Q 45.40625 -4.15625 45.40625 5.171875 
L 45.40625 9.625 
Q 42.625 4.78125 38.28125 2.390625 
Q 33.9375 0 27.875 0 
Q 17.828125 0 11.671875 7.65625 
Q 5.515625 15.328125 5.515625 27.984375 
Q 5.515625 40.671875 11.671875 48.328125 
Q 17.828125 56 27.875 56 
Q 33.9375 56 38.28125 53.609375 
Q 42.625 51.21875 45.40625 46.390625 
L 45.40625 54.6875 
L 54.390625 54.6875 
z
" id="DejaVuSans-103"/>
       <path d="M 10.6875 12.40625 
L 21 12.40625 
L 21 0 
L 10.6875 0 
z
" id="DejaVuSans-46"/>
       <path d="M 8.6875 72.90625 
L 18.609375 72.90625 
L 18.609375 28.609375 
Q 18.609375 16.890625 22.84375 11.734375 
Q 27.09375 6.59375 36.625 6.59375 
Q 46.09375 6.59375 50.34375 11.734375 
Q 54.59375 16.890625 54.59375 28.609375 
L 54.59375 72.90625 
L 64.5 72.90625 
L 64.5 27.390625 
Q 64.5 13.140625 57.4375 5.859375 
Q 50.390625 -1.421875 36.625 -1.421875 
Q 22.796875 -1.421875 15.734375 5.859375 
Q 8.6875 13.140625 8.6875 27.390625 
z
" id="DejaVuSans-85"/>
      </defs>
      <use xlink:href="#DejaVuSans-69"/>
      <use x="63.183594" xlink:href="#DejaVuSans-110"/>
      <use x="126.5625" xlink:href="#DejaVuSans-101"/>
      <use x="188.085938" xlink:href="#DejaVuSans-114"/>
      <use x="227.449219" xlink:href="#DejaVuSans-103"/>
      <use x="290.925781" xlink:href="#DejaVuSans-121"/>
      <use x="350.105469" xlink:href="#DejaVuSans-32"/>
      <use x="381.892578" xlink:href="#DejaVuSans-47"/>
      <use x="415.583984" xlink:href="#DejaVuSans-65"/>
      <use x="482.242188" xlink:href="#DejaVuSans-46"/>
      <use x="514.029297" xlink:href="#DejaVuSans-85"/>
      <use x="587.222656" xlink:href="#DejaVuSans-46"/>
     </g>
    </g>
   </g>
   <g id="line2d_26">
    <path clip-path="url(#p39549bd000)" d="M -1 510.180402 
L 74.713473 497.981551 
L 137.984841 479.773846 
L 173.040599 465.308372 
L 214.936505 453.176198 
L 256.832411 442.645023 
L 259.397466 433.504821 
L 287.613077 425.379532 
L 326.943927 418.063285 
L 339.769204 411.487025 
L 327.798946 405.408088 
L 358.579611 399.611785 
L 395.345406 394.467129 
L 396.200425 389.497482 
L 406.460647 384.936316 
L 403.040573 380.536882 
L 420.140942 376.431303 
L 441.516405 372.392829 
L 421.850979 368.61918 
L 453.486664 361.61961 
L 458.616774 358.369806 
L 471.442052 355.366332 
L 482.557292 352.327205 
L 488.542422 349.502659 
L 505.642791 346.731464 
L 487.687403 344.080188 
L 490.252459 341.499143 
L 499.657662 338.876719 
L 525.308217 336.376651 
L 519.323087 334.044044 
L 530.438328 331.892815 
L 533.003383 329.824758 
L 543.263605 327.644675 
L 547.538697 325.581698 
L 545.82866 323.712635 
L 541.553568 321.678464 
L 546.683679 319.734134 
L 552.668808 317.932401 
L 570.624197 316.160025 
L 568.059141 314.419611 
L 570.624197 312.765957 
L 589.434603 311.09531 
L 576.609326 309.472536 
L 585.159511 307.872367 
L 595.419733 306.217703 
L 591.14464 304.825245 
L 588.579585 303.340371 
L 591.14464 301.811765 
L 607.389992 300.430015 
L 608.24501 299.002416 
L 612.520103 297.66382 
L 607.389992 296.272926 
L 603.969918 294.911013 
L 620.215269 293.622812 
L 608.24501 292.37846 
L 621.925306 291.076924 
L 636.46062 289.906113 
L 631.330509 288.732976 
L 632.185528 287.534131 
L 639.025676 286.398838 
L 644.155787 285.297589 
L 650.140916 284.156381 
L 651.850953 283.041097 
L 650.995935 281.928552 
L 657.836083 280.827815 
L 657.836083 279.804296 
L 660.401138 278.814932 
L 667.241286 277.868886 
L 656.126046 276.819256 
L 668.096304 275.86284 
L 674.936452 274.868212 
L 668.951323 273.915535 
L 673.226415 273.007544 
L 690.326785 272.01169 
L 674.936452 271.147063 
L 671.516378 270.322989 
L 687.76173 269.449466 
L 694.601878 268.578267 
L 695.456896 267.710287 
L 692.036822 266.838512 
L 702.297044 265.971837 
L 703.152062 265.170716 
L 703.152062 264.36314 
L 699.731989 263.551931 
L 711.702247 262.770018 
L 704.862099 262.009948 
L 712.557266 261.218581 
L 709.137192 260.397945 
L 700.587007 259.644085 
L 705.717118 258.92027 
L 719.397414 258.1764 
L 708.282173 257.42971 
L 717.687377 256.70447 
L 720.252432 255.994427 
L 721.962469 255.275829 
L 718.542395 254.57203 
L 734.787747 253.883861 
L 738.207821 253.187224 
L 731.367673 252.511805 
L 728.802617 251.837428 
L 733.07771 251.168661 
L 746.758005 250.544547 
L 732.222691 249.885704 
L 736.497784 249.287832 
L 733.07771 248.663864 
L 736.497784 248.082017 
L 745.047968 247.483066 
L 737.352802 246.857316 
L 742.482913 246.278138 
L 741.627895 245.685783 
L 751.888116 245.065204 
L 743.337932 244.461546 
L 750.178079 243.88695 
L 753.598153 243.297906 
L 765.568412 242.733525 
L 759.583283 242.149798 
L 761.29332 241.591371 
L 764.713394 241.059864 
L 766.423431 240.482001 
L 768.988486 239.912865 
L 763.858375 239.391729 
L 765.568412 238.852843 
L 759.583283 238.341785 
L 768.988486 237.828434 
L 769.843505 237.316079 
L 767.278449 236.795506 
L 770.698523 235.749975 
L 769.843505 235.267533 
L 779.248708 234.817299 
L 780.958745 234.309445 
L 774.973616 233.844438 
L 774.973616 233.374778 
L 774.118597 232.898916 
L 783.523801 232.436048 
L 786.943874 231.96231 
L 782.668782 231.46427 
L 787.798893 230.985853 
L 788.653911 230.516635 
L 786.088856 230.013589 
L 796.349078 229.577618 
L 794.639041 228.645651 
L 788.653911 228.230935 
L 796.349078 227.784201 
L 796.349078 227.350274 
L 798.914133 226.925079 
L 793.784022 226.477752 
L 813.449448 225.615284 
L 805.754281 225.219576 
L 804.044244 224.813429 
L 810.029374 224.378028 
L 796.349078 223.983635 
L 804.899263 223.571848 
L 807.464318 223.134477 
L 803.189226 222.783297 
L 816.014503 221.574597 
L 816.869522 221.166979 
L 821.999633 220.78302 
L 816.869522 220.398913 
L 816.014503 219.991426 
L 814.304466 219.596548 
L 804.899263 219.217084 
L 819.434577 218.81924 
L 823.70967 218.467512 
L 825.419707 218.112244 
L 826.274725 217.736506 
L 819.434577 216.987624 
L 827.984762 216.617369 
L 821.999633 216.243342 
L 827.984762 215.882511 
L 824.564688 215.525073 
L 827.984762 215.176481 
L 821.144614 214.802208 
L 830.549817 214.460045 
L 818.579559 214.133292 
L 835.679928 213.776197 
L 828.83978 213.427109 
L 837.389965 213.071663 
L 840.810039 212.750176 
L 837.389965 212.425836 
L 831.404836 212.080176 
L 836.534947 211.740482 
L 835.679928 211.40791 
L 835.679928 211.062293 
L 841.665058 210.708432 
L 836.534947 210.386201 
L 825.419707 210.059033 
L 840.810039 209.733053 
L 832.259854 209.421637 
L 842.520076 208.78884 
L 846.795169 208.479661 
L 842.520076 208.179189 
L 840.810039 207.868312 
L 848.505206 207.55332 
L 838.244984 207.234596 
L 850.215243 206.938767 
L 850.215243 206.627395 
L 835.679928 206.329977 
L 850.215243 206.00796 
L 850.215243 205.403845 
L 851.92528 205.114941 
L 855.345354 204.821134 
L 848.505206 204.516361 
L 851.070261 204.234019 
L 850.215243 203.929613 
L 855.345354 203.642703 
L 849.360224 203.355654 
L 857.055391 203.062917 
L 847.650187 202.797281 
L 849.360224 202.522083 
L 853.635317 202.232488 
L 854.490335 201.936388 
L 854.490335 201.632022 
L 855.345354 201.369672 
L 858.765428 201.094051 
L 846.795169 200.817155 
L 856.200372 200.530707 
L 856.200372 200.265472 
L 855.345354 199.989977 
L 858.765428 199.746429 
L 858.765428 199.459606 
L 866.460594 198.937068 
L 860.475465 198.393992 
L 863.895539 198.123318 
L 864.750557 197.862036 
L 857.910409 197.617693 
L 866.460594 197.354864 
L 863.895539 197.075588 
L 854.490335 196.826716 
L 862.185502 196.578021 
L 853.635317 196.324922 
L 867.315612 196.066964 
L 861.330483 195.812382 
L 866.460594 195.544352 
L 866.460594 195.291619 
L 870.735686 195.062313 
L 877.575834 194.815379 
L 863.04052 194.559832 
L 872.445723 194.041588 
L 861.330483 193.792784 
L 869.880668 193.569297 
L 873.300742 193.328819 
L 870.735686 193.092262 
L 872.445723 192.84541 
L 875.865797 192.608763 
L 867.315612 192.367192 
L 867.315612 192.123959 
L 873.300742 191.892786 
L 865.605576 191.63385 
L 876.720816 191.396044 
L 867.315612 190.947382 
L 876.720816 190.714715 
L 869.025649 190.485841 
L 865.605576 190.249679 
L 872.445723 190.02959 
L 869.025649 189.789107 
L 874.15576 189.547614 
L 879.285871 188.889801 
L 875.010779 188.683016 
L 867.315612 188.44338 
L 877.575834 188.013713 
L 879.285871 187.799929 
L 875.865797 187.575747 
L 875.010779 187.370222 
L 867.315612 187.151057 
L 879.285871 186.932606 
L 883.560964 186.694962 
L 874.15576 186.468848 
L 878.430853 186.248739 
L 875.865797 186.047236 
L 881.850927 185.839474 
L 869.880668 185.640137 
L 878.430853 185.431853 
L 880.14089 185.243024 
L 878.430853 185.048156 
L 869.880668 184.853146 
L 886.126019 184.640067 
L 881.850927 184.427315 
L 884.415982 184.200175 
L 883.560964 183.993315 
L 881.850927 183.790529 
L 878.430853 183.582127 
L 879.285871 183.370749 
L 884.415982 183.180043 
L 877.575834 182.96442 
L 882.705945 182.567125 
L 875.865797 182.367197 
L 879.285871 182.168484 
L 888.691075 181.985017 
L 884.415982 181.780724 
L 886.126019 181.377807 
L 881.850927 181.187402 
L 886.981038 180.994669 
L 878.430853 180.594387 
L 885.271001 180.388266 
L 884.415982 180.205055 
L 879.285871 180.027716 
L 892.111149 179.841637 
L 880.14089 179.667887 
L 879.285871 179.475565 
L 881.850927 179.281599 
L 892.111149 179.105866 
L 886.981038 178.913776 
L 892.966167 178.71856 
L 886.126019 178.536692 
L 889.546093 178.372553 
L 884.415982 178.185236 
L 892.111149 178.013555 
L 883.560964 177.832186 
L 888.691075 177.634006 
L 890.401112 177.447979 
L 890.401112 177.267766 
L 897.24126 177.093736 
L 886.126019 176.899622 
L 898.096278 176.362059 
L 890.401112 176.189387 
L 890.401112 176.01859 
L 896.386241 175.84979 
L 881.850927 175.511876 
L 891.25613 175.325473 
L 885.271001 175.147785 
L 886.981038 174.977568 
L 886.981038 174.795449 
L 883.560964 174.628552 
L 892.111149 174.124722 
L 888.691075 173.966609 
L 880.995908 173.79291 
L 888.691075 173.632659 
L 887.836056 173.456073 
L 899.806315 173.293108 
L 898.951297 173.120367 
L 901.516352 172.957624 
L 881.850927 172.789922 
L 883.560964 172.608055 
L 893.821186 172.126993 
L 881.850927 171.804993 
L 892.966167 171.630385 
L 888.691075 171.454317 
L 898.096278 171.290817 
L 894.676204 170.982747 
L 888.691075 170.811975 
L 892.111149 170.66389 
L 883.560964 170.501247 
L 896.386241 170.350355 
L 899.806315 170.193858 
L 890.401112 169.892478 
L 891.25613 169.726366 
L 898.096278 169.558358 
L 886.126019 169.404416 
L 901.516352 169.24186 
L 892.111149 169.094614 
L 899.806315 168.94444 
L 894.676204 168.791651 
L 898.096278 168.634935 
L 890.401112 168.48873 
L 896.386241 168.334022 
L 894.676204 168.185918 
L 890.401112 168.034329 
L 892.111149 167.876078 
L 890.401112 167.728451 
L 894.676204 167.58223 
L 892.966167 167.434907 
L 900.661334 167.285274 
L 892.966167 167.132271 
L 897.24126 166.83065 
L 897.24126 166.688121 
L 893.821186 166.538258 
L 887.836056 166.404001 
L 899.806315 166.106144 
L 898.096278 165.950496 
L 891.25613 165.788386 
L 897.24126 165.649705 
L 894.676204 165.506552 
L 903.226389 165.36909 
L 895.531223 165.090564 
L 894.676204 164.952912 
L 899.806315 164.806989 
L 896.386241 164.676325 
L 896.386241 164.543521 
L 892.111149 164.398302 
L 901.516352 164.253735 
L 900.661334 164.118917 
L 901.516352 163.972325 
L 906.646463 163.833138 
L 898.096278 163.704091 
L 901.516352 163.567654 
L 888.691075 163.417603 
L 914.341629 163.278368 
L 898.096278 162.9944 
L 900.661334 162.867947 
L 892.966167 162.734367 
L 898.951297 162.598174 
L 892.111149 162.461664 
L 900.661334 162.327911 
L 897.24126 162.199995 
L 904.936426 162.069697 
L 894.676204 161.932745 
L 901.516352 161.794672 
L 898.951297 161.649091 
L 902.371371 161.379507 
L 899.806315 161.257322 
L 900.661334 161.131871 
L 898.096278 161.006697 
L 902.371371 160.880639 
L 899.806315 160.739484 
L 891.25613 160.604924 
L 906.646463 160.217009 
L 893.821186 160.102541 
L 903.226389 159.980692 
L 894.676204 159.854765 
L 903.226389 159.586161 
L 893.821186 159.3347 
L 899.806315 159.210973 
L 898.096278 159.083473 
L 906.646463 158.956949 
L 902.371371 158.821596 
L 904.936426 158.69571 
L 895.531223 158.576925 
L 902.371371 158.466129 
L 896.386241 158.338568 
L 908.3565 158.220891 
L 902.371371 158.097339 
L 908.3565 157.971533 
L 904.081408 157.847883 
L 891.25613 157.719742 
L 899.806315 157.596369 
L 898.951297 157.46086 
L 897.24126 157.341152 
L 903.226389 157.102466 
L 901.516352 156.998128 
L 909.211518 156.879895 
L 904.936426 156.755952 
L 907.501482 156.630623 
L 896.386241 156.503671 
L 898.951297 156.390112 
L 910.921555 156.151809 
L 900.661334 155.915728 
L 911.776574 155.792602 
L 895.531223 155.682658 
L 910.066537 155.563346 
L 905.791445 155.347471 
L 905.791445 155.232718 
L 897.24126 155.120793 
L 908.3565 154.870601 
L 905.791445 154.756754 
L 908.3565 154.643775 
L 902.371371 154.528853 
L 914.341629 154.286234 
L 899.806315 154.065461 
L 912.631592 153.95034 
L 896.386241 153.8346 
L 906.646463 153.609178 
L 904.936426 153.500716 
L 898.951297 153.385861 
L 915.196648 153.276705 
L 904.081408 153.058751 
L 907.501482 152.951588 
L 905.791445 152.844186 
L 915.196648 152.632609 
L 916.906685 152.525335 
L 913.486611 152.406856 
L 900.661334 152.298862 
L 909.211518 152.067378 
L 901.516352 151.967191 
L 915.196648 151.75074 
L 899.806315 151.43132 
L 906.646463 151.208774 
L 905.791445 151.108446 
L 914.341629 150.903117 
L 913.486611 150.808974 
L 905.791445 150.697284 
L 916.906685 150.483197 
L 908.3565 150.390828 
L 913.486611 150.17849 
L 920.326759 150.065351 
L 910.921555 149.856669 
L 910.921555 149.761581 
L 906.646463 149.650858 
L 910.921555 149.551992 
L 910.066537 149.447048 
L 913.486611 149.345618 
L 909.211518 149.245442 
L 913.486611 149.152028 
L 910.066537 149.047009 
L 896.386241 148.944474 
L 907.501482 148.740885 
L 904.936426 148.545041 
L 911.776574 148.24725 
L 908.3565 148.131098 
L 909.211518 148.037275 
L 911.776574 147.935883 
L 908.3565 147.838687 
L 915.196648 147.733236 
L 908.3565 147.635996 
L 917.761703 147.448506 
L 916.051666 147.348894 
L 906.646463 147.254603 
L 912.631592 147.051874 
L 911.776574 146.961026 
L 903.226389 146.778659 
L 918.616722 146.687479 
L 910.066537 146.497347 
L 910.066537 146.390005 
L 914.341629 146.201213 
L 910.921555 146.113148 
L 913.486611 146.013553 
L 907.501482 145.914026 
L 919.47174 145.819798 
L 908.3565 145.632685 
L 912.631592 145.544348 
L 907.501482 145.357365 
L 914.341629 145.072128 
L 917.761703 144.883401 
L 910.066537 144.701581 
L 915.196648 144.608343 
L 913.486611 144.524236 
L 906.646463 144.43003 
L 915.196648 144.250184 
L 908.3565 144.159378 
L 920.326759 144.078556 
L 913.486611 143.898003 
L 915.196648 143.80205 
L 913.486611 143.695581 
L 921.181777 143.613468 
L 921.181777 143.613468 
" style="fill:none;stroke:#4161ff;stroke-linecap:square;stroke-opacity:0.196078;stroke-width:4;"/>
   </g>
   <g id="line2d_27">
    <path clip-path="url(#p39549bd000)" d="M -1 501.213334 
L 19.137271 498.470095 
L 162.780377 465.686712 
L 216.646542 442.943763 
L 302.148391 425.35702 
L 311.553594 411.371239 
L 348.319389 399.364653 
L 373.969944 388.968275 
L 385.085184 379.918443 
L 370.54987 371.977971 
L 438.951349 364.76067 
L 460.326811 358.343304 
L 453.486664 352.393178 
L 465.456922 346.701796 
L 521.888143 341.721557 
L 519.323087 336.871436 
L 533.003383 332.446176 
L 533.003383 328.156828 
L 530.438328 324.192204 
L 552.668808 320.23378 
L 531.293346 316.606118 
L 550.958771 313.185864 
L 578.319363 309.885273 
L 562.92903 306.736862 
L 599.694825 300.982125 
L 613.375121 298.332777 
L 618.505232 295.696145 
L 601.404862 293.20871 
L 624.490361 290.747072 
L 615.940177 288.251206 
L 650.140916 285.888686 
L 639.880694 283.671496 
L 651.850953 281.648332 
L 650.140916 279.717059 
L 667.241286 277.656325 
L 675.791471 275.732284 
L 675.791471 274.003629 
L 674.081434 272.118837 
L 677.501508 270.309761 
L 662.966193 268.635445 
L 702.297044 266.999139 
L 698.021952 265.365022 
L 707.427155 263.820166 
L 707.427155 262.279966 
L 699.731989 260.767208 
L 718.542395 259.25061 
L 724.527525 257.710295 
L 716.832358 256.438357 
L 731.367673 255.078452 
L 721.107451 253.658862 
L 730.512654 252.417298 
L 741.627895 251.103767 
L 744.19295 249.883653 
L 728.802617 248.602058 
L 727.947599 247.336135 
L 747.613024 246.134518 
L 746.758005 245.000965 
L 761.29332 243.771637 
L 752.743135 242.714597 
L 746.758005 241.657736 
L 772.40856 240.559145 
L 774.118597 239.517113 
L 758.728264 238.535002 
L 759.583283 237.483889 
L 771.553542 236.456053 
L 774.973616 235.442624 
L 768.133468 234.417669 
L 782.668782 233.480813 
L 786.088856 231.752084 
L 783.523801 230.791622 
L 798.059115 229.93476 
L 786.088856 229.013837 
L 797.204096 228.163753 
L 799.769152 227.331319 
L 805.754281 226.436402 
L 791.218967 225.648627 
L 804.044244 224.900137 
L 804.899263 224.093208 
L 814.304466 223.297699 
L 799.769152 222.476278 
L 804.044244 221.682445 
L 823.70967 220.168586 
L 810.884392 219.424067 
L 809.174355 218.668088 
L 833.969891 217.943553 
L 839.955021 217.257635 
L 827.984762 216.528484 
L 822.854651 215.770647 
L 833.114873 215.082864 
L 831.404836 214.450692 
L 821.999633 213.763702 
L 843.375095 213.086777 
L 827.129743 212.419404 
L 832.259854 211.763386 
L 839.100002 211.127468 
L 827.984762 210.489688 
L 827.984762 209.85474 
L 836.534947 209.211073 
L 837.389965 208.594188 
L 837.389965 207.968633 
L 841.665058 207.346677 
L 846.795169 206.780832 
L 853.635317 206.173096 
L 854.490335 205.626144 
L 827.984762 205.051404 
L 841.665058 204.536719 
L 847.650187 203.991676 
L 845.94015 203.416635 
L 846.795169 202.886123 
L 846.795169 202.334843 
L 858.765428 201.769011 
L 847.650187 201.2027 
L 850.215243 200.662497 
L 860.475465 200.126178 
L 857.910409 199.616573 
L 864.750557 199.071595 
L 859.620446 198.561285 
L 865.605576 198.076176 
L 864.750557 197.530596 
L 855.345354 197.008004 
L 874.15576 196.525451 
L 869.880668 196.012438 
L 863.895539 195.552366 
L 848.505206 195.079299 
L 861.330483 194.616316 
L 864.750557 194.138727 
L 866.460594 193.658076 
L 867.315612 193.173759 
L 881.850927 192.728477 
L 886.981038 192.310014 
L 869.025649 191.843577 
L 858.765428 191.420635 
L 868.170631 191.00528 
L 863.04052 190.574494 
L 871.590705 190.149436 
L 875.010779 189.716144 
L 871.590705 189.258586 
L 873.300742 188.805339 
L 872.445723 188.372881 
L 878.430853 187.893326 
L 875.865797 187.488475 
L 880.14089 187.076217 
L 869.025649 186.262839 
L 883.560964 185.844791 
L 869.025649 185.451961 
L 879.285871 185.052854 
L 875.010779 184.634545 
L 876.720816 184.207951 
L 887.836056 183.856208 
L 880.14089 183.49678 
L 879.285871 183.111571 
L 893.821186 182.702735 
L 876.720816 182.346303 
L 887.836056 181.970488 
L 882.705945 181.566655 
L 881.850927 181.252431 
L 889.546093 180.884115 
L 892.966167 180.472903 
L 883.560964 180.126978 
L 891.25613 179.752141 
L 890.401112 179.404755 
L 890.401112 179.045148 
L 888.691075 178.660915 
L 889.546093 178.291623 
L 876.720816 177.945387 
L 890.401112 177.572454 
L 886.981038 177.252291 
L 892.111149 176.933066 
L 895.531223 176.585929 
L 886.981038 176.225448 
L 887.836056 175.886333 
L 886.981038 175.542524 
L 889.546093 175.197499 
L 889.546093 174.874085 
L 890.401112 174.544433 
L 898.096278 174.228547 
L 895.531223 173.901661 
L 897.24126 173.592304 
L 883.560964 173.296556 
L 891.25613 172.967708 
L 888.691075 172.645536 
L 891.25613 172.316714 
L 898.951297 172.026722 
L 898.096278 171.733278 
L 890.401112 171.409996 
L 897.24126 171.104102 
L 898.096278 170.800154 
L 903.226389 170.471368 
L 898.096278 170.153932 
L 896.386241 169.861144 
L 878.430853 169.57147 
L 902.371371 169.269308 
L 887.836056 168.983958 
L 900.661334 168.697534 
L 904.081408 168.410102 
L 910.921555 168.132751 
L 907.501482 167.862162 
L 883.560964 167.562415 
L 897.24126 167.283389 
L 895.531223 166.983953 
L 911.776574 166.718642 
L 904.081408 166.438046 
L 881.850927 166.170071 
L 898.951297 165.874708 
L 898.096278 165.609936 
L 900.661334 165.348017 
L 900.661334 165.080008 
L 913.486611 164.534897 
L 904.936426 164.277091 
L 908.3565 163.996815 
L 913.486611 163.731185 
L 910.066537 163.48303 
L 903.226389 163.221095 
L 901.516352 162.991572 
L 906.646463 162.735394 
L 905.791445 162.477933 
L 908.3565 162.204548 
L 906.646463 161.926297 
L 909.211518 161.69589 
L 906.646463 161.442735 
L 896.386241 161.186462 
L 909.211518 160.932762 
L 910.066537 160.692746 
L 899.806315 160.446014 
L 911.776574 160.242342 
L 916.051666 159.981813 
L 914.341629 159.745501 
L 904.081408 159.508026 
L 907.501482 159.247983 
L 898.096278 159.008419 
L 915.196648 158.765102 
L 910.066537 158.536688 
L 900.661334 158.316609 
L 914.341629 158.07524 
L 898.951297 157.813324 
L 905.791445 157.593882 
L 900.661334 157.378982 
L 891.25613 157.155213 
L 913.486611 156.922914 
L 908.3565 156.696263 
L 911.776574 156.449227 
L 912.631592 156.222849 
L 920.326759 156.01489 
L 904.936426 155.7952 
L 916.051666 155.564706 
L 902.371371 155.321167 
L 913.486611 155.0903 
L 904.081408 154.868309 
L 919.47174 154.676967 
L 917.761703 154.458875 
L 913.486611 154.244616 
L 914.341629 154.031051 
L 906.646463 153.819336 
L 908.3565 153.601096 
L 904.081408 153.386458 
L 909.211518 153.184019 
L 901.516352 152.951588 
L 911.776574 152.739236 
L 914.341629 152.539924 
L 910.066537 152.347526 
L 918.616722 151.957563 
L 904.081408 151.740941 
L 907.501482 151.542646 
L 908.3565 151.324585 
L 910.921555 151.104202 
L 920.326759 150.908523 
L 914.341629 150.529766 
L 917.761703 150.341895 
L 908.3565 150.117295 
L 916.051666 149.940076 
L 916.051666 149.748248 
L 908.3565 149.56578 
L 918.616722 149.372604 
L 914.341629 149.191708 
L 904.936426 148.988073 
L 920.326759 148.792631 
L 925.45687 148.57592 
L 902.371371 148.366586 
L 920.326759 148.182566 
L 920.326759 147.821982 
L 910.066537 147.664286 
L 918.616722 147.472358 
L 915.196648 147.309217 
L 917.761703 147.146886 
L 912.631592 146.978947 
L 919.47174 146.791686 
L 918.616722 146.597323 
L 923.746833 146.394396 
L 913.486611 146.213775 
L 913.486611 146.027163 
L 920.326759 145.841426 
L 922.891814 145.65372 
L 928.876944 145.500169 
L 916.906685 145.318419 
L 913.486611 145.132099 
L 923.746833 144.963885 
L 898.951297 144.794756 
L 928.876944 144.615365 
L 919.47174 144.455646 
L 922.036796 144.278426 
L 921.181777 144.107633 
L 919.47174 143.920025 
L 907.501482 143.745341 
L 914.341629 143.578679 
L 916.051666 143.418315 
L 922.891814 143.232681 
L 920.326759 143.04775 
L 910.921555 142.88303 
L 914.341629 142.727741 
L 928.021925 142.567071 
L 912.631592 142.416766 
L 920.326759 142.253924 
L 913.486611 142.081058 
L 914.341629 141.931665 
L 912.631592 141.763851 
L 922.891814 141.429871 
L 917.761703 141.289514 
L 929.731962 140.98299 
L 919.47174 140.830092 
L 925.45687 140.663479 
L 922.036796 140.509175 
L 922.891814 140.355162 
L 919.47174 140.20209 
L 912.631592 140.023141 
L 922.036796 139.856231 
L 922.891814 139.711008 
L 920.326759 139.556577 
L 926.311888 139.123024 
L 918.616722 138.989271 
L 924.601851 138.832926 
L 917.761703 138.667302 
L 918.616722 138.507274 
L 925.45687 138.360991 
L 916.051666 138.205104 
L 919.47174 138.057474 
L 919.47174 137.911858 
L 921.181777 137.77972 
L 924.601851 137.636697 
L 907.501482 137.361393 
L 920.326759 137.224119 
L 916.906685 137.06266 
L 933.152036 136.636576 
L 920.326759 136.488619 
L 916.906685 136.190102 
L 919.47174 136.054493 
L 928.021925 135.921844 
L 925.45687 135.778767 
L 916.906685 135.657392 
L 920.326759 135.509477 
L 927.166907 135.361924 
L 928.876944 135.093049 
L 919.47174 134.953912 
L 925.45687 134.810024 
L 923.746833 134.680284 
L 924.601851 134.539886 
L 928.021925 134.410924 
L 927.166907 134.277291 
L 915.196648 134.155775 
L 920.326759 134.026542 
L 916.051666 133.890001 
L 930.586981 133.741788 
L 918.616722 133.350201 
L 927.166907 133.098757 
L 930.586981 132.965154 
L 919.47174 132.847841 
L 923.746833 132.471465 
L 920.326759 132.343451 
L 927.166907 132.097156 
L 924.601851 131.975393 
L 935.717092 131.587047 
L 914.341629 131.343756 
L 928.021925 131.218652 
L 924.601851 131.113936 
L 934.862073 130.993184 
L 916.906685 130.732143 
L 919.47174 130.592339 
L 928.021925 130.4727 
L 923.746833 130.353553 
L 932.297018 130.122594 
L 922.036796 129.898261 
L 928.021925 129.776766 
L 920.326759 129.558759 
L 922.036796 129.432224 
L 925.45687 129.312977 
L 925.45687 129.200195 
L 921.181777 129.083719 
L 936.57211 128.96903 
L 920.326759 128.858472 
L 927.166907 128.747969 
L 927.166907 128.626669 
L 933.152036 128.387732 
L 930.586981 128.27769 
L 934.862073 128.17502 
L 929.731962 128.068175 
L 934.862073 127.960837 
L 922.036796 127.846092 
L 926.311888 127.734544 
L 919.47174 127.630551 
L 931.441999 127.414553 
L 923.746833 127.178218 
L 932.297018 127.073978 
L 930.586981 126.962819 
L 913.486611 126.859695 
L 928.021925 126.752581 
L 925.45687 126.645616 
L 933.152036 126.541624 
L 916.051666 126.318389 
L 927.166907 126.216337 
L 925.45687 126.111391 
L 928.021925 126.0104 
L 922.891814 125.920693 
L 925.45687 125.824958 
L 918.616722 125.72867 
L 923.746833 125.51363 
L 922.036796 125.393686 
L 918.616722 125.301884 
L 930.586981 125.100369 
L 933.152036 124.993515 
L 930.586981 124.78399 
L 924.601851 124.693861 
L 933.152036 124.606616 
L 916.906685 124.511227 
L 934.007055 124.419627 
L 920.326759 124.322934 
L 928.876944 124.217903 
L 922.891814 124.018294 
L 928.021925 123.8079 
L 930.586981 123.710527 
L 928.876944 123.607468 
L 921.181777 123.438737 
L 931.441999 123.346164 
L 923.746833 123.246851 
L 926.311888 123.146859 
L 922.891814 123.043155 
L 930.586981 122.951067 
L 928.021925 122.857803 
L 930.586981 122.672575 
L 937.427129 122.574633 
L 932.297018 122.475836 
L 916.906685 122.392286 
L 928.876944 122.301293 
L 925.45687 122.211204 
L 934.007055 122.129359 
L 928.876944 122.043147 
L 929.731962 121.95749 
L 931.441999 121.855896 
L 928.021925 121.756099 
L 931.441999 121.664421 
L 928.876944 121.576053 
L 934.862073 121.292506 
L 925.45687 121.118462 
L 932.297018 121.030218 
L 924.601851 120.852912 
L 936.57211 120.685734 
L 926.311888 120.59223 
L 935.717092 120.508215 
L 924.601851 120.417574 
L 931.441999 120.250935 
L 929.731962 120.166385 
L 937.427129 120.088298 
L 928.876944 120.006089 
L 936.57211 119.924729 
L 928.021925 119.748473 
L 939.992184 119.660759 
L 926.311888 119.568871 
L 931.441999 119.491885 
L 927.166907 119.31987 
L 928.876944 119.240682 
L 925.45687 119.160642 
L 931.441999 119.084714 
L 928.021925 119.005785 
L 933.152036 118.913479 
L 926.311888 118.836467 
L 936.57211 118.672451 
L 925.45687 118.602534 
L 934.862073 118.513151 
L 934.007055 118.429794 
L 934.007055 118.349326 
L 936.57211 118.282601 
L 934.862073 118.200809 
L 939.992184 118.12256 
L 925.45687 117.719899 
L 934.862073 117.646246 
L 931.441999 117.561829 
L 939.137166 117.485047 
L 936.57211 117.409852 
L 934.862073 117.34597 
L 928.021925 117.191456 
L 933.152036 117.038265 
L 928.021925 116.962449 
L 928.876944 116.891588 
L 931.441999 116.815649 
L 928.021925 116.736367 
L 935.717092 116.570041 
L 927.166907 116.498235 
L 937.427129 116.267313 
L 930.586981 116.194596 
L 938.282147 116.126177 
L 923.746833 115.980614 
L 932.297018 115.911954 
L 930.586981 115.838452 
L 928.876944 115.758786 
L 934.862073 115.68877 
L 926.311888 115.61373 
L 931.441999 115.551481 
L 935.717092 115.481847 
L 934.007055 115.410302 
L 929.731962 115.340433 
L 939.137166 115.186865 
L 922.891814 115.053421 
L 934.862073 114.831074 
L 929.731962 114.694784 
L 934.862073 114.629446 
L 929.731962 114.566879 
L 934.862073 114.497524 
L 923.746833 114.430209 
L 933.152036 114.357581 
L 931.441999 114.285589 
L 933.152036 114.215779 
L 939.992184 114.142714 
L 931.441999 114.0821 
L 932.297018 114.009057 
L 939.137166 113.936406 
L 925.45687 113.808404 
L 939.992184 113.677864 
L 928.876944 113.614004 
L 935.717092 113.552659 
L 938.282147 113.478387 
L 928.876944 113.269927 
L 932.297018 113.208701 
L 932.297018 113.208701 
" style="fill:none;stroke:#4161ff;stroke-linecap:square;stroke-opacity:0.392157;stroke-width:4;"/>
   </g>
   <g id="line2d_28">
    <path clip-path="url(#p39549bd000)" d="M 76.42351 427.423516 
L 325.23389 374.853506 
L 423.561016 344.753512 
L 406.460647 324.019954 
L 532.148365 308.192999 
L 569.769178 295.912336 
L 606.534973 285.120731 
L 648.430879 276.184038 
L 680.066563 268.505342 
L 660.401138 262.034591 
L 715.122321 256.060187 
L 730.512654 250.989857 
L 747.613024 246.336886 
L 768.133468 241.953862 
L 770.698523 238.063637 
L 774.118597 234.230802 
L 778.39369 230.677509 
L 810.029374 227.171522 
L 781.813764 223.942316 
L 838.244984 220.723573 
L 834.82491 217.690477 
L 836.534947 214.874935 
L 807.464318 212.192658 
L 811.739411 209.644585 
L 851.92528 207.489759 
L 846.795169 205.100221 
L 810.884392 203.008471 
L 880.995908 200.965011 
L 819.434577 198.98683 
L 864.750557 197.002011 
L 819.434577 194.896905 
L 876.720816 192.905494 
L 872.445723 191.116383 
L 880.995908 189.500158 
L 851.070261 187.886878 
L 875.010779 186.104298 
L 881.850927 184.719502 
L 896.386241 183.424378 
L 904.081408 182.010726 
L 894.676204 180.582358 
L 869.880668 179.224558 
L 900.661334 177.851697 
L 890.401112 176.501722 
L 853.635317 175.143274 
L 916.051666 173.834448 
L 879.285871 172.577553 
L 895.531223 171.279922 
L 906.646463 169.942016 
L 881.850927 168.96901 
L 910.066537 167.882242 
L 901.516352 166.72849 
L 908.3565 165.733364 
L 892.966167 164.657777 
L 881.850927 163.697471 
L 904.081408 162.651039 
L 879.285871 161.563908 
L 904.081408 160.49413 
L 907.501482 159.511581 
L 906.646463 158.36538 
L 919.47174 157.458719 
L 911.776574 156.630603 
L 921.181777 155.809666 
L 908.3565 154.98097 
L 892.966167 154.248858 
L 886.126019 153.385808 
L 904.936426 152.541255 
L 909.211518 151.718593 
L 880.14089 150.839559 
L 916.051666 149.999769 
L 919.47174 149.22379 
L 915.196648 148.534937 
L 897.24126 147.656475 
L 919.47174 147.007406 
L 908.3565 146.290714 
L 921.181777 145.703477 
L 923.746833 145.004245 
L 913.486611 144.334186 
L 899.806315 143.687378 
L 922.891814 142.433133 
L 906.646463 141.791201 
L 878.430853 141.072073 
L 908.3565 140.381399 
L 913.486611 139.713139 
L 919.47174 139.184164 
L 894.676204 138.622117 
L 901.516352 137.994588 
L 920.326759 137.429653 
L 928.021925 136.925022 
L 908.3565 136.342375 
L 907.501482 135.762121 
L 912.631592 135.201338 
L 929.731962 134.704968 
L 911.776574 134.131158 
L 918.616722 133.493967 
L 902.371371 132.898547 
L 928.876944 132.414658 
L 922.891814 131.963727 
L 934.007055 131.532038 
L 921.181777 131.074308 
L 923.746833 130.581744 
L 930.586981 130.10323 
L 918.616722 129.607094 
L 928.021925 129.167601 
L 920.326759 128.644674 
L 916.051666 128.130336 
L 923.746833 127.692471 
L 894.676204 127.197271 
L 920.326759 126.808798 
L 922.036796 126.420325 
L 927.166907 125.979075 
L 900.661334 125.601735 
L 928.021925 125.181574 
L 917.761703 124.754652 
L 916.051666 124.213665 
L 904.081408 123.792387 
L 931.441999 123.365752 
L 915.196648 122.966325 
L 926.311888 122.567221 
L 912.631592 122.211719 
L 938.282147 121.897952 
L 919.47174 121.50544 
L 922.036796 121.114244 
L 929.731962 120.817048 
L 914.341629 120.452638 
L 934.007055 119.746415 
L 922.036796 119.412916 
L 916.051666 119.028246 
L 929.731962 118.665178 
L 902.371371 118.255689 
L 947.687351 117.716428 
L 941.702221 117.424996 
L 941.702221 117.185571 
L 919.47174 116.628817 
L 939.137166 116.330319 
L 929.731962 116.042483 
L 930.586981 115.753293 
L 922.891814 115.43848 
L 921.181777 115.127545 
L 926.311888 114.765003 
L 941.702221 114.502235 
L 941.702221 114.279146 
L 934.862073 113.78116 
L 921.181777 113.499104 
L 930.586981 113.039042 
L 942.55724 112.781552 
L 936.57211 112.48533 
L 938.282147 112.249514 
L 925.45687 112.004086 
L 920.326759 111.70304 
L 942.55724 111.195638 
L 943.412258 110.973314 
L 931.441999 110.709461 
L 928.876944 110.523838 
L 939.992184 110.317927 
L 929.731962 110.077253 
L 939.137166 109.848822 
L 939.992184 109.627936 
L 937.427129 109.398939 
L 937.427129 109.149046 
L 929.731962 108.886156 
L 936.57211 108.640627 
L 934.007055 108.247038 
L 929.731962 108.057644 
L 928.876944 107.883125 
L 939.137166 107.699017 
L 934.862073 107.499345 
L 922.036796 107.280369 
L 938.282147 107.085444 
L 936.57211 106.90341 
L 938.282147 106.716553 
L 941.702221 106.523304 
L 940.847203 106.31046 
L 937.427129 106.132613 
L 940.847203 105.99274 
L 929.731962 105.855741 
L 935.717092 105.691653 
L 936.57211 105.521143 
L 941.702221 105.380934 
L 942.55724 105.224633 
L 935.717092 104.857257 
L 926.311888 104.701972 
L 929.731962 104.540048 
L 939.137166 104.372979 
L 940.847203 104.218562 
L 934.007055 104.067177 
L 937.427129 103.953999 
L 947.687351 103.818449 
L 933.152036 103.555116 
L 949.397388 103.197154 
L 932.297018 103.05341 
L 939.137166 102.924145 
L 934.862073 102.777167 
L 939.992184 102.555327 
L 935.717092 102.452835 
L 937.427129 102.339824 
L 934.862073 102.24588 
L 925.45687 102.126115 
L 951.962443 101.755169 
L 932.297018 101.635755 
L 945.977314 101.244992 
L 940.847203 101.058459 
L 940.847203 100.966148 
L 948.542369 100.878982 
L 948.542369 100.752337 
L 942.55724 100.545628 
L 945.977314 100.448032 
L 926.311888 100.34637 
L 925.45687 100.211346 
L 942.55724 99.986946 
L 944.267277 99.909677 
L 949.397388 99.818083 
L 948.542369 99.710015 
L 944.267277 99.620136 
L 952.817461 99.524402 
L 943.412258 99.332084 
L 950.252406 99.241677 
L 944.267277 99.145403 
L 945.977314 99.052281 
L 939.137166 98.962282 
L 950.252406 98.9003 
L 945.977314 98.84211 
L 944.267277 98.777559 
L 952.817461 98.716818 
L 939.992184 98.640462 
L 953.67248 98.484628 
L 944.267277 98.332713 
L 942.55724 98.160655 
L 949.397388 98.018682 
L 948.542369 97.958179 
L 947.687351 97.890181 
L 952.817461 97.831849 
L 951.107424 97.762315 
L 951.107424 97.697506 
L 948.542369 97.498643 
L 936.57211 97.43278 
L 946.832332 97.242944 
L 941.702221 97.188589 
L 951.107424 97.129799 
L 949.397388 97.075449 
L 938.282147 97.017652 
L 940.847203 96.959951 
L 952.817461 96.880801 
L 937.427129 96.698285 
L 948.542369 96.517008 
L 952.817461 96.465321 
L 948.542369 96.419023 
L 939.137166 96.26269 
L 945.122295 96.14057 
L 943.412258 96.07489 
L 950.252406 95.975034 
L 942.55724 95.918184 
L 945.977314 95.876842 
L 951.107424 95.641705 
L 945.122295 95.586654 
L 948.542369 95.528295 
L 952.817461 95.431862 
L 948.542369 95.325932 
L 950.252406 95.290675 
L 951.962443 95.246119 
L 945.122295 95.154706 
L 945.977314 95.114324 
L 950.252406 94.925612 
L 945.122295 94.878058 
L 951.107424 94.830795 
L 946.832332 94.612662 
L 944.267277 94.575069 
L 951.962443 94.407783 
L 946.832332 94.326556 
L 949.397388 94.277884 
L 951.962443 94.196017 
L 951.107424 94.157084 
L 948.542369 94.083426 
L 949.397388 94.043622 
L 939.137166 93.999522 
L 946.832332 93.959015 
L 946.832332 93.916923 
L 950.252406 93.871308 
L 949.397388 93.828274 
L 945.122295 93.794391 
L 947.687351 93.722149 
L 950.252406 93.687417 
L 942.55724 93.650226 
L 947.687351 93.581098 
L 951.107424 93.541012 
L 949.397388 93.459579 
L 943.412258 93.420678 
L 947.687351 93.383953 
L 951.107424 93.347062 
L 946.832332 93.282776 
L 945.122295 93.252468 
L 946.832332 93.216108 
L 945.977314 93.139479 
L 952.817461 93.106193 
L 945.122295 92.924094 
L 951.962443 92.889681 
L 949.397388 92.794655 
L 943.412258 92.758026 
L 948.542369 92.691078 
L 951.962443 92.592958 
L 945.122295 92.487569 
L 950.252406 92.457391 
L 948.542369 92.331096 
L 951.107424 92.299859 
L 950.252406 92.265404 
L 946.832332 92.236206 
L 947.687351 92.173088 
L 951.962443 92.107446 
L 950.252406 92.018289 
L 945.122295 91.896724 
L 948.542369 91.867812 
L 950.252406 91.773226 
L 944.267277 91.743286 
L 951.107424 91.713758 
L 949.397388 91.689636 
L 953.67248 91.633385 
L 951.962443 91.600986 
L 945.977314 91.534791 
L 949.397388 91.476176 
L 946.832332 91.424354 
L 951.962443 91.371644 
L 949.397388 91.202127 
L 949.397388 91.177241 
L 944.267277 91.066698 
L 950.252406 90.963766 
L 948.542369 90.939135 
L 942.55724 90.856862 
L 945.122295 90.833249 
L 949.397388 90.725835 
L 950.252406 90.650976 
L 946.832332 90.599047 
L 946.832332 90.547336 
L 951.107424 90.471415 
L 946.832332 90.44999 
L 945.122295 90.427082 
L 947.687351 90.402673 
L 946.832332 90.35248 
L 946.832332 90.322593 
L 951.962443 90.175048 
L 945.977314 90.1534 
L 947.687351 90.064658 
L 951.107424 89.942368 
L 943.412258 89.85195 
L 947.687351 89.806165 
L 947.687351 89.782348 
L 951.107424 89.757153 
L 946.832332 89.687388 
L 948.542369 89.667083 
L 948.542369 89.619647 
L 950.252406 89.510577 
L 945.977314 89.403145 
L 949.397388 89.272497 
L 946.832332 89.210558 
L 948.542369 89.168086 
L 948.542369 89.124923 
L 951.962443 89.082958 
L 946.832332 89.061578 
L 947.687351 89.02335 
L 947.687351 89.003774 
L 949.397388 88.98265 
L 947.687351 88.899812 
L 952.817461 88.855613 
L 947.687351 88.799983 
L 946.832332 88.757891 
L 947.687351 88.736955 
L 951.962443 88.697733 
L 950.252406 88.59912 
L 950.252406 88.560533 
L 951.107424 88.539479 
L 945.122295 88.519828 
L 949.397388 88.42451 
L 950.252406 88.369535 
L 947.687351 88.351599 
L 951.962443 88.330407 
L 949.397388 88.23615 
L 950.252406 88.198213 
L 945.122295 88.103539 
L 950.252406 87.976548 
L 950.252406 87.959338 
L 945.122295 87.891866 
L 947.687351 87.853141 
L 951.962443 87.783411 
L 950.252406 87.730035 
L 945.977314 87.612928 
L 950.252406 87.577269 
L 946.832332 87.508461 
L 949.397388 87.407809 
L 944.267277 87.376176 
L 950.252406 87.341621 
L 950.252406 87.341621 
" style="fill:none;stroke:#4161ff;stroke-linecap:square;stroke-opacity:0.588235;stroke-width:4;"/>
   </g>
   <g id="line2d_29">
    <path clip-path="url(#p39549bd000)" d="M 181.590784 376.743723 
L 373.114926 328.196683 
L 463.746885 301.22491 
L 497.092607 282.907003 
L 640.735713 268.71425 
L 653.56099 258.156415 
L 679.211545 248.294038 
L 657.836083 239.991018 
L 723.672506 232.969726 
L 761.29332 226.830798 
L 813.449448 221.274055 
L 745.047968 216.628786 
L 816.869522 212.277749 
L 800.62417 208.291216 
L 846.795169 204.627069 
L 806.6093 201.016455 
L 844.230113 197.75913 
L 817.72454 191.350825 
L 870.735686 188.232701 
L 848.505206 185.164394 
L 869.880668 182.430273 
L 783.523801 179.784041 
L 851.92528 177.26518 
L 902.371371 175.266627 
L 843.375095 173.095296 
L 842.520076 171.118543 
L 879.285871 169.282598 
L 854.490335 167.445105 
L 868.170631 165.586141 
L 875.010779 163.559923 
L 886.126019 161.755633 
L 861.330483 160.001458 
L 875.010779 158.433326 
L 865.605576 156.849923 
L 849.360224 155.164914 
L 918.616722 152.718534 
L 911.776574 151.463989 
L 881.850927 150.153384 
L 882.705945 148.979511 
L 900.661334 147.64688 
L 907.501482 146.449891 
L 835.679928 145.114578 
L 902.371371 143.727001 
L 904.081408 142.521708 
L 883.560964 141.281583 
L 886.981038 139.9262 
L 899.806315 139.059316 
L 907.501482 138.097604 
L 880.14089 137.020616 
L 907.501482 136.125827 
L 891.25613 135.144245 
L 893.821186 134.189164 
L 913.486611 133.199448 
L 884.415982 132.180293 
L 907.501482 131.139102 
L 919.47174 130.250243 
L 922.891814 129.279884 
L 896.386241 128.442424 
L 923.746833 127.667717 
L 911.776574 126.891133 
L 909.211518 126.144378 
L 911.776574 125.546049 
L 920.326759 124.804384 
L 920.326759 124.077429 
L 914.341629 123.322253 
L 880.995908 122.652334 
L 907.501482 121.907478 
L 910.066537 121.154666 
L 914.341629 120.504817 
L 898.951297 119.598874 
L 919.47174 119.084559 
L 926.311888 118.436634 
L 934.007055 117.874663 
L 937.427129 117.264814 
L 924.601851 116.652181 
L 904.936426 116.011395 
L 903.226389 115.402764 
L 922.891814 114.769905 
L 891.25613 114.163674 
L 895.531223 113.445315 
L 926.311888 112.213434 
L 918.616722 111.820715 
L 867.315612 111.357695 
L 919.47174 110.845745 
L 929.731962 110.382081 
L 931.441999 110.001451 
L 916.051666 109.421364 
L 840.810039 108.833983 
L 922.891814 108.329223 
L 922.036796 107.976909 
L 904.081408 107.460527 
L 918.616722 106.901977 
L 918.616722 106.34938 
L 924.601851 105.915194 
L 933.152036 105.56636 
L 945.977314 105.188084 
L 929.731962 104.847668 
L 940.847203 104.445881 
L 957.092554 104.086153 
L 924.601851 103.705132 
L 916.051666 103.29256 
L 926.311888 102.772351 
L 902.371371 102.274183 
L 922.036796 101.822526 
L 891.25613 101.370943 
L 918.616722 101.012626 
L 925.45687 100.708272 
L 925.45687 100.379824 
L 918.616722 100.062862 
L 920.326759 99.596904 
L 912.631592 99.184249 
L 915.196648 98.780077 
L 927.166907 98.448251 
L 944.267277 98.086875 
L 916.906685 97.702438 
L 925.45687 97.384022 
L 919.47174 97.100552 
L 940.847203 96.905063 
L 932.297018 96.569614 
L 948.542369 96.062898 
L 917.761703 95.795312 
L 922.036796 95.529536 
L 929.731962 95.254222 
L 940.847203 95.023365 
L 903.226389 94.695586 
L 926.311888 94.455319 
L 935.717092 94.202474 
L 939.992184 93.938799 
L 913.486611 93.777418 
L 951.962443 93.5355 
L 928.876944 93.339975 
L 938.282147 93.065843 
L 922.891814 92.832617 
L 939.137166 92.55253 
L 937.427129 92.33588 
L 937.427129 92.101185 
L 914.341629 91.813757 
L 914.341629 91.628157 
L 935.717092 91.37374 
L 945.122295 91.148538 
L 942.55724 91.029955 
L 942.55724 90.875663 
L 937.427129 90.729438 
L 937.427129 90.548282 
L 943.412258 90.402478 
L 959.657609 90.268027 
L 946.832332 90.103409 
L 946.832332 89.931174 
L 925.45687 89.775046 
L 944.267277 89.420632 
L 941.702221 89.246398 
L 951.962443 89.14814 
L 948.542369 89.053065 
L 937.427129 88.921235 
L 939.992184 88.835148 
L 950.252406 88.739797 
L 941.702221 88.591677 
L 948.542369 88.486064 
L 945.977314 88.377018 
L 952.817461 88.183787 
L 942.55724 88.039851 
L 943.412258 87.869136 
L 942.55724 87.786336 
L 944.267277 87.695841 
L 940.847203 87.6055 
L 943.412258 87.46989 
L 951.962443 87.359556 
L 929.731962 87.112847 
L 948.542369 86.926077 
L 939.137166 86.720414 
L 954.527498 86.587252 
L 951.962443 86.501993 
L 958.802591 86.363448 
L 940.847203 86.228031 
L 955.382517 86.149016 
L 949.397388 86.079074 
L 959.657609 86.013999 
L 944.267277 85.833426 
L 952.817461 85.765673 
L 951.962443 85.716336 
L 951.107424 85.666658 
L 945.977314 85.616224 
L 947.687351 85.524029 
L 946.832332 85.475503 
L 954.527498 85.441639 
L 945.977314 85.399204 
L 947.687351 85.360908 
L 946.832332 85.33024 
L 950.252406 85.29041 
L 945.977314 85.23491 
L 949.397388 85.171226 
L 945.122295 85.136757 
L 946.832332 85.061085 
L 955.382517 84.96276 
L 950.252406 84.917405 
L 952.817461 84.840589 
L 952.817461 84.806062 
L 958.802591 84.713481 
L 957.092554 84.684135 
L 947.687351 84.631163 
L 950.252406 84.544053 
L 957.092554 84.519573 
L 953.67248 84.432422 
L 948.542369 84.376892 
L 950.252406 84.330893 
L 959.657609 84.256924 
L 954.527498 84.203345 
L 948.542369 84.152383 
L 951.107424 84.080894 
L 952.817461 84.061818 
L 946.832332 84.019179 
L 951.962443 83.921932 
L 945.977314 83.901154 
L 949.397388 83.824187 
L 953.67248 83.803732 
L 945.977314 83.763694 
L 948.542369 83.720353 
L 948.542369 83.70084 
L 952.817461 83.634283 
L 945.977314 83.610151 
L 954.527498 83.571043 
L 948.542369 83.516884 
L 952.817461 83.495981 
L 947.687351 83.476148 
L 951.107424 83.396821 
L 950.252406 83.35669 
L 952.817461 83.332767 
L 948.542369 83.315302 
L 953.67248 83.281383 
L 952.817461 83.244915 
L 954.527498 83.226078 
L 943.412258 83.207622 
L 948.542369 83.128762 
L 954.527498 83.110067 
L 951.107424 83.012544 
L 946.832332 82.993143 
L 952.817461 82.972254 
L 947.687351 82.899949 
L 955.382517 82.869215 
L 949.397388 82.785062 
L 948.542369 82.76764 
L 950.252406 82.750936 
L 949.397388 82.715573 
L 952.817461 82.634601 
L 948.542369 82.651978 
L 950.252406 82.619724 
L 949.397388 82.603414 
L 951.107424 82.590248 
L 951.107424 82.574057 
L 956.237535 82.54237 
L 949.397388 82.525911 
L 951.107424 82.47817 
L 950.252406 82.462991 
L 952.817461 82.433194 
L 951.962443 82.386674 
L 951.107424 82.338142 
L 952.817461 82.28044 
L 948.542369 82.136544 
L 953.67248 82.027147 
L 951.962443 82.011621 
L 948.542369 81.997652 
L 951.107424 81.900802 
L 946.832332 81.805316 
L 955.382517 81.874221 
L 950.252406 81.780491 
L 949.397388 81.740305 
L 951.962443 81.675317 
L 953.67248 81.649954 
L 950.252406 81.599393 
L 954.527498 81.588587 
L 953.67248 81.499805 
L 947.687351 81.477091 
L 951.962443 81.390226 
L 946.832332 81.308869 
L 952.817461 81.343864 
L 949.397388 81.261785 
L 952.817461 81.191647 
L 947.687351 81.170641 
L 948.542369 81.159379 
L 951.962443 81.068853 
L 947.687351 81.125728 
L 950.252406 81.046938 
L 948.542369 81.035957 
L 953.67248 80.991411 
L 950.252406 80.948253 
L 953.67248 80.893526 
L 949.397388 80.927579 
L 952.817461 80.874004 
L 946.832332 80.863443 
L 953.67248 80.810562 
L 951.962443 80.76907 
L 951.962443 80.75944 
L 947.687351 80.716511 
L 954.527498 80.656574 
L 949.397388 80.644884 
L 951.107424 80.55473 
L 947.687351 80.606605 
L 950.252406 80.545104 
L 948.542369 80.506091 
L 952.817461 80.457823 
L 949.397388 80.43838 
L 951.962443 80.418299 
L 946.832332 80.381622 
L 950.252406 80.324964 
L 950.252406 80.316087 
L 951.107424 80.249949 
L 948.542369 80.259092 
L 950.252406 80.213406 
L 947.687351 80.149389 
L 951.962443 80.176674 
L 950.252406 80.103518 
L 952.817461 80.059841 
L 948.542369 80.041349 
L 950.252406 79.998636 
L 950.252406 79.980935 
L 951.962443 79.946756 
L 946.832332 79.869515 
L 952.817461 79.786294 
L 947.687351 79.760527 
L 946.832332 79.752802 
L 951.107424 79.743921 
L 950.252406 79.68843 
L 951.962443 79.680303 
L 946.832332 79.622414 
L 949.397388 79.583489 
L 948.542369 79.535805 
L 951.107424 79.567645 
L 948.542369 79.535805 
" style="fill:none;stroke:#4161ff;stroke-linecap:square;stroke-opacity:0.784314;stroke-width:4;"/>
   </g>
   <g id="line2d_30">
    <path clip-path="url(#p39549bd000)" d="M 256.832411 295.171752 
L 105.494138 254.151458 
L 291.033151 230.137374 
L 255.122374 213.771301 
L 419.285924 199.140606 
L 447.501534 189.043013 
L 447.501534 180.514616 
L 403.895591 172.118575 
L 469.732015 165.451003 
L 440.661386 159.293709 
L 563.784049 153.920061 
L 436.386294 149.195971 
L 585.159511 144.90194 
L 480.847255 140.578035 
L 525.308217 137.085694 
L 485.977366 133.24246 
L 527.873272 130.080245 
L 618.505232 126.815845 
L 261.962522 123.837334 
L 619.360251 121.093984 
L 486.832385 118.06517 
L 618.505232 115.676729 
L 597.984788 113.27391 
L 610.810066 110.941627 
L 633.040546 108.992742 
L 613.375121 106.887375 
L 547.538697 104.7539 
L 567.204123 102.573033 
L 637.315639 100.663307 
L 633.040546 98.936652 
L 585.159511 97.240566 
L 620.215269 95.210208 
L 702.297044 93.3856 
L 669.806341 91.581437 
L 627.910435 89.634141 
L 692.036822 87.749716 
L 648.430879 86.162333 
L 615.085158 84.703534 
L 619.360251 83.117648 
L 685.196674 81.606435 
L 544.118623 80.292243 
L 691.181804 78.88833 
L 665.531249 77.630081 
L 606.534973 76.250083 
L 676.646489 75.007694 
L 553.523827 73.786095 
L 678.356526 72.380257 
L 719.397414 71.004169 
L 691.181804 70.076017 
L 662.966193 68.998689 
L 686.051693 67.868304 
L 695.456896 66.850025 
L 642.44575 65.788988 
L 705.717118 64.780008 
L 695.456896 63.55823 
L 689.471767 62.36611 
L 617.650214 61.219345 
L 692.036822 60.033102 
L 672.371397 59.005877 
L 624.490361 57.994887 
L 709.99221 57.031489 
L 663.821212 56.114016 
L 705.717118 55.18971 
L 630.475491 54.463856 
L 748.468042 53.408998 
L 679.211545 52.504302 
L 580.884418 51.622307 
L 674.081434 50.75378 
L 697.166933 49.874733 
L 745.047968 49.040705 
L 717.687377 48.271831 
L 614.23014 47.415382 
L 661.256157 46.59365 
L 732.222691 45.870402 
L 724.527525 45.059656 
L 722.817488 44.375585 
L 724.527525 43.485254 
L 698.021952 42.774272 
L 709.137192 41.883289 
L 778.39369 41.322885 
L 705.717118 40.630132 
L 657.836083 39.818122 
L 733.932728 39.091998 
L 661.256157 38.392432 
L 745.047968 37.805714 
L 582.594455 37.120612 
L 701.442026 36.494226 
L 706.572136 35.811813 
L 716.832358 35.190861 
L 693.746859 34.398274 
L 709.137192 33.763713 
L 737.352802 33.053811 
L 738.207821 32.367534 
L 727.09258 31.706858 
L 730.512654 31.028014 
L 695.456896 30.343274 
L 725.382543 29.770195 
L 679.211545 29.228655 
L 726.237562 28.785071 
L 773.263579 28.219441 
L 664.67623 27.591454 
L 692.891841 26.886608 
L 661.256157 26.29947 
L 759.583283 25.718651 
L 667.241286 24.485363 
L 640.735713 23.763562 
L 662.111175 23.15949 
L 662.966193 22.61887 
L 732.222691 22.099065 
L 735.642765 21.573878 
L 717.687377 21.015173 
L 671.516378 20.514007 
L 715.97734 19.998496 
L 727.947599 19.508594 
L 757.873246 19.026673 
L 728.802617 18.448579 
L 683.486637 17.976154 
L 731.367673 17.474388 
L 729.657636 17.001715 
L 781.813764 16.643222 
L 760.438301 16.108703 
L 651.850953 15.604383 
L 738.207821 15.143104 
L 710.847229 14.756789 
L 705.717118 14.293187 
L 728.802617 13.878432 
L 739.062839 13.360239 
L 655.271027 12.97448 
L 727.947599 12.570508 
L 687.76173 12.071979 
L 709.99221 11.634586 
L 770.698523 11.242957 
L 731.367673 10.843754 
L 723.672506 10.470949 
L 741.627895 9.97369 
L 721.962469 9.446524 
L 716.832358 9.04344 
L 726.237562 8.616642 
L 679.211545 8.113104 
L 713.412284 7.618753 
L 760.438301 7.220494 
L 605.679955 6.820606 
L 737.352802 6.443114 
L 742.482913 6.0733 
L 710.847229 5.742554 
L 740.772876 5.345181 
L 732.222691 4.957338 
L 716.832358 4.593561 
L 751.888116 4.207992 
L 747.613024 3.790903 
L 680.066563 3.347266 
L 657.836083 2.988722 
L 740.772876 2.649846 
L 720.252432 1.799881 
L 721.107451 1.515744 
L 759.583283 1.167592 
L 762.148338 0.739199 
L 727.947599 0.402415 
L 744.19295 0.014436 
L 737.352802 -0.300649 
L 775.828634 -0.610435 
L 701.442026 -0.994908 
L 702.68253 -1 
" style="fill:none;stroke:#4161ff;stroke-linecap:square;stroke-opacity:0.980392;stroke-width:4;"/>
   </g>
   <g id="patch_3">
    <path d="M 87.53875 500.353375 
L 87.53875 82.353375 
" style="fill:none;stroke:#000000;stroke-linecap:square;stroke-linejoin:miter;stroke-width:0.8;"/>
   </g>
   <g id="patch_4">
    <path d="M 1113.560938 500.353375 
L 1113.560938 82.353375 
" style="fill:none;stroke:#000000;stroke-linecap:square;stroke-linejoin:miter;stroke-width:0.8;"/>
   </g>
   <g id="patch_5">
    <path d="M 87.53875 500.353375 
L 1113.560937 500.353375 
" style="fill:none;stroke:#000000;stroke-linecap:square;stroke-linejoin:miter;stroke-width:0.8;"/>
   </g>
   <g id="patch_6">
    <path d="M 87.53875 82.353375 
L 1113.560937 82.353375 
" style="fill:none;stroke:#000000;stroke-linecap:square;stroke-linejoin:miter;stroke-width:0.8;"/>
   </g>
   <g id="text_12">
    <!-- Ungated: Energy vs. Accuracy with 100 Units -->
    <g transform="translate(194.050781 34.554375)scale(0.36 -0.36)">
     <defs>
      <path d="M 18.3125 70.21875 
L 18.3125 54.6875 
L 36.8125 54.6875 
L 36.8125 47.703125 
L 18.3125 47.703125 
L 18.3125 18.015625 
Q 18.3125 11.328125 20.140625 9.421875 
Q 21.96875 7.515625 27.59375 7.515625 
L 36.8125 7.515625 
L 36.8125 0 
L 27.59375 0 
Q 17.1875 0 13.234375 3.875 
Q 9.28125 7.765625 9.28125 18.015625 
L 9.28125 47.703125 
L 2.6875 47.703125 
L 2.6875 54.6875 
L 9.28125 54.6875 
L 9.28125 70.21875 
z
" id="DejaVuSans-116"/>
      <path d="M 45.40625 46.390625 
L 45.40625 75.984375 
L 54.390625 75.984375 
L 54.390625 0 
L 45.40625 0 
L 45.40625 8.203125 
Q 42.578125 3.328125 38.25 0.953125 
Q 33.9375 -1.421875 27.875 -1.421875 
Q 17.96875 -1.421875 11.734375 6.484375 
Q 5.515625 14.40625 5.515625 27.296875 
Q 5.515625 40.1875 11.734375 48.09375 
Q 17.96875 56 27.875 56 
Q 33.9375 56 38.25 53.625 
Q 42.578125 51.265625 45.40625 46.390625 
z
M 14.796875 27.296875 
Q 14.796875 17.390625 18.875 11.75 
Q 22.953125 6.109375 30.078125 6.109375 
Q 37.203125 6.109375 41.296875 11.75 
Q 45.40625 17.390625 45.40625 27.296875 
Q 45.40625 37.203125 41.296875 42.84375 
Q 37.203125 48.484375 30.078125 48.484375 
Q 22.953125 48.484375 18.875 42.84375 
Q 14.796875 37.203125 14.796875 27.296875 
z
" id="DejaVuSans-100"/>
      <path d="M 11.71875 12.40625 
L 22.015625 12.40625 
L 22.015625 0 
L 11.71875 0 
z
M 11.71875 51.703125 
L 22.015625 51.703125 
L 22.015625 39.3125 
L 11.71875 39.3125 
z
" id="DejaVuSans-58"/>
      <path d="M 2.984375 54.6875 
L 12.5 54.6875 
L 29.59375 8.796875 
L 46.6875 54.6875 
L 56.203125 54.6875 
L 35.6875 0 
L 23.484375 0 
z
" id="DejaVuSans-118"/>
      <path d="M 44.28125 53.078125 
L 44.28125 44.578125 
Q 40.484375 46.53125 36.375 47.5 
Q 32.28125 48.484375 27.875 48.484375 
Q 21.1875 48.484375 17.84375 46.4375 
Q 14.5 44.390625 14.5 40.28125 
Q 14.5 37.15625 16.890625 35.375 
Q 19.28125 33.59375 26.515625 31.984375 
L 29.59375 31.296875 
Q 39.15625 29.25 43.1875 25.515625 
Q 47.21875 21.78125 47.21875 15.09375 
Q 47.21875 7.46875 41.1875 3.015625 
Q 35.15625 -1.421875 24.609375 -1.421875 
Q 20.21875 -1.421875 15.453125 -0.5625 
Q 10.6875 0.296875 5.421875 2 
L 5.421875 11.28125 
Q 10.40625 8.6875 15.234375 7.390625 
Q 20.0625 6.109375 24.8125 6.109375 
Q 31.15625 6.109375 34.5625 8.28125 
Q 37.984375 10.453125 37.984375 14.40625 
Q 37.984375 18.0625 35.515625 20.015625 
Q 33.0625 21.96875 24.703125 23.78125 
L 21.578125 24.515625 
Q 13.234375 26.265625 9.515625 29.90625 
Q 5.8125 33.546875 5.8125 39.890625 
Q 5.8125 47.609375 11.28125 51.796875 
Q 16.75 56 26.8125 56 
Q 31.78125 56 36.171875 55.265625 
Q 40.578125 54.546875 44.28125 53.078125 
z
" id="DejaVuSans-115"/>
      <path d="M 4.203125 54.6875 
L 13.1875 54.6875 
L 24.421875 12.015625 
L 35.59375 54.6875 
L 46.1875 54.6875 
L 57.421875 12.015625 
L 68.609375 54.6875 
L 77.59375 54.6875 
L 63.28125 0 
L 52.6875 0 
L 40.921875 44.828125 
L 29.109375 0 
L 18.5 0 
z
" id="DejaVuSans-119"/>
      <path d="M 9.421875 54.6875 
L 18.40625 54.6875 
L 18.40625 0 
L 9.421875 0 
z
M 9.421875 75.984375 
L 18.40625 75.984375 
L 18.40625 64.59375 
L 9.421875 64.59375 
z
" id="DejaVuSans-105"/>
      <path d="M 54.890625 33.015625 
L 54.890625 0 
L 45.90625 0 
L 45.90625 32.71875 
Q 45.90625 40.484375 42.875 44.328125 
Q 39.84375 48.1875 33.796875 48.1875 
Q 26.515625 48.1875 22.3125 43.546875 
Q 18.109375 38.921875 18.109375 30.90625 
L 18.109375 0 
L 9.078125 0 
L 9.078125 75.984375 
L 18.109375 75.984375 
L 18.109375 46.1875 
Q 21.34375 51.125 25.703125 53.5625 
Q 30.078125 56 35.796875 56 
Q 45.21875 56 50.046875 50.171875 
Q 54.890625 44.34375 54.890625 33.015625 
z
" id="DejaVuSans-104"/>
     </defs>
     <use xlink:href="#DejaVuSans-85"/>
     <use x="73.193359" xlink:href="#DejaVuSans-110"/>
     <use x="136.572266" xlink:href="#DejaVuSans-103"/>
     <use x="200.048828" xlink:href="#DejaVuSans-97"/>
     <use x="261.328125" xlink:href="#DejaVuSans-116"/>
     <use x="300.537109" xlink:href="#DejaVuSans-101"/>
     <use x="362.060547" xlink:href="#DejaVuSans-100"/>
     <use x="425.537109" xlink:href="#DejaVuSans-58"/>
     <use x="459.228516" xlink:href="#DejaVuSans-32"/>
     <use x="491.015625" xlink:href="#DejaVuSans-69"/>
     <use x="554.199219" xlink:href="#DejaVuSans-110"/>
     <use x="617.578125" xlink:href="#DejaVuSans-101"/>
     <use x="679.101562" xlink:href="#DejaVuSans-114"/>
     <use x="718.464844" xlink:href="#DejaVuSans-103"/>
     <use x="781.941406" xlink:href="#DejaVuSans-121"/>
     <use x="841.121094" xlink:href="#DejaVuSans-32"/>
     <use x="872.908203" xlink:href="#DejaVuSans-118"/>
     <use x="932.087891" xlink:href="#DejaVuSans-115"/>
     <use x="984.1875" xlink:href="#DejaVuSans-46"/>
     <use x="1015.974609" xlink:href="#DejaVuSans-32"/>
     <use x="1047.761719" xlink:href="#DejaVuSans-65"/>
     <use x="1114.419922" xlink:href="#DejaVuSans-99"/>
     <use x="1169.400391" xlink:href="#DejaVuSans-99"/>
     <use x="1224.380859" xlink:href="#DejaVuSans-117"/>
     <use x="1287.759766" xlink:href="#DejaVuSans-114"/>
     <use x="1328.873047" xlink:href="#DejaVuSans-97"/>
     <use x="1390.152344" xlink:href="#DejaVuSans-99"/>
     <use x="1445.132812" xlink:href="#DejaVuSans-121"/>
     <use x="1504.3125" xlink:href="#DejaVuSans-32"/>
     <use x="1536.099609" xlink:href="#DejaVuSans-119"/>
     <use x="1617.886719" xlink:href="#DejaVuSans-105"/>
     <use x="1645.669922" xlink:href="#DejaVuSans-116"/>
     <use x="1684.878906" xlink:href="#DejaVuSans-104"/>
     <use x="1748.257812" xlink:href="#DejaVuSans-32"/>
     <use x="1780.044922" xlink:href="#DejaVuSans-49"/>
     <use x="1843.667969" xlink:href="#DejaVuSans-48"/>
     <use x="1907.291016" xlink:href="#DejaVuSans-48"/>
     <use x="1970.914062" xlink:href="#DejaVuSans-32"/>
     <use x="2002.701172" xlink:href="#DejaVuSans-85"/>
     <use x="2075.894531" xlink:href="#DejaVuSans-110"/>
     <use x="2139.273438" xlink:href="#DejaVuSans-105"/>
     <use x="2167.056641" xlink:href="#DejaVuSans-116"/>
     <use x="2206.265625" xlink:href="#DejaVuSans-115"/>
    </g>
    <!-- @ Various Learning Rates -->
    <g transform="translate(370.450781 74.8665)scale(0.36 -0.36)">
     <defs>
      <path d="M 37.203125 26.21875 
Q 37.203125 19.234375 40.671875 15.25 
Q 44.140625 11.28125 50.203125 11.28125 
Q 56.203125 11.28125 59.640625 15.28125 
Q 63.09375 19.28125 63.09375 26.21875 
Q 63.09375 33.0625 59.578125 37.078125 
Q 56.0625 41.109375 50.09375 41.109375 
Q 44.1875 41.109375 40.6875 37.109375 
Q 37.203125 33.109375 37.203125 26.21875 
z
M 63.8125 11.625 
Q 60.890625 7.859375 57.109375 6.078125 
Q 53.328125 4.296875 48.296875 4.296875 
Q 39.890625 4.296875 34.640625 10.375 
Q 29.390625 16.453125 29.390625 26.21875 
Q 29.390625 35.984375 34.65625 42.078125 
Q 39.9375 48.1875 48.296875 48.1875 
Q 53.328125 48.1875 57.125 46.359375 
Q 60.9375 44.53125 63.8125 40.828125 
L 63.8125 47.21875 
L 70.796875 47.21875 
L 70.796875 11.28125 
Q 77.9375 12.359375 81.953125 17.796875 
Q 85.984375 23.25 85.984375 31.890625 
Q 85.984375 37.109375 84.4375 41.703125 
Q 82.90625 46.296875 79.78125 50.203125 
Q 74.703125 56.59375 67.40625 59.984375 
Q 60.109375 63.375 51.515625 63.375 
Q 45.515625 63.375 39.984375 61.78125 
Q 34.46875 60.203125 29.78125 57.078125 
Q 22.125 52.09375 17.796875 44.015625 
Q 13.484375 35.9375 13.484375 26.515625 
Q 13.484375 18.75 16.28125 11.953125 
Q 19.09375 5.171875 24.421875 0 
Q 29.546875 -5.078125 36.28125 -7.734375 
Q 43.015625 -10.40625 50.6875 -10.40625 
Q 56.984375 -10.40625 63.0625 -8.28125 
Q 69.140625 -6.15625 74.21875 -2.203125 
L 78.609375 -7.625 
Q 72.515625 -12.359375 65.3125 -14.875 
Q 58.109375 -17.390625 50.6875 -17.390625 
Q 41.65625 -17.390625 33.640625 -14.1875 
Q 25.640625 -10.984375 19.390625 -4.890625 
Q 13.140625 1.21875 9.859375 9.25 
Q 6.59375 17.28125 6.59375 26.515625 
Q 6.59375 35.40625 9.90625 43.453125 
Q 13.234375 51.515625 19.390625 57.625 
Q 25.6875 63.8125 33.9375 67.109375 
Q 42.1875 70.40625 51.421875 70.40625 
Q 61.765625 70.40625 70.625 66.15625 
Q 79.5 61.921875 85.5 54.109375 
Q 89.15625 49.3125 91.078125 43.703125 
Q 93.015625 38.09375 93.015625 32.078125 
Q 93.015625 19.234375 85.25 11.8125 
Q 77.484375 4.390625 63.8125 4.109375 
z
" id="DejaVuSans-64"/>
      <path d="M 28.609375 0 
L 0.78125 72.90625 
L 11.078125 72.90625 
L 34.1875 11.53125 
L 57.328125 72.90625 
L 67.578125 72.90625 
L 39.796875 0 
z
" id="DejaVuSans-86"/>
      <path d="M 30.609375 48.390625 
Q 23.390625 48.390625 19.1875 42.75 
Q 14.984375 37.109375 14.984375 27.296875 
Q 14.984375 17.484375 19.15625 11.84375 
Q 23.34375 6.203125 30.609375 6.203125 
Q 37.796875 6.203125 41.984375 11.859375 
Q 46.1875 17.53125 46.1875 27.296875 
Q 46.1875 37.015625 41.984375 42.703125 
Q 37.796875 48.390625 30.609375 48.390625 
z
M 30.609375 56 
Q 42.328125 56 49.015625 48.375 
Q 55.71875 40.765625 55.71875 27.296875 
Q 55.71875 13.875 49.015625 6.21875 
Q 42.328125 -1.421875 30.609375 -1.421875 
Q 18.84375 -1.421875 12.171875 6.21875 
Q 5.515625 13.875 5.515625 27.296875 
Q 5.515625 40.765625 12.171875 48.375 
Q 18.84375 56 30.609375 56 
z
" id="DejaVuSans-111"/>
      <path d="M 9.8125 72.90625 
L 19.671875 72.90625 
L 19.671875 8.296875 
L 55.171875 8.296875 
L 55.171875 0 
L 9.8125 0 
z
" id="DejaVuSans-76"/>
      <path d="M 44.390625 34.1875 
Q 47.5625 33.109375 50.5625 29.59375 
Q 53.5625 26.078125 56.59375 19.921875 
L 66.609375 0 
L 56 0 
L 46.6875 18.703125 
Q 43.0625 26.03125 39.671875 28.421875 
Q 36.28125 30.8125 30.421875 30.8125 
L 19.671875 30.8125 
L 19.671875 0 
L 9.8125 0 
L 9.8125 72.90625 
L 32.078125 72.90625 
Q 44.578125 72.90625 50.734375 67.671875 
Q 56.890625 62.453125 56.890625 51.90625 
Q 56.890625 45.015625 53.6875 40.46875 
Q 50.484375 35.9375 44.390625 34.1875 
z
M 19.671875 64.796875 
L 19.671875 38.921875 
L 32.078125 38.921875 
Q 39.203125 38.921875 42.84375 42.21875 
Q 46.484375 45.515625 46.484375 51.90625 
Q 46.484375 58.296875 42.84375 61.546875 
Q 39.203125 64.796875 32.078125 64.796875 
z
" id="DejaVuSans-82"/>
     </defs>
     <use xlink:href="#DejaVuSans-64"/>
     <use x="100" xlink:href="#DejaVuSans-32"/>
     <use x="131.787109" xlink:href="#DejaVuSans-86"/>
     <use x="192.445312" xlink:href="#DejaVuSans-97"/>
     <use x="253.724609" xlink:href="#DejaVuSans-114"/>
     <use x="294.837891" xlink:href="#DejaVuSans-105"/>
     <use x="322.621094" xlink:href="#DejaVuSans-111"/>
     <use x="383.802734" xlink:href="#DejaVuSans-117"/>
     <use x="447.181641" xlink:href="#DejaVuSans-115"/>
     <use x="499.28125" xlink:href="#DejaVuSans-32"/>
     <use x="531.068359" xlink:href="#DejaVuSans-76"/>
     <use x="585.03125" xlink:href="#DejaVuSans-101"/>
     <use x="646.554688" xlink:href="#DejaVuSans-97"/>
     <use x="707.833984" xlink:href="#DejaVuSans-114"/>
     <use x="747.197266" xlink:href="#DejaVuSans-110"/>
     <use x="810.576172" xlink:href="#DejaVuSans-105"/>
     <use x="838.359375" xlink:href="#DejaVuSans-110"/>
     <use x="901.738281" xlink:href="#DejaVuSans-103"/>
     <use x="965.214844" xlink:href="#DejaVuSans-32"/>
     <use x="997.001953" xlink:href="#DejaVuSans-82"/>
     <use x="1064.234375" xlink:href="#DejaVuSans-97"/>
     <use x="1125.513672" xlink:href="#DejaVuSans-116"/>
     <use x="1164.722656" xlink:href="#DejaVuSans-101"/>
     <use x="1226.246094" xlink:href="#DejaVuSans-115"/>
    </g>
   </g>
   <g id="legend_1">
    <g id="patch_7">
     <path d="M 950.781563 489.353375 
L 1098.160938 489.353375 
Q 1102.560938 489.353375 1102.560938 484.953375 
L 1102.560938 325.694 
Q 1102.560938 321.294 1098.160938 321.294 
L 950.781563 321.294 
Q 946.381563 321.294 946.381563 325.694 
L 946.381563 484.953375 
Q 946.381563 489.353375 950.781563 489.353375 
z
" style="fill:#ffffff;opacity:0.8;stroke:#cccccc;stroke-linejoin:miter;"/>
    </g>
    <g id="line2d_31">
     <path d="M 955.181563 339.110562 
L 999.181563 339.110562 
" style="fill:none;stroke:#4161ff;stroke-linecap:square;stroke-opacity:0.196078;stroke-width:4;"/>
    </g>
    <g id="line2d_32"/>
    <g id="text_13">
     <!-- 0.0005 -->
     <g transform="translate(1016.781563 346.810562)scale(0.22 -0.22)">
      <use xlink:href="#DejaVuSans-48"/>
      <use x="63.623047" xlink:href="#DejaVuSans-46"/>
      <use x="95.410156" xlink:href="#DejaVuSans-48"/>
      <use x="159.033203" xlink:href="#DejaVuSans-48"/>
      <use x="222.65625" xlink:href="#DejaVuSans-48"/>
      <use x="286.279297" xlink:href="#DejaVuSans-53"/>
     </g>
    </g>
    <g id="line2d_33">
     <path d="M 955.181563 371.402437 
L 999.181563 371.402437 
" style="fill:none;stroke:#4161ff;stroke-linecap:square;stroke-opacity:0.392157;stroke-width:4;"/>
    </g>
    <g id="line2d_34"/>
    <g id="text_14">
     <!-- 0.001 -->
     <g transform="translate(1016.781563 379.102437)scale(0.22 -0.22)">
      <use xlink:href="#DejaVuSans-48"/>
      <use x="63.623047" xlink:href="#DejaVuSans-46"/>
      <use x="95.410156" xlink:href="#DejaVuSans-48"/>
      <use x="159.033203" xlink:href="#DejaVuSans-48"/>
      <use x="222.65625" xlink:href="#DejaVuSans-49"/>
     </g>
    </g>
    <g id="line2d_35">
     <path d="M 955.181563 403.694312 
L 999.181563 403.694312 
" style="fill:none;stroke:#4161ff;stroke-linecap:square;stroke-opacity:0.588235;stroke-width:4;"/>
    </g>
    <g id="line2d_36"/>
    <g id="text_15">
     <!-- 0.005 -->
     <g transform="translate(1016.781563 411.394312)scale(0.22 -0.22)">
      <use xlink:href="#DejaVuSans-48"/>
      <use x="63.623047" xlink:href="#DejaVuSans-46"/>
      <use x="95.410156" xlink:href="#DejaVuSans-48"/>
      <use x="159.033203" xlink:href="#DejaVuSans-48"/>
      <use x="222.65625" xlink:href="#DejaVuSans-53"/>
     </g>
    </g>
    <g id="line2d_37">
     <path d="M 955.181563 435.986187 
L 999.181563 435.986187 
" style="fill:none;stroke:#4161ff;stroke-linecap:square;stroke-opacity:0.784314;stroke-width:4;"/>
    </g>
    <g id="line2d_38"/>
    <g id="text_16">
     <!-- 0.01 -->
     <g transform="translate(1016.781563 443.686187)scale(0.22 -0.22)">
      <use xlink:href="#DejaVuSans-48"/>
      <use x="63.623047" xlink:href="#DejaVuSans-46"/>
      <use x="95.410156" xlink:href="#DejaVuSans-48"/>
      <use x="159.033203" xlink:href="#DejaVuSans-49"/>
     </g>
    </g>
    <g id="line2d_39">
     <path d="M 955.181563 468.278062 
L 999.181563 468.278062 
" style="fill:none;stroke:#4161ff;stroke-linecap:square;stroke-opacity:0.980392;stroke-width:4;"/>
    </g>
    <g id="line2d_40"/>
    <g id="text_17">
     <!-- 0.05 -->
     <g transform="translate(1016.781563 475.978062)scale(0.22 -0.22)">
      <use xlink:href="#DejaVuSans-48"/>
      <use x="63.623047" xlink:href="#DejaVuSans-46"/>
      <use x="95.410156" xlink:href="#DejaVuSans-48"/>
      <use x="159.033203" xlink:href="#DejaVuSans-53"/>
     </g>
    </g>
   </g>
  </g>
 </g>
 <defs>
  <clipPath id="p39549bd000">
   <rect height="418" width="1026.022188" x="87.53875" y="82.353375"/>
  </clipPath>
 </defs>
</svg>
