<?xml version="1.0" encoding="utf-8" standalone="no"?>
<!DOCTYPE svg PUBLIC "-//W3C//DTD SVG 1.1//EN"
  "http://www.w3.org/Graphics/SVG/1.1/DTD/svg11.dtd">
<!-- Created with matplotlib (https://matplotlib.org/) -->
<svg height="576pt" version="1.1" viewBox="0 0 1152 576" width="1152pt" xmlns="http://www.w3.org/2000/svg" xmlns:xlink="http://www.w3.org/1999/xlink">
 <metadata>
  <rdf:RDF xmlns:cc="http://creativecommons.org/ns#" xmlns:dc="http://purl.org/dc/elements/1.1/" xmlns:rdf="http://www.w3.org/1999/02/22-rdf-syntax-ns#">
   <cc:Work>
    <dc:type rdf:resource="http://purl.org/dc/dcmitype/StillImage"/>
    <dc:date>2021-09-12T15:10:31.337348</dc:date>
    <dc:format>image/svg+xml</dc:format>
    <dc:creator>
     <cc:Agent>
      <dc:title>Matplotlib v3.3.4, https://matplotlib.org/</dc:title>
     </cc:Agent>
    </dc:creator>
   </cc:Work>
  </rdf:RDF>
 </metadata>
 <defs>
  <style type="text/css">*{stroke-linecap:butt;stroke-linejoin:round;}</style>
 </defs>
 <g id="figure_1">
  <g id="patch_1">
   <path d="M 0 576 
L 1152 576 
L 1152 0 
L 0 0 
z
" style="fill:#ffffff;"/>
  </g>
  <g id="axes_1">
   <g id="patch_2">
    <path d="M 144 504 
L 1036.8 504 
L 1036.8 69.12 
L 144 69.12 
z
" style="fill:#ffffff;"/>
   </g>
   <g id="matplotlib.axis_1">
    <g id="xtick_1">
     <g id="line2d_1">
      <defs>
       <path d="M 0 0 
L 0 3.5 
" id="mbe085a7f66" style="stroke:#000000;stroke-width:0.8;"/>
      </defs>
      <g>
       <use style="stroke:#000000;stroke-width:0.8;" x="144" xlink:href="#mbe085a7f66" y="504"/>
      </g>
     </g>
     <g id="text_1">
      <!-- 84 -->
      <g transform="translate(128.73 529.23625)scale(0.24 -0.24)">
       <defs>
        <path d="M 31.78125 34.625 
Q 24.75 34.625 20.71875 30.859375 
Q 16.703125 27.09375 16.703125 20.515625 
Q 16.703125 13.921875 20.71875 10.15625 
Q 24.75 6.390625 31.78125 6.390625 
Q 38.8125 6.390625 42.859375 10.171875 
Q 46.921875 13.96875 46.921875 20.515625 
Q 46.921875 27.09375 42.890625 30.859375 
Q 38.875 34.625 31.78125 34.625 
z
M 21.921875 38.8125 
Q 15.578125 40.375 12.03125 44.71875 
Q 8.5 49.078125 8.5 55.328125 
Q 8.5 64.0625 14.71875 69.140625 
Q 20.953125 74.21875 31.78125 74.21875 
Q 42.671875 74.21875 48.875 69.140625 
Q 55.078125 64.0625 55.078125 55.328125 
Q 55.078125 49.078125 51.53125 44.71875 
Q 48 40.375 41.703125 38.8125 
Q 48.828125 37.15625 52.796875 32.3125 
Q 56.78125 27.484375 56.78125 20.515625 
Q 56.78125 9.90625 50.3125 4.234375 
Q 43.84375 -1.421875 31.78125 -1.421875 
Q 19.734375 -1.421875 13.25 4.234375 
Q 6.78125 9.90625 6.78125 20.515625 
Q 6.78125 27.484375 10.78125 32.3125 
Q 14.796875 37.15625 21.921875 38.8125 
z
M 18.3125 54.390625 
Q 18.3125 48.734375 21.84375 45.5625 
Q 25.390625 42.390625 31.78125 42.390625 
Q 38.140625 42.390625 41.71875 45.5625 
Q 45.3125 48.734375 45.3125 54.390625 
Q 45.3125 60.0625 41.71875 63.234375 
Q 38.140625 66.40625 31.78125 66.40625 
Q 25.390625 66.40625 21.84375 63.234375 
Q 18.3125 60.0625 18.3125 54.390625 
z
" id="DejaVuSans-56"/>
        <path d="M 37.796875 64.3125 
L 12.890625 25.390625 
L 37.796875 25.390625 
z
M 35.203125 72.90625 
L 47.609375 72.90625 
L 47.609375 25.390625 
L 58.015625 25.390625 
L 58.015625 17.1875 
L 47.609375 17.1875 
L 47.609375 0 
L 37.796875 0 
L 37.796875 17.1875 
L 4.890625 17.1875 
L 4.890625 26.703125 
z
" id="DejaVuSans-52"/>
       </defs>
       <use xlink:href="#DejaVuSans-56"/>
       <use x="63.623047" xlink:href="#DejaVuSans-52"/>
      </g>
     </g>
    </g>
    <g id="xtick_2">
     <g id="line2d_2">
      <g>
       <use style="stroke:#000000;stroke-width:0.8;" x="255.6" xlink:href="#mbe085a7f66" y="504"/>
      </g>
     </g>
     <g id="text_2">
      <!-- 86 -->
      <g transform="translate(240.33 529.23625)scale(0.24 -0.24)">
       <defs>
        <path d="M 33.015625 40.375 
Q 26.375 40.375 22.484375 35.828125 
Q 18.609375 31.296875 18.609375 23.390625 
Q 18.609375 15.53125 22.484375 10.953125 
Q 26.375 6.390625 33.015625 6.390625 
Q 39.65625 6.390625 43.53125 10.953125 
Q 47.40625 15.53125 47.40625 23.390625 
Q 47.40625 31.296875 43.53125 35.828125 
Q 39.65625 40.375 33.015625 40.375 
z
M 52.59375 71.296875 
L 52.59375 62.3125 
Q 48.875 64.0625 45.09375 64.984375 
Q 41.3125 65.921875 37.59375 65.921875 
Q 27.828125 65.921875 22.671875 59.328125 
Q 17.53125 52.734375 16.796875 39.40625 
Q 19.671875 43.65625 24.015625 45.921875 
Q 28.375 48.1875 33.59375 48.1875 
Q 44.578125 48.1875 50.953125 41.515625 
Q 57.328125 34.859375 57.328125 23.390625 
Q 57.328125 12.15625 50.6875 5.359375 
Q 44.046875 -1.421875 33.015625 -1.421875 
Q 20.359375 -1.421875 13.671875 8.265625 
Q 6.984375 17.96875 6.984375 36.375 
Q 6.984375 53.65625 15.1875 63.9375 
Q 23.390625 74.21875 37.203125 74.21875 
Q 40.921875 74.21875 44.703125 73.484375 
Q 48.484375 72.75 52.59375 71.296875 
z
" id="DejaVuSans-54"/>
       </defs>
       <use xlink:href="#DejaVuSans-56"/>
       <use x="63.623047" xlink:href="#DejaVuSans-54"/>
      </g>
     </g>
    </g>
    <g id="xtick_3">
     <g id="line2d_3">
      <g>
       <use style="stroke:#000000;stroke-width:0.8;" x="367.2" xlink:href="#mbe085a7f66" y="504"/>
      </g>
     </g>
     <g id="text_3">
      <!-- 88 -->
      <g transform="translate(351.93 529.23625)scale(0.24 -0.24)">
       <use xlink:href="#DejaVuSans-56"/>
       <use x="63.623047" xlink:href="#DejaVuSans-56"/>
      </g>
     </g>
    </g>
    <g id="xtick_4">
     <g id="line2d_4">
      <g>
       <use style="stroke:#000000;stroke-width:0.8;" x="478.8" xlink:href="#mbe085a7f66" y="504"/>
      </g>
     </g>
     <g id="text_4">
      <!-- 90 -->
      <g transform="translate(463.53 529.23625)scale(0.24 -0.24)">
       <defs>
        <path d="M 10.984375 1.515625 
L 10.984375 10.5 
Q 14.703125 8.734375 18.5 7.8125 
Q 22.3125 6.890625 25.984375 6.890625 
Q 35.75 6.890625 40.890625 13.453125 
Q 46.046875 20.015625 46.78125 33.40625 
Q 43.953125 29.203125 39.59375 26.953125 
Q 35.25 24.703125 29.984375 24.703125 
Q 19.046875 24.703125 12.671875 31.3125 
Q 6.296875 37.9375 6.296875 49.421875 
Q 6.296875 60.640625 12.9375 67.421875 
Q 19.578125 74.21875 30.609375 74.21875 
Q 43.265625 74.21875 49.921875 64.515625 
Q 56.59375 54.828125 56.59375 36.375 
Q 56.59375 19.140625 48.40625 8.859375 
Q 40.234375 -1.421875 26.421875 -1.421875 
Q 22.703125 -1.421875 18.890625 -0.6875 
Q 15.09375 0.046875 10.984375 1.515625 
z
M 30.609375 32.421875 
Q 37.25 32.421875 41.125 36.953125 
Q 45.015625 41.5 45.015625 49.421875 
Q 45.015625 57.28125 41.125 61.84375 
Q 37.25 66.40625 30.609375 66.40625 
Q 23.96875 66.40625 20.09375 61.84375 
Q 16.21875 57.28125 16.21875 49.421875 
Q 16.21875 41.5 20.09375 36.953125 
Q 23.96875 32.421875 30.609375 32.421875 
z
" id="DejaVuSans-57"/>
        <path d="M 31.78125 66.40625 
Q 24.171875 66.40625 20.328125 58.90625 
Q 16.5 51.421875 16.5 36.375 
Q 16.5 21.390625 20.328125 13.890625 
Q 24.171875 6.390625 31.78125 6.390625 
Q 39.453125 6.390625 43.28125 13.890625 
Q 47.125 21.390625 47.125 36.375 
Q 47.125 51.421875 43.28125 58.90625 
Q 39.453125 66.40625 31.78125 66.40625 
z
M 31.78125 74.21875 
Q 44.046875 74.21875 50.515625 64.515625 
Q 56.984375 54.828125 56.984375 36.375 
Q 56.984375 17.96875 50.515625 8.265625 
Q 44.046875 -1.421875 31.78125 -1.421875 
Q 19.53125 -1.421875 13.0625 8.265625 
Q 6.59375 17.96875 6.59375 36.375 
Q 6.59375 54.828125 13.0625 64.515625 
Q 19.53125 74.21875 31.78125 74.21875 
z
" id="DejaVuSans-48"/>
       </defs>
       <use xlink:href="#DejaVuSans-57"/>
       <use x="63.623047" xlink:href="#DejaVuSans-48"/>
      </g>
     </g>
    </g>
    <g id="xtick_5">
     <g id="line2d_5">
      <g>
       <use style="stroke:#000000;stroke-width:0.8;" x="590.4" xlink:href="#mbe085a7f66" y="504"/>
      </g>
     </g>
     <g id="text_5">
      <!-- 92 -->
      <g transform="translate(575.13 529.23625)scale(0.24 -0.24)">
       <defs>
        <path d="M 19.1875 8.296875 
L 53.609375 8.296875 
L 53.609375 0 
L 7.328125 0 
L 7.328125 8.296875 
Q 12.9375 14.109375 22.625 23.890625 
Q 32.328125 33.6875 34.8125 36.53125 
Q 39.546875 41.84375 41.421875 45.53125 
Q 43.3125 49.21875 43.3125 52.78125 
Q 43.3125 58.59375 39.234375 62.25 
Q 35.15625 65.921875 28.609375 65.921875 
Q 23.96875 65.921875 18.8125 64.3125 
Q 13.671875 62.703125 7.8125 59.421875 
L 7.8125 69.390625 
Q 13.765625 71.78125 18.9375 73 
Q 24.125 74.21875 28.421875 74.21875 
Q 39.75 74.21875 46.484375 68.546875 
Q 53.21875 62.890625 53.21875 53.421875 
Q 53.21875 48.921875 51.53125 44.890625 
Q 49.859375 40.875 45.40625 35.40625 
Q 44.1875 33.984375 37.640625 27.21875 
Q 31.109375 20.453125 19.1875 8.296875 
z
" id="DejaVuSans-50"/>
       </defs>
       <use xlink:href="#DejaVuSans-57"/>
       <use x="63.623047" xlink:href="#DejaVuSans-50"/>
      </g>
     </g>
    </g>
    <g id="xtick_6">
     <g id="line2d_6">
      <g>
       <use style="stroke:#000000;stroke-width:0.8;" x="702" xlink:href="#mbe085a7f66" y="504"/>
      </g>
     </g>
     <g id="text_6">
      <!-- 94 -->
      <g transform="translate(686.73 529.23625)scale(0.24 -0.24)">
       <use xlink:href="#DejaVuSans-57"/>
       <use x="63.623047" xlink:href="#DejaVuSans-52"/>
      </g>
     </g>
    </g>
    <g id="xtick_7">
     <g id="line2d_7">
      <g>
       <use style="stroke:#000000;stroke-width:0.8;" x="813.6" xlink:href="#mbe085a7f66" y="504"/>
      </g>
     </g>
     <g id="text_7">
      <!-- 96 -->
      <g transform="translate(798.33 529.23625)scale(0.24 -0.24)">
       <use xlink:href="#DejaVuSans-57"/>
       <use x="63.623047" xlink:href="#DejaVuSans-54"/>
      </g>
     </g>
    </g>
    <g id="xtick_8">
     <g id="line2d_8">
      <g>
       <use style="stroke:#000000;stroke-width:0.8;" x="925.2" xlink:href="#mbe085a7f66" y="504"/>
      </g>
     </g>
     <g id="text_8">
      <!-- 98 -->
      <g transform="translate(909.93 529.23625)scale(0.24 -0.24)">
       <use xlink:href="#DejaVuSans-57"/>
       <use x="63.623047" xlink:href="#DejaVuSans-56"/>
      </g>
     </g>
    </g>
    <g id="xtick_9">
     <g id="line2d_9">
      <g>
       <use style="stroke:#000000;stroke-width:0.8;" x="1036.8" xlink:href="#mbe085a7f66" y="504"/>
      </g>
     </g>
     <g id="text_9">
      <!-- 100 -->
      <g transform="translate(1013.895 529.23625)scale(0.24 -0.24)">
       <defs>
        <path d="M 12.40625 8.296875 
L 28.515625 8.296875 
L 28.515625 63.921875 
L 10.984375 60.40625 
L 10.984375 69.390625 
L 28.421875 72.90625 
L 38.28125 72.90625 
L 38.28125 8.296875 
L 54.390625 8.296875 
L 54.390625 0 
L 12.40625 0 
z
" id="DejaVuSans-49"/>
       </defs>
       <use xlink:href="#DejaVuSans-49"/>
       <use x="63.623047" xlink:href="#DejaVuSans-48"/>
       <use x="127.246094" xlink:href="#DejaVuSans-48"/>
      </g>
     </g>
    </g>
    <g id="text_10">
     <!-- Accuracy /% -->
     <g transform="translate(504.013437 559.503125)scale(0.28 -0.28)">
      <defs>
       <path d="M 34.1875 63.1875 
L 20.796875 26.90625 
L 47.609375 26.90625 
z
M 28.609375 72.90625 
L 39.796875 72.90625 
L 67.578125 0 
L 57.328125 0 
L 50.6875 18.703125 
L 17.828125 18.703125 
L 11.1875 0 
L 0.78125 0 
z
" id="DejaVuSans-65"/>
       <path d="M 48.78125 52.59375 
L 48.78125 44.1875 
Q 44.96875 46.296875 41.140625 47.34375 
Q 37.3125 48.390625 33.40625 48.390625 
Q 24.65625 48.390625 19.8125 42.84375 
Q 14.984375 37.3125 14.984375 27.296875 
Q 14.984375 17.28125 19.8125 11.734375 
Q 24.65625 6.203125 33.40625 6.203125 
Q 37.3125 6.203125 41.140625 7.25 
Q 44.96875 8.296875 48.78125 10.40625 
L 48.78125 2.09375 
Q 45.015625 0.34375 40.984375 -0.53125 
Q 36.96875 -1.421875 32.421875 -1.421875 
Q 20.0625 -1.421875 12.78125 6.34375 
Q 5.515625 14.109375 5.515625 27.296875 
Q 5.515625 40.671875 12.859375 48.328125 
Q 20.21875 56 33.015625 56 
Q 37.15625 56 41.109375 55.140625 
Q 45.0625 54.296875 48.78125 52.59375 
z
" id="DejaVuSans-99"/>
       <path d="M 8.5 21.578125 
L 8.5 54.6875 
L 17.484375 54.6875 
L 17.484375 21.921875 
Q 17.484375 14.15625 20.5 10.265625 
Q 23.53125 6.390625 29.59375 6.390625 
Q 36.859375 6.390625 41.078125 11.03125 
Q 45.3125 15.671875 45.3125 23.6875 
L 45.3125 54.6875 
L 54.296875 54.6875 
L 54.296875 0 
L 45.3125 0 
L 45.3125 8.40625 
Q 42.046875 3.421875 37.71875 1 
Q 33.40625 -1.421875 27.6875 -1.421875 
Q 18.265625 -1.421875 13.375 4.4375 
Q 8.5 10.296875 8.5 21.578125 
z
M 31.109375 56 
z
" id="DejaVuSans-117"/>
       <path d="M 41.109375 46.296875 
Q 39.59375 47.171875 37.8125 47.578125 
Q 36.03125 48 33.890625 48 
Q 26.265625 48 22.1875 43.046875 
Q 18.109375 38.09375 18.109375 28.8125 
L 18.109375 0 
L 9.078125 0 
L 9.078125 54.6875 
L 18.109375 54.6875 
L 18.109375 46.1875 
Q 20.953125 51.171875 25.484375 53.578125 
Q 30.03125 56 36.53125 56 
Q 37.453125 56 38.578125 55.875 
Q 39.703125 55.765625 41.0625 55.515625 
z
" id="DejaVuSans-114"/>
       <path d="M 34.28125 27.484375 
Q 23.390625 27.484375 19.1875 25 
Q 14.984375 22.515625 14.984375 16.5 
Q 14.984375 11.71875 18.140625 8.90625 
Q 21.296875 6.109375 26.703125 6.109375 
Q 34.1875 6.109375 38.703125 11.40625 
Q 43.21875 16.703125 43.21875 25.484375 
L 43.21875 27.484375 
z
M 52.203125 31.203125 
L 52.203125 0 
L 43.21875 0 
L 43.21875 8.296875 
Q 40.140625 3.328125 35.546875 0.953125 
Q 30.953125 -1.421875 24.3125 -1.421875 
Q 15.921875 -1.421875 10.953125 3.296875 
Q 6 8.015625 6 15.921875 
Q 6 25.140625 12.171875 29.828125 
Q 18.359375 34.515625 30.609375 34.515625 
L 43.21875 34.515625 
L 43.21875 35.40625 
Q 43.21875 41.609375 39.140625 45 
Q 35.0625 48.390625 27.6875 48.390625 
Q 23 48.390625 18.546875 47.265625 
Q 14.109375 46.140625 10.015625 43.890625 
L 10.015625 52.203125 
Q 14.9375 54.109375 19.578125 55.046875 
Q 24.21875 56 28.609375 56 
Q 40.484375 56 46.34375 49.84375 
Q 52.203125 43.703125 52.203125 31.203125 
z
" id="DejaVuSans-97"/>
       <path d="M 32.171875 -5.078125 
Q 28.375 -14.84375 24.75 -17.8125 
Q 21.140625 -20.796875 15.09375 -20.796875 
L 7.90625 -20.796875 
L 7.90625 -13.28125 
L 13.1875 -13.28125 
Q 16.890625 -13.28125 18.9375 -11.515625 
Q 21 -9.765625 23.484375 -3.21875 
L 25.09375 0.875 
L 2.984375 54.6875 
L 12.5 54.6875 
L 29.59375 11.921875 
L 46.6875 54.6875 
L 56.203125 54.6875 
z
" id="DejaVuSans-121"/>
       <path id="DejaVuSans-32"/>
       <path d="M 25.390625 72.90625 
L 33.6875 72.90625 
L 8.296875 -9.28125 
L 0 -9.28125 
z
" id="DejaVuSans-47"/>
       <path d="M 72.703125 32.078125 
Q 68.453125 32.078125 66.03125 28.46875 
Q 63.625 24.859375 63.625 18.40625 
Q 63.625 12.0625 66.03125 8.421875 
Q 68.453125 4.78125 72.703125 4.78125 
Q 76.859375 4.78125 79.265625 8.421875 
Q 81.6875 12.0625 81.6875 18.40625 
Q 81.6875 24.8125 79.265625 28.4375 
Q 76.859375 32.078125 72.703125 32.078125 
z
M 72.703125 38.28125 
Q 80.421875 38.28125 84.953125 32.90625 
Q 89.5 27.546875 89.5 18.40625 
Q 89.5 9.28125 84.9375 3.921875 
Q 80.375 -1.421875 72.703125 -1.421875 
Q 64.890625 -1.421875 60.34375 3.921875 
Q 55.8125 9.28125 55.8125 18.40625 
Q 55.8125 27.59375 60.375 32.9375 
Q 64.9375 38.28125 72.703125 38.28125 
z
M 22.3125 68.015625 
Q 18.109375 68.015625 15.6875 64.375 
Q 13.28125 60.75 13.28125 54.390625 
Q 13.28125 47.953125 15.671875 44.328125 
Q 18.0625 40.71875 22.3125 40.71875 
Q 26.5625 40.71875 28.96875 44.328125 
Q 31.390625 47.953125 31.390625 54.390625 
Q 31.390625 60.6875 28.953125 64.34375 
Q 26.515625 68.015625 22.3125 68.015625 
z
M 66.40625 74.21875 
L 74.21875 74.21875 
L 28.609375 -1.421875 
L 20.796875 -1.421875 
z
M 22.3125 74.21875 
Q 30.03125 74.21875 34.609375 68.875 
Q 39.203125 63.53125 39.203125 54.390625 
Q 39.203125 45.171875 34.640625 39.84375 
Q 30.078125 34.515625 22.3125 34.515625 
Q 14.546875 34.515625 10.03125 39.859375 
Q 5.515625 45.21875 5.515625 54.390625 
Q 5.515625 63.484375 10.046875 68.84375 
Q 14.59375 74.21875 22.3125 74.21875 
z
" id="DejaVuSans-37"/>
      </defs>
      <use xlink:href="#DejaVuSans-65"/>
      <use x="66.658203" xlink:href="#DejaVuSans-99"/>
      <use x="121.638672" xlink:href="#DejaVuSans-99"/>
      <use x="176.619141" xlink:href="#DejaVuSans-117"/>
      <use x="239.998047" xlink:href="#DejaVuSans-114"/>
      <use x="281.111328" xlink:href="#DejaVuSans-97"/>
      <use x="342.390625" xlink:href="#DejaVuSans-99"/>
      <use x="397.371094" xlink:href="#DejaVuSans-121"/>
      <use x="456.550781" xlink:href="#DejaVuSans-32"/>
      <use x="488.337891" xlink:href="#DejaVuSans-47"/>
      <use x="522.029297" xlink:href="#DejaVuSans-37"/>
     </g>
    </g>
   </g>
   <g id="matplotlib.axis_2">
    <g id="ytick_1">
     <g id="line2d_10">
      <defs>
       <path d="M 0 0 
L -3.5 0 
" id="m1ebd513891" style="stroke:#000000;stroke-width:0.8;"/>
      </defs>
      <g>
       <use style="stroke:#000000;stroke-width:0.8;" x="144" xlink:href="#m1ebd513891" y="444.362283"/>
      </g>
     </g>
     <g id="text_11">
      <!-- $\mathdefault{10^{1}}$ -->
      <g transform="translate(94.76 453.480408)scale(0.24 -0.24)">
       <use transform="translate(0 0.684375)" xlink:href="#DejaVuSans-49"/>
       <use transform="translate(63.623047 0.684375)" xlink:href="#DejaVuSans-48"/>
       <use transform="translate(128.203125 38.965625)scale(0.7)" xlink:href="#DejaVuSans-49"/>
      </g>
     </g>
    </g>
    <g id="ytick_2">
     <g id="line2d_11">
      <g>
       <use style="stroke:#000000;stroke-width:0.8;" x="144" xlink:href="#m1ebd513891" y="359.04"/>
      </g>
     </g>
     <g id="text_12">
      <!-- $\mathdefault{10^{2}}$ -->
      <g transform="translate(94.76 368.158125)scale(0.24 -0.24)">
       <use transform="translate(0 0.765625)" xlink:href="#DejaVuSans-49"/>
       <use transform="translate(63.623047 0.765625)" xlink:href="#DejaVuSans-48"/>
       <use transform="translate(128.203125 39.046875)scale(0.7)" xlink:href="#DejaVuSans-50"/>
      </g>
     </g>
    </g>
    <g id="ytick_3">
     <g id="line2d_12">
      <g>
       <use style="stroke:#000000;stroke-width:0.8;" x="144" xlink:href="#m1ebd513891" y="273.717717"/>
      </g>
     </g>
     <g id="text_13">
      <!-- $\mathdefault{10^{3}}$ -->
      <g transform="translate(94.76 282.835842)scale(0.24 -0.24)">
       <defs>
        <path d="M 40.578125 39.3125 
Q 47.65625 37.796875 51.625 33 
Q 55.609375 28.21875 55.609375 21.1875 
Q 55.609375 10.40625 48.1875 4.484375 
Q 40.765625 -1.421875 27.09375 -1.421875 
Q 22.515625 -1.421875 17.65625 -0.515625 
Q 12.796875 0.390625 7.625 2.203125 
L 7.625 11.71875 
Q 11.71875 9.328125 16.59375 8.109375 
Q 21.484375 6.890625 26.8125 6.890625 
Q 36.078125 6.890625 40.9375 10.546875 
Q 45.796875 14.203125 45.796875 21.1875 
Q 45.796875 27.640625 41.28125 31.265625 
Q 36.765625 34.90625 28.71875 34.90625 
L 20.21875 34.90625 
L 20.21875 43.015625 
L 29.109375 43.015625 
Q 36.375 43.015625 40.234375 45.921875 
Q 44.09375 48.828125 44.09375 54.296875 
Q 44.09375 59.90625 40.109375 62.90625 
Q 36.140625 65.921875 28.71875 65.921875 
Q 24.65625 65.921875 20.015625 65.03125 
Q 15.375 64.15625 9.8125 62.3125 
L 9.8125 71.09375 
Q 15.4375 72.65625 20.34375 73.4375 
Q 25.25 74.21875 29.59375 74.21875 
Q 40.828125 74.21875 47.359375 69.109375 
Q 53.90625 64.015625 53.90625 55.328125 
Q 53.90625 49.265625 50.4375 45.09375 
Q 46.96875 40.921875 40.578125 39.3125 
z
" id="DejaVuSans-51"/>
       </defs>
       <use transform="translate(0 0.765625)" xlink:href="#DejaVuSans-49"/>
       <use transform="translate(63.623047 0.765625)" xlink:href="#DejaVuSans-48"/>
       <use transform="translate(128.203125 39.046875)scale(0.7)" xlink:href="#DejaVuSans-51"/>
      </g>
     </g>
    </g>
    <g id="ytick_4">
     <g id="line2d_13">
      <g>
       <use style="stroke:#000000;stroke-width:0.8;" x="144" xlink:href="#m1ebd513891" y="188.395433"/>
      </g>
     </g>
     <g id="text_14">
      <!-- $\mathdefault{10^{4}}$ -->
      <g transform="translate(94.76 197.513558)scale(0.24 -0.24)">
       <use transform="translate(0 0.684375)" xlink:href="#DejaVuSans-49"/>
       <use transform="translate(63.623047 0.684375)" xlink:href="#DejaVuSans-48"/>
       <use transform="translate(128.203125 38.965625)scale(0.7)" xlink:href="#DejaVuSans-52"/>
      </g>
     </g>
    </g>
    <g id="ytick_5">
     <g id="line2d_14">
      <g>
       <use style="stroke:#000000;stroke-width:0.8;" x="144" xlink:href="#m1ebd513891" y="103.07315"/>
      </g>
     </g>
     <g id="text_15">
      <!-- $\mathdefault{10^{5}}$ -->
      <g transform="translate(94.76 112.191275)scale(0.24 -0.24)">
       <defs>
        <path d="M 10.796875 72.90625 
L 49.515625 72.90625 
L 49.515625 64.59375 
L 19.828125 64.59375 
L 19.828125 46.734375 
Q 21.96875 47.46875 24.109375 47.828125 
Q 26.265625 48.1875 28.421875 48.1875 
Q 40.625 48.1875 47.75 41.5 
Q 54.890625 34.8125 54.890625 23.390625 
Q 54.890625 11.625 47.5625 5.09375 
Q 40.234375 -1.421875 26.90625 -1.421875 
Q 22.3125 -1.421875 17.546875 -0.640625 
Q 12.796875 0.140625 7.71875 1.703125 
L 7.71875 11.625 
Q 12.109375 9.234375 16.796875 8.0625 
Q 21.484375 6.890625 26.703125 6.890625 
Q 35.15625 6.890625 40.078125 11.328125 
Q 45.015625 15.765625 45.015625 23.390625 
Q 45.015625 31 40.078125 35.4375 
Q 35.15625 39.890625 26.703125 39.890625 
Q 22.75 39.890625 18.8125 39.015625 
Q 14.890625 38.140625 10.796875 36.28125 
z
" id="DejaVuSans-53"/>
       </defs>
       <use transform="translate(0 0.684375)" xlink:href="#DejaVuSans-49"/>
       <use transform="translate(63.623047 0.684375)" xlink:href="#DejaVuSans-48"/>
       <use transform="translate(128.203125 38.965625)scale(0.7)" xlink:href="#DejaVuSans-53"/>
      </g>
     </g>
    </g>
    <g id="ytick_6">
     <g id="line2d_15">
      <defs>
       <path d="M 0 0 
L -2 0 
" id="m426c9e6139" style="stroke:#000000;stroke-width:0.6;"/>
      </defs>
      <g>
       <use style="stroke:#000000;stroke-width:0.6;" x="144" xlink:href="#m426c9e6139" y="504"/>
      </g>
     </g>
    </g>
    <g id="ytick_7">
     <g id="line2d_16">
      <g>
       <use style="stroke:#000000;stroke-width:0.6;" x="144" xlink:href="#m426c9e6139" y="488.975492"/>
      </g>
     </g>
    </g>
    <g id="ytick_8">
     <g id="line2d_17">
      <g>
       <use style="stroke:#000000;stroke-width:0.6;" x="144" xlink:href="#m426c9e6139" y="478.315433"/>
      </g>
     </g>
    </g>
    <g id="ytick_9">
     <g id="line2d_18">
      <g>
       <use style="stroke:#000000;stroke-width:0.6;" x="144" xlink:href="#m426c9e6139" y="470.04685"/>
      </g>
     </g>
    </g>
    <g id="ytick_10">
     <g id="line2d_19">
      <g>
       <use style="stroke:#000000;stroke-width:0.6;" x="144" xlink:href="#m426c9e6139" y="463.290925"/>
      </g>
     </g>
    </g>
    <g id="ytick_11">
     <g id="line2d_20">
      <g>
       <use style="stroke:#000000;stroke-width:0.6;" x="144" xlink:href="#m426c9e6139" y="457.578872"/>
      </g>
     </g>
    </g>
    <g id="ytick_12">
     <g id="line2d_21">
      <g>
       <use style="stroke:#000000;stroke-width:0.6;" x="144" xlink:href="#m426c9e6139" y="452.630867"/>
      </g>
     </g>
    </g>
    <g id="ytick_13">
     <g id="line2d_22">
      <g>
       <use style="stroke:#000000;stroke-width:0.6;" x="144" xlink:href="#m426c9e6139" y="448.266417"/>
      </g>
     </g>
    </g>
    <g id="ytick_14">
     <g id="line2d_23">
      <g>
       <use style="stroke:#000000;stroke-width:0.6;" x="144" xlink:href="#m426c9e6139" y="418.677717"/>
      </g>
     </g>
    </g>
    <g id="ytick_15">
     <g id="line2d_24">
      <g>
       <use style="stroke:#000000;stroke-width:0.6;" x="144" xlink:href="#m426c9e6139" y="403.653208"/>
      </g>
     </g>
    </g>
    <g id="ytick_16">
     <g id="line2d_25">
      <g>
       <use style="stroke:#000000;stroke-width:0.6;" x="144" xlink:href="#m426c9e6139" y="392.99315"/>
      </g>
     </g>
    </g>
    <g id="ytick_17">
     <g id="line2d_26">
      <g>
       <use style="stroke:#000000;stroke-width:0.6;" x="144" xlink:href="#m426c9e6139" y="384.724567"/>
      </g>
     </g>
    </g>
    <g id="ytick_18">
     <g id="line2d_27">
      <g>
       <use style="stroke:#000000;stroke-width:0.6;" x="144" xlink:href="#m426c9e6139" y="377.968642"/>
      </g>
     </g>
    </g>
    <g id="ytick_19">
     <g id="line2d_28">
      <g>
       <use style="stroke:#000000;stroke-width:0.6;" x="144" xlink:href="#m426c9e6139" y="372.256589"/>
      </g>
     </g>
    </g>
    <g id="ytick_20">
     <g id="line2d_29">
      <g>
       <use style="stroke:#000000;stroke-width:0.6;" x="144" xlink:href="#m426c9e6139" y="367.308584"/>
      </g>
     </g>
    </g>
    <g id="ytick_21">
     <g id="line2d_30">
      <g>
       <use style="stroke:#000000;stroke-width:0.6;" x="144" xlink:href="#m426c9e6139" y="362.944134"/>
      </g>
     </g>
    </g>
    <g id="ytick_22">
     <g id="line2d_31">
      <g>
       <use style="stroke:#000000;stroke-width:0.6;" x="144" xlink:href="#m426c9e6139" y="333.355433"/>
      </g>
     </g>
    </g>
    <g id="ytick_23">
     <g id="line2d_32">
      <g>
       <use style="stroke:#000000;stroke-width:0.6;" x="144" xlink:href="#m426c9e6139" y="318.330925"/>
      </g>
     </g>
    </g>
    <g id="ytick_24">
     <g id="line2d_33">
      <g>
       <use style="stroke:#000000;stroke-width:0.6;" x="144" xlink:href="#m426c9e6139" y="307.670867"/>
      </g>
     </g>
    </g>
    <g id="ytick_25">
     <g id="line2d_34">
      <g>
       <use style="stroke:#000000;stroke-width:0.6;" x="144" xlink:href="#m426c9e6139" y="299.402283"/>
      </g>
     </g>
    </g>
    <g id="ytick_26">
     <g id="line2d_35">
      <g>
       <use style="stroke:#000000;stroke-width:0.6;" x="144" xlink:href="#m426c9e6139" y="292.646359"/>
      </g>
     </g>
    </g>
    <g id="ytick_27">
     <g id="line2d_36">
      <g>
       <use style="stroke:#000000;stroke-width:0.6;" x="144" xlink:href="#m426c9e6139" y="286.934306"/>
      </g>
     </g>
    </g>
    <g id="ytick_28">
     <g id="line2d_37">
      <g>
       <use style="stroke:#000000;stroke-width:0.6;" x="144" xlink:href="#m426c9e6139" y="281.9863"/>
      </g>
     </g>
    </g>
    <g id="ytick_29">
     <g id="line2d_38">
      <g>
       <use style="stroke:#000000;stroke-width:0.6;" x="144" xlink:href="#m426c9e6139" y="277.62185"/>
      </g>
     </g>
    </g>
    <g id="ytick_30">
     <g id="line2d_39">
      <g>
       <use style="stroke:#000000;stroke-width:0.6;" x="144" xlink:href="#m426c9e6139" y="248.03315"/>
      </g>
     </g>
    </g>
    <g id="ytick_31">
     <g id="line2d_40">
      <g>
       <use style="stroke:#000000;stroke-width:0.6;" x="144" xlink:href="#m426c9e6139" y="233.008642"/>
      </g>
     </g>
    </g>
    <g id="ytick_32">
     <g id="line2d_41">
      <g>
       <use style="stroke:#000000;stroke-width:0.6;" x="144" xlink:href="#m426c9e6139" y="222.348584"/>
      </g>
     </g>
    </g>
    <g id="ytick_33">
     <g id="line2d_42">
      <g>
       <use style="stroke:#000000;stroke-width:0.6;" x="144" xlink:href="#m426c9e6139" y="214.08"/>
      </g>
     </g>
    </g>
    <g id="ytick_34">
     <g id="line2d_43">
      <g>
       <use style="stroke:#000000;stroke-width:0.6;" x="144" xlink:href="#m426c9e6139" y="207.324075"/>
      </g>
     </g>
    </g>
    <g id="ytick_35">
     <g id="line2d_44">
      <g>
       <use style="stroke:#000000;stroke-width:0.6;" x="144" xlink:href="#m426c9e6139" y="201.612022"/>
      </g>
     </g>
    </g>
    <g id="ytick_36">
     <g id="line2d_45">
      <g>
       <use style="stroke:#000000;stroke-width:0.6;" x="144" xlink:href="#m426c9e6139" y="196.664017"/>
      </g>
     </g>
    </g>
    <g id="ytick_37">
     <g id="line2d_46">
      <g>
       <use style="stroke:#000000;stroke-width:0.6;" x="144" xlink:href="#m426c9e6139" y="192.299567"/>
      </g>
     </g>
    </g>
    <g id="ytick_38">
     <g id="line2d_47">
      <g>
       <use style="stroke:#000000;stroke-width:0.6;" x="144" xlink:href="#m426c9e6139" y="162.710867"/>
      </g>
     </g>
    </g>
    <g id="ytick_39">
     <g id="line2d_48">
      <g>
       <use style="stroke:#000000;stroke-width:0.6;" x="144" xlink:href="#m426c9e6139" y="147.686359"/>
      </g>
     </g>
    </g>
    <g id="ytick_40">
     <g id="line2d_49">
      <g>
       <use style="stroke:#000000;stroke-width:0.6;" x="144" xlink:href="#m426c9e6139" y="137.0263"/>
      </g>
     </g>
    </g>
    <g id="ytick_41">
     <g id="line2d_50">
      <g>
       <use style="stroke:#000000;stroke-width:0.6;" x="144" xlink:href="#m426c9e6139" y="128.757717"/>
      </g>
     </g>
    </g>
    <g id="ytick_42">
     <g id="line2d_51">
      <g>
       <use style="stroke:#000000;stroke-width:0.6;" x="144" xlink:href="#m426c9e6139" y="122.001792"/>
      </g>
     </g>
    </g>
    <g id="ytick_43">
     <g id="line2d_52">
      <g>
       <use style="stroke:#000000;stroke-width:0.6;" x="144" xlink:href="#m426c9e6139" y="116.289739"/>
      </g>
     </g>
    </g>
    <g id="ytick_44">
     <g id="line2d_53">
      <g>
       <use style="stroke:#000000;stroke-width:0.6;" x="144" xlink:href="#m426c9e6139" y="111.341734"/>
      </g>
     </g>
    </g>
    <g id="ytick_45">
     <g id="line2d_54">
      <g>
       <use style="stroke:#000000;stroke-width:0.6;" x="144" xlink:href="#m426c9e6139" y="106.977284"/>
      </g>
     </g>
    </g>
    <g id="ytick_46">
     <g id="line2d_55">
      <g>
       <use style="stroke:#000000;stroke-width:0.6;" x="144" xlink:href="#m426c9e6139" y="77.388584"/>
      </g>
     </g>
    </g>
    <g id="text_16">
     <!-- Energy /A.U. -->
     <g transform="translate(84.936875 373.22)rotate(-90)scale(0.28 -0.28)">
      <defs>
       <path d="M 9.8125 72.90625 
L 55.90625 72.90625 
L 55.90625 64.59375 
L 19.671875 64.59375 
L 19.671875 43.015625 
L 54.390625 43.015625 
L 54.390625 34.71875 
L 19.671875 34.71875 
L 19.671875 8.296875 
L 56.78125 8.296875 
L 56.78125 0 
L 9.8125 0 
z
" id="DejaVuSans-69"/>
       <path d="M 54.890625 33.015625 
L 54.890625 0 
L 45.90625 0 
L 45.90625 32.71875 
Q 45.90625 40.484375 42.875 44.328125 
Q 39.84375 48.1875 33.796875 48.1875 
Q 26.515625 48.1875 22.3125 43.546875 
Q 18.109375 38.921875 18.109375 30.90625 
L 18.109375 0 
L 9.078125 0 
L 9.078125 54.6875 
L 18.109375 54.6875 
L 18.109375 46.1875 
Q 21.34375 51.125 25.703125 53.5625 
Q 30.078125 56 35.796875 56 
Q 45.21875 56 50.046875 50.171875 
Q 54.890625 44.34375 54.890625 33.015625 
z
" id="DejaVuSans-110"/>
       <path d="M 56.203125 29.59375 
L 56.203125 25.203125 
L 14.890625 25.203125 
Q 15.484375 15.921875 20.484375 11.0625 
Q 25.484375 6.203125 34.421875 6.203125 
Q 39.59375 6.203125 44.453125 7.46875 
Q 49.3125 8.734375 54.109375 11.28125 
L 54.109375 2.78125 
Q 49.265625 0.734375 44.1875 -0.34375 
Q 39.109375 -1.421875 33.890625 -1.421875 
Q 20.796875 -1.421875 13.15625 6.1875 
Q 5.515625 13.8125 5.515625 26.8125 
Q 5.515625 40.234375 12.765625 48.109375 
Q 20.015625 56 32.328125 56 
Q 43.359375 56 49.78125 48.890625 
Q 56.203125 41.796875 56.203125 29.59375 
z
M 47.21875 32.234375 
Q 47.125 39.59375 43.09375 43.984375 
Q 39.0625 48.390625 32.421875 48.390625 
Q 24.90625 48.390625 20.390625 44.140625 
Q 15.875 39.890625 15.1875 32.171875 
z
" id="DejaVuSans-101"/>
       <path d="M 45.40625 27.984375 
Q 45.40625 37.75 41.375 43.109375 
Q 37.359375 48.484375 30.078125 48.484375 
Q 22.859375 48.484375 18.828125 43.109375 
Q 14.796875 37.75 14.796875 27.984375 
Q 14.796875 18.265625 18.828125 12.890625 
Q 22.859375 7.515625 30.078125 7.515625 
Q 37.359375 7.515625 41.375 12.890625 
Q 45.40625 18.265625 45.40625 27.984375 
z
M 54.390625 6.78125 
Q 54.390625 -7.171875 48.1875 -13.984375 
Q 42 -20.796875 29.203125 -20.796875 
Q 24.46875 -20.796875 20.265625 -20.09375 
Q 16.0625 -19.390625 12.109375 -17.921875 
L 12.109375 -9.1875 
Q 16.0625 -11.328125 19.921875 -12.34375 
Q 23.78125 -13.375 27.78125 -13.375 
Q 36.625 -13.375 41.015625 -8.765625 
Q 45.40625 -4.15625 45.40625 5.171875 
L 45.40625 9.625 
Q 42.625 4.78125 38.28125 2.390625 
Q 33.9375 0 27.875 0 
Q 17.828125 0 11.671875 7.65625 
Q 5.515625 15.328125 5.515625 27.984375 
Q 5.515625 40.671875 11.671875 48.328125 
Q 17.828125 56 27.875 56 
Q 33.9375 56 38.28125 53.609375 
Q 42.625 51.21875 45.40625 46.390625 
L 45.40625 54.6875 
L 54.390625 54.6875 
z
" id="DejaVuSans-103"/>
       <path d="M 10.6875 12.40625 
L 21 12.40625 
L 21 0 
L 10.6875 0 
z
" id="DejaVuSans-46"/>
       <path d="M 8.6875 72.90625 
L 18.609375 72.90625 
L 18.609375 28.609375 
Q 18.609375 16.890625 22.84375 11.734375 
Q 27.09375 6.59375 36.625 6.59375 
Q 46.09375 6.59375 50.34375 11.734375 
Q 54.59375 16.890625 54.59375 28.609375 
L 54.59375 72.90625 
L 64.5 72.90625 
L 64.5 27.390625 
Q 64.5 13.140625 57.4375 5.859375 
Q 50.390625 -1.421875 36.625 -1.421875 
Q 22.796875 -1.421875 15.734375 5.859375 
Q 8.6875 13.140625 8.6875 27.390625 
z
" id="DejaVuSans-85"/>
      </defs>
      <use xlink:href="#DejaVuSans-69"/>
      <use x="63.183594" xlink:href="#DejaVuSans-110"/>
      <use x="126.5625" xlink:href="#DejaVuSans-101"/>
      <use x="188.085938" xlink:href="#DejaVuSans-114"/>
      <use x="227.449219" xlink:href="#DejaVuSans-103"/>
      <use x="290.925781" xlink:href="#DejaVuSans-121"/>
      <use x="350.105469" xlink:href="#DejaVuSans-32"/>
      <use x="381.892578" xlink:href="#DejaVuSans-47"/>
      <use x="415.583984" xlink:href="#DejaVuSans-65"/>
      <use x="482.242188" xlink:href="#DejaVuSans-46"/>
      <use x="514.029297" xlink:href="#DejaVuSans-85"/>
      <use x="587.222656" xlink:href="#DejaVuSans-46"/>
     </g>
    </g>
   </g>
   <g id="line2d_56">
    <path clip-path="url(#p10e865139e)" d="M 152.928 225.402147 
L 375.012 203.250816 
L 418.536 191.247647 
L 470.43 182.63426 
L 522.324 176.093132 
L 527.904 170.824272 
L 559.152 166.089621 
L 576.45 162.220987 
L 599.328 158.799614 
L 599.886 155.75859 
L 624.438 152.916295 
L 603.234 150.370702 
L 607.14 148.175507 
L 635.598 146.014815 
L 642.294 144.101036 
L 663.498 142.251844 
L 660.15 140.603154 
L 683.586 137.467489 
L 693.072 136.03631 
L 713.718 133.427368 
L 712.602 132.105437 
L 718.74 130.914693 
L 722.646 129.776371 
L 739.386 128.719237 
L 737.154 127.75752 
L 721.53 126.791315 
L 734.922 125.838393 
L 742.734 124.968455 
L 746.64 124.114595 
L 749.43 123.237547 
L 743.292 122.420969 
L 757.242 121.626375 
L 764.496 120.870353 
L 770.076 120.10114 
L 776.214 118.714643 
L 776.772 118.044666 
L 776.772 117.39836 
L 787.374 116.7405 
L 785.7 116.140441 
L 786.258 115.559053 
L 784.584 114.957076 
L 799.65 114.355143 
L 796.86 113.788773 
L 806.346 113.255618 
L 811.368 112.719556 
L 810.81 112.198505 
L 805.23 111.700498 
L 806.346 111.183373 
L 811.926 110.690569 
L 819.738 110.234578 
L 813.042 109.77438 
L 822.528 108.873533 
L 823.086 108.418697 
L 824.76 108.010174 
L 829.782 107.591286 
L 829.782 107.158278 
L 833.688 106.719376 
L 833.688 106.314136 
L 830.898 105.91834 
L 841.5 105.548975 
L 842.058 105.174827 
L 840.942 104.824602 
L 840.942 104.450583 
L 843.732 104.113577 
L 838.71 103.747187 
L 837.594 103.380547 
L 843.732 103.038921 
L 851.544 102.396532 
L 848.754 102.073379 
L 854.892 101.746111 
L 855.45 101.427058 
L 844.848 101.110792 
L 861.588 100.198184 
L 856.008 99.884708 
L 864.378 99.588659 
L 858.24 99.307599 
L 861.03 99.027702 
L 855.45 98.758097 
L 863.82 98.467686 
L 865.494 98.20941 
L 864.378 97.933933 
L 872.19 97.151476 
L 869.4 96.889021 
L 875.538 96.642677 
L 866.052 96.401942 
L 873.306 96.149271 
L 872.748 95.896889 
L 876.096 95.672904 
L 875.538 95.448487 
L 877.212 95.198829 
L 885.582 94.737667 
L 876.654 94.2945 
L 875.538 94.058354 
L 878.886 93.833641 
L 883.908 93.608215 
L 885.024 93.400662 
L 878.328 93.172384 
L 880.56 92.965486 
L 885.582 92.754481 
L 882.234 92.543769 
L 893.952 92.138351 
L 887.256 91.930394 
L 887.256 91.736618 
L 893.394 91.545433 
L 885.024 91.143639 
L 890.604 90.95219 
L 890.604 90.772574 
L 895.068 90.58632 
L 892.836 90.399743 
L 888.93 90.225833 
L 890.046 90.049232 
L 893.952 89.866473 
L 891.72 89.683262 
L 892.836 89.528227 
L 898.974 89.347405 
L 887.814 88.984546 
L 897.858 88.809502 
L 894.51 88.631697 
L 905.67 88.152797 
L 900.648 87.993691 
L 897.858 87.666454 
L 898.974 87.496893 
L 892.836 87.335436 
L 904.554 87.166493 
L 903.438 87.001593 
L 907.902 86.856004 
L 896.742 86.696497 
L 901.764 86.535868 
L 902.322 86.382318 
L 906.228 86.244313 
L 900.648 86.08832 
L 909.018 85.796619 
L 907.344 85.668568 
L 911.25 85.524594 
L 907.344 85.37449 
L 892.278 85.077112 
L 906.786 84.796674 
L 897.858 84.668765 
L 906.228 84.391288 
L 907.902 84.263675 
L 906.228 84.118335 
L 908.46 83.975928 
L 912.924 83.853665 
L 904.554 83.457322 
L 909.576 83.322651 
L 909.576 83.202211 
L 906.228 83.082097 
L 910.692 82.961511 
L 907.902 82.832633 
L 916.83 82.580106 
L 910.692 82.328959 
L 912.366 82.215213 
L 919.062 82.086062 
L 909.576 81.96658 
L 915.156 81.84285 
L 910.692 81.726094 
L 910.692 81.610335 
L 912.366 81.507236 
L 911.25 81.389051 
L 912.366 81.275741 
L 914.598 81.161159 
L 914.04 81.045783 
L 916.83 80.924329 
L 913.482 80.808655 
L 919.062 80.579139 
L 915.156 80.476964 
L 917.388 80.267747 
L 915.156 80.150158 
L 922.41 80.046462 
L 916.83 79.83515 
L 915.156 79.732151 
L 918.504 79.628101 
L 916.272 79.418921 
L 917.946 79.317647 
L 914.04 79.214085 
L 917.388 79.033805 
L 915.156 78.940123 
L 916.272 78.841104 
L 922.41 78.734024 
L 914.598 78.532267 
L 917.388 78.430677 
L 914.598 78.229436 
L 920.178 77.945257 
L 917.946 77.852018 
L 912.366 77.754102 
L 923.526 77.476733 
L 918.504 77.391588 
L 919.62 77.30436 
L 921.852 77.119622 
L 915.156 77.024852 
L 916.272 76.937586 
L 919.062 76.859295 
L 917.388 76.759307 
L 921.294 76.59193 
L 917.946 76.422767 
L 921.294 76.338624 
L 920.736 76.253221 
L 921.294 76.169717 
L 918.504 76.079469 
L 924.642 75.994611 
L 916.83 75.826961 
L 921.852 75.665885 
L 914.598 75.59405 
L 923.526 75.511952 
L 919.062 75.343677 
L 924.084 75.183034 
L 911.808 75.024756 
L 920.178 74.868815 
L 922.41 74.798421 
L 918.504 74.722201 
L 920.178 74.646954 
L 921.294 74.569817 
L 927.432 74.494933 
L 917.388 74.416373 
L 923.526 74.345563 
L 920.178 74.259895 
L 925.758 74.116815 
L 923.526 73.962375 
L 922.968 73.888782 
L 920.736 73.749323 
L 922.968 73.67217 
L 921.852 73.60011 
L 928.548 73.387203 
L 920.178 73.32348 
L 921.852 73.261565 
L 920.178 73.18497 
L 925.2 73.063311 
L 923.526 73.00116 
L 921.294 72.934831 
L 925.2 72.86281 
L 924.084 72.794213 
L 926.316 72.726799 
L 921.852 72.593789 
L 923.526 72.520075 
L 923.526 72.447007 
L 924.642 72.378466 
L 923.526 72.312533 
L 926.874 72.249638 
L 920.178 72.126721 
L 927.432 71.932769 
L 929.664 71.871233 
L 924.084 71.805438 
L 926.874 71.735855 
L 926.874 71.67564 
L 927.432 71.612813 
L 926.874 71.561775 
L 924.642 71.504697 
L 927.432 71.436978 
L 921.294 71.316836 
L 922.41 71.259252 
L 925.2 71.119614 
L 927.99 71.061657 
L 922.41 70.998785 
L 925.2 70.939614 
L 924.642 70.891427 
L 926.316 70.837061 
L 925.758 70.775823 
L 926.316 70.716126 
L 924.642 70.603798 
L 920.178 70.551062 
L 926.316 70.501331 
L 924.642 70.442837 
L 924.084 70.382581 
L 928.548 70.319048 
L 926.316 70.266175 
L 926.874 70.208299 
L 922.968 70.15937 
L 929.106 70.044242 
L 924.084 69.886419 
L 928.548 69.671183 
L 925.2 69.613998 
L 927.432 69.558967 
L 927.99 69.459256 
L 926.316 69.409742 
L 926.874 69.359468 
L 926.874 69.30498 
L 927.99 69.253307 
L 923.526 69.198818 
L 927.432 69.149109 
L 925.758 69.097672 
L 928.548 69.048548 
L 925.758 68.996118 
L 928.548 68.856478 
L 927.99 68.805414 
L 921.294 68.563494 
L 930.222 68.51359 
L 928.548 68.414402 
" style="fill:none;stroke:#1f1f1f;stroke-linecap:square;stroke-width:5;"/>
   </g>
   <g id="line2d_57">
    <path clip-path="url(#p10e865139e)" d="M 152.928 490.24451 
L 375.012 458.453694 
L 418.536 439.433882 
L 470.43 425.87178 
L 522.324 415.335637 
L 527.904 406.66932 
L 559.152 399.372776 
L 576.45 393.084081 
L 599.328 387.570383 
L 599.886 382.592717 
L 624.438 378.132216 
L 603.234 374.080341 
L 607.14 370.299062 
L 635.598 366.799181 
L 642.294 363.561533 
L 663.498 360.577893 
L 660.15 357.76006 
L 683.586 352.58446 
L 693.072 350.225756 
L 713.718 345.871005 
L 712.602 343.838412 
L 718.74 341.872129 
L 722.646 339.988688 
L 739.386 338.195371 
L 737.154 336.472498 
L 721.53 334.827991 
L 734.922 333.236835 
L 742.734 331.717617 
L 746.64 330.246906 
L 749.43 328.828656 
L 743.292 327.463125 
L 757.242 326.128113 
L 764.496 324.846479 
L 770.076 323.598204 
L 773.424 322.388943 
L 776.214 321.218249 
L 776.772 320.070336 
L 776.772 318.957287 
L 787.374 317.873404 
L 785.7 316.817249 
L 786.258 315.79182 
L 784.584 314.795269 
L 799.65 313.827893 
L 796.86 312.876743 
L 806.346 311.94992 
L 811.368 311.044495 
L 810.81 310.159921 
L 805.23 309.298579 
L 806.346 308.454811 
L 811.926 307.627939 
L 819.738 306.821118 
L 813.042 306.034612 
L 822.528 304.508439 
L 823.086 303.76306 
L 824.76 303.02557 
L 829.782 302.308062 
L 829.782 301.600041 
L 833.688 300.911501 
L 833.688 300.233881 
L 830.898 299.563463 
L 841.5 298.902819 
L 842.058 298.251929 
L 840.942 297.605692 
L 840.942 296.971982 
L 843.732 296.345196 
L 838.71 295.72816 
L 837.594 295.125741 
L 843.732 294.529635 
L 847.08 293.939986 
L 851.544 293.35975 
L 848.754 292.785859 
L 854.892 292.222912 
L 855.45 291.668311 
L 844.848 291.116321 
L 861.588 289.49643 
L 856.008 288.969996 
L 864.378 288.449852 
L 858.24 287.937146 
L 861.03 287.432352 
L 855.45 286.934477 
L 863.82 286.442646 
L 865.494 285.957257 
L 864.378 285.476001 
L 867.168 284.997464 
L 871.074 284.521427 
L 872.19 284.052052 
L 869.4 283.587613 
L 875.538 283.125422 
L 866.052 282.668563 
L 873.306 282.214102 
L 872.748 281.767387 
L 876.096 281.321302 
L 875.538 280.88118 
L 877.212 280.444323 
L 880.56 280.013008 
L 885.582 279.586939 
L 876.654 278.746119 
L 875.538 278.33158 
L 878.886 277.919493 
L 883.908 277.511183 
L 885.024 277.105379 
L 878.328 276.704086 
L 880.56 276.305946 
L 885.582 275.911318 
L 882.234 275.520043 
L 889.488 275.132337 
L 893.952 274.745113 
L 887.256 274.358931 
L 887.256 273.977272 
L 893.394 273.597614 
L 885.024 272.848167 
L 890.604 272.477815 
L 890.604 272.109843 
L 895.068 271.745782 
L 892.836 271.384782 
L 888.93 271.027322 
L 890.046 270.672915 
L 893.952 270.317671 
L 891.72 269.96639 
L 892.836 269.61718 
L 898.974 269.269029 
L 894.51 268.924998 
L 887.814 268.58231 
L 897.858 268.241839 
L 894.51 267.903478 
L 900.648 267.233698 
L 905.67 266.902824 
L 900.648 266.573685 
L 899.532 266.24693 
L 897.858 265.923503 
L 898.974 265.600889 
L 892.836 265.2791 
L 904.554 264.960895 
L 903.438 264.644563 
L 907.902 264.329895 
L 896.742 264.015613 
L 901.764 263.704639 
L 902.322 263.3952 
L 906.228 263.088451 
L 900.648 262.783471 
L 909.018 262.177034 
L 907.344 261.874774 
L 911.25 261.575535 
L 907.344 261.279697 
L 892.278 260.694045 
L 906.786 260.110755 
L 897.858 259.821786 
L 904.554 259.534804 
L 907.902 258.967294 
L 906.228 258.686065 
L 908.46 258.406312 
L 912.924 258.127941 
L 905.112 257.575052 
L 904.554 257.300623 
L 909.576 257.027631 
L 909.576 256.755635 
L 906.228 256.485374 
L 910.692 256.217529 
L 907.902 255.951723 
L 911.25 255.686636 
L 916.83 255.421901 
L 910.692 254.898239 
L 912.366 254.638187 
L 919.062 254.379612 
L 909.576 254.121719 
L 915.156 253.863727 
L 910.692 253.606113 
L 910.692 253.350329 
L 912.366 253.094806 
L 911.25 252.840757 
L 912.366 252.588211 
L 914.598 252.336556 
L 914.04 252.085551 
L 916.83 251.836 
L 913.482 251.587449 
L 918.504 251.34073 
L 919.062 251.096697 
L 915.156 250.853356 
L 917.388 250.370424 
L 915.156 250.131367 
L 922.41 249.893273 
L 918.504 249.655644 
L 915.156 249.182993 
L 918.504 248.948495 
L 916.83 248.714755 
L 916.272 248.481488 
L 917.946 248.248244 
L 914.04 248.016896 
L 915.156 247.786491 
L 917.388 247.556821 
L 915.156 247.328808 
L 916.272 247.102065 
L 922.41 246.875412 
L 914.598 246.648724 
L 914.598 246.424504 
L 917.388 246.201489 
L 914.598 245.979455 
L 914.598 245.758049 
L 916.272 245.537079 
L 916.83 245.316644 
L 920.178 245.097646 
L 917.946 244.879877 
L 912.366 244.663342 
L 923.526 244.016938 
L 918.504 243.802937 
L 921.852 243.164382 
L 915.156 242.953942 
L 916.272 242.744008 
L 919.062 242.535255 
L 917.388 242.3278 
L 920.178 242.12075 
L 921.294 241.915336 
L 920.178 241.710122 
L 917.946 241.506031 
L 921.294 241.30275 
L 920.736 241.100866 
L 921.294 240.898683 
L 918.504 240.697513 
L 924.642 240.496953 
L 917.946 240.29624 
L 916.83 240.098066 
L 921.852 239.701653 
L 914.598 239.504399 
L 923.526 239.307736 
L 919.062 239.112215 
L 919.062 238.917978 
L 924.084 238.530363 
L 911.808 238.145271 
L 920.178 237.953904 
L 920.178 237.763198 
L 922.41 237.573784 
L 918.504 237.384655 
L 921.294 237.009107 
L 927.432 236.821966 
L 917.388 236.635241 
L 923.526 236.448754 
L 920.178 236.263889 
L 925.758 235.894584 
L 923.526 235.710623 
L 923.526 235.527696 
L 922.968 235.345195 
L 921.294 235.163212 
L 920.736 234.981646 
L 922.968 234.800402 
L 921.852 234.619902 
L 923.526 234.440042 
L 923.526 234.260928 
L 928.548 234.082496 
L 920.178 233.904716 
L 921.852 233.727327 
L 920.178 233.551702 
L 921.852 233.376044 
L 925.2 233.201094 
L 921.294 232.852717 
L 925.2 232.679261 
L 924.084 232.506148 
L 926.316 232.333397 
L 924.642 232.161266 
L 921.852 231.989918 
L 923.526 231.819454 
L 923.526 231.649789 
L 924.642 231.480514 
L 923.526 231.311429 
L 926.874 231.143074 
L 921.852 230.975595 
L 920.178 230.808527 
L 924.642 230.641972 
L 922.968 230.476454 
L 929.664 230.146528 
L 924.084 229.981968 
L 926.874 229.818074 
L 926.874 229.654955 
L 927.432 229.492404 
L 926.874 229.329833 
L 924.642 229.167682 
L 927.432 229.006236 
L 921.294 228.684616 
L 925.2 228.205318 
L 927.99 228.046366 
L 922.41 227.887917 
L 925.2 227.730293 
L 924.642 227.573315 
L 926.316 227.417174 
L 925.758 227.261472 
L 926.316 227.106146 
L 925.758 226.951201 
L 924.642 226.796531 
L 920.178 226.642199 
L 926.316 226.488586 
L 924.084 226.182956 
L 928.548 226.03065 
L 926.316 225.878575 
L 926.874 225.726978 
L 922.968 225.575861 
L 928.548 225.424782 
L 929.106 225.273979 
L 925.2 225.12389 
L 926.316 224.974325 
L 924.084 224.825371 
L 925.2 224.676666 
L 927.432 224.52865 
L 925.2 224.380951 
L 928.548 224.233614 
L 925.2 224.086596 
L 927.99 223.794568 
L 927.99 223.649 
L 926.316 223.503725 
L 926.874 223.358923 
L 926.874 223.214835 
L 927.99 223.071082 
L 923.526 222.927876 
L 927.432 222.785123 
L 925.758 222.642538 
L 928.548 222.500283 
L 925.758 222.358105 
L 926.316 222.21641 
L 928.548 221.934434 
L 927.99 221.794067 
L 921.852 221.37467 
L 924.084 221.23583 
L 921.294 221.097575 
L 930.222 220.959355 
L 928.548 220.683912 
L 928.548 220.683912 
" style="fill:none;stroke:#9e9e9e;stroke-linecap:square;stroke-width:5;"/>
   </g>
   <g id="line2d_58">
    <path clip-path="url(#p10e865139e)" d="M -1 246.5362 
L 59.742 243.59732 
L 232.722 227.418303 
L 334.278 217.016813 
L 385.056 209.325927 
L 410.166 203.3317 
L 452.574 198.333419 
L 471.546 193.984517 
L 474.894 190.300167 
L 494.424 186.949011 
L 513.396 183.916637 
L 508.932 181.210397 
L 527.904 178.671731 
L 536.832 176.405242 
L 550.224 174.230383 
L 550.224 172.2252 
L 563.616 170.309195 
L 566.406 168.560471 
L 580.356 166.880561 
L 575.334 165.28757 
L 585.378 163.751148 
L 588.726 162.322334 
L 574.218 161.004928 
L 603.234 159.657262 
L 612.72 157.222139 
L 613.278 156.074627 
L 614.394 154.963151 
L 619.416 153.899415 
L 623.88 152.835003 
L 637.272 151.805317 
L 635.598 150.831617 
L 632.25 149.89373 
L 649.548 149.028601 
L 637.272 147.323156 
L 652.896 146.535959 
L 649.548 145.770675 
L 658.476 144.979239 
L 664.056 144.222355 
L 664.614 143.487736 
L 655.128 142.793217 
L 670.194 142.100207 
L 669.078 141.407937 
L 684.702 140.712646 
L 679.68 140.041843 
L 688.05 139.404685 
L 681.354 138.768175 
L 694.188 137.592783 
L 697.536 137.019814 
L 695.304 136.461687 
L 698.652 135.90131 
L 707.58 135.375546 
L 708.696 134.337426 
L 707.022 133.835367 
L 717.066 133.302875 
L 719.298 132.795952 
L 719.298 132.298201 
L 721.53 131.84277 
L 722.646 131.40925 
L 733.806 130.942624 
L 731.574 130.504619 
L 728.784 130.08131 
L 734.922 129.626948 
L 744.408 129.184873 
L 738.828 128.752275 
L 753.336 128.347155 
L 738.828 127.941105 
L 748.872 127.52995 
L 752.22 127.147388 
L 748.314 126.770272 
L 750.546 126.389458 
L 765.054 125.64038 
L 765.054 125.269632 
L 765.612 124.909667 
L 767.844 124.579783 
L 772.866 124.240987 
L 768.96 123.897448 
L 767.844 123.570972 
L 767.844 123.22377 
L 773.982 122.594412 
L 773.982 122.296117 
L 779.562 121.968294 
L 772.866 121.665576 
L 788.49 121.019943 
L 785.142 120.709569 
L 794.07 120.420955 
L 787.932 120.14526 
L 795.744 119.864526 
L 785.7 119.571714 
L 788.49 119.309232 
L 785.7 119.032855 
L 792.954 118.771273 
L 796.86 118.491002 
L 794.628 118.227567 
L 806.904 117.973376 
L 806.904 117.717472 
L 801.882 117.461539 
L 805.788 117.203379 
L 804.672 116.954032 
L 805.788 116.700491 
L 812.484 116.447239 
L 811.368 116.196835 
L 809.136 115.97324 
L 813.6 115.739967 
L 813.6 115.505019 
L 811.368 115.282241 
L 818.064 115.053997 
L 818.064 114.809684 
L 828.108 114.588146 
L 826.434 114.36536 
L 825.876 114.132343 
L 813.6 113.904076 
L 815.274 113.689342 
L 814.158 113.461215 
L 825.318 113.25488 
L 824.76 113.039375 
L 830.34 112.819632 
L 829.782 112.617405 
L 821.97 112.224914 
L 828.108 111.813519 
L 836.478 111.60882 
L 837.594 111.415519 
L 829.224 111.214303 
L 836.478 111.018345 
L 835.92 110.844605 
L 842.058 110.461001 
L 839.268 110.089291 
L 839.826 109.88896 
L 839.826 109.710168 
L 840.942 109.523065 
L 848.754 109.332187 
L 841.5 108.991762 
L 849.312 108.63755 
L 849.312 108.462999 
L 852.102 108.299957 
L 844.848 108.138412 
L 852.66 107.799919 
L 840.942 107.463437 
L 853.218 107.141278 
L 853.776 106.979395 
L 854.892 106.817246 
L 848.196 106.659368 
L 858.24 106.503471 
L 853.776 106.358927 
L 858.24 106.203734 
L 854.334 106.037826 
L 853.776 105.892771 
L 861.03 105.582725 
L 853.218 105.429122 
L 854.334 105.28221 
L 864.378 105.132947 
L 857.124 104.834904 
L 852.66 104.684736 
L 863.262 104.408795 
L 863.82 104.268 
L 864.936 104.123551 
L 855.45 103.987759 
L 868.842 103.850855 
L 866.052 103.71445 
L 857.682 103.573591 
L 869.958 103.429709 
L 869.958 103.289283 
L 863.82 103.160154 
L 865.494 103.030046 
L 859.356 102.890843 
L 865.494 102.62329 
L 869.4 102.497718 
L 867.168 102.369647 
L 874.98 102.235481 
L 874.98 102.110374 
L 872.19 101.98156 
L 877.212 101.854792 
L 873.864 101.725669 
L 878.328 101.612473 
L 865.494 101.362855 
L 870.516 101.12341 
L 876.096 100.995582 
L 869.4 100.87105 
L 871.632 100.744253 
L 869.958 100.622394 
L 880.56 100.383392 
L 876.654 100.264891 
L 876.654 100.142645 
L 874.422 100.0309 
L 868.284 99.917425 
L 879.444 99.683397 
L 877.77 99.568909 
L 885.024 99.447309 
L 869.958 99.13529 
L 882.234 98.791575 
L 883.35 98.685952 
L 876.654 98.573766 
L 879.444 98.467672 
L 876.654 98.355666 
L 888.372 98.250184 
L 887.814 98.142628 
L 879.444 98.038929 
L 887.256 97.728773 
L 885.582 97.620242 
L 881.118 97.522434 
L 887.256 97.321457 
L 888.372 97.223679 
L 878.328 97.014088 
L 888.93 96.70469 
L 887.256 96.606634 
L 890.046 96.50541 
L 883.35 96.323855 
L 883.908 96.235807 
L 890.046 96.046643 
L 890.046 95.952621 
L 889.488 95.858681 
L 887.814 95.759926 
L 883.908 95.658654 
L 891.162 95.564676 
L 887.814 95.471914 
L 892.836 95.095838 
L 892.836 95.01081 
L 893.952 94.919292 
L 889.488 94.740103 
L 895.068 94.650965 
L 888.372 94.456135 
L 887.256 94.366046 
L 892.278 94.280041 
L 891.72 94.197375 
L 893.952 94.111556 
L 890.604 93.941356 
L 899.532 93.672365 
L 898.416 93.597913 
L 891.162 93.514817 
L 895.068 93.430584 
L 890.604 93.346688 
L 896.742 93.180203 
L 898.416 93.101865 
L 890.046 92.932423 
L 892.836 92.855575 
L 896.184 92.77591 
L 895.626 92.694988 
L 892.278 92.53144 
L 895.626 92.444475 
L 890.604 92.368412 
L 898.974 92.130922 
L 891.162 92.052204 
L 892.278 91.982453 
L 901.764 91.755114 
L 893.394 91.592746 
L 896.742 91.512081 
L 896.184 91.43926 
L 895.626 91.357731 
L 902.322 91.280854 
L 900.648 91.207569 
L 892.278 91.132969 
L 901.206 90.918037 
L 895.068 90.846395 
L 900.09 90.771023 
L 899.532 90.69742 
L 900.09 90.62126 
L 897.3 90.534069 
L 902.88 90.321126 
L 895.626 90.252729 
L 897.858 90.184152 
L 902.322 90.045256 
L 901.764 89.973815 
L 897.3 89.90113 
L 901.764 89.758282 
L 900.09 89.689778 
L 904.554 89.622755 
L 902.322 89.55035 
L 896.742 89.282339 
L 898.416 89.216366 
L 903.438 89.147632 
L 900.648 89.08272 
L 900.648 89.015897 
L 907.344 88.888671 
L 899.532 88.814939 
L 905.67 88.742646 
L 898.974 88.675095 
L 907.902 88.613507 
L 901.764 88.554006 
L 899.532 88.491627 
L 909.576 88.293004 
L 899.532 88.223748 
L 909.018 88.094257 
L 901.764 87.90451 
L 901.206 87.842389 
L 907.902 87.782658 
L 897.858 87.720711 
L 903.996 87.659506 
L 905.67 87.599678 
L 904.554 87.537888 
L 903.996 87.475255 
L 910.134 87.350077 
L 909.576 87.289467 
" style="fill:none;stroke:#4161ff;stroke-linecap:square;stroke-width:5;"/>
   </g>
   <g id="line2d_59">
    <path clip-path="url(#p10e865139e)" d="M -1 459.705354 
L 59.742 455.991141 
L 232.722 433.614384 
L 334.278 418.288218 
L 385.056 406.717712 
L 410.166 397.421691 
L 452.574 389.650062 
L 471.546 383.011032 
L 474.894 377.20807 
L 494.424 372.041984 
L 513.396 367.396591 
L 508.932 363.185662 
L 527.904 359.309115 
L 536.832 355.748985 
L 550.224 352.44824 
L 550.224 349.32938 
L 563.616 346.416965 
L 566.406 343.685478 
L 580.356 341.079547 
L 575.334 338.622679 
L 585.378 336.299228 
L 588.726 334.095746 
L 574.218 332.007656 
L 603.234 329.996658 
L 608.256 328.089435 
L 612.72 326.254515 
L 613.278 324.516566 
L 614.394 322.820364 
L 619.416 321.20359 
L 623.88 319.631169 
L 637.272 318.115984 
L 635.598 316.646664 
L 632.25 315.234812 
L 649.548 313.876049 
L 642.852 312.558724 
L 637.272 311.289174 
L 652.896 310.052519 
L 649.548 308.848674 
L 658.476 307.678354 
L 664.056 306.549292 
L 664.614 305.444434 
L 655.128 304.363071 
L 670.194 303.315316 
L 669.078 302.301823 
L 684.702 301.311543 
L 679.68 300.347758 
L 688.05 299.405184 
L 681.354 298.485686 
L 688.608 297.58996 
L 694.188 296.708414 
L 697.536 295.848833 
L 695.304 295.007416 
L 698.652 294.192494 
L 707.58 293.389132 
L 708.696 291.829959 
L 707.022 291.07591 
L 717.066 290.336736 
L 719.298 289.609921 
L 719.298 288.895469 
L 721.53 288.19154 
L 722.646 287.506793 
L 733.806 286.831053 
L 731.574 286.164519 
L 728.784 285.511477 
L 734.922 284.866074 
L 744.408 284.236759 
L 738.828 283.62373 
L 753.336 283.016281 
L 738.828 282.415897 
L 748.872 281.833457 
L 752.22 281.25631 
L 748.314 280.690922 
L 750.546 280.12925 
L 765.054 279.035061 
L 765.054 278.498337 
L 765.612 277.968113 
L 767.844 277.446084 
L 772.866 276.92956 
L 768.96 276.419798 
L 767.844 275.920829 
L 767.844 275.428713 
L 773.982 274.468961 
L 773.982 273.997611 
L 779.562 273.533916 
L 772.866 273.070074 
L 788.49 272.166435 
L 785.142 271.723729 
L 794.07 271.286195 
L 787.932 270.852289 
L 795.744 270.4251 
L 785.7 270.004009 
L 788.49 269.592506 
L 785.7 269.183697 
L 792.954 268.775098 
L 796.86 268.368273 
L 794.628 267.96695 
L 806.904 267.571255 
L 806.904 267.178166 
L 801.882 266.791449 
L 805.788 266.408719 
L 804.672 266.027981 
L 805.788 265.650775 
L 812.484 265.279438 
L 811.368 264.909874 
L 809.136 264.543552 
L 813.6 264.182376 
L 813.6 263.82528 
L 811.368 263.472184 
L 818.064 263.12148 
L 818.064 262.772038 
L 828.108 262.427039 
L 826.434 262.084494 
L 825.876 261.743835 
L 813.6 261.40689 
L 815.274 261.071516 
L 814.158 260.739253 
L 825.318 260.408219 
L 824.76 260.079231 
L 830.34 259.752879 
L 829.782 259.428084 
L 821.97 258.784009 
L 825.876 258.467698 
L 828.108 258.152119 
L 836.478 257.841481 
L 837.594 257.531941 
L 829.224 257.223691 
L 836.478 256.918669 
L 835.92 256.616213 
L 840.384 256.317675 
L 842.058 256.020898 
L 840.942 255.7257 
L 839.268 255.430933 
L 839.826 255.139326 
L 839.826 254.84928 
L 840.942 254.562145 
L 848.754 254.277725 
L 841.5 253.71167 
L 849.312 253.149747 
L 849.312 252.873163 
L 852.102 252.596393 
L 844.848 252.321482 
L 852.66 251.777498 
L 840.942 251.240924 
L 853.218 250.706122 
L 853.776 250.440481 
L 854.892 250.177323 
L 848.196 249.91561 
L 858.24 249.655186 
L 853.776 249.395793 
L 858.24 249.137792 
L 854.334 248.879702 
L 853.776 248.62567 
L 861.03 248.121027 
L 853.218 247.870146 
L 854.334 247.620422 
L 864.378 247.372393 
L 861.588 247.127495 
L 852.66 246.640354 
L 863.262 246.155366 
L 863.82 245.914413 
L 864.936 245.674572 
L 855.45 245.435082 
L 868.842 245.1981 
L 866.052 244.962672 
L 857.682 244.728062 
L 869.958 244.494983 
L 869.958 244.262978 
L 863.82 244.032627 
L 865.494 243.801668 
L 859.356 243.572715 
L 864.378 243.345268 
L 865.494 243.117629 
L 869.4 242.89185 
L 867.168 242.666927 
L 874.98 242.443375 
L 874.98 242.22067 
L 872.19 241.99761 
L 877.212 241.776643 
L 873.864 241.556815 
L 878.328 241.337739 
L 865.494 240.899913 
L 870.516 240.467242 
L 876.096 240.252763 
L 869.4 240.039028 
L 871.632 239.826674 
L 869.958 239.614358 
L 877.77 239.403163 
L 880.56 239.194094 
L 876.654 238.985592 
L 876.654 238.776651 
L 874.422 238.568766 
L 868.284 238.362745 
L 879.444 237.951236 
L 877.77 237.744891 
L 885.024 237.540557 
L 879.444 237.335798 
L 880.002 237.132042 
L 869.958 236.929496 
L 880.002 236.530432 
L 883.35 236.134979 
L 876.654 235.938217 
L 879.444 235.742372 
L 876.654 235.546211 
L 888.372 235.351312 
L 887.814 235.156032 
L 879.444 234.961367 
L 881.676 234.767872 
L 881.676 234.575687 
L 887.256 234.383355 
L 885.582 234.192314 
L 881.118 234.001196 
L 885.582 233.811836 
L 888.372 233.434396 
L 878.328 233.058725 
L 883.35 232.872568 
L 885.024 232.687215 
L 888.93 232.501597 
L 887.256 232.317241 
L 890.046 232.132767 
L 884.466 231.949559 
L 883.35 231.765918 
L 883.908 231.583438 
L 890.046 231.220098 
L 890.046 231.039868 
L 889.488 230.858961 
L 887.814 230.679265 
L 883.908 230.500607 
L 891.162 230.322782 
L 887.814 230.145628 
L 889.488 229.968268 
L 892.836 229.792592 
L 891.72 229.616778 
L 892.836 229.441283 
L 892.836 229.266126 
L 893.952 229.091576 
L 889.488 228.746422 
L 895.068 228.574478 
L 888.372 228.231556 
L 887.256 228.060812 
L 892.278 227.890164 
L 891.72 227.720006 
L 893.952 227.550342 
L 892.836 227.381261 
L 890.604 227.212258 
L 895.068 227.04464 
L 896.184 226.877196 
L 899.532 226.709886 
L 898.416 226.542952 
L 891.162 226.37681 
L 895.068 226.211017 
L 890.604 226.046563 
L 896.742 225.882591 
L 896.742 225.71879 
L 898.416 225.554556 
L 890.046 225.228621 
L 896.184 224.90379 
L 895.626 224.741981 
L 892.278 224.419415 
L 895.626 224.259674 
L 890.604 224.100434 
L 895.068 223.941682 
L 894.51 223.783351 
L 898.974 223.62515 
L 891.162 223.466892 
L 892.278 223.309214 
L 896.184 222.995964 
L 901.764 222.83913 
L 893.394 222.528196 
L 896.742 222.373597 
L 895.626 222.065741 
L 902.322 221.912453 
L 900.648 221.759141 
L 892.278 221.606194 
L 899.532 221.301612 
L 901.206 221.149979 
L 895.068 220.999091 
L 900.09 220.848333 
L 899.532 220.698096 
L 900.09 220.548142 
L 897.3 220.398837 
L 900.648 220.249345 
L 901.206 220.100682 
L 902.88 219.951988 
L 895.626 219.803408 
L 902.322 219.362972 
L 901.764 219.216913 
L 897.3 219.070498 
L 901.764 218.778837 
L 900.09 218.633856 
L 904.554 218.488991 
L 897.858 218.05798 
L 897.858 217.914794 
L 896.742 217.772478 
L 898.416 217.630551 
L 903.438 217.488747 
L 900.648 217.347357 
L 900.648 217.206192 
L 907.344 216.92537 
L 899.532 216.785092 
L 905.67 216.645464 
L 898.974 216.506065 
L 907.902 216.366696 
L 899.532 216.089906 
L 906.786 215.95167 
L 906.786 215.81361 
L 909.576 215.676236 
L 899.532 215.539124 
L 909.018 215.402196 
L 909.018 215.265981 
L 903.996 215.130097 
L 903.438 214.994458 
L 901.206 214.724129 
L 907.902 214.589225 
L 897.858 214.453979 
L 905.67 214.184808 
L 903.996 213.916881 
L 910.134 213.65146 
L 909.576 213.51918 
L 909.576 213.51918 
" style="fill:none;stroke:#9fb7ff;stroke-linecap:square;stroke-width:5;"/>
   </g>
   <g id="patch_3">
    <path d="M 144 504 
L 144 69.12 
" style="fill:none;stroke:#000000;stroke-linecap:square;stroke-linejoin:miter;stroke-width:0.8;"/>
   </g>
   <g id="patch_4">
    <path d="M 1036.8 504 
L 1036.8 69.12 
" style="fill:none;stroke:#000000;stroke-linecap:square;stroke-linejoin:miter;stroke-width:0.8;"/>
   </g>
   <g id="patch_5">
    <path d="M 144 504 
L 1036.8 504 
" style="fill:none;stroke:#000000;stroke-linecap:square;stroke-linejoin:miter;stroke-width:0.8;"/>
   </g>
   <g id="patch_6">
    <path d="M 144 69.12 
L 1036.8 69.12 
" style="fill:none;stroke:#000000;stroke-linecap:square;stroke-linejoin:miter;stroke-width:0.8;"/>
   </g>
   <g id="text_17">
    <!-- Ungated: Energy vs. Accuracy with 300 Units @ 0.4 -->
    <g transform="translate(125.834063 61.633125)scale(0.36 -0.36)">
     <defs>
      <path d="M 18.3125 70.21875 
L 18.3125 54.6875 
L 36.8125 54.6875 
L 36.8125 47.703125 
L 18.3125 47.703125 
L 18.3125 18.015625 
Q 18.3125 11.328125 20.140625 9.421875 
Q 21.96875 7.515625 27.59375 7.515625 
L 36.8125 7.515625 
L 36.8125 0 
L 27.59375 0 
Q 17.1875 0 13.234375 3.875 
Q 9.28125 7.765625 9.28125 18.015625 
L 9.28125 47.703125 
L 2.6875 47.703125 
L 2.6875 54.6875 
L 9.28125 54.6875 
L 9.28125 70.21875 
z
" id="DejaVuSans-116"/>
      <path d="M 45.40625 46.390625 
L 45.40625 75.984375 
L 54.390625 75.984375 
L 54.390625 0 
L 45.40625 0 
L 45.40625 8.203125 
Q 42.578125 3.328125 38.25 0.953125 
Q 33.9375 -1.421875 27.875 -1.421875 
Q 17.96875 -1.421875 11.734375 6.484375 
Q 5.515625 14.40625 5.515625 27.296875 
Q 5.515625 40.1875 11.734375 48.09375 
Q 17.96875 56 27.875 56 
Q 33.9375 56 38.25 53.625 
Q 42.578125 51.265625 45.40625 46.390625 
z
M 14.796875 27.296875 
Q 14.796875 17.390625 18.875 11.75 
Q 22.953125 6.109375 30.078125 6.109375 
Q 37.203125 6.109375 41.296875 11.75 
Q 45.40625 17.390625 45.40625 27.296875 
Q 45.40625 37.203125 41.296875 42.84375 
Q 37.203125 48.484375 30.078125 48.484375 
Q 22.953125 48.484375 18.875 42.84375 
Q 14.796875 37.203125 14.796875 27.296875 
z
" id="DejaVuSans-100"/>
      <path d="M 11.71875 12.40625 
L 22.015625 12.40625 
L 22.015625 0 
L 11.71875 0 
z
M 11.71875 51.703125 
L 22.015625 51.703125 
L 22.015625 39.3125 
L 11.71875 39.3125 
z
" id="DejaVuSans-58"/>
      <path d="M 2.984375 54.6875 
L 12.5 54.6875 
L 29.59375 8.796875 
L 46.6875 54.6875 
L 56.203125 54.6875 
L 35.6875 0 
L 23.484375 0 
z
" id="DejaVuSans-118"/>
      <path d="M 44.28125 53.078125 
L 44.28125 44.578125 
Q 40.484375 46.53125 36.375 47.5 
Q 32.28125 48.484375 27.875 48.484375 
Q 21.1875 48.484375 17.84375 46.4375 
Q 14.5 44.390625 14.5 40.28125 
Q 14.5 37.15625 16.890625 35.375 
Q 19.28125 33.59375 26.515625 31.984375 
L 29.59375 31.296875 
Q 39.15625 29.25 43.1875 25.515625 
Q 47.21875 21.78125 47.21875 15.09375 
Q 47.21875 7.46875 41.1875 3.015625 
Q 35.15625 -1.421875 24.609375 -1.421875 
Q 20.21875 -1.421875 15.453125 -0.5625 
Q 10.6875 0.296875 5.421875 2 
L 5.421875 11.28125 
Q 10.40625 8.6875 15.234375 7.390625 
Q 20.0625 6.109375 24.8125 6.109375 
Q 31.15625 6.109375 34.5625 8.28125 
Q 37.984375 10.453125 37.984375 14.40625 
Q 37.984375 18.0625 35.515625 20.015625 
Q 33.0625 21.96875 24.703125 23.78125 
L 21.578125 24.515625 
Q 13.234375 26.265625 9.515625 29.90625 
Q 5.8125 33.546875 5.8125 39.890625 
Q 5.8125 47.609375 11.28125 51.796875 
Q 16.75 56 26.8125 56 
Q 31.78125 56 36.171875 55.265625 
Q 40.578125 54.546875 44.28125 53.078125 
z
" id="DejaVuSans-115"/>
      <path d="M 4.203125 54.6875 
L 13.1875 54.6875 
L 24.421875 12.015625 
L 35.59375 54.6875 
L 46.1875 54.6875 
L 57.421875 12.015625 
L 68.609375 54.6875 
L 77.59375 54.6875 
L 63.28125 0 
L 52.6875 0 
L 40.921875 44.828125 
L 29.109375 0 
L 18.5 0 
z
" id="DejaVuSans-119"/>
      <path d="M 9.421875 54.6875 
L 18.40625 54.6875 
L 18.40625 0 
L 9.421875 0 
z
M 9.421875 75.984375 
L 18.40625 75.984375 
L 18.40625 64.59375 
L 9.421875 64.59375 
z
" id="DejaVuSans-105"/>
      <path d="M 54.890625 33.015625 
L 54.890625 0 
L 45.90625 0 
L 45.90625 32.71875 
Q 45.90625 40.484375 42.875 44.328125 
Q 39.84375 48.1875 33.796875 48.1875 
Q 26.515625 48.1875 22.3125 43.546875 
Q 18.109375 38.921875 18.109375 30.90625 
L 18.109375 0 
L 9.078125 0 
L 9.078125 75.984375 
L 18.109375 75.984375 
L 18.109375 46.1875 
Q 21.34375 51.125 25.703125 53.5625 
Q 30.078125 56 35.796875 56 
Q 45.21875 56 50.046875 50.171875 
Q 54.890625 44.34375 54.890625 33.015625 
z
" id="DejaVuSans-104"/>
      <path d="M 37.203125 26.21875 
Q 37.203125 19.234375 40.671875 15.25 
Q 44.140625 11.28125 50.203125 11.28125 
Q 56.203125 11.28125 59.640625 15.28125 
Q 63.09375 19.28125 63.09375 26.21875 
Q 63.09375 33.0625 59.578125 37.078125 
Q 56.0625 41.109375 50.09375 41.109375 
Q 44.1875 41.109375 40.6875 37.109375 
Q 37.203125 33.109375 37.203125 26.21875 
z
M 63.8125 11.625 
Q 60.890625 7.859375 57.109375 6.078125 
Q 53.328125 4.296875 48.296875 4.296875 
Q 39.890625 4.296875 34.640625 10.375 
Q 29.390625 16.453125 29.390625 26.21875 
Q 29.390625 35.984375 34.65625 42.078125 
Q 39.9375 48.1875 48.296875 48.1875 
Q 53.328125 48.1875 57.125 46.359375 
Q 60.9375 44.53125 63.8125 40.828125 
L 63.8125 47.21875 
L 70.796875 47.21875 
L 70.796875 11.28125 
Q 77.9375 12.359375 81.953125 17.796875 
Q 85.984375 23.25 85.984375 31.890625 
Q 85.984375 37.109375 84.4375 41.703125 
Q 82.90625 46.296875 79.78125 50.203125 
Q 74.703125 56.59375 67.40625 59.984375 
Q 60.109375 63.375 51.515625 63.375 
Q 45.515625 63.375 39.984375 61.78125 
Q 34.46875 60.203125 29.78125 57.078125 
Q 22.125 52.09375 17.796875 44.015625 
Q 13.484375 35.9375 13.484375 26.515625 
Q 13.484375 18.75 16.28125 11.953125 
Q 19.09375 5.171875 24.421875 0 
Q 29.546875 -5.078125 36.28125 -7.734375 
Q 43.015625 -10.40625 50.6875 -10.40625 
Q 56.984375 -10.40625 63.0625 -8.28125 
Q 69.140625 -6.15625 74.21875 -2.203125 
L 78.609375 -7.625 
Q 72.515625 -12.359375 65.3125 -14.875 
Q 58.109375 -17.390625 50.6875 -17.390625 
Q 41.65625 -17.390625 33.640625 -14.1875 
Q 25.640625 -10.984375 19.390625 -4.890625 
Q 13.140625 1.21875 9.859375 9.25 
Q 6.59375 17.28125 6.59375 26.515625 
Q 6.59375 35.40625 9.90625 43.453125 
Q 13.234375 51.515625 19.390625 57.625 
Q 25.6875 63.8125 33.9375 67.109375 
Q 42.1875 70.40625 51.421875 70.40625 
Q 61.765625 70.40625 70.625 66.15625 
Q 79.5 61.921875 85.5 54.109375 
Q 89.15625 49.3125 91.078125 43.703125 
Q 93.015625 38.09375 93.015625 32.078125 
Q 93.015625 19.234375 85.25 11.8125 
Q 77.484375 4.390625 63.8125 4.109375 
z
" id="DejaVuSans-64"/>
     </defs>
     <use xlink:href="#DejaVuSans-85"/>
     <use x="73.193359" xlink:href="#DejaVuSans-110"/>
     <use x="136.572266" xlink:href="#DejaVuSans-103"/>
     <use x="200.048828" xlink:href="#DejaVuSans-97"/>
     <use x="261.328125" xlink:href="#DejaVuSans-116"/>
     <use x="300.537109" xlink:href="#DejaVuSans-101"/>
     <use x="362.060547" xlink:href="#DejaVuSans-100"/>
     <use x="425.537109" xlink:href="#DejaVuSans-58"/>
     <use x="459.228516" xlink:href="#DejaVuSans-32"/>
     <use x="491.015625" xlink:href="#DejaVuSans-69"/>
     <use x="554.199219" xlink:href="#DejaVuSans-110"/>
     <use x="617.578125" xlink:href="#DejaVuSans-101"/>
     <use x="679.101562" xlink:href="#DejaVuSans-114"/>
     <use x="718.464844" xlink:href="#DejaVuSans-103"/>
     <use x="781.941406" xlink:href="#DejaVuSans-121"/>
     <use x="841.121094" xlink:href="#DejaVuSans-32"/>
     <use x="872.908203" xlink:href="#DejaVuSans-118"/>
     <use x="932.087891" xlink:href="#DejaVuSans-115"/>
     <use x="984.1875" xlink:href="#DejaVuSans-46"/>
     <use x="1015.974609" xlink:href="#DejaVuSans-32"/>
     <use x="1047.761719" xlink:href="#DejaVuSans-65"/>
     <use x="1114.419922" xlink:href="#DejaVuSans-99"/>
     <use x="1169.400391" xlink:href="#DejaVuSans-99"/>
     <use x="1224.380859" xlink:href="#DejaVuSans-117"/>
     <use x="1287.759766" xlink:href="#DejaVuSans-114"/>
     <use x="1328.873047" xlink:href="#DejaVuSans-97"/>
     <use x="1390.152344" xlink:href="#DejaVuSans-99"/>
     <use x="1445.132812" xlink:href="#DejaVuSans-121"/>
     <use x="1504.3125" xlink:href="#DejaVuSans-32"/>
     <use x="1536.099609" xlink:href="#DejaVuSans-119"/>
     <use x="1617.886719" xlink:href="#DejaVuSans-105"/>
     <use x="1645.669922" xlink:href="#DejaVuSans-116"/>
     <use x="1684.878906" xlink:href="#DejaVuSans-104"/>
     <use x="1748.257812" xlink:href="#DejaVuSans-32"/>
     <use x="1780.044922" xlink:href="#DejaVuSans-51"/>
     <use x="1843.667969" xlink:href="#DejaVuSans-48"/>
     <use x="1907.291016" xlink:href="#DejaVuSans-48"/>
     <use x="1970.914062" xlink:href="#DejaVuSans-32"/>
     <use x="2002.701172" xlink:href="#DejaVuSans-85"/>
     <use x="2075.894531" xlink:href="#DejaVuSans-110"/>
     <use x="2139.273438" xlink:href="#DejaVuSans-105"/>
     <use x="2167.056641" xlink:href="#DejaVuSans-116"/>
     <use x="2206.265625" xlink:href="#DejaVuSans-115"/>
     <use x="2258.365234" xlink:href="#DejaVuSans-32"/>
     <use x="2290.152344" xlink:href="#DejaVuSans-64"/>
     <use x="2390.152344" xlink:href="#DejaVuSans-32"/>
     <use x="2421.939453" xlink:href="#DejaVuSans-48"/>
     <use x="2485.5625" xlink:href="#DejaVuSans-46"/>
     <use x="2517.349609" xlink:href="#DejaVuSans-52"/>
    </g>
   </g>
   <g id="legend_1">
    <g id="patch_7">
     <path d="M 799.660625 493 
L 1021.4 493 
Q 1025.8 493 1025.8 488.6 
L 1025.8 361.6325 
Q 1025.8 357.2325 1021.4 357.2325 
L 799.660625 357.2325 
Q 795.260625 357.2325 795.260625 361.6325 
L 795.260625 488.6 
Q 795.260625 493 799.660625 493 
z
" style="fill:#ffffff;opacity:0.8;stroke:#cccccc;stroke-linejoin:miter;"/>
    </g>
    <g id="line2d_60">
     <path d="M 804.060625 375.049062 
L 848.060625 375.049062 
" style="fill:none;stroke:#1f1f1f;stroke-linecap:square;stroke-width:5;"/>
    </g>
    <g id="line2d_61"/>
    <g id="text_18">
     <!-- Ungated: 1.0 -->
     <g transform="translate(865.660625 382.749062)scale(0.22 -0.22)">
      <use xlink:href="#DejaVuSans-85"/>
      <use x="73.193359" xlink:href="#DejaVuSans-110"/>
      <use x="136.572266" xlink:href="#DejaVuSans-103"/>
      <use x="200.048828" xlink:href="#DejaVuSans-97"/>
      <use x="261.328125" xlink:href="#DejaVuSans-116"/>
      <use x="300.537109" xlink:href="#DejaVuSans-101"/>
      <use x="362.060547" xlink:href="#DejaVuSans-100"/>
      <use x="425.537109" xlink:href="#DejaVuSans-58"/>
      <use x="459.228516" xlink:href="#DejaVuSans-32"/>
      <use x="491.015625" xlink:href="#DejaVuSans-49"/>
      <use x="554.638672" xlink:href="#DejaVuSans-46"/>
      <use x="586.425781" xlink:href="#DejaVuSans-48"/>
     </g>
    </g>
    <g id="line2d_62">
     <path d="M 804.060625 407.340937 
L 848.060625 407.340937 
" style="fill:none;stroke:#9e9e9e;stroke-linecap:square;stroke-width:5;"/>
    </g>
    <g id="line2d_63"/>
    <g id="text_19">
     <!-- Minimum: 1.0 -->
     <g transform="translate(865.660625 415.040937)scale(0.22 -0.22)">
      <defs>
       <path d="M 9.8125 72.90625 
L 24.515625 72.90625 
L 43.109375 23.296875 
L 61.8125 72.90625 
L 76.515625 72.90625 
L 76.515625 0 
L 66.890625 0 
L 66.890625 64.015625 
L 48.09375 14.015625 
L 38.1875 14.015625 
L 19.390625 64.015625 
L 19.390625 0 
L 9.8125 0 
z
" id="DejaVuSans-77"/>
       <path d="M 52 44.1875 
Q 55.375 50.25 60.0625 53.125 
Q 64.75 56 71.09375 56 
Q 79.640625 56 84.28125 50.015625 
Q 88.921875 44.046875 88.921875 33.015625 
L 88.921875 0 
L 79.890625 0 
L 79.890625 32.71875 
Q 79.890625 40.578125 77.09375 44.375 
Q 74.3125 48.1875 68.609375 48.1875 
Q 61.625 48.1875 57.5625 43.546875 
Q 53.515625 38.921875 53.515625 30.90625 
L 53.515625 0 
L 44.484375 0 
L 44.484375 32.71875 
Q 44.484375 40.625 41.703125 44.40625 
Q 38.921875 48.1875 33.109375 48.1875 
Q 26.21875 48.1875 22.15625 43.53125 
Q 18.109375 38.875 18.109375 30.90625 
L 18.109375 0 
L 9.078125 0 
L 9.078125 54.6875 
L 18.109375 54.6875 
L 18.109375 46.1875 
Q 21.1875 51.21875 25.484375 53.609375 
Q 29.78125 56 35.6875 56 
Q 41.65625 56 45.828125 52.96875 
Q 50 49.953125 52 44.1875 
z
" id="DejaVuSans-109"/>
      </defs>
      <use xlink:href="#DejaVuSans-77"/>
      <use x="86.279297" xlink:href="#DejaVuSans-105"/>
      <use x="114.0625" xlink:href="#DejaVuSans-110"/>
      <use x="177.441406" xlink:href="#DejaVuSans-105"/>
      <use x="205.224609" xlink:href="#DejaVuSans-109"/>
      <use x="302.636719" xlink:href="#DejaVuSans-117"/>
      <use x="366.015625" xlink:href="#DejaVuSans-109"/>
      <use x="463.427734" xlink:href="#DejaVuSans-58"/>
      <use x="497.119141" xlink:href="#DejaVuSans-32"/>
      <use x="528.90625" xlink:href="#DejaVuSans-49"/>
      <use x="592.529297" xlink:href="#DejaVuSans-46"/>
      <use x="624.316406" xlink:href="#DejaVuSans-48"/>
     </g>
    </g>
    <g id="line2d_64">
     <path d="M 804.060625 439.632812 
L 848.060625 439.632812 
" style="fill:none;stroke:#4161ff;stroke-linecap:square;stroke-width:5;"/>
    </g>
    <g id="line2d_65"/>
    <g id="text_20">
     <!-- Ungated: 0.4 -->
     <g transform="translate(865.660625 447.332812)scale(0.22 -0.22)">
      <use xlink:href="#DejaVuSans-85"/>
      <use x="73.193359" xlink:href="#DejaVuSans-110"/>
      <use x="136.572266" xlink:href="#DejaVuSans-103"/>
      <use x="200.048828" xlink:href="#DejaVuSans-97"/>
      <use x="261.328125" xlink:href="#DejaVuSans-116"/>
      <use x="300.537109" xlink:href="#DejaVuSans-101"/>
      <use x="362.060547" xlink:href="#DejaVuSans-100"/>
      <use x="425.537109" xlink:href="#DejaVuSans-58"/>
      <use x="459.228516" xlink:href="#DejaVuSans-32"/>
      <use x="491.015625" xlink:href="#DejaVuSans-48"/>
      <use x="554.638672" xlink:href="#DejaVuSans-46"/>
      <use x="586.425781" xlink:href="#DejaVuSans-52"/>
     </g>
    </g>
    <g id="line2d_66">
     <path d="M 804.060625 471.924688 
L 848.060625 471.924688 
" style="fill:none;stroke:#9fb7ff;stroke-linecap:square;stroke-width:5;"/>
    </g>
    <g id="line2d_67"/>
    <g id="text_21">
     <!-- Minimum: 0.4 -->
     <g transform="translate(865.660625 479.624687)scale(0.22 -0.22)">
      <use xlink:href="#DejaVuSans-77"/>
      <use x="86.279297" xlink:href="#DejaVuSans-105"/>
      <use x="114.0625" xlink:href="#DejaVuSans-110"/>
      <use x="177.441406" xlink:href="#DejaVuSans-105"/>
      <use x="205.224609" xlink:href="#DejaVuSans-109"/>
      <use x="302.636719" xlink:href="#DejaVuSans-117"/>
      <use x="366.015625" xlink:href="#DejaVuSans-109"/>
      <use x="463.427734" xlink:href="#DejaVuSans-58"/>
      <use x="497.119141" xlink:href="#DejaVuSans-32"/>
      <use x="528.90625" xlink:href="#DejaVuSans-48"/>
      <use x="592.529297" xlink:href="#DejaVuSans-46"/>
      <use x="624.316406" xlink:href="#DejaVuSans-52"/>
     </g>
    </g>
   </g>
  </g>
 </g>
 <defs>
  <clipPath id="p10e865139e">
   <rect height="434.88" width="892.8" x="144" y="69.12"/>
  </clipPath>
 </defs>
</svg>
