<?xml version="1.0" encoding="utf-8" standalone="no"?>
<!DOCTYPE svg PUBLIC "-//W3C//DTD SVG 1.1//EN"
  "http://www.w3.org/Graphics/SVG/1.1/DTD/svg11.dtd">
<!-- Created with matplotlib (https://matplotlib.org/) -->
<svg height="576pt" version="1.1" viewBox="0 0 1152 576" width="1152pt" xmlns="http://www.w3.org/2000/svg" xmlns:xlink="http://www.w3.org/1999/xlink">
 <metadata>
  <rdf:RDF xmlns:cc="http://creativecommons.org/ns#" xmlns:dc="http://purl.org/dc/elements/1.1/" xmlns:rdf="http://www.w3.org/1999/02/22-rdf-syntax-ns#">
   <cc:Work>
    <dc:type rdf:resource="http://purl.org/dc/dcmitype/StillImage"/>
    <dc:date>2021-09-12T15:18:31.218045</dc:date>
    <dc:format>image/svg+xml</dc:format>
    <dc:creator>
     <cc:Agent>
      <dc:title>Matplotlib v3.3.4, https://matplotlib.org/</dc:title>
     </cc:Agent>
    </dc:creator>
   </cc:Work>
  </rdf:RDF>
 </metadata>
 <defs>
  <style type="text/css">*{stroke-linecap:butt;stroke-linejoin:round;}</style>
 </defs>
 <g id="figure_1">
  <g id="patch_1">
   <path d="M 0 576 
L 1152 576 
L 1152 0 
L 0 0 
z
" style="fill:#ffffff;"/>
  </g>
  <g id="axes_1">
   <g id="patch_2">
    <path d="M 144 504 
L 1036.8 504 
L 1036.8 69.12 
L 144 69.12 
z
" style="fill:#ffffff;"/>
   </g>
   <g id="matplotlib.axis_1">
    <g id="xtick_1">
     <g id="line2d_1">
      <defs>
       <path d="M 0 0 
L 0 3.5 
" id="md1e17453ee" style="stroke:#000000;stroke-width:0.8;"/>
      </defs>
      <g>
       <use style="stroke:#000000;stroke-width:0.8;" x="144" xlink:href="#md1e17453ee" y="504"/>
      </g>
     </g>
     <g id="text_1">
      <!-- 84 -->
      <g transform="translate(128.73 529.23625)scale(0.24 -0.24)">
       <defs>
        <path d="M 31.78125 34.625 
Q 24.75 34.625 20.71875 30.859375 
Q 16.703125 27.09375 16.703125 20.515625 
Q 16.703125 13.921875 20.71875 10.15625 
Q 24.75 6.390625 31.78125 6.390625 
Q 38.8125 6.390625 42.859375 10.171875 
Q 46.921875 13.96875 46.921875 20.515625 
Q 46.921875 27.09375 42.890625 30.859375 
Q 38.875 34.625 31.78125 34.625 
z
M 21.921875 38.8125 
Q 15.578125 40.375 12.03125 44.71875 
Q 8.5 49.078125 8.5 55.328125 
Q 8.5 64.0625 14.71875 69.140625 
Q 20.953125 74.21875 31.78125 74.21875 
Q 42.671875 74.21875 48.875 69.140625 
Q 55.078125 64.0625 55.078125 55.328125 
Q 55.078125 49.078125 51.53125 44.71875 
Q 48 40.375 41.703125 38.8125 
Q 48.828125 37.15625 52.796875 32.3125 
Q 56.78125 27.484375 56.78125 20.515625 
Q 56.78125 9.90625 50.3125 4.234375 
Q 43.84375 -1.421875 31.78125 -1.421875 
Q 19.734375 -1.421875 13.25 4.234375 
Q 6.78125 9.90625 6.78125 20.515625 
Q 6.78125 27.484375 10.78125 32.3125 
Q 14.796875 37.15625 21.921875 38.8125 
z
M 18.3125 54.390625 
Q 18.3125 48.734375 21.84375 45.5625 
Q 25.390625 42.390625 31.78125 42.390625 
Q 38.140625 42.390625 41.71875 45.5625 
Q 45.3125 48.734375 45.3125 54.390625 
Q 45.3125 60.0625 41.71875 63.234375 
Q 38.140625 66.40625 31.78125 66.40625 
Q 25.390625 66.40625 21.84375 63.234375 
Q 18.3125 60.0625 18.3125 54.390625 
z
" id="DejaVuSans-56"/>
        <path d="M 37.796875 64.3125 
L 12.890625 25.390625 
L 37.796875 25.390625 
z
M 35.203125 72.90625 
L 47.609375 72.90625 
L 47.609375 25.390625 
L 58.015625 25.390625 
L 58.015625 17.1875 
L 47.609375 17.1875 
L 47.609375 0 
L 37.796875 0 
L 37.796875 17.1875 
L 4.890625 17.1875 
L 4.890625 26.703125 
z
" id="DejaVuSans-52"/>
       </defs>
       <use xlink:href="#DejaVuSans-56"/>
       <use x="63.623047" xlink:href="#DejaVuSans-52"/>
      </g>
     </g>
    </g>
    <g id="xtick_2">
     <g id="line2d_2">
      <g>
       <use style="stroke:#000000;stroke-width:0.8;" x="255.6" xlink:href="#md1e17453ee" y="504"/>
      </g>
     </g>
     <g id="text_2">
      <!-- 86 -->
      <g transform="translate(240.33 529.23625)scale(0.24 -0.24)">
       <defs>
        <path d="M 33.015625 40.375 
Q 26.375 40.375 22.484375 35.828125 
Q 18.609375 31.296875 18.609375 23.390625 
Q 18.609375 15.53125 22.484375 10.953125 
Q 26.375 6.390625 33.015625 6.390625 
Q 39.65625 6.390625 43.53125 10.953125 
Q 47.40625 15.53125 47.40625 23.390625 
Q 47.40625 31.296875 43.53125 35.828125 
Q 39.65625 40.375 33.015625 40.375 
z
M 52.59375 71.296875 
L 52.59375 62.3125 
Q 48.875 64.0625 45.09375 64.984375 
Q 41.3125 65.921875 37.59375 65.921875 
Q 27.828125 65.921875 22.671875 59.328125 
Q 17.53125 52.734375 16.796875 39.40625 
Q 19.671875 43.65625 24.015625 45.921875 
Q 28.375 48.1875 33.59375 48.1875 
Q 44.578125 48.1875 50.953125 41.515625 
Q 57.328125 34.859375 57.328125 23.390625 
Q 57.328125 12.15625 50.6875 5.359375 
Q 44.046875 -1.421875 33.015625 -1.421875 
Q 20.359375 -1.421875 13.671875 8.265625 
Q 6.984375 17.96875 6.984375 36.375 
Q 6.984375 53.65625 15.1875 63.9375 
Q 23.390625 74.21875 37.203125 74.21875 
Q 40.921875 74.21875 44.703125 73.484375 
Q 48.484375 72.75 52.59375 71.296875 
z
" id="DejaVuSans-54"/>
       </defs>
       <use xlink:href="#DejaVuSans-56"/>
       <use x="63.623047" xlink:href="#DejaVuSans-54"/>
      </g>
     </g>
    </g>
    <g id="xtick_3">
     <g id="line2d_3">
      <g>
       <use style="stroke:#000000;stroke-width:0.8;" x="367.2" xlink:href="#md1e17453ee" y="504"/>
      </g>
     </g>
     <g id="text_3">
      <!-- 88 -->
      <g transform="translate(351.93 529.23625)scale(0.24 -0.24)">
       <use xlink:href="#DejaVuSans-56"/>
       <use x="63.623047" xlink:href="#DejaVuSans-56"/>
      </g>
     </g>
    </g>
    <g id="xtick_4">
     <g id="line2d_4">
      <g>
       <use style="stroke:#000000;stroke-width:0.8;" x="478.8" xlink:href="#md1e17453ee" y="504"/>
      </g>
     </g>
     <g id="text_4">
      <!-- 90 -->
      <g transform="translate(463.53 529.23625)scale(0.24 -0.24)">
       <defs>
        <path d="M 10.984375 1.515625 
L 10.984375 10.5 
Q 14.703125 8.734375 18.5 7.8125 
Q 22.3125 6.890625 25.984375 6.890625 
Q 35.75 6.890625 40.890625 13.453125 
Q 46.046875 20.015625 46.78125 33.40625 
Q 43.953125 29.203125 39.59375 26.953125 
Q 35.25 24.703125 29.984375 24.703125 
Q 19.046875 24.703125 12.671875 31.3125 
Q 6.296875 37.9375 6.296875 49.421875 
Q 6.296875 60.640625 12.9375 67.421875 
Q 19.578125 74.21875 30.609375 74.21875 
Q 43.265625 74.21875 49.921875 64.515625 
Q 56.59375 54.828125 56.59375 36.375 
Q 56.59375 19.140625 48.40625 8.859375 
Q 40.234375 -1.421875 26.421875 -1.421875 
Q 22.703125 -1.421875 18.890625 -0.6875 
Q 15.09375 0.046875 10.984375 1.515625 
z
M 30.609375 32.421875 
Q 37.25 32.421875 41.125 36.953125 
Q 45.015625 41.5 45.015625 49.421875 
Q 45.015625 57.28125 41.125 61.84375 
Q 37.25 66.40625 30.609375 66.40625 
Q 23.96875 66.40625 20.09375 61.84375 
Q 16.21875 57.28125 16.21875 49.421875 
Q 16.21875 41.5 20.09375 36.953125 
Q 23.96875 32.421875 30.609375 32.421875 
z
" id="DejaVuSans-57"/>
        <path d="M 31.78125 66.40625 
Q 24.171875 66.40625 20.328125 58.90625 
Q 16.5 51.421875 16.5 36.375 
Q 16.5 21.390625 20.328125 13.890625 
Q 24.171875 6.390625 31.78125 6.390625 
Q 39.453125 6.390625 43.28125 13.890625 
Q 47.125 21.390625 47.125 36.375 
Q 47.125 51.421875 43.28125 58.90625 
Q 39.453125 66.40625 31.78125 66.40625 
z
M 31.78125 74.21875 
Q 44.046875 74.21875 50.515625 64.515625 
Q 56.984375 54.828125 56.984375 36.375 
Q 56.984375 17.96875 50.515625 8.265625 
Q 44.046875 -1.421875 31.78125 -1.421875 
Q 19.53125 -1.421875 13.0625 8.265625 
Q 6.59375 17.96875 6.59375 36.375 
Q 6.59375 54.828125 13.0625 64.515625 
Q 19.53125 74.21875 31.78125 74.21875 
z
" id="DejaVuSans-48"/>
       </defs>
       <use xlink:href="#DejaVuSans-57"/>
       <use x="63.623047" xlink:href="#DejaVuSans-48"/>
      </g>
     </g>
    </g>
    <g id="xtick_5">
     <g id="line2d_5">
      <g>
       <use style="stroke:#000000;stroke-width:0.8;" x="590.4" xlink:href="#md1e17453ee" y="504"/>
      </g>
     </g>
     <g id="text_5">
      <!-- 92 -->
      <g transform="translate(575.13 529.23625)scale(0.24 -0.24)">
       <defs>
        <path d="M 19.1875 8.296875 
L 53.609375 8.296875 
L 53.609375 0 
L 7.328125 0 
L 7.328125 8.296875 
Q 12.9375 14.109375 22.625 23.890625 
Q 32.328125 33.6875 34.8125 36.53125 
Q 39.546875 41.84375 41.421875 45.53125 
Q 43.3125 49.21875 43.3125 52.78125 
Q 43.3125 58.59375 39.234375 62.25 
Q 35.15625 65.921875 28.609375 65.921875 
Q 23.96875 65.921875 18.8125 64.3125 
Q 13.671875 62.703125 7.8125 59.421875 
L 7.8125 69.390625 
Q 13.765625 71.78125 18.9375 73 
Q 24.125 74.21875 28.421875 74.21875 
Q 39.75 74.21875 46.484375 68.546875 
Q 53.21875 62.890625 53.21875 53.421875 
Q 53.21875 48.921875 51.53125 44.890625 
Q 49.859375 40.875 45.40625 35.40625 
Q 44.1875 33.984375 37.640625 27.21875 
Q 31.109375 20.453125 19.1875 8.296875 
z
" id="DejaVuSans-50"/>
       </defs>
       <use xlink:href="#DejaVuSans-57"/>
       <use x="63.623047" xlink:href="#DejaVuSans-50"/>
      </g>
     </g>
    </g>
    <g id="xtick_6">
     <g id="line2d_6">
      <g>
       <use style="stroke:#000000;stroke-width:0.8;" x="702" xlink:href="#md1e17453ee" y="504"/>
      </g>
     </g>
     <g id="text_6">
      <!-- 94 -->
      <g transform="translate(686.73 529.23625)scale(0.24 -0.24)">
       <use xlink:href="#DejaVuSans-57"/>
       <use x="63.623047" xlink:href="#DejaVuSans-52"/>
      </g>
     </g>
    </g>
    <g id="xtick_7">
     <g id="line2d_7">
      <g>
       <use style="stroke:#000000;stroke-width:0.8;" x="813.6" xlink:href="#md1e17453ee" y="504"/>
      </g>
     </g>
     <g id="text_7">
      <!-- 96 -->
      <g transform="translate(798.33 529.23625)scale(0.24 -0.24)">
       <use xlink:href="#DejaVuSans-57"/>
       <use x="63.623047" xlink:href="#DejaVuSans-54"/>
      </g>
     </g>
    </g>
    <g id="xtick_8">
     <g id="line2d_8">
      <g>
       <use style="stroke:#000000;stroke-width:0.8;" x="925.2" xlink:href="#md1e17453ee" y="504"/>
      </g>
     </g>
     <g id="text_8">
      <!-- 98 -->
      <g transform="translate(909.93 529.23625)scale(0.24 -0.24)">
       <use xlink:href="#DejaVuSans-57"/>
       <use x="63.623047" xlink:href="#DejaVuSans-56"/>
      </g>
     </g>
    </g>
    <g id="xtick_9">
     <g id="line2d_9">
      <g>
       <use style="stroke:#000000;stroke-width:0.8;" x="1036.8" xlink:href="#md1e17453ee" y="504"/>
      </g>
     </g>
     <g id="text_9">
      <!-- 100 -->
      <g transform="translate(1013.895 529.23625)scale(0.24 -0.24)">
       <defs>
        <path d="M 12.40625 8.296875 
L 28.515625 8.296875 
L 28.515625 63.921875 
L 10.984375 60.40625 
L 10.984375 69.390625 
L 28.421875 72.90625 
L 38.28125 72.90625 
L 38.28125 8.296875 
L 54.390625 8.296875 
L 54.390625 0 
L 12.40625 0 
z
" id="DejaVuSans-49"/>
       </defs>
       <use xlink:href="#DejaVuSans-49"/>
       <use x="63.623047" xlink:href="#DejaVuSans-48"/>
       <use x="127.246094" xlink:href="#DejaVuSans-48"/>
      </g>
     </g>
    </g>
    <g id="text_10">
     <!-- Accuracy /% -->
     <g transform="translate(504.013437 559.503125)scale(0.28 -0.28)">
      <defs>
       <path d="M 34.1875 63.1875 
L 20.796875 26.90625 
L 47.609375 26.90625 
z
M 28.609375 72.90625 
L 39.796875 72.90625 
L 67.578125 0 
L 57.328125 0 
L 50.6875 18.703125 
L 17.828125 18.703125 
L 11.1875 0 
L 0.78125 0 
z
" id="DejaVuSans-65"/>
       <path d="M 48.78125 52.59375 
L 48.78125 44.1875 
Q 44.96875 46.296875 41.140625 47.34375 
Q 37.3125 48.390625 33.40625 48.390625 
Q 24.65625 48.390625 19.8125 42.84375 
Q 14.984375 37.3125 14.984375 27.296875 
Q 14.984375 17.28125 19.8125 11.734375 
Q 24.65625 6.203125 33.40625 6.203125 
Q 37.3125 6.203125 41.140625 7.25 
Q 44.96875 8.296875 48.78125 10.40625 
L 48.78125 2.09375 
Q 45.015625 0.34375 40.984375 -0.53125 
Q 36.96875 -1.421875 32.421875 -1.421875 
Q 20.0625 -1.421875 12.78125 6.34375 
Q 5.515625 14.109375 5.515625 27.296875 
Q 5.515625 40.671875 12.859375 48.328125 
Q 20.21875 56 33.015625 56 
Q 37.15625 56 41.109375 55.140625 
Q 45.0625 54.296875 48.78125 52.59375 
z
" id="DejaVuSans-99"/>
       <path d="M 8.5 21.578125 
L 8.5 54.6875 
L 17.484375 54.6875 
L 17.484375 21.921875 
Q 17.484375 14.15625 20.5 10.265625 
Q 23.53125 6.390625 29.59375 6.390625 
Q 36.859375 6.390625 41.078125 11.03125 
Q 45.3125 15.671875 45.3125 23.6875 
L 45.3125 54.6875 
L 54.296875 54.6875 
L 54.296875 0 
L 45.3125 0 
L 45.3125 8.40625 
Q 42.046875 3.421875 37.71875 1 
Q 33.40625 -1.421875 27.6875 -1.421875 
Q 18.265625 -1.421875 13.375 4.4375 
Q 8.5 10.296875 8.5 21.578125 
z
M 31.109375 56 
z
" id="DejaVuSans-117"/>
       <path d="M 41.109375 46.296875 
Q 39.59375 47.171875 37.8125 47.578125 
Q 36.03125 48 33.890625 48 
Q 26.265625 48 22.1875 43.046875 
Q 18.109375 38.09375 18.109375 28.8125 
L 18.109375 0 
L 9.078125 0 
L 9.078125 54.6875 
L 18.109375 54.6875 
L 18.109375 46.1875 
Q 20.953125 51.171875 25.484375 53.578125 
Q 30.03125 56 36.53125 56 
Q 37.453125 56 38.578125 55.875 
Q 39.703125 55.765625 41.0625 55.515625 
z
" id="DejaVuSans-114"/>
       <path d="M 34.28125 27.484375 
Q 23.390625 27.484375 19.1875 25 
Q 14.984375 22.515625 14.984375 16.5 
Q 14.984375 11.71875 18.140625 8.90625 
Q 21.296875 6.109375 26.703125 6.109375 
Q 34.1875 6.109375 38.703125 11.40625 
Q 43.21875 16.703125 43.21875 25.484375 
L 43.21875 27.484375 
z
M 52.203125 31.203125 
L 52.203125 0 
L 43.21875 0 
L 43.21875 8.296875 
Q 40.140625 3.328125 35.546875 0.953125 
Q 30.953125 -1.421875 24.3125 -1.421875 
Q 15.921875 -1.421875 10.953125 3.296875 
Q 6 8.015625 6 15.921875 
Q 6 25.140625 12.171875 29.828125 
Q 18.359375 34.515625 30.609375 34.515625 
L 43.21875 34.515625 
L 43.21875 35.40625 
Q 43.21875 41.609375 39.140625 45 
Q 35.0625 48.390625 27.6875 48.390625 
Q 23 48.390625 18.546875 47.265625 
Q 14.109375 46.140625 10.015625 43.890625 
L 10.015625 52.203125 
Q 14.9375 54.109375 19.578125 55.046875 
Q 24.21875 56 28.609375 56 
Q 40.484375 56 46.34375 49.84375 
Q 52.203125 43.703125 52.203125 31.203125 
z
" id="DejaVuSans-97"/>
       <path d="M 32.171875 -5.078125 
Q 28.375 -14.84375 24.75 -17.8125 
Q 21.140625 -20.796875 15.09375 -20.796875 
L 7.90625 -20.796875 
L 7.90625 -13.28125 
L 13.1875 -13.28125 
Q 16.890625 -13.28125 18.9375 -11.515625 
Q 21 -9.765625 23.484375 -3.21875 
L 25.09375 0.875 
L 2.984375 54.6875 
L 12.5 54.6875 
L 29.59375 11.921875 
L 46.6875 54.6875 
L 56.203125 54.6875 
z
" id="DejaVuSans-121"/>
       <path id="DejaVuSans-32"/>
       <path d="M 25.390625 72.90625 
L 33.6875 72.90625 
L 8.296875 -9.28125 
L 0 -9.28125 
z
" id="DejaVuSans-47"/>
       <path d="M 72.703125 32.078125 
Q 68.453125 32.078125 66.03125 28.46875 
Q 63.625 24.859375 63.625 18.40625 
Q 63.625 12.0625 66.03125 8.421875 
Q 68.453125 4.78125 72.703125 4.78125 
Q 76.859375 4.78125 79.265625 8.421875 
Q 81.6875 12.0625 81.6875 18.40625 
Q 81.6875 24.8125 79.265625 28.4375 
Q 76.859375 32.078125 72.703125 32.078125 
z
M 72.703125 38.28125 
Q 80.421875 38.28125 84.953125 32.90625 
Q 89.5 27.546875 89.5 18.40625 
Q 89.5 9.28125 84.9375 3.921875 
Q 80.375 -1.421875 72.703125 -1.421875 
Q 64.890625 -1.421875 60.34375 3.921875 
Q 55.8125 9.28125 55.8125 18.40625 
Q 55.8125 27.59375 60.375 32.9375 
Q 64.9375 38.28125 72.703125 38.28125 
z
M 22.3125 68.015625 
Q 18.109375 68.015625 15.6875 64.375 
Q 13.28125 60.75 13.28125 54.390625 
Q 13.28125 47.953125 15.671875 44.328125 
Q 18.0625 40.71875 22.3125 40.71875 
Q 26.5625 40.71875 28.96875 44.328125 
Q 31.390625 47.953125 31.390625 54.390625 
Q 31.390625 60.6875 28.953125 64.34375 
Q 26.515625 68.015625 22.3125 68.015625 
z
M 66.40625 74.21875 
L 74.21875 74.21875 
L 28.609375 -1.421875 
L 20.796875 -1.421875 
z
M 22.3125 74.21875 
Q 30.03125 74.21875 34.609375 68.875 
Q 39.203125 63.53125 39.203125 54.390625 
Q 39.203125 45.171875 34.640625 39.84375 
Q 30.078125 34.515625 22.3125 34.515625 
Q 14.546875 34.515625 10.03125 39.859375 
Q 5.515625 45.21875 5.515625 54.390625 
Q 5.515625 63.484375 10.046875 68.84375 
Q 14.59375 74.21875 22.3125 74.21875 
z
" id="DejaVuSans-37"/>
      </defs>
      <use xlink:href="#DejaVuSans-65"/>
      <use x="66.658203" xlink:href="#DejaVuSans-99"/>
      <use x="121.638672" xlink:href="#DejaVuSans-99"/>
      <use x="176.619141" xlink:href="#DejaVuSans-117"/>
      <use x="239.998047" xlink:href="#DejaVuSans-114"/>
      <use x="281.111328" xlink:href="#DejaVuSans-97"/>
      <use x="342.390625" xlink:href="#DejaVuSans-99"/>
      <use x="397.371094" xlink:href="#DejaVuSans-121"/>
      <use x="456.550781" xlink:href="#DejaVuSans-32"/>
      <use x="488.337891" xlink:href="#DejaVuSans-47"/>
      <use x="522.029297" xlink:href="#DejaVuSans-37"/>
     </g>
    </g>
   </g>
   <g id="matplotlib.axis_2">
    <g id="ytick_1">
     <g id="line2d_10">
      <defs>
       <path d="M 0 0 
L -3.5 0 
" id="m27ef89c9c1" style="stroke:#000000;stroke-width:0.8;"/>
      </defs>
      <g>
       <use style="stroke:#000000;stroke-width:0.8;" x="144" xlink:href="#m27ef89c9c1" y="444.362283"/>
      </g>
     </g>
     <g id="text_11">
      <!-- $\mathdefault{10^{1}}$ -->
      <g transform="translate(94.76 453.480408)scale(0.24 -0.24)">
       <use transform="translate(0 0.684375)" xlink:href="#DejaVuSans-49"/>
       <use transform="translate(63.623047 0.684375)" xlink:href="#DejaVuSans-48"/>
       <use transform="translate(128.203125 38.965625)scale(0.7)" xlink:href="#DejaVuSans-49"/>
      </g>
     </g>
    </g>
    <g id="ytick_2">
     <g id="line2d_11">
      <g>
       <use style="stroke:#000000;stroke-width:0.8;" x="144" xlink:href="#m27ef89c9c1" y="359.04"/>
      </g>
     </g>
     <g id="text_12">
      <!-- $\mathdefault{10^{2}}$ -->
      <g transform="translate(94.76 368.158125)scale(0.24 -0.24)">
       <use transform="translate(0 0.765625)" xlink:href="#DejaVuSans-49"/>
       <use transform="translate(63.623047 0.765625)" xlink:href="#DejaVuSans-48"/>
       <use transform="translate(128.203125 39.046875)scale(0.7)" xlink:href="#DejaVuSans-50"/>
      </g>
     </g>
    </g>
    <g id="ytick_3">
     <g id="line2d_12">
      <g>
       <use style="stroke:#000000;stroke-width:0.8;" x="144" xlink:href="#m27ef89c9c1" y="273.717717"/>
      </g>
     </g>
     <g id="text_13">
      <!-- $\mathdefault{10^{3}}$ -->
      <g transform="translate(94.76 282.835842)scale(0.24 -0.24)">
       <defs>
        <path d="M 40.578125 39.3125 
Q 47.65625 37.796875 51.625 33 
Q 55.609375 28.21875 55.609375 21.1875 
Q 55.609375 10.40625 48.1875 4.484375 
Q 40.765625 -1.421875 27.09375 -1.421875 
Q 22.515625 -1.421875 17.65625 -0.515625 
Q 12.796875 0.390625 7.625 2.203125 
L 7.625 11.71875 
Q 11.71875 9.328125 16.59375 8.109375 
Q 21.484375 6.890625 26.8125 6.890625 
Q 36.078125 6.890625 40.9375 10.546875 
Q 45.796875 14.203125 45.796875 21.1875 
Q 45.796875 27.640625 41.28125 31.265625 
Q 36.765625 34.90625 28.71875 34.90625 
L 20.21875 34.90625 
L 20.21875 43.015625 
L 29.109375 43.015625 
Q 36.375 43.015625 40.234375 45.921875 
Q 44.09375 48.828125 44.09375 54.296875 
Q 44.09375 59.90625 40.109375 62.90625 
Q 36.140625 65.921875 28.71875 65.921875 
Q 24.65625 65.921875 20.015625 65.03125 
Q 15.375 64.15625 9.8125 62.3125 
L 9.8125 71.09375 
Q 15.4375 72.65625 20.34375 73.4375 
Q 25.25 74.21875 29.59375 74.21875 
Q 40.828125 74.21875 47.359375 69.109375 
Q 53.90625 64.015625 53.90625 55.328125 
Q 53.90625 49.265625 50.4375 45.09375 
Q 46.96875 40.921875 40.578125 39.3125 
z
" id="DejaVuSans-51"/>
       </defs>
       <use transform="translate(0 0.765625)" xlink:href="#DejaVuSans-49"/>
       <use transform="translate(63.623047 0.765625)" xlink:href="#DejaVuSans-48"/>
       <use transform="translate(128.203125 39.046875)scale(0.7)" xlink:href="#DejaVuSans-51"/>
      </g>
     </g>
    </g>
    <g id="ytick_4">
     <g id="line2d_13">
      <g>
       <use style="stroke:#000000;stroke-width:0.8;" x="144" xlink:href="#m27ef89c9c1" y="188.395433"/>
      </g>
     </g>
     <g id="text_14">
      <!-- $\mathdefault{10^{4}}$ -->
      <g transform="translate(94.76 197.513558)scale(0.24 -0.24)">
       <use transform="translate(0 0.684375)" xlink:href="#DejaVuSans-49"/>
       <use transform="translate(63.623047 0.684375)" xlink:href="#DejaVuSans-48"/>
       <use transform="translate(128.203125 38.965625)scale(0.7)" xlink:href="#DejaVuSans-52"/>
      </g>
     </g>
    </g>
    <g id="ytick_5">
     <g id="line2d_14">
      <g>
       <use style="stroke:#000000;stroke-width:0.8;" x="144" xlink:href="#m27ef89c9c1" y="103.07315"/>
      </g>
     </g>
     <g id="text_15">
      <!-- $\mathdefault{10^{5}}$ -->
      <g transform="translate(94.76 112.191275)scale(0.24 -0.24)">
       <defs>
        <path d="M 10.796875 72.90625 
L 49.515625 72.90625 
L 49.515625 64.59375 
L 19.828125 64.59375 
L 19.828125 46.734375 
Q 21.96875 47.46875 24.109375 47.828125 
Q 26.265625 48.1875 28.421875 48.1875 
Q 40.625 48.1875 47.75 41.5 
Q 54.890625 34.8125 54.890625 23.390625 
Q 54.890625 11.625 47.5625 5.09375 
Q 40.234375 -1.421875 26.90625 -1.421875 
Q 22.3125 -1.421875 17.546875 -0.640625 
Q 12.796875 0.140625 7.71875 1.703125 
L 7.71875 11.625 
Q 12.109375 9.234375 16.796875 8.0625 
Q 21.484375 6.890625 26.703125 6.890625 
Q 35.15625 6.890625 40.078125 11.328125 
Q 45.015625 15.765625 45.015625 23.390625 
Q 45.015625 31 40.078125 35.4375 
Q 35.15625 39.890625 26.703125 39.890625 
Q 22.75 39.890625 18.8125 39.015625 
Q 14.890625 38.140625 10.796875 36.28125 
z
" id="DejaVuSans-53"/>
       </defs>
       <use transform="translate(0 0.684375)" xlink:href="#DejaVuSans-49"/>
       <use transform="translate(63.623047 0.684375)" xlink:href="#DejaVuSans-48"/>
       <use transform="translate(128.203125 38.965625)scale(0.7)" xlink:href="#DejaVuSans-53"/>
      </g>
     </g>
    </g>
    <g id="ytick_6">
     <g id="line2d_15">
      <defs>
       <path d="M 0 0 
L -2 0 
" id="md975bca05e" style="stroke:#000000;stroke-width:0.6;"/>
      </defs>
      <g>
       <use style="stroke:#000000;stroke-width:0.6;" x="144" xlink:href="#md975bca05e" y="504"/>
      </g>
     </g>
    </g>
    <g id="ytick_7">
     <g id="line2d_16">
      <g>
       <use style="stroke:#000000;stroke-width:0.6;" x="144" xlink:href="#md975bca05e" y="488.975492"/>
      </g>
     </g>
    </g>
    <g id="ytick_8">
     <g id="line2d_17">
      <g>
       <use style="stroke:#000000;stroke-width:0.6;" x="144" xlink:href="#md975bca05e" y="478.315433"/>
      </g>
     </g>
    </g>
    <g id="ytick_9">
     <g id="line2d_18">
      <g>
       <use style="stroke:#000000;stroke-width:0.6;" x="144" xlink:href="#md975bca05e" y="470.04685"/>
      </g>
     </g>
    </g>
    <g id="ytick_10">
     <g id="line2d_19">
      <g>
       <use style="stroke:#000000;stroke-width:0.6;" x="144" xlink:href="#md975bca05e" y="463.290925"/>
      </g>
     </g>
    </g>
    <g id="ytick_11">
     <g id="line2d_20">
      <g>
       <use style="stroke:#000000;stroke-width:0.6;" x="144" xlink:href="#md975bca05e" y="457.578872"/>
      </g>
     </g>
    </g>
    <g id="ytick_12">
     <g id="line2d_21">
      <g>
       <use style="stroke:#000000;stroke-width:0.6;" x="144" xlink:href="#md975bca05e" y="452.630867"/>
      </g>
     </g>
    </g>
    <g id="ytick_13">
     <g id="line2d_22">
      <g>
       <use style="stroke:#000000;stroke-width:0.6;" x="144" xlink:href="#md975bca05e" y="448.266417"/>
      </g>
     </g>
    </g>
    <g id="ytick_14">
     <g id="line2d_23">
      <g>
       <use style="stroke:#000000;stroke-width:0.6;" x="144" xlink:href="#md975bca05e" y="418.677717"/>
      </g>
     </g>
    </g>
    <g id="ytick_15">
     <g id="line2d_24">
      <g>
       <use style="stroke:#000000;stroke-width:0.6;" x="144" xlink:href="#md975bca05e" y="403.653208"/>
      </g>
     </g>
    </g>
    <g id="ytick_16">
     <g id="line2d_25">
      <g>
       <use style="stroke:#000000;stroke-width:0.6;" x="144" xlink:href="#md975bca05e" y="392.99315"/>
      </g>
     </g>
    </g>
    <g id="ytick_17">
     <g id="line2d_26">
      <g>
       <use style="stroke:#000000;stroke-width:0.6;" x="144" xlink:href="#md975bca05e" y="384.724567"/>
      </g>
     </g>
    </g>
    <g id="ytick_18">
     <g id="line2d_27">
      <g>
       <use style="stroke:#000000;stroke-width:0.6;" x="144" xlink:href="#md975bca05e" y="377.968642"/>
      </g>
     </g>
    </g>
    <g id="ytick_19">
     <g id="line2d_28">
      <g>
       <use style="stroke:#000000;stroke-width:0.6;" x="144" xlink:href="#md975bca05e" y="372.256589"/>
      </g>
     </g>
    </g>
    <g id="ytick_20">
     <g id="line2d_29">
      <g>
       <use style="stroke:#000000;stroke-width:0.6;" x="144" xlink:href="#md975bca05e" y="367.308584"/>
      </g>
     </g>
    </g>
    <g id="ytick_21">
     <g id="line2d_30">
      <g>
       <use style="stroke:#000000;stroke-width:0.6;" x="144" xlink:href="#md975bca05e" y="362.944134"/>
      </g>
     </g>
    </g>
    <g id="ytick_22">
     <g id="line2d_31">
      <g>
       <use style="stroke:#000000;stroke-width:0.6;" x="144" xlink:href="#md975bca05e" y="333.355433"/>
      </g>
     </g>
    </g>
    <g id="ytick_23">
     <g id="line2d_32">
      <g>
       <use style="stroke:#000000;stroke-width:0.6;" x="144" xlink:href="#md975bca05e" y="318.330925"/>
      </g>
     </g>
    </g>
    <g id="ytick_24">
     <g id="line2d_33">
      <g>
       <use style="stroke:#000000;stroke-width:0.6;" x="144" xlink:href="#md975bca05e" y="307.670867"/>
      </g>
     </g>
    </g>
    <g id="ytick_25">
     <g id="line2d_34">
      <g>
       <use style="stroke:#000000;stroke-width:0.6;" x="144" xlink:href="#md975bca05e" y="299.402283"/>
      </g>
     </g>
    </g>
    <g id="ytick_26">
     <g id="line2d_35">
      <g>
       <use style="stroke:#000000;stroke-width:0.6;" x="144" xlink:href="#md975bca05e" y="292.646359"/>
      </g>
     </g>
    </g>
    <g id="ytick_27">
     <g id="line2d_36">
      <g>
       <use style="stroke:#000000;stroke-width:0.6;" x="144" xlink:href="#md975bca05e" y="286.934306"/>
      </g>
     </g>
    </g>
    <g id="ytick_28">
     <g id="line2d_37">
      <g>
       <use style="stroke:#000000;stroke-width:0.6;" x="144" xlink:href="#md975bca05e" y="281.9863"/>
      </g>
     </g>
    </g>
    <g id="ytick_29">
     <g id="line2d_38">
      <g>
       <use style="stroke:#000000;stroke-width:0.6;" x="144" xlink:href="#md975bca05e" y="277.62185"/>
      </g>
     </g>
    </g>
    <g id="ytick_30">
     <g id="line2d_39">
      <g>
       <use style="stroke:#000000;stroke-width:0.6;" x="144" xlink:href="#md975bca05e" y="248.03315"/>
      </g>
     </g>
    </g>
    <g id="ytick_31">
     <g id="line2d_40">
      <g>
       <use style="stroke:#000000;stroke-width:0.6;" x="144" xlink:href="#md975bca05e" y="233.008642"/>
      </g>
     </g>
    </g>
    <g id="ytick_32">
     <g id="line2d_41">
      <g>
       <use style="stroke:#000000;stroke-width:0.6;" x="144" xlink:href="#md975bca05e" y="222.348584"/>
      </g>
     </g>
    </g>
    <g id="ytick_33">
     <g id="line2d_42">
      <g>
       <use style="stroke:#000000;stroke-width:0.6;" x="144" xlink:href="#md975bca05e" y="214.08"/>
      </g>
     </g>
    </g>
    <g id="ytick_34">
     <g id="line2d_43">
      <g>
       <use style="stroke:#000000;stroke-width:0.6;" x="144" xlink:href="#md975bca05e" y="207.324075"/>
      </g>
     </g>
    </g>
    <g id="ytick_35">
     <g id="line2d_44">
      <g>
       <use style="stroke:#000000;stroke-width:0.6;" x="144" xlink:href="#md975bca05e" y="201.612022"/>
      </g>
     </g>
    </g>
    <g id="ytick_36">
     <g id="line2d_45">
      <g>
       <use style="stroke:#000000;stroke-width:0.6;" x="144" xlink:href="#md975bca05e" y="196.664017"/>
      </g>
     </g>
    </g>
    <g id="ytick_37">
     <g id="line2d_46">
      <g>
       <use style="stroke:#000000;stroke-width:0.6;" x="144" xlink:href="#md975bca05e" y="192.299567"/>
      </g>
     </g>
    </g>
    <g id="ytick_38">
     <g id="line2d_47">
      <g>
       <use style="stroke:#000000;stroke-width:0.6;" x="144" xlink:href="#md975bca05e" y="162.710867"/>
      </g>
     </g>
    </g>
    <g id="ytick_39">
     <g id="line2d_48">
      <g>
       <use style="stroke:#000000;stroke-width:0.6;" x="144" xlink:href="#md975bca05e" y="147.686359"/>
      </g>
     </g>
    </g>
    <g id="ytick_40">
     <g id="line2d_49">
      <g>
       <use style="stroke:#000000;stroke-width:0.6;" x="144" xlink:href="#md975bca05e" y="137.0263"/>
      </g>
     </g>
    </g>
    <g id="ytick_41">
     <g id="line2d_50">
      <g>
       <use style="stroke:#000000;stroke-width:0.6;" x="144" xlink:href="#md975bca05e" y="128.757717"/>
      </g>
     </g>
    </g>
    <g id="ytick_42">
     <g id="line2d_51">
      <g>
       <use style="stroke:#000000;stroke-width:0.6;" x="144" xlink:href="#md975bca05e" y="122.001792"/>
      </g>
     </g>
    </g>
    <g id="ytick_43">
     <g id="line2d_52">
      <g>
       <use style="stroke:#000000;stroke-width:0.6;" x="144" xlink:href="#md975bca05e" y="116.289739"/>
      </g>
     </g>
    </g>
    <g id="ytick_44">
     <g id="line2d_53">
      <g>
       <use style="stroke:#000000;stroke-width:0.6;" x="144" xlink:href="#md975bca05e" y="111.341734"/>
      </g>
     </g>
    </g>
    <g id="ytick_45">
     <g id="line2d_54">
      <g>
       <use style="stroke:#000000;stroke-width:0.6;" x="144" xlink:href="#md975bca05e" y="106.977284"/>
      </g>
     </g>
    </g>
    <g id="ytick_46">
     <g id="line2d_55">
      <g>
       <use style="stroke:#000000;stroke-width:0.6;" x="144" xlink:href="#md975bca05e" y="77.388584"/>
      </g>
     </g>
    </g>
    <g id="text_16">
     <!-- Energy /A.U. -->
     <g transform="translate(84.936875 373.22)rotate(-90)scale(0.28 -0.28)">
      <defs>
       <path d="M 9.8125 72.90625 
L 55.90625 72.90625 
L 55.90625 64.59375 
L 19.671875 64.59375 
L 19.671875 43.015625 
L 54.390625 43.015625 
L 54.390625 34.71875 
L 19.671875 34.71875 
L 19.671875 8.296875 
L 56.78125 8.296875 
L 56.78125 0 
L 9.8125 0 
z
" id="DejaVuSans-69"/>
       <path d="M 54.890625 33.015625 
L 54.890625 0 
L 45.90625 0 
L 45.90625 32.71875 
Q 45.90625 40.484375 42.875 44.328125 
Q 39.84375 48.1875 33.796875 48.1875 
Q 26.515625 48.1875 22.3125 43.546875 
Q 18.109375 38.921875 18.109375 30.90625 
L 18.109375 0 
L 9.078125 0 
L 9.078125 54.6875 
L 18.109375 54.6875 
L 18.109375 46.1875 
Q 21.34375 51.125 25.703125 53.5625 
Q 30.078125 56 35.796875 56 
Q 45.21875 56 50.046875 50.171875 
Q 54.890625 44.34375 54.890625 33.015625 
z
" id="DejaVuSans-110"/>
       <path d="M 56.203125 29.59375 
L 56.203125 25.203125 
L 14.890625 25.203125 
Q 15.484375 15.921875 20.484375 11.0625 
Q 25.484375 6.203125 34.421875 6.203125 
Q 39.59375 6.203125 44.453125 7.46875 
Q 49.3125 8.734375 54.109375 11.28125 
L 54.109375 2.78125 
Q 49.265625 0.734375 44.1875 -0.34375 
Q 39.109375 -1.421875 33.890625 -1.421875 
Q 20.796875 -1.421875 13.15625 6.1875 
Q 5.515625 13.8125 5.515625 26.8125 
Q 5.515625 40.234375 12.765625 48.109375 
Q 20.015625 56 32.328125 56 
Q 43.359375 56 49.78125 48.890625 
Q 56.203125 41.796875 56.203125 29.59375 
z
M 47.21875 32.234375 
Q 47.125 39.59375 43.09375 43.984375 
Q 39.0625 48.390625 32.421875 48.390625 
Q 24.90625 48.390625 20.390625 44.140625 
Q 15.875 39.890625 15.1875 32.171875 
z
" id="DejaVuSans-101"/>
       <path d="M 45.40625 27.984375 
Q 45.40625 37.75 41.375 43.109375 
Q 37.359375 48.484375 30.078125 48.484375 
Q 22.859375 48.484375 18.828125 43.109375 
Q 14.796875 37.75 14.796875 27.984375 
Q 14.796875 18.265625 18.828125 12.890625 
Q 22.859375 7.515625 30.078125 7.515625 
Q 37.359375 7.515625 41.375 12.890625 
Q 45.40625 18.265625 45.40625 27.984375 
z
M 54.390625 6.78125 
Q 54.390625 -7.171875 48.1875 -13.984375 
Q 42 -20.796875 29.203125 -20.796875 
Q 24.46875 -20.796875 20.265625 -20.09375 
Q 16.0625 -19.390625 12.109375 -17.921875 
L 12.109375 -9.1875 
Q 16.0625 -11.328125 19.921875 -12.34375 
Q 23.78125 -13.375 27.78125 -13.375 
Q 36.625 -13.375 41.015625 -8.765625 
Q 45.40625 -4.15625 45.40625 5.171875 
L 45.40625 9.625 
Q 42.625 4.78125 38.28125 2.390625 
Q 33.9375 0 27.875 0 
Q 17.828125 0 11.671875 7.65625 
Q 5.515625 15.328125 5.515625 27.984375 
Q 5.515625 40.671875 11.671875 48.328125 
Q 17.828125 56 27.875 56 
Q 33.9375 56 38.28125 53.609375 
Q 42.625 51.21875 45.40625 46.390625 
L 45.40625 54.6875 
L 54.390625 54.6875 
z
" id="DejaVuSans-103"/>
       <path d="M 10.6875 12.40625 
L 21 12.40625 
L 21 0 
L 10.6875 0 
z
" id="DejaVuSans-46"/>
       <path d="M 8.6875 72.90625 
L 18.609375 72.90625 
L 18.609375 28.609375 
Q 18.609375 16.890625 22.84375 11.734375 
Q 27.09375 6.59375 36.625 6.59375 
Q 46.09375 6.59375 50.34375 11.734375 
Q 54.59375 16.890625 54.59375 28.609375 
L 54.59375 72.90625 
L 64.5 72.90625 
L 64.5 27.390625 
Q 64.5 13.140625 57.4375 5.859375 
Q 50.390625 -1.421875 36.625 -1.421875 
Q 22.796875 -1.421875 15.734375 5.859375 
Q 8.6875 13.140625 8.6875 27.390625 
z
" id="DejaVuSans-85"/>
      </defs>
      <use xlink:href="#DejaVuSans-69"/>
      <use x="63.183594" xlink:href="#DejaVuSans-110"/>
      <use x="126.5625" xlink:href="#DejaVuSans-101"/>
      <use x="188.085938" xlink:href="#DejaVuSans-114"/>
      <use x="227.449219" xlink:href="#DejaVuSans-103"/>
      <use x="290.925781" xlink:href="#DejaVuSans-121"/>
      <use x="350.105469" xlink:href="#DejaVuSans-32"/>
      <use x="381.892578" xlink:href="#DejaVuSans-47"/>
      <use x="415.583984" xlink:href="#DejaVuSans-65"/>
      <use x="482.242188" xlink:href="#DejaVuSans-46"/>
      <use x="514.029297" xlink:href="#DejaVuSans-85"/>
      <use x="587.222656" xlink:href="#DejaVuSans-46"/>
     </g>
    </g>
   </g>
   <g id="line2d_56">
    <path clip-path="url(#p45abb3072c)" d="M 142.326 243.275479 
L 359.946 220.596566 
L 419.652 208.674153 
L 451.458 200.267268 
L 491.076 193.772112 
L 510.606 188.376978 
L 538.506 183.8475 
L 553.572 179.953849 
L 578.124 176.462955 
L 582.03 173.349936 
L 586.494 170.548221 
L 609.93 168.057185 
L 617.184 165.796357 
L 627.228 163.779353 
L 632.25 161.855869 
L 650.106 160.052345 
L 647.316 158.239472 
L 667.962 156.631022 
L 656.802 155.140089 
L 671.868 153.716435 
L 665.73 152.35895 
L 704.232 151.049461 
L 674.658 149.763315 
L 700.326 148.621741 
L 701.442 147.483878 
L 724.878 146.415161 
L 707.022 145.43363 
L 708.696 144.478297 
L 744.408 141.737951 
L 737.712 140.880059 
L 741.618 140.065449 
L 754.452 139.268834 
L 743.85 138.500573 
L 743.85 137.740835 
L 758.916 137.042179 
L 768.96 136.380588 
L 758.358 135.683552 
L 766.728 135.005528 
L 764.496 134.404516 
L 760.032 133.768878 
L 779.004 133.129671 
L 790.722 132.533335 
L 775.098 131.947948 
L 784.584 131.37343 
L 796.302 130.824233 
L 791.28 130.271412 
L 795.744 129.723747 
L 790.722 129.240365 
L 796.86 128.710501 
L 811.926 128.22221 
L 801.882 127.742059 
L 810.252 127.283052 
L 814.716 126.841988 
L 814.716 126.384629 
L 818.064 125.919725 
L 813.6 125.494569 
L 813.6 125.062007 
L 832.014 124.636438 
L 827.55 124.254138 
L 814.716 123.850555 
L 819.738 123.477355 
L 826.434 123.094783 
L 827.55 122.702731 
L 813.042 122.317721 
L 824.76 121.943872 
L 835.362 121.210983 
L 833.13 120.844047 
L 837.036 120.47559 
L 842.616 120.137044 
L 837.036 119.825423 
L 833.688 119.504668 
L 838.71 119.182336 
L 849.312 118.847744 
L 837.036 118.521456 
L 848.196 117.891218 
L 851.544 117.593444 
L 844.29 117.289924 
L 850.428 116.996094 
L 850.428 116.690804 
L 849.312 116.38678 
L 852.66 116.11485 
L 857.682 115.520887 
L 856.566 115.257962 
L 850.428 114.736225 
L 853.776 114.450926 
L 854.892 114.194636 
L 859.914 113.932824 
L 854.334 113.698712 
L 859.914 113.459418 
L 856.566 113.201249 
L 859.914 112.957353 
L 866.052 112.712928 
L 859.914 112.240215 
L 867.726 111.766305 
L 864.378 111.546733 
L 864.936 111.32337 
L 864.936 110.87851 
L 871.074 110.661657 
L 873.306 110.432266 
L 871.074 110.213402 
L 872.19 109.994822 
L 871.632 109.778308 
L 868.842 109.580552 
L 874.422 109.170896 
L 866.052 108.97286 
L 884.466 108.165551 
L 873.864 107.973465 
L 881.118 107.777699 
L 877.212 107.595038 
L 876.654 107.405761 
L 879.444 107.033924 
L 878.886 106.83244 
L 884.466 106.657705 
L 878.328 106.123389 
L 883.908 105.956315 
L 885.582 105.633544 
L 885.582 105.46788 
L 882.792 105.308242 
L 885.024 105.143001 
L 883.908 104.97337 
L 893.952 104.646597 
L 892.278 104.486854 
L 882.234 104.316025 
L 882.234 104.15033 
L 886.14 103.99125 
L 899.532 103.818325 
L 892.836 103.655723 
L 881.118 103.505167 
L 890.046 103.341558 
L 887.814 103.203413 
L 889.488 103.05515 
L 888.93 102.89883 
L 890.046 102.604296 
L 896.742 102.461654 
L 889.488 102.319977 
L 888.93 102.160357 
L 890.604 102.022039 
L 885.024 101.875529 
L 887.814 101.735462 
L 895.626 101.59795 
L 893.952 101.459211 
L 901.764 101.19647 
L 896.742 101.062534 
L 883.908 100.929137 
L 895.626 100.798063 
L 891.162 100.638089 
L 898.974 100.507778 
L 888.93 100.363611 
L 897.3 100.114704 
L 889.488 99.985085 
L 894.51 99.85354 
L 894.51 99.72548 
L 896.742 99.598895 
L 893.394 99.472552 
L 899.532 99.348473 
L 895.626 99.231971 
L 900.09 99.092576 
L 895.068 98.954116 
L 901.206 98.836047 
L 897.858 98.71743 
L 898.974 98.597988 
L 892.836 98.357359 
L 901.764 98.240588 
L 901.206 98.129422 
L 890.046 98.020908 
L 907.344 97.790842 
L 901.206 97.673545 
L 907.344 97.543496 
L 894.51 97.43111 
L 908.46 97.329497 
L 901.764 97.105115 
L 903.996 96.993811 
L 901.206 96.888097 
L 902.322 96.769792 
L 898.974 96.653159 
L 887.814 96.54015 
L 901.206 96.334569 
L 901.764 96.228447 
L 903.438 96.111254 
L 907.902 96.008669 
L 902.322 95.806532 
L 901.764 95.704893 
L 902.88 95.50059 
L 896.184 95.400638 
L 900.09 95.290969 
L 898.974 95.095765 
L 909.018 94.889154 
L 903.438 94.790728 
L 909.576 94.602739 
L 907.344 94.500388 
L 909.018 94.30618 
L 902.322 94.209017 
L 903.438 94.115883 
L 905.112 94.020645 
L 912.366 93.83629 
L 910.134 93.744006 
L 910.692 93.651568 
L 903.996 93.479629 
L 904.554 93.30556 
L 902.88 93.212125 
L 903.996 93.123146 
L 910.692 93.035535 
L 907.344 92.939703 
L 916.272 92.845272 
L 911.25 92.754836 
L 913.482 92.664788 
L 919.062 92.583765 
L 907.344 92.438093 
L 912.366 92.260579 
L 910.134 92.177108 
L 914.04 92.079188 
L 909.576 91.901289 
L 912.924 91.730571 
L 905.112 91.643718 
L 917.388 91.405356 
L 906.786 91.333627 
L 914.598 91.246375 
L 905.67 91.156472 
L 907.902 91.074165 
L 907.344 91.000773 
L 905.67 90.914881 
L 911.25 90.755228 
L 919.062 90.673621 
L 916.272 90.598135 
L 910.692 90.365599 
L 918.504 90.291797 
L 904.554 90.214084 
L 914.598 90.064055 
L 916.83 89.991556 
L 915.714 89.917941 
L 914.04 89.760219 
L 912.366 89.68541 
L 914.598 89.611575 
L 914.04 89.542825 
L 915.156 89.470854 
L 913.482 89.330247 
L 908.46 89.258086 
L 917.388 89.190927 
L 912.366 89.120043 
L 910.134 89.042746 
L 918.504 88.972806 
L 911.25 88.894788 
L 913.482 88.826773 
L 917.946 88.760548 
L 911.808 88.689799 
L 914.04 88.618269 
L 915.156 88.55897 
L 920.736 88.492671 
L 913.482 88.354738 
L 921.294 88.067295 
L 920.178 88.005866 
L 921.852 87.944938 
L 916.83 87.875267 
L 917.946 87.808106 
L 916.83 87.672127 
L 914.04 87.607437 
L 922.968 87.347578 
L 915.156 87.28299 
L 917.946 87.223112 
L 920.178 87.028675 
L 908.46 86.780418 
L 916.272 86.717381 
L 915.714 86.657257 
L 915.714 86.6011 
L 916.83 86.47633 
L 918.504 86.42059 
L 910.692 86.362025 
L 917.388 86.303743 
L 918.504 86.241633 
L 910.134 86.185417 
L 916.272 86.125052 
L 911.25 86.068624 
L 918.504 86.007075 
L 917.388 85.945383 
L 919.062 85.880944 
L 916.272 85.820417 
L 922.41 85.665563 
L 916.272 85.611197 
L 921.852 85.553854 
L 916.272 85.433805 
L 917.388 85.373172 
L 916.272 85.311635 
L 920.736 85.197426 
L 919.62 85.135598 
L 917.946 85.029656 
L 919.62 84.976921 
L 919.062 84.920023 
L 918.504 84.867375 
L 920.178 84.809969 
L 917.388 84.751187 
L 919.62 84.695924 
L 916.83 84.529891 
L 916.83 84.529891 
" style="fill:none;stroke:#1f1f1f;stroke-linecap:square;stroke-width:5;"/>
   </g>
   <g id="line2d_57">
    <path clip-path="url(#p45abb3072c)" d="M 142.326 508.920089 
L 359.946 477.313789 
L 419.652 458.474469 
L 451.458 444.720279 
L 491.076 434.066573 
L 510.606 425.303698 
L 538.506 417.773755 
L 553.572 411.25565 
L 578.124 405.487905 
L 582.03 400.308052 
L 586.494 395.588362 
L 609.93 391.261023 
L 617.184 387.241367 
L 627.228 383.558548 
L 632.25 380.171753 
L 650.106 377.017714 
L 647.316 374.078861 
L 667.962 371.311326 
L 656.802 368.705534 
L 671.868 366.203302 
L 665.73 363.842337 
L 704.232 361.616546 
L 674.658 359.460516 
L 700.326 357.407182 
L 701.442 355.418844 
L 724.878 353.541752 
L 707.022 351.732927 
L 708.696 349.984061 
L 721.53 348.324895 
L 734.922 346.713323 
L 744.408 345.15645 
L 737.712 343.670314 
L 741.618 342.238865 
L 754.452 340.842571 
L 743.85 339.488001 
L 743.85 338.183227 
L 758.916 336.922086 
L 768.96 335.696276 
L 758.358 334.512152 
L 766.728 333.363 
L 764.496 332.236006 
L 760.032 331.143385 
L 779.004 330.075922 
L 790.722 329.043755 
L 775.098 328.047864 
L 784.584 327.065044 
L 796.302 326.111799 
L 791.28 325.178066 
L 795.744 324.27645 
L 790.722 323.386927 
L 796.86 322.522709 
L 811.926 321.67456 
L 801.882 320.855003 
L 810.252 320.055632 
L 814.716 319.273609 
L 814.716 318.505368 
L 818.064 317.751478 
L 813.6 317.014212 
L 813.6 316.28993 
L 832.014 315.57539 
L 827.55 314.873047 
L 814.716 314.18372 
L 819.738 313.498239 
L 826.434 312.829198 
L 827.55 312.177792 
L 813.042 311.539977 
L 824.76 310.911926 
L 835.362 309.671596 
L 833.13 309.070205 
L 837.036 308.478791 
L 842.616 307.897067 
L 837.036 307.32328 
L 833.688 306.754839 
L 838.71 306.197402 
L 849.312 305.648483 
L 837.036 305.107436 
L 848.196 304.053254 
L 851.544 303.538071 
L 844.29 303.02962 
L 850.428 302.527077 
L 850.428 302.034252 
L 849.312 301.546147 
L 852.66 301.063565 
L 854.892 300.585947 
L 857.682 300.112651 
L 856.566 299.646134 
L 850.428 298.736882 
L 853.776 298.289777 
L 854.892 297.84913 
L 859.914 297.413168 
L 854.334 296.979679 
L 859.914 296.550131 
L 856.566 296.127092 
L 859.914 295.708296 
L 866.052 295.29378 
L 859.914 294.479666 
L 867.726 293.681761 
L 864.378 293.290434 
L 864.936 292.902198 
L 864.936 292.128145 
L 871.074 291.742168 
L 873.306 291.36267 
L 871.074 290.988774 
L 872.19 290.619892 
L 871.632 290.253813 
L 868.842 289.890591 
L 871.074 289.529983 
L 874.422 289.170984 
L 866.052 288.815006 
L 884.466 287.420701 
L 873.864 287.079428 
L 881.118 286.739754 
L 877.212 286.40148 
L 876.654 286.06964 
L 877.77 285.738197 
L 879.444 285.412933 
L 878.886 285.089435 
L 884.466 284.766395 
L 880.56 284.126625 
L 878.328 283.811259 
L 883.908 283.497054 
L 885.024 283.187772 
L 885.582 282.879792 
L 885.582 282.572033 
L 882.792 282.268202 
L 885.024 281.967946 
L 883.908 281.670255 
L 891.162 281.375495 
L 893.952 281.08327 
L 892.278 280.791473 
L 882.234 280.501319 
L 882.234 280.21266 
L 886.14 279.924072 
L 899.532 279.638674 
L 892.836 279.355661 
L 881.118 279.074455 
L 890.046 278.794381 
L 887.814 278.515732 
L 889.488 278.236736 
L 888.93 277.959244 
L 890.046 277.411428 
L 896.742 277.140628 
L 889.488 276.870115 
L 888.93 276.601762 
L 890.604 276.334666 
L 885.024 276.069059 
L 887.814 275.805036 
L 895.626 275.541298 
L 893.952 275.279781 
L 901.764 274.760094 
L 896.742 274.501391 
L 883.908 274.243263 
L 895.626 273.988253 
L 891.162 273.734076 
L 898.974 273.481925 
L 888.93 273.229542 
L 897.3 272.73019 
L 889.488 272.482737 
L 894.51 272.238114 
L 894.51 271.993626 
L 896.742 271.751439 
L 893.394 271.509118 
L 899.532 271.26811 
L 895.626 271.028887 
L 900.09 270.790541 
L 895.068 270.553569 
L 901.206 270.316636 
L 897.858 270.081105 
L 898.974 269.84724 
L 892.836 269.382102 
L 901.764 269.150587 
L 901.206 268.920054 
L 890.046 268.689266 
L 902.88 268.462158 
L 907.344 268.235111 
L 901.206 268.008549 
L 907.344 267.782617 
L 894.51 267.557365 
L 908.46 267.332971 
L 903.438 267.110423 
L 901.764 266.888165 
L 903.996 266.66729 
L 901.206 266.447584 
L 902.322 266.228661 
L 898.974 266.011033 
L 887.814 265.793012 
L 901.206 265.576228 
L 901.206 265.360352 
L 901.764 265.144438 
L 903.438 264.930363 
L 907.902 264.718189 
L 902.88 264.507498 
L 901.764 264.087118 
L 902.88 263.87732 
L 902.88 263.669013 
L 896.184 263.461785 
L 900.09 263.254682 
L 898.974 263.048909 
L 898.974 262.843379 
L 907.344 262.63913 
L 909.018 262.43526 
L 903.438 262.232223 
L 909.576 261.829123 
L 907.344 261.628878 
L 909.018 261.228423 
L 902.322 261.030543 
L 905.112 260.636699 
L 911.25 260.441481 
L 912.366 260.246244 
L 910.134 260.051888 
L 910.692 259.858709 
L 908.46 259.666204 
L 903.996 259.474687 
L 905.67 259.283747 
L 902.88 258.903217 
L 903.996 258.71394 
L 910.692 258.526065 
L 907.344 258.338402 
L 916.272 258.150488 
L 911.25 257.963413 
L 913.482 257.777409 
L 919.062 257.591635 
L 907.344 257.221724 
L 911.808 257.038068 
L 912.366 256.855272 
L 910.134 256.673064 
L 914.04 256.492573 
L 909.576 256.31185 
L 909.576 256.131627 
L 912.924 255.950677 
L 912.924 255.771022 
L 905.112 255.591706 
L 917.388 255.056775 
L 906.786 254.879773 
L 914.598 254.703882 
L 905.67 254.527545 
L 907.902 254.351975 
L 907.344 254.17704 
L 905.67 254.003001 
L 911.25 253.655573 
L 919.062 253.48247 
L 911.808 252.966098 
L 910.692 252.795226 
L 918.504 252.624676 
L 904.554 252.454925 
L 913.482 252.28555 
L 914.598 252.116498 
L 916.83 251.948528 
L 912.366 251.28219 
L 914.598 251.11657 
L 914.04 250.951604 
L 915.156 250.78783 
L 914.598 250.624069 
L 913.482 250.461016 
L 908.46 250.298756 
L 917.388 250.136814 
L 910.134 249.813948 
L 918.504 249.652838 
L 911.25 249.492743 
L 913.482 249.332365 
L 917.946 249.172566 
L 911.808 249.013321 
L 915.156 248.697148 
L 920.736 248.540523 
L 913.482 248.228278 
L 917.946 247.918403 
L 919.062 247.763631 
L 921.294 247.6094 
L 920.178 247.456148 
L 921.852 247.302547 
L 916.83 247.14902 
L 917.946 246.996489 
L 916.83 246.69271 
L 914.04 246.541878 
L 916.83 246.391347 
L 916.83 246.24109 
L 919.062 246.090952 
L 922.968 245.941245 
L 915.156 245.792524 
L 919.62 245.496074 
L 920.178 245.348982 
L 920.178 245.201513 
L 915.156 245.054436 
L 916.83 244.907604 
L 914.04 244.761791 
L 908.46 244.616254 
L 916.272 244.470579 
L 915.714 244.325361 
L 915.714 244.181057 
L 916.83 243.893093 
L 918.504 243.750199 
L 910.692 243.60818 
L 917.388 243.466522 
L 918.504 243.324913 
L 910.134 243.183305 
L 916.272 243.04242 
L 911.25 242.901968 
L 918.504 242.761848 
L 917.388 242.621999 
L 919.062 242.4826 
L 916.272 242.343209 
L 921.852 242.203842 
L 918.504 242.065296 
L 922.41 241.927379 
L 916.272 241.789547 
L 921.852 241.652487 
L 916.272 241.515513 
L 916.272 241.378944 
L 917.388 241.24253 
L 916.272 241.106605 
L 920.736 240.8354 
L 917.946 240.43162 
L 919.62 240.29709 
L 918.504 240.029439 
L 920.178 239.896274 
L 917.388 239.763045 
L 919.62 239.630244 
L 918.504 239.497409 
L 919.062 239.365599 
L 916.83 239.234115 
L 916.83 239.234115 
" style="fill:none;stroke:#9e9e9e;stroke-linecap:square;stroke-width:5;"/>
   </g>
   <g id="line2d_58">
    <path clip-path="url(#p45abb3072c)" d="M -1 294.263108 
L 59.184 289.480196 
L 56.952 284.127474 
L 215.424 279.304033 
L 195.894 275.334424 
L 244.998 271.798833 
L 286.29 268.4194 
L 283.5 265.37808 
L 320.886 262.519283 
L 316.98 259.990979 
L 319.77 257.431315 
L 351.576 255.13748 
L 362.736 252.884547 
L 371.664 250.871101 
L 390.078 248.94873 
L 400.68 247.120462 
L 414.072 245.409339 
L 419.094 243.758047 
L 411.282 242.177254 
L 421.884 240.702377 
L 440.298 239.213433 
L 421.326 237.683315 
L 429.696 236.354844 
L 457.038 234.958915 
L 444.204 233.695873 
L 453.69 232.505731 
L 457.596 231.232219 
L 454.806 230.051354 
L 477.126 228.879719 
L 476.01 227.759156 
L 486.612 226.735646 
L 460.386 225.702026 
L 486.054 224.788064 
L 499.446 223.810268 
L 503.91 222.857283 
L 494.982 222.026732 
L 516.186 221.120766 
L 527.346 220.231423 
L 510.606 219.352691 
L 525.114 218.614245 
L 504.468 217.78711 
L 501.678 216.94642 
L 524.556 216.181777 
L 519.534 215.472869 
L 536.832 214.716241 
L 527.346 213.978511 
L 546.876 213.284844 
L 535.158 212.638807 
L 546.318 211.979802 
L 551.898 211.298475 
L 555.804 210.649786 
L 545.76 210.006219 
L 545.76 209.370355 
L 559.152 208.73636 
L 546.318 208.108428 
L 541.854 207.549519 
L 553.572 206.921673 
L 555.246 206.339885 
L 568.08 205.855255 
L 576.45 205.276163 
L 547.434 204.730554 
L 558.036 204.195137 
L 557.478 203.679662 
L 578.124 203.157029 
L 549.666 202.693885 
L 589.284 202.174406 
L 583.704 201.641563 
L 584.82 201.153849 
L 595.98 200.675648 
L 582.588 200.190558 
L 586.494 199.771809 
L 573.66 199.344435 
L 597.654 198.44171 
L 583.146 198.025803 
L 596.538 197.597211 
L 615.51 197.170218 
L 591.516 196.291568 
L 594.864 195.859497 
L 601.002 195.493809 
L 584.262 195.136329 
L 612.72 193.960436 
L 622.206 193.542663 
L 605.466 193.155405 
L 614.952 192.789913 
L 619.974 192.427141 
L 589.284 192.071489 
L 619.974 191.74769 
L 611.604 191.3946 
L 610.488 191.059758 
L 614.394 190.743012 
L 612.72 190.414008 
L 629.46 190.0762 
L 632.808 189.75863 
L 617.184 189.417298 
L 614.394 189.071103 
L 639.504 188.723528 
L 624.438 188.416486 
L 633.366 188.097922 
L 633.366 187.782363 
L 636.156 187.497858 
L 631.692 187.178384 
L 636.714 186.889999 
L 622.206 186.598116 
L 627.786 186.276688 
L 624.996 185.968097 
L 643.968 185.427491 
L 633.366 185.146204 
L 644.526 184.874512 
L 646.2 184.60179 
L 632.808 184.321346 
L 650.664 184.045824 
L 652.338 183.780139 
L 653.454 183.490279 
L 656.244 183.26433 
L 647.874 182.984878 
L 647.316 182.71409 
L 652.338 182.474369 
L 651.78 182.179843 
L 647.316 181.931068 
L 645.642 181.697107 
L 671.31 181.469964 
L 678.006 181.218661 
L 672.426 180.997995 
L 669.636 180.746564 
L 651.78 180.509821 
L 666.288 180.275022 
L 659.592 180.049512 
L 668.52 179.824684 
L 665.172 179.574538 
L 647.316 179.348188 
L 676.332 179.112837 
L 661.824 178.900842 
L 663.498 178.68284 
L 679.68 178.243884 
L 648.99 178.033534 
L 683.586 177.795099 
L 689.724 177.57486 
L 684.702 177.367045 
L 664.614 176.949326 
L 661.824 176.769365 
L 689.724 176.563301 
L 683.586 176.366712 
L 670.752 176.158098 
L 679.68 175.969218 
L 676.89 175.765009 
L 694.188 175.582761 
L 681.354 175.187057 
L 690.84 174.992915 
L 672.426 174.799205 
L 691.956 174.620509 
L 681.354 174.446541 
L 689.724 174.253772 
L 687.492 174.081236 
L 689.166 173.895731 
L 668.52 173.706153 
L 692.514 173.533123 
L 690.84 173.338914 
L 686.376 173.151331 
L 687.492 172.982182 
L 681.912 172.821908 
L 690.282 172.659876 
L 676.89 172.462422 
L 700.326 172.279939 
L 704.79 172.12832 
L 683.586 171.952587 
L 694.746 171.769847 
L 700.884 171.411715 
L 692.514 171.258637 
L 698.094 171.099417 
L 698.094 170.934728 
L 697.536 170.767126 
L 703.116 170.61744 
L 685.818 170.445488 
L 709.254 170.138893 
L 712.602 169.968344 
L 705.348 169.801006 
L 705.906 169.628491 
L 704.79 169.469193 
L 701.442 169.328926 
L 691.398 169.186909 
L 717.624 169.027273 
L 711.486 168.740094 
L 710.928 168.599001 
L 715.95 168.433272 
L 702.558 168.284373 
L 704.232 168.132167 
L 718.74 167.829063 
L 704.79 167.552461 
L 705.906 167.409861 
L 720.414 167.271541 
L 706.464 167.139741 
L 708.138 167.003735 
L 725.994 166.879661 
L 727.11 166.728245 
L 696.42 166.43758 
L 720.972 166.290116 
L 723.762 166.153307 
L 709.812 166.035323 
L 712.044 165.894321 
L 700.326 165.748863 
L 705.348 165.625561 
L 728.784 165.355155 
L 728.226 165.220301 
L 720.414 165.09911 
L 729.342 164.96993 
L 730.458 164.841012 
L 725.994 164.714471 
L 717.624 164.588608 
L 727.668 164.331868 
L 724.32 164.207301 
L 708.696 164.076724 
L 734.364 163.962179 
L 704.232 163.836748 
L 721.53 163.716513 
L 720.414 163.600803 
L 734.364 163.498138 
L 724.32 163.119484 
L 739.386 162.873964 
L 728.784 162.770579 
L 732.132 162.650038 
L 722.088 162.422935 
L 739.944 162.070764 
L 720.972 161.731925 
L 725.436 161.621947 
L 734.922 161.50074 
L 729.342 161.400521 
L 737.712 161.29177 
L 724.32 161.184561 
L 738.27 160.841166 
L 734.364 160.737201 
L 751.662 160.325387 
L 737.712 160.208243 
L 738.828 160.110915 
L 753.894 160.012189 
L 734.922 159.904103 
L 736.596 159.799856 
L 744.408 159.708038 
L 736.596 159.597546 
L 747.756 159.387499 
L 739.944 159.285192 
L 752.22 158.967212 
L 747.198 158.865779 
L 750.546 158.661438 
L 740.502 158.456443 
L 748.314 158.352906 
L 741.06 158.162719 
L 752.778 157.963887 
L 755.01 157.867426 
L 740.502 157.656099 
L 760.032 157.574211 
L 739.944 157.474755 
L 749.988 157.387634 
L 743.85 157.3066 
L 749.988 157.199994 
L 749.43 157.104897 
L 750.546 157.011652 
L 749.43 156.904837 
L 754.452 156.816287 
L 751.662 156.718355 
L 752.778 156.637053 
L 756.126 156.539505 
L 747.756 156.442357 
L 764.496 156.347987 
L 752.778 156.25821 
L 758.358 156.177986 
L 751.104 156.097731 
L 767.286 156.007543 
L 748.872 155.915461 
L 758.358 155.836105 
L 748.314 155.661754 
L 763.938 155.485036 
L 756.126 155.3162 
L 763.938 155.237032 
L 756.684 155.068893 
L 766.728 154.975742 
L 753.894 154.801904 
L 760.59 154.719211 
L 752.22 154.629723 
L 768.402 154.371292 
L 757.242 154.290422 
L 771.192 154.216964 
L 755.568 154.143603 
L 757.242 154.054481 
L 747.756 153.968236 
L 763.938 153.805289 
L 759.474 153.71372 
L 763.38 153.618706 
L 757.8 153.539439 
L 773.982 153.463824 
L 772.866 153.397255 
L 758.358 153.234426 
L 756.684 153.158624 
L 763.38 153.087662 
L 752.22 153.006802 
L 767.844 152.920072 
L 757.242 152.839043 
L 758.358 152.753924 
L 771.75 152.670646 
L 768.402 152.590457 
L 752.22 152.442295 
L 776.772 152.380452 
L 754.452 152.299372 
L 768.402 152.162391 
L 755.568 151.99386 
L 771.75 151.853201 
L 767.844 151.762379 
L 767.844 151.762379 
" style="fill:none;stroke:#ff15ff;stroke-linecap:square;stroke-width:5;"/>
   </g>
   <g id="line2d_59">
    <path clip-path="url(#p45abb3072c)" d="M -1 468.898114 
L 59.184 460.156382 
L 56.952 450.703059 
L 215.424 442.6263 
L 195.894 435.701683 
L 244.998 429.65335 
L 286.29 424.1835 
L 283.5 419.249055 
L 320.886 414.771551 
L 316.98 410.638232 
L 319.77 406.77171 
L 351.576 403.238556 
L 362.736 399.913237 
L 371.664 396.773184 
L 390.078 393.784785 
L 400.68 390.974469 
L 414.072 388.327311 
L 419.094 385.802233 
L 411.282 383.404104 
L 421.884 381.106892 
L 440.298 378.924274 
L 421.326 376.835714 
L 429.696 374.827092 
L 457.038 372.900029 
L 444.204 371.032815 
L 453.69 369.239175 
L 457.596 367.500425 
L 454.806 365.82365 
L 477.126 364.203837 
L 476.01 362.635584 
L 486.612 361.11312 
L 460.386 359.638846 
L 486.054 358.202071 
L 499.446 356.823414 
L 503.91 355.468667 
L 494.982 354.155671 
L 516.186 352.885059 
L 527.346 351.643312 
L 510.606 350.427342 
L 525.114 349.24718 
L 504.468 348.084721 
L 501.678 346.95843 
L 524.556 345.861647 
L 519.534 344.792211 
L 536.832 343.748421 
L 527.346 342.719206 
L 546.876 341.716182 
L 535.158 340.728948 
L 546.318 339.766746 
L 551.898 338.819576 
L 555.804 337.893918 
L 545.76 336.981198 
L 545.76 336.086668 
L 559.152 335.217848 
L 546.318 334.364682 
L 541.854 333.527916 
L 553.572 332.701443 
L 555.246 331.891581 
L 568.08 331.089983 
L 576.45 330.305391 
L 547.434 329.530698 
L 558.036 328.779886 
L 557.478 328.038236 
L 578.124 327.314003 
L 549.666 326.595285 
L 589.284 325.893371 
L 583.704 325.198725 
L 584.82 324.514418 
L 595.98 323.840713 
L 582.588 323.172641 
L 586.494 322.520288 
L 573.66 321.871673 
L 597.654 320.617128 
L 583.146 320.005913 
L 596.538 319.395017 
L 615.51 318.797023 
L 591.516 317.624803 
L 594.864 317.050856 
L 601.002 316.488601 
L 584.262 315.932655 
L 593.748 315.382098 
L 605.466 314.841715 
L 612.72 314.310277 
L 622.206 313.78168 
L 605.466 313.262534 
L 614.952 312.746307 
L 619.974 312.240427 
L 589.284 311.736119 
L 619.974 311.241516 
L 611.604 310.754501 
L 610.488 310.268759 
L 614.394 309.792194 
L 612.72 309.319314 
L 629.46 308.852088 
L 632.808 308.390898 
L 617.184 307.935306 
L 614.394 307.480805 
L 639.504 307.036253 
L 624.438 306.594826 
L 633.366 306.159822 
L 633.366 305.727166 
L 636.156 305.301922 
L 631.692 304.88131 
L 636.714 304.461173 
L 622.206 304.047691 
L 627.786 303.638118 
L 624.996 303.233244 
L 636.156 302.830896 
L 643.968 302.431324 
L 633.366 302.034433 
L 644.526 301.645505 
L 646.2 301.257704 
L 632.808 300.873362 
L 650.664 300.493482 
L 652.338 300.1187 
L 653.454 299.747959 
L 656.244 299.379563 
L 647.874 299.014068 
L 647.316 298.653933 
L 652.338 298.295539 
L 651.78 297.940965 
L 647.316 297.590809 
L 645.642 297.244036 
L 671.31 296.900441 
L 678.006 296.561452 
L 672.426 296.223406 
L 669.636 295.889464 
L 651.78 295.556627 
L 666.288 295.228389 
L 659.592 294.903938 
L 668.52 294.58106 
L 665.172 294.259141 
L 647.316 293.936982 
L 676.332 293.619133 
L 661.824 293.30262 
L 663.498 292.992157 
L 673.542 292.681778 
L 679.68 292.375735 
L 648.99 292.069716 
L 683.586 291.77046 
L 689.724 291.471686 
L 684.702 291.173428 
L 664.614 290.586568 
L 661.824 290.295444 
L 689.724 290.006534 
L 683.586 289.719114 
L 670.752 289.433638 
L 679.68 289.152789 
L 676.89 288.871639 
L 694.188 288.592624 
L 685.818 288.316472 
L 681.354 288.042655 
L 690.84 287.769443 
L 672.426 287.496964 
L 691.956 287.225842 
L 681.354 286.955625 
L 689.724 286.689837 
L 687.492 286.425525 
L 689.166 286.161528 
L 668.52 285.900331 
L 692.514 285.641306 
L 690.84 285.382681 
L 686.376 285.127617 
L 687.492 284.874322 
L 681.912 284.621598 
L 690.282 284.370672 
L 676.89 284.11893 
L 700.326 283.870169 
L 704.79 283.623961 
L 683.586 283.379422 
L 694.746 283.136298 
L 700.884 282.653421 
L 692.514 282.414701 
L 698.094 282.17455 
L 698.094 281.93604 
L 697.536 281.699609 
L 703.116 281.463593 
L 685.818 281.228639 
L 712.602 280.543901 
L 705.348 280.318603 
L 705.906 280.094096 
L 704.79 279.869737 
L 701.442 279.646428 
L 691.398 279.425555 
L 717.624 279.206137 
L 711.486 278.770464 
L 710.928 278.553328 
L 715.95 278.337369 
L 702.558 278.122792 
L 704.232 277.910229 
L 718.74 277.485268 
L 708.696 277.275909 
L 704.79 277.066582 
L 705.906 276.859186 
L 720.414 276.651972 
L 706.464 276.445276 
L 708.138 276.239295 
L 725.994 276.035082 
L 727.11 275.831262 
L 696.42 275.425049 
L 720.972 275.223354 
L 723.762 275.02425 
L 709.812 274.825515 
L 712.044 274.628115 
L 700.326 274.431343 
L 705.348 274.234551 
L 722.646 274.03767 
L 728.784 273.841674 
L 728.226 273.647697 
L 720.414 273.453551 
L 729.342 273.260771 
L 730.458 273.069004 
L 725.994 272.878605 
L 717.624 272.688734 
L 727.668 272.31156 
L 724.32 272.124396 
L 708.696 271.937734 
L 734.364 271.751163 
L 704.232 271.565454 
L 721.53 271.381608 
L 720.414 271.197955 
L 734.364 271.015033 
L 727.668 270.651808 
L 724.32 270.471009 
L 739.386 270.111523 
L 728.784 269.933507 
L 732.132 269.756519 
L 722.088 269.404664 
L 731.016 269.229159 
L 733.248 269.054101 
L 739.944 268.880634 
L 725.436 268.534268 
L 720.972 268.362173 
L 725.436 268.190359 
L 734.922 268.020007 
L 729.342 267.851035 
L 737.712 267.682374 
L 724.32 267.514159 
L 738.27 267.011769 
L 734.364 266.845878 
L 751.662 266.186063 
L 737.712 266.023515 
L 738.828 265.860906 
L 753.894 265.69905 
L 734.922 265.538292 
L 736.596 265.378025 
L 744.408 265.218309 
L 736.596 265.058507 
L 747.756 264.897861 
L 747.756 264.738349 
L 739.944 264.580142 
L 752.22 264.106973 
L 747.198 263.950687 
L 750.546 263.794953 
L 750.546 263.639273 
L 740.502 263.328706 
L 748.314 263.175934 
L 741.06 262.871057 
L 751.662 262.718778 
L 752.778 262.566524 
L 755.01 262.414964 
L 740.502 262.113691 
L 760.032 261.963607 
L 739.944 261.81563 
L 749.988 261.66801 
L 743.85 261.520436 
L 749.988 261.373411 
L 749.43 261.226141 
L 750.546 261.079449 
L 749.43 260.933505 
L 754.452 260.788295 
L 751.662 260.643393 
L 752.778 260.499312 
L 756.126 260.355214 
L 747.756 260.211756 
L 764.496 260.068958 
L 752.778 259.926465 
L 758.358 259.784234 
L 751.104 259.642965 
L 767.286 259.502422 
L 748.872 259.362459 
L 758.358 259.222353 
L 748.314 258.942719 
L 763.938 258.803173 
L 763.938 258.664305 
L 756.126 258.525626 
L 756.126 258.387974 
L 763.938 258.250287 
L 756.684 257.976906 
L 766.728 257.841283 
L 762.264 257.705869 
L 753.894 257.570549 
L 760.59 257.435576 
L 752.22 257.30059 
L 763.38 257.032771 
L 768.402 256.89936 
L 757.242 256.766164 
L 771.192 256.633778 
L 755.568 256.502006 
L 757.242 256.370788 
L 747.756 256.240455 
L 763.938 255.979992 
L 759.474 255.850052 
L 763.38 255.720987 
L 757.8 255.591687 
L 773.982 255.462656 
L 772.866 255.334792 
L 759.474 255.207604 
L 756.684 254.952712 
L 763.38 254.825666 
L 752.22 254.699201 
L 767.844 254.572585 
L 757.242 254.446012 
L 758.358 254.319853 
L 771.75 254.194113 
L 768.402 254.069677 
L 752.22 253.821785 
L 776.772 253.698424 
L 754.452 253.574928 
L 768.402 253.327692 
L 755.568 253.082986 
L 771.75 252.839677 
L 767.844 252.718536 
L 767.844 252.718536 
" style="fill:none;stroke:#ffa0f0;stroke-linecap:square;stroke-width:5;"/>
   </g>
   <g id="patch_3">
    <path d="M 144 504 
L 144 69.12 
" style="fill:none;stroke:#000000;stroke-linecap:square;stroke-linejoin:miter;stroke-width:0.8;"/>
   </g>
   <g id="patch_4">
    <path d="M 1036.8 504 
L 1036.8 69.12 
" style="fill:none;stroke:#000000;stroke-linecap:square;stroke-linejoin:miter;stroke-width:0.8;"/>
   </g>
   <g id="patch_5">
    <path d="M 144 504 
L 1036.8 504 
" style="fill:none;stroke:#000000;stroke-linecap:square;stroke-linejoin:miter;stroke-width:0.8;"/>
   </g>
   <g id="patch_6">
    <path d="M 144 69.12 
L 1036.8 69.12 
" style="fill:none;stroke:#000000;stroke-linecap:square;stroke-linejoin:miter;stroke-width:0.8;"/>
   </g>
   <g id="text_17">
    <!-- Gated: Energy vs. Accuracy with 100 Units @ 0.35 -->
    <g transform="translate(136.442813 61.633125)scale(0.36 -0.36)">
     <defs>
      <path d="M 59.515625 10.40625 
L 59.515625 29.984375 
L 43.40625 29.984375 
L 43.40625 38.09375 
L 69.28125 38.09375 
L 69.28125 6.78125 
Q 63.578125 2.734375 56.6875 0.65625 
Q 49.8125 -1.421875 42 -1.421875 
Q 24.90625 -1.421875 15.25 8.5625 
Q 5.609375 18.5625 5.609375 36.375 
Q 5.609375 54.25 15.25 64.234375 
Q 24.90625 74.21875 42 74.21875 
Q 49.125 74.21875 55.546875 72.453125 
Q 61.96875 70.703125 67.390625 67.28125 
L 67.390625 56.78125 
Q 61.921875 61.421875 55.765625 63.765625 
Q 49.609375 66.109375 42.828125 66.109375 
Q 29.4375 66.109375 22.71875 58.640625 
Q 16.015625 51.171875 16.015625 36.375 
Q 16.015625 21.625 22.71875 14.15625 
Q 29.4375 6.6875 42.828125 6.6875 
Q 48.046875 6.6875 52.140625 7.59375 
Q 56.25 8.5 59.515625 10.40625 
z
" id="DejaVuSans-71"/>
      <path d="M 18.3125 70.21875 
L 18.3125 54.6875 
L 36.8125 54.6875 
L 36.8125 47.703125 
L 18.3125 47.703125 
L 18.3125 18.015625 
Q 18.3125 11.328125 20.140625 9.421875 
Q 21.96875 7.515625 27.59375 7.515625 
L 36.8125 7.515625 
L 36.8125 0 
L 27.59375 0 
Q 17.1875 0 13.234375 3.875 
Q 9.28125 7.765625 9.28125 18.015625 
L 9.28125 47.703125 
L 2.6875 47.703125 
L 2.6875 54.6875 
L 9.28125 54.6875 
L 9.28125 70.21875 
z
" id="DejaVuSans-116"/>
      <path d="M 45.40625 46.390625 
L 45.40625 75.984375 
L 54.390625 75.984375 
L 54.390625 0 
L 45.40625 0 
L 45.40625 8.203125 
Q 42.578125 3.328125 38.25 0.953125 
Q 33.9375 -1.421875 27.875 -1.421875 
Q 17.96875 -1.421875 11.734375 6.484375 
Q 5.515625 14.40625 5.515625 27.296875 
Q 5.515625 40.1875 11.734375 48.09375 
Q 17.96875 56 27.875 56 
Q 33.9375 56 38.25 53.625 
Q 42.578125 51.265625 45.40625 46.390625 
z
M 14.796875 27.296875 
Q 14.796875 17.390625 18.875 11.75 
Q 22.953125 6.109375 30.078125 6.109375 
Q 37.203125 6.109375 41.296875 11.75 
Q 45.40625 17.390625 45.40625 27.296875 
Q 45.40625 37.203125 41.296875 42.84375 
Q 37.203125 48.484375 30.078125 48.484375 
Q 22.953125 48.484375 18.875 42.84375 
Q 14.796875 37.203125 14.796875 27.296875 
z
" id="DejaVuSans-100"/>
      <path d="M 11.71875 12.40625 
L 22.015625 12.40625 
L 22.015625 0 
L 11.71875 0 
z
M 11.71875 51.703125 
L 22.015625 51.703125 
L 22.015625 39.3125 
L 11.71875 39.3125 
z
" id="DejaVuSans-58"/>
      <path d="M 2.984375 54.6875 
L 12.5 54.6875 
L 29.59375 8.796875 
L 46.6875 54.6875 
L 56.203125 54.6875 
L 35.6875 0 
L 23.484375 0 
z
" id="DejaVuSans-118"/>
      <path d="M 44.28125 53.078125 
L 44.28125 44.578125 
Q 40.484375 46.53125 36.375 47.5 
Q 32.28125 48.484375 27.875 48.484375 
Q 21.1875 48.484375 17.84375 46.4375 
Q 14.5 44.390625 14.5 40.28125 
Q 14.5 37.15625 16.890625 35.375 
Q 19.28125 33.59375 26.515625 31.984375 
L 29.59375 31.296875 
Q 39.15625 29.25 43.1875 25.515625 
Q 47.21875 21.78125 47.21875 15.09375 
Q 47.21875 7.46875 41.1875 3.015625 
Q 35.15625 -1.421875 24.609375 -1.421875 
Q 20.21875 -1.421875 15.453125 -0.5625 
Q 10.6875 0.296875 5.421875 2 
L 5.421875 11.28125 
Q 10.40625 8.6875 15.234375 7.390625 
Q 20.0625 6.109375 24.8125 6.109375 
Q 31.15625 6.109375 34.5625 8.28125 
Q 37.984375 10.453125 37.984375 14.40625 
Q 37.984375 18.0625 35.515625 20.015625 
Q 33.0625 21.96875 24.703125 23.78125 
L 21.578125 24.515625 
Q 13.234375 26.265625 9.515625 29.90625 
Q 5.8125 33.546875 5.8125 39.890625 
Q 5.8125 47.609375 11.28125 51.796875 
Q 16.75 56 26.8125 56 
Q 31.78125 56 36.171875 55.265625 
Q 40.578125 54.546875 44.28125 53.078125 
z
" id="DejaVuSans-115"/>
      <path d="M 4.203125 54.6875 
L 13.1875 54.6875 
L 24.421875 12.015625 
L 35.59375 54.6875 
L 46.1875 54.6875 
L 57.421875 12.015625 
L 68.609375 54.6875 
L 77.59375 54.6875 
L 63.28125 0 
L 52.6875 0 
L 40.921875 44.828125 
L 29.109375 0 
L 18.5 0 
z
" id="DejaVuSans-119"/>
      <path d="M 9.421875 54.6875 
L 18.40625 54.6875 
L 18.40625 0 
L 9.421875 0 
z
M 9.421875 75.984375 
L 18.40625 75.984375 
L 18.40625 64.59375 
L 9.421875 64.59375 
z
" id="DejaVuSans-105"/>
      <path d="M 54.890625 33.015625 
L 54.890625 0 
L 45.90625 0 
L 45.90625 32.71875 
Q 45.90625 40.484375 42.875 44.328125 
Q 39.84375 48.1875 33.796875 48.1875 
Q 26.515625 48.1875 22.3125 43.546875 
Q 18.109375 38.921875 18.109375 30.90625 
L 18.109375 0 
L 9.078125 0 
L 9.078125 75.984375 
L 18.109375 75.984375 
L 18.109375 46.1875 
Q 21.34375 51.125 25.703125 53.5625 
Q 30.078125 56 35.796875 56 
Q 45.21875 56 50.046875 50.171875 
Q 54.890625 44.34375 54.890625 33.015625 
z
" id="DejaVuSans-104"/>
      <path d="M 37.203125 26.21875 
Q 37.203125 19.234375 40.671875 15.25 
Q 44.140625 11.28125 50.203125 11.28125 
Q 56.203125 11.28125 59.640625 15.28125 
Q 63.09375 19.28125 63.09375 26.21875 
Q 63.09375 33.0625 59.578125 37.078125 
Q 56.0625 41.109375 50.09375 41.109375 
Q 44.1875 41.109375 40.6875 37.109375 
Q 37.203125 33.109375 37.203125 26.21875 
z
M 63.8125 11.625 
Q 60.890625 7.859375 57.109375 6.078125 
Q 53.328125 4.296875 48.296875 4.296875 
Q 39.890625 4.296875 34.640625 10.375 
Q 29.390625 16.453125 29.390625 26.21875 
Q 29.390625 35.984375 34.65625 42.078125 
Q 39.9375 48.1875 48.296875 48.1875 
Q 53.328125 48.1875 57.125 46.359375 
Q 60.9375 44.53125 63.8125 40.828125 
L 63.8125 47.21875 
L 70.796875 47.21875 
L 70.796875 11.28125 
Q 77.9375 12.359375 81.953125 17.796875 
Q 85.984375 23.25 85.984375 31.890625 
Q 85.984375 37.109375 84.4375 41.703125 
Q 82.90625 46.296875 79.78125 50.203125 
Q 74.703125 56.59375 67.40625 59.984375 
Q 60.109375 63.375 51.515625 63.375 
Q 45.515625 63.375 39.984375 61.78125 
Q 34.46875 60.203125 29.78125 57.078125 
Q 22.125 52.09375 17.796875 44.015625 
Q 13.484375 35.9375 13.484375 26.515625 
Q 13.484375 18.75 16.28125 11.953125 
Q 19.09375 5.171875 24.421875 0 
Q 29.546875 -5.078125 36.28125 -7.734375 
Q 43.015625 -10.40625 50.6875 -10.40625 
Q 56.984375 -10.40625 63.0625 -8.28125 
Q 69.140625 -6.15625 74.21875 -2.203125 
L 78.609375 -7.625 
Q 72.515625 -12.359375 65.3125 -14.875 
Q 58.109375 -17.390625 50.6875 -17.390625 
Q 41.65625 -17.390625 33.640625 -14.1875 
Q 25.640625 -10.984375 19.390625 -4.890625 
Q 13.140625 1.21875 9.859375 9.25 
Q 6.59375 17.28125 6.59375 26.515625 
Q 6.59375 35.40625 9.90625 43.453125 
Q 13.234375 51.515625 19.390625 57.625 
Q 25.6875 63.8125 33.9375 67.109375 
Q 42.1875 70.40625 51.421875 70.40625 
Q 61.765625 70.40625 70.625 66.15625 
Q 79.5 61.921875 85.5 54.109375 
Q 89.15625 49.3125 91.078125 43.703125 
Q 93.015625 38.09375 93.015625 32.078125 
Q 93.015625 19.234375 85.25 11.8125 
Q 77.484375 4.390625 63.8125 4.109375 
z
" id="DejaVuSans-64"/>
     </defs>
     <use xlink:href="#DejaVuSans-71"/>
     <use x="77.490234" xlink:href="#DejaVuSans-97"/>
     <use x="138.769531" xlink:href="#DejaVuSans-116"/>
     <use x="177.978516" xlink:href="#DejaVuSans-101"/>
     <use x="239.501953" xlink:href="#DejaVuSans-100"/>
     <use x="302.978516" xlink:href="#DejaVuSans-58"/>
     <use x="336.669922" xlink:href="#DejaVuSans-32"/>
     <use x="368.457031" xlink:href="#DejaVuSans-69"/>
     <use x="431.640625" xlink:href="#DejaVuSans-110"/>
     <use x="495.019531" xlink:href="#DejaVuSans-101"/>
     <use x="556.542969" xlink:href="#DejaVuSans-114"/>
     <use x="595.90625" xlink:href="#DejaVuSans-103"/>
     <use x="659.382812" xlink:href="#DejaVuSans-121"/>
     <use x="718.5625" xlink:href="#DejaVuSans-32"/>
     <use x="750.349609" xlink:href="#DejaVuSans-118"/>
     <use x="809.529297" xlink:href="#DejaVuSans-115"/>
     <use x="861.628906" xlink:href="#DejaVuSans-46"/>
     <use x="893.416016" xlink:href="#DejaVuSans-32"/>
     <use x="925.203125" xlink:href="#DejaVuSans-65"/>
     <use x="991.861328" xlink:href="#DejaVuSans-99"/>
     <use x="1046.841797" xlink:href="#DejaVuSans-99"/>
     <use x="1101.822266" xlink:href="#DejaVuSans-117"/>
     <use x="1165.201172" xlink:href="#DejaVuSans-114"/>
     <use x="1206.314453" xlink:href="#DejaVuSans-97"/>
     <use x="1267.59375" xlink:href="#DejaVuSans-99"/>
     <use x="1322.574219" xlink:href="#DejaVuSans-121"/>
     <use x="1381.753906" xlink:href="#DejaVuSans-32"/>
     <use x="1413.541016" xlink:href="#DejaVuSans-119"/>
     <use x="1495.328125" xlink:href="#DejaVuSans-105"/>
     <use x="1523.111328" xlink:href="#DejaVuSans-116"/>
     <use x="1562.320312" xlink:href="#DejaVuSans-104"/>
     <use x="1625.699219" xlink:href="#DejaVuSans-32"/>
     <use x="1657.486328" xlink:href="#DejaVuSans-49"/>
     <use x="1721.109375" xlink:href="#DejaVuSans-48"/>
     <use x="1784.732422" xlink:href="#DejaVuSans-48"/>
     <use x="1848.355469" xlink:href="#DejaVuSans-32"/>
     <use x="1880.142578" xlink:href="#DejaVuSans-85"/>
     <use x="1953.335938" xlink:href="#DejaVuSans-110"/>
     <use x="2016.714844" xlink:href="#DejaVuSans-105"/>
     <use x="2044.498047" xlink:href="#DejaVuSans-116"/>
     <use x="2083.707031" xlink:href="#DejaVuSans-115"/>
     <use x="2135.806641" xlink:href="#DejaVuSans-32"/>
     <use x="2167.59375" xlink:href="#DejaVuSans-64"/>
     <use x="2267.59375" xlink:href="#DejaVuSans-32"/>
     <use x="2299.380859" xlink:href="#DejaVuSans-48"/>
     <use x="2363.003906" xlink:href="#DejaVuSans-46"/>
     <use x="2394.791016" xlink:href="#DejaVuSans-51"/>
     <use x="2458.414062" xlink:href="#DejaVuSans-53"/>
    </g>
   </g>
   <g id="legend_1">
    <g id="patch_7">
     <path d="M 785.663125 493 
L 1021.4 493 
Q 1025.8 493 1025.8 488.6 
L 1025.8 361.6325 
Q 1025.8 357.2325 1021.4 357.2325 
L 785.663125 357.2325 
Q 781.263125 357.2325 781.263125 361.6325 
L 781.263125 488.6 
Q 781.263125 493 785.663125 493 
z
" style="fill:#ffffff;opacity:0.8;stroke:#cccccc;stroke-linejoin:miter;"/>
    </g>
    <g id="line2d_60">
     <path d="M 790.063125 375.049062 
L 834.063125 375.049062 
" style="fill:none;stroke:#1f1f1f;stroke-linecap:square;stroke-width:5;"/>
    </g>
    <g id="line2d_61"/>
    <g id="text_18">
     <!-- Ungated: 1.0 -->
     <g transform="translate(851.663125 382.749062)scale(0.22 -0.22)">
      <use xlink:href="#DejaVuSans-85"/>
      <use x="73.193359" xlink:href="#DejaVuSans-110"/>
      <use x="136.572266" xlink:href="#DejaVuSans-103"/>
      <use x="200.048828" xlink:href="#DejaVuSans-97"/>
      <use x="261.328125" xlink:href="#DejaVuSans-116"/>
      <use x="300.537109" xlink:href="#DejaVuSans-101"/>
      <use x="362.060547" xlink:href="#DejaVuSans-100"/>
      <use x="425.537109" xlink:href="#DejaVuSans-58"/>
      <use x="459.228516" xlink:href="#DejaVuSans-32"/>
      <use x="491.015625" xlink:href="#DejaVuSans-49"/>
      <use x="554.638672" xlink:href="#DejaVuSans-46"/>
      <use x="586.425781" xlink:href="#DejaVuSans-48"/>
     </g>
    </g>
    <g id="line2d_62">
     <path d="M 790.063125 407.340937 
L 834.063125 407.340937 
" style="fill:none;stroke:#9e9e9e;stroke-linecap:square;stroke-width:5;"/>
    </g>
    <g id="line2d_63"/>
    <g id="text_19">
     <!-- Minimum: 1.0 -->
     <g transform="translate(851.663125 415.040937)scale(0.22 -0.22)">
      <defs>
       <path d="M 9.8125 72.90625 
L 24.515625 72.90625 
L 43.109375 23.296875 
L 61.8125 72.90625 
L 76.515625 72.90625 
L 76.515625 0 
L 66.890625 0 
L 66.890625 64.015625 
L 48.09375 14.015625 
L 38.1875 14.015625 
L 19.390625 64.015625 
L 19.390625 0 
L 9.8125 0 
z
" id="DejaVuSans-77"/>
       <path d="M 52 44.1875 
Q 55.375 50.25 60.0625 53.125 
Q 64.75 56 71.09375 56 
Q 79.640625 56 84.28125 50.015625 
Q 88.921875 44.046875 88.921875 33.015625 
L 88.921875 0 
L 79.890625 0 
L 79.890625 32.71875 
Q 79.890625 40.578125 77.09375 44.375 
Q 74.3125 48.1875 68.609375 48.1875 
Q 61.625 48.1875 57.5625 43.546875 
Q 53.515625 38.921875 53.515625 30.90625 
L 53.515625 0 
L 44.484375 0 
L 44.484375 32.71875 
Q 44.484375 40.625 41.703125 44.40625 
Q 38.921875 48.1875 33.109375 48.1875 
Q 26.21875 48.1875 22.15625 43.53125 
Q 18.109375 38.875 18.109375 30.90625 
L 18.109375 0 
L 9.078125 0 
L 9.078125 54.6875 
L 18.109375 54.6875 
L 18.109375 46.1875 
Q 21.1875 51.21875 25.484375 53.609375 
Q 29.78125 56 35.6875 56 
Q 41.65625 56 45.828125 52.96875 
Q 50 49.953125 52 44.1875 
z
" id="DejaVuSans-109"/>
      </defs>
      <use xlink:href="#DejaVuSans-77"/>
      <use x="86.279297" xlink:href="#DejaVuSans-105"/>
      <use x="114.0625" xlink:href="#DejaVuSans-110"/>
      <use x="177.441406" xlink:href="#DejaVuSans-105"/>
      <use x="205.224609" xlink:href="#DejaVuSans-109"/>
      <use x="302.636719" xlink:href="#DejaVuSans-117"/>
      <use x="366.015625" xlink:href="#DejaVuSans-109"/>
      <use x="463.427734" xlink:href="#DejaVuSans-58"/>
      <use x="497.119141" xlink:href="#DejaVuSans-32"/>
      <use x="528.90625" xlink:href="#DejaVuSans-49"/>
      <use x="592.529297" xlink:href="#DejaVuSans-46"/>
      <use x="624.316406" xlink:href="#DejaVuSans-48"/>
     </g>
    </g>
    <g id="line2d_64">
     <path d="M 790.063125 439.632812 
L 834.063125 439.632812 
" style="fill:none;stroke:#ff15ff;stroke-linecap:square;stroke-width:5;"/>
    </g>
    <g id="line2d_65"/>
    <g id="text_20">
     <!-- Gated: 0.35 -->
     <g transform="translate(851.663125 447.332812)scale(0.22 -0.22)">
      <use xlink:href="#DejaVuSans-71"/>
      <use x="77.490234" xlink:href="#DejaVuSans-97"/>
      <use x="138.769531" xlink:href="#DejaVuSans-116"/>
      <use x="177.978516" xlink:href="#DejaVuSans-101"/>
      <use x="239.501953" xlink:href="#DejaVuSans-100"/>
      <use x="302.978516" xlink:href="#DejaVuSans-58"/>
      <use x="336.669922" xlink:href="#DejaVuSans-32"/>
      <use x="368.457031" xlink:href="#DejaVuSans-48"/>
      <use x="432.080078" xlink:href="#DejaVuSans-46"/>
      <use x="463.867188" xlink:href="#DejaVuSans-51"/>
      <use x="527.490234" xlink:href="#DejaVuSans-53"/>
     </g>
    </g>
    <g id="line2d_66">
     <path d="M 790.063125 471.924688 
L 834.063125 471.924688 
" style="fill:none;stroke:#ffa0f0;stroke-linecap:square;stroke-width:5;"/>
    </g>
    <g id="line2d_67"/>
    <g id="text_21">
     <!-- Minimum: 0.35 -->
     <g transform="translate(851.663125 479.624687)scale(0.22 -0.22)">
      <use xlink:href="#DejaVuSans-77"/>
      <use x="86.279297" xlink:href="#DejaVuSans-105"/>
      <use x="114.0625" xlink:href="#DejaVuSans-110"/>
      <use x="177.441406" xlink:href="#DejaVuSans-105"/>
      <use x="205.224609" xlink:href="#DejaVuSans-109"/>
      <use x="302.636719" xlink:href="#DejaVuSans-117"/>
      <use x="366.015625" xlink:href="#DejaVuSans-109"/>
      <use x="463.427734" xlink:href="#DejaVuSans-58"/>
      <use x="497.119141" xlink:href="#DejaVuSans-32"/>
      <use x="528.90625" xlink:href="#DejaVuSans-48"/>
      <use x="592.529297" xlink:href="#DejaVuSans-46"/>
      <use x="624.316406" xlink:href="#DejaVuSans-51"/>
      <use x="687.939453" xlink:href="#DejaVuSans-53"/>
     </g>
    </g>
   </g>
  </g>
 </g>
 <defs>
  <clipPath id="p45abb3072c">
   <rect height="434.88" width="892.8" x="144" y="69.12"/>
  </clipPath>
 </defs>
</svg>
