<?xml version="1.0" encoding="utf-8" standalone="no"?>
<!DOCTYPE svg PUBLIC "-//W3C//DTD SVG 1.1//EN"
  "http://www.w3.org/Graphics/SVG/1.1/DTD/svg11.dtd">
<!-- Created with matplotlib (https://matplotlib.org/) -->
<svg height="576pt" version="1.1" viewBox="0 0 1152 576" width="1152pt" xmlns="http://www.w3.org/2000/svg" xmlns:xlink="http://www.w3.org/1999/xlink">
 <metadata>
  <rdf:RDF xmlns:cc="http://creativecommons.org/ns#" xmlns:dc="http://purl.org/dc/elements/1.1/" xmlns:rdf="http://www.w3.org/1999/02/22-rdf-syntax-ns#">
   <cc:Work>
    <dc:type rdf:resource="http://purl.org/dc/dcmitype/StillImage"/>
    <dc:date>2021-09-12T15:18:30.503586</dc:date>
    <dc:format>image/svg+xml</dc:format>
    <dc:creator>
     <cc:Agent>
      <dc:title>Matplotlib v3.3.4, https://matplotlib.org/</dc:title>
     </cc:Agent>
    </dc:creator>
   </cc:Work>
  </rdf:RDF>
 </metadata>
 <defs>
  <style type="text/css">*{stroke-linecap:butt;stroke-linejoin:round;}</style>
 </defs>
 <g id="figure_1">
  <g id="patch_1">
   <path d="M 0 576 
L 1152 576 
L 1152 0 
L 0 0 
z
" style="fill:#ffffff;"/>
  </g>
  <g id="axes_1">
   <g id="patch_2">
    <path d="M 144 504 
L 1036.8 504 
L 1036.8 69.12 
L 144 69.12 
z
" style="fill:#ffffff;"/>
   </g>
   <g id="matplotlib.axis_1">
    <g id="xtick_1">
     <g id="line2d_1">
      <defs>
       <path d="M 0 0 
L 0 3.5 
" id="m4997d89851" style="stroke:#000000;stroke-width:0.8;"/>
      </defs>
      <g>
       <use style="stroke:#000000;stroke-width:0.8;" x="144" xlink:href="#m4997d89851" y="504"/>
      </g>
     </g>
     <g id="text_1">
      <!-- 84 -->
      <g transform="translate(128.73 529.23625)scale(0.24 -0.24)">
       <defs>
        <path d="M 31.78125 34.625 
Q 24.75 34.625 20.71875 30.859375 
Q 16.703125 27.09375 16.703125 20.515625 
Q 16.703125 13.921875 20.71875 10.15625 
Q 24.75 6.390625 31.78125 6.390625 
Q 38.8125 6.390625 42.859375 10.171875 
Q 46.921875 13.96875 46.921875 20.515625 
Q 46.921875 27.09375 42.890625 30.859375 
Q 38.875 34.625 31.78125 34.625 
z
M 21.921875 38.8125 
Q 15.578125 40.375 12.03125 44.71875 
Q 8.5 49.078125 8.5 55.328125 
Q 8.5 64.0625 14.71875 69.140625 
Q 20.953125 74.21875 31.78125 74.21875 
Q 42.671875 74.21875 48.875 69.140625 
Q 55.078125 64.0625 55.078125 55.328125 
Q 55.078125 49.078125 51.53125 44.71875 
Q 48 40.375 41.703125 38.8125 
Q 48.828125 37.15625 52.796875 32.3125 
Q 56.78125 27.484375 56.78125 20.515625 
Q 56.78125 9.90625 50.3125 4.234375 
Q 43.84375 -1.421875 31.78125 -1.421875 
Q 19.734375 -1.421875 13.25 4.234375 
Q 6.78125 9.90625 6.78125 20.515625 
Q 6.78125 27.484375 10.78125 32.3125 
Q 14.796875 37.15625 21.921875 38.8125 
z
M 18.3125 54.390625 
Q 18.3125 48.734375 21.84375 45.5625 
Q 25.390625 42.390625 31.78125 42.390625 
Q 38.140625 42.390625 41.71875 45.5625 
Q 45.3125 48.734375 45.3125 54.390625 
Q 45.3125 60.0625 41.71875 63.234375 
Q 38.140625 66.40625 31.78125 66.40625 
Q 25.390625 66.40625 21.84375 63.234375 
Q 18.3125 60.0625 18.3125 54.390625 
z
" id="DejaVuSans-56"/>
        <path d="M 37.796875 64.3125 
L 12.890625 25.390625 
L 37.796875 25.390625 
z
M 35.203125 72.90625 
L 47.609375 72.90625 
L 47.609375 25.390625 
L 58.015625 25.390625 
L 58.015625 17.1875 
L 47.609375 17.1875 
L 47.609375 0 
L 37.796875 0 
L 37.796875 17.1875 
L 4.890625 17.1875 
L 4.890625 26.703125 
z
" id="DejaVuSans-52"/>
       </defs>
       <use xlink:href="#DejaVuSans-56"/>
       <use x="63.623047" xlink:href="#DejaVuSans-52"/>
      </g>
     </g>
    </g>
    <g id="xtick_2">
     <g id="line2d_2">
      <g>
       <use style="stroke:#000000;stroke-width:0.8;" x="255.6" xlink:href="#m4997d89851" y="504"/>
      </g>
     </g>
     <g id="text_2">
      <!-- 86 -->
      <g transform="translate(240.33 529.23625)scale(0.24 -0.24)">
       <defs>
        <path d="M 33.015625 40.375 
Q 26.375 40.375 22.484375 35.828125 
Q 18.609375 31.296875 18.609375 23.390625 
Q 18.609375 15.53125 22.484375 10.953125 
Q 26.375 6.390625 33.015625 6.390625 
Q 39.65625 6.390625 43.53125 10.953125 
Q 47.40625 15.53125 47.40625 23.390625 
Q 47.40625 31.296875 43.53125 35.828125 
Q 39.65625 40.375 33.015625 40.375 
z
M 52.59375 71.296875 
L 52.59375 62.3125 
Q 48.875 64.0625 45.09375 64.984375 
Q 41.3125 65.921875 37.59375 65.921875 
Q 27.828125 65.921875 22.671875 59.328125 
Q 17.53125 52.734375 16.796875 39.40625 
Q 19.671875 43.65625 24.015625 45.921875 
Q 28.375 48.1875 33.59375 48.1875 
Q 44.578125 48.1875 50.953125 41.515625 
Q 57.328125 34.859375 57.328125 23.390625 
Q 57.328125 12.15625 50.6875 5.359375 
Q 44.046875 -1.421875 33.015625 -1.421875 
Q 20.359375 -1.421875 13.671875 8.265625 
Q 6.984375 17.96875 6.984375 36.375 
Q 6.984375 53.65625 15.1875 63.9375 
Q 23.390625 74.21875 37.203125 74.21875 
Q 40.921875 74.21875 44.703125 73.484375 
Q 48.484375 72.75 52.59375 71.296875 
z
" id="DejaVuSans-54"/>
       </defs>
       <use xlink:href="#DejaVuSans-56"/>
       <use x="63.623047" xlink:href="#DejaVuSans-54"/>
      </g>
     </g>
    </g>
    <g id="xtick_3">
     <g id="line2d_3">
      <g>
       <use style="stroke:#000000;stroke-width:0.8;" x="367.2" xlink:href="#m4997d89851" y="504"/>
      </g>
     </g>
     <g id="text_3">
      <!-- 88 -->
      <g transform="translate(351.93 529.23625)scale(0.24 -0.24)">
       <use xlink:href="#DejaVuSans-56"/>
       <use x="63.623047" xlink:href="#DejaVuSans-56"/>
      </g>
     </g>
    </g>
    <g id="xtick_4">
     <g id="line2d_4">
      <g>
       <use style="stroke:#000000;stroke-width:0.8;" x="478.8" xlink:href="#m4997d89851" y="504"/>
      </g>
     </g>
     <g id="text_4">
      <!-- 90 -->
      <g transform="translate(463.53 529.23625)scale(0.24 -0.24)">
       <defs>
        <path d="M 10.984375 1.515625 
L 10.984375 10.5 
Q 14.703125 8.734375 18.5 7.8125 
Q 22.3125 6.890625 25.984375 6.890625 
Q 35.75 6.890625 40.890625 13.453125 
Q 46.046875 20.015625 46.78125 33.40625 
Q 43.953125 29.203125 39.59375 26.953125 
Q 35.25 24.703125 29.984375 24.703125 
Q 19.046875 24.703125 12.671875 31.3125 
Q 6.296875 37.9375 6.296875 49.421875 
Q 6.296875 60.640625 12.9375 67.421875 
Q 19.578125 74.21875 30.609375 74.21875 
Q 43.265625 74.21875 49.921875 64.515625 
Q 56.59375 54.828125 56.59375 36.375 
Q 56.59375 19.140625 48.40625 8.859375 
Q 40.234375 -1.421875 26.421875 -1.421875 
Q 22.703125 -1.421875 18.890625 -0.6875 
Q 15.09375 0.046875 10.984375 1.515625 
z
M 30.609375 32.421875 
Q 37.25 32.421875 41.125 36.953125 
Q 45.015625 41.5 45.015625 49.421875 
Q 45.015625 57.28125 41.125 61.84375 
Q 37.25 66.40625 30.609375 66.40625 
Q 23.96875 66.40625 20.09375 61.84375 
Q 16.21875 57.28125 16.21875 49.421875 
Q 16.21875 41.5 20.09375 36.953125 
Q 23.96875 32.421875 30.609375 32.421875 
z
" id="DejaVuSans-57"/>
        <path d="M 31.78125 66.40625 
Q 24.171875 66.40625 20.328125 58.90625 
Q 16.5 51.421875 16.5 36.375 
Q 16.5 21.390625 20.328125 13.890625 
Q 24.171875 6.390625 31.78125 6.390625 
Q 39.453125 6.390625 43.28125 13.890625 
Q 47.125 21.390625 47.125 36.375 
Q 47.125 51.421875 43.28125 58.90625 
Q 39.453125 66.40625 31.78125 66.40625 
z
M 31.78125 74.21875 
Q 44.046875 74.21875 50.515625 64.515625 
Q 56.984375 54.828125 56.984375 36.375 
Q 56.984375 17.96875 50.515625 8.265625 
Q 44.046875 -1.421875 31.78125 -1.421875 
Q 19.53125 -1.421875 13.0625 8.265625 
Q 6.59375 17.96875 6.59375 36.375 
Q 6.59375 54.828125 13.0625 64.515625 
Q 19.53125 74.21875 31.78125 74.21875 
z
" id="DejaVuSans-48"/>
       </defs>
       <use xlink:href="#DejaVuSans-57"/>
       <use x="63.623047" xlink:href="#DejaVuSans-48"/>
      </g>
     </g>
    </g>
    <g id="xtick_5">
     <g id="line2d_5">
      <g>
       <use style="stroke:#000000;stroke-width:0.8;" x="590.4" xlink:href="#m4997d89851" y="504"/>
      </g>
     </g>
     <g id="text_5">
      <!-- 92 -->
      <g transform="translate(575.13 529.23625)scale(0.24 -0.24)">
       <defs>
        <path d="M 19.1875 8.296875 
L 53.609375 8.296875 
L 53.609375 0 
L 7.328125 0 
L 7.328125 8.296875 
Q 12.9375 14.109375 22.625 23.890625 
Q 32.328125 33.6875 34.8125 36.53125 
Q 39.546875 41.84375 41.421875 45.53125 
Q 43.3125 49.21875 43.3125 52.78125 
Q 43.3125 58.59375 39.234375 62.25 
Q 35.15625 65.921875 28.609375 65.921875 
Q 23.96875 65.921875 18.8125 64.3125 
Q 13.671875 62.703125 7.8125 59.421875 
L 7.8125 69.390625 
Q 13.765625 71.78125 18.9375 73 
Q 24.125 74.21875 28.421875 74.21875 
Q 39.75 74.21875 46.484375 68.546875 
Q 53.21875 62.890625 53.21875 53.421875 
Q 53.21875 48.921875 51.53125 44.890625 
Q 49.859375 40.875 45.40625 35.40625 
Q 44.1875 33.984375 37.640625 27.21875 
Q 31.109375 20.453125 19.1875 8.296875 
z
" id="DejaVuSans-50"/>
       </defs>
       <use xlink:href="#DejaVuSans-57"/>
       <use x="63.623047" xlink:href="#DejaVuSans-50"/>
      </g>
     </g>
    </g>
    <g id="xtick_6">
     <g id="line2d_6">
      <g>
       <use style="stroke:#000000;stroke-width:0.8;" x="702" xlink:href="#m4997d89851" y="504"/>
      </g>
     </g>
     <g id="text_6">
      <!-- 94 -->
      <g transform="translate(686.73 529.23625)scale(0.24 -0.24)">
       <use xlink:href="#DejaVuSans-57"/>
       <use x="63.623047" xlink:href="#DejaVuSans-52"/>
      </g>
     </g>
    </g>
    <g id="xtick_7">
     <g id="line2d_7">
      <g>
       <use style="stroke:#000000;stroke-width:0.8;" x="813.6" xlink:href="#m4997d89851" y="504"/>
      </g>
     </g>
     <g id="text_7">
      <!-- 96 -->
      <g transform="translate(798.33 529.23625)scale(0.24 -0.24)">
       <use xlink:href="#DejaVuSans-57"/>
       <use x="63.623047" xlink:href="#DejaVuSans-54"/>
      </g>
     </g>
    </g>
    <g id="xtick_8">
     <g id="line2d_8">
      <g>
       <use style="stroke:#000000;stroke-width:0.8;" x="925.2" xlink:href="#m4997d89851" y="504"/>
      </g>
     </g>
     <g id="text_8">
      <!-- 98 -->
      <g transform="translate(909.93 529.23625)scale(0.24 -0.24)">
       <use xlink:href="#DejaVuSans-57"/>
       <use x="63.623047" xlink:href="#DejaVuSans-56"/>
      </g>
     </g>
    </g>
    <g id="xtick_9">
     <g id="line2d_9">
      <g>
       <use style="stroke:#000000;stroke-width:0.8;" x="1036.8" xlink:href="#m4997d89851" y="504"/>
      </g>
     </g>
     <g id="text_9">
      <!-- 100 -->
      <g transform="translate(1013.895 529.23625)scale(0.24 -0.24)">
       <defs>
        <path d="M 12.40625 8.296875 
L 28.515625 8.296875 
L 28.515625 63.921875 
L 10.984375 60.40625 
L 10.984375 69.390625 
L 28.421875 72.90625 
L 38.28125 72.90625 
L 38.28125 8.296875 
L 54.390625 8.296875 
L 54.390625 0 
L 12.40625 0 
z
" id="DejaVuSans-49"/>
       </defs>
       <use xlink:href="#DejaVuSans-49"/>
       <use x="63.623047" xlink:href="#DejaVuSans-48"/>
       <use x="127.246094" xlink:href="#DejaVuSans-48"/>
      </g>
     </g>
    </g>
    <g id="text_10">
     <!-- Accuracy /% -->
     <g transform="translate(504.013437 559.503125)scale(0.28 -0.28)">
      <defs>
       <path d="M 34.1875 63.1875 
L 20.796875 26.90625 
L 47.609375 26.90625 
z
M 28.609375 72.90625 
L 39.796875 72.90625 
L 67.578125 0 
L 57.328125 0 
L 50.6875 18.703125 
L 17.828125 18.703125 
L 11.1875 0 
L 0.78125 0 
z
" id="DejaVuSans-65"/>
       <path d="M 48.78125 52.59375 
L 48.78125 44.1875 
Q 44.96875 46.296875 41.140625 47.34375 
Q 37.3125 48.390625 33.40625 48.390625 
Q 24.65625 48.390625 19.8125 42.84375 
Q 14.984375 37.3125 14.984375 27.296875 
Q 14.984375 17.28125 19.8125 11.734375 
Q 24.65625 6.203125 33.40625 6.203125 
Q 37.3125 6.203125 41.140625 7.25 
Q 44.96875 8.296875 48.78125 10.40625 
L 48.78125 2.09375 
Q 45.015625 0.34375 40.984375 -0.53125 
Q 36.96875 -1.421875 32.421875 -1.421875 
Q 20.0625 -1.421875 12.78125 6.34375 
Q 5.515625 14.109375 5.515625 27.296875 
Q 5.515625 40.671875 12.859375 48.328125 
Q 20.21875 56 33.015625 56 
Q 37.15625 56 41.109375 55.140625 
Q 45.0625 54.296875 48.78125 52.59375 
z
" id="DejaVuSans-99"/>
       <path d="M 8.5 21.578125 
L 8.5 54.6875 
L 17.484375 54.6875 
L 17.484375 21.921875 
Q 17.484375 14.15625 20.5 10.265625 
Q 23.53125 6.390625 29.59375 6.390625 
Q 36.859375 6.390625 41.078125 11.03125 
Q 45.3125 15.671875 45.3125 23.6875 
L 45.3125 54.6875 
L 54.296875 54.6875 
L 54.296875 0 
L 45.3125 0 
L 45.3125 8.40625 
Q 42.046875 3.421875 37.71875 1 
Q 33.40625 -1.421875 27.6875 -1.421875 
Q 18.265625 -1.421875 13.375 4.4375 
Q 8.5 10.296875 8.5 21.578125 
z
M 31.109375 56 
z
" id="DejaVuSans-117"/>
       <path d="M 41.109375 46.296875 
Q 39.59375 47.171875 37.8125 47.578125 
Q 36.03125 48 33.890625 48 
Q 26.265625 48 22.1875 43.046875 
Q 18.109375 38.09375 18.109375 28.8125 
L 18.109375 0 
L 9.078125 0 
L 9.078125 54.6875 
L 18.109375 54.6875 
L 18.109375 46.1875 
Q 20.953125 51.171875 25.484375 53.578125 
Q 30.03125 56 36.53125 56 
Q 37.453125 56 38.578125 55.875 
Q 39.703125 55.765625 41.0625 55.515625 
z
" id="DejaVuSans-114"/>
       <path d="M 34.28125 27.484375 
Q 23.390625 27.484375 19.1875 25 
Q 14.984375 22.515625 14.984375 16.5 
Q 14.984375 11.71875 18.140625 8.90625 
Q 21.296875 6.109375 26.703125 6.109375 
Q 34.1875 6.109375 38.703125 11.40625 
Q 43.21875 16.703125 43.21875 25.484375 
L 43.21875 27.484375 
z
M 52.203125 31.203125 
L 52.203125 0 
L 43.21875 0 
L 43.21875 8.296875 
Q 40.140625 3.328125 35.546875 0.953125 
Q 30.953125 -1.421875 24.3125 -1.421875 
Q 15.921875 -1.421875 10.953125 3.296875 
Q 6 8.015625 6 15.921875 
Q 6 25.140625 12.171875 29.828125 
Q 18.359375 34.515625 30.609375 34.515625 
L 43.21875 34.515625 
L 43.21875 35.40625 
Q 43.21875 41.609375 39.140625 45 
Q 35.0625 48.390625 27.6875 48.390625 
Q 23 48.390625 18.546875 47.265625 
Q 14.109375 46.140625 10.015625 43.890625 
L 10.015625 52.203125 
Q 14.9375 54.109375 19.578125 55.046875 
Q 24.21875 56 28.609375 56 
Q 40.484375 56 46.34375 49.84375 
Q 52.203125 43.703125 52.203125 31.203125 
z
" id="DejaVuSans-97"/>
       <path d="M 32.171875 -5.078125 
Q 28.375 -14.84375 24.75 -17.8125 
Q 21.140625 -20.796875 15.09375 -20.796875 
L 7.90625 -20.796875 
L 7.90625 -13.28125 
L 13.1875 -13.28125 
Q 16.890625 -13.28125 18.9375 -11.515625 
Q 21 -9.765625 23.484375 -3.21875 
L 25.09375 0.875 
L 2.984375 54.6875 
L 12.5 54.6875 
L 29.59375 11.921875 
L 46.6875 54.6875 
L 56.203125 54.6875 
z
" id="DejaVuSans-121"/>
       <path id="DejaVuSans-32"/>
       <path d="M 25.390625 72.90625 
L 33.6875 72.90625 
L 8.296875 -9.28125 
L 0 -9.28125 
z
" id="DejaVuSans-47"/>
       <path d="M 72.703125 32.078125 
Q 68.453125 32.078125 66.03125 28.46875 
Q 63.625 24.859375 63.625 18.40625 
Q 63.625 12.0625 66.03125 8.421875 
Q 68.453125 4.78125 72.703125 4.78125 
Q 76.859375 4.78125 79.265625 8.421875 
Q 81.6875 12.0625 81.6875 18.40625 
Q 81.6875 24.8125 79.265625 28.4375 
Q 76.859375 32.078125 72.703125 32.078125 
z
M 72.703125 38.28125 
Q 80.421875 38.28125 84.953125 32.90625 
Q 89.5 27.546875 89.5 18.40625 
Q 89.5 9.28125 84.9375 3.921875 
Q 80.375 -1.421875 72.703125 -1.421875 
Q 64.890625 -1.421875 60.34375 3.921875 
Q 55.8125 9.28125 55.8125 18.40625 
Q 55.8125 27.59375 60.375 32.9375 
Q 64.9375 38.28125 72.703125 38.28125 
z
M 22.3125 68.015625 
Q 18.109375 68.015625 15.6875 64.375 
Q 13.28125 60.75 13.28125 54.390625 
Q 13.28125 47.953125 15.671875 44.328125 
Q 18.0625 40.71875 22.3125 40.71875 
Q 26.5625 40.71875 28.96875 44.328125 
Q 31.390625 47.953125 31.390625 54.390625 
Q 31.390625 60.6875 28.953125 64.34375 
Q 26.515625 68.015625 22.3125 68.015625 
z
M 66.40625 74.21875 
L 74.21875 74.21875 
L 28.609375 -1.421875 
L 20.796875 -1.421875 
z
M 22.3125 74.21875 
Q 30.03125 74.21875 34.609375 68.875 
Q 39.203125 63.53125 39.203125 54.390625 
Q 39.203125 45.171875 34.640625 39.84375 
Q 30.078125 34.515625 22.3125 34.515625 
Q 14.546875 34.515625 10.03125 39.859375 
Q 5.515625 45.21875 5.515625 54.390625 
Q 5.515625 63.484375 10.046875 68.84375 
Q 14.59375 74.21875 22.3125 74.21875 
z
" id="DejaVuSans-37"/>
      </defs>
      <use xlink:href="#DejaVuSans-65"/>
      <use x="66.658203" xlink:href="#DejaVuSans-99"/>
      <use x="121.638672" xlink:href="#DejaVuSans-99"/>
      <use x="176.619141" xlink:href="#DejaVuSans-117"/>
      <use x="239.998047" xlink:href="#DejaVuSans-114"/>
      <use x="281.111328" xlink:href="#DejaVuSans-97"/>
      <use x="342.390625" xlink:href="#DejaVuSans-99"/>
      <use x="397.371094" xlink:href="#DejaVuSans-121"/>
      <use x="456.550781" xlink:href="#DejaVuSans-32"/>
      <use x="488.337891" xlink:href="#DejaVuSans-47"/>
      <use x="522.029297" xlink:href="#DejaVuSans-37"/>
     </g>
    </g>
   </g>
   <g id="matplotlib.axis_2">
    <g id="ytick_1">
     <g id="line2d_10">
      <defs>
       <path d="M 0 0 
L -3.5 0 
" id="mad8a415471" style="stroke:#000000;stroke-width:0.8;"/>
      </defs>
      <g>
       <use style="stroke:#000000;stroke-width:0.8;" x="144" xlink:href="#mad8a415471" y="444.362283"/>
      </g>
     </g>
     <g id="text_11">
      <!-- $\mathdefault{10^{1}}$ -->
      <g transform="translate(94.76 453.480408)scale(0.24 -0.24)">
       <use transform="translate(0 0.684375)" xlink:href="#DejaVuSans-49"/>
       <use transform="translate(63.623047 0.684375)" xlink:href="#DejaVuSans-48"/>
       <use transform="translate(128.203125 38.965625)scale(0.7)" xlink:href="#DejaVuSans-49"/>
      </g>
     </g>
    </g>
    <g id="ytick_2">
     <g id="line2d_11">
      <g>
       <use style="stroke:#000000;stroke-width:0.8;" x="144" xlink:href="#mad8a415471" y="359.04"/>
      </g>
     </g>
     <g id="text_12">
      <!-- $\mathdefault{10^{2}}$ -->
      <g transform="translate(94.76 368.158125)scale(0.24 -0.24)">
       <use transform="translate(0 0.765625)" xlink:href="#DejaVuSans-49"/>
       <use transform="translate(63.623047 0.765625)" xlink:href="#DejaVuSans-48"/>
       <use transform="translate(128.203125 39.046875)scale(0.7)" xlink:href="#DejaVuSans-50"/>
      </g>
     </g>
    </g>
    <g id="ytick_3">
     <g id="line2d_12">
      <g>
       <use style="stroke:#000000;stroke-width:0.8;" x="144" xlink:href="#mad8a415471" y="273.717717"/>
      </g>
     </g>
     <g id="text_13">
      <!-- $\mathdefault{10^{3}}$ -->
      <g transform="translate(94.76 282.835842)scale(0.24 -0.24)">
       <defs>
        <path d="M 40.578125 39.3125 
Q 47.65625 37.796875 51.625 33 
Q 55.609375 28.21875 55.609375 21.1875 
Q 55.609375 10.40625 48.1875 4.484375 
Q 40.765625 -1.421875 27.09375 -1.421875 
Q 22.515625 -1.421875 17.65625 -0.515625 
Q 12.796875 0.390625 7.625 2.203125 
L 7.625 11.71875 
Q 11.71875 9.328125 16.59375 8.109375 
Q 21.484375 6.890625 26.8125 6.890625 
Q 36.078125 6.890625 40.9375 10.546875 
Q 45.796875 14.203125 45.796875 21.1875 
Q 45.796875 27.640625 41.28125 31.265625 
Q 36.765625 34.90625 28.71875 34.90625 
L 20.21875 34.90625 
L 20.21875 43.015625 
L 29.109375 43.015625 
Q 36.375 43.015625 40.234375 45.921875 
Q 44.09375 48.828125 44.09375 54.296875 
Q 44.09375 59.90625 40.109375 62.90625 
Q 36.140625 65.921875 28.71875 65.921875 
Q 24.65625 65.921875 20.015625 65.03125 
Q 15.375 64.15625 9.8125 62.3125 
L 9.8125 71.09375 
Q 15.4375 72.65625 20.34375 73.4375 
Q 25.25 74.21875 29.59375 74.21875 
Q 40.828125 74.21875 47.359375 69.109375 
Q 53.90625 64.015625 53.90625 55.328125 
Q 53.90625 49.265625 50.4375 45.09375 
Q 46.96875 40.921875 40.578125 39.3125 
z
" id="DejaVuSans-51"/>
       </defs>
       <use transform="translate(0 0.765625)" xlink:href="#DejaVuSans-49"/>
       <use transform="translate(63.623047 0.765625)" xlink:href="#DejaVuSans-48"/>
       <use transform="translate(128.203125 39.046875)scale(0.7)" xlink:href="#DejaVuSans-51"/>
      </g>
     </g>
    </g>
    <g id="ytick_4">
     <g id="line2d_13">
      <g>
       <use style="stroke:#000000;stroke-width:0.8;" x="144" xlink:href="#mad8a415471" y="188.395433"/>
      </g>
     </g>
     <g id="text_14">
      <!-- $\mathdefault{10^{4}}$ -->
      <g transform="translate(94.76 197.513558)scale(0.24 -0.24)">
       <use transform="translate(0 0.684375)" xlink:href="#DejaVuSans-49"/>
       <use transform="translate(63.623047 0.684375)" xlink:href="#DejaVuSans-48"/>
       <use transform="translate(128.203125 38.965625)scale(0.7)" xlink:href="#DejaVuSans-52"/>
      </g>
     </g>
    </g>
    <g id="ytick_5">
     <g id="line2d_14">
      <g>
       <use style="stroke:#000000;stroke-width:0.8;" x="144" xlink:href="#mad8a415471" y="103.07315"/>
      </g>
     </g>
     <g id="text_15">
      <!-- $\mathdefault{10^{5}}$ -->
      <g transform="translate(94.76 112.191275)scale(0.24 -0.24)">
       <defs>
        <path d="M 10.796875 72.90625 
L 49.515625 72.90625 
L 49.515625 64.59375 
L 19.828125 64.59375 
L 19.828125 46.734375 
Q 21.96875 47.46875 24.109375 47.828125 
Q 26.265625 48.1875 28.421875 48.1875 
Q 40.625 48.1875 47.75 41.5 
Q 54.890625 34.8125 54.890625 23.390625 
Q 54.890625 11.625 47.5625 5.09375 
Q 40.234375 -1.421875 26.90625 -1.421875 
Q 22.3125 -1.421875 17.546875 -0.640625 
Q 12.796875 0.140625 7.71875 1.703125 
L 7.71875 11.625 
Q 12.109375 9.234375 16.796875 8.0625 
Q 21.484375 6.890625 26.703125 6.890625 
Q 35.15625 6.890625 40.078125 11.328125 
Q 45.015625 15.765625 45.015625 23.390625 
Q 45.015625 31 40.078125 35.4375 
Q 35.15625 39.890625 26.703125 39.890625 
Q 22.75 39.890625 18.8125 39.015625 
Q 14.890625 38.140625 10.796875 36.28125 
z
" id="DejaVuSans-53"/>
       </defs>
       <use transform="translate(0 0.684375)" xlink:href="#DejaVuSans-49"/>
       <use transform="translate(63.623047 0.684375)" xlink:href="#DejaVuSans-48"/>
       <use transform="translate(128.203125 38.965625)scale(0.7)" xlink:href="#DejaVuSans-53"/>
      </g>
     </g>
    </g>
    <g id="ytick_6">
     <g id="line2d_15">
      <defs>
       <path d="M 0 0 
L -2 0 
" id="m5ea6bb1220" style="stroke:#000000;stroke-width:0.6;"/>
      </defs>
      <g>
       <use style="stroke:#000000;stroke-width:0.6;" x="144" xlink:href="#m5ea6bb1220" y="504"/>
      </g>
     </g>
    </g>
    <g id="ytick_7">
     <g id="line2d_16">
      <g>
       <use style="stroke:#000000;stroke-width:0.6;" x="144" xlink:href="#m5ea6bb1220" y="488.975492"/>
      </g>
     </g>
    </g>
    <g id="ytick_8">
     <g id="line2d_17">
      <g>
       <use style="stroke:#000000;stroke-width:0.6;" x="144" xlink:href="#m5ea6bb1220" y="478.315433"/>
      </g>
     </g>
    </g>
    <g id="ytick_9">
     <g id="line2d_18">
      <g>
       <use style="stroke:#000000;stroke-width:0.6;" x="144" xlink:href="#m5ea6bb1220" y="470.04685"/>
      </g>
     </g>
    </g>
    <g id="ytick_10">
     <g id="line2d_19">
      <g>
       <use style="stroke:#000000;stroke-width:0.6;" x="144" xlink:href="#m5ea6bb1220" y="463.290925"/>
      </g>
     </g>
    </g>
    <g id="ytick_11">
     <g id="line2d_20">
      <g>
       <use style="stroke:#000000;stroke-width:0.6;" x="144" xlink:href="#m5ea6bb1220" y="457.578872"/>
      </g>
     </g>
    </g>
    <g id="ytick_12">
     <g id="line2d_21">
      <g>
       <use style="stroke:#000000;stroke-width:0.6;" x="144" xlink:href="#m5ea6bb1220" y="452.630867"/>
      </g>
     </g>
    </g>
    <g id="ytick_13">
     <g id="line2d_22">
      <g>
       <use style="stroke:#000000;stroke-width:0.6;" x="144" xlink:href="#m5ea6bb1220" y="448.266417"/>
      </g>
     </g>
    </g>
    <g id="ytick_14">
     <g id="line2d_23">
      <g>
       <use style="stroke:#000000;stroke-width:0.6;" x="144" xlink:href="#m5ea6bb1220" y="418.677717"/>
      </g>
     </g>
    </g>
    <g id="ytick_15">
     <g id="line2d_24">
      <g>
       <use style="stroke:#000000;stroke-width:0.6;" x="144" xlink:href="#m5ea6bb1220" y="403.653208"/>
      </g>
     </g>
    </g>
    <g id="ytick_16">
     <g id="line2d_25">
      <g>
       <use style="stroke:#000000;stroke-width:0.6;" x="144" xlink:href="#m5ea6bb1220" y="392.99315"/>
      </g>
     </g>
    </g>
    <g id="ytick_17">
     <g id="line2d_26">
      <g>
       <use style="stroke:#000000;stroke-width:0.6;" x="144" xlink:href="#m5ea6bb1220" y="384.724567"/>
      </g>
     </g>
    </g>
    <g id="ytick_18">
     <g id="line2d_27">
      <g>
       <use style="stroke:#000000;stroke-width:0.6;" x="144" xlink:href="#m5ea6bb1220" y="377.968642"/>
      </g>
     </g>
    </g>
    <g id="ytick_19">
     <g id="line2d_28">
      <g>
       <use style="stroke:#000000;stroke-width:0.6;" x="144" xlink:href="#m5ea6bb1220" y="372.256589"/>
      </g>
     </g>
    </g>
    <g id="ytick_20">
     <g id="line2d_29">
      <g>
       <use style="stroke:#000000;stroke-width:0.6;" x="144" xlink:href="#m5ea6bb1220" y="367.308584"/>
      </g>
     </g>
    </g>
    <g id="ytick_21">
     <g id="line2d_30">
      <g>
       <use style="stroke:#000000;stroke-width:0.6;" x="144" xlink:href="#m5ea6bb1220" y="362.944134"/>
      </g>
     </g>
    </g>
    <g id="ytick_22">
     <g id="line2d_31">
      <g>
       <use style="stroke:#000000;stroke-width:0.6;" x="144" xlink:href="#m5ea6bb1220" y="333.355433"/>
      </g>
     </g>
    </g>
    <g id="ytick_23">
     <g id="line2d_32">
      <g>
       <use style="stroke:#000000;stroke-width:0.6;" x="144" xlink:href="#m5ea6bb1220" y="318.330925"/>
      </g>
     </g>
    </g>
    <g id="ytick_24">
     <g id="line2d_33">
      <g>
       <use style="stroke:#000000;stroke-width:0.6;" x="144" xlink:href="#m5ea6bb1220" y="307.670867"/>
      </g>
     </g>
    </g>
    <g id="ytick_25">
     <g id="line2d_34">
      <g>
       <use style="stroke:#000000;stroke-width:0.6;" x="144" xlink:href="#m5ea6bb1220" y="299.402283"/>
      </g>
     </g>
    </g>
    <g id="ytick_26">
     <g id="line2d_35">
      <g>
       <use style="stroke:#000000;stroke-width:0.6;" x="144" xlink:href="#m5ea6bb1220" y="292.646359"/>
      </g>
     </g>
    </g>
    <g id="ytick_27">
     <g id="line2d_36">
      <g>
       <use style="stroke:#000000;stroke-width:0.6;" x="144" xlink:href="#m5ea6bb1220" y="286.934306"/>
      </g>
     </g>
    </g>
    <g id="ytick_28">
     <g id="line2d_37">
      <g>
       <use style="stroke:#000000;stroke-width:0.6;" x="144" xlink:href="#m5ea6bb1220" y="281.9863"/>
      </g>
     </g>
    </g>
    <g id="ytick_29">
     <g id="line2d_38">
      <g>
       <use style="stroke:#000000;stroke-width:0.6;" x="144" xlink:href="#m5ea6bb1220" y="277.62185"/>
      </g>
     </g>
    </g>
    <g id="ytick_30">
     <g id="line2d_39">
      <g>
       <use style="stroke:#000000;stroke-width:0.6;" x="144" xlink:href="#m5ea6bb1220" y="248.03315"/>
      </g>
     </g>
    </g>
    <g id="ytick_31">
     <g id="line2d_40">
      <g>
       <use style="stroke:#000000;stroke-width:0.6;" x="144" xlink:href="#m5ea6bb1220" y="233.008642"/>
      </g>
     </g>
    </g>
    <g id="ytick_32">
     <g id="line2d_41">
      <g>
       <use style="stroke:#000000;stroke-width:0.6;" x="144" xlink:href="#m5ea6bb1220" y="222.348584"/>
      </g>
     </g>
    </g>
    <g id="ytick_33">
     <g id="line2d_42">
      <g>
       <use style="stroke:#000000;stroke-width:0.6;" x="144" xlink:href="#m5ea6bb1220" y="214.08"/>
      </g>
     </g>
    </g>
    <g id="ytick_34">
     <g id="line2d_43">
      <g>
       <use style="stroke:#000000;stroke-width:0.6;" x="144" xlink:href="#m5ea6bb1220" y="207.324075"/>
      </g>
     </g>
    </g>
    <g id="ytick_35">
     <g id="line2d_44">
      <g>
       <use style="stroke:#000000;stroke-width:0.6;" x="144" xlink:href="#m5ea6bb1220" y="201.612022"/>
      </g>
     </g>
    </g>
    <g id="ytick_36">
     <g id="line2d_45">
      <g>
       <use style="stroke:#000000;stroke-width:0.6;" x="144" xlink:href="#m5ea6bb1220" y="196.664017"/>
      </g>
     </g>
    </g>
    <g id="ytick_37">
     <g id="line2d_46">
      <g>
       <use style="stroke:#000000;stroke-width:0.6;" x="144" xlink:href="#m5ea6bb1220" y="192.299567"/>
      </g>
     </g>
    </g>
    <g id="ytick_38">
     <g id="line2d_47">
      <g>
       <use style="stroke:#000000;stroke-width:0.6;" x="144" xlink:href="#m5ea6bb1220" y="162.710867"/>
      </g>
     </g>
    </g>
    <g id="ytick_39">
     <g id="line2d_48">
      <g>
       <use style="stroke:#000000;stroke-width:0.6;" x="144" xlink:href="#m5ea6bb1220" y="147.686359"/>
      </g>
     </g>
    </g>
    <g id="ytick_40">
     <g id="line2d_49">
      <g>
       <use style="stroke:#000000;stroke-width:0.6;" x="144" xlink:href="#m5ea6bb1220" y="137.0263"/>
      </g>
     </g>
    </g>
    <g id="ytick_41">
     <g id="line2d_50">
      <g>
       <use style="stroke:#000000;stroke-width:0.6;" x="144" xlink:href="#m5ea6bb1220" y="128.757717"/>
      </g>
     </g>
    </g>
    <g id="ytick_42">
     <g id="line2d_51">
      <g>
       <use style="stroke:#000000;stroke-width:0.6;" x="144" xlink:href="#m5ea6bb1220" y="122.001792"/>
      </g>
     </g>
    </g>
    <g id="ytick_43">
     <g id="line2d_52">
      <g>
       <use style="stroke:#000000;stroke-width:0.6;" x="144" xlink:href="#m5ea6bb1220" y="116.289739"/>
      </g>
     </g>
    </g>
    <g id="ytick_44">
     <g id="line2d_53">
      <g>
       <use style="stroke:#000000;stroke-width:0.6;" x="144" xlink:href="#m5ea6bb1220" y="111.341734"/>
      </g>
     </g>
    </g>
    <g id="ytick_45">
     <g id="line2d_54">
      <g>
       <use style="stroke:#000000;stroke-width:0.6;" x="144" xlink:href="#m5ea6bb1220" y="106.977284"/>
      </g>
     </g>
    </g>
    <g id="ytick_46">
     <g id="line2d_55">
      <g>
       <use style="stroke:#000000;stroke-width:0.6;" x="144" xlink:href="#m5ea6bb1220" y="77.388584"/>
      </g>
     </g>
    </g>
    <g id="text_16">
     <!-- Energy /A.U. -->
     <g transform="translate(84.936875 373.22)rotate(-90)scale(0.28 -0.28)">
      <defs>
       <path d="M 9.8125 72.90625 
L 55.90625 72.90625 
L 55.90625 64.59375 
L 19.671875 64.59375 
L 19.671875 43.015625 
L 54.390625 43.015625 
L 54.390625 34.71875 
L 19.671875 34.71875 
L 19.671875 8.296875 
L 56.78125 8.296875 
L 56.78125 0 
L 9.8125 0 
z
" id="DejaVuSans-69"/>
       <path d="M 54.890625 33.015625 
L 54.890625 0 
L 45.90625 0 
L 45.90625 32.71875 
Q 45.90625 40.484375 42.875 44.328125 
Q 39.84375 48.1875 33.796875 48.1875 
Q 26.515625 48.1875 22.3125 43.546875 
Q 18.109375 38.921875 18.109375 30.90625 
L 18.109375 0 
L 9.078125 0 
L 9.078125 54.6875 
L 18.109375 54.6875 
L 18.109375 46.1875 
Q 21.34375 51.125 25.703125 53.5625 
Q 30.078125 56 35.796875 56 
Q 45.21875 56 50.046875 50.171875 
Q 54.890625 44.34375 54.890625 33.015625 
z
" id="DejaVuSans-110"/>
       <path d="M 56.203125 29.59375 
L 56.203125 25.203125 
L 14.890625 25.203125 
Q 15.484375 15.921875 20.484375 11.0625 
Q 25.484375 6.203125 34.421875 6.203125 
Q 39.59375 6.203125 44.453125 7.46875 
Q 49.3125 8.734375 54.109375 11.28125 
L 54.109375 2.78125 
Q 49.265625 0.734375 44.1875 -0.34375 
Q 39.109375 -1.421875 33.890625 -1.421875 
Q 20.796875 -1.421875 13.15625 6.1875 
Q 5.515625 13.8125 5.515625 26.8125 
Q 5.515625 40.234375 12.765625 48.109375 
Q 20.015625 56 32.328125 56 
Q 43.359375 56 49.78125 48.890625 
Q 56.203125 41.796875 56.203125 29.59375 
z
M 47.21875 32.234375 
Q 47.125 39.59375 43.09375 43.984375 
Q 39.0625 48.390625 32.421875 48.390625 
Q 24.90625 48.390625 20.390625 44.140625 
Q 15.875 39.890625 15.1875 32.171875 
z
" id="DejaVuSans-101"/>
       <path d="M 45.40625 27.984375 
Q 45.40625 37.75 41.375 43.109375 
Q 37.359375 48.484375 30.078125 48.484375 
Q 22.859375 48.484375 18.828125 43.109375 
Q 14.796875 37.75 14.796875 27.984375 
Q 14.796875 18.265625 18.828125 12.890625 
Q 22.859375 7.515625 30.078125 7.515625 
Q 37.359375 7.515625 41.375 12.890625 
Q 45.40625 18.265625 45.40625 27.984375 
z
M 54.390625 6.78125 
Q 54.390625 -7.171875 48.1875 -13.984375 
Q 42 -20.796875 29.203125 -20.796875 
Q 24.46875 -20.796875 20.265625 -20.09375 
Q 16.0625 -19.390625 12.109375 -17.921875 
L 12.109375 -9.1875 
Q 16.0625 -11.328125 19.921875 -12.34375 
Q 23.78125 -13.375 27.78125 -13.375 
Q 36.625 -13.375 41.015625 -8.765625 
Q 45.40625 -4.15625 45.40625 5.171875 
L 45.40625 9.625 
Q 42.625 4.78125 38.28125 2.390625 
Q 33.9375 0 27.875 0 
Q 17.828125 0 11.671875 7.65625 
Q 5.515625 15.328125 5.515625 27.984375 
Q 5.515625 40.671875 11.671875 48.328125 
Q 17.828125 56 27.875 56 
Q 33.9375 56 38.28125 53.609375 
Q 42.625 51.21875 45.40625 46.390625 
L 45.40625 54.6875 
L 54.390625 54.6875 
z
" id="DejaVuSans-103"/>
       <path d="M 10.6875 12.40625 
L 21 12.40625 
L 21 0 
L 10.6875 0 
z
" id="DejaVuSans-46"/>
       <path d="M 8.6875 72.90625 
L 18.609375 72.90625 
L 18.609375 28.609375 
Q 18.609375 16.890625 22.84375 11.734375 
Q 27.09375 6.59375 36.625 6.59375 
Q 46.09375 6.59375 50.34375 11.734375 
Q 54.59375 16.890625 54.59375 28.609375 
L 54.59375 72.90625 
L 64.5 72.90625 
L 64.5 27.390625 
Q 64.5 13.140625 57.4375 5.859375 
Q 50.390625 -1.421875 36.625 -1.421875 
Q 22.796875 -1.421875 15.734375 5.859375 
Q 8.6875 13.140625 8.6875 27.390625 
z
" id="DejaVuSans-85"/>
      </defs>
      <use xlink:href="#DejaVuSans-69"/>
      <use x="63.183594" xlink:href="#DejaVuSans-110"/>
      <use x="126.5625" xlink:href="#DejaVuSans-101"/>
      <use x="188.085938" xlink:href="#DejaVuSans-114"/>
      <use x="227.449219" xlink:href="#DejaVuSans-103"/>
      <use x="290.925781" xlink:href="#DejaVuSans-121"/>
      <use x="350.105469" xlink:href="#DejaVuSans-32"/>
      <use x="381.892578" xlink:href="#DejaVuSans-47"/>
      <use x="415.583984" xlink:href="#DejaVuSans-65"/>
      <use x="482.242188" xlink:href="#DejaVuSans-46"/>
      <use x="514.029297" xlink:href="#DejaVuSans-85"/>
      <use x="587.222656" xlink:href="#DejaVuSans-46"/>
     </g>
    </g>
   </g>
   <g id="line2d_56">
    <path clip-path="url(#p7a00543394)" d="M 142.326 243.275479 
L 359.946 220.596566 
L 419.652 208.674153 
L 451.458 200.267268 
L 491.076 193.772112 
L 510.606 188.376978 
L 538.506 183.8475 
L 553.572 179.953849 
L 578.124 176.462955 
L 582.03 173.349936 
L 586.494 170.548221 
L 609.93 168.057185 
L 617.184 165.796357 
L 627.228 163.779353 
L 632.25 161.855869 
L 650.106 160.052345 
L 647.316 158.239472 
L 667.962 156.631022 
L 656.802 155.140089 
L 671.868 153.716435 
L 665.73 152.35895 
L 704.232 151.049461 
L 674.658 149.763315 
L 700.326 148.621741 
L 701.442 147.483878 
L 724.878 146.415161 
L 707.022 145.43363 
L 708.696 144.478297 
L 744.408 141.737951 
L 737.712 140.880059 
L 741.618 140.065449 
L 754.452 139.268834 
L 743.85 138.500573 
L 743.85 137.740835 
L 758.916 137.042179 
L 768.96 136.380588 
L 758.358 135.683552 
L 766.728 135.005528 
L 764.496 134.404516 
L 760.032 133.768878 
L 779.004 133.129671 
L 790.722 132.533335 
L 775.098 131.947948 
L 784.584 131.37343 
L 796.302 130.824233 
L 791.28 130.271412 
L 795.744 129.723747 
L 790.722 129.240365 
L 796.86 128.710501 
L 811.926 128.22221 
L 801.882 127.742059 
L 810.252 127.283052 
L 814.716 126.841988 
L 814.716 126.384629 
L 818.064 125.919725 
L 813.6 125.494569 
L 813.6 125.062007 
L 832.014 124.636438 
L 827.55 124.254138 
L 814.716 123.850555 
L 819.738 123.477355 
L 826.434 123.094783 
L 827.55 122.702731 
L 813.042 122.317721 
L 824.76 121.943872 
L 835.362 121.210983 
L 833.13 120.844047 
L 837.036 120.47559 
L 842.616 120.137044 
L 837.036 119.825423 
L 833.688 119.504668 
L 838.71 119.182336 
L 849.312 118.847744 
L 837.036 118.521456 
L 848.196 117.891218 
L 851.544 117.593444 
L 844.29 117.289924 
L 850.428 116.996094 
L 850.428 116.690804 
L 849.312 116.38678 
L 852.66 116.11485 
L 857.682 115.520887 
L 856.566 115.257962 
L 850.428 114.736225 
L 853.776 114.450926 
L 854.892 114.194636 
L 859.914 113.932824 
L 854.334 113.698712 
L 859.914 113.459418 
L 856.566 113.201249 
L 859.914 112.957353 
L 866.052 112.712928 
L 859.914 112.240215 
L 867.726 111.766305 
L 864.378 111.546733 
L 864.936 111.32337 
L 864.936 110.87851 
L 871.074 110.661657 
L 873.306 110.432266 
L 871.074 110.213402 
L 872.19 109.994822 
L 871.632 109.778308 
L 868.842 109.580552 
L 874.422 109.170896 
L 866.052 108.97286 
L 884.466 108.165551 
L 873.864 107.973465 
L 881.118 107.777699 
L 877.212 107.595038 
L 876.654 107.405761 
L 879.444 107.033924 
L 878.886 106.83244 
L 884.466 106.657705 
L 878.328 106.123389 
L 883.908 105.956315 
L 885.582 105.633544 
L 885.582 105.46788 
L 882.792 105.308242 
L 885.024 105.143001 
L 883.908 104.97337 
L 893.952 104.646597 
L 892.278 104.486854 
L 882.234 104.316025 
L 882.234 104.15033 
L 886.14 103.99125 
L 899.532 103.818325 
L 892.836 103.655723 
L 881.118 103.505167 
L 890.046 103.341558 
L 887.814 103.203413 
L 889.488 103.05515 
L 888.93 102.89883 
L 890.046 102.604296 
L 896.742 102.461654 
L 889.488 102.319977 
L 888.93 102.160357 
L 890.604 102.022039 
L 885.024 101.875529 
L 887.814 101.735462 
L 895.626 101.59795 
L 893.952 101.459211 
L 901.764 101.19647 
L 896.742 101.062534 
L 883.908 100.929137 
L 895.626 100.798063 
L 891.162 100.638089 
L 898.974 100.507778 
L 888.93 100.363611 
L 897.3 100.114704 
L 889.488 99.985085 
L 894.51 99.85354 
L 894.51 99.72548 
L 896.742 99.598895 
L 893.394 99.472552 
L 899.532 99.348473 
L 895.626 99.231971 
L 900.09 99.092576 
L 895.068 98.954116 
L 901.206 98.836047 
L 897.858 98.71743 
L 898.974 98.597988 
L 892.836 98.357359 
L 901.764 98.240588 
L 901.206 98.129422 
L 890.046 98.020908 
L 907.344 97.790842 
L 901.206 97.673545 
L 907.344 97.543496 
L 894.51 97.43111 
L 908.46 97.329497 
L 901.764 97.105115 
L 903.996 96.993811 
L 901.206 96.888097 
L 902.322 96.769792 
L 898.974 96.653159 
L 887.814 96.54015 
L 901.206 96.334569 
L 901.764 96.228447 
L 903.438 96.111254 
L 907.902 96.008669 
L 902.322 95.806532 
L 901.764 95.704893 
L 902.88 95.50059 
L 896.184 95.400638 
L 900.09 95.290969 
L 898.974 95.095765 
L 909.018 94.889154 
L 903.438 94.790728 
L 909.576 94.602739 
L 907.344 94.500388 
L 909.018 94.30618 
L 902.322 94.209017 
L 903.438 94.115883 
L 905.112 94.020645 
L 912.366 93.83629 
L 910.134 93.744006 
L 910.692 93.651568 
L 903.996 93.479629 
L 904.554 93.30556 
L 902.88 93.212125 
L 903.996 93.123146 
L 910.692 93.035535 
L 907.344 92.939703 
L 916.272 92.845272 
L 911.25 92.754836 
L 913.482 92.664788 
L 919.062 92.583765 
L 907.344 92.438093 
L 912.366 92.260579 
L 910.134 92.177108 
L 914.04 92.079188 
L 909.576 91.901289 
L 912.924 91.730571 
L 905.112 91.643718 
L 917.388 91.405356 
L 906.786 91.333627 
L 914.598 91.246375 
L 905.67 91.156472 
L 907.902 91.074165 
L 907.344 91.000773 
L 905.67 90.914881 
L 911.25 90.755228 
L 919.062 90.673621 
L 916.272 90.598135 
L 910.692 90.365599 
L 918.504 90.291797 
L 904.554 90.214084 
L 914.598 90.064055 
L 916.83 89.991556 
L 915.714 89.917941 
L 914.04 89.760219 
L 912.366 89.68541 
L 914.598 89.611575 
L 914.04 89.542825 
L 915.156 89.470854 
L 913.482 89.330247 
L 908.46 89.258086 
L 917.388 89.190927 
L 912.366 89.120043 
L 910.134 89.042746 
L 918.504 88.972806 
L 911.25 88.894788 
L 913.482 88.826773 
L 917.946 88.760548 
L 911.808 88.689799 
L 914.04 88.618269 
L 915.156 88.55897 
L 920.736 88.492671 
L 913.482 88.354738 
L 921.294 88.067295 
L 920.178 88.005866 
L 921.852 87.944938 
L 916.83 87.875267 
L 917.946 87.808106 
L 916.83 87.672127 
L 914.04 87.607437 
L 922.968 87.347578 
L 915.156 87.28299 
L 917.946 87.223112 
L 920.178 87.028675 
L 908.46 86.780418 
L 916.272 86.717381 
L 915.714 86.657257 
L 915.714 86.6011 
L 916.83 86.47633 
L 918.504 86.42059 
L 910.692 86.362025 
L 917.388 86.303743 
L 918.504 86.241633 
L 910.134 86.185417 
L 916.272 86.125052 
L 911.25 86.068624 
L 918.504 86.007075 
L 917.388 85.945383 
L 919.062 85.880944 
L 916.272 85.820417 
L 922.41 85.665563 
L 916.272 85.611197 
L 921.852 85.553854 
L 916.272 85.433805 
L 917.388 85.373172 
L 916.272 85.311635 
L 920.736 85.197426 
L 919.62 85.135598 
L 917.946 85.029656 
L 919.62 84.976921 
L 919.062 84.920023 
L 918.504 84.867375 
L 920.178 84.809969 
L 917.388 84.751187 
L 919.62 84.695924 
L 916.83 84.529891 
L 916.83 84.529891 
" style="fill:none;stroke:#1f1f1f;stroke-linecap:square;stroke-width:5;"/>
   </g>
   <g id="line2d_57">
    <path clip-path="url(#p7a00543394)" d="M 142.326 508.920089 
L 359.946 477.313789 
L 419.652 458.474469 
L 451.458 444.720279 
L 491.076 434.066573 
L 510.606 425.303698 
L 538.506 417.773755 
L 553.572 411.25565 
L 578.124 405.487905 
L 582.03 400.308052 
L 586.494 395.588362 
L 609.93 391.261023 
L 617.184 387.241367 
L 627.228 383.558548 
L 632.25 380.171753 
L 650.106 377.017714 
L 647.316 374.078861 
L 667.962 371.311326 
L 656.802 368.705534 
L 671.868 366.203302 
L 665.73 363.842337 
L 704.232 361.616546 
L 674.658 359.460516 
L 700.326 357.407182 
L 701.442 355.418844 
L 724.878 353.541752 
L 707.022 351.732927 
L 708.696 349.984061 
L 721.53 348.324895 
L 734.922 346.713323 
L 744.408 345.15645 
L 737.712 343.670314 
L 741.618 342.238865 
L 754.452 340.842571 
L 743.85 339.488001 
L 743.85 338.183227 
L 758.916 336.922086 
L 768.96 335.696276 
L 758.358 334.512152 
L 766.728 333.363 
L 764.496 332.236006 
L 760.032 331.143385 
L 779.004 330.075922 
L 790.722 329.043755 
L 775.098 328.047864 
L 784.584 327.065044 
L 796.302 326.111799 
L 791.28 325.178066 
L 795.744 324.27645 
L 790.722 323.386927 
L 796.86 322.522709 
L 811.926 321.67456 
L 801.882 320.855003 
L 810.252 320.055632 
L 814.716 319.273609 
L 814.716 318.505368 
L 818.064 317.751478 
L 813.6 317.014212 
L 813.6 316.28993 
L 832.014 315.57539 
L 827.55 314.873047 
L 814.716 314.18372 
L 819.738 313.498239 
L 826.434 312.829198 
L 827.55 312.177792 
L 813.042 311.539977 
L 824.76 310.911926 
L 835.362 309.671596 
L 833.13 309.070205 
L 837.036 308.478791 
L 842.616 307.897067 
L 837.036 307.32328 
L 833.688 306.754839 
L 838.71 306.197402 
L 849.312 305.648483 
L 837.036 305.107436 
L 848.196 304.053254 
L 851.544 303.538071 
L 844.29 303.02962 
L 850.428 302.527077 
L 850.428 302.034252 
L 849.312 301.546147 
L 852.66 301.063565 
L 854.892 300.585947 
L 857.682 300.112651 
L 856.566 299.646134 
L 850.428 298.736882 
L 853.776 298.289777 
L 854.892 297.84913 
L 859.914 297.413168 
L 854.334 296.979679 
L 859.914 296.550131 
L 856.566 296.127092 
L 859.914 295.708296 
L 866.052 295.29378 
L 859.914 294.479666 
L 867.726 293.681761 
L 864.378 293.290434 
L 864.936 292.902198 
L 864.936 292.128145 
L 871.074 291.742168 
L 873.306 291.36267 
L 871.074 290.988774 
L 872.19 290.619892 
L 871.632 290.253813 
L 868.842 289.890591 
L 871.074 289.529983 
L 874.422 289.170984 
L 866.052 288.815006 
L 884.466 287.420701 
L 873.864 287.079428 
L 881.118 286.739754 
L 877.212 286.40148 
L 876.654 286.06964 
L 877.77 285.738197 
L 879.444 285.412933 
L 878.886 285.089435 
L 884.466 284.766395 
L 880.56 284.126625 
L 878.328 283.811259 
L 883.908 283.497054 
L 885.024 283.187772 
L 885.582 282.879792 
L 885.582 282.572033 
L 882.792 282.268202 
L 885.024 281.967946 
L 883.908 281.670255 
L 891.162 281.375495 
L 893.952 281.08327 
L 892.278 280.791473 
L 882.234 280.501319 
L 882.234 280.21266 
L 886.14 279.924072 
L 899.532 279.638674 
L 892.836 279.355661 
L 881.118 279.074455 
L 890.046 278.794381 
L 887.814 278.515732 
L 889.488 278.236736 
L 888.93 277.959244 
L 890.046 277.411428 
L 896.742 277.140628 
L 889.488 276.870115 
L 888.93 276.601762 
L 890.604 276.334666 
L 885.024 276.069059 
L 887.814 275.805036 
L 895.626 275.541298 
L 893.952 275.279781 
L 901.764 274.760094 
L 896.742 274.501391 
L 883.908 274.243263 
L 895.626 273.988253 
L 891.162 273.734076 
L 898.974 273.481925 
L 888.93 273.229542 
L 897.3 272.73019 
L 889.488 272.482737 
L 894.51 272.238114 
L 894.51 271.993626 
L 896.742 271.751439 
L 893.394 271.509118 
L 899.532 271.26811 
L 895.626 271.028887 
L 900.09 270.790541 
L 895.068 270.553569 
L 901.206 270.316636 
L 897.858 270.081105 
L 898.974 269.84724 
L 892.836 269.382102 
L 901.764 269.150587 
L 901.206 268.920054 
L 890.046 268.689266 
L 902.88 268.462158 
L 907.344 268.235111 
L 901.206 268.008549 
L 907.344 267.782617 
L 894.51 267.557365 
L 908.46 267.332971 
L 903.438 267.110423 
L 901.764 266.888165 
L 903.996 266.66729 
L 901.206 266.447584 
L 902.322 266.228661 
L 898.974 266.011033 
L 887.814 265.793012 
L 901.206 265.576228 
L 901.206 265.360352 
L 901.764 265.144438 
L 903.438 264.930363 
L 907.902 264.718189 
L 902.88 264.507498 
L 901.764 264.087118 
L 902.88 263.87732 
L 902.88 263.669013 
L 896.184 263.461785 
L 900.09 263.254682 
L 898.974 263.048909 
L 898.974 262.843379 
L 907.344 262.63913 
L 909.018 262.43526 
L 903.438 262.232223 
L 909.576 261.829123 
L 907.344 261.628878 
L 909.018 261.228423 
L 902.322 261.030543 
L 905.112 260.636699 
L 911.25 260.441481 
L 912.366 260.246244 
L 910.134 260.051888 
L 910.692 259.858709 
L 908.46 259.666204 
L 903.996 259.474687 
L 905.67 259.283747 
L 902.88 258.903217 
L 903.996 258.71394 
L 910.692 258.526065 
L 907.344 258.338402 
L 916.272 258.150488 
L 911.25 257.963413 
L 913.482 257.777409 
L 919.062 257.591635 
L 907.344 257.221724 
L 911.808 257.038068 
L 912.366 256.855272 
L 910.134 256.673064 
L 914.04 256.492573 
L 909.576 256.31185 
L 909.576 256.131627 
L 912.924 255.950677 
L 912.924 255.771022 
L 905.112 255.591706 
L 917.388 255.056775 
L 906.786 254.879773 
L 914.598 254.703882 
L 905.67 254.527545 
L 907.902 254.351975 
L 907.344 254.17704 
L 905.67 254.003001 
L 911.25 253.655573 
L 919.062 253.48247 
L 911.808 252.966098 
L 910.692 252.795226 
L 918.504 252.624676 
L 904.554 252.454925 
L 913.482 252.28555 
L 914.598 252.116498 
L 916.83 251.948528 
L 912.366 251.28219 
L 914.598 251.11657 
L 914.04 250.951604 
L 915.156 250.78783 
L 914.598 250.624069 
L 913.482 250.461016 
L 908.46 250.298756 
L 917.388 250.136814 
L 910.134 249.813948 
L 918.504 249.652838 
L 911.25 249.492743 
L 913.482 249.332365 
L 917.946 249.172566 
L 911.808 249.013321 
L 915.156 248.697148 
L 920.736 248.540523 
L 913.482 248.228278 
L 917.946 247.918403 
L 919.062 247.763631 
L 921.294 247.6094 
L 920.178 247.456148 
L 921.852 247.302547 
L 916.83 247.14902 
L 917.946 246.996489 
L 916.83 246.69271 
L 914.04 246.541878 
L 916.83 246.391347 
L 916.83 246.24109 
L 919.062 246.090952 
L 922.968 245.941245 
L 915.156 245.792524 
L 919.62 245.496074 
L 920.178 245.348982 
L 920.178 245.201513 
L 915.156 245.054436 
L 916.83 244.907604 
L 914.04 244.761791 
L 908.46 244.616254 
L 916.272 244.470579 
L 915.714 244.325361 
L 915.714 244.181057 
L 916.83 243.893093 
L 918.504 243.750199 
L 910.692 243.60818 
L 917.388 243.466522 
L 918.504 243.324913 
L 910.134 243.183305 
L 916.272 243.04242 
L 911.25 242.901968 
L 918.504 242.761848 
L 917.388 242.621999 
L 919.062 242.4826 
L 916.272 242.343209 
L 921.852 242.203842 
L 918.504 242.065296 
L 922.41 241.927379 
L 916.272 241.789547 
L 921.852 241.652487 
L 916.272 241.515513 
L 916.272 241.378944 
L 917.388 241.24253 
L 916.272 241.106605 
L 920.736 240.8354 
L 917.946 240.43162 
L 919.62 240.29709 
L 918.504 240.029439 
L 920.178 239.896274 
L 917.388 239.763045 
L 919.62 239.630244 
L 918.504 239.497409 
L 919.062 239.365599 
L 916.83 239.234115 
L 916.83 239.234115 
" style="fill:none;stroke:#9e9e9e;stroke-linecap:square;stroke-width:5;"/>
   </g>
   <g id="line2d_58">
    <path clip-path="url(#p7a00543394)" d="M -1 299.679081 
L 13.986 299.00585 
L 80.946 293.823208 
L 82.062 289.173404 
L 130.608 284.907208 
L 195.336 281.136805 
L 214.866 277.484939 
L 255.6 274.254916 
L 281.268 271.482904 
L 290.754 268.732363 
L 263.97 266.259411 
L 309.168 263.858754 
L 335.952 261.600073 
L 359.388 259.485987 
L 362.736 257.608152 
L 383.94 255.632236 
L 365.526 253.711953 
L 369.99 251.992897 
L 376.128 248.864486 
L 401.238 247.214628 
L 392.868 245.721633 
L 407.934 244.365064 
L 424.674 242.981175 
L 425.79 241.549397 
L 430.812 240.2539 
L 444.204 238.995378 
L 434.718 237.816652 
L 441.972 236.65338 
L 426.906 235.47782 
L 464.85 234.336754 
L 459.828 233.202423 
L 465.408 232.142243 
L 472.104 231.099362 
L 458.154 230.08212 
L 464.85 229.13647 
L 462.06 228.178165 
L 487.728 227.282795 
L 469.314 226.345746 
L 481.59 225.492218 
L 479.916 224.616666 
L 494.982 223.806015 
L 493.866 222.981059 
L 491.634 222.216374 
L 500.004 221.410516 
L 479.358 220.693588 
L 499.446 219.937344 
L 500.004 219.187079 
L 508.374 218.478299 
L 521.208 217.750145 
L 516.744 217.107872 
L 514.512 216.414795 
L 525.672 215.678359 
L 525.114 215.02801 
L 517.302 214.402847 
L 522.882 213.782592 
L 535.158 213.161434 
L 543.528 212.564439 
L 540.18 212.007801 
L 532.926 211.425532 
L 510.048 210.810659 
L 535.158 210.18436 
L 536.832 209.625584 
L 542.412 209.109871 
L 539.622 208.58279 
L 560.826 207.522344 
L 550.224 207.02239 
L 553.572 206.521764 
L 550.224 206.037714 
L 547.992 205.502231 
L 550.782 205.038018 
L 563.616 204.574344 
L 564.174 204.106546 
L 561.384 203.650378 
L 565.848 203.205761 
L 556.92 202.733368 
L 565.29 202.303563 
L 566.964 201.870426 
L 566.964 201.453238 
L 559.71 200.995473 
L 568.08 200.563243 
L 585.936 200.15341 
L 569.754 199.740739 
L 563.616 199.336342 
L 582.588 198.985098 
L 581.472 198.584608 
L 577.566 198.222709 
L 577.566 197.854044 
L 568.08 197.474195 
L 582.588 197.113473 
L 581.472 196.738155 
L 569.754 196.399836 
L 588.726 196.042955 
L 583.146 195.694886 
L 589.842 195.315734 
L 599.886 194.980319 
L 587.61 194.655361 
L 593.19 194.324036 
L 573.102 193.995547 
L 587.052 193.617438 
L 591.516 193.2924 
L 587.61 192.98163 
L 582.03 192.669186 
L 595.422 192.378874 
L 593.19 192.107363 
L 602.676 191.779665 
L 595.98 191.461237 
L 597.654 191.144312 
L 589.284 190.848692 
L 597.654 190.559844 
L 590.958 190.263783 
L 615.51 189.965251 
L 602.118 189.67461 
L 604.35 189.381716 
L 600.444 189.100159 
L 607.14 188.822916 
L 604.35 188.55039 
L 604.908 188.284614 
L 613.836 187.999525 
L 612.72 187.727523 
L 598.77 187.465117 
L 607.698 186.946748 
L 619.416 186.691393 
L 620.532 186.446929 
L 613.278 186.208482 
L 620.532 185.968653 
L 615.51 185.706489 
L 621.648 185.453778 
L 622.764 185.220697 
L 617.184 184.982251 
L 625.554 184.742899 
L 623.88 184.511083 
L 628.902 184.295443 
L 628.902 184.057364 
L 631.134 183.826858 
L 634.482 183.607431 
L 630.576 183.378558 
L 632.808 183.14355 
L 615.51 182.910967 
L 631.692 182.705826 
L 631.134 182.495131 
L 636.156 182.255172 
L 634.482 182.054437 
L 639.504 181.843334 
L 639.504 181.621191 
L 641.736 181.392899 
L 632.808 181.189072 
L 641.178 180.996988 
L 637.272 180.768229 
L 646.2 180.554178 
L 635.598 180.335624 
L 646.2 180.157352 
L 641.736 179.95799 
L 647.316 179.77251 
L 643.41 179.585221 
L 655.128 179.385113 
L 637.83 179.187103 
L 650.664 178.996924 
L 649.548 178.797241 
L 651.78 178.416876 
L 648.99 178.214206 
L 667.962 178.007871 
L 654.012 177.621714 
L 671.868 177.446329 
L 661.266 177.114174 
L 657.36 176.943529 
L 672.426 176.755512 
L 652.896 176.577792 
L 672.426 176.409827 
L 672.426 176.236492 
L 664.056 176.056324 
L 668.52 175.869886 
L 660.708 175.680685 
L 674.1 175.522828 
L 669.636 175.364787 
L 660.15 175.206978 
L 662.382 175.035151 
L 676.332 174.697963 
L 667.962 174.544654 
L 674.658 174.380438 
L 674.1 174.229636 
L 669.078 174.074927 
L 684.144 173.908724 
L 682.47 173.753898 
L 670.752 173.596665 
L 680.238 173.454813 
L 680.796 173.292006 
L 688.608 173.139328 
L 684.702 172.988637 
L 676.332 172.832221 
L 696.978 172.666929 
L 676.89 172.518267 
L 672.984 172.366405 
L 682.47 172.218543 
L 684.702 172.064939 
L 691.956 171.912763 
L 684.702 171.773807 
L 682.47 171.493191 
L 684.702 171.344629 
L 684.702 171.206705 
L 669.636 171.06121 
L 695.304 170.625886 
L 690.84 170.497597 
L 696.978 170.344917 
L 697.536 170.209953 
L 695.304 170.072576 
L 696.978 169.936057 
L 690.84 169.666254 
L 693.072 169.390214 
L 702.558 169.261517 
L 689.166 168.987436 
L 705.348 168.836875 
L 687.492 168.701569 
L 708.696 168.431142 
L 707.022 168.311391 
L 688.05 168.199469 
L 703.116 168.070054 
L 691.398 167.930931 
L 692.514 167.809927 
L 709.812 167.548633 
L 702 167.429621 
L 707.022 167.299796 
L 705.348 167.175777 
L 702 167.055742 
L 709.254 166.917793 
L 695.304 166.788743 
L 705.906 166.660518 
L 703.674 166.534533 
L 705.348 166.418048 
L 712.602 166.311041 
L 705.348 166.204336 
L 717.066 166.098867 
L 704.79 165.980959 
L 713.718 165.736614 
L 698.652 165.610823 
L 717.066 165.50288 
L 711.486 165.390015 
L 719.856 165.271705 
L 715.392 165.168048 
L 718.74 165.056582 
L 703.116 164.941255 
L 707.022 164.830921 
L 720.972 164.711895 
L 712.044 164.599458 
L 719.856 164.183073 
L 719.298 164.082179 
L 715.95 163.962455 
L 716.508 163.856717 
L 724.32 163.738767 
L 717.624 163.641023 
L 732.69 163.521231 
L 719.856 163.413097 
L 728.784 163.309586 
L 714.276 162.900981 
L 720.414 162.693118 
L 726.552 162.488376 
L 724.878 162.402174 
L 724.878 162.28516 
L 732.69 162.196394 
L 729.342 162.08654 
L 733.248 161.995706 
L 725.994 161.901774 
L 734.364 161.811235 
L 728.226 161.71549 
L 733.806 161.61765 
L 725.436 161.515659 
L 731.574 161.416254 
L 722.088 161.217325 
L 736.038 161.118343 
L 733.248 161.02752 
L 736.596 160.937773 
L 727.11 160.835194 
L 738.27 160.555234 
L 715.95 160.36695 
L 735.48 160.189895 
L 724.32 160.093569 
L 725.436 159.995868 
L 728.784 159.897978 
L 727.11 159.81329 
L 743.292 159.623198 
L 733.806 159.534601 
L 734.922 159.451457 
L 733.806 159.372528 
L 744.408 159.204257 
L 736.038 159.027372 
L 746.082 158.940074 
L 739.386 158.753742 
L 738.828 158.579347 
L 732.132 158.48235 
L 743.85 158.315329 
L 733.248 158.220862 
L 746.082 157.973306 
L 748.872 157.901282 
L 735.48 157.813154 
L 742.734 157.637292 
L 748.314 157.557447 
L 733.248 157.475027 
L 737.712 157.392249 
L 741.618 157.310887 
L 739.386 157.228291 
L 746.082 157.063204 
L 743.292 156.977103 
L 745.524 156.894207 
L 741.06 156.810892 
L 753.894 156.733709 
L 742.176 156.65909 
L 753.336 156.422444 
L 746.082 156.266871 
L 750.546 156.196244 
L 742.176 156.121854 
L 756.684 156.033356 
L 733.806 155.880268 
L 737.154 155.81092 
L 738.27 155.731238 
L 738.27 155.731238 
" style="fill:none;stroke:#ff15ff;stroke-linecap:square;stroke-width:5;"/>
   </g>
   <g id="line2d_59">
    <path clip-path="url(#p7a00543394)" d="M -1 460.956946 
L 13.986 459.739354 
L 80.946 450.461063 
L 82.062 442.446354 
L 130.608 435.486385 
L 195.336 429.257084 
L 214.866 423.663441 
L 255.6 418.549755 
L 281.268 413.891221 
L 290.754 409.576952 
L 263.97 405.562385 
L 309.168 401.821924 
L 335.952 398.330285 
L 359.388 395.067607 
L 362.736 391.999233 
L 383.94 389.102877 
L 365.526 386.343514 
L 369.99 383.721814 
L 373.338 381.222575 
L 376.128 378.857125 
L 401.238 376.596675 
L 392.868 374.430649 
L 407.934 372.348248 
L 424.674 370.352588 
L 425.79 368.432846 
L 430.812 366.579364 
L 444.204 364.792235 
L 434.718 363.069065 
L 441.972 361.401475 
L 426.906 359.794115 
L 464.85 358.245745 
L 459.828 356.747391 
L 465.408 355.29493 
L 472.104 353.885873 
L 458.154 352.522334 
L 464.85 351.193053 
L 462.06 349.893409 
L 487.728 348.633954 
L 469.314 347.398408 
L 481.59 346.196888 
L 479.916 345.017547 
L 494.982 343.871912 
L 493.866 342.751706 
L 491.634 341.661159 
L 500.004 340.594783 
L 479.358 339.553547 
L 499.446 338.533824 
L 500.004 337.538595 
L 508.374 336.561511 
L 521.208 335.60562 
L 516.744 334.668202 
L 514.512 333.746413 
L 525.672 332.849535 
L 525.114 331.970094 
L 517.302 331.105087 
L 522.882 330.256427 
L 535.158 329.421691 
L 543.528 328.603076 
L 540.18 327.798119 
L 532.926 327.008979 
L 510.048 326.23925 
L 535.158 325.482267 
L 536.832 324.73587 
L 542.412 324.001707 
L 539.622 323.278786 
L 560.826 321.858957 
L 550.224 321.163814 
L 553.572 320.480553 
L 550.224 319.808366 
L 547.992 319.143877 
L 550.782 318.492661 
L 563.616 317.850045 
L 564.174 317.216917 
L 561.384 316.593178 
L 565.848 315.979881 
L 556.92 315.373932 
L 565.29 314.776723 
L 566.964 314.187645 
L 566.964 313.604982 
L 559.71 313.032255 
L 568.08 312.465315 
L 585.936 311.909169 
L 569.754 311.359077 
L 563.616 310.815125 
L 582.588 310.277488 
L 581.472 309.747585 
L 577.566 309.224395 
L 577.566 308.70622 
L 568.08 308.192694 
L 582.588 307.686889 
L 581.472 307.187852 
L 569.754 306.69111 
L 588.726 306.201486 
L 583.146 305.717535 
L 589.842 305.240901 
L 599.886 304.768726 
L 587.61 304.298469 
L 593.19 303.835755 
L 573.102 303.374711 
L 587.052 302.919339 
L 591.516 302.468429 
L 587.61 302.022973 
L 582.03 301.582498 
L 595.422 301.147095 
L 593.19 300.715654 
L 602.676 300.290191 
L 595.98 299.866692 
L 597.654 299.447049 
L 589.284 299.032258 
L 597.654 298.620863 
L 590.958 298.212647 
L 615.51 297.808159 
L 602.118 297.405652 
L 604.35 297.008265 
L 600.444 296.613904 
L 607.14 296.223325 
L 604.35 295.837633 
L 604.908 295.454926 
L 613.836 295.076073 
L 612.72 294.702578 
L 598.77 294.330479 
L 607.698 293.594632 
L 619.416 293.231621 
L 620.532 292.873164 
L 613.278 292.516741 
L 620.532 292.163667 
L 615.51 291.812214 
L 621.648 291.466184 
L 622.764 291.12142 
L 617.184 290.779239 
L 625.554 290.440988 
L 623.88 290.103989 
L 628.902 289.770745 
L 628.902 289.441063 
L 631.134 289.113322 
L 634.482 288.786765 
L 630.576 288.461795 
L 632.808 288.139362 
L 615.51 287.819137 
L 631.692 287.501459 
L 631.134 287.185295 
L 636.156 286.873306 
L 634.482 286.563978 
L 639.504 286.256596 
L 639.504 285.95089 
L 641.736 285.648261 
L 632.808 285.348681 
L 641.178 285.050209 
L 637.272 284.752517 
L 646.2 284.457333 
L 635.598 284.164131 
L 646.2 283.873328 
L 641.736 283.584904 
L 647.316 283.298373 
L 643.41 283.014612 
L 655.128 282.732279 
L 637.83 282.451495 
L 650.664 282.173079 
L 649.548 281.896884 
L 651.78 281.345997 
L 648.99 281.074273 
L 667.962 280.802823 
L 654.012 280.267389 
L 671.868 280.002223 
L 664.056 279.737334 
L 657.36 279.213875 
L 672.426 278.953576 
L 652.896 278.694918 
L 672.426 278.437463 
L 672.426 278.181929 
L 664.056 277.928872 
L 668.52 277.676222 
L 660.708 277.424609 
L 674.1 277.175064 
L 669.636 276.926437 
L 660.15 276.678412 
L 662.382 276.432901 
L 676.332 275.948525 
L 667.962 275.707489 
L 674.658 275.467816 
L 674.1 275.229702 
L 669.078 274.99288 
L 684.144 274.757138 
L 682.47 274.522714 
L 670.752 274.288784 
L 680.238 274.056512 
L 680.796 273.825708 
L 688.608 273.59587 
L 684.702 273.367528 
L 676.332 273.139992 
L 696.978 272.913003 
L 676.89 272.68714 
L 672.984 272.462656 
L 682.47 272.239776 
L 684.702 272.017994 
L 691.956 271.797464 
L 684.702 271.57884 
L 682.47 271.144834 
L 684.702 270.92942 
L 684.702 270.715281 
L 669.636 270.501972 
L 686.376 270.078104 
L 695.304 269.86657 
L 690.84 269.657726 
L 696.978 269.449308 
L 697.536 269.24172 
L 695.304 269.034816 
L 696.978 268.829682 
L 690.84 268.420574 
L 692.514 268.218295 
L 693.072 268.016514 
L 702.558 267.815747 
L 689.166 267.417379 
L 705.348 267.220529 
L 687.492 267.025182 
L 708.696 266.634681 
L 707.022 266.441668 
L 688.05 266.249412 
L 703.116 266.057941 
L 691.398 265.866995 
L 692.514 265.677131 
L 709.812 265.298798 
L 702 265.111275 
L 707.022 264.925015 
L 705.348 264.739344 
L 702 264.555398 
L 709.254 264.372063 
L 695.304 264.188982 
L 705.906 264.007062 
L 703.674 263.824957 
L 705.348 263.643692 
L 712.602 263.46317 
L 705.348 263.283686 
L 717.066 263.105435 
L 704.79 262.927479 
L 713.718 262.573887 
L 698.652 262.398275 
L 717.066 262.223249 
L 711.486 262.049586 
L 719.856 261.876677 
L 715.392 261.704067 
L 718.74 261.532532 
L 703.116 261.361492 
L 707.022 261.190851 
L 720.972 261.021112 
L 712.044 260.851726 
L 714.276 260.682999 
L 718.182 260.514549 
L 717.066 260.347287 
L 719.856 260.180614 
L 719.298 260.014449 
L 715.95 259.849143 
L 716.508 259.684212 
L 724.32 259.520778 
L 717.624 259.357894 
L 732.69 259.196485 
L 719.856 259.034917 
L 728.784 258.874268 
L 717.066 258.39337 
L 714.276 258.234213 
L 719.298 258.075932 
L 720.414 257.918296 
L 726.552 257.605421 
L 724.878 257.449703 
L 724.878 257.295415 
L 732.69 257.140847 
L 729.342 256.987534 
L 733.248 256.834913 
L 725.994 256.681698 
L 734.364 256.529008 
L 728.226 256.376642 
L 733.806 256.225023 
L 725.436 256.074367 
L 731.574 255.924407 
L 723.204 255.775028 
L 722.088 255.625972 
L 736.038 255.477814 
L 733.248 255.329828 
L 736.596 255.182159 
L 727.11 255.035297 
L 735.48 254.742389 
L 738.27 254.59631 
L 715.95 254.305502 
L 735.48 254.017134 
L 724.32 253.874613 
L 725.436 253.732086 
L 728.784 253.589914 
L 727.11 253.44769 
L 743.292 253.164414 
L 733.806 253.023547 
L 734.922 252.883545 
L 733.806 252.744432 
L 743.292 252.606218 
L 744.408 252.467713 
L 736.038 252.192238 
L 746.082 252.055088 
L 739.386 251.781956 
L 738.828 251.645887 
L 738.828 251.51043 
L 732.132 251.375381 
L 743.85 251.107034 
L 733.248 250.973207 
L 741.06 250.839665 
L 741.618 250.706114 
L 748.872 250.44116 
L 735.48 250.309123 
L 748.314 249.916639 
L 733.248 249.786969 
L 741.618 249.528117 
L 739.386 249.398952 
L 746.082 249.141794 
L 743.292 249.013836 
L 745.524 248.886906 
L 741.06 248.760286 
L 753.894 248.634344 
L 742.176 248.508907 
L 751.104 248.257979 
L 753.336 248.133134 
L 746.082 247.883942 
L 750.546 247.759636 
L 742.176 247.635732 
L 756.684 247.512426 
L 733.806 247.267385 
L 738.27 247.023894 
L 738.27 247.023894 
" style="fill:none;stroke:#ffa0f0;stroke-linecap:square;stroke-width:5;"/>
   </g>
   <g id="patch_3">
    <path d="M 144 504 
L 144 69.12 
" style="fill:none;stroke:#000000;stroke-linecap:square;stroke-linejoin:miter;stroke-width:0.8;"/>
   </g>
   <g id="patch_4">
    <path d="M 1036.8 504 
L 1036.8 69.12 
" style="fill:none;stroke:#000000;stroke-linecap:square;stroke-linejoin:miter;stroke-width:0.8;"/>
   </g>
   <g id="patch_5">
    <path d="M 144 504 
L 1036.8 504 
" style="fill:none;stroke:#000000;stroke-linecap:square;stroke-linejoin:miter;stroke-width:0.8;"/>
   </g>
   <g id="patch_6">
    <path d="M 144 69.12 
L 1036.8 69.12 
" style="fill:none;stroke:#000000;stroke-linecap:square;stroke-linejoin:miter;stroke-width:0.8;"/>
   </g>
   <g id="text_17">
    <!-- Gated: Energy vs. Accuracy with 100 Units @ 0.3 -->
    <g transform="translate(147.895312 61.633125)scale(0.36 -0.36)">
     <defs>
      <path d="M 59.515625 10.40625 
L 59.515625 29.984375 
L 43.40625 29.984375 
L 43.40625 38.09375 
L 69.28125 38.09375 
L 69.28125 6.78125 
Q 63.578125 2.734375 56.6875 0.65625 
Q 49.8125 -1.421875 42 -1.421875 
Q 24.90625 -1.421875 15.25 8.5625 
Q 5.609375 18.5625 5.609375 36.375 
Q 5.609375 54.25 15.25 64.234375 
Q 24.90625 74.21875 42 74.21875 
Q 49.125 74.21875 55.546875 72.453125 
Q 61.96875 70.703125 67.390625 67.28125 
L 67.390625 56.78125 
Q 61.921875 61.421875 55.765625 63.765625 
Q 49.609375 66.109375 42.828125 66.109375 
Q 29.4375 66.109375 22.71875 58.640625 
Q 16.015625 51.171875 16.015625 36.375 
Q 16.015625 21.625 22.71875 14.15625 
Q 29.4375 6.6875 42.828125 6.6875 
Q 48.046875 6.6875 52.140625 7.59375 
Q 56.25 8.5 59.515625 10.40625 
z
" id="DejaVuSans-71"/>
      <path d="M 18.3125 70.21875 
L 18.3125 54.6875 
L 36.8125 54.6875 
L 36.8125 47.703125 
L 18.3125 47.703125 
L 18.3125 18.015625 
Q 18.3125 11.328125 20.140625 9.421875 
Q 21.96875 7.515625 27.59375 7.515625 
L 36.8125 7.515625 
L 36.8125 0 
L 27.59375 0 
Q 17.1875 0 13.234375 3.875 
Q 9.28125 7.765625 9.28125 18.015625 
L 9.28125 47.703125 
L 2.6875 47.703125 
L 2.6875 54.6875 
L 9.28125 54.6875 
L 9.28125 70.21875 
z
" id="DejaVuSans-116"/>
      <path d="M 45.40625 46.390625 
L 45.40625 75.984375 
L 54.390625 75.984375 
L 54.390625 0 
L 45.40625 0 
L 45.40625 8.203125 
Q 42.578125 3.328125 38.25 0.953125 
Q 33.9375 -1.421875 27.875 -1.421875 
Q 17.96875 -1.421875 11.734375 6.484375 
Q 5.515625 14.40625 5.515625 27.296875 
Q 5.515625 40.1875 11.734375 48.09375 
Q 17.96875 56 27.875 56 
Q 33.9375 56 38.25 53.625 
Q 42.578125 51.265625 45.40625 46.390625 
z
M 14.796875 27.296875 
Q 14.796875 17.390625 18.875 11.75 
Q 22.953125 6.109375 30.078125 6.109375 
Q 37.203125 6.109375 41.296875 11.75 
Q 45.40625 17.390625 45.40625 27.296875 
Q 45.40625 37.203125 41.296875 42.84375 
Q 37.203125 48.484375 30.078125 48.484375 
Q 22.953125 48.484375 18.875 42.84375 
Q 14.796875 37.203125 14.796875 27.296875 
z
" id="DejaVuSans-100"/>
      <path d="M 11.71875 12.40625 
L 22.015625 12.40625 
L 22.015625 0 
L 11.71875 0 
z
M 11.71875 51.703125 
L 22.015625 51.703125 
L 22.015625 39.3125 
L 11.71875 39.3125 
z
" id="DejaVuSans-58"/>
      <path d="M 2.984375 54.6875 
L 12.5 54.6875 
L 29.59375 8.796875 
L 46.6875 54.6875 
L 56.203125 54.6875 
L 35.6875 0 
L 23.484375 0 
z
" id="DejaVuSans-118"/>
      <path d="M 44.28125 53.078125 
L 44.28125 44.578125 
Q 40.484375 46.53125 36.375 47.5 
Q 32.28125 48.484375 27.875 48.484375 
Q 21.1875 48.484375 17.84375 46.4375 
Q 14.5 44.390625 14.5 40.28125 
Q 14.5 37.15625 16.890625 35.375 
Q 19.28125 33.59375 26.515625 31.984375 
L 29.59375 31.296875 
Q 39.15625 29.25 43.1875 25.515625 
Q 47.21875 21.78125 47.21875 15.09375 
Q 47.21875 7.46875 41.1875 3.015625 
Q 35.15625 -1.421875 24.609375 -1.421875 
Q 20.21875 -1.421875 15.453125 -0.5625 
Q 10.6875 0.296875 5.421875 2 
L 5.421875 11.28125 
Q 10.40625 8.6875 15.234375 7.390625 
Q 20.0625 6.109375 24.8125 6.109375 
Q 31.15625 6.109375 34.5625 8.28125 
Q 37.984375 10.453125 37.984375 14.40625 
Q 37.984375 18.0625 35.515625 20.015625 
Q 33.0625 21.96875 24.703125 23.78125 
L 21.578125 24.515625 
Q 13.234375 26.265625 9.515625 29.90625 
Q 5.8125 33.546875 5.8125 39.890625 
Q 5.8125 47.609375 11.28125 51.796875 
Q 16.75 56 26.8125 56 
Q 31.78125 56 36.171875 55.265625 
Q 40.578125 54.546875 44.28125 53.078125 
z
" id="DejaVuSans-115"/>
      <path d="M 4.203125 54.6875 
L 13.1875 54.6875 
L 24.421875 12.015625 
L 35.59375 54.6875 
L 46.1875 54.6875 
L 57.421875 12.015625 
L 68.609375 54.6875 
L 77.59375 54.6875 
L 63.28125 0 
L 52.6875 0 
L 40.921875 44.828125 
L 29.109375 0 
L 18.5 0 
z
" id="DejaVuSans-119"/>
      <path d="M 9.421875 54.6875 
L 18.40625 54.6875 
L 18.40625 0 
L 9.421875 0 
z
M 9.421875 75.984375 
L 18.40625 75.984375 
L 18.40625 64.59375 
L 9.421875 64.59375 
z
" id="DejaVuSans-105"/>
      <path d="M 54.890625 33.015625 
L 54.890625 0 
L 45.90625 0 
L 45.90625 32.71875 
Q 45.90625 40.484375 42.875 44.328125 
Q 39.84375 48.1875 33.796875 48.1875 
Q 26.515625 48.1875 22.3125 43.546875 
Q 18.109375 38.921875 18.109375 30.90625 
L 18.109375 0 
L 9.078125 0 
L 9.078125 75.984375 
L 18.109375 75.984375 
L 18.109375 46.1875 
Q 21.34375 51.125 25.703125 53.5625 
Q 30.078125 56 35.796875 56 
Q 45.21875 56 50.046875 50.171875 
Q 54.890625 44.34375 54.890625 33.015625 
z
" id="DejaVuSans-104"/>
      <path d="M 37.203125 26.21875 
Q 37.203125 19.234375 40.671875 15.25 
Q 44.140625 11.28125 50.203125 11.28125 
Q 56.203125 11.28125 59.640625 15.28125 
Q 63.09375 19.28125 63.09375 26.21875 
Q 63.09375 33.0625 59.578125 37.078125 
Q 56.0625 41.109375 50.09375 41.109375 
Q 44.1875 41.109375 40.6875 37.109375 
Q 37.203125 33.109375 37.203125 26.21875 
z
M 63.8125 11.625 
Q 60.890625 7.859375 57.109375 6.078125 
Q 53.328125 4.296875 48.296875 4.296875 
Q 39.890625 4.296875 34.640625 10.375 
Q 29.390625 16.453125 29.390625 26.21875 
Q 29.390625 35.984375 34.65625 42.078125 
Q 39.9375 48.1875 48.296875 48.1875 
Q 53.328125 48.1875 57.125 46.359375 
Q 60.9375 44.53125 63.8125 40.828125 
L 63.8125 47.21875 
L 70.796875 47.21875 
L 70.796875 11.28125 
Q 77.9375 12.359375 81.953125 17.796875 
Q 85.984375 23.25 85.984375 31.890625 
Q 85.984375 37.109375 84.4375 41.703125 
Q 82.90625 46.296875 79.78125 50.203125 
Q 74.703125 56.59375 67.40625 59.984375 
Q 60.109375 63.375 51.515625 63.375 
Q 45.515625 63.375 39.984375 61.78125 
Q 34.46875 60.203125 29.78125 57.078125 
Q 22.125 52.09375 17.796875 44.015625 
Q 13.484375 35.9375 13.484375 26.515625 
Q 13.484375 18.75 16.28125 11.953125 
Q 19.09375 5.171875 24.421875 0 
Q 29.546875 -5.078125 36.28125 -7.734375 
Q 43.015625 -10.40625 50.6875 -10.40625 
Q 56.984375 -10.40625 63.0625 -8.28125 
Q 69.140625 -6.15625 74.21875 -2.203125 
L 78.609375 -7.625 
Q 72.515625 -12.359375 65.3125 -14.875 
Q 58.109375 -17.390625 50.6875 -17.390625 
Q 41.65625 -17.390625 33.640625 -14.1875 
Q 25.640625 -10.984375 19.390625 -4.890625 
Q 13.140625 1.21875 9.859375 9.25 
Q 6.59375 17.28125 6.59375 26.515625 
Q 6.59375 35.40625 9.90625 43.453125 
Q 13.234375 51.515625 19.390625 57.625 
Q 25.6875 63.8125 33.9375 67.109375 
Q 42.1875 70.40625 51.421875 70.40625 
Q 61.765625 70.40625 70.625 66.15625 
Q 79.5 61.921875 85.5 54.109375 
Q 89.15625 49.3125 91.078125 43.703125 
Q 93.015625 38.09375 93.015625 32.078125 
Q 93.015625 19.234375 85.25 11.8125 
Q 77.484375 4.390625 63.8125 4.109375 
z
" id="DejaVuSans-64"/>
     </defs>
     <use xlink:href="#DejaVuSans-71"/>
     <use x="77.490234" xlink:href="#DejaVuSans-97"/>
     <use x="138.769531" xlink:href="#DejaVuSans-116"/>
     <use x="177.978516" xlink:href="#DejaVuSans-101"/>
     <use x="239.501953" xlink:href="#DejaVuSans-100"/>
     <use x="302.978516" xlink:href="#DejaVuSans-58"/>
     <use x="336.669922" xlink:href="#DejaVuSans-32"/>
     <use x="368.457031" xlink:href="#DejaVuSans-69"/>
     <use x="431.640625" xlink:href="#DejaVuSans-110"/>
     <use x="495.019531" xlink:href="#DejaVuSans-101"/>
     <use x="556.542969" xlink:href="#DejaVuSans-114"/>
     <use x="595.90625" xlink:href="#DejaVuSans-103"/>
     <use x="659.382812" xlink:href="#DejaVuSans-121"/>
     <use x="718.5625" xlink:href="#DejaVuSans-32"/>
     <use x="750.349609" xlink:href="#DejaVuSans-118"/>
     <use x="809.529297" xlink:href="#DejaVuSans-115"/>
     <use x="861.628906" xlink:href="#DejaVuSans-46"/>
     <use x="893.416016" xlink:href="#DejaVuSans-32"/>
     <use x="925.203125" xlink:href="#DejaVuSans-65"/>
     <use x="991.861328" xlink:href="#DejaVuSans-99"/>
     <use x="1046.841797" xlink:href="#DejaVuSans-99"/>
     <use x="1101.822266" xlink:href="#DejaVuSans-117"/>
     <use x="1165.201172" xlink:href="#DejaVuSans-114"/>
     <use x="1206.314453" xlink:href="#DejaVuSans-97"/>
     <use x="1267.59375" xlink:href="#DejaVuSans-99"/>
     <use x="1322.574219" xlink:href="#DejaVuSans-121"/>
     <use x="1381.753906" xlink:href="#DejaVuSans-32"/>
     <use x="1413.541016" xlink:href="#DejaVuSans-119"/>
     <use x="1495.328125" xlink:href="#DejaVuSans-105"/>
     <use x="1523.111328" xlink:href="#DejaVuSans-116"/>
     <use x="1562.320312" xlink:href="#DejaVuSans-104"/>
     <use x="1625.699219" xlink:href="#DejaVuSans-32"/>
     <use x="1657.486328" xlink:href="#DejaVuSans-49"/>
     <use x="1721.109375" xlink:href="#DejaVuSans-48"/>
     <use x="1784.732422" xlink:href="#DejaVuSans-48"/>
     <use x="1848.355469" xlink:href="#DejaVuSans-32"/>
     <use x="1880.142578" xlink:href="#DejaVuSans-85"/>
     <use x="1953.335938" xlink:href="#DejaVuSans-110"/>
     <use x="2016.714844" xlink:href="#DejaVuSans-105"/>
     <use x="2044.498047" xlink:href="#DejaVuSans-116"/>
     <use x="2083.707031" xlink:href="#DejaVuSans-115"/>
     <use x="2135.806641" xlink:href="#DejaVuSans-32"/>
     <use x="2167.59375" xlink:href="#DejaVuSans-64"/>
     <use x="2267.59375" xlink:href="#DejaVuSans-32"/>
     <use x="2299.380859" xlink:href="#DejaVuSans-48"/>
     <use x="2363.003906" xlink:href="#DejaVuSans-46"/>
     <use x="2394.791016" xlink:href="#DejaVuSans-51"/>
    </g>
   </g>
   <g id="legend_1">
    <g id="patch_7">
     <path d="M 799.660625 493 
L 1021.4 493 
Q 1025.8 493 1025.8 488.6 
L 1025.8 361.6325 
Q 1025.8 357.2325 1021.4 357.2325 
L 799.660625 357.2325 
Q 795.260625 357.2325 795.260625 361.6325 
L 795.260625 488.6 
Q 795.260625 493 799.660625 493 
z
" style="fill:#ffffff;opacity:0.8;stroke:#cccccc;stroke-linejoin:miter;"/>
    </g>
    <g id="line2d_60">
     <path d="M 804.060625 375.049062 
L 848.060625 375.049062 
" style="fill:none;stroke:#1f1f1f;stroke-linecap:square;stroke-width:5;"/>
    </g>
    <g id="line2d_61"/>
    <g id="text_18">
     <!-- Ungated: 1.0 -->
     <g transform="translate(865.660625 382.749062)scale(0.22 -0.22)">
      <use xlink:href="#DejaVuSans-85"/>
      <use x="73.193359" xlink:href="#DejaVuSans-110"/>
      <use x="136.572266" xlink:href="#DejaVuSans-103"/>
      <use x="200.048828" xlink:href="#DejaVuSans-97"/>
      <use x="261.328125" xlink:href="#DejaVuSans-116"/>
      <use x="300.537109" xlink:href="#DejaVuSans-101"/>
      <use x="362.060547" xlink:href="#DejaVuSans-100"/>
      <use x="425.537109" xlink:href="#DejaVuSans-58"/>
      <use x="459.228516" xlink:href="#DejaVuSans-32"/>
      <use x="491.015625" xlink:href="#DejaVuSans-49"/>
      <use x="554.638672" xlink:href="#DejaVuSans-46"/>
      <use x="586.425781" xlink:href="#DejaVuSans-48"/>
     </g>
    </g>
    <g id="line2d_62">
     <path d="M 804.060625 407.340937 
L 848.060625 407.340937 
" style="fill:none;stroke:#9e9e9e;stroke-linecap:square;stroke-width:5;"/>
    </g>
    <g id="line2d_63"/>
    <g id="text_19">
     <!-- Minimum: 1.0 -->
     <g transform="translate(865.660625 415.040937)scale(0.22 -0.22)">
      <defs>
       <path d="M 9.8125 72.90625 
L 24.515625 72.90625 
L 43.109375 23.296875 
L 61.8125 72.90625 
L 76.515625 72.90625 
L 76.515625 0 
L 66.890625 0 
L 66.890625 64.015625 
L 48.09375 14.015625 
L 38.1875 14.015625 
L 19.390625 64.015625 
L 19.390625 0 
L 9.8125 0 
z
" id="DejaVuSans-77"/>
       <path d="M 52 44.1875 
Q 55.375 50.25 60.0625 53.125 
Q 64.75 56 71.09375 56 
Q 79.640625 56 84.28125 50.015625 
Q 88.921875 44.046875 88.921875 33.015625 
L 88.921875 0 
L 79.890625 0 
L 79.890625 32.71875 
Q 79.890625 40.578125 77.09375 44.375 
Q 74.3125 48.1875 68.609375 48.1875 
Q 61.625 48.1875 57.5625 43.546875 
Q 53.515625 38.921875 53.515625 30.90625 
L 53.515625 0 
L 44.484375 0 
L 44.484375 32.71875 
Q 44.484375 40.625 41.703125 44.40625 
Q 38.921875 48.1875 33.109375 48.1875 
Q 26.21875 48.1875 22.15625 43.53125 
Q 18.109375 38.875 18.109375 30.90625 
L 18.109375 0 
L 9.078125 0 
L 9.078125 54.6875 
L 18.109375 54.6875 
L 18.109375 46.1875 
Q 21.1875 51.21875 25.484375 53.609375 
Q 29.78125 56 35.6875 56 
Q 41.65625 56 45.828125 52.96875 
Q 50 49.953125 52 44.1875 
z
" id="DejaVuSans-109"/>
      </defs>
      <use xlink:href="#DejaVuSans-77"/>
      <use x="86.279297" xlink:href="#DejaVuSans-105"/>
      <use x="114.0625" xlink:href="#DejaVuSans-110"/>
      <use x="177.441406" xlink:href="#DejaVuSans-105"/>
      <use x="205.224609" xlink:href="#DejaVuSans-109"/>
      <use x="302.636719" xlink:href="#DejaVuSans-117"/>
      <use x="366.015625" xlink:href="#DejaVuSans-109"/>
      <use x="463.427734" xlink:href="#DejaVuSans-58"/>
      <use x="497.119141" xlink:href="#DejaVuSans-32"/>
      <use x="528.90625" xlink:href="#DejaVuSans-49"/>
      <use x="592.529297" xlink:href="#DejaVuSans-46"/>
      <use x="624.316406" xlink:href="#DejaVuSans-48"/>
     </g>
    </g>
    <g id="line2d_64">
     <path d="M 804.060625 439.632812 
L 848.060625 439.632812 
" style="fill:none;stroke:#ff15ff;stroke-linecap:square;stroke-width:5;"/>
    </g>
    <g id="line2d_65"/>
    <g id="text_20">
     <!-- Gated: 0.3 -->
     <g transform="translate(865.660625 447.332812)scale(0.22 -0.22)">
      <use xlink:href="#DejaVuSans-71"/>
      <use x="77.490234" xlink:href="#DejaVuSans-97"/>
      <use x="138.769531" xlink:href="#DejaVuSans-116"/>
      <use x="177.978516" xlink:href="#DejaVuSans-101"/>
      <use x="239.501953" xlink:href="#DejaVuSans-100"/>
      <use x="302.978516" xlink:href="#DejaVuSans-58"/>
      <use x="336.669922" xlink:href="#DejaVuSans-32"/>
      <use x="368.457031" xlink:href="#DejaVuSans-48"/>
      <use x="432.080078" xlink:href="#DejaVuSans-46"/>
      <use x="463.867188" xlink:href="#DejaVuSans-51"/>
     </g>
    </g>
    <g id="line2d_66">
     <path d="M 804.060625 471.924688 
L 848.060625 471.924688 
" style="fill:none;stroke:#ffa0f0;stroke-linecap:square;stroke-width:5;"/>
    </g>
    <g id="line2d_67"/>
    <g id="text_21">
     <!-- Minimum: 0.3 -->
     <g transform="translate(865.660625 479.624687)scale(0.22 -0.22)">
      <use xlink:href="#DejaVuSans-77"/>
      <use x="86.279297" xlink:href="#DejaVuSans-105"/>
      <use x="114.0625" xlink:href="#DejaVuSans-110"/>
      <use x="177.441406" xlink:href="#DejaVuSans-105"/>
      <use x="205.224609" xlink:href="#DejaVuSans-109"/>
      <use x="302.636719" xlink:href="#DejaVuSans-117"/>
      <use x="366.015625" xlink:href="#DejaVuSans-109"/>
      <use x="463.427734" xlink:href="#DejaVuSans-58"/>
      <use x="497.119141" xlink:href="#DejaVuSans-32"/>
      <use x="528.90625" xlink:href="#DejaVuSans-48"/>
      <use x="592.529297" xlink:href="#DejaVuSans-46"/>
      <use x="624.316406" xlink:href="#DejaVuSans-51"/>
     </g>
    </g>
   </g>
  </g>
 </g>
 <defs>
  <clipPath id="p7a00543394">
   <rect height="434.88" width="892.8" x="144" y="69.12"/>
  </clipPath>
 </defs>
</svg>
