<?xml version="1.0" encoding="utf-8" standalone="no"?>
<!DOCTYPE svg PUBLIC "-//W3C//DTD SVG 1.1//EN"
  "http://www.w3.org/Graphics/SVG/1.1/DTD/svg11.dtd">
<!-- Created with matplotlib (https://matplotlib.org/) -->
<svg height="576pt" version="1.1" viewBox="0 0 1152 576" width="1152pt" xmlns="http://www.w3.org/2000/svg" xmlns:xlink="http://www.w3.org/1999/xlink">
 <metadata>
  <rdf:RDF xmlns:cc="http://creativecommons.org/ns#" xmlns:dc="http://purl.org/dc/elements/1.1/" xmlns:rdf="http://www.w3.org/1999/02/22-rdf-syntax-ns#">
   <cc:Work>
    <dc:type rdf:resource="http://purl.org/dc/dcmitype/StillImage"/>
    <dc:date>2021-09-12T15:18:34.202611</dc:date>
    <dc:format>image/svg+xml</dc:format>
    <dc:creator>
     <cc:Agent>
      <dc:title>Matplotlib v3.3.4, https://matplotlib.org/</dc:title>
     </cc:Agent>
    </dc:creator>
   </cc:Work>
  </rdf:RDF>
 </metadata>
 <defs>
  <style type="text/css">*{stroke-linecap:butt;stroke-linejoin:round;}</style>
 </defs>
 <g id="figure_1">
  <g id="patch_1">
   <path d="M 0 576 
L 1152 576 
L 1152 0 
L 0 0 
z
" style="fill:#ffffff;"/>
  </g>
  <g id="axes_1">
   <g id="patch_2">
    <path d="M 144 504 
L 1036.8 504 
L 1036.8 69.12 
L 144 69.12 
z
" style="fill:#ffffff;"/>
   </g>
   <g id="matplotlib.axis_1">
    <g id="xtick_1">
     <g id="line2d_1">
      <defs>
       <path d="M 0 0 
L 0 3.5 
" id="me2a7b40cd9" style="stroke:#000000;stroke-width:0.8;"/>
      </defs>
      <g>
       <use style="stroke:#000000;stroke-width:0.8;" x="144" xlink:href="#me2a7b40cd9" y="504"/>
      </g>
     </g>
     <g id="text_1">
      <!-- 84 -->
      <g transform="translate(128.73 529.23625)scale(0.24 -0.24)">
       <defs>
        <path d="M 31.78125 34.625 
Q 24.75 34.625 20.71875 30.859375 
Q 16.703125 27.09375 16.703125 20.515625 
Q 16.703125 13.921875 20.71875 10.15625 
Q 24.75 6.390625 31.78125 6.390625 
Q 38.8125 6.390625 42.859375 10.171875 
Q 46.921875 13.96875 46.921875 20.515625 
Q 46.921875 27.09375 42.890625 30.859375 
Q 38.875 34.625 31.78125 34.625 
z
M 21.921875 38.8125 
Q 15.578125 40.375 12.03125 44.71875 
Q 8.5 49.078125 8.5 55.328125 
Q 8.5 64.0625 14.71875 69.140625 
Q 20.953125 74.21875 31.78125 74.21875 
Q 42.671875 74.21875 48.875 69.140625 
Q 55.078125 64.0625 55.078125 55.328125 
Q 55.078125 49.078125 51.53125 44.71875 
Q 48 40.375 41.703125 38.8125 
Q 48.828125 37.15625 52.796875 32.3125 
Q 56.78125 27.484375 56.78125 20.515625 
Q 56.78125 9.90625 50.3125 4.234375 
Q 43.84375 -1.421875 31.78125 -1.421875 
Q 19.734375 -1.421875 13.25 4.234375 
Q 6.78125 9.90625 6.78125 20.515625 
Q 6.78125 27.484375 10.78125 32.3125 
Q 14.796875 37.15625 21.921875 38.8125 
z
M 18.3125 54.390625 
Q 18.3125 48.734375 21.84375 45.5625 
Q 25.390625 42.390625 31.78125 42.390625 
Q 38.140625 42.390625 41.71875 45.5625 
Q 45.3125 48.734375 45.3125 54.390625 
Q 45.3125 60.0625 41.71875 63.234375 
Q 38.140625 66.40625 31.78125 66.40625 
Q 25.390625 66.40625 21.84375 63.234375 
Q 18.3125 60.0625 18.3125 54.390625 
z
" id="DejaVuSans-56"/>
        <path d="M 37.796875 64.3125 
L 12.890625 25.390625 
L 37.796875 25.390625 
z
M 35.203125 72.90625 
L 47.609375 72.90625 
L 47.609375 25.390625 
L 58.015625 25.390625 
L 58.015625 17.1875 
L 47.609375 17.1875 
L 47.609375 0 
L 37.796875 0 
L 37.796875 17.1875 
L 4.890625 17.1875 
L 4.890625 26.703125 
z
" id="DejaVuSans-52"/>
       </defs>
       <use xlink:href="#DejaVuSans-56"/>
       <use x="63.623047" xlink:href="#DejaVuSans-52"/>
      </g>
     </g>
    </g>
    <g id="xtick_2">
     <g id="line2d_2">
      <g>
       <use style="stroke:#000000;stroke-width:0.8;" x="255.6" xlink:href="#me2a7b40cd9" y="504"/>
      </g>
     </g>
     <g id="text_2">
      <!-- 86 -->
      <g transform="translate(240.33 529.23625)scale(0.24 -0.24)">
       <defs>
        <path d="M 33.015625 40.375 
Q 26.375 40.375 22.484375 35.828125 
Q 18.609375 31.296875 18.609375 23.390625 
Q 18.609375 15.53125 22.484375 10.953125 
Q 26.375 6.390625 33.015625 6.390625 
Q 39.65625 6.390625 43.53125 10.953125 
Q 47.40625 15.53125 47.40625 23.390625 
Q 47.40625 31.296875 43.53125 35.828125 
Q 39.65625 40.375 33.015625 40.375 
z
M 52.59375 71.296875 
L 52.59375 62.3125 
Q 48.875 64.0625 45.09375 64.984375 
Q 41.3125 65.921875 37.59375 65.921875 
Q 27.828125 65.921875 22.671875 59.328125 
Q 17.53125 52.734375 16.796875 39.40625 
Q 19.671875 43.65625 24.015625 45.921875 
Q 28.375 48.1875 33.59375 48.1875 
Q 44.578125 48.1875 50.953125 41.515625 
Q 57.328125 34.859375 57.328125 23.390625 
Q 57.328125 12.15625 50.6875 5.359375 
Q 44.046875 -1.421875 33.015625 -1.421875 
Q 20.359375 -1.421875 13.671875 8.265625 
Q 6.984375 17.96875 6.984375 36.375 
Q 6.984375 53.65625 15.1875 63.9375 
Q 23.390625 74.21875 37.203125 74.21875 
Q 40.921875 74.21875 44.703125 73.484375 
Q 48.484375 72.75 52.59375 71.296875 
z
" id="DejaVuSans-54"/>
       </defs>
       <use xlink:href="#DejaVuSans-56"/>
       <use x="63.623047" xlink:href="#DejaVuSans-54"/>
      </g>
     </g>
    </g>
    <g id="xtick_3">
     <g id="line2d_3">
      <g>
       <use style="stroke:#000000;stroke-width:0.8;" x="367.2" xlink:href="#me2a7b40cd9" y="504"/>
      </g>
     </g>
     <g id="text_3">
      <!-- 88 -->
      <g transform="translate(351.93 529.23625)scale(0.24 -0.24)">
       <use xlink:href="#DejaVuSans-56"/>
       <use x="63.623047" xlink:href="#DejaVuSans-56"/>
      </g>
     </g>
    </g>
    <g id="xtick_4">
     <g id="line2d_4">
      <g>
       <use style="stroke:#000000;stroke-width:0.8;" x="478.8" xlink:href="#me2a7b40cd9" y="504"/>
      </g>
     </g>
     <g id="text_4">
      <!-- 90 -->
      <g transform="translate(463.53 529.23625)scale(0.24 -0.24)">
       <defs>
        <path d="M 10.984375 1.515625 
L 10.984375 10.5 
Q 14.703125 8.734375 18.5 7.8125 
Q 22.3125 6.890625 25.984375 6.890625 
Q 35.75 6.890625 40.890625 13.453125 
Q 46.046875 20.015625 46.78125 33.40625 
Q 43.953125 29.203125 39.59375 26.953125 
Q 35.25 24.703125 29.984375 24.703125 
Q 19.046875 24.703125 12.671875 31.3125 
Q 6.296875 37.9375 6.296875 49.421875 
Q 6.296875 60.640625 12.9375 67.421875 
Q 19.578125 74.21875 30.609375 74.21875 
Q 43.265625 74.21875 49.921875 64.515625 
Q 56.59375 54.828125 56.59375 36.375 
Q 56.59375 19.140625 48.40625 8.859375 
Q 40.234375 -1.421875 26.421875 -1.421875 
Q 22.703125 -1.421875 18.890625 -0.6875 
Q 15.09375 0.046875 10.984375 1.515625 
z
M 30.609375 32.421875 
Q 37.25 32.421875 41.125 36.953125 
Q 45.015625 41.5 45.015625 49.421875 
Q 45.015625 57.28125 41.125 61.84375 
Q 37.25 66.40625 30.609375 66.40625 
Q 23.96875 66.40625 20.09375 61.84375 
Q 16.21875 57.28125 16.21875 49.421875 
Q 16.21875 41.5 20.09375 36.953125 
Q 23.96875 32.421875 30.609375 32.421875 
z
" id="DejaVuSans-57"/>
        <path d="M 31.78125 66.40625 
Q 24.171875 66.40625 20.328125 58.90625 
Q 16.5 51.421875 16.5 36.375 
Q 16.5 21.390625 20.328125 13.890625 
Q 24.171875 6.390625 31.78125 6.390625 
Q 39.453125 6.390625 43.28125 13.890625 
Q 47.125 21.390625 47.125 36.375 
Q 47.125 51.421875 43.28125 58.90625 
Q 39.453125 66.40625 31.78125 66.40625 
z
M 31.78125 74.21875 
Q 44.046875 74.21875 50.515625 64.515625 
Q 56.984375 54.828125 56.984375 36.375 
Q 56.984375 17.96875 50.515625 8.265625 
Q 44.046875 -1.421875 31.78125 -1.421875 
Q 19.53125 -1.421875 13.0625 8.265625 
Q 6.59375 17.96875 6.59375 36.375 
Q 6.59375 54.828125 13.0625 64.515625 
Q 19.53125 74.21875 31.78125 74.21875 
z
" id="DejaVuSans-48"/>
       </defs>
       <use xlink:href="#DejaVuSans-57"/>
       <use x="63.623047" xlink:href="#DejaVuSans-48"/>
      </g>
     </g>
    </g>
    <g id="xtick_5">
     <g id="line2d_5">
      <g>
       <use style="stroke:#000000;stroke-width:0.8;" x="590.4" xlink:href="#me2a7b40cd9" y="504"/>
      </g>
     </g>
     <g id="text_5">
      <!-- 92 -->
      <g transform="translate(575.13 529.23625)scale(0.24 -0.24)">
       <defs>
        <path d="M 19.1875 8.296875 
L 53.609375 8.296875 
L 53.609375 0 
L 7.328125 0 
L 7.328125 8.296875 
Q 12.9375 14.109375 22.625 23.890625 
Q 32.328125 33.6875 34.8125 36.53125 
Q 39.546875 41.84375 41.421875 45.53125 
Q 43.3125 49.21875 43.3125 52.78125 
Q 43.3125 58.59375 39.234375 62.25 
Q 35.15625 65.921875 28.609375 65.921875 
Q 23.96875 65.921875 18.8125 64.3125 
Q 13.671875 62.703125 7.8125 59.421875 
L 7.8125 69.390625 
Q 13.765625 71.78125 18.9375 73 
Q 24.125 74.21875 28.421875 74.21875 
Q 39.75 74.21875 46.484375 68.546875 
Q 53.21875 62.890625 53.21875 53.421875 
Q 53.21875 48.921875 51.53125 44.890625 
Q 49.859375 40.875 45.40625 35.40625 
Q 44.1875 33.984375 37.640625 27.21875 
Q 31.109375 20.453125 19.1875 8.296875 
z
" id="DejaVuSans-50"/>
       </defs>
       <use xlink:href="#DejaVuSans-57"/>
       <use x="63.623047" xlink:href="#DejaVuSans-50"/>
      </g>
     </g>
    </g>
    <g id="xtick_6">
     <g id="line2d_6">
      <g>
       <use style="stroke:#000000;stroke-width:0.8;" x="702" xlink:href="#me2a7b40cd9" y="504"/>
      </g>
     </g>
     <g id="text_6">
      <!-- 94 -->
      <g transform="translate(686.73 529.23625)scale(0.24 -0.24)">
       <use xlink:href="#DejaVuSans-57"/>
       <use x="63.623047" xlink:href="#DejaVuSans-52"/>
      </g>
     </g>
    </g>
    <g id="xtick_7">
     <g id="line2d_7">
      <g>
       <use style="stroke:#000000;stroke-width:0.8;" x="813.6" xlink:href="#me2a7b40cd9" y="504"/>
      </g>
     </g>
     <g id="text_7">
      <!-- 96 -->
      <g transform="translate(798.33 529.23625)scale(0.24 -0.24)">
       <use xlink:href="#DejaVuSans-57"/>
       <use x="63.623047" xlink:href="#DejaVuSans-54"/>
      </g>
     </g>
    </g>
    <g id="xtick_8">
     <g id="line2d_8">
      <g>
       <use style="stroke:#000000;stroke-width:0.8;" x="925.2" xlink:href="#me2a7b40cd9" y="504"/>
      </g>
     </g>
     <g id="text_8">
      <!-- 98 -->
      <g transform="translate(909.93 529.23625)scale(0.24 -0.24)">
       <use xlink:href="#DejaVuSans-57"/>
       <use x="63.623047" xlink:href="#DejaVuSans-56"/>
      </g>
     </g>
    </g>
    <g id="xtick_9">
     <g id="line2d_9">
      <g>
       <use style="stroke:#000000;stroke-width:0.8;" x="1036.8" xlink:href="#me2a7b40cd9" y="504"/>
      </g>
     </g>
     <g id="text_9">
      <!-- 100 -->
      <g transform="translate(1013.895 529.23625)scale(0.24 -0.24)">
       <defs>
        <path d="M 12.40625 8.296875 
L 28.515625 8.296875 
L 28.515625 63.921875 
L 10.984375 60.40625 
L 10.984375 69.390625 
L 28.421875 72.90625 
L 38.28125 72.90625 
L 38.28125 8.296875 
L 54.390625 8.296875 
L 54.390625 0 
L 12.40625 0 
z
" id="DejaVuSans-49"/>
       </defs>
       <use xlink:href="#DejaVuSans-49"/>
       <use x="63.623047" xlink:href="#DejaVuSans-48"/>
       <use x="127.246094" xlink:href="#DejaVuSans-48"/>
      </g>
     </g>
    </g>
    <g id="text_10">
     <!-- Accuracy /% -->
     <g transform="translate(504.013437 559.503125)scale(0.28 -0.28)">
      <defs>
       <path d="M 34.1875 63.1875 
L 20.796875 26.90625 
L 47.609375 26.90625 
z
M 28.609375 72.90625 
L 39.796875 72.90625 
L 67.578125 0 
L 57.328125 0 
L 50.6875 18.703125 
L 17.828125 18.703125 
L 11.1875 0 
L 0.78125 0 
z
" id="DejaVuSans-65"/>
       <path d="M 48.78125 52.59375 
L 48.78125 44.1875 
Q 44.96875 46.296875 41.140625 47.34375 
Q 37.3125 48.390625 33.40625 48.390625 
Q 24.65625 48.390625 19.8125 42.84375 
Q 14.984375 37.3125 14.984375 27.296875 
Q 14.984375 17.28125 19.8125 11.734375 
Q 24.65625 6.203125 33.40625 6.203125 
Q 37.3125 6.203125 41.140625 7.25 
Q 44.96875 8.296875 48.78125 10.40625 
L 48.78125 2.09375 
Q 45.015625 0.34375 40.984375 -0.53125 
Q 36.96875 -1.421875 32.421875 -1.421875 
Q 20.0625 -1.421875 12.78125 6.34375 
Q 5.515625 14.109375 5.515625 27.296875 
Q 5.515625 40.671875 12.859375 48.328125 
Q 20.21875 56 33.015625 56 
Q 37.15625 56 41.109375 55.140625 
Q 45.0625 54.296875 48.78125 52.59375 
z
" id="DejaVuSans-99"/>
       <path d="M 8.5 21.578125 
L 8.5 54.6875 
L 17.484375 54.6875 
L 17.484375 21.921875 
Q 17.484375 14.15625 20.5 10.265625 
Q 23.53125 6.390625 29.59375 6.390625 
Q 36.859375 6.390625 41.078125 11.03125 
Q 45.3125 15.671875 45.3125 23.6875 
L 45.3125 54.6875 
L 54.296875 54.6875 
L 54.296875 0 
L 45.3125 0 
L 45.3125 8.40625 
Q 42.046875 3.421875 37.71875 1 
Q 33.40625 -1.421875 27.6875 -1.421875 
Q 18.265625 -1.421875 13.375 4.4375 
Q 8.5 10.296875 8.5 21.578125 
z
M 31.109375 56 
z
" id="DejaVuSans-117"/>
       <path d="M 41.109375 46.296875 
Q 39.59375 47.171875 37.8125 47.578125 
Q 36.03125 48 33.890625 48 
Q 26.265625 48 22.1875 43.046875 
Q 18.109375 38.09375 18.109375 28.8125 
L 18.109375 0 
L 9.078125 0 
L 9.078125 54.6875 
L 18.109375 54.6875 
L 18.109375 46.1875 
Q 20.953125 51.171875 25.484375 53.578125 
Q 30.03125 56 36.53125 56 
Q 37.453125 56 38.578125 55.875 
Q 39.703125 55.765625 41.0625 55.515625 
z
" id="DejaVuSans-114"/>
       <path d="M 34.28125 27.484375 
Q 23.390625 27.484375 19.1875 25 
Q 14.984375 22.515625 14.984375 16.5 
Q 14.984375 11.71875 18.140625 8.90625 
Q 21.296875 6.109375 26.703125 6.109375 
Q 34.1875 6.109375 38.703125 11.40625 
Q 43.21875 16.703125 43.21875 25.484375 
L 43.21875 27.484375 
z
M 52.203125 31.203125 
L 52.203125 0 
L 43.21875 0 
L 43.21875 8.296875 
Q 40.140625 3.328125 35.546875 0.953125 
Q 30.953125 -1.421875 24.3125 -1.421875 
Q 15.921875 -1.421875 10.953125 3.296875 
Q 6 8.015625 6 15.921875 
Q 6 25.140625 12.171875 29.828125 
Q 18.359375 34.515625 30.609375 34.515625 
L 43.21875 34.515625 
L 43.21875 35.40625 
Q 43.21875 41.609375 39.140625 45 
Q 35.0625 48.390625 27.6875 48.390625 
Q 23 48.390625 18.546875 47.265625 
Q 14.109375 46.140625 10.015625 43.890625 
L 10.015625 52.203125 
Q 14.9375 54.109375 19.578125 55.046875 
Q 24.21875 56 28.609375 56 
Q 40.484375 56 46.34375 49.84375 
Q 52.203125 43.703125 52.203125 31.203125 
z
" id="DejaVuSans-97"/>
       <path d="M 32.171875 -5.078125 
Q 28.375 -14.84375 24.75 -17.8125 
Q 21.140625 -20.796875 15.09375 -20.796875 
L 7.90625 -20.796875 
L 7.90625 -13.28125 
L 13.1875 -13.28125 
Q 16.890625 -13.28125 18.9375 -11.515625 
Q 21 -9.765625 23.484375 -3.21875 
L 25.09375 0.875 
L 2.984375 54.6875 
L 12.5 54.6875 
L 29.59375 11.921875 
L 46.6875 54.6875 
L 56.203125 54.6875 
z
" id="DejaVuSans-121"/>
       <path id="DejaVuSans-32"/>
       <path d="M 25.390625 72.90625 
L 33.6875 72.90625 
L 8.296875 -9.28125 
L 0 -9.28125 
z
" id="DejaVuSans-47"/>
       <path d="M 72.703125 32.078125 
Q 68.453125 32.078125 66.03125 28.46875 
Q 63.625 24.859375 63.625 18.40625 
Q 63.625 12.0625 66.03125 8.421875 
Q 68.453125 4.78125 72.703125 4.78125 
Q 76.859375 4.78125 79.265625 8.421875 
Q 81.6875 12.0625 81.6875 18.40625 
Q 81.6875 24.8125 79.265625 28.4375 
Q 76.859375 32.078125 72.703125 32.078125 
z
M 72.703125 38.28125 
Q 80.421875 38.28125 84.953125 32.90625 
Q 89.5 27.546875 89.5 18.40625 
Q 89.5 9.28125 84.9375 3.921875 
Q 80.375 -1.421875 72.703125 -1.421875 
Q 64.890625 -1.421875 60.34375 3.921875 
Q 55.8125 9.28125 55.8125 18.40625 
Q 55.8125 27.59375 60.375 32.9375 
Q 64.9375 38.28125 72.703125 38.28125 
z
M 22.3125 68.015625 
Q 18.109375 68.015625 15.6875 64.375 
Q 13.28125 60.75 13.28125 54.390625 
Q 13.28125 47.953125 15.671875 44.328125 
Q 18.0625 40.71875 22.3125 40.71875 
Q 26.5625 40.71875 28.96875 44.328125 
Q 31.390625 47.953125 31.390625 54.390625 
Q 31.390625 60.6875 28.953125 64.34375 
Q 26.515625 68.015625 22.3125 68.015625 
z
M 66.40625 74.21875 
L 74.21875 74.21875 
L 28.609375 -1.421875 
L 20.796875 -1.421875 
z
M 22.3125 74.21875 
Q 30.03125 74.21875 34.609375 68.875 
Q 39.203125 63.53125 39.203125 54.390625 
Q 39.203125 45.171875 34.640625 39.84375 
Q 30.078125 34.515625 22.3125 34.515625 
Q 14.546875 34.515625 10.03125 39.859375 
Q 5.515625 45.21875 5.515625 54.390625 
Q 5.515625 63.484375 10.046875 68.84375 
Q 14.59375 74.21875 22.3125 74.21875 
z
" id="DejaVuSans-37"/>
      </defs>
      <use xlink:href="#DejaVuSans-65"/>
      <use x="66.658203" xlink:href="#DejaVuSans-99"/>
      <use x="121.638672" xlink:href="#DejaVuSans-99"/>
      <use x="176.619141" xlink:href="#DejaVuSans-117"/>
      <use x="239.998047" xlink:href="#DejaVuSans-114"/>
      <use x="281.111328" xlink:href="#DejaVuSans-97"/>
      <use x="342.390625" xlink:href="#DejaVuSans-99"/>
      <use x="397.371094" xlink:href="#DejaVuSans-121"/>
      <use x="456.550781" xlink:href="#DejaVuSans-32"/>
      <use x="488.337891" xlink:href="#DejaVuSans-47"/>
      <use x="522.029297" xlink:href="#DejaVuSans-37"/>
     </g>
    </g>
   </g>
   <g id="matplotlib.axis_2">
    <g id="ytick_1">
     <g id="line2d_10">
      <defs>
       <path d="M 0 0 
L -3.5 0 
" id="m752c243cf2" style="stroke:#000000;stroke-width:0.8;"/>
      </defs>
      <g>
       <use style="stroke:#000000;stroke-width:0.8;" x="144" xlink:href="#m752c243cf2" y="444.362283"/>
      </g>
     </g>
     <g id="text_11">
      <!-- $\mathdefault{10^{1}}$ -->
      <g transform="translate(94.76 453.480408)scale(0.24 -0.24)">
       <use transform="translate(0 0.684375)" xlink:href="#DejaVuSans-49"/>
       <use transform="translate(63.623047 0.684375)" xlink:href="#DejaVuSans-48"/>
       <use transform="translate(128.203125 38.965625)scale(0.7)" xlink:href="#DejaVuSans-49"/>
      </g>
     </g>
    </g>
    <g id="ytick_2">
     <g id="line2d_11">
      <g>
       <use style="stroke:#000000;stroke-width:0.8;" x="144" xlink:href="#m752c243cf2" y="359.04"/>
      </g>
     </g>
     <g id="text_12">
      <!-- $\mathdefault{10^{2}}$ -->
      <g transform="translate(94.76 368.158125)scale(0.24 -0.24)">
       <use transform="translate(0 0.765625)" xlink:href="#DejaVuSans-49"/>
       <use transform="translate(63.623047 0.765625)" xlink:href="#DejaVuSans-48"/>
       <use transform="translate(128.203125 39.046875)scale(0.7)" xlink:href="#DejaVuSans-50"/>
      </g>
     </g>
    </g>
    <g id="ytick_3">
     <g id="line2d_12">
      <g>
       <use style="stroke:#000000;stroke-width:0.8;" x="144" xlink:href="#m752c243cf2" y="273.717717"/>
      </g>
     </g>
     <g id="text_13">
      <!-- $\mathdefault{10^{3}}$ -->
      <g transform="translate(94.76 282.835842)scale(0.24 -0.24)">
       <defs>
        <path d="M 40.578125 39.3125 
Q 47.65625 37.796875 51.625 33 
Q 55.609375 28.21875 55.609375 21.1875 
Q 55.609375 10.40625 48.1875 4.484375 
Q 40.765625 -1.421875 27.09375 -1.421875 
Q 22.515625 -1.421875 17.65625 -0.515625 
Q 12.796875 0.390625 7.625 2.203125 
L 7.625 11.71875 
Q 11.71875 9.328125 16.59375 8.109375 
Q 21.484375 6.890625 26.8125 6.890625 
Q 36.078125 6.890625 40.9375 10.546875 
Q 45.796875 14.203125 45.796875 21.1875 
Q 45.796875 27.640625 41.28125 31.265625 
Q 36.765625 34.90625 28.71875 34.90625 
L 20.21875 34.90625 
L 20.21875 43.015625 
L 29.109375 43.015625 
Q 36.375 43.015625 40.234375 45.921875 
Q 44.09375 48.828125 44.09375 54.296875 
Q 44.09375 59.90625 40.109375 62.90625 
Q 36.140625 65.921875 28.71875 65.921875 
Q 24.65625 65.921875 20.015625 65.03125 
Q 15.375 64.15625 9.8125 62.3125 
L 9.8125 71.09375 
Q 15.4375 72.65625 20.34375 73.4375 
Q 25.25 74.21875 29.59375 74.21875 
Q 40.828125 74.21875 47.359375 69.109375 
Q 53.90625 64.015625 53.90625 55.328125 
Q 53.90625 49.265625 50.4375 45.09375 
Q 46.96875 40.921875 40.578125 39.3125 
z
" id="DejaVuSans-51"/>
       </defs>
       <use transform="translate(0 0.765625)" xlink:href="#DejaVuSans-49"/>
       <use transform="translate(63.623047 0.765625)" xlink:href="#DejaVuSans-48"/>
       <use transform="translate(128.203125 39.046875)scale(0.7)" xlink:href="#DejaVuSans-51"/>
      </g>
     </g>
    </g>
    <g id="ytick_4">
     <g id="line2d_13">
      <g>
       <use style="stroke:#000000;stroke-width:0.8;" x="144" xlink:href="#m752c243cf2" y="188.395433"/>
      </g>
     </g>
     <g id="text_14">
      <!-- $\mathdefault{10^{4}}$ -->
      <g transform="translate(94.76 197.513558)scale(0.24 -0.24)">
       <use transform="translate(0 0.684375)" xlink:href="#DejaVuSans-49"/>
       <use transform="translate(63.623047 0.684375)" xlink:href="#DejaVuSans-48"/>
       <use transform="translate(128.203125 38.965625)scale(0.7)" xlink:href="#DejaVuSans-52"/>
      </g>
     </g>
    </g>
    <g id="ytick_5">
     <g id="line2d_14">
      <g>
       <use style="stroke:#000000;stroke-width:0.8;" x="144" xlink:href="#m752c243cf2" y="103.07315"/>
      </g>
     </g>
     <g id="text_15">
      <!-- $\mathdefault{10^{5}}$ -->
      <g transform="translate(94.76 112.191275)scale(0.24 -0.24)">
       <defs>
        <path d="M 10.796875 72.90625 
L 49.515625 72.90625 
L 49.515625 64.59375 
L 19.828125 64.59375 
L 19.828125 46.734375 
Q 21.96875 47.46875 24.109375 47.828125 
Q 26.265625 48.1875 28.421875 48.1875 
Q 40.625 48.1875 47.75 41.5 
Q 54.890625 34.8125 54.890625 23.390625 
Q 54.890625 11.625 47.5625 5.09375 
Q 40.234375 -1.421875 26.90625 -1.421875 
Q 22.3125 -1.421875 17.546875 -0.640625 
Q 12.796875 0.140625 7.71875 1.703125 
L 7.71875 11.625 
Q 12.109375 9.234375 16.796875 8.0625 
Q 21.484375 6.890625 26.703125 6.890625 
Q 35.15625 6.890625 40.078125 11.328125 
Q 45.015625 15.765625 45.015625 23.390625 
Q 45.015625 31 40.078125 35.4375 
Q 35.15625 39.890625 26.703125 39.890625 
Q 22.75 39.890625 18.8125 39.015625 
Q 14.890625 38.140625 10.796875 36.28125 
z
" id="DejaVuSans-53"/>
       </defs>
       <use transform="translate(0 0.684375)" xlink:href="#DejaVuSans-49"/>
       <use transform="translate(63.623047 0.684375)" xlink:href="#DejaVuSans-48"/>
       <use transform="translate(128.203125 38.965625)scale(0.7)" xlink:href="#DejaVuSans-53"/>
      </g>
     </g>
    </g>
    <g id="ytick_6">
     <g id="line2d_15">
      <defs>
       <path d="M 0 0 
L -2 0 
" id="m723922ea6f" style="stroke:#000000;stroke-width:0.6;"/>
      </defs>
      <g>
       <use style="stroke:#000000;stroke-width:0.6;" x="144" xlink:href="#m723922ea6f" y="504"/>
      </g>
     </g>
    </g>
    <g id="ytick_7">
     <g id="line2d_16">
      <g>
       <use style="stroke:#000000;stroke-width:0.6;" x="144" xlink:href="#m723922ea6f" y="488.975492"/>
      </g>
     </g>
    </g>
    <g id="ytick_8">
     <g id="line2d_17">
      <g>
       <use style="stroke:#000000;stroke-width:0.6;" x="144" xlink:href="#m723922ea6f" y="478.315433"/>
      </g>
     </g>
    </g>
    <g id="ytick_9">
     <g id="line2d_18">
      <g>
       <use style="stroke:#000000;stroke-width:0.6;" x="144" xlink:href="#m723922ea6f" y="470.04685"/>
      </g>
     </g>
    </g>
    <g id="ytick_10">
     <g id="line2d_19">
      <g>
       <use style="stroke:#000000;stroke-width:0.6;" x="144" xlink:href="#m723922ea6f" y="463.290925"/>
      </g>
     </g>
    </g>
    <g id="ytick_11">
     <g id="line2d_20">
      <g>
       <use style="stroke:#000000;stroke-width:0.6;" x="144" xlink:href="#m723922ea6f" y="457.578872"/>
      </g>
     </g>
    </g>
    <g id="ytick_12">
     <g id="line2d_21">
      <g>
       <use style="stroke:#000000;stroke-width:0.6;" x="144" xlink:href="#m723922ea6f" y="452.630867"/>
      </g>
     </g>
    </g>
    <g id="ytick_13">
     <g id="line2d_22">
      <g>
       <use style="stroke:#000000;stroke-width:0.6;" x="144" xlink:href="#m723922ea6f" y="448.266417"/>
      </g>
     </g>
    </g>
    <g id="ytick_14">
     <g id="line2d_23">
      <g>
       <use style="stroke:#000000;stroke-width:0.6;" x="144" xlink:href="#m723922ea6f" y="418.677717"/>
      </g>
     </g>
    </g>
    <g id="ytick_15">
     <g id="line2d_24">
      <g>
       <use style="stroke:#000000;stroke-width:0.6;" x="144" xlink:href="#m723922ea6f" y="403.653208"/>
      </g>
     </g>
    </g>
    <g id="ytick_16">
     <g id="line2d_25">
      <g>
       <use style="stroke:#000000;stroke-width:0.6;" x="144" xlink:href="#m723922ea6f" y="392.99315"/>
      </g>
     </g>
    </g>
    <g id="ytick_17">
     <g id="line2d_26">
      <g>
       <use style="stroke:#000000;stroke-width:0.6;" x="144" xlink:href="#m723922ea6f" y="384.724567"/>
      </g>
     </g>
    </g>
    <g id="ytick_18">
     <g id="line2d_27">
      <g>
       <use style="stroke:#000000;stroke-width:0.6;" x="144" xlink:href="#m723922ea6f" y="377.968642"/>
      </g>
     </g>
    </g>
    <g id="ytick_19">
     <g id="line2d_28">
      <g>
       <use style="stroke:#000000;stroke-width:0.6;" x="144" xlink:href="#m723922ea6f" y="372.256589"/>
      </g>
     </g>
    </g>
    <g id="ytick_20">
     <g id="line2d_29">
      <g>
       <use style="stroke:#000000;stroke-width:0.6;" x="144" xlink:href="#m723922ea6f" y="367.308584"/>
      </g>
     </g>
    </g>
    <g id="ytick_21">
     <g id="line2d_30">
      <g>
       <use style="stroke:#000000;stroke-width:0.6;" x="144" xlink:href="#m723922ea6f" y="362.944134"/>
      </g>
     </g>
    </g>
    <g id="ytick_22">
     <g id="line2d_31">
      <g>
       <use style="stroke:#000000;stroke-width:0.6;" x="144" xlink:href="#m723922ea6f" y="333.355433"/>
      </g>
     </g>
    </g>
    <g id="ytick_23">
     <g id="line2d_32">
      <g>
       <use style="stroke:#000000;stroke-width:0.6;" x="144" xlink:href="#m723922ea6f" y="318.330925"/>
      </g>
     </g>
    </g>
    <g id="ytick_24">
     <g id="line2d_33">
      <g>
       <use style="stroke:#000000;stroke-width:0.6;" x="144" xlink:href="#m723922ea6f" y="307.670867"/>
      </g>
     </g>
    </g>
    <g id="ytick_25">
     <g id="line2d_34">
      <g>
       <use style="stroke:#000000;stroke-width:0.6;" x="144" xlink:href="#m723922ea6f" y="299.402283"/>
      </g>
     </g>
    </g>
    <g id="ytick_26">
     <g id="line2d_35">
      <g>
       <use style="stroke:#000000;stroke-width:0.6;" x="144" xlink:href="#m723922ea6f" y="292.646359"/>
      </g>
     </g>
    </g>
    <g id="ytick_27">
     <g id="line2d_36">
      <g>
       <use style="stroke:#000000;stroke-width:0.6;" x="144" xlink:href="#m723922ea6f" y="286.934306"/>
      </g>
     </g>
    </g>
    <g id="ytick_28">
     <g id="line2d_37">
      <g>
       <use style="stroke:#000000;stroke-width:0.6;" x="144" xlink:href="#m723922ea6f" y="281.9863"/>
      </g>
     </g>
    </g>
    <g id="ytick_29">
     <g id="line2d_38">
      <g>
       <use style="stroke:#000000;stroke-width:0.6;" x="144" xlink:href="#m723922ea6f" y="277.62185"/>
      </g>
     </g>
    </g>
    <g id="ytick_30">
     <g id="line2d_39">
      <g>
       <use style="stroke:#000000;stroke-width:0.6;" x="144" xlink:href="#m723922ea6f" y="248.03315"/>
      </g>
     </g>
    </g>
    <g id="ytick_31">
     <g id="line2d_40">
      <g>
       <use style="stroke:#000000;stroke-width:0.6;" x="144" xlink:href="#m723922ea6f" y="233.008642"/>
      </g>
     </g>
    </g>
    <g id="ytick_32">
     <g id="line2d_41">
      <g>
       <use style="stroke:#000000;stroke-width:0.6;" x="144" xlink:href="#m723922ea6f" y="222.348584"/>
      </g>
     </g>
    </g>
    <g id="ytick_33">
     <g id="line2d_42">
      <g>
       <use style="stroke:#000000;stroke-width:0.6;" x="144" xlink:href="#m723922ea6f" y="214.08"/>
      </g>
     </g>
    </g>
    <g id="ytick_34">
     <g id="line2d_43">
      <g>
       <use style="stroke:#000000;stroke-width:0.6;" x="144" xlink:href="#m723922ea6f" y="207.324075"/>
      </g>
     </g>
    </g>
    <g id="ytick_35">
     <g id="line2d_44">
      <g>
       <use style="stroke:#000000;stroke-width:0.6;" x="144" xlink:href="#m723922ea6f" y="201.612022"/>
      </g>
     </g>
    </g>
    <g id="ytick_36">
     <g id="line2d_45">
      <g>
       <use style="stroke:#000000;stroke-width:0.6;" x="144" xlink:href="#m723922ea6f" y="196.664017"/>
      </g>
     </g>
    </g>
    <g id="ytick_37">
     <g id="line2d_46">
      <g>
       <use style="stroke:#000000;stroke-width:0.6;" x="144" xlink:href="#m723922ea6f" y="192.299567"/>
      </g>
     </g>
    </g>
    <g id="ytick_38">
     <g id="line2d_47">
      <g>
       <use style="stroke:#000000;stroke-width:0.6;" x="144" xlink:href="#m723922ea6f" y="162.710867"/>
      </g>
     </g>
    </g>
    <g id="ytick_39">
     <g id="line2d_48">
      <g>
       <use style="stroke:#000000;stroke-width:0.6;" x="144" xlink:href="#m723922ea6f" y="147.686359"/>
      </g>
     </g>
    </g>
    <g id="ytick_40">
     <g id="line2d_49">
      <g>
       <use style="stroke:#000000;stroke-width:0.6;" x="144" xlink:href="#m723922ea6f" y="137.0263"/>
      </g>
     </g>
    </g>
    <g id="ytick_41">
     <g id="line2d_50">
      <g>
       <use style="stroke:#000000;stroke-width:0.6;" x="144" xlink:href="#m723922ea6f" y="128.757717"/>
      </g>
     </g>
    </g>
    <g id="ytick_42">
     <g id="line2d_51">
      <g>
       <use style="stroke:#000000;stroke-width:0.6;" x="144" xlink:href="#m723922ea6f" y="122.001792"/>
      </g>
     </g>
    </g>
    <g id="ytick_43">
     <g id="line2d_52">
      <g>
       <use style="stroke:#000000;stroke-width:0.6;" x="144" xlink:href="#m723922ea6f" y="116.289739"/>
      </g>
     </g>
    </g>
    <g id="ytick_44">
     <g id="line2d_53">
      <g>
       <use style="stroke:#000000;stroke-width:0.6;" x="144" xlink:href="#m723922ea6f" y="111.341734"/>
      </g>
     </g>
    </g>
    <g id="ytick_45">
     <g id="line2d_54">
      <g>
       <use style="stroke:#000000;stroke-width:0.6;" x="144" xlink:href="#m723922ea6f" y="106.977284"/>
      </g>
     </g>
    </g>
    <g id="ytick_46">
     <g id="line2d_55">
      <g>
       <use style="stroke:#000000;stroke-width:0.6;" x="144" xlink:href="#m723922ea6f" y="77.388584"/>
      </g>
     </g>
    </g>
    <g id="text_16">
     <!-- Energy /A.U. -->
     <g transform="translate(84.936875 373.22)rotate(-90)scale(0.28 -0.28)">
      <defs>
       <path d="M 9.8125 72.90625 
L 55.90625 72.90625 
L 55.90625 64.59375 
L 19.671875 64.59375 
L 19.671875 43.015625 
L 54.390625 43.015625 
L 54.390625 34.71875 
L 19.671875 34.71875 
L 19.671875 8.296875 
L 56.78125 8.296875 
L 56.78125 0 
L 9.8125 0 
z
" id="DejaVuSans-69"/>
       <path d="M 54.890625 33.015625 
L 54.890625 0 
L 45.90625 0 
L 45.90625 32.71875 
Q 45.90625 40.484375 42.875 44.328125 
Q 39.84375 48.1875 33.796875 48.1875 
Q 26.515625 48.1875 22.3125 43.546875 
Q 18.109375 38.921875 18.109375 30.90625 
L 18.109375 0 
L 9.078125 0 
L 9.078125 54.6875 
L 18.109375 54.6875 
L 18.109375 46.1875 
Q 21.34375 51.125 25.703125 53.5625 
Q 30.078125 56 35.796875 56 
Q 45.21875 56 50.046875 50.171875 
Q 54.890625 44.34375 54.890625 33.015625 
z
" id="DejaVuSans-110"/>
       <path d="M 56.203125 29.59375 
L 56.203125 25.203125 
L 14.890625 25.203125 
Q 15.484375 15.921875 20.484375 11.0625 
Q 25.484375 6.203125 34.421875 6.203125 
Q 39.59375 6.203125 44.453125 7.46875 
Q 49.3125 8.734375 54.109375 11.28125 
L 54.109375 2.78125 
Q 49.265625 0.734375 44.1875 -0.34375 
Q 39.109375 -1.421875 33.890625 -1.421875 
Q 20.796875 -1.421875 13.15625 6.1875 
Q 5.515625 13.8125 5.515625 26.8125 
Q 5.515625 40.234375 12.765625 48.109375 
Q 20.015625 56 32.328125 56 
Q 43.359375 56 49.78125 48.890625 
Q 56.203125 41.796875 56.203125 29.59375 
z
M 47.21875 32.234375 
Q 47.125 39.59375 43.09375 43.984375 
Q 39.0625 48.390625 32.421875 48.390625 
Q 24.90625 48.390625 20.390625 44.140625 
Q 15.875 39.890625 15.1875 32.171875 
z
" id="DejaVuSans-101"/>
       <path d="M 45.40625 27.984375 
Q 45.40625 37.75 41.375 43.109375 
Q 37.359375 48.484375 30.078125 48.484375 
Q 22.859375 48.484375 18.828125 43.109375 
Q 14.796875 37.75 14.796875 27.984375 
Q 14.796875 18.265625 18.828125 12.890625 
Q 22.859375 7.515625 30.078125 7.515625 
Q 37.359375 7.515625 41.375 12.890625 
Q 45.40625 18.265625 45.40625 27.984375 
z
M 54.390625 6.78125 
Q 54.390625 -7.171875 48.1875 -13.984375 
Q 42 -20.796875 29.203125 -20.796875 
Q 24.46875 -20.796875 20.265625 -20.09375 
Q 16.0625 -19.390625 12.109375 -17.921875 
L 12.109375 -9.1875 
Q 16.0625 -11.328125 19.921875 -12.34375 
Q 23.78125 -13.375 27.78125 -13.375 
Q 36.625 -13.375 41.015625 -8.765625 
Q 45.40625 -4.15625 45.40625 5.171875 
L 45.40625 9.625 
Q 42.625 4.78125 38.28125 2.390625 
Q 33.9375 0 27.875 0 
Q 17.828125 0 11.671875 7.65625 
Q 5.515625 15.328125 5.515625 27.984375 
Q 5.515625 40.671875 11.671875 48.328125 
Q 17.828125 56 27.875 56 
Q 33.9375 56 38.28125 53.609375 
Q 42.625 51.21875 45.40625 46.390625 
L 45.40625 54.6875 
L 54.390625 54.6875 
z
" id="DejaVuSans-103"/>
       <path d="M 10.6875 12.40625 
L 21 12.40625 
L 21 0 
L 10.6875 0 
z
" id="DejaVuSans-46"/>
       <path d="M 8.6875 72.90625 
L 18.609375 72.90625 
L 18.609375 28.609375 
Q 18.609375 16.890625 22.84375 11.734375 
Q 27.09375 6.59375 36.625 6.59375 
Q 46.09375 6.59375 50.34375 11.734375 
Q 54.59375 16.890625 54.59375 28.609375 
L 54.59375 72.90625 
L 64.5 72.90625 
L 64.5 27.390625 
Q 64.5 13.140625 57.4375 5.859375 
Q 50.390625 -1.421875 36.625 -1.421875 
Q 22.796875 -1.421875 15.734375 5.859375 
Q 8.6875 13.140625 8.6875 27.390625 
z
" id="DejaVuSans-85"/>
      </defs>
      <use xlink:href="#DejaVuSans-69"/>
      <use x="63.183594" xlink:href="#DejaVuSans-110"/>
      <use x="126.5625" xlink:href="#DejaVuSans-101"/>
      <use x="188.085938" xlink:href="#DejaVuSans-114"/>
      <use x="227.449219" xlink:href="#DejaVuSans-103"/>
      <use x="290.925781" xlink:href="#DejaVuSans-121"/>
      <use x="350.105469" xlink:href="#DejaVuSans-32"/>
      <use x="381.892578" xlink:href="#DejaVuSans-47"/>
      <use x="415.583984" xlink:href="#DejaVuSans-65"/>
      <use x="482.242188" xlink:href="#DejaVuSans-46"/>
      <use x="514.029297" xlink:href="#DejaVuSans-85"/>
      <use x="587.222656" xlink:href="#DejaVuSans-46"/>
     </g>
    </g>
   </g>
   <g id="line2d_56">
    <path clip-path="url(#pf0afc32011)" d="M 142.326 243.275479 
L 359.946 220.596566 
L 419.652 208.674153 
L 451.458 200.267268 
L 491.076 193.772112 
L 510.606 188.376978 
L 538.506 183.8475 
L 553.572 179.953849 
L 578.124 176.462955 
L 582.03 173.349936 
L 586.494 170.548221 
L 609.93 168.057185 
L 617.184 165.796357 
L 627.228 163.779353 
L 632.25 161.855869 
L 650.106 160.052345 
L 647.316 158.239472 
L 667.962 156.631022 
L 656.802 155.140089 
L 671.868 153.716435 
L 665.73 152.35895 
L 704.232 151.049461 
L 674.658 149.763315 
L 700.326 148.621741 
L 701.442 147.483878 
L 724.878 146.415161 
L 707.022 145.43363 
L 708.696 144.478297 
L 744.408 141.737951 
L 737.712 140.880059 
L 741.618 140.065449 
L 754.452 139.268834 
L 743.85 138.500573 
L 743.85 137.740835 
L 758.916 137.042179 
L 768.96 136.380588 
L 758.358 135.683552 
L 766.728 135.005528 
L 764.496 134.404516 
L 760.032 133.768878 
L 779.004 133.129671 
L 790.722 132.533335 
L 775.098 131.947948 
L 784.584 131.37343 
L 796.302 130.824233 
L 791.28 130.271412 
L 795.744 129.723747 
L 790.722 129.240365 
L 796.86 128.710501 
L 811.926 128.22221 
L 801.882 127.742059 
L 810.252 127.283052 
L 814.716 126.841988 
L 814.716 126.384629 
L 818.064 125.919725 
L 813.6 125.494569 
L 813.6 125.062007 
L 832.014 124.636438 
L 827.55 124.254138 
L 814.716 123.850555 
L 819.738 123.477355 
L 826.434 123.094783 
L 827.55 122.702731 
L 813.042 122.317721 
L 824.76 121.943872 
L 835.362 121.210983 
L 833.13 120.844047 
L 837.036 120.47559 
L 842.616 120.137044 
L 837.036 119.825423 
L 833.688 119.504668 
L 838.71 119.182336 
L 849.312 118.847744 
L 837.036 118.521456 
L 848.196 117.891218 
L 851.544 117.593444 
L 844.29 117.289924 
L 850.428 116.996094 
L 850.428 116.690804 
L 849.312 116.38678 
L 852.66 116.11485 
L 857.682 115.520887 
L 856.566 115.257962 
L 850.428 114.736225 
L 853.776 114.450926 
L 854.892 114.194636 
L 859.914 113.932824 
L 854.334 113.698712 
L 859.914 113.459418 
L 856.566 113.201249 
L 859.914 112.957353 
L 866.052 112.712928 
L 859.914 112.240215 
L 867.726 111.766305 
L 864.378 111.546733 
L 864.936 111.32337 
L 864.936 110.87851 
L 871.074 110.661657 
L 873.306 110.432266 
L 871.074 110.213402 
L 872.19 109.994822 
L 871.632 109.778308 
L 868.842 109.580552 
L 874.422 109.170896 
L 866.052 108.97286 
L 884.466 108.165551 
L 873.864 107.973465 
L 881.118 107.777699 
L 877.212 107.595038 
L 876.654 107.405761 
L 879.444 107.033924 
L 878.886 106.83244 
L 884.466 106.657705 
L 878.328 106.123389 
L 883.908 105.956315 
L 885.582 105.633544 
L 885.582 105.46788 
L 882.792 105.308242 
L 885.024 105.143001 
L 883.908 104.97337 
L 893.952 104.646597 
L 892.278 104.486854 
L 882.234 104.316025 
L 882.234 104.15033 
L 886.14 103.99125 
L 899.532 103.818325 
L 892.836 103.655723 
L 881.118 103.505167 
L 890.046 103.341558 
L 887.814 103.203413 
L 889.488 103.05515 
L 888.93 102.89883 
L 890.046 102.604296 
L 896.742 102.461654 
L 889.488 102.319977 
L 888.93 102.160357 
L 890.604 102.022039 
L 885.024 101.875529 
L 887.814 101.735462 
L 895.626 101.59795 
L 893.952 101.459211 
L 901.764 101.19647 
L 896.742 101.062534 
L 883.908 100.929137 
L 895.626 100.798063 
L 891.162 100.638089 
L 898.974 100.507778 
L 888.93 100.363611 
L 897.3 100.114704 
L 889.488 99.985085 
L 894.51 99.85354 
L 894.51 99.72548 
L 896.742 99.598895 
L 893.394 99.472552 
L 899.532 99.348473 
L 895.626 99.231971 
L 900.09 99.092576 
L 895.068 98.954116 
L 901.206 98.836047 
L 897.858 98.71743 
L 898.974 98.597988 
L 892.836 98.357359 
L 901.764 98.240588 
L 901.206 98.129422 
L 890.046 98.020908 
L 907.344 97.790842 
L 901.206 97.673545 
L 907.344 97.543496 
L 894.51 97.43111 
L 908.46 97.329497 
L 901.764 97.105115 
L 903.996 96.993811 
L 901.206 96.888097 
L 902.322 96.769792 
L 898.974 96.653159 
L 887.814 96.54015 
L 901.206 96.334569 
L 901.764 96.228447 
L 903.438 96.111254 
L 907.902 96.008669 
L 902.322 95.806532 
L 901.764 95.704893 
L 902.88 95.50059 
L 896.184 95.400638 
L 900.09 95.290969 
L 898.974 95.095765 
L 909.018 94.889154 
L 903.438 94.790728 
L 909.576 94.602739 
L 907.344 94.500388 
L 909.018 94.30618 
L 902.322 94.209017 
L 903.438 94.115883 
L 905.112 94.020645 
L 912.366 93.83629 
L 910.134 93.744006 
L 910.692 93.651568 
L 903.996 93.479629 
L 904.554 93.30556 
L 902.88 93.212125 
L 903.996 93.123146 
L 910.692 93.035535 
L 907.344 92.939703 
L 916.272 92.845272 
L 911.25 92.754836 
L 913.482 92.664788 
L 919.062 92.583765 
L 907.344 92.438093 
L 912.366 92.260579 
L 910.134 92.177108 
L 914.04 92.079188 
L 909.576 91.901289 
L 912.924 91.730571 
L 905.112 91.643718 
L 917.388 91.405356 
L 906.786 91.333627 
L 914.598 91.246375 
L 905.67 91.156472 
L 907.902 91.074165 
L 907.344 91.000773 
L 905.67 90.914881 
L 911.25 90.755228 
L 919.062 90.673621 
L 916.272 90.598135 
L 910.692 90.365599 
L 918.504 90.291797 
L 904.554 90.214084 
L 914.598 90.064055 
L 916.83 89.991556 
L 915.714 89.917941 
L 914.04 89.760219 
L 912.366 89.68541 
L 914.598 89.611575 
L 914.04 89.542825 
L 915.156 89.470854 
L 913.482 89.330247 
L 908.46 89.258086 
L 917.388 89.190927 
L 912.366 89.120043 
L 910.134 89.042746 
L 918.504 88.972806 
L 911.25 88.894788 
L 913.482 88.826773 
L 917.946 88.760548 
L 911.808 88.689799 
L 914.04 88.618269 
L 915.156 88.55897 
L 920.736 88.492671 
L 913.482 88.354738 
L 921.294 88.067295 
L 920.178 88.005866 
L 921.852 87.944938 
L 916.83 87.875267 
L 917.946 87.808106 
L 916.83 87.672127 
L 914.04 87.607437 
L 922.968 87.347578 
L 915.156 87.28299 
L 917.946 87.223112 
L 920.178 87.028675 
L 908.46 86.780418 
L 916.272 86.717381 
L 915.714 86.657257 
L 915.714 86.6011 
L 916.83 86.47633 
L 918.504 86.42059 
L 910.692 86.362025 
L 917.388 86.303743 
L 918.504 86.241633 
L 910.134 86.185417 
L 916.272 86.125052 
L 911.25 86.068624 
L 918.504 86.007075 
L 917.388 85.945383 
L 919.062 85.880944 
L 916.272 85.820417 
L 922.41 85.665563 
L 916.272 85.611197 
L 921.852 85.553854 
L 916.272 85.433805 
L 917.388 85.373172 
L 916.272 85.311635 
L 920.736 85.197426 
L 919.62 85.135598 
L 917.946 85.029656 
L 919.62 84.976921 
L 919.062 84.920023 
L 918.504 84.867375 
L 920.178 84.809969 
L 917.388 84.751187 
L 919.62 84.695924 
L 916.83 84.529891 
L 916.83 84.529891 
" style="fill:none;stroke:#1f1f1f;stroke-linecap:square;stroke-width:5;"/>
   </g>
   <g id="line2d_57">
    <path clip-path="url(#pf0afc32011)" d="M 142.326 508.920089 
L 359.946 477.313789 
L 419.652 458.474469 
L 451.458 444.720279 
L 491.076 434.066573 
L 510.606 425.303698 
L 538.506 417.773755 
L 553.572 411.25565 
L 578.124 405.487905 
L 582.03 400.308052 
L 586.494 395.588362 
L 609.93 391.261023 
L 617.184 387.241367 
L 627.228 383.558548 
L 632.25 380.171753 
L 650.106 377.017714 
L 647.316 374.078861 
L 667.962 371.311326 
L 656.802 368.705534 
L 671.868 366.203302 
L 665.73 363.842337 
L 704.232 361.616546 
L 674.658 359.460516 
L 700.326 357.407182 
L 701.442 355.418844 
L 724.878 353.541752 
L 707.022 351.732927 
L 708.696 349.984061 
L 721.53 348.324895 
L 734.922 346.713323 
L 744.408 345.15645 
L 737.712 343.670314 
L 741.618 342.238865 
L 754.452 340.842571 
L 743.85 339.488001 
L 743.85 338.183227 
L 758.916 336.922086 
L 768.96 335.696276 
L 758.358 334.512152 
L 766.728 333.363 
L 764.496 332.236006 
L 760.032 331.143385 
L 779.004 330.075922 
L 790.722 329.043755 
L 775.098 328.047864 
L 784.584 327.065044 
L 796.302 326.111799 
L 791.28 325.178066 
L 795.744 324.27645 
L 790.722 323.386927 
L 796.86 322.522709 
L 811.926 321.67456 
L 801.882 320.855003 
L 810.252 320.055632 
L 814.716 319.273609 
L 814.716 318.505368 
L 818.064 317.751478 
L 813.6 317.014212 
L 813.6 316.28993 
L 832.014 315.57539 
L 827.55 314.873047 
L 814.716 314.18372 
L 819.738 313.498239 
L 826.434 312.829198 
L 827.55 312.177792 
L 813.042 311.539977 
L 824.76 310.911926 
L 835.362 309.671596 
L 833.13 309.070205 
L 837.036 308.478791 
L 842.616 307.897067 
L 837.036 307.32328 
L 833.688 306.754839 
L 838.71 306.197402 
L 849.312 305.648483 
L 837.036 305.107436 
L 848.196 304.053254 
L 851.544 303.538071 
L 844.29 303.02962 
L 850.428 302.527077 
L 850.428 302.034252 
L 849.312 301.546147 
L 852.66 301.063565 
L 854.892 300.585947 
L 857.682 300.112651 
L 856.566 299.646134 
L 850.428 298.736882 
L 853.776 298.289777 
L 854.892 297.84913 
L 859.914 297.413168 
L 854.334 296.979679 
L 859.914 296.550131 
L 856.566 296.127092 
L 859.914 295.708296 
L 866.052 295.29378 
L 859.914 294.479666 
L 867.726 293.681761 
L 864.378 293.290434 
L 864.936 292.902198 
L 864.936 292.128145 
L 871.074 291.742168 
L 873.306 291.36267 
L 871.074 290.988774 
L 872.19 290.619892 
L 871.632 290.253813 
L 868.842 289.890591 
L 871.074 289.529983 
L 874.422 289.170984 
L 866.052 288.815006 
L 884.466 287.420701 
L 873.864 287.079428 
L 881.118 286.739754 
L 877.212 286.40148 
L 876.654 286.06964 
L 877.77 285.738197 
L 879.444 285.412933 
L 878.886 285.089435 
L 884.466 284.766395 
L 880.56 284.126625 
L 878.328 283.811259 
L 883.908 283.497054 
L 885.024 283.187772 
L 885.582 282.879792 
L 885.582 282.572033 
L 882.792 282.268202 
L 885.024 281.967946 
L 883.908 281.670255 
L 891.162 281.375495 
L 893.952 281.08327 
L 892.278 280.791473 
L 882.234 280.501319 
L 882.234 280.21266 
L 886.14 279.924072 
L 899.532 279.638674 
L 892.836 279.355661 
L 881.118 279.074455 
L 890.046 278.794381 
L 887.814 278.515732 
L 889.488 278.236736 
L 888.93 277.959244 
L 890.046 277.411428 
L 896.742 277.140628 
L 889.488 276.870115 
L 888.93 276.601762 
L 890.604 276.334666 
L 885.024 276.069059 
L 887.814 275.805036 
L 895.626 275.541298 
L 893.952 275.279781 
L 901.764 274.760094 
L 896.742 274.501391 
L 883.908 274.243263 
L 895.626 273.988253 
L 891.162 273.734076 
L 898.974 273.481925 
L 888.93 273.229542 
L 897.3 272.73019 
L 889.488 272.482737 
L 894.51 272.238114 
L 894.51 271.993626 
L 896.742 271.751439 
L 893.394 271.509118 
L 899.532 271.26811 
L 895.626 271.028887 
L 900.09 270.790541 
L 895.068 270.553569 
L 901.206 270.316636 
L 897.858 270.081105 
L 898.974 269.84724 
L 892.836 269.382102 
L 901.764 269.150587 
L 901.206 268.920054 
L 890.046 268.689266 
L 902.88 268.462158 
L 907.344 268.235111 
L 901.206 268.008549 
L 907.344 267.782617 
L 894.51 267.557365 
L 908.46 267.332971 
L 903.438 267.110423 
L 901.764 266.888165 
L 903.996 266.66729 
L 901.206 266.447584 
L 902.322 266.228661 
L 898.974 266.011033 
L 887.814 265.793012 
L 901.206 265.576228 
L 901.206 265.360352 
L 901.764 265.144438 
L 903.438 264.930363 
L 907.902 264.718189 
L 902.88 264.507498 
L 901.764 264.087118 
L 902.88 263.87732 
L 902.88 263.669013 
L 896.184 263.461785 
L 900.09 263.254682 
L 898.974 263.048909 
L 898.974 262.843379 
L 907.344 262.63913 
L 909.018 262.43526 
L 903.438 262.232223 
L 909.576 261.829123 
L 907.344 261.628878 
L 909.018 261.228423 
L 902.322 261.030543 
L 905.112 260.636699 
L 911.25 260.441481 
L 912.366 260.246244 
L 910.134 260.051888 
L 910.692 259.858709 
L 908.46 259.666204 
L 903.996 259.474687 
L 905.67 259.283747 
L 902.88 258.903217 
L 903.996 258.71394 
L 910.692 258.526065 
L 907.344 258.338402 
L 916.272 258.150488 
L 911.25 257.963413 
L 913.482 257.777409 
L 919.062 257.591635 
L 907.344 257.221724 
L 911.808 257.038068 
L 912.366 256.855272 
L 910.134 256.673064 
L 914.04 256.492573 
L 909.576 256.31185 
L 909.576 256.131627 
L 912.924 255.950677 
L 912.924 255.771022 
L 905.112 255.591706 
L 917.388 255.056775 
L 906.786 254.879773 
L 914.598 254.703882 
L 905.67 254.527545 
L 907.902 254.351975 
L 907.344 254.17704 
L 905.67 254.003001 
L 911.25 253.655573 
L 919.062 253.48247 
L 911.808 252.966098 
L 910.692 252.795226 
L 918.504 252.624676 
L 904.554 252.454925 
L 913.482 252.28555 
L 914.598 252.116498 
L 916.83 251.948528 
L 912.366 251.28219 
L 914.598 251.11657 
L 914.04 250.951604 
L 915.156 250.78783 
L 914.598 250.624069 
L 913.482 250.461016 
L 908.46 250.298756 
L 917.388 250.136814 
L 910.134 249.813948 
L 918.504 249.652838 
L 911.25 249.492743 
L 913.482 249.332365 
L 917.946 249.172566 
L 911.808 249.013321 
L 915.156 248.697148 
L 920.736 248.540523 
L 913.482 248.228278 
L 917.946 247.918403 
L 919.062 247.763631 
L 921.294 247.6094 
L 920.178 247.456148 
L 921.852 247.302547 
L 916.83 247.14902 
L 917.946 246.996489 
L 916.83 246.69271 
L 914.04 246.541878 
L 916.83 246.391347 
L 916.83 246.24109 
L 919.062 246.090952 
L 922.968 245.941245 
L 915.156 245.792524 
L 919.62 245.496074 
L 920.178 245.348982 
L 920.178 245.201513 
L 915.156 245.054436 
L 916.83 244.907604 
L 914.04 244.761791 
L 908.46 244.616254 
L 916.272 244.470579 
L 915.714 244.325361 
L 915.714 244.181057 
L 916.83 243.893093 
L 918.504 243.750199 
L 910.692 243.60818 
L 917.388 243.466522 
L 918.504 243.324913 
L 910.134 243.183305 
L 916.272 243.04242 
L 911.25 242.901968 
L 918.504 242.761848 
L 917.388 242.621999 
L 919.062 242.4826 
L 916.272 242.343209 
L 921.852 242.203842 
L 918.504 242.065296 
L 922.41 241.927379 
L 916.272 241.789547 
L 921.852 241.652487 
L 916.272 241.515513 
L 916.272 241.378944 
L 917.388 241.24253 
L 916.272 241.106605 
L 920.736 240.8354 
L 917.946 240.43162 
L 919.62 240.29709 
L 918.504 240.029439 
L 920.178 239.896274 
L 917.388 239.763045 
L 919.62 239.630244 
L 918.504 239.497409 
L 919.062 239.365599 
L 916.83 239.234115 
L 916.83 239.234115 
" style="fill:none;stroke:#9e9e9e;stroke-linecap:square;stroke-width:5;"/>
   </g>
   <g id="line2d_58">
    <path clip-path="url(#pf0afc32011)" d="M -1 289.849989 
L 12.87 289.137262 
L 8.406 286.748833 
L 82.62 284.595096 
L 55.278 282.493088 
L 82.62 280.372564 
L 84.294 278.353089 
L 104.382 276.477016 
L 146.232 274.763198 
L 127.26 272.937752 
L 146.79 271.297288 
L 171.9 269.630972 
L 173.574 268.14438 
L 198.684 266.666961 
L 203.148 265.216301 
L 220.446 263.815527 
L 232.164 262.460425 
L 235.512 261.184479 
L 253.926 259.944372 
L 250.02 258.629155 
L 267.876 257.419134 
L 279.036 256.251322 
L 281.268 255.083574 
L 285.732 253.955388 
L 306.378 252.878689 
L 296.892 251.839889 
L 324.792 250.820293 
L 309.726 249.884145 
L 324.234 248.966441 
L 319.212 248.033036 
L 323.676 247.095352 
L 337.626 246.214627 
L 335.952 245.259088 
L 352.134 244.401085 
L 330.372 243.528348 
L 358.83 242.749434 
L 341.532 241.930608 
L 363.852 241.176222 
L 369.99 240.3547 
L 382.266 239.61087 
L 373.338 238.910202 
L 392.868 238.193642 
L 387.846 237.528676 
L 379.476 236.80513 
L 388.404 236.114381 
L 387.846 235.453886 
L 399.006 234.821061 
L 386.172 234.20134 
L 409.608 233.590125 
L 406.818 232.962509 
L 416.304 232.316954 
L 404.028 231.707974 
L 416.862 231.099189 
L 425.232 230.538991 
L 429.696 229.946689 
L 414.072 229.382935 
L 428.58 228.828818 
L 409.608 228.342464 
L 436.392 227.842663 
L 436.95 227.309033 
L 435.276 226.809962 
L 447.552 226.288003 
L 440.298 225.762714 
L 445.878 225.270847 
L 446.994 224.764665 
L 454.248 224.267991 
L 443.646 223.803414 
L 450.342 223.319384 
L 449.784 222.863054 
L 438.624 222.405817 
L 454.248 221.983825 
L 455.922 221.553107 
L 448.11 221.143145 
L 463.734 220.7153 
L 460.944 220.326397 
L 459.828 219.917815 
L 473.778 219.503413 
L 460.386 219.071119 
L 463.734 218.668291 
L 465.966 218.255881 
L 474.894 217.841974 
L 478.8 217.446555 
L 463.176 217.068766 
L 469.872 216.658581 
L 483.822 216.264625 
L 469.872 215.903315 
L 473.778 215.539595 
L 476.01 215.184461 
L 479.916 214.829804 
L 493.308 214.472932 
L 486.612 214.155262 
L 494.424 213.790582 
L 498.33 213.431928 
L 486.054 213.088708 
L 495.54 212.772291 
L 470.988 212.440239 
L 491.076 212.129218 
L 500.004 211.788316 
L 496.098 211.49208 
L 500.562 211.18142 
L 498.888 210.831928 
L 498.33 210.511047 
L 505.584 210.185497 
L 502.794 209.885898 
L 518.418 209.280092 
L 513.396 209.004987 
L 511.722 208.723085 
L 513.396 208.438415 
L 507.258 208.13719 
L 516.744 207.860512 
L 516.744 207.567089 
L 518.418 207.280704 
L 530.694 207.009558 
L 510.048 206.749707 
L 535.158 206.209893 
L 528.462 205.930671 
L 525.114 205.653456 
L 525.114 205.402254 
L 518.418 205.136083 
L 526.23 204.876972 
L 525.672 204.625718 
L 532.926 204.370391 
L 529.578 204.109308 
L 535.716 203.85557 
L 532.368 203.598905 
L 540.738 203.362029 
L 540.738 203.099134 
L 555.804 202.602419 
L 543.528 202.10822 
L 544.644 201.884314 
L 542.412 201.65071 
L 542.97 201.432269 
L 552.456 200.974217 
L 545.76 200.743674 
L 533.484 200.531855 
L 540.18 200.311314 
L 553.572 200.090272 
L 562.5 199.657899 
L 553.014 199.433827 
L 562.5 199.221049 
L 566.406 199.002399 
L 566.406 198.796457 
L 569.196 198.36625 
L 566.406 198.172801 
L 558.594 197.982724 
L 561.942 197.76094 
L 568.08 197.565525 
L 564.174 197.368377 
L 575.334 197.16437 
L 563.058 196.962791 
L 559.152 196.761198 
L 563.058 196.563583 
L 563.058 196.376709 
L 560.268 196.180988 
L 575.334 195.974739 
L 576.45 195.604637 
L 568.08 195.412688 
L 576.45 195.230013 
L 575.892 195.048336 
L 571.986 194.849629 
L 587.052 194.670675 
L 587.61 194.481421 
L 575.892 194.313177 
L 580.914 193.959077 
L 580.914 193.787016 
L 585.378 193.613053 
L 584.262 193.461808 
L 584.262 193.279531 
L 569.196 193.099735 
L 588.168 192.923257 
L 581.472 192.572296 
L 589.284 192.408833 
L 582.03 192.254685 
L 584.262 192.075743 
L 592.074 191.895762 
L 592.074 191.572857 
L 598.77 191.4058 
L 588.726 191.249506 
L 590.4 191.09781 
L 599.886 190.937219 
L 597.654 190.628128 
L 586.494 190.46624 
L 604.35 190.31297 
L 590.4 190.167445 
L 602.118 189.853181 
L 589.842 189.707043 
L 604.908 189.557909 
L 582.03 189.398506 
L 600.444 189.245348 
L 599.328 189.091525 
L 609.372 188.791883 
L 593.19 188.490664 
L 603.234 188.352715 
L 605.466 188.04965 
L 604.35 187.90879 
L 616.626 187.474597 
L 602.676 187.329186 
L 612.72 187.19338 
L 608.814 186.914192 
L 594.864 186.773853 
L 613.278 186.365078 
L 616.626 186.241197 
L 617.184 186.094151 
L 616.068 185.961592 
L 608.256 185.822526 
L 614.952 185.696109 
L 613.278 185.56509 
L 616.626 185.430842 
L 616.626 185.288974 
L 613.836 185.163885 
L 618.3 185.041705 
L 600.444 184.906108 
L 611.604 184.652309 
L 614.394 184.528877 
L 624.438 184.402732 
L 613.836 184.286019 
L 614.952 184.162766 
L 620.532 184.038049 
L 619.416 183.910341 
L 617.184 183.802989 
L 626.67 183.422423 
L 621.648 183.298248 
L 624.996 183.18298 
L 624.438 183.053701 
L 631.692 182.687294 
L 631.134 182.563966 
L 618.858 182.329439 
L 626.67 182.214767 
L 623.322 182.107289 
L 637.83 181.868205 
L 631.134 181.757608 
L 631.692 181.52069 
L 636.714 181.405647 
L 618.3 181.178171 
L 631.134 181.059648 
L 624.996 180.952046 
L 626.67 180.834983 
L 633.924 180.720043 
L 633.366 180.603345 
L 632.25 180.490915 
L 627.228 180.267607 
L 645.084 179.938889 
L 632.808 179.840275 
L 637.272 179.732568 
L 631.692 179.626104 
L 642.294 179.413767 
L 645.084 179.307943 
L 638.388 179.106236 
L 646.758 178.994799 
L 636.714 178.893036 
L 640.62 178.784875 
L 649.548 178.670341 
L 635.04 178.560557 
L 650.106 178.370654 
L 647.316 178.267654 
L 648.99 178.167836 
L 638.388 178.073089 
L 650.106 177.874098 
L 640.062 177.764951 
L 652.338 177.665809 
L 646.758 177.452115 
L 640.062 177.35558 
L 653.454 177.155878 
L 642.294 176.961265 
L 650.106 176.867449 
L 638.388 176.783826 
L 657.918 176.679259 
L 652.896 176.466762 
L 653.454 176.374597 
L 650.106 176.288862 
L 660.708 176.098809 
L 647.316 175.915652 
L 655.686 175.823999 
L 654.012 175.733258 
L 656.802 175.629472 
L 656.244 175.544451 
L 654.57 175.461486 
L 649.548 175.371901 
L 657.918 175.269769 
L 655.128 175.080044 
L 650.664 174.989917 
L 659.034 174.803737 
L 652.338 174.716761 
L 660.15 174.62513 
L 657.918 174.532794 
L 666.288 174.451967 
L 649.548 174.176576 
L 665.172 173.99711 
L 664.614 173.911972 
L 658.476 173.82685 
L 662.94 173.739592 
L 648.99 173.653688 
L 663.498 173.482665 
L 662.382 173.394777 
L 665.73 173.303123 
L 653.454 173.212084 
L 660.708 173.122286 
L 660.708 173.122286 
" style="fill:none;stroke:#ff15ff;stroke-linecap:square;stroke-width:5;"/>
   </g>
   <g id="line2d_59">
    <path clip-path="url(#pf0afc32011)" d="M -1 403.485024 
L 12.87 402.298317 
L 8.406 398.438892 
L 82.62 394.799181 
L 55.278 391.359353 
L 82.62 388.089171 
L 84.294 384.984111 
L 104.382 382.032272 
L 146.232 379.240471 
L 127.26 376.568028 
L 146.79 373.997709 
L 171.9 371.53357 
L 173.574 369.170261 
L 198.684 366.906464 
L 203.148 364.730672 
L 220.446 362.635537 
L 232.164 360.601319 
L 235.512 358.631933 
L 253.926 356.730501 
L 250.02 354.885887 
L 267.876 353.094005 
L 279.036 351.364208 
L 281.268 349.693923 
L 285.732 348.065746 
L 306.378 346.48841 
L 296.892 344.955101 
L 324.792 343.470466 
L 309.726 342.019974 
L 324.234 340.608182 
L 319.212 339.233501 
L 323.676 337.896233 
L 337.626 336.591893 
L 335.952 335.320986 
L 352.134 334.07787 
L 330.372 332.863625 
L 358.83 331.678492 
L 341.532 330.519348 
L 363.852 329.39155 
L 369.99 328.29024 
L 382.266 327.209513 
L 373.338 326.142057 
L 392.868 325.103449 
L 387.846 324.088421 
L 379.476 323.093972 
L 388.404 322.119613 
L 387.846 321.159943 
L 399.006 320.216832 
L 386.172 319.288019 
L 409.608 318.377572 
L 406.818 317.483271 
L 416.304 316.606149 
L 404.028 315.74557 
L 416.862 314.900626 
L 425.232 314.069203 
L 429.696 313.253606 
L 414.072 312.449839 
L 428.58 311.661219 
L 409.608 310.884204 
L 436.392 310.119265 
L 436.95 309.366324 
L 435.276 308.623547 
L 447.552 307.894873 
L 440.298 307.176603 
L 445.878 306.472218 
L 446.994 305.774798 
L 454.248 305.090667 
L 443.646 304.413083 
L 450.342 303.74657 
L 449.784 303.087478 
L 438.624 302.44054 
L 454.248 301.804323 
L 455.922 301.174275 
L 448.11 300.553232 
L 463.734 299.940564 
L 460.944 299.335955 
L 459.828 298.740375 
L 473.778 298.15181 
L 460.386 297.570365 
L 463.734 296.994965 
L 465.966 296.429966 
L 474.894 295.87174 
L 478.8 295.318141 
L 463.176 294.773739 
L 469.872 294.231879 
L 483.822 293.697594 
L 469.872 293.168408 
L 473.778 292.64513 
L 476.01 292.129172 
L 479.916 291.619388 
L 493.308 291.116331 
L 486.612 290.620556 
L 494.424 290.128789 
L 498.33 289.644621 
L 486.054 289.163026 
L 495.54 288.686383 
L 470.988 288.215663 
L 491.076 287.753046 
L 500.004 287.29352 
L 496.098 286.83864 
L 500.562 286.387792 
L 498.888 285.943524 
L 498.33 285.500424 
L 505.584 285.063613 
L 502.794 284.62976 
L 518.418 283.773095 
L 513.396 283.349986 
L 511.722 282.930579 
L 513.396 282.516243 
L 507.258 282.104948 
L 516.744 281.699222 
L 516.744 281.297672 
L 518.418 280.899924 
L 530.694 280.505898 
L 510.048 280.113325 
L 535.158 279.338369 
L 528.462 278.954393 
L 525.114 278.575032 
L 525.114 278.19993 
L 518.418 277.82864 
L 526.23 277.457968 
L 525.672 277.09072 
L 532.926 276.726831 
L 529.578 276.366469 
L 535.716 276.008809 
L 532.368 275.654296 
L 540.738 275.304089 
L 540.738 274.954473 
L 555.804 274.265037 
L 543.528 273.588626 
L 544.644 273.255378 
L 542.412 272.922992 
L 542.97 272.591799 
L 552.456 271.939869 
L 545.76 271.617317 
L 533.484 271.297198 
L 540.18 270.977336 
L 553.572 270.66046 
L 562.5 270.036817 
L 553.014 269.727849 
L 562.5 269.421498 
L 566.406 269.117428 
L 566.406 268.815529 
L 569.196 268.218764 
L 566.406 267.92398 
L 558.594 267.629911 
L 561.942 267.336477 
L 568.08 267.045778 
L 564.174 266.756799 
L 575.334 266.47032 
L 563.058 266.184993 
L 559.152 265.902029 
L 563.058 265.621411 
L 563.058 265.34338 
L 560.268 265.067097 
L 575.334 264.792592 
L 576.45 264.246365 
L 568.08 263.975561 
L 576.45 263.706951 
L 575.892 263.440948 
L 571.986 263.177196 
L 587.052 262.914924 
L 587.61 262.654934 
L 575.892 262.395457 
L 580.914 261.880487 
L 580.914 261.626117 
L 585.378 261.372927 
L 584.262 261.120533 
L 584.262 260.869887 
L 569.196 260.619566 
L 588.168 260.371261 
L 581.472 259.880485 
L 589.284 259.637359 
L 582.03 259.393382 
L 584.262 259.151605 
L 592.074 258.912333 
L 592.074 258.437548 
L 598.77 258.20331 
L 588.726 257.970475 
L 590.4 257.73773 
L 599.886 257.507313 
L 598.212 257.277528 
L 597.654 257.049468 
L 586.494 256.822198 
L 604.35 256.596265 
L 590.4 256.372393 
L 602.118 255.927201 
L 589.842 255.70628 
L 604.908 255.485671 
L 582.03 255.266816 
L 600.444 255.049495 
L 599.328 254.833357 
L 607.14 254.61766 
L 609.372 254.403014 
L 593.19 253.977119 
L 603.234 253.766601 
L 604.908 253.556308 
L 605.466 253.34758 
L 604.35 253.139583 
L 616.626 252.523289 
L 602.676 252.319372 
L 612.72 252.115931 
L 609.372 251.913817 
L 608.814 251.712029 
L 594.864 251.510938 
L 607.14 251.112257 
L 616.626 250.718869 
L 617.184 250.524256 
L 616.068 250.330578 
L 608.256 250.138065 
L 614.952 249.946247 
L 613.278 249.755336 
L 616.626 249.565013 
L 616.626 249.375626 
L 613.836 249.186655 
L 618.3 248.998509 
L 600.444 248.81141 
L 609.93 248.62503 
L 611.604 248.43998 
L 614.394 248.255604 
L 624.438 248.071957 
L 613.836 247.88969 
L 614.952 247.708061 
L 620.532 247.527378 
L 619.416 247.347379 
L 617.184 247.166631 
L 624.996 246.809427 
L 626.67 246.632008 
L 621.648 246.455673 
L 624.996 246.279977 
L 624.438 246.105185 
L 631.692 245.584091 
L 631.134 245.411592 
L 621.09 245.239904 
L 618.858 245.068463 
L 626.67 244.897931 
L 623.322 244.728653 
L 628.344 244.561086 
L 637.83 244.394071 
L 631.134 244.227801 
L 631.692 244.062808 
L 631.692 243.897921 
L 636.714 243.733149 
L 620.532 243.568915 
L 618.3 243.404743 
L 631.134 243.241959 
L 624.996 243.079805 
L 626.67 242.91863 
L 633.924 242.758383 
L 633.366 242.598102 
L 632.25 242.438343 
L 628.344 242.279781 
L 627.228 242.121608 
L 645.084 241.651323 
L 632.808 241.495866 
L 637.272 241.341024 
L 631.692 241.186894 
L 642.294 241.033393 
L 642.294 240.881057 
L 645.084 240.729242 
L 638.388 240.577853 
L 638.388 240.426476 
L 646.758 240.275509 
L 636.714 240.125372 
L 640.62 239.975466 
L 649.548 239.826115 
L 635.04 239.676923 
L 648.432 239.52836 
L 650.106 239.380591 
L 647.316 239.234142 
L 648.99 239.087928 
L 638.388 238.941641 
L 650.106 238.650757 
L 640.062 238.506001 
L 652.338 238.361996 
L 646.758 238.076054 
L 640.062 237.933174 
L 653.454 237.64807 
L 642.294 237.36558 
L 650.106 237.2253 
L 638.388 237.085666 
L 657.918 236.947119 
L 652.896 236.67151 
L 653.454 236.534477 
L 650.106 236.397613 
L 660.708 236.125143 
L 647.316 235.853798 
L 655.686 235.718649 
L 654.012 235.583871 
L 656.802 235.449855 
L 656.244 235.316167 
L 654.57 235.18303 
L 649.548 235.050167 
L 657.918 234.918148 
L 655.128 234.655591 
L 650.664 234.525098 
L 659.034 234.39506 
L 659.034 234.265507 
L 652.338 234.136495 
L 660.15 234.007822 
L 657.918 233.87915 
L 666.288 233.751442 
L 649.548 233.368641 
L 664.614 233.241832 
L 665.172 233.115769 
L 664.614 232.990511 
L 658.476 232.865311 
L 662.94 232.740318 
L 648.99 232.615473 
L 663.498 232.367551 
L 662.382 232.24404 
L 665.73 232.121147 
L 653.454 231.998556 
L 660.708 231.876178 
L 660.708 231.876178 
" style="fill:none;stroke:#ffa0f0;stroke-linecap:square;stroke-width:5;"/>
   </g>
   <g id="patch_3">
    <path d="M 144 504 
L 144 69.12 
" style="fill:none;stroke:#000000;stroke-linecap:square;stroke-linejoin:miter;stroke-width:0.8;"/>
   </g>
   <g id="patch_4">
    <path d="M 1036.8 504 
L 1036.8 69.12 
" style="fill:none;stroke:#000000;stroke-linecap:square;stroke-linejoin:miter;stroke-width:0.8;"/>
   </g>
   <g id="patch_5">
    <path d="M 144 504 
L 1036.8 504 
" style="fill:none;stroke:#000000;stroke-linecap:square;stroke-linejoin:miter;stroke-width:0.8;"/>
   </g>
   <g id="patch_6">
    <path d="M 144 69.12 
L 1036.8 69.12 
" style="fill:none;stroke:#000000;stroke-linecap:square;stroke-linejoin:miter;stroke-width:0.8;"/>
   </g>
   <g id="text_17">
    <!-- Gated: Energy vs. Accuracy with 100 Units @ 0.15 -->
    <g transform="translate(136.442813 61.633125)scale(0.36 -0.36)">
     <defs>
      <path d="M 59.515625 10.40625 
L 59.515625 29.984375 
L 43.40625 29.984375 
L 43.40625 38.09375 
L 69.28125 38.09375 
L 69.28125 6.78125 
Q 63.578125 2.734375 56.6875 0.65625 
Q 49.8125 -1.421875 42 -1.421875 
Q 24.90625 -1.421875 15.25 8.5625 
Q 5.609375 18.5625 5.609375 36.375 
Q 5.609375 54.25 15.25 64.234375 
Q 24.90625 74.21875 42 74.21875 
Q 49.125 74.21875 55.546875 72.453125 
Q 61.96875 70.703125 67.390625 67.28125 
L 67.390625 56.78125 
Q 61.921875 61.421875 55.765625 63.765625 
Q 49.609375 66.109375 42.828125 66.109375 
Q 29.4375 66.109375 22.71875 58.640625 
Q 16.015625 51.171875 16.015625 36.375 
Q 16.015625 21.625 22.71875 14.15625 
Q 29.4375 6.6875 42.828125 6.6875 
Q 48.046875 6.6875 52.140625 7.59375 
Q 56.25 8.5 59.515625 10.40625 
z
" id="DejaVuSans-71"/>
      <path d="M 18.3125 70.21875 
L 18.3125 54.6875 
L 36.8125 54.6875 
L 36.8125 47.703125 
L 18.3125 47.703125 
L 18.3125 18.015625 
Q 18.3125 11.328125 20.140625 9.421875 
Q 21.96875 7.515625 27.59375 7.515625 
L 36.8125 7.515625 
L 36.8125 0 
L 27.59375 0 
Q 17.1875 0 13.234375 3.875 
Q 9.28125 7.765625 9.28125 18.015625 
L 9.28125 47.703125 
L 2.6875 47.703125 
L 2.6875 54.6875 
L 9.28125 54.6875 
L 9.28125 70.21875 
z
" id="DejaVuSans-116"/>
      <path d="M 45.40625 46.390625 
L 45.40625 75.984375 
L 54.390625 75.984375 
L 54.390625 0 
L 45.40625 0 
L 45.40625 8.203125 
Q 42.578125 3.328125 38.25 0.953125 
Q 33.9375 -1.421875 27.875 -1.421875 
Q 17.96875 -1.421875 11.734375 6.484375 
Q 5.515625 14.40625 5.515625 27.296875 
Q 5.515625 40.1875 11.734375 48.09375 
Q 17.96875 56 27.875 56 
Q 33.9375 56 38.25 53.625 
Q 42.578125 51.265625 45.40625 46.390625 
z
M 14.796875 27.296875 
Q 14.796875 17.390625 18.875 11.75 
Q 22.953125 6.109375 30.078125 6.109375 
Q 37.203125 6.109375 41.296875 11.75 
Q 45.40625 17.390625 45.40625 27.296875 
Q 45.40625 37.203125 41.296875 42.84375 
Q 37.203125 48.484375 30.078125 48.484375 
Q 22.953125 48.484375 18.875 42.84375 
Q 14.796875 37.203125 14.796875 27.296875 
z
" id="DejaVuSans-100"/>
      <path d="M 11.71875 12.40625 
L 22.015625 12.40625 
L 22.015625 0 
L 11.71875 0 
z
M 11.71875 51.703125 
L 22.015625 51.703125 
L 22.015625 39.3125 
L 11.71875 39.3125 
z
" id="DejaVuSans-58"/>
      <path d="M 2.984375 54.6875 
L 12.5 54.6875 
L 29.59375 8.796875 
L 46.6875 54.6875 
L 56.203125 54.6875 
L 35.6875 0 
L 23.484375 0 
z
" id="DejaVuSans-118"/>
      <path d="M 44.28125 53.078125 
L 44.28125 44.578125 
Q 40.484375 46.53125 36.375 47.5 
Q 32.28125 48.484375 27.875 48.484375 
Q 21.1875 48.484375 17.84375 46.4375 
Q 14.5 44.390625 14.5 40.28125 
Q 14.5 37.15625 16.890625 35.375 
Q 19.28125 33.59375 26.515625 31.984375 
L 29.59375 31.296875 
Q 39.15625 29.25 43.1875 25.515625 
Q 47.21875 21.78125 47.21875 15.09375 
Q 47.21875 7.46875 41.1875 3.015625 
Q 35.15625 -1.421875 24.609375 -1.421875 
Q 20.21875 -1.421875 15.453125 -0.5625 
Q 10.6875 0.296875 5.421875 2 
L 5.421875 11.28125 
Q 10.40625 8.6875 15.234375 7.390625 
Q 20.0625 6.109375 24.8125 6.109375 
Q 31.15625 6.109375 34.5625 8.28125 
Q 37.984375 10.453125 37.984375 14.40625 
Q 37.984375 18.0625 35.515625 20.015625 
Q 33.0625 21.96875 24.703125 23.78125 
L 21.578125 24.515625 
Q 13.234375 26.265625 9.515625 29.90625 
Q 5.8125 33.546875 5.8125 39.890625 
Q 5.8125 47.609375 11.28125 51.796875 
Q 16.75 56 26.8125 56 
Q 31.78125 56 36.171875 55.265625 
Q 40.578125 54.546875 44.28125 53.078125 
z
" id="DejaVuSans-115"/>
      <path d="M 4.203125 54.6875 
L 13.1875 54.6875 
L 24.421875 12.015625 
L 35.59375 54.6875 
L 46.1875 54.6875 
L 57.421875 12.015625 
L 68.609375 54.6875 
L 77.59375 54.6875 
L 63.28125 0 
L 52.6875 0 
L 40.921875 44.828125 
L 29.109375 0 
L 18.5 0 
z
" id="DejaVuSans-119"/>
      <path d="M 9.421875 54.6875 
L 18.40625 54.6875 
L 18.40625 0 
L 9.421875 0 
z
M 9.421875 75.984375 
L 18.40625 75.984375 
L 18.40625 64.59375 
L 9.421875 64.59375 
z
" id="DejaVuSans-105"/>
      <path d="M 54.890625 33.015625 
L 54.890625 0 
L 45.90625 0 
L 45.90625 32.71875 
Q 45.90625 40.484375 42.875 44.328125 
Q 39.84375 48.1875 33.796875 48.1875 
Q 26.515625 48.1875 22.3125 43.546875 
Q 18.109375 38.921875 18.109375 30.90625 
L 18.109375 0 
L 9.078125 0 
L 9.078125 75.984375 
L 18.109375 75.984375 
L 18.109375 46.1875 
Q 21.34375 51.125 25.703125 53.5625 
Q 30.078125 56 35.796875 56 
Q 45.21875 56 50.046875 50.171875 
Q 54.890625 44.34375 54.890625 33.015625 
z
" id="DejaVuSans-104"/>
      <path d="M 37.203125 26.21875 
Q 37.203125 19.234375 40.671875 15.25 
Q 44.140625 11.28125 50.203125 11.28125 
Q 56.203125 11.28125 59.640625 15.28125 
Q 63.09375 19.28125 63.09375 26.21875 
Q 63.09375 33.0625 59.578125 37.078125 
Q 56.0625 41.109375 50.09375 41.109375 
Q 44.1875 41.109375 40.6875 37.109375 
Q 37.203125 33.109375 37.203125 26.21875 
z
M 63.8125 11.625 
Q 60.890625 7.859375 57.109375 6.078125 
Q 53.328125 4.296875 48.296875 4.296875 
Q 39.890625 4.296875 34.640625 10.375 
Q 29.390625 16.453125 29.390625 26.21875 
Q 29.390625 35.984375 34.65625 42.078125 
Q 39.9375 48.1875 48.296875 48.1875 
Q 53.328125 48.1875 57.125 46.359375 
Q 60.9375 44.53125 63.8125 40.828125 
L 63.8125 47.21875 
L 70.796875 47.21875 
L 70.796875 11.28125 
Q 77.9375 12.359375 81.953125 17.796875 
Q 85.984375 23.25 85.984375 31.890625 
Q 85.984375 37.109375 84.4375 41.703125 
Q 82.90625 46.296875 79.78125 50.203125 
Q 74.703125 56.59375 67.40625 59.984375 
Q 60.109375 63.375 51.515625 63.375 
Q 45.515625 63.375 39.984375 61.78125 
Q 34.46875 60.203125 29.78125 57.078125 
Q 22.125 52.09375 17.796875 44.015625 
Q 13.484375 35.9375 13.484375 26.515625 
Q 13.484375 18.75 16.28125 11.953125 
Q 19.09375 5.171875 24.421875 0 
Q 29.546875 -5.078125 36.28125 -7.734375 
Q 43.015625 -10.40625 50.6875 -10.40625 
Q 56.984375 -10.40625 63.0625 -8.28125 
Q 69.140625 -6.15625 74.21875 -2.203125 
L 78.609375 -7.625 
Q 72.515625 -12.359375 65.3125 -14.875 
Q 58.109375 -17.390625 50.6875 -17.390625 
Q 41.65625 -17.390625 33.640625 -14.1875 
Q 25.640625 -10.984375 19.390625 -4.890625 
Q 13.140625 1.21875 9.859375 9.25 
Q 6.59375 17.28125 6.59375 26.515625 
Q 6.59375 35.40625 9.90625 43.453125 
Q 13.234375 51.515625 19.390625 57.625 
Q 25.6875 63.8125 33.9375 67.109375 
Q 42.1875 70.40625 51.421875 70.40625 
Q 61.765625 70.40625 70.625 66.15625 
Q 79.5 61.921875 85.5 54.109375 
Q 89.15625 49.3125 91.078125 43.703125 
Q 93.015625 38.09375 93.015625 32.078125 
Q 93.015625 19.234375 85.25 11.8125 
Q 77.484375 4.390625 63.8125 4.109375 
z
" id="DejaVuSans-64"/>
     </defs>
     <use xlink:href="#DejaVuSans-71"/>
     <use x="77.490234" xlink:href="#DejaVuSans-97"/>
     <use x="138.769531" xlink:href="#DejaVuSans-116"/>
     <use x="177.978516" xlink:href="#DejaVuSans-101"/>
     <use x="239.501953" xlink:href="#DejaVuSans-100"/>
     <use x="302.978516" xlink:href="#DejaVuSans-58"/>
     <use x="336.669922" xlink:href="#DejaVuSans-32"/>
     <use x="368.457031" xlink:href="#DejaVuSans-69"/>
     <use x="431.640625" xlink:href="#DejaVuSans-110"/>
     <use x="495.019531" xlink:href="#DejaVuSans-101"/>
     <use x="556.542969" xlink:href="#DejaVuSans-114"/>
     <use x="595.90625" xlink:href="#DejaVuSans-103"/>
     <use x="659.382812" xlink:href="#DejaVuSans-121"/>
     <use x="718.5625" xlink:href="#DejaVuSans-32"/>
     <use x="750.349609" xlink:href="#DejaVuSans-118"/>
     <use x="809.529297" xlink:href="#DejaVuSans-115"/>
     <use x="861.628906" xlink:href="#DejaVuSans-46"/>
     <use x="893.416016" xlink:href="#DejaVuSans-32"/>
     <use x="925.203125" xlink:href="#DejaVuSans-65"/>
     <use x="991.861328" xlink:href="#DejaVuSans-99"/>
     <use x="1046.841797" xlink:href="#DejaVuSans-99"/>
     <use x="1101.822266" xlink:href="#DejaVuSans-117"/>
     <use x="1165.201172" xlink:href="#DejaVuSans-114"/>
     <use x="1206.314453" xlink:href="#DejaVuSans-97"/>
     <use x="1267.59375" xlink:href="#DejaVuSans-99"/>
     <use x="1322.574219" xlink:href="#DejaVuSans-121"/>
     <use x="1381.753906" xlink:href="#DejaVuSans-32"/>
     <use x="1413.541016" xlink:href="#DejaVuSans-119"/>
     <use x="1495.328125" xlink:href="#DejaVuSans-105"/>
     <use x="1523.111328" xlink:href="#DejaVuSans-116"/>
     <use x="1562.320312" xlink:href="#DejaVuSans-104"/>
     <use x="1625.699219" xlink:href="#DejaVuSans-32"/>
     <use x="1657.486328" xlink:href="#DejaVuSans-49"/>
     <use x="1721.109375" xlink:href="#DejaVuSans-48"/>
     <use x="1784.732422" xlink:href="#DejaVuSans-48"/>
     <use x="1848.355469" xlink:href="#DejaVuSans-32"/>
     <use x="1880.142578" xlink:href="#DejaVuSans-85"/>
     <use x="1953.335938" xlink:href="#DejaVuSans-110"/>
     <use x="2016.714844" xlink:href="#DejaVuSans-105"/>
     <use x="2044.498047" xlink:href="#DejaVuSans-116"/>
     <use x="2083.707031" xlink:href="#DejaVuSans-115"/>
     <use x="2135.806641" xlink:href="#DejaVuSans-32"/>
     <use x="2167.59375" xlink:href="#DejaVuSans-64"/>
     <use x="2267.59375" xlink:href="#DejaVuSans-32"/>
     <use x="2299.380859" xlink:href="#DejaVuSans-48"/>
     <use x="2363.003906" xlink:href="#DejaVuSans-46"/>
     <use x="2394.791016" xlink:href="#DejaVuSans-49"/>
     <use x="2458.414062" xlink:href="#DejaVuSans-53"/>
    </g>
   </g>
   <g id="legend_1">
    <g id="patch_7">
     <path d="M 785.663125 493 
L 1021.4 493 
Q 1025.8 493 1025.8 488.6 
L 1025.8 361.6325 
Q 1025.8 357.2325 1021.4 357.2325 
L 785.663125 357.2325 
Q 781.263125 357.2325 781.263125 361.6325 
L 781.263125 488.6 
Q 781.263125 493 785.663125 493 
z
" style="fill:#ffffff;opacity:0.8;stroke:#cccccc;stroke-linejoin:miter;"/>
    </g>
    <g id="line2d_60">
     <path d="M 790.063125 375.049062 
L 834.063125 375.049062 
" style="fill:none;stroke:#1f1f1f;stroke-linecap:square;stroke-width:5;"/>
    </g>
    <g id="line2d_61"/>
    <g id="text_18">
     <!-- Ungated: 1.0 -->
     <g transform="translate(851.663125 382.749062)scale(0.22 -0.22)">
      <use xlink:href="#DejaVuSans-85"/>
      <use x="73.193359" xlink:href="#DejaVuSans-110"/>
      <use x="136.572266" xlink:href="#DejaVuSans-103"/>
      <use x="200.048828" xlink:href="#DejaVuSans-97"/>
      <use x="261.328125" xlink:href="#DejaVuSans-116"/>
      <use x="300.537109" xlink:href="#DejaVuSans-101"/>
      <use x="362.060547" xlink:href="#DejaVuSans-100"/>
      <use x="425.537109" xlink:href="#DejaVuSans-58"/>
      <use x="459.228516" xlink:href="#DejaVuSans-32"/>
      <use x="491.015625" xlink:href="#DejaVuSans-49"/>
      <use x="554.638672" xlink:href="#DejaVuSans-46"/>
      <use x="586.425781" xlink:href="#DejaVuSans-48"/>
     </g>
    </g>
    <g id="line2d_62">
     <path d="M 790.063125 407.340937 
L 834.063125 407.340937 
" style="fill:none;stroke:#9e9e9e;stroke-linecap:square;stroke-width:5;"/>
    </g>
    <g id="line2d_63"/>
    <g id="text_19">
     <!-- Minimum: 1.0 -->
     <g transform="translate(851.663125 415.040937)scale(0.22 -0.22)">
      <defs>
       <path d="M 9.8125 72.90625 
L 24.515625 72.90625 
L 43.109375 23.296875 
L 61.8125 72.90625 
L 76.515625 72.90625 
L 76.515625 0 
L 66.890625 0 
L 66.890625 64.015625 
L 48.09375 14.015625 
L 38.1875 14.015625 
L 19.390625 64.015625 
L 19.390625 0 
L 9.8125 0 
z
" id="DejaVuSans-77"/>
       <path d="M 52 44.1875 
Q 55.375 50.25 60.0625 53.125 
Q 64.75 56 71.09375 56 
Q 79.640625 56 84.28125 50.015625 
Q 88.921875 44.046875 88.921875 33.015625 
L 88.921875 0 
L 79.890625 0 
L 79.890625 32.71875 
Q 79.890625 40.578125 77.09375 44.375 
Q 74.3125 48.1875 68.609375 48.1875 
Q 61.625 48.1875 57.5625 43.546875 
Q 53.515625 38.921875 53.515625 30.90625 
L 53.515625 0 
L 44.484375 0 
L 44.484375 32.71875 
Q 44.484375 40.625 41.703125 44.40625 
Q 38.921875 48.1875 33.109375 48.1875 
Q 26.21875 48.1875 22.15625 43.53125 
Q 18.109375 38.875 18.109375 30.90625 
L 18.109375 0 
L 9.078125 0 
L 9.078125 54.6875 
L 18.109375 54.6875 
L 18.109375 46.1875 
Q 21.1875 51.21875 25.484375 53.609375 
Q 29.78125 56 35.6875 56 
Q 41.65625 56 45.828125 52.96875 
Q 50 49.953125 52 44.1875 
z
" id="DejaVuSans-109"/>
      </defs>
      <use xlink:href="#DejaVuSans-77"/>
      <use x="86.279297" xlink:href="#DejaVuSans-105"/>
      <use x="114.0625" xlink:href="#DejaVuSans-110"/>
      <use x="177.441406" xlink:href="#DejaVuSans-105"/>
      <use x="205.224609" xlink:href="#DejaVuSans-109"/>
      <use x="302.636719" xlink:href="#DejaVuSans-117"/>
      <use x="366.015625" xlink:href="#DejaVuSans-109"/>
      <use x="463.427734" xlink:href="#DejaVuSans-58"/>
      <use x="497.119141" xlink:href="#DejaVuSans-32"/>
      <use x="528.90625" xlink:href="#DejaVuSans-49"/>
      <use x="592.529297" xlink:href="#DejaVuSans-46"/>
      <use x="624.316406" xlink:href="#DejaVuSans-48"/>
     </g>
    </g>
    <g id="line2d_64">
     <path d="M 790.063125 439.632812 
L 834.063125 439.632812 
" style="fill:none;stroke:#ff15ff;stroke-linecap:square;stroke-width:5;"/>
    </g>
    <g id="line2d_65"/>
    <g id="text_20">
     <!-- Gated: 0.15 -->
     <g transform="translate(851.663125 447.332812)scale(0.22 -0.22)">
      <use xlink:href="#DejaVuSans-71"/>
      <use x="77.490234" xlink:href="#DejaVuSans-97"/>
      <use x="138.769531" xlink:href="#DejaVuSans-116"/>
      <use x="177.978516" xlink:href="#DejaVuSans-101"/>
      <use x="239.501953" xlink:href="#DejaVuSans-100"/>
      <use x="302.978516" xlink:href="#DejaVuSans-58"/>
      <use x="336.669922" xlink:href="#DejaVuSans-32"/>
      <use x="368.457031" xlink:href="#DejaVuSans-48"/>
      <use x="432.080078" xlink:href="#DejaVuSans-46"/>
      <use x="463.867188" xlink:href="#DejaVuSans-49"/>
      <use x="527.490234" xlink:href="#DejaVuSans-53"/>
     </g>
    </g>
    <g id="line2d_66">
     <path d="M 790.063125 471.924688 
L 834.063125 471.924688 
" style="fill:none;stroke:#ffa0f0;stroke-linecap:square;stroke-width:5;"/>
    </g>
    <g id="line2d_67"/>
    <g id="text_21">
     <!-- Minimum: 0.15 -->
     <g transform="translate(851.663125 479.624687)scale(0.22 -0.22)">
      <use xlink:href="#DejaVuSans-77"/>
      <use x="86.279297" xlink:href="#DejaVuSans-105"/>
      <use x="114.0625" xlink:href="#DejaVuSans-110"/>
      <use x="177.441406" xlink:href="#DejaVuSans-105"/>
      <use x="205.224609" xlink:href="#DejaVuSans-109"/>
      <use x="302.636719" xlink:href="#DejaVuSans-117"/>
      <use x="366.015625" xlink:href="#DejaVuSans-109"/>
      <use x="463.427734" xlink:href="#DejaVuSans-58"/>
      <use x="497.119141" xlink:href="#DejaVuSans-32"/>
      <use x="528.90625" xlink:href="#DejaVuSans-48"/>
      <use x="592.529297" xlink:href="#DejaVuSans-46"/>
      <use x="624.316406" xlink:href="#DejaVuSans-49"/>
      <use x="687.939453" xlink:href="#DejaVuSans-53"/>
     </g>
    </g>
   </g>
  </g>
 </g>
 <defs>
  <clipPath id="pf0afc32011">
   <rect height="434.88" width="892.8" x="144" y="69.12"/>
  </clipPath>
 </defs>
</svg>
