<?xml version="1.0" encoding="utf-8" standalone="no"?>
<!DOCTYPE svg PUBLIC "-//W3C//DTD SVG 1.1//EN"
  "http://www.w3.org/Graphics/SVG/1.1/DTD/svg11.dtd">
<!-- Created with matplotlib (https://matplotlib.org/) -->
<svg height="576pt" version="1.1" viewBox="0 0 1152 576" width="1152pt" xmlns="http://www.w3.org/2000/svg" xmlns:xlink="http://www.w3.org/1999/xlink">
 <metadata>
  <rdf:RDF xmlns:cc="http://creativecommons.org/ns#" xmlns:dc="http://purl.org/dc/elements/1.1/" xmlns:rdf="http://www.w3.org/1999/02/22-rdf-syntax-ns#">
   <cc:Work>
    <dc:type rdf:resource="http://purl.org/dc/dcmitype/StillImage"/>
    <dc:date>2021-09-12T15:16:31.903745</dc:date>
    <dc:format>image/svg+xml</dc:format>
    <dc:creator>
     <cc:Agent>
      <dc:title>Matplotlib v3.3.4, https://matplotlib.org/</dc:title>
     </cc:Agent>
    </dc:creator>
   </cc:Work>
  </rdf:RDF>
 </metadata>
 <defs>
  <style type="text/css">*{stroke-linecap:butt;stroke-linejoin:round;}</style>
 </defs>
 <g id="figure_1">
  <g id="patch_1">
   <path d="M 0 576 
L 1152 576 
L 1152 0 
L 0 0 
z
" style="fill:#ffffff;"/>
  </g>
  <g id="axes_1">
   <g id="patch_2">
    <path d="M 144 504 
L 1036.8 504 
L 1036.8 69.12 
L 144 69.12 
z
" style="fill:#ffffff;"/>
   </g>
   <g id="matplotlib.axis_1">
    <g id="xtick_1">
     <g id="line2d_1">
      <defs>
       <path d="M 0 0 
L 0 3.5 
" id="md113aca438" style="stroke:#000000;stroke-width:0.8;"/>
      </defs>
      <g>
       <use style="stroke:#000000;stroke-width:0.8;" x="144" xlink:href="#md113aca438" y="504"/>
      </g>
     </g>
     <g id="text_1">
      <!-- 84 -->
      <g transform="translate(128.73 529.23625)scale(0.24 -0.24)">
       <defs>
        <path d="M 31.78125 34.625 
Q 24.75 34.625 20.71875 30.859375 
Q 16.703125 27.09375 16.703125 20.515625 
Q 16.703125 13.921875 20.71875 10.15625 
Q 24.75 6.390625 31.78125 6.390625 
Q 38.8125 6.390625 42.859375 10.171875 
Q 46.921875 13.96875 46.921875 20.515625 
Q 46.921875 27.09375 42.890625 30.859375 
Q 38.875 34.625 31.78125 34.625 
z
M 21.921875 38.8125 
Q 15.578125 40.375 12.03125 44.71875 
Q 8.5 49.078125 8.5 55.328125 
Q 8.5 64.0625 14.71875 69.140625 
Q 20.953125 74.21875 31.78125 74.21875 
Q 42.671875 74.21875 48.875 69.140625 
Q 55.078125 64.0625 55.078125 55.328125 
Q 55.078125 49.078125 51.53125 44.71875 
Q 48 40.375 41.703125 38.8125 
Q 48.828125 37.15625 52.796875 32.3125 
Q 56.78125 27.484375 56.78125 20.515625 
Q 56.78125 9.90625 50.3125 4.234375 
Q 43.84375 -1.421875 31.78125 -1.421875 
Q 19.734375 -1.421875 13.25 4.234375 
Q 6.78125 9.90625 6.78125 20.515625 
Q 6.78125 27.484375 10.78125 32.3125 
Q 14.796875 37.15625 21.921875 38.8125 
z
M 18.3125 54.390625 
Q 18.3125 48.734375 21.84375 45.5625 
Q 25.390625 42.390625 31.78125 42.390625 
Q 38.140625 42.390625 41.71875 45.5625 
Q 45.3125 48.734375 45.3125 54.390625 
Q 45.3125 60.0625 41.71875 63.234375 
Q 38.140625 66.40625 31.78125 66.40625 
Q 25.390625 66.40625 21.84375 63.234375 
Q 18.3125 60.0625 18.3125 54.390625 
z
" id="DejaVuSans-56"/>
        <path d="M 37.796875 64.3125 
L 12.890625 25.390625 
L 37.796875 25.390625 
z
M 35.203125 72.90625 
L 47.609375 72.90625 
L 47.609375 25.390625 
L 58.015625 25.390625 
L 58.015625 17.1875 
L 47.609375 17.1875 
L 47.609375 0 
L 37.796875 0 
L 37.796875 17.1875 
L 4.890625 17.1875 
L 4.890625 26.703125 
z
" id="DejaVuSans-52"/>
       </defs>
       <use xlink:href="#DejaVuSans-56"/>
       <use x="63.623047" xlink:href="#DejaVuSans-52"/>
      </g>
     </g>
    </g>
    <g id="xtick_2">
     <g id="line2d_2">
      <g>
       <use style="stroke:#000000;stroke-width:0.8;" x="255.6" xlink:href="#md113aca438" y="504"/>
      </g>
     </g>
     <g id="text_2">
      <!-- 86 -->
      <g transform="translate(240.33 529.23625)scale(0.24 -0.24)">
       <defs>
        <path d="M 33.015625 40.375 
Q 26.375 40.375 22.484375 35.828125 
Q 18.609375 31.296875 18.609375 23.390625 
Q 18.609375 15.53125 22.484375 10.953125 
Q 26.375 6.390625 33.015625 6.390625 
Q 39.65625 6.390625 43.53125 10.953125 
Q 47.40625 15.53125 47.40625 23.390625 
Q 47.40625 31.296875 43.53125 35.828125 
Q 39.65625 40.375 33.015625 40.375 
z
M 52.59375 71.296875 
L 52.59375 62.3125 
Q 48.875 64.0625 45.09375 64.984375 
Q 41.3125 65.921875 37.59375 65.921875 
Q 27.828125 65.921875 22.671875 59.328125 
Q 17.53125 52.734375 16.796875 39.40625 
Q 19.671875 43.65625 24.015625 45.921875 
Q 28.375 48.1875 33.59375 48.1875 
Q 44.578125 48.1875 50.953125 41.515625 
Q 57.328125 34.859375 57.328125 23.390625 
Q 57.328125 12.15625 50.6875 5.359375 
Q 44.046875 -1.421875 33.015625 -1.421875 
Q 20.359375 -1.421875 13.671875 8.265625 
Q 6.984375 17.96875 6.984375 36.375 
Q 6.984375 53.65625 15.1875 63.9375 
Q 23.390625 74.21875 37.203125 74.21875 
Q 40.921875 74.21875 44.703125 73.484375 
Q 48.484375 72.75 52.59375 71.296875 
z
" id="DejaVuSans-54"/>
       </defs>
       <use xlink:href="#DejaVuSans-56"/>
       <use x="63.623047" xlink:href="#DejaVuSans-54"/>
      </g>
     </g>
    </g>
    <g id="xtick_3">
     <g id="line2d_3">
      <g>
       <use style="stroke:#000000;stroke-width:0.8;" x="367.2" xlink:href="#md113aca438" y="504"/>
      </g>
     </g>
     <g id="text_3">
      <!-- 88 -->
      <g transform="translate(351.93 529.23625)scale(0.24 -0.24)">
       <use xlink:href="#DejaVuSans-56"/>
       <use x="63.623047" xlink:href="#DejaVuSans-56"/>
      </g>
     </g>
    </g>
    <g id="xtick_4">
     <g id="line2d_4">
      <g>
       <use style="stroke:#000000;stroke-width:0.8;" x="478.8" xlink:href="#md113aca438" y="504"/>
      </g>
     </g>
     <g id="text_4">
      <!-- 90 -->
      <g transform="translate(463.53 529.23625)scale(0.24 -0.24)">
       <defs>
        <path d="M 10.984375 1.515625 
L 10.984375 10.5 
Q 14.703125 8.734375 18.5 7.8125 
Q 22.3125 6.890625 25.984375 6.890625 
Q 35.75 6.890625 40.890625 13.453125 
Q 46.046875 20.015625 46.78125 33.40625 
Q 43.953125 29.203125 39.59375 26.953125 
Q 35.25 24.703125 29.984375 24.703125 
Q 19.046875 24.703125 12.671875 31.3125 
Q 6.296875 37.9375 6.296875 49.421875 
Q 6.296875 60.640625 12.9375 67.421875 
Q 19.578125 74.21875 30.609375 74.21875 
Q 43.265625 74.21875 49.921875 64.515625 
Q 56.59375 54.828125 56.59375 36.375 
Q 56.59375 19.140625 48.40625 8.859375 
Q 40.234375 -1.421875 26.421875 -1.421875 
Q 22.703125 -1.421875 18.890625 -0.6875 
Q 15.09375 0.046875 10.984375 1.515625 
z
M 30.609375 32.421875 
Q 37.25 32.421875 41.125 36.953125 
Q 45.015625 41.5 45.015625 49.421875 
Q 45.015625 57.28125 41.125 61.84375 
Q 37.25 66.40625 30.609375 66.40625 
Q 23.96875 66.40625 20.09375 61.84375 
Q 16.21875 57.28125 16.21875 49.421875 
Q 16.21875 41.5 20.09375 36.953125 
Q 23.96875 32.421875 30.609375 32.421875 
z
" id="DejaVuSans-57"/>
        <path d="M 31.78125 66.40625 
Q 24.171875 66.40625 20.328125 58.90625 
Q 16.5 51.421875 16.5 36.375 
Q 16.5 21.390625 20.328125 13.890625 
Q 24.171875 6.390625 31.78125 6.390625 
Q 39.453125 6.390625 43.28125 13.890625 
Q 47.125 21.390625 47.125 36.375 
Q 47.125 51.421875 43.28125 58.90625 
Q 39.453125 66.40625 31.78125 66.40625 
z
M 31.78125 74.21875 
Q 44.046875 74.21875 50.515625 64.515625 
Q 56.984375 54.828125 56.984375 36.375 
Q 56.984375 17.96875 50.515625 8.265625 
Q 44.046875 -1.421875 31.78125 -1.421875 
Q 19.53125 -1.421875 13.0625 8.265625 
Q 6.59375 17.96875 6.59375 36.375 
Q 6.59375 54.828125 13.0625 64.515625 
Q 19.53125 74.21875 31.78125 74.21875 
z
" id="DejaVuSans-48"/>
       </defs>
       <use xlink:href="#DejaVuSans-57"/>
       <use x="63.623047" xlink:href="#DejaVuSans-48"/>
      </g>
     </g>
    </g>
    <g id="xtick_5">
     <g id="line2d_5">
      <g>
       <use style="stroke:#000000;stroke-width:0.8;" x="590.4" xlink:href="#md113aca438" y="504"/>
      </g>
     </g>
     <g id="text_5">
      <!-- 92 -->
      <g transform="translate(575.13 529.23625)scale(0.24 -0.24)">
       <defs>
        <path d="M 19.1875 8.296875 
L 53.609375 8.296875 
L 53.609375 0 
L 7.328125 0 
L 7.328125 8.296875 
Q 12.9375 14.109375 22.625 23.890625 
Q 32.328125 33.6875 34.8125 36.53125 
Q 39.546875 41.84375 41.421875 45.53125 
Q 43.3125 49.21875 43.3125 52.78125 
Q 43.3125 58.59375 39.234375 62.25 
Q 35.15625 65.921875 28.609375 65.921875 
Q 23.96875 65.921875 18.8125 64.3125 
Q 13.671875 62.703125 7.8125 59.421875 
L 7.8125 69.390625 
Q 13.765625 71.78125 18.9375 73 
Q 24.125 74.21875 28.421875 74.21875 
Q 39.75 74.21875 46.484375 68.546875 
Q 53.21875 62.890625 53.21875 53.421875 
Q 53.21875 48.921875 51.53125 44.890625 
Q 49.859375 40.875 45.40625 35.40625 
Q 44.1875 33.984375 37.640625 27.21875 
Q 31.109375 20.453125 19.1875 8.296875 
z
" id="DejaVuSans-50"/>
       </defs>
       <use xlink:href="#DejaVuSans-57"/>
       <use x="63.623047" xlink:href="#DejaVuSans-50"/>
      </g>
     </g>
    </g>
    <g id="xtick_6">
     <g id="line2d_6">
      <g>
       <use style="stroke:#000000;stroke-width:0.8;" x="702" xlink:href="#md113aca438" y="504"/>
      </g>
     </g>
     <g id="text_6">
      <!-- 94 -->
      <g transform="translate(686.73 529.23625)scale(0.24 -0.24)">
       <use xlink:href="#DejaVuSans-57"/>
       <use x="63.623047" xlink:href="#DejaVuSans-52"/>
      </g>
     </g>
    </g>
    <g id="xtick_7">
     <g id="line2d_7">
      <g>
       <use style="stroke:#000000;stroke-width:0.8;" x="813.6" xlink:href="#md113aca438" y="504"/>
      </g>
     </g>
     <g id="text_7">
      <!-- 96 -->
      <g transform="translate(798.33 529.23625)scale(0.24 -0.24)">
       <use xlink:href="#DejaVuSans-57"/>
       <use x="63.623047" xlink:href="#DejaVuSans-54"/>
      </g>
     </g>
    </g>
    <g id="xtick_8">
     <g id="line2d_8">
      <g>
       <use style="stroke:#000000;stroke-width:0.8;" x="925.2" xlink:href="#md113aca438" y="504"/>
      </g>
     </g>
     <g id="text_8">
      <!-- 98 -->
      <g transform="translate(909.93 529.23625)scale(0.24 -0.24)">
       <use xlink:href="#DejaVuSans-57"/>
       <use x="63.623047" xlink:href="#DejaVuSans-56"/>
      </g>
     </g>
    </g>
    <g id="xtick_9">
     <g id="line2d_9">
      <g>
       <use style="stroke:#000000;stroke-width:0.8;" x="1036.8" xlink:href="#md113aca438" y="504"/>
      </g>
     </g>
     <g id="text_9">
      <!-- 100 -->
      <g transform="translate(1013.895 529.23625)scale(0.24 -0.24)">
       <defs>
        <path d="M 12.40625 8.296875 
L 28.515625 8.296875 
L 28.515625 63.921875 
L 10.984375 60.40625 
L 10.984375 69.390625 
L 28.421875 72.90625 
L 38.28125 72.90625 
L 38.28125 8.296875 
L 54.390625 8.296875 
L 54.390625 0 
L 12.40625 0 
z
" id="DejaVuSans-49"/>
       </defs>
       <use xlink:href="#DejaVuSans-49"/>
       <use x="63.623047" xlink:href="#DejaVuSans-48"/>
       <use x="127.246094" xlink:href="#DejaVuSans-48"/>
      </g>
     </g>
    </g>
    <g id="text_10">
     <!-- Accuracy /% -->
     <g transform="translate(504.013437 559.503125)scale(0.28 -0.28)">
      <defs>
       <path d="M 34.1875 63.1875 
L 20.796875 26.90625 
L 47.609375 26.90625 
z
M 28.609375 72.90625 
L 39.796875 72.90625 
L 67.578125 0 
L 57.328125 0 
L 50.6875 18.703125 
L 17.828125 18.703125 
L 11.1875 0 
L 0.78125 0 
z
" id="DejaVuSans-65"/>
       <path d="M 48.78125 52.59375 
L 48.78125 44.1875 
Q 44.96875 46.296875 41.140625 47.34375 
Q 37.3125 48.390625 33.40625 48.390625 
Q 24.65625 48.390625 19.8125 42.84375 
Q 14.984375 37.3125 14.984375 27.296875 
Q 14.984375 17.28125 19.8125 11.734375 
Q 24.65625 6.203125 33.40625 6.203125 
Q 37.3125 6.203125 41.140625 7.25 
Q 44.96875 8.296875 48.78125 10.40625 
L 48.78125 2.09375 
Q 45.015625 0.34375 40.984375 -0.53125 
Q 36.96875 -1.421875 32.421875 -1.421875 
Q 20.0625 -1.421875 12.78125 6.34375 
Q 5.515625 14.109375 5.515625 27.296875 
Q 5.515625 40.671875 12.859375 48.328125 
Q 20.21875 56 33.015625 56 
Q 37.15625 56 41.109375 55.140625 
Q 45.0625 54.296875 48.78125 52.59375 
z
" id="DejaVuSans-99"/>
       <path d="M 8.5 21.578125 
L 8.5 54.6875 
L 17.484375 54.6875 
L 17.484375 21.921875 
Q 17.484375 14.15625 20.5 10.265625 
Q 23.53125 6.390625 29.59375 6.390625 
Q 36.859375 6.390625 41.078125 11.03125 
Q 45.3125 15.671875 45.3125 23.6875 
L 45.3125 54.6875 
L 54.296875 54.6875 
L 54.296875 0 
L 45.3125 0 
L 45.3125 8.40625 
Q 42.046875 3.421875 37.71875 1 
Q 33.40625 -1.421875 27.6875 -1.421875 
Q 18.265625 -1.421875 13.375 4.4375 
Q 8.5 10.296875 8.5 21.578125 
z
M 31.109375 56 
z
" id="DejaVuSans-117"/>
       <path d="M 41.109375 46.296875 
Q 39.59375 47.171875 37.8125 47.578125 
Q 36.03125 48 33.890625 48 
Q 26.265625 48 22.1875 43.046875 
Q 18.109375 38.09375 18.109375 28.8125 
L 18.109375 0 
L 9.078125 0 
L 9.078125 54.6875 
L 18.109375 54.6875 
L 18.109375 46.1875 
Q 20.953125 51.171875 25.484375 53.578125 
Q 30.03125 56 36.53125 56 
Q 37.453125 56 38.578125 55.875 
Q 39.703125 55.765625 41.0625 55.515625 
z
" id="DejaVuSans-114"/>
       <path d="M 34.28125 27.484375 
Q 23.390625 27.484375 19.1875 25 
Q 14.984375 22.515625 14.984375 16.5 
Q 14.984375 11.71875 18.140625 8.90625 
Q 21.296875 6.109375 26.703125 6.109375 
Q 34.1875 6.109375 38.703125 11.40625 
Q 43.21875 16.703125 43.21875 25.484375 
L 43.21875 27.484375 
z
M 52.203125 31.203125 
L 52.203125 0 
L 43.21875 0 
L 43.21875 8.296875 
Q 40.140625 3.328125 35.546875 0.953125 
Q 30.953125 -1.421875 24.3125 -1.421875 
Q 15.921875 -1.421875 10.953125 3.296875 
Q 6 8.015625 6 15.921875 
Q 6 25.140625 12.171875 29.828125 
Q 18.359375 34.515625 30.609375 34.515625 
L 43.21875 34.515625 
L 43.21875 35.40625 
Q 43.21875 41.609375 39.140625 45 
Q 35.0625 48.390625 27.6875 48.390625 
Q 23 48.390625 18.546875 47.265625 
Q 14.109375 46.140625 10.015625 43.890625 
L 10.015625 52.203125 
Q 14.9375 54.109375 19.578125 55.046875 
Q 24.21875 56 28.609375 56 
Q 40.484375 56 46.34375 49.84375 
Q 52.203125 43.703125 52.203125 31.203125 
z
" id="DejaVuSans-97"/>
       <path d="M 32.171875 -5.078125 
Q 28.375 -14.84375 24.75 -17.8125 
Q 21.140625 -20.796875 15.09375 -20.796875 
L 7.90625 -20.796875 
L 7.90625 -13.28125 
L 13.1875 -13.28125 
Q 16.890625 -13.28125 18.9375 -11.515625 
Q 21 -9.765625 23.484375 -3.21875 
L 25.09375 0.875 
L 2.984375 54.6875 
L 12.5 54.6875 
L 29.59375 11.921875 
L 46.6875 54.6875 
L 56.203125 54.6875 
z
" id="DejaVuSans-121"/>
       <path id="DejaVuSans-32"/>
       <path d="M 25.390625 72.90625 
L 33.6875 72.90625 
L 8.296875 -9.28125 
L 0 -9.28125 
z
" id="DejaVuSans-47"/>
       <path d="M 72.703125 32.078125 
Q 68.453125 32.078125 66.03125 28.46875 
Q 63.625 24.859375 63.625 18.40625 
Q 63.625 12.0625 66.03125 8.421875 
Q 68.453125 4.78125 72.703125 4.78125 
Q 76.859375 4.78125 79.265625 8.421875 
Q 81.6875 12.0625 81.6875 18.40625 
Q 81.6875 24.8125 79.265625 28.4375 
Q 76.859375 32.078125 72.703125 32.078125 
z
M 72.703125 38.28125 
Q 80.421875 38.28125 84.953125 32.90625 
Q 89.5 27.546875 89.5 18.40625 
Q 89.5 9.28125 84.9375 3.921875 
Q 80.375 -1.421875 72.703125 -1.421875 
Q 64.890625 -1.421875 60.34375 3.921875 
Q 55.8125 9.28125 55.8125 18.40625 
Q 55.8125 27.59375 60.375 32.9375 
Q 64.9375 38.28125 72.703125 38.28125 
z
M 22.3125 68.015625 
Q 18.109375 68.015625 15.6875 64.375 
Q 13.28125 60.75 13.28125 54.390625 
Q 13.28125 47.953125 15.671875 44.328125 
Q 18.0625 40.71875 22.3125 40.71875 
Q 26.5625 40.71875 28.96875 44.328125 
Q 31.390625 47.953125 31.390625 54.390625 
Q 31.390625 60.6875 28.953125 64.34375 
Q 26.515625 68.015625 22.3125 68.015625 
z
M 66.40625 74.21875 
L 74.21875 74.21875 
L 28.609375 -1.421875 
L 20.796875 -1.421875 
z
M 22.3125 74.21875 
Q 30.03125 74.21875 34.609375 68.875 
Q 39.203125 63.53125 39.203125 54.390625 
Q 39.203125 45.171875 34.640625 39.84375 
Q 30.078125 34.515625 22.3125 34.515625 
Q 14.546875 34.515625 10.03125 39.859375 
Q 5.515625 45.21875 5.515625 54.390625 
Q 5.515625 63.484375 10.046875 68.84375 
Q 14.59375 74.21875 22.3125 74.21875 
z
" id="DejaVuSans-37"/>
      </defs>
      <use xlink:href="#DejaVuSans-65"/>
      <use x="66.658203" xlink:href="#DejaVuSans-99"/>
      <use x="121.638672" xlink:href="#DejaVuSans-99"/>
      <use x="176.619141" xlink:href="#DejaVuSans-117"/>
      <use x="239.998047" xlink:href="#DejaVuSans-114"/>
      <use x="281.111328" xlink:href="#DejaVuSans-97"/>
      <use x="342.390625" xlink:href="#DejaVuSans-99"/>
      <use x="397.371094" xlink:href="#DejaVuSans-121"/>
      <use x="456.550781" xlink:href="#DejaVuSans-32"/>
      <use x="488.337891" xlink:href="#DejaVuSans-47"/>
      <use x="522.029297" xlink:href="#DejaVuSans-37"/>
     </g>
    </g>
   </g>
   <g id="matplotlib.axis_2">
    <g id="ytick_1">
     <g id="line2d_10">
      <defs>
       <path d="M 0 0 
L -3.5 0 
" id="m9bd30ba25b" style="stroke:#000000;stroke-width:0.8;"/>
      </defs>
      <g>
       <use style="stroke:#000000;stroke-width:0.8;" x="144" xlink:href="#m9bd30ba25b" y="444.362283"/>
      </g>
     </g>
     <g id="text_11">
      <!-- $\mathdefault{10^{1}}$ -->
      <g transform="translate(94.76 453.480408)scale(0.24 -0.24)">
       <use transform="translate(0 0.684375)" xlink:href="#DejaVuSans-49"/>
       <use transform="translate(63.623047 0.684375)" xlink:href="#DejaVuSans-48"/>
       <use transform="translate(128.203125 38.965625)scale(0.7)" xlink:href="#DejaVuSans-49"/>
      </g>
     </g>
    </g>
    <g id="ytick_2">
     <g id="line2d_11">
      <g>
       <use style="stroke:#000000;stroke-width:0.8;" x="144" xlink:href="#m9bd30ba25b" y="359.04"/>
      </g>
     </g>
     <g id="text_12">
      <!-- $\mathdefault{10^{2}}$ -->
      <g transform="translate(94.76 368.158125)scale(0.24 -0.24)">
       <use transform="translate(0 0.765625)" xlink:href="#DejaVuSans-49"/>
       <use transform="translate(63.623047 0.765625)" xlink:href="#DejaVuSans-48"/>
       <use transform="translate(128.203125 39.046875)scale(0.7)" xlink:href="#DejaVuSans-50"/>
      </g>
     </g>
    </g>
    <g id="ytick_3">
     <g id="line2d_12">
      <g>
       <use style="stroke:#000000;stroke-width:0.8;" x="144" xlink:href="#m9bd30ba25b" y="273.717717"/>
      </g>
     </g>
     <g id="text_13">
      <!-- $\mathdefault{10^{3}}$ -->
      <g transform="translate(94.76 282.835842)scale(0.24 -0.24)">
       <defs>
        <path d="M 40.578125 39.3125 
Q 47.65625 37.796875 51.625 33 
Q 55.609375 28.21875 55.609375 21.1875 
Q 55.609375 10.40625 48.1875 4.484375 
Q 40.765625 -1.421875 27.09375 -1.421875 
Q 22.515625 -1.421875 17.65625 -0.515625 
Q 12.796875 0.390625 7.625 2.203125 
L 7.625 11.71875 
Q 11.71875 9.328125 16.59375 8.109375 
Q 21.484375 6.890625 26.8125 6.890625 
Q 36.078125 6.890625 40.9375 10.546875 
Q 45.796875 14.203125 45.796875 21.1875 
Q 45.796875 27.640625 41.28125 31.265625 
Q 36.765625 34.90625 28.71875 34.90625 
L 20.21875 34.90625 
L 20.21875 43.015625 
L 29.109375 43.015625 
Q 36.375 43.015625 40.234375 45.921875 
Q 44.09375 48.828125 44.09375 54.296875 
Q 44.09375 59.90625 40.109375 62.90625 
Q 36.140625 65.921875 28.71875 65.921875 
Q 24.65625 65.921875 20.015625 65.03125 
Q 15.375 64.15625 9.8125 62.3125 
L 9.8125 71.09375 
Q 15.4375 72.65625 20.34375 73.4375 
Q 25.25 74.21875 29.59375 74.21875 
Q 40.828125 74.21875 47.359375 69.109375 
Q 53.90625 64.015625 53.90625 55.328125 
Q 53.90625 49.265625 50.4375 45.09375 
Q 46.96875 40.921875 40.578125 39.3125 
z
" id="DejaVuSans-51"/>
       </defs>
       <use transform="translate(0 0.765625)" xlink:href="#DejaVuSans-49"/>
       <use transform="translate(63.623047 0.765625)" xlink:href="#DejaVuSans-48"/>
       <use transform="translate(128.203125 39.046875)scale(0.7)" xlink:href="#DejaVuSans-51"/>
      </g>
     </g>
    </g>
    <g id="ytick_4">
     <g id="line2d_13">
      <g>
       <use style="stroke:#000000;stroke-width:0.8;" x="144" xlink:href="#m9bd30ba25b" y="188.395433"/>
      </g>
     </g>
     <g id="text_14">
      <!-- $\mathdefault{10^{4}}$ -->
      <g transform="translate(94.76 197.513558)scale(0.24 -0.24)">
       <use transform="translate(0 0.684375)" xlink:href="#DejaVuSans-49"/>
       <use transform="translate(63.623047 0.684375)" xlink:href="#DejaVuSans-48"/>
       <use transform="translate(128.203125 38.965625)scale(0.7)" xlink:href="#DejaVuSans-52"/>
      </g>
     </g>
    </g>
    <g id="ytick_5">
     <g id="line2d_14">
      <g>
       <use style="stroke:#000000;stroke-width:0.8;" x="144" xlink:href="#m9bd30ba25b" y="103.07315"/>
      </g>
     </g>
     <g id="text_15">
      <!-- $\mathdefault{10^{5}}$ -->
      <g transform="translate(94.76 112.191275)scale(0.24 -0.24)">
       <defs>
        <path d="M 10.796875 72.90625 
L 49.515625 72.90625 
L 49.515625 64.59375 
L 19.828125 64.59375 
L 19.828125 46.734375 
Q 21.96875 47.46875 24.109375 47.828125 
Q 26.265625 48.1875 28.421875 48.1875 
Q 40.625 48.1875 47.75 41.5 
Q 54.890625 34.8125 54.890625 23.390625 
Q 54.890625 11.625 47.5625 5.09375 
Q 40.234375 -1.421875 26.90625 -1.421875 
Q 22.3125 -1.421875 17.546875 -0.640625 
Q 12.796875 0.140625 7.71875 1.703125 
L 7.71875 11.625 
Q 12.109375 9.234375 16.796875 8.0625 
Q 21.484375 6.890625 26.703125 6.890625 
Q 35.15625 6.890625 40.078125 11.328125 
Q 45.015625 15.765625 45.015625 23.390625 
Q 45.015625 31 40.078125 35.4375 
Q 35.15625 39.890625 26.703125 39.890625 
Q 22.75 39.890625 18.8125 39.015625 
Q 14.890625 38.140625 10.796875 36.28125 
z
" id="DejaVuSans-53"/>
       </defs>
       <use transform="translate(0 0.684375)" xlink:href="#DejaVuSans-49"/>
       <use transform="translate(63.623047 0.684375)" xlink:href="#DejaVuSans-48"/>
       <use transform="translate(128.203125 38.965625)scale(0.7)" xlink:href="#DejaVuSans-53"/>
      </g>
     </g>
    </g>
    <g id="ytick_6">
     <g id="line2d_15">
      <defs>
       <path d="M 0 0 
L -2 0 
" id="mabc4195b6b" style="stroke:#000000;stroke-width:0.6;"/>
      </defs>
      <g>
       <use style="stroke:#000000;stroke-width:0.6;" x="144" xlink:href="#mabc4195b6b" y="504"/>
      </g>
     </g>
    </g>
    <g id="ytick_7">
     <g id="line2d_16">
      <g>
       <use style="stroke:#000000;stroke-width:0.6;" x="144" xlink:href="#mabc4195b6b" y="488.975492"/>
      </g>
     </g>
    </g>
    <g id="ytick_8">
     <g id="line2d_17">
      <g>
       <use style="stroke:#000000;stroke-width:0.6;" x="144" xlink:href="#mabc4195b6b" y="478.315433"/>
      </g>
     </g>
    </g>
    <g id="ytick_9">
     <g id="line2d_18">
      <g>
       <use style="stroke:#000000;stroke-width:0.6;" x="144" xlink:href="#mabc4195b6b" y="470.04685"/>
      </g>
     </g>
    </g>
    <g id="ytick_10">
     <g id="line2d_19">
      <g>
       <use style="stroke:#000000;stroke-width:0.6;" x="144" xlink:href="#mabc4195b6b" y="463.290925"/>
      </g>
     </g>
    </g>
    <g id="ytick_11">
     <g id="line2d_20">
      <g>
       <use style="stroke:#000000;stroke-width:0.6;" x="144" xlink:href="#mabc4195b6b" y="457.578872"/>
      </g>
     </g>
    </g>
    <g id="ytick_12">
     <g id="line2d_21">
      <g>
       <use style="stroke:#000000;stroke-width:0.6;" x="144" xlink:href="#mabc4195b6b" y="452.630867"/>
      </g>
     </g>
    </g>
    <g id="ytick_13">
     <g id="line2d_22">
      <g>
       <use style="stroke:#000000;stroke-width:0.6;" x="144" xlink:href="#mabc4195b6b" y="448.266417"/>
      </g>
     </g>
    </g>
    <g id="ytick_14">
     <g id="line2d_23">
      <g>
       <use style="stroke:#000000;stroke-width:0.6;" x="144" xlink:href="#mabc4195b6b" y="418.677717"/>
      </g>
     </g>
    </g>
    <g id="ytick_15">
     <g id="line2d_24">
      <g>
       <use style="stroke:#000000;stroke-width:0.6;" x="144" xlink:href="#mabc4195b6b" y="403.653208"/>
      </g>
     </g>
    </g>
    <g id="ytick_16">
     <g id="line2d_25">
      <g>
       <use style="stroke:#000000;stroke-width:0.6;" x="144" xlink:href="#mabc4195b6b" y="392.99315"/>
      </g>
     </g>
    </g>
    <g id="ytick_17">
     <g id="line2d_26">
      <g>
       <use style="stroke:#000000;stroke-width:0.6;" x="144" xlink:href="#mabc4195b6b" y="384.724567"/>
      </g>
     </g>
    </g>
    <g id="ytick_18">
     <g id="line2d_27">
      <g>
       <use style="stroke:#000000;stroke-width:0.6;" x="144" xlink:href="#mabc4195b6b" y="377.968642"/>
      </g>
     </g>
    </g>
    <g id="ytick_19">
     <g id="line2d_28">
      <g>
       <use style="stroke:#000000;stroke-width:0.6;" x="144" xlink:href="#mabc4195b6b" y="372.256589"/>
      </g>
     </g>
    </g>
    <g id="ytick_20">
     <g id="line2d_29">
      <g>
       <use style="stroke:#000000;stroke-width:0.6;" x="144" xlink:href="#mabc4195b6b" y="367.308584"/>
      </g>
     </g>
    </g>
    <g id="ytick_21">
     <g id="line2d_30">
      <g>
       <use style="stroke:#000000;stroke-width:0.6;" x="144" xlink:href="#mabc4195b6b" y="362.944134"/>
      </g>
     </g>
    </g>
    <g id="ytick_22">
     <g id="line2d_31">
      <g>
       <use style="stroke:#000000;stroke-width:0.6;" x="144" xlink:href="#mabc4195b6b" y="333.355433"/>
      </g>
     </g>
    </g>
    <g id="ytick_23">
     <g id="line2d_32">
      <g>
       <use style="stroke:#000000;stroke-width:0.6;" x="144" xlink:href="#mabc4195b6b" y="318.330925"/>
      </g>
     </g>
    </g>
    <g id="ytick_24">
     <g id="line2d_33">
      <g>
       <use style="stroke:#000000;stroke-width:0.6;" x="144" xlink:href="#mabc4195b6b" y="307.670867"/>
      </g>
     </g>
    </g>
    <g id="ytick_25">
     <g id="line2d_34">
      <g>
       <use style="stroke:#000000;stroke-width:0.6;" x="144" xlink:href="#mabc4195b6b" y="299.402283"/>
      </g>
     </g>
    </g>
    <g id="ytick_26">
     <g id="line2d_35">
      <g>
       <use style="stroke:#000000;stroke-width:0.6;" x="144" xlink:href="#mabc4195b6b" y="292.646359"/>
      </g>
     </g>
    </g>
    <g id="ytick_27">
     <g id="line2d_36">
      <g>
       <use style="stroke:#000000;stroke-width:0.6;" x="144" xlink:href="#mabc4195b6b" y="286.934306"/>
      </g>
     </g>
    </g>
    <g id="ytick_28">
     <g id="line2d_37">
      <g>
       <use style="stroke:#000000;stroke-width:0.6;" x="144" xlink:href="#mabc4195b6b" y="281.9863"/>
      </g>
     </g>
    </g>
    <g id="ytick_29">
     <g id="line2d_38">
      <g>
       <use style="stroke:#000000;stroke-width:0.6;" x="144" xlink:href="#mabc4195b6b" y="277.62185"/>
      </g>
     </g>
    </g>
    <g id="ytick_30">
     <g id="line2d_39">
      <g>
       <use style="stroke:#000000;stroke-width:0.6;" x="144" xlink:href="#mabc4195b6b" y="248.03315"/>
      </g>
     </g>
    </g>
    <g id="ytick_31">
     <g id="line2d_40">
      <g>
       <use style="stroke:#000000;stroke-width:0.6;" x="144" xlink:href="#mabc4195b6b" y="233.008642"/>
      </g>
     </g>
    </g>
    <g id="ytick_32">
     <g id="line2d_41">
      <g>
       <use style="stroke:#000000;stroke-width:0.6;" x="144" xlink:href="#mabc4195b6b" y="222.348584"/>
      </g>
     </g>
    </g>
    <g id="ytick_33">
     <g id="line2d_42">
      <g>
       <use style="stroke:#000000;stroke-width:0.6;" x="144" xlink:href="#mabc4195b6b" y="214.08"/>
      </g>
     </g>
    </g>
    <g id="ytick_34">
     <g id="line2d_43">
      <g>
       <use style="stroke:#000000;stroke-width:0.6;" x="144" xlink:href="#mabc4195b6b" y="207.324075"/>
      </g>
     </g>
    </g>
    <g id="ytick_35">
     <g id="line2d_44">
      <g>
       <use style="stroke:#000000;stroke-width:0.6;" x="144" xlink:href="#mabc4195b6b" y="201.612022"/>
      </g>
     </g>
    </g>
    <g id="ytick_36">
     <g id="line2d_45">
      <g>
       <use style="stroke:#000000;stroke-width:0.6;" x="144" xlink:href="#mabc4195b6b" y="196.664017"/>
      </g>
     </g>
    </g>
    <g id="ytick_37">
     <g id="line2d_46">
      <g>
       <use style="stroke:#000000;stroke-width:0.6;" x="144" xlink:href="#mabc4195b6b" y="192.299567"/>
      </g>
     </g>
    </g>
    <g id="ytick_38">
     <g id="line2d_47">
      <g>
       <use style="stroke:#000000;stroke-width:0.6;" x="144" xlink:href="#mabc4195b6b" y="162.710867"/>
      </g>
     </g>
    </g>
    <g id="ytick_39">
     <g id="line2d_48">
      <g>
       <use style="stroke:#000000;stroke-width:0.6;" x="144" xlink:href="#mabc4195b6b" y="147.686359"/>
      </g>
     </g>
    </g>
    <g id="ytick_40">
     <g id="line2d_49">
      <g>
       <use style="stroke:#000000;stroke-width:0.6;" x="144" xlink:href="#mabc4195b6b" y="137.0263"/>
      </g>
     </g>
    </g>
    <g id="ytick_41">
     <g id="line2d_50">
      <g>
       <use style="stroke:#000000;stroke-width:0.6;" x="144" xlink:href="#mabc4195b6b" y="128.757717"/>
      </g>
     </g>
    </g>
    <g id="ytick_42">
     <g id="line2d_51">
      <g>
       <use style="stroke:#000000;stroke-width:0.6;" x="144" xlink:href="#mabc4195b6b" y="122.001792"/>
      </g>
     </g>
    </g>
    <g id="ytick_43">
     <g id="line2d_52">
      <g>
       <use style="stroke:#000000;stroke-width:0.6;" x="144" xlink:href="#mabc4195b6b" y="116.289739"/>
      </g>
     </g>
    </g>
    <g id="ytick_44">
     <g id="line2d_53">
      <g>
       <use style="stroke:#000000;stroke-width:0.6;" x="144" xlink:href="#mabc4195b6b" y="111.341734"/>
      </g>
     </g>
    </g>
    <g id="ytick_45">
     <g id="line2d_54">
      <g>
       <use style="stroke:#000000;stroke-width:0.6;" x="144" xlink:href="#mabc4195b6b" y="106.977284"/>
      </g>
     </g>
    </g>
    <g id="ytick_46">
     <g id="line2d_55">
      <g>
       <use style="stroke:#000000;stroke-width:0.6;" x="144" xlink:href="#mabc4195b6b" y="77.388584"/>
      </g>
     </g>
    </g>
    <g id="text_16">
     <!-- Energy /A.U. -->
     <g transform="translate(84.936875 373.22)rotate(-90)scale(0.28 -0.28)">
      <defs>
       <path d="M 9.8125 72.90625 
L 55.90625 72.90625 
L 55.90625 64.59375 
L 19.671875 64.59375 
L 19.671875 43.015625 
L 54.390625 43.015625 
L 54.390625 34.71875 
L 19.671875 34.71875 
L 19.671875 8.296875 
L 56.78125 8.296875 
L 56.78125 0 
L 9.8125 0 
z
" id="DejaVuSans-69"/>
       <path d="M 54.890625 33.015625 
L 54.890625 0 
L 45.90625 0 
L 45.90625 32.71875 
Q 45.90625 40.484375 42.875 44.328125 
Q 39.84375 48.1875 33.796875 48.1875 
Q 26.515625 48.1875 22.3125 43.546875 
Q 18.109375 38.921875 18.109375 30.90625 
L 18.109375 0 
L 9.078125 0 
L 9.078125 54.6875 
L 18.109375 54.6875 
L 18.109375 46.1875 
Q 21.34375 51.125 25.703125 53.5625 
Q 30.078125 56 35.796875 56 
Q 45.21875 56 50.046875 50.171875 
Q 54.890625 44.34375 54.890625 33.015625 
z
" id="DejaVuSans-110"/>
       <path d="M 56.203125 29.59375 
L 56.203125 25.203125 
L 14.890625 25.203125 
Q 15.484375 15.921875 20.484375 11.0625 
Q 25.484375 6.203125 34.421875 6.203125 
Q 39.59375 6.203125 44.453125 7.46875 
Q 49.3125 8.734375 54.109375 11.28125 
L 54.109375 2.78125 
Q 49.265625 0.734375 44.1875 -0.34375 
Q 39.109375 -1.421875 33.890625 -1.421875 
Q 20.796875 -1.421875 13.15625 6.1875 
Q 5.515625 13.8125 5.515625 26.8125 
Q 5.515625 40.234375 12.765625 48.109375 
Q 20.015625 56 32.328125 56 
Q 43.359375 56 49.78125 48.890625 
Q 56.203125 41.796875 56.203125 29.59375 
z
M 47.21875 32.234375 
Q 47.125 39.59375 43.09375 43.984375 
Q 39.0625 48.390625 32.421875 48.390625 
Q 24.90625 48.390625 20.390625 44.140625 
Q 15.875 39.890625 15.1875 32.171875 
z
" id="DejaVuSans-101"/>
       <path d="M 45.40625 27.984375 
Q 45.40625 37.75 41.375 43.109375 
Q 37.359375 48.484375 30.078125 48.484375 
Q 22.859375 48.484375 18.828125 43.109375 
Q 14.796875 37.75 14.796875 27.984375 
Q 14.796875 18.265625 18.828125 12.890625 
Q 22.859375 7.515625 30.078125 7.515625 
Q 37.359375 7.515625 41.375 12.890625 
Q 45.40625 18.265625 45.40625 27.984375 
z
M 54.390625 6.78125 
Q 54.390625 -7.171875 48.1875 -13.984375 
Q 42 -20.796875 29.203125 -20.796875 
Q 24.46875 -20.796875 20.265625 -20.09375 
Q 16.0625 -19.390625 12.109375 -17.921875 
L 12.109375 -9.1875 
Q 16.0625 -11.328125 19.921875 -12.34375 
Q 23.78125 -13.375 27.78125 -13.375 
Q 36.625 -13.375 41.015625 -8.765625 
Q 45.40625 -4.15625 45.40625 5.171875 
L 45.40625 9.625 
Q 42.625 4.78125 38.28125 2.390625 
Q 33.9375 0 27.875 0 
Q 17.828125 0 11.671875 7.65625 
Q 5.515625 15.328125 5.515625 27.984375 
Q 5.515625 40.671875 11.671875 48.328125 
Q 17.828125 56 27.875 56 
Q 33.9375 56 38.28125 53.609375 
Q 42.625 51.21875 45.40625 46.390625 
L 45.40625 54.6875 
L 54.390625 54.6875 
z
" id="DejaVuSans-103"/>
       <path d="M 10.6875 12.40625 
L 21 12.40625 
L 21 0 
L 10.6875 0 
z
" id="DejaVuSans-46"/>
       <path d="M 8.6875 72.90625 
L 18.609375 72.90625 
L 18.609375 28.609375 
Q 18.609375 16.890625 22.84375 11.734375 
Q 27.09375 6.59375 36.625 6.59375 
Q 46.09375 6.59375 50.34375 11.734375 
Q 54.59375 16.890625 54.59375 28.609375 
L 54.59375 72.90625 
L 64.5 72.90625 
L 64.5 27.390625 
Q 64.5 13.140625 57.4375 5.859375 
Q 50.390625 -1.421875 36.625 -1.421875 
Q 22.796875 -1.421875 15.734375 5.859375 
Q 8.6875 13.140625 8.6875 27.390625 
z
" id="DejaVuSans-85"/>
      </defs>
      <use xlink:href="#DejaVuSans-69"/>
      <use x="63.183594" xlink:href="#DejaVuSans-110"/>
      <use x="126.5625" xlink:href="#DejaVuSans-101"/>
      <use x="188.085938" xlink:href="#DejaVuSans-114"/>
      <use x="227.449219" xlink:href="#DejaVuSans-103"/>
      <use x="290.925781" xlink:href="#DejaVuSans-121"/>
      <use x="350.105469" xlink:href="#DejaVuSans-32"/>
      <use x="381.892578" xlink:href="#DejaVuSans-47"/>
      <use x="415.583984" xlink:href="#DejaVuSans-65"/>
      <use x="482.242188" xlink:href="#DejaVuSans-46"/>
      <use x="514.029297" xlink:href="#DejaVuSans-85"/>
      <use x="587.222656" xlink:href="#DejaVuSans-46"/>
     </g>
    </g>
   </g>
   <g id="line2d_56">
    <path clip-path="url(#pafd349e36d)" d="M 82.62 254.697012 
L 333.72 232.137981 
L 393.984 219.562737 
L 450.342 211.068861 
L 486.054 204.464873 
L 490.518 199.189141 
L 498.33 194.861509 
L 540.18 190.926075 
L 553.572 187.399949 
L 581.472 184.318915 
L 588.726 181.566287 
L 577.008 178.992361 
L 608.814 176.733235 
L 611.046 174.48694 
L 587.052 172.466773 
L 626.67 170.524413 
L 623.322 168.841502 
L 642.294 167.139453 
L 654.57 165.579702 
L 646.758 164.155904 
L 613.836 162.791553 
L 665.172 161.363449 
L 675.216 160.041446 
L 685.818 158.830966 
L 662.94 157.705757 
L 677.448 156.598619 
L 685.818 155.474758 
L 696.978 154.496674 
L 686.376 153.517392 
L 692.514 152.57197 
L 689.724 151.625936 
L 704.232 150.665531 
L 711.486 149.802399 
L 706.464 148.969102 
L 722.088 148.118908 
L 716.508 147.372191 
L 722.088 146.612697 
L 708.138 145.904592 
L 740.502 144.464127 
L 751.104 143.781699 
L 736.038 143.118082 
L 742.176 142.431833 
L 749.988 141.783649 
L 739.386 141.165966 
L 753.336 140.591827 
L 756.684 139.994282 
L 755.568 139.412494 
L 763.938 138.863914 
L 763.38 138.308731 
L 756.684 137.77582 
L 772.308 136.702765 
L 765.612 136.209502 
L 767.286 135.718943 
L 778.446 135.276147 
L 774.54 134.765442 
L 782.91 133.811176 
L 789.048 133.357737 
L 775.098 132.934769 
L 787.932 132.489828 
L 783.468 132.064851 
L 785.142 131.649058 
L 784.584 131.240496 
L 791.838 130.849422 
L 795.186 130.426969 
L 786.816 130.03026 
L 790.164 129.647031 
L 787.932 129.255592 
L 800.766 128.877874 
L 805.23 128.499316 
L 800.208 128.132958 
L 800.208 127.78895 
L 809.136 127.436469 
L 800.208 127.119502 
L 809.136 126.77879 
L 806.346 126.414746 
L 815.274 126.082038 
L 808.02 125.758115 
L 813.6 125.414541 
L 816.39 125.08308 
L 808.02 124.762195 
L 815.832 124.439774 
L 819.738 124.131134 
L 818.622 123.818738 
L 824.202 123.507891 
L 817.506 123.207437 
L 821.412 122.919149 
L 820.296 122.630979 
L 824.202 122.343534 
L 823.086 122.042566 
L 824.76 121.746781 
L 821.412 121.469961 
L 825.876 121.199753 
L 830.34 120.709413 
L 829.782 120.458113 
L 828.666 120.201163 
L 832.014 119.923326 
L 830.34 119.658416 
L 824.76 119.40866 
L 828.666 119.145071 
L 840.942 118.89239 
L 835.362 118.642856 
L 833.688 118.395973 
L 838.71 118.153676 
L 832.014 117.9064 
L 839.826 117.662306 
L 833.13 117.445621 
L 836.478 117.224335 
L 846.522 116.986487 
L 839.268 116.762454 
L 837.036 116.525309 
L 852.66 116.065819 
L 845.964 115.859517 
L 850.986 115.620715 
L 851.544 115.408637 
L 850.986 115.198146 
L 845.964 114.993994 
L 849.87 114.78379 
L 844.29 114.59214 
L 844.29 114.386381 
L 843.732 114.193849 
L 849.87 113.991404 
L 847.638 113.791024 
L 848.196 113.585247 
L 839.826 113.369299 
L 853.218 112.962814 
L 853.776 112.770511 
L 852.102 112.590975 
L 857.124 112.393824 
L 850.986 112.023999 
L 846.522 111.842883 
L 856.008 111.661153 
L 841.5 111.473895 
L 859.356 111.302455 
L 850.986 111.117555 
L 856.008 110.74595 
L 864.936 110.565254 
L 861.588 110.395453 
L 855.45 110.230735 
L 861.03 110.049522 
L 861.588 109.88809 
L 861.588 109.711266 
L 858.798 109.537366 
L 866.052 109.359311 
L 864.936 109.206575 
L 862.704 109.043972 
L 871.074 108.8791 
L 858.798 108.713063 
L 862.146 108.548318 
L 858.798 108.394584 
L 861.588 108.229089 
L 867.168 108.064043 
L 867.168 107.903548 
L 866.052 107.762712 
L 866.052 107.615974 
L 862.146 107.460899 
L 866.052 107.300825 
L 858.798 107.149946 
L 867.726 106.990345 
L 864.936 106.84344 
L 873.864 106.556896 
L 867.168 106.419215 
L 870.516 106.276103 
L 865.494 106.125605 
L 872.748 105.993135 
L 873.306 105.846421 
L 871.074 105.707827 
L 872.19 105.559969 
L 862.146 105.427172 
L 869.958 105.132741 
L 871.632 104.989565 
L 874.98 104.861792 
L 869.4 104.724737 
L 873.864 104.592192 
L 872.19 104.450507 
L 876.096 104.328364 
L 872.19 104.199448 
L 859.914 104.063243 
L 873.306 103.924552 
L 870.516 103.789537 
L 872.19 103.538019 
L 867.168 103.398912 
L 882.792 103.278695 
L 872.748 103.15045 
L 874.422 103.027942 
L 874.422 102.90775 
L 872.19 102.778917 
L 867.168 102.651965 
L 872.19 102.535496 
L 865.494 102.416212 
L 877.212 102.15799 
L 868.284 102.036034 
L 877.77 101.793262 
L 872.748 101.683809 
L 873.306 101.577669 
L 876.096 101.450272 
L 867.726 101.339651 
L 878.886 101.231624 
L 872.748 101.117912 
L 873.864 100.997245 
L 877.212 100.772457 
L 876.096 100.643722 
L 877.77 100.525813 
L 883.908 100.406818 
L 881.118 100.183154 
L 880.56 100.077886 
L 873.306 99.973524 
L 880.56 99.859739 
L 877.212 99.7573 
L 877.77 99.651429 
L 885.024 99.543158 
L 880.56 99.426929 
L 870.516 99.32204 
L 874.98 99.221991 
L 872.748 99.126468 
L 874.422 99.026191 
L 887.256 98.820277 
L 877.212 98.728287 
L 881.118 98.524955 
L 876.654 98.425166 
L 885.024 98.203191 
L 874.98 98.098353 
L 885.582 97.894879 
L 880.56 97.792133 
L 882.792 97.700076 
L 873.864 97.602478 
L 884.466 97.507051 
L 869.958 97.308842 
L 885.582 97.217628 
L 877.77 97.119126 
L 878.328 97.023499 
L 874.98 96.934169 
L 885.024 96.832225 
L 876.654 96.570402 
L 880.002 96.47686 
L 877.212 96.288662 
L 878.886 96.106736 
L 878.328 96.009873 
L 872.19 95.912109 
L 875.538 95.816921 
L 885.582 95.730939 
L 876.654 95.646967 
L 888.93 95.560477 
L 884.466 95.380624 
L 885.024 95.285112 
L 879.444 95.201827 
L 883.908 95.117597 
L 871.074 94.944615 
L 885.024 94.8564 
L 881.676 94.771361 
L 890.046 94.686328 
L 877.77 94.531063 
L 886.14 94.29613 
L 870.516 94.122538 
L 888.372 94.037257 
L 886.698 93.946123 
L 888.93 93.862244 
L 878.328 93.685754 
L 890.046 93.608408 
L 888.93 93.529356 
L 885.582 93.444044 
L 888.93 93.366141 
L 884.466 93.202649 
L 889.488 93.121698 
L 875.538 92.891402 
L 880.002 92.805561 
L 884.466 92.663477 
L 880.56 92.588268 
L 886.14 92.516296 
L 885.024 92.434223 
L 889.488 92.276699 
L 883.908 92.204306 
L 892.278 92.122453 
L 890.046 92.045179 
L 879.444 91.972822 
L 883.35 91.902465 
L 891.162 91.75126 
L 884.466 91.606705 
L 883.908 91.53892 
L 889.488 91.399645 
L 886.14 91.329014 
L 890.604 91.253611 
L 887.256 91.111229 
L 888.372 91.028344 
L 881.676 90.956823 
L 885.024 90.89246 
L 886.698 90.823034 
L 879.444 90.682882 
L 883.908 90.480756 
L 880.002 90.406264 
L 881.676 90.333435 
L 890.046 90.189745 
L 883.908 90.11793 
L 891.162 89.988949 
L 881.118 89.866512 
L 888.93 89.729727 
L 877.212 89.651085 
L 882.234 89.583629 
L 880.002 89.521749 
L 890.046 89.318306 
L 890.046 89.250478 
L 890.604 89.180275 
L 883.908 89.05952 
L 892.836 88.995345 
L 878.886 88.929793 
L 888.93 88.868787 
L 885.024 88.807546 
L 888.93 88.739093 
L 880.002 88.676106 
L 884.466 88.609066 
" style="fill:none;stroke:#1f1f1f;stroke-linecap:square;stroke-width:5;"/>
   </g>
   <g id="line2d_57">
    <path clip-path="url(#pafd349e36d)" d="M 82.62 516.811364 
L 333.72 483.406746 
L 393.984 463.445456 
L 450.342 449.256701 
L 486.054 438.365449 
L 490.518 429.516927 
L 498.33 422.030843 
L 540.18 415.516713 
L 553.572 409.828064 
L 581.472 404.729951 
L 588.726 400.098549 
L 577.008 395.861005 
L 608.814 391.98251 
L 611.046 388.357399 
L 587.052 384.968186 
L 626.67 381.857559 
L 623.322 378.930835 
L 642.294 376.164 
L 654.57 373.542777 
L 646.758 371.063877 
L 613.836 368.703552 
L 665.172 366.473626 
L 675.216 364.339177 
L 685.818 362.305941 
L 662.94 360.362332 
L 677.448 358.491301 
L 685.818 356.695441 
L 696.978 354.97191 
L 686.376 353.330995 
L 692.514 351.728606 
L 689.724 350.177471 
L 704.232 348.700791 
L 711.486 347.263163 
L 706.464 345.885851 
L 722.088 344.542582 
L 716.508 343.235275 
L 722.088 341.966899 
L 708.138 340.73666 
L 740.502 338.383886 
L 751.104 337.255226 
L 736.038 336.163525 
L 742.176 335.092825 
L 749.988 334.05757 
L 739.386 333.033329 
L 753.336 332.038506 
L 756.684 331.069036 
L 755.568 330.130682 
L 763.938 329.214434 
L 763.38 328.321383 
L 756.684 327.446958 
L 765.612 326.586897 
L 772.308 325.748836 
L 765.612 324.922347 
L 767.286 324.110024 
L 778.446 323.310203 
L 774.54 322.531856 
L 778.446 321.772446 
L 782.91 321.037297 
L 789.048 320.309067 
L 775.098 319.590448 
L 787.932 318.878402 
L 783.468 318.178778 
L 785.142 317.494895 
L 784.584 316.823193 
L 791.838 316.164095 
L 795.186 315.516906 
L 786.816 314.88325 
L 790.164 314.260896 
L 787.932 313.64996 
L 800.766 313.048664 
L 805.23 312.454402 
L 800.208 311.868079 
L 800.208 311.287971 
L 809.136 310.714137 
L 800.208 310.144735 
L 809.136 309.587227 
L 806.346 309.041007 
L 815.274 308.50237 
L 808.02 307.968115 
L 813.6 307.445521 
L 816.39 306.925486 
L 808.02 306.413622 
L 815.832 305.908906 
L 819.738 305.410931 
L 818.622 304.918185 
L 824.202 304.432442 
L 817.506 303.950783 
L 821.412 303.473348 
L 820.296 302.999875 
L 824.202 302.529625 
L 823.086 302.065572 
L 824.76 301.606922 
L 821.412 301.157367 
L 825.876 300.707289 
L 830.34 299.823738 
L 829.782 299.388882 
L 828.666 298.958543 
L 832.014 298.536395 
L 830.34 298.116029 
L 824.76 297.698476 
L 828.666 297.286201 
L 840.942 296.878057 
L 835.362 296.471454 
L 833.688 296.065411 
L 838.71 295.66335 
L 832.014 295.267132 
L 839.826 294.87218 
L 833.13 294.482524 
L 836.478 294.094654 
L 846.522 293.710741 
L 839.268 293.328008 
L 837.036 292.947364 
L 852.66 292.202528 
L 845.964 291.832656 
L 850.986 291.466682 
L 851.544 291.099654 
L 850.986 290.737784 
L 845.964 290.376695 
L 849.87 290.018888 
L 844.29 289.662454 
L 844.29 289.30642 
L 843.732 288.95793 
L 849.87 288.612951 
L 847.638 288.268175 
L 848.196 287.927875 
L 839.826 287.588794 
L 848.196 287.251868 
L 853.218 286.919815 
L 853.776 286.588387 
L 852.102 286.25908 
L 857.124 285.932895 
L 850.986 285.285937 
L 846.522 284.965784 
L 856.008 284.648545 
L 841.5 284.333688 
L 859.356 284.020399 
L 850.986 283.708526 
L 856.008 283.088173 
L 864.936 282.779312 
L 861.588 282.472775 
L 855.45 282.167675 
L 861.03 281.86512 
L 861.588 281.564186 
L 861.588 281.264497 
L 858.798 280.967084 
L 866.052 280.6716 
L 864.936 280.37694 
L 862.704 280.084887 
L 871.074 279.794654 
L 858.798 279.506665 
L 862.146 279.220756 
L 858.798 278.937144 
L 861.588 278.655315 
L 867.168 278.37557 
L 867.168 278.098528 
L 866.052 277.823322 
L 866.052 277.549596 
L 862.146 277.275988 
L 866.052 277.002616 
L 858.798 276.731248 
L 867.726 276.463164 
L 864.936 276.194671 
L 872.19 275.926953 
L 873.864 275.660889 
L 867.168 275.395692 
L 870.516 275.132061 
L 865.494 274.868942 
L 872.748 274.608952 
L 873.306 274.350819 
L 871.074 274.093611 
L 872.19 273.836373 
L 862.146 273.580922 
L 869.958 273.077274 
L 871.632 272.826928 
L 874.98 272.578045 
L 869.4 272.32997 
L 873.864 272.08284 
L 872.19 271.837057 
L 876.096 271.59244 
L 872.19 271.349112 
L 859.914 271.106807 
L 873.306 270.865488 
L 870.516 270.625868 
L 871.632 270.38747 
L 872.19 270.151102 
L 867.168 269.916139 
L 882.792 269.679857 
L 872.748 269.444808 
L 874.422 269.212363 
L 874.422 268.981581 
L 872.19 268.751471 
L 867.168 268.524079 
L 872.19 268.295906 
L 865.494 268.070089 
L 874.98 267.845365 
L 877.212 267.62283 
L 868.284 267.400301 
L 877.77 266.956108 
L 872.748 266.735326 
L 873.306 266.516411 
L 876.096 266.297527 
L 867.726 266.079558 
L 878.886 265.86294 
L 872.748 265.647296 
L 873.864 265.432778 
L 877.212 265.218783 
L 877.212 265.006161 
L 876.096 264.793578 
L 877.77 264.582623 
L 883.908 264.372605 
L 881.118 264.164043 
L 881.118 263.955417 
L 880.56 263.74669 
L 873.306 263.538882 
L 880.56 263.331485 
L 877.212 263.125527 
L 877.77 262.919322 
L 885.024 262.715524 
L 880.56 262.511359 
L 870.516 262.307999 
L 874.98 262.105377 
L 872.748 261.904839 
L 874.422 261.704812 
L 887.256 261.307049 
L 877.212 261.10905 
L 881.118 260.911854 
L 881.118 260.715358 
L 876.654 260.519547 
L 885.024 260.129848 
L 874.98 259.934739 
L 885.582 259.547207 
L 880.56 259.354545 
L 882.792 259.162301 
L 873.864 258.971519 
L 884.466 258.780367 
L 878.886 258.590509 
L 869.958 258.402136 
L 885.582 258.213776 
L 877.77 258.026022 
L 878.328 257.839152 
L 874.98 257.653067 
L 885.024 257.468272 
L 877.77 257.098759 
L 876.654 256.915841 
L 880.002 256.733942 
L 877.212 256.37204 
L 878.886 256.191821 
L 878.886 256.012086 
L 878.328 255.83384 
L 872.19 255.656626 
L 875.538 255.47867 
L 885.582 255.301222 
L 876.654 255.123348 
L 888.93 254.945937 
L 884.466 254.769183 
L 884.466 254.593062 
L 885.024 254.416829 
L 879.444 254.24227 
L 883.908 254.068703 
L 879.444 253.895553 
L 871.074 253.722849 
L 885.024 253.550438 
L 881.676 253.378754 
L 890.046 253.207268 
L 879.444 253.036214 
L 877.77 252.865702 
L 886.14 252.358214 
L 870.516 252.023053 
L 888.372 251.856146 
L 886.698 251.690278 
L 888.93 251.525542 
L 878.328 251.195326 
L 890.046 251.031388 
L 888.93 250.867049 
L 885.582 250.703434 
L 888.93 250.540056 
L 884.466 250.216281 
L 889.488 250.054782 
L 881.676 249.734837 
L 875.538 249.575809 
L 883.35 249.258335 
L 884.466 249.100511 
L 880.56 248.943096 
L 886.14 248.786014 
L 885.024 248.630242 
L 889.488 248.474692 
L 889.488 248.319582 
L 883.908 248.165131 
L 892.278 248.011041 
L 890.046 247.857163 
L 879.444 247.704176 
L 891.162 247.246331 
L 885.024 247.094453 
L 883.908 246.791135 
L 889.488 246.489618 
L 886.14 246.339387 
L 890.604 246.189801 
L 887.256 246.040901 
L 887.256 245.89269 
L 888.372 245.744945 
L 881.676 245.597871 
L 886.698 245.304183 
L 880.56 245.157258 
L 879.444 245.010259 
L 883.35 244.718905 
L 883.908 244.573947 
L 880.002 244.429195 
L 881.676 244.285396 
L 890.046 243.998664 
L 883.908 243.855621 
L 891.162 243.713233 
L 891.162 243.571461 
L 881.118 243.288804 
L 887.814 243.147793 
L 888.93 243.00683 
L 877.212 242.866506 
L 882.234 242.726882 
L 880.002 242.587035 
L 886.698 242.448005 
L 883.908 242.309278 
L 890.046 242.170849 
L 890.046 242.033132 
L 890.604 241.895591 
L 883.908 241.621805 
L 892.836 241.485971 
L 878.886 241.35039 
L 888.93 241.215425 
L 885.024 241.080864 
L 888.93 240.946059 
L 880.002 240.811656 
L 884.466 240.677387 
L 884.466 240.677387 
" style="fill:none;stroke:#9e9e9e;stroke-linecap:square;stroke-width:5;"/>
   </g>
   <g id="line2d_58">
    <path clip-path="url(#pafd349e36d)" d="M -1 260.472263 
L 17.334 259.444371 
L 182.502 244.076247 
L 343.206 234.096743 
L 398.448 226.728197 
L 436.392 220.735831 
L 452.016 215.715969 
L 454.248 211.635609 
L 489.96 207.850412 
L 515.628 201.57654 
L 513.396 198.856642 
L 542.412 196.394603 
L 537.948 194.046821 
L 547.434 191.884121 
L 554.13 189.850412 
L 560.826 187.980281 
L 573.66 186.227498 
L 583.704 184.542899 
L 585.936 182.929771 
L 577.566 181.388078 
L 589.842 179.912999 
L 563.058 178.584309 
L 590.958 177.267818 
L 598.212 175.990423 
L 607.14 174.813484 
L 606.024 173.582155 
L 611.046 172.469303 
L 600.444 171.33515 
L 607.14 170.289167 
L 622.764 169.248755 
L 618.858 168.264975 
L 631.134 167.354998 
L 618.3 166.462176 
L 613.836 165.571999 
L 636.714 164.680323 
L 641.736 163.87207 
L 627.786 163.069726 
L 627.228 162.308107 
L 645.642 161.514013 
L 630.018 160.752621 
L 648.99 160.022663 
L 647.316 159.272628 
L 647.316 158.546504 
L 660.708 157.141772 
L 661.266 156.496744 
L 662.382 155.845879 
L 664.056 155.238244 
L 664.614 154.628572 
L 673.542 154.063152 
L 661.824 153.490288 
L 675.774 152.882482 
L 679.122 152.314106 
L 680.796 151.754494 
L 686.376 151.225143 
L 677.448 150.6717 
L 689.166 150.142374 
L 681.912 149.611639 
L 683.028 149.093687 
L 695.304 148.617578 
L 686.934 148.105347 
L 675.774 147.647703 
L 686.376 147.179245 
L 695.862 146.251346 
L 692.514 145.787128 
L 707.58 144.899858 
L 707.58 144.464862 
L 704.79 144.063927 
L 707.022 143.640347 
L 715.392 143.24351 
L 721.53 142.824928 
L 704.79 142.442506 
L 704.79 142.066185 
L 705.906 141.673785 
L 717.066 141.287085 
L 712.044 140.918586 
L 726.552 140.550488 
L 733.806 140.170887 
L 725.436 139.797459 
L 731.016 139.454229 
L 717.624 139.093374 
L 728.226 138.748871 
L 741.06 138.067378 
L 731.016 137.736042 
L 734.922 137.406635 
L 733.806 137.109202 
L 733.806 136.785919 
L 739.386 136.457874 
L 748.314 136.13175 
L 738.828 135.831419 
L 749.988 135.516716 
L 755.01 135.227124 
L 755.568 134.92889 
L 755.01 134.636691 
L 751.104 134.336442 
L 752.22 134.055874 
L 757.242 133.768878 
L 765.054 133.497566 
L 757.8 133.218245 
L 757.242 132.943115 
L 763.938 132.39537 
L 769.518 132.127372 
L 752.778 131.86071 
L 756.684 131.595743 
L 762.822 131.344819 
L 761.706 130.834305 
L 755.568 130.606024 
L 776.772 130.098674 
L 772.308 129.85277 
L 780.678 129.350813 
L 767.286 129.106288 
L 782.91 128.644004 
L 776.214 128.420638 
L 776.772 128.198127 
L 776.214 127.971147 
L 784.584 127.740053 
L 786.816 127.515842 
L 781.236 127.290377 
L 784.026 127.070186 
L 790.722 126.864246 
L 782.91 126.651879 
L 785.142 126.432149 
L 794.07 126.223085 
L 783.468 125.80738 
L 793.512 125.599796 
L 794.628 125.399014 
L 785.7 125.20402 
L 788.49 125.004612 
L 796.86 124.808599 
L 797.418 124.612475 
L 799.65 124.414907 
L 792.954 124.220833 
L 800.766 124.011609 
L 796.86 123.818384 
L 801.882 123.63138 
L 798.534 123.451546 
L 800.208 123.272429 
L 793.512 122.886677 
L 799.092 122.702817 
L 800.208 122.513693 
L 799.65 122.328152 
L 808.02 121.972276 
L 798.534 121.792631 
L 804.114 121.628136 
L 803.556 121.457978 
L 800.766 121.283079 
L 805.788 121.118155 
L 800.208 120.776063 
L 808.02 120.611336 
L 808.02 120.448255 
L 809.136 120.285678 
L 799.092 120.116097 
L 800.766 119.943635 
L 803.556 119.782198 
L 815.274 119.615043 
L 808.02 119.450396 
L 817.506 119.142353 
L 808.02 118.979123 
L 819.18 118.830214 
L 809.136 118.665015 
L 819.738 118.373063 
L 810.81 118.069859 
L 820.296 117.904473 
L 813.6 117.75208 
L 818.064 117.607685 
L 818.064 117.46242 
L 812.484 117.324876 
L 821.97 117.174812 
L 808.578 117.02561 
L 818.064 116.731067 
L 811.368 116.591313 
L 813.042 116.442958 
L 823.086 116.296856 
L 814.158 116.160569 
L 823.086 116.014629 
L 814.158 115.866906 
L 820.854 115.592275 
L 824.76 115.457811 
L 825.318 115.318267 
L 829.224 115.031941 
L 821.97 114.903836 
L 826.992 114.781556 
L 822.528 114.655901 
L 828.108 114.520778 
L 823.086 114.385556 
L 823.644 114.251211 
L 816.948 114.129298 
L 828.666 114.006038 
L 827.55 113.882441 
L 827.55 113.750547 
L 819.18 113.376321 
L 823.086 113.12198 
L 823.644 112.985276 
L 829.782 112.747476 
L 830.898 112.626116 
L 837.036 112.505158 
L 820.296 112.384369 
L 826.434 112.022331 
L 827.55 111.898222 
L 830.898 111.776514 
L 824.76 111.653972 
L 825.318 111.545316 
L 833.13 111.319841 
L 825.876 111.195155 
L 828.108 111.080136 
L 825.318 110.96421 
L 833.688 110.851032 
L 828.666 110.739033 
L 833.13 110.517986 
L 831.456 110.408913 
L 832.572 110.294018 
L 829.782 110.184253 
L 837.594 109.965313 
L 830.34 109.869426 
L 836.478 109.651975 
L 833.688 109.55238 
L 837.036 109.438766 
L 834.246 109.227094 
L 837.036 109.007061 
L 830.34 108.778526 
L 834.246 108.682914 
L 827.55 108.580387 
L 837.036 108.484927 
L 829.782 108.372413 
L 834.246 108.062183 
L 832.572 107.962279 
L 834.246 107.860795 
L 844.848 107.661532 
L 836.478 107.560685 
L 841.5 107.456121 
L 833.688 107.350985 
L 839.268 107.247638 
L 837.036 107.062256 
L 839.268 106.966088 
L 838.71 106.870083 
L 835.362 106.776384 
L 840.942 106.680616 
L 838.152 106.589067 
L 839.268 106.497152 
L 835.92 106.395234 
L 838.71 106.309047 
L 837.036 106.209818 
L 833.13 106.109573 
L 844.29 105.918431 
L 836.478 105.737819 
L 839.268 105.555894 
L 839.268 105.466777 
L 837.594 105.373797 
L 845.406 105.276212 
L 837.036 105.195628 
L 842.616 105.103522 
L 838.152 105.006893 
L 839.826 104.917307 
L 834.246 104.839554 
L 837.036 104.762737 
L 833.688 104.674181 
L 840.942 104.499271 
L 839.826 104.303634 
L 851.544 104.217117 
L 841.5 104.135517 
L 843.174 104.053709 
L 843.732 103.971962 
L 833.688 103.885187 
L 840.942 103.792997 
L 840.384 103.704715 
L 840.384 103.621678 
L 834.246 103.445473 
L 842.616 103.360046 
L 842.058 103.280296 
L 840.942 103.189275 
L 843.732 103.021787 
L 829.782 102.942509 
L 843.174 102.861611 
L 840.942 102.776817 
L 840.942 102.698632 
L 839.826 102.617486 
L 845.406 102.382533 
L 827.55 102.295816 
L 842.058 102.128253 
L 838.152 102.04289 
L 844.29 101.965824 
L 842.616 101.895358 
L 845.964 101.821101 
L 843.732 101.749922 
L 850.428 101.669255 
L 842.058 101.439349 
L 847.08 101.356975 
L 839.826 101.194558 
L 849.312 101.032661 
L 848.754 100.953912 
L 848.196 100.880645 
L 849.87 100.801755 
L 841.5 100.65263 
L 846.522 100.578938 
L 840.384 100.502654 
L 844.29 100.431651 
L 843.732 100.363337 
L 838.152 100.217263 
L 851.544 100.141981 
L 848.754 100.06894 
L 835.92 99.928937 
L 847.638 99.861311 
L 836.478 99.709075 
L 851.544 99.558711 
L 851.544 99.558711 
" style="fill:none;stroke:#ff9500;stroke-linecap:square;stroke-width:5;"/>
   </g>
   <g id="line2d_59">
    <path clip-path="url(#pafd349e36d)" d="M -1 479.852712 
L 17.334 478.60878 
L 182.502 457.829354 
L 343.206 443.135096 
L 398.448 431.792605 
L 436.392 422.545241 
L 452.016 414.885283 
L 454.248 408.239373 
L 489.96 402.392356 
L 515.628 392.470666 
L 513.396 388.158847 
L 542.412 384.173657 
L 537.948 380.500709 
L 547.434 377.102353 
L 554.13 373.969773 
L 560.826 371.008025 
L 573.66 368.234033 
L 583.704 365.616787 
L 585.936 363.140491 
L 577.566 360.79481 
L 589.842 358.5558 
L 563.058 356.415805 
L 590.958 354.370867 
L 598.212 352.437078 
L 607.14 350.578344 
L 606.024 348.812975 
L 611.046 347.104797 
L 600.444 345.453045 
L 607.14 343.862546 
L 622.764 342.346201 
L 618.858 340.866007 
L 631.134 339.439921 
L 618.3 338.063071 
L 613.836 336.728575 
L 636.714 335.439132 
L 641.736 334.192995 
L 627.786 332.988542 
L 627.228 331.809436 
L 645.642 330.659875 
L 630.018 329.541582 
L 648.99 328.462095 
L 647.316 327.408338 
L 647.316 326.371633 
L 654.57 325.367919 
L 660.708 324.388517 
L 661.266 323.443457 
L 662.382 322.514759 
L 664.056 321.60827 
L 664.614 320.720034 
L 673.542 319.851587 
L 661.824 319.002931 
L 675.774 318.175852 
L 679.122 317.366358 
L 680.796 316.5713 
L 686.376 315.790352 
L 677.448 315.032077 
L 689.166 314.286892 
L 681.912 313.555585 
L 683.028 312.832942 
L 695.304 312.129026 
L 686.934 311.434851 
L 675.774 310.753134 
L 686.376 310.084354 
L 695.862 308.774422 
L 692.514 308.135642 
L 700.884 307.509379 
L 707.58 306.894131 
L 707.58 306.28577 
L 704.79 305.687589 
L 707.022 305.098736 
L 715.392 304.51436 
L 721.53 303.938461 
L 704.79 303.367348 
L 704.79 302.803177 
L 705.906 302.25203 
L 717.066 301.711845 
L 712.044 301.179318 
L 726.552 300.652992 
L 733.806 300.133999 
L 725.436 299.623457 
L 731.016 299.119985 
L 717.624 298.624014 
L 728.226 298.13002 
L 733.806 297.647957 
L 741.06 297.172246 
L 731.016 296.698547 
L 734.922 296.232335 
L 733.806 295.771952 
L 733.806 295.31621 
L 739.386 294.863681 
L 748.314 294.41751 
L 738.828 293.975181 
L 749.988 293.535815 
L 755.01 293.102593 
L 755.568 292.674902 
L 755.01 292.249999 
L 751.104 291.829994 
L 752.22 291.412638 
L 757.242 291.000167 
L 765.054 290.590945 
L 757.8 290.184573 
L 757.242 289.781608 
L 763.938 288.986542 
L 769.518 288.595027 
L 752.778 288.208991 
L 756.684 287.824152 
L 762.822 287.44162 
L 761.706 286.685421 
L 755.568 286.310524 
L 776.772 285.572254 
L 772.308 285.205814 
L 780.678 284.484933 
L 767.286 284.130657 
L 777.33 283.777568 
L 782.91 283.427562 
L 776.214 283.079463 
L 776.772 282.733559 
L 776.214 282.389789 
L 784.584 282.050424 
L 786.816 281.711486 
L 781.236 281.376184 
L 784.026 281.043282 
L 790.722 280.712783 
L 782.91 280.383799 
L 785.142 280.058601 
L 794.07 279.734115 
L 789.606 279.412985 
L 783.468 279.0958 
L 793.512 278.780518 
L 794.628 278.466181 
L 785.7 278.153475 
L 788.49 277.842102 
L 796.86 277.532775 
L 797.418 277.224107 
L 799.65 276.917009 
L 792.954 276.611923 
L 800.766 276.310373 
L 796.86 276.01033 
L 801.882 275.713224 
L 798.534 275.41866 
L 800.208 275.124119 
L 793.512 274.540215 
L 799.092 274.250795 
L 800.208 273.961242 
L 799.65 273.673318 
L 802.998 273.386637 
L 808.02 273.102895 
L 798.534 272.821119 
L 804.114 272.541477 
L 803.556 272.264027 
L 800.766 271.988988 
L 805.788 271.716258 
L 801.882 271.444729 
L 800.208 271.174745 
L 808.02 270.906052 
L 808.02 270.638127 
L 809.136 270.370905 
L 799.092 270.10539 
L 800.766 269.839947 
L 803.556 269.576357 
L 815.274 269.313907 
L 808.02 269.051804 
L 817.506 268.533751 
L 808.02 268.277071 
L 819.18 268.021532 
L 809.136 267.765506 
L 816.39 267.511334 
L 819.738 267.258336 
L 816.39 267.00809 
L 810.81 266.757797 
L 820.296 266.508729 
L 813.6 266.261922 
L 818.064 266.014285 
L 818.064 265.768638 
L 812.484 265.52329 
L 821.97 265.279702 
L 808.578 265.036291 
L 815.274 264.793889 
L 818.064 264.553132 
L 811.368 264.313662 
L 813.042 264.075016 
L 823.086 263.839014 
L 814.158 263.602314 
L 823.086 263.366929 
L 814.158 263.133309 
L 819.738 262.900008 
L 820.854 262.668344 
L 824.76 262.437047 
L 825.318 262.207917 
L 829.224 261.752524 
L 821.97 261.526829 
L 826.992 261.302068 
L 822.528 261.077405 
L 828.108 260.854643 
L 823.086 260.632903 
L 823.644 260.411673 
L 816.948 260.190923 
L 828.666 259.972192 
L 827.55 259.753652 
L 827.55 259.536207 
L 819.18 258.887983 
L 823.086 258.462164 
L 823.644 258.250644 
L 829.782 257.829866 
L 830.898 257.62086 
L 837.036 257.4128 
L 820.296 257.2044 
L 824.76 256.791671 
L 827.55 256.382388 
L 830.898 256.178642 
L 824.76 255.976039 
L 825.318 255.773448 
L 832.572 255.571957 
L 833.13 255.37084 
L 825.876 255.171214 
L 828.108 254.972692 
L 825.318 254.774203 
L 833.688 254.576731 
L 828.666 254.379276 
L 833.13 253.987068 
L 831.456 253.791954 
L 832.572 253.597148 
L 829.782 253.403425 
L 837.594 253.019638 
L 830.34 252.827259 
L 832.572 252.635821 
L 836.478 252.445307 
L 833.688 252.256168 
L 837.036 252.067723 
L 834.246 251.880544 
L 834.246 251.69459 
L 837.036 251.322808 
L 832.014 251.139266 
L 830.34 250.955412 
L 834.246 250.772457 
L 827.55 250.5911 
L 837.036 250.410195 
L 829.782 250.229624 
L 830.898 250.049881 
L 830.898 249.87065 
L 834.246 249.692395 
L 832.572 249.514984 
L 834.246 249.336788 
L 844.848 248.983223 
L 836.478 248.807397 
L 841.5 248.632119 
L 833.688 248.457523 
L 839.268 248.28327 
L 837.594 248.109127 
L 837.036 247.93572 
L 839.268 247.76364 
L 838.71 247.59232 
L 835.362 247.420797 
L 840.942 247.250574 
L 838.152 247.08048 
L 839.268 246.911268 
L 835.92 246.742272 
L 838.71 246.574524 
L 837.036 246.407093 
L 833.13 246.240312 
L 843.732 246.074129 
L 844.29 245.908001 
L 836.478 245.577636 
L 839.268 245.249588 
L 839.268 245.086646 
L 837.594 244.92369 
L 845.406 244.761401 
L 837.036 244.599796 
L 842.616 244.438782 
L 838.152 244.278305 
L 839.826 244.118099 
L 834.246 243.958857 
L 837.036 243.799667 
L 833.688 243.640964 
L 840.942 243.324842 
L 839.826 243.167264 
L 839.826 243.010612 
L 851.544 242.854144 
L 841.5 242.698425 
L 843.732 242.388854 
L 833.688 242.234769 
L 840.942 242.082029 
L 840.384 241.929084 
L 840.384 241.776662 
L 834.246 241.472926 
L 842.616 241.321561 
L 842.058 241.170847 
L 840.942 241.020451 
L 843.732 240.720409 
L 829.782 240.571555 
L 843.174 240.422982 
L 840.942 240.274199 
L 840.942 240.126032 
L 839.826 239.978949 
L 845.406 239.686672 
L 845.406 239.541185 
L 827.55 239.39618 
L 841.5 239.251755 
L 842.058 239.107292 
L 838.152 238.963799 
L 844.29 238.82046 
L 842.616 238.67735 
L 845.964 238.53553 
L 843.732 238.393603 
L 850.428 238.251844 
L 843.732 237.969369 
L 842.058 237.828238 
L 847.08 237.687814 
L 839.826 237.407709 
L 849.312 237.130476 
L 848.754 236.992474 
L 848.196 236.853975 
L 849.87 236.716516 
L 841.5 236.442874 
L 846.522 236.306183 
L 840.384 236.17017 
L 844.29 236.033799 
L 843.732 235.898311 
L 838.152 235.628734 
L 851.544 235.494704 
L 848.754 235.360717 
L 835.92 235.093212 
L 847.638 234.959678 
L 836.478 234.694163 
L 851.544 234.429689 
L 851.544 234.429689 
" style="fill:none;stroke:#ffc36e;stroke-linecap:square;stroke-width:5;"/>
   </g>
   <g id="patch_3">
    <path d="M 144 504 
L 144 69.12 
" style="fill:none;stroke:#000000;stroke-linecap:square;stroke-linejoin:miter;stroke-width:0.8;"/>
   </g>
   <g id="patch_4">
    <path d="M 1036.8 504 
L 1036.8 69.12 
" style="fill:none;stroke:#000000;stroke-linecap:square;stroke-linejoin:miter;stroke-width:0.8;"/>
   </g>
   <g id="patch_5">
    <path d="M 144 504 
L 1036.8 504 
" style="fill:none;stroke:#000000;stroke-linecap:square;stroke-linejoin:miter;stroke-width:0.8;"/>
   </g>
   <g id="patch_6">
    <path d="M 144 69.12 
L 1036.8 69.12 
" style="fill:none;stroke:#000000;stroke-linecap:square;stroke-linejoin:miter;stroke-width:0.8;"/>
   </g>
   <g id="text_17">
    <!-- Ungated: Energy vs. Accuracy with 50 Units @ 0.55 -->
    <g transform="translate(125.834063 61.633125)scale(0.36 -0.36)">
     <defs>
      <path d="M 18.3125 70.21875 
L 18.3125 54.6875 
L 36.8125 54.6875 
L 36.8125 47.703125 
L 18.3125 47.703125 
L 18.3125 18.015625 
Q 18.3125 11.328125 20.140625 9.421875 
Q 21.96875 7.515625 27.59375 7.515625 
L 36.8125 7.515625 
L 36.8125 0 
L 27.59375 0 
Q 17.1875 0 13.234375 3.875 
Q 9.28125 7.765625 9.28125 18.015625 
L 9.28125 47.703125 
L 2.6875 47.703125 
L 2.6875 54.6875 
L 9.28125 54.6875 
L 9.28125 70.21875 
z
" id="DejaVuSans-116"/>
      <path d="M 45.40625 46.390625 
L 45.40625 75.984375 
L 54.390625 75.984375 
L 54.390625 0 
L 45.40625 0 
L 45.40625 8.203125 
Q 42.578125 3.328125 38.25 0.953125 
Q 33.9375 -1.421875 27.875 -1.421875 
Q 17.96875 -1.421875 11.734375 6.484375 
Q 5.515625 14.40625 5.515625 27.296875 
Q 5.515625 40.1875 11.734375 48.09375 
Q 17.96875 56 27.875 56 
Q 33.9375 56 38.25 53.625 
Q 42.578125 51.265625 45.40625 46.390625 
z
M 14.796875 27.296875 
Q 14.796875 17.390625 18.875 11.75 
Q 22.953125 6.109375 30.078125 6.109375 
Q 37.203125 6.109375 41.296875 11.75 
Q 45.40625 17.390625 45.40625 27.296875 
Q 45.40625 37.203125 41.296875 42.84375 
Q 37.203125 48.484375 30.078125 48.484375 
Q 22.953125 48.484375 18.875 42.84375 
Q 14.796875 37.203125 14.796875 27.296875 
z
" id="DejaVuSans-100"/>
      <path d="M 11.71875 12.40625 
L 22.015625 12.40625 
L 22.015625 0 
L 11.71875 0 
z
M 11.71875 51.703125 
L 22.015625 51.703125 
L 22.015625 39.3125 
L 11.71875 39.3125 
z
" id="DejaVuSans-58"/>
      <path d="M 2.984375 54.6875 
L 12.5 54.6875 
L 29.59375 8.796875 
L 46.6875 54.6875 
L 56.203125 54.6875 
L 35.6875 0 
L 23.484375 0 
z
" id="DejaVuSans-118"/>
      <path d="M 44.28125 53.078125 
L 44.28125 44.578125 
Q 40.484375 46.53125 36.375 47.5 
Q 32.28125 48.484375 27.875 48.484375 
Q 21.1875 48.484375 17.84375 46.4375 
Q 14.5 44.390625 14.5 40.28125 
Q 14.5 37.15625 16.890625 35.375 
Q 19.28125 33.59375 26.515625 31.984375 
L 29.59375 31.296875 
Q 39.15625 29.25 43.1875 25.515625 
Q 47.21875 21.78125 47.21875 15.09375 
Q 47.21875 7.46875 41.1875 3.015625 
Q 35.15625 -1.421875 24.609375 -1.421875 
Q 20.21875 -1.421875 15.453125 -0.5625 
Q 10.6875 0.296875 5.421875 2 
L 5.421875 11.28125 
Q 10.40625 8.6875 15.234375 7.390625 
Q 20.0625 6.109375 24.8125 6.109375 
Q 31.15625 6.109375 34.5625 8.28125 
Q 37.984375 10.453125 37.984375 14.40625 
Q 37.984375 18.0625 35.515625 20.015625 
Q 33.0625 21.96875 24.703125 23.78125 
L 21.578125 24.515625 
Q 13.234375 26.265625 9.515625 29.90625 
Q 5.8125 33.546875 5.8125 39.890625 
Q 5.8125 47.609375 11.28125 51.796875 
Q 16.75 56 26.8125 56 
Q 31.78125 56 36.171875 55.265625 
Q 40.578125 54.546875 44.28125 53.078125 
z
" id="DejaVuSans-115"/>
      <path d="M 4.203125 54.6875 
L 13.1875 54.6875 
L 24.421875 12.015625 
L 35.59375 54.6875 
L 46.1875 54.6875 
L 57.421875 12.015625 
L 68.609375 54.6875 
L 77.59375 54.6875 
L 63.28125 0 
L 52.6875 0 
L 40.921875 44.828125 
L 29.109375 0 
L 18.5 0 
z
" id="DejaVuSans-119"/>
      <path d="M 9.421875 54.6875 
L 18.40625 54.6875 
L 18.40625 0 
L 9.421875 0 
z
M 9.421875 75.984375 
L 18.40625 75.984375 
L 18.40625 64.59375 
L 9.421875 64.59375 
z
" id="DejaVuSans-105"/>
      <path d="M 54.890625 33.015625 
L 54.890625 0 
L 45.90625 0 
L 45.90625 32.71875 
Q 45.90625 40.484375 42.875 44.328125 
Q 39.84375 48.1875 33.796875 48.1875 
Q 26.515625 48.1875 22.3125 43.546875 
Q 18.109375 38.921875 18.109375 30.90625 
L 18.109375 0 
L 9.078125 0 
L 9.078125 75.984375 
L 18.109375 75.984375 
L 18.109375 46.1875 
Q 21.34375 51.125 25.703125 53.5625 
Q 30.078125 56 35.796875 56 
Q 45.21875 56 50.046875 50.171875 
Q 54.890625 44.34375 54.890625 33.015625 
z
" id="DejaVuSans-104"/>
      <path d="M 37.203125 26.21875 
Q 37.203125 19.234375 40.671875 15.25 
Q 44.140625 11.28125 50.203125 11.28125 
Q 56.203125 11.28125 59.640625 15.28125 
Q 63.09375 19.28125 63.09375 26.21875 
Q 63.09375 33.0625 59.578125 37.078125 
Q 56.0625 41.109375 50.09375 41.109375 
Q 44.1875 41.109375 40.6875 37.109375 
Q 37.203125 33.109375 37.203125 26.21875 
z
M 63.8125 11.625 
Q 60.890625 7.859375 57.109375 6.078125 
Q 53.328125 4.296875 48.296875 4.296875 
Q 39.890625 4.296875 34.640625 10.375 
Q 29.390625 16.453125 29.390625 26.21875 
Q 29.390625 35.984375 34.65625 42.078125 
Q 39.9375 48.1875 48.296875 48.1875 
Q 53.328125 48.1875 57.125 46.359375 
Q 60.9375 44.53125 63.8125 40.828125 
L 63.8125 47.21875 
L 70.796875 47.21875 
L 70.796875 11.28125 
Q 77.9375 12.359375 81.953125 17.796875 
Q 85.984375 23.25 85.984375 31.890625 
Q 85.984375 37.109375 84.4375 41.703125 
Q 82.90625 46.296875 79.78125 50.203125 
Q 74.703125 56.59375 67.40625 59.984375 
Q 60.109375 63.375 51.515625 63.375 
Q 45.515625 63.375 39.984375 61.78125 
Q 34.46875 60.203125 29.78125 57.078125 
Q 22.125 52.09375 17.796875 44.015625 
Q 13.484375 35.9375 13.484375 26.515625 
Q 13.484375 18.75 16.28125 11.953125 
Q 19.09375 5.171875 24.421875 0 
Q 29.546875 -5.078125 36.28125 -7.734375 
Q 43.015625 -10.40625 50.6875 -10.40625 
Q 56.984375 -10.40625 63.0625 -8.28125 
Q 69.140625 -6.15625 74.21875 -2.203125 
L 78.609375 -7.625 
Q 72.515625 -12.359375 65.3125 -14.875 
Q 58.109375 -17.390625 50.6875 -17.390625 
Q 41.65625 -17.390625 33.640625 -14.1875 
Q 25.640625 -10.984375 19.390625 -4.890625 
Q 13.140625 1.21875 9.859375 9.25 
Q 6.59375 17.28125 6.59375 26.515625 
Q 6.59375 35.40625 9.90625 43.453125 
Q 13.234375 51.515625 19.390625 57.625 
Q 25.6875 63.8125 33.9375 67.109375 
Q 42.1875 70.40625 51.421875 70.40625 
Q 61.765625 70.40625 70.625 66.15625 
Q 79.5 61.921875 85.5 54.109375 
Q 89.15625 49.3125 91.078125 43.703125 
Q 93.015625 38.09375 93.015625 32.078125 
Q 93.015625 19.234375 85.25 11.8125 
Q 77.484375 4.390625 63.8125 4.109375 
z
" id="DejaVuSans-64"/>
     </defs>
     <use xlink:href="#DejaVuSans-85"/>
     <use x="73.193359" xlink:href="#DejaVuSans-110"/>
     <use x="136.572266" xlink:href="#DejaVuSans-103"/>
     <use x="200.048828" xlink:href="#DejaVuSans-97"/>
     <use x="261.328125" xlink:href="#DejaVuSans-116"/>
     <use x="300.537109" xlink:href="#DejaVuSans-101"/>
     <use x="362.060547" xlink:href="#DejaVuSans-100"/>
     <use x="425.537109" xlink:href="#DejaVuSans-58"/>
     <use x="459.228516" xlink:href="#DejaVuSans-32"/>
     <use x="491.015625" xlink:href="#DejaVuSans-69"/>
     <use x="554.199219" xlink:href="#DejaVuSans-110"/>
     <use x="617.578125" xlink:href="#DejaVuSans-101"/>
     <use x="679.101562" xlink:href="#DejaVuSans-114"/>
     <use x="718.464844" xlink:href="#DejaVuSans-103"/>
     <use x="781.941406" xlink:href="#DejaVuSans-121"/>
     <use x="841.121094" xlink:href="#DejaVuSans-32"/>
     <use x="872.908203" xlink:href="#DejaVuSans-118"/>
     <use x="932.087891" xlink:href="#DejaVuSans-115"/>
     <use x="984.1875" xlink:href="#DejaVuSans-46"/>
     <use x="1015.974609" xlink:href="#DejaVuSans-32"/>
     <use x="1047.761719" xlink:href="#DejaVuSans-65"/>
     <use x="1114.419922" xlink:href="#DejaVuSans-99"/>
     <use x="1169.400391" xlink:href="#DejaVuSans-99"/>
     <use x="1224.380859" xlink:href="#DejaVuSans-117"/>
     <use x="1287.759766" xlink:href="#DejaVuSans-114"/>
     <use x="1328.873047" xlink:href="#DejaVuSans-97"/>
     <use x="1390.152344" xlink:href="#DejaVuSans-99"/>
     <use x="1445.132812" xlink:href="#DejaVuSans-121"/>
     <use x="1504.3125" xlink:href="#DejaVuSans-32"/>
     <use x="1536.099609" xlink:href="#DejaVuSans-119"/>
     <use x="1617.886719" xlink:href="#DejaVuSans-105"/>
     <use x="1645.669922" xlink:href="#DejaVuSans-116"/>
     <use x="1684.878906" xlink:href="#DejaVuSans-104"/>
     <use x="1748.257812" xlink:href="#DejaVuSans-32"/>
     <use x="1780.044922" xlink:href="#DejaVuSans-53"/>
     <use x="1843.667969" xlink:href="#DejaVuSans-48"/>
     <use x="1907.291016" xlink:href="#DejaVuSans-32"/>
     <use x="1939.078125" xlink:href="#DejaVuSans-85"/>
     <use x="2012.271484" xlink:href="#DejaVuSans-110"/>
     <use x="2075.650391" xlink:href="#DejaVuSans-105"/>
     <use x="2103.433594" xlink:href="#DejaVuSans-116"/>
     <use x="2142.642578" xlink:href="#DejaVuSans-115"/>
     <use x="2194.742188" xlink:href="#DejaVuSans-32"/>
     <use x="2226.529297" xlink:href="#DejaVuSans-64"/>
     <use x="2326.529297" xlink:href="#DejaVuSans-32"/>
     <use x="2358.316406" xlink:href="#DejaVuSans-48"/>
     <use x="2421.939453" xlink:href="#DejaVuSans-46"/>
     <use x="2453.726562" xlink:href="#DejaVuSans-53"/>
     <use x="2517.349609" xlink:href="#DejaVuSans-53"/>
    </g>
   </g>
   <g id="legend_1">
    <g id="patch_7">
     <path d="M 785.663125 493 
L 1021.4 493 
Q 1025.8 493 1025.8 488.6 
L 1025.8 361.6325 
Q 1025.8 357.2325 1021.4 357.2325 
L 785.663125 357.2325 
Q 781.263125 357.2325 781.263125 361.6325 
L 781.263125 488.6 
Q 781.263125 493 785.663125 493 
z
" style="fill:#ffffff;opacity:0.8;stroke:#cccccc;stroke-linejoin:miter;"/>
    </g>
    <g id="line2d_60">
     <path d="M 790.063125 375.049062 
L 834.063125 375.049062 
" style="fill:none;stroke:#1f1f1f;stroke-linecap:square;stroke-width:5;"/>
    </g>
    <g id="line2d_61"/>
    <g id="text_18">
     <!-- Ungated: 1.0 -->
     <g transform="translate(851.663125 382.749062)scale(0.22 -0.22)">
      <use xlink:href="#DejaVuSans-85"/>
      <use x="73.193359" xlink:href="#DejaVuSans-110"/>
      <use x="136.572266" xlink:href="#DejaVuSans-103"/>
      <use x="200.048828" xlink:href="#DejaVuSans-97"/>
      <use x="261.328125" xlink:href="#DejaVuSans-116"/>
      <use x="300.537109" xlink:href="#DejaVuSans-101"/>
      <use x="362.060547" xlink:href="#DejaVuSans-100"/>
      <use x="425.537109" xlink:href="#DejaVuSans-58"/>
      <use x="459.228516" xlink:href="#DejaVuSans-32"/>
      <use x="491.015625" xlink:href="#DejaVuSans-49"/>
      <use x="554.638672" xlink:href="#DejaVuSans-46"/>
      <use x="586.425781" xlink:href="#DejaVuSans-48"/>
     </g>
    </g>
    <g id="line2d_62">
     <path d="M 790.063125 407.340937 
L 834.063125 407.340937 
" style="fill:none;stroke:#9e9e9e;stroke-linecap:square;stroke-width:5;"/>
    </g>
    <g id="line2d_63"/>
    <g id="text_19">
     <!-- Minimum: 1.0 -->
     <g transform="translate(851.663125 415.040937)scale(0.22 -0.22)">
      <defs>
       <path d="M 9.8125 72.90625 
L 24.515625 72.90625 
L 43.109375 23.296875 
L 61.8125 72.90625 
L 76.515625 72.90625 
L 76.515625 0 
L 66.890625 0 
L 66.890625 64.015625 
L 48.09375 14.015625 
L 38.1875 14.015625 
L 19.390625 64.015625 
L 19.390625 0 
L 9.8125 0 
z
" id="DejaVuSans-77"/>
       <path d="M 52 44.1875 
Q 55.375 50.25 60.0625 53.125 
Q 64.75 56 71.09375 56 
Q 79.640625 56 84.28125 50.015625 
Q 88.921875 44.046875 88.921875 33.015625 
L 88.921875 0 
L 79.890625 0 
L 79.890625 32.71875 
Q 79.890625 40.578125 77.09375 44.375 
Q 74.3125 48.1875 68.609375 48.1875 
Q 61.625 48.1875 57.5625 43.546875 
Q 53.515625 38.921875 53.515625 30.90625 
L 53.515625 0 
L 44.484375 0 
L 44.484375 32.71875 
Q 44.484375 40.625 41.703125 44.40625 
Q 38.921875 48.1875 33.109375 48.1875 
Q 26.21875 48.1875 22.15625 43.53125 
Q 18.109375 38.875 18.109375 30.90625 
L 18.109375 0 
L 9.078125 0 
L 9.078125 54.6875 
L 18.109375 54.6875 
L 18.109375 46.1875 
Q 21.1875 51.21875 25.484375 53.609375 
Q 29.78125 56 35.6875 56 
Q 41.65625 56 45.828125 52.96875 
Q 50 49.953125 52 44.1875 
z
" id="DejaVuSans-109"/>
      </defs>
      <use xlink:href="#DejaVuSans-77"/>
      <use x="86.279297" xlink:href="#DejaVuSans-105"/>
      <use x="114.0625" xlink:href="#DejaVuSans-110"/>
      <use x="177.441406" xlink:href="#DejaVuSans-105"/>
      <use x="205.224609" xlink:href="#DejaVuSans-109"/>
      <use x="302.636719" xlink:href="#DejaVuSans-117"/>
      <use x="366.015625" xlink:href="#DejaVuSans-109"/>
      <use x="463.427734" xlink:href="#DejaVuSans-58"/>
      <use x="497.119141" xlink:href="#DejaVuSans-32"/>
      <use x="528.90625" xlink:href="#DejaVuSans-49"/>
      <use x="592.529297" xlink:href="#DejaVuSans-46"/>
      <use x="624.316406" xlink:href="#DejaVuSans-48"/>
     </g>
    </g>
    <g id="line2d_64">
     <path d="M 790.063125 439.632812 
L 834.063125 439.632812 
" style="fill:none;stroke:#ff9500;stroke-linecap:square;stroke-width:5;"/>
    </g>
    <g id="line2d_65"/>
    <g id="text_20">
     <!-- Ungated: 0.55 -->
     <g transform="translate(851.663125 447.332812)scale(0.22 -0.22)">
      <use xlink:href="#DejaVuSans-85"/>
      <use x="73.193359" xlink:href="#DejaVuSans-110"/>
      <use x="136.572266" xlink:href="#DejaVuSans-103"/>
      <use x="200.048828" xlink:href="#DejaVuSans-97"/>
      <use x="261.328125" xlink:href="#DejaVuSans-116"/>
      <use x="300.537109" xlink:href="#DejaVuSans-101"/>
      <use x="362.060547" xlink:href="#DejaVuSans-100"/>
      <use x="425.537109" xlink:href="#DejaVuSans-58"/>
      <use x="459.228516" xlink:href="#DejaVuSans-32"/>
      <use x="491.015625" xlink:href="#DejaVuSans-48"/>
      <use x="554.638672" xlink:href="#DejaVuSans-46"/>
      <use x="586.425781" xlink:href="#DejaVuSans-53"/>
      <use x="650.048828" xlink:href="#DejaVuSans-53"/>
     </g>
    </g>
    <g id="line2d_66">
     <path d="M 790.063125 471.924688 
L 834.063125 471.924688 
" style="fill:none;stroke:#ffc36e;stroke-linecap:square;stroke-width:5;"/>
    </g>
    <g id="line2d_67"/>
    <g id="text_21">
     <!-- Minimum: 0.55 -->
     <g transform="translate(851.663125 479.624687)scale(0.22 -0.22)">
      <use xlink:href="#DejaVuSans-77"/>
      <use x="86.279297" xlink:href="#DejaVuSans-105"/>
      <use x="114.0625" xlink:href="#DejaVuSans-110"/>
      <use x="177.441406" xlink:href="#DejaVuSans-105"/>
      <use x="205.224609" xlink:href="#DejaVuSans-109"/>
      <use x="302.636719" xlink:href="#DejaVuSans-117"/>
      <use x="366.015625" xlink:href="#DejaVuSans-109"/>
      <use x="463.427734" xlink:href="#DejaVuSans-58"/>
      <use x="497.119141" xlink:href="#DejaVuSans-32"/>
      <use x="528.90625" xlink:href="#DejaVuSans-48"/>
      <use x="592.529297" xlink:href="#DejaVuSans-46"/>
      <use x="624.316406" xlink:href="#DejaVuSans-53"/>
      <use x="687.939453" xlink:href="#DejaVuSans-53"/>
     </g>
    </g>
   </g>
  </g>
 </g>
 <defs>
  <clipPath id="pafd349e36d">
   <rect height="434.88" width="892.8" x="144" y="69.12"/>
  </clipPath>
 </defs>
</svg>
