<?xml version="1.0" encoding="utf-8" standalone="no"?>
<!DOCTYPE svg PUBLIC "-//W3C//DTD SVG 1.1//EN"
  "http://www.w3.org/Graphics/SVG/1.1/DTD/svg11.dtd">
<!-- Created with matplotlib (https://matplotlib.org/) -->
<svg height="576pt" version="1.1" viewBox="0 0 1152 576" width="1152pt" xmlns="http://www.w3.org/2000/svg" xmlns:xlink="http://www.w3.org/1999/xlink">
 <metadata>
  <rdf:RDF xmlns:cc="http://creativecommons.org/ns#" xmlns:dc="http://purl.org/dc/elements/1.1/" xmlns:rdf="http://www.w3.org/1999/02/22-rdf-syntax-ns#">
   <cc:Work>
    <dc:type rdf:resource="http://purl.org/dc/dcmitype/StillImage"/>
    <dc:date>2021-09-12T21:36:24.709641</dc:date>
    <dc:format>image/svg+xml</dc:format>
    <dc:creator>
     <cc:Agent>
      <dc:title>Matplotlib v3.3.4, https://matplotlib.org/</dc:title>
     </cc:Agent>
    </dc:creator>
   </cc:Work>
  </rdf:RDF>
 </metadata>
 <defs>
  <style type="text/css">*{stroke-linecap:butt;stroke-linejoin:round;}</style>
 </defs>
 <g id="figure_1">
  <g id="patch_1">
   <path d="M 0 576 
L 1152 576 
L 1152 0 
L 0 0 
z
" style="fill:#ffffff;"/>
  </g>
  <g id="axes_1">
   <g id="patch_2">
    <path d="M 144 504 
L 1036.8 504 
L 1036.8 69.12 
L 144 69.12 
z
" style="fill:#ffffff;"/>
   </g>
   <g id="matplotlib.axis_1">
    <g id="xtick_1">
     <g id="line2d_1">
      <defs>
       <path d="M 0 0 
L 0 3.5 
" id="m554d874488" style="stroke:#000000;stroke-width:0.8;"/>
      </defs>
      <g>
       <use style="stroke:#000000;stroke-width:0.8;" x="144" xlink:href="#m554d874488" y="504"/>
      </g>
     </g>
     <g id="text_1">
      <!-- 84 -->
      <g transform="translate(128.73 529.23625)scale(0.24 -0.24)">
       <defs>
        <path d="M 31.78125 34.625 
Q 24.75 34.625 20.71875 30.859375 
Q 16.703125 27.09375 16.703125 20.515625 
Q 16.703125 13.921875 20.71875 10.15625 
Q 24.75 6.390625 31.78125 6.390625 
Q 38.8125 6.390625 42.859375 10.171875 
Q 46.921875 13.96875 46.921875 20.515625 
Q 46.921875 27.09375 42.890625 30.859375 
Q 38.875 34.625 31.78125 34.625 
z
M 21.921875 38.8125 
Q 15.578125 40.375 12.03125 44.71875 
Q 8.5 49.078125 8.5 55.328125 
Q 8.5 64.0625 14.71875 69.140625 
Q 20.953125 74.21875 31.78125 74.21875 
Q 42.671875 74.21875 48.875 69.140625 
Q 55.078125 64.0625 55.078125 55.328125 
Q 55.078125 49.078125 51.53125 44.71875 
Q 48 40.375 41.703125 38.8125 
Q 48.828125 37.15625 52.796875 32.3125 
Q 56.78125 27.484375 56.78125 20.515625 
Q 56.78125 9.90625 50.3125 4.234375 
Q 43.84375 -1.421875 31.78125 -1.421875 
Q 19.734375 -1.421875 13.25 4.234375 
Q 6.78125 9.90625 6.78125 20.515625 
Q 6.78125 27.484375 10.78125 32.3125 
Q 14.796875 37.15625 21.921875 38.8125 
z
M 18.3125 54.390625 
Q 18.3125 48.734375 21.84375 45.5625 
Q 25.390625 42.390625 31.78125 42.390625 
Q 38.140625 42.390625 41.71875 45.5625 
Q 45.3125 48.734375 45.3125 54.390625 
Q 45.3125 60.0625 41.71875 63.234375 
Q 38.140625 66.40625 31.78125 66.40625 
Q 25.390625 66.40625 21.84375 63.234375 
Q 18.3125 60.0625 18.3125 54.390625 
z
" id="DejaVuSans-56"/>
        <path d="M 37.796875 64.3125 
L 12.890625 25.390625 
L 37.796875 25.390625 
z
M 35.203125 72.90625 
L 47.609375 72.90625 
L 47.609375 25.390625 
L 58.015625 25.390625 
L 58.015625 17.1875 
L 47.609375 17.1875 
L 47.609375 0 
L 37.796875 0 
L 37.796875 17.1875 
L 4.890625 17.1875 
L 4.890625 26.703125 
z
" id="DejaVuSans-52"/>
       </defs>
       <use xlink:href="#DejaVuSans-56"/>
       <use x="63.623047" xlink:href="#DejaVuSans-52"/>
      </g>
     </g>
    </g>
    <g id="xtick_2">
     <g id="line2d_2">
      <g>
       <use style="stroke:#000000;stroke-width:0.8;" x="255.6" xlink:href="#m554d874488" y="504"/>
      </g>
     </g>
     <g id="text_2">
      <!-- 86 -->
      <g transform="translate(240.33 529.23625)scale(0.24 -0.24)">
       <defs>
        <path d="M 33.015625 40.375 
Q 26.375 40.375 22.484375 35.828125 
Q 18.609375 31.296875 18.609375 23.390625 
Q 18.609375 15.53125 22.484375 10.953125 
Q 26.375 6.390625 33.015625 6.390625 
Q 39.65625 6.390625 43.53125 10.953125 
Q 47.40625 15.53125 47.40625 23.390625 
Q 47.40625 31.296875 43.53125 35.828125 
Q 39.65625 40.375 33.015625 40.375 
z
M 52.59375 71.296875 
L 52.59375 62.3125 
Q 48.875 64.0625 45.09375 64.984375 
Q 41.3125 65.921875 37.59375 65.921875 
Q 27.828125 65.921875 22.671875 59.328125 
Q 17.53125 52.734375 16.796875 39.40625 
Q 19.671875 43.65625 24.015625 45.921875 
Q 28.375 48.1875 33.59375 48.1875 
Q 44.578125 48.1875 50.953125 41.515625 
Q 57.328125 34.859375 57.328125 23.390625 
Q 57.328125 12.15625 50.6875 5.359375 
Q 44.046875 -1.421875 33.015625 -1.421875 
Q 20.359375 -1.421875 13.671875 8.265625 
Q 6.984375 17.96875 6.984375 36.375 
Q 6.984375 53.65625 15.1875 63.9375 
Q 23.390625 74.21875 37.203125 74.21875 
Q 40.921875 74.21875 44.703125 73.484375 
Q 48.484375 72.75 52.59375 71.296875 
z
" id="DejaVuSans-54"/>
       </defs>
       <use xlink:href="#DejaVuSans-56"/>
       <use x="63.623047" xlink:href="#DejaVuSans-54"/>
      </g>
     </g>
    </g>
    <g id="xtick_3">
     <g id="line2d_3">
      <g>
       <use style="stroke:#000000;stroke-width:0.8;" x="367.2" xlink:href="#m554d874488" y="504"/>
      </g>
     </g>
     <g id="text_3">
      <!-- 88 -->
      <g transform="translate(351.93 529.23625)scale(0.24 -0.24)">
       <use xlink:href="#DejaVuSans-56"/>
       <use x="63.623047" xlink:href="#DejaVuSans-56"/>
      </g>
     </g>
    </g>
    <g id="xtick_4">
     <g id="line2d_4">
      <g>
       <use style="stroke:#000000;stroke-width:0.8;" x="478.8" xlink:href="#m554d874488" y="504"/>
      </g>
     </g>
     <g id="text_4">
      <!-- 90 -->
      <g transform="translate(463.53 529.23625)scale(0.24 -0.24)">
       <defs>
        <path d="M 10.984375 1.515625 
L 10.984375 10.5 
Q 14.703125 8.734375 18.5 7.8125 
Q 22.3125 6.890625 25.984375 6.890625 
Q 35.75 6.890625 40.890625 13.453125 
Q 46.046875 20.015625 46.78125 33.40625 
Q 43.953125 29.203125 39.59375 26.953125 
Q 35.25 24.703125 29.984375 24.703125 
Q 19.046875 24.703125 12.671875 31.3125 
Q 6.296875 37.9375 6.296875 49.421875 
Q 6.296875 60.640625 12.9375 67.421875 
Q 19.578125 74.21875 30.609375 74.21875 
Q 43.265625 74.21875 49.921875 64.515625 
Q 56.59375 54.828125 56.59375 36.375 
Q 56.59375 19.140625 48.40625 8.859375 
Q 40.234375 -1.421875 26.421875 -1.421875 
Q 22.703125 -1.421875 18.890625 -0.6875 
Q 15.09375 0.046875 10.984375 1.515625 
z
M 30.609375 32.421875 
Q 37.25 32.421875 41.125 36.953125 
Q 45.015625 41.5 45.015625 49.421875 
Q 45.015625 57.28125 41.125 61.84375 
Q 37.25 66.40625 30.609375 66.40625 
Q 23.96875 66.40625 20.09375 61.84375 
Q 16.21875 57.28125 16.21875 49.421875 
Q 16.21875 41.5 20.09375 36.953125 
Q 23.96875 32.421875 30.609375 32.421875 
z
" id="DejaVuSans-57"/>
        <path d="M 31.78125 66.40625 
Q 24.171875 66.40625 20.328125 58.90625 
Q 16.5 51.421875 16.5 36.375 
Q 16.5 21.390625 20.328125 13.890625 
Q 24.171875 6.390625 31.78125 6.390625 
Q 39.453125 6.390625 43.28125 13.890625 
Q 47.125 21.390625 47.125 36.375 
Q 47.125 51.421875 43.28125 58.90625 
Q 39.453125 66.40625 31.78125 66.40625 
z
M 31.78125 74.21875 
Q 44.046875 74.21875 50.515625 64.515625 
Q 56.984375 54.828125 56.984375 36.375 
Q 56.984375 17.96875 50.515625 8.265625 
Q 44.046875 -1.421875 31.78125 -1.421875 
Q 19.53125 -1.421875 13.0625 8.265625 
Q 6.59375 17.96875 6.59375 36.375 
Q 6.59375 54.828125 13.0625 64.515625 
Q 19.53125 74.21875 31.78125 74.21875 
z
" id="DejaVuSans-48"/>
       </defs>
       <use xlink:href="#DejaVuSans-57"/>
       <use x="63.623047" xlink:href="#DejaVuSans-48"/>
      </g>
     </g>
    </g>
    <g id="xtick_5">
     <g id="line2d_5">
      <g>
       <use style="stroke:#000000;stroke-width:0.8;" x="590.4" xlink:href="#m554d874488" y="504"/>
      </g>
     </g>
     <g id="text_5">
      <!-- 92 -->
      <g transform="translate(575.13 529.23625)scale(0.24 -0.24)">
       <defs>
        <path d="M 19.1875 8.296875 
L 53.609375 8.296875 
L 53.609375 0 
L 7.328125 0 
L 7.328125 8.296875 
Q 12.9375 14.109375 22.625 23.890625 
Q 32.328125 33.6875 34.8125 36.53125 
Q 39.546875 41.84375 41.421875 45.53125 
Q 43.3125 49.21875 43.3125 52.78125 
Q 43.3125 58.59375 39.234375 62.25 
Q 35.15625 65.921875 28.609375 65.921875 
Q 23.96875 65.921875 18.8125 64.3125 
Q 13.671875 62.703125 7.8125 59.421875 
L 7.8125 69.390625 
Q 13.765625 71.78125 18.9375 73 
Q 24.125 74.21875 28.421875 74.21875 
Q 39.75 74.21875 46.484375 68.546875 
Q 53.21875 62.890625 53.21875 53.421875 
Q 53.21875 48.921875 51.53125 44.890625 
Q 49.859375 40.875 45.40625 35.40625 
Q 44.1875 33.984375 37.640625 27.21875 
Q 31.109375 20.453125 19.1875 8.296875 
z
" id="DejaVuSans-50"/>
       </defs>
       <use xlink:href="#DejaVuSans-57"/>
       <use x="63.623047" xlink:href="#DejaVuSans-50"/>
      </g>
     </g>
    </g>
    <g id="xtick_6">
     <g id="line2d_6">
      <g>
       <use style="stroke:#000000;stroke-width:0.8;" x="702" xlink:href="#m554d874488" y="504"/>
      </g>
     </g>
     <g id="text_6">
      <!-- 94 -->
      <g transform="translate(686.73 529.23625)scale(0.24 -0.24)">
       <use xlink:href="#DejaVuSans-57"/>
       <use x="63.623047" xlink:href="#DejaVuSans-52"/>
      </g>
     </g>
    </g>
    <g id="xtick_7">
     <g id="line2d_7">
      <g>
       <use style="stroke:#000000;stroke-width:0.8;" x="813.6" xlink:href="#m554d874488" y="504"/>
      </g>
     </g>
     <g id="text_7">
      <!-- 96 -->
      <g transform="translate(798.33 529.23625)scale(0.24 -0.24)">
       <use xlink:href="#DejaVuSans-57"/>
       <use x="63.623047" xlink:href="#DejaVuSans-54"/>
      </g>
     </g>
    </g>
    <g id="xtick_8">
     <g id="line2d_8">
      <g>
       <use style="stroke:#000000;stroke-width:0.8;" x="925.2" xlink:href="#m554d874488" y="504"/>
      </g>
     </g>
     <g id="text_8">
      <!-- 98 -->
      <g transform="translate(909.93 529.23625)scale(0.24 -0.24)">
       <use xlink:href="#DejaVuSans-57"/>
       <use x="63.623047" xlink:href="#DejaVuSans-56"/>
      </g>
     </g>
    </g>
    <g id="xtick_9">
     <g id="line2d_9">
      <g>
       <use style="stroke:#000000;stroke-width:0.8;" x="1036.8" xlink:href="#m554d874488" y="504"/>
      </g>
     </g>
     <g id="text_9">
      <!-- 100 -->
      <g transform="translate(1013.895 529.23625)scale(0.24 -0.24)">
       <defs>
        <path d="M 12.40625 8.296875 
L 28.515625 8.296875 
L 28.515625 63.921875 
L 10.984375 60.40625 
L 10.984375 69.390625 
L 28.421875 72.90625 
L 38.28125 72.90625 
L 38.28125 8.296875 
L 54.390625 8.296875 
L 54.390625 0 
L 12.40625 0 
z
" id="DejaVuSans-49"/>
       </defs>
       <use xlink:href="#DejaVuSans-49"/>
       <use x="63.623047" xlink:href="#DejaVuSans-48"/>
       <use x="127.246094" xlink:href="#DejaVuSans-48"/>
      </g>
     </g>
    </g>
    <g id="text_10">
     <!-- Accuracy /% -->
     <g transform="translate(504.013437 559.503125)scale(0.28 -0.28)">
      <defs>
       <path d="M 34.1875 63.1875 
L 20.796875 26.90625 
L 47.609375 26.90625 
z
M 28.609375 72.90625 
L 39.796875 72.90625 
L 67.578125 0 
L 57.328125 0 
L 50.6875 18.703125 
L 17.828125 18.703125 
L 11.1875 0 
L 0.78125 0 
z
" id="DejaVuSans-65"/>
       <path d="M 48.78125 52.59375 
L 48.78125 44.1875 
Q 44.96875 46.296875 41.140625 47.34375 
Q 37.3125 48.390625 33.40625 48.390625 
Q 24.65625 48.390625 19.8125 42.84375 
Q 14.984375 37.3125 14.984375 27.296875 
Q 14.984375 17.28125 19.8125 11.734375 
Q 24.65625 6.203125 33.40625 6.203125 
Q 37.3125 6.203125 41.140625 7.25 
Q 44.96875 8.296875 48.78125 10.40625 
L 48.78125 2.09375 
Q 45.015625 0.34375 40.984375 -0.53125 
Q 36.96875 -1.421875 32.421875 -1.421875 
Q 20.0625 -1.421875 12.78125 6.34375 
Q 5.515625 14.109375 5.515625 27.296875 
Q 5.515625 40.671875 12.859375 48.328125 
Q 20.21875 56 33.015625 56 
Q 37.15625 56 41.109375 55.140625 
Q 45.0625 54.296875 48.78125 52.59375 
z
" id="DejaVuSans-99"/>
       <path d="M 8.5 21.578125 
L 8.5 54.6875 
L 17.484375 54.6875 
L 17.484375 21.921875 
Q 17.484375 14.15625 20.5 10.265625 
Q 23.53125 6.390625 29.59375 6.390625 
Q 36.859375 6.390625 41.078125 11.03125 
Q 45.3125 15.671875 45.3125 23.6875 
L 45.3125 54.6875 
L 54.296875 54.6875 
L 54.296875 0 
L 45.3125 0 
L 45.3125 8.40625 
Q 42.046875 3.421875 37.71875 1 
Q 33.40625 -1.421875 27.6875 -1.421875 
Q 18.265625 -1.421875 13.375 4.4375 
Q 8.5 10.296875 8.5 21.578125 
z
M 31.109375 56 
z
" id="DejaVuSans-117"/>
       <path d="M 41.109375 46.296875 
Q 39.59375 47.171875 37.8125 47.578125 
Q 36.03125 48 33.890625 48 
Q 26.265625 48 22.1875 43.046875 
Q 18.109375 38.09375 18.109375 28.8125 
L 18.109375 0 
L 9.078125 0 
L 9.078125 54.6875 
L 18.109375 54.6875 
L 18.109375 46.1875 
Q 20.953125 51.171875 25.484375 53.578125 
Q 30.03125 56 36.53125 56 
Q 37.453125 56 38.578125 55.875 
Q 39.703125 55.765625 41.0625 55.515625 
z
" id="DejaVuSans-114"/>
       <path d="M 34.28125 27.484375 
Q 23.390625 27.484375 19.1875 25 
Q 14.984375 22.515625 14.984375 16.5 
Q 14.984375 11.71875 18.140625 8.90625 
Q 21.296875 6.109375 26.703125 6.109375 
Q 34.1875 6.109375 38.703125 11.40625 
Q 43.21875 16.703125 43.21875 25.484375 
L 43.21875 27.484375 
z
M 52.203125 31.203125 
L 52.203125 0 
L 43.21875 0 
L 43.21875 8.296875 
Q 40.140625 3.328125 35.546875 0.953125 
Q 30.953125 -1.421875 24.3125 -1.421875 
Q 15.921875 -1.421875 10.953125 3.296875 
Q 6 8.015625 6 15.921875 
Q 6 25.140625 12.171875 29.828125 
Q 18.359375 34.515625 30.609375 34.515625 
L 43.21875 34.515625 
L 43.21875 35.40625 
Q 43.21875 41.609375 39.140625 45 
Q 35.0625 48.390625 27.6875 48.390625 
Q 23 48.390625 18.546875 47.265625 
Q 14.109375 46.140625 10.015625 43.890625 
L 10.015625 52.203125 
Q 14.9375 54.109375 19.578125 55.046875 
Q 24.21875 56 28.609375 56 
Q 40.484375 56 46.34375 49.84375 
Q 52.203125 43.703125 52.203125 31.203125 
z
" id="DejaVuSans-97"/>
       <path d="M 32.171875 -5.078125 
Q 28.375 -14.84375 24.75 -17.8125 
Q 21.140625 -20.796875 15.09375 -20.796875 
L 7.90625 -20.796875 
L 7.90625 -13.28125 
L 13.1875 -13.28125 
Q 16.890625 -13.28125 18.9375 -11.515625 
Q 21 -9.765625 23.484375 -3.21875 
L 25.09375 0.875 
L 2.984375 54.6875 
L 12.5 54.6875 
L 29.59375 11.921875 
L 46.6875 54.6875 
L 56.203125 54.6875 
z
" id="DejaVuSans-121"/>
       <path id="DejaVuSans-32"/>
       <path d="M 25.390625 72.90625 
L 33.6875 72.90625 
L 8.296875 -9.28125 
L 0 -9.28125 
z
" id="DejaVuSans-47"/>
       <path d="M 72.703125 32.078125 
Q 68.453125 32.078125 66.03125 28.46875 
Q 63.625 24.859375 63.625 18.40625 
Q 63.625 12.0625 66.03125 8.421875 
Q 68.453125 4.78125 72.703125 4.78125 
Q 76.859375 4.78125 79.265625 8.421875 
Q 81.6875 12.0625 81.6875 18.40625 
Q 81.6875 24.8125 79.265625 28.4375 
Q 76.859375 32.078125 72.703125 32.078125 
z
M 72.703125 38.28125 
Q 80.421875 38.28125 84.953125 32.90625 
Q 89.5 27.546875 89.5 18.40625 
Q 89.5 9.28125 84.9375 3.921875 
Q 80.375 -1.421875 72.703125 -1.421875 
Q 64.890625 -1.421875 60.34375 3.921875 
Q 55.8125 9.28125 55.8125 18.40625 
Q 55.8125 27.59375 60.375 32.9375 
Q 64.9375 38.28125 72.703125 38.28125 
z
M 22.3125 68.015625 
Q 18.109375 68.015625 15.6875 64.375 
Q 13.28125 60.75 13.28125 54.390625 
Q 13.28125 47.953125 15.671875 44.328125 
Q 18.0625 40.71875 22.3125 40.71875 
Q 26.5625 40.71875 28.96875 44.328125 
Q 31.390625 47.953125 31.390625 54.390625 
Q 31.390625 60.6875 28.953125 64.34375 
Q 26.515625 68.015625 22.3125 68.015625 
z
M 66.40625 74.21875 
L 74.21875 74.21875 
L 28.609375 -1.421875 
L 20.796875 -1.421875 
z
M 22.3125 74.21875 
Q 30.03125 74.21875 34.609375 68.875 
Q 39.203125 63.53125 39.203125 54.390625 
Q 39.203125 45.171875 34.640625 39.84375 
Q 30.078125 34.515625 22.3125 34.515625 
Q 14.546875 34.515625 10.03125 39.859375 
Q 5.515625 45.21875 5.515625 54.390625 
Q 5.515625 63.484375 10.046875 68.84375 
Q 14.59375 74.21875 22.3125 74.21875 
z
" id="DejaVuSans-37"/>
      </defs>
      <use xlink:href="#DejaVuSans-65"/>
      <use x="66.658203" xlink:href="#DejaVuSans-99"/>
      <use x="121.638672" xlink:href="#DejaVuSans-99"/>
      <use x="176.619141" xlink:href="#DejaVuSans-117"/>
      <use x="239.998047" xlink:href="#DejaVuSans-114"/>
      <use x="281.111328" xlink:href="#DejaVuSans-97"/>
      <use x="342.390625" xlink:href="#DejaVuSans-99"/>
      <use x="397.371094" xlink:href="#DejaVuSans-121"/>
      <use x="456.550781" xlink:href="#DejaVuSans-32"/>
      <use x="488.337891" xlink:href="#DejaVuSans-47"/>
      <use x="522.029297" xlink:href="#DejaVuSans-37"/>
     </g>
    </g>
   </g>
   <g id="matplotlib.axis_2">
    <g id="ytick_1">
     <g id="line2d_10">
      <defs>
       <path d="M 0 0 
L -3.5 0 
" id="mc8f1d913a7" style="stroke:#000000;stroke-width:0.8;"/>
      </defs>
      <g>
       <use style="stroke:#000000;stroke-width:0.8;" x="144" xlink:href="#mc8f1d913a7" y="359.04"/>
      </g>
     </g>
     <g id="text_11">
      <!-- $\mathdefault{10^{4}}$ -->
      <g transform="translate(94.76 368.158125)scale(0.24 -0.24)">
       <use transform="translate(0 0.684375)" xlink:href="#DejaVuSans-49"/>
       <use transform="translate(63.623047 0.684375)" xlink:href="#DejaVuSans-48"/>
       <use transform="translate(128.203125 38.965625)scale(0.7)" xlink:href="#DejaVuSans-52"/>
      </g>
     </g>
    </g>
    <g id="ytick_2">
     <g id="line2d_11">
      <g>
       <use style="stroke:#000000;stroke-width:0.8;" x="144" xlink:href="#mc8f1d913a7" y="151.649126"/>
      </g>
     </g>
     <g id="text_12">
      <!-- $\mathdefault{10^{5}}$ -->
      <g transform="translate(94.76 160.767251)scale(0.24 -0.24)">
       <defs>
        <path d="M 10.796875 72.90625 
L 49.515625 72.90625 
L 49.515625 64.59375 
L 19.828125 64.59375 
L 19.828125 46.734375 
Q 21.96875 47.46875 24.109375 47.828125 
Q 26.265625 48.1875 28.421875 48.1875 
Q 40.625 48.1875 47.75 41.5 
Q 54.890625 34.8125 54.890625 23.390625 
Q 54.890625 11.625 47.5625 5.09375 
Q 40.234375 -1.421875 26.90625 -1.421875 
Q 22.3125 -1.421875 17.546875 -0.640625 
Q 12.796875 0.140625 7.71875 1.703125 
L 7.71875 11.625 
Q 12.109375 9.234375 16.796875 8.0625 
Q 21.484375 6.890625 26.703125 6.890625 
Q 35.15625 6.890625 40.078125 11.328125 
Q 45.015625 15.765625 45.015625 23.390625 
Q 45.015625 31 40.078125 35.4375 
Q 35.15625 39.890625 26.703125 39.890625 
Q 22.75 39.890625 18.8125 39.015625 
Q 14.890625 38.140625 10.796875 36.28125 
z
" id="DejaVuSans-53"/>
       </defs>
       <use transform="translate(0 0.684375)" xlink:href="#DejaVuSans-49"/>
       <use transform="translate(63.623047 0.684375)" xlink:href="#DejaVuSans-48"/>
       <use transform="translate(128.203125 38.965625)scale(0.7)" xlink:href="#DejaVuSans-53"/>
      </g>
     </g>
    </g>
    <g id="ytick_3">
     <g id="line2d_12">
      <defs>
       <path d="M 0 0 
L -2 0 
" id="m4d0bcd6bdb" style="stroke:#000000;stroke-width:0.6;"/>
      </defs>
      <g>
       <use style="stroke:#000000;stroke-width:0.6;" x="144" xlink:href="#m4d0bcd6bdb" y="504"/>
      </g>
     </g>
    </g>
    <g id="ytick_4">
     <g id="line2d_13">
      <g>
       <use style="stroke:#000000;stroke-width:0.6;" x="144" xlink:href="#m4d0bcd6bdb" y="467.48028"/>
      </g>
     </g>
    </g>
    <g id="ytick_5">
     <g id="line2d_14">
      <g>
       <use style="stroke:#000000;stroke-width:0.6;" x="144" xlink:href="#m4d0bcd6bdb" y="441.569126"/>
      </g>
     </g>
    </g>
    <g id="ytick_6">
     <g id="line2d_15">
      <g>
       <use style="stroke:#000000;stroke-width:0.6;" x="144" xlink:href="#m4d0bcd6bdb" y="421.470874"/>
      </g>
     </g>
    </g>
    <g id="ytick_7">
     <g id="line2d_16">
      <g>
       <use style="stroke:#000000;stroke-width:0.6;" x="144" xlink:href="#m4d0bcd6bdb" y="405.049406"/>
      </g>
     </g>
    </g>
    <g id="ytick_8">
     <g id="line2d_17">
      <g>
       <use style="stroke:#000000;stroke-width:0.6;" x="144" xlink:href="#m4d0bcd6bdb" y="391.165253"/>
      </g>
     </g>
    </g>
    <g id="ytick_9">
     <g id="line2d_18">
      <g>
       <use style="stroke:#000000;stroke-width:0.6;" x="144" xlink:href="#m4d0bcd6bdb" y="379.138252"/>
      </g>
     </g>
    </g>
    <g id="ytick_10">
     <g id="line2d_19">
      <g>
       <use style="stroke:#000000;stroke-width:0.6;" x="144" xlink:href="#m4d0bcd6bdb" y="368.529686"/>
      </g>
     </g>
    </g>
    <g id="ytick_11">
     <g id="line2d_20">
      <g>
       <use style="stroke:#000000;stroke-width:0.6;" x="144" xlink:href="#m4d0bcd6bdb" y="296.609126"/>
      </g>
     </g>
    </g>
    <g id="ytick_12">
     <g id="line2d_21">
      <g>
       <use style="stroke:#000000;stroke-width:0.6;" x="144" xlink:href="#m4d0bcd6bdb" y="260.089406"/>
      </g>
     </g>
    </g>
    <g id="ytick_13">
     <g id="line2d_22">
      <g>
       <use style="stroke:#000000;stroke-width:0.6;" x="144" xlink:href="#m4d0bcd6bdb" y="234.178252"/>
      </g>
     </g>
    </g>
    <g id="ytick_14">
     <g id="line2d_23">
      <g>
       <use style="stroke:#000000;stroke-width:0.6;" x="144" xlink:href="#m4d0bcd6bdb" y="214.08"/>
      </g>
     </g>
    </g>
    <g id="ytick_15">
     <g id="line2d_24">
      <g>
       <use style="stroke:#000000;stroke-width:0.6;" x="144" xlink:href="#m4d0bcd6bdb" y="197.658532"/>
      </g>
     </g>
    </g>
    <g id="ytick_16">
     <g id="line2d_25">
      <g>
       <use style="stroke:#000000;stroke-width:0.6;" x="144" xlink:href="#m4d0bcd6bdb" y="183.774379"/>
      </g>
     </g>
    </g>
    <g id="ytick_17">
     <g id="line2d_26">
      <g>
       <use style="stroke:#000000;stroke-width:0.6;" x="144" xlink:href="#m4d0bcd6bdb" y="171.747378"/>
      </g>
     </g>
    </g>
    <g id="ytick_18">
     <g id="line2d_27">
      <g>
       <use style="stroke:#000000;stroke-width:0.6;" x="144" xlink:href="#m4d0bcd6bdb" y="161.138812"/>
      </g>
     </g>
    </g>
    <g id="ytick_19">
     <g id="line2d_28">
      <g>
       <use style="stroke:#000000;stroke-width:0.6;" x="144" xlink:href="#m4d0bcd6bdb" y="89.218252"/>
      </g>
     </g>
    </g>
    <g id="text_13">
     <!-- Energy /A.U. -->
     <g transform="translate(84.936875 373.22)rotate(-90)scale(0.28 -0.28)">
      <defs>
       <path d="M 9.8125 72.90625 
L 55.90625 72.90625 
L 55.90625 64.59375 
L 19.671875 64.59375 
L 19.671875 43.015625 
L 54.390625 43.015625 
L 54.390625 34.71875 
L 19.671875 34.71875 
L 19.671875 8.296875 
L 56.78125 8.296875 
L 56.78125 0 
L 9.8125 0 
z
" id="DejaVuSans-69"/>
       <path d="M 54.890625 33.015625 
L 54.890625 0 
L 45.90625 0 
L 45.90625 32.71875 
Q 45.90625 40.484375 42.875 44.328125 
Q 39.84375 48.1875 33.796875 48.1875 
Q 26.515625 48.1875 22.3125 43.546875 
Q 18.109375 38.921875 18.109375 30.90625 
L 18.109375 0 
L 9.078125 0 
L 9.078125 54.6875 
L 18.109375 54.6875 
L 18.109375 46.1875 
Q 21.34375 51.125 25.703125 53.5625 
Q 30.078125 56 35.796875 56 
Q 45.21875 56 50.046875 50.171875 
Q 54.890625 44.34375 54.890625 33.015625 
z
" id="DejaVuSans-110"/>
       <path d="M 56.203125 29.59375 
L 56.203125 25.203125 
L 14.890625 25.203125 
Q 15.484375 15.921875 20.484375 11.0625 
Q 25.484375 6.203125 34.421875 6.203125 
Q 39.59375 6.203125 44.453125 7.46875 
Q 49.3125 8.734375 54.109375 11.28125 
L 54.109375 2.78125 
Q 49.265625 0.734375 44.1875 -0.34375 
Q 39.109375 -1.421875 33.890625 -1.421875 
Q 20.796875 -1.421875 13.15625 6.1875 
Q 5.515625 13.8125 5.515625 26.8125 
Q 5.515625 40.234375 12.765625 48.109375 
Q 20.015625 56 32.328125 56 
Q 43.359375 56 49.78125 48.890625 
Q 56.203125 41.796875 56.203125 29.59375 
z
M 47.21875 32.234375 
Q 47.125 39.59375 43.09375 43.984375 
Q 39.0625 48.390625 32.421875 48.390625 
Q 24.90625 48.390625 20.390625 44.140625 
Q 15.875 39.890625 15.1875 32.171875 
z
" id="DejaVuSans-101"/>
       <path d="M 45.40625 27.984375 
Q 45.40625 37.75 41.375 43.109375 
Q 37.359375 48.484375 30.078125 48.484375 
Q 22.859375 48.484375 18.828125 43.109375 
Q 14.796875 37.75 14.796875 27.984375 
Q 14.796875 18.265625 18.828125 12.890625 
Q 22.859375 7.515625 30.078125 7.515625 
Q 37.359375 7.515625 41.375 12.890625 
Q 45.40625 18.265625 45.40625 27.984375 
z
M 54.390625 6.78125 
Q 54.390625 -7.171875 48.1875 -13.984375 
Q 42 -20.796875 29.203125 -20.796875 
Q 24.46875 -20.796875 20.265625 -20.09375 
Q 16.0625 -19.390625 12.109375 -17.921875 
L 12.109375 -9.1875 
Q 16.0625 -11.328125 19.921875 -12.34375 
Q 23.78125 -13.375 27.78125 -13.375 
Q 36.625 -13.375 41.015625 -8.765625 
Q 45.40625 -4.15625 45.40625 5.171875 
L 45.40625 9.625 
Q 42.625 4.78125 38.28125 2.390625 
Q 33.9375 0 27.875 0 
Q 17.828125 0 11.671875 7.65625 
Q 5.515625 15.328125 5.515625 27.984375 
Q 5.515625 40.671875 11.671875 48.328125 
Q 17.828125 56 27.875 56 
Q 33.9375 56 38.28125 53.609375 
Q 42.625 51.21875 45.40625 46.390625 
L 45.40625 54.6875 
L 54.390625 54.6875 
z
" id="DejaVuSans-103"/>
       <path d="M 10.6875 12.40625 
L 21 12.40625 
L 21 0 
L 10.6875 0 
z
" id="DejaVuSans-46"/>
       <path d="M 8.6875 72.90625 
L 18.609375 72.90625 
L 18.609375 28.609375 
Q 18.609375 16.890625 22.84375 11.734375 
Q 27.09375 6.59375 36.625 6.59375 
Q 46.09375 6.59375 50.34375 11.734375 
Q 54.59375 16.890625 54.59375 28.609375 
L 54.59375 72.90625 
L 64.5 72.90625 
L 64.5 27.390625 
Q 64.5 13.140625 57.4375 5.859375 
Q 50.390625 -1.421875 36.625 -1.421875 
Q 22.796875 -1.421875 15.734375 5.859375 
Q 8.6875 13.140625 8.6875 27.390625 
z
" id="DejaVuSans-85"/>
      </defs>
      <use xlink:href="#DejaVuSans-69"/>
      <use x="63.183594" xlink:href="#DejaVuSans-110"/>
      <use x="126.5625" xlink:href="#DejaVuSans-101"/>
      <use x="188.085938" xlink:href="#DejaVuSans-114"/>
      <use x="227.449219" xlink:href="#DejaVuSans-103"/>
      <use x="290.925781" xlink:href="#DejaVuSans-121"/>
      <use x="350.105469" xlink:href="#DejaVuSans-32"/>
      <use x="381.892578" xlink:href="#DejaVuSans-47"/>
      <use x="415.583984" xlink:href="#DejaVuSans-65"/>
      <use x="482.242188" xlink:href="#DejaVuSans-46"/>
      <use x="514.029297" xlink:href="#DejaVuSans-85"/>
      <use x="587.222656" xlink:href="#DejaVuSans-46"/>
     </g>
    </g>
   </g>
   <g id="line2d_29">
    <path clip-path="url(#p1c80ec6d23)" d="M 82.62 520.197692 
L 333.72 465.363985 
L 393.984 434.797633 
L 450.342 414.151769 
L 486.054 398.099609 
L 490.518 385.276013 
L 498.33 374.756937 
L 540.18 365.19117 
L 553.572 356.6203 
L 581.472 349.131301 
L 588.726 342.440553 
L 577.008 336.184173 
L 608.814 330.692968 
L 611.046 325.232951 
L 587.052 320.322579 
L 626.67 315.601329 
L 623.322 311.510718 
L 642.294 307.373587 
L 654.57 303.582337 
L 646.758 300.121544 
L 613.836 296.805247 
L 665.172 293.33399 
L 675.216 290.120629 
L 685.818 287.178341 
L 662.94 284.443323 
L 677.448 281.752229 
L 685.818 279.020487 
L 696.978 276.643081 
L 686.376 274.262762 
L 692.514 271.964748 
L 689.724 269.665244 
L 704.232 267.330809 
L 711.486 265.232816 
L 706.464 263.20734 
L 722.088 261.140795 
L 716.508 259.325767 
L 722.088 257.479681 
L 708.138 255.758508 
L 740.502 252.257202 
L 751.104 250.59844 
L 736.038 248.985404 
L 742.176 247.317353 
L 749.988 245.741829 
L 739.386 244.240441 
L 753.336 242.844895 
L 756.684 241.392455 
L 755.568 239.978318 
L 763.938 238.644898 
L 763.38 237.295425 
L 756.684 236.000091 
L 765.612 234.625647 
L 772.308 233.391842 
L 765.612 232.19288 
L 767.286 231.00049 
L 778.446 229.924195 
L 774.54 228.682837 
L 778.446 227.53245 
L 782.91 226.363324 
L 789.048 225.26116 
L 775.098 224.233064 
L 787.932 223.151554 
L 783.468 222.118573 
L 785.142 221.107915 
L 784.584 220.114833 
L 791.838 219.164259 
L 795.186 218.137412 
L 786.816 217.173141 
L 790.164 216.241635 
L 787.932 215.290173 
L 800.766 214.372063 
L 805.23 213.451912 
L 800.208 212.561414 
L 800.208 211.725243 
L 809.136 210.868474 
L 800.208 210.098029 
L 809.136 209.269869 
L 806.346 208.384997 
L 815.274 207.576289 
L 808.02 206.788938 
L 813.6 205.95382 
L 816.39 205.148148 
L 808.02 204.368178 
L 815.832 203.584478 
L 819.738 202.834274 
L 818.622 202.07494 
L 824.202 201.319372 
L 817.506 200.589066 
L 821.412 199.88833 
L 820.296 199.187882 
L 824.202 198.489197 
L 823.086 197.75764 
L 824.76 197.038684 
L 821.412 196.365824 
L 825.876 195.709036 
L 830.34 194.517177 
L 829.782 193.906348 
L 828.666 193.281786 
L 832.014 192.606454 
L 830.34 191.962544 
L 824.76 191.355468 
L 828.666 190.714766 
L 840.942 190.100581 
L 835.362 189.494044 
L 833.688 188.893952 
L 838.71 188.305008 
L 832.014 187.703959 
L 839.826 187.110646 
L 833.13 186.583955 
L 836.478 186.04608 
L 846.522 185.467948 
L 839.268 184.923397 
L 837.036 184.346973 
L 852.66 183.230101 
L 845.964 182.728649 
L 850.986 182.148199 
L 851.544 181.632704 
L 850.986 181.121069 
L 845.964 180.624842 
L 849.87 180.113904 
L 844.29 179.648064 
L 844.29 179.147931 
L 843.732 178.679949 
L 849.87 178.18787 
L 847.638 177.700811 
L 848.196 177.200634 
L 839.826 176.675734 
L 848.196 176.17304 
L 853.218 175.687701 
L 853.776 175.220275 
L 852.102 174.783879 
L 857.124 174.304669 
L 850.986 173.405745 
L 846.522 172.965509 
L 856.008 172.523784 
L 841.5 172.068619 
L 859.356 171.651904 
L 850.986 171.202473 
L 856.008 170.299221 
L 864.936 169.860007 
L 861.588 169.447275 
L 855.45 169.0469 
L 861.03 168.606429 
L 861.588 168.21404 
L 861.588 167.784238 
L 858.798 167.361544 
L 866.052 166.928751 
L 864.936 166.557498 
L 862.704 166.162263 
L 871.074 165.761512 
L 858.798 165.35793 
L 862.146 164.957489 
L 858.798 164.583811 
L 861.588 164.181547 
L 867.168 163.780372 
L 867.168 163.39026 
L 866.052 163.047935 
L 866.052 162.691261 
L 862.146 162.314324 
L 866.052 161.925237 
L 858.798 161.558497 
L 867.726 161.17056 
L 864.936 160.813481 
L 872.19 160.460706 
L 873.864 160.116986 
L 867.168 159.782328 
L 870.516 159.434469 
L 865.494 159.068656 
L 872.748 158.746664 
L 873.306 158.390051 
L 871.074 158.053173 
L 872.19 157.693778 
L 862.146 157.370991 
L 867.168 157.019155 
L 869.958 156.655325 
L 871.632 156.30731 
L 874.98 155.996735 
L 869.4 155.6636 
L 873.864 155.341427 
L 872.19 154.997035 
L 876.096 154.700145 
L 872.19 154.386792 
L 859.914 154.055722 
L 873.306 153.718609 
L 870.516 153.39043 
L 871.632 153.086569 
L 872.19 152.779073 
L 867.168 152.440947 
L 882.792 152.148739 
L 872.748 151.837018 
L 874.422 151.539239 
L 874.422 151.247091 
L 872.19 150.933941 
L 867.168 150.625361 
L 872.19 150.342262 
L 865.494 150.052322 
L 874.98 149.730682 
L 877.212 149.424668 
L 868.284 149.128232 
L 877.77 148.538133 
L 872.748 148.272087 
L 873.306 148.014095 
L 876.096 147.704434 
L 867.726 147.435551 
L 878.886 147.172972 
L 872.748 146.896574 
L 873.864 146.603272 
L 877.212 146.320441 
L 877.212 146.056885 
L 876.096 145.743972 
L 877.77 145.457373 
L 883.908 145.168134 
L 881.118 144.890844 
L 881.118 144.624481 
L 880.56 144.368608 
L 873.306 144.114937 
L 880.56 143.838362 
L 877.212 143.589367 
L 877.77 143.332028 
L 885.024 143.068857 
L 880.56 142.786341 
L 870.516 142.531392 
L 874.98 142.288203 
L 872.748 142.056019 
L 874.422 141.812277 
L 887.256 141.311767 
L 877.212 141.088169 
L 881.118 140.843224 
L 881.118 140.593935 
L 876.654 140.35138 
L 885.024 139.811832 
L 874.98 139.557003 
L 885.582 139.062423 
L 880.56 138.812681 
L 882.792 138.58892 
L 873.864 138.351692 
L 884.466 138.119739 
L 869.958 137.637956 
L 885.582 137.416245 
L 877.77 137.176819 
L 878.328 136.94438 
L 874.98 136.72725 
L 885.024 136.479456 
L 877.77 136.052855 
L 876.654 135.843049 
L 880.002 135.615678 
L 878.886 135.378501 
L 877.212 135.158229 
L 878.886 134.938982 
L 878.886 134.716026 
L 878.328 134.480585 
L 872.19 134.24295 
L 875.538 134.011579 
L 885.582 133.802585 
L 876.654 133.598478 
L 888.93 133.388248 
L 884.466 133.169293 
L 884.466 132.951084 
L 885.024 132.718925 
L 879.444 132.516486 
L 883.908 132.31175 
L 879.444 132.117681 
L 871.074 131.891286 
L 885.024 131.676863 
L 881.676 131.470162 
L 890.046 131.263474 
L 879.444 131.083885 
L 877.77 130.886076 
L 886.14 130.31503 
L 880.002 130.094387 
L 870.516 129.893082 
L 888.372 129.685792 
L 886.698 129.464276 
L 888.93 129.260392 
L 878.328 128.831403 
L 890.046 128.6434 
L 888.93 128.451249 
L 885.582 128.243883 
L 888.93 128.054527 
L 884.466 127.65713 
L 889.488 127.460364 
L 881.676 127.103187 
L 875.538 126.900589 
L 883.35 126.52029 
L 884.466 126.346579 
L 880.56 126.163768 
L 886.14 125.988828 
L 885.024 125.789335 
L 889.488 125.599197 
L 889.488 125.406446 
L 883.908 125.230481 
L 892.278 125.031523 
L 890.046 124.843694 
L 879.444 124.667818 
L 891.162 124.129274 
L 885.024 123.954249 
L 883.908 123.613142 
L 889.488 123.274611 
L 886.14 123.10293 
L 890.604 122.919649 
L 887.256 122.748998 
L 887.256 122.573564 
L 888.372 122.372098 
L 881.676 122.198254 
L 886.698 121.873056 
L 880.56 121.703813 
L 879.444 121.532393 
L 883.35 121.207581 
L 883.908 121.041088 
L 880.002 120.860024 
L 881.676 120.682999 
L 890.046 120.333736 
L 883.908 120.159177 
L 891.162 120.001454 
L 891.162 119.845666 
L 881.118 119.548061 
L 887.814 119.378375 
L 888.93 119.21558 
L 877.212 119.024426 
L 882.234 118.860462 
L 880.002 118.710053 
L 886.698 118.543283 
L 883.908 118.363396 
L 890.046 118.21555 
L 890.046 118.050682 
L 890.604 117.88004 
L 883.908 117.586523 
L 892.836 117.430534 
L 878.886 117.271201 
L 888.93 117.122914 
L 885.024 116.974057 
L 888.93 116.80767 
L 880.002 116.654568 
L 884.466 116.491615 
L 884.466 116.491615 
" style="fill:none;stroke:#1f1f1f;stroke-linecap:square;stroke-width:5;"/>
   </g>
   <g id="line2d_30">
    <path clip-path="url(#p1c80ec6d23)" d="M -1 567.45842 
L 130.608 541.42237 
L 177.48 522.226212 
L 268.434 507.021268 
L 322.56 494.262254 
L 347.67 483.515502 
L 376.128 474.306289 
L 390.636 466.195405 
L 407.934 458.909901 
L 433.044 452.335719 
L 448.668 446.234697 
L 451.458 440.546469 
L 464.292 435.441939 
L 472.104 430.652451 
L 489.96 426.047617 
L 498.888 421.738357 
L 494.424 417.60196 
L 502.794 413.585987 
L 506.7 409.868107 
L 520.092 406.329145 
L 526.788 402.996864 
L 540.18 399.992927 
L 532.368 396.886089 
L 533.484 393.924387 
L 540.18 391.133836 
L 537.948 388.2424 
L 550.224 385.484517 
L 548.55 382.829119 
L 554.13 380.266931 
L 548.55 377.850684 
L 564.732 375.42958 
L 569.754 373.087556 
L 568.638 370.827271 
L 571.986 368.666095 
L 569.754 366.620936 
L 577.008 364.516932 
L 572.544 362.505921 
L 584.82 360.582493 
L 578.682 358.721122 
L 584.82 356.82302 
L 578.124 355.097672 
L 575.892 353.32254 
L 584.262 351.541288 
L 588.168 349.802384 
L 587.61 348.058833 
L 586.494 346.459026 
L 595.422 343.371043 
L 592.074 341.836486 
L 598.212 340.342388 
L 591.516 338.865777 
L 598.212 337.410443 
L 594.864 336.020384 
L 599.886 334.624515 
L 603.234 333.230236 
L 609.372 331.821723 
L 611.604 330.510686 
L 617.742 329.181297 
L 609.372 327.966924 
L 626.67 326.73617 
L 606.024 325.540862 
L 617.184 324.333128 
L 606.024 323.176977 
L 601.002 321.950489 
L 621.648 320.796837 
L 624.996 319.650046 
L 631.134 318.533371 
L 627.786 317.354904 
L 621.648 316.22628 
L 623.322 315.152374 
L 618.858 313.019963 
L 624.996 312.011436 
L 623.322 311.025478 
L 627.786 309.954766 
L 638.946 308.968175 
L 627.786 307.964536 
L 635.598 306.972691 
L 635.04 306.071949 
L 643.968 305.117193 
L 638.946 304.189675 
L 639.504 303.268699 
L 640.62 302.325719 
L 633.924 301.427769 
L 643.41 300.575673 
L 643.968 299.657732 
L 645.642 298.816289 
L 644.526 297.938779 
L 647.874 297.122086 
L 646.2 296.287999 
L 650.106 295.446442 
L 650.106 294.616765 
L 652.338 293.785374 
L 659.034 293.018715 
L 648.432 292.211491 
L 655.128 291.461201 
L 657.36 290.639864 
L 663.498 289.861662 
L 658.476 289.132335 
L 654.57 288.393503 
L 654.57 286.883662 
L 670.194 286.141473 
L 664.614 285.37966 
L 656.244 284.643599 
L 656.802 283.915892 
L 663.498 283.183199 
L 668.52 282.495849 
L 668.52 281.805962 
L 656.244 281.10168 
L 664.614 280.417993 
L 671.868 279.708289 
L 673.542 278.999897 
L 666.846 278.326165 
L 673.542 277.667564 
L 671.868 277.041071 
L 676.89 276.403166 
L 672.426 275.776338 
L 657.918 275.148236 
L 680.796 274.546454 
L 678.006 273.93313 
L 678.564 273.322105 
L 676.332 272.705225 
L 675.216 272.110796 
L 683.028 271.470663 
L 678.564 270.863497 
L 690.282 270.257649 
L 678.564 269.636166 
L 680.796 269.007448 
L 686.934 268.438594 
L 682.47 267.872081 
L 686.934 267.29112 
L 688.608 266.70399 
L 688.05 266.128665 
L 689.166 265.580104 
L 679.122 265.014666 
L 695.304 264.473717 
L 684.144 263.356293 
L 686.376 262.815841 
L 684.702 262.259719 
L 691.398 261.723675 
L 687.492 261.201617 
L 688.608 260.681241 
L 699.768 260.183024 
L 694.188 259.659478 
L 690.282 259.159688 
L 696.978 258.60432 
L 694.746 258.110077 
L 702 257.589487 
L 690.282 257.097476 
L 701.442 256.610795 
L 699.768 256.069669 
L 702 255.595344 
L 698.094 255.122636 
L 707.022 254.645869 
L 711.486 254.163097 
L 708.138 253.676048 
L 699.768 253.163388 
L 707.022 252.715493 
L 708.138 252.246659 
L 701.442 251.77255 
L 710.37 251.291905 
L 700.326 250.848912 
L 703.674 250.370518 
L 702.558 249.938518 
L 695.862 249.466342 
L 709.812 249.03202 
L 706.464 248.553768 
L 700.884 248.139589 
L 711.486 247.705279 
L 703.116 247.269652 
L 704.79 246.820251 
L 713.718 245.950635 
L 715.392 245.493163 
L 711.486 245.065715 
L 712.602 244.650943 
L 709.254 244.227898 
L 707.58 243.789683 
L 713.718 243.376309 
L 710.37 242.964585 
L 717.624 242.121314 
L 716.508 241.721377 
L 714.834 241.307862 
L 713.718 240.913256 
L 720.414 240.500647 
L 713.718 240.106843 
L 719.298 239.734746 
L 714.834 239.352212 
L 714.276 238.938024 
L 724.32 238.511509 
L 725.436 238.111807 
L 713.718 237.72437 
L 724.878 237.347665 
L 724.32 236.960478 
L 719.856 236.587568 
L 725.994 236.205266 
L 734.364 235.831946 
L 715.95 235.473125 
L 725.994 235.081155 
L 726.552 234.715501 
L 719.298 234.356109 
L 725.436 233.987918 
L 723.204 233.629312 
L 728.784 233.264159 
L 722.646 232.560247 
L 722.088 232.201126 
L 728.226 231.849712 
L 719.856 231.498143 
L 734.922 231.119426 
L 736.596 230.797493 
L 734.922 230.461214 
L 721.53 230.119074 
L 731.016 229.771738 
L 729.9 229.423036 
L 723.204 229.061922 
L 738.27 228.713159 
L 729.9 228.357307 
L 728.226 228.023404 
L 735.48 227.69001 
L 734.922 227.362742 
L 734.922 227.016803 
L 742.176 226.695216 
L 738.27 226.020529 
L 741.618 225.700657 
L 742.734 225.385962 
L 742.176 225.080451 
L 737.712 224.739831 
L 742.734 224.427121 
L 745.524 224.10653 
L 734.364 223.777297 
L 743.85 223.442017 
L 739.386 223.121751 
L 739.944 222.823306 
L 738.828 222.516458 
L 740.502 222.192958 
L 737.154 221.869207 
L 739.944 221.556304 
L 745.524 221.253273 
L 743.85 220.952422 
L 738.828 220.640378 
L 741.06 220.321782 
L 747.198 220.006147 
L 747.756 219.699725 
L 747.198 219.413308 
L 747.198 219.117611 
L 746.64 218.826348 
L 743.292 218.517142 
L 743.85 218.235205 
L 749.43 217.947983 
L 739.944 217.632854 
L 750.546 217.068068 
L 748.872 216.765051 
L 756.126 216.485631 
L 749.43 215.906114 
L 742.176 215.601294 
L 749.988 215.293693 
L 749.43 215.027618 
L 743.292 214.744444 
L 746.64 214.459413 
L 752.778 214.185479 
L 747.198 213.922488 
L 751.104 213.647864 
L 753.336 213.365636 
L 758.358 213.080363 
L 755.568 212.808464 
L 755.01 212.540755 
L 752.22 212.261919 
L 759.474 211.199423 
L 757.8 210.935071 
L 748.314 210.412392 
L 757.242 210.132363 
L 755.568 209.870432 
L 755.568 209.334011 
L 747.756 209.074534 
L 760.59 208.814046 
L 755.01 208.557529 
L 765.054 208.294321 
L 760.032 208.031177 
L 761.706 207.786255 
L 765.612 207.521395 
L 766.728 207.269909 
L 766.728 207.019205 
L 757.8 206.772292 
L 766.17 206.251646 
L 765.612 205.990361 
L 768.96 205.752143 
L 767.286 205.504199 
L 760.59 205.265678 
L 761.706 205.019257 
L 759.474 204.783565 
L 761.706 204.532103 
L 762.822 204.282395 
L 758.916 204.047442 
L 765.054 203.803193 
L 767.844 203.555111 
L 752.778 203.315991 
L 761.148 203.064928 
L 766.17 202.597754 
L 763.38 202.361489 
L 770.076 202.118409 
L 768.402 201.874448 
L 771.192 201.642612 
L 770.634 201.419306 
L 771.75 201.193272 
L 771.192 200.960635 
L 767.286 200.727221 
L 772.308 200.489086 
L 773.424 200.257669 
L 767.286 200.005014 
L 771.192 199.782083 
L 770.634 199.558822 
L 767.844 199.327612 
L 774.54 199.088968 
L 768.402 198.872608 
L 775.098 198.440273 
L 768.96 198.209232 
L 758.916 197.987752 
L 766.17 197.772819 
L 758.358 197.552753 
L 768.402 197.326399 
L 766.17 197.093802 
L 768.402 196.869594 
L 771.75 196.658397 
L 766.728 196.013075 
L 769.518 195.792017 
L 776.772 195.568829 
L 775.656 195.368085 
L 777.33 195.153717 
L 774.54 194.941554 
L 782.352 194.730585 
L 772.866 194.52809 
L 770.076 194.318701 
L 777.33 194.103273 
L 780.12 193.893168 
L 773.424 193.481743 
L 778.446 193.269077 
L 775.656 193.064919 
L 771.192 192.855258 
L 771.192 192.855258 
" style="fill:none;stroke:#ff9500;stroke-linecap:square;stroke-width:5;"/>
   </g>
   <g id="patch_3">
    <path d="M 144 504 
L 144 69.12 
" style="fill:none;stroke:#000000;stroke-linecap:square;stroke-linejoin:miter;stroke-width:0.8;"/>
   </g>
   <g id="patch_4">
    <path d="M 1036.8 504 
L 1036.8 69.12 
" style="fill:none;stroke:#000000;stroke-linecap:square;stroke-linejoin:miter;stroke-width:0.8;"/>
   </g>
   <g id="patch_5">
    <path d="M 144 504 
L 1036.8 504 
" style="fill:none;stroke:#000000;stroke-linecap:square;stroke-linejoin:miter;stroke-width:0.8;"/>
   </g>
   <g id="patch_6">
    <path d="M 144 69.12 
L 1036.8 69.12 
" style="fill:none;stroke:#000000;stroke-linecap:square;stroke-linejoin:miter;stroke-width:0.8;"/>
   </g>
   <g id="text_14">
    <!-- Ungated: Energy vs. Accuracy with 50 Units @ 0.25 -->
    <g transform="translate(125.834063 61.633125)scale(0.36 -0.36)">
     <defs>
      <path d="M 18.3125 70.21875 
L 18.3125 54.6875 
L 36.8125 54.6875 
L 36.8125 47.703125 
L 18.3125 47.703125 
L 18.3125 18.015625 
Q 18.3125 11.328125 20.140625 9.421875 
Q 21.96875 7.515625 27.59375 7.515625 
L 36.8125 7.515625 
L 36.8125 0 
L 27.59375 0 
Q 17.1875 0 13.234375 3.875 
Q 9.28125 7.765625 9.28125 18.015625 
L 9.28125 47.703125 
L 2.6875 47.703125 
L 2.6875 54.6875 
L 9.28125 54.6875 
L 9.28125 70.21875 
z
" id="DejaVuSans-116"/>
      <path d="M 45.40625 46.390625 
L 45.40625 75.984375 
L 54.390625 75.984375 
L 54.390625 0 
L 45.40625 0 
L 45.40625 8.203125 
Q 42.578125 3.328125 38.25 0.953125 
Q 33.9375 -1.421875 27.875 -1.421875 
Q 17.96875 -1.421875 11.734375 6.484375 
Q 5.515625 14.40625 5.515625 27.296875 
Q 5.515625 40.1875 11.734375 48.09375 
Q 17.96875 56 27.875 56 
Q 33.9375 56 38.25 53.625 
Q 42.578125 51.265625 45.40625 46.390625 
z
M 14.796875 27.296875 
Q 14.796875 17.390625 18.875 11.75 
Q 22.953125 6.109375 30.078125 6.109375 
Q 37.203125 6.109375 41.296875 11.75 
Q 45.40625 17.390625 45.40625 27.296875 
Q 45.40625 37.203125 41.296875 42.84375 
Q 37.203125 48.484375 30.078125 48.484375 
Q 22.953125 48.484375 18.875 42.84375 
Q 14.796875 37.203125 14.796875 27.296875 
z
" id="DejaVuSans-100"/>
      <path d="M 11.71875 12.40625 
L 22.015625 12.40625 
L 22.015625 0 
L 11.71875 0 
z
M 11.71875 51.703125 
L 22.015625 51.703125 
L 22.015625 39.3125 
L 11.71875 39.3125 
z
" id="DejaVuSans-58"/>
      <path d="M 2.984375 54.6875 
L 12.5 54.6875 
L 29.59375 8.796875 
L 46.6875 54.6875 
L 56.203125 54.6875 
L 35.6875 0 
L 23.484375 0 
z
" id="DejaVuSans-118"/>
      <path d="M 44.28125 53.078125 
L 44.28125 44.578125 
Q 40.484375 46.53125 36.375 47.5 
Q 32.28125 48.484375 27.875 48.484375 
Q 21.1875 48.484375 17.84375 46.4375 
Q 14.5 44.390625 14.5 40.28125 
Q 14.5 37.15625 16.890625 35.375 
Q 19.28125 33.59375 26.515625 31.984375 
L 29.59375 31.296875 
Q 39.15625 29.25 43.1875 25.515625 
Q 47.21875 21.78125 47.21875 15.09375 
Q 47.21875 7.46875 41.1875 3.015625 
Q 35.15625 -1.421875 24.609375 -1.421875 
Q 20.21875 -1.421875 15.453125 -0.5625 
Q 10.6875 0.296875 5.421875 2 
L 5.421875 11.28125 
Q 10.40625 8.6875 15.234375 7.390625 
Q 20.0625 6.109375 24.8125 6.109375 
Q 31.15625 6.109375 34.5625 8.28125 
Q 37.984375 10.453125 37.984375 14.40625 
Q 37.984375 18.0625 35.515625 20.015625 
Q 33.0625 21.96875 24.703125 23.78125 
L 21.578125 24.515625 
Q 13.234375 26.265625 9.515625 29.90625 
Q 5.8125 33.546875 5.8125 39.890625 
Q 5.8125 47.609375 11.28125 51.796875 
Q 16.75 56 26.8125 56 
Q 31.78125 56 36.171875 55.265625 
Q 40.578125 54.546875 44.28125 53.078125 
z
" id="DejaVuSans-115"/>
      <path d="M 4.203125 54.6875 
L 13.1875 54.6875 
L 24.421875 12.015625 
L 35.59375 54.6875 
L 46.1875 54.6875 
L 57.421875 12.015625 
L 68.609375 54.6875 
L 77.59375 54.6875 
L 63.28125 0 
L 52.6875 0 
L 40.921875 44.828125 
L 29.109375 0 
L 18.5 0 
z
" id="DejaVuSans-119"/>
      <path d="M 9.421875 54.6875 
L 18.40625 54.6875 
L 18.40625 0 
L 9.421875 0 
z
M 9.421875 75.984375 
L 18.40625 75.984375 
L 18.40625 64.59375 
L 9.421875 64.59375 
z
" id="DejaVuSans-105"/>
      <path d="M 54.890625 33.015625 
L 54.890625 0 
L 45.90625 0 
L 45.90625 32.71875 
Q 45.90625 40.484375 42.875 44.328125 
Q 39.84375 48.1875 33.796875 48.1875 
Q 26.515625 48.1875 22.3125 43.546875 
Q 18.109375 38.921875 18.109375 30.90625 
L 18.109375 0 
L 9.078125 0 
L 9.078125 75.984375 
L 18.109375 75.984375 
L 18.109375 46.1875 
Q 21.34375 51.125 25.703125 53.5625 
Q 30.078125 56 35.796875 56 
Q 45.21875 56 50.046875 50.171875 
Q 54.890625 44.34375 54.890625 33.015625 
z
" id="DejaVuSans-104"/>
      <path d="M 37.203125 26.21875 
Q 37.203125 19.234375 40.671875 15.25 
Q 44.140625 11.28125 50.203125 11.28125 
Q 56.203125 11.28125 59.640625 15.28125 
Q 63.09375 19.28125 63.09375 26.21875 
Q 63.09375 33.0625 59.578125 37.078125 
Q 56.0625 41.109375 50.09375 41.109375 
Q 44.1875 41.109375 40.6875 37.109375 
Q 37.203125 33.109375 37.203125 26.21875 
z
M 63.8125 11.625 
Q 60.890625 7.859375 57.109375 6.078125 
Q 53.328125 4.296875 48.296875 4.296875 
Q 39.890625 4.296875 34.640625 10.375 
Q 29.390625 16.453125 29.390625 26.21875 
Q 29.390625 35.984375 34.65625 42.078125 
Q 39.9375 48.1875 48.296875 48.1875 
Q 53.328125 48.1875 57.125 46.359375 
Q 60.9375 44.53125 63.8125 40.828125 
L 63.8125 47.21875 
L 70.796875 47.21875 
L 70.796875 11.28125 
Q 77.9375 12.359375 81.953125 17.796875 
Q 85.984375 23.25 85.984375 31.890625 
Q 85.984375 37.109375 84.4375 41.703125 
Q 82.90625 46.296875 79.78125 50.203125 
Q 74.703125 56.59375 67.40625 59.984375 
Q 60.109375 63.375 51.515625 63.375 
Q 45.515625 63.375 39.984375 61.78125 
Q 34.46875 60.203125 29.78125 57.078125 
Q 22.125 52.09375 17.796875 44.015625 
Q 13.484375 35.9375 13.484375 26.515625 
Q 13.484375 18.75 16.28125 11.953125 
Q 19.09375 5.171875 24.421875 0 
Q 29.546875 -5.078125 36.28125 -7.734375 
Q 43.015625 -10.40625 50.6875 -10.40625 
Q 56.984375 -10.40625 63.0625 -8.28125 
Q 69.140625 -6.15625 74.21875 -2.203125 
L 78.609375 -7.625 
Q 72.515625 -12.359375 65.3125 -14.875 
Q 58.109375 -17.390625 50.6875 -17.390625 
Q 41.65625 -17.390625 33.640625 -14.1875 
Q 25.640625 -10.984375 19.390625 -4.890625 
Q 13.140625 1.21875 9.859375 9.25 
Q 6.59375 17.28125 6.59375 26.515625 
Q 6.59375 35.40625 9.90625 43.453125 
Q 13.234375 51.515625 19.390625 57.625 
Q 25.6875 63.8125 33.9375 67.109375 
Q 42.1875 70.40625 51.421875 70.40625 
Q 61.765625 70.40625 70.625 66.15625 
Q 79.5 61.921875 85.5 54.109375 
Q 89.15625 49.3125 91.078125 43.703125 
Q 93.015625 38.09375 93.015625 32.078125 
Q 93.015625 19.234375 85.25 11.8125 
Q 77.484375 4.390625 63.8125 4.109375 
z
" id="DejaVuSans-64"/>
     </defs>
     <use xlink:href="#DejaVuSans-85"/>
     <use x="73.193359" xlink:href="#DejaVuSans-110"/>
     <use x="136.572266" xlink:href="#DejaVuSans-103"/>
     <use x="200.048828" xlink:href="#DejaVuSans-97"/>
     <use x="261.328125" xlink:href="#DejaVuSans-116"/>
     <use x="300.537109" xlink:href="#DejaVuSans-101"/>
     <use x="362.060547" xlink:href="#DejaVuSans-100"/>
     <use x="425.537109" xlink:href="#DejaVuSans-58"/>
     <use x="459.228516" xlink:href="#DejaVuSans-32"/>
     <use x="491.015625" xlink:href="#DejaVuSans-69"/>
     <use x="554.199219" xlink:href="#DejaVuSans-110"/>
     <use x="617.578125" xlink:href="#DejaVuSans-101"/>
     <use x="679.101562" xlink:href="#DejaVuSans-114"/>
     <use x="718.464844" xlink:href="#DejaVuSans-103"/>
     <use x="781.941406" xlink:href="#DejaVuSans-121"/>
     <use x="841.121094" xlink:href="#DejaVuSans-32"/>
     <use x="872.908203" xlink:href="#DejaVuSans-118"/>
     <use x="932.087891" xlink:href="#DejaVuSans-115"/>
     <use x="984.1875" xlink:href="#DejaVuSans-46"/>
     <use x="1015.974609" xlink:href="#DejaVuSans-32"/>
     <use x="1047.761719" xlink:href="#DejaVuSans-65"/>
     <use x="1114.419922" xlink:href="#DejaVuSans-99"/>
     <use x="1169.400391" xlink:href="#DejaVuSans-99"/>
     <use x="1224.380859" xlink:href="#DejaVuSans-117"/>
     <use x="1287.759766" xlink:href="#DejaVuSans-114"/>
     <use x="1328.873047" xlink:href="#DejaVuSans-97"/>
     <use x="1390.152344" xlink:href="#DejaVuSans-99"/>
     <use x="1445.132812" xlink:href="#DejaVuSans-121"/>
     <use x="1504.3125" xlink:href="#DejaVuSans-32"/>
     <use x="1536.099609" xlink:href="#DejaVuSans-119"/>
     <use x="1617.886719" xlink:href="#DejaVuSans-105"/>
     <use x="1645.669922" xlink:href="#DejaVuSans-116"/>
     <use x="1684.878906" xlink:href="#DejaVuSans-104"/>
     <use x="1748.257812" xlink:href="#DejaVuSans-32"/>
     <use x="1780.044922" xlink:href="#DejaVuSans-53"/>
     <use x="1843.667969" xlink:href="#DejaVuSans-48"/>
     <use x="1907.291016" xlink:href="#DejaVuSans-32"/>
     <use x="1939.078125" xlink:href="#DejaVuSans-85"/>
     <use x="2012.271484" xlink:href="#DejaVuSans-110"/>
     <use x="2075.650391" xlink:href="#DejaVuSans-105"/>
     <use x="2103.433594" xlink:href="#DejaVuSans-116"/>
     <use x="2142.642578" xlink:href="#DejaVuSans-115"/>
     <use x="2194.742188" xlink:href="#DejaVuSans-32"/>
     <use x="2226.529297" xlink:href="#DejaVuSans-64"/>
     <use x="2326.529297" xlink:href="#DejaVuSans-32"/>
     <use x="2358.316406" xlink:href="#DejaVuSans-48"/>
     <use x="2421.939453" xlink:href="#DejaVuSans-46"/>
     <use x="2453.726562" xlink:href="#DejaVuSans-50"/>
     <use x="2517.349609" xlink:href="#DejaVuSans-53"/>
    </g>
   </g>
   <g id="legend_1">
    <g id="patch_7">
     <path d="M 793.992187 493 
L 1021.4 493 
Q 1025.8 493 1025.8 488.6 
L 1025.8 426.21625 
Q 1025.8 421.81625 1021.4 421.81625 
L 793.992187 421.81625 
Q 789.592187 421.81625 789.592187 426.21625 
L 789.592187 488.6 
Q 789.592187 493 793.992187 493 
z
" style="fill:#ffffff;opacity:0.8;stroke:#cccccc;stroke-linejoin:miter;"/>
    </g>
    <g id="line2d_31">
     <path d="M 798.392187 439.632812 
L 842.392187 439.632812 
" style="fill:none;stroke:#1f1f1f;stroke-linecap:square;stroke-width:5;"/>
    </g>
    <g id="line2d_32"/>
    <g id="text_15">
     <!-- Ungated: 1.0 -->
     <g transform="translate(859.992187 447.332812)scale(0.22 -0.22)">
      <use xlink:href="#DejaVuSans-85"/>
      <use x="73.193359" xlink:href="#DejaVuSans-110"/>
      <use x="136.572266" xlink:href="#DejaVuSans-103"/>
      <use x="200.048828" xlink:href="#DejaVuSans-97"/>
      <use x="261.328125" xlink:href="#DejaVuSans-116"/>
      <use x="300.537109" xlink:href="#DejaVuSans-101"/>
      <use x="362.060547" xlink:href="#DejaVuSans-100"/>
      <use x="425.537109" xlink:href="#DejaVuSans-58"/>
      <use x="459.228516" xlink:href="#DejaVuSans-32"/>
      <use x="491.015625" xlink:href="#DejaVuSans-49"/>
      <use x="554.638672" xlink:href="#DejaVuSans-46"/>
      <use x="586.425781" xlink:href="#DejaVuSans-48"/>
     </g>
    </g>
    <g id="line2d_33">
     <path d="M 798.392187 471.924688 
L 842.392187 471.924688 
" style="fill:none;stroke:#ff9500;stroke-linecap:square;stroke-width:5;"/>
    </g>
    <g id="line2d_34"/>
    <g id="text_16">
     <!-- Ungated: 0.25 -->
     <g transform="translate(859.992187 479.624687)scale(0.22 -0.22)">
      <use xlink:href="#DejaVuSans-85"/>
      <use x="73.193359" xlink:href="#DejaVuSans-110"/>
      <use x="136.572266" xlink:href="#DejaVuSans-103"/>
      <use x="200.048828" xlink:href="#DejaVuSans-97"/>
      <use x="261.328125" xlink:href="#DejaVuSans-116"/>
      <use x="300.537109" xlink:href="#DejaVuSans-101"/>
      <use x="362.060547" xlink:href="#DejaVuSans-100"/>
      <use x="425.537109" xlink:href="#DejaVuSans-58"/>
      <use x="459.228516" xlink:href="#DejaVuSans-32"/>
      <use x="491.015625" xlink:href="#DejaVuSans-48"/>
      <use x="554.638672" xlink:href="#DejaVuSans-46"/>
      <use x="586.425781" xlink:href="#DejaVuSans-50"/>
      <use x="650.048828" xlink:href="#DejaVuSans-53"/>
     </g>
    </g>
   </g>
  </g>
 </g>
 <defs>
  <clipPath id="p1c80ec6d23">
   <rect height="434.88" width="892.8" x="144" y="69.12"/>
  </clipPath>
 </defs>
</svg>
