<?xml version="1.0" encoding="utf-8" standalone="no"?>
<!DOCTYPE svg PUBLIC "-//W3C//DTD SVG 1.1//EN"
  "http://www.w3.org/Graphics/SVG/1.1/DTD/svg11.dtd">
<!-- Created with matplotlib (https://matplotlib.org/) -->
<svg height="576pt" version="1.1" viewBox="0 0 1152 576" width="1152pt" xmlns="http://www.w3.org/2000/svg" xmlns:xlink="http://www.w3.org/1999/xlink">
 <metadata>
  <rdf:RDF xmlns:cc="http://creativecommons.org/ns#" xmlns:dc="http://purl.org/dc/elements/1.1/" xmlns:rdf="http://www.w3.org/1999/02/22-rdf-syntax-ns#">
   <cc:Work>
    <dc:type rdf:resource="http://purl.org/dc/dcmitype/StillImage"/>
    <dc:date>2021-09-12T21:32:59.376123</dc:date>
    <dc:format>image/svg+xml</dc:format>
    <dc:creator>
     <cc:Agent>
      <dc:title>Matplotlib v3.3.4, https://matplotlib.org/</dc:title>
     </cc:Agent>
    </dc:creator>
   </cc:Work>
  </rdf:RDF>
 </metadata>
 <defs>
  <style type="text/css">*{stroke-linecap:butt;stroke-linejoin:round;}</style>
 </defs>
 <g id="figure_1">
  <g id="patch_1">
   <path d="M 0 576 
L 1152 576 
L 1152 0 
L 0 0 
z
" style="fill:#ffffff;"/>
  </g>
  <g id="axes_1">
   <g id="patch_2">
    <path d="M 144 504 
L 1036.8 504 
L 1036.8 69.12 
L 144 69.12 
z
" style="fill:#ffffff;"/>
   </g>
   <g id="matplotlib.axis_1">
    <g id="xtick_1">
     <g id="line2d_1">
      <defs>
       <path d="M 0 0 
L 0 3.5 
" id="m36884417eb" style="stroke:#000000;stroke-width:0.8;"/>
      </defs>
      <g>
       <use style="stroke:#000000;stroke-width:0.8;" x="144" xlink:href="#m36884417eb" y="504"/>
      </g>
     </g>
     <g id="text_1">
      <!-- 84 -->
      <g transform="translate(128.73 529.23625)scale(0.24 -0.24)">
       <defs>
        <path d="M 31.78125 34.625 
Q 24.75 34.625 20.71875 30.859375 
Q 16.703125 27.09375 16.703125 20.515625 
Q 16.703125 13.921875 20.71875 10.15625 
Q 24.75 6.390625 31.78125 6.390625 
Q 38.8125 6.390625 42.859375 10.171875 
Q 46.921875 13.96875 46.921875 20.515625 
Q 46.921875 27.09375 42.890625 30.859375 
Q 38.875 34.625 31.78125 34.625 
z
M 21.921875 38.8125 
Q 15.578125 40.375 12.03125 44.71875 
Q 8.5 49.078125 8.5 55.328125 
Q 8.5 64.0625 14.71875 69.140625 
Q 20.953125 74.21875 31.78125 74.21875 
Q 42.671875 74.21875 48.875 69.140625 
Q 55.078125 64.0625 55.078125 55.328125 
Q 55.078125 49.078125 51.53125 44.71875 
Q 48 40.375 41.703125 38.8125 
Q 48.828125 37.15625 52.796875 32.3125 
Q 56.78125 27.484375 56.78125 20.515625 
Q 56.78125 9.90625 50.3125 4.234375 
Q 43.84375 -1.421875 31.78125 -1.421875 
Q 19.734375 -1.421875 13.25 4.234375 
Q 6.78125 9.90625 6.78125 20.515625 
Q 6.78125 27.484375 10.78125 32.3125 
Q 14.796875 37.15625 21.921875 38.8125 
z
M 18.3125 54.390625 
Q 18.3125 48.734375 21.84375 45.5625 
Q 25.390625 42.390625 31.78125 42.390625 
Q 38.140625 42.390625 41.71875 45.5625 
Q 45.3125 48.734375 45.3125 54.390625 
Q 45.3125 60.0625 41.71875 63.234375 
Q 38.140625 66.40625 31.78125 66.40625 
Q 25.390625 66.40625 21.84375 63.234375 
Q 18.3125 60.0625 18.3125 54.390625 
z
" id="DejaVuSans-56"/>
        <path d="M 37.796875 64.3125 
L 12.890625 25.390625 
L 37.796875 25.390625 
z
M 35.203125 72.90625 
L 47.609375 72.90625 
L 47.609375 25.390625 
L 58.015625 25.390625 
L 58.015625 17.1875 
L 47.609375 17.1875 
L 47.609375 0 
L 37.796875 0 
L 37.796875 17.1875 
L 4.890625 17.1875 
L 4.890625 26.703125 
z
" id="DejaVuSans-52"/>
       </defs>
       <use xlink:href="#DejaVuSans-56"/>
       <use x="63.623047" xlink:href="#DejaVuSans-52"/>
      </g>
     </g>
    </g>
    <g id="xtick_2">
     <g id="line2d_2">
      <g>
       <use style="stroke:#000000;stroke-width:0.8;" x="255.6" xlink:href="#m36884417eb" y="504"/>
      </g>
     </g>
     <g id="text_2">
      <!-- 86 -->
      <g transform="translate(240.33 529.23625)scale(0.24 -0.24)">
       <defs>
        <path d="M 33.015625 40.375 
Q 26.375 40.375 22.484375 35.828125 
Q 18.609375 31.296875 18.609375 23.390625 
Q 18.609375 15.53125 22.484375 10.953125 
Q 26.375 6.390625 33.015625 6.390625 
Q 39.65625 6.390625 43.53125 10.953125 
Q 47.40625 15.53125 47.40625 23.390625 
Q 47.40625 31.296875 43.53125 35.828125 
Q 39.65625 40.375 33.015625 40.375 
z
M 52.59375 71.296875 
L 52.59375 62.3125 
Q 48.875 64.0625 45.09375 64.984375 
Q 41.3125 65.921875 37.59375 65.921875 
Q 27.828125 65.921875 22.671875 59.328125 
Q 17.53125 52.734375 16.796875 39.40625 
Q 19.671875 43.65625 24.015625 45.921875 
Q 28.375 48.1875 33.59375 48.1875 
Q 44.578125 48.1875 50.953125 41.515625 
Q 57.328125 34.859375 57.328125 23.390625 
Q 57.328125 12.15625 50.6875 5.359375 
Q 44.046875 -1.421875 33.015625 -1.421875 
Q 20.359375 -1.421875 13.671875 8.265625 
Q 6.984375 17.96875 6.984375 36.375 
Q 6.984375 53.65625 15.1875 63.9375 
Q 23.390625 74.21875 37.203125 74.21875 
Q 40.921875 74.21875 44.703125 73.484375 
Q 48.484375 72.75 52.59375 71.296875 
z
" id="DejaVuSans-54"/>
       </defs>
       <use xlink:href="#DejaVuSans-56"/>
       <use x="63.623047" xlink:href="#DejaVuSans-54"/>
      </g>
     </g>
    </g>
    <g id="xtick_3">
     <g id="line2d_3">
      <g>
       <use style="stroke:#000000;stroke-width:0.8;" x="367.2" xlink:href="#m36884417eb" y="504"/>
      </g>
     </g>
     <g id="text_3">
      <!-- 88 -->
      <g transform="translate(351.93 529.23625)scale(0.24 -0.24)">
       <use xlink:href="#DejaVuSans-56"/>
       <use x="63.623047" xlink:href="#DejaVuSans-56"/>
      </g>
     </g>
    </g>
    <g id="xtick_4">
     <g id="line2d_4">
      <g>
       <use style="stroke:#000000;stroke-width:0.8;" x="478.8" xlink:href="#m36884417eb" y="504"/>
      </g>
     </g>
     <g id="text_4">
      <!-- 90 -->
      <g transform="translate(463.53 529.23625)scale(0.24 -0.24)">
       <defs>
        <path d="M 10.984375 1.515625 
L 10.984375 10.5 
Q 14.703125 8.734375 18.5 7.8125 
Q 22.3125 6.890625 25.984375 6.890625 
Q 35.75 6.890625 40.890625 13.453125 
Q 46.046875 20.015625 46.78125 33.40625 
Q 43.953125 29.203125 39.59375 26.953125 
Q 35.25 24.703125 29.984375 24.703125 
Q 19.046875 24.703125 12.671875 31.3125 
Q 6.296875 37.9375 6.296875 49.421875 
Q 6.296875 60.640625 12.9375 67.421875 
Q 19.578125 74.21875 30.609375 74.21875 
Q 43.265625 74.21875 49.921875 64.515625 
Q 56.59375 54.828125 56.59375 36.375 
Q 56.59375 19.140625 48.40625 8.859375 
Q 40.234375 -1.421875 26.421875 -1.421875 
Q 22.703125 -1.421875 18.890625 -0.6875 
Q 15.09375 0.046875 10.984375 1.515625 
z
M 30.609375 32.421875 
Q 37.25 32.421875 41.125 36.953125 
Q 45.015625 41.5 45.015625 49.421875 
Q 45.015625 57.28125 41.125 61.84375 
Q 37.25 66.40625 30.609375 66.40625 
Q 23.96875 66.40625 20.09375 61.84375 
Q 16.21875 57.28125 16.21875 49.421875 
Q 16.21875 41.5 20.09375 36.953125 
Q 23.96875 32.421875 30.609375 32.421875 
z
" id="DejaVuSans-57"/>
        <path d="M 31.78125 66.40625 
Q 24.171875 66.40625 20.328125 58.90625 
Q 16.5 51.421875 16.5 36.375 
Q 16.5 21.390625 20.328125 13.890625 
Q 24.171875 6.390625 31.78125 6.390625 
Q 39.453125 6.390625 43.28125 13.890625 
Q 47.125 21.390625 47.125 36.375 
Q 47.125 51.421875 43.28125 58.90625 
Q 39.453125 66.40625 31.78125 66.40625 
z
M 31.78125 74.21875 
Q 44.046875 74.21875 50.515625 64.515625 
Q 56.984375 54.828125 56.984375 36.375 
Q 56.984375 17.96875 50.515625 8.265625 
Q 44.046875 -1.421875 31.78125 -1.421875 
Q 19.53125 -1.421875 13.0625 8.265625 
Q 6.59375 17.96875 6.59375 36.375 
Q 6.59375 54.828125 13.0625 64.515625 
Q 19.53125 74.21875 31.78125 74.21875 
z
" id="DejaVuSans-48"/>
       </defs>
       <use xlink:href="#DejaVuSans-57"/>
       <use x="63.623047" xlink:href="#DejaVuSans-48"/>
      </g>
     </g>
    </g>
    <g id="xtick_5">
     <g id="line2d_5">
      <g>
       <use style="stroke:#000000;stroke-width:0.8;" x="590.4" xlink:href="#m36884417eb" y="504"/>
      </g>
     </g>
     <g id="text_5">
      <!-- 92 -->
      <g transform="translate(575.13 529.23625)scale(0.24 -0.24)">
       <defs>
        <path d="M 19.1875 8.296875 
L 53.609375 8.296875 
L 53.609375 0 
L 7.328125 0 
L 7.328125 8.296875 
Q 12.9375 14.109375 22.625 23.890625 
Q 32.328125 33.6875 34.8125 36.53125 
Q 39.546875 41.84375 41.421875 45.53125 
Q 43.3125 49.21875 43.3125 52.78125 
Q 43.3125 58.59375 39.234375 62.25 
Q 35.15625 65.921875 28.609375 65.921875 
Q 23.96875 65.921875 18.8125 64.3125 
Q 13.671875 62.703125 7.8125 59.421875 
L 7.8125 69.390625 
Q 13.765625 71.78125 18.9375 73 
Q 24.125 74.21875 28.421875 74.21875 
Q 39.75 74.21875 46.484375 68.546875 
Q 53.21875 62.890625 53.21875 53.421875 
Q 53.21875 48.921875 51.53125 44.890625 
Q 49.859375 40.875 45.40625 35.40625 
Q 44.1875 33.984375 37.640625 27.21875 
Q 31.109375 20.453125 19.1875 8.296875 
z
" id="DejaVuSans-50"/>
       </defs>
       <use xlink:href="#DejaVuSans-57"/>
       <use x="63.623047" xlink:href="#DejaVuSans-50"/>
      </g>
     </g>
    </g>
    <g id="xtick_6">
     <g id="line2d_6">
      <g>
       <use style="stroke:#000000;stroke-width:0.8;" x="702" xlink:href="#m36884417eb" y="504"/>
      </g>
     </g>
     <g id="text_6">
      <!-- 94 -->
      <g transform="translate(686.73 529.23625)scale(0.24 -0.24)">
       <use xlink:href="#DejaVuSans-57"/>
       <use x="63.623047" xlink:href="#DejaVuSans-52"/>
      </g>
     </g>
    </g>
    <g id="xtick_7">
     <g id="line2d_7">
      <g>
       <use style="stroke:#000000;stroke-width:0.8;" x="813.6" xlink:href="#m36884417eb" y="504"/>
      </g>
     </g>
     <g id="text_7">
      <!-- 96 -->
      <g transform="translate(798.33 529.23625)scale(0.24 -0.24)">
       <use xlink:href="#DejaVuSans-57"/>
       <use x="63.623047" xlink:href="#DejaVuSans-54"/>
      </g>
     </g>
    </g>
    <g id="xtick_8">
     <g id="line2d_8">
      <g>
       <use style="stroke:#000000;stroke-width:0.8;" x="925.2" xlink:href="#m36884417eb" y="504"/>
      </g>
     </g>
     <g id="text_8">
      <!-- 98 -->
      <g transform="translate(909.93 529.23625)scale(0.24 -0.24)">
       <use xlink:href="#DejaVuSans-57"/>
       <use x="63.623047" xlink:href="#DejaVuSans-56"/>
      </g>
     </g>
    </g>
    <g id="xtick_9">
     <g id="line2d_9">
      <g>
       <use style="stroke:#000000;stroke-width:0.8;" x="1036.8" xlink:href="#m36884417eb" y="504"/>
      </g>
     </g>
     <g id="text_9">
      <!-- 100 -->
      <g transform="translate(1013.895 529.23625)scale(0.24 -0.24)">
       <defs>
        <path d="M 12.40625 8.296875 
L 28.515625 8.296875 
L 28.515625 63.921875 
L 10.984375 60.40625 
L 10.984375 69.390625 
L 28.421875 72.90625 
L 38.28125 72.90625 
L 38.28125 8.296875 
L 54.390625 8.296875 
L 54.390625 0 
L 12.40625 0 
z
" id="DejaVuSans-49"/>
       </defs>
       <use xlink:href="#DejaVuSans-49"/>
       <use x="63.623047" xlink:href="#DejaVuSans-48"/>
       <use x="127.246094" xlink:href="#DejaVuSans-48"/>
      </g>
     </g>
    </g>
    <g id="text_10">
     <!-- Accuracy /% -->
     <g transform="translate(504.013437 559.503125)scale(0.28 -0.28)">
      <defs>
       <path d="M 34.1875 63.1875 
L 20.796875 26.90625 
L 47.609375 26.90625 
z
M 28.609375 72.90625 
L 39.796875 72.90625 
L 67.578125 0 
L 57.328125 0 
L 50.6875 18.703125 
L 17.828125 18.703125 
L 11.1875 0 
L 0.78125 0 
z
" id="DejaVuSans-65"/>
       <path d="M 48.78125 52.59375 
L 48.78125 44.1875 
Q 44.96875 46.296875 41.140625 47.34375 
Q 37.3125 48.390625 33.40625 48.390625 
Q 24.65625 48.390625 19.8125 42.84375 
Q 14.984375 37.3125 14.984375 27.296875 
Q 14.984375 17.28125 19.8125 11.734375 
Q 24.65625 6.203125 33.40625 6.203125 
Q 37.3125 6.203125 41.140625 7.25 
Q 44.96875 8.296875 48.78125 10.40625 
L 48.78125 2.09375 
Q 45.015625 0.34375 40.984375 -0.53125 
Q 36.96875 -1.421875 32.421875 -1.421875 
Q 20.0625 -1.421875 12.78125 6.34375 
Q 5.515625 14.109375 5.515625 27.296875 
Q 5.515625 40.671875 12.859375 48.328125 
Q 20.21875 56 33.015625 56 
Q 37.15625 56 41.109375 55.140625 
Q 45.0625 54.296875 48.78125 52.59375 
z
" id="DejaVuSans-99"/>
       <path d="M 8.5 21.578125 
L 8.5 54.6875 
L 17.484375 54.6875 
L 17.484375 21.921875 
Q 17.484375 14.15625 20.5 10.265625 
Q 23.53125 6.390625 29.59375 6.390625 
Q 36.859375 6.390625 41.078125 11.03125 
Q 45.3125 15.671875 45.3125 23.6875 
L 45.3125 54.6875 
L 54.296875 54.6875 
L 54.296875 0 
L 45.3125 0 
L 45.3125 8.40625 
Q 42.046875 3.421875 37.71875 1 
Q 33.40625 -1.421875 27.6875 -1.421875 
Q 18.265625 -1.421875 13.375 4.4375 
Q 8.5 10.296875 8.5 21.578125 
z
M 31.109375 56 
z
" id="DejaVuSans-117"/>
       <path d="M 41.109375 46.296875 
Q 39.59375 47.171875 37.8125 47.578125 
Q 36.03125 48 33.890625 48 
Q 26.265625 48 22.1875 43.046875 
Q 18.109375 38.09375 18.109375 28.8125 
L 18.109375 0 
L 9.078125 0 
L 9.078125 54.6875 
L 18.109375 54.6875 
L 18.109375 46.1875 
Q 20.953125 51.171875 25.484375 53.578125 
Q 30.03125 56 36.53125 56 
Q 37.453125 56 38.578125 55.875 
Q 39.703125 55.765625 41.0625 55.515625 
z
" id="DejaVuSans-114"/>
       <path d="M 34.28125 27.484375 
Q 23.390625 27.484375 19.1875 25 
Q 14.984375 22.515625 14.984375 16.5 
Q 14.984375 11.71875 18.140625 8.90625 
Q 21.296875 6.109375 26.703125 6.109375 
Q 34.1875 6.109375 38.703125 11.40625 
Q 43.21875 16.703125 43.21875 25.484375 
L 43.21875 27.484375 
z
M 52.203125 31.203125 
L 52.203125 0 
L 43.21875 0 
L 43.21875 8.296875 
Q 40.140625 3.328125 35.546875 0.953125 
Q 30.953125 -1.421875 24.3125 -1.421875 
Q 15.921875 -1.421875 10.953125 3.296875 
Q 6 8.015625 6 15.921875 
Q 6 25.140625 12.171875 29.828125 
Q 18.359375 34.515625 30.609375 34.515625 
L 43.21875 34.515625 
L 43.21875 35.40625 
Q 43.21875 41.609375 39.140625 45 
Q 35.0625 48.390625 27.6875 48.390625 
Q 23 48.390625 18.546875 47.265625 
Q 14.109375 46.140625 10.015625 43.890625 
L 10.015625 52.203125 
Q 14.9375 54.109375 19.578125 55.046875 
Q 24.21875 56 28.609375 56 
Q 40.484375 56 46.34375 49.84375 
Q 52.203125 43.703125 52.203125 31.203125 
z
" id="DejaVuSans-97"/>
       <path d="M 32.171875 -5.078125 
Q 28.375 -14.84375 24.75 -17.8125 
Q 21.140625 -20.796875 15.09375 -20.796875 
L 7.90625 -20.796875 
L 7.90625 -13.28125 
L 13.1875 -13.28125 
Q 16.890625 -13.28125 18.9375 -11.515625 
Q 21 -9.765625 23.484375 -3.21875 
L 25.09375 0.875 
L 2.984375 54.6875 
L 12.5 54.6875 
L 29.59375 11.921875 
L 46.6875 54.6875 
L 56.203125 54.6875 
z
" id="DejaVuSans-121"/>
       <path id="DejaVuSans-32"/>
       <path d="M 25.390625 72.90625 
L 33.6875 72.90625 
L 8.296875 -9.28125 
L 0 -9.28125 
z
" id="DejaVuSans-47"/>
       <path d="M 72.703125 32.078125 
Q 68.453125 32.078125 66.03125 28.46875 
Q 63.625 24.859375 63.625 18.40625 
Q 63.625 12.0625 66.03125 8.421875 
Q 68.453125 4.78125 72.703125 4.78125 
Q 76.859375 4.78125 79.265625 8.421875 
Q 81.6875 12.0625 81.6875 18.40625 
Q 81.6875 24.8125 79.265625 28.4375 
Q 76.859375 32.078125 72.703125 32.078125 
z
M 72.703125 38.28125 
Q 80.421875 38.28125 84.953125 32.90625 
Q 89.5 27.546875 89.5 18.40625 
Q 89.5 9.28125 84.9375 3.921875 
Q 80.375 -1.421875 72.703125 -1.421875 
Q 64.890625 -1.421875 60.34375 3.921875 
Q 55.8125 9.28125 55.8125 18.40625 
Q 55.8125 27.59375 60.375 32.9375 
Q 64.9375 38.28125 72.703125 38.28125 
z
M 22.3125 68.015625 
Q 18.109375 68.015625 15.6875 64.375 
Q 13.28125 60.75 13.28125 54.390625 
Q 13.28125 47.953125 15.671875 44.328125 
Q 18.0625 40.71875 22.3125 40.71875 
Q 26.5625 40.71875 28.96875 44.328125 
Q 31.390625 47.953125 31.390625 54.390625 
Q 31.390625 60.6875 28.953125 64.34375 
Q 26.515625 68.015625 22.3125 68.015625 
z
M 66.40625 74.21875 
L 74.21875 74.21875 
L 28.609375 -1.421875 
L 20.796875 -1.421875 
z
M 22.3125 74.21875 
Q 30.03125 74.21875 34.609375 68.875 
Q 39.203125 63.53125 39.203125 54.390625 
Q 39.203125 45.171875 34.640625 39.84375 
Q 30.078125 34.515625 22.3125 34.515625 
Q 14.546875 34.515625 10.03125 39.859375 
Q 5.515625 45.21875 5.515625 54.390625 
Q 5.515625 63.484375 10.046875 68.84375 
Q 14.59375 74.21875 22.3125 74.21875 
z
" id="DejaVuSans-37"/>
      </defs>
      <use xlink:href="#DejaVuSans-65"/>
      <use x="66.658203" xlink:href="#DejaVuSans-99"/>
      <use x="121.638672" xlink:href="#DejaVuSans-99"/>
      <use x="176.619141" xlink:href="#DejaVuSans-117"/>
      <use x="239.998047" xlink:href="#DejaVuSans-114"/>
      <use x="281.111328" xlink:href="#DejaVuSans-97"/>
      <use x="342.390625" xlink:href="#DejaVuSans-99"/>
      <use x="397.371094" xlink:href="#DejaVuSans-121"/>
      <use x="456.550781" xlink:href="#DejaVuSans-32"/>
      <use x="488.337891" xlink:href="#DejaVuSans-47"/>
      <use x="522.029297" xlink:href="#DejaVuSans-37"/>
     </g>
    </g>
   </g>
   <g id="matplotlib.axis_2">
    <g id="ytick_1">
     <g id="line2d_10">
      <defs>
       <path d="M 0 0 
L -3.5 0 
" id="m434d74cc5f" style="stroke:#000000;stroke-width:0.8;"/>
      </defs>
      <g>
       <use style="stroke:#000000;stroke-width:0.8;" x="144" xlink:href="#m434d74cc5f" y="359.04"/>
      </g>
     </g>
     <g id="text_11">
      <!-- $\mathdefault{10^{4}}$ -->
      <g transform="translate(94.76 368.158125)scale(0.24 -0.24)">
       <use transform="translate(0 0.684375)" xlink:href="#DejaVuSans-49"/>
       <use transform="translate(63.623047 0.684375)" xlink:href="#DejaVuSans-48"/>
       <use transform="translate(128.203125 38.965625)scale(0.7)" xlink:href="#DejaVuSans-52"/>
      </g>
     </g>
    </g>
    <g id="ytick_2">
     <g id="line2d_11">
      <g>
       <use style="stroke:#000000;stroke-width:0.8;" x="144" xlink:href="#m434d74cc5f" y="151.649126"/>
      </g>
     </g>
     <g id="text_12">
      <!-- $\mathdefault{10^{5}}$ -->
      <g transform="translate(94.76 160.767251)scale(0.24 -0.24)">
       <defs>
        <path d="M 10.796875 72.90625 
L 49.515625 72.90625 
L 49.515625 64.59375 
L 19.828125 64.59375 
L 19.828125 46.734375 
Q 21.96875 47.46875 24.109375 47.828125 
Q 26.265625 48.1875 28.421875 48.1875 
Q 40.625 48.1875 47.75 41.5 
Q 54.890625 34.8125 54.890625 23.390625 
Q 54.890625 11.625 47.5625 5.09375 
Q 40.234375 -1.421875 26.90625 -1.421875 
Q 22.3125 -1.421875 17.546875 -0.640625 
Q 12.796875 0.140625 7.71875 1.703125 
L 7.71875 11.625 
Q 12.109375 9.234375 16.796875 8.0625 
Q 21.484375 6.890625 26.703125 6.890625 
Q 35.15625 6.890625 40.078125 11.328125 
Q 45.015625 15.765625 45.015625 23.390625 
Q 45.015625 31 40.078125 35.4375 
Q 35.15625 39.890625 26.703125 39.890625 
Q 22.75 39.890625 18.8125 39.015625 
Q 14.890625 38.140625 10.796875 36.28125 
z
" id="DejaVuSans-53"/>
       </defs>
       <use transform="translate(0 0.684375)" xlink:href="#DejaVuSans-49"/>
       <use transform="translate(63.623047 0.684375)" xlink:href="#DejaVuSans-48"/>
       <use transform="translate(128.203125 38.965625)scale(0.7)" xlink:href="#DejaVuSans-53"/>
      </g>
     </g>
    </g>
    <g id="ytick_3">
     <g id="line2d_12">
      <defs>
       <path d="M 0 0 
L -2 0 
" id="md4d87b1f63" style="stroke:#000000;stroke-width:0.6;"/>
      </defs>
      <g>
       <use style="stroke:#000000;stroke-width:0.6;" x="144" xlink:href="#md4d87b1f63" y="504"/>
      </g>
     </g>
    </g>
    <g id="ytick_4">
     <g id="line2d_13">
      <g>
       <use style="stroke:#000000;stroke-width:0.6;" x="144" xlink:href="#md4d87b1f63" y="467.48028"/>
      </g>
     </g>
    </g>
    <g id="ytick_5">
     <g id="line2d_14">
      <g>
       <use style="stroke:#000000;stroke-width:0.6;" x="144" xlink:href="#md4d87b1f63" y="441.569126"/>
      </g>
     </g>
    </g>
    <g id="ytick_6">
     <g id="line2d_15">
      <g>
       <use style="stroke:#000000;stroke-width:0.6;" x="144" xlink:href="#md4d87b1f63" y="421.470874"/>
      </g>
     </g>
    </g>
    <g id="ytick_7">
     <g id="line2d_16">
      <g>
       <use style="stroke:#000000;stroke-width:0.6;" x="144" xlink:href="#md4d87b1f63" y="405.049406"/>
      </g>
     </g>
    </g>
    <g id="ytick_8">
     <g id="line2d_17">
      <g>
       <use style="stroke:#000000;stroke-width:0.6;" x="144" xlink:href="#md4d87b1f63" y="391.165253"/>
      </g>
     </g>
    </g>
    <g id="ytick_9">
     <g id="line2d_18">
      <g>
       <use style="stroke:#000000;stroke-width:0.6;" x="144" xlink:href="#md4d87b1f63" y="379.138252"/>
      </g>
     </g>
    </g>
    <g id="ytick_10">
     <g id="line2d_19">
      <g>
       <use style="stroke:#000000;stroke-width:0.6;" x="144" xlink:href="#md4d87b1f63" y="368.529686"/>
      </g>
     </g>
    </g>
    <g id="ytick_11">
     <g id="line2d_20">
      <g>
       <use style="stroke:#000000;stroke-width:0.6;" x="144" xlink:href="#md4d87b1f63" y="296.609126"/>
      </g>
     </g>
    </g>
    <g id="ytick_12">
     <g id="line2d_21">
      <g>
       <use style="stroke:#000000;stroke-width:0.6;" x="144" xlink:href="#md4d87b1f63" y="260.089406"/>
      </g>
     </g>
    </g>
    <g id="ytick_13">
     <g id="line2d_22">
      <g>
       <use style="stroke:#000000;stroke-width:0.6;" x="144" xlink:href="#md4d87b1f63" y="234.178252"/>
      </g>
     </g>
    </g>
    <g id="ytick_14">
     <g id="line2d_23">
      <g>
       <use style="stroke:#000000;stroke-width:0.6;" x="144" xlink:href="#md4d87b1f63" y="214.08"/>
      </g>
     </g>
    </g>
    <g id="ytick_15">
     <g id="line2d_24">
      <g>
       <use style="stroke:#000000;stroke-width:0.6;" x="144" xlink:href="#md4d87b1f63" y="197.658532"/>
      </g>
     </g>
    </g>
    <g id="ytick_16">
     <g id="line2d_25">
      <g>
       <use style="stroke:#000000;stroke-width:0.6;" x="144" xlink:href="#md4d87b1f63" y="183.774379"/>
      </g>
     </g>
    </g>
    <g id="ytick_17">
     <g id="line2d_26">
      <g>
       <use style="stroke:#000000;stroke-width:0.6;" x="144" xlink:href="#md4d87b1f63" y="171.747378"/>
      </g>
     </g>
    </g>
    <g id="ytick_18">
     <g id="line2d_27">
      <g>
       <use style="stroke:#000000;stroke-width:0.6;" x="144" xlink:href="#md4d87b1f63" y="161.138812"/>
      </g>
     </g>
    </g>
    <g id="ytick_19">
     <g id="line2d_28">
      <g>
       <use style="stroke:#000000;stroke-width:0.6;" x="144" xlink:href="#md4d87b1f63" y="89.218252"/>
      </g>
     </g>
    </g>
    <g id="text_13">
     <!-- Energy /A.U. -->
     <g transform="translate(84.936875 373.22)rotate(-90)scale(0.28 -0.28)">
      <defs>
       <path d="M 9.8125 72.90625 
L 55.90625 72.90625 
L 55.90625 64.59375 
L 19.671875 64.59375 
L 19.671875 43.015625 
L 54.390625 43.015625 
L 54.390625 34.71875 
L 19.671875 34.71875 
L 19.671875 8.296875 
L 56.78125 8.296875 
L 56.78125 0 
L 9.8125 0 
z
" id="DejaVuSans-69"/>
       <path d="M 54.890625 33.015625 
L 54.890625 0 
L 45.90625 0 
L 45.90625 32.71875 
Q 45.90625 40.484375 42.875 44.328125 
Q 39.84375 48.1875 33.796875 48.1875 
Q 26.515625 48.1875 22.3125 43.546875 
Q 18.109375 38.921875 18.109375 30.90625 
L 18.109375 0 
L 9.078125 0 
L 9.078125 54.6875 
L 18.109375 54.6875 
L 18.109375 46.1875 
Q 21.34375 51.125 25.703125 53.5625 
Q 30.078125 56 35.796875 56 
Q 45.21875 56 50.046875 50.171875 
Q 54.890625 44.34375 54.890625 33.015625 
z
" id="DejaVuSans-110"/>
       <path d="M 56.203125 29.59375 
L 56.203125 25.203125 
L 14.890625 25.203125 
Q 15.484375 15.921875 20.484375 11.0625 
Q 25.484375 6.203125 34.421875 6.203125 
Q 39.59375 6.203125 44.453125 7.46875 
Q 49.3125 8.734375 54.109375 11.28125 
L 54.109375 2.78125 
Q 49.265625 0.734375 44.1875 -0.34375 
Q 39.109375 -1.421875 33.890625 -1.421875 
Q 20.796875 -1.421875 13.15625 6.1875 
Q 5.515625 13.8125 5.515625 26.8125 
Q 5.515625 40.234375 12.765625 48.109375 
Q 20.015625 56 32.328125 56 
Q 43.359375 56 49.78125 48.890625 
Q 56.203125 41.796875 56.203125 29.59375 
z
M 47.21875 32.234375 
Q 47.125 39.59375 43.09375 43.984375 
Q 39.0625 48.390625 32.421875 48.390625 
Q 24.90625 48.390625 20.390625 44.140625 
Q 15.875 39.890625 15.1875 32.171875 
z
" id="DejaVuSans-101"/>
       <path d="M 45.40625 27.984375 
Q 45.40625 37.75 41.375 43.109375 
Q 37.359375 48.484375 30.078125 48.484375 
Q 22.859375 48.484375 18.828125 43.109375 
Q 14.796875 37.75 14.796875 27.984375 
Q 14.796875 18.265625 18.828125 12.890625 
Q 22.859375 7.515625 30.078125 7.515625 
Q 37.359375 7.515625 41.375 12.890625 
Q 45.40625 18.265625 45.40625 27.984375 
z
M 54.390625 6.78125 
Q 54.390625 -7.171875 48.1875 -13.984375 
Q 42 -20.796875 29.203125 -20.796875 
Q 24.46875 -20.796875 20.265625 -20.09375 
Q 16.0625 -19.390625 12.109375 -17.921875 
L 12.109375 -9.1875 
Q 16.0625 -11.328125 19.921875 -12.34375 
Q 23.78125 -13.375 27.78125 -13.375 
Q 36.625 -13.375 41.015625 -8.765625 
Q 45.40625 -4.15625 45.40625 5.171875 
L 45.40625 9.625 
Q 42.625 4.78125 38.28125 2.390625 
Q 33.9375 0 27.875 0 
Q 17.828125 0 11.671875 7.65625 
Q 5.515625 15.328125 5.515625 27.984375 
Q 5.515625 40.671875 11.671875 48.328125 
Q 17.828125 56 27.875 56 
Q 33.9375 56 38.28125 53.609375 
Q 42.625 51.21875 45.40625 46.390625 
L 45.40625 54.6875 
L 54.390625 54.6875 
z
" id="DejaVuSans-103"/>
       <path d="M 10.6875 12.40625 
L 21 12.40625 
L 21 0 
L 10.6875 0 
z
" id="DejaVuSans-46"/>
       <path d="M 8.6875 72.90625 
L 18.609375 72.90625 
L 18.609375 28.609375 
Q 18.609375 16.890625 22.84375 11.734375 
Q 27.09375 6.59375 36.625 6.59375 
Q 46.09375 6.59375 50.34375 11.734375 
Q 54.59375 16.890625 54.59375 28.609375 
L 54.59375 72.90625 
L 64.5 72.90625 
L 64.5 27.390625 
Q 64.5 13.140625 57.4375 5.859375 
Q 50.390625 -1.421875 36.625 -1.421875 
Q 22.796875 -1.421875 15.734375 5.859375 
Q 8.6875 13.140625 8.6875 27.390625 
z
" id="DejaVuSans-85"/>
      </defs>
      <use xlink:href="#DejaVuSans-69"/>
      <use x="63.183594" xlink:href="#DejaVuSans-110"/>
      <use x="126.5625" xlink:href="#DejaVuSans-101"/>
      <use x="188.085938" xlink:href="#DejaVuSans-114"/>
      <use x="227.449219" xlink:href="#DejaVuSans-103"/>
      <use x="290.925781" xlink:href="#DejaVuSans-121"/>
      <use x="350.105469" xlink:href="#DejaVuSans-32"/>
      <use x="381.892578" xlink:href="#DejaVuSans-47"/>
      <use x="415.583984" xlink:href="#DejaVuSans-65"/>
      <use x="482.242188" xlink:href="#DejaVuSans-46"/>
      <use x="514.029297" xlink:href="#DejaVuSans-85"/>
      <use x="587.222656" xlink:href="#DejaVuSans-46"/>
     </g>
    </g>
   </g>
   <g id="line2d_29">
    <path clip-path="url(#pd929b42d6d)" d="M 191.43 457.540092 
L 340.416 402.680118 
L 456.48 372.173517 
L 496.656 351.24472 
L 508.932 335.028081 
L 525.114 322.05274 
L 559.71 310.899634 
L 577.566 301.434228 
L 588.726 292.923138 
L 593.19 285.417501 
L 613.278 278.257013 
L 616.626 272.188764 
L 632.25 266.455294 
L 635.04 261.343031 
L 642.294 256.580502 
L 660.708 252.296879 
L 644.526 248.1271 
L 665.73 244.208174 
L 662.94 240.388066 
L 682.47 237.038524 
L 687.492 233.716038 
L 690.84 230.39958 
L 700.326 227.439795 
L 703.674 224.650205 
L 715.392 222.030932 
L 718.182 219.47791 
L 723.204 216.901254 
L 718.74 214.529756 
L 729.9 212.243365 
L 734.922 210.048385 
L 724.878 207.792026 
L 734.364 205.753445 
L 752.778 203.886831 
L 745.524 201.930944 
L 754.452 200.07216 
L 768.96 198.24181 
L 761.706 196.510908 
L 772.308 194.945453 
L 772.866 193.254168 
L 777.888 191.61447 
L 773.982 190.140086 
L 783.468 188.63722 
L 780.678 187.260386 
L 777.33 185.911069 
L 790.722 184.474314 
L 791.28 183.123751 
L 800.766 181.758284 
L 805.788 180.467694 
L 799.092 179.232269 
L 806.346 177.989638 
L 800.208 176.828831 
L 806.346 175.68382 
L 802.998 174.553675 
L 812.484 173.446102 
L 817.506 172.32842 
L 810.252 171.170282 
L 820.296 170.139925 
L 823.086 169.158983 
L 822.528 168.080742 
L 832.014 167.066916 
L 825.318 166.12492 
L 836.478 164.266958 
L 833.13 163.326694 
L 832.572 162.422976 
L 840.384 161.5382 
L 835.92 160.65247 
L 844.29 159.769908 
L 839.268 158.911081 
L 842.058 158.107768 
L 838.71 157.273178 
L 843.732 156.462072 
L 847.638 155.632079 
L 848.196 154.853107 
L 853.776 154.070124 
L 848.754 153.300461 
L 845.964 152.614006 
L 848.196 151.864413 
L 855.45 151.169879 
L 846.522 150.47798 
L 857.682 149.731363 
L 854.334 149.05285 
L 858.798 148.338975 
L 858.24 147.630876 
L 855.45 146.995929 
L 859.914 146.295149 
L 864.936 145.677375 
L 860.472 144.978929 
L 857.124 143.749505 
L 862.704 143.11055 
L 862.146 142.507191 
L 863.262 141.885627 
L 872.19 141.278307 
L 867.726 140.695003 
L 872.748 140.084109 
L 871.632 139.513614 
L 877.212 138.966566 
L 863.82 138.394665 
L 878.328 137.844185 
L 869.4 137.308769 
L 871.632 136.767476 
L 869.4 136.218249 
L 878.328 135.632761 
L 879.444 135.12925 
L 882.234 134.618925 
L 877.77 134.094526 
L 871.074 133.545733 
L 876.654 133.056271 
L 875.538 132.540497 
L 882.792 132.019789 
L 880.002 131.53789 
L 872.19 131.054408 
L 883.35 130.564457 
L 878.328 130.092106 
L 883.908 129.590181 
L 883.908 129.140541 
L 882.234 128.654383 
L 887.256 128.221412 
L 880.002 127.780037 
L 887.814 127.313534 
L 890.046 126.850505 
L 886.698 126.425584 
L 888.372 125.961494 
L 885.582 125.515753 
L 890.604 125.082682 
L 887.814 124.658223 
L 898.416 123.836438 
L 891.72 123.425327 
L 897.3 123.017224 
L 898.416 122.231209 
L 888.372 121.836077 
L 898.974 121.432847 
L 894.51 121.051103 
L 895.626 120.661168 
L 892.278 120.266908 
L 895.626 119.87528 
L 891.162 119.497013 
L 891.72 119.124546 
L 898.416 118.750103 
L 899.532 118.367387 
L 898.974 117.995053 
L 899.532 117.652724 
L 902.322 117.258523 
L 901.206 116.970155 
L 898.974 116.595407 
L 890.604 115.899689 
L 902.88 115.544583 
L 903.438 115.161155 
L 904.554 114.76532 
L 907.902 114.432004 
L 907.344 114.117182 
L 903.996 113.795178 
L 904.554 113.470382 
L 902.322 113.141333 
L 902.322 112.802577 
L 898.974 112.468269 
L 904.554 112.14805 
L 895.626 111.796416 
L 909.576 111.448779 
L 896.742 110.836627 
L 902.322 110.529181 
L 903.996 110.229669 
L 903.438 109.933023 
L 907.344 109.333766 
L 904.554 109.056662 
L 904.554 108.768792 
L 911.808 108.145416 
L 905.112 107.824262 
L 905.67 107.522286 
L 909.018 107.230051 
L 907.902 106.980251 
L 910.134 106.700771 
L 910.692 106.40575 
L 910.134 106.121771 
L 910.692 105.845114 
L 902.322 105.553377 
L 910.134 105.284125 
L 913.482 105.01157 
L 907.344 104.725579 
L 909.018 104.472825 
L 912.366 104.232377 
L 907.902 103.916196 
L 913.482 103.661821 
L 909.576 103.386354 
L 916.272 103.12667 
L 909.018 102.63877 
L 909.018 102.38976 
L 912.924 102.126017 
L 912.366 101.8725 
L 909.018 101.59082 
L 904.554 101.343734 
L 910.134 101.061316 
L 911.808 100.8298 
L 912.366 100.561073 
L 913.482 100.321368 
L 910.134 100.08264 
L 916.83 99.86634 
L 913.482 99.394432 
L 910.134 99.158298 
L 917.388 98.897828 
L 912.924 98.643546 
L 914.598 98.399347 
L 907.344 98.162352 
L 913.482 97.935941 
L 914.04 97.699123 
L 918.504 97.462643 
L 914.598 97.012642 
L 915.714 96.784227 
L 915.156 96.560491 
L 915.714 96.33185 
L 912.924 96.120187 
L 917.388 95.702027 
L 917.388 95.48836 
L 916.83 95.288764 
L 920.736 95.043891 
L 917.388 94.829523 
L 924.642 94.403756 
L 921.294 94.198067 
L 920.178 93.990987 
L 914.598 93.798245 
L 917.388 93.384215 
L 920.736 93.19416 
L 919.62 92.970928 
L 914.598 92.544384 
L 912.924 92.338497 
L 917.388 92.13268 
L 917.946 91.950708 
L 920.178 91.747056 
L 915.156 91.364543 
L 916.83 91.177275 
L 923.526 90.809692 
L 920.178 90.385948 
L 916.83 90.205564 
L 916.272 89.999409 
L 916.83 89.805538 
L 914.598 89.64523 
L 920.178 89.44642 
L 913.482 89.271033 
L 919.62 88.889318 
L 916.272 88.697582 
L 916.272 88.526915 
L 914.598 88.347371 
L 922.968 88.164268 
L 920.178 87.98122 
L 923.526 87.807016 
L 918.504 87.618662 
L 924.642 87.446579 
L 920.736 87.266869 
L 914.598 87.099721 
L 920.178 86.915476 
L 920.178 86.75808 
L 922.968 86.585226 
L 918.504 86.248584 
L 921.852 86.075801 
L 918.504 85.883138 
L 921.852 85.698671 
L 918.504 85.394763 
L 919.062 85.238581 
L 921.852 85.091985 
L 917.946 84.907209 
L 920.736 84.563775 
L 917.388 84.382479 
L 922.41 84.233378 
L 916.272 84.0642 
L 920.736 83.90342 
L 919.62 83.747478 
L 920.178 83.584897 
L 922.968 83.425982 
L 923.526 83.273196 
L 922.968 83.1268 
L 922.968 82.988432 
L 929.664 82.845278 
L 920.736 82.680293 
L 925.758 82.50684 
L 920.736 82.188034 
L 924.642 82.024493 
L 921.294 81.879475 
L 925.758 81.734236 
L 924.084 81.578619 
L 920.178 81.435399 
L 924.642 81.29258 
L 917.388 81.127237 
L 927.432 80.97992 
L 919.062 80.843772 
L 921.294 80.698665 
L 926.874 80.548879 
L 920.736 80.407432 
L 921.294 80.26329 
L 923.526 80.128807 
L 921.294 79.84049 
L 923.526 79.69617 
L 921.852 79.561319 
L 923.526 79.437109 
L 926.874 79.308829 
L 922.968 79.037374 
L 920.736 78.754765 
L 925.758 78.622888 
L 924.084 78.47881 
L 919.62 78.332323 
L 924.084 78.215151 
L 924.084 78.084358 
L 921.852 77.955478 
L 924.084 77.832742 
L 922.968 77.69983 
L 920.736 77.565193 
L 922.968 77.438296 
L 922.41 77.312743 
L 923.526 77.188904 
L 920.736 77.049138 
L 927.99 76.909886 
L 922.968 76.767149 
L 924.084 76.660213 
L 927.432 76.5523 
L 924.642 76.436857 
L 926.874 76.30756 
L 926.874 76.185098 
L 926.316 76.059651 
L 924.084 75.934114 
L 924.084 75.80235 
L 926.316 75.664804 
L 924.642 75.539547 
L 925.2 75.399719 
L 928.548 75.277603 
L 928.548 75.159884 
L 927.432 75.049889 
L 923.526 74.935845 
L 925.2 74.8184 
L 925.2 74.698988 
L 926.874 74.575725 
L 921.294 74.445559 
L 930.78 74.316357 
L 925.758 74.206552 
L 926.316 74.083988 
L 927.432 73.967629 
L 927.432 73.967629 
" style="fill:none;stroke:#1f1f1f;stroke-linecap:square;stroke-width:5;"/>
   </g>
   <g id="line2d_30">
    <path clip-path="url(#pd929b42d6d)" d="M 198.064513 577 
L 196.452 576.33588 
L 208.728 571.336403 
L 227.7 566.570584 
L 189.756 562.184537 
L 204.264 557.821151 
L 262.296 553.639687 
L 288.522 549.393152 
L 267.876 545.672936 
L 254.484 541.746331 
L 299.682 538.121408 
L 308.61 534.387523 
L 289.638 530.903599 
L 318.654 527.694342 
L 320.328 524.279904 
L 327.024 520.985698 
L 312.516 517.772336 
L 338.184 514.780647 
L 343.764 511.922784 
L 346.554 508.847021 
L 352.692 506.175136 
L 359.388 503.5726 
L 371.664 500.916842 
L 377.244 498.321819 
L 362.178 495.81424 
L 368.874 493.336579 
L 381.15 490.85296 
L 389.52 488.425824 
L 381.15 486.163476 
L 403.47 483.856499 
L 406.26 481.59693 
L 394.542 479.341743 
L 390.636 477.285006 
L 393.984 475.166838 
L 397.332 473.30025 
L 401.238 471.353121 
L 414.63 469.4533 
L 404.586 467.540648 
L 412.398 465.636384 
L 412.398 463.753211 
L 425.79 461.769479 
L 424.116 460.015281 
L 429.138 458.096062 
L 425.79 456.429417 
L 450.9 454.800018 
L 440.856 453.13593 
L 432.486 451.440833 
L 445.878 449.857823 
L 441.972 448.44062 
L 444.204 446.903906 
L 443.646 445.343792 
L 435.834 443.8763 
L 443.088 442.447331 
L 449.226 441.017072 
L 456.48 439.555428 
L 456.48 438.215805 
L 454.248 436.806812 
L 451.458 435.386741 
L 465.966 434.134208 
L 466.524 432.827738 
L 461.502 431.468185 
L 481.032 427.6139 
L 467.082 426.378373 
L 477.684 425.284312 
L 477.684 424.076371 
L 472.662 422.975038 
L 491.076 421.924971 
L 458.154 420.805094 
L 484.938 419.659999 
L 496.656 418.500334 
L 487.17 417.422678 
L 496.656 416.412285 
L 489.96 415.35909 
L 493.866 414.248843 
L 482.706 413.187446 
L 487.728 412.145019 
L 497.772 411.147768 
L 491.076 410.110778 
L 500.562 409.073625 
L 483.264 408.047038 
L 497.772 407.08921 
L 492.192 406.155063 
L 502.794 405.225458 
L 502.236 404.296983 
L 489.402 403.321093 
L 508.932 402.397286 
L 516.744 401.474351 
L 504.468 400.6625 
L 513.396 399.832286 
L 523.998 398.981107 
L 521.766 398.115938 
L 521.208 397.265485 
L 525.672 396.432125 
L 527.346 395.634098 
L 511.722 394.793017 
L 520.65 393.996548 
L 521.208 393.2409 
L 520.092 392.443347 
L 517.302 391.630075 
L 522.882 390.854732 
L 525.114 390.061759 
L 521.766 389.231836 
L 516.186 388.446646 
L 523.44 387.601071 
L 517.86 386.91943 
L 530.694 386.210863 
L 530.694 385.480717 
L 522.882 384.811165 
L 532.926 384.114369 
L 536.274 383.430192 
L 537.948 382.658952 
L 546.318 381.965985 
L 542.412 381.257428 
L 541.296 380.575154 
L 547.992 379.894123 
L 537.948 379.213812 
L 535.716 378.525532 
L 546.876 377.918924 
L 551.34 377.335966 
L 537.948 376.633071 
L 543.528 375.967631 
L 550.224 375.301604 
L 542.97 374.65113 
L 548.55 373.979117 
L 545.76 373.414465 
L 567.522 372.807651 
L 542.97 371.594104 
L 561.942 370.936792 
L 560.268 370.379046 
L 558.036 369.780329 
L 563.616 369.200852 
L 567.522 368.641198 
L 563.616 368.067775 
L 557.478 367.460489 
L 558.594 366.906095 
L 564.732 366.339239 
L 547.992 365.772717 
L 565.848 365.238596 
L 573.102 364.746272 
L 546.876 364.187966 
L 558.036 363.664208 
L 574.218 363.075493 
L 565.848 362.502692 
L 568.638 361.996892 
L 574.776 361.460164 
L 561.384 360.905811 
L 565.29 360.397709 
L 573.66 359.91781 
L 578.682 359.380651 
L 570.87 358.861716 
L 580.356 358.416511 
L 581.472 357.948018 
L 576.45 357.444336 
L 575.892 356.943054 
L 585.936 356.428176 
L 573.66 355.959057 
L 576.45 355.488294 
L 571.428 354.982022 
L 581.472 354.519186 
L 583.146 353.993421 
L 572.544 353.486649 
L 593.19 353.034381 
L 585.936 352.574349 
L 582.588 352.111054 
L 592.632 351.661497 
L 594.306 351.196808 
L 592.632 350.733615 
L 595.422 350.301861 
L 593.748 349.852744 
L 593.19 349.389697 
L 590.958 348.9575 
L 577.008 348.533534 
L 603.234 348.084046 
L 592.632 347.682841 
L 590.4 347.241813 
L 599.328 346.813479 
L 593.748 346.388394 
L 603.792 345.97478 
L 577.566 345.620231 
L 607.698 344.774385 
L 602.118 344.342865 
L 611.604 343.935967 
L 611.604 343.090112 
L 614.952 342.699712 
L 606.024 342.286184 
L 604.35 341.911204 
L 607.698 341.50763 
L 619.974 341.095024 
L 588.726 340.71941 
L 600.444 340.324725 
L 600.444 339.946675 
L 614.394 339.561468 
L 612.162 339.167215 
L 616.068 338.771896 
L 613.278 338.391835 
L 603.234 338.006506 
L 613.836 337.651228 
L 614.952 337.299726 
L 598.212 336.955486 
L 616.068 336.604992 
L 608.256 336.206646 
L 609.372 335.845885 
L 597.654 335.457185 
L 620.532 335.069159 
L 621.09 334.711898 
L 619.416 334.329069 
L 629.46 333.986001 
L 627.228 333.646627 
L 623.88 333.329093 
L 633.366 332.97006 
L 630.576 332.615978 
L 618.858 332.267181 
L 616.626 331.942067 
L 626.67 331.588358 
L 617.184 331.259522 
L 633.366 330.933671 
L 622.764 330.591917 
L 624.996 330.235551 
L 616.068 329.870431 
L 618.3 329.513173 
L 623.322 329.183655 
L 623.88 328.859694 
L 619.974 328.557478 
L 631.134 328.205693 
L 624.996 327.892428 
L 635.598 327.563067 
L 630.576 327.238442 
L 633.924 326.915919 
L 634.482 326.60046 
L 636.714 326.292831 
L 629.46 325.990576 
L 635.04 325.691465 
L 624.438 325.38125 
L 628.902 324.752745 
L 634.482 324.454158 
L 621.648 324.12875 
L 632.808 323.806989 
L 631.692 323.472938 
L 632.25 323.168698 
L 645.642 322.578973 
L 641.736 322.296462 
L 634.482 321.98604 
L 641.736 321.737804 
L 636.156 321.156607 
L 640.62 320.872125 
L 641.736 320.560926 
L 645.642 320.248853 
L 647.874 319.943078 
L 633.924 319.667035 
L 649.548 319.096562 
L 639.504 318.817856 
L 653.454 318.539251 
L 649.548 318.244308 
L 643.41 317.966693 
L 648.432 317.682862 
L 643.41 317.37894 
L 649.548 317.105172 
L 650.664 316.852169 
L 636.156 316.600985 
L 643.968 316.325556 
L 651.222 315.799185 
L 650.106 315.540196 
L 655.128 315.285781 
L 654.012 315.022604 
L 651.78 314.776981 
L 652.338 314.511497 
L 650.106 314.267602 
L 652.338 314.004661 
L 662.382 313.506981 
L 651.78 313.236521 
L 658.476 312.981685 
L 655.128 312.675477 
L 659.034 312.162038 
L 656.802 311.939679 
L 659.034 311.703178 
L 658.476 311.426556 
L 662.382 311.191182 
L 661.266 310.948035 
L 647.874 310.693458 
L 656.802 310.442509 
L 659.034 310.207078 
L 669.078 309.961969 
L 650.106 309.692386 
L 660.15 309.441098 
L 660.708 309.188991 
L 662.382 308.939307 
L 662.382 308.713327 
L 665.172 308.463475 
L 661.266 308.220632 
L 662.94 307.981179 
L 662.94 307.546042 
L 670.194 307.326802 
L 664.056 307.064209 
L 670.194 306.819425 
L 667.962 306.607388 
L 668.52 306.395006 
L 657.36 306.155636 
L 675.216 305.900643 
L 661.266 305.683264 
L 666.846 305.461009 
L 667.404 305.229476 
L 667.404 305.021542 
L 663.498 304.808815 
L 671.868 304.57702 
L 671.868 304.355816 
L 674.658 304.10338 
L 666.846 303.87432 
L 676.89 303.666449 
L 667.404 302.966792 
L 672.426 302.742597 
L 672.426 302.536643 
L 683.028 302.316031 
L 665.73 301.67223 
L 678.564 301.462592 
L 677.448 301.255702 
L 674.1 301.054349 
L 674.658 300.833777 
L 673.542 300.624569 
L 677.448 300.420843 
L 678.564 300.207657 
L 676.89 299.996148 
L 682.47 299.571514 
L 683.586 299.354181 
L 675.216 299.13282 
L 679.68 298.92263 
L 679.68 298.92263 
" style="fill:none;stroke:#9041ff;stroke-linecap:square;stroke-width:5;"/>
   </g>
   <g id="patch_3">
    <path d="M 144 504 
L 144 69.12 
" style="fill:none;stroke:#000000;stroke-linecap:square;stroke-linejoin:miter;stroke-width:0.8;"/>
   </g>
   <g id="patch_4">
    <path d="M 1036.8 504 
L 1036.8 69.12 
" style="fill:none;stroke:#000000;stroke-linecap:square;stroke-linejoin:miter;stroke-width:0.8;"/>
   </g>
   <g id="patch_5">
    <path d="M 144 504 
L 1036.8 504 
" style="fill:none;stroke:#000000;stroke-linecap:square;stroke-linejoin:miter;stroke-width:0.8;"/>
   </g>
   <g id="patch_6">
    <path d="M 144 69.12 
L 1036.8 69.12 
" style="fill:none;stroke:#000000;stroke-linecap:square;stroke-linejoin:miter;stroke-width:0.8;"/>
   </g>
   <g id="text_14">
    <!-- Gated: Energy vs. Accuracy with 250 Units @ 0.15 -->
    <g transform="translate(136.442813 61.633125)scale(0.36 -0.36)">
     <defs>
      <path d="M 59.515625 10.40625 
L 59.515625 29.984375 
L 43.40625 29.984375 
L 43.40625 38.09375 
L 69.28125 38.09375 
L 69.28125 6.78125 
Q 63.578125 2.734375 56.6875 0.65625 
Q 49.8125 -1.421875 42 -1.421875 
Q 24.90625 -1.421875 15.25 8.5625 
Q 5.609375 18.5625 5.609375 36.375 
Q 5.609375 54.25 15.25 64.234375 
Q 24.90625 74.21875 42 74.21875 
Q 49.125 74.21875 55.546875 72.453125 
Q 61.96875 70.703125 67.390625 67.28125 
L 67.390625 56.78125 
Q 61.921875 61.421875 55.765625 63.765625 
Q 49.609375 66.109375 42.828125 66.109375 
Q 29.4375 66.109375 22.71875 58.640625 
Q 16.015625 51.171875 16.015625 36.375 
Q 16.015625 21.625 22.71875 14.15625 
Q 29.4375 6.6875 42.828125 6.6875 
Q 48.046875 6.6875 52.140625 7.59375 
Q 56.25 8.5 59.515625 10.40625 
z
" id="DejaVuSans-71"/>
      <path d="M 18.3125 70.21875 
L 18.3125 54.6875 
L 36.8125 54.6875 
L 36.8125 47.703125 
L 18.3125 47.703125 
L 18.3125 18.015625 
Q 18.3125 11.328125 20.140625 9.421875 
Q 21.96875 7.515625 27.59375 7.515625 
L 36.8125 7.515625 
L 36.8125 0 
L 27.59375 0 
Q 17.1875 0 13.234375 3.875 
Q 9.28125 7.765625 9.28125 18.015625 
L 9.28125 47.703125 
L 2.6875 47.703125 
L 2.6875 54.6875 
L 9.28125 54.6875 
L 9.28125 70.21875 
z
" id="DejaVuSans-116"/>
      <path d="M 45.40625 46.390625 
L 45.40625 75.984375 
L 54.390625 75.984375 
L 54.390625 0 
L 45.40625 0 
L 45.40625 8.203125 
Q 42.578125 3.328125 38.25 0.953125 
Q 33.9375 -1.421875 27.875 -1.421875 
Q 17.96875 -1.421875 11.734375 6.484375 
Q 5.515625 14.40625 5.515625 27.296875 
Q 5.515625 40.1875 11.734375 48.09375 
Q 17.96875 56 27.875 56 
Q 33.9375 56 38.25 53.625 
Q 42.578125 51.265625 45.40625 46.390625 
z
M 14.796875 27.296875 
Q 14.796875 17.390625 18.875 11.75 
Q 22.953125 6.109375 30.078125 6.109375 
Q 37.203125 6.109375 41.296875 11.75 
Q 45.40625 17.390625 45.40625 27.296875 
Q 45.40625 37.203125 41.296875 42.84375 
Q 37.203125 48.484375 30.078125 48.484375 
Q 22.953125 48.484375 18.875 42.84375 
Q 14.796875 37.203125 14.796875 27.296875 
z
" id="DejaVuSans-100"/>
      <path d="M 11.71875 12.40625 
L 22.015625 12.40625 
L 22.015625 0 
L 11.71875 0 
z
M 11.71875 51.703125 
L 22.015625 51.703125 
L 22.015625 39.3125 
L 11.71875 39.3125 
z
" id="DejaVuSans-58"/>
      <path d="M 2.984375 54.6875 
L 12.5 54.6875 
L 29.59375 8.796875 
L 46.6875 54.6875 
L 56.203125 54.6875 
L 35.6875 0 
L 23.484375 0 
z
" id="DejaVuSans-118"/>
      <path d="M 44.28125 53.078125 
L 44.28125 44.578125 
Q 40.484375 46.53125 36.375 47.5 
Q 32.28125 48.484375 27.875 48.484375 
Q 21.1875 48.484375 17.84375 46.4375 
Q 14.5 44.390625 14.5 40.28125 
Q 14.5 37.15625 16.890625 35.375 
Q 19.28125 33.59375 26.515625 31.984375 
L 29.59375 31.296875 
Q 39.15625 29.25 43.1875 25.515625 
Q 47.21875 21.78125 47.21875 15.09375 
Q 47.21875 7.46875 41.1875 3.015625 
Q 35.15625 -1.421875 24.609375 -1.421875 
Q 20.21875 -1.421875 15.453125 -0.5625 
Q 10.6875 0.296875 5.421875 2 
L 5.421875 11.28125 
Q 10.40625 8.6875 15.234375 7.390625 
Q 20.0625 6.109375 24.8125 6.109375 
Q 31.15625 6.109375 34.5625 8.28125 
Q 37.984375 10.453125 37.984375 14.40625 
Q 37.984375 18.0625 35.515625 20.015625 
Q 33.0625 21.96875 24.703125 23.78125 
L 21.578125 24.515625 
Q 13.234375 26.265625 9.515625 29.90625 
Q 5.8125 33.546875 5.8125 39.890625 
Q 5.8125 47.609375 11.28125 51.796875 
Q 16.75 56 26.8125 56 
Q 31.78125 56 36.171875 55.265625 
Q 40.578125 54.546875 44.28125 53.078125 
z
" id="DejaVuSans-115"/>
      <path d="M 4.203125 54.6875 
L 13.1875 54.6875 
L 24.421875 12.015625 
L 35.59375 54.6875 
L 46.1875 54.6875 
L 57.421875 12.015625 
L 68.609375 54.6875 
L 77.59375 54.6875 
L 63.28125 0 
L 52.6875 0 
L 40.921875 44.828125 
L 29.109375 0 
L 18.5 0 
z
" id="DejaVuSans-119"/>
      <path d="M 9.421875 54.6875 
L 18.40625 54.6875 
L 18.40625 0 
L 9.421875 0 
z
M 9.421875 75.984375 
L 18.40625 75.984375 
L 18.40625 64.59375 
L 9.421875 64.59375 
z
" id="DejaVuSans-105"/>
      <path d="M 54.890625 33.015625 
L 54.890625 0 
L 45.90625 0 
L 45.90625 32.71875 
Q 45.90625 40.484375 42.875 44.328125 
Q 39.84375 48.1875 33.796875 48.1875 
Q 26.515625 48.1875 22.3125 43.546875 
Q 18.109375 38.921875 18.109375 30.90625 
L 18.109375 0 
L 9.078125 0 
L 9.078125 75.984375 
L 18.109375 75.984375 
L 18.109375 46.1875 
Q 21.34375 51.125 25.703125 53.5625 
Q 30.078125 56 35.796875 56 
Q 45.21875 56 50.046875 50.171875 
Q 54.890625 44.34375 54.890625 33.015625 
z
" id="DejaVuSans-104"/>
      <path d="M 37.203125 26.21875 
Q 37.203125 19.234375 40.671875 15.25 
Q 44.140625 11.28125 50.203125 11.28125 
Q 56.203125 11.28125 59.640625 15.28125 
Q 63.09375 19.28125 63.09375 26.21875 
Q 63.09375 33.0625 59.578125 37.078125 
Q 56.0625 41.109375 50.09375 41.109375 
Q 44.1875 41.109375 40.6875 37.109375 
Q 37.203125 33.109375 37.203125 26.21875 
z
M 63.8125 11.625 
Q 60.890625 7.859375 57.109375 6.078125 
Q 53.328125 4.296875 48.296875 4.296875 
Q 39.890625 4.296875 34.640625 10.375 
Q 29.390625 16.453125 29.390625 26.21875 
Q 29.390625 35.984375 34.65625 42.078125 
Q 39.9375 48.1875 48.296875 48.1875 
Q 53.328125 48.1875 57.125 46.359375 
Q 60.9375 44.53125 63.8125 40.828125 
L 63.8125 47.21875 
L 70.796875 47.21875 
L 70.796875 11.28125 
Q 77.9375 12.359375 81.953125 17.796875 
Q 85.984375 23.25 85.984375 31.890625 
Q 85.984375 37.109375 84.4375 41.703125 
Q 82.90625 46.296875 79.78125 50.203125 
Q 74.703125 56.59375 67.40625 59.984375 
Q 60.109375 63.375 51.515625 63.375 
Q 45.515625 63.375 39.984375 61.78125 
Q 34.46875 60.203125 29.78125 57.078125 
Q 22.125 52.09375 17.796875 44.015625 
Q 13.484375 35.9375 13.484375 26.515625 
Q 13.484375 18.75 16.28125 11.953125 
Q 19.09375 5.171875 24.421875 0 
Q 29.546875 -5.078125 36.28125 -7.734375 
Q 43.015625 -10.40625 50.6875 -10.40625 
Q 56.984375 -10.40625 63.0625 -8.28125 
Q 69.140625 -6.15625 74.21875 -2.203125 
L 78.609375 -7.625 
Q 72.515625 -12.359375 65.3125 -14.875 
Q 58.109375 -17.390625 50.6875 -17.390625 
Q 41.65625 -17.390625 33.640625 -14.1875 
Q 25.640625 -10.984375 19.390625 -4.890625 
Q 13.140625 1.21875 9.859375 9.25 
Q 6.59375 17.28125 6.59375 26.515625 
Q 6.59375 35.40625 9.90625 43.453125 
Q 13.234375 51.515625 19.390625 57.625 
Q 25.6875 63.8125 33.9375 67.109375 
Q 42.1875 70.40625 51.421875 70.40625 
Q 61.765625 70.40625 70.625 66.15625 
Q 79.5 61.921875 85.5 54.109375 
Q 89.15625 49.3125 91.078125 43.703125 
Q 93.015625 38.09375 93.015625 32.078125 
Q 93.015625 19.234375 85.25 11.8125 
Q 77.484375 4.390625 63.8125 4.109375 
z
" id="DejaVuSans-64"/>
     </defs>
     <use xlink:href="#DejaVuSans-71"/>
     <use x="77.490234" xlink:href="#DejaVuSans-97"/>
     <use x="138.769531" xlink:href="#DejaVuSans-116"/>
     <use x="177.978516" xlink:href="#DejaVuSans-101"/>
     <use x="239.501953" xlink:href="#DejaVuSans-100"/>
     <use x="302.978516" xlink:href="#DejaVuSans-58"/>
     <use x="336.669922" xlink:href="#DejaVuSans-32"/>
     <use x="368.457031" xlink:href="#DejaVuSans-69"/>
     <use x="431.640625" xlink:href="#DejaVuSans-110"/>
     <use x="495.019531" xlink:href="#DejaVuSans-101"/>
     <use x="556.542969" xlink:href="#DejaVuSans-114"/>
     <use x="595.90625" xlink:href="#DejaVuSans-103"/>
     <use x="659.382812" xlink:href="#DejaVuSans-121"/>
     <use x="718.5625" xlink:href="#DejaVuSans-32"/>
     <use x="750.349609" xlink:href="#DejaVuSans-118"/>
     <use x="809.529297" xlink:href="#DejaVuSans-115"/>
     <use x="861.628906" xlink:href="#DejaVuSans-46"/>
     <use x="893.416016" xlink:href="#DejaVuSans-32"/>
     <use x="925.203125" xlink:href="#DejaVuSans-65"/>
     <use x="991.861328" xlink:href="#DejaVuSans-99"/>
     <use x="1046.841797" xlink:href="#DejaVuSans-99"/>
     <use x="1101.822266" xlink:href="#DejaVuSans-117"/>
     <use x="1165.201172" xlink:href="#DejaVuSans-114"/>
     <use x="1206.314453" xlink:href="#DejaVuSans-97"/>
     <use x="1267.59375" xlink:href="#DejaVuSans-99"/>
     <use x="1322.574219" xlink:href="#DejaVuSans-121"/>
     <use x="1381.753906" xlink:href="#DejaVuSans-32"/>
     <use x="1413.541016" xlink:href="#DejaVuSans-119"/>
     <use x="1495.328125" xlink:href="#DejaVuSans-105"/>
     <use x="1523.111328" xlink:href="#DejaVuSans-116"/>
     <use x="1562.320312" xlink:href="#DejaVuSans-104"/>
     <use x="1625.699219" xlink:href="#DejaVuSans-32"/>
     <use x="1657.486328" xlink:href="#DejaVuSans-50"/>
     <use x="1721.109375" xlink:href="#DejaVuSans-53"/>
     <use x="1784.732422" xlink:href="#DejaVuSans-48"/>
     <use x="1848.355469" xlink:href="#DejaVuSans-32"/>
     <use x="1880.142578" xlink:href="#DejaVuSans-85"/>
     <use x="1953.335938" xlink:href="#DejaVuSans-110"/>
     <use x="2016.714844" xlink:href="#DejaVuSans-105"/>
     <use x="2044.498047" xlink:href="#DejaVuSans-116"/>
     <use x="2083.707031" xlink:href="#DejaVuSans-115"/>
     <use x="2135.806641" xlink:href="#DejaVuSans-32"/>
     <use x="2167.59375" xlink:href="#DejaVuSans-64"/>
     <use x="2267.59375" xlink:href="#DejaVuSans-32"/>
     <use x="2299.380859" xlink:href="#DejaVuSans-48"/>
     <use x="2363.003906" xlink:href="#DejaVuSans-46"/>
     <use x="2394.791016" xlink:href="#DejaVuSans-49"/>
     <use x="2458.414062" xlink:href="#DejaVuSans-53"/>
    </g>
   </g>
   <g id="legend_1">
    <g id="patch_7">
     <path d="M 807.989687 493 
L 1021.4 493 
Q 1025.8 493 1025.8 488.6 
L 1025.8 426.21625 
Q 1025.8 421.81625 1021.4 421.81625 
L 807.989687 421.81625 
Q 803.589687 421.81625 803.589687 426.21625 
L 803.589687 488.6 
Q 803.589687 493 807.989687 493 
z
" style="fill:#ffffff;opacity:0.8;stroke:#cccccc;stroke-linejoin:miter;"/>
    </g>
    <g id="line2d_31">
     <path d="M 812.389687 439.632812 
L 856.389687 439.632812 
" style="fill:none;stroke:#1f1f1f;stroke-linecap:square;stroke-width:5;"/>
    </g>
    <g id="line2d_32"/>
    <g id="text_15">
     <!-- Ungated: 1.0 -->
     <g transform="translate(873.989687 447.332812)scale(0.22 -0.22)">
      <use xlink:href="#DejaVuSans-85"/>
      <use x="73.193359" xlink:href="#DejaVuSans-110"/>
      <use x="136.572266" xlink:href="#DejaVuSans-103"/>
      <use x="200.048828" xlink:href="#DejaVuSans-97"/>
      <use x="261.328125" xlink:href="#DejaVuSans-116"/>
      <use x="300.537109" xlink:href="#DejaVuSans-101"/>
      <use x="362.060547" xlink:href="#DejaVuSans-100"/>
      <use x="425.537109" xlink:href="#DejaVuSans-58"/>
      <use x="459.228516" xlink:href="#DejaVuSans-32"/>
      <use x="491.015625" xlink:href="#DejaVuSans-49"/>
      <use x="554.638672" xlink:href="#DejaVuSans-46"/>
      <use x="586.425781" xlink:href="#DejaVuSans-48"/>
     </g>
    </g>
    <g id="line2d_33">
     <path d="M 812.389687 471.924688 
L 856.389687 471.924688 
" style="fill:none;stroke:#9041ff;stroke-linecap:square;stroke-width:5;"/>
    </g>
    <g id="line2d_34"/>
    <g id="text_16">
     <!-- Gated: 0.15 -->
     <g transform="translate(873.989687 479.624687)scale(0.22 -0.22)">
      <use xlink:href="#DejaVuSans-71"/>
      <use x="77.490234" xlink:href="#DejaVuSans-97"/>
      <use x="138.769531" xlink:href="#DejaVuSans-116"/>
      <use x="177.978516" xlink:href="#DejaVuSans-101"/>
      <use x="239.501953" xlink:href="#DejaVuSans-100"/>
      <use x="302.978516" xlink:href="#DejaVuSans-58"/>
      <use x="336.669922" xlink:href="#DejaVuSans-32"/>
      <use x="368.457031" xlink:href="#DejaVuSans-48"/>
      <use x="432.080078" xlink:href="#DejaVuSans-46"/>
      <use x="463.867188" xlink:href="#DejaVuSans-49"/>
      <use x="527.490234" xlink:href="#DejaVuSans-53"/>
     </g>
    </g>
   </g>
  </g>
 </g>
 <defs>
  <clipPath id="pd929b42d6d">
   <rect height="434.88" width="892.8" x="144" y="69.12"/>
  </clipPath>
 </defs>
</svg>
