<?xml version="1.0" encoding="utf-8" standalone="no"?>
<!DOCTYPE svg PUBLIC "-//W3C//DTD SVG 1.1//EN"
  "http://www.w3.org/Graphics/SVG/1.1/DTD/svg11.dtd">
<!-- Created with matplotlib (https://matplotlib.org/) -->
<svg height="576pt" version="1.1" viewBox="0 0 1152 576" width="1152pt" xmlns="http://www.w3.org/2000/svg" xmlns:xlink="http://www.w3.org/1999/xlink">
 <metadata>
  <rdf:RDF xmlns:cc="http://creativecommons.org/ns#" xmlns:dc="http://purl.org/dc/elements/1.1/" xmlns:rdf="http://www.w3.org/1999/02/22-rdf-syntax-ns#">
   <cc:Work>
    <dc:type rdf:resource="http://purl.org/dc/dcmitype/StillImage"/>
    <dc:date>2021-09-12T21:32:56.956511</dc:date>
    <dc:format>image/svg+xml</dc:format>
    <dc:creator>
     <cc:Agent>
      <dc:title>Matplotlib v3.3.4, https://matplotlib.org/</dc:title>
     </cc:Agent>
    </dc:creator>
   </cc:Work>
  </rdf:RDF>
 </metadata>
 <defs>
  <style type="text/css">*{stroke-linecap:butt;stroke-linejoin:round;}</style>
 </defs>
 <g id="figure_1">
  <g id="patch_1">
   <path d="M 0 576 
L 1152 576 
L 1152 0 
L 0 0 
z
" style="fill:#ffffff;"/>
  </g>
  <g id="axes_1">
   <g id="patch_2">
    <path d="M 144 504 
L 1036.8 504 
L 1036.8 69.12 
L 144 69.12 
z
" style="fill:#ffffff;"/>
   </g>
   <g id="matplotlib.axis_1">
    <g id="xtick_1">
     <g id="line2d_1">
      <defs>
       <path d="M 0 0 
L 0 3.5 
" id="m83a3895b4f" style="stroke:#000000;stroke-width:0.8;"/>
      </defs>
      <g>
       <use style="stroke:#000000;stroke-width:0.8;" x="144" xlink:href="#m83a3895b4f" y="504"/>
      </g>
     </g>
     <g id="text_1">
      <!-- 84 -->
      <g transform="translate(128.73 529.23625)scale(0.24 -0.24)">
       <defs>
        <path d="M 31.78125 34.625 
Q 24.75 34.625 20.71875 30.859375 
Q 16.703125 27.09375 16.703125 20.515625 
Q 16.703125 13.921875 20.71875 10.15625 
Q 24.75 6.390625 31.78125 6.390625 
Q 38.8125 6.390625 42.859375 10.171875 
Q 46.921875 13.96875 46.921875 20.515625 
Q 46.921875 27.09375 42.890625 30.859375 
Q 38.875 34.625 31.78125 34.625 
z
M 21.921875 38.8125 
Q 15.578125 40.375 12.03125 44.71875 
Q 8.5 49.078125 8.5 55.328125 
Q 8.5 64.0625 14.71875 69.140625 
Q 20.953125 74.21875 31.78125 74.21875 
Q 42.671875 74.21875 48.875 69.140625 
Q 55.078125 64.0625 55.078125 55.328125 
Q 55.078125 49.078125 51.53125 44.71875 
Q 48 40.375 41.703125 38.8125 
Q 48.828125 37.15625 52.796875 32.3125 
Q 56.78125 27.484375 56.78125 20.515625 
Q 56.78125 9.90625 50.3125 4.234375 
Q 43.84375 -1.421875 31.78125 -1.421875 
Q 19.734375 -1.421875 13.25 4.234375 
Q 6.78125 9.90625 6.78125 20.515625 
Q 6.78125 27.484375 10.78125 32.3125 
Q 14.796875 37.15625 21.921875 38.8125 
z
M 18.3125 54.390625 
Q 18.3125 48.734375 21.84375 45.5625 
Q 25.390625 42.390625 31.78125 42.390625 
Q 38.140625 42.390625 41.71875 45.5625 
Q 45.3125 48.734375 45.3125 54.390625 
Q 45.3125 60.0625 41.71875 63.234375 
Q 38.140625 66.40625 31.78125 66.40625 
Q 25.390625 66.40625 21.84375 63.234375 
Q 18.3125 60.0625 18.3125 54.390625 
z
" id="DejaVuSans-56"/>
        <path d="M 37.796875 64.3125 
L 12.890625 25.390625 
L 37.796875 25.390625 
z
M 35.203125 72.90625 
L 47.609375 72.90625 
L 47.609375 25.390625 
L 58.015625 25.390625 
L 58.015625 17.1875 
L 47.609375 17.1875 
L 47.609375 0 
L 37.796875 0 
L 37.796875 17.1875 
L 4.890625 17.1875 
L 4.890625 26.703125 
z
" id="DejaVuSans-52"/>
       </defs>
       <use xlink:href="#DejaVuSans-56"/>
       <use x="63.623047" xlink:href="#DejaVuSans-52"/>
      </g>
     </g>
    </g>
    <g id="xtick_2">
     <g id="line2d_2">
      <g>
       <use style="stroke:#000000;stroke-width:0.8;" x="255.6" xlink:href="#m83a3895b4f" y="504"/>
      </g>
     </g>
     <g id="text_2">
      <!-- 86 -->
      <g transform="translate(240.33 529.23625)scale(0.24 -0.24)">
       <defs>
        <path d="M 33.015625 40.375 
Q 26.375 40.375 22.484375 35.828125 
Q 18.609375 31.296875 18.609375 23.390625 
Q 18.609375 15.53125 22.484375 10.953125 
Q 26.375 6.390625 33.015625 6.390625 
Q 39.65625 6.390625 43.53125 10.953125 
Q 47.40625 15.53125 47.40625 23.390625 
Q 47.40625 31.296875 43.53125 35.828125 
Q 39.65625 40.375 33.015625 40.375 
z
M 52.59375 71.296875 
L 52.59375 62.3125 
Q 48.875 64.0625 45.09375 64.984375 
Q 41.3125 65.921875 37.59375 65.921875 
Q 27.828125 65.921875 22.671875 59.328125 
Q 17.53125 52.734375 16.796875 39.40625 
Q 19.671875 43.65625 24.015625 45.921875 
Q 28.375 48.1875 33.59375 48.1875 
Q 44.578125 48.1875 50.953125 41.515625 
Q 57.328125 34.859375 57.328125 23.390625 
Q 57.328125 12.15625 50.6875 5.359375 
Q 44.046875 -1.421875 33.015625 -1.421875 
Q 20.359375 -1.421875 13.671875 8.265625 
Q 6.984375 17.96875 6.984375 36.375 
Q 6.984375 53.65625 15.1875 63.9375 
Q 23.390625 74.21875 37.203125 74.21875 
Q 40.921875 74.21875 44.703125 73.484375 
Q 48.484375 72.75 52.59375 71.296875 
z
" id="DejaVuSans-54"/>
       </defs>
       <use xlink:href="#DejaVuSans-56"/>
       <use x="63.623047" xlink:href="#DejaVuSans-54"/>
      </g>
     </g>
    </g>
    <g id="xtick_3">
     <g id="line2d_3">
      <g>
       <use style="stroke:#000000;stroke-width:0.8;" x="367.2" xlink:href="#m83a3895b4f" y="504"/>
      </g>
     </g>
     <g id="text_3">
      <!-- 88 -->
      <g transform="translate(351.93 529.23625)scale(0.24 -0.24)">
       <use xlink:href="#DejaVuSans-56"/>
       <use x="63.623047" xlink:href="#DejaVuSans-56"/>
      </g>
     </g>
    </g>
    <g id="xtick_4">
     <g id="line2d_4">
      <g>
       <use style="stroke:#000000;stroke-width:0.8;" x="478.8" xlink:href="#m83a3895b4f" y="504"/>
      </g>
     </g>
     <g id="text_4">
      <!-- 90 -->
      <g transform="translate(463.53 529.23625)scale(0.24 -0.24)">
       <defs>
        <path d="M 10.984375 1.515625 
L 10.984375 10.5 
Q 14.703125 8.734375 18.5 7.8125 
Q 22.3125 6.890625 25.984375 6.890625 
Q 35.75 6.890625 40.890625 13.453125 
Q 46.046875 20.015625 46.78125 33.40625 
Q 43.953125 29.203125 39.59375 26.953125 
Q 35.25 24.703125 29.984375 24.703125 
Q 19.046875 24.703125 12.671875 31.3125 
Q 6.296875 37.9375 6.296875 49.421875 
Q 6.296875 60.640625 12.9375 67.421875 
Q 19.578125 74.21875 30.609375 74.21875 
Q 43.265625 74.21875 49.921875 64.515625 
Q 56.59375 54.828125 56.59375 36.375 
Q 56.59375 19.140625 48.40625 8.859375 
Q 40.234375 -1.421875 26.421875 -1.421875 
Q 22.703125 -1.421875 18.890625 -0.6875 
Q 15.09375 0.046875 10.984375 1.515625 
z
M 30.609375 32.421875 
Q 37.25 32.421875 41.125 36.953125 
Q 45.015625 41.5 45.015625 49.421875 
Q 45.015625 57.28125 41.125 61.84375 
Q 37.25 66.40625 30.609375 66.40625 
Q 23.96875 66.40625 20.09375 61.84375 
Q 16.21875 57.28125 16.21875 49.421875 
Q 16.21875 41.5 20.09375 36.953125 
Q 23.96875 32.421875 30.609375 32.421875 
z
" id="DejaVuSans-57"/>
        <path d="M 31.78125 66.40625 
Q 24.171875 66.40625 20.328125 58.90625 
Q 16.5 51.421875 16.5 36.375 
Q 16.5 21.390625 20.328125 13.890625 
Q 24.171875 6.390625 31.78125 6.390625 
Q 39.453125 6.390625 43.28125 13.890625 
Q 47.125 21.390625 47.125 36.375 
Q 47.125 51.421875 43.28125 58.90625 
Q 39.453125 66.40625 31.78125 66.40625 
z
M 31.78125 74.21875 
Q 44.046875 74.21875 50.515625 64.515625 
Q 56.984375 54.828125 56.984375 36.375 
Q 56.984375 17.96875 50.515625 8.265625 
Q 44.046875 -1.421875 31.78125 -1.421875 
Q 19.53125 -1.421875 13.0625 8.265625 
Q 6.59375 17.96875 6.59375 36.375 
Q 6.59375 54.828125 13.0625 64.515625 
Q 19.53125 74.21875 31.78125 74.21875 
z
" id="DejaVuSans-48"/>
       </defs>
       <use xlink:href="#DejaVuSans-57"/>
       <use x="63.623047" xlink:href="#DejaVuSans-48"/>
      </g>
     </g>
    </g>
    <g id="xtick_5">
     <g id="line2d_5">
      <g>
       <use style="stroke:#000000;stroke-width:0.8;" x="590.4" xlink:href="#m83a3895b4f" y="504"/>
      </g>
     </g>
     <g id="text_5">
      <!-- 92 -->
      <g transform="translate(575.13 529.23625)scale(0.24 -0.24)">
       <defs>
        <path d="M 19.1875 8.296875 
L 53.609375 8.296875 
L 53.609375 0 
L 7.328125 0 
L 7.328125 8.296875 
Q 12.9375 14.109375 22.625 23.890625 
Q 32.328125 33.6875 34.8125 36.53125 
Q 39.546875 41.84375 41.421875 45.53125 
Q 43.3125 49.21875 43.3125 52.78125 
Q 43.3125 58.59375 39.234375 62.25 
Q 35.15625 65.921875 28.609375 65.921875 
Q 23.96875 65.921875 18.8125 64.3125 
Q 13.671875 62.703125 7.8125 59.421875 
L 7.8125 69.390625 
Q 13.765625 71.78125 18.9375 73 
Q 24.125 74.21875 28.421875 74.21875 
Q 39.75 74.21875 46.484375 68.546875 
Q 53.21875 62.890625 53.21875 53.421875 
Q 53.21875 48.921875 51.53125 44.890625 
Q 49.859375 40.875 45.40625 35.40625 
Q 44.1875 33.984375 37.640625 27.21875 
Q 31.109375 20.453125 19.1875 8.296875 
z
" id="DejaVuSans-50"/>
       </defs>
       <use xlink:href="#DejaVuSans-57"/>
       <use x="63.623047" xlink:href="#DejaVuSans-50"/>
      </g>
     </g>
    </g>
    <g id="xtick_6">
     <g id="line2d_6">
      <g>
       <use style="stroke:#000000;stroke-width:0.8;" x="702" xlink:href="#m83a3895b4f" y="504"/>
      </g>
     </g>
     <g id="text_6">
      <!-- 94 -->
      <g transform="translate(686.73 529.23625)scale(0.24 -0.24)">
       <use xlink:href="#DejaVuSans-57"/>
       <use x="63.623047" xlink:href="#DejaVuSans-52"/>
      </g>
     </g>
    </g>
    <g id="xtick_7">
     <g id="line2d_7">
      <g>
       <use style="stroke:#000000;stroke-width:0.8;" x="813.6" xlink:href="#m83a3895b4f" y="504"/>
      </g>
     </g>
     <g id="text_7">
      <!-- 96 -->
      <g transform="translate(798.33 529.23625)scale(0.24 -0.24)">
       <use xlink:href="#DejaVuSans-57"/>
       <use x="63.623047" xlink:href="#DejaVuSans-54"/>
      </g>
     </g>
    </g>
    <g id="xtick_8">
     <g id="line2d_8">
      <g>
       <use style="stroke:#000000;stroke-width:0.8;" x="925.2" xlink:href="#m83a3895b4f" y="504"/>
      </g>
     </g>
     <g id="text_8">
      <!-- 98 -->
      <g transform="translate(909.93 529.23625)scale(0.24 -0.24)">
       <use xlink:href="#DejaVuSans-57"/>
       <use x="63.623047" xlink:href="#DejaVuSans-56"/>
      </g>
     </g>
    </g>
    <g id="xtick_9">
     <g id="line2d_9">
      <g>
       <use style="stroke:#000000;stroke-width:0.8;" x="1036.8" xlink:href="#m83a3895b4f" y="504"/>
      </g>
     </g>
     <g id="text_9">
      <!-- 100 -->
      <g transform="translate(1013.895 529.23625)scale(0.24 -0.24)">
       <defs>
        <path d="M 12.40625 8.296875 
L 28.515625 8.296875 
L 28.515625 63.921875 
L 10.984375 60.40625 
L 10.984375 69.390625 
L 28.421875 72.90625 
L 38.28125 72.90625 
L 38.28125 8.296875 
L 54.390625 8.296875 
L 54.390625 0 
L 12.40625 0 
z
" id="DejaVuSans-49"/>
       </defs>
       <use xlink:href="#DejaVuSans-49"/>
       <use x="63.623047" xlink:href="#DejaVuSans-48"/>
       <use x="127.246094" xlink:href="#DejaVuSans-48"/>
      </g>
     </g>
    </g>
    <g id="text_10">
     <!-- Accuracy /% -->
     <g transform="translate(504.013437 559.503125)scale(0.28 -0.28)">
      <defs>
       <path d="M 34.1875 63.1875 
L 20.796875 26.90625 
L 47.609375 26.90625 
z
M 28.609375 72.90625 
L 39.796875 72.90625 
L 67.578125 0 
L 57.328125 0 
L 50.6875 18.703125 
L 17.828125 18.703125 
L 11.1875 0 
L 0.78125 0 
z
" id="DejaVuSans-65"/>
       <path d="M 48.78125 52.59375 
L 48.78125 44.1875 
Q 44.96875 46.296875 41.140625 47.34375 
Q 37.3125 48.390625 33.40625 48.390625 
Q 24.65625 48.390625 19.8125 42.84375 
Q 14.984375 37.3125 14.984375 27.296875 
Q 14.984375 17.28125 19.8125 11.734375 
Q 24.65625 6.203125 33.40625 6.203125 
Q 37.3125 6.203125 41.140625 7.25 
Q 44.96875 8.296875 48.78125 10.40625 
L 48.78125 2.09375 
Q 45.015625 0.34375 40.984375 -0.53125 
Q 36.96875 -1.421875 32.421875 -1.421875 
Q 20.0625 -1.421875 12.78125 6.34375 
Q 5.515625 14.109375 5.515625 27.296875 
Q 5.515625 40.671875 12.859375 48.328125 
Q 20.21875 56 33.015625 56 
Q 37.15625 56 41.109375 55.140625 
Q 45.0625 54.296875 48.78125 52.59375 
z
" id="DejaVuSans-99"/>
       <path d="M 8.5 21.578125 
L 8.5 54.6875 
L 17.484375 54.6875 
L 17.484375 21.921875 
Q 17.484375 14.15625 20.5 10.265625 
Q 23.53125 6.390625 29.59375 6.390625 
Q 36.859375 6.390625 41.078125 11.03125 
Q 45.3125 15.671875 45.3125 23.6875 
L 45.3125 54.6875 
L 54.296875 54.6875 
L 54.296875 0 
L 45.3125 0 
L 45.3125 8.40625 
Q 42.046875 3.421875 37.71875 1 
Q 33.40625 -1.421875 27.6875 -1.421875 
Q 18.265625 -1.421875 13.375 4.4375 
Q 8.5 10.296875 8.5 21.578125 
z
M 31.109375 56 
z
" id="DejaVuSans-117"/>
       <path d="M 41.109375 46.296875 
Q 39.59375 47.171875 37.8125 47.578125 
Q 36.03125 48 33.890625 48 
Q 26.265625 48 22.1875 43.046875 
Q 18.109375 38.09375 18.109375 28.8125 
L 18.109375 0 
L 9.078125 0 
L 9.078125 54.6875 
L 18.109375 54.6875 
L 18.109375 46.1875 
Q 20.953125 51.171875 25.484375 53.578125 
Q 30.03125 56 36.53125 56 
Q 37.453125 56 38.578125 55.875 
Q 39.703125 55.765625 41.0625 55.515625 
z
" id="DejaVuSans-114"/>
       <path d="M 34.28125 27.484375 
Q 23.390625 27.484375 19.1875 25 
Q 14.984375 22.515625 14.984375 16.5 
Q 14.984375 11.71875 18.140625 8.90625 
Q 21.296875 6.109375 26.703125 6.109375 
Q 34.1875 6.109375 38.703125 11.40625 
Q 43.21875 16.703125 43.21875 25.484375 
L 43.21875 27.484375 
z
M 52.203125 31.203125 
L 52.203125 0 
L 43.21875 0 
L 43.21875 8.296875 
Q 40.140625 3.328125 35.546875 0.953125 
Q 30.953125 -1.421875 24.3125 -1.421875 
Q 15.921875 -1.421875 10.953125 3.296875 
Q 6 8.015625 6 15.921875 
Q 6 25.140625 12.171875 29.828125 
Q 18.359375 34.515625 30.609375 34.515625 
L 43.21875 34.515625 
L 43.21875 35.40625 
Q 43.21875 41.609375 39.140625 45 
Q 35.0625 48.390625 27.6875 48.390625 
Q 23 48.390625 18.546875 47.265625 
Q 14.109375 46.140625 10.015625 43.890625 
L 10.015625 52.203125 
Q 14.9375 54.109375 19.578125 55.046875 
Q 24.21875 56 28.609375 56 
Q 40.484375 56 46.34375 49.84375 
Q 52.203125 43.703125 52.203125 31.203125 
z
" id="DejaVuSans-97"/>
       <path d="M 32.171875 -5.078125 
Q 28.375 -14.84375 24.75 -17.8125 
Q 21.140625 -20.796875 15.09375 -20.796875 
L 7.90625 -20.796875 
L 7.90625 -13.28125 
L 13.1875 -13.28125 
Q 16.890625 -13.28125 18.9375 -11.515625 
Q 21 -9.765625 23.484375 -3.21875 
L 25.09375 0.875 
L 2.984375 54.6875 
L 12.5 54.6875 
L 29.59375 11.921875 
L 46.6875 54.6875 
L 56.203125 54.6875 
z
" id="DejaVuSans-121"/>
       <path id="DejaVuSans-32"/>
       <path d="M 25.390625 72.90625 
L 33.6875 72.90625 
L 8.296875 -9.28125 
L 0 -9.28125 
z
" id="DejaVuSans-47"/>
       <path d="M 72.703125 32.078125 
Q 68.453125 32.078125 66.03125 28.46875 
Q 63.625 24.859375 63.625 18.40625 
Q 63.625 12.0625 66.03125 8.421875 
Q 68.453125 4.78125 72.703125 4.78125 
Q 76.859375 4.78125 79.265625 8.421875 
Q 81.6875 12.0625 81.6875 18.40625 
Q 81.6875 24.8125 79.265625 28.4375 
Q 76.859375 32.078125 72.703125 32.078125 
z
M 72.703125 38.28125 
Q 80.421875 38.28125 84.953125 32.90625 
Q 89.5 27.546875 89.5 18.40625 
Q 89.5 9.28125 84.9375 3.921875 
Q 80.375 -1.421875 72.703125 -1.421875 
Q 64.890625 -1.421875 60.34375 3.921875 
Q 55.8125 9.28125 55.8125 18.40625 
Q 55.8125 27.59375 60.375 32.9375 
Q 64.9375 38.28125 72.703125 38.28125 
z
M 22.3125 68.015625 
Q 18.109375 68.015625 15.6875 64.375 
Q 13.28125 60.75 13.28125 54.390625 
Q 13.28125 47.953125 15.671875 44.328125 
Q 18.0625 40.71875 22.3125 40.71875 
Q 26.5625 40.71875 28.96875 44.328125 
Q 31.390625 47.953125 31.390625 54.390625 
Q 31.390625 60.6875 28.953125 64.34375 
Q 26.515625 68.015625 22.3125 68.015625 
z
M 66.40625 74.21875 
L 74.21875 74.21875 
L 28.609375 -1.421875 
L 20.796875 -1.421875 
z
M 22.3125 74.21875 
Q 30.03125 74.21875 34.609375 68.875 
Q 39.203125 63.53125 39.203125 54.390625 
Q 39.203125 45.171875 34.640625 39.84375 
Q 30.078125 34.515625 22.3125 34.515625 
Q 14.546875 34.515625 10.03125 39.859375 
Q 5.515625 45.21875 5.515625 54.390625 
Q 5.515625 63.484375 10.046875 68.84375 
Q 14.59375 74.21875 22.3125 74.21875 
z
" id="DejaVuSans-37"/>
      </defs>
      <use xlink:href="#DejaVuSans-65"/>
      <use x="66.658203" xlink:href="#DejaVuSans-99"/>
      <use x="121.638672" xlink:href="#DejaVuSans-99"/>
      <use x="176.619141" xlink:href="#DejaVuSans-117"/>
      <use x="239.998047" xlink:href="#DejaVuSans-114"/>
      <use x="281.111328" xlink:href="#DejaVuSans-97"/>
      <use x="342.390625" xlink:href="#DejaVuSans-99"/>
      <use x="397.371094" xlink:href="#DejaVuSans-121"/>
      <use x="456.550781" xlink:href="#DejaVuSans-32"/>
      <use x="488.337891" xlink:href="#DejaVuSans-47"/>
      <use x="522.029297" xlink:href="#DejaVuSans-37"/>
     </g>
    </g>
   </g>
   <g id="matplotlib.axis_2">
    <g id="ytick_1">
     <g id="line2d_10">
      <defs>
       <path d="M 0 0 
L -3.5 0 
" id="md3ed9f088e" style="stroke:#000000;stroke-width:0.8;"/>
      </defs>
      <g>
       <use style="stroke:#000000;stroke-width:0.8;" x="144" xlink:href="#md3ed9f088e" y="359.04"/>
      </g>
     </g>
     <g id="text_11">
      <!-- $\mathdefault{10^{4}}$ -->
      <g transform="translate(94.76 368.158125)scale(0.24 -0.24)">
       <use transform="translate(0 0.684375)" xlink:href="#DejaVuSans-49"/>
       <use transform="translate(63.623047 0.684375)" xlink:href="#DejaVuSans-48"/>
       <use transform="translate(128.203125 38.965625)scale(0.7)" xlink:href="#DejaVuSans-52"/>
      </g>
     </g>
    </g>
    <g id="ytick_2">
     <g id="line2d_11">
      <g>
       <use style="stroke:#000000;stroke-width:0.8;" x="144" xlink:href="#md3ed9f088e" y="151.649126"/>
      </g>
     </g>
     <g id="text_12">
      <!-- $\mathdefault{10^{5}}$ -->
      <g transform="translate(94.76 160.767251)scale(0.24 -0.24)">
       <defs>
        <path d="M 10.796875 72.90625 
L 49.515625 72.90625 
L 49.515625 64.59375 
L 19.828125 64.59375 
L 19.828125 46.734375 
Q 21.96875 47.46875 24.109375 47.828125 
Q 26.265625 48.1875 28.421875 48.1875 
Q 40.625 48.1875 47.75 41.5 
Q 54.890625 34.8125 54.890625 23.390625 
Q 54.890625 11.625 47.5625 5.09375 
Q 40.234375 -1.421875 26.90625 -1.421875 
Q 22.3125 -1.421875 17.546875 -0.640625 
Q 12.796875 0.140625 7.71875 1.703125 
L 7.71875 11.625 
Q 12.109375 9.234375 16.796875 8.0625 
Q 21.484375 6.890625 26.703125 6.890625 
Q 35.15625 6.890625 40.078125 11.328125 
Q 45.015625 15.765625 45.015625 23.390625 
Q 45.015625 31 40.078125 35.4375 
Q 35.15625 39.890625 26.703125 39.890625 
Q 22.75 39.890625 18.8125 39.015625 
Q 14.890625 38.140625 10.796875 36.28125 
z
" id="DejaVuSans-53"/>
       </defs>
       <use transform="translate(0 0.684375)" xlink:href="#DejaVuSans-49"/>
       <use transform="translate(63.623047 0.684375)" xlink:href="#DejaVuSans-48"/>
       <use transform="translate(128.203125 38.965625)scale(0.7)" xlink:href="#DejaVuSans-53"/>
      </g>
     </g>
    </g>
    <g id="ytick_3">
     <g id="line2d_12">
      <defs>
       <path d="M 0 0 
L -2 0 
" id="m35c208b47c" style="stroke:#000000;stroke-width:0.6;"/>
      </defs>
      <g>
       <use style="stroke:#000000;stroke-width:0.6;" x="144" xlink:href="#m35c208b47c" y="504"/>
      </g>
     </g>
    </g>
    <g id="ytick_4">
     <g id="line2d_13">
      <g>
       <use style="stroke:#000000;stroke-width:0.6;" x="144" xlink:href="#m35c208b47c" y="467.48028"/>
      </g>
     </g>
    </g>
    <g id="ytick_5">
     <g id="line2d_14">
      <g>
       <use style="stroke:#000000;stroke-width:0.6;" x="144" xlink:href="#m35c208b47c" y="441.569126"/>
      </g>
     </g>
    </g>
    <g id="ytick_6">
     <g id="line2d_15">
      <g>
       <use style="stroke:#000000;stroke-width:0.6;" x="144" xlink:href="#m35c208b47c" y="421.470874"/>
      </g>
     </g>
    </g>
    <g id="ytick_7">
     <g id="line2d_16">
      <g>
       <use style="stroke:#000000;stroke-width:0.6;" x="144" xlink:href="#m35c208b47c" y="405.049406"/>
      </g>
     </g>
    </g>
    <g id="ytick_8">
     <g id="line2d_17">
      <g>
       <use style="stroke:#000000;stroke-width:0.6;" x="144" xlink:href="#m35c208b47c" y="391.165253"/>
      </g>
     </g>
    </g>
    <g id="ytick_9">
     <g id="line2d_18">
      <g>
       <use style="stroke:#000000;stroke-width:0.6;" x="144" xlink:href="#m35c208b47c" y="379.138252"/>
      </g>
     </g>
    </g>
    <g id="ytick_10">
     <g id="line2d_19">
      <g>
       <use style="stroke:#000000;stroke-width:0.6;" x="144" xlink:href="#m35c208b47c" y="368.529686"/>
      </g>
     </g>
    </g>
    <g id="ytick_11">
     <g id="line2d_20">
      <g>
       <use style="stroke:#000000;stroke-width:0.6;" x="144" xlink:href="#m35c208b47c" y="296.609126"/>
      </g>
     </g>
    </g>
    <g id="ytick_12">
     <g id="line2d_21">
      <g>
       <use style="stroke:#000000;stroke-width:0.6;" x="144" xlink:href="#m35c208b47c" y="260.089406"/>
      </g>
     </g>
    </g>
    <g id="ytick_13">
     <g id="line2d_22">
      <g>
       <use style="stroke:#000000;stroke-width:0.6;" x="144" xlink:href="#m35c208b47c" y="234.178252"/>
      </g>
     </g>
    </g>
    <g id="ytick_14">
     <g id="line2d_23">
      <g>
       <use style="stroke:#000000;stroke-width:0.6;" x="144" xlink:href="#m35c208b47c" y="214.08"/>
      </g>
     </g>
    </g>
    <g id="ytick_15">
     <g id="line2d_24">
      <g>
       <use style="stroke:#000000;stroke-width:0.6;" x="144" xlink:href="#m35c208b47c" y="197.658532"/>
      </g>
     </g>
    </g>
    <g id="ytick_16">
     <g id="line2d_25">
      <g>
       <use style="stroke:#000000;stroke-width:0.6;" x="144" xlink:href="#m35c208b47c" y="183.774379"/>
      </g>
     </g>
    </g>
    <g id="ytick_17">
     <g id="line2d_26">
      <g>
       <use style="stroke:#000000;stroke-width:0.6;" x="144" xlink:href="#m35c208b47c" y="171.747378"/>
      </g>
     </g>
    </g>
    <g id="ytick_18">
     <g id="line2d_27">
      <g>
       <use style="stroke:#000000;stroke-width:0.6;" x="144" xlink:href="#m35c208b47c" y="161.138812"/>
      </g>
     </g>
    </g>
    <g id="ytick_19">
     <g id="line2d_28">
      <g>
       <use style="stroke:#000000;stroke-width:0.6;" x="144" xlink:href="#m35c208b47c" y="89.218252"/>
      </g>
     </g>
    </g>
    <g id="text_13">
     <!-- Energy /A.U. -->
     <g transform="translate(84.936875 373.22)rotate(-90)scale(0.28 -0.28)">
      <defs>
       <path d="M 9.8125 72.90625 
L 55.90625 72.90625 
L 55.90625 64.59375 
L 19.671875 64.59375 
L 19.671875 43.015625 
L 54.390625 43.015625 
L 54.390625 34.71875 
L 19.671875 34.71875 
L 19.671875 8.296875 
L 56.78125 8.296875 
L 56.78125 0 
L 9.8125 0 
z
" id="DejaVuSans-69"/>
       <path d="M 54.890625 33.015625 
L 54.890625 0 
L 45.90625 0 
L 45.90625 32.71875 
Q 45.90625 40.484375 42.875 44.328125 
Q 39.84375 48.1875 33.796875 48.1875 
Q 26.515625 48.1875 22.3125 43.546875 
Q 18.109375 38.921875 18.109375 30.90625 
L 18.109375 0 
L 9.078125 0 
L 9.078125 54.6875 
L 18.109375 54.6875 
L 18.109375 46.1875 
Q 21.34375 51.125 25.703125 53.5625 
Q 30.078125 56 35.796875 56 
Q 45.21875 56 50.046875 50.171875 
Q 54.890625 44.34375 54.890625 33.015625 
z
" id="DejaVuSans-110"/>
       <path d="M 56.203125 29.59375 
L 56.203125 25.203125 
L 14.890625 25.203125 
Q 15.484375 15.921875 20.484375 11.0625 
Q 25.484375 6.203125 34.421875 6.203125 
Q 39.59375 6.203125 44.453125 7.46875 
Q 49.3125 8.734375 54.109375 11.28125 
L 54.109375 2.78125 
Q 49.265625 0.734375 44.1875 -0.34375 
Q 39.109375 -1.421875 33.890625 -1.421875 
Q 20.796875 -1.421875 13.15625 6.1875 
Q 5.515625 13.8125 5.515625 26.8125 
Q 5.515625 40.234375 12.765625 48.109375 
Q 20.015625 56 32.328125 56 
Q 43.359375 56 49.78125 48.890625 
Q 56.203125 41.796875 56.203125 29.59375 
z
M 47.21875 32.234375 
Q 47.125 39.59375 43.09375 43.984375 
Q 39.0625 48.390625 32.421875 48.390625 
Q 24.90625 48.390625 20.390625 44.140625 
Q 15.875 39.890625 15.1875 32.171875 
z
" id="DejaVuSans-101"/>
       <path d="M 45.40625 27.984375 
Q 45.40625 37.75 41.375 43.109375 
Q 37.359375 48.484375 30.078125 48.484375 
Q 22.859375 48.484375 18.828125 43.109375 
Q 14.796875 37.75 14.796875 27.984375 
Q 14.796875 18.265625 18.828125 12.890625 
Q 22.859375 7.515625 30.078125 7.515625 
Q 37.359375 7.515625 41.375 12.890625 
Q 45.40625 18.265625 45.40625 27.984375 
z
M 54.390625 6.78125 
Q 54.390625 -7.171875 48.1875 -13.984375 
Q 42 -20.796875 29.203125 -20.796875 
Q 24.46875 -20.796875 20.265625 -20.09375 
Q 16.0625 -19.390625 12.109375 -17.921875 
L 12.109375 -9.1875 
Q 16.0625 -11.328125 19.921875 -12.34375 
Q 23.78125 -13.375 27.78125 -13.375 
Q 36.625 -13.375 41.015625 -8.765625 
Q 45.40625 -4.15625 45.40625 5.171875 
L 45.40625 9.625 
Q 42.625 4.78125 38.28125 2.390625 
Q 33.9375 0 27.875 0 
Q 17.828125 0 11.671875 7.65625 
Q 5.515625 15.328125 5.515625 27.984375 
Q 5.515625 40.671875 11.671875 48.328125 
Q 17.828125 56 27.875 56 
Q 33.9375 56 38.28125 53.609375 
Q 42.625 51.21875 45.40625 46.390625 
L 45.40625 54.6875 
L 54.390625 54.6875 
z
" id="DejaVuSans-103"/>
       <path d="M 10.6875 12.40625 
L 21 12.40625 
L 21 0 
L 10.6875 0 
z
" id="DejaVuSans-46"/>
       <path d="M 8.6875 72.90625 
L 18.609375 72.90625 
L 18.609375 28.609375 
Q 18.609375 16.890625 22.84375 11.734375 
Q 27.09375 6.59375 36.625 6.59375 
Q 46.09375 6.59375 50.34375 11.734375 
Q 54.59375 16.890625 54.59375 28.609375 
L 54.59375 72.90625 
L 64.5 72.90625 
L 64.5 27.390625 
Q 64.5 13.140625 57.4375 5.859375 
Q 50.390625 -1.421875 36.625 -1.421875 
Q 22.796875 -1.421875 15.734375 5.859375 
Q 8.6875 13.140625 8.6875 27.390625 
z
" id="DejaVuSans-85"/>
      </defs>
      <use xlink:href="#DejaVuSans-69"/>
      <use x="63.183594" xlink:href="#DejaVuSans-110"/>
      <use x="126.5625" xlink:href="#DejaVuSans-101"/>
      <use x="188.085938" xlink:href="#DejaVuSans-114"/>
      <use x="227.449219" xlink:href="#DejaVuSans-103"/>
      <use x="290.925781" xlink:href="#DejaVuSans-121"/>
      <use x="350.105469" xlink:href="#DejaVuSans-32"/>
      <use x="381.892578" xlink:href="#DejaVuSans-47"/>
      <use x="415.583984" xlink:href="#DejaVuSans-65"/>
      <use x="482.242188" xlink:href="#DejaVuSans-46"/>
      <use x="514.029297" xlink:href="#DejaVuSans-85"/>
      <use x="587.222656" xlink:href="#DejaVuSans-46"/>
     </g>
    </g>
   </g>
   <g id="line2d_29">
    <path clip-path="url(#pb4241df023)" d="M 191.43 457.540092 
L 340.416 402.680118 
L 456.48 372.173517 
L 496.656 351.24472 
L 508.932 335.028081 
L 525.114 322.05274 
L 559.71 310.899634 
L 577.566 301.434228 
L 588.726 292.923138 
L 593.19 285.417501 
L 613.278 278.257013 
L 616.626 272.188764 
L 632.25 266.455294 
L 635.04 261.343031 
L 642.294 256.580502 
L 660.708 252.296879 
L 644.526 248.1271 
L 665.73 244.208174 
L 662.94 240.388066 
L 682.47 237.038524 
L 687.492 233.716038 
L 690.84 230.39958 
L 700.326 227.439795 
L 703.674 224.650205 
L 715.392 222.030932 
L 718.182 219.47791 
L 723.204 216.901254 
L 718.74 214.529756 
L 729.9 212.243365 
L 734.922 210.048385 
L 724.878 207.792026 
L 734.364 205.753445 
L 752.778 203.886831 
L 745.524 201.930944 
L 754.452 200.07216 
L 768.96 198.24181 
L 761.706 196.510908 
L 772.308 194.945453 
L 772.866 193.254168 
L 777.888 191.61447 
L 773.982 190.140086 
L 783.468 188.63722 
L 780.678 187.260386 
L 777.33 185.911069 
L 790.722 184.474314 
L 791.28 183.123751 
L 800.766 181.758284 
L 805.788 180.467694 
L 799.092 179.232269 
L 806.346 177.989638 
L 800.208 176.828831 
L 806.346 175.68382 
L 802.998 174.553675 
L 812.484 173.446102 
L 817.506 172.32842 
L 810.252 171.170282 
L 820.296 170.139925 
L 823.086 169.158983 
L 822.528 168.080742 
L 832.014 167.066916 
L 825.318 166.12492 
L 836.478 164.266958 
L 833.13 163.326694 
L 832.572 162.422976 
L 840.384 161.5382 
L 835.92 160.65247 
L 844.29 159.769908 
L 839.268 158.911081 
L 842.058 158.107768 
L 838.71 157.273178 
L 843.732 156.462072 
L 847.638 155.632079 
L 848.196 154.853107 
L 853.776 154.070124 
L 848.754 153.300461 
L 845.964 152.614006 
L 848.196 151.864413 
L 855.45 151.169879 
L 846.522 150.47798 
L 857.682 149.731363 
L 854.334 149.05285 
L 858.798 148.338975 
L 858.24 147.630876 
L 855.45 146.995929 
L 859.914 146.295149 
L 864.936 145.677375 
L 860.472 144.978929 
L 857.124 143.749505 
L 862.704 143.11055 
L 862.146 142.507191 
L 863.262 141.885627 
L 872.19 141.278307 
L 867.726 140.695003 
L 872.748 140.084109 
L 871.632 139.513614 
L 877.212 138.966566 
L 863.82 138.394665 
L 878.328 137.844185 
L 869.4 137.308769 
L 871.632 136.767476 
L 869.4 136.218249 
L 878.328 135.632761 
L 879.444 135.12925 
L 882.234 134.618925 
L 877.77 134.094526 
L 871.074 133.545733 
L 876.654 133.056271 
L 875.538 132.540497 
L 882.792 132.019789 
L 880.002 131.53789 
L 872.19 131.054408 
L 883.35 130.564457 
L 878.328 130.092106 
L 883.908 129.590181 
L 883.908 129.140541 
L 882.234 128.654383 
L 887.256 128.221412 
L 880.002 127.780037 
L 887.814 127.313534 
L 890.046 126.850505 
L 886.698 126.425584 
L 888.372 125.961494 
L 885.582 125.515753 
L 890.604 125.082682 
L 887.814 124.658223 
L 898.416 123.836438 
L 891.72 123.425327 
L 897.3 123.017224 
L 898.416 122.231209 
L 888.372 121.836077 
L 898.974 121.432847 
L 894.51 121.051103 
L 895.626 120.661168 
L 892.278 120.266908 
L 895.626 119.87528 
L 891.162 119.497013 
L 891.72 119.124546 
L 898.416 118.750103 
L 899.532 118.367387 
L 898.974 117.995053 
L 899.532 117.652724 
L 902.322 117.258523 
L 901.206 116.970155 
L 898.974 116.595407 
L 890.604 115.899689 
L 902.88 115.544583 
L 903.438 115.161155 
L 904.554 114.76532 
L 907.902 114.432004 
L 907.344 114.117182 
L 903.996 113.795178 
L 904.554 113.470382 
L 902.322 113.141333 
L 902.322 112.802577 
L 898.974 112.468269 
L 904.554 112.14805 
L 895.626 111.796416 
L 909.576 111.448779 
L 896.742 110.836627 
L 902.322 110.529181 
L 903.996 110.229669 
L 903.438 109.933023 
L 907.344 109.333766 
L 904.554 109.056662 
L 904.554 108.768792 
L 911.808 108.145416 
L 905.112 107.824262 
L 905.67 107.522286 
L 909.018 107.230051 
L 907.902 106.980251 
L 910.134 106.700771 
L 910.692 106.40575 
L 910.134 106.121771 
L 910.692 105.845114 
L 902.322 105.553377 
L 910.134 105.284125 
L 913.482 105.01157 
L 907.344 104.725579 
L 909.018 104.472825 
L 912.366 104.232377 
L 907.902 103.916196 
L 913.482 103.661821 
L 909.576 103.386354 
L 916.272 103.12667 
L 909.018 102.63877 
L 909.018 102.38976 
L 912.924 102.126017 
L 912.366 101.8725 
L 909.018 101.59082 
L 904.554 101.343734 
L 910.134 101.061316 
L 911.808 100.8298 
L 912.366 100.561073 
L 913.482 100.321368 
L 910.134 100.08264 
L 916.83 99.86634 
L 913.482 99.394432 
L 910.134 99.158298 
L 917.388 98.897828 
L 912.924 98.643546 
L 914.598 98.399347 
L 907.344 98.162352 
L 913.482 97.935941 
L 914.04 97.699123 
L 918.504 97.462643 
L 914.598 97.012642 
L 915.714 96.784227 
L 915.156 96.560491 
L 915.714 96.33185 
L 912.924 96.120187 
L 917.388 95.702027 
L 917.388 95.48836 
L 916.83 95.288764 
L 920.736 95.043891 
L 917.388 94.829523 
L 924.642 94.403756 
L 921.294 94.198067 
L 920.178 93.990987 
L 914.598 93.798245 
L 917.388 93.384215 
L 920.736 93.19416 
L 919.62 92.970928 
L 914.598 92.544384 
L 912.924 92.338497 
L 917.388 92.13268 
L 917.946 91.950708 
L 920.178 91.747056 
L 915.156 91.364543 
L 916.83 91.177275 
L 923.526 90.809692 
L 920.178 90.385948 
L 916.83 90.205564 
L 916.272 89.999409 
L 916.83 89.805538 
L 914.598 89.64523 
L 920.178 89.44642 
L 913.482 89.271033 
L 919.62 88.889318 
L 916.272 88.697582 
L 916.272 88.526915 
L 914.598 88.347371 
L 922.968 88.164268 
L 920.178 87.98122 
L 923.526 87.807016 
L 918.504 87.618662 
L 924.642 87.446579 
L 920.736 87.266869 
L 914.598 87.099721 
L 920.178 86.915476 
L 920.178 86.75808 
L 922.968 86.585226 
L 918.504 86.248584 
L 921.852 86.075801 
L 918.504 85.883138 
L 921.852 85.698671 
L 918.504 85.394763 
L 919.062 85.238581 
L 921.852 85.091985 
L 917.946 84.907209 
L 920.736 84.563775 
L 917.388 84.382479 
L 922.41 84.233378 
L 916.272 84.0642 
L 920.736 83.90342 
L 919.62 83.747478 
L 920.178 83.584897 
L 922.968 83.425982 
L 923.526 83.273196 
L 922.968 83.1268 
L 922.968 82.988432 
L 929.664 82.845278 
L 920.736 82.680293 
L 925.758 82.50684 
L 920.736 82.188034 
L 924.642 82.024493 
L 921.294 81.879475 
L 925.758 81.734236 
L 924.084 81.578619 
L 920.178 81.435399 
L 924.642 81.29258 
L 917.388 81.127237 
L 927.432 80.97992 
L 919.062 80.843772 
L 921.294 80.698665 
L 926.874 80.548879 
L 920.736 80.407432 
L 921.294 80.26329 
L 923.526 80.128807 
L 921.294 79.84049 
L 923.526 79.69617 
L 921.852 79.561319 
L 923.526 79.437109 
L 926.874 79.308829 
L 922.968 79.037374 
L 920.736 78.754765 
L 925.758 78.622888 
L 924.084 78.47881 
L 919.62 78.332323 
L 924.084 78.215151 
L 924.084 78.084358 
L 921.852 77.955478 
L 924.084 77.832742 
L 922.968 77.69983 
L 920.736 77.565193 
L 922.968 77.438296 
L 922.41 77.312743 
L 923.526 77.188904 
L 920.736 77.049138 
L 927.99 76.909886 
L 922.968 76.767149 
L 924.084 76.660213 
L 927.432 76.5523 
L 924.642 76.436857 
L 926.874 76.30756 
L 926.874 76.185098 
L 926.316 76.059651 
L 924.084 75.934114 
L 924.084 75.80235 
L 926.316 75.664804 
L 924.642 75.539547 
L 925.2 75.399719 
L 928.548 75.277603 
L 928.548 75.159884 
L 927.432 75.049889 
L 923.526 74.935845 
L 925.2 74.8184 
L 925.2 74.698988 
L 926.874 74.575725 
L 921.294 74.445559 
L 930.78 74.316357 
L 925.758 74.206552 
L 926.316 74.083988 
L 927.432 73.967629 
L 927.432 73.967629 
" style="fill:none;stroke:#1f1f1f;stroke-linecap:square;stroke-width:5;"/>
   </g>
   <g id="line2d_30">
    <path clip-path="url(#pb4241df023)" d="M 212.620661 577 
L 215.424 576.557343 
L 210.402 568.730548 
L 252.81 561.630091 
L 282.384 554.367221 
L 320.886 547.920018 
L 310.284 542.010713 
L 314.748 535.990318 
L 311.958 530.408956 
L 337.626 524.59215 
L 338.742 519.411895 
L 335.952 514.392487 
L 375.012 509.851883 
L 376.128 505.279686 
L 388.962 500.952597 
L 386.172 496.858293 
L 388.404 493.046308 
L 406.818 489.170255 
L 402.912 485.357376 
L 416.862 481.898186 
L 398.448 478.568237 
L 395.658 475.01271 
L 432.486 471.739118 
L 416.304 468.6388 
L 435.276 465.46955 
L 421.326 462.579253 
L 459.27 459.725795 
L 445.878 456.820401 
L 453.132 454.306207 
L 459.828 451.742099 
L 457.038 449.260482 
L 454.248 446.941807 
L 467.082 444.272246 
L 474.894 441.874787 
L 490.518 439.761821 
L 482.148 437.524066 
L 487.17 435.318868 
L 487.728 433.049379 
L 487.17 431.011257 
L 479.358 428.969811 
L 487.17 426.950309 
L 481.032 425.124251 
L 493.308 423.131418 
L 500.562 421.118702 
L 502.794 419.499783 
L 502.236 417.640033 
L 505.026 415.92753 
L 517.86 414.246127 
L 505.584 412.452546 
L 529.02 410.820728 
L 521.208 409.001009 
L 540.18 407.4465 
L 522.882 405.894605 
L 541.854 404.512046 
L 529.578 403.003465 
L 538.506 401.531232 
L 542.97 400.097516 
L 532.368 398.716033 
L 546.318 397.297871 
L 547.992 395.802748 
L 533.484 394.586171 
L 542.97 393.250506 
L 555.804 391.855408 
L 553.572 390.505258 
L 547.992 389.247088 
L 539.064 388.097569 
L 565.848 386.872163 
L 547.992 385.698894 
L 560.826 384.625231 
L 547.992 383.387058 
L 565.848 382.150284 
L 571.986 381.0542 
L 569.754 379.989082 
L 568.08 378.86095 
L 575.892 377.818018 
L 578.124 376.687177 
L 567.522 375.618327 
L 587.052 374.606619 
L 579.24 373.584918 
L 563.058 372.615323 
L 583.704 371.596257 
L 594.306 370.613942 
L 594.306 369.67905 
L 588.726 367.817054 
L 599.328 366.904838 
L 598.77 365.956178 
L 571.986 365.069952 
L 595.98 364.167971 
L 599.886 363.384048 
L 609.372 362.464135 
L 612.162 361.587889 
L 583.704 360.807835 
L 605.466 359.953729 
L 616.626 359.056458 
L 611.046 358.227654 
L 606.582 357.409746 
L 611.046 356.681617 
L 593.748 355.967456 
L 611.604 355.190783 
L 609.372 354.366958 
L 614.952 353.5543 
L 607.698 352.822251 
L 617.742 352.160916 
L 595.422 351.452853 
L 606.582 350.768531 
L 603.234 349.997841 
L 620.532 349.217428 
L 622.206 348.537291 
L 614.394 347.777345 
L 628.344 347.139935 
L 632.25 346.474651 
L 630.018 345.771653 
L 632.808 345.148599 
L 632.25 344.485132 
L 642.852 343.833642 
L 629.46 343.179925 
L 626.112 342.586845 
L 634.482 341.922407 
L 647.316 341.28027 
L 643.41 340.60983 
L 629.46 340.014611 
L 642.294 339.379042 
L 644.526 338.725656 
L 655.128 338.150071 
L 636.156 337.523451 
L 652.896 336.952674 
L 643.968 336.39769 
L 651.78 335.757099 
L 634.482 335.149443 
L 646.758 334.06942 
L 658.476 333.571376 
L 652.896 333.006161 
L 652.338 332.464589 
L 660.15 331.885625 
L 660.708 331.418028 
L 663.498 330.831421 
L 661.824 330.336118 
L 661.824 329.813804 
L 656.244 329.276846 
L 666.288 328.738224 
L 660.708 328.246325 
L 656.802 327.754862 
L 657.918 327.27414 
L 655.686 326.768885 
L 665.172 326.307272 
L 662.382 325.841798 
L 676.332 325.369038 
L 665.73 324.85127 
L 672.426 324.387153 
L 662.382 323.932142 
L 672.984 323.465974 
L 669.636 322.980121 
L 665.172 322.556997 
L 678.006 321.594681 
L 674.658 321.175119 
L 659.034 320.680794 
L 679.122 320.252412 
L 683.586 319.792139 
L 664.056 319.407145 
L 680.796 318.963784 
L 672.426 318.50376 
L 694.188 317.614527 
L 686.934 317.185229 
L 693.63 316.798908 
L 690.282 316.373926 
L 688.05 315.947617 
L 690.282 315.505242 
L 686.376 315.072321 
L 679.122 314.692963 
L 687.492 314.274957 
L 685.818 313.895917 
L 688.608 313.495033 
L 697.536 313.134047 
L 685.818 312.743692 
L 698.094 312.361865 
L 694.188 312.010847 
L 702 311.613947 
L 689.166 311.211957 
L 696.978 310.804676 
L 690.84 310.379874 
L 694.746 309.966792 
L 693.072 309.587459 
L 701.442 309.222227 
L 694.746 308.830905 
L 699.21 308.462624 
L 695.304 308.088394 
L 694.746 307.706646 
L 700.884 306.989557 
L 710.928 305.944861 
L 708.696 305.609389 
L 711.486 305.263944 
L 706.464 304.91731 
L 693.072 304.567784 
L 705.348 304.221391 
L 703.674 303.85233 
L 712.044 303.486134 
L 702 303.157108 
L 716.508 302.816452 
L 710.928 302.486208 
L 718.182 302.156948 
L 704.79 301.815751 
L 708.138 301.489576 
L 713.16 301.162278 
L 715.392 300.865016 
L 707.58 300.531507 
L 707.022 300.239661 
L 705.348 299.906214 
L 699.768 299.583268 
L 723.204 298.98194 
L 724.32 298.652341 
L 713.16 298.350172 
L 717.624 298.031135 
L 716.508 297.713908 
L 732.69 297.411285 
L 719.298 297.080066 
L 717.624 296.780597 
L 720.414 296.208407 
L 723.204 295.919978 
L 729.342 295.60931 
L 728.226 295.292495 
L 736.038 294.996643 
L 721.53 294.698013 
L 721.53 294.402344 
L 730.458 293.854139 
L 727.668 293.324614 
L 726.552 293.031723 
L 727.668 292.738812 
L 734.922 292.442276 
L 731.016 292.171329 
L 737.154 291.331708 
L 743.292 291.068358 
L 733.806 290.79032 
L 743.292 290.550065 
L 733.248 290.271974 
L 738.828 290.04575 
L 737.154 289.759269 
L 739.386 289.484183 
L 736.596 289.222764 
L 736.038 288.963039 
L 734.364 288.716296 
L 735.48 288.442716 
L 727.668 288.154794 
L 738.27 287.896176 
L 736.596 287.640084 
L 743.292 287.383763 
L 739.944 287.129318 
L 729.9 286.881804 
L 746.64 286.61485 
L 743.292 286.369907 
L 744.408 286.153417 
L 742.176 285.884329 
L 751.662 285.668177 
L 740.502 285.381584 
L 745.524 285.116704 
L 747.198 284.880756 
L 753.894 284.644949 
L 746.082 284.421834 
L 749.43 284.200629 
L 729.342 283.949696 
L 744.966 283.709731 
L 742.176 283.463539 
L 744.966 283.217524 
L 753.336 283.008658 
L 747.198 282.774301 
L 747.198 282.541776 
L 746.64 282.30714 
L 752.22 282.064799 
L 746.082 281.829153 
L 755.568 281.603099 
L 753.336 281.373622 
L 741.06 280.94989 
L 757.8 280.735764 
L 761.706 280.272781 
L 751.662 280.067638 
L 751.662 279.850539 
L 762.264 279.617147 
L 757.242 279.376541 
L 758.358 279.148731 
L 747.198 278.930026 
L 761.706 278.482324 
L 746.64 278.258719 
L 756.684 278.062956 
L 756.126 277.832513 
L 762.822 277.606805 
L 747.756 277.412212 
L 751.104 277.201352 
L 761.148 276.958208 
L 763.938 276.547387 
L 759.474 276.1207 
L 763.38 275.929244 
L 752.778 275.736602 
L 761.148 275.304011 
L 761.148 275.101041 
L 757.8 274.889219 
L 758.358 274.683863 
L 762.264 274.473479 
L 756.126 274.289827 
L 757.242 274.098511 
L 768.96 273.870908 
L 766.17 273.662439 
L 758.916 273.451295 
L 756.126 273.248721 
L 763.38 273.079285 
L 766.17 272.857863 
L 764.496 272.493905 
L 766.17 272.298075 
L 772.308 271.925218 
L 772.308 271.76607 
L 765.612 271.557516 
L 766.728 271.376714 
L 748.872 271.179805 
L 767.286 270.80512 
L 765.054 270.600674 
L 766.17 270.405418 
L 773.424 270.231381 
L 757.8 269.857414 
L 760.032 269.673717 
L 774.54 269.492766 
L 765.054 269.298396 
L 775.098 268.963116 
L 768.402 268.791058 
L 774.54 268.625266 
L 775.656 268.456776 
L 756.126 268.249486 
L 772.866 268.08037 
L 766.728 267.881808 
L 781.794 267.700362 
L 760.59 267.512648 
L 760.59 267.512648 
" style="fill:none;stroke:#9041ff;stroke-linecap:square;stroke-width:5;"/>
   </g>
   <g id="patch_3">
    <path d="M 144 504 
L 144 69.12 
" style="fill:none;stroke:#000000;stroke-linecap:square;stroke-linejoin:miter;stroke-width:0.8;"/>
   </g>
   <g id="patch_4">
    <path d="M 1036.8 504 
L 1036.8 69.12 
" style="fill:none;stroke:#000000;stroke-linecap:square;stroke-linejoin:miter;stroke-width:0.8;"/>
   </g>
   <g id="patch_5">
    <path d="M 144 504 
L 1036.8 504 
" style="fill:none;stroke:#000000;stroke-linecap:square;stroke-linejoin:miter;stroke-width:0.8;"/>
   </g>
   <g id="patch_6">
    <path d="M 144 69.12 
L 1036.8 69.12 
" style="fill:none;stroke:#000000;stroke-linecap:square;stroke-linejoin:miter;stroke-width:0.8;"/>
   </g>
   <g id="text_14">
    <!-- Gated: Energy vs. Accuracy with 250 Units @ 0.25 -->
    <g transform="translate(136.442813 61.633125)scale(0.36 -0.36)">
     <defs>
      <path d="M 59.515625 10.40625 
L 59.515625 29.984375 
L 43.40625 29.984375 
L 43.40625 38.09375 
L 69.28125 38.09375 
L 69.28125 6.78125 
Q 63.578125 2.734375 56.6875 0.65625 
Q 49.8125 -1.421875 42 -1.421875 
Q 24.90625 -1.421875 15.25 8.5625 
Q 5.609375 18.5625 5.609375 36.375 
Q 5.609375 54.25 15.25 64.234375 
Q 24.90625 74.21875 42 74.21875 
Q 49.125 74.21875 55.546875 72.453125 
Q 61.96875 70.703125 67.390625 67.28125 
L 67.390625 56.78125 
Q 61.921875 61.421875 55.765625 63.765625 
Q 49.609375 66.109375 42.828125 66.109375 
Q 29.4375 66.109375 22.71875 58.640625 
Q 16.015625 51.171875 16.015625 36.375 
Q 16.015625 21.625 22.71875 14.15625 
Q 29.4375 6.6875 42.828125 6.6875 
Q 48.046875 6.6875 52.140625 7.59375 
Q 56.25 8.5 59.515625 10.40625 
z
" id="DejaVuSans-71"/>
      <path d="M 18.3125 70.21875 
L 18.3125 54.6875 
L 36.8125 54.6875 
L 36.8125 47.703125 
L 18.3125 47.703125 
L 18.3125 18.015625 
Q 18.3125 11.328125 20.140625 9.421875 
Q 21.96875 7.515625 27.59375 7.515625 
L 36.8125 7.515625 
L 36.8125 0 
L 27.59375 0 
Q 17.1875 0 13.234375 3.875 
Q 9.28125 7.765625 9.28125 18.015625 
L 9.28125 47.703125 
L 2.6875 47.703125 
L 2.6875 54.6875 
L 9.28125 54.6875 
L 9.28125 70.21875 
z
" id="DejaVuSans-116"/>
      <path d="M 45.40625 46.390625 
L 45.40625 75.984375 
L 54.390625 75.984375 
L 54.390625 0 
L 45.40625 0 
L 45.40625 8.203125 
Q 42.578125 3.328125 38.25 0.953125 
Q 33.9375 -1.421875 27.875 -1.421875 
Q 17.96875 -1.421875 11.734375 6.484375 
Q 5.515625 14.40625 5.515625 27.296875 
Q 5.515625 40.1875 11.734375 48.09375 
Q 17.96875 56 27.875 56 
Q 33.9375 56 38.25 53.625 
Q 42.578125 51.265625 45.40625 46.390625 
z
M 14.796875 27.296875 
Q 14.796875 17.390625 18.875 11.75 
Q 22.953125 6.109375 30.078125 6.109375 
Q 37.203125 6.109375 41.296875 11.75 
Q 45.40625 17.390625 45.40625 27.296875 
Q 45.40625 37.203125 41.296875 42.84375 
Q 37.203125 48.484375 30.078125 48.484375 
Q 22.953125 48.484375 18.875 42.84375 
Q 14.796875 37.203125 14.796875 27.296875 
z
" id="DejaVuSans-100"/>
      <path d="M 11.71875 12.40625 
L 22.015625 12.40625 
L 22.015625 0 
L 11.71875 0 
z
M 11.71875 51.703125 
L 22.015625 51.703125 
L 22.015625 39.3125 
L 11.71875 39.3125 
z
" id="DejaVuSans-58"/>
      <path d="M 2.984375 54.6875 
L 12.5 54.6875 
L 29.59375 8.796875 
L 46.6875 54.6875 
L 56.203125 54.6875 
L 35.6875 0 
L 23.484375 0 
z
" id="DejaVuSans-118"/>
      <path d="M 44.28125 53.078125 
L 44.28125 44.578125 
Q 40.484375 46.53125 36.375 47.5 
Q 32.28125 48.484375 27.875 48.484375 
Q 21.1875 48.484375 17.84375 46.4375 
Q 14.5 44.390625 14.5 40.28125 
Q 14.5 37.15625 16.890625 35.375 
Q 19.28125 33.59375 26.515625 31.984375 
L 29.59375 31.296875 
Q 39.15625 29.25 43.1875 25.515625 
Q 47.21875 21.78125 47.21875 15.09375 
Q 47.21875 7.46875 41.1875 3.015625 
Q 35.15625 -1.421875 24.609375 -1.421875 
Q 20.21875 -1.421875 15.453125 -0.5625 
Q 10.6875 0.296875 5.421875 2 
L 5.421875 11.28125 
Q 10.40625 8.6875 15.234375 7.390625 
Q 20.0625 6.109375 24.8125 6.109375 
Q 31.15625 6.109375 34.5625 8.28125 
Q 37.984375 10.453125 37.984375 14.40625 
Q 37.984375 18.0625 35.515625 20.015625 
Q 33.0625 21.96875 24.703125 23.78125 
L 21.578125 24.515625 
Q 13.234375 26.265625 9.515625 29.90625 
Q 5.8125 33.546875 5.8125 39.890625 
Q 5.8125 47.609375 11.28125 51.796875 
Q 16.75 56 26.8125 56 
Q 31.78125 56 36.171875 55.265625 
Q 40.578125 54.546875 44.28125 53.078125 
z
" id="DejaVuSans-115"/>
      <path d="M 4.203125 54.6875 
L 13.1875 54.6875 
L 24.421875 12.015625 
L 35.59375 54.6875 
L 46.1875 54.6875 
L 57.421875 12.015625 
L 68.609375 54.6875 
L 77.59375 54.6875 
L 63.28125 0 
L 52.6875 0 
L 40.921875 44.828125 
L 29.109375 0 
L 18.5 0 
z
" id="DejaVuSans-119"/>
      <path d="M 9.421875 54.6875 
L 18.40625 54.6875 
L 18.40625 0 
L 9.421875 0 
z
M 9.421875 75.984375 
L 18.40625 75.984375 
L 18.40625 64.59375 
L 9.421875 64.59375 
z
" id="DejaVuSans-105"/>
      <path d="M 54.890625 33.015625 
L 54.890625 0 
L 45.90625 0 
L 45.90625 32.71875 
Q 45.90625 40.484375 42.875 44.328125 
Q 39.84375 48.1875 33.796875 48.1875 
Q 26.515625 48.1875 22.3125 43.546875 
Q 18.109375 38.921875 18.109375 30.90625 
L 18.109375 0 
L 9.078125 0 
L 9.078125 75.984375 
L 18.109375 75.984375 
L 18.109375 46.1875 
Q 21.34375 51.125 25.703125 53.5625 
Q 30.078125 56 35.796875 56 
Q 45.21875 56 50.046875 50.171875 
Q 54.890625 44.34375 54.890625 33.015625 
z
" id="DejaVuSans-104"/>
      <path d="M 37.203125 26.21875 
Q 37.203125 19.234375 40.671875 15.25 
Q 44.140625 11.28125 50.203125 11.28125 
Q 56.203125 11.28125 59.640625 15.28125 
Q 63.09375 19.28125 63.09375 26.21875 
Q 63.09375 33.0625 59.578125 37.078125 
Q 56.0625 41.109375 50.09375 41.109375 
Q 44.1875 41.109375 40.6875 37.109375 
Q 37.203125 33.109375 37.203125 26.21875 
z
M 63.8125 11.625 
Q 60.890625 7.859375 57.109375 6.078125 
Q 53.328125 4.296875 48.296875 4.296875 
Q 39.890625 4.296875 34.640625 10.375 
Q 29.390625 16.453125 29.390625 26.21875 
Q 29.390625 35.984375 34.65625 42.078125 
Q 39.9375 48.1875 48.296875 48.1875 
Q 53.328125 48.1875 57.125 46.359375 
Q 60.9375 44.53125 63.8125 40.828125 
L 63.8125 47.21875 
L 70.796875 47.21875 
L 70.796875 11.28125 
Q 77.9375 12.359375 81.953125 17.796875 
Q 85.984375 23.25 85.984375 31.890625 
Q 85.984375 37.109375 84.4375 41.703125 
Q 82.90625 46.296875 79.78125 50.203125 
Q 74.703125 56.59375 67.40625 59.984375 
Q 60.109375 63.375 51.515625 63.375 
Q 45.515625 63.375 39.984375 61.78125 
Q 34.46875 60.203125 29.78125 57.078125 
Q 22.125 52.09375 17.796875 44.015625 
Q 13.484375 35.9375 13.484375 26.515625 
Q 13.484375 18.75 16.28125 11.953125 
Q 19.09375 5.171875 24.421875 0 
Q 29.546875 -5.078125 36.28125 -7.734375 
Q 43.015625 -10.40625 50.6875 -10.40625 
Q 56.984375 -10.40625 63.0625 -8.28125 
Q 69.140625 -6.15625 74.21875 -2.203125 
L 78.609375 -7.625 
Q 72.515625 -12.359375 65.3125 -14.875 
Q 58.109375 -17.390625 50.6875 -17.390625 
Q 41.65625 -17.390625 33.640625 -14.1875 
Q 25.640625 -10.984375 19.390625 -4.890625 
Q 13.140625 1.21875 9.859375 9.25 
Q 6.59375 17.28125 6.59375 26.515625 
Q 6.59375 35.40625 9.90625 43.453125 
Q 13.234375 51.515625 19.390625 57.625 
Q 25.6875 63.8125 33.9375 67.109375 
Q 42.1875 70.40625 51.421875 70.40625 
Q 61.765625 70.40625 70.625 66.15625 
Q 79.5 61.921875 85.5 54.109375 
Q 89.15625 49.3125 91.078125 43.703125 
Q 93.015625 38.09375 93.015625 32.078125 
Q 93.015625 19.234375 85.25 11.8125 
Q 77.484375 4.390625 63.8125 4.109375 
z
" id="DejaVuSans-64"/>
     </defs>
     <use xlink:href="#DejaVuSans-71"/>
     <use x="77.490234" xlink:href="#DejaVuSans-97"/>
     <use x="138.769531" xlink:href="#DejaVuSans-116"/>
     <use x="177.978516" xlink:href="#DejaVuSans-101"/>
     <use x="239.501953" xlink:href="#DejaVuSans-100"/>
     <use x="302.978516" xlink:href="#DejaVuSans-58"/>
     <use x="336.669922" xlink:href="#DejaVuSans-32"/>
     <use x="368.457031" xlink:href="#DejaVuSans-69"/>
     <use x="431.640625" xlink:href="#DejaVuSans-110"/>
     <use x="495.019531" xlink:href="#DejaVuSans-101"/>
     <use x="556.542969" xlink:href="#DejaVuSans-114"/>
     <use x="595.90625" xlink:href="#DejaVuSans-103"/>
     <use x="659.382812" xlink:href="#DejaVuSans-121"/>
     <use x="718.5625" xlink:href="#DejaVuSans-32"/>
     <use x="750.349609" xlink:href="#DejaVuSans-118"/>
     <use x="809.529297" xlink:href="#DejaVuSans-115"/>
     <use x="861.628906" xlink:href="#DejaVuSans-46"/>
     <use x="893.416016" xlink:href="#DejaVuSans-32"/>
     <use x="925.203125" xlink:href="#DejaVuSans-65"/>
     <use x="991.861328" xlink:href="#DejaVuSans-99"/>
     <use x="1046.841797" xlink:href="#DejaVuSans-99"/>
     <use x="1101.822266" xlink:href="#DejaVuSans-117"/>
     <use x="1165.201172" xlink:href="#DejaVuSans-114"/>
     <use x="1206.314453" xlink:href="#DejaVuSans-97"/>
     <use x="1267.59375" xlink:href="#DejaVuSans-99"/>
     <use x="1322.574219" xlink:href="#DejaVuSans-121"/>
     <use x="1381.753906" xlink:href="#DejaVuSans-32"/>
     <use x="1413.541016" xlink:href="#DejaVuSans-119"/>
     <use x="1495.328125" xlink:href="#DejaVuSans-105"/>
     <use x="1523.111328" xlink:href="#DejaVuSans-116"/>
     <use x="1562.320312" xlink:href="#DejaVuSans-104"/>
     <use x="1625.699219" xlink:href="#DejaVuSans-32"/>
     <use x="1657.486328" xlink:href="#DejaVuSans-50"/>
     <use x="1721.109375" xlink:href="#DejaVuSans-53"/>
     <use x="1784.732422" xlink:href="#DejaVuSans-48"/>
     <use x="1848.355469" xlink:href="#DejaVuSans-32"/>
     <use x="1880.142578" xlink:href="#DejaVuSans-85"/>
     <use x="1953.335938" xlink:href="#DejaVuSans-110"/>
     <use x="2016.714844" xlink:href="#DejaVuSans-105"/>
     <use x="2044.498047" xlink:href="#DejaVuSans-116"/>
     <use x="2083.707031" xlink:href="#DejaVuSans-115"/>
     <use x="2135.806641" xlink:href="#DejaVuSans-32"/>
     <use x="2167.59375" xlink:href="#DejaVuSans-64"/>
     <use x="2267.59375" xlink:href="#DejaVuSans-32"/>
     <use x="2299.380859" xlink:href="#DejaVuSans-48"/>
     <use x="2363.003906" xlink:href="#DejaVuSans-46"/>
     <use x="2394.791016" xlink:href="#DejaVuSans-50"/>
     <use x="2458.414062" xlink:href="#DejaVuSans-53"/>
    </g>
   </g>
   <g id="legend_1">
    <g id="patch_7">
     <path d="M 807.989687 493 
L 1021.4 493 
Q 1025.8 493 1025.8 488.6 
L 1025.8 426.21625 
Q 1025.8 421.81625 1021.4 421.81625 
L 807.989687 421.81625 
Q 803.589687 421.81625 803.589687 426.21625 
L 803.589687 488.6 
Q 803.589687 493 807.989687 493 
z
" style="fill:#ffffff;opacity:0.8;stroke:#cccccc;stroke-linejoin:miter;"/>
    </g>
    <g id="line2d_31">
     <path d="M 812.389687 439.632812 
L 856.389687 439.632812 
" style="fill:none;stroke:#1f1f1f;stroke-linecap:square;stroke-width:5;"/>
    </g>
    <g id="line2d_32"/>
    <g id="text_15">
     <!-- Ungated: 1.0 -->
     <g transform="translate(873.989687 447.332812)scale(0.22 -0.22)">
      <use xlink:href="#DejaVuSans-85"/>
      <use x="73.193359" xlink:href="#DejaVuSans-110"/>
      <use x="136.572266" xlink:href="#DejaVuSans-103"/>
      <use x="200.048828" xlink:href="#DejaVuSans-97"/>
      <use x="261.328125" xlink:href="#DejaVuSans-116"/>
      <use x="300.537109" xlink:href="#DejaVuSans-101"/>
      <use x="362.060547" xlink:href="#DejaVuSans-100"/>
      <use x="425.537109" xlink:href="#DejaVuSans-58"/>
      <use x="459.228516" xlink:href="#DejaVuSans-32"/>
      <use x="491.015625" xlink:href="#DejaVuSans-49"/>
      <use x="554.638672" xlink:href="#DejaVuSans-46"/>
      <use x="586.425781" xlink:href="#DejaVuSans-48"/>
     </g>
    </g>
    <g id="line2d_33">
     <path d="M 812.389687 471.924688 
L 856.389687 471.924688 
" style="fill:none;stroke:#9041ff;stroke-linecap:square;stroke-width:5;"/>
    </g>
    <g id="line2d_34"/>
    <g id="text_16">
     <!-- Gated: 0.25 -->
     <g transform="translate(873.989687 479.624687)scale(0.22 -0.22)">
      <use xlink:href="#DejaVuSans-71"/>
      <use x="77.490234" xlink:href="#DejaVuSans-97"/>
      <use x="138.769531" xlink:href="#DejaVuSans-116"/>
      <use x="177.978516" xlink:href="#DejaVuSans-101"/>
      <use x="239.501953" xlink:href="#DejaVuSans-100"/>
      <use x="302.978516" xlink:href="#DejaVuSans-58"/>
      <use x="336.669922" xlink:href="#DejaVuSans-32"/>
      <use x="368.457031" xlink:href="#DejaVuSans-48"/>
      <use x="432.080078" xlink:href="#DejaVuSans-46"/>
      <use x="463.867188" xlink:href="#DejaVuSans-50"/>
      <use x="527.490234" xlink:href="#DejaVuSans-53"/>
     </g>
    </g>
   </g>
  </g>
 </g>
 <defs>
  <clipPath id="pb4241df023">
   <rect height="434.88" width="892.8" x="144" y="69.12"/>
  </clipPath>
 </defs>
</svg>
