<?xml version="1.0" encoding="utf-8" standalone="no"?>
<!DOCTYPE svg PUBLIC "-//W3C//DTD SVG 1.1//EN"
  "http://www.w3.org/Graphics/SVG/1.1/DTD/svg11.dtd">
<!-- Created with matplotlib (https://matplotlib.org/) -->
<svg height="576pt" version="1.1" viewBox="0 0 1152 576" width="1152pt" xmlns="http://www.w3.org/2000/svg" xmlns:xlink="http://www.w3.org/1999/xlink">
 <metadata>
  <rdf:RDF xmlns:cc="http://creativecommons.org/ns#" xmlns:dc="http://purl.org/dc/elements/1.1/" xmlns:rdf="http://www.w3.org/1999/02/22-rdf-syntax-ns#">
   <cc:Work>
    <dc:type rdf:resource="http://purl.org/dc/dcmitype/StillImage"/>
    <dc:date>2021-09-12T15:20:04.978879</dc:date>
    <dc:format>image/svg+xml</dc:format>
    <dc:creator>
     <cc:Agent>
      <dc:title>Matplotlib v3.3.4, https://matplotlib.org/</dc:title>
     </cc:Agent>
    </dc:creator>
   </cc:Work>
  </rdf:RDF>
 </metadata>
 <defs>
  <style type="text/css">*{stroke-linecap:butt;stroke-linejoin:round;}</style>
 </defs>
 <g id="figure_1">
  <g id="patch_1">
   <path d="M 0 576 
L 1152 576 
L 1152 0 
L 0 0 
z
" style="fill:#ffffff;"/>
  </g>
  <g id="axes_1">
   <g id="patch_2">
    <path d="M 144 504 
L 1036.8 504 
L 1036.8 69.12 
L 144 69.12 
z
" style="fill:#ffffff;"/>
   </g>
   <g id="matplotlib.axis_1">
    <g id="xtick_1">
     <g id="line2d_1">
      <defs>
       <path d="M 0 0 
L 0 3.5 
" id="m4c0ef62acb" style="stroke:#000000;stroke-width:0.8;"/>
      </defs>
      <g>
       <use style="stroke:#000000;stroke-width:0.8;" x="144" xlink:href="#m4c0ef62acb" y="504"/>
      </g>
     </g>
     <g id="text_1">
      <!-- 84 -->
      <g transform="translate(128.73 529.23625)scale(0.24 -0.24)">
       <defs>
        <path d="M 31.78125 34.625 
Q 24.75 34.625 20.71875 30.859375 
Q 16.703125 27.09375 16.703125 20.515625 
Q 16.703125 13.921875 20.71875 10.15625 
Q 24.75 6.390625 31.78125 6.390625 
Q 38.8125 6.390625 42.859375 10.171875 
Q 46.921875 13.96875 46.921875 20.515625 
Q 46.921875 27.09375 42.890625 30.859375 
Q 38.875 34.625 31.78125 34.625 
z
M 21.921875 38.8125 
Q 15.578125 40.375 12.03125 44.71875 
Q 8.5 49.078125 8.5 55.328125 
Q 8.5 64.0625 14.71875 69.140625 
Q 20.953125 74.21875 31.78125 74.21875 
Q 42.671875 74.21875 48.875 69.140625 
Q 55.078125 64.0625 55.078125 55.328125 
Q 55.078125 49.078125 51.53125 44.71875 
Q 48 40.375 41.703125 38.8125 
Q 48.828125 37.15625 52.796875 32.3125 
Q 56.78125 27.484375 56.78125 20.515625 
Q 56.78125 9.90625 50.3125 4.234375 
Q 43.84375 -1.421875 31.78125 -1.421875 
Q 19.734375 -1.421875 13.25 4.234375 
Q 6.78125 9.90625 6.78125 20.515625 
Q 6.78125 27.484375 10.78125 32.3125 
Q 14.796875 37.15625 21.921875 38.8125 
z
M 18.3125 54.390625 
Q 18.3125 48.734375 21.84375 45.5625 
Q 25.390625 42.390625 31.78125 42.390625 
Q 38.140625 42.390625 41.71875 45.5625 
Q 45.3125 48.734375 45.3125 54.390625 
Q 45.3125 60.0625 41.71875 63.234375 
Q 38.140625 66.40625 31.78125 66.40625 
Q 25.390625 66.40625 21.84375 63.234375 
Q 18.3125 60.0625 18.3125 54.390625 
z
" id="DejaVuSans-56"/>
        <path d="M 37.796875 64.3125 
L 12.890625 25.390625 
L 37.796875 25.390625 
z
M 35.203125 72.90625 
L 47.609375 72.90625 
L 47.609375 25.390625 
L 58.015625 25.390625 
L 58.015625 17.1875 
L 47.609375 17.1875 
L 47.609375 0 
L 37.796875 0 
L 37.796875 17.1875 
L 4.890625 17.1875 
L 4.890625 26.703125 
z
" id="DejaVuSans-52"/>
       </defs>
       <use xlink:href="#DejaVuSans-56"/>
       <use x="63.623047" xlink:href="#DejaVuSans-52"/>
      </g>
     </g>
    </g>
    <g id="xtick_2">
     <g id="line2d_2">
      <g>
       <use style="stroke:#000000;stroke-width:0.8;" x="255.6" xlink:href="#m4c0ef62acb" y="504"/>
      </g>
     </g>
     <g id="text_2">
      <!-- 86 -->
      <g transform="translate(240.33 529.23625)scale(0.24 -0.24)">
       <defs>
        <path d="M 33.015625 40.375 
Q 26.375 40.375 22.484375 35.828125 
Q 18.609375 31.296875 18.609375 23.390625 
Q 18.609375 15.53125 22.484375 10.953125 
Q 26.375 6.390625 33.015625 6.390625 
Q 39.65625 6.390625 43.53125 10.953125 
Q 47.40625 15.53125 47.40625 23.390625 
Q 47.40625 31.296875 43.53125 35.828125 
Q 39.65625 40.375 33.015625 40.375 
z
M 52.59375 71.296875 
L 52.59375 62.3125 
Q 48.875 64.0625 45.09375 64.984375 
Q 41.3125 65.921875 37.59375 65.921875 
Q 27.828125 65.921875 22.671875 59.328125 
Q 17.53125 52.734375 16.796875 39.40625 
Q 19.671875 43.65625 24.015625 45.921875 
Q 28.375 48.1875 33.59375 48.1875 
Q 44.578125 48.1875 50.953125 41.515625 
Q 57.328125 34.859375 57.328125 23.390625 
Q 57.328125 12.15625 50.6875 5.359375 
Q 44.046875 -1.421875 33.015625 -1.421875 
Q 20.359375 -1.421875 13.671875 8.265625 
Q 6.984375 17.96875 6.984375 36.375 
Q 6.984375 53.65625 15.1875 63.9375 
Q 23.390625 74.21875 37.203125 74.21875 
Q 40.921875 74.21875 44.703125 73.484375 
Q 48.484375 72.75 52.59375 71.296875 
z
" id="DejaVuSans-54"/>
       </defs>
       <use xlink:href="#DejaVuSans-56"/>
       <use x="63.623047" xlink:href="#DejaVuSans-54"/>
      </g>
     </g>
    </g>
    <g id="xtick_3">
     <g id="line2d_3">
      <g>
       <use style="stroke:#000000;stroke-width:0.8;" x="367.2" xlink:href="#m4c0ef62acb" y="504"/>
      </g>
     </g>
     <g id="text_3">
      <!-- 88 -->
      <g transform="translate(351.93 529.23625)scale(0.24 -0.24)">
       <use xlink:href="#DejaVuSans-56"/>
       <use x="63.623047" xlink:href="#DejaVuSans-56"/>
      </g>
     </g>
    </g>
    <g id="xtick_4">
     <g id="line2d_4">
      <g>
       <use style="stroke:#000000;stroke-width:0.8;" x="478.8" xlink:href="#m4c0ef62acb" y="504"/>
      </g>
     </g>
     <g id="text_4">
      <!-- 90 -->
      <g transform="translate(463.53 529.23625)scale(0.24 -0.24)">
       <defs>
        <path d="M 10.984375 1.515625 
L 10.984375 10.5 
Q 14.703125 8.734375 18.5 7.8125 
Q 22.3125 6.890625 25.984375 6.890625 
Q 35.75 6.890625 40.890625 13.453125 
Q 46.046875 20.015625 46.78125 33.40625 
Q 43.953125 29.203125 39.59375 26.953125 
Q 35.25 24.703125 29.984375 24.703125 
Q 19.046875 24.703125 12.671875 31.3125 
Q 6.296875 37.9375 6.296875 49.421875 
Q 6.296875 60.640625 12.9375 67.421875 
Q 19.578125 74.21875 30.609375 74.21875 
Q 43.265625 74.21875 49.921875 64.515625 
Q 56.59375 54.828125 56.59375 36.375 
Q 56.59375 19.140625 48.40625 8.859375 
Q 40.234375 -1.421875 26.421875 -1.421875 
Q 22.703125 -1.421875 18.890625 -0.6875 
Q 15.09375 0.046875 10.984375 1.515625 
z
M 30.609375 32.421875 
Q 37.25 32.421875 41.125 36.953125 
Q 45.015625 41.5 45.015625 49.421875 
Q 45.015625 57.28125 41.125 61.84375 
Q 37.25 66.40625 30.609375 66.40625 
Q 23.96875 66.40625 20.09375 61.84375 
Q 16.21875 57.28125 16.21875 49.421875 
Q 16.21875 41.5 20.09375 36.953125 
Q 23.96875 32.421875 30.609375 32.421875 
z
" id="DejaVuSans-57"/>
        <path d="M 31.78125 66.40625 
Q 24.171875 66.40625 20.328125 58.90625 
Q 16.5 51.421875 16.5 36.375 
Q 16.5 21.390625 20.328125 13.890625 
Q 24.171875 6.390625 31.78125 6.390625 
Q 39.453125 6.390625 43.28125 13.890625 
Q 47.125 21.390625 47.125 36.375 
Q 47.125 51.421875 43.28125 58.90625 
Q 39.453125 66.40625 31.78125 66.40625 
z
M 31.78125 74.21875 
Q 44.046875 74.21875 50.515625 64.515625 
Q 56.984375 54.828125 56.984375 36.375 
Q 56.984375 17.96875 50.515625 8.265625 
Q 44.046875 -1.421875 31.78125 -1.421875 
Q 19.53125 -1.421875 13.0625 8.265625 
Q 6.59375 17.96875 6.59375 36.375 
Q 6.59375 54.828125 13.0625 64.515625 
Q 19.53125 74.21875 31.78125 74.21875 
z
" id="DejaVuSans-48"/>
       </defs>
       <use xlink:href="#DejaVuSans-57"/>
       <use x="63.623047" xlink:href="#DejaVuSans-48"/>
      </g>
     </g>
    </g>
    <g id="xtick_5">
     <g id="line2d_5">
      <g>
       <use style="stroke:#000000;stroke-width:0.8;" x="590.4" xlink:href="#m4c0ef62acb" y="504"/>
      </g>
     </g>
     <g id="text_5">
      <!-- 92 -->
      <g transform="translate(575.13 529.23625)scale(0.24 -0.24)">
       <defs>
        <path d="M 19.1875 8.296875 
L 53.609375 8.296875 
L 53.609375 0 
L 7.328125 0 
L 7.328125 8.296875 
Q 12.9375 14.109375 22.625 23.890625 
Q 32.328125 33.6875 34.8125 36.53125 
Q 39.546875 41.84375 41.421875 45.53125 
Q 43.3125 49.21875 43.3125 52.78125 
Q 43.3125 58.59375 39.234375 62.25 
Q 35.15625 65.921875 28.609375 65.921875 
Q 23.96875 65.921875 18.8125 64.3125 
Q 13.671875 62.703125 7.8125 59.421875 
L 7.8125 69.390625 
Q 13.765625 71.78125 18.9375 73 
Q 24.125 74.21875 28.421875 74.21875 
Q 39.75 74.21875 46.484375 68.546875 
Q 53.21875 62.890625 53.21875 53.421875 
Q 53.21875 48.921875 51.53125 44.890625 
Q 49.859375 40.875 45.40625 35.40625 
Q 44.1875 33.984375 37.640625 27.21875 
Q 31.109375 20.453125 19.1875 8.296875 
z
" id="DejaVuSans-50"/>
       </defs>
       <use xlink:href="#DejaVuSans-57"/>
       <use x="63.623047" xlink:href="#DejaVuSans-50"/>
      </g>
     </g>
    </g>
    <g id="xtick_6">
     <g id="line2d_6">
      <g>
       <use style="stroke:#000000;stroke-width:0.8;" x="702" xlink:href="#m4c0ef62acb" y="504"/>
      </g>
     </g>
     <g id="text_6">
      <!-- 94 -->
      <g transform="translate(686.73 529.23625)scale(0.24 -0.24)">
       <use xlink:href="#DejaVuSans-57"/>
       <use x="63.623047" xlink:href="#DejaVuSans-52"/>
      </g>
     </g>
    </g>
    <g id="xtick_7">
     <g id="line2d_7">
      <g>
       <use style="stroke:#000000;stroke-width:0.8;" x="813.6" xlink:href="#m4c0ef62acb" y="504"/>
      </g>
     </g>
     <g id="text_7">
      <!-- 96 -->
      <g transform="translate(798.33 529.23625)scale(0.24 -0.24)">
       <use xlink:href="#DejaVuSans-57"/>
       <use x="63.623047" xlink:href="#DejaVuSans-54"/>
      </g>
     </g>
    </g>
    <g id="xtick_8">
     <g id="line2d_8">
      <g>
       <use style="stroke:#000000;stroke-width:0.8;" x="925.2" xlink:href="#m4c0ef62acb" y="504"/>
      </g>
     </g>
     <g id="text_8">
      <!-- 98 -->
      <g transform="translate(909.93 529.23625)scale(0.24 -0.24)">
       <use xlink:href="#DejaVuSans-57"/>
       <use x="63.623047" xlink:href="#DejaVuSans-56"/>
      </g>
     </g>
    </g>
    <g id="xtick_9">
     <g id="line2d_9">
      <g>
       <use style="stroke:#000000;stroke-width:0.8;" x="1036.8" xlink:href="#m4c0ef62acb" y="504"/>
      </g>
     </g>
     <g id="text_9">
      <!-- 100 -->
      <g transform="translate(1013.895 529.23625)scale(0.24 -0.24)">
       <defs>
        <path d="M 12.40625 8.296875 
L 28.515625 8.296875 
L 28.515625 63.921875 
L 10.984375 60.40625 
L 10.984375 69.390625 
L 28.421875 72.90625 
L 38.28125 72.90625 
L 38.28125 8.296875 
L 54.390625 8.296875 
L 54.390625 0 
L 12.40625 0 
z
" id="DejaVuSans-49"/>
       </defs>
       <use xlink:href="#DejaVuSans-49"/>
       <use x="63.623047" xlink:href="#DejaVuSans-48"/>
       <use x="127.246094" xlink:href="#DejaVuSans-48"/>
      </g>
     </g>
    </g>
    <g id="text_10">
     <!-- Accuracy /% -->
     <g transform="translate(504.013437 559.503125)scale(0.28 -0.28)">
      <defs>
       <path d="M 34.1875 63.1875 
L 20.796875 26.90625 
L 47.609375 26.90625 
z
M 28.609375 72.90625 
L 39.796875 72.90625 
L 67.578125 0 
L 57.328125 0 
L 50.6875 18.703125 
L 17.828125 18.703125 
L 11.1875 0 
L 0.78125 0 
z
" id="DejaVuSans-65"/>
       <path d="M 48.78125 52.59375 
L 48.78125 44.1875 
Q 44.96875 46.296875 41.140625 47.34375 
Q 37.3125 48.390625 33.40625 48.390625 
Q 24.65625 48.390625 19.8125 42.84375 
Q 14.984375 37.3125 14.984375 27.296875 
Q 14.984375 17.28125 19.8125 11.734375 
Q 24.65625 6.203125 33.40625 6.203125 
Q 37.3125 6.203125 41.140625 7.25 
Q 44.96875 8.296875 48.78125 10.40625 
L 48.78125 2.09375 
Q 45.015625 0.34375 40.984375 -0.53125 
Q 36.96875 -1.421875 32.421875 -1.421875 
Q 20.0625 -1.421875 12.78125 6.34375 
Q 5.515625 14.109375 5.515625 27.296875 
Q 5.515625 40.671875 12.859375 48.328125 
Q 20.21875 56 33.015625 56 
Q 37.15625 56 41.109375 55.140625 
Q 45.0625 54.296875 48.78125 52.59375 
z
" id="DejaVuSans-99"/>
       <path d="M 8.5 21.578125 
L 8.5 54.6875 
L 17.484375 54.6875 
L 17.484375 21.921875 
Q 17.484375 14.15625 20.5 10.265625 
Q 23.53125 6.390625 29.59375 6.390625 
Q 36.859375 6.390625 41.078125 11.03125 
Q 45.3125 15.671875 45.3125 23.6875 
L 45.3125 54.6875 
L 54.296875 54.6875 
L 54.296875 0 
L 45.3125 0 
L 45.3125 8.40625 
Q 42.046875 3.421875 37.71875 1 
Q 33.40625 -1.421875 27.6875 -1.421875 
Q 18.265625 -1.421875 13.375 4.4375 
Q 8.5 10.296875 8.5 21.578125 
z
M 31.109375 56 
z
" id="DejaVuSans-117"/>
       <path d="M 41.109375 46.296875 
Q 39.59375 47.171875 37.8125 47.578125 
Q 36.03125 48 33.890625 48 
Q 26.265625 48 22.1875 43.046875 
Q 18.109375 38.09375 18.109375 28.8125 
L 18.109375 0 
L 9.078125 0 
L 9.078125 54.6875 
L 18.109375 54.6875 
L 18.109375 46.1875 
Q 20.953125 51.171875 25.484375 53.578125 
Q 30.03125 56 36.53125 56 
Q 37.453125 56 38.578125 55.875 
Q 39.703125 55.765625 41.0625 55.515625 
z
" id="DejaVuSans-114"/>
       <path d="M 34.28125 27.484375 
Q 23.390625 27.484375 19.1875 25 
Q 14.984375 22.515625 14.984375 16.5 
Q 14.984375 11.71875 18.140625 8.90625 
Q 21.296875 6.109375 26.703125 6.109375 
Q 34.1875 6.109375 38.703125 11.40625 
Q 43.21875 16.703125 43.21875 25.484375 
L 43.21875 27.484375 
z
M 52.203125 31.203125 
L 52.203125 0 
L 43.21875 0 
L 43.21875 8.296875 
Q 40.140625 3.328125 35.546875 0.953125 
Q 30.953125 -1.421875 24.3125 -1.421875 
Q 15.921875 -1.421875 10.953125 3.296875 
Q 6 8.015625 6 15.921875 
Q 6 25.140625 12.171875 29.828125 
Q 18.359375 34.515625 30.609375 34.515625 
L 43.21875 34.515625 
L 43.21875 35.40625 
Q 43.21875 41.609375 39.140625 45 
Q 35.0625 48.390625 27.6875 48.390625 
Q 23 48.390625 18.546875 47.265625 
Q 14.109375 46.140625 10.015625 43.890625 
L 10.015625 52.203125 
Q 14.9375 54.109375 19.578125 55.046875 
Q 24.21875 56 28.609375 56 
Q 40.484375 56 46.34375 49.84375 
Q 52.203125 43.703125 52.203125 31.203125 
z
" id="DejaVuSans-97"/>
       <path d="M 32.171875 -5.078125 
Q 28.375 -14.84375 24.75 -17.8125 
Q 21.140625 -20.796875 15.09375 -20.796875 
L 7.90625 -20.796875 
L 7.90625 -13.28125 
L 13.1875 -13.28125 
Q 16.890625 -13.28125 18.9375 -11.515625 
Q 21 -9.765625 23.484375 -3.21875 
L 25.09375 0.875 
L 2.984375 54.6875 
L 12.5 54.6875 
L 29.59375 11.921875 
L 46.6875 54.6875 
L 56.203125 54.6875 
z
" id="DejaVuSans-121"/>
       <path id="DejaVuSans-32"/>
       <path d="M 25.390625 72.90625 
L 33.6875 72.90625 
L 8.296875 -9.28125 
L 0 -9.28125 
z
" id="DejaVuSans-47"/>
       <path d="M 72.703125 32.078125 
Q 68.453125 32.078125 66.03125 28.46875 
Q 63.625 24.859375 63.625 18.40625 
Q 63.625 12.0625 66.03125 8.421875 
Q 68.453125 4.78125 72.703125 4.78125 
Q 76.859375 4.78125 79.265625 8.421875 
Q 81.6875 12.0625 81.6875 18.40625 
Q 81.6875 24.8125 79.265625 28.4375 
Q 76.859375 32.078125 72.703125 32.078125 
z
M 72.703125 38.28125 
Q 80.421875 38.28125 84.953125 32.90625 
Q 89.5 27.546875 89.5 18.40625 
Q 89.5 9.28125 84.9375 3.921875 
Q 80.375 -1.421875 72.703125 -1.421875 
Q 64.890625 -1.421875 60.34375 3.921875 
Q 55.8125 9.28125 55.8125 18.40625 
Q 55.8125 27.59375 60.375 32.9375 
Q 64.9375 38.28125 72.703125 38.28125 
z
M 22.3125 68.015625 
Q 18.109375 68.015625 15.6875 64.375 
Q 13.28125 60.75 13.28125 54.390625 
Q 13.28125 47.953125 15.671875 44.328125 
Q 18.0625 40.71875 22.3125 40.71875 
Q 26.5625 40.71875 28.96875 44.328125 
Q 31.390625 47.953125 31.390625 54.390625 
Q 31.390625 60.6875 28.953125 64.34375 
Q 26.515625 68.015625 22.3125 68.015625 
z
M 66.40625 74.21875 
L 74.21875 74.21875 
L 28.609375 -1.421875 
L 20.796875 -1.421875 
z
M 22.3125 74.21875 
Q 30.03125 74.21875 34.609375 68.875 
Q 39.203125 63.53125 39.203125 54.390625 
Q 39.203125 45.171875 34.640625 39.84375 
Q 30.078125 34.515625 22.3125 34.515625 
Q 14.546875 34.515625 10.03125 39.859375 
Q 5.515625 45.21875 5.515625 54.390625 
Q 5.515625 63.484375 10.046875 68.84375 
Q 14.59375 74.21875 22.3125 74.21875 
z
" id="DejaVuSans-37"/>
      </defs>
      <use xlink:href="#DejaVuSans-65"/>
      <use x="66.658203" xlink:href="#DejaVuSans-99"/>
      <use x="121.638672" xlink:href="#DejaVuSans-99"/>
      <use x="176.619141" xlink:href="#DejaVuSans-117"/>
      <use x="239.998047" xlink:href="#DejaVuSans-114"/>
      <use x="281.111328" xlink:href="#DejaVuSans-97"/>
      <use x="342.390625" xlink:href="#DejaVuSans-99"/>
      <use x="397.371094" xlink:href="#DejaVuSans-121"/>
      <use x="456.550781" xlink:href="#DejaVuSans-32"/>
      <use x="488.337891" xlink:href="#DejaVuSans-47"/>
      <use x="522.029297" xlink:href="#DejaVuSans-37"/>
     </g>
    </g>
   </g>
   <g id="matplotlib.axis_2">
    <g id="ytick_1">
     <g id="line2d_10">
      <defs>
       <path d="M 0 0 
L -3.5 0 
" id="mb00797c8d7" style="stroke:#000000;stroke-width:0.8;"/>
      </defs>
      <g>
       <use style="stroke:#000000;stroke-width:0.8;" x="144" xlink:href="#mb00797c8d7" y="444.362283"/>
      </g>
     </g>
     <g id="text_11">
      <!-- $\mathdefault{10^{1}}$ -->
      <g transform="translate(94.76 453.480408)scale(0.24 -0.24)">
       <use transform="translate(0 0.684375)" xlink:href="#DejaVuSans-49"/>
       <use transform="translate(63.623047 0.684375)" xlink:href="#DejaVuSans-48"/>
       <use transform="translate(128.203125 38.965625)scale(0.7)" xlink:href="#DejaVuSans-49"/>
      </g>
     </g>
    </g>
    <g id="ytick_2">
     <g id="line2d_11">
      <g>
       <use style="stroke:#000000;stroke-width:0.8;" x="144" xlink:href="#mb00797c8d7" y="359.04"/>
      </g>
     </g>
     <g id="text_12">
      <!-- $\mathdefault{10^{2}}$ -->
      <g transform="translate(94.76 368.158125)scale(0.24 -0.24)">
       <use transform="translate(0 0.765625)" xlink:href="#DejaVuSans-49"/>
       <use transform="translate(63.623047 0.765625)" xlink:href="#DejaVuSans-48"/>
       <use transform="translate(128.203125 39.046875)scale(0.7)" xlink:href="#DejaVuSans-50"/>
      </g>
     </g>
    </g>
    <g id="ytick_3">
     <g id="line2d_12">
      <g>
       <use style="stroke:#000000;stroke-width:0.8;" x="144" xlink:href="#mb00797c8d7" y="273.717717"/>
      </g>
     </g>
     <g id="text_13">
      <!-- $\mathdefault{10^{3}}$ -->
      <g transform="translate(94.76 282.835842)scale(0.24 -0.24)">
       <defs>
        <path d="M 40.578125 39.3125 
Q 47.65625 37.796875 51.625 33 
Q 55.609375 28.21875 55.609375 21.1875 
Q 55.609375 10.40625 48.1875 4.484375 
Q 40.765625 -1.421875 27.09375 -1.421875 
Q 22.515625 -1.421875 17.65625 -0.515625 
Q 12.796875 0.390625 7.625 2.203125 
L 7.625 11.71875 
Q 11.71875 9.328125 16.59375 8.109375 
Q 21.484375 6.890625 26.8125 6.890625 
Q 36.078125 6.890625 40.9375 10.546875 
Q 45.796875 14.203125 45.796875 21.1875 
Q 45.796875 27.640625 41.28125 31.265625 
Q 36.765625 34.90625 28.71875 34.90625 
L 20.21875 34.90625 
L 20.21875 43.015625 
L 29.109375 43.015625 
Q 36.375 43.015625 40.234375 45.921875 
Q 44.09375 48.828125 44.09375 54.296875 
Q 44.09375 59.90625 40.109375 62.90625 
Q 36.140625 65.921875 28.71875 65.921875 
Q 24.65625 65.921875 20.015625 65.03125 
Q 15.375 64.15625 9.8125 62.3125 
L 9.8125 71.09375 
Q 15.4375 72.65625 20.34375 73.4375 
Q 25.25 74.21875 29.59375 74.21875 
Q 40.828125 74.21875 47.359375 69.109375 
Q 53.90625 64.015625 53.90625 55.328125 
Q 53.90625 49.265625 50.4375 45.09375 
Q 46.96875 40.921875 40.578125 39.3125 
z
" id="DejaVuSans-51"/>
       </defs>
       <use transform="translate(0 0.765625)" xlink:href="#DejaVuSans-49"/>
       <use transform="translate(63.623047 0.765625)" xlink:href="#DejaVuSans-48"/>
       <use transform="translate(128.203125 39.046875)scale(0.7)" xlink:href="#DejaVuSans-51"/>
      </g>
     </g>
    </g>
    <g id="ytick_4">
     <g id="line2d_13">
      <g>
       <use style="stroke:#000000;stroke-width:0.8;" x="144" xlink:href="#mb00797c8d7" y="188.395433"/>
      </g>
     </g>
     <g id="text_14">
      <!-- $\mathdefault{10^{4}}$ -->
      <g transform="translate(94.76 197.513558)scale(0.24 -0.24)">
       <use transform="translate(0 0.684375)" xlink:href="#DejaVuSans-49"/>
       <use transform="translate(63.623047 0.684375)" xlink:href="#DejaVuSans-48"/>
       <use transform="translate(128.203125 38.965625)scale(0.7)" xlink:href="#DejaVuSans-52"/>
      </g>
     </g>
    </g>
    <g id="ytick_5">
     <g id="line2d_14">
      <g>
       <use style="stroke:#000000;stroke-width:0.8;" x="144" xlink:href="#mb00797c8d7" y="103.07315"/>
      </g>
     </g>
     <g id="text_15">
      <!-- $\mathdefault{10^{5}}$ -->
      <g transform="translate(94.76 112.191275)scale(0.24 -0.24)">
       <defs>
        <path d="M 10.796875 72.90625 
L 49.515625 72.90625 
L 49.515625 64.59375 
L 19.828125 64.59375 
L 19.828125 46.734375 
Q 21.96875 47.46875 24.109375 47.828125 
Q 26.265625 48.1875 28.421875 48.1875 
Q 40.625 48.1875 47.75 41.5 
Q 54.890625 34.8125 54.890625 23.390625 
Q 54.890625 11.625 47.5625 5.09375 
Q 40.234375 -1.421875 26.90625 -1.421875 
Q 22.3125 -1.421875 17.546875 -0.640625 
Q 12.796875 0.140625 7.71875 1.703125 
L 7.71875 11.625 
Q 12.109375 9.234375 16.796875 8.0625 
Q 21.484375 6.890625 26.703125 6.890625 
Q 35.15625 6.890625 40.078125 11.328125 
Q 45.015625 15.765625 45.015625 23.390625 
Q 45.015625 31 40.078125 35.4375 
Q 35.15625 39.890625 26.703125 39.890625 
Q 22.75 39.890625 18.8125 39.015625 
Q 14.890625 38.140625 10.796875 36.28125 
z
" id="DejaVuSans-53"/>
       </defs>
       <use transform="translate(0 0.684375)" xlink:href="#DejaVuSans-49"/>
       <use transform="translate(63.623047 0.684375)" xlink:href="#DejaVuSans-48"/>
       <use transform="translate(128.203125 38.965625)scale(0.7)" xlink:href="#DejaVuSans-53"/>
      </g>
     </g>
    </g>
    <g id="ytick_6">
     <g id="line2d_15">
      <defs>
       <path d="M 0 0 
L -2 0 
" id="m54c72634e3" style="stroke:#000000;stroke-width:0.6;"/>
      </defs>
      <g>
       <use style="stroke:#000000;stroke-width:0.6;" x="144" xlink:href="#m54c72634e3" y="504"/>
      </g>
     </g>
    </g>
    <g id="ytick_7">
     <g id="line2d_16">
      <g>
       <use style="stroke:#000000;stroke-width:0.6;" x="144" xlink:href="#m54c72634e3" y="488.975492"/>
      </g>
     </g>
    </g>
    <g id="ytick_8">
     <g id="line2d_17">
      <g>
       <use style="stroke:#000000;stroke-width:0.6;" x="144" xlink:href="#m54c72634e3" y="478.315433"/>
      </g>
     </g>
    </g>
    <g id="ytick_9">
     <g id="line2d_18">
      <g>
       <use style="stroke:#000000;stroke-width:0.6;" x="144" xlink:href="#m54c72634e3" y="470.04685"/>
      </g>
     </g>
    </g>
    <g id="ytick_10">
     <g id="line2d_19">
      <g>
       <use style="stroke:#000000;stroke-width:0.6;" x="144" xlink:href="#m54c72634e3" y="463.290925"/>
      </g>
     </g>
    </g>
    <g id="ytick_11">
     <g id="line2d_20">
      <g>
       <use style="stroke:#000000;stroke-width:0.6;" x="144" xlink:href="#m54c72634e3" y="457.578872"/>
      </g>
     </g>
    </g>
    <g id="ytick_12">
     <g id="line2d_21">
      <g>
       <use style="stroke:#000000;stroke-width:0.6;" x="144" xlink:href="#m54c72634e3" y="452.630867"/>
      </g>
     </g>
    </g>
    <g id="ytick_13">
     <g id="line2d_22">
      <g>
       <use style="stroke:#000000;stroke-width:0.6;" x="144" xlink:href="#m54c72634e3" y="448.266417"/>
      </g>
     </g>
    </g>
    <g id="ytick_14">
     <g id="line2d_23">
      <g>
       <use style="stroke:#000000;stroke-width:0.6;" x="144" xlink:href="#m54c72634e3" y="418.677717"/>
      </g>
     </g>
    </g>
    <g id="ytick_15">
     <g id="line2d_24">
      <g>
       <use style="stroke:#000000;stroke-width:0.6;" x="144" xlink:href="#m54c72634e3" y="403.653208"/>
      </g>
     </g>
    </g>
    <g id="ytick_16">
     <g id="line2d_25">
      <g>
       <use style="stroke:#000000;stroke-width:0.6;" x="144" xlink:href="#m54c72634e3" y="392.99315"/>
      </g>
     </g>
    </g>
    <g id="ytick_17">
     <g id="line2d_26">
      <g>
       <use style="stroke:#000000;stroke-width:0.6;" x="144" xlink:href="#m54c72634e3" y="384.724567"/>
      </g>
     </g>
    </g>
    <g id="ytick_18">
     <g id="line2d_27">
      <g>
       <use style="stroke:#000000;stroke-width:0.6;" x="144" xlink:href="#m54c72634e3" y="377.968642"/>
      </g>
     </g>
    </g>
    <g id="ytick_19">
     <g id="line2d_28">
      <g>
       <use style="stroke:#000000;stroke-width:0.6;" x="144" xlink:href="#m54c72634e3" y="372.256589"/>
      </g>
     </g>
    </g>
    <g id="ytick_20">
     <g id="line2d_29">
      <g>
       <use style="stroke:#000000;stroke-width:0.6;" x="144" xlink:href="#m54c72634e3" y="367.308584"/>
      </g>
     </g>
    </g>
    <g id="ytick_21">
     <g id="line2d_30">
      <g>
       <use style="stroke:#000000;stroke-width:0.6;" x="144" xlink:href="#m54c72634e3" y="362.944134"/>
      </g>
     </g>
    </g>
    <g id="ytick_22">
     <g id="line2d_31">
      <g>
       <use style="stroke:#000000;stroke-width:0.6;" x="144" xlink:href="#m54c72634e3" y="333.355433"/>
      </g>
     </g>
    </g>
    <g id="ytick_23">
     <g id="line2d_32">
      <g>
       <use style="stroke:#000000;stroke-width:0.6;" x="144" xlink:href="#m54c72634e3" y="318.330925"/>
      </g>
     </g>
    </g>
    <g id="ytick_24">
     <g id="line2d_33">
      <g>
       <use style="stroke:#000000;stroke-width:0.6;" x="144" xlink:href="#m54c72634e3" y="307.670867"/>
      </g>
     </g>
    </g>
    <g id="ytick_25">
     <g id="line2d_34">
      <g>
       <use style="stroke:#000000;stroke-width:0.6;" x="144" xlink:href="#m54c72634e3" y="299.402283"/>
      </g>
     </g>
    </g>
    <g id="ytick_26">
     <g id="line2d_35">
      <g>
       <use style="stroke:#000000;stroke-width:0.6;" x="144" xlink:href="#m54c72634e3" y="292.646359"/>
      </g>
     </g>
    </g>
    <g id="ytick_27">
     <g id="line2d_36">
      <g>
       <use style="stroke:#000000;stroke-width:0.6;" x="144" xlink:href="#m54c72634e3" y="286.934306"/>
      </g>
     </g>
    </g>
    <g id="ytick_28">
     <g id="line2d_37">
      <g>
       <use style="stroke:#000000;stroke-width:0.6;" x="144" xlink:href="#m54c72634e3" y="281.9863"/>
      </g>
     </g>
    </g>
    <g id="ytick_29">
     <g id="line2d_38">
      <g>
       <use style="stroke:#000000;stroke-width:0.6;" x="144" xlink:href="#m54c72634e3" y="277.62185"/>
      </g>
     </g>
    </g>
    <g id="ytick_30">
     <g id="line2d_39">
      <g>
       <use style="stroke:#000000;stroke-width:0.6;" x="144" xlink:href="#m54c72634e3" y="248.03315"/>
      </g>
     </g>
    </g>
    <g id="ytick_31">
     <g id="line2d_40">
      <g>
       <use style="stroke:#000000;stroke-width:0.6;" x="144" xlink:href="#m54c72634e3" y="233.008642"/>
      </g>
     </g>
    </g>
    <g id="ytick_32">
     <g id="line2d_41">
      <g>
       <use style="stroke:#000000;stroke-width:0.6;" x="144" xlink:href="#m54c72634e3" y="222.348584"/>
      </g>
     </g>
    </g>
    <g id="ytick_33">
     <g id="line2d_42">
      <g>
       <use style="stroke:#000000;stroke-width:0.6;" x="144" xlink:href="#m54c72634e3" y="214.08"/>
      </g>
     </g>
    </g>
    <g id="ytick_34">
     <g id="line2d_43">
      <g>
       <use style="stroke:#000000;stroke-width:0.6;" x="144" xlink:href="#m54c72634e3" y="207.324075"/>
      </g>
     </g>
    </g>
    <g id="ytick_35">
     <g id="line2d_44">
      <g>
       <use style="stroke:#000000;stroke-width:0.6;" x="144" xlink:href="#m54c72634e3" y="201.612022"/>
      </g>
     </g>
    </g>
    <g id="ytick_36">
     <g id="line2d_45">
      <g>
       <use style="stroke:#000000;stroke-width:0.6;" x="144" xlink:href="#m54c72634e3" y="196.664017"/>
      </g>
     </g>
    </g>
    <g id="ytick_37">
     <g id="line2d_46">
      <g>
       <use style="stroke:#000000;stroke-width:0.6;" x="144" xlink:href="#m54c72634e3" y="192.299567"/>
      </g>
     </g>
    </g>
    <g id="ytick_38">
     <g id="line2d_47">
      <g>
       <use style="stroke:#000000;stroke-width:0.6;" x="144" xlink:href="#m54c72634e3" y="162.710867"/>
      </g>
     </g>
    </g>
    <g id="ytick_39">
     <g id="line2d_48">
      <g>
       <use style="stroke:#000000;stroke-width:0.6;" x="144" xlink:href="#m54c72634e3" y="147.686359"/>
      </g>
     </g>
    </g>
    <g id="ytick_40">
     <g id="line2d_49">
      <g>
       <use style="stroke:#000000;stroke-width:0.6;" x="144" xlink:href="#m54c72634e3" y="137.0263"/>
      </g>
     </g>
    </g>
    <g id="ytick_41">
     <g id="line2d_50">
      <g>
       <use style="stroke:#000000;stroke-width:0.6;" x="144" xlink:href="#m54c72634e3" y="128.757717"/>
      </g>
     </g>
    </g>
    <g id="ytick_42">
     <g id="line2d_51">
      <g>
       <use style="stroke:#000000;stroke-width:0.6;" x="144" xlink:href="#m54c72634e3" y="122.001792"/>
      </g>
     </g>
    </g>
    <g id="ytick_43">
     <g id="line2d_52">
      <g>
       <use style="stroke:#000000;stroke-width:0.6;" x="144" xlink:href="#m54c72634e3" y="116.289739"/>
      </g>
     </g>
    </g>
    <g id="ytick_44">
     <g id="line2d_53">
      <g>
       <use style="stroke:#000000;stroke-width:0.6;" x="144" xlink:href="#m54c72634e3" y="111.341734"/>
      </g>
     </g>
    </g>
    <g id="ytick_45">
     <g id="line2d_54">
      <g>
       <use style="stroke:#000000;stroke-width:0.6;" x="144" xlink:href="#m54c72634e3" y="106.977284"/>
      </g>
     </g>
    </g>
    <g id="ytick_46">
     <g id="line2d_55">
      <g>
       <use style="stroke:#000000;stroke-width:0.6;" x="144" xlink:href="#m54c72634e3" y="77.388584"/>
      </g>
     </g>
    </g>
    <g id="text_16">
     <!-- Energy /A.U. -->
     <g transform="translate(84.936875 373.22)rotate(-90)scale(0.28 -0.28)">
      <defs>
       <path d="M 9.8125 72.90625 
L 55.90625 72.90625 
L 55.90625 64.59375 
L 19.671875 64.59375 
L 19.671875 43.015625 
L 54.390625 43.015625 
L 54.390625 34.71875 
L 19.671875 34.71875 
L 19.671875 8.296875 
L 56.78125 8.296875 
L 56.78125 0 
L 9.8125 0 
z
" id="DejaVuSans-69"/>
       <path d="M 54.890625 33.015625 
L 54.890625 0 
L 45.90625 0 
L 45.90625 32.71875 
Q 45.90625 40.484375 42.875 44.328125 
Q 39.84375 48.1875 33.796875 48.1875 
Q 26.515625 48.1875 22.3125 43.546875 
Q 18.109375 38.921875 18.109375 30.90625 
L 18.109375 0 
L 9.078125 0 
L 9.078125 54.6875 
L 18.109375 54.6875 
L 18.109375 46.1875 
Q 21.34375 51.125 25.703125 53.5625 
Q 30.078125 56 35.796875 56 
Q 45.21875 56 50.046875 50.171875 
Q 54.890625 44.34375 54.890625 33.015625 
z
" id="DejaVuSans-110"/>
       <path d="M 56.203125 29.59375 
L 56.203125 25.203125 
L 14.890625 25.203125 
Q 15.484375 15.921875 20.484375 11.0625 
Q 25.484375 6.203125 34.421875 6.203125 
Q 39.59375 6.203125 44.453125 7.46875 
Q 49.3125 8.734375 54.109375 11.28125 
L 54.109375 2.78125 
Q 49.265625 0.734375 44.1875 -0.34375 
Q 39.109375 -1.421875 33.890625 -1.421875 
Q 20.796875 -1.421875 13.15625 6.1875 
Q 5.515625 13.8125 5.515625 26.8125 
Q 5.515625 40.234375 12.765625 48.109375 
Q 20.015625 56 32.328125 56 
Q 43.359375 56 49.78125 48.890625 
Q 56.203125 41.796875 56.203125 29.59375 
z
M 47.21875 32.234375 
Q 47.125 39.59375 43.09375 43.984375 
Q 39.0625 48.390625 32.421875 48.390625 
Q 24.90625 48.390625 20.390625 44.140625 
Q 15.875 39.890625 15.1875 32.171875 
z
" id="DejaVuSans-101"/>
       <path d="M 45.40625 27.984375 
Q 45.40625 37.75 41.375 43.109375 
Q 37.359375 48.484375 30.078125 48.484375 
Q 22.859375 48.484375 18.828125 43.109375 
Q 14.796875 37.75 14.796875 27.984375 
Q 14.796875 18.265625 18.828125 12.890625 
Q 22.859375 7.515625 30.078125 7.515625 
Q 37.359375 7.515625 41.375 12.890625 
Q 45.40625 18.265625 45.40625 27.984375 
z
M 54.390625 6.78125 
Q 54.390625 -7.171875 48.1875 -13.984375 
Q 42 -20.796875 29.203125 -20.796875 
Q 24.46875 -20.796875 20.265625 -20.09375 
Q 16.0625 -19.390625 12.109375 -17.921875 
L 12.109375 -9.1875 
Q 16.0625 -11.328125 19.921875 -12.34375 
Q 23.78125 -13.375 27.78125 -13.375 
Q 36.625 -13.375 41.015625 -8.765625 
Q 45.40625 -4.15625 45.40625 5.171875 
L 45.40625 9.625 
Q 42.625 4.78125 38.28125 2.390625 
Q 33.9375 0 27.875 0 
Q 17.828125 0 11.671875 7.65625 
Q 5.515625 15.328125 5.515625 27.984375 
Q 5.515625 40.671875 11.671875 48.328125 
Q 17.828125 56 27.875 56 
Q 33.9375 56 38.28125 53.609375 
Q 42.625 51.21875 45.40625 46.390625 
L 45.40625 54.6875 
L 54.390625 54.6875 
z
" id="DejaVuSans-103"/>
       <path d="M 10.6875 12.40625 
L 21 12.40625 
L 21 0 
L 10.6875 0 
z
" id="DejaVuSans-46"/>
       <path d="M 8.6875 72.90625 
L 18.609375 72.90625 
L 18.609375 28.609375 
Q 18.609375 16.890625 22.84375 11.734375 
Q 27.09375 6.59375 36.625 6.59375 
Q 46.09375 6.59375 50.34375 11.734375 
Q 54.59375 16.890625 54.59375 28.609375 
L 54.59375 72.90625 
L 64.5 72.90625 
L 64.5 27.390625 
Q 64.5 13.140625 57.4375 5.859375 
Q 50.390625 -1.421875 36.625 -1.421875 
Q 22.796875 -1.421875 15.734375 5.859375 
Q 8.6875 13.140625 8.6875 27.390625 
z
" id="DejaVuSans-85"/>
      </defs>
      <use xlink:href="#DejaVuSans-69"/>
      <use x="63.183594" xlink:href="#DejaVuSans-110"/>
      <use x="126.5625" xlink:href="#DejaVuSans-101"/>
      <use x="188.085938" xlink:href="#DejaVuSans-114"/>
      <use x="227.449219" xlink:href="#DejaVuSans-103"/>
      <use x="290.925781" xlink:href="#DejaVuSans-121"/>
      <use x="350.105469" xlink:href="#DejaVuSans-32"/>
      <use x="381.892578" xlink:href="#DejaVuSans-47"/>
      <use x="415.583984" xlink:href="#DejaVuSans-65"/>
      <use x="482.242188" xlink:href="#DejaVuSans-46"/>
      <use x="514.029297" xlink:href="#DejaVuSans-85"/>
      <use x="587.222656" xlink:href="#DejaVuSans-46"/>
     </g>
    </g>
   </g>
   <g id="line2d_56">
    <path clip-path="url(#pa276dab9eb)" d="M 191.43 228.919168 
L 340.416 206.349331 
L 456.48 193.798668 
L 496.656 185.188392 
L 508.932 178.516736 
L 525.114 173.178575 
L 559.71 168.590097 
L 577.566 164.695953 
L 588.726 161.194421 
L 593.19 158.106542 
L 613.278 155.160659 
L 616.626 152.664132 
L 632.25 150.305336 
L 635.04 148.20211 
L 642.294 146.242767 
L 660.708 144.48045 
L 644.526 142.764969 
L 665.73 141.152691 
L 662.94 139.581068 
L 682.47 138.203039 
L 687.492 136.836142 
L 690.84 135.471724 
L 700.326 134.254044 
L 703.674 133.106385 
L 715.392 132.028794 
L 718.182 130.978461 
L 723.204 129.918403 
L 718.74 128.94275 
L 729.9 128.00211 
L 734.922 127.099078 
L 724.878 126.170794 
L 734.364 125.332105 
L 752.778 124.564165 
L 745.524 123.759497 
L 754.452 122.994778 
L 768.96 122.241757 
L 761.706 121.52965 
L 772.308 120.885609 
L 772.866 120.189801 
L 777.888 119.515216 
L 773.982 118.908642 
L 783.468 118.290351 
L 780.678 117.72391 
L 777.33 117.168791 
L 790.722 116.577698 
L 791.28 116.022066 
L 800.766 115.460301 
L 805.788 114.929342 
L 799.092 114.421078 
L 806.346 113.90985 
L 800.208 113.432284 
L 806.346 112.961218 
L 802.998 112.496267 
L 812.484 112.040602 
L 817.506 111.580779 
L 810.252 111.104312 
L 820.296 110.680414 
L 823.086 110.276847 
L 822.528 109.83325 
L 832.014 109.416153 
L 825.318 109.028609 
L 836.478 108.264228 
L 833.13 107.877396 
L 832.572 107.505599 
L 840.384 107.141595 
L 835.92 106.777199 
L 844.29 106.414105 
L 839.268 106.060777 
L 842.058 105.730288 
L 838.71 105.38693 
L 847.638 104.711769 
L 848.196 104.391294 
L 853.776 104.069168 
L 845.964 103.47011 
L 848.196 103.161721 
L 855.45 102.875984 
L 846.522 102.591331 
L 857.682 102.284167 
L 854.334 102.005021 
L 858.798 101.711327 
L 858.24 101.42001 
L 855.45 101.158787 
L 864.936 100.616323 
L 860.472 100.328977 
L 857.124 99.823182 
L 862.704 99.560311 
L 862.146 99.312084 
L 863.262 99.056368 
L 872.19 98.806511 
L 867.726 98.566535 
L 872.748 98.315209 
L 871.632 98.080502 
L 877.212 97.855442 
L 863.82 97.620157 
L 878.328 97.393686 
L 869.4 97.173411 
L 871.632 96.950719 
L 869.4 96.724763 
L 878.328 96.483888 
L 879.444 96.276739 
L 882.234 96.066788 
L 871.074 95.625268 
L 876.654 95.423899 
L 875.538 95.211706 
L 882.792 94.997482 
L 880.002 94.799225 
L 872.19 94.600317 
L 883.35 94.398747 
L 878.328 94.204418 
L 883.908 93.997922 
L 883.908 93.812936 
L 882.234 93.612927 
L 887.256 93.434799 
L 880.002 93.253214 
L 887.814 93.061291 
L 890.046 92.870797 
L 886.698 92.695981 
L 888.372 92.50505 
L 885.582 92.321669 
L 890.604 92.1435 
L 887.814 91.968874 
L 898.416 91.630785 
L 891.72 91.461651 
L 897.3 91.293754 
L 898.416 90.970381 
L 888.372 90.807821 
L 898.974 90.641928 
L 894.51 90.484876 
L 895.626 90.324454 
L 892.278 90.162252 
L 895.626 90.001133 
L 891.162 89.845511 
L 891.72 89.692275 
L 898.416 89.538226 
L 899.532 89.380773 
L 898.974 89.227592 
L 899.532 89.086755 
L 902.322 88.924578 
L 898.974 88.651767 
L 890.604 88.365543 
L 902.88 88.219449 
L 903.438 88.061704 
L 904.554 87.898854 
L 907.902 87.761725 
L 907.344 87.632205 
L 903.996 87.49973 
L 904.554 87.366106 
L 902.322 87.230733 
L 902.322 87.091366 
L 898.974 86.953828 
L 904.554 86.822088 
L 895.626 86.677423 
L 909.576 86.534402 
L 896.742 86.282558 
L 903.996 86.03285 
L 903.438 85.910808 
L 907.344 85.664269 
L 904.554 85.550266 
L 904.554 85.431834 
L 911.808 85.175372 
L 905.112 85.043247 
L 905.67 84.919011 
L 909.018 84.798783 
L 907.902 84.696014 
L 910.692 84.459659 
L 910.134 84.342828 
L 910.692 84.229009 
L 902.322 84.108986 
L 913.482 83.886082 
L 907.344 83.768423 
L 912.366 83.565516 
L 907.902 83.435436 
L 913.482 83.330785 
L 909.576 83.217455 
L 916.272 83.110619 
L 909.018 82.807448 
L 912.924 82.698942 
L 912.366 82.594643 
L 904.554 82.377105 
L 911.808 82.165668 
L 912.366 82.055112 
L 913.482 81.956495 
L 910.134 81.85828 
L 916.83 81.769293 
L 910.134 81.477999 
L 917.388 81.370839 
L 912.924 81.266226 
L 914.598 81.16576 
L 907.344 81.068258 
L 914.04 80.877682 
L 918.504 80.780392 
L 914.598 80.595259 
L 915.714 80.501287 
L 915.156 80.40924 
L 915.714 80.315175 
L 912.924 80.228095 
L 917.388 79.968157 
L 916.83 79.886041 
L 920.736 79.785299 
L 917.388 79.697106 
L 924.642 79.521942 
L 914.598 79.27283 
L 915.714 79.190102 
L 920.736 79.024304 
L 919.62 78.932465 
L 912.924 78.672278 
L 920.178 78.428954 
L 915.156 78.271585 
L 916.83 78.194542 
L 923.526 78.043315 
L 914.598 77.564246 
L 920.178 77.482454 
L 913.482 77.410298 
L 916.272 77.330797 
L 919.62 77.253257 
L 914.598 77.030296 
L 922.968 76.954966 
L 920.178 76.879659 
L 923.526 76.80799 
L 918.504 76.730499 
L 924.642 76.659703 
L 914.598 76.517003 
L 922.968 76.305335 
L 918.504 76.166838 
L 921.852 76.095754 
L 918.504 76.016491 
L 921.852 75.940599 
L 920.178 75.876755 
L 918.504 75.815569 
L 919.062 75.751315 
L 921.852 75.691004 
L 917.946 75.614985 
L 919.62 75.546556 
L 920.736 75.473694 
L 917.388 75.399108 
L 922.41 75.337766 
L 916.272 75.268165 
L 920.736 75.202019 
L 919.62 75.137863 
L 920.178 75.070976 
L 923.526 74.942739 
L 922.968 74.825585 
L 929.664 74.76669 
L 920.736 74.698814 
L 925.758 74.627454 
L 920.736 74.496295 
L 924.642 74.429013 
L 921.294 74.369351 
L 925.758 74.309599 
L 924.084 74.245577 
L 920.178 74.186655 
L 924.642 74.127898 
L 917.388 74.059874 
L 927.432 73.999267 
L 919.062 73.943255 
L 926.874 73.821933 
L 920.736 73.763741 
L 921.294 73.70444 
L 923.526 73.649112 
L 922.41 73.589939 
L 921.294 73.530496 
L 926.874 73.311767 
L 920.736 73.08382 
L 925.758 73.029565 
L 924.084 72.97029 
L 919.62 72.910024 
L 924.084 72.861819 
L 924.084 72.808009 
L 921.852 72.754987 
L 924.084 72.704493 
L 920.736 72.594421 
L 922.968 72.542214 
L 922.41 72.490561 
L 923.526 72.439612 
L 920.736 72.382111 
L 927.99 72.324822 
L 922.968 72.266099 
L 927.432 72.177708 
L 926.874 72.026638 
L 926.316 71.975028 
L 924.084 71.869173 
L 926.316 71.812585 
L 924.642 71.761053 
L 925.2 71.703527 
L 928.548 71.604857 
L 927.432 71.559604 
L 923.526 71.512685 
L 925.2 71.464368 
L 925.2 71.415241 
L 926.874 71.364529 
L 921.294 71.310978 
L 930.78 71.257823 
L 925.758 71.212649 
L 927.432 71.114354 
L 927.432 71.114354 
" style="fill:none;stroke:#1f1f1f;stroke-linecap:square;stroke-width:5;"/>
   </g>
   <g id="line2d_57">
    <path clip-path="url(#pa276dab9eb)" d="M 191.43 494.618281 
L 340.416 462.788723 
L 456.48 443.771023 
L 496.656 430.116565 
L 508.932 419.587561 
L 525.114 410.921148 
L 559.71 403.592825 
L 577.566 397.130083 
L 588.726 391.430101 
L 593.19 386.313793 
L 613.278 381.677523 
L 616.626 377.4898 
L 632.25 373.612285 
L 635.04 370.048131 
L 642.294 366.727554 
L 660.708 363.6543 
L 644.526 360.772332 
L 665.73 358.099916 
L 662.94 355.566739 
L 682.47 353.16119 
L 687.492 350.897646 
L 690.84 348.766348 
L 700.326 346.727283 
L 703.674 344.776122 
L 715.392 342.90792 
L 718.182 341.131943 
L 723.204 339.436599 
L 718.74 337.801128 
L 729.9 336.228843 
L 734.922 334.721325 
L 724.878 333.244719 
L 734.364 331.829528 
L 752.778 330.465011 
L 745.524 329.15133 
L 754.452 327.883072 
L 768.96 326.641545 
L 761.706 325.442192 
L 772.308 324.270406 
L 772.866 323.127457 
L 777.888 322.023479 
L 773.982 320.948 
L 783.468 319.90406 
L 780.678 318.883659 
L 777.33 317.89169 
L 790.722 316.909562 
L 791.28 315.963993 
L 800.766 315.039778 
L 805.788 314.137341 
L 799.092 313.26099 
L 806.346 312.40146 
L 800.208 311.56232 
L 806.346 310.7337 
L 802.998 309.91947 
L 812.484 309.120309 
L 817.506 308.335011 
L 810.252 307.564606 
L 820.296 306.801063 
L 823.086 306.055144 
L 822.528 305.325936 
L 832.014 304.606546 
L 825.318 303.900273 
L 836.478 302.521424 
L 833.13 301.847981 
L 832.572 301.181334 
L 840.384 300.528195 
L 835.92 299.88518 
L 844.29 299.251772 
L 839.268 298.62488 
L 842.058 298.004924 
L 838.71 297.396232 
L 843.732 296.796313 
L 847.638 296.201816 
L 848.196 295.613828 
L 853.776 295.033441 
L 848.754 294.463452 
L 845.964 293.897053 
L 848.196 293.339293 
L 855.45 292.790295 
L 846.522 292.250004 
L 857.682 291.71604 
L 854.334 291.188796 
L 858.798 290.6675 
L 858.24 290.149932 
L 855.45 289.638715 
L 864.936 288.637199 
L 860.472 288.144192 
L 857.124 287.170644 
L 862.704 286.687996 
L 862.146 286.21054 
L 863.262 285.739325 
L 872.19 285.27032 
L 867.726 284.807066 
L 872.748 284.350109 
L 871.632 283.898185 
L 877.212 283.449413 
L 863.82 283.004159 
L 878.328 282.560971 
L 869.4 282.123136 
L 871.632 281.688909 
L 869.4 281.257513 
L 878.328 280.830805 
L 879.444 280.409198 
L 882.234 279.991675 
L 877.77 279.576373 
L 871.074 279.165925 
L 876.654 278.759671 
L 875.538 278.356342 
L 882.792 277.958 
L 880.002 277.559904 
L 872.19 277.164454 
L 883.35 276.770312 
L 878.328 276.38039 
L 883.908 275.993388 
L 883.908 275.609863 
L 882.234 275.230411 
L 887.256 274.854505 
L 880.002 274.482534 
L 887.814 274.110738 
L 890.046 273.742325 
L 886.698 273.375801 
L 888.372 273.013182 
L 885.582 272.651633 
L 890.604 272.292625 
L 887.814 271.9349 
L 898.416 271.228345 
L 891.72 270.879665 
L 897.3 270.533279 
L 898.416 269.84962 
L 888.372 269.512607 
L 898.974 269.176952 
L 894.51 268.843168 
L 895.626 268.510249 
L 892.278 268.182582 
L 895.626 267.856841 
L 891.162 267.531612 
L 891.72 267.210067 
L 898.416 266.891063 
L 899.532 266.571957 
L 898.974 266.255422 
L 899.532 265.939565 
L 902.322 265.626945 
L 901.206 265.315415 
L 898.974 265.006866 
L 890.604 264.392674 
L 902.88 264.086869 
L 903.438 263.783447 
L 904.554 263.482156 
L 907.902 263.183505 
L 907.344 262.887186 
L 903.996 262.59222 
L 904.554 262.298716 
L 902.322 262.007163 
L 902.322 261.714937 
L 898.974 261.424065 
L 904.554 261.134484 
L 895.626 260.848761 
L 909.576 260.564195 
L 896.742 259.999117 
L 902.322 259.720621 
L 903.996 259.44311 
L 903.438 259.167336 
L 907.344 258.618228 
L 904.554 258.345144 
L 904.554 258.075237 
L 911.808 257.537702 
L 905.112 257.271667 
L 905.67 257.005934 
L 909.018 256.741915 
L 907.902 256.480673 
L 910.134 256.219943 
L 910.692 255.959631 
L 910.134 255.700276 
L 910.692 255.442393 
L 902.322 255.187165 
L 910.134 254.933055 
L 913.482 254.680363 
L 907.344 254.428779 
L 909.018 254.178783 
L 912.366 253.930026 
L 907.902 253.682243 
L 913.482 253.43518 
L 909.576 253.188074 
L 916.272 252.942417 
L 909.018 252.45578 
L 909.018 252.213762 
L 912.924 251.972944 
L 912.366 251.733972 
L 904.554 251.257022 
L 910.134 251.020294 
L 911.808 250.784908 
L 912.366 250.550504 
L 913.482 250.316489 
L 910.134 250.083333 
L 916.83 249.851655 
L 913.482 249.391244 
L 910.134 249.162912 
L 917.388 248.936815 
L 912.924 248.710764 
L 914.598 248.484441 
L 907.344 248.260519 
L 913.482 248.037367 
L 914.04 247.814679 
L 918.504 247.593577 
L 914.598 247.153383 
L 915.714 246.934884 
L 915.156 246.716824 
L 915.714 246.499428 
L 912.924 246.282862 
L 917.388 245.855406 
L 917.388 245.642787 
L 916.83 245.430695 
L 920.736 245.21974 
L 917.388 245.008729 
L 924.642 244.591523 
L 921.294 244.383991 
L 920.178 244.177127 
L 914.598 243.970889 
L 917.388 243.560062 
L 920.736 243.35596 
L 919.62 243.152951 
L 914.598 242.751095 
L 912.924 242.55113 
L 917.388 242.35243 
L 917.946 242.154615 
L 920.178 241.957316 
L 915.156 241.564482 
L 916.83 241.369202 
L 923.526 240.982326 
L 920.178 240.59812 
L 916.83 240.407414 
L 916.272 240.216946 
L 916.83 240.027498 
L 914.598 239.839003 
L 920.178 239.651291 
L 913.482 239.463804 
L 919.62 239.091767 
L 916.272 238.906863 
L 916.272 238.722437 
L 914.598 238.539199 
L 922.968 238.356324 
L 920.178 238.174113 
L 923.526 237.992888 
L 918.504 237.811783 
L 924.642 237.631363 
L 914.598 237.274578 
L 920.178 237.096548 
L 920.178 236.918712 
L 922.968 236.742429 
L 919.62 236.566098 
L 918.504 236.390306 
L 921.852 236.214604 
L 918.504 236.040179 
L 921.852 235.865922 
L 918.504 235.520025 
L 919.062 235.347822 
L 921.852 235.176314 
L 917.946 235.005483 
L 920.736 234.666135 
L 917.388 234.497866 
L 922.41 234.330112 
L 916.272 234.16276 
L 920.736 233.995379 
L 919.62 233.828622 
L 920.178 233.662716 
L 922.968 233.496972 
L 923.526 233.331701 
L 922.968 233.167031 
L 922.968 233.003133 
L 929.664 232.839838 
L 920.736 232.677494 
L 925.758 232.515443 
L 920.736 232.192947 
L 924.642 232.031968 
L 921.294 231.87126 
L 925.758 231.711671 
L 924.084 231.552363 
L 920.178 231.393691 
L 924.642 231.235982 
L 917.388 231.078807 
L 927.432 230.921491 
L 919.062 230.764833 
L 921.294 230.608428 
L 926.874 230.45277 
L 920.736 230.297009 
L 921.294 230.142055 
L 923.526 229.987481 
L 921.294 229.679964 
L 923.526 229.52718 
L 921.852 229.374969 
L 923.526 229.222879 
L 926.874 229.071195 
L 922.968 228.76918 
L 920.736 228.468453 
L 925.758 228.31859 
L 924.084 228.168704 
L 919.62 228.019501 
L 924.084 227.871168 
L 924.084 227.723523 
L 921.852 227.576053 
L 924.084 227.428848 
L 922.968 227.282335 
L 920.736 227.135916 
L 922.968 226.990387 
L 922.41 226.84551 
L 923.526 226.700949 
L 920.736 226.556712 
L 927.99 226.412664 
L 922.968 226.268942 
L 924.084 226.125869 
L 927.432 225.982779 
L 924.642 225.840302 
L 926.874 225.697901 
L 926.874 225.556119 
L 926.316 225.415 
L 924.084 225.274411 
L 924.084 225.134519 
L 926.316 224.994555 
L 924.642 224.855045 
L 925.2 224.71569 
L 928.548 224.576687 
L 928.548 224.438823 
L 927.432 224.301179 
L 923.526 224.163691 
L 925.2 224.027137 
L 925.2 223.890404 
L 926.874 223.753767 
L 921.294 223.617286 
L 930.78 223.481621 
L 925.758 223.346474 
L 926.316 223.211443 
L 927.432 223.07676 
L 927.432 223.07676 
" style="fill:none;stroke:#9e9e9e;stroke-linecap:square;stroke-width:5;"/>
   </g>
   <g id="line2d_58">
    <path clip-path="url(#pa276dab9eb)" d="M -1 269.572618 
L 152.928 262.017795 
L 255.6 251.856332 
L 301.356 244.020733 
L 348.228 237.760848 
L 382.824 232.454083 
L 389.52 228.307094 
L 425.79 224.454146 
L 446.994 220.873352 
L 475.452 217.582709 
L 457.038 214.571163 
L 489.96 211.872466 
L 515.628 209.593713 
L 494.982 207.360311 
L 486.054 205.323453 
L 526.788 203.229051 
L 521.766 201.368331 
L 521.208 199.540916 
L 522.882 197.987708 
L 543.528 196.372594 
L 551.34 194.722701 
L 560.268 193.29154 
L 561.942 191.969679 
L 568.08 190.596868 
L 556.92 189.284671 
L 577.566 188.07773 
L 574.218 187.052885 
L 587.61 185.983843 
L 612.162 184.893985 
L 576.45 183.834315 
L 590.958 182.821736 
L 607.698 181.873979 
L 614.952 181.000216 
L 604.908 180.085499 
L 628.344 179.229615 
L 599.886 178.368131 
L 624.996 177.583951 
L 608.814 176.825986 
L 628.344 176.093178 
L 613.836 175.34193 
L 632.25 174.558661 
L 637.83 173.875755 
L 642.852 173.144265 
L 638.946 172.394738 
L 648.99 171.738177 
L 627.228 171.059516 
L 636.156 170.50209 
L 658.476 169.920532 
L 668.52 169.342088 
L 669.078 168.842105 
L 659.034 168.353139 
L 675.216 167.835679 
L 660.15 167.281128 
L 677.448 166.711955 
L 678.006 166.156786 
L 677.448 165.693823 
L 689.724 164.593054 
L 669.078 164.100495 
L 655.686 163.643094 
L 704.232 163.159265 
L 681.354 162.714698 
L 713.16 162.266349 
L 692.514 161.789562 
L 714.276 160.989328 
L 715.95 160.597574 
L 700.884 160.196965 
L 693.63 159.859134 
L 714.276 159.475763 
L 725.994 159.107553 
L 715.392 158.768839 
L 709.812 158.415437 
L 696.42 158.057988 
L 715.392 157.728665 
L 703.674 157.375041 
L 737.712 157.074929 
L 707.58 156.765621 
L 714.276 156.459117 
L 715.392 156.107422 
L 736.038 155.800217 
L 741.06 155.453701 
L 714.834 155.164821 
L 731.016 154.863142 
L 739.386 154.565162 
L 727.668 154.242343 
L 755.568 153.943172 
L 736.038 153.402359 
L 747.756 153.143897 
L 739.944 152.88738 
L 752.778 152.60063 
L 742.176 152.351149 
L 761.706 152.080274 
L 764.496 151.813048 
L 749.988 151.543872 
L 760.032 151.283418 
L 756.126 151.030106 
L 766.17 150.789619 
L 736.596 150.521671 
L 769.518 150.044336 
L 774.54 149.846382 
L 764.496 149.587252 
L 743.85 149.341282 
L 774.54 149.095916 
L 766.728 148.85634 
L 765.612 148.618247 
L 781.794 148.371093 
L 746.64 148.146412 
L 758.916 147.941126 
L 761.148 147.725116 
L 776.214 147.526437 
L 776.214 147.313713 
L 773.982 146.897616 
L 785.142 146.690753 
L 788.49 146.494955 
L 797.418 146.33515 
L 781.236 146.105583 
L 794.07 145.917622 
L 792.396 145.731261 
L 788.49 145.546274 
L 788.49 145.357256 
L 766.728 145.168067 
L 790.722 144.968815 
L 795.744 144.774654 
L 796.86 144.566043 
L 800.208 144.397126 
L 793.512 144.228926 
L 792.396 144.085545 
L 773.982 143.540362 
L 803.556 143.387599 
L 780.678 143.049829 
L 755.568 142.875273 
L 803.556 142.697536 
L 804.672 142.523192 
L 792.954 142.35786 
L 801.324 142.188204 
L 802.998 142.009194 
L 784.584 141.863482 
L 781.236 141.689514 
L 809.694 141.388889 
L 809.694 141.219019 
L 787.932 141.069484 
L 809.694 140.650047 
L 804.672 140.508212 
L 792.396 140.330565 
L 800.766 140.173946 
L 800.766 140.024799 
L 815.274 139.758046 
L 808.578 139.474692 
L 804.114 139.339022 
L 804.672 139.207619 
L 804.114 139.074324 
L 804.114 138.925329 
L 797.976 138.644733 
L 806.904 138.488171 
L 801.882 138.365445 
L 820.854 138.242039 
L 806.904 138.001509 
L 802.44 137.888046 
L 809.136 137.761115 
L 808.02 137.611188 
L 810.81 137.486811 
L 823.086 137.350248 
L 809.694 137.090403 
L 823.086 136.965215 
L 814.158 136.727201 
L 813.6 136.611466 
L 815.274 136.504637 
L 808.578 136.374755 
L 826.992 136.254037 
L 824.202 136.126598 
L 811.926 136.008825 
L 824.76 135.765605 
L 825.318 135.653999 
L 830.898 135.530323 
L 824.76 135.417157 
L 826.434 135.317537 
L 814.716 135.211278 
L 828.666 135.091544 
L 815.274 134.993749 
L 817.506 134.870973 
L 826.434 134.651586 
L 813.6 134.430352 
L 833.13 134.322571 
L 814.158 134.198992 
L 829.224 134.009841 
L 824.202 133.796827 
L 832.014 133.692205 
L 815.832 133.49881 
L 819.18 133.28142 
L 829.782 133.071807 
L 820.854 132.977245 
L 828.666 132.787475 
L 816.39 132.405369 
L 838.71 132.139497 
L 828.108 131.95381 
L 827.55 131.837537 
L 829.782 131.744815 
L 838.152 131.656667 
L 826.434 131.573723 
L 830.34 131.491294 
L 839.268 131.412656 
L 816.948 131.327355 
L 837.036 131.245459 
L 820.854 131.14615 
L 843.174 131.068781 
L 835.92 130.969731 
L 837.594 130.785226 
L 846.522 130.702055 
L 830.34 130.62181 
L 832.572 130.53173 
L 846.522 130.342427 
L 828.666 130.189662 
L 843.174 129.958655 
L 837.036 129.868575 
L 844.29 129.797597 
L 841.5 129.719579 
L 837.036 129.639681 
L 823.644 129.559087 
L 828.108 129.487667 
L 843.174 129.404613 
L 839.826 129.325091 
L 845.406 129.263302 
L 838.152 129.17782 
L 848.754 128.958623 
L 841.5 128.869861 
L 847.638 128.782926 
L 845.964 128.71689 
L 835.362 128.645552 
L 839.268 128.579211 
L 842.058 128.499493 
L 839.268 128.423521 
L 848.754 128.341539 
L 828.108 128.26199 
L 851.544 128.123378 
L 846.522 128.05851 
L 857.682 127.992981 
L 843.732 127.833602 
L 838.71 127.69774 
L 852.66 127.627851 
L 843.174 127.5635 
L 847.638 127.49237 
L 847.638 127.440895 
L 855.45 127.374556 
L 838.71 127.314057 
L 845.406 127.246183 
L 853.218 127.18045 
L 834.246 127.109676 
L 849.87 127.048911 
L 845.406 127.002668 
L 844.29 126.939339 
L 853.776 126.876109 
L 852.66 126.811542 
L 839.268 126.616187 
L 857.124 126.546067 
L 852.66 126.472774 
L 844.29 126.408784 
L 849.312 126.347809 
L 853.218 126.292571 
L 850.428 126.238713 
L 851.544 126.131438 
L 849.87 126.072544 
L 852.102 125.999638 
L 839.268 125.948663 
L 843.732 125.885076 
L 845.406 125.818879 
L 836.478 125.759295 
L 850.428 125.63097 
L 848.754 125.575307 
L 842.058 125.449988 
L 856.008 125.34905 
L 849.87 125.277262 
L 853.776 125.222989 
L 849.312 125.163516 
L 854.334 125.114803 
L 852.66 125.050672 
L 853.218 124.986191 
L 846.522 124.842922 
L 846.522 124.788387 
L 842.616 124.684449 
L 852.66 124.507427 
L 848.754 124.449962 
L 850.428 124.390735 
L 856.566 124.271592 
L 844.848 124.126092 
L 852.102 124.021895 
L 848.754 123.983001 
L 858.24 123.930698 
L 838.152 123.870303 
L 861.03 123.748654 
L 856.008 123.699656 
L 861.03 123.642066 
L 849.87 123.59988 
L 861.03 123.552818 
L 850.986 123.450064 
L 854.334 123.402066 
L 853.776 123.358516 
L 862.704 123.170992 
L 859.914 123.120913 
L 859.914 123.120913 
" style="fill:none;stroke:#9041ff;stroke-linecap:square;stroke-width:5;"/>
   </g>
   <g id="line2d_59">
    <path clip-path="url(#pa276dab9eb)" d="M -1 514.943853 
L 152.928 500.967938 
L 255.6 482.018777 
L 301.356 468.014366 
L 348.228 457.012753 
L 382.824 447.841543 
L 389.52 440.264623 
L 425.79 433.649304 
L 446.994 427.789424 
L 475.452 422.506847 
L 457.038 417.742819 
L 489.96 413.422503 
L 515.628 409.480098 
L 494.982 405.841188 
L 486.054 402.4757 
L 526.788 399.285864 
L 521.766 396.300542 
L 521.208 393.52063 
L 522.882 390.856626 
L 543.528 388.368237 
L 551.34 386.016173 
L 560.268 383.772934 
L 561.942 381.609049 
L 568.08 379.545993 
L 556.92 377.588178 
L 577.566 375.701355 
L 574.218 373.896742 
L 587.61 372.158309 
L 612.162 370.482445 
L 576.45 368.855499 
L 590.958 367.288857 
L 607.698 365.777947 
L 614.952 364.311013 
L 604.908 362.8879 
L 628.344 361.504606 
L 599.886 360.161753 
L 624.996 358.861479 
L 608.814 357.595237 
L 628.344 356.35263 
L 613.836 355.138146 
L 632.25 353.964447 
L 642.852 351.707034 
L 638.946 350.618925 
L 648.99 349.562462 
L 627.228 348.537707 
L 636.156 347.536796 
L 658.476 346.553643 
L 668.52 345.586741 
L 669.078 344.644407 
L 659.034 343.720788 
L 675.216 342.823982 
L 660.15 341.945347 
L 677.448 341.079933 
L 678.006 340.22526 
L 677.448 339.393374 
L 689.724 337.772388 
L 669.078 336.97438 
L 655.686 336.186999 
L 704.232 335.419772 
L 681.354 334.658268 
L 713.16 333.920865 
L 692.514 333.198297 
L 714.276 331.789645 
L 715.95 331.101775 
L 700.884 330.429068 
L 693.63 329.766769 
L 714.276 329.113464 
L 725.994 328.468528 
L 715.392 327.831629 
L 709.812 327.205132 
L 696.42 326.585382 
L 715.392 325.98016 
L 703.674 325.38298 
L 737.712 324.795952 
L 707.58 324.21806 
L 714.276 323.654887 
L 715.392 323.088739 
L 736.038 322.537904 
L 741.06 321.985287 
L 714.834 321.439083 
L 731.016 320.900989 
L 739.386 320.364425 
L 727.668 319.837555 
L 755.568 319.316446 
L 747.756 318.799405 
L 736.038 318.286199 
L 747.756 317.779727 
L 739.944 317.276897 
L 752.778 316.777567 
L 742.176 316.285829 
L 761.706 315.802833 
L 764.496 315.328085 
L 749.988 314.859385 
L 760.032 314.393826 
L 756.126 313.9343 
L 766.17 313.477625 
L 736.596 313.025095 
L 757.242 312.580033 
L 769.518 312.139099 
L 774.54 311.700251 
L 764.496 311.264698 
L 743.85 310.83689 
L 774.54 310.412438 
L 766.728 309.991234 
L 765.612 309.576308 
L 781.794 309.165987 
L 746.64 308.757563 
L 758.916 308.351914 
L 761.148 307.95125 
L 776.214 307.553428 
L 776.214 307.158925 
L 773.982 306.375979 
L 785.142 305.986416 
L 788.49 305.603121 
L 797.418 305.222683 
L 781.236 304.846876 
L 794.07 304.473423 
L 792.396 304.104043 
L 788.49 303.738223 
L 788.49 303.372415 
L 766.728 303.010225 
L 790.722 302.648479 
L 795.744 302.289822 
L 796.86 301.935046 
L 800.208 301.584999 
L 793.512 301.23811 
L 792.396 300.894084 
L 779.004 300.215215 
L 773.982 299.880068 
L 803.556 299.548753 
L 780.678 298.887903 
L 755.568 298.563163 
L 803.556 298.241419 
L 804.672 297.922253 
L 792.954 297.604578 
L 801.324 297.28997 
L 802.998 296.976903 
L 784.584 296.664168 
L 781.236 296.354402 
L 801.882 296.0486 
L 809.694 295.744922 
L 809.694 295.442336 
L 787.932 295.142043 
L 809.694 294.250811 
L 804.672 293.955859 
L 792.396 293.664984 
L 800.766 293.375712 
L 800.766 293.088437 
L 811.926 292.802196 
L 815.274 292.516981 
L 809.694 292.234718 
L 808.578 291.954183 
L 804.114 291.676666 
L 804.672 291.40079 
L 804.114 291.125742 
L 804.114 290.852566 
L 797.976 290.309944 
L 806.904 290.042301 
L 801.882 289.77613 
L 820.854 289.511715 
L 811.368 289.247557 
L 802.44 288.727227 
L 809.136 288.468841 
L 808.02 288.212265 
L 810.81 287.956019 
L 823.086 287.701496 
L 809.694 287.199263 
L 823.086 286.948818 
L 816.39 286.699808 
L 814.158 286.453513 
L 813.6 286.208322 
L 815.274 285.963947 
L 808.578 285.721434 
L 826.992 285.481953 
L 824.202 285.243201 
L 811.926 285.004863 
L 823.644 284.768869 
L 824.76 284.534315 
L 825.318 284.300433 
L 830.898 284.067633 
L 824.76 283.835211 
L 826.434 283.604341 
L 814.716 283.375079 
L 828.666 283.147501 
L 815.274 282.921426 
L 817.506 282.694445 
L 826.434 282.469758 
L 826.434 282.246971 
L 813.6 281.804978 
L 833.13 281.585081 
L 814.158 281.365887 
L 825.876 281.146872 
L 829.224 280.929266 
L 824.202 280.49791 
L 832.014 280.283696 
L 815.832 279.856008 
L 818.622 279.644337 
L 819.18 279.434045 
L 828.108 279.224191 
L 829.782 279.015361 
L 820.854 278.807876 
L 828.108 278.600718 
L 828.666 278.396317 
L 820.854 277.790102 
L 816.39 277.589118 
L 823.086 277.388436 
L 837.036 277.190046 
L 838.71 276.99199 
L 830.34 276.794789 
L 828.108 276.598007 
L 827.55 276.402451 
L 829.782 276.207022 
L 838.152 276.012168 
L 826.434 275.818806 
L 830.34 275.625805 
L 839.268 275.433193 
L 816.948 275.241114 
L 837.036 275.050662 
L 820.854 274.861095 
L 843.174 274.673116 
L 835.92 274.485845 
L 837.594 274.299686 
L 837.594 274.113944 
L 846.522 273.928557 
L 830.34 273.744625 
L 832.572 273.56144 
L 846.522 273.19674 
L 828.666 272.833382 
L 838.71 272.652701 
L 839.268 272.473458 
L 843.174 272.295605 
L 837.036 272.117492 
L 844.29 271.940465 
L 837.036 271.588911 
L 823.644 271.41415 
L 828.108 271.239964 
L 843.174 271.067097 
L 839.826 270.894125 
L 845.406 270.723222 
L 838.152 270.552842 
L 845.406 270.383527 
L 844.29 270.214029 
L 848.754 270.04484 
L 841.5 269.875912 
L 847.638 269.708073 
L 845.964 269.540273 
L 835.362 269.373886 
L 842.058 269.042057 
L 839.268 268.877369 
L 848.754 268.712764 
L 828.108 268.548037 
L 851.544 268.222088 
L 846.522 268.059846 
L 857.682 267.898618 
L 843.732 267.737395 
L 843.732 267.577703 
L 842.058 267.418535 
L 838.71 267.259956 
L 852.66 267.101616 
L 843.174 266.943277 
L 847.638 266.784966 
L 847.638 266.627416 
L 855.45 266.470961 
L 838.71 266.315156 
L 853.218 266.005016 
L 834.246 265.851386 
L 849.87 265.698258 
L 845.406 265.545703 
L 844.29 265.393098 
L 853.776 265.241201 
L 852.66 265.089527 
L 848.196 264.938272 
L 849.312 264.788197 
L 839.268 264.639081 
L 857.124 264.489641 
L 852.66 264.341344 
L 844.29 264.192794 
L 853.218 263.895902 
L 850.428 263.748164 
L 851.544 263.454088 
L 849.87 263.308479 
L 852.102 263.163548 
L 839.268 263.018635 
L 845.406 262.729766 
L 836.478 262.58585 
L 850.428 262.300439 
L 848.754 262.158335 
L 843.174 262.016505 
L 842.058 261.875263 
L 856.008 261.592794 
L 849.87 261.451942 
L 853.776 261.311699 
L 849.312 261.171561 
L 854.334 261.031265 
L 852.66 260.89196 
L 853.218 260.753501 
L 847.08 260.615309 
L 852.66 260.477346 
L 846.522 260.340368 
L 846.522 260.203795 
L 842.616 259.932185 
L 852.66 259.660975 
L 852.66 259.526146 
L 848.754 259.391589 
L 850.428 259.257647 
L 856.566 258.991257 
L 844.848 258.59379 
L 851.544 258.462182 
L 852.102 258.331169 
L 848.754 258.200246 
L 858.24 258.069702 
L 838.152 257.940019 
L 861.03 257.680684 
L 856.008 257.551202 
L 861.03 257.422313 
L 849.87 257.293903 
L 861.03 257.165602 
L 850.986 256.910555 
L 854.334 256.783329 
L 853.776 256.656223 
L 858.24 256.402799 
L 856.566 256.277212 
L 862.704 256.151326 
L 859.914 256.02633 
L 859.914 256.02633 
" style="fill:none;stroke:#c49fff;stroke-linecap:square;stroke-width:5;"/>
   </g>
   <g id="patch_3">
    <path d="M 144 504 
L 144 69.12 
" style="fill:none;stroke:#000000;stroke-linecap:square;stroke-linejoin:miter;stroke-width:0.8;"/>
   </g>
   <g id="patch_4">
    <path d="M 1036.8 504 
L 1036.8 69.12 
" style="fill:none;stroke:#000000;stroke-linecap:square;stroke-linejoin:miter;stroke-width:0.8;"/>
   </g>
   <g id="patch_5">
    <path d="M 144 504 
L 1036.8 504 
" style="fill:none;stroke:#000000;stroke-linecap:square;stroke-linejoin:miter;stroke-width:0.8;"/>
   </g>
   <g id="patch_6">
    <path d="M 144 69.12 
L 1036.8 69.12 
" style="fill:none;stroke:#000000;stroke-linecap:square;stroke-linejoin:miter;stroke-width:0.8;"/>
   </g>
   <g id="text_17">
    <!-- Gated: Energy vs. Accuracy with 250 Units @ 0.8 -->
    <g transform="translate(147.895312 61.633125)scale(0.36 -0.36)">
     <defs>
      <path d="M 59.515625 10.40625 
L 59.515625 29.984375 
L 43.40625 29.984375 
L 43.40625 38.09375 
L 69.28125 38.09375 
L 69.28125 6.78125 
Q 63.578125 2.734375 56.6875 0.65625 
Q 49.8125 -1.421875 42 -1.421875 
Q 24.90625 -1.421875 15.25 8.5625 
Q 5.609375 18.5625 5.609375 36.375 
Q 5.609375 54.25 15.25 64.234375 
Q 24.90625 74.21875 42 74.21875 
Q 49.125 74.21875 55.546875 72.453125 
Q 61.96875 70.703125 67.390625 67.28125 
L 67.390625 56.78125 
Q 61.921875 61.421875 55.765625 63.765625 
Q 49.609375 66.109375 42.828125 66.109375 
Q 29.4375 66.109375 22.71875 58.640625 
Q 16.015625 51.171875 16.015625 36.375 
Q 16.015625 21.625 22.71875 14.15625 
Q 29.4375 6.6875 42.828125 6.6875 
Q 48.046875 6.6875 52.140625 7.59375 
Q 56.25 8.5 59.515625 10.40625 
z
" id="DejaVuSans-71"/>
      <path d="M 18.3125 70.21875 
L 18.3125 54.6875 
L 36.8125 54.6875 
L 36.8125 47.703125 
L 18.3125 47.703125 
L 18.3125 18.015625 
Q 18.3125 11.328125 20.140625 9.421875 
Q 21.96875 7.515625 27.59375 7.515625 
L 36.8125 7.515625 
L 36.8125 0 
L 27.59375 0 
Q 17.1875 0 13.234375 3.875 
Q 9.28125 7.765625 9.28125 18.015625 
L 9.28125 47.703125 
L 2.6875 47.703125 
L 2.6875 54.6875 
L 9.28125 54.6875 
L 9.28125 70.21875 
z
" id="DejaVuSans-116"/>
      <path d="M 45.40625 46.390625 
L 45.40625 75.984375 
L 54.390625 75.984375 
L 54.390625 0 
L 45.40625 0 
L 45.40625 8.203125 
Q 42.578125 3.328125 38.25 0.953125 
Q 33.9375 -1.421875 27.875 -1.421875 
Q 17.96875 -1.421875 11.734375 6.484375 
Q 5.515625 14.40625 5.515625 27.296875 
Q 5.515625 40.1875 11.734375 48.09375 
Q 17.96875 56 27.875 56 
Q 33.9375 56 38.25 53.625 
Q 42.578125 51.265625 45.40625 46.390625 
z
M 14.796875 27.296875 
Q 14.796875 17.390625 18.875 11.75 
Q 22.953125 6.109375 30.078125 6.109375 
Q 37.203125 6.109375 41.296875 11.75 
Q 45.40625 17.390625 45.40625 27.296875 
Q 45.40625 37.203125 41.296875 42.84375 
Q 37.203125 48.484375 30.078125 48.484375 
Q 22.953125 48.484375 18.875 42.84375 
Q 14.796875 37.203125 14.796875 27.296875 
z
" id="DejaVuSans-100"/>
      <path d="M 11.71875 12.40625 
L 22.015625 12.40625 
L 22.015625 0 
L 11.71875 0 
z
M 11.71875 51.703125 
L 22.015625 51.703125 
L 22.015625 39.3125 
L 11.71875 39.3125 
z
" id="DejaVuSans-58"/>
      <path d="M 2.984375 54.6875 
L 12.5 54.6875 
L 29.59375 8.796875 
L 46.6875 54.6875 
L 56.203125 54.6875 
L 35.6875 0 
L 23.484375 0 
z
" id="DejaVuSans-118"/>
      <path d="M 44.28125 53.078125 
L 44.28125 44.578125 
Q 40.484375 46.53125 36.375 47.5 
Q 32.28125 48.484375 27.875 48.484375 
Q 21.1875 48.484375 17.84375 46.4375 
Q 14.5 44.390625 14.5 40.28125 
Q 14.5 37.15625 16.890625 35.375 
Q 19.28125 33.59375 26.515625 31.984375 
L 29.59375 31.296875 
Q 39.15625 29.25 43.1875 25.515625 
Q 47.21875 21.78125 47.21875 15.09375 
Q 47.21875 7.46875 41.1875 3.015625 
Q 35.15625 -1.421875 24.609375 -1.421875 
Q 20.21875 -1.421875 15.453125 -0.5625 
Q 10.6875 0.296875 5.421875 2 
L 5.421875 11.28125 
Q 10.40625 8.6875 15.234375 7.390625 
Q 20.0625 6.109375 24.8125 6.109375 
Q 31.15625 6.109375 34.5625 8.28125 
Q 37.984375 10.453125 37.984375 14.40625 
Q 37.984375 18.0625 35.515625 20.015625 
Q 33.0625 21.96875 24.703125 23.78125 
L 21.578125 24.515625 
Q 13.234375 26.265625 9.515625 29.90625 
Q 5.8125 33.546875 5.8125 39.890625 
Q 5.8125 47.609375 11.28125 51.796875 
Q 16.75 56 26.8125 56 
Q 31.78125 56 36.171875 55.265625 
Q 40.578125 54.546875 44.28125 53.078125 
z
" id="DejaVuSans-115"/>
      <path d="M 4.203125 54.6875 
L 13.1875 54.6875 
L 24.421875 12.015625 
L 35.59375 54.6875 
L 46.1875 54.6875 
L 57.421875 12.015625 
L 68.609375 54.6875 
L 77.59375 54.6875 
L 63.28125 0 
L 52.6875 0 
L 40.921875 44.828125 
L 29.109375 0 
L 18.5 0 
z
" id="DejaVuSans-119"/>
      <path d="M 9.421875 54.6875 
L 18.40625 54.6875 
L 18.40625 0 
L 9.421875 0 
z
M 9.421875 75.984375 
L 18.40625 75.984375 
L 18.40625 64.59375 
L 9.421875 64.59375 
z
" id="DejaVuSans-105"/>
      <path d="M 54.890625 33.015625 
L 54.890625 0 
L 45.90625 0 
L 45.90625 32.71875 
Q 45.90625 40.484375 42.875 44.328125 
Q 39.84375 48.1875 33.796875 48.1875 
Q 26.515625 48.1875 22.3125 43.546875 
Q 18.109375 38.921875 18.109375 30.90625 
L 18.109375 0 
L 9.078125 0 
L 9.078125 75.984375 
L 18.109375 75.984375 
L 18.109375 46.1875 
Q 21.34375 51.125 25.703125 53.5625 
Q 30.078125 56 35.796875 56 
Q 45.21875 56 50.046875 50.171875 
Q 54.890625 44.34375 54.890625 33.015625 
z
" id="DejaVuSans-104"/>
      <path d="M 37.203125 26.21875 
Q 37.203125 19.234375 40.671875 15.25 
Q 44.140625 11.28125 50.203125 11.28125 
Q 56.203125 11.28125 59.640625 15.28125 
Q 63.09375 19.28125 63.09375 26.21875 
Q 63.09375 33.0625 59.578125 37.078125 
Q 56.0625 41.109375 50.09375 41.109375 
Q 44.1875 41.109375 40.6875 37.109375 
Q 37.203125 33.109375 37.203125 26.21875 
z
M 63.8125 11.625 
Q 60.890625 7.859375 57.109375 6.078125 
Q 53.328125 4.296875 48.296875 4.296875 
Q 39.890625 4.296875 34.640625 10.375 
Q 29.390625 16.453125 29.390625 26.21875 
Q 29.390625 35.984375 34.65625 42.078125 
Q 39.9375 48.1875 48.296875 48.1875 
Q 53.328125 48.1875 57.125 46.359375 
Q 60.9375 44.53125 63.8125 40.828125 
L 63.8125 47.21875 
L 70.796875 47.21875 
L 70.796875 11.28125 
Q 77.9375 12.359375 81.953125 17.796875 
Q 85.984375 23.25 85.984375 31.890625 
Q 85.984375 37.109375 84.4375 41.703125 
Q 82.90625 46.296875 79.78125 50.203125 
Q 74.703125 56.59375 67.40625 59.984375 
Q 60.109375 63.375 51.515625 63.375 
Q 45.515625 63.375 39.984375 61.78125 
Q 34.46875 60.203125 29.78125 57.078125 
Q 22.125 52.09375 17.796875 44.015625 
Q 13.484375 35.9375 13.484375 26.515625 
Q 13.484375 18.75 16.28125 11.953125 
Q 19.09375 5.171875 24.421875 0 
Q 29.546875 -5.078125 36.28125 -7.734375 
Q 43.015625 -10.40625 50.6875 -10.40625 
Q 56.984375 -10.40625 63.0625 -8.28125 
Q 69.140625 -6.15625 74.21875 -2.203125 
L 78.609375 -7.625 
Q 72.515625 -12.359375 65.3125 -14.875 
Q 58.109375 -17.390625 50.6875 -17.390625 
Q 41.65625 -17.390625 33.640625 -14.1875 
Q 25.640625 -10.984375 19.390625 -4.890625 
Q 13.140625 1.21875 9.859375 9.25 
Q 6.59375 17.28125 6.59375 26.515625 
Q 6.59375 35.40625 9.90625 43.453125 
Q 13.234375 51.515625 19.390625 57.625 
Q 25.6875 63.8125 33.9375 67.109375 
Q 42.1875 70.40625 51.421875 70.40625 
Q 61.765625 70.40625 70.625 66.15625 
Q 79.5 61.921875 85.5 54.109375 
Q 89.15625 49.3125 91.078125 43.703125 
Q 93.015625 38.09375 93.015625 32.078125 
Q 93.015625 19.234375 85.25 11.8125 
Q 77.484375 4.390625 63.8125 4.109375 
z
" id="DejaVuSans-64"/>
     </defs>
     <use xlink:href="#DejaVuSans-71"/>
     <use x="77.490234" xlink:href="#DejaVuSans-97"/>
     <use x="138.769531" xlink:href="#DejaVuSans-116"/>
     <use x="177.978516" xlink:href="#DejaVuSans-101"/>
     <use x="239.501953" xlink:href="#DejaVuSans-100"/>
     <use x="302.978516" xlink:href="#DejaVuSans-58"/>
     <use x="336.669922" xlink:href="#DejaVuSans-32"/>
     <use x="368.457031" xlink:href="#DejaVuSans-69"/>
     <use x="431.640625" xlink:href="#DejaVuSans-110"/>
     <use x="495.019531" xlink:href="#DejaVuSans-101"/>
     <use x="556.542969" xlink:href="#DejaVuSans-114"/>
     <use x="595.90625" xlink:href="#DejaVuSans-103"/>
     <use x="659.382812" xlink:href="#DejaVuSans-121"/>
     <use x="718.5625" xlink:href="#DejaVuSans-32"/>
     <use x="750.349609" xlink:href="#DejaVuSans-118"/>
     <use x="809.529297" xlink:href="#DejaVuSans-115"/>
     <use x="861.628906" xlink:href="#DejaVuSans-46"/>
     <use x="893.416016" xlink:href="#DejaVuSans-32"/>
     <use x="925.203125" xlink:href="#DejaVuSans-65"/>
     <use x="991.861328" xlink:href="#DejaVuSans-99"/>
     <use x="1046.841797" xlink:href="#DejaVuSans-99"/>
     <use x="1101.822266" xlink:href="#DejaVuSans-117"/>
     <use x="1165.201172" xlink:href="#DejaVuSans-114"/>
     <use x="1206.314453" xlink:href="#DejaVuSans-97"/>
     <use x="1267.59375" xlink:href="#DejaVuSans-99"/>
     <use x="1322.574219" xlink:href="#DejaVuSans-121"/>
     <use x="1381.753906" xlink:href="#DejaVuSans-32"/>
     <use x="1413.541016" xlink:href="#DejaVuSans-119"/>
     <use x="1495.328125" xlink:href="#DejaVuSans-105"/>
     <use x="1523.111328" xlink:href="#DejaVuSans-116"/>
     <use x="1562.320312" xlink:href="#DejaVuSans-104"/>
     <use x="1625.699219" xlink:href="#DejaVuSans-32"/>
     <use x="1657.486328" xlink:href="#DejaVuSans-50"/>
     <use x="1721.109375" xlink:href="#DejaVuSans-53"/>
     <use x="1784.732422" xlink:href="#DejaVuSans-48"/>
     <use x="1848.355469" xlink:href="#DejaVuSans-32"/>
     <use x="1880.142578" xlink:href="#DejaVuSans-85"/>
     <use x="1953.335938" xlink:href="#DejaVuSans-110"/>
     <use x="2016.714844" xlink:href="#DejaVuSans-105"/>
     <use x="2044.498047" xlink:href="#DejaVuSans-116"/>
     <use x="2083.707031" xlink:href="#DejaVuSans-115"/>
     <use x="2135.806641" xlink:href="#DejaVuSans-32"/>
     <use x="2167.59375" xlink:href="#DejaVuSans-64"/>
     <use x="2267.59375" xlink:href="#DejaVuSans-32"/>
     <use x="2299.380859" xlink:href="#DejaVuSans-48"/>
     <use x="2363.003906" xlink:href="#DejaVuSans-46"/>
     <use x="2394.791016" xlink:href="#DejaVuSans-56"/>
    </g>
   </g>
   <g id="legend_1">
    <g id="patch_7">
     <path d="M 799.660625 493 
L 1021.4 493 
Q 1025.8 493 1025.8 488.6 
L 1025.8 361.6325 
Q 1025.8 357.2325 1021.4 357.2325 
L 799.660625 357.2325 
Q 795.260625 357.2325 795.260625 361.6325 
L 795.260625 488.6 
Q 795.260625 493 799.660625 493 
z
" style="fill:#ffffff;opacity:0.8;stroke:#cccccc;stroke-linejoin:miter;"/>
    </g>
    <g id="line2d_60">
     <path d="M 804.060625 375.049062 
L 848.060625 375.049062 
" style="fill:none;stroke:#1f1f1f;stroke-linecap:square;stroke-width:5;"/>
    </g>
    <g id="line2d_61"/>
    <g id="text_18">
     <!-- Ungated: 1.0 -->
     <g transform="translate(865.660625 382.749062)scale(0.22 -0.22)">
      <use xlink:href="#DejaVuSans-85"/>
      <use x="73.193359" xlink:href="#DejaVuSans-110"/>
      <use x="136.572266" xlink:href="#DejaVuSans-103"/>
      <use x="200.048828" xlink:href="#DejaVuSans-97"/>
      <use x="261.328125" xlink:href="#DejaVuSans-116"/>
      <use x="300.537109" xlink:href="#DejaVuSans-101"/>
      <use x="362.060547" xlink:href="#DejaVuSans-100"/>
      <use x="425.537109" xlink:href="#DejaVuSans-58"/>
      <use x="459.228516" xlink:href="#DejaVuSans-32"/>
      <use x="491.015625" xlink:href="#DejaVuSans-49"/>
      <use x="554.638672" xlink:href="#DejaVuSans-46"/>
      <use x="586.425781" xlink:href="#DejaVuSans-48"/>
     </g>
    </g>
    <g id="line2d_62">
     <path d="M 804.060625 407.340937 
L 848.060625 407.340937 
" style="fill:none;stroke:#9e9e9e;stroke-linecap:square;stroke-width:5;"/>
    </g>
    <g id="line2d_63"/>
    <g id="text_19">
     <!-- Minimum: 1.0 -->
     <g transform="translate(865.660625 415.040937)scale(0.22 -0.22)">
      <defs>
       <path d="M 9.8125 72.90625 
L 24.515625 72.90625 
L 43.109375 23.296875 
L 61.8125 72.90625 
L 76.515625 72.90625 
L 76.515625 0 
L 66.890625 0 
L 66.890625 64.015625 
L 48.09375 14.015625 
L 38.1875 14.015625 
L 19.390625 64.015625 
L 19.390625 0 
L 9.8125 0 
z
" id="DejaVuSans-77"/>
       <path d="M 52 44.1875 
Q 55.375 50.25 60.0625 53.125 
Q 64.75 56 71.09375 56 
Q 79.640625 56 84.28125 50.015625 
Q 88.921875 44.046875 88.921875 33.015625 
L 88.921875 0 
L 79.890625 0 
L 79.890625 32.71875 
Q 79.890625 40.578125 77.09375 44.375 
Q 74.3125 48.1875 68.609375 48.1875 
Q 61.625 48.1875 57.5625 43.546875 
Q 53.515625 38.921875 53.515625 30.90625 
L 53.515625 0 
L 44.484375 0 
L 44.484375 32.71875 
Q 44.484375 40.625 41.703125 44.40625 
Q 38.921875 48.1875 33.109375 48.1875 
Q 26.21875 48.1875 22.15625 43.53125 
Q 18.109375 38.875 18.109375 30.90625 
L 18.109375 0 
L 9.078125 0 
L 9.078125 54.6875 
L 18.109375 54.6875 
L 18.109375 46.1875 
Q 21.1875 51.21875 25.484375 53.609375 
Q 29.78125 56 35.6875 56 
Q 41.65625 56 45.828125 52.96875 
Q 50 49.953125 52 44.1875 
z
" id="DejaVuSans-109"/>
      </defs>
      <use xlink:href="#DejaVuSans-77"/>
      <use x="86.279297" xlink:href="#DejaVuSans-105"/>
      <use x="114.0625" xlink:href="#DejaVuSans-110"/>
      <use x="177.441406" xlink:href="#DejaVuSans-105"/>
      <use x="205.224609" xlink:href="#DejaVuSans-109"/>
      <use x="302.636719" xlink:href="#DejaVuSans-117"/>
      <use x="366.015625" xlink:href="#DejaVuSans-109"/>
      <use x="463.427734" xlink:href="#DejaVuSans-58"/>
      <use x="497.119141" xlink:href="#DejaVuSans-32"/>
      <use x="528.90625" xlink:href="#DejaVuSans-49"/>
      <use x="592.529297" xlink:href="#DejaVuSans-46"/>
      <use x="624.316406" xlink:href="#DejaVuSans-48"/>
     </g>
    </g>
    <g id="line2d_64">
     <path d="M 804.060625 439.632812 
L 848.060625 439.632812 
" style="fill:none;stroke:#9041ff;stroke-linecap:square;stroke-width:5;"/>
    </g>
    <g id="line2d_65"/>
    <g id="text_20">
     <!-- Gated: 0.8 -->
     <g transform="translate(865.660625 447.332812)scale(0.22 -0.22)">
      <use xlink:href="#DejaVuSans-71"/>
      <use x="77.490234" xlink:href="#DejaVuSans-97"/>
      <use x="138.769531" xlink:href="#DejaVuSans-116"/>
      <use x="177.978516" xlink:href="#DejaVuSans-101"/>
      <use x="239.501953" xlink:href="#DejaVuSans-100"/>
      <use x="302.978516" xlink:href="#DejaVuSans-58"/>
      <use x="336.669922" xlink:href="#DejaVuSans-32"/>
      <use x="368.457031" xlink:href="#DejaVuSans-48"/>
      <use x="432.080078" xlink:href="#DejaVuSans-46"/>
      <use x="463.867188" xlink:href="#DejaVuSans-56"/>
     </g>
    </g>
    <g id="line2d_66">
     <path d="M 804.060625 471.924688 
L 848.060625 471.924688 
" style="fill:none;stroke:#c49fff;stroke-linecap:square;stroke-width:5;"/>
    </g>
    <g id="line2d_67"/>
    <g id="text_21">
     <!-- Minimum: 0.8 -->
     <g transform="translate(865.660625 479.624687)scale(0.22 -0.22)">
      <use xlink:href="#DejaVuSans-77"/>
      <use x="86.279297" xlink:href="#DejaVuSans-105"/>
      <use x="114.0625" xlink:href="#DejaVuSans-110"/>
      <use x="177.441406" xlink:href="#DejaVuSans-105"/>
      <use x="205.224609" xlink:href="#DejaVuSans-109"/>
      <use x="302.636719" xlink:href="#DejaVuSans-117"/>
      <use x="366.015625" xlink:href="#DejaVuSans-109"/>
      <use x="463.427734" xlink:href="#DejaVuSans-58"/>
      <use x="497.119141" xlink:href="#DejaVuSans-32"/>
      <use x="528.90625" xlink:href="#DejaVuSans-48"/>
      <use x="592.529297" xlink:href="#DejaVuSans-46"/>
      <use x="624.316406" xlink:href="#DejaVuSans-56"/>
     </g>
    </g>
   </g>
  </g>
 </g>
 <defs>
  <clipPath id="pa276dab9eb">
   <rect height="434.88" width="892.8" x="144" y="69.12"/>
  </clipPath>
 </defs>
</svg>
